<?xml version="1.0" encoding="utf-8"?>
<!-- Generator: Adobe Illustrator 24.2.1, SVG Export Plug-In . SVG Version: 6.00 Build 0)  -->
<svg version="1.1" id="Layer_1" xmlns="http://www.w3.org/2000/svg" xmlns:xlink="http://www.w3.org/1999/xlink" x="0px" y="0px"
	 width="818px" height="781px" viewBox="0 0 818 781" style="enable-background:new 0 0 818 781;" xml:space="preserve">
<style type="text/css">
	.st0{fill:#F16322;***REMOVED***
	.st1{fill:#231F20;***REMOVED***
</style>
<g>
	<g>
		<path class="st0" d="M171.9,268.5c0,37.7,21.6,86.1,52,135.3l2.3,0.9c14.6,21.4,34,45.4,45.2,45.4c4.9,0,80.6-110.7,80.6-110.7
			l55.8,67l102.2-151.9l21.2,32.2l3-121.5l-103.1,80l49.8-3.6l-73.6,114.3l-66.8-79.3c0,0-49,72.1-73,103.9
			c-26.1-40.9-45.2-81.5-45.2-112.8c0-98.6,83.6-178.6,186.4-178.6c103.1,0,186.7,80,186.7,178.6S412.3,557.4,412.3,557.4
			s-46-44.8-96.1-109.5c-4.7,8.3-24.6,27.2-29.5,34.4c63.9,83.1,126.4,156.1,126.4,156.1s232.9-243.9,232.9-369.9
			S540,40.5,408.9,40.5C278,40.5,171.9,142.5,171.9,268.5z"/>
		<path class="st0" d="M483.5,593.9c54.7,14.4,79.5,41.4,62.6,67.9c-17,26.5-70.4,44.3-134.9,44.8c-64.3,0.4-119-16.5-138.1-42.8
			c-19.1-26.3,3.8-53.5,57.5-68.7l-43.9-28.4c-83.8,23.8-119.2,66.2-89.5,107.1c29.7,40.9,115,67.4,215.3,66.8
			c100.3-0.6,183.9-28.4,210.4-69.8c26.5-41.4-12.3-83.4-97.8-105.8L483.5,593.9z"/>
	</g>
</g>
</svg>
