<?xml version="1.0" encoding="UTF-8"?>
<svg id="Layer_1" xmlns="http://www.w3.org/2000/svg" version="1.1" xmlns:xlink="http://www.w3.org/1999/xlink" viewBox="0 0 1025 1025">
  <!-- Generator: Adobe Illustrator 29.3.1, SVG Export Plug-In . SVG Version: 2.1.0 Build 151)  -->
  <defs>
    <style>
      .st0 {
        fill: #fff;
      }

      .st1 {
        fill: none;
      }

      .st2 {
        clip-path: url(#clippath-1);
      }

      .st3 {
        fill: #1d1d1b;
      }

      .st4 {
        clip-path: url(#clippath);
      }
    </style>
    <clipPath id="clippath">
      <path class="st1" d="M408.8,162.7c-1.8,0-3.4.9-4.5,2.3l-54.7,70.9c-1,1.1-1.5,2.5-1.4,4v27.4h-72.9c-1.6.2-3,1-3.9,2.2l-54.2,70.2c-2.1,2.8-3.4-5.2-3.4-5.2v324.8l63-5.4,108.2,40.5,37.2,135.8,403.5-20.6,52.4,18.8V209c.3-3.1-1.9-5.9-5-6.2,0,0-.2,0-.3,0h-18.1s-87.1,0-87.1,0h-75c-1.7,0-3.2.9-4.2,2.2l-54.8,71c-.9,1-1.3,2.3-1.3,3.7v29.7l-71.1-34.6v-106.4c0-3.1-2.5-5.7-5.6-5.7,0,0,0,0-.1,0h-146.6Z"/>
    </clipPath>
    <clipPath id="clippath-1">
      <rect class="st1" x="7.7" y="117.3" width="1004.2" height="854.9"/>
    </clipPath>
  </defs>
  <g id="Group_9030">
    <g id="Group_9029">
      <g id="Group_5634">
        <g class="st4">
          <g id="Group_5633">
            <path id="Path_28989" class="st3" d="M372.7,827.8h-151.9c-3.2,0-5.7-2.6-5.7-5.7h0v-477.9c0-1.3.4-2.5,1.2-3.5l55-71.2c1.1-1.4,2.8-2.2,4.5-2.2h96.9c3.2,0,5.7,2.6,5.7,5.7h0v549.1c0,3.2-2.6,5.7-5.7,5.7h0M226.5,816.3h140.5V278.7h-88.4l-52.1,67.5v470.2Z"/>
            <path id="Path_28990" class="st3" d="M275.8,827.8c-3.2,0-5.7-2.6-5.7-5.7h0V273c0-3.2,2.6-5.7,5.7-5.7s5.7,2.6,5.7,5.7v549.1c0,3.2-2.6,5.7-5.7,5.7h0"/>
            <path id="Path_28991" class="st3" d="M555.3,827.8h-146.5c-3.2,0-5.7-2.5-5.7-5.7s2.5-5.7,5.7-5.7h140.8V174.1h-138l-52.1,67.4v11.1c0,3.2-2.6,5.7-5.7,5.7s-5.7-2.6-5.7-5.7v-13c0-1.3.4-2.5,1.2-3.5l55-71.2c1.1-1.4,2.8-2.2,4.5-2.2h146.5c3.2,0,5.7,2.6,5.7,5.7h0v653.7c0,3.2-2.6,5.7-5.7,5.7h0"/>
            <path id="Path_28992" class="st3" d="M408.8,827.8c-3.2,0-5.7-2.6-5.7-5.7h0V168.4c0-3.2,2.6-5.7,5.7-5.7s5.7,2.6,5.7,5.7v653.7c0,3.2-2.6,5.7-5.7,5.7h0"/>
            <path id="Path_28993" class="st3" d="M734.6,827.8h-179.3c-3.2,0-5.7-2.6-5.7-5.7,0-3.1,2.6-5.7,5.7-5.7h173.6v-430h-113.4l-55.9,63.2c-2.1,2.4-5.7,2.6-8.1.5s-2.6-5.7-.5-8.1l57.6-65.1c1.1-1.2,2.6-1.9,4.3-1.9h121.7c3.2,0,5.7,2.6,5.7,5.7h0v441.4c0,3.2-2.6,5.7-5.7,5.7h0"/>
            <path id="Path_28994" class="st3" d="M612.9,827.8c-3.2,0-5.7-2.6-5.7-5.7h0v-441.4c0-3.2,2.6-5.7,5.7-5.7s5.7,2.6,5.7,5.7v441.4c0,3.2-2.6,5.7-5.7,5.7h0"/>
            <path id="Path_28995" class="st3" d="M692.9,359.7c-3.2,0-5.7-2.6-5.7-5.7h0v-145.6c0-3.2,2.6-5.7,5.7-5.7s5.7,2.6,5.7,5.7h0v145.6c0,3.2-2.6,5.7-5.7,5.7h0"/>
            <path id="Path_28996" class="st3" d="M872.3,827.8h-110.3c-3.2,0-5.7-2.5-5.7-5.7,0-3.2,2.5-5.7,5.7-5.7h104.6V214.1h-170.9l-52.1,67.5v72.4c0,3.2-2.6,5.7-5.7,5.7-3.1,0-5.7-2.6-5.7-5.7v-74.4c0-1.3.4-2.5,1.2-3.5l55-71.2c1.1-1.4,2.8-2.2,4.5-2.2h179.4c3.2,0,5.7,2.6,5.7,5.7h0v613.6c0,3.2-2.6,5.7-5.7,5.7h0"/>
            <path id="Path_28997" class="st3" d="M440.4,821.4c-3.2,0-5.7-2.6-5.7-5.7h0V209.8c0-3.2,2.6-5.7,5.7-5.7s5.7,2.6,5.7,5.7v605.9c0,3.2-2.6,5.7-5.7,5.7h0"/>
            <path id="Path_28998" class="st3" d="M523.7,821.4c-3.2,0-5.7-2.6-5.7-5.7h0V209.8c0-3.2,2.6-5.7,5.7-5.7s5.7,2.6,5.7,5.7v605.9c0,3.2-2.6,5.7-5.7,5.7h0"/>
            <path id="Path_28999" class="st3" d="M839.4,246.9h-26.5c-3.2,0-5.7-2.6-5.7-5.7,0-3.2,2.6-5.7,5.7-5.7h26.5c3.2,0,5.7,2.6,5.7,5.7,0,3.2-2.6,5.7-5.7,5.7h0"/>
            <path id="Path_29000" class="st3" d="M839.4,280.5h-26.5c-3.2,0-5.7-2.6-5.7-5.7,0-3.2,2.6-5.7,5.7-5.7h26.5c3.2,0,5.7,2.6,5.7,5.7,0,3.2-2.6,5.7-5.7,5.7h0"/>
            <path id="Path_29001" class="st3" d="M839.4,314.1h-26.5c-3.2,0-5.7-2.6-5.7-5.7,0-3.2,2.6-5.7,5.7-5.7h26.5c3.2,0,5.7,2.6,5.7,5.7,0,3.2-2.6,5.7-5.7,5.7h0"/>
            <path id="Path_29002" class="st3" d="M839.4,347.7h-26.5c-3.2,0-5.7-2.6-5.7-5.7s2.6-5.7,5.7-5.7h26.5c3.2,0,5.7,2.6,5.7,5.7s-2.6,5.7-5.7,5.7"/>
            <path id="Path_29003" class="st3" d="M839.4,381.3h-26.5c-3.2,0-5.7-2.6-5.7-5.7s2.6-5.7,5.7-5.7h26.5c3.2,0,5.7,2.6,5.7,5.7s-2.6,5.7-5.7,5.7"/>
            <path id="Path_29004" class="st3" d="M839.4,414.9h-26.5c-3.2,0-5.7-2.6-5.7-5.7s2.6-5.7,5.7-5.7h26.5c3.2,0,5.7,2.6,5.7,5.7s-2.6,5.7-5.7,5.7"/>
            <path id="Path_29005" class="st3" d="M839.4,448.5h-26.5c-3.2,0-5.7-2.6-5.7-5.7s2.6-5.7,5.7-5.7h26.5c3.2,0,5.7,2.6,5.7,5.7s-2.6,5.7-5.7,5.7"/>
            <path id="Path_29006" class="st3" d="M839.4,482.1h-26.5c-3.2,0-5.7-2.6-5.7-5.7s2.6-5.7,5.7-5.7h26.5c3.2,0,5.7,2.6,5.7,5.7s-2.6,5.7-5.7,5.7"/>
            <path id="Path_29007" class="st3" d="M839.4,515.7h-26.5c-3.2,0-5.7-2.6-5.7-5.7s2.6-5.7,5.7-5.7h26.5c3.2,0,5.7,2.6,5.7,5.7s-2.6,5.7-5.7,5.7"/>
            <path id="Path_29008" class="st3" d="M839.4,549.3h-26.5c-3.2,0-5.7-2.5-5.7-5.7,0-3.2,2.5-5.7,5.7-5.7h26.5c3.2,0,5.7,2.5,5.7,5.7,0,3.2-2.5,5.7-5.7,5.7h0"/>
            <path id="Path_29009" class="st3" d="M839.4,582.9h-26.5c-3.2,0-5.7-2.6-5.7-5.7,0-3.1,2.6-5.7,5.7-5.7h26.5c3.2,0,5.7,2.5,5.7,5.7,0,3.2-2.5,5.7-5.7,5.7h0"/>
            <path id="Path_29010" class="st3" d="M839.4,616.5h-26.5c-3.2,0-5.7-2.6-5.7-5.7,0-3.1,2.6-5.7,5.7-5.7h26.5c3.2,0,5.7,2.5,5.7,5.7,0,3.2-2.5,5.7-5.7,5.7h0"/>
            <path id="Path_29011" class="st3" d="M839.4,650h-26.5c-3.2,0-5.7-2.5-5.7-5.7,0-3.2,2.5-5.7,5.7-5.7h26.5c3.2,0,5.7,2.5,5.7,5.7,0,3.2-2.5,5.7-5.7,5.7h0"/>
            <path id="Path_29012" class="st3" d="M839.4,683.6h-26.5c-3.2,0-5.7-2.5-5.7-5.7,0-3.2,2.5-5.7,5.7-5.7h26.5c3.2,0,5.7,2.5,5.7,5.7,0,3.2-2.5,5.7-5.7,5.7h0"/>
            <path id="Path_29013" class="st3" d="M839.4,717.2h-26.5c-3.2,0-5.7-2.6-5.7-5.7,0-3.1,2.6-5.7,5.7-5.7h26.5c3.2,0,5.7,2.5,5.7,5.7,0,3.2-2.5,5.7-5.7,5.7h0"/>
            <path id="Path_29014" class="st3" d="M322.5,520.9c-3.2,0-5.7-2.6-5.7-5.7h0v-197.8c0-3.2,2.6-5.7,5.7-5.7s5.7,2.6,5.7,5.7h0v197.8c0,3.2-2.6,5.7-5.7,5.7h0"/>
            <path id="Path_29015" class="st3" d="M672.2,724.1c-3.2,0-5.7-3.8-5.7-8.5v-296c0-4.7,2.6-8.5,5.7-8.5s5.7,3.8,5.7,8.5v296c0,4.7-2.6,8.5-5.7,8.5"/>
          </g>
        </g>
      </g>
      <g id="Group_5636">
        <g class="st2">
          <g id="Group_5635">
            <path id="Path_29017" class="st0" d="M454.4,576.2c-1.3,2.9-3,6.7-5.2,11.5s-4.5,9.6-7,14.4c-2.5,4.8-5,9.3-7.6,13.5-1.9,3.4-4.4,6.4-7.3,9-1.8,2.6-4.4,4.5-7.4,5.5-2.8.6-5.6-.5-7.3-2.8-1.9-1.6-2.3-5.4-1.1-11.4,1.5-6.8,3.5-13.5,6.2-19.9,2.9-7.3,6.3-14.3,10.2-21,3-5.6,6.8-10.6,11.3-15,2.7-2.9,5.3-4.2,7.7-3.8,2.4.4,4.5,1.8,5.8,3.8,1.5,2.4,2.5,5.1,2.8,7.9.5,2.9.1,5.9-1.1,8.5"/>
            <path id="Path_29018" class="st0" d="M418.3,636.7c-3.9,0-7.7-1.9-10.2-4.9-4.8-4.4-3.9-12-2.8-17.3,1.6-7.2,3.7-14.2,6.5-21,3-7.5,6.5-14.9,10.6-21.9,3.3-6.1,7.4-11.6,12.4-16.4,5.2-5.5,10.1-6.1,13.3-5.5,4.1.7,7.8,3.1,10.1,6.6,2,3.2,3.3,6.7,3.8,10.5.7,4.1.2,8.4-1.6,12.2-1.3,2.9-3,6.7-5.2,11.5-2.2,4.9-4.6,9.8-7.1,14.6-2.5,4.9-5.2,9.6-7.8,13.9-2.2,3.8-5,7.2-8.2,10.1-2.6,3.4-6.2,6-10.4,7.2-1.1.3-2.2.4-3.3.4M417.4,622.8h0c.3.4.5.7.9.9,1.6-.7,2.9-1.8,3.9-3.2l.5-.6.6-.5c2.3-2.1,4.3-4.5,5.8-7.3,2.5-4,5-8.4,7.3-13s4.7-9.4,6.9-14.1,3.9-8.5,5.2-11.4h0c.7-1.6.9-3.3.5-4.9-.2-1.9-.9-3.7-1.8-5.3-.3-.5-.7-.8-1.2-.9-.8.4-1.5,1-2.1,1.7l-.4.4c-4,4-7.4,8.5-10,13.5-3.7,6.5-7,13.2-9.8,20.2-2.5,6.1-4.4,12.4-5.8,18.8-.5,1.9-.7,3.8-.5,5.8"/>
            <path id="Path_29019" class="st0" d="M141.2,769.3c1.3,0,2.6-.2,3.8-.5l3.3-1.1c1.1-.4,2.3-.7,3.7-1.1,1.7-.4,3.3-.6,5-.5,5.4,0,9.4,1.1,12,3.4,2.5,2,3.3,5.4,1.9,8.3-3.5,9-6.5,18.2-8.9,27.5-3,11.3-6.2,23.2-9.7,35.8-1.2,4.9-2.7,9.7-4.4,14.4-3.7,11.9-8.2,23.5-13.5,34.7-4.2,9.2-9.7,17.6-16.4,25.2-6,6.5-12.6,9.8-19.9,9.8-2.3,0-4.5-.4-6.7-1.2-2.1-.7-3.9-2-5.3-3.7-1.3-1.8-1.9-4.1-1.5-6.3.7-3.4,2.5-6.6,5-9,5.6-6.1,10.8-12.6,15.5-19.3,3.7-5.3,7-11,9.7-16.9,2.5-5.5.6-2.4,2-8s-.7,3.5.2-3.3c-.6-2.1-2.5-3.5-4.6-3.4-2.6,0-5.1.3-7.6,1-2.7.7-5.4,1.6-8.2,2.6-2.1.9-4.3,1.4-6.5,1.5-7.6,0-13.3-2.4-16.9-7.2-3.7-5.1-5.6-11.3-5.5-17.6.1-7.7,1.3-15.4,3.4-22.9,2.2-8.2,5.6-16,10.2-23.2,4.3-6.9,10-12.8,16.8-17.4,6.7-4.5,14.7-6.6,22.7-5.7,3.4.4,6.7,1.1,9.9,2.3,3.3,1.2,6.7,1.8,10.2,1.8M105,837.5c3.4-.1,6.7-1.4,9.4-3.5,3.2-2.4,5.9-5.3,8-8.7,2.4-3.9,4.3-8,5.6-12.4,1.3-4,1.9-8.2,1.8-12.4,0-3.3-1.2-6.6-3.3-9.1-2-2.3-5.1-3-9.3-2.3-3.5,1.9-6.7,4.2-9.5,6.9-2.5,2.4-4.7,5.1-6.5,8-2.3,3.6-4,7.5-5.2,11.6-1,3.5-1.5,7.1-1.2,10.8.1,2.9,1.2,5.7,3,8,1.8,2.1,4.5,3.3,7.2,3.1"/>
            <path id="Path_29020" class="st0" d="M98.3,936.6c-3.6,0-7.1-.7-10.5-1.9-4.1-1.4-7.7-4-10.4-7.4-3.1-4.1-4.5-9.3-3.8-14.4.5-5,3.1-10,7.8-15.3,5.3-5.8,10.1-11.8,14.6-18.2,2.6-3.8,5-7.7,7.1-11.8-.8.3-1.6.6-2.4.9-3.3,1.3-6.8,2.1-10.4,2.2-14.1,0-21.9-6.4-25.9-11.7-5.2-7-7.9-15.6-7.7-24.4.1-8.7,1.4-17.4,3.8-25.9,2.5-9.3,6.4-18.2,11.6-26.3,5.2-8.2,11.9-15.2,19.9-20.7,8.8-6,19.5-8.7,30.1-7.7h.2c4.3.5,8.6,1.5,12.7,3,2,.7,4.1,1.1,6.3,1.1.1,0,.3,0,.4,0l3.1-1c1.3-.4,2.7-.9,4.3-1.3,2.6-.7,5.3-1,8-.9,8.3,0,14.8,2.1,19.5,6.3,6,5.1,8,13.6,4.9,20.9v.2c-3.4,8.5-6.2,17.3-8.5,26.1-2.9,11.1-6.2,23.2-9.7,35.9l-1.3,4.9c-.3,1.2-.6,2.4-1.1,3.5-.3.7-1,3-2.1,6.4-3.9,12.4-8.5,24.5-14.1,36.2-4.7,10.2-10.8,19.6-18.2,28-8.2,8.9-17.7,13.5-28.2,13.5M97.2,913.9c.3,0,.7,0,1,0,2.5,0,6.5-.6,11.6-6.1,5.9-6.7,10.8-14.3,14.5-22.4,5.1-10.8,9.4-21.9,12.9-33.3,1.7-5.5,2.3-6.9,2.5-7.7,0-.3.2-.7.4-1.4l1.3-4.9c3.5-12.7,6.7-24.7,9.7-35.7,2.6-9.7,5.2-18.1,7.8-24.9-.5,0-1.1,0-1.9,0-.7,0-1.4,0-2.1.2-1.1.3-2.2.6-3,.9l-3.3,1.1c-2.4.8-4.9,1.1-7.4,1.1-4.8,0-9.6-.8-14.2-2.5-2.3-.8-4.7-1.4-7.1-1.7-5.4-.6-10.8.8-15.3,3.8-5.4,3.8-10.1,8.6-13.6,14.2-3.9,6.2-6.9,12.9-8.8,20-1.9,6.5-2.9,13.2-3,19.9-.2,3.8.9,7.6,3.2,10.7.6.7,2,2.7,7.7,2.7.9-.2,1.9-.4,2.8-.8.7-.3,1.4-.5,2.1-.7-2.3-1.2-4.3-2.9-6-4.9-3.3-4.1-5.2-9.1-5.5-14.3-.3-5,.2-10,1.6-14.7,1.5-5.1,3.6-10,6.4-14.5,2.3-3.7,5.1-7.2,8.3-10.2,3.6-3.4,7.6-6.4,11.9-8.7l1.7-.9,1.9-.3c10.9-1.9,17,2.9,19.7,6,3.8,4.5,6,10.2,6.1,16.1.2,5.5-.6,11-2.3,16.2-1.6,5.3-3.9,10.3-6.8,15-2.9,4.6-6.6,8.6-10.9,11.8-.6.5-1.2.9-1.9,1.3,2.4,1,4.5,2.7,6.1,4.8l5.3,1.1-2,10.8c-.1.6-.3,1.2-.4,1.8,0,.2-.1.5-.2.7-.2.7-.2,1-.3,1.2,0,3.1-.9,6.1-2.4,8.8-3,6.5-6.6,12.8-10.7,18.6-5,7.2-10.5,14-16.4,20.5-.4.4-.7.9-1,1.2M118.5,801.6c-1,.8-2,1.6-2.9,2.5-1.8,1.7-3.4,3.6-4.7,5.7-1.7,2.7-3.1,5.7-4,8.8-.7,2.2-1,4.5-.8,6.8,0,.2,0,.3,0,.4.5-.3,1.1-.6,1.5-1,2.1-1.5,3.8-3.5,5.2-5.7,1.8-3,3.3-6.3,4.3-9.7.8-2.6,1.3-5.2,1.3-7.9M141.4,758.1h0,0Z"/>
            <path id="Path_29021" class="st0" d="M218.3,851.6c-1.8,1.3-3.7,2.3-5.7,3-2.7,1.1-5.6,2.1-8.7,3-3.1.9-6.1,1.7-9,2.3-2.2.5-4.5.9-6.8,1-6.9,0-11.9-2.4-15-7.1-3.3-5.3-5.1-11.4-5.2-17.7-.3-7.7.5-15.5,2.3-23,1.8-7.9,4.3-15.6,7.6-23,2.7-6.3,6.3-12.3,10.5-17.7,3.8-4.7,7.5-7.1,11.2-7.1,5.6,0,9,1.6,10.2,4.8,1.2,3.9,1.2,8.1.1,12-1.3,5.3-2.9,10.6-5,15.7-2.3,5.6-4.1,10.9-5.6,15.7-1.3,3.8-1.9,7.9-1.5,12,.5,3.2,2.9,4.7,7.5,4.5,3.4-.3,6.5-2,8.4-4.8,3-3.7,5.7-7.6,7.9-11.9,2.5-4.7,5-9.8,7.5-15.4,2.5-5.5,4.9-10.7,7.4-15.4,2.1-4.1,4.5-8.1,7.2-11.9,2.4-3.2,4.8-4.8,7.4-4.8,4.3-.3,8.2,2.7,9.1,6.9,1.4,5.7,1.6,11.5.7,17.3-1.1,7.6-2.8,15.1-5.2,22.3-2.4,7.6-5.3,15.1-8.6,22.3-2.7,6-5.8,11.8-9.4,17.3-3.1,4.6-5.5,6.9-7.4,6.9-2-.2-4-.8-5.9-1.6-2.7-1-4.9-3.1-6.1-5.7"/>
            <path id="Path_29022" class="st0" d="M188.1,872.2c-13.6,0-20.8-6.6-24.5-12.2-4.4-7-6.8-15.1-7-23.3-.3-8.8.5-17.6,2.6-26.1,2-8.6,4.7-17,8.3-25.1,3.1-7.2,7.2-14,12-20.2,6.1-7.5,12.8-11.3,20-11.3,14.2,0,19.1,7.6,20.8,12.1,2,6,2.2,12.4.6,18.4-.8,3.7-1.9,7.3-3.1,10.9.3-.7.6-1.4,1-2.1,2.5-5.7,5.1-11.1,7.7-16,2.4-4.7,5.1-9.1,8.2-13.4,5.7-7.7,12.1-9.3,16.4-9.3,9.4-.3,17.7,6,20,15.1,1.9,7.2,2.2,14.7,1,22-1.2,8.2-3,16.4-5.6,24.3-2.5,8.1-5.6,16-9.1,23.6-2.9,6.5-6.4,12.8-10.3,18.8-3.7,5.6-9,12-16.8,12-3.4-.2-6.8-1-9.9-2.4-1.6-.6-3.1-1.4-4.6-2.4-2.8,1.1-5.7,2.1-8.7,3-3.3,1-6.6,1.8-9.8,2.5-3,.7-6.1,1.1-9.2,1.2M199.2,777.2c-.8.7-1.5,1.4-2.1,2.2-3.6,4.7-6.6,9.8-9,15.2-3,6.7-5.3,13.7-6.9,20.9-1.6,6.5-2.3,13.2-2,19.9,0,4.3,1.2,8.4,3.3,12.1.4.7,1.3,2,5.5,2,1.5,0,3-.3,4.4-.7,2.7-.6,5.4-1.3,8.2-2.1,2.7-.8,5.3-1.7,7.7-2.7,1-.4,1.9-.8,2.8-1.3l11.1-9.3,5.8,12.4v-.2c3.3-5,6.2-10.3,8.6-15.8,3.1-6.8,5.8-13.9,8.1-21,2.2-6.6,3.8-13.5,4.7-20.4.3-2.4.5-4.8.4-7.2-1.2,1.9-2.3,4-3.6,6.3-2.3,4.5-4.7,9.4-7,14.8-2.6,5.8-5.2,11.2-7.9,16.2-2.6,4.9-5.7,9.6-9.3,13.9-6.1,7.1-12.4,8.7-16.8,8.7-12.4.4-18-7.4-18.9-14.2-.6-5.7,0-11.4,1.9-16.9,1.6-5.1,3.5-10.7,5.9-16.6,1.9-4.5,3.4-9.2,4.5-13.9.2-.8.3-1.5.4-2.3M211.1,842.9h0s0,0,0,0Z"/>
            <path id="Path_29023" class="st0" d="M356.1,784.9c-1,6.7-3.8,13-8.2,18.1-4.6,5.8-10.2,10.7-16.6,14.4-5.9,3.6-12.6,5.8-19.5,6.5-6.1.8-12.3-1.3-16.8-5.6-1.6,6.2-1.5,10.9.3,14.2,1.7,3.2,4.8,5.4,8.4,6,4.6.6,9.3,0,13.6-1.6,5.7-2.1,11-5,15.8-8.7.5-.4,1.5-1.1,3-2.2,1.5-1.1,3.2-2.1,4.9-2.9,1.5-.8,3.2-1.1,4.9-1,1.5.2,2.5,1.5,3,3.8,1.3,6.1-.1,12.4-4,17.3-4.2,5.4-9.7,9.7-15.9,12.5-7,3.2-14.4,5.3-22.1,6-7.5.9-15.1,0-22.2-2.3-6.8-2.3-12.6-6.8-16.6-12.7-4.3-6.1-5.9-14.4-4.8-24.9.7-7.7,2.8-15.2,6.3-22.1,3.4-6.8,8-12.9,13.6-18,5.7-5.1,12.2-9.2,19.3-12,7.5-3,15.6-4.4,23.7-4.4,5.2-.1,10.4.4,15.5,1.6,3.4.8,6.5,2.3,9.3,4.4,2,1.6,3.5,3.8,4.2,6.3.6,2.3.9,4.7.7,7.1M299.5,805.6c5.7,1.3,11.7,1.1,17.3-.7,3.7-1.2,7-3.5,9.5-6.5,1.7-2.1,2.7-4.8,2.6-7.5-.2-2.4-1.4-3.5-3.5-3.5-7.6.2-13.3,2.1-17.2,5.7-3.7,3.5-6.7,7.8-8.7,12.5"/>
            <path id="Path_29024" class="st0" d="M301.1,873.5c-6.8,0-13.5-1.1-19.9-3.3-9-3.1-16.8-9-22.2-16.9-5.9-8.3-8.1-19.3-6.8-32.6.8-9,3.3-17.8,7.4-26,4-8.1,9.5-15.3,16.2-21.3,6.7-6,14.4-10.8,22.7-14.1,8.9-3.5,18.4-5.2,27.9-5.2,6.2-.1,12.5.5,18.5,2,4.9,1.2,9.5,3.4,13.5,6.6,3.8,3.1,6.6,7.3,7.9,12,1,3.5,1.3,7.2,1,10.9v.5c-1.2,8.8-4.9,17.1-10.6,23.9-.9,1.2-1.9,2.3-2.9,3.4,3.2,2.4,5.5,6,6.2,10v.3c2,9.2-.2,18.9-5.9,26.3-5.3,6.9-12.2,12.4-20.1,15.9-8.1,3.8-16.8,6.2-25.8,7-2.4.2-4.8.4-7.2.4M305.5,781c-5.3,2.3-10.2,5.4-14.5,9.3-4.6,4.1-8.3,9.1-11.1,14.6-2.8,5.6-4.6,11.8-5.1,18.1-.8,7.8.1,13.6,2.8,17.4,2.7,4,6.5,6.9,11.1,8.5,5.6,1.9,11.5,2.5,17.4,1.7,1.3-.1,2.6-.3,3.8-.5-2.7.2-5.4,0-8.1-.4-6.9-1.2-12.9-5.5-16.2-11.6-3.3-6-3.8-13.3-1.3-22.5l.3-1.1-.9-.2,2.6-6.2,2.9-11.1,1.3,1.3c2.5-5,5.9-9.5,10-13.3,1.5-1.5,3.3-2.8,5.1-3.9M330.8,777c5.5,2.1,9.1,7.2,9.4,13,.1,1.6,0,3.3-.2,4.9,2.6-3.2,4.2-7,4.9-11.1,0-1,0-2.1-.3-3.1,0,0-.2-.2-.5-.5-1.5-1-3.2-1.8-5-2.1-2.7-.7-5.4-1-8.2-1.1"/>
            <path id="Path_29025" class="st0" d="M286.3,574.7c2.4,13.8.7,25.6-5.2,35.7-6.1,10.2-14.5,18.7-24.6,25-10.9,6.8-22.8,11.9-35.3,15-12.1,3.2-24.4,5.2-36.9,5.8-11.8,33.5-22.9,58.6-33.3,75.1-10.4,16.5-20.7,24.8-31.1,24.8-4.9,0-9.5-2.5-12.3-6.5-6.5-8.5-9.1-19.3-7.2-29.9,1-4.7,3.3-7.4,6.9-8.1,8.7-1.6,16.5-6.5,21.7-13.6,6.5-8.4,11.6-17.8,15-27.9,4.1-11.6,7.2-23.5,9.2-35.7,2.2-12.8,3.9-25.2,5.1-37.3,1.2-12.1,2-22.9,2.3-32.6.4-9.6.7-16.8.9-21.4-2,1.2-4.1,2.3-6.3,3.1-3.4,1.4-7,2.3-10.7,2.9-3.5.6-7.2.5-10.7-.4-3.3-.9-5.7-3.7-6-7.1-.8-3.9,0-8,2.4-11.2,2.5-3.3,5.7-6,9.4-8,4.2-2.2,8.7-3.8,13.4-4.7,4.7-.9,9.5-1.4,14.3-1.4,6.8,0,14.2.2,22.3.5,8.1.4,16.3,1.1,24.6,2.4,8.3,1.2,16.4,3.1,24.4,5.6,7.7,2.4,15,5.9,21.7,10.3,6.5,4.3,12.1,9.8,16.6,16.1,4.8,7,8,15,9.4,23.3M194.3,544.7c0,.7,0,4,.2,10,.1,5.9,0,13-.2,21.2-.2,8.2-.9,16.8-2,25.9-.9,8.2-2.5,16.2-4.9,24.1,6.2-.2,12.3-1,18.3-2.4,7.7-1.6,15.2-4.2,22.3-7.8,7.1-3.5,13.5-8.4,18.6-14.5,5.3-6.4,8-14.5,7.4-22.8-.2-8.7-2.7-15-7.4-19-4.8-4-10.5-7-16.6-8.5-6.4-1.7-12.9-2.8-19.5-3.3-5.5-.3-10.9-1.2-16.1-2.9"/>
            <path id="Path_29026" class="st0" d="M119.8,767.4c-8.4,0-16.3-4.1-21.2-10.9-8.5-11.1-11.9-25.3-9.4-39.1,1.9-9.2,7.6-15.3,15.7-17h.3c6-1.2,11.2-4.6,14.8-9.5,5.7-7.5,10.2-15.8,13.2-24.7,3.9-10.9,6.8-22.2,8.7-33.7,2.1-12.5,3.8-24.7,5-36.5s2-22.5,2.3-31.9c0-1.5.1-3,.2-4.4-1.1.2-2.1.4-3.2.6-5.1.9-10.3.7-15.3-.6-7.5-2-13.1-8.2-14.2-15.9v-.2c-1.4-6.9.2-14.1,4.3-19.8,3.5-4.7,8-8.5,13.1-11.2,5.2-2.8,10.8-4.8,16.6-5.9,5.4-1.1,10.9-1.6,16.5-1.7,6.9,0,14.5.2,22.8.6,8.4.4,17.1,1.2,25.7,2.5,8.9,1.3,17.7,3.3,26.2,6,8.7,2.7,17,6.7,24.6,11.7,7.6,5.1,14.2,11.5,19.6,18.9,5.8,8.3,9.7,17.9,11.3,27.9h0c2.9,16.5.6,31.1-6.7,43.5-7,11.7-16.7,21.6-28.3,28.8-11.9,7.4-24.9,13-38.5,16.4-10.4,2.7-20.9,4.6-31.6,5.6-11.2,31.1-21.7,54.1-31.9,70.3-12.7,20.2-26,30.1-40.7,30.1M111.2,722.2c-.6,3.4-.4,6.8.4,10.2.8,3.7,2.4,7.2,4.8,10.2,1.7,2.2,2.7,2.2,3.4,2.2,6,0,13.7-6.9,21.5-19.5,9.9-15.7,20.7-40.2,32.2-72.9l2.5-7.2,7.7-.3c11.7-.6,23.2-2.4,34.5-5.4,11.3-2.9,22.2-7.5,32.1-13.6,8.6-5.3,15.8-12.5,20.9-21.2,4.5-7.7,5.8-16.8,3.9-27.9-1.1-6.7-3.6-13.1-7.5-18.8-3.7-5.2-8.4-9.7-13.7-13.3-5.8-3.8-12.2-6.9-18.9-8.9-7.4-2.3-15-4.1-22.6-5.2-7.9-1.1-15.8-1.9-23.5-2.2-5.4-.2-10.6-.4-15.4-.5l-.9,16c-.2,4.4-.5,11.1-.9,21.2-.4,9.8-1.2,21-2.4,33.3s-3,25.1-5.2,38c-2.1,12.8-5.4,25.4-9.7,37.6-3.9,11.2-9.6,21.7-16.8,31-6.5,8.7-15.9,14.8-26.4,17.2M111.6,721.1h0ZM138.8,538.3c1.3,0,2.6,0,3.8-.2,2.8-.4,5.5-1.1,8.2-2.2,1.4-.5,2.7-1.1,4-1.8l8.2-6.1c-2.7.2-5.3.6-7.9,1.1-3.5.7-7,1.8-10.1,3.5-2.2,1.1-4.2,2.7-5.7,4.7-.2.3-.4.6-.4,1M187.4,637.1h-15.4l4.6-14.7c2.1-7.2,3.6-14.6,4.5-22.1,1-8.6,1.7-17,1.9-24.9.2-8,.3-14.9.2-20.6-.1-6-.2-9.4-.2-10.2v-16l15.1,5.3c4.3,1.3,8.7,2.1,13.2,2.3,7.3.5,14.5,1.7,21.6,3.6,7.7,2,14.9,5.7,21.1,10.8,7.2,6.1,11.1,15.3,11.4,27.3.6,11.1-3,22-10.2,30.5-6.2,7.2-13.7,13-22.2,17.2-7.9,4-16.3,6.9-25,8.7-6.8,1.5-13.6,2.4-20.6,2.6M205.9,558.5c0,5.2,0,11-.2,17.6-.3,8.5-.9,17.6-2.1,26.9-.4,3.3-.9,6.5-1.4,9.5l1.3-.3c6.8-1.4,13.3-3.7,19.5-6.8,5.8-2.8,10.9-6.8,15.1-11.7,3.4-4.3,5.1-9.7,4.7-15.1-.1-3.6-.8-8.4-3.4-10.7-3.6-3-7.7-5.1-12.2-6.2-5.7-1.5-11.6-2.5-17.5-2.9-1.3,0-2.5-.2-3.7-.3"/>
            <path id="Path_29027" class="st0" d="M357.9,606.9c3.4,0,6.6-.9,9.6-2.5,3.4-1.7,7.2-2.6,11-2.5,14.5,0,21.7,4.7,21.7,14.1-.1,4.6-1.1,9.2-2.7,13.6-2,5.5-4.2,11-6.7,16.3l-8.1,17.4c-2.6,5.5-4.8,11.1-6.7,16.8-1.3,3-2.3,6.1-3.1,9.2-1.3,4.7-2.7,9.6-4,14.7-1.3,5.1-2.6,9.7-3.8,13.8-.4,2.1-1.2,4.2-2.2,6.2-4,1.2-8.3,1.2-12.3-.2-2.9-1.2-5.7-2.9-8.1-4.9-2.3-1.9-4.6-3.8-7.1-5.6-2.6-1.9-5.8-2.8-9-2.7-2,.2-3.9,1-5.4,2.2-2.2,1.5-4.6,3-7.4,4.5s-5.7,3.1-8.9,4.5c-3.1,1.4-6.4,2.2-9.8,2.2-5.3.3-10.5-1.1-15-3.8-3.5-2.3-6.4-5.4-8.3-9-1.8-3.3-2.9-7-3.4-10.7-.4-2.9-.7-5.8-.7-8.7.1-9.6,1.4-19.2,3.8-28.6,2.5-10.2,6.4-19.9,11.8-29,5.1-8.7,12-16.3,20.3-22.3,8.6-6,18.8-9.1,29.3-8.9,4,0,8,.7,11.8,2,4.4,1.4,9,2,13.6,2M313.8,690.5c4.2,1.2,8.7.5,12.3-2,4.4-2.8,8.1-6.4,11-10.7,3.3-4.7,6.1-9.8,8.1-15.2,2-5,3.4-10.2,4.2-15.6.7-4.1.2-8.4-1.3-12.3-1.4-3.3-4.7-5.4-8.3-5.1-4.8,0-9.8,2.5-14.8,7.4-5.1,5-9.3,10.9-12.3,17.4-3.1,6.3-4.8,13.1-5.1,20.1-.5,6,1.7,11.9,6.2,15.9"/>
            <path id="Path_29028" class="st0" d="M356.4,736c-3.5,0-6.9-.6-10.1-1.9-4-1.7-7.7-3.9-11-6.7-2.1-1.8-4.3-3.6-6.6-5.2-.3-.2-.7-.3-1.1-.4l-.3.2c-2.4,1.6-5.1,3.3-8.1,5s-6.2,3.3-9.7,4.9c-4.6,2.1-9.5,3.2-14.5,3.2-7.5.3-15-1.7-21.4-5.7-5.1-3.3-9.2-7.9-12-13.2-2.4-4.5-3.9-9.3-4.6-14.4-.5-3.4-.8-6.8-.8-10.2.1-10.6,1.5-21,4.1-31.3,2.7-11.3,7.1-22.1,13-32.1,5.9-10.1,13.9-18.8,23.4-25.7,10.5-7.4,23.1-11.3,35.9-11,5.1,0,10.3.9,15.2,2.5,3.3,1,6.7,1.5,10.2,1.5,1.5,0,3-.5,4.4-1.3,5-2.6,10.6-3.9,16.3-3.8,9.6,0,16.9,1.7,22.5,5.4,6.8,4.4,10.8,12,10.6,20.1-.1,5.9-1.3,11.8-3.3,17.3-2.1,5.9-4.5,11.7-7.1,17.3l-8.1,17.4c-2.4,5-4.4,10.2-6.2,15.4l-.3.8-.4.8c-.9,2.4-1.7,4.8-2.3,7.2-1.3,4.6-2.6,9.5-3.9,14.5-1.3,5.1-2.6,9.8-3.9,14.1-1.8,6.2-3.9,13.2-11.3,14.2-2.7.6-5.5.9-8.3,1M330,699.3c4.5.5,8.7,2.1,12.3,4.8,2.5,1.9,5.1,3.9,7.5,6,1.5,1.2,3.1,2.2,4.9,3,1.1-3.7,2.2-7.7,3.3-12,1.3-5.1,2.7-10.1,4-14.9.9-3.5,2-6.9,3.4-10.3,2-6,4.3-11.8,7-17.5l8.1-17.4c2.3-5,4.4-10,6.3-15.2,1.2-3.1,1.9-6.5,2.1-9.8,0-.3,0-.7-.1-1,0,0-2.1-1.8-10.3-1.8-2,0-4,.4-5.8,1.3-4.5,2.4-9.6,3.7-14.8,3.8-5.8,0-11.5-.8-17-2.5-2.7-.9-5.5-1.4-8.4-1.5-8.1-.3-16.1,2.1-22.7,6.7-7,5-12.8,11.5-17.2,18.9-4.8,8.1-8.3,16.8-10.5,25.9-2.2,8.5-3.3,17.2-3.5,25.9,0,2.4.3,4.8.6,7.2.3,2.4,1.1,4.8,2.3,7,1.1,2,2.7,3.7,4.6,4.9,2.7,1.4,5.7,2.1,8.7,1.9,1.7,0,3.5-.4,5-1.1,2.9-1.3,5.6-2.7,8-4.1,2.5-1.4,4.8-2.8,6.7-4.1.4-.3.9-.6,1.3-.8-1.8-.1-3.7-.5-5.5-1l-2.4-.7-1.9-1.7c-7-6.3-10.7-15.4-9.9-24.8.3-8.5,2.4-16.9,6.1-24.5,3.6-7.7,8.6-14.7,14.6-20.6,7.2-7.1,14.9-10.6,22.7-10.6,8.1-.3,15.6,4.4,18.7,11.9,2.3,5.8,3,12,2.1,18.2-.9,6.3-2.5,12.4-4.9,18.3-2.4,6.2-5.6,12.2-9.5,17.6-3.8,5.5-8.7,10.2-14.3,13.7-.7.4-1.3.8-2,1.2M360.7,712.7c-.3,0-.5.1-.7.2h.4c0,0,.4-.2.4-.2ZM338.3,641.4c-2,.9-3.9,2.2-5.4,3.9-4.1,4.1-7.5,8.8-10,14.1-2.4,4.9-3.7,10.2-4,15.6,0,1.5,0,2.9.5,4.3.2-.1.5-.2.7-.4,3.1-2,5.7-4.6,7.8-7.6,2.8-4,5.1-8.3,6.8-12.8,1.7-4.1,2.8-8.4,3.5-12.8.2-1.4.2-2.9,0-4.3"/>
            <path id="Path_29029" class="st0" d="M480.5,697.6c-1.5-5-1-10.5,1.3-15.2,2.2-4.5,5.7-8.3,10-10.9,4.5-2.7,9.5-4.4,14.7-4.9,5.3-.6,10.7.3,15.6,2.5,5.3,2.6,9.7,6.6,12.8,11.6,3.6,5.4,5.8,12.8,6.5,22.3.5,9.4-1.1,21.3-4.9,35.6-4.2,15.6-9.6,30.8-16.3,45.4-7.4,16.5-16,32.5-25.5,48-9.4,15.4-20.3,29.9-32.4,43.2-10.8,12.1-23.3,22.6-37.1,31.1-11.8,7.6-25.4,11.7-39.4,11.9-5.2.2-10.3-.5-15.2-2.2-3.4-1.5-5.7-5-6.9-10.5-1.6-7.7-2.1-15.5-1.4-23.3.5-9.8,1.6-20.7,3.4-32.8,1.8-12.1,4.1-24.9,6.9-38.5,2.8-13.6,5.7-27.1,8.9-40.5,3.1-13.4,6.3-26.3,9.4-38.7,3.1-12.4,6-23.4,8.5-32.9,2.5-9.5,4.6-17.3,6.2-23.3,1-3.3,1.8-6.7,2.4-10.1-.4-1.5.2-3.1,1.4-4,2.5-.9,5.3-1.3,8-1.1,8.2,0,14.1,3,17.7,8.9,3.6,5.9,5.7,13.8,6.2,23.5.4,11.2-.3,22.4-2.2,33.5-1.9,12.5-4.4,25.3-7.4,38.2-3,12.9-6.2,25.6-9.6,38.2-3.4,12.5-6.3,23.7-8.7,33.5-2,7.7-3.5,15.6-4.5,23.5-.6,5.9.4,8.9,3.1,8.9,3.9,0,8.7-3.6,14.7-10.7,6.9-8.5,13.2-17.5,18.8-27,6.6-10.9,13.2-22.9,19.7-36s12.2-25.9,17.2-38.2c4.9-12.3,8.8-23.2,11.6-32.8,2.8-9.5,3.7-16.2,2.7-20.1-.2-1-1.1-1.6-2.7-2-1.7-.4-3.5-.6-5.2-.7-1.8,0-3.5-.4-5.2-.9-1.3-.2-2.4-1.2-2.7-2.5"/>
            <path id="Path_29030" class="st0" d="M385.6,929.7c-6.7.3-13.4-.8-19.7-3.1-4.7-2-10.9-6.9-13.4-18.3-1.8-8.7-2.4-17.6-1.7-26.5.5-10.1,1.7-21.5,3.5-33.9,1.8-12.2,4.2-25.4,7-39.1,2.8-13.6,5.8-27.4,8.9-40.9,3.1-13.2,6.3-26.3,9.5-38.9,3-12,5.9-23.1,8.5-33.1,2.5-9.5,4.6-17.3,6.1-23.3,1.2-4.7,1.7-6.9,1.9-7.8-.3-5.3,2.4-10.4,7-13.1,3.2-1.9,7.2-2.7,13.8-2.7,15.4,0,23.4,7.8,27.4,14.3,4.6,7.5,7.2,17.2,7.8,28.9.4,12-.3,23.9-2.3,35.8-2,12.8-4.5,25.9-7.6,39-3.1,13.1-6.3,26.1-9.7,38.6-3.3,12.4-6.2,23.6-8.6,33.2-.4,1.7-.8,3.4-1.2,5,4-5.4,8.2-11.7,12.6-18.9,6.4-10.6,12.9-22.4,19.2-35.1,6.3-12.8,12-25.4,16.8-37.4,4.8-11.9,8.6-22.6,11.2-31.7.8-2.8,1.6-5.7,2.1-8.6-1.7-.2-3.4-.6-5.1-1.1-5.1-1.4-9.1-5.5-10.3-10.7-2.1-7.6-1.4-15.8,2.2-22.9,3.2-6.4,8.1-11.7,14.2-15.4,5.9-3.6,12.5-5.8,19.3-6.5,7.4-.8,14.8.4,21.6,3.5,7.2,3.5,13.2,8.9,17.5,15.6,4.7,7,7.5,16.4,8.4,27.7v.3c.6,10.7-1.1,23.4-5.2,39.1-4.3,16.2-10,32-16.9,47.2-7.7,17-16.4,33.4-26.2,49.3-9.8,16-21.1,31.1-33.7,44.9-11.6,12.8-24.9,24-39.5,33.1-13.6,8.7-29.3,13.4-45.4,13.6M375.5,906c3.3.8,6.7,1.2,10.1,1,11.9-.2,23.5-3.8,33.5-10.3,12.9-8,24.5-17.8,34.7-29.1,11.6-12.8,22.1-26.8,31.1-41.5,9.3-15,17.6-30.6,24.8-46.6,6.4-14.1,11.6-28.7,15.7-43.7,3.4-13.1,4.9-23.9,4.5-32.1-.6-7.3-2.1-13-4.6-16.7-2-3.2-4.8-5.9-8.2-7.6-3-1.4-6.3-1.9-9.6-1.6-3.5.3-7,1.5-10,3.3-2.5,1.5-4.5,3.7-5.7,6.3-.4.8-.7,1.6-.8,2.5,1.7.2,3.4.4,5.1.8,5.4,1,9.8,5,11.2,10.3,1.5,6.1.6,14.1-2.8,26-2.9,9.8-6.9,21.2-11.9,33.8-5,12.6-11,25.7-17.6,39-6.6,13.3-13.4,25.8-20.2,36.9-5.9,9.9-12.5,19.3-19.8,28.3-5.3,6.3-13.4,14.8-23.4,14.8-4,0-7.7-1.6-10.4-4.6-4.6-5-4.4-12-3.9-16.8,1-8.5,2.6-16.8,4.8-25.1,2.4-9.8,5.4-21.2,8.7-33.7,3.3-12.2,6.5-25,9.5-37.8,2.9-12.6,5.4-25.1,7.3-37.3,1.7-10.3,2.4-20.8,2.1-31.2,0-6.3-1.5-12.6-4.5-18.2-.7-1.1-2-3.2-7.2-3.4-.4,1.7-.9,3.8-1.7,6.7-1.6,6.1-3.6,13.9-6.2,23.4-2.6,9.9-5.5,20.9-8.5,32.8-3.2,12.5-6.3,25.5-9.4,38.5-3.1,13.3-6.1,26.8-8.8,40.2-2.7,13.4-5,26.1-6.8,38-1.7,11.7-2.9,22.3-3.3,31.6-.6,6.7-.2,13.4,1.1,20v.3c.3.9.5,1.8,1,2.7M486.5,689.3h0s0,0,0,0"/>
            <path id="Path_29031" class="st0" d="M639.7,789.5c-1.3,8.9-5,17.2-10.8,24.1-6.1,7.7-13.6,14.2-22.1,19.2-7.9,4.8-16.7,7.7-25.9,8.7-8.2,1.1-16.4-1.7-22.3-7.4-2.2,8.2-2,14.5.4,18.8,2.3,4.3,6.4,7.2,11.2,8,6.1.9,12.4.1,18.1-2.2,7.6-2.7,14.7-6.6,21-11.6.7-.5,2.1-1.4,4-2.9,2-1.5,4.2-2.8,6.5-3.8,2-1,4.3-1.5,6.5-1.3,1.9.2,3.3,1.9,4,5.1,1.8,8.1-.2,16.5-5.2,23-5.6,7.2-12.9,12.9-21.2,16.6-9.2,4.3-19.2,7-29.3,8-9.9,1.2-20,.1-29.5-3.1-9-3.1-16.7-9-22.1-16.8-5.7-8.1-7.8-19.1-6.3-33.1.9-10.2,3.7-20.2,8.3-29.3,4.5-9,10.6-17.1,18.1-23.9,7.5-6.8,16.2-12.2,25.7-15.9,10-3.9,20.7-5.9,31.5-5.8,6.9-.2,13.9.6,20.6,2.2,4.5,1,8.7,3,12.3,5.8,2.7,2.1,4.7,5,5.6,8.3.8,3.1,1.1,6.2.9,9.4M564.4,817c9.4,1.7,17.1,1.4,23-.9,5-1.6,9.4-4.6,12.7-8.7,2.3-2.8,3.5-6.3,3.4-9.9-.2-3.1-1.8-4.7-4.7-4.7-10.1.2-17.7,2.8-22.8,7.6-5,4.7-8.9,10.4-11.6,16.6"/>
            <path id="Path_29032" class="st0" d="M566.6,903.5c-8.6,0-17.1-1.3-25.2-4.1-11.2-3.9-20.9-11.2-27.6-21-7.3-10.3-10.1-24.1-8.3-40.8,1.1-11.6,4.3-22.8,9.5-33.2,5.1-10.3,12.1-19.5,20.6-27.2,8.5-7.7,18.4-13.8,29.1-18,11.4-4.5,23.5-6.7,35.7-6.6,7.9-.2,15.9.7,23.6,2.6,6,1.4,11.7,4.2,16.6,8,4.5,3.6,7.7,8.5,9.3,14.1,1.2,4.3,1.6,8.8,1.3,13.2v.5c-1.6,11-6.2,21.3-13.3,29.8-2.2,2.8-4.6,5.4-7.1,7.9,3.7,1.3,8.7,4.5,10.7,13.1v.3c2.4,11.2-.2,22.9-7.2,32-6.7,8.7-15.4,15.5-25.4,20.1-10.4,4.9-21.6,7.9-33,9-3,.3-6.1.5-9.1.5M600.3,775.1c-9.3,0-18.6,1.6-27.3,5-8.2,3.2-15.8,7.9-22.3,13.8-6.4,5.8-11.7,12.8-15.6,20.5-3.9,7.9-6.4,16.5-7.2,25.3-1.2,11.3.3,19.8,4.3,25.6,4,5.9,9.8,10.3,16.5,12.6,7.9,2.6,16.3,3.5,24.6,2.5,8.9-.8,17.5-3.2,25.6-6.9,6.6-3,12.5-7.5,17-13.2,1.5-1.9,2.6-4.1,3.2-6.4-1.5,1.1-2.5,1.8-3.3,2.4-7.2,5.6-15.3,10-23.9,13.1-7.6,2.9-15.8,3.8-23.9,2.6-8.1-1.4-15.1-6.4-19-13.6-3.9-7.1-4.4-16-1.4-27.2l1.4-5.4h-.6c0-.1,1.8-4.3,1.8-4.3l2.4-8.9,1,1,.4-.9c3.3-7.7,8.1-14.7,14.2-20.4,7.1-6.8,17.3-10.4,30.3-10.7h.3c8.6-.2,15.7,6.5,16,15.1h0c.3,6.3-1.7,12.5-5.6,17.5-4.6,5.8-10.7,10.2-17.7,12.6-6.3,2.3-13.1,3.2-19.8,2.6,2.6.9,5.3,1.2,8.1.9,7.5-.8,14.8-3.3,21.2-7.2,7.3-4.3,13.7-9.9,19-16.5,4.4-5.1,7.3-11.4,8.4-18.1.1-1.8,0-3.6-.6-5.4-.3-1-1-1.9-1.9-2.6-2.4-1.7-5.1-2.9-8-3.6-5.8-1.3-11.7-1.9-17.7-1.8"/>
            <path id="Path_29033" class="st0" d="M736,770.3c3.4,0,6.6-.9,9.6-2.5,3.4-1.7,7.2-2.6,11-2.5,14.5,0,21.7,4.7,21.7,14.1-.1,4.6-1.1,9.2-2.7,13.6-2,5.5-4.2,11-6.7,16.3-2.7,5.7-5.4,11.5-8.1,17.4-2.6,5.5-4.8,11.1-6.7,16.8-1.3,3-2.3,6.1-3.1,9.2-1.3,4.7-2.7,9.6-4,14.7s-2.6,9.7-3.8,13.7c-.4,2.1-1.2,4.2-2.2,6.2-4,1.2-8.3,1.2-12.3-.2-2.9-1.2-5.7-2.9-8.1-4.9-2.3-1.9-4.6-3.8-7.1-5.6-2.6-1.9-5.8-2.8-9-2.7-2,.2-3.9,1-5.4,2.2-2.2,1.5-4.6,3-7.4,4.5-2.8,1.6-5.7,3.1-8.9,4.5-3.1,1.4-6.4,2.2-9.8,2.2-5.3.3-10.5-1.1-15-3.8-3.5-2.3-6.4-5.4-8.3-9-1.8-3.3-2.9-7-3.4-10.7-.4-2.9-.7-5.8-.7-8.7.1-9.6,1.4-19.2,3.8-28.6,2.5-10.2,6.4-19.9,11.8-29,5.1-8.7,12-16.3,20.3-22.3,8.6-6,18.8-9.1,29.3-8.9,4,0,8,.7,11.8,2,4.4,1.4,9,2,13.6,2M691.8,853.9c4.2,1.2,8.7.5,12.3-2,4.4-2.8,8.1-6.4,11-10.7,3.3-4.7,6.1-9.8,8.1-15.2,2-5,3.4-10.2,4.2-15.6.7-4.1.2-8.4-1.3-12.3-1.4-3.3-4.7-5.4-8.3-5.1-4.8,0-9.8,2.5-14.8,7.4-5.1,5-9.3,10.9-12.3,17.4-3,6.3-4.8,13.1-5.1,20.1-.5,6,1.7,11.9,6.2,15.9M762.8,725.8c-2.7,1.7-6.2,3.9-10.7,6.7-4.5,2.8-9,5.5-13.8,8.1-4.7,2.7-9.3,5-13.8,7.1-3.5,1.8-7.2,2.9-11,3.4-2.9,1.2-6.2,1.4-9.2.5-2.7-1-4.4-3.5-4.5-6.3-.7-2.4,1.1-5.8,5.4-10.1,5-4.9,10.4-9.3,16.1-13.2,6.4-4.5,13.1-8.5,20.1-11.9,5.6-3,11.5-5.1,17.7-6.3,3.9-1,6.7-.6,8.5,1.1,1.8,1.6,2.8,3.9,2.7,6.3,0,2.8-.7,5.6-2,8.1-1.2,2.7-3.1,5-5.6,6.5"/>
            <path id="Path_29034" class="st0" d="M734.5,899.4c-3.5,0-6.9-.6-10.2-1.9-4-1.6-7.7-3.9-11-6.6-2.1-1.8-4.4-3.6-6.6-5.2-.3-.2-.7-.3-1.1-.4,0,0-.2.1-.3.2-2.4,1.6-5.1,3.3-8.1,5s-6.3,3.4-9.7,4.9c-4.5,2.1-9.5,3.2-14.5,3.2-7.5.3-15-1.7-21.4-5.8-5.1-3.3-9.2-7.9-12-13.2-2.4-4.5-3.9-9.4-4.6-14.4-.5-3.4-.8-6.8-.8-10.2.1-10.6,1.5-21.1,4.1-31.3,2.7-11.3,7.1-22.1,13-32.1,5.9-10.1,13.9-18.8,23.4-25.7,5.5-4,11.8-7,18.3-8.7-2.3-2.8-3.8-6.1-4.4-9.7-2.2-9.7,5.8-17.7,8.5-20.4,5.4-5.3,11.3-10.2,17.6-14.5,6.8-4.8,14-9,21.5-12.8,6.5-3.4,13.4-5.9,20.6-7.3,9.4-2.2,15.2.9,18.4,3.9,4.1,3.7,6.4,9.1,6.3,14.6,0,4.4-1.1,8.8-3,12.8-2.1,4.7-5.5,8.7-9.9,11.4-2.7,1.7-6.2,3.9-10.7,6.7-4.6,2.9-9.4,5.7-14.2,8.4-4.9,2.8-9.8,5.3-14.6,7.5l-.7.3c2.4.5,4.9.7,7.3.7,1.5,0,3-.5,4.4-1.3,5-2.6,10.6-3.9,16.3-3.8,9.6,0,16.9,1.7,22.5,5.4,6.8,4.4,10.8,12,10.6,20.1-.1,5.9-1.3,11.8-3.3,17.3-2.1,5.9-4.5,11.7-7.1,17.4l-8.1,17.4c-2.4,5-4.4,10.2-6.2,15.5l-.3.8-.4.8c-.9,2.4-1.7,4.8-2.3,7.2-1.3,4.7-2.6,9.5-3.9,14.5-1.4,5.2-2.7,9.9-3.9,14.1-1.8,6.2-3.9,13.2-11.3,14.2-2.7.6-5.5.9-8.3,1M708.1,862.7c4.4.5,8.7,2.1,12.3,4.8,2.6,1.9,5.1,3.9,7.6,6,1.5,1.2,3.1,2.2,4.9,3,1-3.6,2.1-7.6,3.3-12,1.3-5,2.7-10,4-14.9.9-3.5,2-6.9,3.4-10.3,2-6,4.3-11.8,7-17.5l8.1-17.4c2.3-5,4.4-10,6.3-15.2,1.2-3.1,1.9-6.5,2.1-9.8,0-.3,0-.7-.1-1,0,0-2.1-1.8-10.3-1.8-2,0-4,.4-5.9,1.3-4.5,2.4-9.6,3.7-14.8,3.8-5.8,0-11.5-.8-17-2.5-2.7-.9-5.5-1.4-8.4-1.5-8.1-.3-16.1,2.1-22.7,6.7-7,5-12.8,11.5-17.2,18.9-4.8,8.1-8.3,16.8-10.5,25.9-2.2,8.5-3.3,17.2-3.5,25.9,0,2.4.3,4.8.6,7.2.3,2.4,1.1,4.8,2.3,7,1.1,2,2.7,3.7,4.6,4.9,2.7,1.4,5.7,2.1,8.7,1.9,1.7,0,3.5-.4,5-1.1,2.9-1.3,5.6-2.7,8-4.1,2.5-1.4,4.8-2.8,6.7-4.1.4-.3.9-.6,1.3-.8-1.8-.1-3.7-.5-5.5-1l-2.4-.7-1.9-1.7c-7-6.3-10.6-15.4-9.9-24.8.4-8.5,2.4-16.8,6.1-24.5,3.6-7.7,8.6-14.7,14.6-20.6,7.2-7.1,14.9-10.6,22.7-10.6,8.1-.3,15.6,4.4,18.7,11.9,2.3,5.8,3,12,2.1,18.2-.9,6.3-2.5,12.4-4.9,18.3-2.4,6.2-5.6,12.2-9.5,17.6-3.8,5.5-8.7,10.2-14.3,13.7-.7.4-1.4.8-2,1.2M738.8,876.1c-.2,0-.5.1-.7.2h.4c0,0,.4-.2.4-.2ZM716.3,804.8c-2,.9-3.9,2.2-5.4,3.9-4.1,4.1-7.5,8.8-10,14.1-2.4,4.9-3.8,10.2-4,15.7,0,1.5,0,2.9.5,4.3.2-.1.5-.2.7-.4,3.1-2,5.7-4.6,7.8-7.6,2.8-4,5.1-8.3,6.8-12.8,1.7-4.1,2.8-8.4,3.5-12.9.2-1.4.2-2.9,0-4.3M757.4,715.7c-3.8,1.2-7.4,2.7-10.9,4.5-6.5,3.2-12.7,7-18.7,11.1-3.1,2.1-5.8,4.2-8.4,6.3l.4-.2c4.2-1.9,8.5-4.1,12.9-6.6,4.5-2.6,9-5.2,13.3-7.9,4.4-2.8,8-5,10.6-6.6l.2-.2c.2-.1.3-.2.5-.4"/>
            <path id="Path_29035" class="st0" d="M845.3,853.9c.3-2.6-.9-5.2-3.1-6.7-2.8-2.1-5.8-3.8-9-5.1-3.7-1.6-7.9-3.1-12.5-4.5-4.7-1.5-9.3-3.3-13.8-5.4-6.8-3.1-11-7.2-12.8-12.3-1.7-4.5-2.6-9.3-2.7-14.1,0-6.3,1.9-12.4,5.6-17.4,4.2-6,9.5-11.2,15.6-15.2,6.5-4.4,13.7-7.8,21.2-10.1,7.4-2.4,15.1-3.3,22.8-2.9,12.1,1,21.1,4.3,27.1,10,5.6,4.9,9.3,11.6,10.5,19,.2,2.8,0,5.7-.5,8.5-.6,2.9-1.9,5.7-3.8,8-2.3,2.5-5.2,4.4-8.5,5.4-4.6,1.4-9.6,1.6-14.3.5-1.5-.2-2.5-1.3-3.1-3.3-.6-1.9-1-3.8-1.3-5.8.2-5-2.1-9.7-6.2-12.7-3.8-2.6-8.4-3.9-13-3.4-5,.4-9.8,2.2-13.8,5.2-4.4,3.2-7.4,7.8-8.7,13-.2.7,1,1.6,3.6,2.5s6,2.3,10.1,4,8.6,3.6,13.6,5.8c4.8,2.1,9.5,4.5,13.9,7.2,4.1,2.5,7.9,5.5,11.2,9,3,3.1,5,7,5.8,11.2.9,5.9-.1,11.9-2.9,17.2-3.2,6.5-7.7,12.3-13.2,17-6.4,5.5-13.7,9.8-21.5,12.7-9,3.3-18.7,4.6-28.2,3.8-5.9-.3-11.8-1.4-17.4-3.3-4.3-1.4-8.4-3.5-12.1-6.2-3-2.1-5.6-4.8-7.6-7.8-1.7-2.6-3.1-5.5-4.2-8.5-1.2-3.6-1.4-7.4-.5-11,.8-3.6,2.2-7.1,4.2-10.3,1.8-3,4.1-5.6,6.9-7.8,2.1-1.8,4.8-2.9,7.6-3.1,3.6,0,6,3.1,7.2,9.4,1.3,5.5,4.5,10.3,9,13.6,4.4,3.6,9.9,5.6,15.6,5.6,2.4,0,4.8-.2,7.2-.5,2.6-.3,5.2-1,7.6-2,2.2-.8,4.3-2.1,6-3.8,1.5-1.5,2.4-3.5,2.4-5.6"/>
            <path id="Path_29036" class="st0" d="M818.9,906.7c-2.1,0-4.2,0-6.3-.2-6.9-.4-13.8-1.7-20.3-3.9-5.4-1.8-10.5-4.4-15.1-7.7-4.1-2.9-7.6-6.5-10.3-10.7-2.3-3.5-4.1-7.2-5.4-11.1-1.9-5.5-2.2-11.4-.9-17.1,1.1-4.9,3-9.5,5.6-13.8,2.5-4.2,5.8-7.8,9.6-10.8,2.7-2.1,5.7-3.7,8.9-4.7-.5-1-.9-2-1.3-3-2.1-5.7-3.3-11.6-3.4-17.7-.2-8.6,2.5-17.1,7.6-24,5-7.2,11.3-13.3,18.5-18.2,7.4-5,15.6-8.9,24.2-11.6,8.7-2.8,17.8-3.9,26.9-3.4h.2c14.6,1.2,26.1,5.6,34,13,7.5,6.7,12.4,15.8,14,25.7v.5c.4,3.9.1,7.9-.7,11.7-.9,4.8-3.1,9.3-6.2,13-5,5.5-11.8,9.1-19.1,10.2.8.8,1.7,1.6,2.4,2.5,4.5,4.7,7.5,10.6,8.6,17,1.3,8.2,0,16.6-3.8,24-3.8,7.9-9.3,15-16,20.7-7.4,6.3-15.8,11.3-24.9,14.7-8.6,3.2-17.7,4.8-26.8,4.8M787.1,851.7c-.6.8-1.2,1.6-1.7,2.4-1.3,2.1-2.2,4.4-2.8,6.9-.4,1.6-.3,3.4.2,5,.7,2.1,1.7,4.1,2.9,5.9,1.3,1.9,3,3.5,4.9,4.9,2.8,2,5.9,3.5,9.1,4.6,4.7,1.5,9.5,2.4,14.5,2.7,7.9.7,15.9-.3,23.4-3.1,6.6-2.4,12.8-6,18.1-10.6,4.4-3.7,7.9-8.2,10.4-13.3,1.7-3.2,2.4-6.8,2-10.4-.4-2.1-1.4-4-3-5.5-2.6-2.8-5.6-5.1-8.8-7.1-4-2.5-8.2-4.6-12.6-6.5-4.9-2.1-9.3-4-13.3-5.7-4.1-1.7-7.3-2.9-9.7-3.8-12.4-4.5-11.5-13-10.7-16h0c1.9-7.8,6.5-14.6,13-19.3,5.7-4.2,12.5-6.8,19.5-7.4,7.2-.6,14.4,1.3,20.3,5.4,6.7,4.7,10.7,12.2,11,20.3,1.2,0,2.5-.1,3.6-.5,1.4-.4,2.6-1.1,3.6-2.1.7-.8,1.2-1.8,1.4-2.9.3-1.6.5-3.3.4-5-.9-4.7-3.4-8.9-7-12-4.1-3.8-10.9-6.1-20.2-6.9-6.3-.3-12.6.5-18.6,2.4-6.5,2-12.6,4.9-18.2,8.7-4.9,3.3-9.2,7.4-12.6,12.3-2.3,3-3.6,6.7-3.6,10.5v.5c0,3.5.8,7,2.1,10.3.9,2.6,4.3,4.6,6.9,5.8,4,1.9,8.2,3.6,12.4,4.9,4.9,1.5,9.4,3.2,13.4,4.9,4.2,1.7,8.1,3.9,11.7,6.6,5,3.8,7.8,9.8,7.4,16.1,0,4.9-2.1,9.6-5.7,13.1-2.8,2.7-6.1,4.9-9.8,6.3-3.3,1.3-6.8,2.2-10.3,2.7-2.9.4-5.8.6-8.8.7-8.2,0-16.1-2.8-22.5-8-5.9-4.4-10.3-10.5-12.5-17.5M808.9,845.4c.9,2.4,2.5,4.4,4.6,5.9,2.4,2.1,5.5,3.2,8.6,3.2,1.9,0,3.8-.2,5.7-.4,1-.1,2-.3,3-.6-.6-.3-1.3-.6-2-.9-3.4-1.4-7.3-2.8-11.5-4.2-2.8-.9-5.6-1.9-8.4-3M832,807.5s0,0,0,0h0s0,0,0,0M837.4,800.1l1.6.7c3.9,1.6,8.1,3.4,12.7,5.4-.1-.7-.2-1.5-.3-2.2v-.9c-.2-3.1-1.1-3.6-1.3-3.8-1.7-1.2-3.7-1.7-5.8-1.5-2.4.2-4.8,1-6.8,2.4M874.7,804.9h0s0,0,0,0M868.8,800.4h0,0"/>
            <path id="Path_29037" class="st0" d="M903.9,890.5c0-4.5,1.4-9,4.3-12.5,2.9-3.5,7.4-5.5,11.9-5.2,4.7-.2,9.3,1.7,12.5,5.2,3,3.5,4.6,7.9,4.5,12.5.1,4.3-1.5,8.4-4.5,11.4-3.4,3.2-7.9,4.8-12.5,4.5-8.4.6-15.7-5.7-16.3-14.1,0-.6,0-1.2,0-1.8M968.3,673.3c1.9-2.6,4.4-4.7,7.2-6.2,3.3-1.9,7-2.9,10.9-2.9,2.9,0,5.7.9,8.1,2.4,3,1.8,5.1,4.8,6,8.1-.6,3.6-1.4,7.1-2.5,10.5-1.7,6-3.9,13.5-6.5,22.4-2.7,8.9-5.7,19-9.2,30.2-3.5,11.2-7.1,22.6-10.9,34.2-3.7,11.6-7.4,22.8-11,33.7-3.6,10.9-6.8,20.6-9.6,29.1-2.8,8.6-5.1,15.5-7.1,20.8-.8,2.8-1.9,5.4-3.3,8-2.7,1.4-5.7,2.1-8.7,2-2.7,0-5.3-.6-7.8-1.6-2-.8-4-1.9-5.8-3.1-1.6-1.1-2.4-2-2.4-2.7.9-7.8,2.4-15.4,4.3-23,2.4-10,5.3-21.2,8.7-33.5,3.4-12.3,7.1-25.2,11-38.5,4-13.4,7.8-26.1,11.6-38,3.7-11.9,7.1-22.6,10.1-31.9,3-9.3,5.2-16,6.7-20.1"/>
            <path id="Path_29038" class="st0" d="M920.2,917.7c-7.5.3-14.8-2.6-20.1-8-4.9-5.2-7.6-12.1-7.5-19.2-.1-7.2,2.3-14.2,6.9-19.7,1.9-2.4,4.3-4.3,6.9-5.9-1.2-2-1.9-4.3-1.9-6.6v-1c1-8.3,2.6-16.5,4.7-24.6,2.4-10.2,5.4-21.5,8.8-33.8s7.1-25.3,11.1-38.8c4.1-13.9,7.9-26.4,11.6-38.2,3.8-12,7.2-22.8,10.2-32,3.1-9.5,5.3-16.1,6.8-20.4l.5-1.3.8-1.2c2.9-4.1,6.6-7.4,11-9.7,5-2.9,10.7-4.4,16.5-4.4,4.8,0,9.5,1.4,13.7,3.8,5.5,3.2,9.5,8.5,11.2,14.6l.5,1.7v1.7c0,1.8-.2,3.7-3,13.5-1.7,6.1-3.9,13.7-6.6,22.6-2.6,8.9-5.8,19.1-9.3,30.4-3.4,11-7.1,22.6-10.9,34.3-3.9,12.2-7.6,23.2-11.1,33.8-3.6,10.7-6.8,20.5-9.6,29-2.8,8.7-5.2,15.8-7.2,21.2-2.8,7.7-4.8,13.3-10.2,14.9,2.9,4.8,4.5,10.3,4.4,16,.1,7.3-2.7,14.3-7.8,19.4-5.5,5.3-12.9,8.1-20.5,7.8M920.2,884.1c-2.3,0-2.8.7-3.2,1.1-1.2,1.5-1.8,3.4-1.7,5.3-.1,1.3.3,2.6,1.2,3.6.3.3,1,1,3.8,1,1.6.2,3.2-.3,4.5-1.2.9-.9,1.3-2.1,1.2-3.4,0-1.9-.5-3.7-1.8-5.1-.4-.4-1.1-1.3-3.9-1.3h0ZM927.9,853.4l.5.2c1.2.5,2.5.7,3.8.8.3-.7.6-1.5.9-2.5,1.9-5.2,4.2-12,6.9-20.4,2.8-8.6,6-18.5,9.6-29.2,3.5-10.5,7.1-21.5,11-33.6,3.8-11.6,7.4-23.1,10.8-34.1,3.5-11.2,6.6-21.3,9.2-30.1,2.6-8.8,4.8-16.2,6.5-22.3.8-2.7,1.3-4.6,1.6-5.9-.7-.4-1.5-.7-2.3-.7-1.8,0-3.7.5-5.2,1.4-1,.6-2,1.2-2.8,2-1.4,4.1-3.4,10.1-6,17.9-3,9.1-6.4,19.8-10.1,31.7-3.7,11.7-7.4,24.1-11.5,37.8-4,13.3-7.7,26.2-11,38.3-3.3,12-6.2,23.2-8.6,33.1-1.5,6.1-2.6,11.3-3.3,15.5"/>
            <path id="Path_29039" class="st0" d="M19.1,781.9c1-4.3,2.7-11.2,5.1-20.6,2.4-9.4,5.2-20.1,8.5-32.2,3.3-12.1,6.8-24.9,10.7-38.4,3.9-13.5,7.7-26.4,11.4-38.5,3.7-12.2,7.3-23.2,10.7-32.9,2.4-7.4,5.3-14.6,8.7-21.5.2-.5,1.3-.8,3.3-.9,2.2,0,4.4,0,6.5.5,2.6.6,5.1,1.5,7.4,2.7,2.6,1.4,4.8,3.5,6.3,6,.2.2-.7,5-2.9,14.3s-5,20.9-8.5,34.7c-3.5,13.9-7.4,28.9-11.6,45.1-4.2,16.2-8.3,31.3-12.1,45.4-3.9,14.1-7.2,26.1-10,35.8-1.4,5.6-3.1,11.1-5.2,16.5-2.5,2.4-5.9,3.8-9.4,3.8-2.8,0-5.6-.8-8-2.4-3.3-1.9-6-4.7-7.8-8.1-1.6-2.9-2.6-6-3.1-9.2M81,564c2.3-3.6,5.8-6.2,10-7.2,4.2-.9,8.6,0,12.1,2.5,4.3,2,7.4,5.8,8.5,10.3.9,4.2,0,8.6-2.4,12.1-2.4,3.9-6.1,6.8-10.5,8.1-4.5,1.3-9.4.6-13.4-2-3.8-2.5-6.4-6.5-7.1-11-.6-4.5.4-9,2.7-12.8"/>
            <path id="Path_29040" class="st0" d="M38.3,812.9c-.3,0-.6,0-.8,0-4.8-.1-9.4-1.5-13.5-4-5.1-3-9.2-7.3-11.9-12.6-2.3-4.1-3.8-8.7-4.3-13.4l-.2-1.7.4-1.7c1-4.5,2.7-11.4,5.2-21,2.3-9.1,5.1-19.7,8.5-32.3,3.3-12.2,6.9-25.2,10.7-38.5,3.9-13.5,7.7-26.5,11.5-38.8,3.8-12.3,7.4-23.5,10.8-33.3,2.6-7.9,5.7-15.6,9.3-23,1.2-2.4,3.2-4.3,5.7-5.5-1.4-2.7-2.3-5.6-2.7-8.7-1-7,.5-14.1,4.2-20.1l.4-.7c3.9-5.9,9.8-10.1,16.6-11.8,7.1-1.6,14.6-.3,20.6,3.8,7,3.6,12.1,10.1,13.8,17.8,1.4,7,0,14.3-3.9,20.4h0c-3,4.9-7.2,8.7-12.2,11.2h0c3.7,4.5,2.8,8.5-.8,23.9-2.1,9.2-4.9,20.6-8.5,34.9-3.5,13.7-7.4,28.9-11.6,45.2-4.1,15.8-8.2,31.1-12.2,45.5-3.9,14.1-7.2,26.2-10,35.9-4.2,14.9-5.4,17.4-6.4,19.2l-1,1.6-1.4,1.2c-4.5,4.1-10.3,6.4-16.3,6.5M30.6,782.2c.4,1.3.9,2.6,1.6,3.8.7,1.5,1.9,2.7,3.3,3.5l.7.4c.6.3,1.2.4,1.9.5.7-2,1.8-5.6,3.6-12,2.7-9.7,6.1-21.7,9.9-35.7,3.9-14.4,8-29.6,12.1-45.3,4.2-16.2,8.1-31.3,11.6-45,3.6-14.2,6.3-25.5,8.5-34.5.8-3.6,1.4-6.1,1.8-7.9-1.2-.6-2.5-1.1-3.9-1.4h0c-1.6,3.8-3.4,8.7-5.5,14.5-3.3,9.5-6.8,20.5-10.6,32.6-3.7,12.1-7.5,25-11.3,38.3-3.8,13.2-7.4,26.1-10.6,38.2-3.4,12.6-6.2,23.1-8.5,32.1-2,7.8-3.5,13.9-4.5,18.1M91.4,578.4c1.1.8,2.6,1.1,4,.7,1.8-.6,3.3-1.8,4.3-3.4.8-1.1,1.1-2.5.8-3.8-.2-1-1.9-2.1-2.9-2.6l-.7-.4c-2.1-1.3-3-1.1-3.3-1-1.3.4-2.4,1.2-3.1,2.3-.9,1.6-1.3,3.4-1.1,5.2.2,1.3.9,2.4,2,3"/>
            <path id="Path_29041" d="M140.5,769.3c1.3,0,2.6-.2,3.8-.5,1.1-.4,2.2-.7,3.3-1.1s2.3-.7,3.7-1.1c1.7-.4,3.3-.6,5-.5,5.4,0,9.4,1.1,12,3.4,2.5,2,3.3,5.4,1.9,8.3-3.5,9-6.5,18.2-8.9,27.5-3,11.3-6.2,23.2-9.7,35.8-1.2,4.9-2.7,9.7-4.4,14.4-3.7,11.9-8.2,23.5-13.5,34.7-4.2,9.2-9.7,17.6-16.4,25.2-6,6.5-12.6,9.8-19.9,9.8-2.3,0-4.5-.4-6.7-1.2-2.1-.7-3.9-2-5.3-3.7-1.3-1.8-1.9-4.1-1.5-6.3.7-3.4,2.5-6.6,5-9,5.6-6.1,10.8-12.6,15.5-19.3,3.9-5.2,7.1-10.9,9.7-16.9,1.9-5,.6-2.4,2-8,.1-.5-.7,3.5.2-3.3-.6-2.1-2.5-3.5-4.6-3.4-2.6,0-5.1.3-7.6,1-2.7.7-5.4,1.6-8.2,2.6-2.1.9-4.3,1.4-6.5,1.5-7.6,0-13.3-2.4-16.9-7.2-3.7-5.1-5.6-11.3-5.5-17.6.1-7.7,1.3-15.4,3.4-22.9,2.2-8.2,5.6-16,10.2-23.2,4.3-6.9,10-12.8,16.8-17.4,6.7-4.5,14.7-6.6,22.7-5.7,3.4.4,6.7,1.1,9.9,2.3,3.3,1.2,6.7,1.8,10.2,1.8M104.2,837.4c3.4-.1,6.7-1.4,9.4-3.5,3.2-2.4,5.9-5.3,8-8.7,2.4-3.9,4.3-8,5.6-12.4,1.3-4,1.9-8.2,1.8-12.4,0-3.3-1.2-6.6-3.3-9.1-2-2.3-5.1-3-9.3-2.3-3.5,1.9-6.7,4.2-9.5,6.9-2.5,2.4-4.7,5.1-6.5,8-2.3,3.6-4,7.5-5.2,11.6-1,3.5-1.5,7.1-1.2,10.8.1,2.9,1.2,5.7,3,8,1.8,2.1,4.5,3.3,7.2,3.1"/>
            <path id="Path_29042" d="M217.6,851.6c-1.8,1.3-3.7,2.3-5.7,3-2.7,1.1-5.6,2.1-8.7,3-3.1.9-6.1,1.7-9,2.3-2.2.5-4.5.9-6.8,1-6.9,0-11.9-2.4-15-7.1-3.3-5.3-5.1-11.4-5.2-17.7-.3-7.7.5-15.5,2.3-23,1.8-7.9,4.3-15.6,7.6-23,2.7-6.3,6.2-12.3,10.5-17.7,3.8-4.7,7.5-7.1,11.2-7.1,5.6,0,9,1.6,10.2,4.8,1.2,3.9,1.2,8.1.1,12-1.3,5.3-2.9,10.6-5,15.7-2.3,5.6-4.1,10.9-5.6,15.7-1.3,3.8-1.9,7.9-1.5,12,.5,3.2,2.9,4.7,7.5,4.5,3.4-.3,6.5-2,8.4-4.8,3-3.7,5.7-7.6,7.9-11.9,2.5-4.7,5-9.9,7.5-15.4,2.5-5.5,4.9-10.7,7.4-15.4,2.1-4.1,4.5-8.1,7.2-11.9,2.4-3.2,4.8-4.8,7.4-4.8,4.3-.3,8.2,2.7,9.1,6.9,1.4,5.7,1.6,11.5.7,17.3-1.1,7.6-2.8,15.1-5.2,22.3-2.4,7.6-5.3,15.1-8.6,22.3-2.7,6-5.8,11.8-9.4,17.3-3.1,4.6-5.5,6.9-7.4,6.9-2-.2-4-.8-5.9-1.6-2.7-1-4.9-3.1-6.1-5.7"/>
            <path id="Path_29043" d="M355.4,784.8c-1,6.7-3.8,13-8.2,18.1-4.6,5.8-10.2,10.7-16.6,14.4-5.9,3.6-12.6,5.8-19.5,6.5-6.1.8-12.3-1.3-16.8-5.6-1.6,6.2-1.5,10.9.3,14.2,1.7,3.2,4.8,5.4,8.4,6,4.6.6,9.3,0,13.6-1.6,5.7-2.1,11-5,15.8-8.7.5-.4,1.5-1.1,3-2.2,1.5-1.1,3.2-2.1,4.9-2.9,1.5-.8,3.2-1.1,4.9-1,1.5.2,2.5,1.5,3,3.8,1.3,6.1-.1,12.4-4,17.3-4.2,5.4-9.7,9.7-15.9,12.5-7,3.2-14.4,5.3-22.1,6-7.5.9-15.1,0-22.2-2.3-6.8-2.3-12.6-6.8-16.6-12.7-4.3-6.1-5.9-14.4-4.8-24.9.7-7.7,2.8-15.2,6.3-22.1,3.4-6.8,8-12.9,13.6-18,5.7-5.1,12.2-9.2,19.3-12,7.5-3,15.6-4.4,23.7-4.4,5.2-.1,10.4.4,15.5,1.6,3.4.8,6.5,2.3,9.3,4.4,2,1.6,3.5,3.8,4.2,6.3.6,2.3.9,4.7.7,7.1M298.7,805.6c5.7,1.3,11.7,1.1,17.3-.7,3.7-1.2,7-3.5,9.5-6.5,1.7-2.1,2.7-4.8,2.6-7.5-.2-2.4-1.4-3.5-3.5-3.5-7.6.2-13.3,2.1-17.2,5.7-3.7,3.5-6.7,7.8-8.7,12.5"/>
            <path id="Path_29044" d="M285.5,574.7c2.4,13.8.7,25.6-5.2,35.7-6.1,10.2-14.5,18.7-24.6,25-10.9,6.8-22.8,11.9-35.3,15-12.1,3.2-24.4,5.2-36.9,5.8-11.8,33.5-22.9,58.6-33.3,75.1-10.4,16.5-20.7,24.8-31.1,24.8-4.9,0-9.5-2.5-12.3-6.5-6.5-8.5-9.1-19.3-7.2-29.9,1-4.7,3.3-7.4,6.9-8.1,8.7-1.6,16.5-6.5,21.7-13.6,6.5-8.4,11.6-17.8,15-27.9,4.1-11.6,7.2-23.5,9.2-35.6,2.2-12.8,3.9-25.2,5.1-37.3,1.2-12.1,2-22.9,2.4-32.6.4-9.6.7-16.8.9-21.4-2,1.2-4.1,2.3-6.3,3.1-3.4,1.4-7,2.3-10.7,2.9-3.5.6-7.2.5-10.7-.4-3.3-.9-5.7-3.7-6-7.1-.8-3.9,0-8,2.4-11.2,2.5-3.3,5.7-6,9.4-8,4.2-2.2,8.7-3.8,13.4-4.7,4.7-.9,9.5-1.4,14.3-1.4,6.8,0,14.2.2,22.3.5,8.1.4,16.3,1.1,24.6,2.4,8.3,1.2,16.4,3.1,24.4,5.6,7.7,2.4,15,5.9,21.7,10.3,6.5,4.3,12.1,9.8,16.7,16.1,4.8,7,8,15,9.4,23.3M193.6,544.6c0,.7,0,4,.2,10s0,13-.2,21.2c-.2,8.2-.9,16.8-2,25.9-.9,8.2-2.5,16.2-4.9,24.1,6.2-.2,12.3-1,18.3-2.4,7.7-1.6,15.2-4.2,22.3-7.8,7.1-3.5,13.5-8.4,18.6-14.5,5.3-6.4,8-14.5,7.4-22.8-.2-8.7-2.7-15-7.4-19-4.8-4-10.5-7-16.6-8.5-6.4-1.7-12.9-2.8-19.5-3.3-5.5-.3-10.9-1.2-16.1-2.9"/>
            <path id="Path_29045" d="M357.2,606.9c3.4,0,6.6-.9,9.6-2.5,3.4-1.7,7.2-2.6,11-2.5,14.5,0,21.7,4.7,21.7,14.1-.1,4.6-1.1,9.2-2.7,13.6-2,5.5-4.2,11-6.7,16.3l-8.1,17.4c-2.6,5.5-4.8,11.1-6.7,16.8-1.3,3-2.3,6.1-3.1,9.2-1.3,4.7-2.7,9.6-4,14.7-1.3,5.1-2.6,9.7-3.8,13.8-.4,2.1-1.2,4.2-2.2,6.2-4,1.2-8.3,1.2-12.3-.2-2.9-1.2-5.7-2.9-8.1-4.9-2.3-1.9-4.6-3.8-7.1-5.6-2.6-1.9-5.8-2.8-9-2.7-2,.2-3.9,1-5.4,2.2-2.2,1.4-4.6,3-7.4,4.5-2.8,1.6-5.7,3.1-8.9,4.5-3.1,1.4-6.4,2.2-9.8,2.2-5.3.3-10.5-1.1-15-3.8-3.5-2.3-6.4-5.4-8.3-9-1.8-3.3-2.9-7-3.4-10.7-.4-2.9-.7-5.8-.7-8.7.1-9.6,1.4-19.2,3.8-28.6,2.5-10.2,6.4-19.9,11.8-29,5.1-8.7,12-16.3,20.3-22.3,8.6-6,18.8-9.1,29.3-8.9,4,0,8,.7,11.8,2,4.4,1.4,9,2,13.6,2M313.1,690.5c4.2,1.2,8.7.5,12.3-2,4.4-2.8,8.1-6.4,11-10.7,3.3-4.7,6.1-9.8,8.1-15.2,2-5,3.4-10.2,4.2-15.6.7-4.1.2-8.4-1.3-12.3-1.4-3.3-4.7-5.4-8.3-5.1-4.8,0-9.8,2.5-14.8,7.4-5.1,5-9.3,10.9-12.3,17.4-3.1,6.3-4.8,13.1-5.1,20.1-.5,6,1.7,11.9,6.2,15.9"/>
            <path id="Path_29046" d="M456.3,576.2c-1.3,2.9-3,6.7-5.2,11.5s-4.5,9.6-7,14.4c-2.5,4.8-5,9.3-7.6,13.5-1.9,3.4-4.4,6.4-7.3,9-1.8,2.6-4.4,4.5-7.4,5.5-2.8.6-5.6-.5-7.3-2.8-1.9-1.6-2.3-5.4-1.1-11.4,1.5-6.8,3.5-13.5,6.2-19.9,2.9-7.3,6.3-14.3,10.2-21,3-5.6,6.8-10.6,11.3-15,2.7-2.9,5.3-4.2,7.7-3.8,2.4.4,4.5,1.8,5.8,3.8,1.5,2.4,2.5,5.1,2.8,7.9.5,2.9.1,5.9-1.1,8.5"/>
            <path id="Path_29047" d="M479.7,697.5c-1.5-5-1-10.5,1.3-15.2,2.2-4.5,5.7-8.3,10-10.9,4.5-2.7,9.5-4.4,14.7-4.9,5.3-.6,10.7.3,15.6,2.5,5.3,2.6,9.7,6.6,12.9,11.6,3.6,5.4,5.8,12.8,6.5,22.3.5,9.4-1.1,21.3-4.9,35.6-4.2,15.6-9.6,30.8-16.3,45.4-7.4,16.5-16,32.5-25.5,48-9.4,15.4-20.3,29.9-32.4,43.3-10.8,12.1-23.3,22.5-37.1,31.1-11.8,7.6-25.4,11.7-39.4,11.9-5.2.2-10.3-.5-15.2-2.2-3.4-1.5-5.7-5-6.9-10.5-1.6-7.7-2.1-15.5-1.4-23.3.5-9.8,1.6-20.7,3.4-32.8s4.1-24.9,6.9-38.5c2.8-13.6,5.7-27.1,8.9-40.5,3.1-13.4,6.3-26.3,9.4-38.7,3.1-12.4,6-23.4,8.5-32.9,2.5-9.5,4.6-17.3,6.2-23.3,1-3.3,1.8-6.7,2.4-10.1-.4-1.5.2-3.1,1.4-4,2.5-.9,5.3-1.3,8-1.1,8.2,0,14.1,3,17.7,8.9s5.7,13.8,6.2,23.5c.4,11.2-.3,22.4-2.2,33.5-1.9,12.5-4.4,25.3-7.4,38.2s-6.2,25.6-9.6,38.2c-3.4,12.5-6.3,23.7-8.7,33.5-2,7.7-3.5,15.6-4.5,23.5-.6,5.9.4,8.9,3.1,8.9,3.9,0,8.7-3.6,14.7-10.7,6.9-8.5,13.2-17.5,18.8-27,6.6-10.9,13.2-22.9,19.7-36,6.5-13.2,12.2-25.9,17.2-38.2,4.9-12.3,8.8-23.2,11.6-32.8,2.8-9.5,3.7-16.2,2.7-20.1-.2-1-1.1-1.6-2.7-2-1.7-.4-3.5-.6-5.2-.7-1.8,0-3.5-.4-5.2-.9-1.3-.2-2.4-1.2-2.7-2.5"/>
            <path id="Path_29048" d="M639,789.5c-1.3,8.9-5,17.2-10.9,24.1-6.1,7.7-13.6,14.2-22.1,19.2-7.9,4.8-16.7,7.7-25.9,8.7-8.2,1.1-16.4-1.7-22.3-7.4-2.2,8.2-2,14.5.4,18.8,2.3,4.3,6.4,7.2,11.2,8,6.1.9,12.4.1,18.1-2.2,7.6-2.7,14.7-6.6,21-11.6.7-.5,2.1-1.4,4-2.9,2-1.5,4.2-2.8,6.5-3.8,2-1,4.3-1.5,6.5-1.3,1.9.2,3.3,1.9,4,5.1,1.8,8.1-.1,16.5-5.2,23-5.6,7.2-12.9,12.9-21.2,16.6-9.2,4.3-19.2,7-29.3,8-9.9,1.2-20,.1-29.5-3.1-9-3.1-16.7-9-22.1-16.8-5.7-8.1-7.8-19.1-6.3-33.1.9-10.2,3.7-20.2,8.3-29.3,4.5-9,10.6-17.1,18.1-23.9,7.5-6.8,16.2-12.2,25.7-15.9,10-3.9,20.7-5.9,31.5-5.8,6.9-.2,13.9.6,20.6,2.2,4.5,1,8.7,3,12.3,5.8,2.7,2.1,4.7,5,5.6,8.3.8,3.1,1.1,6.2.9,9.4M563.7,817c9.4,1.7,17.1,1.4,23-.9,5-1.6,9.4-4.6,12.7-8.7,2.3-2.8,3.5-6.3,3.4-9.9-.2-3.1-1.8-4.7-4.7-4.7-10.1.2-17.7,2.8-22.8,7.6-5,4.7-8.9,10.4-11.6,16.6"/>
            <path id="Path_29049" d="M735.3,770.3c3.4,0,6.6-.9,9.6-2.5,3.4-1.7,7.2-2.6,11-2.5,14.5,0,21.7,4.7,21.7,14.1-.1,4.6-1.1,9.2-2.7,13.6-2,5.5-4.2,11-6.7,16.3-2.7,5.7-5.4,11.5-8.1,17.4-2.6,5.5-4.8,11.1-6.7,16.8-1.3,3-2.3,6.1-3.1,9.2-1.3,4.7-2.7,9.6-4,14.7-1.3,5.1-2.6,9.7-3.8,13.7-.4,2.1-1.2,4.2-2.2,6.2-4,1.2-8.3,1.2-12.3-.2-2.9-1.2-5.7-2.9-8.1-4.9-2.3-1.9-4.6-3.8-7.1-5.6-2.6-1.9-5.8-2.8-9-2.7-2,.2-3.9,1-5.4,2.2-2.2,1.5-4.6,3-7.4,4.5s-5.7,3.1-8.9,4.5c-3.1,1.4-6.4,2.2-9.8,2.2-5.3.3-10.5-1.1-15-3.8-3.5-2.3-6.4-5.4-8.3-9-1.8-3.3-2.9-6.9-3.4-10.7-.4-2.9-.7-5.8-.7-8.7.1-9.6,1.4-19.2,3.8-28.6,2.5-10.2,6.4-19.9,11.8-29,5.1-8.7,12-16.3,20.3-22.3,8.6-6,18.8-9.1,29.3-8.9,4,0,8,.7,11.8,2,4.4,1.4,9,2,13.6,2M691.1,853.9c4.2,1.2,8.7.5,12.3-2,4.4-2.8,8.1-6.4,11-10.7,3.3-4.7,6.1-9.8,8.1-15.2,2-5,3.4-10.2,4.2-15.6.7-4.1.2-8.4-1.3-12.3-1.4-3.3-4.7-5.4-8.3-5.1-4.8,0-9.8,2.5-14.8,7.4-5.1,5-9.3,10.9-12.3,17.4-3,6.3-4.8,13.1-5.1,20.1-.5,6,1.7,11.9,6.2,15.9M762.1,725.7c-2.7,1.7-6.2,3.9-10.7,6.7-4.5,2.8-9,5.5-13.8,8.1-4.7,2.7-9.3,5-13.8,7.1-3.5,1.8-7.2,2.9-11,3.4-2.9,1.2-6.2,1.4-9.2.5-2.7-1-4.4-3.5-4.5-6.3-.7-2.4,1.1-5.8,5.4-10.1,5-4.9,10.4-9.3,16.1-13.2,6.4-4.5,13.1-8.5,20.1-11.9,5.6-3,11.5-5.1,17.7-6.3,3.9-1,6.7-.6,8.5,1.1,1.8,1.6,2.8,3.9,2.7,6.3,0,2.8-.7,5.6-2,8.1-1.2,2.7-3.1,5-5.6,6.5"/>
            <path id="Path_29050" d="M844.6,853.9c.3-2.6-.9-5.2-3.1-6.7-2.8-2.1-5.8-3.8-9-5.1-3.7-1.6-7.9-3.1-12.5-4.5-4.7-1.5-9.3-3.3-13.8-5.4-6.8-3.1-11-7.2-12.8-12.3-1.7-4.5-2.6-9.3-2.7-14.1,0-6.3,1.9-12.4,5.6-17.4,4.2-6,9.5-11.2,15.6-15.2,6.5-4.4,13.7-7.8,21.2-10.1,7.4-2.4,15.1-3.3,22.8-2.9,12.1,1,21.1,4.3,27.1,10,5.6,4.9,9.3,11.6,10.5,19,.2,2.8,0,5.7-.5,8.5-.6,2.9-1.9,5.7-3.8,8-2.3,2.5-5.2,4.4-8.5,5.4-4.6,1.4-9.6,1.6-14.3.5-1.4-.2-2.5-1.3-3.1-3.3-.6-1.9-1-3.8-1.3-5.8.2-5-2.1-9.7-6.2-12.7-3.8-2.6-8.4-3.9-13-3.4-5,.4-9.8,2.2-13.8,5.2-4.4,3.2-7.4,7.8-8.7,13-.2.7,1,1.6,3.6,2.5s6,2.3,10.1,4c4.1,1.7,8.6,3.6,13.6,5.8,4.8,2.1,9.5,4.5,13.9,7.2,4.1,2.5,7.9,5.5,11.2,9,3,3.1,5,7,5.8,11.2.9,5.9-.1,11.9-2.9,17.2-3.2,6.5-7.7,12.3-13.2,17-6.4,5.5-13.7,9.8-21.5,12.7-9,3.3-18.6,4.6-28.2,3.8-5.9-.3-11.7-1.4-17.4-3.3-4.3-1.4-8.4-3.5-12.1-6.2-3-2.1-5.6-4.8-7.6-7.8-1.7-2.6-3.1-5.5-4.2-8.5-1.2-3.6-1.4-7.4-.5-11,.8-3.6,2.2-7.1,4.2-10.3,1.8-3,4.1-5.6,6.9-7.8,2.1-1.8,4.8-2.9,7.6-3.1,3.6,0,6,3.1,7.2,9.4,1.3,5.5,4.5,10.3,9.1,13.6,4.4,3.6,9.9,5.6,15.6,5.6,2.4,0,4.8-.2,7.2-.5,2.6-.3,5.2-1,7.6-2,2.2-.8,4.3-2.1,6-3.8,1.5-1.5,2.4-3.5,2.4-5.6"/>
            <path id="Path_29051" d="M903.2,890.4c0-4.5,1.4-9,4.3-12.5,2.9-3.5,7.4-5.5,11.9-5.2,4.7-.2,9.3,1.7,12.5,5.2,3,3.5,4.6,7.9,4.5,12.5.1,4.3-1.5,8.4-4.5,11.4-3.4,3.2-7.9,4.8-12.5,4.5-8.4.6-15.7-5.7-16.3-14.1,0-.6,0-1.2,0-1.8M967.6,673.3c1.9-2.6,4.4-4.7,7.2-6.2,3.3-1.9,7-2.9,10.9-2.9,2.9,0,5.7.9,8.1,2.4,3,1.8,5.1,4.8,6,8.1-.6,3.6-1.4,7.1-2.5,10.5-1.7,6-3.9,13.5-6.5,22.4-2.7,8.9-5.7,19-9.2,30.2-3.5,11.2-7.1,22.6-10.9,34.2-3.7,11.6-7.4,22.8-11,33.7-3.6,10.9-6.8,20.6-9.6,29.1-2.8,8.6-5.1,15.5-7.1,20.8-.8,2.8-1.9,5.4-3.3,8-2.7,1.4-5.7,2.1-8.7,2-2.7,0-5.3-.6-7.8-1.6-2-.8-4-1.9-5.8-3.1-1.6-1.1-2.4-2-2.4-2.7.9-7.8,2.4-15.4,4.3-23,2.4-10,5.3-21.2,8.7-33.5,3.4-12.3,7.1-25.2,11-38.5,4-13.4,7.8-26.1,11.6-38,3.7-11.9,7.1-22.6,10.1-31.9,3-9.3,5.2-16,6.7-20.1"/>
            <path id="Path_29052" d="M18.4,781.8c1-4.3,2.7-11.2,5.1-20.6,2.4-9.4,5.2-20.1,8.5-32.2,3.3-12.1,6.8-24.9,10.7-38.4,3.9-13.5,7.7-26.4,11.4-38.5,3.7-12.2,7.3-23.2,10.7-32.9,2.4-7.4,5.3-14.6,8.7-21.5.2-.5,1.3-.8,3.3-.9,2.2,0,4.4,0,6.5.5,2.6.6,5.1,1.5,7.4,2.7,2.6,1.4,4.8,3.5,6.3,6,.2.2-.7,5-2.9,14.3-2.2,9.3-5,20.9-8.5,34.7-3.5,13.9-7.4,28.9-11.6,45.1-4.2,16.2-8.3,31.3-12.1,45.4-3.9,14.1-7.2,26.1-10,35.8-1.4,5.6-3.1,11.1-5.2,16.5-2.5,2.4-5.9,3.8-9.4,3.8-2.8,0-5.6-.8-8-2.4-3.3-1.9-6-4.7-7.8-8.1-1.6-2.9-2.6-6-3.1-9.2M80.3,564c2.3-3.6,5.8-6.2,10-7.2,4.2-.9,8.6,0,12.1,2.5,4.3,2,7.4,5.8,8.5,10.3.8,4.2,0,8.6-2.4,12.1-2.4,3.9-6.1,6.8-10.5,8.1-4.5,1.3-9.4.6-13.4-2-3.8-2.5-6.4-6.5-7.1-11-.6-4.5.4-9,2.7-12.8"/>
            <path id="Path_29053" d="M878,117.3l-105.1,46.3,26.3,9.7-163.7,147.6-136.2-66.2c-6.2-3-13.5-2.2-18.9,1.9l-186.7,143c-7.9,6.1-9.4,17.4-3.4,25.3,6.1,7.9,17.4,9.4,25.3,3.4l177.8-136.2,137.1,66.6c6.6,3.2,14.5,2.1,20-2.8l175.4-158.1,11.8,27,40.2-107.5Z"/>
            <g id="Path_290531" data-name="Path_29053">
              <path d="M304.7,437c-7.2,0-13.9-3.3-18.3-9-7.7-10.1-5.8-24.6,4.3-32.3l186.7-143c4-3.1,9-4.8,14-4.8s7,.8,10.1,2.3l133.2,64.7,155.1-139.8-18.5-6.9c-1.9-.7-3.2-2.5-3.3-4.5,0-2,1.1-3.9,3-4.7l105.1-46.3c.6-.3,1.3-.4,2-.4,1.3,0,2.5.5,3.4,1.4,1.5,1.4,2,3.5,1.3,5.4l-40.2,107.5c-.7,1.9-2.5,3.2-4.5,3.2,0,0,0,0-.1,0-2,0-3.8-1.2-4.6-3l-9-20.7-170.2,153.4c-4.2,3.8-9.7,5.9-15.5,5.9s-7-.8-10.1-2.3l-134.4-65.3-175.4,134.3c-4.1,3.1-8.9,4.8-14,4.8Z"/>
              <path class="st0" d="M878,117.3h0M878,117.3l-40.2,107.5-11.8-27-175.4,158.1c-3.4,3.1-7.7,4.7-12.1,4.7s-5.4-.6-7.9-1.8l-137.1-66.6-177.8,136.2c-3.3,2.5-7.1,3.7-11,3.7-5.4,0-10.8-2.4-14.4-7.1-6.1-7.9-4.6-19.3,3.4-25.3l186.7-143c3.2-2.5,7.1-3.7,11-3.7,2.7,0,5.4.6,7.9,1.8l136.2,66.2,163.7-147.6-26.3-9.7,105.1-46.3M878,107.3c-.2,0-.4,0-.7,0-1.3,0-2.5.4-3.6.9l-104.9,46.2c-3.7,1.6-6.1,5.4-6,9.5.1,4.1,2.7,7.7,6.5,9.1l10.8,4-146.5,132-130.1-63.2c-3.8-1.8-8-2.8-12.3-2.8-6.1,0-12.2,2.1-17.1,5.8l-186.7,143c-6,4.6-9.8,11.2-10.8,18.6-1,7.4,1,14.8,5.5,20.8,5.4,7,13.5,11,22.3,11s12.1-2,17.1-5.8l172.9-132.4,131.6,63.9c3.8,1.8,8,2.8,12.3,2.8,7,0,13.6-2.6,18.8-7.2l165.1-148.8,6.3,14.3c1.6,3.6,5.2,6,9.2,6s.2,0,.3,0c4.1-.1,7.7-2.7,9.1-6.5l40.1-107.3c.5-1.2.7-2.4.7-3.8,0-5.4-4.4-9.9-9.8-10,0,0-.2,0-.2,0h0ZM878,127.3h0,0Z"/>
            </g>
          </g>
        </g>
      </g>
    </g>
  </g>
</svg>