<?xml version="1.0" standalone="no"?>
<!DOCTYPE svg PUBLIC "-//W3C//DTD SVG 20010904//EN"
 "http://www.w3.org/TR/2001/REC-SVG-20010904/DTD/svg10.dtd">
<svg version="1.0" xmlns="http://www.w3.org/2000/svg"
 width="1025.000000pt" height="1025.000000pt" viewBox="0 0 1025.000000 1025.000000"
 preserveAspectRatio="xMidYMid meet">
<metadata>
Created by potrace 1.14, written by Peter Selinger 2001-2017
</metadata>
<g transform="translate(0.000000,1025.000000) scale(0.100000,-0.100000)"
fill="#000000" stroke="none">
<path d="M5088 10043 c-2 -10 -1 -34 4 -53 4 -19 8 -94 8 -166 l0 -130 -74 -1
-75 -2 -3 37 c-2 29 -7 37 -23 37 -17 0 -20 -7 -20 -45 l0 -45 73 -2 c39 -1
83 -2 97 -2 24 -1 25 -4 25 -61 l0 -60 -31 0 c-102 0 -272 -65 -377 -145 -174
-131 -300 -390 -283 -581 1 -14 1403 -16 1412 -2 3 4 1 41 -4 81 -42 337 -307
611 -623 643 -35 4 -65 10 -65 13 -1 3 -2 30 -3 59 -1 40 2 52 14 53 8 0 51 1
95 2 l80 2 0 45 c0 38 -3 45 -20 45 -16 0 -19 -7 -18 -36 l0 -37 -73 1 c-41 1
-75 5 -75 9 -5 33 -4 255 2 263 3 6 6 29 6 53 0 37 -3 42 -23 42 -13 0 -24 -7
-26 -17z"/>
<path d="M4235 8722 c-27 -2 -55 -7 -61 -13 -12 -10 -12 -87 0 -107 5 -9 218
-12 936 -12 875 0 930 1 938 18 12 22 13 83 3 101 -7 11 -158 14 -887 15 -484
0 -901 0 -929 -2z"/>
<path d="M4572 8512 c-73 -5 -70 15 -69 -536 0 -462 1 -490 18 -507 16 -16 35
-19 127 -19 93 0 111 3 125 18 15 17 17 67 17 515 0 540 1 526 -56 528 -90 3
-124 4 -162 1z"/>
<path d="M5013 8508 c-14 -4 -30 -13 -34 -20 -5 -7 -9 -236 -9 -509 0 -468 1
-497 18 -512 15 -14 40 -17 129 -17 104 0 112 1 125 23 13 18 15 99 15 510 0
438 -1 490 -16 509 -14 17 -29 20 -109 21 -51 1 -104 -1 -119 -5z"/>
<path d="M5495 8512 c-65 -8 -62 18 -62 -529 0 -468 1 -497 19 -515 15 -15 34
-18 126 -18 94 0 111 3 126 19 16 17 17 61 17 505 0 267 -2 495 -6 505 -3 11
-16 23 -28 27 -24 8 -142 11 -192 6z"/>
<path d="M4178 7329 c-15 -8 -19 -101 -5 -116 9 -9 1848 -10 1868 -1 20 9 25
100 7 116 -16 12 -1848 14 -1870 1z"/>
<path d="M3525 7019 c-111 -45 -399 -191 -540 -274 -263 -154 -586 -382 -751
-530 -6 -5 -49 -44 -95 -85 -660 -589 -1179 -1391 -1446 -2235 -58 -186 -133
-486 -159 -640 -19 -115 -24 -146 -29 -190 -3 -27 -8 -63 -10 -80 -16 -128
-24 -218 -29 -357 l-4 -88 351 3 c340 2 350 3 353 22 2 11 6 51 9 90 3 38 8
77 10 85 2 8 7 40 10 70 12 110 22 184 30 231 2 9 6 40 10 70 7 51 23 147 60
351 59 326 245 904 420 1298 84 192 315 627 419 790 115 180 285 417 373 519
21 25 69 81 108 125 74 87 355 371 444 450 98 87 421 336 435 336 5 0 76 47
85 56 7 7 -1 4 -54 -17z"/>
<path d="M6761 6964 c109 -73 286 -210 394 -304 57 -50 412 -405 466 -465 279
-316 529 -699 790 -1215 118 -231 171 -358 275 -650 25 -69 49 -134 54 -145 5
-11 25 -74 45 -140 20 -66 43 -140 50 -165 47 -153 132 -549 150 -700 3 -25 8
-57 11 -72 3 -15 7 -40 9 -57 2 -17 9 -68 15 -114 6 -45 13 -100 16 -122 2
-22 7 -51 9 -65 2 -14 7 -59 10 -100 3 -41 8 -82 10 -90 4 -13 48 -15 337 -14
183 1 341 2 351 3 16 1 17 9 12 74 -3 39 -7 104 -10 142 -3 39 -7 86 -10 105
-2 19 -7 62 -10 95 -3 33 -8 71 -10 85 -2 14 -13 81 -24 150 -21 129 -44 249
-60 310 -6 19 -15 58 -22 85 -39 166 -155 531 -199 630 -5 11 -30 70 -56 130
-192 458 -483 923 -828 1325 -99 116 -348 367 -468 475 -323 286 -758 577
-1148 767 -132 64 -253 118 -266 118 -3 0 45 -34 107 -76z"/>
<path d="M4115 6817 c-175 -91 -251 -136 -395 -235 -78 -53 -271 -201 -290
-222 -3 -3 -36 -32 -75 -64 -183 -156 -431 -427 -613 -670 -159 -214 -238
-337 -469 -741 -108 -187 -257 -523 -344 -775 -49 -145 -158 -539 -175 -637
-8 -47 -13 -69 -22 -113 -6 -25 -13 -61 -16 -80 -3 -19 -7 -44 -10 -55 -3 -20
-16 -104 -21 -140 -2 -11 -6 -38 -9 -60 -12 -89 -26 -204 -31 -270 -4 -38 -10
-99 -15 -134 -5 -36 -7 -68 -4 -73 3 -4 279 -8 615 -8 l609 0 1 38 c1 20 2
109 4 197 2 148 12 382 20 465 2 19 6 76 10 125 3 50 8 101 10 115 2 14 7 52
10 85 3 33 8 71 10 85 2 14 7 52 10 85 4 33 9 69 11 80 2 11 6 38 9 60 12 85
37 225 61 340 13 66 26 129 28 140 2 11 18 74 34 140 148 591 354 1105 647
1615 172 300 317 504 504 709 40 45 69 81 65 81 -5 0 -81 -38 -169 -83z"/>
<path d="M5962 6873 c14 -16 47 -50 73 -78 117 -124 287 -357 407 -556 341
-566 564 -1109 723 -1755 20 -82 39 -160 41 -174 3 -14 11 -56 19 -95 8 -38
17 -83 20 -100 3 -16 12 -68 20 -115 21 -125 43 -278 61 -425 3 -27 7 -64 9
-81 2 -17 6 -66 10 -110 3 -43 8 -101 10 -129 13 -160 21 -395 24 -661 l1 -52
613 2 612 1 -1 30 c-1 32 -13 154 -19 195 -2 14 -6 50 -10 80 -3 30 -10 87
-15 125 -5 39 -12 90 -15 115 -35 263 -134 686 -229 971 -111 334 -216 574
-378 859 -313 553 -537 859 -873 1195 -246 247 -472 425 -743 587 -117 70
-361 198 -378 198 -4 0 4 -12 18 -27z"/>
<path d="M4807 6759 c-118 -106 -190 -182 -343 -361 -39 -46 -157 -208 -221
-303 -235 -353 -427 -758 -587 -1238 -31 -92 -58 -178 -60 -190 -3 -12 -19
-71 -36 -131 -17 -60 -38 -138 -46 -175 -9 -36 -18 -73 -20 -81 -20 -83 -72
-349 -89 -460 -3 -19 -7 -46 -10 -60 -5 -29 -11 -75 -20 -145 -4 -27 -8 -61
-10 -75 -2 -14 -7 -56 -10 -95 -4 -38 -8 -81 -10 -95 -2 -14 -7 -65 -11 -115
-3 -49 -8 -112 -10 -140 -2 -27 -7 -163 -10 -302 l-7 -252 49 -3 c27 -2 381
-2 786 0 l738 2 -1 2140 c0 1177 -1 2140 -2 2140 -1 0 -33 -28 -70 -61z"/>
<path d="M5354 4683 l1 -2137 783 -4 782 -3 1 23 c3 128 -12 523 -26 683 -10
110 -16 171 -20 195 -2 14 -7 54 -10 90 -3 36 -8 72 -10 80 -2 8 -7 40 -10 70
-14 129 -76 463 -116 630 -93 384 -241 826 -370 1105 -13 28 -24 52 -24 55 -2
10 -132 265 -165 325 -138 249 -304 488 -485 700 -65 77 -265 275 -306 305
l-26 19 1 -2136z"/>
<path d="M1160 2390 c-11 -7 -16 -34 -20 -102 l-5 -93 -460 0 c-253 0 -466 -4
-472 -8 -17 -11 -17 -111 0 -124 14 -12 9809 -14 9827 -3 15 9 17 105 3 122
-9 11 -102 13 -480 13 l-468 0 2 79 c2 57 -1 86 -12 103 l-15 23 -239 -3
c-132 -1 -243 -6 -248 -10 -4 -5 -9 -45 -10 -90 -1 -45 -2 -87 -2 -92 -1 -7
-198 -10 -573 -10 l-573 0 -5 93 c-4 66 -9 95 -19 102 -8 5 -117 9 -241 9
-175 1 -231 -2 -245 -13 -15 -11 -19 -28 -19 -102 l-1 -89 -752 0 c-495 0
-753 3 -753 10 -1 5 -2 47 -3 92 -1 45 -6 85 -10 90 -12 11 -479 14 -497 3
-11 -7 -16 -34 -18 -102 l-4 -93 -746 1 c-411 1 -750 2 -753 3 -3 0 -6 39 -7
86 0 50 -5 92 -12 100 -16 19 -469 20 -495 1 -13 -9 -17 -32 -18 -101 l-2 -90
-575 0 -576 0 1 84 c2 126 14 120 -262 120 -125 0 -235 -4 -243 -9z"/>
<path d="M1160 1870 c-19 -19 -20 -33 -20 -242 0 -123 4 -228 8 -234 17 -26
57 -31 264 -30 190 1 219 4 236 19 18 16 19 33 18 248 -1 216 -2 232 -20 245
-16 11 -66 14 -243 14 -210 0 -224 -1 -243 -20z"/>
<path d="M2819 1848 c-3 -159 0 -468 4 -475 6 -10 502 -11 512 -1 6 5 10 371
6 491 l-1 27 -260 0 -260 0 -1 -42z"/>
<path d="M4865 1867 c-21 -33 -21 -452 1 -482 14 -19 27 -20 237 -20 122 -1
230 1 239 3 32 8 37 52 35 275 -2 204 -3 220 -21 233 -16 11 -67 14 -248 14
-226 0 -228 0 -243 -23z"/>
<path d="M6904 1868 c-16 -17 -18 -44 -19 -241 0 -209 1 -223 20 -242 19 -20
32 -21 248 -20 214 0 230 2 243 20 11 15 14 67 14 247 0 225 0 228 -22 242
-18 10 -72 14 -245 14 -207 0 -223 -2 -239 -20z"/>
<path d="M8580 1870 c-15 -15 -17 -42 -15 -241 1 -123 3 -229 3 -235 4 -25 56
-30 269 -29 206 1 224 2 236 19 11 15 14 69 14 244 0 198 -2 227 -17 242 -15
15 -44 17 -245 17 -202 0 -230 -2 -245 -17z"/>
<path d="M207 1222 c-14 -15 -17 -42 -17 -154 0 -118 2 -137 18 -151 17 -16
372 -17 4909 -17 4721 0 4890 1 4906 18 14 15 17 42 18 143 1 155 2 145 -17
163 -14 15 -474 16 -4908 16 -4727 0 -4893 -1 -4909 -18z"/>
<path d="M197 615 c-2 -5 -3 -100 -3 -210 l1 -200 4921 -1 4922 -1 0 211 0
212 -4919 0 c-3363 0 -4920 -4 -4922 -11z"/>
</g>
</svg>
