<svg id="arrow-L" xmlns="http://www.w3.org/2000/svg" xmlns:xlink="http://www.w3.org/1999/xlink" width="45" height="45" viewBox="0 0 45 45">
  <defs>
    <clipPath id="clip-path">
      <path id="icon_arrow-left-circle" data-name="icon / arrow-left-circle" d="M21.5,43A21.437,21.437,0,0,1,0,21.5,21.437,21.437,0,0,1,21.5,0,21.437,21.437,0,0,1,43,21.5,21.437,21.437,0,0,1,21.5,43Zm0-39.091A17.518,17.518,0,1,0,33.961,9.04,17.491,17.491,0,0,0,21.5,3.909Zm0,27.365a1.771,1.771,0,0,1-1.369-.588l-7.818-7.818c-.192-.192-.391-.391-.391-.586a1.185,1.185,0,0,1-.2-.783,1.181,1.181,0,0,1,.2-.781c0-.194.2-.391.385-.582l7.823-7.823a1.892,1.892,0,0,1,2.737,0,1.894,1.894,0,0,1,0,2.737l-4.5,4.495H29.319a1.954,1.954,0,0,1,0,3.909H18.372l4.5,4.5a1.892,1.892,0,0,1,0,2.735A1.765,1.765,0,0,1,21.5,31.274Z" fill="#0072bb"/>
    </clipPath>
  </defs>
  <g transform="translate(1 1)">
    <path id="icon_arrow-left-circle-2" data-name="icon / arrow-left-circle" d="M21.5,43A21.437,21.437,0,0,1,0,21.5,21.437,21.437,0,0,1,21.5,0,21.437,21.437,0,0,1,43,21.5,21.437,21.437,0,0,1,21.5,43Zm0-39.091A17.518,17.518,0,1,0,33.961,9.04,17.491,17.491,0,0,0,21.5,3.909Zm0,27.365a1.771,1.771,0,0,1-1.369-.588l-7.818-7.818c-.192-.192-.391-.391-.391-.586a1.185,1.185,0,0,1-.2-.783,1.181,1.181,0,0,1,.2-.781c0-.194.2-.391.385-.582l7.823-7.823a1.892,1.892,0,0,1,2.737,0,1.894,1.894,0,0,1,0,2.737l-4.5,4.495H29.319a1.954,1.954,0,0,1,0,3.909H18.372l4.5,4.5a1.892,1.892,0,0,1,0,2.735A1.765,1.765,0,0,1,21.5,31.274Z" fill="#0072bb"/>
  </g>
</svg>
