<svg xmlns="http://www.w3.org/2000/svg" width="52.25" height="52.34" viewBox="0 0 52.25 52.34"><defs><style>.cls-1{fill:#231f20;}</style></defs><g id="Layer_2" data-name="Layer 2"><g id="Layer_1-2" data-name="Layer 1"><path class="cls-1" d="M12.54,26.17H15.9a1.64,1.64,0,1,0,0-3.27H12.54a2.73,2.73,0,0,1-2.73-2.73V3.27H42.53v16.9A2.73,2.73,0,0,1,39.8,22.9H36.53a1.64,1.64,0,1,0,0,3.27H39.8a6,6,0,0,0,6-6V1.64A1.63,1.63,0,0,0,44.16,0h-36A1.63,1.63,0,0,0,6.54,1.64V20.17A6,6,0,0,0,12.54,26.17Z"/><path class="cls-1" d="M34.35,15.27A1.64,1.64,0,0,0,36,13.63V8.53A1.64,1.64,0,0,0,35.57,7,1.65,1.65,0,0,0,34,6.54H28.9a1.64,1.64,0,1,0,0,3.27h1.23L27,12.68l-2.77-1.59a1.62,1.62,0,0,0-2,.27l-5.46,5.47A1.64,1.64,0,0,0,18,19.63l0-.05a1.57,1.57,0,0,0,1.16-.48l4.55-4.54,2.72,1.57a1.63,1.63,0,0,0,1.93-.23l4.34-4v1.71A1.64,1.64,0,0,0,34.35,15.27Z"/><path class="cls-1" d="M39.25,32.71a4.37,4.37,0,1,0,4.37-4.36A4.37,4.37,0,0,0,39.25,32.71Zm5.46,0a1.09,1.09,0,1,1-1.09-1.09A1.09,1.09,0,0,1,44.71,32.71Z"/><path class="cls-1" d="M46.34,39.25H40.89a1.64,1.64,0,0,0,0,3.28h5.45a2.72,2.72,0,0,1,2.73,2.72v1.09a1.59,1.59,0,1,0,3.18,0V45.25A6,6,0,0,0,46.34,39.25Z"/><path class="cls-1" d="M50.7,48h0Z"/><path class="cls-1" d="M8.72,28.35a4.36,4.36,0,0,0,0,8.72h0a4.36,4.36,0,0,0,0-8.72Zm0,5.45a1.09,1.09,0,1,1,1.09-1.09A1.09,1.09,0,0,1,8.72,33.8Z"/><path class="cls-1" d="M11.36,39.25H6a6,6,0,0,0-6,6v1.09a1.64,1.64,0,1,0,3.27,0V45.25A2.72,2.72,0,0,1,6,42.53h5.36a1.64,1.64,0,0,0,0-3.28Z"/><path class="cls-1" d="M19.63,31.62a6.54,6.54,0,1,0,6.54-6.54A6.54,6.54,0,0,0,19.63,31.62Zm9.9,0a3.27,3.27,0,1,1-3.36-3.27h.09A3.27,3.27,0,0,1,29.53,31.62Z"/><path class="cls-1" d="M32.17,41.44h-12a6,6,0,0,0-6,6V50.7a1.64,1.64,0,1,0,3.27,0V47.43a2.72,2.72,0,0,1,2.72-2.72h12a2.72,2.72,0,0,1,2.72,2.72v3.18a1.64,1.64,0,0,0,1.64,1.64v.09a1.63,1.63,0,0,0,1.63-1.64V47.43A6,6,0,0,0,32.17,41.44Z"/></g></g></svg>