<svg xmlns="http://www.w3.org/2000/svg" xmlns:xlink="http://www.w3.org/1999/xlink" width="914.663" height="910.313" viewBox="0 0 914.663 910.313">
  <defs>
    <clipPath id="clip-path">
      <rect id="Rectangle_3123" data-name="Rectangle 3123" width="708.289" height="715.568" fill="none"/>
    </clipPath>
  </defs>
  <g id="bg-arrows-cicle" transform="matrix(0.342, -0.94, 0.94, 0.342, 0, 665.574)">
    <g id="Group_3879" data-name="Group 3879" clip-path="url(#clip-path)">
      <path id="Path_11404" data-name="Path 11404" d="M533.834,118.381l-17.7-85.52L506,48.294a349.987,349.987,0,0,0-381.862,17.96l61.085,6.96-7.061,61.973c80.893-56.8,190.066-64.617,279.793-13.779l-9.638,14.668Z" transform="translate(20.41 0)" fill="#b45cb1"/>
      <path id="Path_11405" data-name="Path 11405" d="M192.934,72.8l-86.8-9.6,11.544,14.414A349.987,349.987,0,0,0,16.755,446.335l25.5-55.945,56.757,25.866C69.99,321.771,96.287,215.525,172.366,145.9l10.971,13.7Z" transform="translate(0 10.391)" fill="#676eb9"/>
      <path id="Path_11406" data-name="Path 11406" d="M46.137,357.2l-35.95,79.588,17.275-6.524A349.982,349.982,0,0,0,346.951,640.191l-45.327-41.535,42.139-45.987c-98.829-1.6-191.749-59.443-234.457-153.312l16.42-6.2Z" transform="translate(1.675 58.732)" fill="#7aba5c"/>
      <path id="Path_11407" data-name="Path 11407" d="M274.326,595.482l64.583,58.786-.866-18.447A349.983,349.983,0,0,0,636.418,396.838l-53.509,30.274L552.2,372.825c-32.061,93.5-115.787,163.995-218.26,175.6l-.823-17.531Z" transform="translate(45.105 61.3)" fill="#bf9140"/>
      <path id="Path_11408" data-name="Path 11408" d="M560.9,463.4l75.865-43.257-17.811-4.875A349.989,349.989,0,0,0,483.871,57.65l12.257,60.245-61.122,12.436c79.014,59.383,120.189,160.8,99.565,261.841l-16.928-4.633Z" transform="translate(71.524 9.479)" fill="#0059ab"/>
    </g>
  </g>
</svg>
