<svg xmlns="http://www.w3.org/2000/svg" width="422.8" height="460.93" viewBox="0 0 422.8 460.93"><defs><style>.cls-1{fill:#00608c;opacity:0.5;}</style></defs><g id="Layer_2" data-name="Layer 2"><g id="_Layer_" data-name="&lt;Layer&gt;"><path class="cls-1" d="M10.88,176.83a209,209,0,0,0-6.55,22.5A2.2,2.2,0,0,1,2.19,201,2.72,2.72,0,0,1,1.7,201a2.19,2.19,0,0,1-1.64-2.63,212.54,212.54,0,0,1,6.69-23,2.19,2.19,0,1,1,4.13,1.46ZM41.83,116a2.17,2.17,0,0,0,1.36.48,2.2,2.2,0,0,0,1.72-.82A209.94,209.94,0,0,1,60.56,98.23a2.19,2.19,0,0,0-3.09-3.11,215.25,215.25,0,0,0-16,17.8A2.18,2.18,0,0,0,41.83,116Zm74.9-58a2.16,2.16,0,0,0,1-.22,210.67,210.67,0,0,1,21.64-9,2.19,2.19,0,0,0-1.45-4.13,212.7,212.7,0,0,0-22.09,9.16,2.19,2.19,0,0,0,1,4.17Zm-40,25.15a2.21,2.21,0,0,0,1.36-.48A213.66,213.66,0,0,1,97.17,69.09a2.19,2.19,0,0,0-2.33-3.71A217.06,217.06,0,0,0,75.33,79.21a2.19,2.19,0,0,0,1.37,3.91ZM17,156.22a2.13,2.13,0,0,0,.95.22,2.17,2.17,0,0,0,2-1.23,209.89,209.89,0,0,1,11.4-20.48,2.19,2.19,0,0,0-3.71-2.34A213.26,213.26,0,0,0,16,153.3,2.18,2.18,0,0,0,17,156.22ZM162.16,451.34a209.38,209.38,0,0,1-22.54-6.41,2.19,2.19,0,1,0-1.43,4.14,213.36,213.36,0,0,0,23,6.55,2.09,2.09,0,0,0,.49.05,2.19,2.19,0,0,0,.48-4.33Zm93,0a208,208,0,0,1-23.11,3.9,2.19,2.19,0,0,0,.24,4.37h.25a214.28,214.28,0,0,0,23.59-4,2.19,2.19,0,0,0-1-4.28Zm-46.5,5.19a208.88,208.88,0,0,1-21.62-1.13l-1.78-.19a2.19,2.19,0,0,0-.49,4.36l1.82.19a217.48,217.48,0,0,0,22.06,1.16h0a2.2,2.2,0,0,0,0-4.39Zm90.67-20.6a211.56,211.56,0,0,1-21.65,8.95,2.19,2.19,0,0,0,.72,4.26,2.27,2.27,0,0,0,.72-.12,213.8,213.8,0,0,0,22.11-9.14,2.19,2.19,0,1,0-1.9-3.95ZM288.41,52.68a206.84,206.84,0,0,1,21.15,10.09,2.19,2.19,0,0,0,2.1-3.84,209.24,209.24,0,0,0-21.59-10.3,2.19,2.19,0,1,0-1.66,4Zm-45-12.76A210.61,210.61,0,0,1,266.26,45a2.06,2.06,0,0,0,.6.08,2.19,2.19,0,0,0,.6-4.3,217.08,217.08,0,0,0-23.35-5.22,2.19,2.19,0,1,0-.72,4.32Zm86,35.26a209.5,209.5,0,0,1,18.34,14.56,2.19,2.19,0,0,0,1.45.55,2.19,2.19,0,0,0,1.46-3.82A211.7,211.7,0,0,0,332,71.6a2.19,2.19,0,1,0-2.52,3.58Zm85.85,135a2.18,2.18,0,0,0,2.15,1.81,2.43,2.43,0,0,0,.38,0,2.2,2.2,0,0,0,1.78-2.54,215.64,215.64,0,0,0-5.46-23.29,2.19,2.19,0,0,0-4.21,1.24A206.9,206.9,0,0,1,415.28,210.16Zm-43.84-95.64c2.64,3.24,5.21,6.6,7.65,10a2.19,2.19,0,1,0,3.55-2.56c-2.48-3.45-5.11-6.88-7.8-10.19-2.33-2.87-4.75-5.7-7.2-8.43a2.19,2.19,0,0,0-3.26,2.93C366.78,108.93,369.16,111.71,371.44,114.52Zm44.29,165.65a211.63,211.63,0,0,1-5,22.89,2.2,2.2,0,0,0,1.53,2.7,2.32,2.32,0,0,0,.58.08,2.2,2.2,0,0,0,2.11-1.61,212.34,212.34,0,0,0,5.11-23.37,2.19,2.19,0,1,0-4.32-.69ZM402,165.3a2.21,2.21,0,0,0,2,1.33,2.08,2.08,0,0,0,.85-.17,2.19,2.19,0,0,0,1.17-2.87,215.57,215.57,0,0,0-10.55-21.47,2.19,2.19,0,1,0-3.82,2.15A210,210,0,0,1,402,165.3Zm18.05,65.8a2.21,2.21,0,0,0-2.06,2.32c.27,4.31.4,8.67.4,13,0,3.48-.09,7-.26,10.48a2.19,2.19,0,0,0,2.08,2.29h.11a2.19,2.19,0,0,0,2.19-2.08c.17-3.54.26-7.14.26-10.69,0-4.38-.13-8.83-.4-13.22A2.16,2.16,0,0,0,420.08,231.1ZM107,123.55a2.19,2.19,0,0,1,2.19-2.19H124a2.19,2.19,0,0,1,2.19,2.19v13.39a2.19,2.19,0,0,1-2.19,2.19H109.23a2.19,2.19,0,0,1-2.19-2.19Zm14.73,2.19H111.42v9h10.35ZM124,167.06H109.23a2.19,2.19,0,0,1-2.19-2.19V151.49a2.19,2.19,0,0,1,2.19-2.19H124a2.19,2.19,0,0,1,2.19,2.19v13.38A2.19,2.19,0,0,1,124,167.06Zm-12.54-4.38h10.35v-9H111.42ZM282,123.55v13.39a2.19,2.19,0,0,1-2.19,2.19H265.12a2.19,2.19,0,0,1-2.19-2.19V123.55a2.19,2.19,0,0,1,2.19-2.19h14.73A2.19,2.19,0,0,1,282,123.55Zm-4.38,2.19H267.31v9h10.35ZM282,151.49v13.38a2.19,2.19,0,0,1-2.19,2.19H265.12a2.19,2.19,0,0,1-2.19-2.19V151.49a2.19,2.19,0,0,1,2.19-2.19h14.73A2.19,2.19,0,0,1,282,151.49Zm-4.38,2.19H267.31v9h10.35ZM93.27,187.29V95.74a2.19,2.19,0,0,1,2.19-2.19H137V73.93a2.19,2.19,0,0,1,2.19-2.19h13.74c1.17-20.18,18.39-36.39,39.8-37.43V2.19A2.19,2.19,0,0,1,194.9,0h24a2.19,2.19,0,0,1,2.19,2.19v18.5a2.19,2.19,0,0,1-2.19,2.19H197.09V34.31c21.41,1,38.63,17.25,39.8,37.43h13.74a2.19,2.19,0,0,1,2.19,2.19V93.55h41.52a2.19,2.19,0,0,1,2.19,2.19v91.55h6.06a2.19,2.19,0,0,1,0,4.38H85.28a2.19,2.19,0,1,1,0-4.38Zm4.38,0h27V175.71a2.19,2.19,0,0,1,2.2-2.19H137V111.71H97.65ZM157.31,71.74h15.92l20.51-12.89a2.18,2.18,0,0,1,2.33,0l20.5,12.89H232.5c-1.22-18.45-17.61-33.11-37.6-33.11S158.52,53.29,157.31,71.74Zm66.23,4.38,24.9,15.66V76.12ZM129.08,187.29H260.73V177.9H129.08Zm12.28-27.54h9.39V97.93h-9.39v61.82Zm5.41-66.2H243L194.9,63.29Zm101.67,4.38h-9.39v61.82h9.39V97.93Zm-13.77,61.82V97.93h-6.94v61.82Zm-25.09,0V97.93H180.22v61.82Zm-43.13,0h9.39V97.93h-9.39Zm47.51,0h9.39V97.93H214ZM155.13,97.93v61.82h6.94V97.93Zm-13.77,75.59H248.44v-9.39H141.36ZM292.15,97.93H252.82v9.39h39.33Zm0,89.36V111.71H252.82v61.81h10.1a2.19,2.19,0,0,1,2.19,2.19v11.58ZM141.36,76.12V91.78l24.9-15.66Zm-43.71,31.2H137V97.93H97.65ZM197.09,18.5h19.6V4.38h-19.6ZM364.93,257.74v4.11a10.46,10.46,0,1,1-20.92,0v-4.11a10.46,10.46,0,1,1,20.92,0Zm-4.38,0a6.08,6.08,0,1,0-12.16,0v4.11a6.08,6.08,0,1,0,12.16,0ZM422.63,359.4v10.18a7.37,7.37,0,0,1-7.37,7.36h-7v41.92a10.82,10.82,0,0,1-10.81,10.81H266.69a10.82,10.82,0,0,1-10.81-10.81V376.94h-7a7.37,7.37,0,0,1-7.37-7.36V359.4a7.38,7.38,0,0,1,7.37-7.37H263.2V291.9a27.21,27.21,0,0,1-11.34-22.07V246.3a7.5,7.5,0,0,1,7.49-7.51h0a7.49,7.49,0,0,1,5.31,2.2h0a7.45,7.45,0,0,1,5.31-2.2h0a7.39,7.39,0,0,1,5.29,2.19h0a7.51,7.51,0,0,1,5.31-2.22h0a7.47,7.47,0,0,1,3.12.71l0-9.44a7.53,7.53,0,0,1,7.5-7.52h0a7.52,7.52,0,0,1,7.51,7.5l0,23.94,2,1a9.91,9.91,0,0,1,5.58,8.89v6a27.23,27.23,0,0,1-13,23.16,1.11,1.11,0,0,1,0,.19V352h13V324.4a10.57,10.57,0,0,1-8.19-8.49,10.9,10.9,0,0,1-.16-1.82v-8.64a10.54,10.54,0,0,1,21.08,0v8.64a10.56,10.56,0,0,1-8.35,10.31V352h32.86V339.11a10.23,10.23,0,0,1,3.64-7.83,12.15,12.15,0,0,1-4.81-6l-1,1A2.14,2.14,0,0,1,340,327a2,2,0,0,1-.42,0,2.2,2.2,0,0,1-1.62-1.36l-9.08-23.45c-1.16.32-2.32.67-3.47,1.08a2.1,2.1,0,0,1-.74.13,2.16,2.16,0,0,1-1.93-1.22c0-.08-.1-.15-.13-.23a2.19,2.19,0,0,1,1.33-2.8,50.74,50.74,0,0,1,15-2.93V283.58a26,26,0,0,1-15.35-23.66v-1.18a14.21,14.21,0,0,1-11.78-13.93,14,14,0,0,1,2.8-8.39V215.36a25.73,25.73,0,0,1,25.7-25.7h42.33a2.19,2.19,0,0,1,2.19,2.19,16.15,16.15,0,0,1-1,5.7c6.5,3,10.45,9.59,10.45,17.83v20.76a14.1,14.1,0,0,1-8.94,22.63v1.15A26,26,0,0,1,369,284v12.24a47.19,47.19,0,0,1,43.33,47.17V352h3A7.38,7.38,0,0,1,422.63,359.4Zm-4.39,0a3,3,0,0,0-3-3H248.87a3,3,0,0,0-3,3v10.18a3,3,0,0,0,3,3H415.26a3,3,0,0,0,3-3Zm-14.37,17.54H260.26v41.92a6.43,6.43,0,0,0,6.43,6.43H397.44a6.43,6.43,0,0,0,6.43-6.43ZM259.35,243.17a3.12,3.12,0,0,0-3.12,3.12v13.14a3.14,3.14,0,0,0,3.13,3.12h0a3.12,3.12,0,0,0,3.12-3.12l0-13.14a3.12,3.12,0,0,0-3.12-3.12Zm7.52,16.25h0V261a3.12,3.12,0,0,0,3.12,3.11h0a3.12,3.12,0,0,0,3.12-3.12V246.28a3.14,3.14,0,0,0-.92-2.21,3.09,3.09,0,0,0-2.2-.91h0a3.11,3.11,0,0,0-2.21.91,3.15,3.15,0,0,0-.91,2.21Zm10.62,3.16a3.14,3.14,0,0,0,3.13,3.12h0a3.14,3.14,0,0,0,3-2.37L283,263a7.5,7.5,0,0,1,.73-13.87v-2.89a3.12,3.12,0,0,0-3.12-3.12h0a3.12,3.12,0,0,0-3.11,3.12ZM288.08,230l0,19a7.85,7.85,0,0,1,1.28.46l5,2.38,0-21.83a3.14,3.14,0,0,0-3.13-3.12h0A3.14,3.14,0,0,0,288.08,230Zm-31.84,39.81a22.87,22.87,0,0,0,45.74,0v-5.06l.18-.08a2.29,2.29,0,0,1-.18-.87,5.51,5.51,0,0,0-3.1-4.94l-11.37-5.47a3.12,3.12,0,0,0-2.65,5.65l12.76,6a2.19,2.19,0,0,1-.94,4.17,2.07,2.07,0,0,1-.93-.21l-8.13-3.83a7.5,7.5,0,0,1-7,4.87h0a7.44,7.44,0,0,1-5.3-2.19,7.19,7.19,0,0,1-.79-1,7.47,7.47,0,0,1-4.53,1.58h0a7.47,7.47,0,0,1-6.08-3.15,7.41,7.41,0,0,1-4.54,1.57h0a7.47,7.47,0,0,1-3.13-.7Zm11.34,24.65V352H289V295.18a27,27,0,0,1-21.45-.7Zm80.49,44.63V352h11.72V339.11a5.86,5.86,0,1,0-11.72,0Zm5.85-10.25a7.77,7.77,0,0,0,7.76-7.76v-.33l-7.5-6.18-8,6.92A7.77,7.77,0,0,0,353.92,328.86Zm-26-72.12v3.18a21.59,21.59,0,0,0,21.57,21.57h9.8a21.59,21.59,0,0,0,21.57-21.57v-3.17a2.19,2.19,0,0,1,2.19-2.19,9.75,9.75,0,0,0,0-19.5,2.2,2.2,0,0,1-2.19-2.19v-3.18a21.6,21.6,0,0,0-21.57-21.57h-9.8a21.6,21.6,0,0,0-21.57,21.57v3.18a2.18,2.18,0,0,1-2.16,2.19,9.75,9.75,0,0,0,0,19.49A2.19,2.19,0,0,1,327.92,256.74Zm-9-41.38v17.17a14.06,14.06,0,0,1,4.6-1.65v-1.19a26,26,0,0,1,25.95-25.95h9.8l.39,0h8.8A11.94,11.94,0,0,0,380.2,194H340.26A21.35,21.35,0,0,0,318.94,215.36Zm70.86,0c0-6.66-3-11.77-8.15-14a16.32,16.32,0,0,1-8.89,6.15,25.92,25.92,0,0,1,12.48,22.13v1.15a14.16,14.16,0,0,1,4.56,1.56Zm-46.53,69.71v11.8a10.66,10.66,0,0,0,10.61,10.65h.38a10.65,10.65,0,0,0,10.31-10.63V285.33a26.27,26.27,0,0,1-5.28.54h-9.8A26,26,0,0,1,343.27,285.09ZM407.9,343.4A42.83,42.83,0,0,0,379,302.76l-8.15,22.76a2.2,2.2,0,0,1-1.6,1.4,2.5,2.5,0,0,1-.47.05,2.21,2.21,0,0,1-1.57-.67l-1.64-1.69a12.14,12.14,0,0,1-5,6.66,10.25,10.25,0,0,1,3.65,7.84V352H387V338.62a2.2,2.2,0,0,1,4.39,0V352H407.9Zm-40-22.67,6.86-19.17a44.28,44.28,0,0,0-6.27-1,15.09,15.09,0,0,1-9.86,10.57Zm-18.24-9.44a15,15,0,0,1-10.29-10.77,47.21,47.21,0,0,0-6.19.64l7.58,19.59Zm-47.16,2.8a6.16,6.16,0,0,0,12.32,0v-8.64a6.16,6.16,0,0,0-12.32,0Zm-5.91,74.77h71a12.54,12.54,0,1,1,0,25.08h-71a12.54,12.54,0,0,1,0-25.08Zm-8.16,12.54a8.17,8.17,0,0,0,8.16,8.16h71a8.16,8.16,0,0,0,0-16.31h-71A8.17,8.17,0,0,0,288.41,401.4ZM33.64,287.13V260.77a11.27,11.27,0,0,1,11.25-11.25h71a11.27,11.27,0,0,1,11.26,11.25v26.36a11.27,11.27,0,0,1-11.26,11.26h-71A11.27,11.27,0,0,1,33.64,287.13Zm4.38,0A6.88,6.88,0,0,0,44.89,294H78.13V280.83a2.19,2.19,0,0,1,2.19-2.19h3.21a5.9,5.9,0,0,0,2.39-11.29l-.15-.07a5,5,0,0,0-.66-.2,4.67,4.67,0,0,0-.5-.14c-.2,0-.4,0-.61-.06s-.36-.05-.55-.05H80.32a2.19,2.19,0,0,1-2.19-2.19V253.9H44.89A6.88,6.88,0,0,0,38,260.77Zm84.78-26.36a6.88,6.88,0,0,0-6.88-6.87H82.68v8.55h.77a10.5,10.5,0,0,1,10.41,8.67A10.31,10.31,0,0,1,83.7,283h-1v11h33.24a6.89,6.89,0,0,0,6.88-6.88Zm38.68,135.44a13.1,13.1,0,0,1-2.12,4.7,12.76,12.76,0,0,1-7.6,5.08,10.9,10.9,0,0,1-6.89-.67,10.91,10.91,0,0,1-10,12.41,13.27,13.27,0,0,1-6.85-1.12,10.75,10.75,0,0,1-1.4,9.13,10.16,10.16,0,0,1-6.83,4,13.77,13.77,0,0,1-2,.15,16.79,16.79,0,0,1-9.86-3.45l-6.87-5.1-4.54,3.25a10,10,0,0,1-13.93-2.32l-.23-.32a9.92,9.92,0,0,1-1.85-5.88,10.13,10.13,0,0,1-13.85-9.35,8.53,8.53,0,0,1-4.86,1.48,11,11,0,0,1-8.8-4.76,11.41,11.41,0,0,1-2.17-6.89,8.7,8.7,0,0,1-2.23.31,10.63,10.63,0,0,1-1.58-.13A11.5,11.5,0,0,1,39.73,392c-3.42-4.84-2.78-11.22,1.43-14.23l4.92-3.53a26,26,0,0,1-2.24-10.72l-.67-.46-14-10.71a6.87,6.87,0,0,1-1.54-9.55l14.88-19.7A50.88,50.88,0,0,1,4.49,274a50.28,50.28,0,0,1,9.44-29.42L6.05,225.31a7.59,7.59,0,0,1,2.22-8.88,7.6,7.6,0,0,1,9.14-.55l17.76,11.45a50.19,50.19,0,0,1,18.6-4.15c.51,0,1,0,1.53,0h50.22a50.84,50.84,0,0,1,44.31,26h25.6a38.75,38.75,0,0,1,15.35,3.14l13.35-8.62a6.43,6.43,0,0,1,9.44,7.85L207.65,266a38.84,38.84,0,0,1,7.15,22.56,39.41,39.41,0,0,1-34.42,39.05l11.5,15.24a6.86,6.86,0,0,1-1.54,9.55l-14.72,11.17a25.06,25.06,0,0,1-1.52,8.91c2.12,3.86,1.69,9.11-1.22,13.2a13.15,13.15,0,0,1-8.43,5.47,11,11,0,0,1-2.85.1c.05.29.1.58.13.88A12.48,12.48,0,0,1,161.48,396.21Zm-4.1-3.65A6.39,6.39,0,0,0,154.8,388l-35.56-25.5a2.19,2.19,0,0,1,2.55-3.56l12.46,8.83,25.27,18.15a5.57,5.57,0,0,0,4.21.88,8.81,8.81,0,0,0,5.58-3.68c2.07-2.92,2.33-6.6.67-9l0-.09,0,0a5,5,0,0,0-1.15-1.15l-33.64-24.17-7.47-5.15-11-7.21L77.27,350a13,13,0,0,1-8.51-24.47l6.89-2.39L74.1,322,59.38,310.77a1.82,1.82,0,0,0-1.33-.37,1.25,1.25,0,0,0-.88.49L31.08,345.44a2.49,2.49,0,0,0,.7,3.43l14,10.65,1.61,1.11a2.2,2.2,0,0,1,.91,2.13,19.91,19.91,0,0,0,1.46,8.86l19.72-14.11A8.65,8.65,0,0,1,76,356.08a11.42,11.42,0,0,1,7.31,4.75,11.64,11.64,0,0,1,2.18,7,10.62,10.62,0,0,1,11.09,4.46,11.43,11.43,0,0,1,2.16,7.32,10.19,10.19,0,0,1,10.17,4.07h0a10.17,10.17,0,0,1,1.85,6.79,10,10,0,0,1,10.08,4l.23.32a10,10,0,0,1-.28,12l.85.68,6.47,4.12a9.21,9.21,0,0,0,6.35,1.8,6.59,6.59,0,0,0,5.92-8.27,9.07,9.07,0,0,0-3.64-5.37L105,377a2.19,2.19,0,0,1,2.55-3.56l2.52,1.8,35.56,25.5a6.44,6.44,0,0,0,5.17,1,8.63,8.63,0,0,0,6.56-9.15ZM119.07,411l-.06,0-1.6-1.27-12.58,9,5.73,4.25a11.93,11.93,0,0,0,8.61,2.49,5.92,5.92,0,0,0,4-2.25C125.44,420,123.59,414.38,119.07,411ZM94,421l22.2-15.87a5.63,5.63,0,0,0,1.3-7.82l-.22-.32a5.61,5.61,0,0,0-7.83-1.3l-1.91,1.36a10.24,10.24,0,0,1-1,.83l-20,14.28a5.61,5.61,0,0,0-.62,7.22l.23.32A5.62,5.62,0,0,0,94,421Zm-13.78-9.7,23.78-17a5.81,5.81,0,0,0,1.34-8.09h0a5.69,5.69,0,0,0-3.77-2.34,5.31,5.31,0,0,0-1-.09,5.72,5.72,0,0,0-3.35,1.08l-23.78,17a5.8,5.8,0,0,0,6.75,9.44Zm-15.93-8.26,28.29-20.22a4.47,4.47,0,0,0,1.78-3.37A7,7,0,0,0,93,374.87c-2-2.75-5.5-3.75-7.7-2.17h0L57,392.92a4.5,4.5,0,0,0-1.78,3.38,7,7,0,0,0,1.35,4.61C58.55,403.66,62.08,404.66,64.29,403.08ZM51,391.76l28.29-20.27c2.21-1.58,2.4-5.31.4-8.14a7,7,0,0,0-4.46-3,4.49,4.49,0,0,0-.86-.08,4,4,0,0,0-2.41.75L43.71,381.33c-2.22,1.58-2.4,5.31-.4,8.14a7,7,0,0,0,4.46,2.95A4.31,4.31,0,0,0,51,391.76ZM8.87,274a46.48,46.48,0,0,0,36.46,45.34l8.35-11a5.64,5.64,0,0,1,3.77-2.2A6.29,6.29,0,0,1,62,307.29L78,319.36l2.7,2,8.2-2.85,20.32-7.07a31.1,31.1,0,0,1,21.46,1.43,46.38,46.38,0,0,0-25.13-85.39H55.3a45.85,45.85,0,0,0-19.4,4.29,2.18,2.18,0,0,1-2.11-.15L15,219.56a3.35,3.35,0,0,0-4.92,4.09L18.45,244a2.17,2.17,0,0,1-.27,2.14A45.94,45.94,0,0,0,8.87,274Zm181.18-17.2a34.58,34.58,0,0,0-14.62-3.23H152a50.65,50.65,0,0,1-16.94,61.69,40.16,40.16,0,0,1,6,4.5l1.65-1.23,14.68-11.19a6.26,6.26,0,0,1,4.59-1.24,5.62,5.62,0,0,1,3.77,2.2l11.49,15.21a35,35,0,0,0,33.15-34.95,34.6,34.6,0,0,0-7-20.95,2.18,2.18,0,0,1-.28-2.15l6.38-15.56a2,2,0,0,0-3-2.5l-14.34,9.25A2.2,2.2,0,0,1,190.05,256.75Zm-1.66,88.69-26.1-34.55a1.25,1.25,0,0,0-.87-.49,1.83,1.83,0,0,0-1.34.37L144.2,322.83a55,55,0,0,1,5.41,7,2.19,2.19,0,0,1-.62,3,2.24,2.24,0,0,1-1.21.36,2.19,2.19,0,0,1-1.83-1,48.83,48.83,0,0,0-6.56-8.11c-13.87-13.66-28.59-8.58-28.74-8.53l-27.88,9.7-.71-.38a2.12,2.12,0,0,1-1.21,1L70.2,329.68a8.58,8.58,0,0,0,5.63,16.2l40.43-14.07a2.24,2.24,0,0,1,1.93.24l11.9,7.82,7.55,5.21,33,23.7a18.19,18.19,0,0,0,.57-6,2.22,2.22,0,0,1,.91-2.12l1.68-1.17,13.9-10.59A2.5,2.5,0,0,0,188.39,345.44Z"/></g></g></svg>