<svg xmlns="http://www.w3.org/2000/svg" width="423.73" height="421.51" viewBox="0 0 423.73 421.51"><defs><style>.cls-1{fill:#00608c;opacity:0.5;}</style></defs><g id="Layer_2" data-name="Layer 2"><g id="_Layer_" data-name="&lt;Layer&gt;"><path class="cls-1" d="M119.64,53.63a2,2,0,0,1,.74-2.73A197.83,197.83,0,0,1,140.8,40.76a2,2,0,0,1,1.57,3.68,193.88,193.88,0,0,0-20,9.93,2,2,0,0,1-1,.27A2,2,0,0,1,119.64,53.63ZM162.81,37a2.24,2.24,0,0,0,.57-.08,195,195,0,0,1,21.75-5.1,2,2,0,0,0-.69-3.94A198.45,198.45,0,0,0,162.25,33a2,2,0,0,0,.56,3.92ZM85.05,81.3a2,2,0,0,0,1.36-.53c.79-.74,1.59-1.47,2.4-2.2,4.73-4.23,9.72-8.28,14.82-12a2,2,0,0,0-2.37-3.23c-5.21,3.83-10.29,8-15.12,12.28l-2.45,2.24a2,2,0,0,0,1.36,3.47ZM34.3,155.39a2,2,0,0,0,.71.13,2,2,0,0,0,1.87-1.29A192.78,192.78,0,0,1,46,133.84,2,2,0,1,0,42.44,132a198.72,198.72,0,0,0-9.3,20.81A2,2,0,0,0,34.3,155.39Zm20.32-40.22a2,2,0,0,0,1.11.34,2,2,0,0,0,1.66-.88A195.79,195.79,0,0,1,70.92,96.86a2,2,0,1,0-3-2.6,200.66,200.66,0,0,0-13.82,18.13A2,2,0,0,0,54.62,115.17ZM174.41,412.43a192.74,192.74,0,0,1-21.42-6.3,2,2,0,1,0-1.35,3.76,196.59,196.59,0,0,0,21.87,6.44,1.73,1.73,0,0,0,.45.05,2,2,0,0,0,.45-3.95Zm44.32,5.08a197.84,197.84,0,0,1-20.19-1l-2.11-.23a2,2,0,0,0-2.21,1.75,2,2,0,0,0,1.76,2.22l2.15.24a203.16,203.16,0,0,0,20.6,1.06,2,2,0,1,0,0-4ZM78.64,357.91a2,2,0,1,0-2.88,2.77,202.37,202.37,0,0,0,16.71,15.51,2.06,2.06,0,0,0,1.28.45A2,2,0,0,0,95,373.1,194.3,194.3,0,0,1,78.64,357.91Zm53.79,39.48A196,196,0,0,1,113,386.32a2,2,0,0,0-2.18,3.36A198.9,198.9,0,0,0,130.65,401a2,2,0,0,0,.89.21,2,2,0,0,0,.89-3.79ZM388.67,129.51a2,2,0,1,0,3.5-1.93A199.4,199.4,0,0,0,380,108.29a2,2,0,1,0-3.26,2.32A197.74,197.74,0,0,1,388.67,129.51Zm16.95,41.25a2,2,0,0,0,1.93,1.46,1.68,1.68,0,0,0,.54-.08,2,2,0,0,0,1.38-2.46A197.9,197.9,0,0,0,402,148.13a2,2,0,0,0-3.7,1.52A194.84,194.84,0,0,1,405.62,170.76Zm7,44a2,2,0,0,0,2,1.92h.09a2,2,0,0,0,1.91-2.09,195.53,195.53,0,0,0-2.29-22.68,2,2,0,1,0-3.95.63A192.2,192.2,0,0,1,412.66,214.79ZM144,102.74a5.26,5.26,0,0,1-2.56-1.3,5.39,5.39,0,0,1-.8-.92,5.21,5.21,0,0,1-.81-4l2.39-12.35a5.27,5.27,0,0,1,6.17-4.17l6.43,1.25a37.32,37.32,0,0,1,3.33-5l-3.66-5.42a5.26,5.26,0,0,1,1.41-7.31l10.43-7a5.21,5.21,0,0,1,3.95-.81,5.26,5.26,0,0,1,3.36,2.22l3.66,5.43a36.57,36.57,0,0,1,5.92-1.21l1.25-6.43a5.27,5.27,0,0,1,6.17-4.17L203,53.9a5.28,5.28,0,0,1,4.17,6.17l-1.24,6.43a37.94,37.94,0,0,1,5,3.34l5.43-3.67a5.28,5.28,0,0,1,7.31,1.42l7,10.42a5.41,5.41,0,0,1,.8,3.95,5.16,5.16,0,0,1-2.22,3.36L223.91,89a37.22,37.22,0,0,1,1.21,5.92l6.42,1.25a5.27,5.27,0,0,1,4.17,6.16l-2.39,12.36a5.27,5.27,0,0,1-6.17,4.17l-6.43-1.25a36.32,36.32,0,0,1-3.33,5l3.66,5.43a5.27,5.27,0,0,1-1.41,7.31l-10.43,7A5.27,5.27,0,0,1,201.9,141l-3.66-5.43a37.57,37.57,0,0,1-5.93,1.21l-1.24,6.43a5.28,5.28,0,0,1-5.17,4.26,4.85,4.85,0,0,1-1-.1L172.55,145a5.18,5.18,0,0,1-3.37-2.22,5.26,5.26,0,0,1-.8-4l1.24-6.42a37.94,37.94,0,0,1-5-3.34l-5.42,3.67a5.29,5.29,0,0,1-7.32-1.42l-7-10.42a5.29,5.29,0,0,1,1.42-7.32l5.42-3.66a38.12,38.12,0,0,1-1.21-5.92Zm7.37-2.64a3.73,3.73,0,0,1,3,3.26,33.9,33.9,0,0,0,1.15,5.58,3.75,3.75,0,0,1-1.49,4.18l-5.58,3.77a1.3,1.3,0,0,0-.54.81,1.28,1.28,0,0,0,.2,1l7,10.42a1.27,1.27,0,0,0,1.76.34l5.58-3.77a3.72,3.72,0,0,1,2.09-.64,3.81,3.81,0,0,1,2.34.82,33.72,33.72,0,0,0,4.75,3.15,3.73,3.73,0,0,1,1.91,4l-1.28,6.61a1.22,1.22,0,0,0,.19.95,1.27,1.27,0,0,0,.81.54l12.35,2.39a1.27,1.27,0,0,0,1.48-1l1.28-6.61a3.74,3.74,0,0,1,3.26-3,33.07,33.07,0,0,0,5.58-1.14,3.74,3.74,0,0,1,4.18,1.48l3.77,5.59a1.29,1.29,0,0,0,1.77.34l10.42-7a1.27,1.27,0,0,0,.34-1.76L214,124.72a3.76,3.76,0,0,1,.19-4.43,33.66,33.66,0,0,0,3.14-4.75,3.72,3.72,0,0,1,4-1.9l6.62,1.28a1.33,1.33,0,0,0,1-.19,1.25,1.25,0,0,0,.53-.81l2.4-12.36a1.27,1.27,0,0,0-1-1.48l-6.62-1.28a3.76,3.76,0,0,1-3-3.26A33,33,0,0,0,220,90a3.73,3.73,0,0,1,1.47-4.18L227.09,82a1.3,1.3,0,0,0,.54-.81,1.28,1.28,0,0,0-.2-1l-7-10.42a1.3,1.3,0,0,0-.81-.54,1.28,1.28,0,0,0-1,.2l-5.58,3.77a3.76,3.76,0,0,1-4.43-.18,33.43,33.43,0,0,0-4.75-3.15,3.73,3.73,0,0,1-1.91-4l1.29-6.62a1.27,1.27,0,0,0-1-1.48l-12.35-2.39a1.27,1.27,0,0,0-.95.19,1.25,1.25,0,0,0-.53.81h0l-1.29,6.62a3.72,3.72,0,0,1-3.25,3,33.27,33.27,0,0,0-5.58,1.14,3.75,3.75,0,0,1-4.18-1.48l-3.78-5.59a1.26,1.26,0,0,0-1.75-.34l-10.43,7a1.25,1.25,0,0,0-.53.81,1.23,1.23,0,0,0,.19,1l3.77,5.59a3.73,3.73,0,0,1-.18,4.43,32.53,32.53,0,0,0-3.14,4.75,3.73,3.73,0,0,1-4,1.9L147.64,84a1.26,1.26,0,0,0-1.48,1l-2.39,12.35a1.26,1.26,0,0,0,1,1.48Zm13.73-5a23.09,23.09,0,1,1,22.67,27.47,22.66,22.66,0,0,1-4.39-.42A23.11,23.11,0,0,1,165.11,95.06Zm19,23.12a19.08,19.08,0,0,0,19.44-29.41,18.89,18.89,0,0,0-10.12-7.52,17.45,17.45,0,0,0-2.07-.54,19.49,19.49,0,0,0-3.63-.35A19.13,19.13,0,0,0,174.22,86,18.91,18.91,0,0,0,169,95.82,19.1,19.1,0,0,0,184.15,118.18Zm93.52-19.86.57-6.33.17-1.92a6,6,0,0,1,6.52-5.45h0L300.31,86a6,6,0,0,1,5.45,6.52l-.73,8.25c0,.06.05.11.11.14a45.19,45.19,0,0,1,6.86,3.58.17.17,0,0,0,.19,0l6.34-5.3a6,6,0,0,1,8.47.75l9.9,11.85a6,6,0,0,1-.75,8.46l-6.35,5.31c-.05,0,0,.12,0,.18a45.57,45.57,0,0,1,2.32,7.39.16.16,0,0,0,.12.14l8.24.73a6,6,0,0,1,5.45,6.52l-1.16,13.09-.21,2.29a6,6,0,0,1-6.52,5.45l-8.24-.73c-.07,0-.12,0-.14.11a45.24,45.24,0,0,1-3.59,6.86.19.19,0,0,0,0,.19l5.31,6.34a6,6,0,0,1-.75,8.47l-11.85,9.9a6,6,0,0,1-8.46-.75L305,185.39s-.12,0-.18,0a45.57,45.57,0,0,1-7.39,2.32.15.15,0,0,0-.14.12l-.73,8.24a6,6,0,0,1-6,5.48l-.53,0-15.39-1.37a6,6,0,0,1-5.45-6.52l.74-8.24c0-.06-.05-.12-.12-.14a46.12,46.12,0,0,1-6.86-3.59.17.17,0,0,0-.18,0l-6.35,5.31a6,6,0,0,1-8.46-.75L238,174.34a6,6,0,0,1,.75-8.46l6.35-5.31a.15.15,0,0,0,0-.18,45,45,0,0,1-2.31-7.4.18.18,0,0,0-.12-.13l-8.25-.73a6,6,0,0,1-5.45-6.52l1.37-15.38a6,6,0,0,1,6.52-5.46l8.24.74c.05,0,.12-.05.15-.11a45.72,45.72,0,0,1,3.58-6.87.14.14,0,0,0,0-.18L243.6,112a6,6,0,0,1,.75-8.46l11.85-9.91a6,6,0,0,1,8.46.76l5.31,6.34a.15.15,0,0,0,.18,0,44.87,44.87,0,0,1,7.39-2.31C277.6,98.42,277.67,98.38,277.67,98.32Zm.74,4a41.58,41.58,0,0,0-6.75,2.12,4.15,4.15,0,0,1-4.76-1.16L261.59,97a2,2,0,0,0-1.36-.71,2,2,0,0,0-1.47.46l-11.84,9.91a2,2,0,0,0-.72,1.36,2,2,0,0,0,.46,1.47l5.31,6.34a4.15,4.15,0,0,1,.3,4.9,40.5,40.5,0,0,0-3.27,6.26,4.15,4.15,0,0,1-4.19,2.55l-8.24-.73a2,2,0,0,0-2.18,1.82L233,146a2,2,0,0,0,1.82,2.18l8.24.74a4.11,4.11,0,0,1,3.67,3.25,42.11,42.11,0,0,0,2.11,6.74,4.12,4.12,0,0,1-1.15,4.76l-6.35,5.31a2,2,0,0,0-.71,1.37,2,2,0,0,0,.46,1.46L251,183.62a2,2,0,0,0,2.83.25l6.34-5.31a4.17,4.17,0,0,1,4.9-.29,41.35,41.35,0,0,0,6.26,3.27,4.12,4.12,0,0,1,2.55,4.18l-.73,8.25a2,2,0,0,0,1.82,2.18l15.38,1.37a2,2,0,0,0,2.18-1.82l.74-8.25a4.13,4.13,0,0,1,3.25-3.67,41.8,41.8,0,0,0,6.74-2.11,4.14,4.14,0,0,1,4.77,1.16l5.3,6.34a2,2,0,0,0,1.37.72,2,2,0,0,0,1.46-.46L328,179.52a2,2,0,0,0,.25-2.83L323,170.34a4.13,4.13,0,0,1-.29-4.89,42.82,42.82,0,0,0,3.27-6.26,4.15,4.15,0,0,1,4.19-2.56l8.24.74a2,2,0,0,0,2.18-1.83l1.37-15.38a2,2,0,0,0-1.82-2.18l-8.25-.73a4.14,4.14,0,0,1-3.67-3.26,42.11,42.11,0,0,0-2.11-6.74,4.13,4.13,0,0,1,1.16-4.76l6.34-5.31a1.93,1.93,0,0,0,.71-1.36,2,2,0,0,0-.45-1.47l-9.91-11.84a2,2,0,0,0-2.83-.26l-6.35,5.31a4.13,4.13,0,0,1-4.89.3,41.43,41.43,0,0,0-6.26-3.27A4.15,4.15,0,0,1,301,100.4l.74-8.24A2,2,0,0,0,300,90l-15.39-1.37a2,2,0,0,0-2.18,1.82l-.73,8.24A4.13,4.13,0,0,1,278.41,102.34Zm-9,19.09a28.19,28.19,0,1,1-3.54,39.73A28.23,28.23,0,0,1,269.38,121.43ZM272,124.5a24.2,24.2,0,1,0,34.09,3A24.23,24.23,0,0,0,272,124.5Zm-17.8-41a4.91,4.91,0,0,1-1.43-.35c-.09,0-.19,0-.28-.1-2.28-1.1-3.76-3.81-3.76-6.89V54.81L210,27.63a2,2,0,0,1,.58-3.56l80.76-24a2,2,0,0,1,1.14,0l80.76,24a2,2,0,0,1,.58,3.56L357.44,39.11a2,2,0,0,1,.12.64V72.23L370.1,96.65a2,2,0,0,1-1.78,2.91H342.8A2,2,0,0,1,341,96.65l12.54-24.42V41.83l-18.48,13V76.2c0,3.08-1.47,5.79-3.76,6.89a5,5,0,0,1-5.4-.66c-6.3-5-18.39-7.73-34-7.73s-27.73,2.74-34,7.73a5.2,5.2,0,0,1-3.23,1.17A3.62,3.62,0,0,1,254.15,83.54ZM215.66,26.73,249,50.15c2.55-10.87,20.46-19,42.87-19s40.33,8.16,42.88,19l33.35-23.42L291.88,4.09ZM329.58,79.49a3.62,3.62,0,0,0,1.5-3.29V52.82c0-9.6-17.95-17.7-39.2-17.7s-39.2,8.1-39.2,17.7V76.2a3.62,3.62,0,0,0,1.5,3.29,1,1,0,0,0,1.18-.2c9-7.1,24.82-8.59,36.52-8.59s27.54,1.49,36.52,8.59A1,1,0,0,0,329.58,79.49Zm35.47,16.07-9.49-18.47-9.49,18.47Zm-223.3,238H21.93A22,22,0,0,1,0,311.47V196.31a22.11,22.11,0,0,1,13.46-20.37v-5.17a7.63,7.63,0,1,1,15.26,0v3.46H54v-3.46a7.63,7.63,0,1,1,15.26,0v3.46H94.43v-3.46a7.63,7.63,0,1,1,15.26,0v3.46h25.23v-3.46a7.63,7.63,0,1,1,15.26,0v5.16a22.11,22.11,0,0,1,13.49,20.38V311.47A22,22,0,0,1,141.75,333.55ZM17.46,170.77v20a3.63,3.63,0,0,0,7.26,0v-20a3.63,3.63,0,1,0-7.26,0Zm-4,20V180.37A18.14,18.14,0,0,0,4,196.31v11.33H159.67V196.31a18.12,18.12,0,0,0-9.49-15.95v10.4a7.63,7.63,0,1,1-15.26,0V178.23H109.69v12.53a7.63,7.63,0,0,1-15.26,0V178.23H69.21v12.53a7.63,7.63,0,0,1-15.26,0V178.23H28.72v12.53a7.63,7.63,0,0,1-15.26,0Zm44.49-20v20a3.63,3.63,0,0,0,7.26,0v-20a3.63,3.63,0,1,0-7.26,0Zm40.48,0v20a3.63,3.63,0,0,0,7.26,0v-20a3.63,3.63,0,1,0-7.26,0Zm40.49,0v20a3.63,3.63,0,1,0,7.26,0v-20a3.63,3.63,0,1,0-7.26,0ZM4,311.47a18,18,0,0,0,17.93,18.08H141.75a18,18,0,0,0,17.92-18.08V211.64H4Zm9.83-53.19V230.53A4.51,4.51,0,0,1,18.34,226H46.08a4.51,4.51,0,0,1,4.52,4.51v27.75a4.51,4.51,0,0,1-4.52,4.51H18.34A4.51,4.51,0,0,1,13.83,258.28Zm4,0a.52.52,0,0,0,.52.51H46.08a.51.51,0,0,0,.52-.51V230.53a.51.51,0,0,0-.52-.51H18.34a.52.52,0,0,0-.52.51Zm45.2,0V230.53A4.51,4.51,0,0,1,67.53,226H95.28a4.51,4.51,0,0,1,4.51,4.51v27.75a4.51,4.51,0,0,1-4.51,4.51H67.53A4.51,4.51,0,0,1,63,258.28Zm4,0a.51.51,0,0,0,.51.51H95.28a.51.51,0,0,0,.51-.51V230.53a.51.51,0,0,0-.51-.51H67.53a.51.51,0,0,0-.51.51Zm45.19,0V230.53a4.51,4.51,0,0,1,4.51-4.51h27.75a4.51,4.51,0,0,1,4.51,4.51v27.75a4.51,4.51,0,0,1-4.51,4.51H116.72A4.51,4.51,0,0,1,112.21,258.28Zm4,0a.51.51,0,0,0,.51.51h27.75a.51.51,0,0,0,.51-.51V230.53a.51.51,0,0,0-.51-.51H116.72a.51.51,0,0,0-.51.51ZM13.83,308.77V281a4.52,4.52,0,0,1,4.51-4.52H46.08A4.52,4.52,0,0,1,50.6,281v27.74a4.52,4.52,0,0,1-4.52,4.52H18.34A4.52,4.52,0,0,1,13.83,308.77Zm4,0a.52.52,0,0,0,.52.52H46.08a.52.52,0,0,0,.52-.52V281a.52.52,0,0,0-.52-.52H18.34a.52.52,0,0,0-.52.52Zm45.2,0V281a4.52,4.52,0,0,1,4.51-4.52H95.28A4.52,4.52,0,0,1,99.79,281v27.74a4.52,4.52,0,0,1-4.51,4.52H67.53A4.52,4.52,0,0,1,63,308.77Zm4,0a.51.51,0,0,0,.51.52H95.28a.51.51,0,0,0,.51-.52V281a.51.51,0,0,0-.51-.52H67.53A.51.51,0,0,0,67,281Zm45.19,0V281a4.52,4.52,0,0,1,4.51-4.52h27.75A4.52,4.52,0,0,1,149,281v27.74a4.52,4.52,0,0,1-4.51,4.52H116.72A4.52,4.52,0,0,1,112.21,308.77Zm4,0a.51.51,0,0,0,.51.52h27.75a.51.51,0,0,0,.51-.52V281a.51.51,0,0,0-.51-.52H116.72a.51.51,0,0,0-.51.52Zm307.52,19.87v24.24a2,2,0,0,1-4,0h0V328.64c0-17.21-13.12-31.86-29.61-33.52a11.81,11.81,0,0,1-23.18,0c-16.33,1.63-29.39,16.29-29.39,33.52v16c.62.29,1.22.6,1.8.92a20.35,20.35,0,0,1,2.63-7.46l2.29-3.89a7.89,7.89,0,0,1,7.38-3.82l3,.24,8.22-14.27a5.9,5.9,0,0,1,10.2,5.92l-3.19,5.5a5.73,5.73,0,0,1,1.8.65,5.82,5.82,0,0,1,2.61,3.26,5.8,5.8,0,0,1,6.74,3.92,5.83,5.83,0,0,1,4.12.65,5.9,5.9,0,0,1,2.13,8.06l-4.84,8.33v0l0,0-.09.15-3.84,6.2a20.66,20.66,0,0,1-8.24,7.81V371h2.57a2,2,0,0,1,2,2v23.43c0,12.66-9.66,22.95-21.52,22.95a21.13,21.13,0,0,1-17.56-9.7v7.65a2,2,0,0,1-4,0V374.2l0-1.25a2,2,0,0,1,2-1.93h0a2,2,0,0,1,2,2v23.43c0,10.45,7.86,19,17.52,19s17.52-8.51,17.52-19V375h-1.1a2,2,0,0,1-1.45.65l-18.37.12h0a2,2,0,0,1-1.41-.58,1.46,1.46,0,0,1-.16-.19h-1.56v18.76a2,2,0,0,1-4,0V373h0a2,2,0,0,1,.56-1.32h.07a1.36,1.36,0,0,1,.36-.27,2,2,0,0,1,1-.28l3.16,0v-5.62a20.7,20.7,0,0,1-8.66-15.19c-5.8-3.71-15.18-6.5-22.89-6.87a13.3,13.3,0,0,1-26.11.16,48.61,48.61,0,0,0-20.72,6.26,20.7,20.7,0,0,1-8.69,15.64V371h2.05a2,2,0,0,1,1.43.6,2,2,0,0,1,.57,1.41h0v20.76a2,2,0,0,1-2,2,2,2,0,0,1-1.44-.6c-.72-.74-.95-1-.6-20.15h-.44a1.46,1.46,0,0,1-.16.19,2,2,0,0,1-1.41.58h0l-18.36-.12A2,2,0,0,1,239,375H236.8v21.43c0,10.45,7.86,19,17.52,19,9.17,0,16.71-7.66,17.46-17.38l.06-25.11a2,2,0,0,1,2.05-1.9,2,2,0,0,1,1.95,2v23.43c0,.58,0,1.17-.06,1.74v19.16a2,2,0,0,1-4,0v-7.5a21.1,21.1,0,0,1-17.46,9.55c-11.87,0-21.52-10.29-21.52-22.95V373a2,2,0,0,1,2-2h3.65v-4.13c-.44-.23-.88-.48-1.3-.74a20.51,20.51,0,0,1-7-7.11l-3.82-6.16-.09-.15,0,0v0l-4.84-8.33a5.9,5.9,0,0,1,2.13-8.06,5.84,5.84,0,0,1,4.12-.65,5.86,5.86,0,0,1,2.61-3.26,5.79,5.79,0,0,1,4.12-.66,5.88,5.88,0,0,1,2.62-3.26,5.82,5.82,0,0,1,1.8-.66l-3.19-5.49a5.9,5.9,0,0,1,10.2-5.92L254,330.66l3-.24a7.91,7.91,0,0,1,7.38,3.82l2.29,3.89a20.47,20.47,0,0,1,2.48,6.64V328.64c0-17.21-13.12-31.86-29.61-33.52a11.81,11.81,0,0,1-23.18,0C200.07,296.75,187,311.41,187,328.64v24.24h0a2,2,0,0,1-4,0V328.64c0-19.31,14.71-35.73,33.17-37.51v-8.64A21.84,21.84,0,0,1,204.05,264a11.19,11.19,0,0,1-9-10.92,11,11,0,0,1,2.14-6.52V230.63a20.06,20.06,0,0,1,20-20h32.27a2,2,0,0,1,2,2,12.78,12.78,0,0,1-.71,4.21c4.87,2.44,7.9,7.63,7.9,13.78v15.75A11.11,11.11,0,0,1,251.8,264a21.88,21.88,0,0,1-12,18.41v8.7c18.62,1.82,33.39,18.22,33.39,37.51v14.79a52.26,52.26,0,0,1,16.76-4V328.69a24.89,24.89,0,0,1-14-21.38A12.58,12.58,0,0,1,265.58,295a12.44,12.44,0,0,1,2.46-7.41V269.13a22.82,22.82,0,0,1,22.79-22.78H328a2,2,0,0,1,2,2,14.17,14.17,0,0,1-.89,5c5.71,2.64,9.17,8.5,9.17,15.75v18.25a12.49,12.49,0,0,1-7.9,20,24.46,24.46,0,0,1-2.34,9.55,25,25,0,0,1-11,11.48l-.52.25V339.3a58.25,58.25,0,0,1,17,3.66V328.64c0-19.31,14.71-35.73,33.17-37.51v-8.64a22,22,0,0,1-11.38-13.85,21.7,21.7,0,0,1-.75-4.65,11.19,11.19,0,0,1-9-10.92,11,11,0,0,1,2.13-6.52V230.63a20.12,20.12,0,0,1,20-20H400a2,2,0,0,1,2,2,12.78,12.78,0,0,1-.71,4.21c4.86,2.44,7.89,7.63,7.89,13.78v15.75a11,11,0,0,1,2.29,6.74A11.14,11.14,0,0,1,402.34,264a21.88,21.88,0,0,1-12,18.41v8.7C409,293,423.73,309.35,423.73,328.64Zm-45.2-28a7.81,7.81,0,0,0,7.81-7.81V284a21.87,21.87,0,0,1-5.82.8h-4.11a21.82,21.82,0,0,1-5.69-.77v8.87A7.81,7.81,0,0,0,378.53,300.68Zm-20-38.49v.74a17.86,17.86,0,0,0,17.85,17.84h4.11a17.86,17.86,0,0,0,17.85-17.84v-.74a2,2,0,0,1,2-2,7.13,7.13,0,0,0,0-14.25,2,2,0,0,1-2-2v-2.42a16.18,16.18,0,0,0-16.16-16.16h-7.49a16.18,16.18,0,0,0-16.16,16.16V244a2,2,0,0,1-2,2,7.12,7.12,0,0,0,0,14.24A2,2,0,0,1,358.56,262.19Zm46.65-31.61c0-4.71-2.19-8.51-5.8-10.26a12.89,12.89,0,0,1-6.12,4.38,20.14,20.14,0,0,1,9.08,16.82v.6a11,11,0,0,1,2.84.93Zm-7.42-16H367.74a16.06,16.06,0,0,0-16,16v12.51a11.4,11.4,0,0,1,2.86-1v-.63a20.18,20.18,0,0,1,20.16-20.16h14.52A8.8,8.8,0,0,0,397.79,214.59ZM312.57,340.85V330.2a25,25,0,0,1-7,1h-4.75a25.1,25.1,0,0,1-6.86-1v10.61a9.31,9.31,0,0,0,18.62,0ZM280,305.49v.86a20.89,20.89,0,0,0,20.86,20.87h4.75a20.89,20.89,0,0,0,20.86-20.87v-.85a2,2,0,0,1,2-2,8.52,8.52,0,1,0,0-17,2,2,0,0,1-2-2v-2.8a18.94,18.94,0,0,0-18.92-18.92h-8.63A18.94,18.94,0,0,0,280,281.67v2.8a2,2,0,0,1-2,2,8.51,8.51,0,0,0,0,17A2,2,0,0,1,280,305.49ZM272,269.13v14.93a12.35,12.35,0,0,1,3.91-1.4v-1a22.94,22.94,0,0,1,22.92-22.92h8.63l.36,0h7.74a10.45,10.45,0,0,0,10.23-8.42h-35A18.8,18.8,0,0,0,272,269.13Zm62.26-.06c0-5.8-2.61-10.27-7.06-12.22a14.47,14.47,0,0,1-7.71,5.35,22.89,22.89,0,0,1,10.89,19.47v1A12.2,12.2,0,0,1,334.3,284Zm-98.5,23.8V284a21.87,21.87,0,0,1-5.82.8h-4.12a21.69,21.69,0,0,1-5.68-.77v8.87a7.81,7.81,0,0,0,15.62,0ZM208,262.19v.74a17.86,17.86,0,0,0,17.84,17.84H230a17.86,17.86,0,0,0,17.85-17.84v-.74a2,2,0,0,1,2-2,7.13,7.13,0,1,0,0-14.25,2,2,0,0,1-2-2v-2.42a16.18,16.18,0,0,0-16.16-16.16h-7.49A16.18,16.18,0,0,0,208,241.52V244a2,2,0,0,1-2,2,7.12,7.12,0,0,0,0,14.24A2,2,0,0,1,208,262.19Zm-6.86-31.56v12.51a11.13,11.13,0,0,1,2.86-1v-.63a20.18,20.18,0,0,1,20.16-20.16h14.51a8.78,8.78,0,0,0,8.55-6.78h-30A16.06,16.06,0,0,0,201.16,230.63Zm53.5,0c0-4.71-2.18-8.51-5.79-10.26a12.89,12.89,0,0,1-6.12,4.38,20.13,20.13,0,0,1,9.07,16.82v.6a10.88,10.88,0,0,1,2.84.93Zm8.6,109.58L261,336.27a3.87,3.87,0,0,0-3.62-1.86l-9.59.74a2,2,0,1,0,.35,4l8.38-.82a2,2,0,1,1,.39,4l-5.14.5a5.87,5.87,0,0,1-5.75,7,6,6,0,0,1-2.05-.37,5.82,5.82,0,0,1-2.32,2.48h0a5.84,5.84,0,0,1-3,.8,6,6,0,0,1-2-.37,5.8,5.8,0,0,1-4,3.12l.94,1.53a16.85,16.85,0,0,0,7.66,6.84,2,2,0,0,1,1.18,1.82v6l14.36.1V364.3a2,2,0,0,1,.93-1.69A16.58,16.58,0,0,0,263.26,340.16Zm-38.4,2.18,4.85,8.33a1.89,1.89,0,1,0,3.27-1.91l-4.84-8.32a1.89,1.89,0,0,0-1.64-.95,1.94,1.94,0,0,0-.95.26A1.91,1.91,0,0,0,224.86,342.34Zm6.74-3.91,5.42,9.33a1.9,1.9,0,0,0,3.28-1.9l-5.43-9.34a1.89,1.89,0,0,0-1.64-.94,1.84,1.84,0,0,0-.95.26A1.89,1.89,0,0,0,231.6,338.43Zm6.73-3.92,6,10.34a1.89,1.89,0,0,0,3.34-1.77,6,6,0,0,1-5.76-5.44,5.74,5.74,0,0,1,.7-3.31l-1-1.72a1.9,1.9,0,0,0-2.59-.69,1.86,1.86,0,0,0-.88,1.15A1.91,1.91,0,0,0,238.33,334.51Zm.75-14.21L245,330.49a.76.76,0,0,0,.08.11l.6,1a5.76,5.76,0,0,1,1.77-.45l2.18-.17-7.27-12.61a1.9,1.9,0,0,0-2.58-.68,1.9,1.9,0,0,0-.69,2.59ZM351,362.61a2,2,0,0,1,.93,1.69v7.48l14.36-.1v-6a2,2,0,0,1,1.18-1.82,16.8,16.8,0,0,0,7.64-6.81l1-1.56a5.8,5.8,0,0,1-4-3.14,5.55,5.55,0,0,1-.52.2,6.15,6.15,0,0,1-1.52.19,5.9,5.9,0,0,1-5.27-3.28,6,6,0,0,1-2.05.37,5.87,5.87,0,0,1-5.75-7l-5.14-.5a2,2,0,1,1,.39-4l8.4.82a2,2,0,1,0,.31-4l-9.57-.74a3.88,3.88,0,0,0-3.62,1.86l-2.3,3.89A16.59,16.59,0,0,0,351,362.61Zm15.38-44.21L359.07,331l2.17.17a5.9,5.9,0,0,1,1.78.45l.61-1a.86.86,0,0,1,.07-.1l5.91-10.19a1.9,1.9,0,1,0-3.28-1.9Zm.75,14.21-1,1.72a5.83,5.83,0,0,1,.71,3.31,6,6,0,0,1-5.77,5.44,1.89,1.89,0,0,0,3.34,1.77l6-10.34a1.91,1.91,0,0,0,.19-1.44,1.86,1.86,0,0,0-.88-1.15A1.9,1.9,0,0,0,367.08,332.61Zm8.38,3a2,2,0,0,0-.49.06,1.86,1.86,0,0,0-1.15.88l-5.43,9.34a1.9,1.9,0,0,0,.69,2.59,1.88,1.88,0,0,0,1.43.19,1.9,1.9,0,0,0,1.16-.88l.57-1h0l4.84-8.33h0a1.9,1.9,0,0,0-.68-2.58A1.91,1.91,0,0,0,375.46,335.58Zm5.09,4.86-4.84,8.33a1.89,1.89,0,1,0,3.27,1.9l4.85-8.33a1.91,1.91,0,0,0-.69-2.59,1.94,1.94,0,0,0-.95-.26A1.89,1.89,0,0,0,380.55,340.44Zm-57.14,37.85a5.47,5.47,0,0,1-1.38,5.65l-4.53,4.42a1.53,1.53,0,0,0-.43,1.33l1.08,6.24a5.5,5.5,0,0,1-8,5.82l-5.61-2.94a1.49,1.49,0,0,0-1.39,0l-5.61,3a5.47,5.47,0,0,1-2.57.64,5.51,5.51,0,0,1-5.42-6.43l1.06-6.24a1.52,1.52,0,0,0-.43-1.33L285.66,384a5.5,5.5,0,0,1,3-9.39l6.26-.92a1.52,1.52,0,0,0,1.13-.83l2.8-5.68a5.48,5.48,0,0,1,4.92-3.08h0a5.47,5.47,0,0,1,4.93,3.06l2.81,5.68a1.52,1.52,0,0,0,1.13.82h0l6.26.9A5.46,5.46,0,0,1,323.41,378.29Zm-9.79,19.8a1.49,1.49,0,0,0,.59-1.47l-1.08-6.24a5.5,5.5,0,0,1,1.58-4.88l4.52-4.42a1.5,1.5,0,0,0-.83-2.56l-6.27-.9a5.52,5.52,0,0,1-4.15-3l-2.81-5.67a1.48,1.48,0,0,0-1.35-.84h0a1.47,1.47,0,0,0-1.34.84l-2.8,5.69a5.48,5.48,0,0,1-4.13,3l-6.27.92a1.48,1.48,0,0,0-1.21,1,1.46,1.46,0,0,0,.38,1.54l4.54,4.41a5.51,5.51,0,0,1,1.6,4.87l-1.07,6.24a1.5,1.5,0,0,0,2.18,1.58l5.61-3a5.53,5.53,0,0,1,5.11,0L312,398.2A1.48,1.48,0,0,0,313.62,398.09Z"/></g></g></svg>