<svg xmlns="http://www.w3.org/2000/svg" width="42.579" height="43.874" viewBox="0 0 42.579 43.874">
  <g transform="translate(5635.153 -2126.93)">
    <path id="black-arrow-down" d="M17.483,40.279a1.5,1.5,0,0,1-1.441-1.036L7.61,16.452a1.518,1.518,0,0,1,1.44-2l25.084-1.2a1.518,1.518,0,0,1,1.086,2.575l-6.141,6.322a.546.546,0,0,0,.05.807l10.7,7.962a1.526,1.526,0,0,1,.256,2.135l-4.795,6.6a1.517,1.517,0,0,1-2.127.256L22.514,32.163a.562.562,0,0,0-.352-.129.545.545,0,0,0-.51.345l-2.759,6.942a1.49,1.49,0,0,1-1.41.957" transform="matrix(-0.588, -0.809, 0.809, -0.588, -5621.433, 2183.99)"/>
    <path id="black-arrow-down_-_Outline" data-name="black-arrow-down - Outline" d="M17.483,40.779a1.991,1.991,0,0,1-1.912-1.37L7.135,16.61a2.018,2.018,0,0,1,1.9-2.657l25.086-1.2h.012a2.018,2.018,0,0,1,1.444,3.424L29.438,22.5a.042.042,0,0,0-.014.036.038.038,0,0,0,.013.029l10.7,7.966a2.033,2.033,0,0,1,.342,2.826l-4.8,6.608a2.017,2.017,0,0,1-2.82.346L22.207,32.558a.112.112,0,0,0-.046-.024.046.046,0,0,0-.045.029l-2.759,6.943A1.982,1.982,0,0,1,17.483,40.779Zm-9.4-24.492,8.435,22.8a1.018,1.018,0,0,0,1.912.053l2.759-6.942a1.042,1.042,0,0,1,.975-.66,1.069,1.069,0,0,1,.652.228l10.654,7.758a1.017,1.017,0,0,0,1.42-.165l4.8-6.606a1.03,1.03,0,0,0-.17-1.43l-10.7-7.967a1.046,1.046,0,0,1-.1-1.546l6.141-6.322a1.018,1.018,0,0,0-.717-1.727l-25.095,1.2a1.018,1.018,0,0,0-.968,1.334Z" transform="matrix(-0.588, -0.809, 0.809, -0.588, -5621.433, 2183.99)" fill="#fff"/>
  </g>
</svg>
