<svg xmlns="http://www.w3.org/2000/svg" width="33.47" height="28.073" viewBox="0 0 33.47 28.073">
  <g transform="translate(5568.74 -2100.682)">
    <path id="black-arrow" d="M17.483,40.279a1.5,1.5,0,0,1-1.441-1.036L8.011,15.205a1.518,1.518,0,0,1,1.44-2l24.682.051a1.518,1.518,0,0,1,1.086,2.575l-6.141,6.322a.546.546,0,0,0,.05.807l10.7,7.962a1.526,1.526,0,0,1,.256,2.135L35.11,39.366a1.517,1.517,0,0,1-2.127.256L22.514,32.163a.562.562,0,0,0-.352-.129.545.545,0,0,0-.51.345l-2.759,6.942a1.49,1.49,0,0,1-1.41.957" transform="translate(-5576.171 2087.976)"/>
    <path id="black-arrow_-_Outline" data-name="black-arrow - Outline" d="M17.483,40.779A1.992,1.992,0,0,1,15.568,39.4L7.537,15.364a2.018,2.018,0,0,1,1.914-2.658l24.684.051a2.018,2.018,0,0,1,1.443,3.424L29.438,22.5a.042.042,0,0,0-.014.036.038.038,0,0,0,.013.029l10.7,7.966a2.033,2.033,0,0,1,.335,2.834L35.5,39.676a2.017,2.017,0,0,1-2.818.348L22.207,32.558a.112.112,0,0,0-.046-.024.046.046,0,0,0-.045.029l-2.759,6.943A1.982,1.982,0,0,1,17.483,40.779ZM9.45,13.706a1.018,1.018,0,0,0-.964,1.341l8.031,24.037a1.018,1.018,0,0,0,1.912.053l2.759-6.942a1.042,1.042,0,0,1,.975-.66,1.068,1.068,0,0,1,.649.227l10.48,7.468a1.017,1.017,0,0,0,1.426-.172l4.971-6.307a1.03,1.03,0,0,0-.17-1.43l-10.7-7.967a1.046,1.046,0,0,1-.1-1.546l6.141-6.322a1.018,1.018,0,0,0-.728-1.727Z" transform="translate(-5576.171 2087.976)" fill="#fff"/>
  </g>
</svg>
