<svg id="check-circle" xmlns="http://www.w3.org/2000/svg" xmlns:xlink="http://www.w3.org/1999/xlink" width="51" height="50" viewBox="0 0 51 50">
  <defs>
    <clipPath id="clip-path">
      <path id="icon_check-circle" data-name="icon / check-circle" d="M24.391,50A23.949,23.949,0,0,1,7.123,42.7,25.171,25.171,0,0,1,0,25,25.171,25.171,0,0,1,7.123,7.3,23.949,23.949,0,0,1,24.391,0a22.124,22.124,0,0,1,9.978,2.273,2.03,2.03,0,0,1,1.137,1.222,2.507,2.507,0,0,1-.027,1.734,2.106,2.106,0,0,1-2,1.309,2.326,2.326,0,0,1-.885-.174,20.4,20.4,0,0,0-8.2-1.818A20.233,20.233,0,0,0,4.434,25,20.233,20.233,0,0,0,24.391,45.455,20.233,20.233,0,0,0,44.347,25V22.955a2.218,2.218,0,1,1,4.434,0V25a25.171,25.171,0,0,1-7.123,17.7A23.949,23.949,0,0,1,24.391,50Zm0-18.18a2.365,2.365,0,0,1-1.553-.683l-6.651-6.818a2.243,2.243,0,0,1,0-3.183,2.11,2.11,0,0,1,3.105,0l5.1,5.228L47.231,2.954a2.108,2.108,0,0,1,3.1,0,2.234,2.234,0,0,1,0,3.183l-24.391,25A2.358,2.358,0,0,1,24.391,31.82Z" fill="#2eb40a"/>
    </clipPath>
  </defs>
  <g id="Group_173" data-name="Group 173" transform="translate(0 0)">
    <path id="icon_check-circle-2" data-name="icon / check-circle" d="M24.391,50A23.949,23.949,0,0,1,7.123,42.7,25.171,25.171,0,0,1,0,25,25.171,25.171,0,0,1,7.123,7.3,23.949,23.949,0,0,1,24.391,0a22.124,22.124,0,0,1,9.978,2.273,2.03,2.03,0,0,1,1.137,1.222,2.507,2.507,0,0,1-.027,1.734,2.106,2.106,0,0,1-2,1.309,2.326,2.326,0,0,1-.885-.174,20.4,20.4,0,0,0-8.2-1.818A20.233,20.233,0,0,0,4.434,25,20.233,20.233,0,0,0,24.391,45.455,20.233,20.233,0,0,0,44.347,25V22.955a2.218,2.218,0,1,1,4.434,0V25a25.171,25.171,0,0,1-7.123,17.7A23.949,23.949,0,0,1,24.391,50Zm0-18.18a2.365,2.365,0,0,1-1.553-.683l-6.651-6.818a2.243,2.243,0,0,1,0-3.183,2.11,2.11,0,0,1,3.105,0l5.1,5.228L47.231,2.954a2.108,2.108,0,0,1,3.1,0,2.234,2.234,0,0,1,0,3.183l-24.391,25A2.358,2.358,0,0,1,24.391,31.82Z" fill="#2eb40a"/>
  </g>
</svg>
