<svg xmlns="http://www.w3.org/2000/svg" xmlns:xlink="http://www.w3.org/1999/xlink" width="125.491" height="134.845" viewBox="0 0 125.491 134.845">
  <defs>
    <clipPath id="clip-path">
      <rect id="Rectangle_6312" data-name="Rectangle 6312" width="125.491" height="134.845"/>
    </clipPath>
    <clipPath id="clip-path-2">
      <rect id="Rectangle_6313" data-name="Rectangle 6313" width="59.914" height="48.618"/>
    </clipPath>
  </defs>
  <g id="ic-alcaldia" transform="translate(9471 1053)">
    <g id="Group_9050" data-name="Group 9050" transform="translate(-9471 -1053)">
      <path id="Path_32217" data-name="Path 32217" d="M60.363,138.381H56.277V114.13h4.086ZM41.4,114.13h4.086v58.8H41.4Z" transform="translate(-26.986 -74.397)" fill-rule="evenodd"/>
      <path id="Path_32218" data-name="Path 32218" d="M283.552,172.926h-4.086v-58.8h4.086Zm-18.965-58.8h4.086v24.254h-4.086Z" transform="translate(-172.473 -74.396)" fill-rule="evenodd"/>
      <g id="Group_9049" data-name="Group 9049">
        <g id="Group_9048" data-name="Group 9048" clip-path="url(#clip-path)">
          <path id="Path_32219" data-name="Path 32219" d="M112.756,277.148h16.436a3.886,3.886,0,0,1,3.88,3.88v8.716h-4.086v-8.51h-16.23Zm-87.794,12.6v-8.716a3.886,3.886,0,0,1,3.88-3.88H45.279v4.086H29.048v8.51Z" transform="translate(-16.272 -180.661)" fill-rule="evenodd"/>
          <path id="Path_32220" data-name="Path 32220" d="M92.72,307.461h28.589a4.189,4.189,0,0,1,4.182,4.182v6.174A4.189,4.189,0,0,1,121.309,322H85.546v-4.086h35.764a.1.1,0,0,0,.066-.03.094.094,0,0,0,.03-.066v-6.174a.1.1,0,0,0-.1-.1H92.72ZM39.945,322H4.182A4.189,4.189,0,0,1,0,317.818v-6.174a4.189,4.189,0,0,1,4.182-4.182H32.772v4.086H4.182a.1.1,0,0,0-.1.1v6.174a.094.094,0,0,0,.03.066.1.1,0,0,0,.066.03H39.945Z" transform="translate(0 -200.421)" fill-rule="evenodd"/>
          <path id="Path_32221" data-name="Path 32221" d="M146.7,150.7c.339,14.437.074,28.992-4.772,41.419-.015.038-.03.074-.047.11-4.961,12.634-14.562,22.925-32.82,28.432a2.031,2.031,0,0,1-1.2-.013c-18.291-5.528-27.885-15.855-32.827-28.529q-.022-.056-.041-.114c-4.819-12.438-5.07-27-4.728-41.428A2.037,2.037,0,0,1,72.07,148.6v0a61.234,61.234,0,0,0,18.822-5.4,60.366,60.366,0,0,0,16.18-10.858,2.038,2.038,0,0,1,2.881.072l.024.025a61.572,61.572,0,0,0,16.162,10.8,60.81,60.81,0,0,0,18.744,5.358,2.04,2.04,0,0,1,1.815,2.1m-8.571,39.934c4.407-11.3,4.8-24.748,4.536-38.207a65.529,65.529,0,0,1-18.232-5.485,66.292,66.292,0,0,1-15.944-10.36A65.415,65.415,0,0,1,92.6,146.906a66.056,66.056,0,0,1-18.31,5.523c-.267,13.426.127,26.838,4.5,38.121l.037.087c4.459,11.438,13.135,20.8,29.65,25.936,16.477-5.124,25.149-14.449,29.617-25.843.01-.031.022-.062.034-.093" transform="translate(-45.73 -85.904)" fill-rule="evenodd"/>
          <path id="Path_32224" data-name="Path 32224" d="M81.714,1.333l46.428,25.51a7.508,7.508,0,0,1,2.738,2.487,6.357,6.357,0,0,1,1.027,3.489v4.407a4.327,4.327,0,0,1-1.615,3.336,5.366,5.366,0,0,1-3.43,1.215H26.173a5.366,5.366,0,0,1-3.43-1.215,4.327,4.327,0,0,1-1.615-3.336V32.819a6.357,6.357,0,0,1,1.027-3.489,7.508,7.508,0,0,1,2.738-2.487L71.322,1.333a10.8,10.8,0,0,1,10.393,0M126.18,30.418,79.751,4.908a6.77,6.77,0,0,0-6.466,0L26.857,30.418a3.462,3.462,0,0,0-1.27,1.114,2.344,2.344,0,0,0-.373,1.287v4.407c0,.056.056.132.147.207a1.266,1.266,0,0,0,.812.257H126.863a1.267,1.267,0,0,0,.812-.257c.091-.076.147-.151.147-.207V32.819a2.339,2.339,0,0,0-.373-1.287,3.457,3.457,0,0,0-1.27-1.114" transform="translate(-13.772)" fill-rule="evenodd"/>
          <path id="Path_32225" data-name="Path 32225" d="M163.7,38.974a8.828,8.828,0,1,1-6.242,2.586,8.8,8.8,0,0,1,6.242-2.586m3.353,5.475a4.742,4.742,0,1,0,1.388,3.353,4.727,4.727,0,0,0-1.388-3.353" transform="translate(-100.956 -25.406)" fill-rule="evenodd"/>
        </g>
      </g>
    </g>
    <g id="Group_9053" data-name="Group 9053" transform="translate(-9436.882 -981.883)">
      <g id="Group_9052" data-name="Group 9052" transform="translate(0 0)" clip-path="url(#clip-path-2)">
        <path id="Path_32226" data-name="Path 32226" d="M45.287,54.207A1.006,1.006,0,0,1,44.282,53.2V29.551a1.005,1.005,0,1,1,2.011,0V53.2a1.006,1.006,0,0,1-1.005,1.005" transform="translate(-8.67 -5.589)"/>
        <path id="Path_32227" data-name="Path 32227" d="M50.84,14.595a6.607,6.607,0,0,1-6.6-6.6V6.6a6.6,6.6,0,1,1,13.2,0V8a6.607,6.607,0,0,1-6.6,6.6m0-12.584A4.594,4.594,0,0,0,46.252,6.6V8a4.589,4.589,0,1,0,9.178,0V6.6A4.594,4.594,0,0,0,50.84,2.011" transform="translate(-8.662 0)"/>
        <path id="Path_32228" data-name="Path 32228" d="M52.2,56.763A1.006,1.006,0,0,1,51.2,55.758V42.607a1.005,1.005,0,1,1,2.011,0v13.15A1.006,1.006,0,0,1,52.2,56.763" transform="translate(-10.024 -8.145)"/>
        <path id="Path_32229" data-name="Path 32229" d="M55.21,50.306A1.006,1.006,0,0,1,54.2,49.3V25.4a3.816,3.816,0,0,1,1.115-2.684l9.63-9.6a1.451,1.451,0,0,0,0-2.056,1.457,1.457,0,0,0-2.058,0L55.648,18.3a4.361,4.361,0,0,1-3.105,1.286H46.03a5.862,5.862,0,0,0-5.855,5.855v8.7a1.455,1.455,0,1,0,2.91,0,1.005,1.005,0,1,1,2.011,0,3.465,3.465,0,1,1-6.931,0v-8.7a7.875,7.875,0,0,1,7.866-7.866h6.512a2.4,2.4,0,0,0,1.683-.7l7.243-7.243a3.466,3.466,0,1,1,4.9,4.9l-9.631,9.6a1.792,1.792,0,0,0-.524,1.26V49.3a1.006,1.006,0,0,1-1.005,1.005" transform="translate(-7.472 -1.688)"/>
        <path id="Path_32230" data-name="Path 32230" d="M60.461,59.965H39.449a1.005,1.005,0,0,1,0-2.011H60.461a1.005,1.005,0,1,1,0,2.011" transform="translate(-7.527 -11.347)"/>
        <path id="Path_32231" data-name="Path 32231" d="M10.163,30.92a5.4,5.4,0,0,1-5.395-5.395v-1.1a5.395,5.395,0,1,1,10.789,0v1.1a5.4,5.4,0,0,1-5.395,5.395m0-9.874A3.388,3.388,0,0,0,6.779,24.43v1.1a3.384,3.384,0,1,0,6.768,0v-1.1a3.388,3.388,0,0,0-3.384-3.384" transform="translate(-0.934 -3.727)"/>
        <path id="Path_32232" data-name="Path 32232" d="M20.628,31.824a1.006,1.006,0,0,1-1.005-1.005,6.4,6.4,0,0,1,6.388-6.388h6.348a1.005,1.005,0,1,1,0,2.011H26.011a4.383,4.383,0,0,0-4.377,4.377,1.006,1.006,0,0,1-1.005,1.005" transform="translate(-3.842 -4.783)"/>
        <path id="Path_32233" data-name="Path 32233" d="M29.786,20.412a5.4,5.4,0,0,1-5.395-5.395v-1.1a5.395,5.395,0,0,1,10.789,0v1.1a5.4,5.4,0,0,1-5.395,5.395m0-9.874A3.388,3.388,0,0,0,26.4,13.922v1.1a3.384,3.384,0,1,0,6.768,0v-1.1a3.388,3.388,0,0,0-3.384-3.384" transform="translate(-4.776 -1.67)"/>
        <path id="Path_32234" data-name="Path 32234" d="M29.46,58.654a1.006,1.006,0,0,1-1.005-1.005,4.383,4.383,0,0,0-4.377-4.377H18.4a4.383,4.383,0,0,0-4.378,4.377,1.005,1.005,0,1,1-2.011,0A6.4,6.4,0,0,1,18.4,51.261h5.682a6.4,6.4,0,0,1,6.388,6.388,1.006,1.006,0,0,1-1.005,1.005" transform="translate(-2.351 -10.036)"/>
        <path id="Path_32235" data-name="Path 32235" d="M22.17,47.243a5.4,5.4,0,0,1-5.395-5.395v-1.1a5.395,5.395,0,1,1,10.789,0v1.1a5.4,5.4,0,0,1-5.395,5.395m0-9.874a3.388,3.388,0,0,0-3.384,3.384v1.1a3.384,3.384,0,0,0,6.768,0v-1.1a3.388,3.388,0,0,0-3.384-3.384" transform="translate(-3.284 -6.923)"/>
        <path id="Path_32236" data-name="Path 32236" d="M6.176,56.913a1.006,1.006,0,0,1-1.005-1.005V43.375a1.005,1.005,0,0,1,2.011,0V55.908a1.006,1.006,0,0,1-1.005,1.005" transform="translate(-1.012 -8.296)"/>
        <path id="Path_32237" data-name="Path 32237" d="M3.084,52.179A3.088,3.088,0,0,1,0,49.1V41.742a6.81,6.81,0,0,1,6.8-6.8h5.4a1.005,1.005,0,0,1,0,2.011H6.8a4.8,4.8,0,0,0-4.793,4.793V49.1a1.074,1.074,0,1,0,2.147,0,1.005,1.005,0,1,1,2.011,0,3.088,3.088,0,0,1-3.084,3.084" transform="translate(0 -6.841)"/>
      </g>
    </g>
  </g>
</svg>
