<svg xmlns="http://www.w3.org/2000/svg" xmlns:xlink="http://www.w3.org/1999/xlink" width="63.846" height="62.992" viewBox="0 0 63.846 62.992">
  <defs>
    <clipPath id="clip-path">
      <rect id="Rectangle_3119" data-name="Rectangle 3119" width="63.846" height="62.992" fill="#0171bb"/>
    </clipPath>
  </defs>
  <g id="ic-budget" transform="translate(-628 -967.008)">
    <g id="Group_3877" data-name="Group 3877" transform="translate(628 967.008)">
      <g id="Group_3875" data-name="Group 3875" transform="translate(0 0)" clip-path="url(#clip-path)">
        <path id="Path_11373" data-name="Path 11373" d="M64.472,26.045a1.072,1.072,0,0,0,1.071-1.071V21.886a1.071,1.071,0,1,0-2.142,0v3.088a1.072,1.072,0,0,0,1.071,1.071" transform="translate(-9.066 -2.976)" fill="#0171bb"/>
        <path id="Path_11374" data-name="Path 11374" d="M53.959,20.815H51.444a2.4,2.4,0,0,0-2.4,2.4v4.415a2.4,2.4,0,0,0,2.4,2.4h2.514a2.4,2.4,0,0,0,2.4-2.4V23.211a2.4,2.4,0,0,0-2.4-2.4m.253,6.811a.253.253,0,0,1-.253.253H51.444a.253.253,0,0,1-.253-.253V23.211a.253.253,0,0,1,.253-.254h2.514a.253.253,0,0,1,.253.254Z" transform="translate(-7.014 -2.976)" fill="#0171bb"/>
        <path id="Path_11375" data-name="Path 11375" d="M63.4,34.981a1.071,1.071,0,0,0,2.142,0V31.893a1.071,1.071,0,0,0-2.142,0Z" transform="translate(-9.066 -4.407)" fill="#0171bb"/>
        <path id="Path_11376" data-name="Path 11376" d="M63.4,44.987a1.071,1.071,0,1,0,2.142,0V41.9a1.071,1.071,0,1,0-2.142,0Z" transform="translate(-9.066 -5.838)" fill="#0171bb"/>
        <path id="Path_11377" data-name="Path 11377" d="M63.4,54.994a1.071,1.071,0,1,0,2.142,0V51.906a1.071,1.071,0,1,0-2.142,0Z" transform="translate(-9.066 -7.269)" fill="#0171bb"/>
        <path id="Path_11378" data-name="Path 11378" d="M65.269,12.2H44.812a4.366,4.366,0,0,0-4.361,4.362V28.738a1.071,1.071,0,0,0,2.143,0V16.563a2.222,2.222,0,0,1,2.219-2.22H65.269a2.222,2.222,0,0,1,2.22,2.22v37a2.222,2.222,0,0,1-2.22,2.22h-7.7a1.071,1.071,0,1,0,0,2.142h7.7a4.367,4.367,0,0,0,4.362-4.362v-37A4.367,4.367,0,0,0,65.269,12.2" transform="translate(-5.785 -1.744)" fill="#0171bb"/>
        <path id="Path_11379" data-name="Path 11379" d="M41.677,35.664c-5.76,0-11.59,1.723-11.59,5.016v3.245a1.071,1.071,0,1,0,2.143,0V43.71c2.214,1.311,5.844,1.986,9.448,1.986s7.233-.674,9.447-1.986v2.229c0,.8-2.189,2.181-6.3,2.686a1.071,1.071,0,0,0,.129,2.135.994.994,0,0,0,.132-.009,15.742,15.742,0,0,0,6.037-1.794V51.2c0,.8-2.189,2.181-6.3,2.686a1.071,1.071,0,0,0,.129,2.135,1.16,1.16,0,0,0,.132-.008,15.726,15.726,0,0,0,6.037-1.795v2.241c0,.8-2.189,2.181-6.3,2.686a1.071,1.071,0,0,0,.129,2.135.993.993,0,0,0,.132-.009c5.045-.62,8.179-2.464,8.179-4.812V40.68c0-3.293-5.83-5.016-11.589-5.016m0,7.89c-6.113,0-9.448-1.9-9.448-2.874s3.335-2.874,9.448-2.874,9.447,1.9,9.447,2.874-3.335,2.874-9.447,2.874" transform="translate(-4.302 -5.1)" fill="#0171bb"/>
        <path id="Path_11380" data-name="Path 11380" d="M27.532,49.524c-5.76,0-11.59,1.723-11.59,5.016V65.058c0,3.293,5.83,5.016,11.59,5.016s11.59-1.723,11.59-5.016V54.54c0-3.293-5.83-5.016-11.59-5.016M36.98,59.8c0,.974-3.335,2.873-9.448,2.873s-9.448-1.9-9.448-2.873V57.57c2.214,1.311,5.844,1.986,9.448,1.986s7.234-.674,9.448-1.986Zm-9.448-8.133c6.113,0,9.448,1.9,9.448,2.874s-3.335,2.874-9.448,2.874-9.448-1.9-9.448-2.874,3.335-2.874,9.448-2.874m0,16.265c-6.113,0-9.448-1.9-9.448-2.874V62.829c2.214,1.311,5.844,1.986,9.448,1.986s7.234-.674,9.448-1.986v2.229c0,.975-3.335,2.874-9.448,2.874" transform="translate(-2.28 -7.082)" fill="#0171bb"/>
        <path id="Path_11382" data-name="Path 11382" d="M11.171,43.547c-5.569-1.7-9.028-5.53-9.028-10,0-5.069,4.642-9.975,8.031-13.558,1-1.053,1.938-2.047,2.645-2.922l.232-.284a10.1,10.1,0,0,0,2.55-4.871h2.69a9.669,9.669,0,0,0,2.448,4.81l.283.345c.707.874,1.649,1.869,2.646,2.922,2.212,2.338,4.965,5.248,6.594,8.363a1.071,1.071,0,0,0,1.9-.992c-1.767-3.379-4.633-6.409-6.937-8.843-.968-1.022-1.881-1.988-2.536-2.8l-.3-.362a7.965,7.965,0,0,1-1.907-3.445h.263a1.071,1.071,0,1,0,0-2.142H20.4a25.844,25.844,0,0,1,2.016-5.5c.211-.454.367-.8.433-.977a2.269,2.269,0,0,0-.269-2.123A3.3,3.3,0,0,0,19.729,0a6.031,6.031,0,0,0-2.971.864c-.541.29-.7.357-.918.3-.173-.045-.381-.125-.607-.21C14.207.573,12.071-.228,11,1.63c-.812,1.411.081,3.261,1.116,5.4A22.25,22.25,0,0,1,13.3,9.776h-.2a1.071,1.071,0,0,0,0,2.142h.322a8.859,8.859,0,0,1-2.023,3.513l-.241.294c-.655.81-1.568,1.776-2.535,2.8C4.981,22.366,0,27.63,0,33.552,0,38.913,4.139,43.641,10.545,45.6a1.047,1.047,0,0,0,.313.048,1.072,1.072,0,0,0,.313-2.1M14.047,6.1c-.5-1.039-1.435-2.973-1.188-3.4.149-.259.883-.011,1.621.266a8.783,8.783,0,0,0,.834.281,3.219,3.219,0,0,0,2.458-.494,3.95,3.95,0,0,1,2-.608c.678-.031.992.177,1.064.279.014.018.034.048,0,.144-.055.148-.188.43-.363.806a24.669,24.669,0,0,0-2.237,6.4H15.518A18.578,18.578,0,0,0,14.047,6.1" transform="translate(0 0)" fill="#0171bb"/>
      </g>
    </g>
    <path id="Path_11412" data-name="Path 11412" d="M2.732,12.645V11.254h2.31a1.3,1.3,0,0,0,.885-.282,1.038,1.038,0,0,0-.034-1.534,1.469,1.469,0,0,0-.977-.276H2.732V7.945l1.391.023a6.987,6.987,0,0,1,1.965.247,2.752,2.752,0,0,1,1.3.764,1.967,1.967,0,0,1,.465,1.368A2.264,2.264,0,0,1,7.525,11.6a2.076,2.076,0,0,1-.931.782,3.442,3.442,0,0,1-1.4.264Zm-.632,0V4.6H3.64v8.045Zm.575-3.4V7.876H4.858a1.188,1.188,0,0,0,.816-.264.945.945,0,0,0,.3-.747.915.915,0,0,0-.333-.753,1.356,1.356,0,0,0-.908-.259H2.675V4.612l2.149-.023a3.745,3.745,0,0,1,1.448.259,2.108,2.108,0,0,1,.965.77,2.221,2.221,0,0,1,.345,1.27,1.721,1.721,0,0,1-.419,1.126,2.851,2.851,0,0,1-1.172.8,4.731,4.731,0,0,1-1.753.3ZM8.433,13.61,11.6,4.06h1.448L9.9,13.61Zm6.218-.793A.876.876,0,0,1,14,12.542a.9.9,0,0,1-.27-.655.891.891,0,0,1,.27-.644.9.9,0,0,1,1.3,0,.891.891,0,0,1,.27.644.9.9,0,0,1-.27.655A.876.876,0,0,1,14.65,12.817Z" transform="translate(635.53 986.788)" fill="#0171bb"/>
  </g>
</svg>
