<svg xmlns="http://www.w3.org/2000/svg" width="50" height="50" viewBox="0 0 50 50">
  <g id="ic-comprometido" transform="translate(15155 2303)">
    <rect id="Rectangle_5153" data-name="Rectangle 5153" width="50" height="50" transform="translate(-15155 -2303)" fill="#fff" opacity="0"/>
    <path id="Trazado_15655" data-name="Trazado 15655" d="M0-19.526H3.9a1.947,1.947,0,0,0,1.381-.57,1.947,1.947,0,0,0,.57-1.381V-35.111H0Zm2.927-3.89a.977.977,0,0,1,.976.975.982.982,0,0,1-.976.975.983.983,0,0,1-.976-.974.976.976,0,0,1,.976-.976ZM21.268-39.032a1.948,1.948,0,0,0-1.312.508l-6,5.486c-.006.012-.006.025-.018.025a2.425,2.425,0,0,0-.13,3.414,2.6,2.6,0,0,0,3.422.167c.01-.009.016-.009.023-.015L22.124-33.9a.983.983,0,0,1,1.381.06.976.976,0,0,1,.256.7.976.976,0,0,1-.316.678l-1.592,1.455,8.879,7.2a4.693,4.693,0,0,1,.48.472V-35.184a13.309,13.309,0,0,0-9.414-3.9ZM20.4-29.678,18.573-28a4.405,4.405,0,0,1-6.205-.267,4.392,4.392,0,0,1,.274-6.2l4.986-4.567h-.4a13.336,13.336,0,0,0-9.409,3.9L7.8-21.483H8.918l5.518,4.989a3.9,3.9,0,0,0,2.861.856,3.9,3.9,0,0,0,2.627-1.42l1.1.929a2.325,2.325,0,0,0,3.194-.327l1.913-2.353.328.274a1.957,1.957,0,0,0,2.744-.289l.582-.72a1.946,1.946,0,0,0,.425-1.429,1.946,1.946,0,0,0-.711-1.31ZM33.17-35.1v13.633a1.942,1.942,0,0,0,1.9,1.954l3.957,0v-15.6ZM36.1-21.471a.982.982,0,0,1-.976-.975.977.977,0,0,1,.976-.976.98.98,0,0,1,.976.98.977.977,0,0,1-.976.971Z" transform="translate(-15149.559 -2250.572)"/>
  </g>
</svg>
