<svg xmlns="http://www.w3.org/2000/svg" width="81.979" height="74.36" viewBox="0 0 81.979 74.36">
  <g id="ic-d2" transform="translate(4212.528 -5620.757)">
    <path id="Path_10895" data-name="Path 10895" d="M313.431,359.864l3.8-28.334a7.893,7.893,0,0,1,7.818-6.805h13.39a7.893,7.893,0,0,1,7.818,6.805l2.1,15.059Z" transform="translate(-4481.913 5313.702)" fill="#cff1ff"/>
    <path id="Path_10896" data-name="Path 10896" d="M311.865,359.018a.721.721,0,0,1-.715-.816l3.8-28.334a8.651,8.651,0,0,1,8.532-7.43h13.39a8.65,8.65,0,0,1,8.531,7.426l2.1,15.059a.72.72,0,0,1-1.427.2l-2.1-15.059a7.2,7.2,0,0,0-7.1-6.184h-13.39a7.2,7.2,0,0,0-7.1,6.184l-3.8,28.331a.721.721,0,0,1-.713.625" transform="translate(-4480.347 5315.269)" fill="#0059ab"/>
    <path id="Path_10897" data-name="Path 10897" d="M360.673,280.191a9.276,9.276,0,1,1-9.276-9.276,9.276,9.276,0,0,1,9.276,9.276" transform="translate(-4501.567 5350.563)" fill="#fff"/>
    <path id="Path_10898" data-name="Path 10898" d="M349.83,288.62a10,10,0,1,1,10-10,10.007,10.007,0,0,1-10,10m0-18.552a8.555,8.555,0,1,0,8.556,8.555,8.565,8.565,0,0,0-8.556-8.555" transform="translate(-4500 5352.13)" fill="#0059ab"/>
    <path id="Path_10899" data-name="Path 10899" d="M183.155,346.589l2.1-15.059a7.893,7.893,0,0,1,7.818-6.805h13.391a7.893,7.893,0,0,1,7.818,6.805l2.1,15.059Z" transform="translate(-4392.671 5313.702)" fill="#fff"/>
    <path id="Path_10900" data-name="Path 10900" d="M214.806,345.743a.72.72,0,0,1-.712-.621L212,330.063a7.2,7.2,0,0,0-7.1-6.184H191.5a7.2,7.2,0,0,0-7.1,6.184l-2.1,15.059a.72.72,0,0,1-1.427-.2l2.1-15.059a8.65,8.65,0,0,1,8.531-7.426h13.39a8.65,8.65,0,0,1,8.531,7.426l2.1,15.059a.721.721,0,0,1-.714.82" transform="translate(-4391.104 5315.269)" fill="#0059ab"/>
    <path id="Path_10901" data-name="Path 10901" d="M224.989,280.191a9.276,9.276,0,1,1-9.276-9.276,9.276,9.276,0,0,1,9.276,9.276" transform="translate(-4408.62 5350.563)" fill="#fff"/>
    <path id="Path_10902" data-name="Path 10902" d="M214.146,288.62a10,10,0,1,1,10-10,10.007,10.007,0,0,1-10,10m0-18.552a8.555,8.555,0,1,0,8.555,8.555,8.565,8.565,0,0,0-8.555-8.555" transform="translate(-4407.053 5352.13)" fill="#0059ab"/>
    <path id="Path_10903" data-name="Path 10903" d="M251,381.3l2.1-15.059a7.893,7.893,0,0,1,7.818-6.805H274.3a7.893,7.893,0,0,1,7.818,6.805l2.1,15.059Z" transform="translate(-4439.144 5289.925)" fill="#2db5ff"/>
    <path id="Path_10904" data-name="Path 10904" d="M282.647,380.45a.72.72,0,0,1-.713-.621l-2.1-15.059a7.2,7.2,0,0,0-7.1-6.184h-13.39a7.2,7.2,0,0,0-7.1,6.184l-2.1,15.059a.72.72,0,1,1-1.427-.2l2.1-15.059a8.65,8.65,0,0,1,8.531-7.426h13.39a8.65,8.65,0,0,1,8.531,7.426l2.1,15.059a.721.721,0,0,1-.714.82" transform="translate(-4437.577 5291.493)" fill="#0059ab"/>
    <path id="Path_10905" data-name="Path 10905" d="M292.831,314.9a9.276,9.276,0,1,1-9.276-9.276,9.276,9.276,0,0,1,9.276,9.276" transform="translate(-4455.093 5326.788)" fill="#fff"/>
    <path id="Path_10906" data-name="Path 10906" d="M281.988,323.327a10,10,0,1,1,10-10,10.008,10.008,0,0,1-10,10m0-18.552a8.555,8.555,0,1,0,8.555,8.555,8.565,8.565,0,0,0-8.555-8.555" transform="translate(-4453.527 5328.355)" fill="#0059ab"/>
    <path id="Path_10907" data-name="Path 10907" d="M175.879,399.785l11.712-11.712a11.85,11.85,0,0,1,8.379-3.471h8.909a9.554,9.554,0,0,1,6.755,2.8,8.148,8.148,0,0,0,5.761,2.386h9.586a4.814,4.814,0,0,1,4.383,2.82l.271-.024,16.7-13.977a4.922,4.922,0,0,1,6.639,7.255l-24.715,24.715a7.406,7.406,0,0,1-5.237,2.169H199.568a4.445,4.445,0,0,0-3.142,1.3l-2.772,2.772Z" transform="translate(-4387.687 5277.578)" fill="#fff"/>
    <path id="Path_10908" data-name="Path 10908" d="M192.086,415.95a.721.721,0,0,1-.509-1.23l2.772-2.772A5.131,5.131,0,0,1,198,410.436h25.456a6.642,6.642,0,0,0,4.727-1.958L252.9,383.763a4.2,4.2,0,0,0-5.667-6.193l-16.7,13.977a.721.721,0,0,1-.4.165l-.272.024a.722.722,0,0,1-.719-.419,4.105,4.105,0,0,0-3.727-2.4h-9.586a8.809,8.809,0,0,1-6.27-2.6,8.776,8.776,0,0,0-6.246-2.587H194.4a11.057,11.057,0,0,0-7.87,3.26l-11.712,11.712a.72.72,0,0,1-1.019-1.019l11.712-11.712a12.488,12.488,0,0,1,8.889-3.682h8.909a10.206,10.206,0,0,1,7.265,3.009,7.378,7.378,0,0,0,5.251,2.175h9.586a5.552,5.552,0,0,1,4.67,2.564l16.223-13.577a5.643,5.643,0,0,1,7.611,8.317L229.2,409.5a8.072,8.072,0,0,1-5.746,2.38H198a3.7,3.7,0,0,0-2.633,1.09l-2.772,2.772a.717.717,0,0,1-.509.211" transform="translate(-4386.12 5279.167)" fill="#0059ab"/>
    <path id="Path_10909" data-name="Path 10909" d="M292.258,432.1H271.892a.721.721,0,1,1,0-1.441h20.366a4.1,4.1,0,0,0,3.823-5.56.72.72,0,0,1,1.345-.516,5.537,5.537,0,0,1-5.168,7.517" transform="translate(-4452.964 5245.614)" fill="#0059ab"/>
  </g>
</svg>
