<svg xmlns="http://www.w3.org/2000/svg" width="40.125" height="40.205" viewBox="0 0 40.125 40.205">
  <path id="ic-deporte" d="M-925.432,324.651l-.762,4.695a.8.8,0,0,0,.321.762.8.8,0,0,0,.843.04l4.012-2.086,4.013,2.086a.6.6,0,0,0,.361.08.6.6,0,0,0,.441-.16.8.8,0,0,0,.321-.762l-.762-4.695,3.25-3.17a.836.836,0,0,0,.2-.8.736.736,0,0,0-.642-.522l-4.454-.642-2.006-4.333a.758.758,0,0,0-.722-.441.758.758,0,0,0-.722.441l-2.006,4.333-4.454.642a.845.845,0,0,0-.642.522.836.836,0,0,0,.2.8Zm2.287-3.651a.771.771,0,0,0,.6-.441l1.485-3.17,1.485,3.17a.771.771,0,0,0,.6.441l3.33.482-2.408,2.327a.735.735,0,0,0-.241.682l.562,3.531-2.969-1.565a.767.767,0,0,0-.722,0l-2.969,1.565.562-3.531a.735.735,0,0,0-.241-.682l-2.407-2.327Zm-12.238,29.131h3.13a.8.8,0,0,0,.8-.8.8.8,0,0,0-.8-.8h-2.367V346.92h2.367a.985.985,0,0,0,.843-.923v-3.13a.833.833,0,0,0-.843-.762h-3.13a.8.8,0,0,0-.8.8.8.8,0,0,0,.8.8h2.408v1.6h-2.408a.71.71,0,0,0-.8.682v3.13C-936.185,349.569-935.784,350.13-935.383,350.13Zm13.562.8a.8.8,0,0,0,.8.8h3.13a.8.8,0,0,0,.8-.8.8.8,0,0,0-.8-.8h-3.13A.8.8,0,0,0-921.82,350.933Zm20.063-10.432h-11.957v-7.3c0-.441-.6-.722-1.043-.722h-12.519a.844.844,0,0,0-.883.722v4.093h-12.158a.769.769,0,0,0-.682.843v15.889c0,.441.281.883.682.883h38.56a.949.949,0,0,0,.883-.883V341.3A.878.878,0,0,0-901.758,340.5Zm-26.4,12.84H-939.4V338.9h11.235Zm12.84,0h-11.235V334.08h11.235Zm12.84,0h-11.235V342.105h11.235Zm-7.343-3.21a.8.8,0,0,0-.8.8.8.8,0,0,0,.8.8h3.13a1.236,1.236,0,0,0,1-1.043v-6.26c0-.441-.562-.722-1-.722h-3.13a.8.8,0,0,0-.8.8.8.8,0,0,0,.8.8h2.528v1.605h-2.528a.8.8,0,0,0-.8.8.8.8,0,0,0,.8.8h2.528v1.6Zm-14.325,1.324a.8.8,0,0,0,.8-.8.8.8,0,0,0-.8-.8.8.8,0,0,0-.8.8A.8.8,0,0,0-924.148,351.454Zm1.565-9.349a.8.8,0,0,0-.8.8.8.8,0,0,0,.8.8h3.13a.8.8,0,0,0,.8-.8.8.8,0,0,0-.8-.8h-.682v-5.537c0-.441-.441-.482-.883-.482h-1.565c-.441,0-.8.16-.8.6s.361.6.8.6h.843v4.815Z" transform="translate(941 -314.7)" fill="#4d4d4d"/>
</svg>
