<svg xmlns="http://www.w3.org/2000/svg" width="89.472" height="69.116" viewBox="0 0 89.472 69.116">
  <g id="ic-d3" transform="translate(4187.678 -5569.717)">
    <path id="Path_10873" data-name="Path 10873" d="M409.319,194.732l-1.439-3.3a2.1,2.1,0,0,0-1.928-1.26h-3.2l-11.381-13.612L387,176.4l-4.373.158-11.381,13.612h-3.2a2.1,2.1,0,0,0-1.928,1.26l-1.439,3.3a1.048,1.048,0,0,0,.964,1.466h42.715a1.049,1.049,0,0,0,.964-1.466" transform="translate(-4532.307 5441.95)" fill="#cff1ff"/>
    <path id="Path_10874" data-name="Path 10874" d="M406.752,195.277H364.037a1.732,1.732,0,0,1-1.59-2.422l1.439-3.3a2.785,2.785,0,0,1,2.554-1.671h2.88L380.5,174.516a.682.682,0,0,1,.5-.245l4.374-.158h.049l4.373.158a.683.683,0,0,1,.5.245l11.177,13.367h2.88a2.785,2.785,0,0,1,2.554,1.671l1.439,3.3a1.731,1.731,0,0,1-1.59,2.422m-40.311-6.028a1.418,1.418,0,0,0-1.3.85l-1.439,3.3a.353.353,0,0,0,.029.344.363.363,0,0,0,.309.166h42.714a.364.364,0,0,0,.309-.166.353.353,0,0,0,.029-.344l-1.439-3.3a1.419,1.419,0,0,0-1.3-.85h-3.2a.682.682,0,0,1-.524-.245l-11.186-13.379-4.045-.146-4.045.146L370.164,189a.683.683,0,0,1-.524.245Z" transform="translate(-4530.705 5443.556)" fill="#0059ab"/>
    <path id="Path_10875" data-name="Path 10875" d="M328.117,131.238c-.86,3.893-8,6.742-15.646,5.043-7.285-1.619-12.409-6.779-12.138-10.63a.5.5,0,0,1,.612-.45Z" transform="translate(-4487.238 5477.867)" fill="#2db5ff"/>
    <path id="Path_10876" data-name="Path 10876" d="M315.426,135.862a21.784,21.784,0,0,1-4.706-.518A20.33,20.33,0,0,1,301.5,130.7c-2.345-2.145-3.6-4.589-3.456-6.7a1.177,1.177,0,0,1,.471-.861,1.189,1.189,0,0,1,.97-.208l27.172,6.037a.683.683,0,0,1,.519.815,6.376,6.376,0,0,1-3.041,3.845,16.454,16.454,0,0,1-8.714,2.235M299.4,124.31c-.012,1.634,1.1,3.628,3.023,5.385a18.946,18.946,0,0,0,8.59,4.315c5.456,1.212,9.978,0,12.389-1.535a5.7,5.7,0,0,0,2.223-2.338Z" transform="translate(-4485.634 5479.47)" fill="#0059ab"/>
    <path id="Path_10877" data-name="Path 10877" d="M492.058,167.417c-.861,3.893,4.407,9.5,12.056,11.2,7.285,1.619,14.1-.888,15.481-4.494a.5.5,0,0,0-.365-.667Z" transform="translate(-4621.639 5448.251)" fill="#2db5ff"/>
    <path id="Path_10878" data-name="Path 10878" d="M507.057,178.2a21.736,21.736,0,0,1-4.7-.519,20.063,20.063,0,0,1-9.547-4.953c-2.4-2.329-3.505-4.9-3.028-7.059a.683.683,0,0,1,.815-.519l27.172,6.038a1.191,1.191,0,0,1,.791.6,1.177,1.177,0,0,1,.065.979c-.757,1.981-2.928,3.663-5.958,4.614a18.835,18.835,0,0,1-5.612.821m-16.013-11.552c-.012,1.545.965,3.4,2.72,5.1a18.679,18.679,0,0,0,8.892,4.6,18.914,18.914,0,0,0,9.6-.272c2.481-.779,4.332-2.114,5.008-3.6Z" transform="translate(-4620.033 5449.854)" fill="#0059ab"/>
    <path id="Path_10879" data-name="Path 10879" d="M475.319,163.648l-7.221-1.605Z" transform="translate(-4604.9 5452.021)" fill="#cff1ff"/>
    <path id="Path_10880" data-name="Path 10880" d="M473.715,162.727a.69.69,0,0,1-.149-.016l-7.221-1.605a.683.683,0,1,1,.3-1.334l7.221,1.605a.683.683,0,0,1-.148,1.35" transform="translate(-4603.295 5453.625)" fill="#0059ab"/>
    <path id="Path_10881" data-name="Path 10881" d="M400.693,147.064l-7.318-1.622Z" transform="translate(-4552.496 5463.662)" fill="#cff1ff"/>
    <path id="Path_10882" data-name="Path 10882" d="M399.089,146.143a.685.685,0,0,1-.148-.016l-7.317-1.622a.683.683,0,1,1,.3-1.334l7.317,1.622a.683.683,0,0,1-.147,1.35" transform="translate(-4550.892 5465.268)" fill="#0059ab"/>
    <path id="Path_10883" data-name="Path 10883" d="M414.061,136.141a7.687,7.687,0,1,1,5.843,9.149,7.676,7.676,0,0,1-5.843-9.149" transform="translate(-4566.875 5474.396)" fill="#fff"/>
    <path id="Path_10884" data-name="Path 10884" d="M419.967,144.55a8.4,8.4,0,0,1-7.066-3.869,8.359,8.359,0,1,1,15.227-2.669,8.369,8.369,0,0,1-8.161,6.538m-.033-15.337a7.042,7.042,0,1,0,1.535.169,7.088,7.088,0,0,0-1.535-.169m-7.481,5.321h0Z" transform="translate(-4565.267 5476.003)" fill="#0059ab"/>
    <path id="Path_10885" data-name="Path 10885" d="M330.025,30.641c-.336,19.707-29.633,19.7-29.967,0,.336-19.706,29.633-19.7,29.967,0" transform="translate(-4487.052 5554.538)" fill="#fff"/>
    <path id="Path_10886" data-name="Path 10886" d="M313.437,44.5h0a16.062,16.062,0,0,1-10.658-3.866,15.278,15.278,0,0,1-5.008-11.585v-.023a15.278,15.278,0,0,1,5.009-11.585,16.063,16.063,0,0,1,10.657-3.864h0A16.063,16.063,0,0,1,324.1,17.44,15.276,15.276,0,0,1,329.1,29.025q0,.012,0,.023a15.278,15.278,0,0,1-5.009,11.586A16.062,16.062,0,0,1,313.437,44.5m-14.3-15.463c.169,9.685,7.53,14.1,14.3,14.1s14.13-4.411,14.3-14.1c-.17-9.683-7.53-14.1-14.3-14.1s-14.13,4.411-14.3,14.1" transform="translate(-4485.448 5556.142)" fill="#0059ab"/>
    <path id="Path_10890" data-name="Path 10890" d="M500.375,81.585c-2.12,0-3.764-2.315-5.607-3.08-1.911-.792-4.7-.347-6.144-1.787s-1-4.233-1.787-6.144c-.764-1.843-3.08-3.488-3.08-5.607s2.315-3.764,3.08-5.607c.792-1.911.347-4.7,1.787-6.144s4.233-1,6.144-1.787c1.843-.764,3.487-3.08,5.607-3.08s3.764,2.315,5.607,3.08c1.911.792,4.7.347,6.144,1.787s1,4.233,1.787,6.144c.764,1.843,3.08,3.487,3.08,5.607s-2.315,3.764-3.08,5.607c-.792,1.911-.347,4.7-1.787,6.144s-4.233.995-6.144,1.787c-1.843.764-3.487,3.08-5.607,3.08" transform="translate(-4615.881 5531.754)" fill="#cff1ff"/>
    <path id="Path_10891" data-name="Path 10891" d="M498.771,80.663c-1.53,0-2.8-.986-3.927-1.856a9.283,9.283,0,0,0-1.942-1.276,9.784,9.784,0,0,0-2.376-.507c-1.453-.194-2.956-.4-3.989-1.428s-1.234-2.536-1.428-3.989a9.808,9.808,0,0,0-.507-2.376,9.282,9.282,0,0,0-1.276-1.942c-.87-1.124-1.856-2.4-1.856-3.927s.986-2.8,1.856-3.928a9.282,9.282,0,0,0,1.276-1.942,9.813,9.813,0,0,0,.507-2.376c.194-1.453.4-2.956,1.428-3.989s2.536-1.234,3.989-1.428a9.813,9.813,0,0,0,2.376-.507,9.286,9.286,0,0,0,1.942-1.276c1.124-.87,2.4-1.856,3.927-1.856s2.8.986,3.927,1.856a9.3,9.3,0,0,0,1.942,1.276,9.806,9.806,0,0,0,2.376.507c1.453.194,2.956.4,3.989,1.428s1.234,2.536,1.428,3.989a9.79,9.79,0,0,0,.507,2.376,9.279,9.279,0,0,0,1.276,1.941c.87,1.124,1.856,2.4,1.856,3.928s-.986,2.8-1.856,3.928a9.279,9.279,0,0,0-1.276,1.941,9.793,9.793,0,0,0-.507,2.376c-.194,1.453-.4,2.956-1.429,3.989s-2.535,1.234-3.989,1.428a9.78,9.78,0,0,0-2.376.507,9.288,9.288,0,0,0-1.942,1.276c-1.124.87-2.4,1.856-3.927,1.856m0-33.236A5.6,5.6,0,0,0,495.68,49a10.38,10.38,0,0,1-2.254,1.457,10.919,10.919,0,0,1-2.718.6,5.6,5.6,0,0,0-3.2,1.04,5.6,5.6,0,0,0-1.04,3.2,10.921,10.921,0,0,1-.6,2.718,10.383,10.383,0,0,1-1.457,2.255,5.6,5.6,0,0,0-1.571,3.091,5.605,5.605,0,0,0,1.571,3.091,10.39,10.39,0,0,1,1.457,2.255,10.915,10.915,0,0,1,.6,2.718,5.6,5.6,0,0,0,1.04,3.2,5.6,5.6,0,0,0,3.2,1.04,10.919,10.919,0,0,1,2.718.6,10.392,10.392,0,0,1,2.255,1.458,3.827,3.827,0,0,0,6.182,0,10.376,10.376,0,0,1,2.254-1.458,10.918,10.918,0,0,1,2.718-.6,5.6,5.6,0,0,0,3.2-1.04,5.6,5.6,0,0,0,1.04-3.2,10.938,10.938,0,0,1,.6-2.718,10.391,10.391,0,0,1,1.457-2.255,5.606,5.606,0,0,0,1.57-3.091,5.605,5.605,0,0,0-1.57-3.091,10.369,10.369,0,0,1-1.457-2.254,10.94,10.94,0,0,1-.6-2.718,5.6,5.6,0,0,0-1.04-3.2,5.6,5.6,0,0,0-3.2-1.04,10.918,10.918,0,0,1-2.718-.6A10.375,10.375,0,0,1,501.862,49a5.606,5.606,0,0,0-3.091-1.57" transform="translate(-4614.277 5533.359)" fill="#0059ab"/>
    <path id="Path_10892" data-name="Path 10892" d="M524.351,77.784a11.159,11.159,0,1,1-11.159-11.159,11.159,11.159,0,0,1,11.159,11.159" transform="translate(-4628.7 5518.938)" fill="#fff"/>
    <path id="Path_10893" data-name="Path 10893" d="M511.589,88.022A11.842,11.842,0,1,1,523.431,76.18a11.855,11.855,0,0,1-11.842,11.842m0-22.317A10.476,10.476,0,1,0,522.065,76.18,10.487,10.487,0,0,0,511.589,65.7" transform="translate(-4627.095 5520.541)" fill="#0059ab"/>
    <path id="Path_10894" data-name="Path 10894" d="M527.155,98.864a.684.684,0,0,1-.521-.242l-4.545-5.365a.683.683,0,0,1,1.042-.883l3.925,4.634,4.446-7.492a.683.683,0,0,1,1.175.7l-4.935,8.316a.683.683,0,0,1-.53.332l-.057,0" transform="translate(-4642.651 5503.119)" fill="#0059ab"/>
    <path id="Path_11371" data-name="Path 11371" d="M2.853,14.291V12.634H5.606A1.547,1.547,0,0,0,6.661,12.3,1.237,1.237,0,0,0,6.62,10.47a1.75,1.75,0,0,0-1.164-.329h-2.6V8.69l1.657.027a8.328,8.328,0,0,1,2.342.294,3.28,3.28,0,0,1,1.555.911,2.344,2.344,0,0,1,.555,1.63,2.7,2.7,0,0,1-.4,1.493,2.475,2.475,0,0,1-1.109.931,4.1,4.1,0,0,1-1.671.315Zm-.753,0V4.7H3.935v9.588Zm.685-4.054V8.607h2.6a1.416,1.416,0,0,0,.972-.315,1.126,1.126,0,0,0,.356-.89,1.09,1.09,0,0,0-.4-.9A1.616,1.616,0,0,0,5.237,6.2H2.785V4.717L5.346,4.69A4.463,4.463,0,0,1,7.072,5a2.512,2.512,0,0,1,1.151.918,2.647,2.647,0,0,1,.411,1.513,2.051,2.051,0,0,1-.5,1.342,3.4,3.4,0,0,1-1.4.959,5.638,5.638,0,0,1-2.089.356Zm6.862,5.2L13.427,4.06h1.726L11.4,15.442Zm7.41-.945a1.044,1.044,0,0,1-.774-.329,1.078,1.078,0,0,1-.322-.781,1.062,1.062,0,0,1,.322-.767,1.075,1.075,0,0,1,1.548,0,1.062,1.062,0,0,1,.322.767,1.078,1.078,0,0,1-.322.781A1.044,1.044,0,0,1,17.057,14.5Z" transform="translate(-4181.401 5575.128)" fill="#0059ab"/>
  </g>
</svg>
