<svg xmlns="http://www.w3.org/2000/svg" width="81.267" height="82.69" viewBox="0 0 81.267 82.69">
  <g id="ic-d1" transform="translate(4247.267 -5567.066)">
    <path id="Path_10911" data-name="Path 10911" d="M181.535,63.977A21.559,21.559,0,0,0,160,42.442V31.466a32.511,32.511,0,0,1,32.512,32.511Z" transform="translate(-4359.201 5544.954)" fill="#fff"/>
    <path id="Path_10912" data-name="Path 10912" d="M190.913,63.065H179.935a.687.687,0,0,1-.687-.687A20.871,20.871,0,0,0,158.4,41.53a.687.687,0,0,1-.687-.687V29.866a.687.687,0,0,1,.687-.687,33.236,33.236,0,0,1,33.2,33.2.687.687,0,0,1-.687.687m-10.291-.687h0Zm-.011-.687h9.607a31.861,31.861,0,0,0-31.13-31.13v9.605A22.249,22.249,0,0,1,180.612,61.69" transform="translate(-4357.6 5546.554)" fill="#0059ab"/>
    <path id="Path_10913" data-name="Path 10913" d="M160,197.581a32.512,32.512,0,0,0,32.512-32.512H181.535A21.559,21.559,0,0,1,160,186.6Z" transform="translate(-4359.201 5451.488)" fill="#cff1ff"/>
    <path id="Path_10914" data-name="Path 10914" d="M158.4,196.669a.687.687,0,0,1-.687-.687V185a.687.687,0,0,1,.687-.687,20.871,20.871,0,0,0,20.847-20.847.687.687,0,0,1,.687-.687h10.978a.687.687,0,0,1,.687.687,33.236,33.236,0,0,1-33.2,33.2m.687-10.987v9.606a31.861,31.861,0,0,0,31.13-31.13h-9.606a22.249,22.249,0,0,1-21.524,21.524" transform="translate(-4357.6 5453.087)" fill="#0059ab"/>
    <path id="Path_10915" data-name="Path 10915" d="M58.908,197.581A32.512,32.512,0,0,1,26.4,165.069H37.373A21.559,21.559,0,0,0,58.908,186.6Z" transform="translate(-4265.733 5451.488)" fill="#cff1ff"/>
    <path id="Path_10916" data-name="Path 10916" d="M57.308,196.669a33.237,33.237,0,0,1-33.2-33.2.687.687,0,0,1,.687-.687H35.774a.687.687,0,0,1,.687.687,20.871,20.871,0,0,0,20.847,20.847.687.687,0,0,1,.687.687v10.976a.687.687,0,0,1-.687.687M25.491,164.157a31.862,31.862,0,0,0,31.13,31.13v-9.606A22.248,22.248,0,0,1,35.1,164.157Z" transform="translate(-4264.133 5453.087)" fill="#0059ab"/>
    <path id="Path_10917" data-name="Path 10917" d="M2.287,42.756A40.139,40.139,0,0,1,42.427,2.617V16.169A26.617,26.617,0,0,0,15.84,42.756Z" transform="translate(-4248.867 5565.136)" fill="#fff"/>
    <path id="Path_10918" data-name="Path 10918" d="M.687,41.843A.687.687,0,0,1,0,41.156,40.827,40.827,0,0,1,40.827.33a.687.687,0,0,1,.687.687V14.569a.687.687,0,0,1-.687.687,25.929,25.929,0,0,0-25.9,25.9.687.687,0,0,1-.687.687ZM40.14,1.71A39.5,39.5,0,0,0,1.38,40.469H13.562A27.307,27.307,0,0,1,40.14,13.89Z" transform="translate(-4247.267 5566.736)" fill="#0059ab"/>
    <path id="Path_10919" data-name="Path 10919" d="M41.417,41.755l9.51,9.507Z" transform="translate(-4276.242 5537.756)" fill="#fff"/>
    <path id="Path_10920" data-name="Path 10920" d="M49.327,50.349a.685.685,0,0,1-.486-.2l-9.51-9.507a.687.687,0,1,1,.972-.972l9.51,9.507a.687.687,0,0,1-.486,1.173" transform="translate(-4274.641 5539.356)" fill="#0059ab"/>
    <path id="Path_10921" data-name="Path 10921" d="M19.844,71.693,31.5,77.51Z" transform="translate(-4261.15 5516.813)" fill="#fff"/>
    <path id="Path_10922" data-name="Path 10922" d="M29.9,76.6a.687.687,0,0,1-.306-.072L17.936,70.708a.687.687,0,1,1,.614-1.23L30.2,75.3a.687.687,0,0,1-.307,1.3" transform="translate(-4259.549 5518.413)" fill="#0059ab"/>
    <path id="Path_10923" data-name="Path 10923" d="M5.616,106.461,18.9,108.343Z" transform="translate(-4251.196 5492.489)" fill="#fff"/>
    <path id="Path_10924" data-name="Path 10924" d="M17.3,107.43a.714.714,0,0,1-.1-.007L3.92,105.541a.687.687,0,0,1,.193-1.361l13.281,1.882a.687.687,0,0,1-.1,1.368" transform="translate(-4249.596 5494.089)" fill="#0059ab"/>
    <path id="Path_10925" data-name="Path 10925" d="M73.454,18.078l5.2,12.271Z" transform="translate(-4298.654 5554.32)" fill="#fff"/>
    <path id="Path_10926" data-name="Path 10926" d="M77.058,29.435a.687.687,0,0,1-.633-.419l-5.2-12.27a.687.687,0,0,1,1.265-.537l5.2,12.27a.687.687,0,0,1-.632.956" transform="translate(-4297.053 5555.92)" fill="#0059ab"/>
    <path id="Path_10927" data-name="Path 10927" d="M109.255,5.584l1.5,13.361Z" transform="translate(-4323.7 5563.061)" fill="#fff"/>
    <path id="Path_10928" data-name="Path 10928" d="M109.155,18.032a.687.687,0,0,1-.682-.61l-1.5-13.361a.687.687,0,1,1,1.365-.153l1.5,13.361a.687.687,0,0,1-.606.759.753.753,0,0,1-.077,0" transform="translate(-4322.1 5564.662)" fill="#0059ab"/>
    <path id="Rectangle_2903" data-name="Rectangle 2903" d="M2.413,0H3.759A2.413,2.413,0,0,1,6.172,2.413v23a2.413,2.413,0,0,1-2.413,2.413H2.414A2.414,2.414,0,0,1,0,25.409v-23A2.413,2.413,0,0,1,2.413,0Z" transform="translate(-4221.533 5599.584)" fill="#cff1ff"/>
    <path id="Path_10929" data-name="Path 10929" d="M89.507,135.485H84.784a1.414,1.414,0,0,1-1.412-1.412V107.7a1.414,1.414,0,0,1,1.412-1.412h4.722a1.414,1.414,0,0,1,1.412,1.412v26.373a1.414,1.414,0,0,1-1.412,1.412m-4.722-27.823a.04.04,0,0,0-.038.038v26.373a.04.04,0,0,0,.038.038h4.722a.04.04,0,0,0,.038-.038V107.7a.041.041,0,0,0-.038-.038Z" transform="translate(-4305.592 5492.61)" fill="#0059ab"/>
    <path id="Rectangle_2904" data-name="Rectangle 2904" d="M2.413,0H3.426A2.413,2.413,0,0,1,5.839,2.413v13.8a2.412,2.412,0,0,1-2.412,2.412H2.414A2.414,2.414,0,0,1,0,16.21V2.413A2.413,2.413,0,0,1,2.413,0Z" transform="translate(-4211.502 5608.785)" fill="#cff1ff"/>
    <path id="Path_10930" data-name="Path 10930" d="M122.561,156.907h-4.389a1.414,1.414,0,0,1-1.412-1.412V138.321a1.414,1.414,0,0,1,1.412-1.412h4.389a1.414,1.414,0,0,1,1.412,1.412V155.5a1.413,1.413,0,0,1-1.412,1.412m-4.389-18.624a.04.04,0,0,0-.038.038V155.5a.04.04,0,0,0,.038.038h4.389a.04.04,0,0,0,.038-.038V138.321a.04.04,0,0,0-.038-.038Z" transform="translate(-4328.95 5471.188)" fill="#0059ab"/>
    <path id="Rectangle_2905" data-name="Rectangle 2905" d="M2.413,0H3.42A2.414,2.414,0,0,1,5.834,2.414V12.763a2.413,2.413,0,0,1-2.413,2.413H2.414A2.414,2.414,0,0,1,0,12.762V2.413A2.413,2.413,0,0,1,2.413,0Z" transform="translate(-4191.366 5612.233)" fill="#fff"/>
    <path id="Path_10931" data-name="Path 10931" d="M189.584,164.937H185.2a1.414,1.414,0,0,1-1.412-1.412V149.8a1.414,1.414,0,0,1,1.412-1.412h4.384A1.414,1.414,0,0,1,191,149.8v13.726a1.414,1.414,0,0,1-1.412,1.412M185.2,149.761a.04.04,0,0,0-.038.038v13.726a.04.04,0,0,0,.038.038h4.384a.04.04,0,0,0,.038-.038V149.8a.04.04,0,0,0-.038-.038Z" transform="translate(-4375.842 5463.159)" fill="#0059ab"/>
    <path id="Rectangle_2906" data-name="Rectangle 2906" d="M2.413,0H3.908A2.413,2.413,0,0,1,6.321,2.413v17.71a2.413,2.413,0,0,1-2.413,2.413H2.414A2.414,2.414,0,0,1,0,20.122V2.413A2.413,2.413,0,0,1,2.413,0Z" transform="translate(-4201.474 5604.872)" fill="#2db5ff"/>
    <path id="Path_10932" data-name="Path 10932" d="M156.427,147.8h-4.871a1.414,1.414,0,0,1-1.412-1.412V125.3a1.414,1.414,0,0,1,1.412-1.412h4.871a1.414,1.414,0,0,1,1.412,1.412v21.087a1.414,1.414,0,0,1-1.412,1.412m-4.871-22.536a.04.04,0,0,0-.038.038v21.087a.04.04,0,0,0,.038.038h4.871a.04.04,0,0,0,.038-.038V125.3a.04.04,0,0,0-.038-.038Z" transform="translate(-4352.304 5480.299)" fill="#0059ab"/>
    <path id="Path_10933" data-name="Path 10933" d="M124.412,96.182a.684.684,0,0,1-.381-.115l-9.649-6.433L104.922,93.1a.687.687,0,0,1-.626-.079L94.061,85.972a.687.687,0,0,1,.779-1.132l9.942,6.843,9.455-3.459a.686.686,0,0,1,.617.074l9.939,6.626a.687.687,0,0,1-.382,1.259" transform="translate(-4312.862 5507.699)" fill="#0059ab"/>
    <path id="Path_10934" data-name="Path 10934" d="M189.265,116.029a1.959,1.959,0,1,0,1.959-1.958,1.958,1.958,0,0,0-1.959,1.958" transform="translate(-4379.673 5487.166)" fill="#fff"/>
    <path id="Path_10935" data-name="Path 10935" d="M189.624,117.075a2.645,2.645,0,1,1,2.646-2.645,2.649,2.649,0,0,1-2.646,2.645m0-3.917a1.271,1.271,0,1,0,1.272,1.271,1.273,1.273,0,0,0-1.272-1.271" transform="translate(-4378.073 5488.765)" fill="#0059ab"/>
    <path id="Path_10936" data-name="Path 10936" d="M156.18,93.973a1.959,1.959,0,1,0,1.959-1.958,1.958,1.958,0,0,0-1.959,1.958" transform="translate(-4356.527 5502.595)" fill="#fff"/>
    <path id="Path_10937" data-name="Path 10937" d="M156.539,95.018a2.645,2.645,0,1,1,2.646-2.645,2.649,2.649,0,0,1-2.646,2.645m0-3.916a1.271,1.271,0,1,0,1.272,1.271,1.273,1.273,0,0,0-1.272-1.271" transform="translate(-4354.928 5504.196)" fill="#0059ab"/>
    <path id="Path_10938" data-name="Path 10938" d="M123.6,105.893a1.959,1.959,0,1,0,1.958-1.958,1.958,1.958,0,0,0-1.958,1.958" transform="translate(-4333.735 5494.256)" fill="#fff"/>
    <path id="Path_10939" data-name="Path 10939" d="M123.957,106.939a2.645,2.645,0,1,1,2.646-2.646,2.649,2.649,0,0,1-2.646,2.646m0-3.916a1.271,1.271,0,1,0,1.272,1.271,1.273,1.273,0,0,0-1.272-1.271" transform="translate(-4332.133 5495.856)" fill="#0059ab"/>
    <path id="Path_10940" data-name="Path 10940" d="M89.531,82.446a1.959,1.959,0,1,0,1.959-1.958,1.958,1.958,0,0,0-1.959,1.958" transform="translate(-4309.901 5510.659)" fill="#fff"/>
    <path id="Path_10941" data-name="Path 10941" d="M89.89,83.491a2.645,2.645,0,1,1,2.646-2.645,2.649,2.649,0,0,1-2.646,2.645m0-3.916a1.271,1.271,0,1,0,1.272,1.271,1.273,1.273,0,0,0-1.272-1.271" transform="translate(-4308.301 5512.26)" fill="#0059ab"/>
  </g>
</svg>
