<svg id="ic-educacion" xmlns="http://www.w3.org/2000/svg" width="47.102" height="44.005" viewBox="0 0 47.102 44.005">
  <path id="XMLID_58_" d="M94.633,99.276a.8.8,0,0,0-.967.571l-.791,3.12a.8.8,0,0,0,.571.967c.044,0,.132.044.176.044a.748.748,0,0,0,.747-.615l.791-3.12a.777.777,0,0,0-.527-.967Zm0,0" transform="translate(-61.459 -60.016)" fill="#4d4d4d"/>
  <path id="XMLID_55_" d="M44.951,48.576a.748.748,0,0,0,.308-.044l8.612-3.559a.779.779,0,1,0-.571-1.45L44.951,46.95l-21.97-9.1v-.264a.791.791,0,1,0-1.582,0v.791a.812.812,0,0,0,.483.747l22.76,9.4c.088,0,.22.044.308.044Zm0,0" transform="translate(-21.4 -25.002)" fill="#4d4d4d"/>
  <path id="XMLID_52_" d="M64.3,66.6a.788.788,0,0,0-1.055-.352,18.477,18.477,0,0,1-7.514,1.714v-7.03a.791.791,0,1,0-1.582,0v7.03c-9.711-.352-12.83-6.239-13.27-7.206V55.391a.791.791,0,1,0-1.582,0v5.492a.748.748,0,0,0,.044.308c.132.352,3.471,8.348,15.642,8.348A19.744,19.744,0,0,0,63.95,67.65.775.775,0,0,0,64.3,66.6Zm0,0" transform="translate(-31.435 -34.981)" fill="#4d4d4d"/>
  <path id="XMLID_49_" d="M100.791,101.1a.788.788,0,0,0-.791.791v2.373a.791.791,0,1,0,1.582,0v-2.373a.788.788,0,0,0-.791-.791Zm0,0" transform="translate(-65.464 -61.049)" fill="#4d4d4d"/>
  <path id="XMLID_44_" d="M67.712,21.748a.788.788,0,0,0-.791.791V22.8l-9.4,3.867V25.263l10.5-4.35a.753.753,0,0,0,.483-.7.812.812,0,0,0-.483-.747l-22.76-9.447a.749.749,0,0,0-.615,0l-22.76,9.447a.769.769,0,0,0-.483.747.812.812,0,0,0,.483.747l22.76,9.4a1.1,1.1,0,0,0,.615,0l8.217-3.383a.779.779,0,0,0-.571-1.45L45,28.822,24.256,20.166l20.7-8.568,20.7,8.568L56.639,23.9l-8.612-3.208a2.206,2.206,0,0,0,.088-.527c0-1.318-1.362-2.373-3.12-2.373s-3.12,1.055-3.12,2.373,1.362,2.373,3.12,2.373a3.653,3.653,0,0,0,2.021-.571l8.964,3.339V44.64a2.324,2.324,0,0,0-1.582,2.2,2.373,2.373,0,1,0,4.745,0,2.324,2.324,0,0,0-1.582-2.2V40.2a9.077,9.077,0,0,0,3.076-4.086.557.557,0,0,0,.044-.264V30.36a.791.791,0,1,0-1.582,0V35.72a7.726,7.726,0,0,1-1.582,2.373V28.339l10.5-4.306a.769.769,0,0,0,.483-.747v-.791a.78.78,0,0,0-.791-.747Zm-22.76-.791c-.967,0-1.582-.483-1.582-.791s.615-.791,1.582-.791,1.582.483,1.582.791-.615.791-1.582.791ZM56.727,47.628a.791.791,0,1,1,.791-.791.788.788,0,0,1-.791.791Zm0,0" transform="translate(-21.4 -9.95)" fill="#4d4d4d"/>
  <path id="XMLID_28_" d="M106.914,99.847a.794.794,0,1,0-1.538.4l.791,3.12a.793.793,0,0,0,.747.615.264.264,0,0,0,.176-.044.783.783,0,0,0,.571-.967Zm0,0" transform="translate(-68.467 -60.016)" fill="#4d4d4d"/>
</svg>
