<svg xmlns="http://www.w3.org/2000/svg" xmlns:xlink="http://www.w3.org/1999/xlink" width="50" height="50" viewBox="0 0 50 50">
  <defs>
    <clipPath id="clip-path">
      <rect id="Rectangle_1" data-name="Rectangle 1" width="50" height="50" fill="none"/>
    </clipPath>
    <clipPath id="clip-ic-girado">
      <rect width="50" height="50"/>
    </clipPath>
  </defs>
  <g id="ic-girado" clip-path="url(#clip-ic-girado)">
    <rect width="50" height="50" fill="#fff"/>
    <g id="Group_3" data-name="Group 3" transform="translate(-953 -533)">
      <g id="Group_2" data-name="Group 2" transform="translate(953 533)">
        <g id="Group_1" data-name="Group 1" transform="translate(0 0)" clip-path="url(#clip-path)">
          <path id="Path_1" data-name="Path 1" d="M13.435,13.747c-5.23,0-6.793-1.372-6.954-1.529A.914.914,0,0,1,6.32,12L1.425,2.357a.814.814,0,0,1,.137-.933.881.881,0,0,1,.949-.207L8.65,3.6,12.89.192a.873.873,0,0,1,1.093,0L18.22,3.6l6.142-2.385a.877.877,0,0,1,.946.207.814.814,0,0,1,.137.933L20.554,12a.845.845,0,0,1-.165.22c-.161.157-1.724,1.529-6.954,1.529M7.769,11.093c.336.21,1.83.989,5.666.989,3.8,0,5.3-.763,5.669-1l3.818-7.517L18.384,5.334a.878.878,0,0,1-.864-.133L13.435,1.914,9.353,5.2a.879.879,0,0,1-.864.133L3.948,3.569Z" transform="translate(3.243 -0.003)" fill="#1a1a1a"/>
          <path id="Path_2" data-name="Path 2" d="M10.812,10.5A19.16,19.16,0,0,1,2.867,8.535a.822.822,0,0,1-.411-.979l1.189-3.73a.859.859,0,0,1,1.069-.546A.826.826,0,0,1,5.28,4.322L4.31,7.363a17.27,17.27,0,0,0,6.5,1.472,17.2,17.2,0,0,0,6.5-1.472l-.97-3.041a.826.826,0,0,1,.566-1.042.859.859,0,0,1,1.069.546l1.189,3.73a.822.822,0,0,1-.411.979A19.16,19.16,0,0,1,10.812,10.5" transform="translate(5.866 7.554)" fill="#1a1a1a"/>
          <path id="Path_3" data-name="Path 3" d="M13.4,15.207a.863.863,0,0,1-.781-.49,45.49,45.49,0,0,0-5.614-9,.815.815,0,0,1,.123-1.169.876.876,0,0,1,1.206.117,46.765,46.765,0,0,1,5.847,9.366.828.828,0,0,1-.432,1.1.867.867,0,0,1-.35.073" transform="translate(16.546 10.161)" fill="#1a1a1a"/>
          <path id="Path_4" data-name="Path 4" d="M16.976,39.837c-.134,0-.233,0-.3-.007-.631.033-4.826.1-10.413-3.754A13.552,13.552,0,0,1,.147,26.571C-1.272,16.422,8.078,5.141,8.475,4.665a.876.876,0,0,1,1.206-.117A.814.814,0,0,1,9.8,5.718c-.093.11-9.278,11.2-7.959,20.633a11.942,11.942,0,0,0,5.412,8.367c5.426,3.74,9.309,3.451,9.347,3.451a.6.6,0,0,1,.154,0c.034,0,3.966.26,9.347-3.451a13.208,13.208,0,0,0,3.852-3.954.87.87,0,0,1,1.176-.29.82.82,0,0,1,.3,1.139,14.9,14.9,0,0,1-4.336,4.463c-5.025,3.461-8.925,3.76-10.118,3.76" transform="translate(0.001 10.162)" fill="#1a1a1a"/>
          <path id="Path_5" data-name="Path 5" d="M10.785,22.646H6.8a3.508,3.508,0,0,1-3.554-3.454.857.857,0,0,1,1.714,0A1.818,1.818,0,0,0,6.8,20.98h3.983a1.818,1.818,0,0,0,1.841-1.789V17.643a1.818,1.818,0,0,0-1.841-1.789H6.8A3.51,3.51,0,0,1,3.248,12.4V10.852A3.508,3.508,0,0,1,6.8,7.4h3.983a3.508,3.508,0,0,1,3.554,3.454.857.857,0,0,1-1.714,0,1.818,1.818,0,0,0-1.841-1.789H6.8a1.818,1.818,0,0,0-1.841,1.789V12.4A1.818,1.818,0,0,0,6.8,14.189h3.983a3.508,3.508,0,0,1,3.554,3.454v1.549a3.508,3.508,0,0,1-3.554,3.454" transform="translate(7.884 17.241)" fill="#1a1a1a"/>
          <path id="Path_6" data-name="Path 6" d="M5.473,10.932a.845.845,0,0,1-.857-.833V7.428a.857.857,0,0,1,1.714,0V10.1a.845.845,0,0,1-.857.833" transform="translate(11.205 15.369)" fill="#1a1a1a"/>
          <path id="Path_7" data-name="Path 7" d="M5.473,15.813a.845.845,0,0,1-.857-.833V12.309a.857.857,0,0,1,1.714,0V14.98a.845.845,0,0,1-.857.833" transform="translate(11.205 26.745)" fill="#1a1a1a"/>
          <path id="Path_8" data-name="Path 8" d="M21.811,24.05a.891.891,0,0,1-.356-.077.83.83,0,0,1-.5-.756V20.686H8.375a.833.833,0,1,1,0-1.665H21.811a.845.845,0,0,1,.857.833v1.555l6.91-5.749-6.91-5.752v1.559a.845.845,0,0,1-.857.833H8.676a.833.833,0,1,1,0-1.665H20.954V8.1a.834.834,0,0,1,.5-.756.885.885,0,0,1,.915.123l9.079,7.561a.823.823,0,0,1,.3.633.811.811,0,0,1-.3.629L22.369,23.85a.887.887,0,0,1-.559.2" transform="translate(18.25 16.939)" fill="#1a1a1a"/>
        </g>
      </g>
    </g>
  </g>
</svg>
