<svg xmlns="http://www.w3.org/2000/svg" xmlns:xlink="http://www.w3.org/1999/xlink" width="22" height="21.876" viewBox="0 0 22 21.876">
  <defs>
    <clipPath id="clip-path">
      <path id="icon_codepen" data-name="icon / codepen" d="M10.8,21.875a.355.355,0,0,1-.15-.05.355.355,0,0,0-.15-.05h-.2l-10-6.5c-.062,0-.085-.038-.118-.091A.555.555,0,0,0,.1,15.075a.357.357,0,0,0-.05-.15.357.357,0,0,1-.05-.15v-7.6a.525.525,0,0,0,.118-.209A1.955,1.955,0,0,1,.2,6.775a.522.522,0,0,1,.4-.2l10-6.5h.2a.855.855,0,0,1,.7,0h.2l10,6.5c.062,0,.085.038.118.091a.555.555,0,0,0,.082.109.357.357,0,0,0,.05.15.357.357,0,0,1,.05.15v7.5a.648.648,0,0,0-.089.119,1.95,1.95,0,0,1-.311.381c-.1,0-.2.1-.3.2l-10,6.5h-.2A.367.367,0,0,1,10.8,21.875Zm5.2-9.8-4,2.8v4.2l7.2-4.8-3.2-2.2h0Zm-10,0-3.2,2.2,7.2,4.7v-4.1Zm5-3.5-3.3,2.3,3.3,2.3,3.3-2.3Zm9,.7-2.3,1.6,2.3,1.6Zm-18,0v3.2l2.3-1.6Zm10-6.6v4.2l4,2.8,3.2-2.3Zm-2,0-7.2,4.7L6,9.675l4-2.8Z" transform="translate(1 1.125)" fill="#222b45"/>
    </clipPath>
  </defs>
  <g id="ic-how" transform="translate(-1 -1.125)">
    <g id="Group_156" data-name="Group 156">
      <path id="icon_codepen-2" data-name="icon / codepen" d="M10.8,21.875a.355.355,0,0,1-.15-.05.355.355,0,0,0-.15-.05h-.2l-10-6.5c-.062,0-.085-.038-.118-.091A.555.555,0,0,0,.1,15.075a.357.357,0,0,0-.05-.15.357.357,0,0,1-.05-.15v-7.6a.525.525,0,0,0,.118-.209A1.955,1.955,0,0,1,.2,6.775a.522.522,0,0,1,.4-.2l10-6.5h.2a.855.855,0,0,1,.7,0h.2l10,6.5c.062,0,.085.038.118.091a.555.555,0,0,0,.082.109.357.357,0,0,0,.05.15.357.357,0,0,1,.05.15v7.5a.648.648,0,0,0-.089.119,1.95,1.95,0,0,1-.311.381c-.1,0-.2.1-.3.2l-10,6.5h-.2A.367.367,0,0,1,10.8,21.875Zm5.2-9.8-4,2.8v4.2l7.2-4.8-3.2-2.2h0Zm-10,0-3.2,2.2,7.2,4.7v-4.1Zm5-3.5-3.3,2.3,3.3,2.3,3.3-2.3Zm9,.7-2.3,1.6,2.3,1.6Zm-18,0v3.2l2.3-1.6Zm10-6.6v4.2l4,2.8,3.2-2.3Zm-2,0-7.2,4.7L6,9.675l4-2.8Z" transform="translate(1 1.125)" fill="#222b45"/>
    </g>
  </g>
</svg>
