<svg xmlns="http://www.w3.org/2000/svg" xmlns:xlink="http://www.w3.org/1999/xlink" width="26" height="26" viewBox="0 0 26 26">
  <defs>
    <clipPath id="clip-path">
      <path id="icon_message-circle" data-name="icon / message-circle" d="M1.347,26a1.72,1.72,0,0,1-1.038-.39,1.432,1.432,0,0,1-.259-1.3l2.335-6.89a13.516,13.516,0,0,1-1.039-5.07A12.179,12.179,0,0,1,8.224,1.3,11.184,11.184,0,0,1,13.673,0h.649A12.242,12.242,0,0,1,26,11.57v.649a11.833,11.833,0,0,1-1.3,5.59,12.142,12.142,0,0,1-4.541,4.94,12.431,12.431,0,0,1-6.488,1.82,13.081,13.081,0,0,1-5.061-1.04L1.736,25.87A.479.479,0,0,1,1.347,26ZM13.673,2.6A9.911,9.911,0,0,0,9.392,3.64a9.606,9.606,0,0,0-5.45,8.711A9.958,9.958,0,0,0,4.98,16.64a1.019,1.019,0,0,1,.13,1.04L3.424,22.62,8.354,20.93a2.543,2.543,0,0,1,1.038.13,9.9,9.9,0,0,0,4.281,1.04,9.515,9.515,0,0,0,8.694-5.331A10.423,10.423,0,0,0,23.4,12.351V11.7a9.978,9.978,0,0,0-2.9-6.305,9.67,9.67,0,0,0-6.309-2.8Z" transform="translate(-0.001)" fill="#131313"/>
    </clipPath>
  </defs>
  <g id="ic-hc2" transform="translate(-1004 -613)">
    <path id="icon_help-circle" data-name="icon / help-circle" d="M3.745,11.788a.887.887,0,0,1-.686-.3.9.9,0,0,1-.293-.69.654.654,0,0,1,.061-.265.358.358,0,0,0,.036-.13c0-.1.1-.2.2-.3s.2-.2.294-.2a1.24,1.24,0,0,1,.587-.1c.1.1.1.1.2.1a.127.127,0,0,1,.1.049.127.127,0,0,0,.1.049.345.345,0,0,1,.2.1.653.653,0,0,1,.121.147.117.117,0,0,1-.024.149.6.6,0,0,1,.1.395.9.9,0,0,1-.293.69A.884.884,0,0,1,3.745,11.788Zm0-3.942a.942.942,0,0,1-.881-.689A.939.939,0,0,1,2.9,6.4a1.056,1.056,0,0,1,.551-.53C4.078,5.665,5.7,4.884,5.7,3.806A1.926,1.926,0,0,0,4.431,1.933a1.718,1.718,0,0,0-.645-.124,2.1,2.1,0,0,0-1.9,1.306,1.048,1.048,0,0,1-.95.653.859.859,0,0,1-.322-.062.525.525,0,0,1-.418-.2,1.108,1.108,0,0,1-.17-.882A3.805,3.805,0,0,1,5.019.258,3.791,3.791,0,0,1,7.663,3.9,3.625,3.625,0,0,1,6,6.75a6.92,6.92,0,0,1-1.959,1A.36.36,0,0,1,3.745,7.846Z" transform="translate(1013.322 619.602)" fill="#131313"/>
    <g id="icon_email_message-circle" data-name="icon / email / message-circle" transform="translate(1004.001 613)">
      <g id="Group_96" data-name="Group 96" transform="translate(0 0)">
        <path id="icon_message-circle-2" data-name="icon / message-circle" d="M1.347,26a1.72,1.72,0,0,1-1.038-.39,1.432,1.432,0,0,1-.259-1.3l2.335-6.89a13.516,13.516,0,0,1-1.039-5.07A12.179,12.179,0,0,1,8.224,1.3,11.184,11.184,0,0,1,13.673,0h.649A12.242,12.242,0,0,1,26,11.57v.649a11.833,11.833,0,0,1-1.3,5.59,12.142,12.142,0,0,1-4.541,4.94,12.431,12.431,0,0,1-6.488,1.82,13.081,13.081,0,0,1-5.061-1.04L1.736,25.87A.479.479,0,0,1,1.347,26ZM13.673,2.6A9.911,9.911,0,0,0,9.392,3.64a9.606,9.606,0,0,0-5.45,8.711A9.958,9.958,0,0,0,4.98,16.64a1.019,1.019,0,0,1,.13,1.04L3.424,22.62,8.354,20.93a2.543,2.543,0,0,1,1.038.13,9.9,9.9,0,0,0,4.281,1.04,9.515,9.515,0,0,0,8.694-5.331A10.423,10.423,0,0,0,23.4,12.351V11.7a9.978,9.978,0,0,0-2.9-6.305,9.67,9.67,0,0,0-6.309-2.8Z" transform="translate(-0.001)" fill="#131313"/>
      </g>
    </g>
  </g>
</svg>
