<svg id="ic-hc1" xmlns="http://www.w3.org/2000/svg" xmlns:xlink="http://www.w3.org/1999/xlink" width="27" height="25" viewBox="0 0 27 25">
  <defs>
    <clipPath id="clip-path">
      <path id="icon_book-open" data-name="icon / book-open" d="M13.5,25a1.173,1.173,0,0,1-1.227-1.25,2.48,2.48,0,0,0-2.454-2.5H1.227A1.173,1.173,0,0,1,0,20V1.25A1.173,1.173,0,0,1,1.227,0H8.591A6.212,6.212,0,0,1,13.5,2.5,6.214,6.214,0,0,1,18.41,0h7.363A1.173,1.173,0,0,1,27,1.25V20a1.173,1.173,0,0,1-1.227,1.25h-8.59a2.481,2.481,0,0,0-2.455,2.5A1.173,1.173,0,0,1,13.5,25ZM18.41,2.5a3.636,3.636,0,0,0-3.683,3.751V19.375a5.533,5.533,0,0,1,2.455-.624h7.363V2.5ZM2.454,2.5V18.751H9.818a5.521,5.521,0,0,1,2.454.624V6.251A3.635,3.635,0,0,0,8.591,2.5Z" fill="#222b45"/>
    </clipPath>
  </defs>
  <g id="Group_181" data-name="Group 181">
    <path id="icon_book-open-2" data-name="icon / book-open" d="M13.5,25a1.173,1.173,0,0,1-1.227-1.25,2.48,2.48,0,0,0-2.454-2.5H1.227A1.173,1.173,0,0,1,0,20V1.25A1.173,1.173,0,0,1,1.227,0H8.591A6.212,6.212,0,0,1,13.5,2.5,6.214,6.214,0,0,1,18.41,0h7.363A1.173,1.173,0,0,1,27,1.25V20a1.173,1.173,0,0,1-1.227,1.25h-8.59a2.481,2.481,0,0,0-2.455,2.5A1.173,1.173,0,0,1,13.5,25ZM18.41,2.5a3.636,3.636,0,0,0-3.683,3.751V19.375a5.533,5.533,0,0,1,2.455-.624h7.363V2.5ZM2.454,2.5V18.751H9.818a5.521,5.521,0,0,1,2.454.624V6.251A3.635,3.635,0,0,0,8.591,2.5Z" fill="#222b45"/>
  </g>
</svg>
