<svg xmlns="http://www.w3.org/2000/svg" xmlns:xlink="http://www.w3.org/1999/xlink" width="22" height="22" viewBox="0 0 22 22">
  <defs>
    <clipPath id="clip-path">
      <path id="icon_film" data-name="icon / film" d="M18.8,22H3.2A3.166,3.166,0,0,1,0,18.8V3.2A3.166,3.166,0,0,1,3.2,0H18.8A3.166,3.166,0,0,1,22,3.2V18.8A3.165,3.165,0,0,1,18.8,22ZM17,17v3h1.8A1.16,1.16,0,0,0,20,18.8V17ZM7,12v8h8V12ZM2,17v1.8A1.161,1.161,0,0,0,3.2,20H5V17Zm15-5v3h3V12ZM2,12v3H5V12ZM17,7v3h3V7ZM7,2v8h8V2ZM2,7v3H5V7ZM17,2V5h3V3.2A1.161,1.161,0,0,0,18.8,2ZM3.2,2A1.161,1.161,0,0,0,2,3.2V5H5V2Z" transform="translate(1 1)" fill="#222b45"/>
    </clipPath>
  </defs>
  <g id="ic-hc3" transform="translate(-1 -1)">
    <g id="Group_124" data-name="Group 124">
      <path id="icon_film-2" data-name="icon / film" d="M18.8,22H3.2A3.166,3.166,0,0,1,0,18.8V3.2A3.166,3.166,0,0,1,3.2,0H18.8A3.166,3.166,0,0,1,22,3.2V18.8A3.165,3.165,0,0,1,18.8,22ZM17,17v3h1.8A1.16,1.16,0,0,0,20,18.8V17ZM7,12v8h8V12ZM2,17v1.8A1.161,1.161,0,0,0,3.2,20H5V17Zm15-5v3h3V12ZM2,12v3H5V12ZM17,7v3h3V7ZM7,2v8h8V2ZM2,7v3H5V7ZM17,2V5h3V3.2A1.161,1.161,0,0,0,18.8,2ZM3.2,2A1.161,1.161,0,0,0,2,3.2V5H5V2Z" transform="translate(1 1)" fill="#222b45"/>
    </g>
  </g>
</svg>
