<svg xmlns="http://www.w3.org/2000/svg" xmlns:xlink="http://www.w3.org/1999/xlink" width="299.031" height="257.972" viewBox="0 0 299.031 257.972">
  <defs>
    <clipPath id="clip-path">
      <path id="Rectangle_4062" data-name="Rectangle 4062" d="M46.814,0h205.4a46.815,46.815,0,0,1,46.815,46.815V211.157a46.815,46.815,0,0,1-46.815,46.815H46.816A46.816,46.816,0,0,1,0,211.157V46.814A46.814,46.814,0,0,1,46.814,0Z" transform="translate(0 0)" fill="none"/>
    </clipPath>
  </defs>
  <g id="ic-indo-OP" transform="translate(-43.923 -0.001)">
    <g id="Group_4493" data-name="Group 4493" transform="translate(43.923 0.001)" clip-path="url(#clip-path)">
      <path id="Path_27612" data-name="Path 27612" d="M331.581,570.968c-.126,2.594.1,33.089,0,36.263-36.148,6.034-99.526,9.853-159.216,9.853-57.7,0-114.544-3.569-150.593-9.256.112-.2-.117-.405,0-.607-.034-13.955.168-20.825,0-36.916,36.156-6.1,90.511-9.973,150.593-9.973,62.231,0,123.09,4.153,159.216,10.637" transform="translate(-27.144 -423.795)" fill="#d7e8f7" fill-rule="evenodd"/>
      <path id="Path_27613" data-name="Path 27613" d="M328.281,647.323c.693,26.008-.461,12,0,37.414-36.156,6.109-95.316,9.984-155.432,9.984-62.537,0-119.362-5-155.474-11.543.146-5.974,1.063-29.2,1.1-35.356,36.148-6.034,94.687-9.853,154.377-9.853,58.027,0,119.36,3.61,155.432,9.354" transform="translate(-23.844 -482.515)" fill="#e3eff9" fill-rule="evenodd"/>
      <path id="Path_27614" data-name="Path 27614" d="M321.4,733.952c-.112,6.379,0,18.482,0,18.482s.026,13.732,0,20.214c-35.982,5.552-95.877,9.025-152.784,9.025-60.376,0-124.18-3.972-160.339-10.126,1.075-10.923,1.954-18.18,3.313-36.015,36.128-6.47,94.873-10.612,157.025-10.612,56.932,0,116.8,3.475,152.784,9.032" transform="translate(-16.965 -548.279)" fill="#f1f8fc" fill-rule="evenodd"/>
      <path id="Path_27615" data-name="Path 27615" d="M315.14,805.111c.222,2.189,0,7.974,0,7.974l-.439,61.622s-70.108,2.027-157.131,2.027S0,871.475,0,864.988c0-3.161,1.549-38.551,5.331-59.877Z" transform="translate(-10.703 -608.93)" fill="#deedf9" fill-rule="evenodd"/>
      <path id="Path_27616" data-name="Path 27616" d="M326.026,872.518a96.024,96.024,0,0,1,5.427,8.358l11.5,15.149c-24.4,1.893-85.311,1.893-152.164,1.893s-123.977-3.1-146.867-7.483c0,0,11.843-17.314,14.668-22.588q11.294-17.367,22.554-34.726H300.4q12.781,19.7,25.624,39.4" transform="translate(-43.922 -630.114)" fill="#86bae4" fill-rule="evenodd"/>
      <path id="Path_27617" data-name="Path 27617" d="M743.522,251.351h2.711v7.571h90.414v-7.571h2.711V422.328h-2.711V397.282H746.233v25.046h-2.711Zm93.125,100.842H746.232v42h90.414Zm0-45.09H746.232v42h90.414Zm0-45.089H746.232v42h90.414Z" transform="translate(-573.051 -190.105)" fill="#58595b" fill-rule="evenodd"/>
      <path id="Path_27618" data-name="Path 27618" d="M57.417,912.154c3.106-4.78,5.254-8.078,6.964-10.7,3.209-4.335,4.1-6.574,6.947-10.644,3.325-5.108,8.269-12.732,19.265-29.742H309.852c12.365,19.059,24.219,37.047,26.118,40.18,2.1,3.222,7.591,11.9,10.478,16.343-26.012,2.237-82.753,1.465-145.452,1.465-63.853,0-118.828-2.831-143.579-6.9" transform="translate(-54.129 -651.252)" fill="#c1dff4" fill-rule="evenodd"/>
      <path id="Path_27619" data-name="Path 27619" d="M801.5,205.492h63.669a2.59,2.59,0,0,1,2.585,2.585v34.714a2.59,2.59,0,0,1-2.585,2.586H801.5a2.591,2.591,0,0,1-2.586-2.586V208.077a2.591,2.591,0,0,1,2.586-2.585" transform="translate(-614.945 -155.42)" fill="#f09171" fill-rule="evenodd"/>
      <path id="Path_27620" data-name="Path 27620" d="M804.095,208.919h63.668a1.754,1.754,0,0,1,1.75,1.75v34.714a1.754,1.754,0,0,1-1.75,1.75H804.095a1.754,1.754,0,0,1-1.75-1.75V210.669a1.754,1.754,0,0,1,1.75-1.75" transform="translate(-617.54 -158.012)" fill="#fff" fill-rule="evenodd"/>
      <rect id="Rectangle_4000" data-name="Rectangle 4000" width="11.891" height="10.701" transform="translate(219.064 62.748)" fill="#00b0c3"/>
      <path id="Path_27621" data-name="Path 27621" d="M894.733,257.945l-36.575-.1,3.394-27.853,36.574.1Z" transform="translate(-659.754 -173.949)" fill="#86bae4" fill-rule="evenodd"/>
      <rect id="Rectangle_4001" data-name="Rectangle 4001" width="26.92" height="33.213" transform="translate(200.153 83.899) rotate(-89.843)" fill="#fff"/>
      <path id="Path_27622" data-name="Path 27622" d="M871.675,232.893l.008-2.9-13.446-.037-.008,2.9,0,1.941-.064,23.02,36.575.1.069-24.961Z" transform="translate(-659.754 -173.922)" fill="#a5cded" fill-rule="evenodd"/>
      <path id="Path_27623" data-name="Path 27623" d="M858.19,304.554l.026-9.329Z" transform="translate(-659.778 -223.288)" fill="#00abab" fill-rule="evenodd"/>
      <path id="Path_27624" data-name="Path 27624" d="M858.159,336.14l.008-2.628Z" transform="translate(-659.754 -252.245)" fill="#007c7c" fill-rule="evenodd"/>
      <path id="Path_27625" data-name="Path 27625" d="M918.585,262.337a23.575,23.575,0,0,1-6.471-.888,20.436,20.436,0,0,1-10.681-7.136,29.443,29.443,0,0,0,15.45-7.8,27.862,27.862,0,0,0,3.483-4.325l7.166.02-.051,18.551a26.348,26.348,0,0,1-8.895,1.574" transform="translate(-692.484 -183.177)" fill="#a5cded" fill-rule="evenodd"/>
      <path id="Path_27626" data-name="Path 27626" d="M913.647,231.049h0l0-.941Z" transform="translate(-701.721 -174.038)" fill="#8b660b" fill-rule="evenodd"/>
      <path id="Path_27627" data-name="Path 27627" d="M913.627,235.683h0l0-1.712Z" transform="translate(-701.706 -176.959)" fill="#dbdcdc" fill-rule="evenodd"/>
      <path id="Path_27628" data-name="Path 27628" d="M913.467,232.761c-.006-.086-.013-.171-.019-.258a21.038,21.038,0,0,1,0-2.4h.023l0,.941Z" transform="translate(-701.546 -174.038)" fill="#fff" fill-rule="evenodd"/>
      <path id="Path_27629" data-name="Path 27629" d="M1008.257,324.813l.017-6.41Z" transform="translate(-773.278 -240.818)" fill="#8b660b" fill-rule="evenodd"/>
      <path id="Path_27630" data-name="Path 27630" d="M858.3,245.859h0l.044-15.9-.008,2.9,0,1.941Z" transform="translate(-659.857 -173.921)" fill="#099" fill-rule="evenodd"/>
      <path id="Path_27631" data-name="Path 27631" d="M860.168,245.9q-.938,0-1.873-.044l.031-11.063.005-1.941.008-2.9,6.174.018c-.01.174-.021.348-.027.523a24.206,24.206,0,0,0,2.7,11.993,17.415,17.415,0,0,0,1.62,2.569c-1.185.236-2.382.419-3.581.553a45.428,45.428,0,0,1-5.057.293" transform="translate(-659.857 -173.921)" fill="#a5cded" fill-rule="evenodd"/>
      <path id="Path_27632" data-name="Path 27632" d="M858.19,304.554l.026-9.329Z" transform="translate(-659.778 -223.288)" fill="#009494" fill-rule="evenodd"/>
      <path id="Path_27633" data-name="Path 27633" d="M858.159,336.14l.008-2.628Z" transform="translate(-659.754 -252.245)" fill="#006969" fill-rule="evenodd"/>
      <path id="Path_27634" data-name="Path 27634" d="M894.733,304.793l-36.575-.1.008-2.628.026-9.329q.934.045,1.873.044a45.425,45.425,0,0,0,5.057-.293c1.2-.134,2.4-.317,3.581-.553a20.435,20.435,0,0,0,10.681,7.136,23.572,23.572,0,0,0,6.471.888,26.352,26.352,0,0,0,8.895-1.574Z" transform="translate(-659.753 -220.798)" fill="#a5cded" fill-rule="evenodd"/>
      <path id="Path_27635" data-name="Path 27635" d="M909.364,253.537h13.319a1.124,1.124,0,0,1,1.121,1.121v10.014a1.124,1.124,0,0,1-1.121,1.121h-3.849a6.074,6.074,0,0,0-2.681,4.215q-.533-3.352-2.94-4.215h-3.849a1.124,1.124,0,0,1-1.121-1.121V254.658a1.123,1.123,0,0,1,1.121-1.121" transform="translate(-697.634 -191.758)" fill="#fff" fill-rule="evenodd"/>
      <path id="Path_27636" data-name="Path 27636" d="M908.578,252.5H921.9a1.377,1.377,0,0,1,1.373,1.374v10.014a1.376,1.376,0,0,1-1.373,1.373h-3.771a6.455,6.455,0,0,0-1.694,1.756,5.6,5.6,0,0,0-.816,2.241.252.252,0,0,1-.5-.008,6.256,6.256,0,0,0-.958-2.613,3.674,3.674,0,0,0-1.773-1.376h-3.808a1.376,1.376,0,0,1-1.374-1.373V253.872a1.377,1.377,0,0,1,1.374-1.374M921.9,253H908.578a.87.87,0,0,0-.867.867v10.014a.87.87,0,0,0,.867.867h3.849a.259.259,0,0,1,.085.015,4.17,4.17,0,0,1,2.06,1.579,5.861,5.861,0,0,1,.8,1.734,5.96,5.96,0,0,1,.633-1.336,6.974,6.974,0,0,1,1.875-1.928.252.252,0,0,1,.167-.063H921.9a.87.87,0,0,0,.868-.867V253.872A.87.87,0,0,0,921.9,253" transform="translate(-696.848 -190.972)" fill="#5d9cd4" fill-rule="evenodd"/>
      <path id="Path_27637" data-name="Path 27637" d="M928.059,269.646l-3.463-1.008a1.439,1.439,0,1,1-.348-1.855l3.042-2.053-.022-.076a1.44,1.44,0,1,1,.454.746l-3.01,2.032a1.447,1.447,0,0,1,.081.431l3.418,1a1.439,1.439,0,1,1-.117,1,1.315,1.315,0,0,1-.035-.208" transform="translate(-707.976 -198.822)" fill="#5d9cd4" fill-rule="evenodd"/>
      <path id="Path_27638" data-name="Path 27638" d="M801.5,484.059h63.669a2.59,2.59,0,0,1,2.585,2.585v34.714a2.59,2.59,0,0,1-2.585,2.585H801.5a2.591,2.591,0,0,1-2.586-2.585V486.644a2.591,2.591,0,0,1,2.586-2.585" transform="translate(-614.945 -366.109)" fill="#f09171" fill-rule="evenodd"/>
      <path id="Path_27639" data-name="Path 27639" d="M804.095,487.486h63.668a1.754,1.754,0,0,1,1.75,1.75V523.95a1.754,1.754,0,0,1-1.75,1.75H804.095a1.754,1.754,0,0,1-1.75-1.75V489.236a1.755,1.755,0,0,1,1.75-1.75" transform="translate(-617.54 -368.701)" fill="#fff" fill-rule="evenodd"/>
      <path id="Path_27640" data-name="Path 27640" d="M801.5,771.933h63.669a2.59,2.59,0,0,1,2.585,2.585v34.714a2.59,2.59,0,0,1-2.585,2.585H801.5a2.591,2.591,0,0,1-2.586-2.585V774.518a2.591,2.591,0,0,1,2.586-2.585" transform="translate(-614.945 -583.836)" fill="#f09171" fill-rule="evenodd"/>
      <path id="Path_27641" data-name="Path 27641" d="M804.095,775.36h63.668a1.754,1.754,0,0,1,1.75,1.75v34.714a1.754,1.754,0,0,1-1.75,1.75H804.095a1.755,1.755,0,0,1-1.75-1.75V777.11a1.755,1.755,0,0,1,1.75-1.75" transform="translate(-617.54 -586.428)" fill="#fff" fill-rule="evenodd"/>
      <rect id="Rectangle_4002" data-name="Rectangle 4002" width="21.332" height="8.611" transform="translate(207.723 216.65)" fill="#ec743d"/>
      <rect id="Rectangle_4003" data-name="Rectangle 4003" width="32.358" height="7.885" transform="translate(202.21 217.376)" fill="#f6bca5"/>
      <path id="Path_27642" data-name="Path 27642" d="M876.645,901.052h30.119a.576.576,0,0,0,.555-.592v-5.68a.576.576,0,0,0-.555-.592H876.645a.576.576,0,0,0-.555.592v5.68a.576.576,0,0,0,.555.592" transform="translate(-673.316 -676.301)" fill="#f09171" fill-rule="evenodd"/>
      <path id="Path_27643" data-name="Path 27643" d="M880.111,905.054a.736.736,0,1,0-.736-.736.736.736,0,0,0,.736.736m0-2.142a.736.736,0,1,0-.736-.736.736.736,0,0,0,.736.736m7.67,0a.736.736,0,1,0-.737-.736.736.736,0,0,0,.737.736m-2.557,0a.736.736,0,1,0-.736-.736.736.736,0,0,0,.736.736m-2.557,0a.736.736,0,1,0-.736-.736.736.736,0,0,0,.736.736m5.113,2.142a.736.736,0,1,0-.737-.736.736.736,0,0,0,.737.736m-2.557,0a.736.736,0,1,0-.736-.736.736.736,0,0,0,.736.736m-2.557,0a.736.736,0,1,0-.736-.736.736.736,0,0,0,.736.736" transform="translate(-675.8 -681.786)" fill="#fff" fill-rule="evenodd"/>
      <rect id="Rectangle_4004" data-name="Rectangle 4004" width="0.919" height="4.561" transform="translate(214.727 219.06)" fill="#ec743d"/>
      <rect id="Rectangle_4005" data-name="Rectangle 4005" width="0.919" height="4.561" transform="translate(216.336 219.06)" fill="#fff"/>
      <rect id="Rectangle_4006" data-name="Rectangle 4006" width="0.919" height="4.561" transform="translate(217.943 219.06)" fill="#ec743d"/>
      <rect id="Rectangle_4007" data-name="Rectangle 4007" width="0.919" height="4.561" transform="translate(219.551 219.06)" fill="#fff"/>
      <rect id="Rectangle_4008" data-name="Rectangle 4008" width="0.92" height="4.561" transform="translate(221.159 219.06)" fill="#ec743d"/>
      <rect id="Rectangle_4009" data-name="Rectangle 4009" width="0.919" height="4.561" transform="translate(222.767 219.06)" fill="#fff"/>
      <rect id="Rectangle_4010" data-name="Rectangle 4010" width="0.919" height="4.561" transform="translate(224.375 219.06)" fill="#ec743d"/>
      <rect id="Rectangle_4011" data-name="Rectangle 4011" width="0.919" height="4.561" transform="translate(225.984 219.06)" fill="#fff"/>
      <rect id="Rectangle_4012" data-name="Rectangle 4012" width="0.919" height="4.561" transform="translate(227.592 219.06)" fill="#ec743d"/>
      <rect id="Rectangle_4013" data-name="Rectangle 4013" width="0.919" height="4.561" transform="translate(229.2 219.06)" fill="#fff"/>
      <rect id="Rectangle_4014" data-name="Rectangle 4014" width="0.919" height="4.561" transform="translate(230.808 219.06)" fill="#ec743d"/>
      <rect id="Rectangle_4015" data-name="Rectangle 4015" width="21.332" height="8.612" transform="translate(207.723 208.038)" fill="#ec743d"/>
      <rect id="Rectangle_4016" data-name="Rectangle 4016" width="32.358" height="7.886" transform="translate(202.21 208.764)" fill="#f6bca5"/>
      <path id="Path_27644" data-name="Path 27644" d="M876.645,865.711h30.119a.576.576,0,0,0,.555-.592v-5.681a.576.576,0,0,0-.555-.592H876.645a.576.576,0,0,0-.555.592v5.681a.576.576,0,0,0,.555.592" transform="translate(-673.316 -649.572)" fill="#f09171" fill-rule="evenodd"/>
      <path id="Path_27645" data-name="Path 27645" d="M881.843,869.412a.681.681,0,1,0-.681-.68.681.681,0,0,0,.681.68m0-1.982a.681.681,0,1,0-.681-.681.681.681,0,0,0,.681.681m7.1,0a.681.681,0,1,0-.681-.681.681.681,0,0,0,.681.681m-2.367,0a.681.681,0,1,0-.68-.681.681.681,0,0,0,.68.681m-2.365,0a.681.681,0,1,0-.681-.681.681.681,0,0,0,.681.681m4.732,1.982a.681.681,0,1,0-.681-.68.681.681,0,0,0,.681.68m-2.367,0a.681.681,0,1,0-.68-.68.681.681,0,0,0,.68.68m-2.365,0a.681.681,0,1,0-.681-.68.681.681,0,0,0,.681.68" transform="translate(-677.152 -655.033)" fill="#fff" fill-rule="evenodd"/>
      <rect id="Rectangle_4017" data-name="Rectangle 4017" width="0.919" height="4.562" transform="translate(214.727 210.448)" fill="#ec743d"/>
      <rect id="Rectangle_4018" data-name="Rectangle 4018" width="0.919" height="4.562" transform="translate(216.336 210.448)" fill="#fff"/>
      <rect id="Rectangle_4019" data-name="Rectangle 4019" width="0.919" height="4.562" transform="translate(217.943 210.448)" fill="#ec743d"/>
      <rect id="Rectangle_4020" data-name="Rectangle 4020" width="0.919" height="4.562" transform="translate(219.551 210.448)" fill="#fff"/>
      <rect id="Rectangle_4021" data-name="Rectangle 4021" width="0.92" height="4.562" transform="translate(221.159 210.448)" fill="#ec743d"/>
      <rect id="Rectangle_4022" data-name="Rectangle 4022" width="0.919" height="4.562" transform="translate(222.767 210.448)" fill="#fff"/>
      <rect id="Rectangle_4023" data-name="Rectangle 4023" width="0.919" height="4.562" transform="translate(224.375 210.448)" fill="#ec743d"/>
      <rect id="Rectangle_4024" data-name="Rectangle 4024" width="0.919" height="4.562" transform="translate(225.984 210.448)" fill="#fff"/>
      <rect id="Rectangle_4025" data-name="Rectangle 4025" width="0.919" height="4.562" transform="translate(227.592 210.448)" fill="#ec743d"/>
      <rect id="Rectangle_4026" data-name="Rectangle 4026" width="0.919" height="4.562" transform="translate(229.2 210.448)" fill="#fff"/>
      <rect id="Rectangle_4027" data-name="Rectangle 4027" width="0.919" height="4.562" transform="translate(230.808 210.448)" fill="#ec743d"/>
      <rect id="Rectangle_4028" data-name="Rectangle 4028" width="21.332" height="8.612" transform="translate(207.723 199.426)" fill="#ec743d"/>
      <rect id="Rectangle_4029" data-name="Rectangle 4029" width="32.358" height="7.885" transform="translate(202.21 200.153)" fill="#f6bca5"/>
      <path id="Path_27646" data-name="Path 27646" d="M876.645,830.368h30.119a.576.576,0,0,0,.555-.592v-5.681a.577.577,0,0,0-.555-.592H876.645a.577.577,0,0,0-.555.592v5.681a.576.576,0,0,0,.555.592" transform="translate(-673.316 -622.84)" fill="#f09171" fill-rule="evenodd"/>
      <path id="Path_27647" data-name="Path 27647" d="M881.843,834.073a.681.681,0,1,0-.681-.681.681.681,0,0,0,.681.681m0-1.983a.681.681,0,1,0-.681-.68.68.68,0,0,0,.681.68m7.1,0a.681.681,0,1,0-.681-.68.681.681,0,0,0,.681.68m-2.367,0a.681.681,0,1,0-.68-.68.681.681,0,0,0,.68.68m-2.365,0a.681.681,0,1,0-.681-.68.681.681,0,0,0,.681.68m4.732,1.983a.681.681,0,1,0-.681-.681.681.681,0,0,0,.681.681m-2.367,0a.681.681,0,1,0-.68-.681.681.681,0,0,0,.68.681m-2.365,0a.681.681,0,1,0-.681-.681.682.682,0,0,0,.681.681" transform="translate(-677.152 -628.305)" fill="#fff" fill-rule="evenodd"/>
      <rect id="Rectangle_4030" data-name="Rectangle 4030" width="0.919" height="4.561" transform="translate(214.727 201.837)" fill="#ec743d"/>
      <rect id="Rectangle_4031" data-name="Rectangle 4031" width="0.919" height="4.561" transform="translate(216.336 201.837)" fill="#fff"/>
      <rect id="Rectangle_4032" data-name="Rectangle 4032" width="0.919" height="4.561" transform="translate(217.943 201.837)" fill="#ec743d"/>
      <rect id="Rectangle_4033" data-name="Rectangle 4033" width="0.919" height="4.561" transform="translate(219.551 201.837)" fill="#fff"/>
      <rect id="Rectangle_4034" data-name="Rectangle 4034" width="0.92" height="4.561" transform="translate(221.159 201.837)" fill="#ec743d"/>
      <rect id="Rectangle_4035" data-name="Rectangle 4035" width="0.919" height="4.561" transform="translate(222.767 201.837)" fill="#fff"/>
      <rect id="Rectangle_4036" data-name="Rectangle 4036" width="0.919" height="4.561" transform="translate(224.375 201.837)" fill="#ec743d"/>
      <rect id="Rectangle_4037" data-name="Rectangle 4037" width="0.919" height="4.561" transform="translate(225.984 201.837)" fill="#fff"/>
      <rect id="Rectangle_4038" data-name="Rectangle 4038" width="0.919" height="4.561" transform="translate(227.592 201.837)" fill="#ec743d"/>
      <rect id="Rectangle_4039" data-name="Rectangle 4039" width="0.919" height="4.561" transform="translate(229.2 201.837)" fill="#fff"/>
      <rect id="Rectangle_4040" data-name="Rectangle 4040" width="0.919" height="4.561" transform="translate(230.808 201.837)" fill="#ec743d"/>
      <rect id="Rectangle_4041" data-name="Rectangle 4041" width="21.332" height="8.611" transform="translate(207.723 190.816)" fill="#ec743d"/>
      <rect id="Rectangle_4042" data-name="Rectangle 4042" width="32.358" height="7.885" transform="translate(202.21 191.541)" fill="#f6bca5"/>
      <path id="Path_27648" data-name="Path 27648" d="M876.645,795.03h30.119a.576.576,0,0,0,.555-.592v-5.681a.576.576,0,0,0-.555-.592H876.645a.576.576,0,0,0-.555.592v5.681a.576.576,0,0,0,.555.592" transform="translate(-673.316 -596.114)" fill="#f09171" fill-rule="evenodd"/>
      <path id="Path_27649" data-name="Path 27649" d="M881.843,798.731a.681.681,0,1,0-.681-.681.681.681,0,0,0,.681.681m0-1.982a.681.681,0,1,0-.681-.681.681.681,0,0,0,.681.681m7.1,0a.681.681,0,1,0-.681-.681.682.682,0,0,0,.681.681m-2.367,0a.681.681,0,1,0-.68-.681.681.681,0,0,0,.68.681m-2.365,0a.681.681,0,1,0-.681-.681.682.682,0,0,0,.681.681m4.732,1.982a.681.681,0,1,0-.681-.681.681.681,0,0,0,.681.681m-2.367,0a.681.681,0,1,0-.68-.681.681.681,0,0,0,.68.681m-2.365,0a.681.681,0,1,0-.681-.681.681.681,0,0,0,.681.681" transform="translate(-677.152 -601.574)" fill="#fff" fill-rule="evenodd"/>
      <rect id="Rectangle_4043" data-name="Rectangle 4043" width="0.919" height="4.562" transform="translate(214.727 193.225)" fill="#ec743d"/>
      <rect id="Rectangle_4044" data-name="Rectangle 4044" width="0.919" height="4.562" transform="translate(216.336 193.225)" fill="#fff"/>
      <rect id="Rectangle_4045" data-name="Rectangle 4045" width="0.919" height="4.562" transform="translate(217.943 193.225)" fill="#ec743d"/>
      <rect id="Rectangle_4046" data-name="Rectangle 4046" width="0.919" height="4.562" transform="translate(219.551 193.225)" fill="#fff"/>
      <rect id="Rectangle_4047" data-name="Rectangle 4047" width="0.92" height="4.562" transform="translate(221.159 193.225)" fill="#ec743d"/>
      <rect id="Rectangle_4048" data-name="Rectangle 4048" width="0.919" height="4.562" transform="translate(222.767 193.225)" fill="#fff"/>
      <rect id="Rectangle_4049" data-name="Rectangle 4049" width="0.919" height="4.562" transform="translate(224.375 193.225)" fill="#ec743d"/>
      <rect id="Rectangle_4050" data-name="Rectangle 4050" width="0.919" height="4.562" transform="translate(225.984 193.225)" fill="#fff"/>
      <rect id="Rectangle_4051" data-name="Rectangle 4051" width="0.919" height="4.562" transform="translate(227.592 193.225)" fill="#ec743d"/>
      <rect id="Rectangle_4052" data-name="Rectangle 4052" width="0.919" height="4.562" transform="translate(229.2 193.225)" fill="#fff"/>
      <rect id="Rectangle_4053" data-name="Rectangle 4053" width="0.919" height="4.562" transform="translate(230.808 193.225)" fill="#ec743d"/>
      <path id="Path_27650" data-name="Path 27650" d="M938.619,366.134a.378.378,0,1,1,.757,0v.78a.378.378,0,1,1-.757,0Zm.757,28.884a.378.378,0,1,1-.757,0v-.78a.378.378,0,1,1,.757,0Zm0-3.123a.378.378,0,1,1-.757,0v-.78a.378.378,0,1,1,.757,0Zm0-3.122a.378.378,0,1,1-.757,0v-.781a.378.378,0,1,1,.757,0Zm0-3.123a.378.378,0,1,1-.757,0v-.78a.378.378,0,1,1,.757,0Zm0-3.123a.378.378,0,1,1-.757,0v-.78a.378.378,0,1,1,.757,0Zm0-3.123a.378.378,0,1,1-.757,0v-.781a.378.378,0,1,1,.757,0Zm0-3.122a.378.378,0,1,1-.757,0V375.5a.378.378,0,1,1,.757,0Zm0-3.123a.378.378,0,1,1-.757,0v-.78a.378.378,0,1,1,.757,0Zm0-3.123a.378.378,0,1,1-.757,0v-.781a.378.378,0,1,1,.757,0Z" transform="translate(-720.608 -276.623)" fill="#ec743d" fill-rule="evenodd"/>
      <path id="Path_27651" data-name="Path 27651" d="M938.619,643.588a.38.38,0,1,1,.757,0v.841a.38.38,0,1,1-.757,0Zm.757,31.108a.38.38,0,1,1-.757,0v-.841a.38.38,0,1,1,.757,0Zm0-3.363a.38.38,0,1,1-.757,0v-.841a.38.38,0,1,1,.757,0Zm0-3.363a.38.38,0,1,1-.757,0v-.841a.38.38,0,1,1,.757,0Zm0-3.364a.38.38,0,1,1-.757,0v-.84a.38.38,0,1,1,.757,0Zm0-3.363a.38.38,0,1,1-.757,0V660.4a.38.38,0,1,1,.757,0Zm0-3.363a.38.38,0,1,1-.757,0v-.841a.38.38,0,1,1,.757,0Zm0-3.363a.38.38,0,1,1-.757,0v-.841a.38.38,0,1,1,.757,0Zm0-3.363a.38.38,0,1,1-.757,0v-.841a.38.38,0,1,1,.757,0Zm0-3.364a.38.38,0,1,1-.757,0v-.84a.38.38,0,1,1,.757,0Z" transform="translate(-720.608 -486.447)" fill="#ec743d" fill-rule="evenodd"/>
      <path id="Path_27652" data-name="Path 27652" d="M341.981,101.355v4.167h11.282a.835.835,0,0,1,.59,1.426l-20.58,20.579a.837.837,0,0,1-1.181,0l-20.578-20.579a.835.835,0,0,1,.59-1.426h11.282v-4.167h-14.3v20.519a5.912,5.912,0,0,1-5.9,5.9h-6.8a5.912,5.912,0,0,1-5.9-5.9V101.355h-18.03c-7.356,0-15.213-3.859-17.826-11.1a13.379,13.379,0,0,1,0-9.12c2.613-7.243,10.47-11.1,17.828-11.1a21.939,21.939,0,0,1,5.652.734,17.581,17.581,0,0,1-.133-2.158c0-10.769,9.444-18.628,19.9-18.628a21.278,21.278,0,0,1,4.751.535c3.2-13.088,15.454-21.858,28.857-21.858,15.846,0,29.643,12.217,29.643,28.372a27.33,27.33,0,0,1-.856,6.795c9.588,1.065,18.366,7.96,18.366,18.2a19.254,19.254,0,0,1-5.423,12.768c-2.467,2.718-6.182,5.533-9.763,6.535a8.8,8.8,0,0,1-3.594.031Z" transform="translate(-202.683 -21.673)" fill="#5d9cd4" fill-rule="evenodd"/>
      <path id="Path_27653" data-name="Path 27653" d="M275.051,73.457a20.872,20.872,0,0,1,6.692,1.085,16.719,16.719,0,0,1-.337-3.345c0-9.827,8.535-17.793,19.063-17.793a20.333,20.333,0,0,1,5.375.719c2.664-12.575,14.292-22.041,28.234-22.041,15.91,0,28.807,12.328,28.807,27.536a26.438,26.438,0,0,1-1.093,7.538c10.409.7,18.6,8.017,18.6,17.456s-9.025,16.945-14.576,18.5a8.027,8.027,0,0,1-3.3,0H275.051c-9.827,0-17.793-6.639-17.793-14.827s7.966-14.827,17.793-14.827" transform="translate(-205.275 -24.265)" fill="#a5cded" fill-rule="evenodd"/>
      <path id="Path_27654" data-name="Path 27654" d="M357.972,206.479,378.551,185.9l20.58,20.579H387.014V240.8a5.077,5.077,0,0,1-5.062,5.063h-6.8a5.077,5.077,0,0,1-5.062-5.063V206.479Z" transform="translate(-281.448 -140.602)" fill="#f1f2f2" fill-rule="evenodd"/>
      <path id="Path_27655" data-name="Path 27655" d="M492.976,225.286l20.58,20.58,20.58-20.58H522.018V190.962a5.077,5.077,0,0,0-5.062-5.062h-6.8a5.077,5.077,0,0,0-5.062,5.062v34.324Z" transform="translate(-383.555 -140.602)" fill="#262262" fill-rule="evenodd"/>
      <path id="Path_27656" data-name="Path 27656" d="M533.334,350.149q1.213-3.226,2.959-3.726a39.084,39.084,0,0,0,6.957-3.914q1.221,1.489-1.942,3.088a6.733,6.733,0,0,0-1.912,1.434q3.292,1.546,3.2,3.9-.468,1.814-1.181,2.084a.993.993,0,0,1-1.2-.275c-1.191,2.365-2.731,2.46-3.947,2.011-.344.074-.455.1-.754.183a10.811,10.811,0,0,0-2.173-4.785" transform="translate(-414.079 -259.05)" fill="#f4ae7c" fill-rule="evenodd"/>
      <path id="Path_27657" data-name="Path 27657" d="M145.354,588.333c3.347,2.332,6.15,19.662,6.424,51.988.356,12.128-1.75,28.2-4.473,49.313a19.553,19.553,0,0,1-7.958.95c-3.455-26.209-4.02-42.943-1.446-49.809a192.9,192.9,0,0,1-8.28-26.155q-2.226,18.631-5.257,29.57-6.719,17.511-19.911,45.867a13.471,13.471,0,0,1-7.754-1.709c3.075-23.128,8.952-40.505,14.486-46.262-5.264-29.558-.883-44.952,5.65-53.984,11.656,1.735,21.775,1.614,28.519.232" transform="translate(-83.839 -444.799)" fill="#414042" fill-rule="evenodd"/>
      <path id="Path_27658" data-name="Path 27658" d="M136.346,408.329c-8.72-33.8.776-46.113,19.45-46.263a31.475,31.475,0,0,0,6.613,10.065,18.942,18.942,0,0,1,4.271-5.717,19.555,19.555,0,0,1,4.929,5.061,21.078,21.078,0,0,0-.987-9.067q10.077.7,31.423,9.979a273.411,273.411,0,0,1,28.65-7.805l.037.029c.284-.071,2.459,4.953,2.551,4.977-.714,2.309-27.907,12.128-30.715,13.22-8.1-.066-16.275.252-24.517-2.642-.118,24.309-1.829,34.417-5.181,37.211a61,61,0,0,1-11.743,1.05,11.526,11.526,0,0,0-.736,2.322c-2.14-.665-4.495-1.758-7.089-2.6l-.713-.29c-2.544-1.031-4.809-2.07-6.857-3.147a46.525,46.525,0,0,1-9.385-6.381" transform="translate(-111.354 -273.842)" fill="#d1d3d4" fill-rule="evenodd"/>
      <path id="Path_27659" data-name="Path 27659" d="M179.4,574.874l9.154,4.377-9.229-1.1Z" transform="translate(-146.33 -434.795)" fill="#231f20" fill-rule="evenodd"/>
      <path id="Path_27660" data-name="Path 27660" d="M145.672,1019.119c-6.661.311-11.64.544-13.983-.037-2.528-.627-2.11-2.172-.838-4.68a9.711,9.711,0,0,0,7.524-.625q3.249,2.3,9.367,2.762c1.789,1.154,1.165,2.32-2.069,2.579m-51.855.989c-3.7-1.045-6.88-1.765-8.2-2.7-1.774-1.247-.813-2.744.994-4.632a9.717,9.717,0,0,0,7.382,1.584c1.958,2.781,8.325,1.612,8.952,3.518.78,3.547-7.428,2.706-9.126,2.226" transform="translate(-74.744 -765.997)" fill="#594a42" fill-rule="evenodd"/>
      <path id="Path_27661" data-name="Path 27661" d="M258.366,419.6c.617-9.517,1.369-21.1,2.122-35.471a6.692,6.692,0,0,1-1.551-1.209,14.993,14.993,0,0,1,2.4-2.657,15.426,15.426,0,0,1,2.835,2.465,6.959,6.959,0,0,1-1.525,1.409q1.052,13.266,2.159,36.154a7.91,7.91,0,0,1-3.2,3.958,8.5,8.5,0,0,1-3.237-4.648" transform="translate(-206.113 -287.605)" fill="#498ac9" fill-rule="evenodd"/>
      <path id="Path_27662" data-name="Path 27662" d="M232.925,362.834a31.462,31.462,0,0,1-6.612-10.064,7.772,7.772,0,0,1,2.549-3c3.693,3.855,6.042,6.01,8.3,7.321l.039.022.088-.309a55.128,55.128,0,0,0,1.832-6.743,7.3,7.3,0,0,1,2.022,3.045,21.083,21.083,0,0,1,.987,9.068,26.891,26.891,0,0,0-2.094-2.6,15.415,15.415,0,0,0-2.835-2.464,14.97,14.97,0,0,0-2.4,2.657,24.949,24.949,0,0,0-1.87,3.061" transform="translate(-181.87 -264.545)" fill="#5d9cd4" fill-rule="evenodd"/>
      <path id="Path_27663" data-name="Path 27663" d="M203.364,439.107a6.206,6.206,0,0,1-.1-1.825,22.825,22.825,0,0,0,8.411-.658,3.043,3.043,0,0,1,.35,1.613q-2.853,1.068-8.656.87" transform="translate(-164.417 -330.232)" fill="#a7a9ac" fill-rule="evenodd"/>
      <path id="Path_27664" data-name="Path 27664" d="M228.649,288.633a9.05,9.05,0,0,0,1.448-2.847q-.311-.949-.642-2.4-6.062-4.312-1.549-6.219a7.981,7.981,0,0,1,2.169,3.16c.712-.013.042-1.869.424-2.559-.784-2.952-.066-3.843-.284-5.679,2.087-2.96,7.146-3.753,13.387-2.809.53,5.752,2.305,19.324-4.65,18.886l-.05.757a55.385,55.385,0,0,1-1.831,6.742l-.128.287c-2.252-1.311-4.6-3.466-8.3-7.32" transform="translate(-181.618 -203.381)" fill="#f4ae7c" fill-rule="evenodd"/>
      <path id="Path_27665" data-name="Path 27665" d="M233.49,248.814c-6.242-.944-10.977-.617-13.065,2.343.217,1.836-.292,2.956.491,5.908-.381.691.08,2.317-.631,2.33a7.982,7.982,0,0,0-2.169-3.16q-4.514,1.908,1.549,6.219.331,1.449.642,2.4c-7.1-4.171-10.209-14.277-3.738-19.017,1.312-8.378,13.353-.689,19.553-4.608,2.357,3.409-.737,7.551-2.631,7.586" transform="translate(-171.828 -182.448)" fill="#231f20" fill-rule="evenodd"/>
      <path id="Path_27666" data-name="Path 27666" d="M259.851,345.552a20.031,20.031,0,0,0,4.72.585l-.05.758c-.073.455-.163.911-.267,1.365l-.041-.014a9.439,9.439,0,0,1-4.362-2.694" transform="translate(-207.236 -261.352)" fill="#ed7d5b" fill-rule="evenodd"/>
      <path id="Path_27667" data-name="Path 27667" d="M265.94,383.123a3.916,3.916,0,0,0,.417-.482q-2.061-2.191-2.935-2.379a33.607,33.607,0,0,0-1.512,3.286c-.393-.31-.667-.613-.789-.715a15.193,15.193,0,0,1,2.3-2.571,14.766,14.766,0,0,1,2.518,2.86" transform="translate(-208.196 -287.605)" fill="#498ac9" fill-rule="evenodd"/>
      <path id="Path_27668" data-name="Path 27668" d="M101.977,1002.783a9.18,9.18,0,0,0-.343,3.128,9.653,9.653,0,0,1-6.179-1.212,12.892,12.892,0,0,0,1.179-3.191,14.508,14.508,0,0,0,5.342,1.275m37.576,3.256a20.352,20.352,0,0,0,.137-2.741,21.049,21.049,0,0,0,5.351-.546,6.65,6.65,0,0,0,1,2.725,9.618,9.618,0,0,1-6.487.561" transform="translate(-82.899 -757.471)" fill="#f5b58b" fill-rule="evenodd"/>
      <path id="Path_27669" data-name="Path 27669" d="M206.445,372.954a41.283,41.283,0,0,0-2.41-3.59,3.841,3.841,0,0,0,.417-.482,26.862,26.862,0,0,1,2.088,2.587c-.019.506-.049,1-.1,1.485m6.543,7.214a52.3,52.3,0,0,0-.327-5.944,13.769,13.769,0,0,0,3.522,6.914c-1.064-.275-2.129-.6-3.2-.97m-15.641-8.033a25.017,25.017,0,0,1,1.87-3.061c.122.1.4.4.789.715-.606,1.478-1.265,3.235-1.9,5.091a46.022,46.022,0,0,1-7.372-12.81,31.464,31.464,0,0,0,6.612,10.064m-1.285,46.3a10.159,10.159,0,0,1,2.305-2.9c-9.393-6.528-14.886-10.285-19.095-12.933a73.652,73.652,0,0,0,1.979-19.756q2.082,11.267.5,19.147c7.317,5.057,14.121,10.329,18.561,14.017l-.3.523a13.163,13.163,0,0,1,1.967,1.65c-1.839.153-3.819.238-5.92.248" transform="translate(-146.292 -273.845)" fill="#58595b" fill-rule="evenodd"/>
      <path id="Path_27670" data-name="Path 27670" d="M245.575,586.55c1.667,1.392,3,1.6,4.717,2.595,2.936.143,4.154-.092,5.064-1.374,1.021-2.318-.162-4.527-1.527-4.064-.323.948-1.294,1.231-2.392.939q-.458-1.766-1.872-1.626c-.35-.361-.867-.912-1.143-1.21-2.474,1.923-2.406,3.13-2.847,4.74" transform="translate(-196.438 -440.041)" fill="#f4ae7c" fill-rule="evenodd"/>
      <path id="Path_27671" data-name="Path 27671" d="M214.511,264.783a1.709,1.709,0,0,0,.134-2.212,3.4,3.4,0,0,0-3.441,1.011q1-.252,3.307,1.2" transform="translate(-170.443 -198.512)" fill="#231f20" fill-rule="evenodd"/>
      <path id="Path_27672" data-name="Path 27672" d="M225.35,252.5q-.874.977-1.6.431a3.812,3.812,0,0,1,.53-3.24,4.883,4.883,0,0,0,1.074,2.808" transform="translate(-179.821 -188.847)" fill="#231f20" fill-rule="evenodd"/>
      <path id="Path_27673" data-name="Path 27673" d="M278.944,260.419q.075-2.719,2.118-3.258a5.958,5.958,0,0,1,3.8,5.016q-1.149-1.4-5.914-1.758" transform="translate(-221.676 -194.499)" fill="#231f20" fill-rule="evenodd"/>
      <path id="Path_27674" data-name="Path 27674" d="M261.825,243.136c.277.771-.084,1.779,1.006,2.014.721,3.324,3.344-1.16,3.292-2.4q-.7.524-4.3.386" transform="translate(-208.729 -183.599)" fill="#231f20" fill-rule="evenodd"/>
      <path id="Path_27675" data-name="Path 27675" d="M263.28,288.431c-.428-.057-.81.343-.854.9a.971.971,0,0,0,.693,1.1c.427.057.81-.344.854-.9a.97.97,0,0,0-.693-1.1" transform="translate(-209.18 -218.145)" fill="#bad9f2" fill-rule="evenodd"/>
      <path id="Path_27676" data-name="Path 27676" d="M263.117,290.423a.973.973,0,0,1-.694-1.1c.044-.552.426-.953.855-.9a.716.716,0,0,1,.458.274l-.059-.018c-.138-.018-.262.112-.277.29a.315.315,0,0,0,.225.358c.138.018.262-.112.277-.29V289a1.251,1.251,0,0,1,.069.526c-.044.552-.426.954-.854.9" transform="translate(-209.177 -218.14)" fill="#414042" fill-rule="evenodd"/>
      <path id="Path_27677" data-name="Path 27677" d="M254,282.579c.021.02.04.035.059.056a1.669,1.669,0,0,0-.175-.288.479.479,0,0,1,.113.106.83.83,0,0,1,.089.167.87.87,0,0,0-.026-.179.463.463,0,0,1,.06.2.7.7,0,0,0-.086-.381.579.579,0,0,1,.158.345.383.383,0,0,0,.023-.159.287.287,0,0,1,.032.173l.055-.075c-.009.046-.023.058-.031.1a.745.745,0,0,0,.26-.469.7.7,0,0,1-.09.2,1.108,1.108,0,0,0,.031-.313,2.1,2.1,0,0,0-.041.242.636.636,0,0,1-.09.214.984.984,0,0,0,.033-.475l-.007.044a1.333,1.333,0,0,1-.017.259c-.021-.152-.007-.291-.131-.405a1.153,1.153,0,0,1,.077.175c-.067-.07-.093-.2-.205-.213a1.32,1.32,0,0,1,.146.178.345.345,0,0,1,.073.252.6.6,0,0,0-.416-.475c.051.027.21.145.224.212v.012c-.012.074-.011-.067,0,.017a.456.456,0,0,1,.1.134.576.576,0,0,1,.04.1.6.6,0,0,1,.013.06.106.106,0,0,1,0,.028l0,.017a.692.692,0,0,0-.239-.391.991.991,0,0,0-.359-.188l.007.005.087.042a.784.784,0,0,1,.472.5c-.012-.011,0,0-.017-.022a.142.142,0,0,1-.01-.015,1.2,1.2,0,0,0-.153-.224,1.027,1.027,0,0,0-.22-.179,1.3,1.3,0,0,0-.549-.151,2.46,2.46,0,0,1,.379.1.739.739,0,0,1,.319.211,1.041,1.041,0,0,1-.131-.063,2.747,2.747,0,0,0-1-.283,2.152,2.152,0,0,1,.54.186l-.1-.023c.028.014.053.032.084.047s.054.025.084.042a1.166,1.166,0,0,1,.438.382c-.037-.036-.087-.074-.131-.111s-.088-.071-.137-.1a2.248,2.248,0,0,0-.291-.185,2.874,2.874,0,0,0-.65-.24.22.22,0,0,1,.093.058,7.72,7.72,0,0,0-.994-.189c.1.036.276.05.393.086l.108.041a3.443,3.443,0,0,1-.355-.069,4.939,4.939,0,0,0-1.122-.132,1.92,1.92,0,0,0-1.361.422,1.56,1.56,0,0,0-.126.12,2.344,2.344,0,0,1,.628-.365,3.874,3.874,0,0,0-.98.737c.075-.047.18-.146.262-.21s.186-.136.285-.2a2.57,2.57,0,0,1,.678-.329,2.776,2.776,0,0,1-.258.148,9.26,9.26,0,0,0-1.378.948c-.05.042-.151.148-.189.173.046-.018.225-.16.285-.2a3.37,3.37,0,0,1,1-.522,8.573,8.573,0,0,0-1.015.559l.6-.3a2.975,2.975,0,0,1,.689-.243,5.775,5.775,0,0,0-1.293.6c.094-.032.23-.109.332-.154.12-.052.237-.1.36-.144a3.8,3.8,0,0,1,.775-.2,4.315,4.315,0,0,1,1.036-.007c.1.011.233.035.325.035a1.126,1.126,0,0,0-.288-.056,4.447,4.447,0,0,0-.6-.047c-.08,0-.245.019-.311.008a4.393,4.393,0,0,1,.635-.063.052.052,0,0,1-.027,0,.059.059,0,0,1-.024-.012,1.975,1.975,0,0,1,.491.063c.14.034.421.144.435.147a.677.677,0,0,1-.093-.069l.341.081-.419-.155a2.552,2.552,0,0,1,.277.075c.1.025.305.076.4.112a1.589,1.589,0,0,0,.424.073,1.9,1.9,0,0,0-.236-.084l-.226-.08a1.023,1.023,0,0,1-.115-.045,3.42,3.42,0,0,0-.324-.139,2.408,2.408,0,0,0-.98-.191,2.056,2.056,0,0,1,1.02.164l.454.188c.041.013.072.031.112.048a3.254,3.254,0,0,0,.34.127l-.008-.025a.012.012,0,0,1,0,0,.013.013,0,0,0,0,0,.015.015,0,0,1,0-.005.7.7,0,0,0,.212.077c-.109-.1-.383-.189-.477-.322a1.488,1.488,0,0,1,.291.17c.031.021.062.033.091.051a1.175,1.175,0,0,0-.338-.327l-.134-.081a.685.685,0,0,1,.327.19,2.195,2.195,0,0,1,.229.251.185.185,0,0,0,.016.018c.015.016.008.007.021.012l-.1-.176c.019.035.158.177.165.225a.821.821,0,0,0-.113-.238l.066.047a1.7,1.7,0,0,0-.51-.416,1.087,1.087,0,0,1,.536.377c.049.068.082.153.127.21l-.049-.14.007.006.074.088a.924.924,0,0,0-.248-.379.252.252,0,0,1,.118.077.66.66,0,0,1,.094.108,1.283,1.283,0,0,1,.148.28.451.451,0,0,0-.038-.17c.031.01,0,0,.033.016a.494.494,0,0,1,.106.147l-.018-.105.072.105a1.743,1.743,0,0,0-.068-.232.384.384,0,0,1,.113.19.268.268,0,0,0-.016-.127l.081.084c.021.028.041.064.06.09a.777.777,0,0,0-.1-.212c.088.055.118.14.181.233a.789.789,0,0,0-.155-.331c.1.017.154.268.2.32l0-.108c.008.006,0,0,.018.018l.058.107-.007-.139a.471.471,0,0,1,.069.14.852.852,0,0,0-.019-.181c.02.01,0,0,.027.02.042.04.058.1.1.141l-.042-.112a.085.085,0,0,1,.022.012Z" transform="translate(-198.55 -212.957)" fill="#414042" fill-rule="evenodd"/>
      <path id="Path_27678" data-name="Path 27678" d="M291.591,287.51a.973.973,0,0,1,.643,1.1c-.04.552-.395.953-.79.9a.973.973,0,0,1-.643-1.1c.041-.551.395-.953.79-.9" transform="translate(-230.641 -217.449)" fill="#bad9f2" fill-rule="evenodd"/>
      <path id="Path_27679" data-name="Path 27679" d="M291.44,289.5c.4.057.75-.344.791-.9a.974.974,0,0,0-.644-1.1.566.566,0,0,0-.456.148l.056,0a.316.316,0,0,1,.209.358c-.013.178-.127.309-.256.29a.316.316,0,0,1-.208-.357l0-.038a1.255,1.255,0,0,0-.139.5.973.973,0,0,0,.644,1.1" transform="translate(-230.638 -217.445)" fill="#414042" fill-rule="evenodd"/>
      <path id="Path_27680" data-name="Path 27680" d="M286.048,283.118a.583.583,0,0,0-.044.056,1.966,1.966,0,0,1,.132-.287.455.455,0,0,0-.084.106,1,1,0,0,0-.066.167,1.31,1.31,0,0,1,.021-.179.636.636,0,0,0-.046.2.921.921,0,0,1,.069-.38.7.7,0,0,0-.12.344.554.554,0,0,1-.014-.159.4.4,0,0,0-.026.173l-.038-.075c.006.046.016.058.02.1a.847.847,0,0,1-.176-.468.811.811,0,0,0,.06.2,1.525,1.525,0,0,1-.017-.313c.019.07.012.166.025.243a.788.788,0,0,0,.06.214,1.354,1.354,0,0,1-.015-.475l0,.044a1.9,1.9,0,0,0,.008.259.737.737,0,0,1,.1-.4,1.371,1.371,0,0,0-.059.175c.049-.07.069-.2.151-.211a1.315,1.315,0,0,0-.108.176.453.453,0,0,0-.056.252c.056-.276.17-.422.306-.473a.544.544,0,0,0-.165.211v.013c.007.074.009-.067,0,.017a.477.477,0,0,0-.076.134,1,1,0,0,0-.03.1c0,.015-.009.044-.011.059a.262.262,0,0,0,0,.028l0,.018a.766.766,0,0,1,.179-.39.686.686,0,0,1,.26-.187l0,0-.063.042a.746.746,0,0,0-.347.5c.008-.011,0,0,.013-.022a.068.068,0,0,0,.007-.015,1.285,1.285,0,0,1,.114-.223.864.864,0,0,1,.161-.178.75.75,0,0,1,.4-.15,1.373,1.373,0,0,0-.273.1.578.578,0,0,0-.234.21.664.664,0,0,0,.1-.062,1.577,1.577,0,0,1,.719-.28,1.312,1.312,0,0,0-.39.184l.075-.022c-.021.014-.038.031-.061.046a.613.613,0,0,0-.06.041,1.036,1.036,0,0,0-.32.38c.027-.036.064-.075.1-.11s.065-.071.1-.105a1.756,1.756,0,0,1,.212-.183,1.708,1.708,0,0,1,.47-.237.159.159,0,0,0-.068.057,4.314,4.314,0,0,1,.715-.185c-.075.036-.2.049-.283.084l-.078.041a1.887,1.887,0,0,0,.256-.069,2.615,2.615,0,0,1,.8-.127,1.108,1.108,0,0,1,.6.126,1.456,1.456,0,0,1,.363.3,1.385,1.385,0,0,1,.087.121c-.082-.058-.261-.313-.443-.367a3.02,3.02,0,0,1,.688.739c-.052-.047-.125-.147-.184-.21s-.131-.137-.2-.2a1.663,1.663,0,0,0-.479-.331,1.8,1.8,0,0,0,.181.149,6.962,6.962,0,0,1,.969.951c.035.042.1.149.132.175-.032-.019-.158-.161-.2-.2a2.228,2.228,0,0,0-.7-.525,5.733,5.733,0,0,1,.716.561l-.422-.3a1.75,1.75,0,0,0-.488-.244,3.652,3.652,0,0,1,.914.6c-.067-.033-.163-.11-.235-.156s-.167-.1-.255-.145a2.1,2.1,0,0,0-.55-.206,2.211,2.211,0,0,0-.742-.011,1.861,1.861,0,0,1-.233.033.623.623,0,0,1,.208-.054,2.307,2.307,0,0,1,.431-.046,1.878,1.878,0,0,0,.223.01,2.248,2.248,0,0,0-.453-.066c.014,0,.006,0,.019,0s.007,0,.017-.013a1.059,1.059,0,0,0-.352.061c-.1.034-.3.143-.314.146a.64.64,0,0,0,.068-.069l-.245.079.3-.154a1.429,1.429,0,0,0-.2.075,2.786,2.786,0,0,0-.287.11.83.83,0,0,1-.3.071,1.106,1.106,0,0,1,.17-.083l.164-.079a.763.763,0,0,0,.083-.045,2.333,2.333,0,0,1,.235-.138c.143-.078.556-.248.7-.188-.191-.088-.592.084-.732.161l-.328.186c-.03.013-.051.031-.081.048a2.047,2.047,0,0,1-.246.126l.006-.024v-.005s0,0,0,0a.017.017,0,0,0,0,0,.445.445,0,0,1-.153.076c.079-.1.278-.187.348-.32a1.06,1.06,0,0,0-.212.168c-.023.021-.045.033-.066.051a1.091,1.091,0,0,1,.248-.325l.1-.08c-.08.008-.176.114-.237.188a2.029,2.029,0,0,0-.168.25.123.123,0,0,1-.011.017c-.011.016-.005.009-.016.013l.076-.176a1.64,1.64,0,0,0-.122.224,1.047,1.047,0,0,1,.086-.237l-.048.046a1.45,1.45,0,0,1,.374-.414c-.111.017-.315.233-.391.375-.036.069-.061.153-.1.209l.038-.14L286.7,283l-.055.088a1.042,1.042,0,0,1,.184-.378.2.2,0,0,0-.085.076.7.7,0,0,0-.07.108,1.636,1.636,0,0,0-.11.279.6.6,0,0,1,.03-.17c-.022.01,0,0-.024.015a.541.541,0,0,0-.08.147l.015-.105-.053.1a2.3,2.3,0,0,1,.053-.231.436.436,0,0,0-.084.189.37.37,0,0,1,.013-.127l-.06.084c-.015.028-.03.063-.045.09a.982.982,0,0,1,.077-.212.737.737,0,0,0-.134.232.982.982,0,0,1,.117-.329c-.069.016-.114.267-.149.319l0-.109a.1.1,0,0,0-.012.018l-.044.108.008-.139a.579.579,0,0,0-.052.139,1.192,1.192,0,0,1,.017-.18c-.014.01,0,0-.02.02-.03.039-.043.1-.071.14l.033-.111c-.012.007,0,0-.016.012Z" transform="translate(-226.767 -213.372)" fill="#414042" fill-rule="evenodd"/>
      <path id="Path_27681" data-name="Path 27681" d="M281.689,294.323a.173.173,0,1,1,.243-.247,9.156,9.156,0,0,1,.843,1.991,15.384,15.384,0,0,1,.724,2.545c-.1.994-.849,1.026-1.356,1.047a.985.985,0,0,0-.282.03.173.173,0,1,1-.191-.289.933.933,0,0,1,.46-.087c.385-.016.954-.04,1.025-.737a17.089,17.089,0,0,0-.706-2.4,9.965,9.965,0,0,0-.759-1.857" transform="translate(-223.679 -222.381)" fill="#f09171" fill-rule="evenodd"/>
      <path id="Path_27682" data-name="Path 27682" d="M266.505,323.844q4.855,3.322,5.655.432a12.974,12.974,0,0,1-5.655-.432" transform="translate(-212.268 -244.933)" fill="#fff" fill-rule="evenodd"/>
      <path id="Path_27683" data-name="Path 27683" d="M322.829,502.586h-30.3a1.512,1.512,0,0,0-1.371,1.085l-5.39,20.529a.81.81,0,0,0,.8,1.086h30.3a1.514,1.514,0,0,0,1.371-1.086l5.391-20.529a.811.811,0,0,0-.8-1.085" transform="translate(-226.811 -380.121)" fill="#f6bca5" fill-rule="evenodd"/>
      <path id="Path_27684" data-name="Path 27684" d="M284.9,515.58l3.66-13.936a1.514,1.514,0,0,1,1.371-1.086h30.3c.6,0,1.66.771,1.483,1.363a.793.793,0,0,0-.835-.869h-30.3a1.513,1.513,0,0,0-1.371,1.085l-5.39,20.528a.854.854,0,0,0,.215.875c-.5-.322-.975-.945-.863-1.368Z" transform="translate(-224.862 -378.587)" fill="#ec743d" fill-rule="evenodd"/>
      <path id="Path_27685" data-name="Path 27685" d="M257.837,591.132h30.3a1.2,1.2,0,0,0,.332-.049c-.6,1.563-2.241,1.332-2.881,1.327H249.665c-1.947-.083-1.9-1.448-1.922-2.764h8.631a1.768,1.768,0,0,0,.878,1.275.851.851,0,0,0,.585.211" transform="translate(-198.078 -445.967)" fill="#ec743d" fill-rule="evenodd"/>
      <path id="Path_27686" data-name="Path 27686" d="M296.2,537.229c16.684,8.439,16.654-.379,28.217,4.146l-2.253,8.582H292.853Z" transform="translate(-232.196 -406.323)" fill="#ec743d" fill-rule="evenodd"/>
      <path id="Path_27687" data-name="Path 27687" d="M267.009,595.123c-.518-1.8-.691-1.889-2.772-1.889a3.7,3.7,0,0,0-2.464,1.222c-.692.549-1.8.8-.964,1.6a4.029,4.029,0,0,0,4.3.35c.6-.474,2.009-.911,1.9-1.282" transform="translate(-207.734 -448.681)" fill="#f4ae7c" fill-rule="evenodd"/>
      <rect id="Rectangle_4054" data-name="Rectangle 4054" width="5.437" height="4.893" transform="translate(207.942 125.671)" fill="#00b0c3"/>
      <path id="Path_27688" data-name="Path 27688" d="M875.255,515.942,858.53,515.9l1.552-12.736,16.725.046Z" transform="translate(-660.035 -380.555)" fill="#86bae4" fill-rule="evenodd"/>
      <rect id="Rectangle_4055" data-name="Rectangle 4055" width="12.31" height="15.187" transform="translate(199.295 135.343) rotate(-89.843)" fill="#fff"/>
      <path id="Path_27689" data-name="Path 27689" d="M864.71,504.485l0-1.327-6.148-.017,0,1.327,0,.888-.029,10.526,16.725.046.032-11.414Z" transform="translate(-660.035 -380.541)" fill="#a5cded" fill-rule="evenodd"/>
      <path id="Path_27690" data-name="Path 27690" d="M858.544,537.254l.012-4.266Z" transform="translate(-660.045 -403.115)" fill="#00abab" fill-rule="evenodd"/>
      <path id="Path_27691" data-name="Path 27691" d="M858.53,551.7l0-1.2Z" transform="translate(-660.035 -416.358)" fill="#007c7c" fill-rule="evenodd"/>
      <path id="Path_27692" data-name="Path 27692" d="M886.161,517.95a10.774,10.774,0,0,1-2.959-.406,9.347,9.347,0,0,1-4.884-3.263,13.464,13.464,0,0,0,7.065-3.565,12.741,12.741,0,0,0,1.593-1.978l3.277.009-.024,8.483a12.043,12.043,0,0,1-4.067.72" transform="translate(-675.001 -384.774)" fill="#a5cded" fill-rule="evenodd"/>
      <path id="Path_27693" data-name="Path 27693" d="M883.9,503.642h0v0Z" transform="translate(-679.225 -380.595)" fill="#8b660b" fill-rule="evenodd"/>
      <path id="Path_27694" data-name="Path 27694" d="M883.894,505.761h0l0-.783Z" transform="translate(-679.218 -381.93)" fill="#dbdcdc" fill-rule="evenodd"/>
      <path id="Path_27695" data-name="Path 27695" d="M883.821,504.425c0-.039-.006-.078-.009-.118a9.669,9.669,0,0,1,0-1.1h.011v.43Z" transform="translate(-679.145 -380.595)" fill="#fff" fill-rule="evenodd"/>
      <path id="Path_27696" data-name="Path 27696" d="M927.166,546.518l.008-2.931Z" transform="translate(-711.946 -411.131)" fill="#8b660b" fill-rule="evenodd"/>
      <path id="Path_27697" data-name="Path 27697" d="M858.593,510.414h0l.02-7.273,0,1.327,0,.888Z" transform="translate(-660.082 -380.541)" fill="#099" fill-rule="evenodd"/>
      <path id="Path_27698" data-name="Path 27698" d="M859.449,510.435q-.429,0-.856-.02l.014-5.059,0-.888,0-1.327,2.823.008c0,.079-.01.159-.012.239a11.071,11.071,0,0,0,1.235,5.484,7.973,7.973,0,0,0,.741,1.175c-.542.108-1.089.191-1.638.253a20.778,20.778,0,0,1-2.312.134" transform="translate(-660.082 -380.542)" fill="#a5cded" fill-rule="evenodd"/>
      <path id="Path_27699" data-name="Path 27699" d="M858.544,537.254l.012-4.266Z" transform="translate(-660.045 -403.115)" fill="#009494" fill-rule="evenodd"/>
      <path id="Path_27700" data-name="Path 27700" d="M858.53,551.7l0-1.2Z" transform="translate(-660.035 -416.358)" fill="#006969" fill-rule="evenodd"/>
      <path id="Path_27701" data-name="Path 27701" d="M875.255,537.364l-16.724-.046,0-1.2.012-4.266q.428.021.857.02a20.785,20.785,0,0,0,2.312-.134q.823-.092,1.638-.253a9.344,9.344,0,0,0,4.884,3.263,10.785,10.785,0,0,0,2.959.406,12.045,12.045,0,0,0,4.067-.72Z" transform="translate(-660.035 -401.977)" fill="#a5cded" fill-rule="evenodd"/>
      <path id="Path_27702" data-name="Path 27702" d="M881.944,513.926h6.09a.514.514,0,0,1,.513.512v4.579a.514.514,0,0,1-.513.512h-1.76a2.777,2.777,0,0,0-1.226,1.927,2.192,2.192,0,0,0-1.344-1.927h-1.76a.514.514,0,0,1-.512-.512v-4.579a.514.514,0,0,1,.512-.512" transform="translate(-677.356 -388.698)" fill="#fff" fill-rule="evenodd"/>
      <path id="Path_27703" data-name="Path 27703" d="M881.585,513.45h6.091a.63.63,0,0,1,.628.628v4.579a.629.629,0,0,1-.628.628h-1.724a2.952,2.952,0,0,0-.774.8,2.562,2.562,0,0,0-.373,1.025.115.115,0,0,1-.229,0,2.862,2.862,0,0,0-.438-1.195,1.68,1.68,0,0,0-.811-.63h-1.741a.629.629,0,0,1-.628-.628v-4.579a.63.63,0,0,1,.628-.628m6.091.232h-6.091a.4.4,0,0,0-.4.4v4.579a.4.4,0,0,0,.4.4h1.76a.114.114,0,0,1,.039.007,1.906,1.906,0,0,1,.942.722,2.673,2.673,0,0,1,.366.793,2.724,2.724,0,0,1,.289-.611,3.19,3.19,0,0,1,.857-.882.115.115,0,0,1,.076-.029h1.76a.4.4,0,0,0,.4-.4v-4.579a.4.4,0,0,0-.4-.4" transform="translate(-676.997 -388.338)" fill="#5d9cd4" fill-rule="evenodd"/>
      <path id="Path_27704" data-name="Path 27704" d="M890.494,521.292l-1.584-.461a.658.658,0,1,1-.159-.848l1.391-.939-.01-.035a.658.658,0,1,1,.207.341l-1.376.929a.637.637,0,0,1,.019.064.672.672,0,0,1,.018.133l1.563.455a.658.658,0,1,1-.054.455.614.614,0,0,1-.016-.095" transform="translate(-682.086 -391.928)" fill="#5d9cd4" fill-rule="evenodd"/>
      <rect id="Rectangle_4056" data-name="Rectangle 4056" width="5.437" height="4.893" transform="translate(231.434 125.981)" fill="#00b0c3"/>
      <path id="Path_27705" data-name="Path 27705" d="M971.663,517.214l-16.724-.046,1.552-12.736,16.724.046Z" transform="translate(-732.951 -381.517)" fill="#86bae4" fill-rule="evenodd"/>
      <rect id="Rectangle_4057" data-name="Rectangle 4057" width="12.31" height="15.187" transform="translate(222.787 135.653) rotate(-89.843)" fill="#fff"/>
      <path id="Path_27706" data-name="Path 27706" d="M961.119,505.757l0-1.327-6.149-.017,0,1.327,0,.888-.029,10.526,16.724.046.032-11.414Z" transform="translate(-732.951 -381.503)" fill="#a5cded" fill-rule="evenodd"/>
      <path id="Path_27707" data-name="Path 27707" d="M954.953,538.526l.011-4.266Z" transform="translate(-732.962 -404.077)" fill="#00abab" fill-rule="evenodd"/>
      <path id="Path_27708" data-name="Path 27708" d="M954.938,552.971l0-1.2Z" transform="translate(-732.951 -417.32)" fill="#007c7c" fill-rule="evenodd"/>
      <path id="Path_27709" data-name="Path 27709" d="M982.57,519.222a10.777,10.777,0,0,1-2.959-.406,9.347,9.347,0,0,1-4.884-3.263,13.464,13.464,0,0,0,7.065-3.565,12.74,12.74,0,0,0,1.593-1.978l3.277.009-.024,8.483a12.05,12.05,0,0,1-4.067.72" transform="translate(-747.917 -385.736)" fill="#a5cded" fill-rule="evenodd"/>
      <path id="Path_27710" data-name="Path 27710" d="M980.312,504.914h0v0Z" transform="translate(-752.142 -381.557)" fill="#8b660b" fill-rule="evenodd"/>
      <path id="Path_27711" data-name="Path 27711" d="M980.3,507.033h0l0-.783Z" transform="translate(-752.135 -382.892)" fill="#dbdcdc" fill-rule="evenodd"/>
      <path id="Path_27712" data-name="Path 27712" d="M980.229,505.7c0-.039-.006-.078-.009-.118a9.669,9.669,0,0,1,0-1.1h.011v.43Z" transform="translate(-752.061 -381.557)" fill="#fff" fill-rule="evenodd"/>
      <path id="Path_27713" data-name="Path 27713" d="M1023.575,547.79l.008-2.931Z" transform="translate(-784.863 -412.093)" fill="#8b660b" fill-rule="evenodd"/>
      <path id="Path_27714" data-name="Path 27714" d="M955,511.686h0l.02-7.273,0,1.327,0,.888Z" transform="translate(-732.998 -381.503)" fill="#099" fill-rule="evenodd"/>
      <path id="Path_27715" data-name="Path 27715" d="M955.857,511.707q-.429,0-.856-.02l.014-5.059,0-.888,0-1.327,2.823.008c0,.079-.01.159-.012.239a11.07,11.07,0,0,0,1.235,5.484,7.967,7.967,0,0,0,.741,1.175c-.542.108-1.089.191-1.638.253a20.77,20.77,0,0,1-2.312.134" transform="translate(-732.999 -381.504)" fill="#a5cded" fill-rule="evenodd"/>
      <path id="Path_27716" data-name="Path 27716" d="M954.953,538.526l.011-4.266Z" transform="translate(-732.962 -404.077)" fill="#009494" fill-rule="evenodd"/>
      <path id="Path_27717" data-name="Path 27717" d="M954.938,552.971l0-1.2Z" transform="translate(-732.951 -417.32)" fill="#006969" fill-rule="evenodd"/>
      <path id="Path_27718" data-name="Path 27718" d="M971.663,538.636l-16.725-.046,0-1.2.011-4.266q.428.02.857.02a20.753,20.753,0,0,0,2.312-.134q.823-.092,1.638-.253a9.343,9.343,0,0,0,4.884,3.263,10.784,10.784,0,0,0,2.959.406,12.043,12.043,0,0,0,4.067-.72Z" transform="translate(-732.951 -402.939)" fill="#a5cded" fill-rule="evenodd"/>
      <path id="Path_27719" data-name="Path 27719" d="M978.352,515.2h6.09a.514.514,0,0,1,.513.512v4.579a.514.514,0,0,1-.513.512h-1.76a2.777,2.777,0,0,0-1.226,1.927,2.192,2.192,0,0,0-1.344-1.927h-1.76a.514.514,0,0,1-.513-.512V515.71a.514.514,0,0,1,.513-.512" transform="translate(-750.272 -389.66)" fill="#fff" fill-rule="evenodd"/>
      <path id="Path_27720" data-name="Path 27720" d="M977.993,514.722h6.091a.63.63,0,0,1,.628.628v4.579a.629.629,0,0,1-.628.628H982.36a2.95,2.95,0,0,0-.774.8,2.562,2.562,0,0,0-.373,1.025.115.115,0,0,1-.229,0,2.866,2.866,0,0,0-.438-1.195,1.681,1.681,0,0,0-.811-.629h-1.741a.629.629,0,0,1-.628-.628V515.35a.63.63,0,0,1,.628-.628m6.091.232h-6.091a.4.4,0,0,0-.4.4v4.579a.4.4,0,0,0,.4.4h1.76a.116.116,0,0,1,.039.007,1.907,1.907,0,0,1,.942.722,2.675,2.675,0,0,1,.366.793,2.727,2.727,0,0,1,.29-.611,3.188,3.188,0,0,1,.857-.882.115.115,0,0,1,.076-.029h1.76a.4.4,0,0,0,.4-.4V515.35a.4.4,0,0,0-.4-.4" transform="translate(-749.913 -389.3)" fill="#5d9cd4" fill-rule="evenodd"/>
      <path id="Path_27721" data-name="Path 27721" d="M986.9,522.564l-1.583-.461a.658.658,0,1,1-.159-.848l1.391-.939-.01-.035a.659.659,0,1,1,.207.341l-1.376.929a.64.64,0,0,1,.019.064.674.674,0,0,1,.018.133l1.563.455a.658.658,0,1,1-.054.455.606.606,0,0,1-.016-.1" transform="translate(-755.002 -392.89)" fill="#5d9cd4" fill-rule="evenodd"/>
      <rect id="Rectangle_4058" data-name="Rectangle 4058" width="5.437" height="4.893" transform="translate(207.776 142.098)" fill="#00b0c3"/>
      <path id="Path_27722" data-name="Path 27722" d="M874.574,583.355l-16.725-.046,1.552-12.736,16.725.046Z" transform="translate(-659.52 -431.541)" fill="#86bae4" fill-rule="evenodd"/>
      <rect id="Rectangle_4059" data-name="Rectangle 4059" width="12.31" height="15.187" transform="translate(199.129 151.77) rotate(-89.843)" fill="#fff"/>
      <path id="Path_27723" data-name="Path 27723" d="M864.03,571.9l0-1.327-6.149-.017,0,1.327,0,.888-.029,10.526,16.725.046.032-11.414Z" transform="translate(-659.52 -431.528)" fill="#a5cded" fill-rule="evenodd"/>
      <path id="Path_27724" data-name="Path 27724" d="M857.864,604.668l.011-4.266Z" transform="translate(-659.531 -454.102)" fill="#00abab" fill-rule="evenodd"/>
      <path id="Path_27725" data-name="Path 27725" d="M857.849,619.112l0-1.2Z" transform="translate(-659.52 -467.344)" fill="#007c7c" fill-rule="evenodd"/>
      <path id="Path_27726" data-name="Path 27726" d="M885.481,585.363a10.775,10.775,0,0,1-2.959-.406,9.347,9.347,0,0,1-4.884-3.263,13.464,13.464,0,0,0,7.065-3.565,12.745,12.745,0,0,0,1.593-1.978l3.277.009-.024,8.483a12.05,12.05,0,0,1-4.067.72" transform="translate(-674.486 -435.76)" fill="#a5cded" fill-rule="evenodd"/>
      <path id="Path_27727" data-name="Path 27727" d="M883.222,571.056h0v0Z" transform="translate(-678.71 -431.581)" fill="#8b660b" fill-rule="evenodd"/>
      <path id="Path_27728" data-name="Path 27728" d="M883.213,573.175h0l0-.783Z" transform="translate(-678.703 -432.917)" fill="#dbdcdc" fill-rule="evenodd"/>
      <path id="Path_27729" data-name="Path 27729" d="M883.14,571.838c0-.039-.006-.078-.009-.118a9.669,9.669,0,0,1,0-1.1h.011v.43Z" transform="translate(-678.63 -431.581)" fill="#fff" fill-rule="evenodd"/>
      <path id="Path_27730" data-name="Path 27730" d="M926.485,613.932l.008-2.931Z" transform="translate(-711.431 -462.119)" fill="#8b660b" fill-rule="evenodd"/>
      <path id="Path_27731" data-name="Path 27731" d="M857.912,577.828h0l.02-7.273,0,1.327,0,.887Z" transform="translate(-659.567 -431.528)" fill="#099" fill-rule="evenodd"/>
      <path id="Path_27732" data-name="Path 27732" d="M858.768,577.848q-.429,0-.856-.02l.014-5.059,0-.888,0-1.327,2.823.008c0,.079-.009.159-.012.239a11.072,11.072,0,0,0,1.235,5.484,7.987,7.987,0,0,0,.741,1.175c-.542.108-1.089.191-1.638.253a20.785,20.785,0,0,1-2.312.134" transform="translate(-659.567 -431.528)" fill="#a5cded" fill-rule="evenodd"/>
      <path id="Path_27733" data-name="Path 27733" d="M857.864,604.668l.011-4.266Z" transform="translate(-659.531 -454.102)" fill="#009494" fill-rule="evenodd"/>
      <path id="Path_27734" data-name="Path 27734" d="M857.849,619.112l0-1.2Z" transform="translate(-659.52 -467.344)" fill="#006969" fill-rule="evenodd"/>
      <path id="Path_27735" data-name="Path 27735" d="M874.573,604.778l-16.724-.046,0-1.2.012-4.266q.428.02.857.02a20.772,20.772,0,0,0,2.312-.134c.548-.061,1.1-.145,1.638-.253a9.345,9.345,0,0,0,4.884,3.263,10.789,10.789,0,0,0,2.959.406,12.046,12.046,0,0,0,4.067-.72Z" transform="translate(-659.52 -452.964)" fill="#a5cded" fill-rule="evenodd"/>
      <path id="Path_27736" data-name="Path 27736" d="M881.263,581.339h6.09a.514.514,0,0,1,.513.512v4.579a.514.514,0,0,1-.513.512h-1.76a2.777,2.777,0,0,0-1.226,1.927,2.192,2.192,0,0,0-1.344-1.927h-1.76a.514.514,0,0,1-.512-.512v-4.579a.514.514,0,0,1,.512-.512" transform="translate(-676.841 -439.684)" fill="#fff" fill-rule="evenodd"/>
      <path id="Path_27737" data-name="Path 27737" d="M880.9,580.864h6.091a.63.63,0,0,1,.628.628v4.579a.63.63,0,0,1-.628.628h-1.724a2.95,2.95,0,0,0-.774.8,2.562,2.562,0,0,0-.373,1.025.115.115,0,0,1-.229,0,2.865,2.865,0,0,0-.438-1.195,1.68,1.68,0,0,0-.811-.629H880.9a.629.629,0,0,1-.628-.628v-4.579a.63.63,0,0,1,.628-.628m6.091.232H880.9a.4.4,0,0,0-.4.4v4.579a.4.4,0,0,0,.4.4h1.76a.114.114,0,0,1,.039.007,1.907,1.907,0,0,1,.942.722,2.68,2.68,0,0,1,.366.793,2.723,2.723,0,0,1,.29-.611,3.188,3.188,0,0,1,.857-.882.115.115,0,0,1,.076-.029h1.76a.4.4,0,0,0,.4-.4v-4.579a.4.4,0,0,0-.4-.4" transform="translate(-676.482 -439.325)" fill="#5d9cd4" fill-rule="evenodd"/>
      <path id="Path_27738" data-name="Path 27738" d="M889.813,588.706l-1.584-.461a.658.658,0,1,1-.159-.848l1.391-.939-.01-.035a.658.658,0,1,1,.207.341l-1.377.929a.621.621,0,0,1,.019.064.672.672,0,0,1,.018.133l1.563.455a.658.658,0,1,1-.054.455.61.61,0,0,1-.016-.1" transform="translate(-681.571 -442.915)" fill="#5d9cd4" fill-rule="evenodd"/>
      <rect id="Rectangle_4060" data-name="Rectangle 4060" width="5.437" height="4.893" transform="translate(231.268 142.408)" fill="#00b0c3"/>
      <path id="Path_27739" data-name="Path 27739" d="M970.982,584.627l-16.724-.046,1.552-12.736,16.725.046Z" transform="translate(-732.436 -432.503)" fill="#86bae4" fill-rule="evenodd"/>
      <rect id="Rectangle_4061" data-name="Rectangle 4061" width="12.31" height="15.187" transform="translate(222.621 152.08) rotate(-89.843)" fill="#fff"/>
      <path id="Path_27740" data-name="Path 27740" d="M960.438,573.171l0-1.327-6.149-.017,0,1.327,0,.888-.029,10.526,16.724.046.032-11.414Z" transform="translate(-732.436 -432.49)" fill="#a5cded" fill-rule="evenodd"/>
      <path id="Path_27741" data-name="Path 27741" d="M954.272,605.94l.012-4.266Z" transform="translate(-732.447 -455.064)" fill="#00abab" fill-rule="evenodd"/>
      <path id="Path_27742" data-name="Path 27742" d="M954.257,620.384l0-1.2Z" transform="translate(-732.436 -468.306)" fill="#007c7c" fill-rule="evenodd"/>
      <path id="Path_27743" data-name="Path 27743" d="M981.888,586.635a10.774,10.774,0,0,1-2.959-.406,9.347,9.347,0,0,1-4.884-3.263,13.464,13.464,0,0,0,7.065-3.565,12.746,12.746,0,0,0,1.593-1.978l3.277.009-.024,8.483a12.05,12.05,0,0,1-4.067.72" transform="translate(-747.402 -436.723)" fill="#a5cded" fill-rule="evenodd"/>
      <path id="Path_27744" data-name="Path 27744" d="M979.631,572.328h0v0Z" transform="translate(-751.627 -432.543)" fill="#8b660b" fill-rule="evenodd"/>
      <path id="Path_27745" data-name="Path 27745" d="M979.621,574.447h0l0-.783Z" transform="translate(-751.62 -433.879)" fill="#dbdcdc" fill-rule="evenodd"/>
      <path id="Path_27746" data-name="Path 27746" d="M979.548,573.11c0-.039-.006-.078-.009-.118a9.67,9.67,0,0,1,0-1.1h.011v.43Z" transform="translate(-751.546 -432.543)" fill="#fff" fill-rule="evenodd"/>
      <path id="Path_27747" data-name="Path 27747" d="M1022.894,615.2l.008-2.931Z" transform="translate(-784.348 -463.081)" fill="#8b660b" fill-rule="evenodd"/>
      <path id="Path_27748" data-name="Path 27748" d="M954.32,579.1h0l.02-7.273,0,1.327,0,.887Z" transform="translate(-732.483 -432.49)" fill="#099" fill-rule="evenodd"/>
      <path id="Path_27749" data-name="Path 27749" d="M955.176,579.12q-.429,0-.856-.02l.014-5.059,0-.888,0-1.327,2.823.008c0,.079-.009.159-.012.239a11.07,11.07,0,0,0,1.235,5.484,7.974,7.974,0,0,0,.741,1.175c-.542.108-1.089.191-1.638.253a20.785,20.785,0,0,1-2.312.134" transform="translate(-732.483 -432.49)" fill="#a5cded" fill-rule="evenodd"/>
      <path id="Path_27750" data-name="Path 27750" d="M954.272,605.94l.012-4.266Z" transform="translate(-732.447 -455.064)" fill="#009494" fill-rule="evenodd"/>
      <path id="Path_27751" data-name="Path 27751" d="M954.257,620.384l0-1.2Z" transform="translate(-732.436 -468.306)" fill="#006969" fill-rule="evenodd"/>
      <path id="Path_27752" data-name="Path 27752" d="M970.983,606.05,954.258,606l0-1.2.012-4.266q.428.02.857.02a20.77,20.77,0,0,0,2.312-.134c.548-.061,1.1-.145,1.638-.253a9.344,9.344,0,0,0,4.884,3.263,10.788,10.788,0,0,0,2.959.406,12.048,12.048,0,0,0,4.067-.72Z" transform="translate(-732.437 -453.926)" fill="#a5cded" fill-rule="evenodd"/>
      <path id="Path_27753" data-name="Path 27753" d="M977.672,582.611h6.09a.514.514,0,0,1,.513.512V587.7a.514.514,0,0,1-.513.512H982a2.778,2.778,0,0,0-1.226,1.927,2.192,2.192,0,0,0-1.344-1.927h-1.76a.514.514,0,0,1-.513-.512v-4.579a.514.514,0,0,1,.513-.512" transform="translate(-749.757 -440.646)" fill="#fff" fill-rule="evenodd"/>
      <path id="Path_27754" data-name="Path 27754" d="M977.312,582.136H983.4a.63.63,0,0,1,.628.628v4.579a.629.629,0,0,1-.628.628h-1.724a2.951,2.951,0,0,0-.774.8,2.562,2.562,0,0,0-.373,1.025.115.115,0,0,1-.229,0,2.865,2.865,0,0,0-.438-1.195,1.68,1.68,0,0,0-.811-.629h-1.741a.629.629,0,0,1-.628-.628v-4.579a.63.63,0,0,1,.628-.628m6.091.232h-6.091a.4.4,0,0,0-.4.4v4.579a.4.4,0,0,0,.4.4h1.76a.114.114,0,0,1,.039.007,1.906,1.906,0,0,1,.942.722,2.684,2.684,0,0,1,.366.793,2.725,2.725,0,0,1,.289-.611,3.189,3.189,0,0,1,.857-.882.115.115,0,0,1,.076-.029h1.76a.4.4,0,0,0,.4-.4v-4.579a.4.4,0,0,0-.4-.4" transform="translate(-749.398 -440.287)" fill="#5d9cd4" fill-rule="evenodd"/>
      <path id="Path_27755" data-name="Path 27755" d="M986.221,589.978l-1.584-.461a.658.658,0,1,1-.159-.848l1.391-.939-.01-.035a.658.658,0,1,1,.207.341l-1.377.929a.646.646,0,0,1,.019.064.673.673,0,0,1,.018.133l1.563.455a.658.658,0,1,1-.054.455.609.609,0,0,1-.016-.1" transform="translate(-754.487 -443.877)" fill="#5d9cd4" fill-rule="evenodd"/>
    </g>
  </g>
</svg>
