<svg xmlns="http://www.w3.org/2000/svg" width="58.683" height="65.026" viewBox="0 0 58.683 65.026">
  <g id="ic-institucion" transform="translate(-901.208 -2181.853)">
    <path id="Path_11023" data-name="Path 11023" d="M114.928,40.4v0Z" transform="translate(815.622 2154.323)" fill="#fff"/>
    <path id="Path_11024" data-name="Path 11024" d="M113.28,39.393a.639.639,0,0,1-.639-.639V26.521a.639.639,0,1,1,1.278,0V38.754a.639.639,0,0,1-.639.639" transform="translate(817.27 2155.971)" fill="#036399"/>
    <path id="Path_11025" data-name="Path 11025" d="M126.3,35.417H114.928V28.171H126.3l-2.551,3.623Z" transform="translate(815.622 2154.321)" fill="#ebf8ff"/>
    <path id="Path_11026" data-name="Path 11026" d="M124.648,34.408H113.28a.639.639,0,0,1-.639-.639V26.523a.639.639,0,0,1,.639-.639h11.368a.639.639,0,0,1,.522,1.007l-2.292,3.255,2.292,3.255a.639.639,0,0,1-.522,1.007m-10.73-1.278h9.5l-1.842-2.616a.639.639,0,0,1,0-.736l1.842-2.616h-9.5Z" transform="translate(817.27 2155.969)" fill="#0171bb"/>
    <path id="Path_11027" data-name="Path 11027" d="M47.193,87.346A19.329,19.329,0,0,1,66.114,71.961h0A19.329,19.329,0,0,1,85.036,87.346Z" transform="translate(864.436 2122.764)" fill="#ebf8ff"/>
    <path id="Path_11028" data-name="Path 11028" d="M83.386,86.337a.639.639,0,0,1-.625-.51,18.689,18.689,0,0,0-36.592,0,.639.639,0,0,1-1.251-.259,19.967,19.967,0,0,1,39.095,0,.639.639,0,0,1-.5.755.648.648,0,0,1-.13.013" transform="translate(866.085 2124.413)" fill="#0171bb"/>
    <path id="Path_11029" data-name="Path 11029" d="M67.192,127.04H14.57a2.392,2.392,0,0,0-2.391,2.392v1.993a2.391,2.391,0,0,0,2.391,2.392H67.192a2.391,2.391,0,0,0,2.392-2.392v-1.993a2.391,2.391,0,0,0-2.392-2.392" transform="translate(889.669 2083.071)" fill="#ebf8ff"/>
    <path id="Path_11030" data-name="Path 11030" d="M65.544,132.808H12.922a3.034,3.034,0,0,1-3.031-3.031v-1.993a3.034,3.034,0,0,1,3.031-3.031H65.544a3.034,3.034,0,0,1,3.031,3.031v1.993a3.034,3.034,0,0,1-3.031,3.031m-52.622-6.777a1.755,1.755,0,0,0-1.753,1.753v1.993a1.755,1.755,0,0,0,1.753,1.753H65.544a1.755,1.755,0,0,0,1.753-1.753v-1.993a1.755,1.755,0,0,0-1.753-1.753Z" transform="translate(891.317 2084.719)" fill="#0171bb"/>
    <path id="Path_11031" data-name="Path 11031" d="M178.33,156.681a.921.921,0,0,0,.921-.921v-4.428h-8.826v4.428a.921.921,0,0,0,.921.921h.921V170.3h-.921a.921.921,0,0,0-.921.921v4.428h8.826v-4.428a.921.921,0,0,0-.921-.921h-.921V156.681Z" transform="translate(775.628 2065.565)" fill="#fff"/>
    <path id="Path_11032" data-name="Path 11032" d="M177.6,174.635h-8.826a.639.639,0,0,1-.639-.639v-4.428a1.562,1.562,0,0,1,1.56-1.56h.282V155.671H169.7a1.562,1.562,0,0,1-1.56-1.56v-4.428a.639.639,0,0,1,.639-.639H177.6a.639.639,0,0,1,.639.639v4.428a1.561,1.561,0,0,1-1.56,1.56H176.4v12.338h.282a1.561,1.561,0,0,1,1.56,1.56V174a.639.639,0,0,1-.639.639m-8.188-1.278h7.549v-3.789a.282.282,0,0,0-.282-.282h-.921a.639.639,0,0,1-.639-.639V155.032a.639.639,0,0,1,.639-.639h.921a.282.282,0,0,0,.282-.282v-3.789h-7.549v3.789a.282.282,0,0,0,.282.282h.921a.639.639,0,0,1,.639.639v13.615a.639.639,0,0,1-.639.639H169.7a.282.282,0,0,0-.282.282Z" transform="translate(777.277 2067.213)" fill="#0171bb"/>
    <path id="Path_11033" data-name="Path 11033" d="M122.895,155.76a.921.921,0,0,0,.921.921h.921V170.3h-.921a.921.921,0,0,0-.921.921v4.428h8.826v-4.428a.921.921,0,0,0-.921-.921h-.921V156.681h.921a.922.922,0,0,0,.921-.921v-4.428h-8.826Z" transform="translate(809.881 2065.565)" fill="#fff"/>
    <path id="Path_11034" data-name="Path 11034" d="M130.072,174.635h-8.826a.639.639,0,0,1-.639-.639v-4.428a1.562,1.562,0,0,1,1.56-1.56h.282V155.671h-.282a1.562,1.562,0,0,1-1.56-1.56v-4.428a.639.639,0,0,1,.639-.639h8.826a.639.639,0,0,1,.639.639v4.428a1.561,1.561,0,0,1-1.56,1.56h-.282v12.338h.282a1.561,1.561,0,0,1,1.56,1.56V174a.639.639,0,0,1-.639.639m-8.188-1.278h7.549v-3.789a.282.282,0,0,0-.282-.282h-.921a.639.639,0,0,1-.639-.639V155.032a.639.639,0,0,1,.639-.639h.921a.282.282,0,0,0,.282-.282v-3.789h-7.549v3.789a.282.282,0,0,0,.282.282h.921a.639.639,0,0,1,.639.639v13.615a.639.639,0,0,1-.639.639h-.921a.282.282,0,0,0-.282.282Z" transform="translate(811.529 2067.213)" fill="#0171bb"/>
    <path id="Path_11035" data-name="Path 11035" d="M75.365,155.76a.921.921,0,0,0,.921.921h.921V170.3h-.921a.921.921,0,0,0-.921.921v4.428h8.826v-4.428a.921.921,0,0,0-.921-.921h-.921V156.681h.921a.921.921,0,0,0,.921-.921v-4.428H75.365Z" transform="translate(844.133 2065.565)" fill="#fff"/>
    <path id="Path_11036" data-name="Path 11036" d="M82.542,174.635H73.716a.639.639,0,0,1-.639-.639v-4.428a1.562,1.562,0,0,1,1.56-1.56h.282V155.671h-.282a1.562,1.562,0,0,1-1.56-1.56v-4.428a.639.639,0,0,1,.639-.639h8.826a.639.639,0,0,1,.639.639v4.428a1.561,1.561,0,0,1-1.56,1.56h-.282v12.338h.282a1.561,1.561,0,0,1,1.56,1.56V174a.639.639,0,0,1-.639.639m-8.188-1.278H81.9v-3.789a.282.282,0,0,0-.282-.282H80.7a.639.639,0,0,1-.639-.639V155.032a.639.639,0,0,1,.639-.639h.921a.282.282,0,0,0,.282-.282v-3.789H74.355v3.789a.282.282,0,0,0,.282.282h.921a.639.639,0,0,1,.639.639v13.615a.639.639,0,0,1-.639.639h-.921a.282.282,0,0,0-.282.282Z" transform="translate(845.782 2067.213)" fill="#0171bb"/>
    <path id="Path_11037" data-name="Path 11037" d="M27.835,155.76a.921.921,0,0,0,.921.921h.921V170.3h-.921a.921.921,0,0,0-.921.921v4.428h8.826v-4.428a.921.921,0,0,0-.921-.921h-.921V156.681h.921a.921.921,0,0,0,.921-.921v-4.428H27.835Z" transform="translate(878.386 2065.565)" fill="#fff"/>
    <path id="Path_11038" data-name="Path 11038" d="M35.013,174.635H26.187a.639.639,0,0,1-.639-.639v-4.428a1.562,1.562,0,0,1,1.56-1.56h.282V155.671h-.282a1.562,1.562,0,0,1-1.56-1.56v-4.428a.639.639,0,0,1,.639-.639h8.826a.639.639,0,0,1,.639.639v4.428a1.562,1.562,0,0,1-1.56,1.56H33.81v12.338h.282a1.562,1.562,0,0,1,1.56,1.56V174a.639.639,0,0,1-.639.639m-8.188-1.278h7.549v-3.789a.282.282,0,0,0-.282-.282h-.921a.639.639,0,0,1-.639-.639V155.032a.639.639,0,0,1,.639-.639h.921a.282.282,0,0,0,.282-.282v-3.789H26.826v3.789a.282.282,0,0,0,.282.282h.921a.639.639,0,0,1,.639.639v13.615a.639.639,0,0,1-.639.639h-.921a.282.282,0,0,0-.282.282Z" transform="translate(880.034 2067.213)" fill="#0171bb"/>
    <path id="Rectangle_2911" data-name="Rectangle 2911" d="M2.52,0H52.635a2.519,2.519,0,0,1,2.519,2.519v0a2.519,2.519,0,0,1-2.519,2.519H2.519A2.519,2.519,0,0,1,0,2.52v0A2.52,2.52,0,0,1,2.52,0Z" transform="translate(902.973 2241.201)" fill="#ebf8ff"/>
    <path id="Path_11039" data-name="Path 11039" d="M67.836,242.367h-51.4a2.52,2.52,0,0,1-2.517-2.518v-1.281a2.52,2.52,0,0,1,2.517-2.517h51.4a2.52,2.52,0,0,1,2.517,2.518v1.282a2.52,2.52,0,0,1-2.517,2.517m-51.4-5.039a1.241,1.241,0,0,0-1.239,1.239v1.281a1.241,1.241,0,0,0,1.239,1.24h51.4a1.241,1.241,0,0,0,1.239-1.239v-1.282a1.241,1.241,0,0,0-1.239-1.24Z" transform="translate(888.413 2004.512)" fill="#0171bb"/>
  </g>
</svg>
