<svg xmlns="http://www.w3.org/2000/svg" xmlns:xlink="http://www.w3.org/1999/xlink" width="32" height="32" viewBox="0 0 32 32">
  <defs>
    <clipPath id="clip-path">
      <path id="icon_list" data-name="icon / list" d="M19,14H6a1,1,0,0,1,0-2H19a1,1,0,0,1,0,2ZM1,14a.908.908,0,0,1-.7-.3A.905.905,0,0,1,0,13a.6.6,0,0,1,.1-.4c0-.1.1-.2.2-.3A.991.991,0,0,1,1,12a.991.991,0,0,1,.7.3.968.968,0,0,1,0,1.4A.905.905,0,0,1,1,14ZM19,8H6A.947.947,0,0,1,5,7,.947.947,0,0,1,6,6H19a.947.947,0,0,1,1,1A.947.947,0,0,1,19,8ZM1,8a.908.908,0,0,1-.7-.3A.905.905,0,0,1,0,7V6.8c.1-.1.1-.1.1-.2a.13.13,0,0,1,.05-.1A.13.13,0,0,0,.2,6.4l.1-.1a.522.522,0,0,1,.151-.1A.525.525,0,0,0,.6,6.1a.935.935,0,0,1,.42-.1.955.955,0,0,1,.68.3.1.1,0,0,1,.1.1.13.13,0,0,0,.05.1.13.13,0,0,1,.05.1.13.13,0,0,0,.05.1A.13.13,0,0,1,2,6.8V7a.905.905,0,0,1-.3.7A.905.905,0,0,1,1,8ZM19,2H6A.947.947,0,0,1,5,1,.947.947,0,0,1,6,0H19a.947.947,0,0,1,1,1A.947.947,0,0,1,19,2ZM1,2H.8C.7,1.9.7,1.9.6,1.9a.131.131,0,0,1-.1-.05A.132.132,0,0,0,.4,1.8L.3,1.7a.525.525,0,0,1-.1-.15A.525.525,0,0,0,.1,1.4.6.6,0,0,1,0,1,.606.606,0,0,1,.1.6C.1.5.2.4.3.3A.959.959,0,0,1,.98,0,.935.935,0,0,1,1.4.1c.1,0,.2.1.3.2A.905.905,0,0,1,2,1a.9.9,0,0,1-.3.7A.9.9,0,0,1,1,2Z" transform="translate(2 5)"/>
    </clipPath>
  </defs>
  <g id="ic-listView" transform="translate(-234 59)">
    <g id="icon_edition_list" data-name="icon / edition / list" transform="translate(240 -50)">
      <g id="Group_103" data-name="Group 103" transform="translate(-2 -5)">
        <path id="icon_list-2" data-name="icon / list" d="M19,14H6a1,1,0,0,1,0-2H19a1,1,0,0,1,0,2ZM1,14a.908.908,0,0,1-.7-.3A.905.905,0,0,1,0,13a.6.6,0,0,1,.1-.4c0-.1.1-.2.2-.3A.991.991,0,0,1,1,12a.991.991,0,0,1,.7.3.968.968,0,0,1,0,1.4A.905.905,0,0,1,1,14ZM19,8H6A.947.947,0,0,1,5,7,.947.947,0,0,1,6,6H19a.947.947,0,0,1,1,1A.947.947,0,0,1,19,8ZM1,8a.908.908,0,0,1-.7-.3A.905.905,0,0,1,0,7V6.8c.1-.1.1-.1.1-.2a.13.13,0,0,1,.05-.1A.13.13,0,0,0,.2,6.4l.1-.1a.522.522,0,0,1,.151-.1A.525.525,0,0,0,.6,6.1a.935.935,0,0,1,.42-.1.955.955,0,0,1,.68.3.1.1,0,0,1,.1.1.13.13,0,0,0,.05.1.13.13,0,0,1,.05.1.13.13,0,0,0,.05.1A.13.13,0,0,1,2,6.8V7a.905.905,0,0,1-.3.7A.905.905,0,0,1,1,8ZM19,2H6A.947.947,0,0,1,5,1,.947.947,0,0,1,6,0H19a.947.947,0,0,1,1,1A.947.947,0,0,1,19,2ZM1,2H.8C.7,1.9.7,1.9.6,1.9a.131.131,0,0,1-.1-.05A.132.132,0,0,0,.4,1.8L.3,1.7a.525.525,0,0,1-.1-.15A.525.525,0,0,0,.1,1.4.6.6,0,0,1,0,1,.606.606,0,0,1,.1.6C.1.5.2.4.3.3A.959.959,0,0,1,.98,0,.935.935,0,0,1,1.4.1c.1,0,.2.1.3.2A.905.905,0,0,1,2,1a.9.9,0,0,1-.3.7A.9.9,0,0,1,1,2Z" transform="translate(2 5)"/>
      </g>
    </g>
    <g id="Rectangle_2391" data-name="Rectangle 2391" opacity="0">
      <rect id="Rectangle_2391-2" data-name="Rectangle 2391" width="32" height="32" transform="translate(234 -59)" fill="#fff"/>
      <path id="Rectangle_2391_-_Outline" data-name="Rectangle 2391 - Outline" d="M1,1V31H31V1H1M0,0H32V32H0Z" transform="translate(234 -59)" fill="#707070"/>
    </g>
  </g>
</svg>
