<svg xmlns="http://www.w3.org/2000/svg" xmlns:xlink="http://www.w3.org/1999/xlink" width="24.125" height="24" viewBox="0 0 24.125 24">
  <defs>
    <clipPath id="clip-path">
      <rect id="Rectangle_1851" data-name="Rectangle 1851" width="24.125" height="24" fill="#013c9e"/>
    </clipPath>
  </defs>
  <g id="ic-mini-lluvia" clip-path="url(#clip-path)">
    <path id="Path_3605" data-name="Path 3605" d="M23.429,16.351H19.12V.695a.7.7,0,0,0-.7-.695H.7A.7.7,0,0,0,0,.695V18.826a5.189,5.189,0,0,0,4.811,5.16c.121,0,.241.013.362.013H17.742a6.717,6.717,0,0,0,4.986-2.147A4.777,4.777,0,0,0,23.894,19.7a11.242,11.242,0,0,0,.232-2.651.7.7,0,0,0-.7-.7M5.172,22.607A2.515,2.515,0,0,1,4.9,22.6a3.789,3.789,0,0,1-3.5-3.772V1.391H17.729V16.349H9.65a.7.7,0,0,0-.7.7v1.78a3.781,3.781,0,0,1-3.775,3.78m17.354-3.234a3.394,3.394,0,0,1-.844,1.544,5.322,5.322,0,0,1-3.949,1.69H8.695a5.161,5.161,0,0,0,1.644-3.78V17.742H22.723a7.912,7.912,0,0,1-.191,1.628M9.2,4.343a.7.7,0,0,1,.7-.7h5.417a.7.7,0,1,1,0,1.393H9.9a.7.7,0,0,1-.695-.7m6.81,4.772a.7.7,0,0,1-.7.7h-4.9a.7.7,0,1,1,0-1.393h4.906a.7.7,0,0,1,.7.7m-.7,5.468H5.507a.7.7,0,1,1,0-1.393h9.811a.7.7,0,0,1,0,1.393M7.466,8.31A2.091,2.091,0,0,1,7.1,10.067a2.07,2.07,0,0,1-.886.664V11.3a.7.7,0,0,1-1.393,0v-.5A2.091,2.091,0,0,1,3.46,9.47.7.7,0,1,1,4.78,9.028a.708.708,0,0,0,.685.471.7.7,0,0,0,.643-.869A.6.6,0,0,0,5.7,8.224c-.212-.077-.444-.093-.661-.161A2.118,2.118,0,0,1,3.453,5.909,2.091,2.091,0,0,1,4.825,4.093v-.54a.7.7,0,1,1,1.393,0v.529a2.067,2.067,0,0,1,.5.243A2.091,2.091,0,0,1,7.608,5.79a.7.7,0,1,1-1.382.172A.695.695,0,0,0,4.844,6a.751.751,0,0,0,.589.738c.093.027.185.045.277.064a2.6,2.6,0,0,1,.86.3,1.93,1.93,0,0,1,.9,1.214" transform="translate(0 0.002)" fill="#013c9e"/>
  </g>
</svg>
