<svg xmlns="http://www.w3.org/2000/svg" xmlns:xlink="http://www.w3.org/1999/xlink" width="74" height="74.023" viewBox="0 0 74 74.023">
  <defs>
    <clipPath id="clip-path">
      <rect id="Rectangle_3811" data-name="Rectangle 3811" width="74" height="74.023" fill="#203c73"/>
    </clipPath>
  </defs>
  <g id="ic-moneyBag" transform="translate(0 0)">
    <g id="Group_4273" data-name="Group 4273" transform="translate(0 0)" clip-path="url(#clip-path)">
      <path id="Path_20563" data-name="Path 20563" d="M65.109,62.869a8.3,8.3,0,0,0,1.352-1.027,6.658,6.658,0,0,0,1.931-4.928c0-11.849-2.58-26.827-9.385-35.478h.981a3.928,3.928,0,1,0,0-7.856h-.131A15.115,15.115,0,0,0,63.835,3.7,1.05,1.05,0,0,0,63.58,3,7.516,7.516,0,0,0,51.568,3,5.575,5.575,0,0,1,47.289,5.16,5.5,5.5,0,0,1,43.017,3a7.775,7.775,0,0,0-6.01-3h-.015A7.711,7.711,0,0,0,31,3,5.6,5.6,0,0,1,26.7,5.16,5.56,5.56,0,0,1,22.432,3a7.729,7.729,0,0,0-6.01-3,7.775,7.775,0,0,0-6.01,3,1.084,1.084,0,0,0-.247.7,15.1,15.1,0,0,0,4.024,9.88H14a3.928,3.928,0,0,0,0,7.856h.989C8.18,30.087,5.6,45.064,5.6,56.914a6.664,6.664,0,0,0,1.939,4.928A8.362,8.362,0,0,0,8.9,62.869,10.107,10.107,0,0,0,0,72.888a1.118,1.118,0,0,0,1.112,1.135H72.888A1.123,1.123,0,0,0,74,72.888a10.117,10.117,0,0,0-8.891-10.019M12.413,4.133a5.343,5.343,0,0,1,4.009-1.869A5.575,5.575,0,0,1,20.7,4.426a7.749,7.749,0,0,0,6,3,7.759,7.759,0,0,0,6.025-3,5.546,5.546,0,0,1,4.264-2.163h.015a5.572,5.572,0,0,1,4.272,2.163,7.752,7.752,0,0,0,6.01,3,7.775,7.775,0,0,0,6.01-3A5.561,5.561,0,0,1,57.57,2.263a5.371,5.371,0,0,1,4.017,1.869c-.154,3.955-2.379,7.122-4.843,9.447H17.249c-2.456-2.325-4.689-5.492-4.835-9.447m-.085,13.379A1.7,1.7,0,0,1,14,15.812H59.988a1.68,1.68,0,1,1,0,3.36H14a1.692,1.692,0,0,1-1.676-1.661m5.577,3.924H56.064c7.354,7.755,10.1,23.335,10.1,35.478A4.455,4.455,0,0,1,64.9,60.243c-1.638,1.568-4.8,2.263-8.775,2.565H17.851c-3.963-.3-7.122-1-8.736-2.565a4.382,4.382,0,0,1-1.282-3.329c0-12.143,2.727-27.692,10.073-35.478M2.325,71.76A7.839,7.839,0,0,1,10.1,65.04H63.92a7.828,7.828,0,0,1,7.748,6.72Z" transform="translate(0 0.003)" fill="#203c73"/>
      <path id="Path_20564" data-name="Path 20564" d="M16.987,31.668A14.016,14.016,0,1,0,2.975,17.648a14.04,14.04,0,0,0,14.012,14.02m0-25.8A11.784,11.784,0,1,1,5.223,17.648,11.8,11.8,0,0,1,16.987,5.868" transform="translate(20.005 24.453)" fill="#203c73"/>
      <path id="Path_20565" data-name="Path 20565" d="M8.918,19.254a2.381,2.381,0,0,1-2.495-2.2,1.124,1.124,0,1,0-2.248,0,4.482,4.482,0,0,0,3.63,4.264v.865a1.12,1.12,0,0,0,2.24,0v-.865a4.474,4.474,0,0,0,3.63-4.264c0-2.124-1.244-4.387-4.758-4.387-1.684,0-2.495-.734-2.495-2.194A2.357,2.357,0,0,1,8.918,8.3a2.355,2.355,0,0,1,2.518,2.171,1.12,1.12,0,1,0,2.24,0,4.527,4.527,0,0,0-3.63-4.295V5.343a1.12,1.12,0,1,0-2.24,0v.834a4.535,4.535,0,0,0-3.63,4.295c0,2.124,1.251,4.418,4.743,4.418,1.7,0,2.518.7,2.518,2.163a2.378,2.378,0,0,1-2.518,2.2" transform="translate(28.074 28.346)" fill="#203c73"/>
    </g>
  </g>
</svg>
