<svg id="ic-contract-icon" xmlns="http://www.w3.org/2000/svg" xmlns:xlink="http://www.w3.org/1999/xlink" width="15" height="14.922" viewBox="0 0 15 14.922">
  <defs>
    <clipPath id="clip-path">
      <rect id="Rectangle_1851" data-name="Rectangle 1851" width="15" height="14.922" fill="#fff"/>
    </clipPath>
  </defs>
  <g id="Group_3575" data-name="Group 3575" clip-path="url(#clip-path)">
    <path id="Path_3605" data-name="Path 3605" d="M14.567,10.166H11.888V.432A.433.433,0,0,0,11.455,0H.433A.433.433,0,0,0,0,.432V11.705a3.226,3.226,0,0,0,2.991,3.208c.075,0,.15.008.225.008h7.815a4.176,4.176,0,0,0,3.1-1.335,2.97,2.97,0,0,0,.725-1.338A6.99,6.99,0,0,0,15,10.6a.433.433,0,0,0-.433-.433M3.216,14.056c-.059,0-.119,0-.171-.006A2.356,2.356,0,0,1,.866,11.705V.865H11.023v9.3H6a.433.433,0,0,0-.433.433v1.107a2.351,2.351,0,0,1-2.347,2.35M14.01,12.044a2.11,2.11,0,0,1-.525.96,3.309,3.309,0,0,1-2.455,1.051H5.406a3.209,3.209,0,0,0,1.022-2.35v-.674h7.7a4.919,4.919,0,0,1-.119,1.012M5.722,2.7a.433.433,0,0,1,.433-.433H9.523a.433.433,0,1,1,0,.866H6.154A.433.433,0,0,1,5.722,2.7M9.956,5.667a.433.433,0,0,1-.433.433H6.474a.433.433,0,0,1,0-.866h3.05a.433.433,0,0,1,.433.433m-.433,3.4h-6.1a.433.433,0,1,1,0-.866h6.1a.433.433,0,1,1,0,.866m-4.882-3.9a1.3,1.3,0,0,1-.227,1.092,1.287,1.287,0,0,1-.551.413v.354a.433.433,0,1,1-.866,0V6.713a1.3,1.3,0,0,1-.847-.825.433.433,0,0,1,.821-.275.44.44,0,0,0,.426.293.433.433,0,0,0,.4-.54.373.373,0,0,0-.257-.253c-.132-.048-.276-.058-.411-.1a1.317,1.317,0,0,1-.983-1.339A1.3,1.3,0,0,1,3,2.545V2.209a.433.433,0,1,1,.866,0v.329a1.285,1.285,0,0,1,.312.151A1.3,1.3,0,0,1,4.73,3.6a.433.433,0,1,1-.859.107.432.432,0,0,0-.859.021.467.467,0,0,0,.366.459c.058.017.115.028.172.04a1.614,1.614,0,0,1,.535.186,1.2,1.2,0,0,1,.557.755" transform="translate(0 0.001)" fill="#fff"/>
  </g>
</svg>
