<svg xmlns="http://www.w3.org/2000/svg" width="129.67" height="92.603" viewBox="0 0 129.67 92.603">
  <g id="ic-p-s1" transform="translate(-461.665 -1845)">
    <path id="Path_9824" data-name="Path 9824" d="M129.67,52.988a2.936,2.936,0,0,1-.882,2.108l-2.61,2.606a2.985,2.985,0,0,1-4.215,0l-9.054-9.289a18.441,18.441,0,0,1-7.81,1.8A17.879,17.879,0,0,1,87.184,33.834a15.375,15.375,0,0,1-.025-2.872A17.984,17.984,0,0,1,123.043,31a15.8,15.8,0,0,1-.028,2.832,17.933,17.933,0,0,1-2.859,8.224l-.018.074,8.664,8.754a2.952,2.952,0,0,1,.868,2.1m-5.6,2.45,2.458-2.454L116.046,42.393l.9-1.079c.1-.117.152-.179.185-.224a2.02,2.02,0,0,1,.14-.259l.01-.041.17-.251a14.828,14.828,0,0,0,2.48-6.977,12.824,12.824,0,0,0,.027-2.312,14.895,14.895,0,0,0-29.724-.042,12.634,12.634,0,0,0,.023,2.353A14.8,14.8,0,0,0,105.1,47.12a15.388,15.388,0,0,0,6.961-1.737c.125-.063.283-.152.34-.187l1.05-.634.87.87Z" transform="translate(461.665 1845)"/>
    <path id="Path_9826" data-name="Path 9826" d="M106.388,17.067a2,2,0,0,0,2-2V6.515A6.516,6.516,0,0,0,101.885,0H6.5A6.516,6.516,0,0,0,0,6.515v58.09A6.516,6.516,0,0,0,6.5,71.12H44.063v9.808H36.194a4.655,4.655,0,0,0-4.65,4.649v2.376a4.655,4.655,0,0,0,4.65,4.65h36a4.655,4.655,0,0,0,4.65-4.65V85.577a4.656,4.656,0,0,0-4.65-4.649H64.325V71.12h37.56a6.516,6.516,0,0,0,6.5-6.515V49.217a2,2,0,0,0-4,0v8.3H4v-51A2.515,2.515,0,0,1,6.5,4h95.383a2.515,2.515,0,0,1,2.5,2.518v8.553a2,2,0,0,0,2,2M72.194,84.925a.654.654,0,0,1,.653.652v2.376a.654.654,0,0,1-.653.653h-36a.654.654,0,0,1-.653-.653V85.577a.654.654,0,0,1,.653-.652Zm-11.949-4h-12.1V71.12h12.1ZM104.39,61.514v3.091a2.514,2.514,0,0,1-2.5,2.518H6.5A2.514,2.514,0,0,1,4,64.605V61.514Z" transform="translate(461.665 1845)"/>
    <g id="Group_3411" data-name="Group 3411" transform="translate(8.068 88)">
      <path id="Path_9827" data-name="Path 9827" d="M1036.96,581.755a.656.656,0,0,1-.464-.192l-3.537-3.536a.657.657,0,0,1,0-.928l1.635-1.633a.657.657,0,0,1,.928,0l1.438,1.438,3.766-3.765a.656.656,0,0,1,.928,0l1.633,1.632a.656.656,0,0,1,0,.928l-5.856,5.859a.656.656,0,0,1-.466.2Zm-2.608-4.193,2.607,2.607,4.935-4.935-.7-.7-3.766,3.765a.656.656,0,0,1-.928,0l-1.438-1.438Z" transform="translate(-530.565 1200.364)"/>
      <path id="Path_9828" data-name="Path 9828" d="M1021.436,636.517H994.2a1.01,1.01,0,0,1-.829-1.589l13.538-19.386a1.012,1.012,0,0,1,.829-.432h3.305a1.011,1.011,0,0,1,0,2.022h-2.779L996.135,634.5h25.3a1.011,1.011,0,1,1,0,2.022" transform="translate(-513.646 1172.752)"/>
      <path id="Path_9829" data-name="Path 9829" d="M1075.333,636.517h-27.24a1.011,1.011,0,0,1,0-2.022h25.3l-12.127-17.364h-3.446a1.011,1.011,0,0,1,0-2.022h3.973a1.011,1.011,0,0,1,.829.432l13.539,19.386a1.011,1.011,0,0,1-.829,1.589" transform="translate(-540.304 1172.752)"/>
      <path id="Path_9830" data-name="Path 9830" d="M1034.305,584.611c-.239,0-.119-.106-.274-.289-9.867-11.7-9.866-17.193-9.846-17.657,0-5.414,4.35-9.522,10.12-9.522s10.121,4.108,10.121,9.556c.019.429.716,5.922-9.152,17.622a.813.813,0,0,1-.622.289m-.348-25.841c-4.843,0-8.5,3.409-8.5,7.93,0,.138.042,4.907,8.843,15.821,8.827-10.943,8.153-15.681,8.148-15.786,0-4.555-3.653-7.965-8.5-7.965" transform="translate(-526.971 1210.243)"/>
      <path id="Path_9831" data-name="Path 9831" d="M1009.035,641.72a1.011,1.011,0,0,1-.733-1.706,10.569,10.569,0,0,0,1.327-1.922,11.325,11.325,0,0,1,1.762-2.447,6.294,6.294,0,0,1,2.637-1.542,3.661,3.661,0,0,1,1.579-.147,4.434,4.434,0,0,1,.9.255l.147.053a7.162,7.162,0,0,0,5.963-.6,1.011,1.011,0,1,1,1.045,1.73,9.112,9.112,0,0,1-7.684.779l-.166-.061a2.948,2.948,0,0,0-.5-.154,1.748,1.748,0,0,0-.715.089,4.26,4.26,0,0,0-1.787,1.045,9.7,9.7,0,0,0-1.435,2.03,12.233,12.233,0,0,1-1.6,2.285,1.007,1.007,0,0,1-.734.315" transform="translate(-520.985 1163.649)"/>
      <path id="Path_9832" data-name="Path 9832" d="M1058.261,643.288a1.011,1.011,0,0,1-1.01-.976c-.021-.617-.032-1.242-.033-1.866-.1-.011-.2-.024-.3-.039a2.509,2.509,0,0,1-1.647-.848,4.585,4.585,0,0,1-.871-2.183,1.011,1.011,0,0,1,1.98-.411,2.708,2.708,0,0,0,.491,1.359,1.7,1.7,0,0,0,.348.084,4.626,4.626,0,0,0,.964.044,1.023,1.023,0,0,1,.759.28,1.012,1.012,0,0,1,.31.747c-.016.92-.008,1.849.024,2.763a1.011,1.011,0,0,1-.975,1.045h-.036" transform="translate(-543.91 1162.34)"/>
      <path id="Path_9833" data-name="Path 9833" d="M1059.965,631.88a1.011,1.011,0,0,1-.664-1.773,9.843,9.843,0,0,1,4.629-2.245c.418-.079.84-.13,1.212-.175l2.266-.276a1.011,1.011,0,0,1,.246,2.007l-2.267.276c-.359.043-.729.088-1.081.154a7.823,7.823,0,0,0-3.678,1.784,1.009,1.009,0,0,1-.663.248" transform="translate(-546.175 1166.672)"/>
      <path id="Path_9834" data-name="Path 9834" d="M1076.244,637.573a1.011,1.011,0,0,1-.844-.452,4.68,4.68,0,0,0-1.606-1.241,23.14,23.14,0,0,1-3.277-2.14,4.864,4.864,0,0,1-.587-.555,5.656,5.656,0,0,1-.658-.993,5.6,5.6,0,0,0-.324-.5,3.213,3.213,0,0,1-.707-1.89,1.011,1.011,0,1,1,2.02-.071,1.285,1.285,0,0,0,.348.809,7.907,7.907,0,0,1,.428.669,3.916,3.916,0,0,0,.416.651,2.908,2.908,0,0,0,.349.323,21.606,21.606,0,0,0,3,1.947,6.351,6.351,0,0,1,2.283,1.877,1.011,1.011,0,0,1-.841,1.569" transform="translate(-550.769 1166.005)"/>
      <path id="Path_9835" data-name="Path 9835" d="M1029.326,627.47a1.006,1.006,0,0,1-.611-.206,4.511,4.511,0,0,1-.907-.96,8.1,8.1,0,0,1-1.14-2.2,1.011,1.011,0,1,1,1.916-.643,6.072,6.072,0,0,0,.856,1.654,2.6,2.6,0,0,0,.5.544,1.011,1.011,0,0,1-.613,1.815" transform="translate(-530.18 1168.965)"/>
    </g>
    <circle id="Ellipse_542" data-name="Ellipse 542" cx="11" cy="11" r="11" transform="translate(556 1866)" fill="#fff"/>
    <path id="Ellipse_542_-_Outline" data-name="Ellipse 542 - Outline" d="M11,3a8,8,0,1,0,8,8,8.009,8.009,0,0,0-8-8m0-3A11,11,0,1,1,0,11,11,11,0,0,1,11,0Z" transform="translate(556 1866)"/>
  </g>
</svg>
