<svg id="ic-p-s2" xmlns="http://www.w3.org/2000/svg" xmlns:xlink="http://www.w3.org/1999/xlink" width="100.18" height="107.846" viewBox="0 0 100.18 107.846">
  <defs>
    <clipPath id="clip-path">
      <rect id="Rectangle_2326" data-name="Rectangle 2326" width="100.18" height="107.846" transform="translate(0 0)"/>
    </clipPath>
  </defs>
  <g id="Group_3412" data-name="Group 3412" clip-path="url(#clip-path)">
    <path id="Path_9839" data-name="Path 9839" d="M65.443,89.94a2,2,0,0,1-1.224-.419L53.9,81.534a2,2,0,1,1,2.449-3.162l8.861,6.86,17.872-19.5a2,2,0,1,1,2.949,2.7L66.919,89.292a2,2,0,0,1-1.476.648"/>
    <path id="Path_9840" data-name="Path 9840" d="M37.866,38.2A19.082,19.082,0,1,1,54.95,27.674,18.962,18.962,0,0,1,37.866,38.2m0-34.2a15.111,15.111,0,1,0,15.11,15.089A15.106,15.106,0,0,0,37.866,4"/>
    <path id="Path_9841" data-name="Path 9841" d="M2,77.621a1.977,1.977,0,0,1-.265-.018,2,2,0,0,1-1.72-2.244c2.505-18.942,11.795-26.61,18.564-30.73,12.048-7.33,23.746-7.87,35.764-1.649a2,2,0,0,1-1.84,3.553C41.834,41.007,31.418,41.5,20.662,48.047c-6.581,4-14.425,10.788-16.679,27.836A2,2,0,0,1,2,77.621"/>
    <path id="Path_9842" data-name="Path 9842" d="M69.844,107.846A30.336,30.336,0,1,1,100.18,77.511a30.37,30.37,0,0,1-30.336,30.335m0-56.671A26.336,26.336,0,1,0,96.18,77.511,26.366,26.366,0,0,0,69.844,51.175"/>
  </g>
</svg>
