<svg xmlns="http://www.w3.org/2000/svg" xmlns:xlink="http://www.w3.org/1999/xlink" width="112.227" height="92.559" viewBox="0 0 112.227 92.559">
  <defs>
    <clipPath id="clip-path">
      <rect id="Rectangle_3867" data-name="Rectangle 3867" width="112.227" height="92.559" fill="#203c73"/>
    </clipPath>
  </defs>
  <g id="ic-presupuesto" transform="translate(0 0)">
    <g id="Group_4311" data-name="Group 4311" transform="translate(0 0)" clip-path="url(#clip-path)">
      <path id="Path_20576" data-name="Path 20576" d="M23.218,32.977h-4.56A6.865,6.865,0,0,1,11.8,26.12a1.422,1.422,0,1,1,2.843,0,4.021,4.021,0,0,0,4.014,4.014h4.56a4.017,4.017,0,0,0,0-8.035h-4.56a6.86,6.86,0,0,1,0-13.721h4.56a6.87,6.87,0,0,1,6.857,6.863,1.422,1.422,0,1,1-2.843,0,4.022,4.022,0,0,0-4.014-4.02h-4.56a4.017,4.017,0,0,0,0,8.035h4.56a6.86,6.86,0,0,1,0,13.721" transform="translate(55.296 39.263)" fill="#203c73"/>
      <path id="Path_20577" data-name="Path 20577" d="M14.579,15.366a1.422,1.422,0,0,1-1.422-1.422V8.918a1.422,1.422,0,1,1,2.843,0v5.027a1.422,1.422,0,0,1-1.422,1.422" transform="translate(61.656 35.125)" fill="#203c73"/>
      <path id="Path_20578" data-name="Path 20578" d="M14.579,20.075a1.422,1.422,0,0,1-1.422-1.422V13.627a1.422,1.422,0,1,1,2.843,0v5.027a1.422,1.422,0,0,1-1.422,1.422" transform="translate(61.656 57.192)" fill="#203c73"/>
      <path id="Path_20579" data-name="Path 20579" d="M44.594,18.966a1.422,1.422,0,0,1-1.422-1.422c0-1.24,1.234-2.763,8.182-8.825.682-.591,1.376-1.2,1.677-1.478a2.318,2.318,0,0,0,.028-1.734c-.262-.4-1.046-.631-2.144-.631-5.385,0-7.079-.233-8.723-1.876-.546-.415-3.514-.04-5.447,1.075a5.652,5.652,0,0,1-4.066.512,5.652,5.652,0,0,1-4.066-.512c-1.933-1.114-4.9-1.5-5.459-1.063-1.632,1.632-3.321,1.865-8.711,1.865-1.1,0-1.882.227-2.144.631a2.319,2.319,0,0,0,.028,1.734c.3.284,1,.887,1.677,1.478,6.948,6.061,8.182,7.585,8.182,8.825a1.421,1.421,0,0,1-2.82.25c-.643-1.177-5.413-5.345-7.233-6.931C10.079,9.066,9.749,8.776,9.693,8.3a5,5,0,0,1,.216-4.333c.83-1.291,2.36-1.939,4.538-1.939,5.442,0,5.988-.324,6.71-1.041,1.99-2,6.846-.552,8.882.62a3.066,3.066,0,0,0,2.274.136,1.479,1.479,0,0,1,.739,0,3.065,3.065,0,0,0,2.274-.136C37.361.44,42.212-1,44.207.992c.722.716,1.268,1.041,6.71,1.041,2.183,0,3.707.648,4.538,1.939A5,5,0,0,1,55.671,8.3c-.057.472-.381.762-2.445,2.559-1.82,1.586-6.59,5.754-7.233,6.931a1.423,1.423,0,0,1-1.4,1.171" transform="translate(43.552 0.001)" fill="#203c73"/>
      <path id="Path_20580" data-name="Path 20580" d="M37.26,15.761H16.949a6.462,6.462,0,1,1,0-12.925H37.26a6.462,6.462,0,1,1,0,12.925M16.949,5.679a3.619,3.619,0,1,0,0,7.238H37.26a3.619,3.619,0,1,0,0-7.238Z" transform="translate(49.129 13.288)" fill="#203c73"/>
      <path id="Path_20581" data-name="Path 20581" d="M28.56,70.963c-4.685,0-9.917-1.274-17.485-4.259a1.421,1.421,0,1,1,1.041-2.644C19.337,66.9,24.25,68.12,28.56,68.12S37.783,66.9,45,64.06c5.106-2.013,7.386-1.638,9.6-1.279a11.984,11.984,0,0,0,4.378.1c.864-.136,2.354-.512,2.661-1.467.284-.864-.335-2.32-1.467-3.457C58,55.8,57.281,48.321,56.291,36.3c-.188-2.263-.375-4.555-.586-6.789-1.018-11-17.61-22.187-17.781-22.3a1.423,1.423,0,0,1,1.581-2.365c.728.489,17.889,12.049,19.032,24.4.21,2.246.4,4.549.586,6.823.677,8.171,1.518,18.343,3.053,19.884s2.923,4.014,2.166,6.34c-.409,1.257-1.592,2.872-4.919,3.4a14.83,14.83,0,0,1-5.288-.1c-2-.33-3.719-.608-8.091,1.114-7.568,2.985-12.8,4.259-17.485,4.259" transform="translate(47.674 21.593)" fill="#203c73"/>
      <path id="Path_20582" data-name="Path 20582" d="M9.623,28.589a1.278,1.278,0,0,1-.353-.045,1.414,1.414,0,0,1-1.024-1.729C11.153,15.414,26.215,5.27,26.852,4.849a1.423,1.423,0,0,1,1.581,2.365c-.148.1-14.8,9.962-17.434,20.305a1.419,1.419,0,0,1-1.376,1.069" transform="translate(38.43 21.595)" fill="#203c73"/>
      <path id="Path_20583" data-name="Path 20583" d="M31.118,25.866H5.73a1.422,1.422,0,0,1-1.422-1.422v-2.7a1.422,1.422,0,0,1,2.843,0v1.274H29.7V17.075H11.029a1.422,1.422,0,1,1,0-2.843H31.118a1.418,1.418,0,0,1,1.422,1.422v8.791a1.422,1.422,0,0,1-1.422,1.422" transform="translate(20.188 66.691)" fill="#203c73"/>
      <path id="Path_20584" data-name="Path 20584" d="M30.469,24.325H6.662a1.422,1.422,0,1,1,0-2.843H29.048V15.528H8.14a1.422,1.422,0,0,1,0-2.843H30.469a1.422,1.422,0,0,1,1.422,1.422v8.8a1.422,1.422,0,0,1-1.422,1.422" transform="translate(24.555 59.441)" fill="#203c73"/>
      <path id="Path_20585" data-name="Path 20585" d="M28.9,22.763H10.286a1.422,1.422,0,0,1,0-2.843H27.475V13.984H6.2a1.422,1.422,0,1,1,0-2.843H28.9a1.422,1.422,0,0,1,1.422,1.422v8.779A1.422,1.422,0,0,1,28.9,22.763" transform="translate(22.409 52.206)" fill="#203c73"/>
      <path id="Path_20586" data-name="Path 20586" d="M30.791,21.229H9.957a1.422,1.422,0,1,1,0-2.843H29.37V12.438H6.824V16.4a1.422,1.422,0,0,1-2.843,0V11.017A1.422,1.422,0,0,1,5.4,9.6H30.791a1.422,1.422,0,0,1,1.422,1.422v8.791a1.422,1.422,0,0,1-1.422,1.422" transform="translate(18.656 44.961)" fill="#203c73"/>
      <path id="Path_20587" data-name="Path 20587" d="M17.115,44.492A17.118,17.118,0,1,1,34.231,27.371,17.137,17.137,0,0,1,17.115,44.492m0-31.393A14.275,14.275,0,1,0,31.387,27.371,14.292,14.292,0,0,0,17.115,13.1" transform="translate(0 48.059)" fill="#203c73"/>
      <path id="Path_20588" data-name="Path 20588" d="M8.654,26.128H6.294a4.239,4.239,0,0,1-4.236-4.236,1.422,1.422,0,0,1,2.843,0,1.4,1.4,0,0,0,1.393,1.393h2.36a1.393,1.393,0,1,0,0-2.786H6.294a4.236,4.236,0,1,1,0-8.472h2.36a4.243,4.243,0,0,1,4.236,4.236,1.422,1.422,0,1,1-2.843,0,1.4,1.4,0,0,0-1.393-1.393H6.294a1.393,1.393,0,1,0,0,2.786h2.36a4.236,4.236,0,1,1,0,8.472" transform="translate(9.644 56.353)" fill="#203c73"/>
      <path id="Path_20589" data-name="Path 20589" d="M4.182,17.016A1.422,1.422,0,0,1,2.76,15.595v-2.6a1.422,1.422,0,1,1,2.843,0v2.6a1.422,1.422,0,0,1-1.422,1.422" transform="translate(12.934 54.212)" fill="#203c73"/>
      <path id="Path_20590" data-name="Path 20590" d="M4.182,19.453A1.422,1.422,0,0,1,2.76,18.032v-2.6a1.422,1.422,0,1,1,2.843,0v2.6a1.422,1.422,0,0,1-1.422,1.422" transform="translate(12.934 65.632)" fill="#203c73"/>
    </g>
  </g>
</svg>
