<svg xmlns="http://www.w3.org/2000/svg" xmlns:xlink="http://www.w3.org/1999/xlink" width="114.785" height="94.786" viewBox="0 0 114.785 94.786">
  <defs>
    <clipPath id="clip-path">
      <rect id="Rectangle_2327" data-name="Rectangle 2327" width="114.785" height="94.786" transform="translate(0 0)"/>
    </clipPath>
  </defs>
  <g id="ic-p-s3" transform="translate(-1341.665 -1786.154)">
    <g id="Group_3415" data-name="Group 3415" transform="translate(1341.665 1786.154)">
      <g id="Group_3414" data-name="Group 3414" clip-path="url(#clip-path)">
        <path id="Path_9844" data-name="Path 9844" d="M9.279,38.211h31.9l11.388,7.626a2,2,0,0,0,3.113-1.662V4.516A4.521,4.521,0,0,0,51.165,0H9.279a4.518,4.518,0,0,0-4.51,4.516V33.7a4.515,4.515,0,0,0,4.51,4.509M8.769,4.516A.514.514,0,0,1,9.279,4H51.165a.517.517,0,0,1,.516.516V40.429L42.9,34.549a2.01,2.01,0,0,0-1.113-.338H9.279a.51.51,0,0,1-.51-.509Z"/>
        <path id="Path_9845" data-name="Path 9845" d="M71.655,82.993h-44.7L7.46,44.517a1.939,1.939,0,0,0-1.831-1.094l-.681.015a2.005,2.005,0,0,0-.858.215C1.439,45-1.274,51.26.647,55.347L17.6,89.271a2,2,0,0,0,2.614.927l3.557-1.611v4.2a2,2,0,0,0,2,2h41.01c3.751,0,6.873-7.083,6.873-9.793a2,2,0,0,0-2-2M20.318,85.761,4.246,53.6c-.652-1.386-.014-3.688.731-5.133L23.212,84.449Zm46.311,5.025H27.772V86.993H69.1c-.672,1.58-1.8,3.408-2.471,3.793"/>
        <path id="Path_9846" data-name="Path 9846" d="M84.735,42.712a5.341,5.341,0,0,0,2.108-.432c9.768-2.6,14.825-11.88,12.105-22.1C96.789,12.075,90.512,7.04,82.565,7.04a20.313,20.313,0,0,0-5.207.7,18.037,18.037,0,0,0-10.837,7.65A17.222,17.222,0,0,0,64.815,29.27c2.575,9.668,10.521,13.442,18.7,13.442m-13.6-25.205a14.062,14.062,0,0,1,8.474-5.9,16.24,16.24,0,0,1,4.177-.565c6.142,0,10.822,3.8,12.517,10.17,2.19,8.223-1.834,15.225-9.268,17.205a8.943,8.943,0,0,1-2.3.3c-6.374,0-12.732-2.577-14.834-10.472a13.33,13.33,0,0,1,1.233-10.733"/>
        <path id="Path_9847" data-name="Path 9847" d="M75.512,56.3a2,2,0,0,0,1.771,2.2,2.055,2.055,0,0,0,.22.012,2,2,0,0,0,1.986-1.783,39.549,39.549,0,0,1,2.9-9.9c-.052.134.939-2.214.939-2.214l-4.163-.47c-.46.8-3.233,8.28-3.654,12.147"/>
        <path id="Path_9848" data-name="Path 9848" d="M113.415,66a2.191,2.191,0,0,0-.04-.282l-.041-.263c-.023-.159-.047-.315-.075-.472-.005-.029-.022-.118-.028-.147l-.026-.132c-.308-1.816-.663-3.521-1.084-5.2a42.256,42.256,0,0,0-4.931-12.387,8.25,8.25,0,0,0-8.555-3.74l-.991.21a9.871,9.871,0,0,0-7.655,11.7l.962,4.6H59.408A10.322,10.322,0,0,0,49.1,70.2v.168A10.335,10.335,0,0,0,59.421,80.692H76.089c.42,3.627.959,7.416,1.623,11.309a2,2,0,0,0,1.97,1.663,2.046,2.046,0,0,0,.338-.028,2,2,0,0,0,1.636-2.309c-.625-3.657-1.137-7.219-1.541-10.635H93.221a37.742,37.742,0,0,0,7.749-.806l2.7-.569a12.26,12.26,0,0,0,3.668-1.4,2,2,0,1,0-2.008-3.459,8.265,8.265,0,0,1-2.48.945l-2.707.57a33.811,33.811,0,0,1-6.926.72h-33.8A6.33,6.33,0,0,1,53.1,70.368V70.2a6.318,6.318,0,0,1,6.31-6.31h34a2,2,0,0,0,1.957-2.409L93.9,54.463a5.87,5.87,0,0,1,4.56-6.962l1.03-.218a4.2,4.2,0,0,1,4.313,1.968,38.364,38.364,0,0,1,4.432,11.215c.4,1.59.732,3.195,1.023,4.911.006.032.023.124.03.156l.138.849c0,.047.01.094.017.14A137.177,137.177,0,0,1,110.7,91.606a2,2,0,0,0,1.94,2.057h.06a2,2,0,0,0,2-1.941A141.452,141.452,0,0,0,113.415,66"/>
      </g>
    </g>
    <g id="Group_3416" data-name="Group 3416" transform="translate(1 5.856)">
      <path id="Mask" d="M.345-.5H9.362a.846.846,0,0,1,.845.845V8.8a.846.846,0,0,1-.845.845H.345A.846.846,0,0,1-.5,8.8V.345A.846.846,0,0,1,.345-.5ZM9.362,9.081A.282.282,0,0,0,9.644,8.8V.345A.282.282,0,0,0,9.362.064H.345A.282.282,0,0,0,.064.345V8.8a.282.282,0,0,0,.282.282Z" transform="translate(1352 1802)"/>
      <path id="Path" d="M0,9.283S0,6.842,0,6.028l.8-.765a.641.641,0,0,1,.877,0l.983.939a.641.641,0,0,0,.877,0L6.38,3.487a.641.641,0,0,1,.877,0L9.918,6.028V9.283Z" transform="translate(1351.782 1801.85)"/>
      <circle id="Oval" cx="1.5" cy="1.5" r="1.5" transform="translate(1353 1803.144)"/>
    </g>
    <g id="Group_3417" data-name="Group 3417" transform="translate(14 5.856)">
      <path id="Mask-2" data-name="Mask" d="M.345-.5H9.362a.846.846,0,0,1,.845.845V8.8a.846.846,0,0,1-.845.845H.345A.846.846,0,0,1-.5,8.8V.345A.846.846,0,0,1,.345-.5ZM9.362,9.081A.282.282,0,0,0,9.644,8.8V.345A.282.282,0,0,0,9.362.064H.345A.282.282,0,0,0,.064.345V8.8a.282.282,0,0,0,.282.282Z" transform="translate(1352 1802)"/>
      <path id="Path-2" data-name="Path" d="M0,9.283S0,6.842,0,6.028l.8-.765a.641.641,0,0,1,.877,0l.983.939a.641.641,0,0,0,.877,0L6.38,3.487a.641.641,0,0,1,.877,0L9.918,6.028V9.283Z" transform="translate(1351.782 1801.85)"/>
      <circle id="Oval-2" data-name="Oval" cx="1.5" cy="1.5" r="1.5" transform="translate(1353 1803.144)"/>
    </g>
    <g id="Group_3418" data-name="Group 3418" transform="translate(27 5.856)">
      <path id="Mask-3" data-name="Mask" d="M.345-.5H9.362a.846.846,0,0,1,.845.845V8.8a.846.846,0,0,1-.845.845H.345A.846.846,0,0,1-.5,8.8V.345A.846.846,0,0,1,.345-.5ZM9.362,9.081A.282.282,0,0,0,9.644,8.8V.345A.282.282,0,0,0,9.362.064H.345A.282.282,0,0,0,.064.345V8.8a.282.282,0,0,0,.282.282Z" transform="translate(1352 1802)"/>
      <path id="Path-3" data-name="Path" d="M0,9.283S0,6.842,0,6.028l.8-.765a.641.641,0,0,1,.877,0l.983.939a.641.641,0,0,0,.877,0L6.38,3.487a.641.641,0,0,1,.877,0L9.918,6.028V9.283Z" transform="translate(1351.782 1801.85)"/>
      <circle id="Oval-3" data-name="Oval" cx="1.5" cy="1.5" r="1.5" transform="translate(1353 1803.144)"/>
    </g>
    <rect id="Rectangle_2328" data-name="Rectangle 2328" width="36" height="2" rx="1" transform="translate(1352 1798)"/>
    <rect id="Rectangle_2329" data-name="Rectangle 2329" width="36" height="2" rx="1" transform="translate(1352 1803)"/>
    <rect id="Rectangle_2330" data-name="Rectangle 2330" width="18" height="2" rx="1" transform="translate(1352 1793)"/>
  </g>
</svg>
