<svg xmlns="http://www.w3.org/2000/svg" xmlns:xlink="http://www.w3.org/1999/xlink" width="70" height="70" viewBox="0 0 70 70">
  <defs>
    <clipPath id="clip-path">
      <rect id="Rectangle_5078" data-name="Rectangle 5078" width="66.1" height="54.539"/>
    </clipPath>
    <clipPath id="clip-ic-programado">
      <rect width="70" height="70"/>
    </clipPath>
  </defs>
  <g id="ic-programado" clip-path="url(#clip-ic-programado)">
    <rect width="70" height="70" fill="#fff"/>
    <g id="Group_1" data-name="Group 1" transform="translate(-1 2)">
      <g id="Group_6074" data-name="Group 6074" transform="translate(3 6)" clip-path="url(#clip-path)">
        <path id="Path_20576" d="M99.251,84.017H96.56a4.077,4.077,0,0,1-4.06-4.06.838.838,0,1,1,1.677,0,2.373,2.373,0,0,0,2.383,2.383h2.692a2.361,2.361,0,0,0,0-4.721H96.56a4.06,4.06,0,0,1,0-8.119h2.692a4.049,4.049,0,0,1,4.06,4.06.838.838,0,1,1-1.677,0h0a2.373,2.373,0,0,0-2.383-2.383H96.56a2.361,2.361,0,0,0,0,4.721h2.692a4.06,4.06,0,0,1,0,8.119" transform="translate(-53.008 -41.48)"/>
      </g>
      <g id="Group_6075" data-name="Group 6075" transform="translate(3 6)" clip-path="url(#clip-path)">
        <path id="Path_20577" d="M103.738,67.533a.868.868,0,0,1-.838-.838V63.738a.838.838,0,0,1,.838-.838.811.811,0,0,1,.838.838h0v2.956a.868.868,0,0,1-.838.838" transform="translate(-58.819 -37.793)"/>
      </g>
      <g id="Group_6076" data-name="Group 6076" transform="translate(3 6)" clip-path="url(#clip-path)">
        <path id="Path_20578" d="M103.738,103.233a.868.868,0,0,1-.838-.838V99.438a.838.838,0,0,1,.838-.838.811.811,0,0,1,.838.838h0v2.956a.838.838,0,0,1-.838.838" transform="translate(-58.819 -57.74)"/>
      </g>
      <g id="Group_6077" data-name="Group 6077" transform="translate(3 6)" clip-path="url(#clip-path)">
        <path id="Path_20579" d="M94.253,17.132a.868.868,0,0,1-.838-.838h0c0-.75.706-1.633,4.81-5.207.4-.353.794-.706.971-.883a1.346,1.346,0,0,0,0-1.015c-.132-.221-.618-.353-1.28-.353-3.177,0-4.148-.132-5.119-1.1-.309-.265-2.074-.044-3.221.618a3.457,3.457,0,0,1-2.383.309,3.2,3.2,0,0,1-2.383-.309c-1.147-.662-2.868-.883-3.221-.618-.971.971-1.942,1.1-5.119,1.1a1.7,1.7,0,0,0-1.28.353,1.346,1.346,0,0,0,0,1.015c.176.177.574.53.971.883,4.1,3.574,4.81,4.457,4.81,5.207a.868.868,0,0,1-.838.838.809.809,0,0,1-.794-.662,39.148,39.148,0,0,0-4.28-4.1c-1.191-1.059-1.412-1.236-1.456-1.5a2.93,2.93,0,0,1,.132-2.559A3.006,3.006,0,0,1,76.426,7.16c3.221,0,3.53-.177,3.971-.618,1.191-1.191,4.015-.309,5.251.353a1.961,1.961,0,0,0,1.324.088.752.752,0,0,1,.441,0A1.718,1.718,0,0,0,88.737,6.9c1.191-.706,4.06-1.544,5.251-.353.441.441.75.618,3.971.618a3.058,3.058,0,0,1,2.692,1.147,2.93,2.93,0,0,1,.132,2.559c-.044.265-.221.441-1.456,1.5a39.031,39.031,0,0,0-4.28,4.1.77.77,0,0,1-.794.662" transform="translate(-42.317 -5.969)"/>
      </g>
      <g id="Group_6078" data-name="Group 6078" transform="translate(3 6)" clip-path="url(#clip-path)">
        <path id="Path_20580" d="M98.3,35.189H86.339A3.767,3.767,0,0,1,82.5,31.438,3.824,3.824,0,0,1,86.251,27.6H98.3a3.767,3.767,0,0,1,3.839,3.751,3.824,3.824,0,0,1-3.751,3.839H98.3M86.339,29.232a2.118,2.118,0,1,0,0,4.236H98.3a2.118,2.118,0,1,0,0-4.236Z" transform="translate(-47.42 -18.068)"/>
      </g>
      <g id="Group_6079" data-name="Group 6079" transform="translate(3 6)" clip-path="url(#clip-path)">
        <path id="Path_20581" d="M91.158,80.055c-2.78,0-5.825-.75-10.281-2.515a.788.788,0,0,1-.4-1.1A.819.819,0,0,1,81.495,76c4.236,1.677,7.148,2.383,9.708,2.383s5.427-.706,9.663-2.383c3-1.191,4.368-.971,5.648-.75a6.254,6.254,0,0,0,2.559.044c.529-.088,1.368-.309,1.589-.883a2.252,2.252,0,0,0-.883-2.03c-1.28-1.28-1.721-5.692-2.295-12.752-.088-1.324-.221-2.692-.353-4.015-.618-6.486-10.369-13.061-10.458-13.149a.846.846,0,0,1,.927-1.412c.441.309,10.546,7.1,11.208,14.385.132,1.324.221,2.692.353,4.015.4,4.81.883,10.811,1.809,11.693.883.927,1.721,2.383,1.28,3.751-.221.75-.927,1.677-2.912,1.986a9.352,9.352,0,0,1-3.133-.044,7.551,7.551,0,0,0-4.766.662c-4.457,1.809-7.545,2.559-10.281,2.559" transform="translate(-46.238 -25.516)"/>
      </g>
      <g id="Group_6080" data-name="Group 6080" transform="translate(3 6)" clip-path="url(#clip-path)">
        <path id="Path_20582" d="M66.017,55.113a.4.4,0,0,1-.221-.044.883.883,0,0,1-.618-1.015h0c1.721-6.707,10.59-12.708,10.943-12.929a.8.8,0,0,1,1.147.265.818.818,0,0,1-.221,1.1c0,.088-8.649,5.913-10.193,12a.861.861,0,0,1-.838.618" transform="translate(-37.733 -25.549)"/>
      </g>
      <g id="Group_6081" data-name="Group 6081" transform="translate(3 6)" clip-path="url(#clip-path)">
        <path id="Path_20583" d="M51.5,120.939H36.538a.868.868,0,0,1-.838-.838v-1.589a.838.838,0,0,1,1.677,0v.75H50.659v-3.486H39.671a.838.838,0,1,1,0-1.677H51.5a.838.838,0,0,1,.838.838h0V120.1a.868.868,0,0,1-.838.838h0" transform="translate(-21.271 -66.4)"/>
      </g>
      <g id="Group_6082" data-name="Group 6082" transform="translate(3 6)" clip-path="url(#clip-path)">
        <path id="Path_20584" d="M57.67,109.139H43.638a.838.838,0,0,1,0-1.677H56.832v-3.486H44.477a.838.838,0,1,1,0-1.677H57.626a.868.868,0,0,1,.838.838h0V108.3a.777.777,0,0,1-.794.838h0" transform="translate(-25.238 -59.807)"/>
      </g>
      <g id="Group_6083" data-name="Group 6083" transform="translate(3 6)" clip-path="url(#clip-path)">
        <path id="Path_20585" d="M53.508,97.439H42.521a.838.838,0,1,1,0-1.677h10.1V92.277H40.138a.838.838,0,0,1,0-1.677h13.37a.868.868,0,0,1,.838.838h0V96.6a.868.868,0,0,1-.838.838h0" transform="translate(-23.282 -53.27)"/>
      </g>
      <g id="Group_6084" data-name="Group 6084" transform="translate(3 6)" clip-path="url(#clip-path)">
        <path id="Path_20586" d="M49,85.739H36.73a.838.838,0,0,1,0-1.677H48.159V80.577H34.877v2.339a.838.838,0,0,1-1.677,0V79.738a.868.868,0,0,1,.838-.838H49a.868.868,0,0,1,.838.838h0V84.9a.838.838,0,0,1-.838.838h0" transform="translate(-19.874 -46.733)"/>
      </g>
      <g id="Group_6085" data-name="Group 6085" transform="translate(3 6)" clip-path="url(#clip-path)">
        <path id="Path_20587" d="M13.061,104.021a10.061,10.061,0,1,1,10.1-10.061,10.056,10.056,0,0,1-10.1,10.061m0-18.489a8.428,8.428,0,1,0,8.428,8.428h0a8.456,8.456,0,0,0-8.428-8.428" transform="translate(-3 -49.526)"/>
      </g>
      <g id="Group_6086" data-name="Group 6086" transform="translate(3 6)" clip-path="url(#clip-path)">
        <path id="Path_20588" d="M22.427,105.54H21.059a2.514,2.514,0,0,1-2.515-2.515.838.838,0,1,1,1.677,0,.838.838,0,0,0,.838.838h1.368a.817.817,0,1,0,.044-1.633H21.015A2.514,2.514,0,0,1,18.5,99.715,2.486,2.486,0,0,1,21.015,97.2h1.368A2.514,2.514,0,0,1,24.9,99.715a.838.838,0,0,1-1.677,0,.838.838,0,0,0-.838-.838H21.015a.817.817,0,0,0-.044,1.633h1.412a2.514,2.514,0,0,1,2.515,2.515,2.477,2.477,0,0,1-2.471,2.515" transform="translate(-11.661 -56.958)"/>
      </g>
      <g id="Group_6087" data-name="Group 6087" transform="translate(3 6)" clip-path="url(#clip-path)">
        <path id="Path_20589" d="M24.738,97.021a.868.868,0,0,1-.838-.838V94.638a.838.838,0,1,1,1.677,0h0v1.544a.838.838,0,0,1-.838.838" transform="translate(-14.678 -55.058)"/>
      </g>
      <g id="Group_6088" data-name="Group 6088" transform="translate(3 6)" clip-path="url(#clip-path)">
        <path id="Path_20590" d="M24.738,115.521a.868.868,0,0,1-.838-.838v-1.544a.838.838,0,0,1,.838-.838.811.811,0,0,1,.838.838h0v1.544a.838.838,0,0,1-.838.838" transform="translate(-14.678 -65.395)"/>
      </g>
    </g>
  </g>
</svg>
