<svg id="ic-process-2" xmlns="http://www.w3.org/2000/svg" xmlns:xlink="http://www.w3.org/1999/xlink" width="42.604" height="36.34" viewBox="0 0 42.604 36.34">
  <defs>
    <clipPath id="clip-path">
      <rect id="Rectangle_3997" data-name="Rectangle 3997" width="42.604" height="36.34" fill="#07807b"/>
    </clipPath>
  </defs>
  <g id="Group_4490" data-name="Group 4490" transform="translate(0 0)" clip-path="url(#clip-path)">
    <path id="Path_27578" data-name="Path 27578" d="M9.061,8.107H.715A.715.715,0,0,1,0,7.392v-2.5A4.894,4.894,0,0,1,4.888,0a.715.715,0,0,1,0,1.43A3.462,3.462,0,0,0,1.43,4.888V6.677H9.061a.715.715,0,0,1,0,1.43" transform="translate(0 0)" fill="#07807b"/>
    <path id="Path_27579" data-name="Path 27579" d="M62.294,57.478a.715.715,0,1,1,0-1.43,3.462,3.462,0,0,0,3.458-3.458V50.8H58.121a.715.715,0,0,1,0-1.43h8.346a.715.715,0,0,1,.715.715v2.5a4.893,4.893,0,0,1-4.888,4.888" transform="translate(-24.577 -21.137)" fill="#07807b"/>
    <path id="Path_27580" data-name="Path 27580" d="M47.57,10.958H42.286a.715.715,0,1,1,0-1.43H47.57a.715.715,0,0,1,0,1.43" transform="translate(-17.798 -4.079)" fill="#07807b"/>
    <path id="Path_27581" data-name="Path 27581" d="M30.739,10.958H21.9a.715.715,0,0,1,0-1.43h8.835a.715.715,0,1,1,0,1.43" transform="translate(-9.072 -4.079)" fill="#07807b"/>
    <path id="Path_27582" data-name="Path 27582" d="M35.551,21.759H21.9a.715.715,0,0,1,0-1.43H35.551a.715.715,0,0,1,0,1.43" transform="translate(-9.072 -8.703)" fill="#07807b"/>
    <path id="Path_27583" data-name="Path 27583" d="M35.568,32.006a.715.715,0,0,1-.711-.791,13.484,13.484,0,0,1,3.858-8.057l11.5-11.5a3.442,3.442,0,1,1,4.868,4.868L43.434,28.176a13.512,13.512,0,0,1-7.66,3.809L35.667,32a.724.724,0,0,1-.1.006M52.654,12.075a2,2,0,0,0-1.423.59l-11.5,11.5a12.054,12.054,0,0,0-3.307,6.252,12.093,12.093,0,0,0,6-3.256L54.077,15.511a2.013,2.013,0,0,0-1.423-3.436" transform="translate(-14.922 -4.557)" fill="#07807b"/>
    <path id="Path_27584" data-name="Path 27584" d="M47.123,36.138a.713.713,0,0,1-.506-.209L42.76,32.071a.715.715,0,0,1,1.01-1.011l3.858,3.857a.715.715,0,0,1-.506,1.22" transform="translate(-18.217 -13.208)" fill="#07807b"/>
    <path id="Path_27585" data-name="Path 27585" d="M63.813,19.446a.713.713,0,0,1-.506-.209L59.45,15.379a.715.715,0,0,1,1.01-1.011l3.858,3.858a.715.715,0,0,1-.506,1.22" transform="translate(-25.363 -6.062)" fill="#07807b"/>
    <path id="Path_27586" data-name="Path 27586" d="M68.8,12.648a.715.715,0,0,1-.506-1.22l1.287-1.286a.153.153,0,0,0-.216-.216l-1.286,1.286a.715.715,0,0,1-1.011-1.01l1.286-1.286a1.582,1.582,0,0,1,2.238,2.238L69.3,12.439a.71.71,0,0,1-.5.209" transform="translate(-28.623 -3.619)" fill="#07807b"/>
    <path id="Path_27587" data-name="Path 27587" d="M50.2,33.059a.713.713,0,0,1-.506-.209l-3.857-3.858a.715.715,0,0,1,1.01-1.011l3.858,3.858a.715.715,0,0,1-.506,1.22" transform="translate(-19.535 -11.89)" fill="#07807b"/>
    <path id="Path_27588" data-name="Path 27588" d="M26.036,52.811a.715.715,0,0,1-.414-1.3c.154-.109.32-.241.491-.377A3.474,3.474,0,0,1,28.3,50.075a1.176,1.176,0,0,1,.976.811l.9-.831a4.113,4.113,0,0,1,1.2-.855,1.871,1.871,0,0,1,1.885.2,2.376,2.376,0,0,1,.629.883c.037.076.073.152.113.225a.641.641,0,0,0,.089.122l.048-.043a19.2,19.2,0,0,1,5.153-2.722.715.715,0,1,1,.435,1.362,18.049,18.049,0,0,0-4.613,2.406,1.705,1.705,0,0,1-.7.431,1.5,1.5,0,0,1-1.656-.857c-.055-.1-.1-.2-.154-.3a1.346,1.346,0,0,0-.234-.388.508.508,0,0,0-.447.008,2.935,2.935,0,0,0-.774.583L30.174,52a1.336,1.336,0,0,1-1.405.419A1.389,1.389,0,0,1,28,51.555a6.915,6.915,0,0,0-1,.7c-.192.153-.379.3-.553.424a.713.713,0,0,1-.413.132" transform="translate(-10.841 -20.476)" fill="#07807b"/>
    <path id="Path_27589" data-name="Path 27589" d="M40.841,36.34H16.359a4.894,4.894,0,0,1-4.888-4.888V4.888A3.462,3.462,0,0,0,8.013,1.43a.715.715,0,1,1,0-1.43H32.494a4.894,4.894,0,0,1,4.888,4.888v1.1a.715.715,0,0,1-1.43,0v-1.1A3.462,3.462,0,0,0,32.494,1.43H11.463A4.872,4.872,0,0,1,12.9,4.888V31.453a3.462,3.462,0,0,0,3.458,3.458H37.39a4.873,4.873,0,0,1-1.437-3.458V21.22a.715.715,0,0,1,1.43,0V31.453a3.462,3.462,0,0,0,3.458,3.458.715.715,0,1,1,0,1.43" transform="translate(-3.125 0)" fill="#07807b"/>
    <path id="Path_27590" data-name="Path 27590" d="M42.874,16.359H31.316a.715.715,0,0,1,0-1.43H42.874a.715.715,0,0,1,0,1.43" transform="translate(-13.101 -6.392)" fill="#07807b"/>
    <path id="Path_27591" data-name="Path 27591" d="M24.652,16.359H21.9a.715.715,0,0,1,0-1.43h2.748a.715.715,0,0,1,0,1.43" transform="translate(-9.072 -6.392)" fill="#07807b"/>
    <path id="Path_27592" data-name="Path 27592" d="M39.082,27.159h-2.2a.715.715,0,0,1,0-1.43h2.2a.715.715,0,0,1,0,1.43" transform="translate(-15.486 -11.015)" fill="#07807b"/>
    <path id="Path_27593" data-name="Path 27593" d="M27.651,27.159H21.9a.715.715,0,0,1,0-1.43h5.747a.715.715,0,0,1,0,1.43" transform="translate(-9.072 -11.015)" fill="#07807b"/>
    <path id="Path_27594" data-name="Path 27594" d="M25.167,32.559H21.9a.715.715,0,1,1,0-1.43h3.263a.715.715,0,1,1,0,1.43" transform="translate(-9.072 -13.327)" fill="#07807b"/>
  </g>
</svg>
