<svg id="ic-par1" xmlns="http://www.w3.org/2000/svg" xmlns:xlink="http://www.w3.org/1999/xlink" width="74.989" height="102.474" viewBox="0 0 74.989 102.474">
  <defs>
    <clipPath id="clip-path">
      <rect id="Rectangle_2332" data-name="Rectangle 2332" width="74.989" height="102.474"/>
    </clipPath>
  </defs>
  <g id="Group_3420" data-name="Group 3420" transform="translate(0 0)" clip-path="url(#clip-path)">
    <path id="Path_9849" data-name="Path 9849" d="M10.185,15.454a1.913,1.913,0,1,0-2.533,2.869l7.2,6.355a1.909,1.909,0,0,0,1.266.479c.056,0,.113,0,.169-.008a1.914,1.914,0,0,0,1.331-.719L33.247,4.69a1.914,1.914,0,1,0-3-2.376L15.868,20.473Z" transform="translate(-0.302 -0.069)"/>
    <path id="Path_9850" data-name="Path 9850" d="M57.357,27.839A10.952,10.952,0,1,0,46.4,16.887,10.965,10.965,0,0,0,57.357,27.839m0-18.076a7.124,7.124,0,1,1-7.124,7.124,7.133,7.133,0,0,1,7.124-7.124" transform="translate(-2.004 -0.256)"/>
    <path id="Path_9851" data-name="Path 9851" d="M65.48,30.58h-14.3a11.042,11.042,0,0,0-7.861,3.257l-6.746,6.745-2.6-2.6a6.254,6.254,0,0,0-8.851,8.837l4.8,4.8a10.043,10.043,0,0,0,6.939,3.251,7.549,7.549,0,0,0,5.384-2.324l.324-.321C43.607,51.184,44.5,50.3,45.4,49.4V64.926l.336,31.905a5.68,5.68,0,0,0,3.969,6.7,6.924,6.924,0,0,0,1.9.261,5.925,5.925,0,0,0,4.928-2.338,6.318,6.318,0,0,0,4.945,2.327,6.017,6.017,0,0,0,1.72-.25,5.668,5.668,0,0,0,3.968-6.708l.144-31.92v-.192A6.227,6.227,0,0,0,76,58.822V41.1A10.528,10.528,0,0,0,65.48,30.58m6.688,28.242a2.416,2.416,0,0,1-4.136,1.85A2.317,2.317,0,0,1,67.307,59l0-16.077A1.914,1.914,0,0,0,65.4,41.012h0a1.914,1.914,0,0,0-1.914,1.913L63.48,59,63.335,97.05a1.918,1.918,0,0,0,.074.531,1.862,1.862,0,0,1-1.335,2.3,2.173,2.173,0,0,1-.6.078A2.347,2.347,0,0,1,59.4,98.881l-1.2-31.775A1.914,1.914,0,0,0,56.3,65.264h-.009a1.914,1.914,0,0,0-1.9,1.858l-.942,32.063c-.382.718-1.774.926-2.686.669a1.845,1.845,0,0,1-1.264-2.271,1.936,1.936,0,0,0,.073-.544l-.338-32.133V44.817a1.913,1.913,0,0,0-3.256-1.363c-2.369,2.334-3.9,3.86-6.107,6.055l-.323.321c-1.932,1.92-4.555,1.442-6.918-.92l-4.8-4.8a2.382,2.382,0,0,1,0-3.367l.068-.068a2.43,2.43,0,0,1,3.364,0l3.956,3.956a1.914,1.914,0,0,0,2.707,0l8.1-8.1a7.243,7.243,0,0,1,5.155-2.136h14.3A6.7,6.7,0,0,1,72.168,41.1Z" transform="translate(-1.006 -1.32)"/>
    <path id="Path_9852" data-name="Path 9852" d="M33.217,31.3V12.932a1.914,1.914,0,1,0-3.827,0V29.39H3.827V3.827h21.44a1.914,1.914,0,1,0,0-3.827H1.914A1.913,1.913,0,0,0,0,1.914V31.3a1.914,1.914,0,0,0,1.914,1.914H31.3A1.914,1.914,0,0,0,33.217,31.3" transform="translate(0 0)"/>
  </g>
</svg>
