<svg id="ic-par3" xmlns="http://www.w3.org/2000/svg" xmlns:xlink="http://www.w3.org/1999/xlink" width="58.989" height="78.817" viewBox="0 0 58.989 78.817">
  <defs>
    <clipPath id="clip-path">
      <rect id="Rectangle_2334" data-name="Rectangle 2334" width="58.989" height="78.817"/>
    </clipPath>
  </defs>
  <g id="Group_3424" data-name="Group 3424" transform="translate(0 0)" clip-path="url(#clip-path)">
    <path id="Path_9861" data-name="Path 9861" d="M58.989,18.26a1.515,1.515,0,0,0-.614-1.221l-5.795-5.46L40.731.413a1.569,1.569,0,0,0-.325-.226L40.324.146a1.532,1.532,0,0,0-.363-.12c-.014,0-.029,0-.043,0A1.458,1.458,0,0,0,39.689,0H3.5A3.464,3.464,0,0,0,0,3.424v71.97a3.464,3.464,0,0,0,3.5,3.424H55.479a3.464,3.464,0,0,0,3.5-3.424V18.408c0-.049.014-.1.014-.147m-5.362-1.519H41.208V5.039l6.136,5.782Zm1.852,59.038H3.5a.427.427,0,0,1-.457-.385V3.424A.427.427,0,0,1,3.5,3.039H38.169V18.26a1.519,1.519,0,0,0,1.519,1.519H55.936V75.394a.427.427,0,0,1-.457.385" transform="translate(0 0)"/>
    <path id="Path_9862" data-name="Path 9862" d="M42.053,69.274l-7.423,9.375L31.325,75.73a1.519,1.519,0,0,0-2.012,2.277l4.507,3.98a1.517,1.517,0,0,0,1.006.381c.045,0,.09,0,.135-.005a1.523,1.523,0,0,0,1.057-.57L44.437,71.16a1.519,1.519,0,0,0-2.383-1.885" transform="translate(-6.922 -16.512)"/>
    <path id="Path_9863" data-name="Path 9863" d="M35.089,59.326A13.357,13.357,0,1,0,48.446,72.683,13.372,13.372,0,0,0,35.089,59.326m0,23.675A10.318,10.318,0,1,1,45.407,72.683,10.33,10.33,0,0,1,35.089,83" transform="translate(-5.224 -14.259)"/>
    <path id="Path_9864" data-name="Path 9864" d="M48.89,48.642H19.449a1.519,1.519,0,1,0,0,3.039H48.89a1.519,1.519,0,1,0,0-3.039" transform="translate(-4.31 -11.691)"/>
    <path id="Path_9865" data-name="Path 9865" d="M48.89,38.808H19.449a1.519,1.519,0,1,0,0,3.039H48.89a1.519,1.519,0,1,0,0-3.039" transform="translate(-4.31 -9.328)"/>
    <path id="Path_9866" data-name="Path 9866" d="M31.352,32.014H42.708a1.519,1.519,0,1,0,0-3.039H31.352a1.519,1.519,0,0,0,0,3.039" transform="translate(-7.17 -6.964)"/>
  </g>
</svg>
