<svg id="ic-par4" xmlns="http://www.w3.org/2000/svg" xmlns:xlink="http://www.w3.org/1999/xlink" width="64.637" height="98" viewBox="0 0 64.637 98">
  <defs>
    <clipPath id="clip-path">
      <rect id="Rectangle_2335" data-name="Rectangle 2335" width="64.637" height="98"/>
    </clipPath>
  </defs>
  <g id="Group_3426" data-name="Group 3426" clip-path="url(#clip-path)">
    <path id="Path_9867" data-name="Path 9867" d="M62.9,11.667H47.626v-.137a4.353,4.353,0,0,0-4.348-4.348H40.653A13.59,13.59,0,0,0,40.1,5.508,8.513,8.513,0,0,0,32.3,0c-.1,0-.2,0-.295.005a8.46,8.46,0,0,0-8.1,7.176H21.358a4.353,4.353,0,0,0-4.348,4.348v.137H1.74A1.74,1.74,0,0,0,0,13.407V96.26A1.74,1.74,0,0,0,1.74,98H62.9a1.74,1.74,0,0,0,1.74-1.74V13.407a1.74,1.74,0,0,0-1.74-1.74M20.49,11.529a.859.859,0,0,1,.868-.868h4.2a1.755,1.755,0,0,0,1.264-.565A1.782,1.782,0,0,0,27.3,8.782c-.005-.093-.011-.182-.011-.276a5,5,0,0,1,4.847-5.022l.169,0a5.016,5.016,0,0,1,4.556,3.291,4,4,0,0,1,.473,2.058,1.74,1.74,0,0,0,1.737,1.832h4.211a.859.859,0,0,1,.868.868v7.978H20.49ZM61.157,94.52H3.48V15.147H17.01v6.1a1.74,1.74,0,0,0,1.74,1.74H45.886a1.74,1.74,0,0,0,1.74-1.74v-6.1H61.157Z"/>
    <path id="Path_9868" data-name="Path 9868" d="M36.476,18.174A4.469,4.469,0,1,0,32.011,13.7a4.479,4.479,0,0,0,4.465,4.474m0-5.458a.989.989,0,1,1-.985.985.991.991,0,0,1,.985-.985" transform="translate(-4.162 -1.201)"/>
    <path id="Path_9869" data-name="Path 9869" d="M50.54,34.448H28.988a1.74,1.74,0,1,0,0,3.48H50.54a1.74,1.74,0,0,0,0-3.48" transform="translate(-3.542 -4.478)"/>
    <path id="Path_9870" data-name="Path 9870" d="M50.54,46.331H28.988a1.74,1.74,0,1,0,0,3.48H50.54a1.74,1.74,0,0,0,0-3.48" transform="translate(-3.542 -6.023)"/>
    <path id="Path_9871" data-name="Path 9871" d="M50.54,58.214H28.988a1.74,1.74,0,1,0,0,3.48H50.54a1.74,1.74,0,0,0,0-3.48" transform="translate(-3.542 -7.568)"/>
    <path id="Path_9872" data-name="Path 9872" d="M50.54,70.1H28.988a1.74,1.74,0,0,0,0,3.48H50.54a1.74,1.74,0,0,0,0-3.48" transform="translate(-3.542 -9.113)"/>
    <path id="Path_9873" data-name="Path 9873" d="M50.54,81.981H28.988a1.74,1.74,0,1,0,0,3.48H50.54a1.74,1.74,0,1,0,0-3.48" transform="translate(-3.542 -10.658)"/>
    <path id="Path_9874" data-name="Path 9874" d="M50.54,93.865H28.988a1.74,1.74,0,1,0,0,3.48H50.54a1.74,1.74,0,1,0,0-3.48" transform="translate(-3.542 -12.203)"/>
    <path id="Path_9875" data-name="Path 9875" d="M13.473,44.478a1.741,1.741,0,0,0,1.185.465q.069,0,.138-.005a1.742,1.742,0,0,0,1.234-.665l5.764-7.388a1.74,1.74,0,1,0-2.744-2.14l-4.6,5.892-3.293-3.061a1.74,1.74,0,0,0-2.369,2.549Z" transform="translate(-1.071 -4.43)"/>
    <path id="Path_9876" data-name="Path 9876" d="M21.492,51.919a1.741,1.741,0,0,0-2.442.3l-4.6,5.892-3.293-3.062A1.74,1.74,0,0,0,8.792,57.6l4.681,4.353a1.745,1.745,0,0,0,1.185.465q.069,0,.138-.005a1.742,1.742,0,0,0,1.234-.665l5.764-7.389a1.74,1.74,0,0,0-.3-2.442" transform="translate(-1.071 -6.702)"/>
    <path id="Path_9877" data-name="Path 9877" d="M21.492,67.232a1.741,1.741,0,0,0-2.442.3l-4.6,5.892-3.293-3.061a1.74,1.74,0,1,0-2.369,2.548l4.681,4.353a1.741,1.741,0,0,0,1.185.465c.046,0,.092,0,.138,0a1.745,1.745,0,0,0,1.234-.665l5.764-7.388a1.741,1.741,0,0,0-.3-2.443" transform="translate(-1.071 -8.693)"/>
    <path id="Path_9878" data-name="Path 9878" d="M21.492,83.844a1.742,1.742,0,0,0-2.442.3l-4.6,5.892-3.293-3.061a1.74,1.74,0,1,0-2.369,2.548l4.681,4.353a1.739,1.739,0,0,0,1.185.465c.046,0,.092,0,.138,0a1.745,1.745,0,0,0,1.234-.665l5.764-7.388a1.741,1.741,0,0,0-.3-2.443" transform="translate(-1.071 -10.852)"/>
  </g>
</svg>
