<svg xmlns="http://www.w3.org/2000/svg" xmlns:xlink="http://www.w3.org/1999/xlink" width="75.207" height="98.679" viewBox="0 0 75.207 98.679">
  <defs>
    <clipPath id="clip-path">
      <rect id="Rectangle_5186" data-name="Rectangle 5186" width="75.207" height="98.679" fill="#4d4d4d"/>
    </clipPath>
  </defs>
  <g id="ic-pinversion" transform="translate(0 0)">
    <g id="Group_6205" data-name="Group 6205" transform="translate(0 0)" clip-path="url(#clip-path)">
      <path id="Path_29856" data-name="Path 29856" d="M38.015,98.681H37.2C6.66,98.681.834,83.1.082,73.81-1.088,59.367,10.526,46.835,19,37.685a98.141,98.141,0,0,0,6.8-7.806,2.9,2.9,0,0,1-.044-5.059c-1.742-3.1-5.381-6.738-7.519-8.877a33.069,33.069,0,0,1-3.428-3.722A6.481,6.481,0,0,1,14.4,5.339C16.206,1.948,20.561-.1,25.847,0A23.488,23.488,0,0,1,37.392,3.379c2.291,1.23,3.37,1.763,4.867,1.383L43.644,4.4c4.851-1.295,11.489-3.065,13.843,1.716v0c1.9,3.848-1.11,7.748-4.292,11.876a36.689,36.689,0,0,0-4.438,6.681,2.9,2.9,0,0,1,.236,5.207A90.284,90.284,0,0,0,56.123,38c8.513,9.041,20.169,21.425,19,35.807-.755,9.289-6.574,24.871-37.111,24.871M32.18,30.234a7.953,7.953,0,0,1-.978,2.022,83.768,83.768,0,0,1-7.95,9.365c-8.182,8.828-18.365,19.817-17.4,31.721C6.894,86.131,17.728,92.89,37.2,92.89h.82c19.465,0,30.3-6.759,31.336-19.548.959-11.818-9.245-22.659-17.445-31.369a80.924,80.924,0,0,1-8.149-9.49,10.172,10.172,0,0,1-1.031-2.249Zm-.29-5.791H42.734c1.026-3.692,3.688-7.144,5.874-9.984,1.316-1.7,3.458-4.485,3.648-5.647C50.885,8.466,46.9,9.527,45.133,10l-1.455.382c-3.746.947-6.43-.5-9.029-1.9A17.725,17.725,0,0,0,25.736,5.8c-.09,0-.178,0-.264,0C21.99,5.793,20,7.137,19.5,8.065a.683.683,0,0,0,.049.839,35.752,35.752,0,0,0,2.777,2.944c3.236,3.234,7.867,7.862,9.56,12.594m5.55,61.932a2.9,2.9,0,0,1-2.9-2.9v-1.8a11.919,11.919,0,0,1-8.473-6.094,2.894,2.894,0,1,1,5.189-2.567,5.721,5.721,0,0,0,3.285,2.664v-9.27c-7.723-1.733-9.435-6.289-9.435-9.986,0-4.915,4.028-9.048,9.435-10.153v-1.8a2.9,2.9,0,0,1,5.791,0v1.8a12.1,12.1,0,0,1,8.311,5.77,2.895,2.895,0,1,1-5.089,2.761,5.851,5.851,0,0,0-3.222-2.534v9.215c3.991.769,9.435,2.847,9.435,10.039,0,4.913-4.028,9.046-9.435,10.151v1.8a2.9,2.9,0,0,1-2.9,2.9m2.9-18.939v8.244c2.14-.774,3.644-2.363,3.644-4.151,0-2.052-.6-3.294-3.644-4.093M34.545,52.274C32.4,53.05,30.9,54.642,30.9,56.43c0,1,0,2.875,3.644,4.012ZM58.386,84.512a2.894,2.894,0,0,1-1.96-5.027c3.187-2.93,4.8-5.687,5.393-9.222a2.895,2.895,0,1,1,5.71.954c-.808,4.846-3.025,8.71-7.183,12.53a2.886,2.886,0,0,1-1.96.764" transform="translate(0 -0.001)" fill="#4d4d4d"/>
    </g>
  </g>
</svg>
