<?xml version="1.0" encoding="UTF-8"?><svg id="Layer_2" xmlns="http://www.w3.org/2000/svg" viewBox="0 0 64.2 64.2"><g id="Capa_1"><circle cx="32.1" cy="32.1" r="32.1" fill="#f6bdbb"/><g id="badd963713"><path d="M21.24,35.39h-.47v.47h.47v-.47ZM22.73,34.65v1.95c0,.41-.33.74-.74.74h-1.95c-.41,0-.74-.33-.74-.74v-1.95c0-.41.33-.74.74-.74h1.95c.41,0,.74.33.74.74ZM30.23,22.77h-.47v.47h.47v-.47ZM30.98,24.72h-1.95c-.41,0-.74-.33-.74-.74v-1.95c0-.41.33-.74.74-.74h1.95c.41,0,.74.33.74.74v1.95c0,.41-.33.74-.74.74ZM16.55,30.82h-.47v.47h.47v-.47ZM18.04,30.08v1.95c0,.41-.33.74-.74.74h-1.95c-.41,0-.74-.33-.74-.74v-1.95c0-.41.33-.74.74-.74h1.95c.41,0,.74.33.74.74ZM16.55,26.24h-.47v.47h.47v-.47ZM18.04,25.5v1.95c0,.41-.33.74-.74.74h-1.95c-.41,0-.74-.33-.74-.74v-1.95c0-.41.33-.74.74-.74h1.95c.41,0,.74.33.74.74ZM54.51,35.93l-1.22-1.03c-.19-.16-.29-.42-.26-.67.09-.66.09-1.33-.01-2-.04-.25.06-.51.25-.67l1.21-1.05-.59-1.4-1.6.14c-.25.02-.5-.09-.65-.29-.41-.53-.88-1.01-1.42-1.4-.2-.15-.32-.4-.3-.65l.12-1.6-1.41-.57-1.03,1.22c-.16.2-.42.29-.67.26-.66-.09-1.33-.09-2,.01-.25.04-.5-.06-.67-.25l-1.05-1.21-1.4.59.13,1.6c.02.25-.09.5-.29.65-.53.41-1.01.88-1.4,1.42-.15.2-.4.32-.65.3l-1.6-.12-.57,1.41,1.22,1.03c.19.16.29.42.26.67-.09.66-.09,1.33.01,2,.04.25-.06.5-.25.67l-1.21,1.05.59,1.4,1.6-.13c.25-.02.5.09.65.29.41.53.88,1.01,1.42,1.4.4.3.29.71.26,1.17h8.06c-.04-.48-.16-.92.24-1.22.53-.41,1.01-.88,1.4-1.42.15-.2.4-.32.65-.3l1.6.12.57-1.41ZM50.37,41.64h-8.57c-.45,1.92-1.02,3.69-1.7,5.28h6.59c1.46-1.54,2.71-3.32,3.69-5.28ZM45.13,48.41h-5.73c-.91,1.77-2.06,3.45-3.49,4.7,3.43-.81,6.59-2.43,9.22-4.7ZM36.56,50.21c-1.7,2.28-3.64,3.48-5.62,3.48-2.86,0-5.2-2.47-6.78-5.28h13.55c-.36.65-.75,1.25-1.16,1.8ZM25.96,53.12c-1.43-1.26-2.58-2.93-3.49-4.7h-5.73c2.63,2.27,5.79,3.9,9.22,4.7ZM15.19,46.93h6.59c-.68-1.59-1.26-3.37-1.7-5.28h-8.57c.97,1.96,2.22,3.74,3.69,5.28ZM12.37,40.16v-17.68c0-.29.24-.53.53-.53h12.06v18.21h-12.58ZM21.61,41.64h18.66c-.47,1.94-1.08,3.72-1.8,5.28h-15.06c-.72-1.56-1.33-3.34-1.8-5.28ZM26.44,40.16V14.95l3.56-2.39,3.56,2.39v14.89h-2.46c-.8,0-1.44.65-1.44,1.44v8.87h-3.2ZM31.13,31.33h4.86l1.41,1.2c-.05.53-.04,1.06,0,1.59l-1.32,1.14c-.24.21-.32.55-.2.85l1.01,2.4c.12.3.43.48.75.45l1.74-.15c.34.41.72.78,1.13,1.12l-.02.23h-9.36v-8.83ZM56.09,35.99l-.98,2.41c-.12.3-.42.48-.74.46l-1.74-.13c-.34.41-.71.79-1.12,1.13l.03.3h1.54c.41,0,.74.33.74.74s-.33.74-.74.74h-1.06c-3.77,8.24-11.99,13.53-21.08,13.53s-17.31-5.3-21.08-13.53h-1.06c-.41,0-.74-.33-.74-.74s.33-.74.74-.74h2.09v-17.68c0-1.11.9-2.01,2.01-2.01h12.06v-5.9c0-.25.12-.48.33-.62l4.3-2.9c.25-.17.58-.17.83,0l4.3,2.9c.21.14.33.37.33.62v15.28h1.1l.69-1.7c.12-.3.42-.48.74-.46l1.74.13c.34-.41.71-.79,1.12-1.13l-.15-1.74c-.03-.32.16-.62.45-.75l2.4-1.01c.3-.12.64-.04.85.2l1.14,1.32c.53-.05,1.06-.05,1.59,0l1.13-1.33c.21-.25.55-.33.85-.21l2.41.98c.3.12.48.42.46.74l-.13,1.74c.41.34.79.71,1.13,1.12l1.74-.15c.32-.03.62.16.75.45l1.01,2.4c.13.3.04.64-.2.85l-1.32,1.14c.05.53.06,1.06,0,1.59l1.33,1.13c.25.21.33.55.21.85ZM49.79,31.66c.43,1.02.44,2.15.02,3.17-.86,2.12-3.29,3.14-5.41,2.28-2.12-.86-3.14-3.29-2.28-5.41.42-1.03,1.21-1.83,2.23-2.26,2.11-.89,4.54.09,5.43,2.21ZM51.16,31.08c1.57,3.73-1.19,7.82-5.2,7.82-.71,0-1.42-.13-2.12-.42-2.88-1.17-4.26-4.47-3.09-7.34,1.17-2.88,4.46-4.27,7.34-3.09,1.39.57,2.48,1.64,3.07,3.03ZM21.24,30.82h-.47v.47h.47v-.47ZM22.73,30.08c0-.41-.33-.74-.74-.74h-1.95c-.41,0-.74.33-.74.74v1.95c0,.41.33.74.74.74h1.95c.41,0,.74-.33.74-.74v-1.95ZM21.24,26.24h-.47v.47h.47v-.47ZM22.73,25.5c0-.41-.33-.74-.74-.74h-1.95c-.41,0-.74.33-.74.74v1.95c0,.41.33.74.74.74h1.95c.41,0,.74-.33.74-.74v-1.95ZM16.55,35.39h-.47v.47h.47v-.47ZM18.04,34.65c0-.41-.33-.74-.74-.74h-1.95c-.41,0-.74.33-.74.74v1.95c0,.41.33.74.74.74h1.95c.41,0,.74-.33.74-.74v-1.95ZM17.17,16.87c0,1.12,1.49,1.01,1.49.07,0-1.12-1.49-1.01-1.49-.07ZM20.17,15.17c.27.31.74.35,1.05.08.31-.27.35-.74.08-1.05-1.82-2.13-4.94-2.13-6.76,0-.27.31-.23.78.08,1.05.31.27.78.23,1.05-.08,1.23-1.44,3.27-1.44,4.51,0ZM29.76,18.66h.47v-.47h-.47v.47ZM28.28,19.41c0,.41.33.74.74.74h1.95c.41,0,.74-.33.74-.74v-1.95c0-.41-.33-.74-.74-.74h-1.95c-.41,0-.74.33-.74.74v1.95ZM12.85,12.69c.2,0,.39-.08.54-.23,2.46-2.6,6.58-2.6,9.03,0,.28.3.75.31,1.05.03.3-.28.31-.75.03-1.05-3.03-3.22-8.17-3.22-11.2,0-.45.48-.1,1.25.54,1.25ZM48.23,19.13c.27.31.74.35,1.05.08.31-.27.35-.74.08-1.05-1.82-2.13-4.94-2.13-6.76,0-.27.31-.23.78.08,1.05.31.27.78.23,1.05-.08,1.23-1.44,3.27-1.44,4.51,0ZM41.46,16.42c2.45-2.6,6.58-2.6,9.03,0,.28.3.75.31,1.05.03.3-.28.31-.75.03-1.05-3.04-3.22-8.16-3.22-11.2,0-.28.3-.27.77.03,1.05.3.28.77.27,1.05-.03ZM45.97,20.1c-.41,0-.74.33-.74.74v.07c0,.94,1.49,1.05,1.49-.07,0-.41-.33-.74-.74-.74Z" fill="#4c3551" fill-rule="evenodd"/></g></g></svg>