<svg id="ic-par2" xmlns="http://www.w3.org/2000/svg" xmlns:xlink="http://www.w3.org/1999/xlink" width="91.555" height="93.5" viewBox="0 0 91.555 93.5">
  <defs>
    <clipPath id="clip-path">
      <rect id="Rectangle_2333" data-name="Rectangle 2333" width="91.555" height="93.5"/>
    </clipPath>
  </defs>
  <g id="Group_3422" data-name="Group 3422" clip-path="url(#clip-path)">
    <path id="Path_9853" data-name="Path 9853" d="M25.862,61.278a1.516,1.516,0,0,0,1.515-1.515V3.415a.425.425,0,0,1,.455-.385H62.41V18.209a1.515,1.515,0,0,0,1.515,1.515h16.2V63.171a1.515,1.515,0,1,0,3.03,0V18.356c0-.049.014-.1.014-.147a1.513,1.513,0,0,0-.612-1.217L64.963.413A1.5,1.5,0,0,0,64.64.187c-.028-.014-.055-.029-.083-.042A1.528,1.528,0,0,0,64.2.026c-.013,0-.027,0-.039,0A1.483,1.483,0,0,0,63.925,0H27.832a3.454,3.454,0,0,0-3.485,3.415V59.762a1.515,1.515,0,0,0,1.515,1.515M65.44,16.694V5.025l6.119,5.766,6.265,5.9Z" transform="translate(-5.904)"/>
    <path id="Path_9854" data-name="Path 9854" d="M91.544,89.664c-.014-.114-.052-.216-.073-.325a1.5,1.5,0,0,0-.093-.411,3.726,3.726,0,0,0-1.5-1.989c-2.822-1.9-8.442-.85-13.73.539-2.905-2.145-9.617.58-13.176,2.291a6.548,6.548,0,0,0-3.519-.422c-7.015.9-12.4,1.2-14.384,1.289A3.415,3.415,0,0,1,44,90.522a13.869,13.869,0,0,1-2-.71c-.764-.361-1.754-.9-2.9-1.515-4.086-2.206-10.261-5.541-15.614-5.9C14.673,82.2,1.348,89.472.783,89.782a1.515,1.515,0,0,0,1.463,2.654c.131-.073,13.167-7.2,21.1-7.014,4.631.313,10.458,3.46,14.313,5.541,1.187.64,2.21,1.193,3.01,1.57a16.549,16.549,0,0,0,2.528.909,6.481,6.481,0,0,0,2,.22c2.026-.089,7.509-.4,14.638-1.31a3.26,3.26,0,0,1,2.326.408l0,0a8.369,8.369,0,0,1,1.76,1.747l.186.223c.406.484.478.764.46.845-.191.826-3.322,2.22-5.839,3.339q-.935.416-1.953.875c-2.724,1.239-12.4,4.875-22.463-.352a1.515,1.515,0,1,0-1.4,2.689,27.222,27.222,0,0,0,12.665,3.077,31.081,31.081,0,0,0,12.45-2.655q1-.457,1.929-.865c4.232-1.883,7.029-3.127,7.559-5.427a3.952,3.952,0,0,0-1.092-3.476l-.182-.217c-.188-.224-.383-.456-.586-.688,4.35-1.874,8.274-2.67,8.7-1.939a1.513,1.513,0,0,0,1.7.7l.141-.038c8.077-2.176,10.97-1.825,11.976-1.147a.965.965,0,0,1,.155.128c-.451.982-2,2.992-7.247,6.247-3.029,1.885-10.863,6.028-14.627,8.02l-1.32.7q-.618.328-1.273.686c-4.277,2.325-9.6,5.218-18.277,5.218-3.467,0-10.363-1.726-16.447-3.248-6.213-1.554-10.11-2.507-11.989-2.4-3.818.211-13.478,1.3-13.887,1.343a1.515,1.515,0,1,0,.339,3.011c.1-.011,9.983-1.123,13.716-1.328,1.511-.077,6.378,1.136,11.086,2.313,6.253,1.565,13.341,3.339,17.182,3.339,9.449,0,15.387-3.229,19.724-5.586.427-.233.842-.458,1.245-.673l1.316-.7c4.086-2.161,11.692-6.184,14.81-8.124,4.565-2.831,7.253-5.214,8.324-7.393a1.512,1.512,0,0,0,.532-1.342" transform="translate(0 -19.978)"/>
    <path id="Path_9855" data-name="Path 9855" d="M52.989,41.919a1.515,1.515,0,1,0,0-3.03H36.529A1.515,1.515,0,0,0,35.014,40.4V59.135a1.516,1.516,0,0,0,1.515,1.515H55.261a1.516,1.516,0,0,0,1.515-1.515v-8.5a1.515,1.515,0,1,0-3.03,0V57.62h-15.7v-15.7Z" transform="translate(-8.49 -9.43)"/>
    <path id="Path_9856" data-name="Path 9856" d="M61.042,39.232a1.516,1.516,0,0,0-2.132.211L47.694,53.133l-4.848-5.894A1.515,1.515,0,0,0,40.5,49.164l6.021,7.318a1.516,1.516,0,0,0,1.17.552h0a1.514,1.514,0,0,0,1.171-.555L61.253,41.364a1.515,1.515,0,0,0-.211-2.132" transform="translate(-9.738 -9.43)"/>
    <path id="Path_9857" data-name="Path 9857" d="M85.161,40.017H73.706a1.515,1.515,0,1,0,0,3.03H85.161a1.515,1.515,0,0,0,0-3.03" transform="translate(-17.505 -9.703)"/>
    <path id="Path_9858" data-name="Path 9858" d="M83.827,48.245H68.2a1.515,1.515,0,0,0,0,3.03H83.827a1.515,1.515,0,0,0,0-3.03" transform="translate(-16.17 -11.698)"/>
    <path id="Path_9859" data-name="Path 9859" d="M83.827,56.469H68.2a1.515,1.515,0,0,0,0,3.03H83.827a1.515,1.515,0,0,0,0-3.03" transform="translate(-16.17 -13.692)"/>
    <path id="Path_9860" data-name="Path 9860" d="M83.827,64.517H68.2a1.515,1.515,0,0,0,0,3.03H83.827a1.515,1.515,0,0,0,0-3.03" transform="translate(-16.17 -15.644)"/>
  </g>
</svg>
