<svg xmlns="http://www.w3.org/2000/svg" xmlns:xlink="http://www.w3.org/1999/xlink" width="1240" height="945" viewBox="0 0 1240 945"><defs><style>.cls-1{fill:none;}.cls-2{clip-path:url(#clip-path);}.cls-3{fill:#bdccd4;}.cls-4{fill:url(#Áåçûìÿííûé_ãðàäèåíò_80);}.cls-5{fill:url(#Áåçûìÿííûé_ãðàäèåíò_5563);}.cls-6{fill:url(#Áåçûìÿííûé_ãðàäèåíò_5563-2);}.cls-7{fill:url(#Áåçûìÿííûé_ãðàäèåíò_5563-3);}.cls-8{fill:url(#Áåçûìÿííûé_ãðàäèåíò_5563-4);}.cls-9{fill:url(#Áåçûìÿííûé_ãðàäèåíò_80-2);}.cls-10{fill:url(#Áåçûìÿííûé_ãðàäèåíò_80-3);}.cls-11{fill:url(#Áåçûìÿííûé_ãðàäèåíò_5563-5);}.cls-12{fill:url(#Áåçûìÿííûé_ãðàäèåíò_5563-6);}.cls-13{fill:url(#Áåçûìÿííûé_ãðàäèåíò_5563-7);}.cls-14{fill:url(#Áåçûìÿííûé_ãðàäèåíò_5563-8);}.cls-15{fill:url(#Áåçûìÿííûé_ãðàäèåíò_80-4);}.cls-16{fill:url(#Áåçûìÿííûé_ãðàäèåíò_5508);}.cls-17{fill:url(#Áåçûìÿííûé_ãðàäèåíò_5504);}.cls-18{fill:url(#Áåçûìÿííûé_ãðàäèåíò_13);}.cls-19{fill:url(#Áåçûìÿííûé_ãðàäèåíò_13-2);}.cls-20{fill:url(#Áåçûìÿííûé_ãðàäèåíò_13-3);}.cls-21{fill:url(#Áåçûìÿííûé_ãðàäèåíò_12);}.cls-22{fill:#fff;}.cls-23{fill:url(#Áåçûìÿííûé_ãðàäèåíò_2442);}.cls-24{fill:url(#Áåçûìÿííûé_ãðàäèåíò_54);}.cls-25{fill:url(#Áåçûìÿííûé_ãðàäèåíò_54-2);}.cls-26{fill:url(#Áåçûìÿííûé_ãðàäèåíò_2442-2);}.cls-27{fill:#305d81;}.cls-28{fill:url(#Áåçûìÿííûé_ãðàäèåíò_54-3);}.cls-29{fill:url(#Áåçûìÿííûé_ãðàäèåíò_5530);}.cls-30{fill:url(#Áåçûìÿííûé_ãðàäèåíò_5504-2);}.cls-31{fill:url(#Áåçûìÿííûé_ãðàäèåíò_5508-2);}.cls-32{fill:url(#Áåçûìÿííûé_ãðàäèåíò_5504-3);}.cls-33{fill:url(#Áåçûìÿííûé_ãðàäèåíò_5504-4);}.cls-34{fill:url(#Áåçûìÿííûé_ãðàäèåíò_5504-5);}.cls-35{fill:url(#Áåçûìÿííûé_ãðàäèåíò_5504-6);}.cls-36{fill:url(#Áåçûìÿííûé_ãðàäèåíò_5508-3);}.cls-37{fill:url(#Áåçûìÿííûé_ãðàäèåíò_12-2);}.cls-38{fill:url(#Áåçûìÿííûé_ãðàäèåíò_12-3);}.cls-39{fill:url(#Áåçûìÿííûé_ãðàäèåíò_12-4);}.cls-40{fill:url(#Áåçûìÿííûé_ãðàäèåíò_12-5);}.cls-41{fill:url(#Áåçûìÿííûé_ãðàäèåíò_5508-4);}.cls-42{fill:url(#Áåçûìÿííûé_ãðàäèåíò_5504-7);}.cls-43{fill:url(#Áåçûìÿííûé_ãðàäèåíò_5508-5);}.cls-44{fill:url(#Áåçûìÿííûé_ãðàäèåíò_5508-6);}.cls-45{fill:url(#Áåçûìÿííûé_ãðàäèåíò_5504-8);}.cls-46{fill:url(#Áåçûìÿííûé_ãðàäèåíò_5508-7);}.cls-47{fill:url(#Áåçûìÿííûé_ãðàäèåíò_5504-9);}.cls-48{fill:url(#Áåçûìÿííûé_ãðàäèåíò_5508-8);}.cls-49{fill:url(#Áåçûìÿííûé_ãðàäèåíò_12-6);}.cls-50{fill:url(#Áåçûìÿííûé_ãðàäèåíò_12-7);}.cls-51{fill:url(#Áåçûìÿííûé_ãðàäèåíò_12-8);}.cls-52{fill:url(#Áåçûìÿííûé_ãðàäèåíò_12-9);}.cls-53{fill:url(#Áåçûìÿííûé_ãðàäèåíò_5508-9);}.cls-54{fill:url(#Áåçûìÿííûé_ãðàäèåíò_5508-10);}.cls-55{fill:url(#Áåçûìÿííûé_ãðàäèåíò_5504-10);}.cls-56{fill:url(#Áåçûìÿííûé_ãðàäèåíò_5530-2);}.cls-57{fill:url(#Áåçûìÿííûé_ãðàäèåíò_57);}.cls-58{fill:url(#Áåçûìÿííûé_ãðàäèåíò_5508-11);}.cls-59{fill:url(#Áåçûìÿííûé_ãðàäèåíò_57-2);}.cls-60{fill:url(#Áåçûìÿííûé_ãðàäèåíò_5504-11);}.cls-61{fill:url(#Áåçûìÿííûé_ãðàäèåíò_57-3);}.cls-62{fill:url(#Áåçûìÿííûé_ãðàäèåíò_12-10);}.cls-63{fill:url(#Áåçûìÿííûé_ãðàäèåíò_57-4);}.cls-64{fill:url(#Áåçûìÿííûé_ãðàäèåíò_54-4);}.cls-65{fill:url(#Áåçûìÿííûé_ãðàäèåíò_57-5);}.cls-66{fill:url(#Áåçûìÿííûé_ãðàäèåíò_98);}.cls-67{fill:url(#Áåçûìÿííûé_ãðàäèåíò_57-6);}.cls-68{fill:url(#Áåçûìÿííûé_ãðàäèåíò_2442-3);}.cls-69{fill:url(#Áåçûìÿííûé_ãðàäèåíò_2442-4);}.cls-70{fill:url(#Áåçûìÿííûé_ãðàäèåíò_5530-3);}.cls-71{fill:url(#Áåçûìÿííûé_ãðàäèåíò_80-5);}.cls-72{fill:url(#Áåçûìÿííûé_ãðàäèåíò_80-6);}.cls-73{fill:url(#Áåçûìÿííûé_ãðàäèåíò_80-7);}.cls-74{fill:url(#Áåçûìÿííûé_ãðàäèåíò_80-8);}.cls-75{fill:url(#Áåçûìÿííûé_ãðàäèåíò_80-9);}.cls-76{fill:url(#Áåçûìÿííûé_ãðàäèåíò_80-10);}.cls-77{fill:url(#Áåçûìÿííûé_ãðàäèåíò_80-11);}.cls-78{fill:url(#Áåçûìÿííûé_ãðàäèåíò_5530-4);}.cls-79{fill:url(#Áåçûìÿííûé_ãðàäèåíò_5508-12);}.cls-80{fill:url(#Áåçûìÿííûé_ãðàäèåíò_54-5);}.cls-81{fill:url(#Áåçûìÿííûé_ãðàäèåíò_5504-12);}.cls-82{fill:url(#Áåçûìÿííûé_ãðàäèåíò_12-11);}.cls-83{fill:url(#Áåçûìÿííûé_ãðàäèåíò_2442-5);}.cls-84{fill:url(#Áåçûìÿííûé_ãðàäèåíò_98-2);}.cls-85{fill:url(#Áåçûìÿííûé_ãðàäèåíò_98-3);}.cls-86{fill:#29abe2;}.cls-87{fill:#efbc90;}.cls-88{fill:#f4caab;}.cls-89{fill:#3d4166;}.cls-90{fill:url(#Áåçûìÿííûé_ãðàäèåíò_5504-13);}.cls-91{fill:url(#Áåçûìÿííûé_ãðàäèåíò_5504-14);}.cls-92{fill:url(#Áåçûìÿííûé_ãðàäèåíò_5530-5);}.cls-93{fill:#dbc6af;}.cls-94{fill:url(#Áåçûìÿííûé_ãðàäèåíò_37);}.cls-95{fill:url(#Áåçûìÿííûé_ãðàäèåíò_5530-6);}.cls-96{fill:url(#Áåçûìÿííûé_ãðàäèåíò_5508-13);}.cls-97{fill:url(#Áåçûìÿííûé_ãðàäèåíò_37-2);}.cls-98{fill:url(#Áåçûìÿííûé_ãðàäèåíò_5530-7);}.cls-99{fill:url(#Áåçûìÿííûé_ãðàäèåíò_5504-15);}.cls-100{fill:url(#Áåçûìÿííûé_ãðàäèåíò_5504-16);}.cls-101{fill:url(#Áåçûìÿííûé_ãðàäèåíò_5504-17);}.cls-102{fill:url(#Áåçûìÿííûé_ãðàäèåíò_12-12);}.cls-103{fill:url(#Áåçûìÿííûé_ãðàäèåíò_5508-14);}.cls-104{fill:#0071bc;}.cls-105{fill:#fcce5b;}</style><clipPath id="clip-path"><rect class="cls-1" width="1240" height="945"/></clipPath><linearGradient id="Áåçûìÿííûé_ãðàäèåíò_80" x1="8323.62" y1="2155.04" x2="7984.18" y2="2155.04" gradientTransform="matrix(0, 1, -1, 0, 2426.21, -7659.04)" gradientUnits="userSpaceOnUse"><stop offset="0" stop-color="#fff"/><stop offset="1" stop-color="#fdf7e2"/></linearGradient><linearGradient id="Áåçûìÿííûé_ãðàäèåíò_5563" x1="465.96" y1="246.08" x2="202.06" y2="583.57" gradientUnits="userSpaceOnUse"><stop offset="0" stop-color="#5ea88f"/><stop offset="1" stop-color="#556d80"/></linearGradient><linearGradient id="Áåçûìÿííûé_ãðàäèåíò_5563-2" x1="328.23" y1="389.73" x2="268.47" y2="497.42" xlink:href="#Áåçûìÿííûé_ãðàäèåíò_5563"/><linearGradient id="Áåçûìÿííûé_ãðàäèåíò_5563-3" x1="8041.76" y1="2153.39" x2="8256.28" y2="2153.39" gradientTransform="matrix(-0.92, 0.4, -0.4, -0.92, 8727.59, -733.54)" xlink:href="#Áåçûìÿííûé_ãðàäèåíò_5563"/><linearGradient id="Áåçûìÿííûé_ãðàäèåíò_5563-4" x1="8041.76" y1="2153.39" x2="8256.28" y2="2153.39" gradientTransform="matrix(0.4, 0.92, -0.92, 0.4, -978.34, -7845.99)" xlink:href="#Áåçûìÿííûé_ãðàäèåíò_5563"/><linearGradient id="Áåçûìÿííûé_ãðàäèåíò_80-2" x1="-4023.43" y1="-5090.39" x2="-4078.93" y2="-5090.39" gradientTransform="translate(6692.12 -566.73) rotate(-60.84)" xlink:href="#Áåçûìÿííûé_ãðàäèåíò_80"/><linearGradient id="Áåçûìÿííûé_ãðàäèåíò_80-3" x1="3187.33" y1="1046.18" x2="2844.18" y2="1046.18" gradientTransform="translate(1298.85 -2427.93) rotate(90)" xlink:href="#Áåçûìÿííûé_ãðàäèåíò_80"/><linearGradient id="Áåçûìÿííûé_ãðàäèåíò_5563-5" x1="243.9" y1="323.58" x2="255.74" y2="683.91" xlink:href="#Áåçûìÿííûé_ãðàäèåíò_5563"/><linearGradient id="Áåçûìÿííûé_ãðàäèåíò_5563-6" x1="2961.68" y1="1044.51" x2="3062.94" y2="1044.51" gradientTransform="matrix(0.7, 0.72, -0.72, 0.7, -1098.31, -2304.34)" xlink:href="#Áåçûìÿííûé_ãðàäèåíò_5563"/><linearGradient id="Áåçûìÿííûé_ãðàäèåíò_5563-7" x1="2902.39" y1="1044.51" x2="3119.25" y2="1044.51" gradientTransform="translate(1618.09 -2356.43) rotate(94.8)" xlink:href="#Áåçûìÿííûé_ãðàäèåíò_5563"/><linearGradient id="Áåçûìÿííûé_ãðàäèåíò_5563-8" x1="2902.39" y1="1044.51" x2="3119.25" y2="1044.51" gradientTransform="translate(760.27 -2529.49) rotate(80.98)" xlink:href="#Áåçûìÿííûé_ãðàäèåíò_5563"/><linearGradient id="Áåçûìÿííûé_ãðàäèåíò_80-4" x1="417.03" y1="609.74" x2="471.65" y2="609.74" gradientTransform="translate(416.73 -154.52) rotate(48.61)" xlink:href="#Áåçûìÿííûé_ãðàäèåíò_80"/><linearGradient id="Áåçûìÿííûé_ãðàäèåíò_5508" x1="908.31" y1="721.64" x2="1271.74" y2="721.64" gradientUnits="userSpaceOnUse"><stop offset="0" stop-color="#79bada"/><stop offset="1" stop-color="#555ea3"/></linearGradient><linearGradient id="Áåçûìÿííûé_ãðàäèåíò_5504" x1="922.88" y1="627.9" x2="1168.79" y2="627.9" gradientTransform="translate(1945.7 1318.53) rotate(180)" gradientUnits="userSpaceOnUse"><stop offset="0" stop-color="#555ea3"/><stop offset="1" stop-color="#51537a"/></linearGradient><linearGradient id="Áåçûìÿííûé_ãðàäèåíò_13" x1="885.18" y1="710.37" x2="1169.22" y2="710.37" gradientTransform="translate(2086.94 1483.53) rotate(180)" gradientUnits="userSpaceOnUse"><stop offset="0.03" stop-color="#fdf7e2"/><stop offset="1" stop-color="#fce1aa"/></linearGradient><linearGradient id="Áåçûìÿííûé_ãðàäèåíò_13-2" x1="885.18" y1="710.37" x2="1169.22" y2="710.37" gradientTransform="translate(1857.02 1483.41) rotate(180)" xlink:href="#Áåçûìÿííûé_ãðàäèåíò_13"/><linearGradient id="Áåçûìÿííûé_ãðàäèåíò_13-3" x1="885.18" y1="678.66" x2="1169.22" y2="678.66" gradientTransform="translate(1945.65 1420.05) rotate(180)" xlink:href="#Áåçûìÿííûé_ãðàäèåíò_13"/><linearGradient id="Áåçûìÿííûé_ãðàäèåíò_12" x1="738.53" y1="128" x2="928.58" y2="127.19" gradientUnits="userSpaceOnUse"><stop offset="0" stop-color="#e0eff6"/><stop offset="1" stop-color="#81abd0"/></linearGradient><linearGradient id="Áåçûìÿííûé_ãðàäèåíò_2442" x1="804.78" y1="128.4" x2="864.6" y2="134.36" gradientUnits="userSpaceOnUse"><stop offset="0" stop-color="#fcce79"/><stop offset="1" stop-color="#e57f54"/></linearGradient><linearGradient id="Áåçûìÿííûé_ãðàäèåíò_54" x1="794.87" y1="119.61" x2="797.1" y2="119.61" gradientUnits="userSpaceOnUse"><stop offset="0" stop-color="#e57f54"/><stop offset="1" stop-color="#d8513e"/></linearGradient><linearGradient id="Áåçûìÿííûé_ãðàäèåíò_54-2" x1="816.7" y1="114.25" x2="816.7" y2="109.16" xlink:href="#Áåçûìÿííûé_ãðàäèåíò_54"/><linearGradient id="Áåçûìÿííûé_ãðàäèåíò_2442-2" x1="675.39" y1="261.06" x2="897.84" y2="260.11" xlink:href="#Áåçûìÿííûé_ãðàäèåíò_2442"/><linearGradient id="Áåçûìÿííûé_ãðàäèåíò_54-3" x1="411.42" y1="199.72" x2="564.73" y2="199.07" gradientTransform="translate(590.82 -347.97) rotate(76.72)" xlink:href="#Áåçûìÿííûé_ãðàäèåíò_54"/><linearGradient id="Áåçûìÿííûé_ãðàäèåíò_5530" x1="491.48" y1="181.22" x2="760.63" y2="180.08" gradientUnits="userSpaceOnUse"><stop offset="0" stop-color="#fce1aa"/><stop offset="1" stop-color="#fcce79"/></linearGradient><linearGradient id="Áåçûìÿííûé_ãðàäèåíò_5504-2" x1="685.3" y1="155.98" x2="701.05" y2="155.91" gradientTransform="matrix(1, 0, 0, 1, 0, 0)" xlink:href="#Áåçûìÿííûé_ãðàäèåíò_5504"/><linearGradient id="Áåçûìÿííûé_ãðàäèåíò_5508-2" x1="560.51" y1="158.08" x2="727.62" y2="157.36" xlink:href="#Áåçûìÿííûé_ãðàäèåíò_5508"/><linearGradient id="Áåçûìÿííûé_ãðàäèåíò_5504-3" x1="658.97" y1="201.61" x2="669.98" y2="201.56" gradientTransform="translate(758.65 -488.53) rotate(80.78)" xlink:href="#Áåçûìÿííûé_ãðàäèåíò_5504"/><linearGradient id="Áåçûìÿííûé_ãðàäèåíò_5504-4" x1="643.96" y1="183.52" x2="703.43" y2="183.26" gradientTransform="matrix(1, 0, 0, 1, 0, 0)" xlink:href="#Áåçûìÿííûé_ãðàäèåíò_5504"/><linearGradient id="Áåçûìÿííûé_ãðàäèåíò_5504-5" x1="612.02" y1="332.4" x2="760.7" y2="331.77" gradientTransform="matrix(1, 0, 0, 1, 0, 0)" xlink:href="#Áåçûìÿííûé_ãðàäèåíò_5504"/><linearGradient id="Áåçûìÿííûé_ãðàäèåíò_5504-6" x1="705.16" y1="336.01" x2="726.39" y2="336.01" gradientTransform="matrix(1, 0, 0, 1, 0, 0)" xlink:href="#Áåçûìÿííûé_ãðàäèåíò_5504"/><linearGradient id="Áåçûìÿííûé_ãðàäèåíò_5508-3" x1="690.87" y1="323.81" x2="736.87" y2="323.81" xlink:href="#Áåçûìÿííûé_ãðàäèåíò_5508"/><linearGradient id="Áåçûìÿííûé_ãðàäèåíò_12-2" x1="719.15" y1="337.86" x2="718.93" y2="323.33" xlink:href="#Áåçûìÿííûé_ãðàäèåíò_12"/><linearGradient id="Áåçûìÿííûé_ãðàäèåíò_12-3" x1="724.31" y1="341.26" x2="725.07" y2="337.72" xlink:href="#Áåçûìÿííûé_ãðàäèåíò_12"/><linearGradient id="Áåçûìÿííûé_ãðàäèåíò_12-4" x1="725.25" y1="341.58" x2="725.2" y2="337.93" xlink:href="#Áåçûìÿííûé_ãðàäèåíò_12"/><linearGradient id="Áåçûìÿííûé_ãðàäèåíò_12-5" x1="726.02" y1="340.98" x2="725.56" y2="337.83" xlink:href="#Áåçûìÿííûé_ãðàäèåíò_12"/><linearGradient id="Áåçûìÿííûé_ãðàäèåíò_5508-4" x1="724.24" y1="337.94" x2="726.17" y2="337.94" xlink:href="#Áåçûìÿííûé_ãðàäèåíò_5508"/><linearGradient id="Áåçûìÿííûé_ãðàäèåíò_5504-7" x1="714.56" y1="324.65" x2="710.73" y2="322.91" gradientTransform="matrix(1, 0, 0, 1, 0, 0)" xlink:href="#Áåçûìÿííûé_ãðàäèåíò_5504"/><linearGradient id="Áåçûìÿííûé_ãðàäèåíò_5508-5" x1="442.36" y1="307.32" x2="640.8" y2="306.47" gradientTransform="translate(742.77 -325.05) rotate(76.72)" xlink:href="#Áåçûìÿííûé_ãðàäèåíò_5508"/><linearGradient id="Áåçûìÿííûé_ãðàäèåíò_5508-6" x1="576.74" y1="326.42" x2="576.74" y2="276.79" xlink:href="#Áåçûìÿííûé_ãðàäèåíò_5508"/><linearGradient id="Áåçûìÿííûé_ãðàäèåíò_5504-8" x1="551.41" y1="317.31" x2="560.5" y2="317.31" gradientTransform="matrix(1, 0, 0, 1, 0, 0)" xlink:href="#Áåçûìÿííûé_ãðàäèåíò_5504"/><linearGradient id="Áåçûìÿííûé_ãðàäèåíò_5508-7" x1="553.55" y1="317.31" x2="558.36" y2="317.31" xlink:href="#Áåçûìÿííûé_ãðàäèåíò_5508"/><linearGradient id="Áåçûìÿííûé_ãðàäèåíò_5504-9" x1="594.3" y1="317.31" x2="603.39" y2="317.31" gradientTransform="translate(770.08 -338.42) rotate(76.72)" xlink:href="#Áåçûìÿííûé_ãðàäèåíò_5504"/><linearGradient id="Áåçûìÿííûé_ãðàäèåíò_5508-8" x1="596.44" y1="317.31" x2="601.24" y2="317.31" gradientTransform="translate(770.08 -338.42) rotate(76.72)" xlink:href="#Áåçûìÿííûé_ãðàäèåíò_5508"/><linearGradient id="Áåçûìÿííûé_ãðàäèåíò_12-6" x1="542.86" y1="307.81" x2="549.76" y2="307.81" xlink:href="#Áåçûìÿííûé_ãðàäèåíò_12"/><linearGradient id="Áåçûìÿííûé_ãðàäèåíò_12-7" x1="608.16" y1="307.81" x2="610.72" y2="307.81" xlink:href="#Áåçûìÿííûé_ãðàäèåíò_12"/><linearGradient id="Áåçûìÿííûé_ãðàäèåíò_12-8" x1="559.02" y1="296.97" x2="598.57" y2="296.97" xlink:href="#Áåçûìÿííûé_ãðàäèåíò_12"/><linearGradient id="Áåçûìÿííûé_ãðàäèåíò_12-9" x1="558.86" y1="296.97" x2="598.67" y2="296.97" xlink:href="#Áåçûìÿííûé_ãðàäèåíò_12"/><linearGradient id="Áåçûìÿííûé_ãðàäèåíò_5508-9" x1="279.7" y1="610.86" x2="915.37" y2="610.86" xlink:href="#Áåçûìÿííûé_ãðàäèåíò_5508"/><linearGradient id="Áåçûìÿííûé_ãðàäèåíò_5508-10" x1="207.49" y1="811.73" x2="987.58" y2="811.73" xlink:href="#Áåçûìÿííûé_ãðàäèåíò_5508"/><linearGradient id="Áåçûìÿííûé_ãðàäèåíò_5504-10" x1="504.03" y1="794.26" x2="691.04" y2="794.26" gradientTransform="matrix(1, 0, 0, 1, 0, 0)" xlink:href="#Áåçûìÿííûé_ãðàäèåíò_5504"/><linearGradient id="Áåçûìÿííûé_ãðàäèåíò_5530-2" x1="748.96" y1="386.24" x2="1088.83" y2="386.24" gradientTransform="translate(-382.32 118.81) rotate(4.47)" xlink:href="#Áåçûìÿííûé_ãðàäèåíò_5530"/><linearGradient id="Áåçûìÿííûé_ãðàäèåíò_57" x1="748.96" y1="307.37" x2="1088.85" y2="307.37" gradientTransform="translate(-382.32 118.81) rotate(4.47)" gradientUnits="userSpaceOnUse"><stop offset="0" stop-color="#ffe2e4"/><stop offset="1" stop-color="#ffc1c2"/></linearGradient><linearGradient id="Áåçûìÿííûé_ãðàäèåíò_5508-11" x1="685.27" y1="307.37" x2="1016.51" y2="307.37" gradientTransform="translate(-382.32 118.81) rotate(4.47)" xlink:href="#Áåçûìÿííûé_ãðàäèåíò_5508"/><linearGradient id="Áåçûìÿííûé_ãðàäèåíò_57-2" x1="748.95" y1="497.34" x2="1088.84" y2="497.34" xlink:href="#Áåçûìÿííûé_ãðàäèåíò_57"/><linearGradient id="Áåçûìÿííûé_ãðàäèåíò_5504-11" x1="736.42" y1="497.34" x2="1242.35" y2="497.34" gradientTransform="translate(-382.32 118.81) rotate(4.47)" xlink:href="#Áåçûìÿííûé_ãðàäèåíò_5504"/><linearGradient id="Áåçûìÿííûé_ãðàäèåíò_57-3" x1="748.94" y1="513.84" x2="1088.85" y2="513.84" xlink:href="#Áåçûìÿííûé_ãðàäèåíò_57"/><linearGradient id="Áåçûìÿííûé_ãðàäèåíò_12-10" x1="333.83" y1="692.99" x2="586.14" y2="706.85" xlink:href="#Áåçûìÿííûé_ãðàäèåíò_12"/><linearGradient id="Áåçûìÿííûé_ãðàäèåíò_57-4" x1="748.95" y1="426.7" x2="1088.83" y2="426.7" xlink:href="#Áåçûìÿííûé_ãðàäèåíò_57"/><linearGradient id="Áåçûìÿííûé_ãðàäèåíò_54-4" x1="740.49" y1="426.7" x2="1090.96" y2="426.7" gradientTransform="translate(-382.32 118.81) rotate(4.47)" xlink:href="#Áåçûìÿííûé_ãðàäèåíò_54"/><linearGradient id="Áåçûìÿííûé_ãðàäèåíò_57-5" x1="748.95" y1="516.48" x2="1088.83" y2="516.48" xlink:href="#Áåçûìÿííûé_ãðàäèåíò_57"/><linearGradient id="Áåçûìÿííûé_ãðàäèåíò_98" x1="902.54" y1="516.48" x2="1247.49" y2="516.48" gradientTransform="translate(-382.32 118.81) rotate(4.47)" gradientUnits="userSpaceOnUse"><stop offset="0" stop-color="#9dcde4"/><stop offset="1" stop-color="#6689bd"/></linearGradient><linearGradient id="Áåçûìÿííûé_ãðàäèåíò_57-6" x1="748.94" y1="521.01" x2="1088.85" y2="521.01" xlink:href="#Áåçûìÿííûé_ãðàäèåíò_57"/><linearGradient id="Áåçûìÿííûé_ãðàäèåíò_2442-3" x1="749.71" y1="521.01" x2="1088.85" y2="521.01" gradientTransform="translate(-382.32 118.81) rotate(4.47)" xlink:href="#Áåçûìÿííûé_ãðàäèåíò_2442"/><linearGradient id="Áåçûìÿííûé_ãðàäèåíò_2442-4" x1="461.42" y1="551.65" x2="544.97" y2="635.2" xlink:href="#Áåçûìÿííûé_ãðàäèåíò_2442"/><linearGradient id="Áåçûìÿííûé_ãðàäèåíò_5530-3" x1="450.5" y1="592.59" x2="554.22" y2="592.59" xlink:href="#Áåçûìÿííûé_ãðàäèåíò_5530"/><linearGradient id="Áåçûìÿííûé_ãðàäèåíò_80-5" x1="698.78" y1="467.54" x2="850.23" y2="467.54" gradientTransform="matrix(1, 0, 0, 1, 0, 0)" xlink:href="#Áåçûìÿííûé_ãðàäèåíò_80"/><linearGradient id="Áåçûìÿííûé_ãðàäèåíò_80-6" x1="698.78" y1="509.23" x2="850.23" y2="509.23" gradientTransform="matrix(1, 0, 0, 1, 0, 0)" xlink:href="#Áåçûìÿííûé_ãðàäèåíò_80"/><linearGradient id="Áåçûìÿííûé_ãðàäèåíò_80-7" x1="698.78" y1="550.91" x2="850.23" y2="550.91" gradientTransform="matrix(1, 0, 0, 1, 0, 0)" xlink:href="#Áåçûìÿííûé_ãðàäèåíò_80"/><linearGradient id="Áåçûìÿííûé_ãðàäèåíò_80-8" x1="698.78" y1="592.59" x2="850.23" y2="592.59" gradientTransform="matrix(1, 0, 0, 1, 0, 0)" xlink:href="#Áåçûìÿííûé_ãðàäèåíò_80"/><linearGradient id="Áåçûìÿííûé_ãðàäèåíò_80-9" x1="698.78" y1="634.28" x2="850.23" y2="634.28" gradientTransform="matrix(1, 0, 0, 1, 0, 0)" xlink:href="#Áåçûìÿííûé_ãðàäèåíò_80"/><linearGradient id="Áåçûìÿííûé_ãðàäèåíò_80-10" x1="698.78" y1="675.96" x2="850.23" y2="675.96" gradientTransform="matrix(1, 0, 0, 1, 0, 0)" xlink:href="#Áåçûìÿííûé_ãðàäèåíò_80"/><linearGradient id="Áåçûìÿííûé_ãðàäèåíò_80-11" x1="698.78" y1="717.65" x2="850.23" y2="717.65" gradientTransform="matrix(1, 0, 0, 1, 0, 0)" xlink:href="#Áåçûìÿííûé_ãðàäèåíò_80"/><linearGradient id="Áåçûìÿííûé_ãðàäèåíò_5530-4" x1="698.78" y1="467.54" x2="826.34" y2="467.54" xlink:href="#Áåçûìÿííûé_ãðàäèåíò_5530"/><linearGradient id="Áåçûìÿííûé_ãðàäèåíò_5508-12" x1="698.78" y1="509.23" x2="781.13" y2="509.23" xlink:href="#Áåçûìÿííûé_ãðàäèåíò_5508"/><linearGradient id="Áåçûìÿííûé_ãðàäèåíò_54-5" x1="698.78" y1="550.91" x2="752.67" y2="550.91" xlink:href="#Áåçûìÿííûé_ãðàäèåíò_54"/><linearGradient id="Áåçûìÿííûé_ãðàäèåíò_5504-12" x1="698.78" y1="592.59" x2="726.02" y2="592.59" gradientTransform="matrix(1, 0, 0, 1, 0, 0)" xlink:href="#Áåçûìÿííûé_ãðàäèåíò_5504"/><linearGradient id="Áåçûìÿííûé_ãðàäèåíò_12-11" x1="698.78" y1="634.28" x2="709.03" y2="634.28" xlink:href="#Áåçûìÿííûé_ãðàäèåíò_12"/><linearGradient id="Áåçûìÿííûé_ãðàäèåíò_2442-5" x1="698.78" y1="675.96" x2="718.17" y2="675.96" xlink:href="#Áåçûìÿííûé_ãðàäèåíò_2442"/><linearGradient id="Áåçûìÿííûé_ãðàäèåíò_98-2" x1="698.78" y1="717.65" x2="741.33" y2="717.65" gradientTransform="matrix(1, 0, 0, 1, 0, 0)" xlink:href="#Áåçûìÿííûé_ãðàäèåíò_98"/><linearGradient id="Áåçûìÿííûé_ãðàäèåíò_98-3" x1="881.62" y1="201.34" x2="1026.63" y2="200.72" gradientTransform="matrix(1, 0, 0, 1, 0, 0)" xlink:href="#Áåçûìÿííûé_ãðàäèåíò_98"/><linearGradient id="Áåçûìÿííûé_ãðàäèåíò_5504-13" x1="462.46" y1="341.14" x2="438.4" y2="360" gradientTransform="matrix(1, 0, 0, 1, 0, 0)" xlink:href="#Áåçûìÿííûé_ãðàäèåíò_5504"/><linearGradient id="Áåçûìÿííûé_ãðàäèåíò_5504-14" x1="470.39" y1="368.28" x2="399.83" y2="412.18" gradientTransform="matrix(1, 0, 0, 1, 0, 0)" xlink:href="#Áåçûìÿííûé_ãðàäèåíò_5504"/><linearGradient id="Áåçûìÿííûé_ãðàäèåíò_5530-5" x1="424.63" y1="306.15" x2="370.43" y2="307.02" xlink:href="#Áåçûìÿííûé_ãðàäèåíò_5530"/><linearGradient id="Áåçûìÿííûé_ãðàäèåíò_37" x1="407.81" y1="315.09" x2="344.07" y2="305.66" gradientUnits="userSpaceOnUse"><stop offset="0" stop-color="#fcce79"/><stop offset="1" stop-color="#e3a76b"/></linearGradient><linearGradient id="Áåçûìÿííûé_ãðàäèåíò_5530-6" x1="365.85" y1="323.45" x2="340.05" y2="313.91" xlink:href="#Áåçûìÿííûé_ãðàäèåíò_5530"/><linearGradient id="Áåçûìÿííûé_ãðàäèåíò_5508-13" x1="433.1" y1="319.17" x2="483.8" y2="319.17" xlink:href="#Áåçûìÿííûé_ãðàäèåíò_5508"/><linearGradient id="Áåçûìÿííûé_ãðàäèåíò_37-2" x1="880.24" y1="682.45" x2="929.67" y2="676.92" xlink:href="#Áåçûìÿííûé_ãðàäèåíò_37"/><linearGradient id="Áåçûìÿííûé_ãðàäèåíò_5530-7" x1="896.52" y1="661.12" x2="982.59" y2="661.12" xlink:href="#Áåçûìÿííûé_ãðàäèåíò_5530"/><linearGradient id="Áåçûìÿííûé_ãðàäèåíò_5504-15" x1="855.35" y1="542.94" x2="908.03" y2="559.85" gradientTransform="matrix(1, 0, 0, 1, 0, 0)" xlink:href="#Áåçûìÿííûé_ãðàäèåíò_5504"/><linearGradient id="Áåçûìÿííûé_ãðàäèåíò_5504-16" x1="888.99" y1="567.41" x2="948.17" y2="560.26" gradientTransform="matrix(1, 0, 0, 1, 0, 0)" xlink:href="#Áåçûìÿííûé_ãðàäèåíò_5504"/><linearGradient id="Áåçûìÿííûé_ãðàäèåíò_5504-17" x1="928.76" y1="574.83" x2="954.45" y2="566.37" gradientTransform="matrix(1, 0, 0, 1, 0, 0)" xlink:href="#Áåçûìÿííûé_ãðàäèåíò_5504"/><linearGradient id="Áåçûìÿííûé_ãðàäèåíò_12-12" x1="1003.41" y1="291.97" x2="885.57" y2="436.87" xlink:href="#Áåçûìÿííûé_ãðàäèåíò_12"/><linearGradient id="Áåçûìÿííûé_ãðàäèåíò_5508-14" x1="909.03" y1="376.25" x2="963.65" y2="376.25" xlink:href="#Áåçûìÿííûé_ãðàäèåíò_5508"/></defs><g id="Layer_2" data-name="Layer 2"><g id="Layer_2-2" data-name="Layer 2"><g class="cls-2"><rect class="cls-3" width="1240" height="945"/><rect class="cls-4" x="192.59" y="325.44" width="156.85" height="339.9" transform="translate(-173.99 147.78) rotate(-23.32)"/><path class="cls-5" d="M278.7,300.84,124.28,367.42l139,322.51,154.42-66.57ZM299.49,662a32.94,32.94,0,0,0-43.29-17.21h0l-104-241.23h0a32.94,32.94,0,0,0,17.21-43.29l73.14-31.54A32.94,32.94,0,0,0,285.83,346l104,241.24a32.94,32.94,0,0,0-17.21,43.29Z"/><circle class="cls-6" cx="271.41" cy="492.12" r="49.55"/><circle class="cls-7" cx="308.11" cy="577.24" r="13.6" transform="translate(-270.02 883.68) rotate(-89.83)"/><circle class="cls-8" cx="234.71" cy="407" r="13.6"/><path class="cls-9" d="M302.37,475.87l3.21,7.46-5.11,2.21a31.65,31.65,0,0,1,1,18.1l-12.06-4.55a27.48,27.48,0,0,0,.67-9.24l-10.8,4.65q3,19-8.68,24a14.18,14.18,0,0,1-11.82-.08q-5.91-2.62-10.84-10.56l-6.5,2.8-3.16-7.33,6.43-2.77-.53-1.21A32.8,32.8,0,0,1,242,488.9a24.76,24.76,0,0,1,1.27-10.72l11.57,4.33a25.22,25.22,0,0,0-.38,13.92L267,491q-1.82-8.92.6-15a15.05,15.05,0,0,1,19.83-8.71q5.9,2.39,9.9,10.78ZM278,486.26l9.19-4q-3-3.66-6.25-2.26Q277.44,481.56,278,486.26Zm-10,13.12-9.71,4.19q3,4.2,6.82,2.55Q268.6,504.61,268,499.38Z"/><rect class="cls-10" x="173.32" y="416.6" width="158.56" height="343.62" transform="translate(-338.55 342.28) rotate(-44.16)"/><path class="cls-11" d="M189.89,401.84,67.94,520.27,315.3,775l122-118.44ZM339.43,735.6a33.3,33.3,0,0,0-47.09-.68h0l-185-190.52h0a33.29,33.29,0,0,0,.69-47.09l57.77-56.1a33.31,33.31,0,0,0,47.09.69l185,190.51a33.32,33.32,0,0,0-.69,47.1Z"/><circle class="cls-12" cx="251.8" cy="585.18" r="50.09"/><circle class="cls-13" cx="317.08" cy="652.4" r="13.74" transform="translate(-383.2 463.25) rotate(-48.96)"/><circle class="cls-14" cx="186.51" cy="517.95" r="13.74" transform="translate(-264.13 201.74) rotate(-35.14)"/><path class="cls-15" d="M263.19,592.15l7.88,8.94L253.9,616.22a33.39,33.39,0,0,1-9.58-3.63,40.18,40.18,0,0,1-8.56-6.36l-6.65,5.85-5.33-6,6.77-6a31.38,31.38,0,0,1-5.26-13.35,27.23,27.23,0,0,1,1.49-13.6,30.54,30.54,0,0,1,20.73-18.27,27.69,27.69,0,0,1,13.71.21,31.06,31.06,0,0,1,12.61,6.87l6.77-6,5.32,6-6.59,5.81a32.6,32.6,0,0,1,5.49,10.67,26.92,26.92,0,0,1,.84,11.13l-11.34-1.17a19.26,19.26,0,0,0-3.39-13.23L244.1,598.88a21.37,21.37,0,0,0,6.7,4.19ZM237.7,581.32a16.85,16.85,0,0,0,1.5,11.14l26-22.9a16.93,16.93,0,0,0-10.83-2.91,19.5,19.5,0,0,0-16.65,14.67Z"/><path class="cls-16" d="M1014.82,641.26,785,641a8,8,0,0,0-8,8L776.79,794a8,8,0,0,0,8,8l229.85.24a8,8,0,0,0,8-8l.15-144.94A8,8,0,0,0,1014.82,641.26Z"/><rect class="cls-17" x="776.9" y="672.64" width="245.91" height="36.02" transform="translate(1799 1382.21) rotate(-179.94)"/><rect class="cls-18" x="938.62" y="768.52" width="63.61" height="9.32" transform="translate(1940.07 1547.35) rotate(-179.94)"/><rect class="cls-19" x="797.3" y="768.41" width="116.34" height="9.32" transform="translate(1710.15 1547) rotate(-179.94)"/><rect class="cls-20" x="797.33" y="736.75" width="204.93" height="9.32" transform="translate(1798.84 1483.73) rotate(-179.94)"/><circle class="cls-21" cx="812.83" cy="127.68" r="45.84"/><circle class="cls-22" cx="812.83" cy="127.68" r="39.58"/><path class="cls-23" d="M847.75,122.16a.41.41,0,0,0-.42-.12h0a7.11,7.11,0,0,1-1.29.3,7.61,7.61,0,0,1-.82.09v0a3.83,3.83,0,0,0,.14-1.61,4,4,0,0,0-.17-.78c0-.13-.09-.26-.14-.39a3.35,3.35,0,0,0-.2-.37,2.58,2.58,0,0,0-.58-.66,2.12,2.12,0,0,0-.81-.4,2.29,2.29,0,0,0-.9,0,2.56,2.56,0,0,0-1.51.84,2.25,2.25,0,0,0-.43.77,2.28,2.28,0,0,0-.13.86c0,.14,0,.28,0,.42a2.77,2.77,0,0,0,.12.41,2.93,2.93,0,0,0,.19.4,3,3,0,0,0,.26.34,2.75,2.75,0,0,0,.66.53,2.31,2.31,0,0,0,.35.18c.12.06.25.1.37.15a5.3,5.3,0,0,0,.74.18l.18,0a4.76,4.76,0,0,1-.77.64,6.46,6.46,0,0,1-1.13.61,8.39,8.39,0,0,1-1.57.48c-1.12-10-10.12-17.77-24.71-17.77a38.75,38.75,0,0,0-10.52,1.43,14.59,14.59,0,0,0-7.23-3.7.8.8,0,0,0-.89,1.09,17.22,17.22,0,0,1,1.18,4.6c0,.27,0,.53.05.8a21.57,21.57,0,0,0-9.67,9.89h0l-3.12.77a1.53,1.53,0,0,0-1.16,1.48v9.92a1.51,1.51,0,0,0,1.45,1.52l4,.19a23.28,23.28,0,0,0,9.29,8.07L801,150a1.37,1.37,0,0,0,1.29.92h4a1.38,1.38,0,0,0,1.34-1.09l.7-3.33a40.42,40.42,0,0,0,7,.6,36.52,36.52,0,0,0,5.77-.44l.67,3.17a1.36,1.36,0,0,0,1.34,1.09h4a1.37,1.37,0,0,0,1.3-.92l2.33-6.67a18.47,18.47,0,0,0,9.46-16.15c0-.31,0-.62,0-.92l.54-.13a10.23,10.23,0,0,0,1.41-.49,8.46,8.46,0,0,0,1.31-.74,5.64,5.64,0,0,0,1.15-1,4.46,4.46,0,0,0,.35-.5,8.83,8.83,0,0,0,1.36-.14,9,9,0,0,0,1.42-.36A.41.41,0,0,0,847.75,122.16Zm-3.47-.65a2.66,2.66,0,0,1-.12.56c0,.12-.1.24-.16.36a5.77,5.77,0,0,1-.6-.09,3.89,3.89,0,0,1-.61-.16l-.29-.12-.26-.14a2.06,2.06,0,0,1-.42-.35,1.46,1.46,0,0,1-.26-.45,1.11,1.11,0,0,1-.07-.26,1.24,1.24,0,0,1,0-.27,1.44,1.44,0,0,1,.09-.51,1.5,1.5,0,0,1,.26-.44,1.38,1.38,0,0,1,.4-.32,1.46,1.46,0,0,1,.49-.15,1.33,1.33,0,0,1,.49,0,1.13,1.13,0,0,1,.42.22,1.55,1.55,0,0,1,.33.39,1.15,1.15,0,0,1,.12.25c0,.09.07.18.1.27a.83.83,0,0,0,0,.15l0,.14c0,.1,0,.2,0,.3a1.46,1.46,0,0,1,0,.29C844.29,121.31,844.29,121.41,844.28,121.51Z"/><path class="cls-24" d="M797.11,119.61a1.1,1.1,0,1,1-1.1-1.11A1.1,1.1,0,0,1,797.11,119.61Z"/><path class="cls-25" d="M823.4,109.61a88.15,88.15,0,0,0-13.4,0c-.15,0-.26.11-.25.23l.12,1.56a.24.24,0,0,0,.28.19,86.8,86.8,0,0,1,13.1,0,.24.24,0,0,0,.28-.19l.12-1.56C823.66,109.72,823.55,109.62,823.4,109.61Z"/><circle class="cls-26" cx="826.04" cy="260.42" r="53.66"/><circle class="cls-22" cx="826.04" cy="260.42" r="46.33"/><path class="cls-27" d="M811.78,270.78a3.63,3.63,0,0,1-3.66,3.6h0a3.63,3.63,0,0,1-3.66-3.6v-17a3.63,3.63,0,0,1,3.66-3.59h0a3.63,3.63,0,0,1,3.66,3.59Z"/><path class="cls-27" d="M825.24,270.78a3.63,3.63,0,0,1-3.66,3.6h0a3.63,3.63,0,0,1-3.66-3.6v-17a3.63,3.63,0,0,1,3.66-3.59h0a3.63,3.63,0,0,1,3.66,3.59Z"/><path class="cls-27" d="M838.87,270.78a3.63,3.63,0,0,1-3.66,3.6h0a3.63,3.63,0,0,1-3.66-3.6v-17a3.63,3.63,0,0,1,3.66-3.59h0a3.63,3.63,0,0,1,3.66,3.59Z"/><path class="cls-27" d="M851.83,270.78a3.63,3.63,0,0,1-3.66,3.6h0a3.62,3.62,0,0,1-3.65-3.6v-17a3.62,3.62,0,0,1,3.65-3.59h0a3.63,3.63,0,0,1,3.66,3.59Z"/><rect class="cls-27" x="798.81" y="277.15" width="57.01" height="8.98"/><polygon class="cls-27" points="847.36 239.03 828.06 230 807.6 239.03 798.81 239.03 798.81 248.01 855.82 248.01 855.82 239.03 847.36 239.03"/><circle class="cls-28" cx="515.25" cy="199.28" r="36.98" transform="translate(202.92 654.96) rotate(-76.72)"/><circle class="cls-22" cx="515.25" cy="199.28" r="31.93" transform="translate(202.92 654.96) rotate(-76.72)"/><circle class="cls-29" cx="673.75" cy="180.45" r="64.92"/><circle class="cls-22" cx="673.75" cy="180.45" r="56.05"/><rect class="cls-30" x="692.19" y="148.86" width="7.55" height="14.14" rx="1.41"/><path class="cls-31" d="M713.44,173.79l-38.39-35.37a1.91,1.91,0,0,0-2.6,0l-38.39,35.37a1.92,1.92,0,0,0,1.3,3.33h76.78A1.92,1.92,0,0,0,713.44,173.79Z"/><circle class="cls-32" cx="666.43" cy="201.58" r="2.65" transform="translate(360.7 827.11) rotate(-80.78)"/><path class="cls-33" d="M703.4,177.12v38.46a1.92,1.92,0,0,1-1.92,1.92h-14.6V186.28a3.4,3.4,0,0,0-3.4-3.4H664a3.4,3.4,0,0,0-3.4,3.4V217.5H646a1.92,1.92,0,0,1-1.92-1.92V177.12l6.68-6.3,23-21.65,23,21.65Z"/><path class="cls-22" d="M674.27,157.09h-1a7,7,0,0,0-7,7v5.15a2.4,2.4,0,0,0,2.4,2.4h10.18a2.4,2.4,0,0,0,2.4-2.4v-5.15A7,7,0,0,0,674.27,157.09Z"/><circle class="cls-34" cx="712.7" cy="331.98" r="35.86"/><circle class="cls-22" cx="712.7" cy="331.98" r="30.96"/><path class="cls-35" d="M698.51,344.8v-21H726.9v21A31.29,31.29,0,0,1,698.51,344.8Z"/><polygon class="cls-36" points="712.71 331.26 688.58 323.81 712.71 316.35 736.83 323.81 712.71 331.26"/><path class="cls-37" d="M725.33,327l-12.52-3.52a.39.39,0,0,0-.48.28.42.42,0,0,0,.29.46l12,3.38a.27.27,0,0,1,.2.27v9.54a.39.39,0,0,0,.34.4.38.38,0,0,0,.42-.38V327.33A.4.4,0,0,0,725.33,327Z"/><path class="cls-38" d="M724.38,342h-.09a.35.35,0,0,1-.27-.4l.4-3.17a.38.38,0,0,1,.37-.34.36.36,0,0,1,.35.41l-.4,3.19A.37.37,0,0,1,724.38,342Z"/><path class="cls-39" d="M725.23,342.06a.38.38,0,0,1-.37-.37v-3.27a.37.37,0,0,1,.37-.37.36.36,0,0,1,.36.37v3.27A.37.37,0,0,1,725.23,342.06Z"/><path class="cls-40" d="M726.08,342a.36.36,0,0,1-.36-.31l-.41-3.17a.38.38,0,0,1,.28-.42.36.36,0,0,1,.44.31l.41,3.19a.37.37,0,0,1-.28.4Z"/><path class="cls-41" d="M724.57,337.07h1.26a.34.34,0,0,1,.34.34v1.12a.28.28,0,0,1-.28.28h-1.37a.28.28,0,0,1-.28-.28V337.4A.34.34,0,0,1,724.57,337.07Z"/><path class="cls-42" d="M713.75,323.81c0,.44-.47.79-1,.79a.82.82,0,1,1,0-1.59C713.28,323,713.75,323.36,713.75,323.81Z"/><circle class="cls-43" cx="576.74" cy="306.74" r="47.87" transform="translate(145.7 797.58) rotate(-76.72)"/><circle class="cls-22" cx="576.74" cy="306.74" r="41.33"/><path class="cls-44" d="M612,311.33a1.66,1.66,0,0,0-1.3-1.62h0v-3.27a4.58,4.58,0,0,0,0-.53,4.2,4.2,0,0,0-.36-1.22,4,4,0,0,0-3.65-2.3H602l-1-4.11a13,13,0,0,0-12.65-10H576a17.1,17.1,0,0,0-14.25,7.63l-4.21,6.33a.34.34,0,0,1-.28.14h-4.15a11.88,11.88,0,0,0-7.63,2.3,7,7,0,0,0-1.15,1.22,7.74,7.74,0,0,0-1.47,3.74v.05h-.09a1.66,1.66,0,0,0-1.29,1.62V315a2,2,0,0,0,2,2h7.41a.33.33,0,0,0,.33-.3,4.79,4.79,0,0,1,9.5,0,.33.33,0,0,0,.32.3h32.71a.33.33,0,0,0,.33-.3,4.79,4.79,0,0,1,9.49,0,.34.34,0,0,0,.33.3H610a2,2,0,0,0,2-2v-3.67Z"/><circle class="cls-45" cx="555.95" cy="317.31" r="4.55"/><circle class="cls-46" cx="555.95" cy="317.31" r="2.4"/><circle class="cls-47" cx="598.84" cy="317.31" r="4.55" transform="translate(152.44 827.23) rotate(-76.72)"/><circle class="cls-48" cx="598.84" cy="317.31" r="2.4" transform="translate(152.44 827.23) rotate(-76.72)"/><path class="cls-49" d="M549.76,307.53v.56a1.62,1.62,0,0,1-1.63,1.62h-4.85a1.42,1.42,0,0,1-.42-.06c0-.28.08-.55.14-.81a7.65,7.65,0,0,1,.77-2.06,7,7,0,0,1,.46-.74.34.34,0,0,1,.27-.13h3.63A1.62,1.62,0,0,1,549.76,307.53Z"/><path class="cls-50" d="M610.72,309.71H609.5a1.31,1.31,0,0,1-1.34-1.29V307.2a1.31,1.31,0,0,1,1.34-1.29h1.18a4.58,4.58,0,0,1,0,.53v3.27Z"/><path class="cls-51" d="M597.51,301.94l-.7-2.94a9.65,9.65,0,0,0-9.39-7.4H584a.33.33,0,0,0-.33.33V302a.34.34,0,0,0,.33.34h13.21A.34.34,0,0,0,597.51,301.94Z"/><path class="cls-52" d="M576.87,291.6a14.75,14.75,0,0,0-12.28,6.58l-2.78,4.17H581V291.6Z"/><rect class="cls-53" x="279.7" y="382.69" width="635.68" height="456.34" rx="41.73"/><path class="cls-22" d="M889.9,442.17V782.72a37.8,37.8,0,0,1-1,8.77,38.35,38.35,0,0,1-37.37,29.34h-508a38.24,38.24,0,0,1-38.38-38.11V442.17a38.24,38.24,0,0,1,38.38-38.1h508A38.25,38.25,0,0,1,889.9,442.17Z"/><path class="cls-54" d="M207.49,784.43V797.3c0,23.05,22.93,41.73,51.21,41.73H936.37c28.28,0,51.21-18.68,51.21-41.73V784.43Z"/><path class="cls-55" d="M504,784.43v4.63c0,8.3,5.5,15,12.28,15H678.76c6.78,0,12.28-6.73,12.28-15v-4.63Z"/><path class="cls-56" d="M628.34,484.9a164.63,164.63,0,0,0-108.85-57.15l-7.31,93.48a72,72,0,0,1,31.38,130.46l49,79.87A165.64,165.64,0,0,0,628.34,484.9Z"/><path class="cls-57" d="M503.77,520.57l7.32-93.47c-3-.16-5.92-.24-8.85-.24H500.1l-1.85,0h0c-1.3,0-2.59.07-3.88.14h-.1a166.2,166.2,0,0,0-143.36,98.31l86.64,35.84A72.07,72.07,0,0,1,503.77,520.57Z"/><path class="cls-58" d="M503.77,520.57l7.32-93.47c-3-.16-5.92-.24-8.85-.24H500.1l-1.85,0h0c-1.3,0-2.59.07-3.88.14h-.1a166.2,166.2,0,0,0-143.36,98.31l86.64,35.84A72.07,72.07,0,0,1,503.77,520.57Z"/><path class="cls-59" d="M443.27,633.79l-79.94,49c.11.18.23.36.35.54l.5.76.68,1,.48.71q.38.55.75,1.08l.44.64.94,1.33.27.37q.6.84,1.23,1.68c.11.16.23.31.34.46l.91,1.22.47.61.81,1,.51.65c.27.33.53.67.79,1l.54.66.79,1,.54.65.82,1,.53.63.88,1,.49.57,1,1.15.37.42c.47.52.94,1,1.42,1.57l.09.09c.44.49.89,1,1.33,1.44l.45.47,1,1.05.54.56.93.94.58.58.91.91.59.59.92.89.6.57.95.9.58.54,1,1,.5.46,1.36,1.22.2.18,1.58,1.38.45.38,1.15,1,.6.5,1,.83.67.54,1,.78.69.55,1,.75.7.54,1,.75.68.51,1,.77.08.06.13.09.13.09.77.56a.7.7,0,0,0,.1.08l.62.45.5.36.07,0,29.18-43.56,23-34.34A72.52,72.52,0,0,1,443.27,633.79Z"/><path class="cls-60" d="M443.27,633.79l-79.94,49c.11.18.23.36.35.54l.5.76.68,1,.48.71q.38.55.75,1.08l.44.64.94,1.33.27.37q.6.84,1.23,1.68c.11.16.23.31.34.46l.91,1.22.47.61.81,1,.51.65c.27.33.53.67.79,1l.54.66.79,1,.54.65.82,1,.53.63.88,1,.49.57,1,1.15.37.42c.47.52.94,1,1.42,1.57l.09.09c.44.49.89,1,1.33,1.44l.45.47,1,1.05.54.56.93.94.58.58.91.91.59.59.92.89.6.57.95.9.58.54,1,1,.5.46,1.36,1.22.2.18,1.58,1.38.45.38,1.15,1,.6.5,1,.83.67.54,1,.78.69.55,1,.75.7.54,1,.75.68.51,1,.77.08.06.13.09.13.09.77.56a.7.7,0,0,0,.1.08l.62.45.5.36.07,0,29.18-43.56,23-34.34A72.52,72.52,0,0,1,443.27,633.79Z"/><path class="cls-22" d="M389.31,725.08l.22.18,0,0,.14.11-.61-.51Z"/><path class="cls-22" d="M394.53,729.37l.06,0,.15.11-.31-.25Z"/><path class="cls-22" d="M404.57,726.4l-.13-.09-.13-.09.56.42.57.4a.7.7,0,0,1-.1-.08Z"/><path class="cls-61" d="M436.74,698.11,413.63,732.6c4.21,2.67,8.55,5.15,13,7.43l.81.41,1.56.79,1.37.66.9.43,1.88.89.15.06,1.84.83L471,657.45q-2.64-1.28-5.14-2.76Z"/><path class="cls-62" d="M436.74,698.11,413.63,732.6c4.21,2.67,8.55,5.15,13,7.43l.81.41,1.56.79,1.37.66.9.43,1.88.89.15.06,1.84.83L471,657.45q-2.64-1.28-5.14-2.76Z"/><path class="cls-63" d="M430.54,587a72.39,72.39,0,0,1,3.75-18l-86.65-35.85q-2.82,7.35-5,15l0,.13c-.29,1.05-.57,2.1-.84,3.16l-.21.81c-.12.48-.24,1-.35,1.44s-.21.86-.31,1.3c-.14.6-.27,1.2-.4,1.8s-.22,1-.32,1.48-.15.72-.23,1.08c-.15.74-.29,1.47-.43,2.2l-.15.79c-.12.65-.23,1.29-.34,1.94l-.15.86c-.14.82-.27,1.65-.4,2.48l-.06.41c-.11.75-.22,1.5-.32,2.25L338,571q-.18,1.31-.33,2.61a1.1,1.1,0,0,1,0,.18c-.09.83-.18,1.66-.26,2.49l-.06.68q-.14,1.34-.24,2.67c-.07,1-.14,1.92-.19,2.87l0,.4a165.05,165.05,0,0,0,22,92.7l79.93-49A71.76,71.76,0,0,1,430.54,587Z"/><path class="cls-64" d="M430.54,587a72.39,72.39,0,0,1,3.75-18l-86.65-35.85q-2.82,7.35-5,15l0,.13c-.29,1.05-.57,2.1-.84,3.16l-.21.81c-.12.48-.24,1-.35,1.44s-.21.86-.31,1.3c-.14.6-.27,1.2-.4,1.8s-.22,1-.32,1.48-.15.72-.23,1.08c-.15.74-.29,1.47-.43,2.2l-.15.79c-.12.65-.23,1.29-.34,1.94l-.15.86c-.14.82-.27,1.65-.4,2.48l-.06.41c-.11.75-.22,1.5-.32,2.25L338,571q-.18,1.31-.33,2.61a1.1,1.1,0,0,1,0,.18c-.09.83-.18,1.66-.26,2.49l-.06.68q-.14,1.34-.24,2.67c-.07,1-.14,1.92-.19,2.87l0,.4a165.05,165.05,0,0,0,22,92.7l79.93-49A71.76,71.76,0,0,1,430.54,587Z"/><path class="cls-65" d="M501,664.61l-7.32,93.48,1.33.07,1.34.06,1.94,0,1.18,0c.78,0,1.56,0,2.34,0h1.14l2.32,0,.75,0c.85,0,1.69,0,2.54-.07l.55,0,2-.09,1-.05,2.1-.14,1.23-.09,1.48-.12,1.29-.12,1.2-.12c.82-.08,1.64-.17,2.45-.27l.71-.08A165.05,165.05,0,0,0,585.37,736l-49-79.88A71.6,71.6,0,0,1,501,664.61Z"/><path class="cls-66" d="M501,664.61l-7.32,93.48,1.33.07,1.34.06,1.94,0,1.18,0c.78,0,1.56,0,2.34,0h1.14l2.32,0,.75,0c.85,0,1.69,0,2.54-.07l.55,0,2-.09,1-.05,2.1-.14,1.23-.09,1.48-.12,1.29-.12,1.2-.12c.82-.08,1.64-.17,2.45-.27l.71-.08A165.05,165.05,0,0,0,585.37,736l-49-79.88A71.6,71.6,0,0,1,501,664.61Z"/><path class="cls-67" d="M442.91,747.32a166,166,0,0,0,35.67,9.29l.4.06,2,.27.81.11,1.66.19,1.15.13.62.06L492.55,664a72.62,72.62,0,0,1-13.79-3.29Z"/><path class="cls-68" d="M442.91,747.32a166,166,0,0,0,35.67,9.29l.4.06,2,.27.81.11,1.66.19,1.15.13.62.06L492.55,664a72.62,72.62,0,0,1-13.79-3.29Z"/><circle class="cls-69" cx="502.36" cy="592.59" r="58.97"/><circle class="cls-70" cx="502.36" cy="592.59" r="51.86"/><rect class="cls-71" x="698.78" y="459.68" width="151.45" height="15.73" rx="2.8"/><rect class="cls-72" x="698.78" y="501.36" width="151.45" height="15.73" rx="2.8"/><rect class="cls-73" x="698.78" y="543.04" width="151.45" height="15.73" rx="2.8"/><rect class="cls-74" x="698.78" y="584.73" width="151.45" height="15.73" rx="2.8"/><rect class="cls-75" x="698.78" y="626.41" width="151.45" height="15.73" rx="2.8"/><rect class="cls-76" x="698.78" y="668.1" width="151.45" height="15.73" rx="2.8"/><rect class="cls-77" x="698.78" y="709.78" width="151.45" height="15.73" rx="2.8"/><rect class="cls-78" x="698.78" y="459.68" width="127.56" height="15.73" rx="2.8"/><rect class="cls-79" x="698.78" y="501.36" width="82.35" height="15.73" rx="2.8"/><rect class="cls-80" x="698.78" y="543.04" width="53.89" height="15.73" rx="2.8"/><rect class="cls-81" x="698.78" y="584.73" width="27.24" height="15.73" rx="2.8"/><rect class="cls-82" x="698.78" y="626.41" width="10.25" height="15.73" rx="1.83"/><rect class="cls-83" x="698.78" y="668.1" width="19.39" height="15.73" rx="2.8"/><rect class="cls-84" x="698.78" y="709.78" width="42.55" height="15.73" rx="2.8"/><circle class="cls-85" cx="931.72" cy="201.13" r="34.98"/><circle class="cls-22" cx="931.72" cy="201.13" r="30.2"/><path class="cls-86" d="M924.23,189.84h-1.49l-1.23,0h0l1,6.82a.5.5,0,0,1-.1.37,10.19,10.19,0,0,1-1.1,1.05h0a9.59,9.59,0,0,1-1.18-1,.41.41,0,0,1-.11-.38l.63-6.81v0l-1.15,0H918a1.79,1.79,0,0,0-1.81,1.77v9a1.78,1.78,0,0,0,1.65,1.76l.79,9.6a1.55,1.55,0,0,0,1.5,1.42h2a1.52,1.52,0,0,0,1.49-1.41l.81-9.6a1.78,1.78,0,0,0,1.66-1.76v-9A1.78,1.78,0,0,0,924.23,189.84Z"/><path class="cls-86" d="M923.12,187.14a2,2,0,1,1-2-2A2,2,0,0,1,923.12,187.14Z"/><path class="cls-86" d="M936.52,189.84H935l-1.24,0h0l1,6.82a.5.5,0,0,1-.1.37,9.47,9.47,0,0,1-1.11,1.05h0a9.45,9.45,0,0,1-1.17-1,.44.44,0,0,1-.12-.38l.64-6.81v0l-1.15,0h-1.48a1.79,1.79,0,0,0-1.81,1.77v9a1.78,1.78,0,0,0,1.65,1.76l.79,9.6a1.55,1.55,0,0,0,1.5,1.42h2a1.52,1.52,0,0,0,1.49-1.41l.81-9.6a1.78,1.78,0,0,0,1.66-1.76v-9A1.78,1.78,0,0,0,936.52,189.84Z"/><path class="cls-86" d="M935.4,187.14a2,2,0,1,1-2-2A2,2,0,0,1,935.4,187.14Z"/><path class="cls-86" d="M948.43,189.84h-1.49l-1.24,0h0l1,6.82a.47.47,0,0,1-.11.37,9.33,9.33,0,0,1-1.1,1.05h0a9.45,9.45,0,0,1-1.17-1,.44.44,0,0,1-.12-.38l.63-6.81v0l-1.14,0h-1.49a1.79,1.79,0,0,0-1.8,1.77v9a1.78,1.78,0,0,0,1.66,1.76l.79,9.6a1.54,1.54,0,0,0,1.5,1.42h2a1.54,1.54,0,0,0,1.5-1.41l.81-9.6a1.79,1.79,0,0,0,1.66-1.76v-9A1.79,1.79,0,0,0,948.43,189.84Z"/><path class="cls-86" d="M947.31,187.14a2,2,0,1,1-2-2A2,2,0,0,1,947.31,187.14Z"/><polygon class="cls-87" points="381.1 268.29 365.89 264.11 373.9 235.01 383.19 237.56 381.1 268.29"/><path class="cls-88" d="M404.39,227.55c-.71,12.65-5.92,24.18-13.85,24.8-7.44.59-17.4-9.12-19.52-22.4-2.24-14,3.08-22.52,14.05-23.23C396.72,206,405.18,213.68,404.39,227.55Z"/><path class="cls-89" d="M383.9,227.09c2.45-4.62,7.29-5.82,11-6.24s9.63,1.23,10.35-1.42-.77-12.45-15.79-15c-13.59-2.32-22.09,5.3-25.48,15-3,8.53,2,18.32,8.82,17S380.94,232.68,383.9,227.09Z"/><path class="cls-88" d="M383.19,231.16c.33,2.25-.93,4.29-2.8,4.56s-3.66-1.33-4-3.58.92-4.29,2.8-4.56S382.87,228.91,383.19,231.16Z"/><path class="cls-89" d="M388.82,191.48c2.25,5.79-.89,15-8.09,17.76s-15.71-1.84-18-7.64,3-9.44,10.24-12.24S386.57,185.68,388.82,191.48Z"/><path class="cls-87" d="M454,338.29c-.14,2.76-4.44,5.94-10.33,6.37-5.42.4-9-2.69-9-5.48C434.59,332.93,454.23,334,454,338.29Z"/><path class="cls-87" d="M460.35,368.86l-1.09-.2-78.41-14.51-13.79-2.55-3.44,29.7,14,.66,68,3.22-27.53,66.14-1.31,3.15,5.74,2.81,1.68-3L466,381a8.48,8.48,0,0,0,.93-2.57A8.18,8.18,0,0,0,460.35,368.86Z"/><path class="cls-87" d="M468,373l-1-.18-87-16-13.79-2.54-3.59,29.49,14,.84,81.17,4.86,4.45,83.78.18,3.41,6.43,0,.2-3.4,5.49-91.88A8,8,0,0,0,468,373Z"/><path class="cls-90" d="M391.16,347.23c9.94,16,69,10.48,77.55,22.25,11.36,15.69-35.31,76.35-35.31,76.35l-15.54-8.67s23.8-42.91,22.84-46c-1.22-3.91-66.07,5.35-83.62-9.45-13.63-11.51-6.9-34.49-6.9-34.49Z"/><path class="cls-91" d="M386.53,347.23c8.68,19.69,79.17,12.41,89.16,29.58,8.07,13.84-.21,84.13-.21,84.13l-18.65-.5s.1-59.85-3.55-63.91c-2.69-3-77.52,3.91-96.2-9.45-16-11.44-6.9-39.85-6.9-39.85Z"/><path class="cls-87" d="M383.2,274.67l10.6,60.41-5-4.33L433,334l4,.29-.34,7.8-4-.05-44.35-.58a5.19,5.19,0,0,1-5-4.05l-.06-.28L370,277.3l-1.47-6.59L382,268Z"/><path class="cls-92" d="M362.33,276.08c-1.05,14.45,8.3,52,23,64.93,8.76,7.67,37.92,2.52,37.92,2.52l1.42-11.38s-21.82,3.29-26.8-9.39-8.13-47.29-15.5-52.57C375.91,265.54,362.8,269.58,362.33,276.08Z"/><path class="cls-93" d="M369.37,262.7s8,7.53,16.46,3c0,0,1.85,30.31,5.15,42.76s13.13,45.2,13.13,45.2l-60.14-2C343.26,324,354.7,293,369.37,262.7Z"/><path class="cls-94" d="M366.59,260.13s-30.15,42.05-25.79,88.09c0,0-2.76,8.93,29.89,8.77s34.67-4.61,34.67-4.61a315.09,315.09,0,0,1-19.53-86.72S373.63,265.71,366.59,260.13Z"/><path class="cls-88" d="M376.29,284.08c-4.41,6.89-8.7,14.09-12.67,21.29-2,3.62-3.89,7.26-5.64,10.92a96.41,96.41,0,0,0-4.58,11c-.3.9-.55,1.76-.77,2.65l-.69,2.92q-.63,3-1.19,6c-.73,4.05-1.38,8.16-2,12.28-1.17,8.24-2.17,16.58-3,24.86l-.41,4-7.8-.54.18-4c.38-8.49.91-16.91,1.62-25.38.37-4.24.79-8.48,1.32-12.74.26-2.13.57-4.28.9-6.43l.57-3.26c.23-1.17.51-2.34.81-3.46a108.79,108.79,0,0,1,4.48-12.57c1.68-4,3.48-7.93,5.35-11.79,3.76-7.74,7.7-15.22,12-22.74l3.34-5.88,11.84,7.23Z"/><path class="cls-95" d="M362.71,269.72c-10.8,9.66-17.78,32.37-23,51.26s-2.94,48-2.94,48l11.85,1s2-29.46,7.22-42,27.05-39.63,25.43-48.55C379.8,271.6,367.57,265.38,362.71,269.72Z"/><path class="cls-88" d="M337.33,403.21c-2.69-.66-4.66-7.11-3.49-15.25,1.07-7.51,5.08-11.88,7.84-11.44C347.85,377.52,341.49,404.24,337.33,403.21Z"/><path class="cls-88" d="M345.27,392.85c1.21-.19,2.29-3.34,2.05-7.53-.23-3.87-1.84-6.31-3.07-6.24C341.5,379.23,343.41,393.13,345.27,392.85Z"/><path class="cls-89" d="M493.55,480.13l-4.88-.87h0l-17.85-6.91v.15a4.23,4.23,0,0,1-3.92,3.63,8.14,8.14,0,0,1-5.25-.71c-.18-.17-.32-.26-.4-.26-1.2,0-2.16,1.95-2.16,4.35a7.7,7.7,0,0,0,.29,2.17V485h35.55v-3.38A1.51,1.51,0,0,0,493.55,480.13Z"/><path class="cls-89" d="M438.69,475.38l-3.31-3.69h0l-9.82-16.43-.09.11a4.22,4.22,0,0,1-5.32.45,8.17,8.17,0,0,1-3.7-3.79.87.87,0,0,0-.16-.45c-.94-.73-2.9.21-4.38,2.1a8,8,0,0,0-1.11,1.89l-2.05,2.63,28,21.88,2.08-2.66A1.52,1.52,0,0,0,438.69,475.38Z"/><path class="cls-87" d="M449.09,333.34c-.35-1.17-3.62-1.81-7.74-1-3.79.75-6,2.68-5.76,3.89C436.12,338.93,449.63,335.14,449.09,333.34Z"/><path class="cls-96" d="M481.89,298.74h0a2.74,2.74,0,0,0-3.42,1.78l-10.66,33.75h-32a2.73,2.73,0,0,0,0,5.45h34a2.72,2.72,0,0,0,2.69-2.35l11.13-35.21A2.73,2.73,0,0,0,481.89,298.74Z"/><polygon class="cls-22" points="467.81 334.27 469.5 334.27 479.87 301.09 478.3 301.09 467.81 334.27"/><polygon class="cls-87" points="912.64 523.6 928.04 523.6 928.04 494.13 918.63 494.13 912.64 523.6"/><path class="cls-88" d="M901.26,479.21c-2.6,12.09-.68,24.29,6.62,26.94,6.85,2.48,18.74-4.08,24.18-16,5.73-12.59,2.93-22-7.21-25.51C914.07,460.88,904.11,466,901.26,479.21Z"/><path class="cls-89" d="M922.75,460.33c11.2.87,17.39,11,16.68,21.07-.67,9.38-10.7,14.39-10.7,14.39s-3.31-9.52-8.73-11c-7.56-2.12-4.29-8.88-7.82-9.61s-11.69-3.68-11.56-9C905.81,466.28,910.16,459.34,922.75,460.33Z"/><path class="cls-88" d="M921.64,486.73c-.91,2-.28,4.28,1.41,5s3.79-.27,4.7-2.29.27-4.28-1.41-5S922.54,484.7,921.64,486.73Z"/><path class="cls-89" d="M922.75,484.56s-.85,13.08-3.34,18.05c-2.18,4.32-11.67,8.79-16.84-1.48,0,0,5.23,1.1,4.64-1.12-.7-2.61-6.08-2.64-6.08-2.64a1.33,1.33,0,0,1-1.24-1,10.18,10.18,0,0,1,.42-3.76s7.12,2.54,10.19,2.54c3.49,0,6.65-2.46,9.59-10.57Z"/><path class="cls-87" d="M877.75,772.83l14.16-79.21,9.62-39,9.68-39.11,3.3-13.29,27.77,8.86-5,12.74-14.64,37.13c-4.86,12.39-9.81,24.78-14.62,37.22l-23.79,76.27-1,3.18-6.06-1.48Z"/><path class="cls-87" d="M928.92,602.51,930,616.17l6.26,77.34,58.49,27.41,3,1.41-2.21,5.76-3.19-1-67.06-20.27a7.38,7.38,0,0,1-5.07-5.51l-.23-1.11L903,620.12l-2.85-13.39Z"/><polygon class="cls-97" points="946.35 594.07 894.43 604.16 878.21 759.33 895.62 761.72 946.35 594.07"/><path class="cls-98" d="M948.89,604.42l-52.37-7.31s8,97.14,23.7,109.53c8.71,6.89,57.15,18.5,57.15,18.5l5.22-14.88s-36.47-14.76-39.52-19.33C939.75,686,948.89,604.42,948.89,604.42Z"/><path class="cls-87" d="M911.57,529l-34.34,49.06,6.25-1.74L843,561l-3.68-1.39-2.92,7,3.59,1.62L879.45,586a5,5,0,0,0,6.08-1.52l.17-.22,36.51-47.47Z"/><path class="cls-99" d="M929.46,538.88c-5.05,13.22-28.84,42.59-47.22,47.92-10.92,3.17-34.59-13.43-34.59-13.43l3.45-10.66s17.94,11.92,27.58,2.76,26.73-38.47,35.44-40.1C921.79,523.94,931.72,532.94,929.46,538.88Z"/><path class="cls-93" d="M927,517.37s-8.08,7.09-16.17,2.36c0,0-2.76,29.53-6.38,41.57s-14.12,42.14-14.12,42.14L949,605C950.52,578,940.33,547.42,927,517.37Z"/><path class="cls-100" d="M929.78,515s28.08,42,22.37,86.79c0,0,2.41,8.8-29.45,7.6s-33.69-5.6-33.69-5.6a307,307,0,0,0,21.81-84S922.74,520.17,929.78,515Z"/><path class="cls-88" d="M920.64,535.76c4,6.91,7.88,14.11,11.44,21.31,1.77,3.61,3.48,7.24,5,10.89a95.43,95.43,0,0,1,4,10.89c.25.89.45,1.74.64,2.61l.54,2.88c.33,2,.64,3.93.9,5.92.55,4,1,8,1.41,12.06.78,8.09,1.41,16.27,1.88,24.38l.22,3.93,7.64-.19v-3.93c0-8.3-.17-16.54-.5-24.84-.18-4.14-.41-8.3-.73-12.48-.16-2.09-.37-4.2-.6-6.31l-.42-3.2c-.18-1.15-.4-2.31-.65-3.41a105.33,105.33,0,0,0-3.82-12.46c-1.47-4-3.06-7.88-4.71-11.73-3.34-7.71-6.87-15.18-10.71-22.7l-3-5.88-11.86,6.55Z"/><path class="cls-101" d="M934.5,522.33c10.12,9.89,16,32.34,20.26,51s.81,47,.81,47L944,620.8s-.67-28.82-5.24-41.31S914,539.67,916,531C917.74,523.43,930,517.89,934.5,522.33Z"/><path class="cls-87" d="M821.69,556.71c-.89,2.55,2.18,7.15,7.85,9.9,5.22,2.53,9.91,1.19,11-1.33C842.9,559.67,823.07,552.77,821.69,556.71Z"/><path class="cls-88" d="M950.63,653.55c2.69-.21,5.63-6.1,5.81-14.13.17-7.4-3-12.26-5.72-12.27C944.61,627.12,946.46,653.88,950.63,653.55Z"/><path class="cls-88" d="M944.64,642.3c-1.13-.37-1.66-3.59-.76-7.58.83-3.69,2.78-5.78,4-5.52C950.45,629.79,946.39,642.87,944.64,642.3Z"/><path class="cls-89" d="M854.56,781.52s4-1.06,5.11-1.46c4.43-1.59,15.89-6.29,15.89-6.29a6.86,6.86,0,0,0,5,2.72,9.18,9.18,0,0,0,4.61-.62c1.13,0,2.11,1.79,2.17,4.08a7.13,7.13,0,0,1-.21,2.07l.1,3.17-33.8,1-.09-3.22A1.43,1.43,0,0,1,854.56,781.52Z"/><path class="cls-89" d="M993.46,751.69s.15-4.14.1-5.31c-.24-4.7-1.39-17-1.39-17a6.9,6.9,0,0,0,4.05-3.94,9.35,9.35,0,0,0,.75-4.59c.3-1.09,2.33-1.49,4.53-.89a7.86,7.86,0,0,1,1.92.8l3.06.84-8.88,32.62-3.1-.84A1.45,1.45,0,0,1,993.46,751.69Z"/><rect class="cls-89" x="828.78" y="544.27" width="2.45" height="26.78" transform="translate(-150.47 361.28) rotate(-22.57)"/><path class="cls-87" d="M829,553.68c.79-.89,4-.1,7.25,2.32,3.06,2.23,4.2,4.85,3.5,5.82C838.2,564,827.82,555.06,829,553.68Z"/><path class="cls-102" d="M1002,331.82c-16.15-18-111.13-18.89-129.8-7.89-28.37,16.72-8.1,86,4.94,93.6a140.26,140.26,0,0,0,14.5,6.9c4.94,9.68,12,19.69,22.06,27,0,0-4.24-11.24-2.66-19.55,22.87,7.95,50.43,14.65,69.22,12.35C1010.65,440.53,1018.11,349.84,1002,331.82Z"/><path class="cls-103" d="M950.68,375.37H962.6v22.87a33.41,33.41,0,0,1-9.06,4.8,40.62,40.62,0,0,1-10.43,2.21v8.86h-8.06v-9a31.33,31.33,0,0,1-13.49-4.87,27.37,27.37,0,0,1-9.22-10.11,30.48,30.48,0,0,1,0-27.63,27.56,27.56,0,0,1,9.22-10.15,31.13,31.13,0,0,1,13.49-4.92v-9h8.06v8.78a32.64,32.64,0,0,1,11.64,2.94,26.86,26.86,0,0,1,8.9,6.73l-8.38,7.73a19.22,19.22,0,0,0-12.16-6.2v35.76a21.19,21.19,0,0,0,7.57-2.25Zm-25,12a16.82,16.82,0,0,0,9.34,6.24V358.93a17,17,0,0,0-9.34,6.2,19.49,19.49,0,0,0,0,22.2Z"/><path class="cls-104" d="M521.68,185.92a2.34,2.34,0,0,1-.59,1.63,1.93,1.93,0,0,1-2,.6,1.35,1.35,0,0,0-1.31.81l-.06.11a1.43,1.43,0,0,0,.69,1.4,1.75,1.75,0,0,1,1,1.41,1.82,1.82,0,0,1-.49,1.28c-.35.39-.92,1.34-.51,1.89a1.58,1.58,0,0,0,1.65.43,1.57,1.57,0,0,1,1.41.29,1.8,1.8,0,0,1,.62,1.31c0,.53,0,1.18.79,1.45a1.67,1.67,0,0,0,1.67-.76,1.83,1.83,0,0,1,1.15-.81,1.3,1.3,0,0,1,1.35.54,1.58,1.58,0,0,0,1.85.46,1.31,1.31,0,0,0,.61-1.68A1.33,1.33,0,0,1,530,195a2,2,0,0,1,1.78-.55,1.52,1.52,0,0,0,1.56-.9c.15-.64-.46-1.31-.82-1.55a1.52,1.52,0,0,1-.78-1.3,1.86,1.86,0,0,1,.67-1.42,1.37,1.37,0,0,0,.42-1.63,1.27,1.27,0,0,0-1.39-.63,1.64,1.64,0,0,1-2.26-1.72,1.44,1.44,0,0,0-.75-1.37c-.68-.31-1.37.29-1.61.64a1.89,1.89,0,0,1-1.25.92,1.67,1.67,0,0,1-1.48-.6,1.35,1.35,0,0,0-1.63-.43C521.65,184.75,521.63,185.31,521.68,185.92Zm2.08,2.3a3.61,3.61,0,0,1,4.83,1.42,3.47,3.47,0,0,1-1.44,4.75,3.61,3.61,0,0,1-4.84-1.42A3.49,3.49,0,0,1,523.76,188.22Z"/><path class="cls-105" d="M507.73,192.63a2,2,0,0,1-1,1.67,2.28,2.28,0,0,1-2.17.39,1.86,1.86,0,0,0-2,.65,1.64,1.64,0,0,0,.39,2.31,2.19,2.19,0,0,1-.6,3.62,1.73,1.73,0,0,0-.87,2.09c.27,1.08,1.48,1,2.14,1.2a2.44,2.44,0,0,1,1.61,1,2.55,2.55,0,0,1,.37,1.82,1.77,1.77,0,0,0,.92,2.15,2.13,2.13,0,0,0,2.25-.6,2.4,2.4,0,0,1,2-.55,2.37,2.37,0,0,1,1.63.92,1.78,1.78,0,0,0,3.4-1,2,2,0,0,1,.91-1.89,2.22,2.22,0,0,1,2.06-.24,1.73,1.73,0,0,0,1.64-3,2.58,2.58,0,0,1-.5-2.26,2.12,2.12,0,0,1,1.14-1.53,1.6,1.6,0,0,0,.81-1.91,1.49,1.49,0,0,0-1.48-1.24,2.93,2.93,0,0,1-2.16-.85,2.71,2.71,0,0,1-.56-2.15,1.93,1.93,0,0,0-.83-1.86,1.71,1.71,0,0,0-2.13.36,2.67,2.67,0,0,1-1.89.93,2.22,2.22,0,0,1-1.74-1.19,1.73,1.73,0,0,0-2-.91A1.88,1.88,0,0,0,507.73,192.63Zm2.45,3.71a4.62,4.62,0,0,1,5.83,2.82,4.49,4.49,0,0,1-2.87,5.72,4.62,4.62,0,0,1-5.83-2.82A4.49,4.49,0,0,1,510.18,196.34Z"/><path d="M512.6,590.36h9.48v18.18a26.75,26.75,0,0,1-7.21,3.81,32.22,32.22,0,0,1-8.28,1.76v7h-6.4V614a24.88,24.88,0,0,1-10.73-3.87,21.66,21.66,0,0,1-7.32-8,24.21,24.21,0,0,1,0-22,21.87,21.87,0,0,1,7.32-8.06,24.55,24.55,0,0,1,10.73-3.91V561h6.4v7a25.86,25.86,0,0,1,9.24,2.33,21.5,21.5,0,0,1,7.08,5.35l-6.66,6.14a15.27,15.27,0,0,0-9.66-4.92v28.41a16.81,16.81,0,0,0,6-1.79Zm-19.84,9.51a13.43,13.43,0,0,0,7.43,5V577.3a13.49,13.49,0,0,0-7.43,4.93,15.52,15.52,0,0,0,0,17.64Z"/></g></g></g></svg>