<svg xmlns="http://www.w3.org/2000/svg" width="1240" height="977.03" viewBox="0 0 1240 977.03"><defs><style>.cls-1{fill:#c4e6e8;}.cls-2{opacity:0.74;}.cls-3{fill:#81c5c9;}.cls-4{fill:#24a7ab;}.cls-5{fill:#66bfc3;}.cls-19,.cls-6{fill:#fff;}.cls-7{fill:#f9b689;}.cls-8{fill:#0a3b63;}.cls-9{fill:#1d507a;}.cls-10{fill:#d98b65;}.cls-11{fill:#02888b;}.cls-12{fill:#121f54;}.cls-13{fill:#ffaf02;}.cls-14{fill:#dba079;}.cls-15{fill:#efa31a;}.cls-16{fill:#404c4f;}.cls-17{fill:#262d2e;}.cls-18{fill:#e3a67d;}.cls-19{opacity:0.5;}.cls-20{fill:#a8dce0;}.cls-21{fill:#f5a714;}</style></defs><g id="Layer_2" data-name="Layer 2"><g id="Layer_2-2" data-name="Layer 2"><rect class="cls-1" width="1240" height="977.03"/><g class="cls-2"><rect class="cls-3" x="320.53" y="125.87" width="527.29" height="386.17"/></g><rect class="cls-4" x="307.42" y="107.28" width="553.52" height="26.23" rx="5.78"/><circle class="cls-5" cx="847.92" cy="120.3" r="13.02" transform="translate(163.29 634.8) rotate(-45)"/><path class="cls-6" d="M823.84,473.39h-462V163a1.79,1.79,0,0,1,3.58,0v306.8H823.84a1.79,1.79,0,0,1,0,3.57Z"/><path class="cls-6" d="M376.42,174.57a1.79,1.79,0,0,1-1.26-.53l-11.47-11.47L352.22,174a1.79,1.79,0,0,1-2.52-2.53l14-14,14,14a1.8,1.8,0,0,1-1.27,3.06Z"/><path class="cls-6" d="M811.93,486.17a1.79,1.79,0,0,1-1.27-3.05l11.47-11.47-11.47-11.47a1.8,1.8,0,0,1,0-2.53,1.79,1.79,0,0,1,2.53,0l14,14-14,14A1.79,1.79,0,0,1,811.93,486.17Z"/><path class="cls-6" d="M440.79,479.67a1.79,1.79,0,0,1-1.79-1.79V465.33a1.79,1.79,0,1,1,3.57,0v12.55A1.79,1.79,0,0,1,440.79,479.67Z"/><path class="cls-6" d="M507.11,479.67a1.79,1.79,0,0,1-1.79-1.79V465.33a1.79,1.79,0,1,1,3.57,0v12.55A1.79,1.79,0,0,1,507.11,479.67Z"/><path class="cls-6" d="M573.42,479.67a1.79,1.79,0,0,1-1.78-1.79V465.33a1.79,1.79,0,1,1,3.57,0v12.55A1.79,1.79,0,0,1,573.42,479.67Z"/><path class="cls-6" d="M639.74,479.67a1.79,1.79,0,0,1-1.78-1.79V465.33a1.79,1.79,0,1,1,3.57,0v12.55A1.79,1.79,0,0,1,639.74,479.67Z"/><path class="cls-6" d="M706.06,479.67a1.79,1.79,0,0,1-1.78-1.79V465.33a1.79,1.79,0,1,1,3.57,0v12.55A1.79,1.79,0,0,1,706.06,479.67Z"/><path class="cls-6" d="M440.79,472.25a.63.63,0,0,1-.63-.63V166.48a.63.63,0,1,1,1.25,0V471.62A.63.63,0,0,1,440.79,472.25Z"/><path class="cls-6" d="M507.11,472.25a.63.63,0,0,1-.63-.63V166.48a.63.63,0,1,1,1.25,0V471.62A.63.63,0,0,1,507.11,472.25Z"/><path class="cls-6" d="M573.42,472.25a.63.63,0,0,1-.62-.63V166.48a.63.63,0,1,1,1.25,0V471.62A.63.63,0,0,1,573.42,472.25Z"/><path class="cls-6" d="M639.74,472.25a.63.63,0,0,1-.62-.63V166.48a.63.63,0,1,1,1.25,0V471.62A.63.63,0,0,1,639.74,472.25Z"/><path class="cls-6" d="M706.06,472.25a.63.63,0,0,1-.62-.63V166.48a.63.63,0,1,1,1.25,0V471.62A.63.63,0,0,1,706.06,472.25Z"/><path class="cls-6" d="M772.38,479.67a1.79,1.79,0,0,1-1.79-1.79V465.33a1.79,1.79,0,0,1,3.58,0v12.55A1.79,1.79,0,0,1,772.38,479.67Z"/><path class="cls-6" d="M772.4,472.25a.63.63,0,0,1-.62-.63V166.48a.63.63,0,1,1,1.25,0V471.62A.63.63,0,0,1,772.4,472.25Z"/><path class="cls-6" d="M382.84,452.26a1.75,1.75,0,0,1-1.32-.58,1.79,1.79,0,0,1,.11-2.53l59.3-54.23h65.43l66.24-62.76h65.53L704.75,227l65.8-44.14a1.78,1.78,0,1,1,2,3l-65.17,43.73L640.1,335.73h-66l-66.23,62.76H442.32L384,451.79A1.74,1.74,0,0,1,382.84,452.26Z"/><path class="cls-6" d="M382.84,348.1a1.79,1.79,0,0,1-.83-3.38l59.18-30.6h65.32l66.42-49.86h67.65l65.53,58.09,65.08-62a1.79,1.79,0,1,1,2.6,2.46l-67.58,64.63-67.09-59.6h-65L507.7,317.7H442.06l-58.4,30.2A1.9,1.9,0,0,1,382.84,348.1Z"/><path class="cls-6" d="M486.05,345a1.75,1.75,0,0,1-1.26-.52L473.32,333,461.85,344.5a1.8,1.8,0,0,1-2.53,0,1.79,1.79,0,0,1,0-2.53l14-14,14,14a1.79,1.79,0,0,1,0,2.53A1.76,1.76,0,0,1,486.05,345Z"/><path class="cls-6" d="M473.32,386.94a1.79,1.79,0,0,1-1.79-1.79V333a1.79,1.79,0,0,1,3.58,0v52.16A1.79,1.79,0,0,1,473.32,386.94Z"/><path class="cls-6" d="M592.81,215a1.8,1.8,0,0,1-1.27-.53,1.77,1.77,0,0,1,0-2.52l14-14,14,14a1.78,1.78,0,1,1-2.52,2.52L605.54,203l-11.47,11.46A1.79,1.79,0,0,1,592.81,215Z"/><path class="cls-6" d="M605.54,256.87a1.79,1.79,0,0,1-1.79-1.78V202.93a1.79,1.79,0,0,1,3.58,0v52.16A1.79,1.79,0,0,1,605.54,256.87Z"/><path class="cls-6" d="M757.81,324a1.8,1.8,0,0,1-1.26-.52l-11.47-11.47-11.47,11.47a1.79,1.79,0,0,1-2.53-2.53l14-14,14,14a1.8,1.8,0,0,1,0,2.53A1.83,1.83,0,0,1,757.81,324Z"/><path class="cls-6" d="M745.08,366a1.79,1.79,0,0,1-1.79-1.79V312a1.79,1.79,0,0,1,3.58,0v52.16A1.79,1.79,0,0,1,745.08,366Z"/><path class="cls-7" d="M718.46,380.06h0a2.79,2.79,0,0,1-3.81,1l-20.28-11.8a2.78,2.78,0,1,1,2.79-4.82l20.29,11.8A2.79,2.79,0,0,1,718.46,380.06Z"/><path class="cls-7" d="M726.29,386.06h0a2.8,2.8,0,0,1-3.59,1.65l-22-8.17a2.79,2.79,0,1,1,1.93-5.23l22,8.17A2.8,2.8,0,0,1,726.29,386.06Z"/><path class="cls-7" d="M721.05,390.91l-6.82-.76-10.38-5.24a2.79,2.79,0,1,1,2.5-5l15.07,7.61Z"/><path class="cls-8" d="M881.28,419.1c19,3.67,26.19,7.72,35.72,4.26,17.79-6.47,20.37-85.41,7.67-104.46a56.17,56.17,0,0,0-5.34-2.59c-6-2.23-23.36-7.93-26.76-7.32-1.14.19-4-12.32-18.23,0-9.74,8.43-15.09,30-7.53,51.31C875.22,384,850.47,413.14,881.28,419.1Z"/><path class="cls-9" d="M780.17,443.55c2.06,4.82,12.6,14.92,32.37,7.05s56.77-14.88,79-24.7c17.89-7.9-33.25-35.6-44.06-21.15-5.08,6.8-50.12,20-63.09,26.51C771.2,437.88,778.12,438.74,780.17,443.55Z"/><path class="cls-7" d="M885.55,541.39c39.62,7.42,6,64.46-7.89,90.89S847.74,705.47,838,708s-21.48-5.16-18.15-20.26,15-91.77,31.17-121.59S873.46,539.12,885.55,541.39Z"/><path class="cls-7" d="M828.6,690.34c18.22,1.64,15.83,14.93,6.78,33S800,813.72,795.9,833.17s-6,30.68-6,30.68l-14.5-3.62s2.59-9.31,6.66-41-.73-53.34,6.79-78.19C795.54,718.78,813.05,688.94,828.6,690.34Z"/><path class="cls-7" d="M792.73,898.22a14.53,14.53,0,0,0,.4-3.78c-.16-6-1.55-28.19-.61-39.5a221.94,221.94,0,0,0,.62-22.22L786,831.53s-18.84,43-20.69,54.19a16.88,16.88,0,0,0,3.3,12.5Z"/><path class="cls-8" d="M792.78,898.22c.27-1.32,1.34-5.87,1.24-7.92,0-1-7-9.9-16.59-5.43-6.74,3.13-9.94.66-11.25-1.1A.68.68,0,0,0,765,884a19.88,19.88,0,0,0,2.49,14.2Z"/><rect class="cls-8" x="776.21" y="835.35" width="20.88" height="5.22" transform="translate(1404.79 1806.93) rotate(-169.34)"/><path class="cls-7" d="M918.61,540.67c-39.84-6.1-27,58.85-22.61,88.39s4,79,12.33,84.6,22,2.24,23.82-13.12S948.36,609,943,575.49,930.78,542.53,918.61,540.67Z"/><path class="cls-7" d="M919.73,689.29c-17.73-4.52-19.89,8.81-17.38,28.88s3.32,97,.68,116.69S900.37,866,900.37,866l13,1.23s.66-9.63,7.36-40.85,18.44-50.05,19.62-76C941.44,727.11,934.86,693.14,919.73,689.29Z"/><path class="cls-7" d="M893.82,897.62a13.82,13.82,0,0,1,.22-3.11c1.09-5.94,5.85-27.62,6.65-39a220.34,220.34,0,0,1,2.79-22l7.25-.08s12,45.32,12.15,56.71a15.28,15.28,0,0,1-1.91,7.47Z"/><path class="cls-8" d="M893.8,897.62a47.18,47.18,0,0,1,.26-7.69c.21-1,5.31-11.63,13.09-4.41,7,6.5,12.88,3.8,15.2,2.23a.77.77,0,0,1,1.21.63,19.49,19.49,0,0,1-2.06,9.24Z"/><rect class="cls-8" x="899.7" y="838.82" width="20.88" height="5.22" transform="translate(1741.6 1760.69) rotate(-174.88)"/><path class="cls-10" d="M898.37,581.94c-16-.52-47.58-5.16-48.34-26.9s28.28-52.34,30.1-64,26.43-18.62,26.43-18.62S921.49,480.94,926,499s13.55,46.07,14.41,61.32S909,582.28,898.37,581.94Z"/><path class="cls-8" d="M927,499.11c1.19,4.69,2.66,10,4.25,15.68,4.42,16,14.93,31.23,14.93,55.09,2.26,25.53,2.29,52.84-9.81,116.41l-12.8-.4-.22-75-8.26,74.78L818.18,683c13-105.19,38.58-158.32,46-169.76,5.36-8.25,6.73-18.9,7.49-23.22C872.4,470.05,924.39,469,927,499.11Z"/><path class="cls-9" d="M861.77,510.76c3.09-14.07-5-63.75-12.36-75.85-4.06-6.7-2.22-26.64-.15-29.86,3.21-5,25.69-8.06,32.81-9.71,8.95-2.06,17.38-4,20.06-3.71,4.9.57,38.79,10.85,40.31,12.21,13.49,12-17.22,61-9.57,110.42.65,4.62-16,10.42-24.12,5.69-4.37-2.53-3.3-12.2-2.64-17.47,1.56-12.45-20-2.82-20,2.94,0,3.87-1.09,8.84-4.77,12.18C875.53,522.87,861.77,510.76,861.77,510.76Z"/><path class="cls-6" d="M886.1,505.42c.78-33.05-16-113,9.14-113,2.09.25,28.76-8,16.78,30.38-6.91,22.16-5.6,54.75-6.42,84.77Z"/><path class="cls-6" d="M883.46,404.92c-3.28-5.24-15.86,4-15.86,4s14.18-23.2,38.47-21.56c34.4,2.33,17.38,35.25,17.38,35.25s2.49-16.87-10-8.44S883.46,404.92,883.46,404.92Z"/><path class="cls-7" d="M912,407c-1.56,9.23-12,29-16.71,27.91-6.74-1.55-10.35-22.14-8.78-31.37s.36-11.64,15.4-9.09S913.51,397.73,912,407Z"/><path class="cls-7" d="M903.91,327.85h0a12.08,12.08,0,0,1,9.09,11.7v59.8c0,6.67-5.4,7.11-12.06,7.11h0c-6.66,0-14,.69-14-6l1.94-60.93A12.07,12.07,0,0,1,903.91,327.85Z"/><path class="cls-7" d="M923.8,346.85c-3,18.07-22.1,34.11-31.94,32.7-8.36-1.2-22.44-23.06-19.48-41.14s16.88-30.84,31.08-28.51S926.76,328.77,923.8,346.85Z"/><path class="cls-7" d="M972.63,575.54c-14.82-25.72-38.35-57.34-41-74s9.86-19.12,16.8-14.87c12.92,7.94,23.21,54.8,31.42,80.67C988.65,595.16,972.63,575.54,972.63,575.54Z"/><path class="cls-6" d="M955.85,544.72l4.35,16.73s19.56,9.93,23.82,1.61a64.56,64.56,0,0,1-12.58-20.45Z"/><path class="cls-9" d="M956.64,551.63c-12.32-19.42-24-38.27-25.9-50.09-2.87-17.89,10.62-20.6,18.09-16,10.88,6.68,20,39,27.73,66.1Z"/><path class="cls-7" d="M982,574.58l1.5,18.35a5.76,5.76,0,0,1-.17,1.94l-13.23,6.84c-7.66-1-3.08-7.48-3.88-9.29l5.51-6.06s-8.13-8-.72-14.68c4.64-4.2,8-2,9.68-.17A5.2,5.2,0,0,1,982,574.58Z"/><path class="cls-9" d="M946.48,509.85c5-.8,6.81-15.49,7-37.44.15-20.72-.59-37.63-1.14-54.25-.71-21.67-27.49-17.14-25.76,6s2.17,56.94,5.26,70.67C934.94,508.83,941.47,510.66,946.48,509.85Z"/><path class="cls-7" d="M971.06,572.09h0a5.51,5.51,0,0,1,7.17,4.54l.07.61a5.51,5.51,0,0,1-2.32,5.22l-4.45,4a8.84,8.84,0,0,0-2.64,5.45l-.42,2.77c-.41,2.89-3.41,5.83-5.46,5.21h0a1.78,1.78,0,0,1-1.2-2.23l5.6-21.72A5.54,5.54,0,0,1,971.06,572.09Z"/><path class="cls-9" d="M886.3,311.13c.31,4.22,1.63,7.37,4.33,8.89,32.79,18.4,38.4,76.43,23.92,92.28,26-18.06,25.68-64.79,16.33-84.79-8.47-19.28-22.72-28.28-35.5-27.52C890.49,300.28,886.08,302.4,886.3,311.13Z"/><path class="cls-9" d="M873.4,330.34a32.66,32.66,0,0,0,3.41,11.58c4.31-13.92,17.26-17.47,15.36-32.83-4.46-9.82-11.67-6.13-17.67,8.94A30.72,30.72,0,0,0,873.4,330.34Z"/><path class="cls-7" d="M733.47,384.44c24.76,16.4,59.94,34.16,69.74,47.84s-.27,21.51-8.37,20.8c-15.11-1.32-45.26-38.64-64.16-58.11C710.37,374.06,733.47,384.44,733.47,384.44Z"/><path class="cls-6" d="M760.68,402c-5.87-6.38-1.51-14.08-1.51-14.08s-6.58,2.5-14.38,11.54-7.16,15.42-7.16,15.42,6.45-5.46,11-2.33S760.68,402,760.68,402Z"/><path class="cls-9" d="M758.55,397.61c19.86,12,38.26,25,45.27,34.79,10,14-.28,22.05-8.59,21.33-11.55-1-31.7-22.58-49.23-41.76Z"/><path class="cls-7" d="M707.85,386.23a7.58,7.58,0,0,0-1.46-2.13s.71-8.19,3.78-11.43,11.17,2.06,13.12,2.39l1.47-1.39s10.15,1.84,11.6,11.71c.91,6.19-1.11,8.71-3.56,9.08-.74.12-9.87-.83-16.07-1.41C712,392.61,709.57,389.52,707.85,386.23Z"/><path class="cls-9" d="M605.55,283.88c41.21,36.91,112.56,100.5,112.56,100.5a3.72,3.72,0,0,0,5.3-.34h0a3.72,3.72,0,0,0-.44-5.29s-74-60.56-116.58-95.85Z"/><path class="cls-7" d="M735.62,380.15h0a5.49,5.49,0,0,1-6,6l-.62-.06a5.52,5.52,0,0,1-4.57-3.42l-2.95-5.22a8.91,8.91,0,0,0-4.74-3.78l-2.61-1c-2.73-1-4.93-4.62-3.88-6.48h0a1.78,1.78,0,0,1,2.44-.68l19.95,10.25A5.5,5.5,0,0,1,735.62,380.15Z"/><path class="cls-7" d="M699.7,378.91h0a2.6,2.6,0,0,1-.17-3.67l4.92-5.71A2.6,2.6,0,0,1,708.3,373l-4.94,5.71A2.59,2.59,0,0,1,699.7,378.91Z"/><path class="cls-7" d="M703.67,383.21h0a2.57,2.57,0,0,1-.18-3.66l4.93-5.71a2.59,2.59,0,1,1,3.84,3.49L707.33,383A2.58,2.58,0,0,1,703.67,383.21Z"/><path class="cls-7" d="M707.8,387.87h0a2.6,2.6,0,0,1-.17-3.67l4.92-5.71A2.6,2.6,0,0,1,716.4,382l-4.94,5.71A2.59,2.59,0,0,1,707.8,387.87Z"/><path class="cls-7" d="M716.34,391.16h0a2.59,2.59,0,0,1-3.61.66l-4.55-3a2.6,2.6,0,0,1,2.94-4.28l4.56,3A2.61,2.61,0,0,1,716.34,391.16Z"/><path class="cls-8" d="M693.5,589.85c16.24,3.14,38.55-3.38,46.72-6.35,15.23-5.53,9.65-69.49-4.48-87.71-1.24-.63-3.19-1.71-4.57-2.22-5.14-1.91-20-6.79-22.93-6.27-1,.17-3.39-10.55-15.61,0-8.34,7.23-11.28,27.8-7.2,46.72C690.62,558.13,667.12,584.74,693.5,589.85Z"/><path class="cls-7" d="M601.1,656h0a2.16,2.16,0,0,1,1.23,2.81l-4.79,12.17a2.17,2.17,0,0,1-2.81,1.23h0a2.17,2.17,0,0,1-1.23-2.81l4.79-12.18A2.17,2.17,0,0,1,601.1,656Z"/><path class="cls-7" d="M599.77,657.85h0a2.17,2.17,0,0,1,0,3.07l-9.4,9.11a2.2,2.2,0,0,1-3.08,0h0a2.18,2.18,0,0,1,0-3.07l9.4-9.12A2.18,2.18,0,0,1,599.77,657.85Z"/><path class="cls-7" d="M624.37,655.85h0a5,5,0,0,1,1.55,7.55l-.35.44a5,5,0,0,1-4.88,1.78l-5.45-.37A8.11,8.11,0,0,0,610,667l-2.07,1.47c-2.16,1.56-6,1.45-6.87-.27h0a1.62,1.62,0,0,1,.7-2.2l17.76-10.07A5,5,0,0,1,624.37,655.85Z"/><path class="cls-7" d="M624.39,651.3l-17.78,1a5.36,5.36,0,0,0-1.84.42l-21.62,9a1,1,0,0,0-.47,1.37h0a3.94,3.94,0,0,0,4.5,1.83l14.7-4.22a10.2,10.2,0,0,1,5.64,0l7,2s8.76,6.7,14.17-1.29c3.39-5,.83-7.94-1.14-9.29A5,5,0,0,0,624.39,651.3Z"/><path class="cls-11" d="M223.08,898.14a2.56,2.56,0,0,1-.3-1.73l23.68-137.9a2.56,2.56,0,0,1,3-2.11,2.6,2.6,0,0,1,2.07,3L227.81,897.3a2.55,2.55,0,0,1-.3.84Z"/><path class="cls-11" d="M357.4,898.14a2.53,2.53,0,0,1-.29-.84L333.42,759.41a2.6,2.6,0,0,1,2.08-3,2.55,2.55,0,0,1,2.95,2.11l23.69,137.9a2.67,2.67,0,0,1-.3,1.73Z"/><path class="cls-11" d="M289.22,898.14a2.56,2.56,0,0,1-.3-1.73l23.68-137.9a2.55,2.55,0,0,1,2.95-2.11,2.6,2.6,0,0,1,2.08,3L294,897.3a2.79,2.79,0,0,1-.3.84Z"/><path class="cls-11" d="M423.54,898.14a2.79,2.79,0,0,1-.3-.84L399.56,759.41a2.6,2.6,0,0,1,2.08-3,2.55,2.55,0,0,1,2.95,2.11l23.68,137.9a2.61,2.61,0,0,1-.29,1.73Z"/><path class="cls-11" d="M318.13,731.59l4.16-10.87A172.09,172.09,0,0,0,325,605.05L318.9,586.7H230.29l6.07,18.35a172.09,172.09,0,0,1-2.68,115.67l-4.16,10.87a24.54,24.54,0,0,0,22.91,33.31H341A24.53,24.53,0,0,1,318.13,731.59Z"/><path class="cls-4" d="M360.88,656.49c10-4.5,7.82-17.17-.28-37.85s-3-44.64-17.62-62.53-44-8.74-36.29,15.1,30,68,40,79.11S360.88,656.49,360.88,656.49Z"/><path class="cls-7" d="M394.07,667.89a117.9,117.9,0,0,0,21.83,2.58c27.18.14,6.25-8.69,6.25-8.69-9.62-2.95-19.86-7.94-29.75-13.09Z"/><path class="cls-4" d="M407.69,654.87c-21.36-9.47-46.3-26.48-57.3-26.87-15.69-.56-7.75,17.85-3,23.94,3.9,5,26.64,14.37,54.17,18.52Z"/><path class="cls-7" d="M416,661.45l17.79-1.82c12,0,6,7.57,6,7.57a10.25,10.25,0,0,0-5.59.9l-6.58,3.09s-7.61,8-14.24,1c-4.16-4.43-2.09-7.74-.35-9.4A5.07,5.07,0,0,1,416,661.45Z"/><path class="cls-7" d="M413.64,672.33h0a5.92,5.92,0,0,1,2.78-8.69l.62-.25a6,6,0,0,1,6.07,1l5.41,3.54a9.53,9.53,0,0,0,6.39,1.26l3-.32c3.13-.36,7,2,6.92,4.27h0a1.92,1.92,0,0,1-2,1.86l-24.15.08A6,6,0,0,1,413.64,672.33Z"/><path class="cls-9" d="M279.61,733c-3.07-56,143.93-50.46,167.66-53.16s47.83,11.31,3.86,35-116.32,51.65-142.75,38.41S279.61,733,279.61,733"/><path class="cls-8" d="M278.94,701.51c39.42-20.67,143.38,17.81,163.25,20.9,23.59,3.68,43.12,23.58-5.55,34.78s-126.41,10.21-152.41-.25c-22.53-9.06-21.52-40.3-17.36-48.19C270.3,702.23,275.6,703.26,278.94,701.51Z"/><path class="cls-5" d="M341.62,554.22c4.31,7,5.45,37.7,5.45,48.5l-14.74,96.94s-12.62,15.78-31.42,15.78c-2.19,0-4.32-.1-6.4-.26a94.41,94.41,0,0,1-27.64-6.43l-5.4-132.16C246,546.65,331.34,537.48,341.62,554.22Z"/><path class="cls-7" d="M337.94,491.05l-27.45-1-12.42,52.16a13.46,13.46,0,0,0,10,16.21h0a13.45,13.45,0,0,0,16.22-10Z"/><polygon class="cls-12" points="435.08 860.31 427.29 888.01 415.89 886.23 421.02 850.14 435.08 860.31"/><path class="cls-8" d="M433.06,879.25c-9.44,1.19-18.56-1.48-19.48.9s-2.27,18.07-2.27,18.07l61.12-.08.07-4.25s-20.75-3.88-25-6.25C442.15,884.68,433.06,879.25,433.06,879.25Z"/><path class="cls-8" d="M460.74,730.69c-31.76-7.12-41.48,30.44-42.57,51.87s-9,100.51-9,100.51l25.91-3s30-116,31.65-130.61S460.74,730.69,460.74,730.69Z"/><path class="cls-8" d="M524,831.5c-9.35-1.76-17.21-7.1-18.82-5.12S497.71,842,497.71,842L554,861.05l1.36-4s-16.94-9.55-20.28-13.12C530.93,839.46,524,831.5,524,831.5Z"/><polygon class="cls-8" points="510.25 801.61 523.97 835.27 510.76 833.85 492.9 802.08 510.25 801.61"/><path class="cls-9" d="M463.7,681.3c-30.59,11.11-18.33,48.29-7.58,67.09s41.59,85.55,41.59,85.55l27.29-8s-39.46-118.63-46-131.89S463.7,681.3,463.7,681.3Z"/><polygon class="cls-13" points="315.06 563.01 318.59 567.72 333.87 702.9 322.11 719.36 310.36 706.43 312.71 566.54 315.06 563.01"/><polygon class="cls-13" points="320.94 555.96 318.59 567.72 312.71 568.89 306.83 555.96 313.88 553.61 320.94 555.96"/><path class="cls-6" d="M329.14,548.73l-4.2-3.07s-4.5,8-12.48,6.21-14-11.14-14-11.14l-6,6.09,10.84,20.9,10.58-12.93,16.46,11.75Z"/><path class="cls-4" d="M257,672.2c10.89,1.55,15.79-10.34,20-32.15s21.35-39.31,18.5-62.28-32.56-30.9-38.74-6.61-11,73.47-8.44,88.25S257,672.2,257,672.2Z"/><path class="cls-7" d="M347.25,654.6c-27.35,1.17-71.47-7.31-86.46-2.59s-11.33,15.9-4.81,20,60.3,2.2,86-6.75S347.25,654.6,347.25,654.6Z"/><path class="cls-4" d="M333,653.63c-26.42-1.17-59.62-8.08-72.13-4.14-15,4.71-13.27,18.32-6.76,22.47,5.16,3.29,51.68,4.25,78.68-.55Z"/><path class="cls-7" d="M374.53,658.75h0a2.35,2.35,0,0,0-1.26,3.07l5.47,13.06a2.35,2.35,0,0,0,3.07,1.26h0a2.35,2.35,0,0,0,1.27-3.07L377.61,660A2.37,2.37,0,0,0,374.53,658.75Z"/><path class="cls-7" d="M376,660.77h0a2.34,2.34,0,0,0,.12,3.31l10.38,9.64a2.35,2.35,0,0,0,3.32-.12h0a2.35,2.35,0,0,0-.11-3.32l-10.39-9.63A2.35,2.35,0,0,0,376,660.77Z"/><path class="cls-14" d="M349.37,659.18h0a5.41,5.41,0,0,0-1.5,8.21l.39.46a5.43,5.43,0,0,0,5.32,1.81l5.89-.52a8.74,8.74,0,0,1,5.7,1.74l2.28,1.55c2.37,1.63,6.5,1.43,7.42-.46h0a1.76,1.76,0,0,0-.81-2.36l-19.44-10.48A5.47,5.47,0,0,0,349.37,659.18Z"/><path class="cls-7" d="M349.24,654.27l19.26.69a5.94,5.94,0,0,1,2,.41l23.6,9.22a1,1,0,0,1,.54,1.47h0a4.26,4.26,0,0,1-4.83,2.08l-16-4.22a11,11,0,0,0-6.1.14l-7.49,2.33s-9.31,7.46-15.35-1c-3.78-5.35-1.09-8.58,1-10.09A5.39,5.39,0,0,1,349.24,654.27Z"/><path class="cls-7" d="M618.86,650.17c28.09-1.38,57.28-14.53,73.19-11.06s13.59,15.46,7.45,20.39-56.55,7.16-83.76-.24C605,656.34,618.86,650.17,618.86,650.17Z"/><path class="cls-7" d="M691.76,660.44c-9.48-3.59-8-15-1.43-33.86s.74-40.06,13.52-56.7,31.19-5.31,25.08,16.34-15.52,57.69-24.32,68.09S691.76,660.44,691.76,660.44Z"/><path class="cls-15" d="M728.93,586.22c6.11-21.65-12.29-33-25.08-16.34-8.49,11-8.77,24.11-9.92,37.15l26.15,10.11C723.4,606.25,726.44,595,728.93,586.22Z"/><path class="cls-16" d="M688.5,705.64h79a8.76,8.76,0,0,1,8.8,8.52,8.66,8.66,0,0,1-8.66,8.8h-79a8.76,8.76,0,0,1-8.81-8.83A8.66,8.66,0,0,1,688.5,705.64Z"/><path class="cls-17" d="M702.64,705.64h79a8.76,8.76,0,0,1,8.8,8.52,8.65,8.65,0,0,1-8.66,8.8h-79a8.76,8.76,0,0,1-8.81-8.83A8.66,8.66,0,0,1,702.64,705.64Z"/><path class="cls-11" d="M833.11,898.14C830.7,884,809.65,760.5,809.65,760.5a2.62,2.62,0,0,1,2.07-3,2.57,2.57,0,0,1,3,2.13l23.61,138.54Z"/><path class="cls-11" d="M699.07,898.14c1.41-8.22,23.62-138.54,23.62-138.54a2.56,2.56,0,0,1,2.95-2.13,2.62,2.62,0,0,1,2.08,3S706.66,884,704.26,898.14Z"/><path class="cls-11" d="M768.57,898.14C766.16,884,745.11,760.5,745.11,760.5a2.62,2.62,0,0,1,2.07-3,2.57,2.57,0,0,1,3,2.13l23.61,138.54Z"/><path class="cls-11" d="M634.53,898.14,658.15,759.6a2.56,2.56,0,0,1,3-2.13,2.61,2.61,0,0,1,2.07,3s-21,123.53-23.45,137.64Z"/><path class="cls-11" d="M743,730.77l-4.16-10.86a172.12,172.12,0,0,1-2.68-115.68l6.07-18.35h88.61l-6.07,18.35a172.12,172.12,0,0,0,2.68,115.68l4.16,10.86a24.54,24.54,0,0,1-22.91,33.31H672.38c3.63,0-5.34-9.55,1-10.92C697.32,748.07,747.87,743.45,743,730.77Z"/><path class="cls-8" d="M785.66,746.28c13.38-30.51-14.58-46.4-70.38-57.94s-74.5-20.14-82,.25c-6,16.38,18.69,31.15,72.53,50.14S778.87,761.75,785.66,746.28Z"/><polygon class="cls-7" points="735.38 506.34 711.16 516.38 723.58 579.19 748.8 574.2 735.38 506.34"/><path class="cls-13" d="M726.12,559c-7,1.64-16.5,2.26-20.89,14.25-4.08,11.19,4.95,30.58.13,50.18-.15,3.19,3.64,12.92,14.15,14.43,7.3,1,27.42,48.22,27.42,48.22s5.56,16.9,25.42,10.17,17.12-10.63,11.93-29.52-1.79-87-8.47-99.25S739,556,726.12,559Z"/><path class="cls-7" d="M733.59,577.05c-9.77,4.88-21.36-4-19.28-14.57a70,70,0,0,1,13.41-5.23c5.89-1.38,11.91-.56,19.08-.06a3.3,3.3,0,0,1-.75.12C740.86,563.54,740.86,573.93,733.59,577.05Z"/><path class="cls-9" d="M784.28,666.77c16.6,23.71,34.35,31.11,33.71,59.55-.39,17.2-14.34,30-29,30.08-12.7.1-21.23-2.08-27.48-18.25-15-38.71-17.83-58.76-17.83-58.76Z"/><path class="cls-9" d="M816,736.44c11.49-31.3-37.68-30.1-100.35-30.81s-72.62.15-86.79,8.63c-6.79,4.06-4.26,21.46,12.85,29.4,18.56,8.61,48.21,14.27,80.8,17.4C785.19,767.09,806.78,761.59,816,736.44Z"/><polygon class="cls-18" points="691.03 840.52 696.16 840.87 710.56 866.7 711.49 871.75 705.01 880.72 697.8 883.7 685.86 896.06 677.29 889.59 686.64 879.6 693.22 859.33 691.03 840.52"/><path class="cls-8" d="M708.32,897.8c0-2.58.08-7.74,1.24-10.65,1.48-3.7,5.66-8,4.93-11.48-1.52-7.22-3.93-9-3.93-9-2.91,4.94-4.15,10-7.6,13.26-.65.61-4.66,2.81-8.55,5.89-3,2.41-5.9,5.83-7.8,6.23-5.31,1.12-8-5.21-8.54-4.58-4.64,5.2-9.35,3.6-14.4,6.27-1.56.82-1.46,3.32-1.4,4h25.22c.34-.94,2.41-5.93,9.3-11.82,7.66-6.55,10.89-4.73,10.89-3.42,0,1.05-1.07,11.21-1.5,15.24Z"/><path class="cls-18" d="M707.24,860.87c-12.94-22.88-17.09-68.66-26-91.1C668.2,736.59,643,707.7,632.06,712.5c-16,7-8.48,27.1,3.08,48.16,8.74,15.91,45.16,76.69,61.79,105Z"/><path class="cls-7" d="M643.47,828c.11-27.87,17.6-55,21.48-78.76,5.72-35.21-4.78-69-16.6-70.45-17.36-2.13-17.56,15-18.4,39-.63,18.13,1.51,78.61,1.34,111.41Z"/><polygon class="cls-7" points="634.78 795.53 638.49 800.84 644.67 829.81 648.01 835.51 644.96 846.15 639.18 851.39 632.14 867.07 621.89 863.89 627.3 851.32 631.11 828.42 634.78 795.53"/><path class="cls-8" d="M645.43,831.08c-1.06,5.63-.52,10.8-2.66,15-.4.79-3.43,4.22-6,8.44-2.05,3.29-3.57,7.48-5.23,8.51-4.61,2.84-9.27-2.21-9.59-1.42-2.6,6.47-7.57,6.56-11.42,10.78-1.4,1.52.14,4.44.14,4.44l23.64-8.55s-.25-5.69,4.73-14.45,8.65-8.14,9.1-6.9,4.14,16.44,4.14,16.44l2.19-.86s-3.16-7.6-3-11.91c.14-4,2.61-9.45.74-12.47C648.28,831.91,645.43,831.08,645.43,831.08Z"/><path class="cls-7" d="M830.18,638c-7.8,6.54-17.07-.36-30.34-15.38s-34.69-20.31-43-39.67S767.53,553,783.48,569s42.87,41.92,47.65,54.72S830.18,638,830.18,638Z"/><path class="cls-15" d="M783.83,568.07c-16.88-16.92-36.94-5.76-28.17,14.73,5.82,13.61,17.77,20.66,29.25,28.5l23-19C799.51,583.6,790.71,575,783.83,568.07Z"/><path class="cls-7" d="M762.42,673.37c23.12-16.2,37.38-46.22,52.75-51.77s19.8,5.85,17.23,13.32-34,35-60.88,43.84c-10,3.28-9.71.74-10.55-.44C759.54,676.33,762.42,673.37,762.42,673.37Z"/><path class="cls-7" d="M745.12,667.75h0a2.18,2.18,0,0,1-1.5,2.69L731,674a2.2,2.2,0,0,1-2.7-1.5h0a2.18,2.18,0,0,1,1.5-2.69l12.64-3.6A2.2,2.2,0,0,1,745.12,667.75Z"/><path class="cls-7" d="M768.58,669.56l-15.05-3.5a35.22,35.22,0,0,0-9.85-.06c-5.64.73-3.5,5.37-.89,5.65a17.33,17.33,0,0,1,6.87,2.2l6.14,3.9s6.53,8.94,14,2.78c4.69-3.87,3.05-7.41,1.54-9.28A5,5,0,0,0,768.58,669.56Z"/><polygon class="cls-11" points="297.82 683.8 758.1 683.8 757.99 678.21 297.7 678.21 297.82 683.8"/><path class="cls-11" d="M728.22,898.14c-5.45-32-36.44-213.81-36.44-213.81a2.62,2.62,0,0,1,2.08-3,2.56,2.56,0,0,1,2.95,2.13s31.6,185.42,36.6,214.71Z"/><path class="cls-11" d="M324.77,898.14a2.48,2.48,0,0,0,.24-.71l37.26-213.18a2.55,2.55,0,1,0-5-.87L320,896.55a2.53,2.53,0,0,0,.24,1.59Z"/><path class="cls-7" d="M314.3,467.35c19.93-10.22,29.41-1.77,33.45,14.67s4.34,46.76-6.33,50.22-28.85-2.88-32.6-19.61S303.06,473.12,314.3,467.35Z"/><path class="cls-8" d="M350.34,456.39c10.69,11.25,7.8,18.75-2.58,19.9a133.12,133.12,0,0,1-22.78,0s-7.5,33.46,0,36.92,9.11-6.07,23.36-3.46c8.74,1.6,6.13,29.7-3.67,30.86S318,534.37,316,525.37s4.56-30,0-36.1-8.61-1.73-8.32,2.88,0,25.39,0,25.39-7.78-22-7.2-35.52,5.77-25,19.32-23.32,15.29,6.11,23.37,4.21S350.34,456.39,350.34,456.39Z"/><polygon class="cls-5" points="666.51 674.13 575.28 674.13 548.5 594.25 550.23 592.61 639.17 592.61 666.51 674.13"/><polygon class="cls-4" points="664.39 674.13 575.29 674.13 548.54 594.34 637.64 594.34 664.39 674.13"/><rect class="cls-4" x="582.49" y="674.08" width="161.07" height="4.58"/><path class="cls-19" d="M612.2,632.55c1.5,5.57-2,10.09-7.84,10.09a14.45,14.45,0,0,1-13.27-10.09c-1.49-5.58,2-10.1,7.85-10.1A14.44,14.44,0,0,1,612.2,632.55Z"/><polygon class="cls-5" points="460.07 674.13 551.3 674.13 578.08 594.25 576.36 592.61 487.41 592.61 460.07 674.13"/><polygon class="cls-4" points="459.9 674.12 549.01 674.12 576.46 592.58 487.35 592.58 459.9 674.12"/><polygon class="cls-6" points="465.18 669.71 546.19 669.71 571.15 595.57 490.14 595.57 465.18 669.71"/><rect class="cls-4" x="383.02" y="674.08" width="161.07" height="4.58" transform="translate(927.11 1352.74) rotate(180)"/><path class="cls-7" d="M735.12,532.09c-12.49,18.12-27.43,24-31.42,18.54-3.52-4.79-6.73-12.76-7.73-14s-3.14-.41-4.32-2.61.82-8.73-.25-13.72S685.07,499,691,493.48s21.48-14.64,32.4-6.29,18.29,20,16.62,25.94S735.12,532.09,735.12,532.09Z"/><path class="cls-8" d="M742.73,514.48c-3.69,6.65-3.36,17.92-3.36,17.92l-.47-.87-4-7.29a8.21,8.21,0,0,0,2.31-3.22,14.4,14.4,0,0,0,.93-7.33c-.34-3.18-2.27-5.3-5-4.5a6.25,6.25,0,0,0-1.57.73c-3.59,2.25-1.75,6.76-1.75,6.76s-7.78-9.11-25.43-7.06c-31.44,3.66-19.33-27.25,1.93-33,9.81-2.64,17.29-1.57,22.91,1.28a26.56,26.56,0,0,1,10,9C744.87,495.21,746.69,507.34,742.73,514.48Z"/><path class="cls-8" d="M732.9,559.68c4.68-5.12,7-16.17,6-28.15A67.66,67.66,0,0,0,737.25,521a14.4,14.4,0,0,0,.93-7.33c-.34-3.18-2.27-5.3-5-4.5-3.52-7.4-8.68-13.82-15.73-17.78-2-1.12-3-3.45-3.2-6.58-.17-6.46,3.1-8,6.72-8.25a20.07,20.07,0,0,1,8.3,1.32c6.87,2.57,13.51,8.88,18,19.06C754.14,511.77,752.12,546.31,732.9,559.68Z"/><path class="cls-7" d="M435.11,661h0a2.58,2.58,0,0,0,.6,3.59l12.63,8.95a2.58,2.58,0,0,0,3.58-.62h0a2.57,2.57,0,0,0-.6-3.58l-12.63-9A2.58,2.58,0,0,0,435.11,661Z"/><path class="cls-7" d="M435.57,662.05h0a2.57,2.57,0,0,0,1.8,3.15l15,4a2.58,2.58,0,0,0,3.16-1.81h0a2.57,2.57,0,0,0-1.81-3.15l-14.95-4A2.59,2.59,0,0,0,435.57,662.05Z"/><path class="cls-7" d="M745.57,667h0a2.18,2.18,0,0,1-.38,3.06l-10.35,8.07a2.18,2.18,0,0,1-3.06-.38h0a2.19,2.19,0,0,1,.37-3.06l10.36-8.07A2.18,2.18,0,0,1,745.57,667Z"/><path class="cls-7" d="M748.53,669.76l-5.15,7.83a2.18,2.18,0,0,1-3.65-2.39l3.58-5.44Z"/><path class="cls-3" d="M482.07,648l11.79-34.89h9.71s-8.66,25.62-11.8,34.89Z"/><path class="cls-20" d="M482.07,648l9.53-28.21h9.71L491.77,648Z"/><path class="cls-21" d="M482.07,648l4.18-12.37H496s-2.62,7.78-4.18,12.37Z"/><path class="cls-3" d="M533.1,648l13.22-39.11H556L542.81,648Z"/><path class="cls-20" d="M533.1,648c2.95-8.71,10.71-31.68,10.71-31.68h9.71s-7.77,23-10.71,31.68Z"/><path class="cls-21" d="M533.1,648c1.71-5,4.77-14.09,4.77-14.09h9.7L542.81,648Z"/><path class="cls-3" d="M520.06,648l10.35-30.59h9.7s-7.46,22.08-10.34,30.59Z"/><path class="cls-20" d="M520.06,648l8.34-24.66h9.71L529.77,648Z"/><path class="cls-21" d="M520.06,648l3.59-10.6h9.71L529.77,648Z"/><path class="cls-3" d="M507.31,648l7.95-23.54H525s-5.53,16.37-8,23.54Z"/><path class="cls-20" d="M507.31,648l7.09-21h9.7L517,648Z"/><path class="cls-21" d="M507.31,648l2.32-6.87h9.71L517,648Z"/><path class="cls-3" d="M494.82,648c3.72-11,15.42-45.61,15.42-45.61H520L504.53,648Z"/><path class="cls-20" d="M494.82,648l13.52-40h9.71l-13.52,40Z"/><path class="cls-21" d="M494.82,648c1.88-5.54,5.46-16.13,5.46-16.13H510s-3.58,10.59-5.46,16.13Z"/><polygon class="cls-20" points="506 655.51 479.58 655.51 480.14 653.87 506.56 653.87 506 655.51"/><polygon class="cls-20" points="501.14 659.13 478.36 659.13 478.91 657.48 501.69 657.48 501.14 659.13"/><polygon class="cls-20" points="504.99 662.74 477.13 662.74 477.69 661.1 505.54 661.1 504.99 662.74"/><polygon class="cls-20" points="490.74 666.36 475.91 666.36 476.47 664.72 491.29 664.72 490.74 666.36"/><polygon class="cls-20" points="539.12 655.51 512.71 655.51 513.26 653.87 539.68 653.87 539.12 655.51"/><polygon class="cls-20" points="534.26 659.13 511.48 659.13 512.04 657.48 534.82 657.48 534.26 659.13"/><polygon class="cls-20" points="538.11 662.74 510.26 662.74 510.82 661.1 538.67 661.1 538.11 662.74"/><polygon class="cls-20" points="523.86 666.36 509.04 666.36 509.59 664.72 524.42 664.72 523.86 666.36"/></g></g></svg>