<svg xmlns="http://www.w3.org/2000/svg" xmlns:xlink="http://www.w3.org/1999/xlink" width="112" height="112" viewBox="0 0 112 112">
  <defs>
    <clipPath id="clip-path">
      <rect id="Rectangle_2909" data-name="Rectangle 2909" width="112" height="112" transform="translate(-0.004 -0.196)" fill="none"/>
    </clipPath>
  </defs>
  <g id="ic-stage4" transform="translate(0.004 0.196)">
    <g id="Group_3836" data-name="Group 3836" clip-path="url(#clip-path)">
      <path id="Path_10942" data-name="Path 10942" d="M58.41,245.83a.556.556,0,0,1-.024-1.112,55.18,55.18,0,0,0,6.27-.637.556.556,0,0,1,.176,1.1,56.413,56.413,0,0,1-6.4.65H58.41m-6.363-.079h-.039a56.183,56.183,0,0,1-6.376-.81.556.556,0,1,1,.2-1.094,55.136,55.136,0,0,0,6.249.794.556.556,0,0,1-.038,1.111m-12.492-2.326a.553.553,0,0,1-.164-.025,55.771,55.771,0,0,1-6.024-2.252.556.556,0,0,1,.449-1.018,54.583,54.583,0,0,0,5.9,2.207.556.556,0,0,1-.164,1.088m-11.631-5.132a.553.553,0,0,1-.281-.077,56.2,56.2,0,0,1-5.348-3.569.556.556,0,0,1,.669-.888,55.148,55.148,0,0,0,5.242,3.5.556.556,0,0,1-.282,1.036m-10.15-7.649a.554.554,0,0,1-.383-.153A56.5,56.5,0,0,1,13,225.8a.556.556,0,1,1,.854-.713,55.364,55.364,0,0,0,4.31,4.6.556.556,0,0,1-.383.959m-8.148-9.749a.556.556,0,0,1-.465-.251,56.167,56.167,0,0,1-3.216-5.563.556.556,0,0,1,.994-.5,54.874,54.874,0,0,0,3.152,5.452.557.557,0,0,1-.464.862M3.914,209.546a.557.557,0,0,1-.522-.365,55.722,55.722,0,0,1-1.856-6.155.556.556,0,1,1,1.082-.259A54.63,54.63,0,0,0,4.436,208.8a.556.556,0,0,1-.522.748M.953,197.19A.556.556,0,0,1,.4,196.7a56.679,56.679,0,0,1-.4-6.414.556.556,0,0,1,.553-.56h0a.556.556,0,0,1,.556.553,55.64,55.64,0,0,0,.393,6.287.556.556,0,0,1-.486.619.574.574,0,0,1-.067,0M.88,184.481l-.061,0a.557.557,0,0,1-.493-.613,56.034,56.034,0,0,1,1.059-6.342.556.556,0,0,1,1.085.246,54.9,54.9,0,0,0-1.038,6.216.556.556,0,0,1-.552.5" transform="translate(0 -134.026)" fill="#5c63b4"/>
      <path id="Path_10943" data-name="Path 10943" d="M411.061,157.422a.556.556,0,0,1-.452-.88,55.028,55.028,0,0,0,3.367-5.327.556.556,0,0,1,.973.539,56.171,56.171,0,0,1-3.435,5.435.555.555,0,0,1-.453.232m6.161-11.118a.556.556,0,0,1-.514-.768,54.626,54.626,0,0,0,2.058-5.956.556.556,0,0,1,1.071.3,55.727,55.727,0,0,1-2.1,6.078.556.556,0,0,1-.515.345m3.449-12.235a.574.574,0,0,1-.089-.007.556.556,0,0,1-.461-.637,55.326,55.326,0,0,0,.639-6.271.556.556,0,1,1,1.111.049,56.386,56.386,0,0,1-.652,6.4.556.556,0,0,1-.549.468m.567-12.7a.556.556,0,0,1-.554-.518,55.084,55.084,0,0,0-.793-6.25.556.556,0,0,1,1.094-.2,56.179,56.179,0,0,1,.809,6.377.556.556,0,0,1-.516.593h-.039m-2.323-12.493a.556.556,0,0,1-.531-.392,54.643,54.643,0,0,0-2.2-5.9.556.556,0,1,1,1.018-.449,55.672,55.672,0,0,1,2.249,6.023.556.556,0,0,1-.532.721m-5.126-11.629a.556.556,0,0,1-.48-.275,55.12,55.12,0,0,0-3.5-5.242.556.556,0,1,1,.889-.669,56.248,56.248,0,0,1,3.567,5.349.556.556,0,0,1-.479.838" transform="translate(-310.07 -68.75)" fill="#5c63b4"/>
      <path id="Path_10944" data-name="Path 10944" d="M70.541,16.546a.556.556,0,0,1-.385-.957,56.43,56.43,0,0,1,4.883-4.181.556.556,0,1,1,.674.885,55.354,55.354,0,0,0-4.787,4.1.553.553,0,0,1-.385.155m10.112-7.7a.556.556,0,0,1-.285-1.034,55.953,55.953,0,0,1,5.707-2.96.556.556,0,1,1,.454,1.016,54.755,54.755,0,0,0-5.593,2.9.556.556,0,0,1-.284.078m11.6-5.189a.556.556,0,0,1-.167-1.087A55.828,55.828,0,0,1,98.315,1a.556.556,0,0,1,.209,1.093,54.646,54.646,0,0,0-6.107,1.54.556.556,0,0,1-.167.026m12.479-2.391a.556.556,0,0,1-.041-1.111c1.39-.1,2.8-.156,4.205-.156.738,0,1.486.015,2.222.044a.556.556,0,1,1-.044,1.112,55.9,55.9,0,0,0-6.3.11h-.042" transform="translate(-52.966)" fill="#5c63b4"/>
      <path id="Path_10945" data-name="Path 10945" d="M144.115,103.464A40.656,40.656,0,1,1,103.46,62.808a40.656,40.656,0,0,1,40.656,40.656" transform="translate(-47.531 -47.534)" fill="#c3c7f3"/>
      <path id="Path_10946" data-name="Path 10946" d="M79.24,105.983v40.111a2.056,2.056,0,0,1-2.055,2.055H49.346a2.056,2.056,0,0,1-2.055-2.055v-2.061l27.821-40.1h2.074a2.056,2.056,0,0,1,2.055,2.055" transform="translate(-35.791 -78.655)" fill="#fff"/>
      <path id="Path_10947" data-name="Path 10947" d="M75.456,146.974H47.616a2.614,2.614,0,0,1-2.611-2.611V142.3a.555.555,0,0,1,.1-.317l27.82-40.1a.557.557,0,0,1,.457-.239h2.074a2.614,2.614,0,0,1,2.611,2.611v40.111a2.614,2.614,0,0,1-2.611,2.611m-29.338-4.5v1.887a1.5,1.5,0,0,0,1.5,1.5h27.84a1.5,1.5,0,0,0,1.5-1.5V104.252a1.5,1.5,0,0,0-1.5-1.5H73.673Z" transform="translate(-34.061 -76.924)" fill="#5c63b4"/>
      <path id="Path_10948" data-name="Path 10948" d="M96.14,122.882v40.111a2.057,2.057,0,0,1-2.055,2.055H66.246a2.056,2.056,0,0,1-2.055-2.055v-2.055H89.976a2.056,2.056,0,0,0,2.055-2.055V120.827h2.055a2.057,2.057,0,0,1,2.055,2.055" transform="translate(-48.581 -91.445)" fill="#f3f3f3"/>
      <path id="Path_10949" data-name="Path 10949" d="M92.355,163.873H64.515a2.614,2.614,0,0,1-2.611-2.611v-2.055a.556.556,0,0,1,.556-.556H88.245a1.5,1.5,0,0,0,1.5-1.5V119.1a.556.556,0,0,1,.556-.556h2.055a2.614,2.614,0,0,1,2.611,2.611v40.11a2.614,2.614,0,0,1-2.611,2.611m-29.338-4.11v1.5a1.5,1.5,0,0,0,1.5,1.5h27.84a1.5,1.5,0,0,0,1.5-1.5v-40.11a1.5,1.5,0,0,0-1.5-1.5h-1.5v37.5a2.614,2.614,0,0,1-2.611,2.611Z" transform="translate(-46.85 -89.714)" fill="#5c63b4"/>
      <path id="Path_10950" data-name="Path 10950" d="M62.28,89.085v6.506H30.336V89.085a2.057,2.057,0,0,1,2.055-2.055H60.225a2.046,2.046,0,0,1,2.055,2.055" transform="translate(-22.959 -65.866)" fill="#5c63b4"/>
      <path id="Path_10951" data-name="Path 10951" d="M60.548,94.416H28.6a.556.556,0,0,1-.556-.556V87.353a2.614,2.614,0,0,1,2.611-2.611H58.493A2.6,2.6,0,0,1,61.1,87.353v6.506a.556.556,0,0,1-.556.556M29.16,93.3H59.992v-5.95a1.489,1.489,0,0,0-1.5-1.5H30.659a1.5,1.5,0,0,0-1.5,1.5Z" transform="translate(-21.227 -64.135)" fill="#5c63b4"/>
      <path id="Path_10952" data-name="Path 10952" d="M62.28,122.236v19.988a4.491,4.491,0,0,1-1.212,2.22l-.141.141a4.759,4.759,0,0,1-3.207,1.354H51.84a1.512,1.512,0,0,0-1.516,1.508v6.729a3.64,3.64,0,0,1-.765,2.249,3.148,3.148,0,0,1-.588.613l-.007.007a3.654,3.654,0,0,1-2.354.849H32.391a2.057,2.057,0,0,1-2.055-2.055v-33.6Z" transform="translate(-22.959 -92.511)" fill="#fff"/>
      <path id="Path_10953" data-name="Path 10953" d="M44.877,156.719H30.659a2.614,2.614,0,0,1-2.611-2.611V120.5a.556.556,0,0,1,.556-.556H60.548a.556.556,0,0,1,.556.556v19.988a.551.551,0,0,1-.011.111,5.08,5.08,0,0,1-1.361,2.5l-.144.144-.01.01a5.3,5.3,0,0,1-3.591,1.507H50.108a.957.957,0,0,0-.96.952v6.728a4.219,4.219,0,0,1-.877,2.584,3.679,3.679,0,0,1-.668.7l-.014.012a4.224,4.224,0,0,1-2.712.98M29.16,121.061v33.047a1.5,1.5,0,0,0,1.5,1.5H44.877a3.111,3.111,0,0,0,1.986-.71l.031-.027a2.6,2.6,0,0,0,.484-.5l.012-.016a3.1,3.1,0,0,0,.647-1.906v-6.728a2.071,2.071,0,0,1,2.072-2.065h5.879a4.18,4.18,0,0,0,2.819-1.2l.136-.136a3.964,3.964,0,0,0,1.05-1.886V121.061Z" transform="translate(-21.227 -90.779)" fill="#5c63b4"/>
      <path id="Path_10954" data-name="Path 10954" d="M120.749,214.146,109.38,225.985a3.646,3.646,0,0,0,.767-2.248v-6.731a1.511,1.511,0,0,1,1.514-1.507h5.881a4.768,4.768,0,0,0,3.208-1.353" transform="translate(-82.781 -162.07)" fill="#fff"/>
      <path id="Path_10955" data-name="Path 10955" d="M107.649,224.811a.556.556,0,0,1-.438-.9,3.107,3.107,0,0,0,.649-1.906v-6.731a2.069,2.069,0,0,1,2.07-2.064h5.881a4.193,4.193,0,0,0,2.825-1.2.556.556,0,0,1,.784.789L108.05,224.64a.555.555,0,0,1-.4.171m2.28-10.487a.955.955,0,0,0-.958.951v6.731c0,.023,0,.045,0,.068l7.487-7.8a4.619,4.619,0,0,1-.648.046Z" transform="translate(-81.05 -160.34)" fill="#5c63b4"/>
      <path id="Path_10956" data-name="Path 10956" d="M154.4,212.53a.556.556,0,0,1-.393-.949l.142-.142a.556.556,0,1,1,.787.786l-.142.142a.555.555,0,0,1-.393.163" transform="translate(-116.433 -159.898)" fill="#5c63b4"/>
      <path id="Path_10957" data-name="Path 10957" d="M105.106,262.3a.556.556,0,0,1-.394-.949l.026-.026.585-.61a.556.556,0,1,1,.8.769l-.586.612-.015.015-.026.025a.553.553,0,0,1-.393.163" transform="translate(-79.126 -197.186)" fill="#5c63b4"/>
      <path id="Path_10958" data-name="Path 10958" d="M95.027,155.076H81.371a.556.556,0,0,1,0-1.113H95.027a.556.556,0,0,1,0,1.113" transform="translate(-61.163 -116.523)" fill="#5c63b4"/>
      <path id="Path_10959" data-name="Path 10959" d="M95.027,193.255H81.371a.556.556,0,0,1,0-1.113H95.027a.556.556,0,0,1,0,1.113" transform="translate(-61.163 -145.417)" fill="#5c63b4"/>
      <path id="Path_10960" data-name="Path 10960" d="M88.2,231.434H81.371a.556.556,0,0,1,0-1.113H88.2a.556.556,0,0,1,0,1.113" transform="translate(-61.163 -174.312)" fill="#5c63b4"/>
      <path id="Path_10961" data-name="Path 10961" d="M53.119,148.4H51.408a.556.556,0,0,1,0-1.113h1.711a1.153,1.153,0,1,0,0-2.305,2.265,2.265,0,1,1,0-4.53H54.83a.556.556,0,0,1,0,1.112H53.119a1.153,1.153,0,1,0,0,2.305,2.265,2.265,0,1,1,0,4.53" transform="translate(-38.486 -106.296)" fill="#5c63b4"/>
      <path id="Path_10962" data-name="Path 10962" d="M58.439,171.234a.556.556,0,0,1-.556-.556v-1.561a.556.556,0,1,1,1.112,0v1.561a.556.556,0,0,1-.556.556" transform="translate(-43.807 -127.571)" fill="#5c63b4"/>
      <path id="Path_10963" data-name="Path 10963" d="M58.439,135.884a.556.556,0,0,1-.556-.556V133.5a.556.556,0,1,1,1.112,0v1.826a.556.556,0,0,1-.556.556" transform="translate(-43.807 -100.616)" fill="#5c63b4"/>
      <path id="Path_10964" data-name="Path 10964" d="M53.114,219.868H51.4a.556.556,0,0,1,0-1.113h1.711a1.152,1.152,0,1,0,0-2.3,2.265,2.265,0,1,1,0-4.53h1.711a.556.556,0,1,1,0,1.113H53.114a1.153,1.153,0,1,0,0,2.305,2.265,2.265,0,1,1,0,4.53" transform="translate(-38.482 -160.386)" fill="#5c63b4"/>
      <path id="Path_10965" data-name="Path 10965" d="M58.434,242.7a.556.556,0,0,1-.556-.556v-1.561a.556.556,0,1,1,1.112,0v1.561a.556.556,0,0,1-.556.556" transform="translate(-43.803 -181.661)" fill="#5c63b4"/>
      <path id="Path_10966" data-name="Path 10966" d="M58.434,207.354a.556.556,0,0,1-.556-.556v-1.826a.556.556,0,0,1,1.112,0V206.8a.556.556,0,0,1-.556.556" transform="translate(-43.803 -154.707)" fill="#5c63b4"/>
      <path id="Path_10967" data-name="Path 10967" d="M264.572,45.592l-3.364-4.937a20.318,20.318,0,1,0-4.417,3.01l3.364,4.937Z" transform="translate(-172.051 -3.926)" fill="#f3f3f3"/>
      <path id="Path_10968" data-name="Path 10968" d="M258.411,47.415a.556.556,0,0,1-.46-.243l-3.093-4.539a20.7,20.7,0,0,1-8.9,2A20.85,20.85,0,1,1,260.194,39l3.093,4.539a.556.556,0,0,1-.919.626L259,39.224a.556.556,0,0,1,.089-.728,19.761,19.761,0,1,0-4.3,2.928.556.556,0,0,1,.71.183l3.365,4.937a.556.556,0,0,1-.459.869" transform="translate(-170.308 -2.182)" fill="#5c63b4"/>
      <path id="Path_10969" data-name="Path 10969" d="M277.669,32.942A14.972,14.972,0,1,1,256.862,29a14.99,14.99,0,0,1,20.807,3.947" transform="translate(-189.453 -19.981)" fill="#fff"/>
      <path id="Path_10970" data-name="Path 10970" d="M263.6,55.17a15.719,15.719,0,0,1-2.932-.277,15.463,15.463,0,1,1,2.932.277m-.07-29.942a14.4,14.4,0,1,0,11.94,6.3,14.329,14.329,0,0,0-11.94-6.3" transform="translate(-187.712 -18.252)" fill="#5c63b4"/>
      <path id="Path_10971" data-name="Path 10971" d="M372.347,178.951a5.4,5.4,0,0,1-1.724,7.69,5.519,5.519,0,0,1-7.3-1.766l-7.539-10.605a1.55,1.55,0,0,1,.408-2.154l6.355-4.331a1.55,1.55,0,0,1,2.154.408Z" transform="translate(-269.063 -126.779)" fill="#7e85d6"/>
      <path id="Path_10972" data-name="Path 10972" d="M366.243,186.19a6.2,6.2,0,0,1-5.1-2.73l-7.532-10.6a2.111,2.111,0,0,1,.548-2.936l6.355-4.331a2.109,2.109,0,0,1,2.927.554l7.637,10.749.006.009a5.976,5.976,0,0,1,.89,4.649,5.905,5.905,0,0,1-2.791,3.833,5.759,5.759,0,0,1-2.939.8M361.7,166.344a.985.985,0,0,0-.556.172l-6.355,4.331a1,1,0,0,0-.262,1.382l7.532,10.6a4.95,4.95,0,0,0,6.562,1.609,4.84,4.84,0,0,0,1.55-6.893l-7.64-10.754a1,1,0,0,0-.831-.442" transform="translate(-267.339 -125.051)" fill="#5c63b4"/>
      <path id="Path_10973" data-name="Path 10973" d="M266.24,70.98a14.016,14.016,0,0,0,22.2,0,14.016,14.016,0,0,0-22.2,0" transform="translate(-201.496 -49.59)" fill="#fff"/>
      <path id="Path_10974" data-name="Path 10974" d="M275.608,75.262a14.475,14.475,0,0,1-11.539-5.673.556.556,0,0,1,0-.679,14.573,14.573,0,0,1,23.078,0,.556.556,0,0,1,0,.679,14.475,14.475,0,0,1-11.539,5.673M265.22,69.249a13.461,13.461,0,0,0,20.775,0,13.461,13.461,0,0,0-20.775,0" transform="translate(-199.765 -47.859)" fill="#5c63b4"/>
      <path id="Path_10975" data-name="Path 10975" d="M289.444,70.98a5.456,5.456,0,1,0,5.456-5.456,5.456,5.456,0,0,0-5.456,5.456" transform="translate(-219.058 -49.59)" fill="#7e85d6"/>
      <path id="Path_10976" data-name="Path 10976" d="M293.169,75.261a6.012,6.012,0,1,1,6.012-6.012,6.019,6.019,0,0,1-6.012,6.012m0-10.912a4.9,4.9,0,1,0,4.9,4.9,4.906,4.906,0,0,0-4.9-4.9" transform="translate(-217.327 -47.858)" fill="#5c63b4"/>
      <path id="Path_10977" data-name="Path 10977" d="M220.212,301.71c7.246,3.163,10.236,10.037,11.949,17.91.151.708,1.792,9.162,1.508,9.162a2.577,2.577,0,0,1,0,5.154h-40.3a2.577,2.577,0,0,1,0-5.154c-.287,0,1.354-8.454,1.508-9.162,1.71-7.872,4.7-14.75,11.95-17.91Z" transform="translate(-144.401 -228.341)" fill="#f3f3f3"/>
      <path id="Path_10978" data-name="Path 10978" d="M231.939,332.759h-40.3a3.133,3.133,0,0,1-.569-6.214c.052-.625.228-1.779.63-4.02.4-2.21.832-4.424.9-4.756,1.447-6.661,4.149-14.761,12.272-18.3a.556.556,0,1,1,.444,1.02c-7.659,3.339-10.238,11.115-11.629,17.518-.226,1.04-1.518,7.842-1.53,8.85a.557.557,0,0,1-.522.75,2.021,2.021,0,0,0,0,4.041h40.3a2.021,2.021,0,0,0,0-4.041.557.557,0,0,1-.522-.748c-.013-1-1.284-7.7-1.53-8.854-1.392-6.4-3.973-14.174-11.628-17.515a.556.556,0,0,1,.445-1.02c8.117,3.543,10.821,11.642,12.27,18.3.08.375.512,2.588.9,4.758.4,2.237.578,3.392.63,4.018a3.133,3.133,0,0,1-.567,6.215m0-6.266a.549.549,0,0,0-.161.024.559.559,0,0,1,.161-.024m-40.292,0a.555.555,0,0,1,.152.021.558.558,0,0,0-.152-.021" transform="translate(-142.67 -226.609)" fill="#5c63b4"/>
      <path id="Path_10979" data-name="Path 10979" d="M244.465,245.925l-3.94-9.593a4.708,4.708,0,0,1,6.474.489,4.708,4.708,0,0,1,8.806,0,4.706,4.706,0,0,1,6.087-.773l-4.056,9.876Z" transform="translate(-182.035 -176.931)" fill="#f3f3f3"/>
      <path id="Path_10980" data-name="Path 10980" d="M256.106,244.749a.557.557,0,0,1-.514-.768l3.873-9.43a4.152,4.152,0,0,0-4.978.912.557.557,0,0,1-.932-.175,4.152,4.152,0,0,0-7.766,0,.557.557,0,0,1-.932.175,4.151,4.151,0,0,0-5.383-.674l3.775,9.192a.556.556,0,1,1-1.029.423l-3.939-9.592a.556.556,0,0,1,.162-.642,5.261,5.261,0,0,1,6.652-.009,5.26,5.26,0,0,1,9.154,0,5.26,5.26,0,0,1,6.221-.308.556.556,0,0,1,.207.675l-4.056,9.876a.557.557,0,0,1-.515.345" transform="translate(-180.304 -175.199)" fill="#5c63b4"/>
      <path id="Path_10981" data-name="Path 10981" d="M269.536,263.652a.556.556,0,0,1-.542-.436l-1.351-6.07a.556.556,0,1,1,1.086-.242l1.351,6.07a.556.556,0,0,1-.543.677" transform="translate(-202.548 -194.101)" fill="#5c63b4"/>
      <path id="Path_10982" data-name="Path 10982" d="M293.3,263.652a.562.562,0,0,1-.121-.013.556.556,0,0,1-.422-.664l1.351-6.07a.556.556,0,1,1,1.086.242l-1.351,6.07a.556.556,0,0,1-.542.436" transform="translate(-221.557 -194.101)" fill="#5c63b4"/>
      <path id="Path_10983" data-name="Path 10983" d="M263.862,288.36H250.876a2.275,2.275,0,0,1,0-4.55h12.986a2.275,2.275,0,1,1,0,4.55" transform="translate(-188.147 -214.794)" fill="#7e85d6"/>
      <path id="Path_10984" data-name="Path 10984" d="M262.131,287.184H249.145a2.831,2.831,0,0,1,0-5.662h12.986a2.831,2.831,0,0,1,0,5.662m-12.986-4.55a1.719,1.719,0,1,0,0,3.438h12.986a1.719,1.719,0,0,0,0-3.438Z" transform="translate(-186.416 -213.062)" fill="#5c63b4"/>
      <path id="Path_10985" data-name="Path 10985" d="M326.686,392.653h8.255a.865.865,0,0,0,.866-.866V377.849a.865.865,0,0,0-.866-.866H319.875a.865.865,0,0,0-.866.866v6.8Z" transform="translate(-241.433 -285.309)" fill="#fff"/>
      <path id="Path_10986" data-name="Path 10986" d="M333.21,391.478h-8.255a.556.556,0,0,1,0-1.113h8.255a.31.31,0,0,0,.31-.31V376.118a.31.31,0,0,0-.31-.31H318.144a.31.31,0,0,0-.31.31v6.8a.556.556,0,1,1-1.112,0v-6.8a1.424,1.424,0,0,1,1.422-1.422H333.21a1.424,1.424,0,0,1,1.422,1.422v13.938a1.424,1.424,0,0,1-1.422,1.422" transform="translate(-239.702 -283.578)" fill="#5c63b4"/>
      <path id="Rectangle_2908" data-name="Rectangle 2908" d="M3.629,0h9.862a3.627,3.627,0,0,1,3.627,3.627v.749A3.628,3.628,0,0,1,13.49,8H3.626A3.626,3.626,0,0,1,0,4.378V3.629A3.629,3.629,0,0,1,3.629,0Z" transform="translate(69.017 99.338)" fill="#fff"/>
      <path id="Path_10987" data-name="Path 10987" d="M298.316,415.328H282.962a1.44,1.44,0,0,1-1.438-1.439v-6.24a1.44,1.44,0,0,1,1.438-1.439h15.354a1.44,1.44,0,0,1,1.438,1.439v6.24a1.44,1.44,0,0,1-1.438,1.439m-15.354-8a.326.326,0,0,0-.326.326v6.24a.326.326,0,0,0,.326.326h15.354a.326.326,0,0,0,.326-.326v-6.24a.326.326,0,0,0-.326-.326Z" transform="translate(-213.064 -307.429)" fill="#5c63b4"/>
      <path id="Path_10988" data-name="Path 10988" d="M319.008,317.132c.189,11.047,16.612,11.045,16.8,0-.189-11.047-16.612-11.045-16.8,0" transform="translate(-241.432 -233.742)" fill="#fff"/>
      <path id="Path_10989" data-name="Path 10989" d="M325.677,324.241c-4.241,0-8.853-2.763-8.956-8.831v-.019c.1-6.068,4.714-8.831,8.955-8.832s8.853,2.763,8.956,8.831v.019c-.1,6.068-4.714,8.831-8.955,8.832m-7.844-8.841a7.553,7.553,0,0,0,7.843,7.728h0a7.729,7.729,0,1,0,0-15.457h0a7.552,7.552,0,0,0-7.842,7.728" transform="translate(-239.701 -232.011)" fill="#5c63b4"/>
      <path id="Path_10990" data-name="Path 10990" d="M346.271,334.211h-1.926a.556.556,0,0,1,0-1.113h1.926a1.37,1.37,0,1,0,0-2.74,2.483,2.483,0,0,1,0-4.965H348.2a.556.556,0,0,1,0,1.113h-1.926a1.37,1.37,0,1,0,0,2.74,2.483,2.483,0,0,1,0,4.965" transform="translate(-260.186 -246.265)" fill="#5c63b4"/>
      <path id="Path_10991" data-name="Path 10991" d="M352.26,359.958a.556.556,0,0,1-.556-.556v-1.76a.556.556,0,0,1,1.112,0v1.76a.556.556,0,0,1-.556.556" transform="translate(-266.177 -270.251)" fill="#5c63b4"/>
      <path id="Path_10992" data-name="Path 10992" d="M352.26,320.1a.556.556,0,0,1-.556-.556V317.49a.556.556,0,0,1,1.112,0v2.059a.556.556,0,0,1-.556.556" transform="translate(-266.177 -239.863)" fill="#5c63b4"/>
    </g>
  </g>
</svg>
