<svg xmlns="http://www.w3.org/2000/svg" width="65.089" height="23" viewBox="0 0 65.089 23">
  <g id="ic-sankey3" transform="translate(-1133 -2536)">
    <path id="Path_27733" data-name="Path 27733" d="M2.5,0H62.586a2.786,2.786,0,0,1,2.5,3V20a2.786,2.786,0,0,1-2.5,3H2.5A2.786,2.786,0,0,1,0,20V3A2.786,2.786,0,0,1,2.5,0Z" transform="translate(1133 2536)" fill="#fff"/>
    <path id="Path_27733_-_Outline" data-name="Path 27733 - Outline" d="M2.5,1C1.688,1,1,1.916,1,3V20c0,1.084.688,2,1.5,2H62.586c.815,0,1.5-.916,1.5-2V3c0-1.084-.688-2-1.5-2H2.5m0-1H62.586a2.786,2.786,0,0,1,2.5,3V20a2.786,2.786,0,0,1-2.5,3H2.5A2.786,2.786,0,0,1,0,20V3A2.786,2.786,0,0,1,2.5,0Z" transform="translate(1133 2536)" fill="#ff9e22"/>
    <path id="Path_27734" data-name="Path 27734" d="M2.547,0H34.809V23H2.547A2.8,2.8,0,0,1,0,20V3A2.8,2.8,0,0,1,2.547,0Z" transform="translate(1133 2536)" fill="#ff9e22"/>
    <path id="Path_27734_-_Outline" data-name="Path 27734 - Outline" d="M2.547,1A1.82,1.82,0,0,0,1,3V20a1.82,1.82,0,0,0,1.547,2H33.809V1H2.547m0-1H34.809V23H2.547A2.8,2.8,0,0,1,0,20V3A2.8,2.8,0,0,1,2.547,0Z" transform="translate(1133 2536)" fill="#ff9e22"/>
    <path id="Path_27732" data-name="Path 27732" d="M13.285,10l2.65-7h1.47l-2.78,7Zm-.15,0-2.79-7h1.47l2.66,7Zm8.2.12a3.5,3.5,0,0,1-1.81-.465,3.317,3.317,0,0,1-1.24-1.28,3.815,3.815,0,0,1-.45-1.875,3.815,3.815,0,0,1,.45-1.875,3.328,3.328,0,0,1,1.235-1.28,3.7,3.7,0,0,1,3.145-.21,3.364,3.364,0,0,1,1.085.71,3.192,3.192,0,0,1,.715,1.045l-1.27.47a2.157,2.157,0,0,0-.45-.645,2.079,2.079,0,0,0-.64-.43,2.065,2.065,0,0,0-1.865.15,2.069,2.069,0,0,0-.74.835,2.716,2.716,0,0,0-.265,1.23,2.705,2.705,0,0,0,.27,1.235,2.085,2.085,0,0,0,.75.84,2.007,2.007,0,0,0,1.1.305,1.84,1.84,0,0,0,.785-.165,2.056,2.056,0,0,0,.63-.455,2.373,2.373,0,0,0,.445-.67l1.27.46a3.327,3.327,0,0,1-1.8,1.81A3.456,3.456,0,0,1,21.335,10.12Z" transform="translate(1134.1 2541)" fill="#131313"/>
    <path id="Path_27731" data-name="Path 27731" d="M13.965,10l2.65-7h1.47l-2.78,7Zm-.15,0-2.79-7h1.47l2.66,7Zm5.11,0V3h4.43V4.25h-3.06V5.84h2.64V7.06h-2.64V8.75h3.1V10Z" transform="translate(1162.962 2541)" fill="#131313"/>
  </g>
</svg>
