<svg id="ic-stage1" xmlns="http://www.w3.org/2000/svg" xmlns:xlink="http://www.w3.org/1999/xlink" width="131.018" height="124.726" viewBox="0 0 131.018 124.726">
  <defs>
    <clipPath id="clip-path">
      <rect id="Rectangle_2902" data-name="Rectangle 2902" width="131.018" height="124.726" fill="none"/>
    </clipPath>
  </defs>
  <g id="Group_3832" data-name="Group 3832" clip-path="url(#clip-path)">
    <path id="Path_10803" data-name="Path 10803" d="M434.919,145.841l-.05,0a.59.59,0,0,1-.539-.637c.135-1.619.2-3.268.2-4.9,0-.593-.009-1.194-.027-1.786a.59.59,0,1,1,1.18-.036c.018.6.028,1.216.028,1.821,0,1.666-.07,3.348-.208,5a.591.591,0,0,1-.588.541m-.411-13.483a.59.59,0,0,1-.583-.505,58.088,58.088,0,0,0-1.342-6.548.59.59,0,0,1,1.141-.3,59.324,59.324,0,0,1,1.37,6.682.59.59,0,0,1-.5.669.6.6,0,0,1-.086.006m-3.466-13.03a.59.59,0,0,1-.549-.374,58.116,58.116,0,0,0-2.81-6.067.59.59,0,0,1,1.041-.557,59.282,59.282,0,0,1,2.867,6.191.59.59,0,0,1-.549.807m-6.363-11.891a.59.59,0,0,1-.485-.254,58.663,58.663,0,0,0-4.12-5.268.59.59,0,0,1,.887-.779,59.879,59.879,0,0,1,4.2,5.374.59.59,0,0,1-.484.927" transform="translate(-311.556 -74.887)" fill="#0059ab"/>
    <path id="Path_10804" data-name="Path 10804" d="M71.055,55.676a.59.59,0,0,1-.462-.958,59.912,59.912,0,0,1,4.544-5.09.59.59,0,1,1,.834.835,58.731,58.731,0,0,0-4.454,4.989.589.589,0,0,1-.462.223M80.6,46.143a.59.59,0,0,1-.367-1.053,59.719,59.719,0,0,1,5.58-3.926.59.59,0,1,1,.623,1,58.535,58.535,0,0,0-5.469,3.848.588.588,0,0,1-.366.128m11.458-7.115a.59.59,0,0,1-.252-1.124,59.222,59.222,0,0,1,6.329-2.547.59.59,0,1,1,.377,1.119,58.027,58.027,0,0,0-6.2,2.5.592.592,0,0,1-.251.057" transform="translate(-52.28 -26.209)" fill="#0059ab"/>
    <path id="Path_10805" data-name="Path 10805" d="M100.2,385.989a.59.59,0,0,1-.022-1.18,58.7,58.7,0,0,0,6.657-.634.59.59,0,1,1,.179,1.167,59.9,59.9,0,0,1-6.792.647H100.2m-6.752-.126-.045,0a59.665,59.665,0,0,1-6.762-.9.59.59,0,0,1,.223-1.159,58.487,58.487,0,0,0,6.628.885.59.59,0,0,1-.044,1.179m20.084-1.923a.59.59,0,0,1-.156-1.159,57.977,57.977,0,0,0,6.335-2.141.59.59,0,1,1,.442,1.095,59.124,59.124,0,0,1-6.464,2.185.588.588,0,0,1-.157.021m-33.33-.632a.588.588,0,0,1-.178-.028,59.129,59.129,0,0,1-6.378-2.431.59.59,0,1,1,.484-1.077,58,58,0,0,0,6.25,2.383.59.59,0,0,1-.178,1.153M67.9,377.782a.587.587,0,0,1-.3-.083,59.675,59.675,0,0,1-5.651-3.824.59.59,0,1,1,.717-.938,58.481,58.481,0,0,0,5.539,3.748.59.59,0,0,1-.3,1.1M57.177,369.6a.587.587,0,0,1-.409-.165,59.916,59.916,0,0,1-4.635-5.006.59.59,0,0,1,.91-.751,58.8,58.8,0,0,0,4.543,4.907.59.59,0,0,1-.41,1.015m-8.581-10.4a.59.59,0,0,1-.5-.269,59.526,59.526,0,0,1-3.376-5.928.59.59,0,0,1,1.058-.524,58.365,58.365,0,0,0,3.309,5.81.59.59,0,0,1-.495.912" transform="translate(-33.137 -261.264)" fill="#0059ab"/>
    <path id="Path_10806" data-name="Path 10806" d="M170.215,129.429a43.146,43.146,0,1,1-43.146-43.146,43.146,43.146,0,0,1,43.146,43.146" transform="translate(-62.265 -64.016)" fill="#abe7ff"/>
    <path id="Path_10807" data-name="Path 10807" d="M256.688,25.431a4.141,4.141,0,0,1,4.143,4.143V64.053a4.137,4.137,0,0,1-4.143,4.138H213.861a4.136,4.136,0,0,1-4.138-4.138V29.574a4.14,4.14,0,0,1,4.138-4.143Z" transform="translate(-155.599 -18.868)" fill="#fff"/>
    <path id="Path_10808" data-name="Path 10808" d="M254.99,67.084H212.163a4.734,4.734,0,0,1-4.728-4.728V27.877a4.736,4.736,0,0,1,4.728-4.734H254.99a4.739,4.739,0,0,1,4.734,4.734V62.355a4.736,4.736,0,0,1-4.734,4.728m-42.827-42.76a3.554,3.554,0,0,0-3.548,3.553V62.355a3.552,3.552,0,0,0,3.548,3.548H254.99a3.554,3.554,0,0,0,3.553-3.548V27.877a3.557,3.557,0,0,0-3.553-3.553Z" transform="translate(-153.902 -17.17)" fill="#0059ab"/>
    <rect id="Rectangle_2897" data-name="Rectangle 2897" width="13.435" height="11.105" transform="translate(86.797 18.754)" fill="#cff1ff"/>
    <path id="Path_10809" data-name="Path 10809" d="M348.066,82.667H334.631a.59.59,0,0,1-.59-.59v-11.1a.59.59,0,0,1,.59-.59h13.435a.59.59,0,0,1,.59.59v11.1a.59.59,0,0,1-.59.59m-12.844-1.181h12.254V71.562H335.222Z" transform="translate(-247.834 -52.218)" fill="#0059ab"/>
    <rect id="Rectangle_2898" data-name="Rectangle 2898" width="13.891" height="11.105" transform="translate(72.906 29.859)" fill="#fff"/>
    <path id="Path_10810" data-name="Path 10810" d="M294.7,125.7H280.806a.59.59,0,0,1-.59-.59V114a.59.59,0,0,1,.59-.59H294.7a.59.59,0,0,1,.59.59v11.105a.59.59,0,0,1-.59.59m-13.3-1.181h12.71v-9.924H281.4Z" transform="translate(-207.9 -84.143)" fill="#0059ab"/>
    <rect id="Rectangle_2899" data-name="Rectangle 2899" width="13.435" height="22.21" transform="translate(59.472 18.754)" fill="#cff1ff"/>
    <path id="Path_10811" data-name="Path 10811" d="M242.184,93.771H228.749a.59.59,0,0,1-.59-.59V70.971a.59.59,0,0,1,.59-.59h13.435a.59.59,0,0,1,.59.59v22.21a.59.59,0,0,1-.59.59m-12.845-1.181h12.254V71.562H229.339Z" transform="translate(-169.277 -52.218)" fill="#0059ab"/>
    <rect id="Rectangle_2900" data-name="Rectangle 2900" width="13.891" height="11.105" transform="translate(72.906 18.754)" fill="#cff1ff"/>
    <path id="Path_10812" data-name="Path 10812" d="M294.7,82.667H280.806a.59.59,0,0,1-.59-.59v-11.1a.59.59,0,0,1,.59-.59H294.7a.59.59,0,0,1,.59.59v11.1a.59.59,0,0,1-.59.59m-13.3-1.181h12.71V71.562H281.4Z" transform="translate(-207.9 -52.218)" fill="#0059ab"/>
    <rect id="Rectangle_2901" data-name="Rectangle 2901" width="13.435" height="11.105" transform="translate(86.797 29.859)" fill="#fff"/>
    <path id="Path_10813" data-name="Path 10813" d="M348.066,125.7H334.631a.59.59,0,0,1-.59-.59V114a.59.59,0,0,1,.59-.59h13.435a.59.59,0,0,1,.59.59v11.105a.59.59,0,0,1-.59.59m-12.844-1.181h12.254v-9.924H335.222Z" transform="translate(-247.834 -84.143)" fill="#0059ab"/>
    <path id="Path_10814" data-name="Path 10814" d="M386.71,114.592h-.022a.59.59,0,1,1,0-1.181h.022a.59.59,0,0,1,0,1.181" transform="translate(-286.456 -84.143)" fill="#0059ab"/>
    <path id="Path_10815" data-name="Path 10815" d="M242.247,114.592H228.834a.59.59,0,1,1,0-1.181h13.413a.59.59,0,0,1,0,1.181" transform="translate(-169.34 -84.143)" fill="#0059ab"/>
    <path id="Path_10816" data-name="Path 10816" d="M248.426,88.8a.591.591,0,0,1-.483-.251l-1.763-2.511a.59.59,0,0,1,.966-.678l1.234,1.758,2.384-4.079a.59.59,0,0,1,1.019.6L248.935,88.5a.59.59,0,0,1-.485.292h-.025" transform="translate(-182.568 -61.388)" fill="#0059ab"/>
    <path id="Path_10817" data-name="Path 10817" d="M299.872,88.508a.591.591,0,0,1-.483-.251l-1.763-2.511a.59.59,0,1,1,.966-.678l1.234,1.757,2.384-4.079a.59.59,0,1,1,1.019.6l-2.848,4.873a.59.59,0,0,1-.485.292h-.025" transform="translate(-220.738 -61.175)" fill="#0059ab"/>
    <path id="Path_10818" data-name="Path 10818" d="M353.49,86.836a.591.591,0,0,1-.483-.251l-1.763-2.511a.59.59,0,1,1,.966-.678l1.234,1.758,2.383-4.079a.59.59,0,0,1,1.019.6L354,86.544a.591.591,0,0,1-.485.292h-.024" transform="translate(-260.518 -59.935)" fill="#0059ab"/>
    <path id="Path_10819" data-name="Path 10819" d="M249.225,131.538a.59.59,0,0,1-.483-.251l-1.763-2.511a.59.59,0,1,1,.966-.678l1.234,1.758,2.384-4.079a.59.59,0,1,1,1.019.6l-2.848,4.873a.59.59,0,0,1-.485.292h-.025" transform="translate(-183.161 -93.1)" fill="#0059ab"/>
    <path id="Path_10820" data-name="Path 10820" d="M254.154,11.611a2.1,2.1,0,1,1-4.2,0V4.388a2.1,2.1,0,1,1,4.2,0Z" transform="translate(-185.447 -1.697)" fill="#2db5ff"/>
    <path id="Path_10821" data-name="Path 10821" d="M250.357,12.6a2.694,2.694,0,0,1-2.691-2.691V2.69a2.691,2.691,0,1,1,5.382,0V9.914a2.694,2.694,0,0,1-2.691,2.691m0-11.425a1.512,1.512,0,0,0-1.51,1.51V9.914a1.51,1.51,0,1,0,3.02,0V2.69a1.512,1.512,0,0,0-1.51-1.51" transform="translate(-183.75 0.001)" fill="#0059ab"/>
    <path id="Path_10822" data-name="Path 10822" d="M355.447,11.611a2.1,2.1,0,1,1-4.2,0V4.388a2.1,2.1,0,1,1,4.2,0Z" transform="translate(-260.599 -1.697)" fill="#2db5ff"/>
    <path id="Path_10823" data-name="Path 10823" d="M351.65,12.6a2.694,2.694,0,0,1-2.691-2.691V2.69a2.691,2.691,0,1,1,5.382,0V9.914A2.694,2.694,0,0,1,351.65,12.6m0-11.425a1.512,1.512,0,0,0-1.51,1.51V9.914a1.51,1.51,0,1,0,3.021,0V2.69a1.512,1.512,0,0,0-1.51-1.51" transform="translate(-258.902 0.001)" fill="#0059ab"/>
    <path id="Path_10824" data-name="Path 10824" d="M304.8,11.611a2.1,2.1,0,1,1-4.2,0V4.388a2.1,2.1,0,1,1,4.2,0Z" transform="translate(-223.023 -1.697)" fill="#2db5ff"/>
    <path id="Path_10825" data-name="Path 10825" d="M301,12.6a2.694,2.694,0,0,1-2.691-2.691V2.69a2.691,2.691,0,1,1,5.382,0V9.914A2.694,2.694,0,0,1,301,12.6M301,1.18a1.512,1.512,0,0,0-1.51,1.51V9.914a1.51,1.51,0,1,0,3.021,0V2.69A1.512,1.512,0,0,0,301,1.18" transform="translate(-221.326 0.001)" fill="#0059ab"/>
    <path id="Path_10826" data-name="Path 10826" d="M240.51,296.918a.59.59,0,0,1-.59-.59V275.335a1.756,1.756,0,0,1,1.754-1.754h16.007a.59.59,0,0,1,0,1.18H241.674a.574.574,0,0,0-.573.573v20.993a.59.59,0,0,1-.59.59" transform="translate(-178.003 -202.977)" fill="#0059ab"/>
    <path id="Path_10827" data-name="Path 10827" d="M409.768,298.561a.59.59,0,0,1-.59-.59V275.335a.574.574,0,0,0-.573-.573H391.469a.59.59,0,0,1,0-1.181H408.6a1.756,1.756,0,0,1,1.754,1.754v22.636a.59.59,0,0,1-.59.59" transform="translate(-290.004 -202.977)" fill="#0059ab"/>
    <path id="Path_10828" data-name="Path 10828" d="M350.207,333.006a.59.59,0,0,1-.59-.59V318.8a.59.59,0,1,1,1.18,0v13.612a.59.59,0,0,1-.59.59" transform="translate(-259.39 -236.091)" fill="#0059ab"/>
    <path id="Path_10829" data-name="Path 10829" d="M329.656,375.961a10.7,10.7,0,1,1-2.072-3.8Z" transform="translate(-229.063 -273.31)" fill="#fff"/>
    <path id="Path_10830" data-name="Path 10830" d="M317.73,388.646a11.277,11.277,0,1,1,8.607-18.564.59.59,0,1,1-.9.763,10.054,10.054,0,1,0,1.958,3.59.59.59,0,0,1,1.13-.343,11.286,11.286,0,0,1-10.794,14.553" transform="translate(-227.366 -271.614)" fill="#0059ab"/>
    <path id="Path_10831" data-name="Path 10831" d="M340.133,394.426a5.343,5.343,0,1,1-5.343-5.343,5.343,5.343,0,0,1,5.343,5.343" transform="translate(-244.425 -288.671)" fill="#cff1ff"/>
    <path id="Path_10832" data-name="Path 10832" d="M333.092,398.663a5.934,5.934,0,1,1,5.934-5.934,5.94,5.94,0,0,1-5.934,5.934m0-10.687a4.753,4.753,0,1,0,4.753,4.753,4.758,4.758,0,0,0-4.753-4.753" transform="translate(-242.727 -286.974)" fill="#0059ab"/>
    <path id="Path_10833" data-name="Path 10833" d="M348.453,397.992a.59.59,0,0,1-.283-1.109l6.83-3.718a.59.59,0,0,1,.564,1.037l-6.83,3.718a.588.588,0,0,1-.282.072" transform="translate(-258.088 -291.646)" fill="#0059ab"/>
    <path id="Path_10834" data-name="Path 10834" d="M378.969,380.415l-2.366-1.177.3-2.625,5.494-2.987.035,2.444,2.033,1.358Z" transform="translate(-279.412 -277.203)" fill="#fff"/>
    <path id="Path_10835" data-name="Path 10835" d="M377.272,379.309a.591.591,0,0,1-.263-.062l-2.365-1.177a.591.591,0,0,1-.324-.6l.3-2.625a.59.59,0,0,1,.3-.452l5.494-2.987a.59.59,0,0,1,.872.51l.03,2.134,1.775,1.186a.59.59,0,0,1-.046,1.009l-5.494,2.987a.59.59,0,0,1-.282.072M375.54,377.2l1.72.856,4.366-2.374-1.22-.815a.591.591,0,0,1-.262-.482l-.021-1.467-4.366,2.374Z" transform="translate(-277.715 -275.506)" fill="#0059ab"/>
    <path id="Path_10836" data-name="Path 10836" d="M222.415,379.343H205.428a1.4,1.4,0,0,1-1.4-1.4v-22a1.4,1.4,0,0,1,1.4-1.4h16.987a1.4,1.4,0,0,1,1.4,1.4v22a1.4,1.4,0,0,1-1.4,1.4" transform="translate(-151.377 -263.05)" fill="#cff1ff"/>
    <path id="Path_10837" data-name="Path 10837" d="M220.718,378.236H203.731a1.989,1.989,0,0,1-1.987-1.987v-22a1.989,1.989,0,0,1,1.987-1.987h16.987a1.989,1.989,0,0,1,1.986,1.987v22a1.989,1.989,0,0,1-1.986,1.987m-16.987-24.793a.807.807,0,0,0-.806.806v22a.807.807,0,0,0,.806.806h16.987a.807.807,0,0,0,.806-.806v-22a.807.807,0,0,0-.806-.806Z" transform="translate(-149.679 -261.353)" fill="#0059ab"/>
    <path id="Path_10838" data-name="Path 10838" d="M229.682,383.711h0a1.561,1.561,0,0,0-2.208,0l-5.891,5.891-1.808-1.808A1.561,1.561,0,1,0,217.568,390l2.779,2.78a1.942,1.942,0,0,0,2.473,0l6.862-6.863a1.561,1.561,0,0,0,0-2.208" transform="translate(-161.08 -284.346)" fill="#2db5ff"/>
    <path id="Path_10839" data-name="Path 10839" d="M220.024,392.127c-.046,0-.092,0-.138,0a2.14,2.14,0,0,1-1.654-.619l-2.78-2.779a2.151,2.151,0,1,1,3.043-3.042l1.391,1.391,5.474-5.474a2.151,2.151,0,1,1,3.042,3.042L221.54,391.5a2.138,2.138,0,0,1-1.516.623m-.138-1.186.05,0a.966.966,0,0,0,.769-.274l6.862-6.863a.971.971,0,0,0-1.373-1.373l-5.891,5.891a.59.59,0,0,1-.835,0l-1.808-1.808a.971.971,0,1,0-1.373,1.373l2.78,2.78a.965.965,0,0,0,.769.274l.05,0" transform="translate(-159.383 -282.652)" fill="#0059ab"/>
    <path id="Path_10840" data-name="Path 10840" d="M327.459,234.067a13.208,13.208,0,0,0,2.715-8.122,12.966,12.966,0,0,0-4.022-9.547,8.314,8.314,0,0,0-4.667-2.134l-.138-.47a3.257,3.257,0,0,0-4.041-2.213l.853,2.919a8.9,8.9,0,0,0-2.186.9l-1.378.8a1.4,1.4,0,0,0-.508,1.905l.4.691-3.323,1.919a1.4,1.4,0,0,0-.511,1.907l1.154,2a1.861,1.861,0,0,0,1.61.931l1.965,0a1.382,1.382,0,0,0,1.384-1.382h0l4.551-1.42a5.742,5.742,0,0,1-1.166,3.087,5.646,5.646,0,0,1-1.657,1.4,7.8,7.8,0,0,0-3.967,6.827Z" transform="translate(-230.342 -156.88)" fill="#fff"/>
    <path id="Path_10841" data-name="Path 10841" d="M325.76,232.957A.59.59,0,0,1,325.3,232a12.664,12.664,0,0,0,2.591-7.76,12.376,12.376,0,0,0-3.833-9.113,7.706,7.706,0,0,0-4.337-1.981.59.59,0,0,1-.5-.421l-.138-.47a2.67,2.67,0,0,0-2.724-1.915l.669,2.29a.59.59,0,0,1-.415.736,8.317,8.317,0,0,0-2.042.84l-1.378.8a.807.807,0,0,0-.293,1.1l.4.691a.59.59,0,0,1-.216.806l-3.323,1.919a.806.806,0,0,0-.295,1.1l1.154,2a1.275,1.275,0,0,0,1.1.635l1.964,0h0a.791.791,0,0,0,.792-.792.591.591,0,0,1,.414-.564l4.551-1.42a.59.59,0,0,1,.764.611,6.038,6.038,0,0,1-3.115,4.95,7.215,7.215,0,0,0-3.674,6.317.59.59,0,0,1-1.18,0,8.376,8.376,0,0,1,4.261-7.338,5.067,5.067,0,0,0,1.486-1.25,5.007,5.007,0,0,0,.9-1.88l-3.28,1.023a1.975,1.975,0,0,1-1.921,1.523h0l-1.965,0a2.459,2.459,0,0,1-2.121-1.226l-1.154-2a1.987,1.987,0,0,1,.727-2.713l2.812-1.624-.1-.18a1.989,1.989,0,0,1,.723-2.711l1.378-.8a9.372,9.372,0,0,1,1.752-.787l-.689-2.356a.591.591,0,0,1,.4-.732,3.848,3.848,0,0,1,4.773,2.614l.031.105a8.849,8.849,0,0,1,4.608,2.231,13.559,13.559,0,0,1,4.212,9.98,13.85,13.85,0,0,1-2.84,8.485.59.59,0,0,1-.466.228" transform="translate(-228.644 -155.18)" fill="#0059ab"/>
    <path id="Path_10842" data-name="Path 10842" d="M331.847,304.538H314.318a1.125,1.125,0,0,1-1.125-1.125v-.331a3.375,3.375,0,0,1,3.375-3.375H329.6a3.375,3.375,0,0,1,3.375,3.375v.331a1.125,1.125,0,0,1-1.125,1.125" transform="translate(-232.366 -222.361)" fill="#2db5ff"/>
    <path id="Path_10843" data-name="Path 10843" d="M330.151,303.431H312.621a1.717,1.717,0,0,1-1.715-1.715v-.332a3.97,3.97,0,0,1,3.965-3.965H327.9a3.97,3.97,0,0,1,3.965,3.965v.331a1.717,1.717,0,0,1-1.715,1.715m-15.28-4.831a2.788,2.788,0,0,0-2.784,2.784v.332a.535.535,0,0,0,.534.534h17.529a.535.535,0,0,0,.535-.535v-.331A2.788,2.788,0,0,0,327.9,298.6Z" transform="translate(-230.67 -220.663)" fill="#0059ab"/>
    <path id="Path_10844" data-name="Path 10844" d="M444.081,368.392a10.67,10.67,0,1,1-10.663-11.064,10.869,10.869,0,0,1,10.663,11.064" transform="translate(-313.653 -265.111)" fill="#fff"/>
    <path id="Path_10845" data-name="Path 10845" d="M431.721,378.349a11.662,11.662,0,1,1,11.253-11.655,11.472,11.472,0,0,1-11.253,11.655m0-22.129a10.482,10.482,0,1,0,10.073,10.474,10.291,10.291,0,0,0-10.073-10.474" transform="translate(-311.957 -263.414)" fill="#0059ab"/>
    <path id="Path_10849" data-name="Path 10849" d="M96.763,263.787l12.962.08a1.359,1.359,0,0,0,1.368-1.351l.136-21.885a1.358,1.358,0,0,0-1.351-1.368l-23.656-.147a1.359,1.359,0,0,0-1.368,1.351l-.066,10.674Z" transform="translate(-62.906 -177.407)" fill="#fff"/>
    <path id="Path_10850" data-name="Path 10850" d="M108.037,262.76h-.013l-12.962-.08a.59.59,0,0,1,0-1.181h0l12.962.081a.78.78,0,0,0,.546-.222.764.764,0,0,0,.228-.542l.136-21.885a.768.768,0,0,0-.765-.774l-23.656-.147a.775.775,0,0,0-.774.765l-.066,10.674a.591.591,0,0,1-.59.587h0a.59.59,0,0,1-.587-.594l.066-10.674a1.952,1.952,0,0,1,1.95-1.938h.012l23.656.147a1.949,1.949,0,0,1,1.938,1.962l-.136,21.884a1.948,1.948,0,0,1-1.949,1.938" transform="translate(-61.209 -175.71)" fill="#0059ab"/>
    <path id="Path_10851" data-name="Path 10851" d="M85.388,151.518c.189,17.347,25.975,17.5,26.377.163-.189-17.347-25.975-17.5-26.377-.163" transform="translate(-63.352 -102.825)" fill="#fff"/>
    <path id="Path_10852" data-name="Path 10852" d="M96.891,163.5h-.1a14.128,14.128,0,0,1-9.353-3.457A13.438,13.438,0,0,1,83.1,149.826c0-.007,0-.013,0-.02a13.435,13.435,0,0,1,4.467-10.161,14.626,14.626,0,0,1,18.748.115,13.437,13.437,0,0,1,4.342,10.217c0,.007,0,.013,0,.02a13.435,13.435,0,0,1-4.467,10.162,14.112,14.112,0,0,1-9.3,3.342M84.281,149.823c.1,8.534,6.558,12.46,12.522,12.5h.084c5.941,0,12.389-3.849,12.59-12.34-.1-8.533-6.558-12.459-12.522-12.5H96.87c-5.94,0-12.389,3.849-12.59,12.34" transform="translate(-61.654 -101.127)" fill="#0059ab"/>
    <path id="Path_10853" data-name="Path 10853" d="M18.088,296.507a1.385,1.385,0,0,0,1.376,1.394l24.109.15a1.385,1.385,0,0,0,1.393-1.377l.061-9.8a1.385,1.385,0,0,0-1.376-1.394l-24.109-.149a1.385,1.385,0,0,0-1.393,1.377Z" transform="translate(-13.42 -211.696)" fill="#fff"/>
    <path id="Path_10854" data-name="Path 10854" d="M41.884,296.944h-.012l-24.109-.15a1.978,1.978,0,0,1-1.963-1.988l.061-9.8a1.975,1.975,0,0,1,1.975-1.963h.012l24.109.15a1.975,1.975,0,0,1,1.963,1.988l-.061,9.8a1.975,1.975,0,0,1-1.975,1.963m-24.9-2.13a.8.8,0,0,0,.789.8l24.109.15h0a.8.8,0,0,0,.794-.79l.061-9.8a.794.794,0,0,0-.789-.8l-24.108-.15a.794.794,0,0,0-.8.79Z" transform="translate(-11.722 -209.999)" fill="#0059ab"/>
    <path id="Path_10858" data-name="Path 10858" d="M15.977,172.749V146.816h3.757a.982.982,0,0,0,.592-1.754l-8.237-6.472a.954.954,0,0,0-1.184,0l-8.237,6.472a.982.982,0,0,0,.592,1.754H6.933v25.9Z" transform="translate(-1.7 -102.671)" fill="#cff1ff"/>
    <path id="Path_10859" data-name="Path 10859" d="M14.276,171.64a.59.59,0,0,1-.59-.59V145.117a.59.59,0,0,1,.59-.59h3.757a.363.363,0,0,0,.354-.258.386.386,0,0,0-.126-.442l-8.237-6.472a.365.365,0,0,0-.454,0l-8.238,6.472a.386.386,0,0,0-.126.442.363.363,0,0,0,.354.258H5.233a.59.59,0,0,1,.59.59v25.9a.59.59,0,1,1-1.181,0V145.707H1.559A1.539,1.539,0,0,1,.09,144.654,1.558,1.558,0,0,1,.6,142.9l8.237-6.472a1.542,1.542,0,0,1,1.914,0L18.99,142.9a1.558,1.558,0,0,1,.513,1.756,1.539,1.539,0,0,1-1.469,1.052H14.867V171.05a.59.59,0,0,1-.59.59" transform="translate(0 -100.972)" fill="#0059ab"/>
    <path id="Path_10860" data-name="Path 10860" d="M153.95,263.09h0Z" transform="translate(-114.22 -195.194)" fill="#2db5ff"/>
    <path id="Path_10861" data-name="Path 10861" d="M160.858,261.983h-8.606a.59.59,0,1,1,0-1.181h8.606a.59.59,0,0,1,0,1.181" transform="translate(-112.522 -193.496)" fill="#0059ab"/>
    <path id="Path_10862" data-name="Path 10862" d="M153.95,286.864h0Z" transform="translate(-114.22 -212.832)" fill="#2db5ff"/>
    <path id="Path_10863" data-name="Path 10863" d="M160.858,285.757h-8.606a.59.59,0,1,1,0-1.18h8.606a.59.59,0,1,1,0,1.18" transform="translate(-112.522 -211.135)" fill="#0059ab"/>
    <path id="Path_10864" data-name="Path 10864" d="M153.95,310.639h0Z" transform="translate(-114.22 -230.471)" fill="#2db5ff"/>
    <path id="Path_10865" data-name="Path 10865" d="M160.858,309.532h-8.606a.59.59,0,1,1,0-1.181h8.606a.59.59,0,0,1,0,1.181" transform="translate(-112.522 -228.774)" fill="#0059ab"/>
    <path id="Path_10866" data-name="Path 10866" d="M26.145,309.067H16.964a.59.59,0,1,1,0-1.18h9.181a.59.59,0,1,1,0,1.18" transform="translate(-12.148 -228.43)" fill="#0059ab"/>
    <path id="Path_10867" data-name="Path 10867" d="M78.971,309.067H75.158a.59.59,0,1,1,0-1.18h3.812a.59.59,0,1,1,0,1.18" transform="translate(-55.324 -228.43)" fill="#0059ab"/>
    <path id="Path_10868" data-name="Path 10868" d="M116.1,261.983h-3.812a.59.59,0,1,1,0-1.181H116.1a.59.59,0,0,1,0,1.181" transform="translate(-82.868 -193.496)" fill="#0059ab"/>
    <path id="Path_11371" data-name="Path 11371" d="M2.853,14.291V12.634H5.606A1.547,1.547,0,0,0,6.661,12.3,1.237,1.237,0,0,0,6.62,10.47a1.75,1.75,0,0,0-1.164-.329h-2.6V8.69l1.657.027a8.328,8.328,0,0,1,2.342.294,3.28,3.28,0,0,1,1.555.911,2.344,2.344,0,0,1,.555,1.63,2.7,2.7,0,0,1-.4,1.493,2.475,2.475,0,0,1-1.109.931,4.1,4.1,0,0,1-1.671.315Zm-.753,0V4.7H3.935v9.588Zm.685-4.054V8.607h2.6a1.416,1.416,0,0,0,.972-.315,1.126,1.126,0,0,0,.356-.89,1.09,1.09,0,0,0-.4-.9A1.616,1.616,0,0,0,5.237,6.2H2.785V4.717L5.346,4.69A4.463,4.463,0,0,1,7.072,5a2.512,2.512,0,0,1,1.151.918,2.647,2.647,0,0,1,.411,1.513,2.051,2.051,0,0,1-.5,1.342,3.4,3.4,0,0,1-1.4.959,5.638,5.638,0,0,1-2.089.356Zm6.862,5.2L13.427,4.06h1.726L11.4,15.442Zm7.41-.945a1.044,1.044,0,0,1-.774-.329,1.078,1.078,0,0,1-.322-.781,1.062,1.062,0,0,1,.322-.767,1.075,1.075,0,0,1,1.548,0,1.062,1.062,0,0,1,.322.767,1.078,1.078,0,0,1-.322.781A1.044,1.044,0,0,1,17.057,14.5Z" transform="translate(25.881 38.75)" fill="#0059ab"/>
    <path id="Path_11371-2" data-name="Path 11371" d="M2.853,14.291V12.634H5.606A1.547,1.547,0,0,0,6.661,12.3,1.237,1.237,0,0,0,6.62,10.47a1.75,1.75,0,0,0-1.164-.329h-2.6V8.69l1.657.027a8.328,8.328,0,0,1,2.342.294,3.28,3.28,0,0,1,1.555.911,2.344,2.344,0,0,1,.555,1.63,2.7,2.7,0,0,1-.4,1.493,2.475,2.475,0,0,1-1.109.931,4.1,4.1,0,0,1-1.671.315Zm-.753,0V4.7H3.935v9.588Zm.685-4.054V8.607h2.6a1.416,1.416,0,0,0,.972-.315,1.126,1.126,0,0,0,.356-.89,1.09,1.09,0,0,0-.4-.9A1.616,1.616,0,0,0,5.237,6.2H2.785V4.717L5.346,4.69A4.463,4.463,0,0,1,7.072,5a2.512,2.512,0,0,1,1.151.918,2.647,2.647,0,0,1,.411,1.513,2.051,2.051,0,0,1-.5,1.342,3.4,3.4,0,0,1-1.4.959,5.638,5.638,0,0,1-2.089.356Zm6.862,5.2L13.427,4.06h1.726L11.4,15.442Zm7.41-.945a1.044,1.044,0,0,1-.774-.329,1.078,1.078,0,0,1-.322-.781,1.062,1.062,0,0,1,.322-.767,1.075,1.075,0,0,1,1.548,0,1.062,1.062,0,0,1,.322.767,1.078,1.078,0,0,1-.322.781A1.044,1.044,0,0,1,17.057,14.5Z" transform="translate(110.228 93.461)" fill="#0059ab"/>
  </g>
</svg>
