<svg id="ic-stage3" xmlns="http://www.w3.org/2000/svg" xmlns:xlink="http://www.w3.org/1999/xlink" width="118.687" height="118.001" viewBox="0 0 118.687 118.001">
  <defs>
    <clipPath id="clip-path">
      <rect id="Rectangle_2924" data-name="Rectangle 2924" width="118.687" height="118.001" fill="none"/>
    </clipPath>
  </defs>
  <g id="Group_3842" data-name="Group 3842" clip-path="url(#clip-path)">
    <path id="Path_11113" data-name="Path 11113" d="M409.206,2.671a.616.616,0,0,1-.109-.01,58.1,58.1,0,0,0-6.594-.8.613.613,0,0,1,.077-1.223,59.335,59.335,0,0,1,6.734.813.613.613,0,0,1-.108,1.216Zm-20.051-.125a.613.613,0,0,1-.1-1.217A59.427,59.427,0,0,1,395.8.6a.613.613,0,1,1,.062,1.224,58.2,58.2,0,0,0-6.6.713A.617.617,0,0,1,389.154,2.547Z" transform="translate(-339.819 -0.525)" fill="#6fb44e"/>
    <path id="Path_11114" data-name="Path 11114" d="M.856,142.623a.613.613,0,0,1-.609-.557C.083,140.274,0,138.447,0,136.637q0-.676.015-1.348a.613.613,0,0,1,1.225.027q-.015.659-.015,1.321c0,1.773.081,3.563.241,5.318a.613.613,0,0,1-.554.666Zm.3-13.4a.613.613,0,0,1-.608-.7,58.958,58.958,0,0,1,1.31-6.655.613.613,0,1,1,1.186.306,57.726,57.726,0,0,0-1.283,6.516A.613.613,0,0,1,1.161,129.223ZM4.5,116.245a.613.613,0,0,1-.571-.833,58.924,58.924,0,0,1,2.8-6.177.613.613,0,1,1,1.085.57,57.7,57.7,0,0,0-2.744,6.048A.613.613,0,0,1,4.5,116.245Zm6.232-11.865a.613.613,0,0,1-.505-.958,59.471,59.471,0,0,1,4.138-5.374.613.613,0,1,1,.926.8,58.24,58.24,0,0,0-4.052,5.263A.612.612,0,0,1,10.736,104.38Zm8.771-10.135a.613.613,0,0,1-.415-1.064,59.516,59.516,0,0,1,5.249-4.3.613.613,0,0,1,.72.991,58.284,58.284,0,0,0-5.14,4.207A.61.61,0,0,1,19.507,94.244Z" transform="translate(0 -77.636)" fill="#6fb44e"/>
    <path id="Path_11115" data-name="Path 11115" d="M303.915,897.66a.613.613,0,0,1-.026-1.225,58.263,58.263,0,0,0,6.609-.662.613.613,0,0,1,.192,1.21,59.493,59.493,0,0,1-6.749.675Zm-6.711-.093-.044,0a59.286,59.286,0,0,1-6.727-.865.613.613,0,1,1,.226-1.2,58.066,58.066,0,0,0,6.587.847.613.613,0,0,1-.043,1.224Zm19.948-2.007a.613.613,0,0,1-.165-1.2,57.552,57.552,0,0,0,6.281-2.157.613.613,0,0,1,.464,1.134,58.76,58.76,0,0,1-6.415,2.2A.611.611,0,0,1,317.152,895.559Zm-33.121-.467a.613.613,0,0,1-.182-.028,58.8,58.8,0,0,1-6.35-2.385.613.613,0,1,1,.5-1.12,57.6,57.6,0,0,0,6.217,2.335.613.613,0,0,1-.182,1.2Z" transform="translate(-242.382 -779.712)" fill="#6fb44e"/>
    <path id="Path_11116" data-name="Path 11116" d="M790.074,169.095a.613.613,0,0,1-.6-.72,58.116,58.116,0,0,0,.786-6.6.613.613,0,0,1,1.223.075,59.377,59.377,0,0,1-.8,6.735A.613.613,0,0,1,790.074,169.095Zm.824-13.379a.613.613,0,0,1-.611-.581,58.2,58.2,0,0,0-.723-6.6.613.613,0,1,1,1.208-.2,59.42,59.42,0,0,1,.739,6.742.613.613,0,0,1-.58.644ZM788.674,142.5a.613.613,0,0,1-.588-.442,57.533,57.533,0,0,0-2.217-6.26.613.613,0,0,1,1.129-.475,58.793,58.793,0,0,1,2.264,6.394.613.613,0,0,1-.589.783Zm-5.2-12.354a.612.612,0,0,1-.534-.312,58.058,58.058,0,0,0-3.591-5.588.613.613,0,1,1,.991-.72,59.278,59.278,0,0,1,3.667,5.706.613.613,0,0,1-.533.914ZM775.6,119.3a.611.611,0,0,1-.451-.2,58.357,58.357,0,0,0-4.766-4.627.613.613,0,0,1,.8-.926,59.593,59.593,0,0,1,4.867,4.724.613.613,0,0,1-.451,1.027Z" transform="translate(-673.59 -99.183)" fill="#6fb44e"/>
    <path id="Path_11117" data-name="Path 11117" d="M214.377,171.508a42.869,42.869,0,1,1-42.869-42.869,42.869,42.869,0,0,1,42.869,42.869" transform="translate(-112.507 -112.508)" fill="#b7dea4"/>
    <path id="Path_11118" data-name="Path 11118" d="M597.92,206.8H580.327l5.495,7.947-5.495,7.947H597.92l5.5-7.947Z" transform="translate(-507.555 -180.871)" fill="#fff"/>
    <path id="Path_11119" data-name="Path 11119" d="M576.055,201.919h17.592a.613.613,0,0,1,.5.264l5.495,7.947a.613.613,0,0,1,0,.7l-5.495,7.947a.613.613,0,0,1-.5.264H576.055a.613.613,0,0,1-.5-.961l5.254-7.6-5.254-7.6a.613.613,0,0,1,.5-.961Zm17.271,1.225h-16.1l4.83,6.986a.612.612,0,0,1,0,.7l-4.83,6.986h16.1l5.071-7.335Z" transform="translate(-503.282 -176.599)" fill="#6fb44e"/>
    <line id="Line_174" data-name="Line 174" y1="18.622" transform="translate(83.497 15.258)" fill="#fff"/>
    <path id="Line_175" data-name="Line 175" d="M-4.272,14.962a.613.613,0,0,1-.613-.613V-4.272a.613.613,0,0,1,.613-.613.613.613,0,0,1,.613.613V14.35A.613.613,0,0,1-4.272,14.962Z" transform="translate(87.77 19.531)" fill="#6fb44e"/>
    <path id="Path_11120" data-name="Path 11120" d="M226.912,206.8H209.319l5.495,7.947-5.495,7.947h17.592l5.495-7.947Z" transform="translate(-183.071 -180.871)" fill="#6fb44e"/>
    <path id="Path_11121" data-name="Path 11121" d="M205.047,201.919h17.592a.613.613,0,0,1,.5.264l5.495,7.947a.613.613,0,0,1,0,.7l-5.495,7.947a.613.613,0,0,1-.5.264H205.047a.613.613,0,0,1-.5-.961l5.254-7.6-5.254-7.6a.613.613,0,0,1,.5-.961Zm17.271,1.225h-16.1l4.831,6.986a.613.613,0,0,1,0,.7l-4.831,6.986h16.1l5.071-7.335Z" transform="translate(-178.798 -176.599)" fill="#6fb44e"/>
    <line id="Line_176" data-name="Line 176" y2="19.298" transform="translate(36.973 14.583)" fill="#fff"/>
    <path id="Line_177" data-name="Line 177" d="M-4.272,15.638a.613.613,0,0,1-.613-.613v-19.3a.613.613,0,0,1,.613-.613.613.613,0,0,1,.613.613v19.3A.613.613,0,0,1-4.272,15.638Z" transform="translate(41.245 18.855)" fill="#6fb44e"/>
    <path id="Path_11122" data-name="Path 11122" d="M250.255,52.073a7.463,7.463,0,1,1-7.463-7.463,7.463,7.463,0,0,1,7.463,7.463" transform="translate(-205.82 -39.016)" fill="#fff"/>
    <path id="Path_11123" data-name="Path 11123" d="M238.52,39.725a8.075,8.075,0,1,1-8.075,8.075A8.084,8.084,0,0,1,238.52,39.725Zm0,14.925a6.85,6.85,0,1,0-6.85-6.85A6.858,6.858,0,0,0,238.52,54.65Z" transform="translate(-201.547 -34.744)" fill="#6fb44e"/>
    <path id="Path_11124" data-name="Path 11124" d="M608.165,19.3a9.655,9.655,0,1,1-9.655-9.655,9.655,9.655,0,0,1,9.655,9.655" transform="translate(-515.013 -8.436)" fill="#fff"/>
    <path id="Ellipse_552" data-name="Ellipse 552" d="M10.268,0A10.268,10.268,0,1,1,0,10.268,10.279,10.279,0,0,1,10.268,0Zm0,19.31a9.042,9.042,0,1,0-9.042-9.042A9.053,9.053,0,0,0,10.268,19.31Z" transform="translate(73.127 21.029) rotate(-89.427)" fill="#6fb44e"/>
    <path id="Path_11125" data-name="Path 11125" d="M412.416,206.8H394.824l5.495,7.947-5.495,7.947h17.592l5.495-7.947Z" transform="translate(-345.313 -180.871)" fill="#a6ce92"/>
    <path id="Path_11126" data-name="Path 11126" d="M390.551,201.919h17.592a.613.613,0,0,1,.5.264l5.495,7.947a.613.613,0,0,1,0,.7l-5.495,7.947a.613.613,0,0,1-.5.264H390.551a.613.613,0,0,1-.5-.961l5.254-7.6-5.254-7.6a.613.613,0,0,1,.5-.961Zm17.271,1.225h-16.1l4.83,6.986a.613.613,0,0,1,0,.7l-4.83,6.986h16.1l5.071-7.335Z" transform="translate(-341.041 -176.599)" fill="#6fb44e"/>
    <line id="Line_178" data-name="Line 178" y1="20.824" transform="translate(60.235 33.88)" fill="#fff"/>
    <path id="Line_179" data-name="Line 179" d="M-4.272,17.164a.613.613,0,0,1-.613-.613V-4.272a.613.613,0,0,1,.613-.613.613.613,0,0,1,.613.613V16.551A.613.613,0,0,1-4.272,17.164Z" transform="translate(64.507 38.153)" fill="#6fb44e"/>
    <path id="Path_11127" data-name="Path 11127" d="M420.928,392.1h-1.453a.377.377,0,0,0-.358.267,7.61,7.61,0,0,1-.5,1.2.377.377,0,0,0,.064.442l1.027,1.027a.7.7,0,0,1,0,1l-1.917,1.917a.7.7,0,0,1-1,0l-1.027-1.027a.377.377,0,0,0-.442-.064,7.622,7.622,0,0,1-1.2.5.377.377,0,0,0-.267.357v1.453a.7.7,0,0,1-.7.7h-2.711a.7.7,0,0,1-.7-.7v-1.453a.377.377,0,0,0-.267-.357,7.619,7.619,0,0,1-1.2-.5.377.377,0,0,0-.442.064l-1.027,1.027a.7.7,0,0,1-1,0l-1.917-1.917a.7.7,0,0,1,0-1l1.027-1.027a.377.377,0,0,0,.064-.442,7.622,7.622,0,0,1-.5-1.2.377.377,0,0,0-.358-.267h-1.453a.7.7,0,0,1-.7-.7v-2.711a.7.7,0,0,1,.7-.7h1.453a.377.377,0,0,0,.358-.267,7.622,7.622,0,0,1,.5-1.2.377.377,0,0,0-.064-.442l-1.027-1.027a.7.7,0,0,1,0-1l1.917-1.917a.7.7,0,0,1,.995,0l1.027,1.027a.377.377,0,0,0,.442.064,7.631,7.631,0,0,1,1.2-.5.377.377,0,0,0,.267-.358v-1.452a.7.7,0,0,1,.7-.7h2.711a.7.7,0,0,1,.7.7v1.452a.377.377,0,0,0,.267.358,7.633,7.633,0,0,1,1.2.5.377.377,0,0,0,.442-.064l1.027-1.027a.7.7,0,0,1,1,0l1.917,1.917a.7.7,0,0,1,0,1l-1.027,1.027a.377.377,0,0,0-.064.442,7.606,7.606,0,0,1,.5,1.2.377.377,0,0,0,.358.267h1.453a.7.7,0,0,1,.7.7v2.711a.7.7,0,0,1-.7.7" transform="translate(-351.569 -332.532)" fill="#f3f3f3"/>
    <path id="Path_11128" data-name="Path 11128" d="M408.887,396.2h-2.711a1.318,1.318,0,0,1-1.316-1.316v-1.279a8.263,8.263,0,0,1-.986-.409l-.9.9a1.316,1.316,0,0,1-1.861,0l-1.917-1.917a1.318,1.318,0,0,1,0-1.861l.9-.9a8.27,8.27,0,0,1-.409-.986h-1.279a1.318,1.318,0,0,1-1.316-1.316v-2.711a1.318,1.318,0,0,1,1.316-1.316h1.279a8.269,8.269,0,0,1,.409-.986l-.9-.9a1.318,1.318,0,0,1,0-1.861l1.917-1.917a1.316,1.316,0,0,1,1.861,0l.919.919a5.688,5.688,0,0,1,.972-.423v-1.279a1.318,1.318,0,0,1,1.316-1.316h2.711a1.318,1.318,0,0,1,1.316,1.316v1.279a8.276,8.276,0,0,1,.986.409l.9-.9a1.316,1.316,0,0,1,1.861,0l1.917,1.917a1.316,1.316,0,0,1,0,1.861l-.9.9a8.249,8.249,0,0,1,.409.986h1.279a1.318,1.318,0,0,1,1.316,1.316v2.711a1.318,1.318,0,0,1-1.316,1.316h-1.279a8.259,8.259,0,0,1-.409.986l.9.9a1.318,1.318,0,0,1,0,1.861l-1.917,1.917a1.316,1.316,0,0,1-1.861,0l-.919-.919a5.694,5.694,0,0,1-.972.423v1.279A1.318,1.318,0,0,1,408.887,396.2Zm-5.061-4.281a1.006,1.006,0,0,1,.461.113,7.032,7.032,0,0,0,1.1.458.987.987,0,0,1,.694.941v1.453a.091.091,0,0,0,.091.091h2.711a.091.091,0,0,0,.091-.091v-1.453a.987.987,0,0,1,.694-.941,7.035,7.035,0,0,0,1.1-.458,1.006,1.006,0,0,1,.461-.113.977.977,0,0,1,.7.287l1.028,1.027.562.433-.433-.433,1.917-1.917a.091.091,0,0,0,0-.129l-1.027-1.027a.986.986,0,0,1-.175-1.157,7.018,7.018,0,0,0,.458-1.1.987.987,0,0,1,.941-.694h1.452a.091.091,0,0,0,.091-.091v-2.711a.091.091,0,0,0-.091-.091H415.2a.987.987,0,0,1-.941-.694,7.015,7.015,0,0,0-.458-1.1.987.987,0,0,1,.175-1.157l1.027-1.027a.1.1,0,0,0,0-.129l-1.917-1.917h-.129l-1.027,1.027a.978.978,0,0,1-.7.288,1.006,1.006,0,0,1-.461-.113,7.038,7.038,0,0,0-1.1-.458.987.987,0,0,1-.694-.941v-1.453a.091.091,0,0,0-.091-.091h-2.711a.091.091,0,0,0-.091.091v1.453a.987.987,0,0,1-.694.941,7.034,7.034,0,0,0-1.1.458,1.006,1.006,0,0,1-.461.113.978.978,0,0,1-.7-.287l-1.028-1.028h-.129l-1.917,1.917a.091.091,0,0,0,0,.129l1.027,1.027a.987.987,0,0,1,.175,1.157,7.034,7.034,0,0,0-.458,1.1.987.987,0,0,1-.941.694h-1.452a.1.1,0,0,0-.091.091v2.711a.091.091,0,0,0,.091.091h1.452a.987.987,0,0,1,.941.694,7.035,7.035,0,0,0,.458,1.1.987.987,0,0,1-.175,1.157l-1.027,1.027a.091.091,0,0,0,0,.129l1.917,1.917.562.433-.433-.433,1.027-1.027A.977.977,0,0,1,403.826,391.924Z" transform="translate(-347.297 -328.259)" fill="#6fb44e"/>
    <path id="Path_11129" data-name="Path 11129" d="M447.725,430.048a4.09,4.09,0,1,0,4.091-4.091,4.091,4.091,0,0,0-4.091,4.091" transform="translate(-391.58 -372.542)" fill="#fff"/>
    <path id="Path_11130" data-name="Path 11130" d="M447.543,421.072a4.7,4.7,0,1,1-4.7,4.7A4.708,4.708,0,0,1,447.543,421.072Zm0,8.181a3.478,3.478,0,1,0-3.478-3.478A3.482,3.482,0,0,0,447.543,429.253Z" transform="translate(-387.308 -368.27)" fill="#6fb44e"/>
    <line id="Line_180" data-name="Line 180" y2="4.948" transform="translate(36.973 8.782)" fill="#fff"/>
    <path id="Line_181" data-name="Line 181" d="M-4.272,1.288A.613.613,0,0,1-4.885.675V-4.272a.613.613,0,0,1,.613-.613.613.613,0,0,1,.613.613V.675A.613.613,0,0,1-4.272,1.288Z" transform="translate(41.245 13.054)" fill="#6fb44e"/>
    <path id="Path_11131" data-name="Path 11131" d="M293.786,130.763a.177.177,0,1,1-.177-.177.177.177,0,0,1,.177.177" transform="translate(-256.637 -114.211)" fill="#fff"/>
    <path id="Path_11132" data-name="Path 11132" d="M289.337,127.279a.789.789,0,1,1,.789-.789A.79.79,0,0,1,289.337,127.279Z" transform="translate(-252.364 -109.938)" fill="#6fb44e"/>
    <path id="Path_11133" data-name="Path 11133" d="M626.3,65.5a.613.613,0,0,1-.433-.179l-4.141-4.141a.613.613,0,0,1,.866-.866l3.707,3.707,6.611-6.611a.613.613,0,1,1,.866.866l-7.044,7.045A.613.613,0,0,1,626.3,65.5Z" transform="translate(-543.607 -50.052)" fill="#6fb44e"/>
    <path id="Path_11134" data-name="Path 11134" d="M566.316,493.066A25.315,25.315,0,1,1,541,467.751a25.315,25.315,0,0,1,25.315,25.315" transform="translate(-451.019 -409.095)" fill="#f3f3f3"/>
    <path id="Ellipse_553" data-name="Ellipse 553" d="M21.042-4.885A25.927,25.927,0,1,1-4.885,21.042,25.957,25.957,0,0,1,21.042-4.885Zm0,50.63a24.7,24.7,0,1,0-24.7-24.7A24.73,24.73,0,0,0,21.042,45.745Z" transform="translate(68.939 62.928)" fill="#6fb44e"/>
    <path id="Path_11135" data-name="Path 11135" d="M600.694,533.337a19.59,19.59,0,1,1-19.245-19.928,19.59,19.59,0,0,1,19.245,19.928" transform="translate(-491.103 -449.025)" fill="#fff"/>
    <path id="Ellipse_554" data-name="Ellipse 554" d="M20.2,0A20.2,20.2,0,1,1,0,20.2,20.225,20.225,0,0,1,20.2,0Zm0,39.18A18.977,18.977,0,1,0,1.225,20.2,19,19,0,0,0,20.2,39.18Z" transform="translate(63.361 94.288) rotate(-66.169)" fill="#6fb44e"/>
    <line id="Line_182" data-name="Line 182" y2="11.672" transform="translate(90.004 55.9)" fill="#cff1ff"/>
    <path id="Line_183" data-name="Line 183" d="M-4.272,8.012A.613.613,0,0,1-4.885,7.4V-4.272a.613.613,0,0,1,.613-.613.613.613,0,0,1,.613.613V7.4A.613.613,0,0,1-4.272,8.012Z" transform="translate(94.276 60.173)" fill="#6fb44e"/>
    <line id="Line_184" data-name="Line 184" y2="11.672" transform="translate(90.004 100.369)" fill="#cff1ff"/>
    <path id="Line_185" data-name="Line 185" d="M-4.272,8.012A.613.613,0,0,1-4.885,7.4V-4.272a.613.613,0,0,1,.613-.613.613.613,0,0,1,.613.613V7.4A.613.613,0,0,1-4.272,8.012Z" transform="translate(94.276 104.641)" fill="#6fb44e"/>
    <line id="Line_186" data-name="Line 186" x1="11.672" transform="translate(106.402 83.971)" fill="#cff1ff"/>
    <path id="Line_187" data-name="Line 187" d="M7.4-3.66H-4.272a.613.613,0,0,1-.613-.613.613.613,0,0,1,.613-.613H7.4a.613.613,0,0,1,.613.613A.613.613,0,0,1,7.4-3.66Z" transform="translate(110.675 88.243)" fill="#70b450"/>
    <line id="Line_188" data-name="Line 188" x1="11.672" transform="translate(61.934 83.971)" fill="#cff1ff"/>
    <path id="Line_189" data-name="Line 189" d="M7.4-3.66H-4.272a.613.613,0,0,1-.613-.613.613.613,0,0,1,.613-.613H7.4a.613.613,0,0,1,.613.613A.613.613,0,0,1,7.4-3.66Z" transform="translate(66.206 88.243)" fill="#6fb44e"/>
    <path id="Path_11136" data-name="Path 11136" d="M623.386,583.382a11.832,11.832,0,1,0,11.832-11.832,11.832,11.832,0,0,0-11.832,11.832" transform="translate(-545.214 -499.878)" fill="#b7dea4"/>
    <path id="Ellipse_555" data-name="Ellipse 555" d="M7.559-4.885A12.444,12.444,0,1,1-4.885,7.559,12.458,12.458,0,0,1,7.559-4.885Zm0,23.663A11.219,11.219,0,1,0-3.66,7.559,11.232,11.232,0,0,0,7.559,18.778Z" transform="translate(82.445 75.945)" fill="#6fb44e"/>
    <path id="Path_11137" data-name="Path 11137" d="M705.933,600.966v6.214A1.941,1.941,0,0,1,704,609.116h-.081a1.941,1.941,0,0,1-1.935-1.935v-6.214a1.941,1.941,0,0,1,1.935-1.935H704a1.941,1.941,0,0,1,1.935,1.935" transform="translate(-613.954 -523.913)" fill="#fff"/>
    <path id="Rectangle_2923" data-name="Rectangle 2923" d="M-2.337-4.885h.081A2.551,2.551,0,0,1,.292-2.337V3.877A2.551,2.551,0,0,1-2.256,6.425,2.569,2.569,0,0,1-4.885,3.877V-2.337A2.551,2.551,0,0,1-2.337-4.885Zm0,10.085a1.344,1.344,0,0,0,1.4-1.323V-2.337A1.324,1.324,0,0,0-2.256-3.66h-.081A1.324,1.324,0,0,0-3.66-2.337V3.877A1.324,1.324,0,0,0-2.337,5.2Z" transform="translate(92.301 79.391)" fill="#6fb44e"/>
    <path id="Path_11138" data-name="Path 11138" d="M705.933,701.262h0a1.9,1.9,0,0,1-1.9,1.9h-.16a1.9,1.9,0,0,1,0-3.792h.16a1.9,1.9,0,0,1,1.9,1.9" transform="translate(-613.954 -611.666)" fill="#fff"/>
    <path id="Path_11139" data-name="Path 11139" d="M699.605,694.481h.159a2.509,2.509,0,1,1,0,5.017h-.159a2.509,2.509,0,0,1,0-5.017Zm.159,3.792a1.283,1.283,0,1,0,0-2.567h-.159a1.283,1.283,0,0,0,0,2.567Z" transform="translate(-609.681 -607.393)" fill="#6fb44e"/>
    <path id="Path_11140" data-name="Path 11140" d="M56.176,512.254h3.017a.783.783,0,0,1,.743.554,15.849,15.849,0,0,0,1.034,2.494.783.783,0,0,1-.133.917L58.7,518.353a1.461,1.461,0,0,0,0,2.067l3.982,3.982a1.461,1.461,0,0,0,2.067,0l2.134-2.134a.783.783,0,0,1,.917-.133,15.83,15.83,0,0,0,2.494,1.034.783.783,0,0,1,.554.743v3.017a1.461,1.461,0,0,0,1.462,1.461h5.631a1.461,1.461,0,0,0,1.461-1.461v-3.017a.783.783,0,0,1,.554-.743,15.824,15.824,0,0,0,2.494-1.034.783.783,0,0,1,.917.133L85.5,524.4a1.462,1.462,0,0,0,2.067,0l3.982-3.982a1.461,1.461,0,0,0,0-2.067l-2.134-2.134a.783.783,0,0,1-.134-.917,15.838,15.838,0,0,0,1.034-2.494.782.782,0,0,1,.743-.554h3.017a1.462,1.462,0,0,0,1.462-1.462v-5.631a1.462,1.462,0,0,0-1.462-1.462H91.061a.782.782,0,0,1-.743-.554,15.831,15.831,0,0,0-1.034-2.494.783.783,0,0,1,.134-.917l2.134-2.134a1.462,1.462,0,0,0,0-2.067l-3.982-3.982a1.461,1.461,0,0,0-2.067,0l-2.134,2.134a.782.782,0,0,1-.917.133,15.838,15.838,0,0,0-2.494-1.034.782.782,0,0,1-.554-.743v-3.017a1.462,1.462,0,0,0-1.461-1.462H72.311a1.462,1.462,0,0,0-1.462,1.462v3.017a.782.782,0,0,1-.554.743,15.839,15.839,0,0,0-2.494,1.034.782.782,0,0,1-.917-.133l-2.134-2.134a1.461,1.461,0,0,0-2.067,0L58.7,495.534a1.462,1.462,0,0,0,0,2.067l2.134,2.134a.783.783,0,0,1,.134.917,15.831,15.831,0,0,0-1.034,2.494.782.782,0,0,1-.743.554H56.176a1.462,1.462,0,0,0-1.462,1.462v5.631a1.462,1.462,0,0,0,1.462,1.462" transform="translate(-47.853 -426.424)" fill="#f3f3f3"/>
    <path id="Path_11141" data-name="Path 11141" d="M73.67,524.73H68.039a2.076,2.076,0,0,1-2.074-2.074v-3.017a.172.172,0,0,0-.127-.159,16.5,16.5,0,0,1-2.591-1.074l-.635-.41.433.433-2.134,2.134a2.074,2.074,0,0,1-2.933,0L54,516.581a2.074,2.074,0,0,1,0-2.933l2.134-2.134a.172.172,0,0,0,.023-.2,16.514,16.514,0,0,1-1.074-2.591.172.172,0,0,0-.159-.127H51.9a2.076,2.076,0,0,1-2.074-2.074v-5.631a2.076,2.076,0,0,1,2.074-2.074H54.92a.17.17,0,0,0,.159-.127,16.5,16.5,0,0,1,1.074-2.591.17.17,0,0,0-.023-.2L54,493.761a2.074,2.074,0,0,1,0-2.933l3.982-3.982a2.074,2.074,0,0,1,2.933,0l2.134,2.134.2.023a16.494,16.494,0,0,1,2.591-1.074.17.17,0,0,0,.127-.159v-3.017a2.077,2.077,0,0,1,2.074-2.074H73.67a2.076,2.076,0,0,1,2.074,2.074v3.017a.17.17,0,0,0,.127.159A16.5,16.5,0,0,1,78.462,489l.2-.023,2.134-2.134a2.074,2.074,0,0,1,2.933,0l3.982,3.982a2.074,2.074,0,0,1,0,2.933L85.579,495.9a.17.17,0,0,0-.023.2,16.493,16.493,0,0,1,1.074,2.591.17.17,0,0,0,.159.127h3.017a2.076,2.076,0,0,1,2.074,2.074v5.631a2.076,2.076,0,0,1-2.074,2.074H86.789a.17.17,0,0,0-.159.127,16.5,16.5,0,0,1-1.074,2.591.172.172,0,0,0,.023.2l2.134,2.134a2.074,2.074,0,0,1,0,2.933l-3.982,3.982a2.074,2.074,0,0,1-2.933,0l-2.134-2.134-.484-.567.282.544a16.479,16.479,0,0,1-2.591,1.074.17.17,0,0,0-.127.159v3.017A2.076,2.076,0,0,1,73.67,524.73Zm-10.513-7.572a1.427,1.427,0,0,1,.653.16,15.278,15.278,0,0,0,2.4.994,1.392,1.392,0,0,1,.981,1.327v3.017a.85.85,0,0,0,.849.849H73.67a.85.85,0,0,0,.849-.849v-3.017a1.392,1.392,0,0,1,.981-1.327,15.263,15.263,0,0,0,2.4-.994,1.428,1.428,0,0,1,.654-.16,1.374,1.374,0,0,1,.979.4l2.134,2.134a.849.849,0,0,0,1.2,0l3.982-3.982a.849.849,0,0,0,0-1.2l-2.134-2.134a1.392,1.392,0,0,1-.244-1.632,15.266,15.266,0,0,0,.994-2.4,1.392,1.392,0,0,1,1.326-.981h3.017a.85.85,0,0,0,.849-.849v-5.631a.85.85,0,0,0-.849-.849H86.789a1.392,1.392,0,0,1-1.326-.981,15.266,15.266,0,0,0-.994-2.4,1.393,1.393,0,0,1,.244-1.632l2.134-2.134a.849.849,0,0,0,0-1.2l-3.982-3.982a.849.849,0,0,0-1.2,0l-2.134,2.134a1.374,1.374,0,0,1-.979.4,1.426,1.426,0,0,1-.654-.16,15.266,15.266,0,0,0-2.4-.994,1.392,1.392,0,0,1-.981-1.326v-3.017a.85.85,0,0,0-.849-.849H68.039a.85.85,0,0,0-.849.849v3.017a1.392,1.392,0,0,1-.981,1.326,15.268,15.268,0,0,0-2.4.994,1.426,1.426,0,0,1-.654.16,1.374,1.374,0,0,1-.979-.4l-2.134-2.134a.849.849,0,0,0-1.2,0l-3.982,3.982a.849.849,0,0,0,0,1.2L57,495.029a1.392,1.392,0,0,1,.244,1.632,15.27,15.27,0,0,0-.994,2.4,1.392,1.392,0,0,1-1.326.981H51.9a.85.85,0,0,0-.849.849v5.631a.85.85,0,0,0,.849.849H54.92a1.392,1.392,0,0,1,1.326.981,15.281,15.281,0,0,0,.994,2.4A1.392,1.392,0,0,1,57,512.38l-2.134,2.134a.849.849,0,0,0,0,1.2l3.982,3.982a.849.849,0,0,0,1.2,0l2.134-2.134A1.375,1.375,0,0,1,63.158,517.158Z" transform="translate(-43.58 -422.151)" fill="#6fb44e"/>
    <path id="Path_11142" data-name="Path 11142" d="M127.751,571.854A11.254,11.254,0,1,0,139.005,560.6a11.254,11.254,0,0,0-11.254,11.254" transform="translate(-111.731 -490.301)" fill="#fff"/>
    <path id="Ellipse_556" data-name="Ellipse 556" d="M11.867,0A11.867,11.867,0,1,1,0,11.867,11.88,11.88,0,0,1,11.867,0Zm0,22.508A10.642,10.642,0,1,0,1.225,11.867,10.654,10.654,0,0,0,11.867,22.508Z" transform="translate(15.348 69.746) rotate(-0.287)" fill="#6fb44e"/>
    <path id="Path_11143" data-name="Path 11143" d="M176.37,581.909h0a2.426,2.426,0,0,0-3.432,0l-7.567,7.567-2.811-2.81a2.426,2.426,0,0,0-3.432,3.431l4.321,4.321a3.018,3.018,0,0,0,3.843,0l9.077-9.077a2.427,2.427,0,0,0,0-3.432" transform="translate(-138.552 -508.316)" fill="#f3f3f3"/>
    <path id="Path_11144" data-name="Path 11144" d="M170.382,576.313a3.039,3.039,0,0,1,2.149,5.188l-9.077,9.077a3,3,0,0,1-2.14.879q-.134,0-.267-.011c.016.008-.073.011-.163.011a3,3,0,0,1-2.14-.879l-4.321-4.32a3.039,3.039,0,1,1,4.3-4.3l2.377,2.377,7.134-7.134A3.02,3.02,0,0,1,170.382,576.313Zm-9.068,13.92a1.786,1.786,0,0,0,1.274-.521l9.077-9.077a1.814,1.814,0,1,0-2.566-2.565l-7.567,7.567a.613.613,0,0,1-.866,0l-2.811-2.81a1.814,1.814,0,1,0-2.565,2.565l4.321,4.32a1.805,1.805,0,0,0,1.436.514C161.205,590.23,161.259,590.232,161.314,590.232Z" transform="translate(-134.28 -504.043)" fill="#6fb44e"/>
    <path id="Path_11145" data-name="Path 11145" d="M96.6,807.02a.613.613,0,0,1-.607-.537l-.834-6.733a1.527,1.527,0,0,1,.671-1.428l6-3.314a.613.613,0,0,1,.592,1.073l-5.942,3.276a.344.344,0,0,0-.108.244l.834,6.732a.613.613,0,0,1-.533.683A.606.606,0,0,1,96.6,807.02Z" transform="translate(-83.215 -695.247)" fill="#6fb44e"/>
    <path id="Path_11146" data-name="Path 11146" d="M111.878,569.4a26.967,26.967,0,0,1-14.855-4.45.613.613,0,0,1,.673-1.024A25.889,25.889,0,0,0,133.221,527.6a.613.613,0,0,1,1.008-.7A27.122,27.122,0,0,1,111.878,569.4Z" transform="translate(-84.615 -460.6)" fill="#6fb44e"/>
    <path id="Path_11147" data-name="Path 11147" d="M274.707,420.959a.613.613,0,0,1-.3-1.149l6.022-3.321a.2.2,0,0,0,.1-.2l-.845-6.824a.613.613,0,1,1,1.216-.151l.845,6.825a1.415,1.415,0,0,1-.725,1.421L275,420.883A.61.61,0,0,1,274.707,420.959Z" transform="translate(-239.723 -357.519)" fill="#6fb44e"/>
    <path id="Path_11148" data-name="Path 11148" d="M6.781,478a.612.612,0,0,1-.507-.267,27.114,27.114,0,0,1,36.743-38.277.613.613,0,0,1-.649,1.039A25.889,25.889,0,0,0,7.287,477.045a.613.613,0,0,1-.505.958Z" transform="translate(-1.4 -380.79)" fill="#6fb44e"/>
  </g>
</svg>
