<svg xmlns="http://www.w3.org/2000/svg" xmlns:xlink="http://www.w3.org/1999/xlink" width="1416.08" height="942.23" viewBox="0 0 1416.08 942.23"><defs><style>.cls-1{mask:url(#mask);}.cls-2,.cls-4,.cls-6{mix-blend-mode:multiply;}.cls-2{fill:url(#linear-gradient);}.cls-3{mask:url(#mask-2);}.cls-4{fill:url(#linear-gradient-2);}.cls-5{mask:url(#mask-3);}.cls-6{fill:url(#linear-gradient-3);}.cls-7{fill:none;}.cls-8{clip-path:url(#clip-path);}.cls-9{fill:#fafafa;}.cls-10{fill:#5c81fe;}.cls-11{fill:url(#linear-gradient-4);}.cls-12{mask:url(#mask-4);}.cls-13{fill:url(#linear-gradient-5);}.cls-14{mask:url(#mask-5);}.cls-15{fill:url(#linear-gradient-6);}.cls-16{mask:url(#mask-6);}.cls-17{fill:url(#linear-gradient-7);}.cls-18{fill:#e0e0e0;}.cls-19{fill:#1487e3;}.cls-20{fill:#78c2ff;}.cls-21{fill:#ff8761;}.cls-22{fill:#323657;}.cls-23{fill:url(#linear-gradient-8);}.cls-24{fill:url(#linear-gradient-9);}.cls-25{fill:url(#linear-gradient-10);}.cls-26{fill:#ffd770;}.cls-27{fill:#fff;}.cls-28{fill:url(#linear-gradient-11);}.cls-29{fill:url(#linear-gradient-12);}.cls-30{fill:#609ae8;}.cls-31{fill:#9cc7ff;}.cls-32{fill:#d7d7e6;}.cls-33{fill:#2a6993;}.cls-34{fill:#5b83c2;}.cls-35{fill:#5478b3;}.cls-36{fill:#eea886;}.cls-37{fill:#c5cddb;}.cls-38{fill:#e55353;}.cls-39{fill:#dce6fa;}.cls-40{fill:#434343;}.cls-41{fill:#49699c;}.cls-42{fill:#525252;}.cls-43{fill:#6e6e6e;}.cls-44{fill:#a77860;}.cls-45{fill:#35527a;}.cls-46{fill:#ffd670;}.cls-47{fill:#293f5e;}.cls-48{fill:#3a3f47;}.cls-49{fill:#a88d4a;}.cls-50{fill:#444c94;}.cls-51{fill:#303669;}.cls-52{fill:#518afa;}.cls-53{fill:#ead8cf;}.cls-54{fill:#da9b5b;}.cls-55{fill:#424773;}.cls-56{fill:#292c47;}.cls-57{fill:#754836;}.cls-58{fill:#e2d2ca;}.cls-59{fill:#efaa88;}.cls-60{fill:#e8734d;}.cls-61{fill:#eea987;}.cls-62{fill:#1d3b54;}.cls-63{fill:#857b77;}.cls-64{fill:#918682;}.cls-65{filter:url(#luminosity-noclip-6);}.cls-66{filter:url(#luminosity-noclip-5);}.cls-67{filter:url(#luminosity-noclip-4);}.cls-68{filter:url(#luminosity-noclip-3);}.cls-69{filter:url(#luminosity-noclip-2);}.cls-70{filter:url(#luminosity-noclip);}</style><filter id="luminosity-noclip" x="127.6" y="-5386" width="735.77" height="32766" filterUnits="userSpaceOnUse" color-interpolation-filters="sRGB"><feFlood flood-color="#fff" result="bg"/><feBlend in="SourceGraphic" in2="bg"/></filter><mask id="mask" x="127.6" y="-5386" width="735.77" height="32766" maskUnits="userSpaceOnUse"><g class="cls-70"/></mask><linearGradient id="linear-gradient" x1="127.6" y1="441.9" x2="863.37" y2="441.9" gradientUnits="userSpaceOnUse"><stop offset="0"/><stop offset="1" stop-color="#fff"/></linearGradient><filter id="luminosity-noclip-2" x="219.97" y="-5386" width="554.64" height="32766" filterUnits="userSpaceOnUse" color-interpolation-filters="sRGB"><feFlood flood-color="#fff" result="bg"/><feBlend in="SourceGraphic" in2="bg"/></filter><mask id="mask-2" x="219.97" y="-5386" width="554.64" height="32766" maskUnits="userSpaceOnUse"><g class="cls-69"/></mask><linearGradient id="linear-gradient-2" x1="497.29" y1="617.29" x2="497.29" y2="772.94" xlink:href="#linear-gradient"/><filter id="luminosity-noclip-3" x="43.56" y="-5386" width="451.92" height="32766" filterUnits="userSpaceOnUse" color-interpolation-filters="sRGB"><feFlood flood-color="#fff" result="bg"/><feBlend in="SourceGraphic" in2="bg"/></filter><mask id="mask-3" x="43.56" y="-5386" width="451.92" height="32766" maskUnits="userSpaceOnUse"><g class="cls-68"/></mask><linearGradient id="linear-gradient-3" x1="43.56" y1="770.7" x2="495.48" y2="770.7" xlink:href="#linear-gradient"/><clipPath id="clip-path" transform="translate(110.28 -1.77)"><rect class="cls-7" width="1243.04" height="945"/></clipPath><linearGradient id="linear-gradient-4" x1="1096.76" y1="183.18" x2="828.47" y2="362.04" gradientUnits="userSpaceOnUse"><stop offset="0" stop-color="#40d5e6"/><stop offset="1" stop-color="#4b69e0"/></linearGradient><filter id="luminosity-noclip-4" x="127.6" y="74.02" width="735.77" height="735.77" filterUnits="userSpaceOnUse" color-interpolation-filters="sRGB"><feFlood flood-color="#fff" result="bg"/><feBlend in="SourceGraphic" in2="bg"/></filter><mask id="mask-4" x="237.88" y="72.25" width="735.77" height="735.77" maskUnits="userSpaceOnUse"><g class="cls-67"><g transform="translate(110.28 -1.77)"><g class="cls-1"><path class="cls-2" d="M495.48,809.79a366.93,366.93,0,1,1,143.21-28.93A365.72,365.72,0,0,1,495.48,809.79Zm0-657.61c-159.75,0-289.72,130-289.72,289.72s130,289.72,289.72,289.72S785.2,601.65,785.2,441.9,655.23,152.18,495.48,152.18Z"/></g></g></g></mask><linearGradient id="linear-gradient-5" x1="127.6" y1="441.9" x2="863.37" y2="441.9" gradientUnits="userSpaceOnUse"><stop offset="0" stop-color="#40d5e6"/><stop offset="1" stop-color="#57f"/></linearGradient><filter id="luminosity-noclip-5" x="219.97" y="599.33" width="554.64" height="109.73" filterUnits="userSpaceOnUse" color-interpolation-filters="sRGB"><feFlood flood-color="#fff" result="bg"/><feBlend in="SourceGraphic" in2="bg"/></filter><mask id="mask-5" x="330.25" y="597.56" width="554.64" height="109.73" maskUnits="userSpaceOnUse"><g class="cls-66"><g transform="translate(110.28 -1.77)"><g class="cls-3"><rect class="cls-4" x="219.97" y="599.33" width="554.64" height="109.73"/></g></g></g></mask><linearGradient id="linear-gradient-6" x1="607.57" y1="615.53" x2="607.57" y2="771.18" xlink:href="#linear-gradient-5"/><filter id="luminosity-noclip-6" x="43.56" y="731.62" width="451.92" height="78.17" filterUnits="userSpaceOnUse" color-interpolation-filters="sRGB"><feFlood flood-color="#fff" result="bg"/><feBlend in="SourceGraphic" in2="bg"/></filter><mask id="mask-6" x="153.84" y="729.85" width="451.92" height="78.17" maskUnits="userSpaceOnUse"><g class="cls-65"><g transform="translate(110.28 -1.77)"><g class="cls-5"><rect class="cls-6" x="43.56" y="731.62" width="451.92" height="78.17"/></g></g></g></mask><linearGradient id="linear-gradient-7" x1="153.84" y1="768.93" x2="605.77" y2="768.93" xlink:href="#linear-gradient-5"/><linearGradient id="linear-gradient-8" x1="755.15" y1="232.36" x2="774.49" y2="232.36" gradientUnits="userSpaceOnUse"><stop offset="0" stop-color="#ffae70"/><stop offset="1" stop-color="#ffd970"/></linearGradient><linearGradient id="linear-gradient-9" x1="748.22" y1="232.36" x2="756.28" y2="232.36" xlink:href="#linear-gradient-8"/><linearGradient id="linear-gradient-10" x1="699.6" y1="223.52" x2="761.55" y2="223.52" xlink:href="#linear-gradient-8"/><linearGradient id="linear-gradient-11" x1="607.57" y1="614.18" x2="607.57" y2="795.39" xlink:href="#linear-gradient-4"/><linearGradient id="linear-gradient-12" x1="729.72" y1="607.48" x2="729.72" y2="756.86" xlink:href="#linear-gradient-4"/></defs><g id="Layer_2" data-name="Layer 2"><g id="Layer_2-2" data-name="Layer 2"><g class="cls-8"><rect class="cls-9" width="1416.08" height="942.23"/><polygon class="cls-10" points="1274.11 768.55 1160.8 681.21 1160.8 729.85 1146.92 729.85 1037.32 729.85 391.45 729.85 391.45 808.02 1106.41 808.02 1146.92 808.02 1160.8 808.02 1160.8 855.89 1274.11 768.55"/><path class="cls-11" d="M992.75,126.7,915,143.47l36,71,12.81-26.92a115.71,115.71,0,1,1-154.21,54.72l-33.91-16.15c-36.34,76.3-3.82,167.94,72.48,204.28s167.94,3.82,204.27-72.48,3.82-167.94-72.48-204.28Z" transform="translate(110.28 -1.77)"/><g class="cls-12"><path class="cls-13" d="M495.48,809.79a366.93,366.93,0,1,1,143.21-28.93A365.72,365.72,0,0,1,495.48,809.79Zm0-657.61c-159.75,0-289.72,130-289.72,289.72s130,289.72,289.72,289.72S785.2,601.65,785.2,441.9,655.23,152.18,495.48,152.18Z" transform="translate(110.28 -1.77)"/></g><g class="cls-14"><rect class="cls-15" x="330.25" y="597.56" width="554.64" height="109.73"/></g><g class="cls-16"><rect class="cls-17" x="153.84" y="729.85" width="451.92" height="78.17"/></g><rect class="cls-18" x="401.44" y="312.17" width="90.11" height="9.23"/><rect class="cls-18" x="516.77" y="381.64" width="65.06" height="9.23"/><rect class="cls-19" x="591.96" y="381.64" width="43.17" height="9.23"/><rect class="cls-19" x="680.17" y="660.57" width="43.17" height="9.23"/><rect class="cls-19" x="402.46" y="556.35" width="43.17" height="9.23"/><rect class="cls-18" x="643.66" y="381.64" width="104.24" height="9.23"/><rect class="cls-18" x="402.46" y="521.36" width="66.98" height="9.23"/><rect class="cls-18" x="582.44" y="591.09" width="66.98" height="9.23"/><rect class="cls-18" x="495.83" y="591.09" width="40.89" height="9.23"/><rect class="cls-19" x="402.46" y="591.09" width="81.01" height="9.23"/><rect class="cls-18" x="402.46" y="625.83" width="44.68" height="9.23"/><rect class="cls-20" x="509.08" y="312.17" width="63.97" height="9.23"/><rect class="cls-19" x="509.08" y="416.38" width="63.97" height="9.23"/><rect class="cls-18" x="477.09" y="451.12" width="27.33" height="9.23"/><rect class="cls-20" x="449.76" y="486.37" width="61.39" height="9.23"/><rect class="cls-19" x="520.43" y="486.37" width="84.75" height="9.23"/><rect class="cls-19" x="402.46" y="451.37" width="63.97" height="9.23"/><rect class="cls-19" x="402.46" y="486.37" width="37.96" height="9.23"/><rect class="cls-21" x="517.31" y="451.37" width="35.81" height="9.23"/><rect class="cls-21" x="403.53" y="660.57" width="35.81" height="9.23"/><rect class="cls-20" x="402.21" y="381.64" width="63.97" height="9.23"/><rect class="cls-20" x="458.78" y="556.35" width="63.97" height="9.23"/><rect class="cls-20" x="459.56" y="625.83" width="63.97" height="9.23"/><rect class="cls-20" x="573.2" y="625.83" width="63.97" height="9.23"/><rect class="cls-20" x="402.21" y="416.38" width="91.19" height="9.23"/><rect class="cls-20" x="601.63" y="660.57" width="63.97" height="9.23"/><rect class="cls-19" x="590.27" y="312.17" width="81.5" height="9.23"/><rect class="cls-19" x="452.86" y="660.57" width="81.5" height="9.23"/><rect class="cls-19" x="737.04" y="660.57" width="81.5" height="9.23"/><rect class="cls-19" x="724.5" y="591.09" width="81.5" height="9.23"/><rect class="cls-19" x="701.75" y="416.38" width="81.5" height="9.23"/><rect class="cls-21" x="549.52" y="591.09" width="17.57" height="9.23"/><rect class="cls-21" x="732.05" y="312.17" width="81.5" height="9.23"/><rect class="cls-21" x="639.05" y="416.38" width="47.79" height="9.23"/><rect class="cls-21" x="601.63" y="556.87" width="47.79" height="9.23"/><rect class="cls-18" x="686.84" y="312.17" width="29.83" height="9.23"/><rect class="cls-18" x="590.27" y="416.38" width="29.83" height="9.23"/><rect class="cls-19" x="401.44" y="346.91" width="46.67" height="9.23"/><rect class="cls-19" x="525.96" y="521.62" width="36.85" height="9.23"/><rect class="cls-19" x="459.56" y="346.91" width="15.07" height="9.23"/><rect class="cls-18" x="649.42" y="625.83" width="124.55" height="9.23"/><rect class="cls-21" x="485.71" y="346.91" width="15.38" height="9.23"/><rect class="cls-19" x="716.67" y="346.91" width="40.75" height="9.23"/><rect class="cls-21" x="757.42" y="381.64" width="40.75" height="9.23"/><rect class="cls-21" x="666.46" y="591.09" width="40.75" height="9.23"/><rect class="cls-21" x="547.88" y="660.57" width="40.75" height="9.23"/><rect class="cls-19" x="619.18" y="346.91" width="86.7" height="9.23"/><rect class="cls-19" x="538.47" y="556.87" width="50.66" height="9.23"/><rect class="cls-19" x="535.22" y="625.83" width="25.33" height="9.23"/><rect class="cls-20" x="577.05" y="346.91" width="29.83" height="9.23"/><rect class="cls-21" x="476.63" y="381.64" width="29.83" height="9.23"/><rect class="cls-21" x="482.58" y="521.62" width="29.83" height="9.23"/><rect class="cls-19" x="513.69" y="346.91" width="51.97" height="9.23"/><path class="cls-22" d="M279.74,698.32h0C279.86,698.39,279.89,698.4,279.74,698.32Z" transform="translate(110.28 -1.77)"/><polygon class="cls-23" points="759.68 237.06 774.49 237.06 769.96 227.66 755.15 227.66 759.68 237.06"/><polygon class="cls-24" points="752.75 237.06 756.28 237.06 751.75 227.66 748.22 227.66 752.75 237.06"/><polygon class="cls-25" points="701.59 225.87 761.55 225.87 759.56 221.17 699.6 221.17 701.59 225.87"/><rect class="cls-26" x="895.44" y="471.16" width="47.16" height="3.31" transform="translate(1948.32 943.87) rotate(180)"/><rect class="cls-26" x="895.44" y="477.39" width="47.16" height="13.9" transform="translate(1948.32 966.92) rotate(180)"/><rect class="cls-26" x="873.28" y="495.97" width="27.82" height="2.08" transform="translate(1884.67 992.24) rotate(180)"/><rect class="cls-26" x="873.28" y="498.95" width="27.82" height="5.62" transform="translate(1884.67 1001.76) rotate(180)"/><rect class="cls-26" x="887.39" y="449.94" width="2.08" height="38.94" transform="translate(1887.13 937.05) rotate(180)"/><rect class="cls-27" x="284.36" y="184.59" width="37.15" height="6.73" transform="translate(716.15 374.14) rotate(180)"/><rect class="cls-27" x="284.36" y="181.45" width="37.15" height="1.27" transform="translate(716.15 362.4) rotate(180)"/><polygon class="cls-21" points="763 315.42 811.24 267.17 1009.45 267.17 1009.45 264.71 810.22 264.71 761.26 313.68 763 315.42"/><rect class="cls-28" x="330.25" y="705.6" width="554.64" height="109.73"/><polygon class="cls-20" points="456.38 425.68 458.13 423.94 365.93 331.75 191.44 331.75 191.44 334.21 364.91 334.21 456.38 425.68"/><polygon class="cls-19" points="640.09 314.78 641.83 313.04 564.02 235.23 454.58 235.23 454.58 237.69 563 237.69 640.09 314.78"/><polygon class="cls-29" points="884.89 815.34 884.89 705.6 683.04 705.6 574.55 814.09 884.89 815.34"/><rect class="cls-30" x="901.92" y="201.1" width="17.5" height="53.15"/><rect class="cls-31" x="835.12" y="120.11" width="151.09" height="106.59" rx="16.31"/><rect class="cls-27" x="841.04" y="126.19" width="139.26" height="83.8"/><rect class="cls-31" x="761.03" y="254.01" width="78.72" height="4.01" transform="translate(1711.06 510.26) rotate(180)"/><rect class="cls-32" x="817.87" y="153.39" width="44.76" height="51.74" transform="translate(1790.78 356.76) rotate(180)"/><rect class="cls-32" x="764.84" y="153.39" width="46.12" height="6.45" transform="translate(1686.07 311.47) rotate(180)"/><rect class="cls-32" x="764.84" y="166.64" width="46.12" height="6.45" transform="translate(1686.07 337.96) rotate(180)"/><rect class="cls-32" x="764.84" y="178.53" width="46.12" height="26.61" transform="translate(1686.07 381.89) rotate(180)"/><rect class="cls-32" x="738.75" y="151.92" width="19.57" height="53.21" transform="translate(1607.36 355.29) rotate(180)"/><rect class="cls-32" x="739.21" y="134.41" width="123.87" height="13.29" transform="translate(1712.57 280.35) rotate(180)"/><rect class="cls-31" x="359.96" y="116.99" width="76.71" height="108.45" rx="15.61" transform="translate(906.92 340.66) rotate(180)"/><rect class="cls-27" x="364.2" y="122" width="68.23" height="89" transform="translate(906.92 331.24) rotate(180)"/><rect class="cls-32" x="368.79" y="128.4" width="59.38" height="11.85" transform="translate(907.25 266.89) rotate(180)"/><rect class="cls-32" x="403.73" y="144.84" width="24.44" height="58.07" transform="translate(942.19 345.99) rotate(180)"/><rect class="cls-32" x="368.79" y="144.84" width="30.4" height="6.73" transform="translate(878.26 294.65) rotate(180)"/><rect class="cls-32" x="368.79" y="156.47" width="30.4" height="6.73" transform="translate(878.26 317.9) rotate(180)"/><rect class="cls-32" x="368.79" y="168.1" width="30.4" height="6.73" transform="translate(878.26 341.15) rotate(180)"/><rect class="cls-32" x="368.79" y="179.72" width="30.4" height="23.19" transform="translate(878.26 380.87) rotate(180)"/><path class="cls-30" d="M108.8,237.48H228.38a0,0,0,0,1,0,0v69.76a11.44,11.44,0,0,1-11.44,11.44H120.23a11.44,11.44,0,0,1-11.44-11.44V237.48A0,0,0,0,1,108.8,237.48Z" transform="translate(447.46 554.39) rotate(180)"/><rect class="cls-27" x="112.13" y="241.8" width="112.91" height="72.56" transform="translate(447.46 554.39) rotate(180)"/><path class="cls-31" d="M109,318.68H228.18a6,6,0,0,1,6,6v0a0,0,0,0,1,0,0H103a0,0,0,0,1,0,0v0a6,6,0,0,1,6-6Z" transform="translate(447.46 641.56) rotate(180)"/><rect class="cls-32" x="116.86" y="247.07" width="103.35" height="10.09" transform="translate(447.34 502.47) rotate(180)"/><rect class="cls-32" x="184.77" y="262.86" width="35.43" height="46.22" transform="translate(515.26 570.18) rotate(180)"/><rect class="cls-32" x="144.8" y="262.86" width="35.43" height="46.22" transform="translate(435.31 570.18) rotate(180)"/><rect class="cls-32" x="116.86" y="262.86" width="21.61" height="6.6" transform="translate(365.6 530.56) rotate(180)"/><rect class="cls-32" x="116.86" y="273.07" width="21.61" height="6.6" transform="translate(365.6 550.98) rotate(180)"/><rect class="cls-32" x="116.86" y="283.28" width="21.61" height="25.8" transform="translate(365.6 590.6) rotate(180)"/><polygon class="cls-33" points="264.37 433.23 237.76 417.87 237.76 428 198.19 428 198.19 438.47 237.76 438.47 237.76 448.6 264.37 433.23"/><polygon class="cls-33" points="198.19 399.53 224.81 414.89 224.81 404.76 264.37 404.76 264.37 394.3 224.81 394.3 224.81 384.16 198.19 399.53"/><polygon class="cls-33" points="653.25 214.27 633.3 202.75 633.3 210.35 603.65 210.35 603.65 218.19 633.3 218.19 633.3 225.79 653.25 214.27"/><polygon class="cls-33" points="603.65 189.01 623.6 200.53 623.6 192.93 653.25 192.93 653.25 185.09 623.6 185.09 623.6 177.5 603.65 189.01"/><path class="cls-27" d="M812.4,398.82a12.14,12.14,0,0,1-7-2.82,9.08,9.08,0,0,1-3.33-6.94,55.16,55.16,0,0,0-3.3-14.16,24.36,24.36,0,1,1,29.19.86,53,53,0,0,0-3.24,13.45c-.06,5.36-5.16,9.69-11.39,9.64C813,398.85,812.7,398.84,812.4,398.82Zm3.22-65.28a22.37,22.37,0,0,0-15.41,40l.23.17.09.27a56.87,56.87,0,0,1,3.52,15V389a7.16,7.16,0,0,0,2.64,5.46,10.24,10.24,0,0,0,6.64,2.37c5.15,0,9.36-3.42,9.39-7.7v-.08a54.68,54.68,0,0,1,3.47-14.31l.11-.29.26-.18a22.36,22.36,0,0,0-10.94-40.76Z" transform="translate(110.28 -1.77)"/><polygon class="cls-27" points="918.16 388.74 914.97 362.2 920.51 366.78 923.94 362.97 926.91 366.54 932.08 362.16 928.93 388.75 926.95 388.51 929.5 366.95 926.66 369.36 923.88 366.01 920.71 369.53 917.55 366.91 920.14 388.5 918.16 388.74"/><rect class="cls-27" x="804.66" y="396.42" width="17.28" height="6.96" transform="translate(112.98 -7.21) rotate(0.38)"/><rect class="cls-27" x="801.91" y="389.31" width="22.83" height="11.21" transform="translate(112.95 -7.21) rotate(0.38)"/><path class="cls-34" d="M867.52,800c-.51,3.54-21.77,18.44-26,21.41-3.36,2.39-6.29,3.49-11.37,5.4h0c-11.55,3-84,24.65-84,24.65a9.08,9.08,0,0,0-.72-2.2c-2.7,1.08-5.49,1.78-7.25,2.33-2.7.84-24.11,1.52-28.5,2.36s-13.14,2.19-16.68-1.18,2.19-10.62,7.08-12.47,22.75-2.36,26-2.7,7.42-1.52,9.44-.85c.64.22,3.46-.61,7-1.84-.09-1.32-.11-2.15-.11-2.15l19-5.48-3.52-33.68s8.28-31.19,41.34-7.4c0,0,7.38,2.17,9.91,2.85a3.12,3.12,0,0,0,.85,0c5-.38,26.72-6.94,34.55-6.94,8.43,0,11.13-.5,14.16,1S868,796.41,867.52,800Z" transform="translate(110.28 -1.77)"/><path class="cls-34" d="M833.64,852.72c-3.54,3.37-12.3,2-16.69,1.18s-25.79-1.52-28.49-2.36-7.75-2-11.29-4.38a11.27,11.27,0,0,0-1.89-.83h0l-5.35,3.86L695.48,826.5a26.79,26.79,0,0,1-10.36-5.14c-3.88-3.37-25.45-17.87-26-21.41s5.73-15.34,8.77-16.85,5.73-1,14.16-1,32.87,7.59,35.4,6.92a37,37,0,0,0,5.79-2.76c2.7-1.47,5.22-3,5.22-3,36.21-16.16,40.24,10.29,40.24,10.29L766.6,826.2s3,1.49,6.94,3.36l17.94,5.07-2.35,1.7a4.67,4.67,0,0,0,2,.37c2-.67,6.24.51,9.44.85s21.07.84,26,2.7S837.18,849.35,833.64,852.72Z" transform="translate(110.28 -1.77)"/><path class="cls-35" d="M723.28,786.24c2.49.18,19.36,10,23.37,12.29-6.09-3.18-29.16-9.53-29.16-9.53A37,37,0,0,0,723.28,786.24Z" transform="translate(110.28 -1.77)"/><path class="cls-35" d="M810,789s-29.07,7.05-34.39,10c.25-.17,15.32-11.63,23.24-13.15,0,0,7.77,2.45,10.3,3.13a3.12,3.12,0,0,0,.85,0Z" transform="translate(110.28 -1.77)"/><path class="cls-36" d="M833.64,852.72c-3.54,3.37-12.3,2-16.69,1.18s-25.79-1.52-28.49-2.36c-.77-.24-1.74-.51-2.81-.83h0a32.29,32.29,0,0,1-8.47-3.55,11.27,11.27,0,0,0-1.89-.83l13.47-9.73.38-.27a4.67,4.67,0,0,0,2,.37c2-.67,6.24.51,9.44.85s21.07.84,26,2.7S837.18,849.35,833.64,852.72Z" transform="translate(110.28 -1.77)"/><path class="cls-37" d="M833.64,852.72c-3.54,3.37-12.3,2-16.69,1.18s-25.79-1.52-28.49-2.36c-.77-.24-1.74-.51-2.81-.83h0a14.26,14.26,0,0,0,3.11-14.11l.38-.27a4.67,4.67,0,0,0,2,.37c2-.67,6.24.51,9.44.85s21.07.84,26,2.7S837.18,849.35,833.64,852.72Z" transform="translate(110.28 -1.77)"/><path class="cls-38" d="M730.67,793.69c0,.09,0,.15,0,.19C730.3,794.14,730.36,794,730.67,793.69Z" transform="translate(110.28 -1.77)"/><path class="cls-39" d="M828.1,754.27c-.28-.57-15.64-24.73-19.8-35.74s-14.16-16.07-18.88-17.65c-1.69-.56-4.69-1.54-7.85-2.56l-11.93-3.84H750s-6.81,2.28-14.05,4.81h0c-6.67,2.34-13.69,4.89-16.06,6.08-5,2.47-13.26,20.12-15,22.14s-14.65,26.05-16.52,35.29C686.93,770,729.5,791,730.67,793.69c1.34-1.5,7.54-7.45,7.54-7.45s-2-1.24-4.78-3.08c11.41.52,39.28-.46,43.27-.26a20.58,20.58,0,0,0,2.58-.06h0c1.23.9,9.21,7.95,9.21,7.95s19.67-8.16,28.72-17.3C830.05,760.5,829.51,757.13,828.1,754.27Zm-111.83,16c-4.22-5.06-10-8.12-8.56-10.36s13.83-23.61,13.83-23.61,6.4,14.05,8.2,21.36,1.66,10.65.9,12.92c-.68,2-1.23,3.43-1.84,9.5C723.76,776.61,718.2,772.57,716.27,770.25Zm87-2.41c-1.66,1.88-8.2,6-14.08,9.45-.44-4.08-1.12-10.49-1.19-12.8-.11-3.48,1.35-13.48,3.14-17.3s3-14.28,3-14.28,14.89,20.23,17.25,22.37S808.81,761.49,803.23,767.84Z" transform="translate(110.28 -1.77)"/><path class="cls-36" d="M762.15,640.42s15.38,2.42,13,26.49S759.27,689,758.36,689s-13.62.44-14.62-28.94C743.74,660,743.31,638.3,762.15,640.42Z" transform="translate(110.28 -1.77)"/><path class="cls-36" d="M775.43,660.11s1.68-1.8,2.3,0-2.3,10-2.4,10.33c0,0-.31.7-.72.31S775.43,660.11,775.43,660.11Z" transform="translate(110.28 -1.77)"/><path class="cls-36" d="M744.16,659.8s-1.65-1.83-2.3,0,2.08,10,2.2,10.37c0,0,.29.71.7.33S744.16,659.8,744.16,659.8Z" transform="translate(110.28 -1.77)"/><path class="cls-40" d="M775.42,663.8l-2.2,2.94s.06-6.45-.29-7.46-.9-4.11-1.19-4.83-13.21-4.35-24.62,1c0,0,.5,4.64-.59,5.06s-.56,7.55-.56,7.55l-1.81-2s-2.77-18.51-2.09-20.44,2.87-13.54,26.27-6.65c0,0,7.3-1.54,8.76,3.49S775.42,663.8,775.42,663.8Z" transform="translate(110.28 -1.77)"/><path class="cls-41" d="M739.52,817.69S716,803.58,705.69,801.36c-9.72-2.1-13.26-5.73-13.26-5.73s15.45,0,25.73,7.3C725.15,807.89,739.52,817.69,739.52,817.69Z" transform="translate(110.28 -1.77)"/><path class="cls-41" d="M760.44,827.53s40.95-21.51,57.67-26.17c9.57-2.67,13.26-5.73,13.26-5.73s-25.32,2.47-40.71,11.74C783.32,811.79,760.44,827.53,760.44,827.53Z" transform="translate(110.28 -1.77)"/><path class="cls-36" d="M745.47,849.21c-2.7,1.08-5.49,1.78-7.25,2.33-2.7.84-24.11,1.52-28.5,2.36s-13.14,2.19-16.68-1.18,2.19-10.62,7.08-12.47,22.75-2.36,26-2.7,7.42-1.52,9.44-.85c.64.22,3.46-.61,7-1.84C742.66,837,745.47,849.21,745.47,849.21Z" transform="translate(110.28 -1.77)"/><path class="cls-34" d="M760.44,847.17l40.26-11.91-8-2.43S760.56,844.49,760.44,847.17Z" transform="translate(110.28 -1.77)"/><polygon class="cls-41" points="870.72 845.41 889.56 839.66 876.5 847.25 870.72 845.41"/><path class="cls-42" d="M747.49,799l-.84-.49A8.22,8.22,0,0,1,747.49,799Z" transform="translate(110.28 -1.77)"/><path class="cls-37" d="M738.22,851.54c-2.7.84-24.11,1.52-28.5,2.36s-13.14,2.19-16.68-1.18,2.19-10.62,7.08-12.47,22.75-2.36,26-2.7,7.42-1.52,9.44-.85C735.52,836.7,730.11,845,738.22,851.54Z" transform="translate(110.28 -1.77)"/><path class="cls-39" d="M781.57,698.32s-6.45,28.34-21.81,28.34-23.85-27.36-23.85-27.36h0c7.24-2.53,14.05-4.81,14.05-4.81h19.67Z" transform="translate(110.28 -1.77)"/><path class="cls-42" d="M724.91,795.63l-6.21-35.29,80.22-1.86-5.17,34.73s-25.6,9.37-34.29,14.84C759.46,808.05,737.5,799,724.91,795.63Z" transform="translate(110.28 -1.77)"/><path class="cls-43" d="M764.18,781.62c0,2.92-2,5.28-4.5,5.28s-4.49-2.36-4.49-5.28,2-5.28,4.49-5.28S764.18,778.7,764.18,781.62Z" transform="translate(110.28 -1.77)"/><path class="cls-36" d="M769.84,694.54l0-.06c-1-2.15-.49-12.59-.49-12.59s-19.59-5-19-1.18-1.69,14.22-1.69,14.22l-10.05,3.44s10.71,28.76,23,25,17-26.08,17-26.08Z" transform="translate(110.28 -1.77)"/><path class="cls-44" d="M750.27,684.59s3.47,4.43,8.94,4.43c3.61,0,6.45-1.26,10-4.76a10.91,10.91,0,0,1-10,7.52S753,692.17,750.27,684.59Z" transform="translate(110.28 -1.77)"/><polygon class="cls-20" points="809.67 473.02 729.16 473.02 729.16 531.38 729.16 543.67 741.45 531.38 809.67 531.38 809.67 473.02"/><path class="cls-45" d="M579.1,813.54s.83,6.84,1.94,9.86,7.15,10,4.6,16.68c-2.76,7.25-14.83.26-19.75-2s-3.81-6.23-4.33-11.15-2.93-5.05-2-8.51,6.27-10.09,6.27-10.09Z" transform="translate(110.28 -1.77)"/><path class="cls-36" d="M568.11,804.79s-3.09,4.33-3,4.45,13.23,8.12,14.15,5.52a26.34,26.34,0,0,0,1-5Z" transform="translate(110.28 -1.77)"/><path class="cls-45" d="M523.54,818.38a49.68,49.68,0,0,0-7.62,8.92c-3.6,5.4-13.16,5.69-13.57,13.06s13,7.61,20,5.2,8.11-9.6,12.36-11.4,6.47-3.26,6.15-6.78-2.69-9.22-2.69-9.22a29,29,0,0,1-4.2,1A34.78,34.78,0,0,1,523.54,818.38Z" transform="translate(110.28 -1.77)"/><path class="cls-46" d="M571.8,618.53s-2.7,16.05-4.87,26.65h0a63.84,63.84,0,0,1-2.18,8.78c-.62,1.34-5.68,6.78-11.88,13.16-10.88,11.2-25.25,25.3-25.25,25.3L522,681.76s12.77-15,21.42-25c4-4.62,7.13-8.18,7.7-8.69,1.81-1.62,3.91-17.56,6.86-30.7s8.87-20.4,8.87-20.4Z" transform="translate(110.28 -1.77)"/><path class="cls-36" d="M552.87,667.12c-10.88,11.2-25.25,25.3-25.25,25.3L522,681.76s12.77-15,21.42-25C546.07,658.11,550.94,661.21,552.87,667.12Z" transform="translate(110.28 -1.77)"/><path class="cls-36" d="M524.17,813.46l-.63,4.92a24.27,24.27,0,0,0,14.67-.22l.16-4.37Z" transform="translate(110.28 -1.77)"/><path class="cls-46" d="M623.28,690.25c.4,1.43-73.95,0-73.95,0s20.57-15,21.9-19-5.24-28-6.1-35.8c-.68-6.24-2.4-34.2,1.72-38.46,4.3-4.47,19.8-9.14,19.8-9.14l22.6.83a35.5,35.5,0,0,1,6.4,2C618.31,592,633.56,597.4,636,605s-15.22,32.11-15.22,32.11,0,1.1-.09,2.9h0c-.06,2.41-.16,6.06-.26,10-.12,5.13-.22,10.79-.22,14.92C620.25,674.69,622.88,688.83,623.28,690.25Z" transform="translate(110.28 -1.77)"/><path class="cls-47" d="M623.28,690.25s10.11,14.86,10.25,25-17.94,44.1-20.68,49c-8.23,14.6-30.8,46.11-30.8,46.11s-3.89-.1-16-4.81c0,0,15-41.62,16.92-45.94,8.07-18.32,12.57-31.32,9.86-34.46s-10.11-6.29-12.25-8.15-39.47,7-43.38,8.07c-10.12,2.62-5.51,20.24-3.27,28.14,3.75,13.22,7,60.94,7,60.94s-7.22,3.07-19.3.48c0,0-23.72-86.17-24.48-94.74s-1.14-22.7,57.32-33.44Z" transform="translate(110.28 -1.77)"/><path class="cls-36" d="M592.85,538.78s-19.61-4.43-15.13,20.26,9.2,26.63,21,21.52,10.78-20.93,11.37-28.68S599.11,539.05,592.85,538.78Z" transform="translate(110.28 -1.77)"/><path class="cls-36" d="M587.66,594.21s8.69,9.21,22.42.84c0,0-3.07-20-1.45-29.68s-17.92,15.06-17.92,15.06c.26.14.43,1.07.47,2.39a27,27,0,0,1-.21,3.95C590.57,590,589.57,593.42,587.66,594.21Z" transform="translate(110.28 -1.77)"/><path class="cls-48" d="M609.17,564.54s-.51-7.77-3.35-8-3.28,2.89-3.28,2.89l-2.87.54s.91-6.81-1.93-8-18.38,3.75-20.65,1.75S575.88,537.87,580,536s15.49-6.13,23.82-.49c0,0,6.5-.74,7.46,4.5S610.93,560.65,609.17,564.54Z" transform="translate(110.28 -1.77)"/><path class="cls-44" d="M591,586.77c14.17-4.37,15.24-12.89,15.25-13-4.66,8-15,9.08-15,9.08A27,27,0,0,1,591,586.77Z" transform="translate(110.28 -1.77)"/><path class="cls-36" d="M615.88,590.84s-10.37,20.65-27.13,19.32-2.86-22.09-2.1-22.28S603.84,583.59,615.88,590.84Z" transform="translate(110.28 -1.77)"/><path class="cls-46" d="M540.82,689.21s51.35,6.33,82.46,1l-59.44-7.42S563.49,684.34,540.82,689.21Z" transform="translate(110.28 -1.77)"/><path class="cls-36" d="M579.23,680.49l-3.83,1.94s.87,6.07,3,7.91l4.29-1.09S581.77,682.58,579.23,680.49Z" transform="translate(110.28 -1.77)"/><path class="cls-46" d="M638.64,668.05c-.76.88-10.86,4.94-22.26,9.34h0c-15.58,6-33.15,11.67-33.15,11.67l-4-8.57s18.4-10,30.83-17c5.88-3.32,10.42-6,11.06-6.57,2-1.91,2.52-5,1-10.29s-4.86-29.8-5.24-32.66,1-10.47,8.1-10.85,10.77,1.63,10.77,1.63,1.79.75,3.13,18.08S640.45,666,638.64,668.05Z" transform="translate(110.28 -1.77)"/><path class="cls-49" d="M620.73,640h0c-.06,2.41-.16,6.06-.26,10-7-17.09-2.94-30.72-2.87-30.95C616.84,623.74,620.68,639.8,620.73,640Z" transform="translate(110.28 -1.77)"/><path class="cls-49" d="M566.93,645.18h0a63.84,63.84,0,0,1-2.18,8.78c-2.38-11.53-.24-26.28-.24-26.28A148.5,148.5,0,0,0,566.93,645.18Z" transform="translate(110.28 -1.77)"/><path class="cls-36" d="M616.38,677.39h0c-15.58,6-33.72,11.86-33.72,11.86l-3.43-8.76s18.4-10,30.83-17C610.06,663.48,614.59,665.68,616.38,677.39Z" transform="translate(110.28 -1.77)"/><polygon class="cls-50" points="688.4 687.99 615.42 686.92 652.27 705.63 688.4 687.99"/><polygon class="cls-51" points="652.27 705.63 688.4 691.63 688.4 687.99 649.41 702.06 652.27 705.63"/><path class="cls-36" d="M576.23,682.56s-4.56-.71-7.71-1.44c-2.44-.57-8.5.21-10,1.78S552,695.36,551.09,696s.48,2.2,2.11,1.43c0,0,1.49,4.77,5.19,3s6.21-5.69,8.14-6.38,13.21-4.15,13.21-4.15S579.13,681.4,576.23,682.56Z" transform="translate(110.28 -1.77)"/><path class="cls-36" d="M559.59,682.18a32.55,32.55,0,0,0-3.7,2.05c-.76.63-3.86,2.95-4.61,3.49s1.13,2.1,6.67-.3S559.59,682.18,559.59,682.18Z" transform="translate(110.28 -1.77)"/><polygon class="cls-51" points="652.27 705.63 630.56 646.36 560.58 647.5 581.27 702.12 652.27 705.63"/><path class="cls-52" d="M497.89,674.34c2.13,4.27,1.49,8.92-1.44,10.39s-7-.81-9.18-5.08-1.49-8.92,1.44-10.38S495.75,670.07,497.89,674.34Z" transform="translate(110.28 -1.77)"/><path class="cls-36" d="M602.6,556.12c.26-2.18,4.57-3,4.91.29s-2,9-3.59,8.43S602.25,559.12,602.6,556.12Z" transform="translate(110.28 -1.77)"/><path class="cls-22" d="M291.6,572.44s-2.55,35.75,4.43,40c4.38,2.68,21.82,11.72,21.3,13.41S307.48,641,307.48,641s-33.51-22.07-34.59-29c-1.05-6.79,1.65-52.34,6.26-54.43,3.45-1.58,5.27-.28,9.62,3C294.87,565,291.6,572.44,291.6,572.44Z" transform="translate(110.28 -1.77)"/><path class="cls-53" d="M352.67,582.65l2.95-1.09s-3.68-8.65-5.29-8.44a39.68,39.68,0,0,0-4.16.85Z" transform="translate(110.28 -1.77)"/><path class="cls-54" d="M353.34,584.14c-.38-.28-6.28-11.6-6.28-11.6l-12.6,1.71,6.81,13.41Z" transform="translate(110.28 -1.77)"/><path class="cls-55" d="M287.7,832.58s-1,7.24-1.17,8.32-11.6-.64-11.6-.64l-.92-8.61S286.27,831.56,287.7,832.58Z" transform="translate(110.28 -1.77)"/><path class="cls-56" d="M286.65,840s3.63,4.36,7.14,6.26,9,2.65,11.11,4.62c1.5,1.42,5.46,7.53-9.13,7.41s-21.62.86-23.18-1.48,2.26-17.3,2.26-17.3S278.31,840.74,286.65,840Z" transform="translate(110.28 -1.77)"/><path class="cls-55" d="M345.06,832.58s-1,7.24-1.17,8.32-11.59-.64-11.59-.64l-.93-8.61S343.63,831.56,345.06,832.58Z" transform="translate(110.28 -1.77)"/><path class="cls-56" d="M344,840s3.63,4.36,7.15,6.26,16.43,3.46,18.51,5.43c1.5,1.42,4,7.13-16.53,6.6-14.59-.38-21.62.86-23.19-1.48s2.26-17.3,2.26-17.3S335.47,840.82,344,840Z" transform="translate(110.28 -1.77)"/><path class="cls-56" d="M291.81,646.73s-10.77,17.11-10,32.58-.95,32-2.57,48.15c-1.81,18-6.72,55.49-7,65.13s.35,45.89.35,45.89l18.69-.14s6.63-73.24,9.84-80.85,16.4-62.63,16.94-68.72S291.81,646.73,291.81,646.73Z" transform="translate(110.28 -1.77)"/><path class="cls-56" d="M348.5,649.05s4.26,42.05,5.33,51.51.34,50.49.87,56.41-3.58,68.49-4.59,80.41l-20.53-.13s-1.42-50.62-1.42-75.22-6.31-53.23-13.54-69.45S290.84,676,286.39,645.86C286.39,645.86,342.49,639.5,348.5,649.05Z" transform="translate(110.28 -1.77)"/><path class="cls-36" d="M303.19,502.46s12.83-8.57,21.84.61,13.44,30.78,7,35.08-17.45,5.44-22.66-.4S298.57,523,297.2,516.47,299.93,505.2,303.19,502.46Z" transform="translate(110.28 -1.77)"/><path class="cls-36" d="M327.64,539.61s-.17,9,.82,10.94-18.72,2-18.72,2a130.78,130.78,0,0,0-4.64-19.29C302.06,524.39,327.64,539.61,327.64,539.61Z" transform="translate(110.28 -1.77)"/><path class="cls-57" d="M305.59,533.08s1.84,1.88,7.05-.24,10.11-10.88,12.18-12.2S326.6,518,326.6,518l1.9,1.73,2.44-.41s-3.71-5.93-1-9.33-8.34-20-24.25-9.87c0,0-12.46,6.81-10.19,14.27S301.72,530,305.59,533.08Z" transform="translate(110.28 -1.77)"/><path class="cls-58" d="M329.63,550.32s-.06-3.68-1.72-4-18.38-2-20.43-1.15v4.28S311.42,551.84,329.63,550.32Z" transform="translate(110.28 -1.77)"/><path class="cls-36" d="M325.6,515.32c-.61-1.2-4.69-4.07-5,.11s4,8.67,5.64,7.82S327.12,518.36,325.6,515.32Z" transform="translate(110.28 -1.77)"/><path class="cls-22" d="M396,593.72h0C396.05,593.77,396.07,593.77,396,593.72Z" transform="translate(110.28 -1.77)"/><path class="cls-22" d="M354.05,555.41c-11.9-2.09-24.42-5.09-24.42-5.09l-22.15-.9s-20.33,4.47-28.33,8.09c-.76.34-.76,18.13-2.85,22.8l6.64,14s3.83,27.74,4.63,40.08c.36,5.66-7.91,53.1-7.91,53.1a153.28,153.28,0,0,0,24,4.28c15.12,1.67,52.89-.6,53.13-2.39s-7.31-66.48-7.65-69.83c-.51-5.15,1.49-28.91,1.49-28.91,2.84,3.83,16.39,20.46,24,28.68,4.45,4.84,20.82,13.24,24.62,14.93,8.2,3.67,21.35,12.09,21.83,11.21.39-.53,9.22-15.46,8.18-15.81s-28.41-17.12-36.26-21.28c-2.87-1.53-14.05-20.71-14.05-20.71S360.61,558.36,354.05,555.41Z" transform="translate(110.28 -1.77)"/><path class="cls-57" d="M299.48,504.67s-18.35,4.92,5.37,27.7Z" transform="translate(110.28 -1.77)"/><path class="cls-59" d="M439.65,648.78a7.28,7.28,0,0,1-2.33-.29s-1.26-.69-2.18-1.14a6.36,6.36,0,0,0-.73-.3,13.54,13.54,0,0,1-4-1.6c-1.59-1.06-6.84-5.36-6.84-5.36l2.88-5.12,1.16-5s11.6.4,13.2,1.21l.44.26a17.44,17.44,0,0,1,2.52,2.47c.23.19,2.38,2.21,2.32,3.09a2.85,2.85,0,0,1-1.35,2.45,6.9,6.9,0,0,1-1.4,3.52,4.26,4.26,0,0,1-2,3.2S440.94,648.43,439.65,648.78Z" transform="translate(110.28 -1.77)"/><path class="cls-60" d="M169.53,528.11c1.8,5.89-.5,11.81-5.14,13.23s-9.85-2.22-11.64-8.11.5-11.82,5.13-13.23S167.73,522.22,169.53,528.11Z" transform="translate(110.28 -1.77)"/><path class="cls-22" d="M192.23,559.78s6.56,2.06,10.3,7.2,4.32,12.33,4.49,16,1.17,17.88,1.17,17.88L197.08,604Z" transform="translate(110.28 -1.77)"/><path class="cls-56" d="M239.33,845.19s8.34,11.23,7.19,13-9.91,2-15.24,0-5.46-15.18-7.88-20.83c-1-2.36,1.15-9.35,4.19-9.85a12.76,12.76,0,0,1,6.35,1S230.79,836.45,239.33,845.19Z" transform="translate(110.28 -1.77)"/><path class="cls-36" d="M234,828.4a53.13,53.13,0,0,1,2.39,9.34c.53,3.78,5.94,11.82,5.69,12.83s-7.12,1.94-9.91-.68-4.6-10.24-5.21-14.8a36,36,0,0,0-1.3-6.34S231.33,825.6,234,828.4Z" transform="translate(110.28 -1.77)"/><path class="cls-56" d="M166.78,845.38s8,11,6.89,12.81-9.9,2-15.24,0S153,843,150.56,837.36c-1-2.36,1.15-9.35,4.19-9.85s6.6,1.09,6.6,1.09S158.24,836.63,166.78,845.38Z" transform="translate(110.28 -1.77)"/><path class="cls-36" d="M161.35,828.6a76.8,76.8,0,0,0,1.65,8.89c1,3.68,6.48,12.07,6.23,13.08s-7.11,1.94-9.91-.68-4.95-10.21-5.21-14.8a24.42,24.42,0,0,1,.64-7.58S158.69,825.8,161.35,828.6Z" transform="translate(110.28 -1.77)"/><path class="cls-36" d="M201.5,645.92s7.15,33.27,8.8,41.65,6.24,48.95,6.73,55.85,7.46,32.89,7.14,35.36,10.33,52,10.33,52-3.64,2.93-7.48.27c-2-1.37-23.4-46.34-23.4-58.66,0-17-12.59-39.25-14.21-43.06-15.1-35.4-12.13-46.22-14.1-48.52s-2.14,1.42-3.29,6.52-3.61,49.11-5.09,54.69-.33,24.48-1.15,34-4.43,52.62-4.43,52.62-2.79,4.37-6.71.11c-.84-.92-6.76-48-6.93-59.34s-.34-27-.65-31.86c-3.05-47-10.53-53.68,1.25-86.92C170.37,588.35,201.5,645.92,201.5,645.92Z" transform="translate(110.28 -1.77)"/><path class="cls-22" d="M153.47,636.62s-20.38,28.52-11.6,89.18c0,0,48.33,6.58,74.22-7.6,0,0-10.71-62.55-14.59-72.28S153.47,636.62,153.47,636.62Z" transform="translate(110.28 -1.77)"/><polygon class="cls-56" points="333.46 834.61 333.46 846.36 334.99 846.36 334.99 837.28 333.46 834.61"/><polygon class="cls-56" points="260.62 834.61 260.62 846.36 262.14 846.36 262.14 837.28 260.62 834.61"/><path class="cls-22" d="M180.82,555.59s8.81,3.67,11.41,4.19,11.42,13.53,13.19,18.33,0,12-3.65,20.43-.21,11.26-1.87,19.71,3.71,26.45,4,31.14-49,5.45-58.72-3.1c0,0,9.75-14.59,11-16.68s.21-13.45-.94-16.36-8.78-27.75-8.78-27.75-6.24-19.07-.6-23.45c4.9-3.8,18.25-5.16,20.65-6S175.92,554.86,180.82,555.59Z" transform="translate(110.28 -1.77)"/><path class="cls-36" d="M184.4,546.93s-.21,1.88-.45,4.48c-.1,1.15-.22,2.45-.33,3.79a88.5,88.5,0,0,0-.41,10s-7.8,7.82-16.67-9.12a23.28,23.28,0,0,0,.92-16.5C164.65,530.05,184.4,546.93,184.4,546.93Z" transform="translate(110.28 -1.77)"/><polygon class="cls-36" points="314.3 608.05 315.61 611.23 312.81 609.23 314.3 608.05"/><path class="cls-61" d="M187.06,503.66s17.49,5.5,8,35.68-33.39-3.5-30.89-21.89S187.06,503.66,187.06,503.66Z" transform="translate(110.28 -1.77)"/><path class="cls-60" d="M196.84,521.27a39.46,39.46,0,0,1-23.23,9.6s-5.59,6.55-6,9.12c0,0-15.22-25.41,3-35.38C189.84,494.06,202.71,515.81,196.84,521.27Z" transform="translate(110.28 -1.77)"/><path class="cls-61" d="M173.49,530.7c-.11-2.2-1.46-7.2-4.73-5.8s.2,11.58,2.37,11C171.13,535.85,173.76,535.89,173.49,530.7Z" transform="translate(110.28 -1.77)"/><path class="cls-44" d="M184,551.41c-.1,1.15-.22,2.45-.33,3.79h0c-10.11-5-11.66-12.2-11.71-12.42C179.63,551.42,184,551.41,184,551.41Z" transform="translate(110.28 -1.77)"/><path class="cls-62" d="M206.33,582.78s.48,10.63-1.9,16.72l-2.19-1.14S206.29,587.73,206.33,582.78Z" transform="translate(110.28 -1.77)"/><path class="cls-36" d="M168.39,617.34s4-2.68,4.67-3.07,2.84-.26,5.11.46a40.78,40.78,0,0,1,5.37,2c.36.2.72.27.56,1.31a4,4,0,0,1-.86,1.84,2.39,2.39,0,0,1-.53,2.28,2.12,2.12,0,0,1-.91,2.18,1.77,1.77,0,0,1-.66,1.84,13.54,13.54,0,0,1-2.85.12c-1.1-.24-6.87-1.56-10.92-2.63C167.37,623.71,165.69,622.71,168.39,617.34Z" transform="translate(110.28 -1.77)"/><path class="cls-36" d="M182.32,616.44s10.46,2.3,10.33,3.11c-.19,1.17-2.78,1.61-10.72-.58C174.21,616.84,182.32,616.44,182.32,616.44Z" transform="translate(110.28 -1.77)"/><path class="cls-22" d="M156.54,560.3c-2.38-1.44-10.3-1.28-13.39,6.16s-5.63,15.9-7.8,19.78S125.81,607.87,128,610s6.69,4.66,13.46,6.25c7,1.65,27.27,9.2,27.27,9.2l2.59-11s-8.91-4.25-14.06-6.32c-4.58-1.83-4-2.32-11.57-5,0,0,4.34-11,6.29-14S167.22,566.76,156.54,560.3Z" transform="translate(110.28 -1.77)"/><path class="cls-63" d="M184.14,636.05l27.14-2.19a3.83,3.83,0,0,0,3-1.82l28.13-45.62a3.85,3.85,0,0,0-3.24-5.86l-29.08-.31a3.84,3.84,0,0,0-3.42,2l-26.18,48.12A3.85,3.85,0,0,0,184.14,636.05Z" transform="translate(110.28 -1.77)"/><path class="cls-36" d="M222.15,619.28a25.84,25.84,0,0,0,3.22-3.8c1.52-2.22,6.5-10.69,6-11.23s-7.84-.71-9.18.5,1.32,1.67,1.32,1.67-4,.42-3.75,1.56,2.72.82,2.72.82-3.25.63-2.76,1.63,2.06,1,2.06,1-2.88.36-2.53,1.45,4.92,2.13,4.31,3A21.32,21.32,0,0,0,222.15,619.28Z" transform="translate(110.28 -1.77)"/><path class="cls-36" d="M165.25,556.38s9.8,16,17.57,15.77,2.47-14.76,2.47-14.76S179.33,552.62,165.25,556.38Z" transform="translate(110.28 -1.77)"/><path class="cls-64" d="M216.29,609.92c-2.63,2.62-6.17,3.33-7.92,1.58s-1-5.29,1.58-7.92,6.17-3.33,7.92-1.58S218.91,607.29,216.29,609.92Z" transform="translate(110.28 -1.77)"/><path class="cls-60" d="M198.26,517.08s1.1,4.19-.75,11.51c0,0,.29-6.89-1.15-8.77S198.26,517.08,198.26,517.08Z" transform="translate(110.28 -1.77)"/></g></g></g></svg>