<svg id="ic-stage2" xmlns="http://www.w3.org/2000/svg" xmlns:xlink="http://www.w3.org/1999/xlink" width="101.874" height="103.247" viewBox="0 0 101.874 103.247">
  <defs>
    <clipPath id="clip-path">
      <rect id="Rectangle_2912" data-name="Rectangle 2912" width="101.874" height="103.247" fill="none"/>
    </clipPath>
  </defs>
  <g id="Group_3838" data-name="Group 3838" clip-path="url(#clip-path)">
    <path id="Path_10993" data-name="Path 10993" d="M23.881,225.206a.509.509,0,0,1-.276-.081,51.744,51.744,0,0,1-4.773-3.473.511.511,0,1,1,.647-.79,50.605,50.605,0,0,0,4.679,3.4.511.511,0,0,1-.277.94m-9.028-7.4a.509.509,0,0,1-.367-.155,51.822,51.822,0,0,1-3.861-4.465.511.511,0,1,1,.81-.623,50.8,50.8,0,0,0,3.784,4.377.511.511,0,0,1-.366.866M7.74,208.562a.51.51,0,0,1-.438-.248,51.384,51.384,0,0,1-2.743-5.226.511.511,0,0,1,.93-.422,50.338,50.338,0,0,0,2.689,5.122.511.511,0,0,1-.437.774M2.923,197.936a.511.511,0,0,1-.486-.355,51.157,51.157,0,0,1-1.471-5.715.511.511,0,0,1,1-.2,50.141,50.141,0,0,0,1.441,5.6.511.511,0,0,1-.487.667M.671,186.489a.511.511,0,0,1-.509-.47C.054,184.66,0,183.276,0,181.906c0-.595.01-1.2.03-1.789a.511.511,0,1,1,1.021.035c-.02.581-.03,1.17-.03,1.754,0,1.343.054,2.7.159,4.032a.511.511,0,0,1-.469.549l-.041,0m.4-11.664a.511.511,0,0,1-.506-.586,51.325,51.325,0,0,1,1.21-5.779.511.511,0,0,1,.986.267,50.2,50.2,0,0,0-1.186,5.663.511.511,0,0,1-.5.435" transform="translate(0 -130.553)" fill="#bf9140"/>
    <path id="Path_10994" data-name="Path 10994" d="M393.715,295.685a.511.511,0,0,1-.371-.862,50.792,50.792,0,0,0,3.728-4.425.511.511,0,1,1,.817.612,51.783,51.783,0,0,1-3.8,4.514.509.509,0,0,1-.371.16m7-9.341a.511.511,0,0,1-.441-.768,50.386,50.386,0,0,0,2.622-5.158.511.511,0,1,1,.936.409,51.349,51.349,0,0,1-2.676,5.263.511.511,0,0,1-.442.253m4.68-10.691a.511.511,0,0,1-.489-.66,50.164,50.164,0,0,0,1.369-5.622.511.511,0,1,1,1,.184,51.175,51.175,0,0,1-1.4,5.737.511.511,0,0,1-.488.361" transform="translate(-305.41 -208.9)" fill="#bf9140"/>
    <path id="Path_10995" data-name="Path 10995" d="M193.592,6.583a.505.505,0,0,1-.232-.056,50.27,50.27,0,0,0-5.294-2.335.511.511,0,1,1,.357-.957,51.263,51.263,0,0,1,5.4,2.383.511.511,0,0,1-.233.965M153.844,3.8a.511.511,0,0,1-.167-.993,51.151,51.151,0,0,1,5.682-1.6.511.511,0,1,1,.219,1,50.135,50.135,0,0,0-5.569,1.569.5.5,0,0,1-.167.028M182.66,2.5a.5.5,0,0,1-.123-.015,50.367,50.367,0,0,0-5.689-1.058.511.511,0,0,1,.128-1.013,51.291,51.291,0,0,1,5.805,1.08A.511.511,0,0,1,182.66,2.5m-17.42-1.212a.511.511,0,0,1-.051-1.019A52.165,52.165,0,0,1,170.448,0h0q.319,0,.637,0a.511.511,0,0,1-.006,1.021h-.006q-.312,0-.624,0h0a51.1,51.1,0,0,0-5.156.261l-.052,0" transform="translate(-119.097 -0.001)" fill="#bf9140"/>
    <path id="Path_10996" data-name="Path 10996" d="M137.466,100.138a37.329,37.329,0,1,1-37.329-37.329,37.329,37.329,0,0,1,37.329,37.329" transform="translate(-48.784 -48.785)" fill="#f9d596"/>
    <path id="Path_10997" data-name="Path 10997" d="M276.721,40.87H252.567a1.762,1.762,0,0,0-1.763,1.762V87.8a1.762,1.762,0,0,0,1.763,1.762h32.665a1.762,1.762,0,0,0,1.763-1.762V51.143Z" transform="translate(-194.805 -31.745)" fill="#fff"/>
    <path id="Path_10998" data-name="Path 10998" d="M283.455,88.3H250.79a2.276,2.276,0,0,1-2.273-2.273V40.856a2.276,2.276,0,0,1,2.273-2.273h24.154a.511.511,0,1,1,0,1.022H250.79a1.253,1.253,0,0,0-1.252,1.252v45.17a1.253,1.253,0,0,0,1.252,1.252h32.665a1.253,1.253,0,0,0,1.252-1.252V49.366a.511.511,0,1,1,1.021,0v36.66a2.276,2.276,0,0,1-2.273,2.273" transform="translate(-193.028 -29.968)" fill="#bf9140"/>
    <path id="Path_10999" data-name="Path 10999" d="M368.64,51.143h8.51L366.878,40.87v8.51a1.762,1.762,0,0,0,1.762,1.762" transform="translate(-284.962 -31.745)" fill="#fff"/>
    <path id="Path_11000" data-name="Path 11000" d="M375.374,49.877h-8.51a2.276,2.276,0,0,1-2.273-2.273v-8.51a.511.511,0,0,1,.872-.361L375.735,49a.511.511,0,0,1-.361.872m-9.762-9.55V47.6a1.253,1.253,0,0,0,1.252,1.252h7.277Z" transform="translate(-283.185 -29.968)" fill="#bf9140"/>
    <path id="Path_11001" data-name="Path 11001" d="M282.936,65.748c-.161,9.413-14.155,9.412-14.314,0,.161-9.413,14.155-9.411,14.314,0" transform="translate(-208.644 -45.584)" fill="#fff"/>
    <path id="Path_11002" data-name="Path 11002" d="M274,71.541h0a7.382,7.382,0,0,1-7.667-7.562v-.017A7.382,7.382,0,0,1,274,56.4h0a7.382,7.382,0,0,1,7.667,7.561q0,.009,0,.017A7.382,7.382,0,0,1,274,71.541m-6.646-7.57A6.647,6.647,0,1,0,274,57.422a6.4,6.4,0,0,0-6.647,6.548" transform="translate(-206.867 -43.808)" fill="#bf9140"/>
    <path id="Path_11006" data-name="Path 11006" d="M268.621,143.668h0Z" transform="translate(-208.643 -111.59)" fill="#fff"/>
    <path id="Path_11007" data-name="Path 11007" d="M280.961,142.4H266.845a.511.511,0,0,1,0-1.021h14.117a.511.511,0,1,1,0,1.021" transform="translate(-206.867 -109.814)" fill="#bf9140"/>
    <path id="Path_11008" data-name="Path 11008" d="M268.621,170.963h0Z" transform="translate(-208.643 -132.79)" fill="#fff"/>
    <path id="Path_11009" data-name="Path 11009" d="M280.961,169.7H266.845a.511.511,0,0,1,0-1.021h14.117a.511.511,0,1,1,0,1.021" transform="translate(-206.867 -131.014)" fill="#bf9140"/>
    <path id="Path_11010" data-name="Path 11010" d="M268.621,198.258h0Z" transform="translate(-208.643 -153.991)" fill="#fff"/>
    <path id="Path_11011" data-name="Path 11011" d="M280.961,196.992H266.845a.511.511,0,0,1,0-1.021h14.117a.511.511,0,0,1,0,1.021" transform="translate(-206.867 -152.214)" fill="#bf9140"/>
    <path id="Path_11012" data-name="Path 11012" d="M268.621,225.552h0Z" transform="translate(-208.643 -175.191)" fill="#fff"/>
    <path id="Path_11013" data-name="Path 11013" d="M280.961,224.287H266.845a.511.511,0,0,1,0-1.021h14.117a.511.511,0,0,1,0,1.021" transform="translate(-206.867 -173.415)" fill="#bf9140"/>
    <path id="Path_11014" data-name="Path 11014" d="M369.025,141.789V115.962a3.434,3.434,0,0,0-3.434-3.434H349.8a3.434,3.434,0,0,0-3.434,3.434v25.827a3.434,3.434,0,0,0,3.434,3.434H365.59a3.434,3.434,0,0,0,3.434-3.434" transform="translate(-269.032 -87.403)" fill="#f3f3f3"/>
    <path id="Path_11015" data-name="Path 11015" d="M363.815,143.957H348.028a3.949,3.949,0,0,1-3.945-3.945V114.185a3.949,3.949,0,0,1,3.945-3.945h15.787a3.949,3.949,0,0,1,3.945,3.945v25.827a3.949,3.949,0,0,1-3.945,3.945m-15.787-32.7a2.927,2.927,0,0,0-2.923,2.924v25.827a2.927,2.927,0,0,0,2.923,2.923h15.787a2.927,2.927,0,0,0,2.923-2.923V114.185a2.927,2.927,0,0,0-2.923-2.924Z" transform="translate(-267.256 -85.626)" fill="#bf9140"/>
    <rect id="Rectangle_2910" data-name="Rectangle 2910" width="15.582" height="6.868" transform="translate(80.874 28.918)" fill="#fff"/>
    <path id="Path_11016" data-name="Path 11016" d="M376.015,135.118H360.433a.511.511,0,0,1-.511-.511v-6.868a.511.511,0,0,1,.511-.511h15.582a.511.511,0,0,1,.511.511v6.868a.511.511,0,0,1-.511.511M360.943,134.1H375.5v-5.847H360.943Z" transform="translate(-279.559 -98.821)" fill="#bf9140"/>
    <path id="Path_11017" data-name="Path 11017" d="M363.388,210.863h13.224a1.179,1.179,0,0,0,1.179-1.179v-6.868a1.179,1.179,0,0,0-1.179-1.179H363.388a1.179,1.179,0,0,0-1.179,1.179v6.868a1.179,1.179,0,0,0,1.179,1.179" transform="translate(-281.335 -156.616)" fill="#fff"/>
    <path id="Path_11018" data-name="Path 11018" d="M374.836,209.6H361.612a1.692,1.692,0,0,1-1.69-1.69v-6.868a1.692,1.692,0,0,1,1.69-1.69h13.224a1.692,1.692,0,0,1,1.69,1.69v6.868a1.692,1.692,0,0,1-1.69,1.69m-13.224-9.226a.669.669,0,0,0-.668.669v6.868a.669.669,0,0,0,.668.669h13.224a.669.669,0,0,0,.669-.669v-6.868a.669.669,0,0,0-.669-.669Z" transform="translate(-279.559 -154.838)" fill="#bf9140"/>
    <path id="Path_11019" data-name="Path 11019" d="M395.326,209.6a.511.511,0,0,1-.511-.511V199.86a.511.511,0,0,1,1.021,0v9.226a.511.511,0,0,1-.511.511" transform="translate(-306.661 -154.838)" fill="#bf9140"/>
    <path id="Path_11020" data-name="Path 11020" d="M376.015,221.031H360.433a.511.511,0,0,1,0-1.022h15.582a.511.511,0,0,1,0,1.022" transform="translate(-279.559 -170.885)" fill="#bf9140"/>
    <path id="Path_11021" data-name="Path 11021" d="M364.093,176.268h2.2a1.884,1.884,0,1,0,0-3.767h-2.2a1.884,1.884,0,0,0,0,3.767" transform="translate(-281.335 -133.985)" fill="#f3f3f3"/>
    <path id="Path_11022" data-name="Path 11022" d="M364.52,175h-2.2a2.394,2.394,0,0,1,0-4.789h2.2a2.394,2.394,0,0,1,0,4.789m-2.2-3.767a1.373,1.373,0,1,0,0,2.746h2.2a1.373,1.373,0,1,0,0-2.746Z" transform="translate(-279.559 -132.208)" fill="#bf9140"/>
    <path id="Path_11023" data-name="Path 11023" d="M114.928,37.947v0Z" transform="translate(-89.267 -21.879)" fill="#fff"/>
    <path id="Path_11024" data-name="Path 11024" d="M113.152,36.681a.511.511,0,0,1-.511-.511V26.393a.511.511,0,1,1,1.021,0V36.17a.511.511,0,0,1-.511.511" transform="translate(-87.491 -20.103)" fill="#bf9140"/>
    <path id="Path_11025" data-name="Path 11025" d="M124.015,33.963h-9.087V28.171h9.087l-2.039,2.9Z" transform="translate(-89.267 -21.881)" fill="#bf9140"/>
    <path id="Path_11026" data-name="Path 11026" d="M122.238,32.7h-9.087a.511.511,0,0,1-.511-.511V26.395a.511.511,0,0,1,.511-.511h9.087a.511.511,0,0,1,.418.8l-1.832,2.6,1.832,2.6a.511.511,0,0,1-.418.8m-8.576-1.022h7.592l-1.473-2.091a.511.511,0,0,1,0-.588l1.473-2.091h-7.592Z" transform="translate(-87.491 -20.105)" fill="#bf9140"/>
    <path id="Path_11027" data-name="Path 11027" d="M47.193,84.259a15.45,15.45,0,0,1,15.124-12.3h0a15.45,15.45,0,0,1,15.124,12.3Z" transform="translate(-36.656 -55.894)" fill="#f3f3f3"/>
    <path id="Path_11028" data-name="Path 11028" d="M75.663,82.992a.511.511,0,0,1-.5-.407,14.938,14.938,0,0,0-29.248,0,.511.511,0,0,1-1-.207,15.96,15.96,0,0,1,31.248,0,.511.511,0,0,1-.4.6.518.518,0,0,1-.1.011" transform="translate(-34.878 -54.116)" fill="#bf9140"/>
    <path id="Path_11029" data-name="Path 11029" d="M56.151,127.04H14.09a1.912,1.912,0,0,0-1.911,1.912v1.593a1.911,1.911,0,0,0,1.911,1.912H56.151a1.911,1.911,0,0,0,1.912-1.912v-1.593a1.911,1.911,0,0,0-1.912-1.912" transform="translate(-9.46 -98.675)" fill="#f3f3f3"/>
    <path id="Path_11030" data-name="Path 11030" d="M54.374,131.191H12.313a2.425,2.425,0,0,1-2.422-2.422v-1.593a2.425,2.425,0,0,1,2.422-2.423H54.374a2.425,2.425,0,0,1,2.422,2.422v1.593a2.425,2.425,0,0,1-2.422,2.423m-42.061-5.417a1.4,1.4,0,0,0-1.4,1.4v1.593a1.4,1.4,0,0,0,1.4,1.4H54.374a1.4,1.4,0,0,0,1.4-1.4v-1.593a1.4,1.4,0,0,0-1.4-1.4Z" transform="translate(-7.683 -96.898)" fill="#bf9140"/>
    <path id="Path_11031" data-name="Path 11031" d="M176.744,155.607a.736.736,0,0,0,.736-.736v-3.539h-7.055v3.539a.736.736,0,0,0,.736.736h.736V166.49h-.736a.736.736,0,0,0-.736.736v3.539h7.055v-3.539a.736.736,0,0,0-.736-.736h-.736V155.607Z" transform="translate(-132.373 -117.543)" fill="#fff"/>
    <path id="Path_11032" data-name="Path 11032" d="M175.7,169.5h-7.055a.511.511,0,0,1-.511-.511v-3.539a1.248,1.248,0,0,1,1.247-1.247h.225v-9.861h-.225a1.248,1.248,0,0,1-1.247-1.247v-3.539a.511.511,0,0,1,.511-.511H175.7a.511.511,0,0,1,.511.511v3.539a1.248,1.248,0,0,1-1.247,1.247h-.225V164.2h.225a1.248,1.248,0,0,1,1.247,1.247v3.539a.511.511,0,0,1-.511.511m-6.544-1.022h6.034v-3.029a.226.226,0,0,0-.225-.226h-.736a.511.511,0,0,1-.511-.511V153.83a.511.511,0,0,1,.511-.511h.736a.226.226,0,0,0,.225-.225v-3.029h-6.034v3.029a.226.226,0,0,0,.226.225h.736a.511.511,0,0,1,.511.511v10.883a.511.511,0,0,1-.511.511h-.736a.226.226,0,0,0-.226.226Z" transform="translate(-130.595 -115.766)" fill="#bf9140"/>
    <path id="Path_11033" data-name="Path 11033" d="M122.9,154.871a.736.736,0,0,0,.736.736h.736V166.49h-.736a.736.736,0,0,0-.736.736v3.539h7.055v-3.539a.736.736,0,0,0-.736-.736h-.736V155.607h.736a.737.737,0,0,0,.736-.736v-3.539H122.9Z" transform="translate(-95.455 -117.543)" fill="#fff"/>
    <path id="Path_11034" data-name="Path 11034" d="M128.173,169.5h-7.055a.511.511,0,0,1-.511-.511v-3.539a1.248,1.248,0,0,1,1.247-1.247h.226v-9.861h-.226a1.248,1.248,0,0,1-1.247-1.247v-3.539a.511.511,0,0,1,.511-.511h7.055a.511.511,0,0,1,.511.511v3.539a1.248,1.248,0,0,1-1.247,1.247h-.225V164.2h.225a1.248,1.248,0,0,1,1.247,1.247v3.539a.511.511,0,0,1-.511.511m-6.544-1.022h6.034v-3.029a.226.226,0,0,0-.226-.226H126.7a.511.511,0,0,1-.511-.511V153.83a.511.511,0,0,1,.511-.511h.736a.226.226,0,0,0,.226-.225v-3.029h-6.034v3.029a.226.226,0,0,0,.226.225h.736a.511.511,0,0,1,.511.511v10.883a.511.511,0,0,1-.511.511h-.736a.226.226,0,0,0-.226.226Z" transform="translate(-93.678 -115.766)" fill="#bf9140"/>
    <path id="Path_11035" data-name="Path 11035" d="M75.365,154.871a.736.736,0,0,0,.736.736h.736V166.49H76.1a.736.736,0,0,0-.736.736v3.539H82.42v-3.539a.736.736,0,0,0-.736-.736h-.736V155.607h.736a.736.736,0,0,0,.736-.736v-3.539H75.365Z" transform="translate(-58.538 -117.543)" fill="#fff"/>
    <path id="Path_11036" data-name="Path 11036" d="M80.643,169.5H73.588a.511.511,0,0,1-.511-.511v-3.539a1.248,1.248,0,0,1,1.247-1.247h.226v-9.861h-.226a1.248,1.248,0,0,1-1.247-1.247v-3.539a.511.511,0,0,1,.511-.511h7.055a.511.511,0,0,1,.511.511v3.539a1.248,1.248,0,0,1-1.247,1.247h-.226V164.2h.226a1.248,1.248,0,0,1,1.247,1.247v3.539a.511.511,0,0,1-.511.511M74.1,168.478h6.034v-3.029a.226.226,0,0,0-.225-.226h-.736a.511.511,0,0,1-.511-.511V153.83a.511.511,0,0,1,.511-.511h.736a.226.226,0,0,0,.225-.225v-3.029H74.1v3.029a.226.226,0,0,0,.226.225h.736a.511.511,0,0,1,.511.511v10.883a.511.511,0,0,1-.511.511h-.736a.226.226,0,0,0-.226.226Z" transform="translate(-56.76 -115.766)" fill="#bf9140"/>
    <path id="Path_11037" data-name="Path 11037" d="M27.835,154.871a.736.736,0,0,0,.736.736h.736V166.49h-.736a.736.736,0,0,0-.736.736v3.539H34.89v-3.539a.736.736,0,0,0-.736-.736h-.736V155.607h.736a.736.736,0,0,0,.736-.736v-3.539H27.835Z" transform="translate(-21.62 -117.543)" fill="#fff"/>
    <path id="Path_11038" data-name="Path 11038" d="M33.114,169.5H26.059a.511.511,0,0,1-.511-.511v-3.539a1.248,1.248,0,0,1,1.247-1.247h.226v-9.861h-.226a1.248,1.248,0,0,1-1.247-1.247v-3.539a.511.511,0,0,1,.511-.511h7.055a.511.511,0,0,1,.511.511v3.539a1.248,1.248,0,0,1-1.247,1.247h-.226V164.2h.226a1.248,1.248,0,0,1,1.247,1.247v3.539a.511.511,0,0,1-.511.511m-6.544-1.022H32.6v-3.029a.226.226,0,0,0-.226-.226h-.736a.511.511,0,0,1-.511-.511V153.83a.511.511,0,0,1,.511-.511h.736a.226.226,0,0,0,.226-.225v-3.029H26.569v3.029a.226.226,0,0,0,.225.225h.736a.511.511,0,0,1,.511.511v10.883a.511.511,0,0,1-.511.511h-.736a.226.226,0,0,0-.225.226Z" transform="translate(-19.844 -115.766)" fill="#bf9140"/>
    <path id="Rectangle_2911" data-name="Rectangle 2911" d="M2.014,0H42.071a2.013,2.013,0,0,1,2.013,2.013v0a2.013,2.013,0,0,1-2.013,2.013H2.013A2.013,2.013,0,0,1,0,2.014v0A2.014,2.014,0,0,1,2.014,0Z" transform="translate(3.619 53.216)" fill="#f3f3f3"/>
    <path id="Path_11039" data-name="Path 11039" d="M57.015,241.1H15.933a2.014,2.014,0,0,1-2.012-2.012v-1.024a2.014,2.014,0,0,1,2.012-2.012H57.015a2.014,2.014,0,0,1,2.012,2.012v1.024a2.014,2.014,0,0,1-2.012,2.012m-41.082-4.027a.992.992,0,0,0-.991.991v1.024a.992.992,0,0,0,.991.991H57.015a.992.992,0,0,0,.991-.99v-1.024a.992.992,0,0,0-.991-.991Z" transform="translate(-10.813 -183.345)" fill="#bf9140"/>
    <path id="Path_11040" data-name="Path 11040" d="M216.889,363.789l-.035-6.031a7.116,7.116,0,0,0-7.28-6.535h-.091l-8.043-.038h-.051l-.095,0c-3.947.092-7.108,2.718-7.074,6.6l.023,6.521Z" transform="translate(-150.854 -272.772)" fill="#fff"/>
    <path id="Path_11041" data-name="Path 11041" d="M192.466,363.04a.511.511,0,0,1-.511-.509l-.023-6.521c-.036-4.016,3.149-7.008,7.573-7.111l.143,0h.017l8.043.038h.163a7.594,7.594,0,0,1,7.717,7.026c0,.006,0,.011,0,.017l.035,6.031a.51.51,0,0,1-.508.514h0a.511.511,0,0,1-.511-.508l-.035-6.023a6.566,6.566,0,0,0-6.7-6.037h-.162l-8.041-.038h-.039l-.1,0c-3.837.089-6.6,2.648-6.572,6.084l.023,6.523a.511.511,0,0,1-.509.512Z" transform="translate(-149.078 -270.995)" fill="#bf9140"/>
    <path id="Path_11042" data-name="Path 11042" d="M217.471,392.4l-.005,9.078,12.8-.016V392.4Z" transform="translate(-168.91 -304.789)" fill="#fff"/>
    <path id="Path_11043" data-name="Path 11043" d="M215.69,400.217a.51.51,0,0,1-.511-.511l.005-9.078a.511.511,0,0,1,.511-.51h0a.511.511,0,0,1,.51.511l0,8.567,11.78-.015v-8.552a.511.511,0,0,1,1.021,0v9.062a.511.511,0,0,1-.51.511l-12.8.016Z" transform="translate(-167.134 -303.012)" fill="#bf9140"/>
    <path id="Path_11044" data-name="Path 11044" d="M124.693,372.9l3.6,4.322c.583.9,10.888.309,10.888.309,1.714-.232,3.028-1.19,2.845-2.9-.19-1.764-1.773-2.565-3.6-2.561l-4.919.092s-2.366.009-2.938-1.531c-.691-1.861-1.394-5.7-2.757-7.446l-.013-.017a5.691,5.691,0,0,0-4.034-2.132c-5.2-.369-7.608,2.683-7.93,6.708l-.9,15.392h27.808Z" transform="translate(-89.267 -280.406)" fill="#fff"/>
    <path id="Path_11045" data-name="Path 11045" d="M139.053,311.024a5.65,5.65,0,1,0-5.7-5.65,5.673,5.673,0,0,0,5.7,5.65" transform="translate(-103.581 -232.802)" fill="#fff"/>
    <path id="Path_11046" data-name="Path 11046" d="M137.277,309.757a6.161,6.161,0,1,1,6.207-6.161,6.191,6.191,0,0,1-6.207,6.161m0-11.3a5.139,5.139,0,1,0,5.185,5.139,5.168,5.168,0,0,0-5.185-5.139" transform="translate(-101.805 -231.025)" fill="#bf9140"/>
    <path id="Path_11047" data-name="Path 11047" d="M124.693,372.9l3.6,4.322c.583.9,10.888.309,10.888.309,1.714-.232,3.028-1.19,2.845-2.9-.19-1.764-1.773-2.565-3.6-2.561l-4.919.092s-2.366.009-2.938-1.531c-.691-1.861-1.394-5.7-2.757-7.446l-.013-.017a5.691,5.691,0,0,0-4.034-2.132c-5.2-.369-7.608,2.683-7.93,6.708l-.9,15.392Z" transform="translate(-89.267 -280.406)" fill="#fff"/>
    <path id="Path_11048" data-name="Path 11048" d="M113.152,381.876h-.03a.51.51,0,0,1-.48-.54l.9-15.392a8.043,8.043,0,0,1,2.3-5.343,7.822,7.822,0,0,1,6.18-1.845,6.2,6.2,0,0,1,4.4,2.328l.012.016c1.01,1.294,1.639,3.522,2.194,5.488.224.8.437,1.548.64,2.095.435,1.171,2.432,1.2,2.458,1.2l4.911-.092h.015c2.336,0,3.9,1.155,4.1,3.017.2,1.832-1.061,3.157-3.284,3.457l-.039,0c-.026,0-2.618.148-5.248.183-5.427.072-5.871-.38-6.081-.7l-3.581-4.3a.511.511,0,1,1,.785-.654l3.6,4.319c.715.414,5.845.392,10.449.13.8-.111,2.577-.559,2.386-2.333-.21-1.95-2.4-2.105-3.084-2.105h-.009l-4.91.092c-.118,0-2.738-.011-3.427-1.863-.218-.585-.435-1.356-.666-2.173a17.158,17.158,0,0,0-2.016-5.137l-.013-.017a5.163,5.163,0,0,0-3.668-1.936c-4.352-.31-7.042,1.965-7.384,6.239l-.9,15.381a.511.511,0,0,1-.509.481m13.792-6.706h0" transform="translate(-87.49 -278.629)" fill="#bf9140"/>
    <path id="Path_11049" data-name="Path 11049" d="M226.293,372.9l-3.6,3.979c-.583.9-10.888.309-10.888.309-1.714-.232-3.028-.847-2.845-2.554.19-1.764,1.773-2.565,3.6-2.561l4.918.092s2.366.009,2.938-1.531c.692-1.861,1.394-5.7,2.757-7.446l.013-.017a5.691,5.691,0,0,1,4.034-2.132c5.2-.369,7.608,2.683,7.93,6.708l.9,15.392L197.115,383Z" transform="translate(-153.103 -280.406)" fill="#f3f3f3"/>
    <path id="Path_11050" data-name="Path 11050" d="M307.777,311.024a5.65,5.65,0,1,1,5.7-5.65,5.673,5.673,0,0,1-5.7,5.65" transform="translate(-234.633 -232.802)" fill="#f3f3f3"/>
    <path id="Path_11051" data-name="Path 11051" d="M306,309.757a6.161,6.161,0,1,1,6.207-6.161A6.191,6.191,0,0,1,306,309.757m0-11.3a5.139,5.139,0,1,0,5.185,5.139A5.168,5.168,0,0,0,306,298.457" transform="translate(-232.856 -231.025)" fill="#bf9140"/>
    <path id="Path_11052" data-name="Path 11052" d="M267.442,372.9l-3.6,3.979c-.583.9-10.888.309-10.888.309-1.714-.232-3.028-.847-2.845-2.554.19-1.764,1.773-2.565,3.6-2.561l4.918.092s2.366.009,2.938-1.531c.691-1.861,1.394-5.7,2.757-7.446l.013-.017a5.691,5.691,0,0,1,4.034-2.132c5.2-.369,7.608,2.683,7.93,6.708l.9,15.392Z" transform="translate(-194.252 -280.406)" fill="#f3f3f3"/>
    <path id="Path_11053" data-name="Path 11053" d="M275.429,381.876a.511.511,0,0,1-.509-.481l-.9-15.392c-.341-4.263-3.033-6.537-7.384-6.228a5.163,5.163,0,0,0-3.667,1.935l-.014.018a17.149,17.149,0,0,0-2.016,5.137c-.23.816-.448,1.587-.666,2.173-.681,1.834-3.255,1.863-3.415,1.863h0l-4.926-.092h-.008c-.674,0-2.867.154-3.077,2.106-.087.81.128,1.68,2.386,1.99,4.6.262,9.734.284,10.449-.13l.011-.013,3.6-3.979a.511.511,0,1,1,.757.685l-3.573,3.95c-.213.316-.7.76-6.074.688-2.63-.035-5.222-.182-5.248-.183l-.039,0c-2.367-.32-3.472-1.368-3.284-3.114.2-1.862,1.77-3.017,4.1-3.017h.014l4.927.092c.012,0,2.01-.014,2.45-1.2.2-.547.415-1.3.64-2.094.555-1.966,1.184-4.194,2.193-5.488l.013-.017a6.2,6.2,0,0,1,4.4-2.326,7.821,7.821,0,0,1,6.18,1.844,8.033,8.033,0,0,1,2.3,5.332l.9,15.4a.51.51,0,0,1-.48.54h-.03m-13.792-7.049h0" transform="translate(-192.475 -278.629)" fill="#bf9140"/>
    <path id="Path_11054" data-name="Path 11054" d="M193.667,430.7l-39.461-.207-.186,6.476h39.908Z" transform="translate(-119.63 -334.371)" fill="#f9d596"/>
    <path id="Path_11055" data-name="Path 11055" d="M192.152,435.7H152.244a.511.511,0,0,1-.51-.526l.186-6.476a.511.511,0,0,1,.511-.5h0l39.461.207a.511.511,0,0,1,.508.489l.261,6.269a.511.511,0,0,1-.51.532m-39.383-1.022h38.85l-.219-5.25-38.474-.2Z" transform="translate(-117.854 -332.594)" fill="#bf9140"/>
    <path id="Path_11056" data-name="Path 11056" d="M226.178,304.7a5.43,5.43,0,1,0-5.406-5.43,5.419,5.419,0,0,0,5.406,5.43" transform="translate(-171.477 -228.232)" fill="#fff"/>
    <path id="Path_11057" data-name="Path 11057" d="M224.4,303.434a5.941,5.941,0,1,1,5.917-5.941,5.936,5.936,0,0,1-5.917,5.941m0-10.861a4.92,4.92,0,1,0,4.9,4.919,4.913,4.913,0,0,0-4.9-4.919" transform="translate(-169.701 -226.454)" fill="#bf9140"/>
    <path id="Path_11371" data-name="Path 11371" d="M2.507,9.587v-.9H3.994a.836.836,0,0,0,.57-.181.668.668,0,0,0-.022-.988.946.946,0,0,0-.629-.178H2.507V6.561l.9.015a4.5,4.5,0,0,1,1.265.159,1.772,1.772,0,0,1,.84.492,1.266,1.266,0,0,1,.3.881,1.457,1.457,0,0,1-.215.807,1.337,1.337,0,0,1-.6.5,2.216,2.216,0,0,1-.9.17Zm-.407,0V4.408h.992v5.18ZM2.47,7.4V6.517H3.876a.765.765,0,0,0,.525-.17.608.608,0,0,0,.192-.481.589.589,0,0,0-.215-.485.873.873,0,0,0-.585-.166H2.47v-.8L3.854,4.4a2.411,2.411,0,0,1,.932.166,1.357,1.357,0,0,1,.622.5,1.43,1.43,0,0,1,.222.818,1.108,1.108,0,0,1-.27.725,1.835,1.835,0,0,1-.755.518,3.046,3.046,0,0,1-1.128.192Zm3.707,2.812L8.219,4.06h.932L7.124,10.209Zm4-.511a.564.564,0,0,1-.418-.178A.582.582,0,0,1,9.588,9.1a.574.574,0,0,1,.174-.414.581.581,0,0,1,.836,0,.574.574,0,0,1,.174.414.582.582,0,0,1-.174.422A.564.564,0,0,1,10.18,9.7Z" transform="translate(61.012 12.774)" fill="#bf9140"/>
  </g>
</svg>
