<svg id="ic-stage5" xmlns="http://www.w3.org/2000/svg" xmlns:xlink="http://www.w3.org/1999/xlink" width="102" height="98.956" viewBox="0 0 102 98.956">
  <defs>
    <clipPath id="clip-path">
      <rect id="Rectangle_2922" data-name="Rectangle 2922" width="102" height="98.956" fill="none"/>
    </clipPath>
  </defs>
  <g id="Group_3840" data-name="Group 3840" clip-path="url(#clip-path)">
    <path id="Path_11058" data-name="Path 11058" d="M25.553,318.15a.491.491,0,0,1-.238-.061,49.889,49.889,0,0,1-4.837-3.034.494.494,0,1,1,.572-.805,48.925,48.925,0,0,0,4.741,2.974.494.494,0,0,1-.238.927m-9.2-6.536a.492.492,0,0,1-.33-.127A50.142,50.142,0,0,1,12,307.434a.494.494,0,0,1,.74-.655,49.156,49.156,0,0,0,3.942,3.973.494.494,0,0,1-.33.861M8.873,303.16a.493.493,0,0,1-.405-.211,49.811,49.811,0,0,1-3-4.86.494.494,0,1,1,.869-.469,48.849,48.849,0,0,0,2.936,4.763.494.494,0,0,1-.4.777m-5.359-9.932a.494.494,0,0,1-.459-.311,49.444,49.444,0,0,1-1.8-5.417.494.494,0,0,1,.954-.257,48.472,48.472,0,0,0,1.767,5.308.494.494,0,0,1-.459.677" transform="translate(-0.968 -224.924)" fill="#b45cb1"/>
    <path id="Path_11059" data-name="Path 11059" d="M363.191,323.919a.494.494,0,0,1-.308-.881,49.176,49.176,0,0,0,4.174-3.727.494.494,0,1,1,.7.7,50.126,50.126,0,0,1-4.259,3.8.491.491,0,0,1-.307.107m7.976-7.987a.494.494,0,0,1-.387-.8,49.009,49.009,0,0,0,3.22-4.577.494.494,0,0,1,.839.521,50.036,50.036,0,0,1-3.285,4.67.494.494,0,0,1-.387.187m5.953-9.59a.494.494,0,0,1-.446-.7,48.563,48.563,0,0,0,2.089-5.192.494.494,0,0,1,.936.315,49.569,49.569,0,0,1-2.131,5.3.494.494,0,0,1-.447.284" transform="translate(-284.37 -235.299)" fill="#b45cb1"/>
    <path id="Path_11060" data-name="Path 11060" d="M88.626,10.182a.494.494,0,0,1-.289-.895,49.913,49.913,0,0,1,4.816-3.066.494.494,0,1,1,.482.862,48.933,48.933,0,0,0-4.721,3.006.493.493,0,0,1-.288.093m48.388-5.159a.493.493,0,0,1-.2-.041,48.511,48.511,0,0,0-5.249-1.94.494.494,0,0,1,.288-.945,49.527,49.527,0,0,1,5.357,1.98.494.494,0,0,1-.2.947M98.48,4.678a.494.494,0,0,1-.19-.95,49.473,49.473,0,0,1,5.39-1.883.494.494,0,1,1,.271.95A48.518,48.518,0,0,0,98.669,4.64a.5.5,0,0,1-.19.038m27.738-2.949a.5.5,0,0,1-.089-.008,48.928,48.928,0,0,0-5.555-.685.494.494,0,0,1,.065-.986,49.91,49.91,0,0,1,5.668.7.494.494,0,0,1-.088.98m-16.886-.15A.494.494,0,0,1,109.252.6a50.076,50.076,0,0,1,5.677-.6.494.494,0,1,1,.047.987,49.053,49.053,0,0,0-5.565.586.508.508,0,0,1-.08.006" transform="translate(-69.099 0)" fill="#b45cb1"/>
    <path id="Path_11061" data-name="Path 11061" d="M128.417,98.649a36.1,36.1,0,1,1-36.1-36.1,36.1,36.1,0,0,1,36.1,36.1" transform="translate(-44.07 -49.037)" fill="#e0bbde"/>
    <path id="Rectangle_2913" data-name="Rectangle 2913" d="M3.427,0h0A3.427,3.427,0,0,1,6.854,3.427V27.468a3.426,3.426,0,0,1-3.426,3.426h0A3.427,3.427,0,0,1,0,27.467V3.427A3.427,3.427,0,0,1,3.427,0Z" transform="translate(63.089 67.568)" fill="#fff"/>
    <path id="Path_11062" data-name="Path 11062" d="M296.391,342.471h-5.244a1.3,1.3,0,0,1-1.3-1.3V311.888a1.3,1.3,0,0,1,1.3-1.3h5.244a1.3,1.3,0,0,1,1.3,1.3v29.285a1.3,1.3,0,0,1-1.3,1.3m-5.244-30.894a.315.315,0,0,0-.311.311v29.285a.315.315,0,0,0,.311.311h5.244a.315.315,0,0,0,.311-.311V311.888a.315.315,0,0,0-.311-.311Z" transform="translate(-227.254 -243.515)" fill="#0059ab"/>
    <path id="Rectangle_2914" data-name="Rectangle 2914" d="M3.427,0h0A3.427,3.427,0,0,1,6.854,3.427V27.468a3.426,3.426,0,0,1-3.426,3.426h0A3.427,3.427,0,0,1,0,27.467V3.427A3.427,3.427,0,0,1,3.427,0Z" transform="translate(63.089 67.568)" fill="#f3f3f3"/>
    <path id="Path_11063" data-name="Path 11063" d="M296.391,342.471h-5.244a1.3,1.3,0,0,1-1.3-1.3V311.888a1.3,1.3,0,0,1,1.3-1.3h5.244a1.3,1.3,0,0,1,1.3,1.3v29.285a1.3,1.3,0,0,1-1.3,1.3m-5.244-30.894a.315.315,0,0,0-.311.311v29.285a.315.315,0,0,0,.311.311h5.244a.315.315,0,0,0,.311-.311V311.888a.315.315,0,0,0-.311-.311Z" transform="translate(-227.254 -243.515)" fill="#b45cb1"/>
    <path id="Rectangle_2915" data-name="Rectangle 2915" d="M3.242,0h0A3.241,3.241,0,0,1,6.484,3.241v14.2a3.241,3.241,0,0,1-3.241,3.241h0A3.242,3.242,0,0,1,0,17.437V3.242A3.242,3.242,0,0,1,3.242,0Z" transform="translate(52.321 77.783)" fill="#fff"/>
    <path id="Path_11064" data-name="Path 11064" d="M246.161,379.557h-4.873a1.3,1.3,0,0,1-1.3-1.3v-19.07a1.3,1.3,0,0,1,1.3-1.3h4.873a1.3,1.3,0,0,1,1.3,1.3v19.07a1.3,1.3,0,0,1-1.3,1.3m-4.873-20.679a.315.315,0,0,0-.311.311v19.07a.315.315,0,0,0,.311.311h4.873a.315.315,0,0,0,.311-.311v-19.07a.315.315,0,0,0-.311-.311Z" transform="translate(-188.162 -280.601)" fill="#0059ab"/>
    <path id="Rectangle_2916" data-name="Rectangle 2916" d="M3.242,0h0A3.241,3.241,0,0,1,6.484,3.241v14.2a3.241,3.241,0,0,1-3.241,3.241h0A3.242,3.242,0,0,1,0,17.437V3.242A3.242,3.242,0,0,1,3.242,0Z" transform="translate(52.321 77.783)" fill="#fff"/>
    <path id="Path_11065" data-name="Path 11065" d="M246.161,379.557h-4.873a1.3,1.3,0,0,1-1.3-1.3v-19.07a1.3,1.3,0,0,1,1.3-1.3h4.873a1.3,1.3,0,0,1,1.3,1.3v19.07a1.3,1.3,0,0,1-1.3,1.3m-4.873-20.679a.315.315,0,0,0-.311.311v19.07a.315.315,0,0,0,.311.311h4.873a.315.315,0,0,0,.311-.311v-19.07a.315.315,0,0,0-.311-.311Z" transform="translate(-188.162 -280.601)" fill="#b45cb1"/>
    <path id="Rectangle_2917" data-name="Rectangle 2917" d="M3.238,0h0A3.238,3.238,0,0,1,6.478,3.238V13.612a3.238,3.238,0,0,1-3.238,3.238h0A3.239,3.239,0,0,1,0,13.611V3.238A3.238,3.238,0,0,1,3.238,0Z" transform="translate(29.968 81.611)" fill="#fff"/>
    <path id="Path_11066" data-name="Path 11066" d="M142.648,393.459h-4.867a1.3,1.3,0,0,1-1.3-1.3V376.92a1.3,1.3,0,0,1,1.3-1.3h4.867a1.3,1.3,0,0,1,1.3,1.3V392.16a1.3,1.3,0,0,1-1.3,1.3m-4.867-16.85a.315.315,0,0,0-.311.311V392.16a.315.315,0,0,0,.311.311h4.867a.315.315,0,0,0,.311-.311V376.92a.315.315,0,0,0-.311-.311Z" transform="translate(-107.008 -294.503)" fill="#0059ab"/>
    <path id="Rectangle_2918" data-name="Rectangle 2918" d="M3.238,0h0A3.238,3.238,0,0,1,6.478,3.238V13.612a3.238,3.238,0,0,1-3.238,3.238h0A3.239,3.239,0,0,1,0,13.611V3.238A3.238,3.238,0,0,1,3.238,0Z" transform="translate(29.968 81.611)" fill="#fff"/>
    <path id="Path_11067" data-name="Path 11067" d="M142.648,393.459h-4.867a1.3,1.3,0,0,1-1.3-1.3V376.92a1.3,1.3,0,0,1,1.3-1.3h4.867a1.3,1.3,0,0,1,1.3,1.3V392.16a1.3,1.3,0,0,1-1.3,1.3m-4.867-16.85a.315.315,0,0,0-.311.311V392.16a.315.315,0,0,0,.311.311h4.867a.315.315,0,0,0,.311-.311V376.92a.315.315,0,0,0-.311-.311Z" transform="translate(-107.008 -294.503)" fill="#b45cb1"/>
    <path id="Rectangle_2919" data-name="Rectangle 2919" d="M3.509,0h0A3.509,3.509,0,0,1,7.019,3.509V21.515A3.509,3.509,0,0,1,3.51,25.024h0A3.51,3.51,0,0,1,0,21.514V3.509A3.509,3.509,0,0,1,3.509,0Z" transform="translate(40.65 73.438)" fill="#fff"/>
    <path id="Path_11068" data-name="Path 11068" d="M192.653,363.785h-5.408a1.3,1.3,0,0,1-1.3-1.3V339.072a1.3,1.3,0,0,1,1.3-1.3h5.408a1.3,1.3,0,0,1,1.3,1.3v23.414a1.3,1.3,0,0,1-1.3,1.3m-5.408-25.024a.315.315,0,0,0-.311.311v23.414a.315.315,0,0,0,.311.311h5.408a.315.315,0,0,0,.311-.311V339.072a.315.315,0,0,0-.311-.311Z" transform="translate(-145.789 -264.829)" fill="#0059ab"/>
    <path id="Rectangle_2920" data-name="Rectangle 2920" d="M3.509,0h0A3.509,3.509,0,0,1,7.019,3.509V21.515A3.509,3.509,0,0,1,3.51,25.024h0A3.51,3.51,0,0,1,0,21.514V3.509A3.509,3.509,0,0,1,3.509,0Z" transform="translate(40.65 73.438)" fill="#f3f3f3"/>
    <path id="Path_11069" data-name="Path 11069" d="M192.653,363.785h-5.408a1.3,1.3,0,0,1-1.3-1.3V339.072a1.3,1.3,0,0,1,1.3-1.3h5.408a1.3,1.3,0,0,1,1.3,1.3v23.414a1.3,1.3,0,0,1-1.3,1.3m-5.408-25.024a.315.315,0,0,0-.311.311v23.414a.315.315,0,0,0,.311.311h5.408a.315.315,0,0,0,.311-.311V339.072a.315.315,0,0,0-.311-.311Z" transform="translate(-145.789 -264.829)" fill="#b45cb1"/>
    <path id="Path_11070" data-name="Path 11070" d="M151.974,295.76a.494.494,0,0,1-.274-.905l11.036-7.358a.494.494,0,0,1,.444-.053l10.629,3.889,11.154-7.677a.494.494,0,1,1,.56.814l-11.364,7.822a.493.493,0,0,1-.45.057l-10.633-3.89-10.828,7.219a.492.492,0,0,1-.273.083" transform="translate(-118.766 -222.331)" fill="#b45cb1"/>
    <path id="Path_11071" data-name="Path 11071" d="M148.045,329.837a2.175,2.175,0,1,1-2.175-2.174,2.175,2.175,0,0,1,2.175,2.174" transform="translate(-112.663 -256.902)" fill="#cf72cc"/>
    <path id="Path_11072" data-name="Path 11072" d="M144.076,330.711a2.668,2.668,0,1,1,2.669-2.668,2.672,2.672,0,0,1-2.669,2.668m0-4.348a1.68,1.68,0,1,0,1.681,1.68,1.683,1.683,0,0,0-1.681-1.68" transform="translate(-110.869 -255.108)" fill="#b45cb1"/>
    <path id="Path_11073" data-name="Path 11073" d="M199.15,295.767a2.175,2.175,0,1,1-2.175-2.174,2.174,2.174,0,0,1,2.175,2.174" transform="translate(-152.732 -230.19)" fill="#cf72cc"/>
    <path id="Path_11074" data-name="Path 11074" d="M195.182,296.641a2.668,2.668,0,1,1,2.669-2.668,2.672,2.672,0,0,1-2.669,2.668m0-4.348a1.68,1.68,0,1,0,1.681,1.68,1.683,1.683,0,0,0-1.681-1.68" transform="translate(-150.939 -228.396)" fill="#b45cb1"/>
    <path id="Path_11075" data-name="Path 11075" d="M249.478,314.181a2.175,2.175,0,1,1-2.175-2.174,2.175,2.175,0,0,1,2.175,2.174" transform="translate(-192.191 -244.627)" fill="#cf72cc"/>
    <path id="Path_11076" data-name="Path 11076" d="M245.509,315.055a2.668,2.668,0,1,1,2.669-2.668,2.671,2.671,0,0,1-2.669,2.668m0-4.348a1.68,1.68,0,1,0,1.681,1.68,1.683,1.683,0,0,0-1.681-1.68" transform="translate(-190.397 -242.833)" fill="#b45cb1"/>
    <path id="Path_11077" data-name="Path 11077" d="M302.1,277.963a2.175,2.175,0,1,1-2.175-2.174,2.175,2.175,0,0,1,2.175,2.174" transform="translate(-233.45 -216.231)" fill="#cf72cc"/>
    <path id="Path_11078" data-name="Path 11078" d="M298.132,278.837a2.668,2.668,0,1,1,2.669-2.668,2.672,2.672,0,0,1-2.669,2.668m0-4.349a1.68,1.68,0,1,0,1.681,1.68,1.683,1.683,0,0,0-1.681-1.68" transform="translate(-231.656 -214.437)" fill="#b45cb1"/>
    <rect id="Rectangle_2921" data-name="Rectangle 2921" width="11.274" height="34.146" transform="translate(2.187 24.036)" fill="#d8aed6"/>
    <path id="Path_11079" data-name="Path 11079" d="M19.609,144.149H8.336a.494.494,0,0,1-.494-.494V109.509a.494.494,0,0,1,.494-.494H19.609a.494.494,0,0,1,.494.494v34.146a.494.494,0,0,1-.494.494m-10.78-.988H19.115V110H8.83Z" transform="translate(-6.148 -85.473)" fill="#b45cb1"/>
    <path id="Path_11080" data-name="Path 11080" d="M40.19,157.648l26.156-.221-.1-11.735-.027-3.248-3.1.026-26.082.22.1,11.815.027,3.168Z" transform="translate(-29.04 -111.683)" fill="#fff"/>
    <path id="Path_11081" data-name="Path 11081" d="M35.371,156.374a.494.494,0,0,1-.494-.49L34.75,140.9a.494.494,0,0,1,.49-.5l29.181-.247h0a.494.494,0,0,1,.494.49l.127,14.983a.494.494,0,0,1-.49.5l-26.156.221,0-.494,0,.494-3.026.025h0m.371-14.987.118,13.995,2.531-.021,25.662-.217-.118-13.995Z" transform="translate(-27.245 -109.889)" fill="#b45cb1"/>
    <path id="Path_11082" data-name="Path 11082" d="M77.842,161.806a.492.492,0,0,1-.267-.079A7.075,7.075,0,0,1,77.6,149.91a.494.494,0,0,1,.531.833A6.088,6.088,0,0,0,78.11,160.9a.494.494,0,0,1-.268.909" transform="translate(-58.335 -117.475)" fill="#b45cb1"/>
    <path id="Path_11083" data-name="Path 11083" d="M118.765,161.813a.494.494,0,0,1-.268-.909,6.088,6.088,0,0,0-.018-10.15.494.494,0,0,1,.532-.833,7.075,7.075,0,0,1,.021,11.814.491.491,0,0,1-.267.079" transform="translate(-92.714 -117.484)" fill="#b45cb1"/>
    <path id="Path_11084" data-name="Path 11084" d="M97.039,167.819H95.37a.494.494,0,0,1,0-.988h1.67a1.173,1.173,0,1,0,0-2.347,2.161,2.161,0,1,1,0-4.323h1.67a.494.494,0,0,1,0,.988h-1.67a1.173,1.173,0,1,0,0,2.347,2.161,2.161,0,1,1,0,4.323" transform="translate(-74.387 -125.573)" fill="#b45cb1"/>
    <path id="Path_11085" data-name="Path 11085" d="M103.095,193.561a.494.494,0,0,1-.494-.494v-1.523a.494.494,0,1,1,.988,0v1.523a.494.494,0,0,1-.494.494" transform="translate(-80.444 -149.792)" fill="#b45cb1"/>
    <path id="Path_11086" data-name="Path 11086" d="M103.095,154.686a.494.494,0,0,1-.494-.494v-1.782a.494.494,0,0,1,.988,0v1.782a.494.494,0,0,1-.494.494" transform="translate(-80.444 -119.11)" fill="#b45cb1"/>
    <path id="Path_11087" data-name="Path 11087" d="M17.3,35.4a7.65,7.65,0,0,1-7.5,7.787,7.793,7.793,0,0,1,0-15.575A7.65,7.65,0,0,1,17.3,35.4" transform="translate(-1.793 -21.651)" fill="#fff"/>
    <path id="Path_11088" data-name="Path 11088" d="M8,41.89A8.286,8.286,0,0,1,8,25.327,8.286,8.286,0,0,1,8,41.89M8,26.315A7.3,7.3,0,0,0,8,40.9,7.3,7.3,0,0,0,8,26.315" transform="translate(0 -19.857)" fill="#b45cb1"/>
    <path id="Path_11089" data-name="Path 11089" d="M28.624,53.44H26.8a.494.494,0,0,1,0-.988h1.824a1.327,1.327,0,1,0,0-2.655,2.315,2.315,0,1,1,0-4.631h1.824a.494.494,0,0,1,0,.988H28.624a1.328,1.328,0,1,0,0,2.655,2.315,2.315,0,1,1,0,4.631" transform="translate(-20.625 -35.412)" fill="#b45cb1"/>
    <path id="Path_11090" data-name="Path 11090" d="M35.239,81.561a.494.494,0,0,1-.494-.494V79.4a.494.494,0,1,1,.988,0v1.664a.494.494,0,0,1-.494.494" transform="translate(-27.242 -61.868)" fill="#b45cb1"/>
    <path id="Path_11091" data-name="Path 11091" d="M35.239,39.093a.494.494,0,0,1-.494-.494V36.653a.494.494,0,0,1,.988,0V38.6a.494.494,0,0,1-.494.494" transform="translate(-27.242 -28.35)" fill="#b45cb1"/>
    <path id="Path_11092" data-name="Path 11092" d="M75,110.424H71.933a.494.494,0,0,1,0-.988H75a.494.494,0,1,1,0,.988" transform="translate(-56.011 -85.803)" fill="#b45cb1"/>
    <path id="Path_11093" data-name="Path 11093" d="M100.929,110.424H97.866a.494.494,0,1,1,0-.988h3.064a.494.494,0,1,1,0,.988" transform="translate(-76.344 -85.803)" fill="#b45cb1"/>
    <path id="Path_11094" data-name="Path 11094" d="M126.223,110.424H123.16a.494.494,0,1,1,0-.988h3.064a.494.494,0,1,1,0,.988" transform="translate(-96.176 -85.803)" fill="#b45cb1"/>
    <path id="Path_11095" data-name="Path 11095" d="M150.174,110.424h-3.064a.494.494,0,1,1,0-.988h3.064a.494.494,0,1,1,0,.988" transform="translate(-114.954 -85.803)" fill="#b45cb1"/>
    <path id="Path_11096" data-name="Path 11096" d="M186.425,88.928h-.006l-1.532-.019a.494.494,0,0,1,.006-.988h1.038V39.548h-1.038a.494.494,0,1,1,0-.988h3.064a.494.494,0,1,1,0,.988h-1.038V87.921h1.038a.494.494,0,1,1,0,.988h-1.4a.5.5,0,0,1-.136.019" transform="translate(-144.577 -30.233)" fill="#b45cb1"/>
    <path id="Path_11097" data-name="Path 11097" d="M175.851,102.068l-.948.722a.567.567,0,0,0,0,.894l.948.722,1.394,1.061a.521.521,0,0,0,.316.107h2.253a.544.544,0,0,0,.534-.554v-3.566a.544.544,0,0,0-.534-.554H177.56a.521.521,0,0,0-.316.108Z" transform="translate(-136.96 -79.109)" fill="#f3f3f3"/>
    <path id="Path_11098" data-name="Path 11098" d="M178.021,104.276h-2.253a1.022,1.022,0,0,1-.615-.208l-2.341-1.783a1.061,1.061,0,0,1,0-1.679l2.341-1.783a1.022,1.022,0,0,1,.615-.208h2.253a1.039,1.039,0,0,1,1.028,1.048v3.566a1.04,1.04,0,0,1-1.028,1.048M175.767,99.6a.028.028,0,0,0-.017.007l-1.393,1.061h0l-.948.722a.073.073,0,0,0,0,.108l2.341,1.783a.03.03,0,0,0,.017.006h2.253c.017,0,.04-.023.04-.06V99.661c0-.037-.023-.06-.04-.06Zm-1.71.675h0Z" transform="translate(-135.168 -77.317)" fill="#b45cb1"/>
    <path id="Path_11099" data-name="Path 11099" d="M290.9,80.772H251.877a2.677,2.677,0,0,1-2.677-2.677V43.462a2.677,2.677,0,0,1,2.677-2.677H290.9a2.677,2.677,0,0,1,2.677,2.677V78.095a2.677,2.677,0,0,1-2.677,2.677" transform="translate(-195.384 -31.977)" fill="#fff"/>
    <path id="Path_11100" data-name="Path 11100" d="M289.109,79.472H250.083a3.175,3.175,0,0,1-3.171-3.171V41.668a3.175,3.175,0,0,1,3.171-3.171h39.026a3.175,3.175,0,0,1,3.171,3.171V76.3a3.175,3.175,0,0,1-3.171,3.171M250.083,39.485a2.186,2.186,0,0,0-2.183,2.183V76.3a2.186,2.186,0,0,0,2.183,2.183h39.026a2.186,2.186,0,0,0,2.183-2.183V41.668a2.186,2.186,0,0,0-2.183-2.183Z" transform="translate(-193.59 -30.183)" fill="#b45cb1"/>
    <path id="Path_11101" data-name="Path 11101" d="M307.465,99.444H272.213V93.113l3.609-6.777,6.437,2.022,2.677-7.946,5.526.923,3.589-7.177,13.414-2.775Z" transform="translate(-213.427 -55.967)" fill="#fff"/>
    <path id="Path_11102" data-name="Path 11102" d="M305.672,98.145H270.42a.494.494,0,0,1-.494-.494V91.32a.5.5,0,0,1,.058-.232l3.609-6.778a.494.494,0,0,1,.584-.239l5.975,1.877,2.523-7.487a.493.493,0,0,1,.549-.33l5.166.863,3.425-6.851a.494.494,0,0,1,.342-.263l13.414-2.775a.494.494,0,1,1,.2.967L292.592,72.8l-3.481,6.963a.494.494,0,0,1-.523.266l-5.111-.854-2.543,7.547a.494.494,0,0,1-.616.313l-6.045-1.9-3.359,6.307v5.713h34.758a.494.494,0,0,1,0,.988" transform="translate(-211.634 -54.174)" fill="#b45cb1"/>
    <path id="Path_11103" data-name="Path 11103" d="M304.932,99.386H270.42a.494.494,0,0,1-.494-.494V71.172a.494.494,0,0,1,.988,0V98.4h34.018a.494.494,0,0,1,0,.988" transform="translate(-211.634 -55.415)" fill="#b45cb1"/>
    <path id="Path_11104" data-name="Path 11104" d="M257.89,74.485a.494.494,0,0,1-.356-.836l2.706-2.82a.494.494,0,0,1,.713,0l2.706,2.82a.494.494,0,0,1-.713.684L260.6,71.884l-2.349,2.448a.493.493,0,0,1-.357.152" transform="translate(-201.81 -55.414)" fill="#b45cb1"/>
    <path id="Path_11105" data-name="Path 11105" d="M406.031,215.458l7.822,7.633a3.515,3.515,0,0,0,4.972-4.972L411,210.486Z" transform="translate(-318.346 -165.03)" fill="#d8aed6"/>
    <path id="Path_11106" data-name="Path 11106" d="M414.545,222.82a4,4,0,0,1-2.835-1.172l-7.818-7.629a.494.494,0,1,1,.69-.707l7.822,7.633a3.022,3.022,0,1,0,4.277-4.269l-7.818-7.629a.494.494,0,0,1,.69-.707l7.822,7.633a4.007,4.007,0,0,1-2.831,6.847" transform="translate(-316.552 -163.238)" fill="#b45cb1"/>
    <path id="Path_11107" data-name="Path 11107" d="M337.19,153.733a12.354,12.354,0,1,0-12.354-12.354,12.354,12.354,0,0,0,12.354,12.354" transform="translate(-254.686 -101.161)" fill="#f3f3f3"/>
    <path id="Path_11108" data-name="Path 11108" d="M335.4,152.433a12.848,12.848,0,1,1,12.848-12.848A12.863,12.863,0,0,1,335.4,152.433m0-24.708a11.86,11.86,0,1,0,11.86,11.86,11.873,11.873,0,0,0-11.86-11.86" transform="translate(-252.892 -99.367)" fill="#b45cb1"/>
    <path id="Path_11109" data-name="Path 11109" d="M349.173,162.415a9.053,9.053,0,1,0-9.053-9.053,9.053,9.053,0,0,0,9.053,9.053" transform="translate(-266.669 -113.145)" fill="#fff"/>
    <path id="Path_11110" data-name="Path 11110" d="M347.379,161.115a9.547,9.547,0,1,1,9.547-9.547,9.558,9.558,0,0,1-9.547,9.547m0-18.106a8.559,8.559,0,1,0,8.559,8.559,8.569,8.569,0,0,0-8.559-8.559" transform="translate(-264.875 -111.351)" fill="#b45cb1"/>
    <path id="Path_11111" data-name="Path 11111" d="M382.04,157.4a6.234,6.234,0,0,1,6.227,6.227Z" transform="translate(-299.536 -123.405)" fill="#fff"/>
    <path id="Path_11112" data-name="Path 11112" d="M386.475,162.322a.494.494,0,0,1-.494-.494,5.74,5.74,0,0,0-5.733-5.733.494.494,0,0,1,0-.988,6.729,6.729,0,0,1,6.721,6.721.494.494,0,0,1-.494.494" transform="translate(-297.744 -121.611)" fill="#b45cb1"/>
  </g>
</svg>
