<svg xmlns="http://www.w3.org/2000/svg" xmlns:xlink="http://www.w3.org/1999/xlink" width="1250.25" height="962.67" viewBox="0 0 1250.25 962.67"><defs><style>.cls-1{mask:url(#mask);}.cls-2{mix-blend-mode:multiply;fill:url(#linear-gradient);}.cls-3{fill:none;}.cls-4{clip-path:url(#clip-path);}.cls-5{fill:url(#linear-gradient-2);}.cls-6{clip-path:url(#clip-path-2);}.cls-7{opacity:0.8;}.cls-14,.cls-15,.cls-8{fill:#fff;}.cls-9{fill:#4d4f4f;}.cls-10{fill:#6b6e6e;}.cls-11{fill:#24252e;}.cls-12{fill:#d7e7ee;}.cls-13{fill:url(#linear-gradient-3);}.cls-14,.cls-26,.cls-56,.cls-59{opacity:0.4;}.cls-15,.cls-43{opacity:0.7;}.cls-16,.cls-36,.cls-66{opacity:0.2;}.cls-17{fill:url(#linear-gradient-4);}.cls-18{fill:url(#linear-gradient-5);}.cls-19,.cls-56{fill:#9fc5d7;}.cls-20{fill:#e64a23;}.cls-21{fill:url(#linear-gradient-6);}.cls-22{fill:url(#linear-gradient-7);}.cls-23{fill:url(#linear-gradient-8);}.cls-24{fill:url(#linear-gradient-9);}.cls-25{fill:url(#linear-gradient-10);}.cls-27{clip-path:url(#clip-path-3);}.cls-28{fill:url(#linear-gradient-11);}.cls-29{fill:url(#linear-gradient-12);}.cls-30{fill:url(#linear-gradient-13);}.cls-31,.cls-43{fill:#25252e;}.cls-32{fill:url(#linear-gradient-14);}.cls-33{fill:url(#linear-gradient-15);}.cls-34,.cls-68{opacity:0.1;}.cls-35{mask:url(#mask-2);}.cls-36{fill:url(#linear-gradient-16);}.cls-37{fill:url(#linear-gradient-17);}.cls-38{fill:#5bb3dd;}.cls-39{fill:url(#linear-gradient-18);}.cls-40{fill:url(#linear-gradient-19);}.cls-41{fill:#de5b4d;}.cls-42{fill:#422725;}.cls-44{fill:url(#linear-gradient-20);}.cls-45{fill:url(#linear-gradient-21);}.cls-46{fill:url(#linear-gradient-22);}.cls-47{fill:url(#linear-gradient-23);}.cls-48{fill:url(#linear-gradient-24);}.cls-49{fill:#dbe9ef;}.cls-50{fill:#009ca6;}.cls-51{fill:url(#linear-gradient-25);}.cls-52{fill:url(#linear-gradient-26);}.cls-53{fill:url(#linear-gradient-27);}.cls-54{fill:url(#linear-gradient-28);}.cls-55{fill:#6691a6;}.cls-57{fill:url(#linear-gradient-29);}.cls-58{fill:url(#linear-gradient-30);}.cls-59{fill:#eaf2f5;}.cls-60{fill:#464657;}.cls-61{fill:url(#linear-gradient-31);}.cls-62{fill:#a1a1af;}.cls-63{fill:#31313c;}.cls-64{fill:#c9d8de;}.cls-65{fill:url(#linear-gradient-32);}.cls-67{fill:url(#linear-gradient-33);}.cls-69{fill:url(#linear-gradient-34);}.cls-70{fill:#008394;}.cls-71{opacity:0.12;}.cls-72{fill:#bd3623;}.cls-73{fill:#dcdcdc;}.cls-74{fill:url(#linear-gradient-35);}.cls-75{opacity:0.6;}.cls-76{filter:url(#luminosity-noclip-2);}.cls-77{filter:url(#luminosity-noclip);}</style><filter id="luminosity-noclip" x="134.72" y="-4295" width="220.64" height="32766" filterUnits="userSpaceOnUse" color-interpolation-filters="sRGB"><feFlood flood-color="#fff" result="bg"/><feBlend in="SourceGraphic" in2="bg"/></filter><mask id="mask" x="134.72" y="-4295" width="220.64" height="32766" maskUnits="userSpaceOnUse"><g class="cls-77"/></mask><linearGradient id="linear-gradient" x1="170.95" y1="390.91" x2="347.09" y2="866.19" gradientUnits="userSpaceOnUse"><stop offset="0.09" stop-color="#fff"/><stop offset="1"/></linearGradient><clipPath id="clip-path" transform="translate(10.25 0)"><rect class="cls-3" width="1240" height="945"/></clipPath><linearGradient id="linear-gradient-2" x1="528.51" y1="-117.49" x2="721.52" y2="1214.76" gradientTransform="translate(1229.75 957.3) rotate(-180)" gradientUnits="userSpaceOnUse"><stop offset="0.09" stop-color="#a4cbde"/><stop offset="1" stop-color="#83aec4"/></linearGradient><clipPath id="clip-path-2" transform="translate(10.25 0)"><rect class="cls-3" x="9" y="28" width="1202" height="934.92"/></clipPath><linearGradient id="linear-gradient-3" x1="117.63" y1="375.81" x2="782.24" y2="375.81" gradientUnits="userSpaceOnUse"><stop offset="0.1" stop-color="#00577f"/><stop offset="1" stop-color="#004666"/></linearGradient><linearGradient id="linear-gradient-4" x1="591.13" y1="184.32" x2="692.44" y2="457.07" gradientUnits="userSpaceOnUse"><stop offset="0.46" stop-color="#fff"/><stop offset="1" stop-color="#c7dce6"/></linearGradient><linearGradient id="linear-gradient-5" x1="449.51" y1="183.41" x2="833.34" y2="183.41" xlink:href="#linear-gradient-3"/><linearGradient id="linear-gradient-6" x1="559.77" y1="304.99" x2="556.73" y2="358.75" gradientUnits="userSpaceOnUse"><stop offset="0.06" stop-color="#1991c5"/><stop offset="1" stop-color="#1680ab"/></linearGradient><linearGradient id="linear-gradient-7" x1="587.06" y1="275.85" x2="586.04" y2="382.34" gradientUnits="userSpaceOnUse"><stop offset="0.06" stop-color="#009ca6"/><stop offset="1" stop-color="#008d97"/></linearGradient><linearGradient id="linear-gradient-8" x1="646.22" y1="309.89" x2="643.17" y2="363.64" xlink:href="#linear-gradient-6"/><linearGradient id="linear-gradient-9" x1="674.05" y1="276.68" x2="673.03" y2="383.17" xlink:href="#linear-gradient-7"/><linearGradient id="linear-gradient-10" x1="732" y1="277.23" x2="730.98" y2="383.72" xlink:href="#linear-gradient-7"/><clipPath id="clip-path-3" transform="translate(10.25 0)"><rect class="cls-3" x="107.15" y="240.43" width="516.34" height="531.67"/></clipPath><linearGradient id="linear-gradient-11" x1="301.53" y1="220.79" x2="393.04" y2="301.93" gradientUnits="userSpaceOnUse"><stop offset="0.09" stop-color="#e28c6d"/><stop offset="1" stop-color="#f79a77"/></linearGradient><linearGradient id="linear-gradient-12" x1="253.6" y1="530" x2="545.78" y2="505.35" gradientUnits="userSpaceOnUse"><stop offset="0" stop-color="#3a3a47"/><stop offset="1" stop-color="#31313c"/></linearGradient><linearGradient id="linear-gradient-13" x1="429.54" y1="657.33" x2="549.46" y2="657.33" xlink:href="#linear-gradient-11"/><linearGradient id="linear-gradient-14" x1="125.07" y1="441.3" x2="292.3" y2="892.53" gradientUnits="userSpaceOnUse"><stop offset="0.07" stop-color="#3a3a47"/><stop offset="1" stop-color="#2c2c36"/></linearGradient><linearGradient id="linear-gradient-15" x1="260.73" y1="653.77" x2="360.76" y2="653.77" xlink:href="#linear-gradient-12"/><filter id="luminosity-noclip-2" x="134.72" y="518.92" width="220.64" height="193.98" filterUnits="userSpaceOnUse" color-interpolation-filters="sRGB"><feFlood flood-color="#fff" result="bg"/><feBlend in="SourceGraphic" in2="bg"/></filter><mask id="mask-2" x="144.97" y="518.92" width="220.64" height="193.98" maskUnits="userSpaceOnUse"><g class="cls-76"><g transform="translate(10.25 0)"><g class="cls-1"><path class="cls-2" d="M354,636.28c-6.26-.29-40.85-7.3-57.48-11.49-22.22-5.6-68.07-64.92-93-105.8-.71-1.17-18.67,12.08-20,12.25l-1.12.14c-2.36.34-4.72.68-7.08,1-4.67.74-9.33,1.56-14,2.5a255.23,255.23,0,0,0-26.66,6.81,13,13,0,0,1,2.38,5c7.13,31.2,92.84,149.81,106,157.85,27.73,16.9,109.88,2.81,110.9,2.7C354.12,676,357,655.1,354,636.28Z"/></g></g></g></mask><linearGradient id="linear-gradient-16" x1="170.95" y1="390.91" x2="347.09" y2="866.19" gradientUnits="userSpaceOnUse"><stop offset="0.09"/><stop offset="1"/></linearGradient><linearGradient id="linear-gradient-17" x1="142.24" y1="539.11" x2="400.9" y2="705.29" xlink:href="#linear-gradient-12"/><linearGradient id="linear-gradient-18" x1="253.04" y1="392.45" x2="189.71" y2="474.2" xlink:href="#linear-gradient-11"/><linearGradient id="linear-gradient-19" x1="208.83" y1="325.27" x2="300.24" y2="406.33" xlink:href="#linear-gradient-11"/><linearGradient id="linear-gradient-20" x1="52.7" y1="427.03" x2="201.13" y2="427.03" gradientTransform="matrix(1, -0.02, 0.02, 1, 129.84, 95.59)" xlink:href="#linear-gradient-12"/><linearGradient id="linear-gradient-21" x1="185.74" y1="351.37" x2="277.25" y2="432.51" xlink:href="#linear-gradient-11"/><linearGradient id="linear-gradient-22" x1="134.46" y1="339.23" x2="186.9" y2="457.59" gradientTransform="matrix(1, -0.02, 0.02, 1, 129.84, 95.59)" xlink:href="#linear-gradient-12"/><linearGradient id="linear-gradient-23" x1="934.76" y1="216.4" x2="1175.49" y2="518.71" xlink:href="#linear-gradient-6"/><linearGradient id="linear-gradient-24" x1="646.6" y1="414.55" x2="921.36" y2="414.55" xlink:href="#linear-gradient-3"/><linearGradient id="linear-gradient-25" x1="678.22" y1="576.33" x2="712.71" y2="673.7" xlink:href="#linear-gradient-6"/><linearGradient id="linear-gradient-26" x1="784.52" y1="535.05" x2="819.01" y2="632.42" gradientTransform="translate(1161.36 -339) rotate(76.72)" xlink:href="#linear-gradient-6"/><linearGradient id="linear-gradient-27" x1="808.75" y1="526.47" x2="843.23" y2="623.84" gradientTransform="translate(665.78 -414.71) rotate(45)" xlink:href="#linear-gradient-6"/><linearGradient id="linear-gradient-28" x1="871.89" y1="507.74" x2="906.38" y2="605.11" xlink:href="#linear-gradient-6"/><linearGradient id="linear-gradient-29" x1="619.68" y1="704.96" x2="686.26" y2="704.96" xlink:href="#linear-gradient-3"/><linearGradient id="linear-gradient-30" x1="701.8" y1="553.16" x2="743.66" y2="671.37" xlink:href="#linear-gradient-6"/><linearGradient id="linear-gradient-31" x1="51.87" y1="700.56" x2="224.18" y2="966.37" gradientUnits="userSpaceOnUse"><stop offset="0" stop-color="#65657d"/><stop offset="1" stop-color="#4c4c5e"/></linearGradient><linearGradient id="linear-gradient-32" x1="387.48" y1="907.55" x2="434.97" y2="907.55" xlink:href="#linear-gradient-7"/><linearGradient id="linear-gradient-33" x1="187.28" y1="906.21" x2="415.64" y2="906.21" xlink:href="#linear-gradient-7"/><linearGradient id="linear-gradient-34" x1="155.8" y1="905.28" x2="269.03" y2="905.28" xlink:href="#linear-gradient-7"/><linearGradient id="linear-gradient-35" x1="1078.69" y1="471.67" x2="1230.74" y2="610.89" xlink:href="#linear-gradient-7"/></defs><g id="Layer_2" data-name="Layer 2"><g id="Layer_2-2" data-name="Layer 2"><g class="cls-4"><rect class="cls-5" x="-10.25" width="1250.25" height="957.3" transform="translate(1240 957.3) rotate(180)"/><g class="cls-6"><g class="cls-7"><path class="cls-8" d="M916.09,761.6a4,4,0,1,1,.22,0Zm-15.78-.45a4.18,4.18,0,1,1,.22,0Zm.39.35.17-4-.21,4a4.06,4.06,0,0,1,.33-8.11l-.12,4.06Zm30.62-1a4,4,0,1,1,.56,0l-.23,0Zm-45.66-.28-.51,0,.51-4-.53,4a4.05,4.05,0,1,1,1-8.05h.07a4.06,4.06,0,0,1-.5,8.08Zm60.76-2a4.07,4.07,0,1,1,.88-.09l-.21,0A5,5,0,0,1,946.42,758.27Zm-75.83-.47a3.68,3.68,0,0,1-.8-.08,4.05,4.05,0,0,1,1.42-8l.2,0a4.06,4.06,0,0,1-.82,8Zm-.05-3.82h0l.05-.23Zm90.77.88a4.06,4.06,0,0,1-1.18-7.94l.24-.07a4.06,4.06,0,0,1,2,7.87A4.37,4.37,0,0,1,961.31,754.86Zm.08-3.93h0l0-.15Zm-105.64,3.28a4.13,4.13,0,0,1-1.14-.16,4.06,4.06,0,0,1,2.08-7.84l.24.06a4.06,4.06,0,0,1-1.18,7.94Zm0-3.93h0l0-.12Zm120.18,0a4.06,4.06,0,0,1-1.48-7.84l.19-.07a4.06,4.06,0,1,1,1.29,7.91Zm.13-3.84h0l-.09-.25Zm-134.78,3a4.12,4.12,0,0,1-1.33-.22l-.2-.07a4.08,4.08,0,1,1,1.53.29Zm148.83-4.85a4.06,4.06,0,1,1,3.72-5.72,4,4,0,0,1-2,5.33l-.11,0A4,4,0,0,1,990.07,744.63Zm-162.94-1a4.12,4.12,0,0,1-1.67-.36l-.18-.09a4.06,4.06,0,1,1,1.85.45Zm176.63-5.78a4.11,4.11,0,1,1,2-.52l-.1.06A4.08,4.08,0,0,1,1003.76,737.86Zm-190.23-1.14a3.93,3.93,0,0,1-2-.54l2-3.52-2,3.52a4.06,4.06,0,0,1,3.92-7.1l.11.06a4.06,4.06,0,0,1-2,7.58Zm203.35-6.67a4.06,4.06,0,0,1-2.32-7.39l.23-.15a4.06,4.06,0,0,1,4.31,6.87A4,4,0,0,1,1016.88,730.05Zm.1-4h0l-.06-.1Zm-216.48,2.7a4,4,0,0,1-2.19-.66l-.08-.05a4,4,0,1,1,2.27.71Zm228.86-7.53a4.11,4.11,0,1,1,2.55-.9l-.12.09A4,4,0,0,1,1029.36,721.23ZM788.14,719.8a4,4,0,0,1-2.49-.86l0,0a4.05,4.05,0,1,1,2.53.89Zm253-8.32a4.06,4.06,0,0,1-2.78-7l.12-.11a4.06,4.06,0,1,1,2.66,7.12Zm.32-3.78v0l-.29-.33Zm-264.91,2.23a4.07,4.07,0,1,1,2.66-7.13l.12.12a4.06,4.06,0,0,1-2.78,7Zm-.32-3.73,0,0,.34-.35Zm275.89-5.33a4.07,4.07,0,0,1-3-6.84l3,2.74,2.92,2.82A4,4,0,0,1,1052.1,700.87Zm10.13-11.42a4.09,4.09,0,1,1,3.21-1.59.76.76,0,0,1-.11.14A4.06,4.06,0,0,1,1062.23,689.45Zm9.21-12.16a4.06,4.06,0,0,1-3.32-6.39,4.07,4.07,0,0,1,5.66-1,4,4,0,0,1,1,5.63l0,0A4,4,0,0,1,1071.44,677.29Zm8.24-12.85a4.08,4.08,0,1,1,3.55-2.08l-.1.16A4.06,4.06,0,0,1,1079.68,664.44Zm7.21-13.44a4,4,0,0,1-1.67-.37,4.05,4.05,0,0,1-2-5.37l.09-.18a4.06,4.06,0,1,1,3.6,5.92Zm.28-4h0l-.26-.13Zm5.87-10a4.12,4.12,0,0,1-1.53-.3,4.07,4.07,0,1,1,5.33-2.33.49.49,0,0,0,0,.11A4.07,4.07,0,0,1,1093,637Zm5-14.42a3.86,3.86,0,0,1-1.15-.17,4,4,0,0,1-2.74-5s0-.08,0-.09a4.06,4.06,0,0,1,7.77,2.36l-3.88-1.18,3.87,1.19A4.06,4.06,0,0,1,1098.08,622.61Zm3.91-14.74a4.09,4.09,0,1,1,4-3.28,2,2,0,0,1,0,.24A4.06,4.06,0,0,1,1102,607.87Zm2.76-15a3.88,3.88,0,0,1-.67-.06,4.08,4.08,0,1,1,4.7-3.54,1.52,1.52,0,0,1,0,.21A4.06,4.06,0,0,1,1104.75,592.85Zm1.59-15.18h-.17a4,4,0,0,1-3.88-4.22c0-.05,0-.16,0-.21a4.06,4.06,0,1,1,4,4.44Zm.25-4.09h0l-.25,0Zm.17-11.18a4.05,4.05,0,0,1-4-3.88c0-.06,0-.17,0-.22a4.06,4.06,0,1,1,4.23,4.1Zm0-4.1h0Zm4.06,0h0ZM1106,547.15a4.06,4.06,0,0,1-4-3.72l4-.38,4-.33-4,.33,4-.29a4.06,4.06,0,0,1-3.71,4.38ZM1104.07,532a4.07,4.07,0,1,1,4-4.78v.07a4.05,4.05,0,0,1-3.35,4.65A3.68,3.68,0,0,1,1104.07,532Zm-3.09-15a4.07,4.07,0,1,1,3.92-5.1l0,.06a4.06,4.06,0,0,1-3,4.92A4.19,4.19,0,0,1,1101,517.05Zm-4.24-14.67a4.08,4.08,0,1,1,3.82-5.43l.07.22a4.05,4.05,0,0,1-2.73,5A3.93,3.93,0,0,1,1096.74,502.38Zm-5.37-14.29a4.05,4.05,0,0,1-3.71-2.41l-.08-.19a4.06,4.06,0,1,1,5.43,2.25A4,4,0,0,1,1091.37,488.09Zm.23-4.2-.25.1Zm-6.67-9.62a4.12,4.12,0,0,1-3.6-2.13.91.91,0,0,0-.07-.14,4.06,4.06,0,0,1,7.23-3.7l-3.62,1.85,3.62-1.84a4,4,0,0,1-1.64,5.48A4,4,0,0,1,1084.93,474.27ZM1077.36,461a4,4,0,0,1-3.42-1.88l0-.08a4.06,4.06,0,0,1,6.9-4.27l-3.45,2.14,3.46-2.13a4.07,4.07,0,0,1-1.28,5.59A4,4,0,0,1,1077.36,461Zm-8.54-12.66a4.06,4.06,0,0,1-3.22-1.58l-.13-.19a4.05,4.05,0,1,1,5.82.93A4,4,0,0,1,1068.82,448.3Zm.12-4.2-.15.1Zm-9.62-7.76a4,4,0,0,1-3.1-1.45,4.06,4.06,0,0,1,6.14-5.3l.06.08a4.06,4.06,0,0,1-3.1,6.67Zm-10.4-11.21a4,4,0,0,1-2.81-1.14l-.08-.07a4.06,4.06,0,0,1,5.74-5.74l-2.87,2.87,2.88-2.87a4.06,4.06,0,0,1-2.86,6.95Zm-275.75-2.66a4.06,4.06,0,0,1-2.79-7l2.79,3-2.78-3a4.06,4.06,0,0,1,5.64,5.84l-.08.07A4,4,0,0,1,773.17,422.47Zm264.56-7.7a4.07,4.07,0,1,1,2.58-7.19l.07.06a4.06,4.06,0,0,1-2.65,7.13ZM784.6,412.29a4.05,4.05,0,0,1-2.58-7.18l0,0a4.06,4.06,0,0,1,5.13,6.29A4.15,4.15,0,0,1,784.6,412.29Zm241.16-7a4.06,4.06,0,1,1,2.35-7.37l.06.05a4.06,4.06,0,0,1-2.41,7.32Zm-229-2.26a4,4,0,0,1-2.35-7.36l0,0a4.06,4.06,0,1,1,2.31,7.39Zm216.33-6.25a4,4,0,0,1-2.14-.62,4.06,4.06,0,0,1,4.24-6.92l.06,0a4.06,4.06,0,0,1-2.16,7.5Zm-203.48-2a4.05,4.05,0,0,1-2.11-7.52l0,0a4.06,4.06,0,1,1,2.07,7.55Zm190.19-5.48a4,4,0,0,1-1.88-.47,4.06,4.06,0,0,1,3.66-7.24l.18.09a4.06,4.06,0,0,1-2,7.62ZM823,387.55a4.06,4.06,0,0,1-1.8-7.69l.11-.06a4.06,4.06,0,1,1,1.69,7.75Zm163-4.71a4,4,0,0,1-1.47-.28l-.18-.07a4.06,4.06,0,1,1,1.65.35Zm.08-4.36-.12.29ZM837,381.37a4.06,4.06,0,0,1-1.48-7.84l1.48,3.78-1.47-3.78a4.06,4.06,0,0,1,3.05,7.52l-.1,0A4.08,4.08,0,0,1,837,381.37Zm134.69-3.88a4.12,4.12,0,0,1-1.33-.22,4.06,4.06,0,1,1,2.54-7.71l.12,0a4.06,4.06,0,0,1-1.33,7.89ZM851.4,376.3a4.06,4.06,0,0,1-1.18-7.94l1.19,3.88-1.17-3.89a4.06,4.06,0,0,1,2.42,7.75l-.07,0A4.09,4.09,0,0,1,851.4,376.3Zm105.62-3a4.31,4.31,0,0,1-.94-.11l-.09,0a4.06,4.06,0,1,1,2-7.87l-1,3.93,1-3.93a4.06,4.06,0,0,1-1,8Zm-90.82-.92a4.05,4.05,0,0,1-.94-8l.09,0a4.06,4.06,0,0,1,1.72,7.93A4.28,4.28,0,0,1,866.2,372.35Zm75.87-2.16a3.85,3.85,0,0,1-.67-.05,4.06,4.06,0,1,1,1.29-8h0a4.06,4.06,0,0,1-.66,8.06Zm-60.85-.61a4.06,4.06,0,0,1-.63-8.07h.07a4.06,4.06,0,0,1,1.13,8A3.64,3.64,0,0,1,881.22,369.58Zm45.71-1.3-.41,0a4.05,4.05,0,1,1,.69-8.08h.11a4.05,4.05,0,0,1-.39,8.09ZM896.36,368a4.05,4.05,0,0,1-.25-8.1l.25,4.05-.25-4.05a4.06,4.06,0,0,1,.62,8.09h-.37Zm15.31-.43h-.08a4.06,4.06,0,0,1,0-8.12h.13a4.06,4.06,0,0,1-.08,8.12Z" transform="translate(10.25 0)"/></g><polygon class="cls-9" points="546.75 942.01 352.72 942.01 371.61 825.64 527.87 825.64 546.75 942.01"/><path class="cls-10" d="M536.58,941.75s-194.07-.09-194.07-.09c-1.91,1.91-15.54,14.4-15.54,14.4-2.5,2.68-.2,6.56,3.89,6.56H548.12c4.09,0,6.39-3.88,3.89-6.56Z" transform="translate(10.25 0)"/><rect class="cls-11" x="97.09" y="340.06" width="705.29" height="494.77" rx="22.36"/><rect class="cls-12" x="117.74" y="361.9" width="664" height="410.2"/><polygon class="cls-13" points="782.24 389.17 117.63 389.71 117.74 361.9 782.24 361.9 782.24 389.17"/><g class="cls-7"><path class="cls-14" d="M343.07,209.5a10.81,10.81,0,1,1-10.81-10.81A10.81,10.81,0,0,1,343.07,209.5Z" transform="translate(10.25 0)"/><path class="cls-15" d="M380.2,209.5a10.81,10.81,0,1,1-10.81-10.81A10.81,10.81,0,0,1,380.2,209.5Z" transform="translate(10.25 0)"/><path class="cls-8" d="M417.33,209.5a10.81,10.81,0,1,1-10.81-10.81A10.81,10.81,0,0,1,417.33,209.5Z" transform="translate(10.25 0)"/></g><rect class="cls-16" x="431.25" y="339.21" width="383.83" height="154.78"/><rect class="cls-17" x="449.51" y="169.79" width="383.83" height="299.85"/><rect class="cls-18" x="449.51" y="169.79" width="383.83" height="27.22"/><rect class="cls-8" x="457.94" y="176.99" width="13.04" height="12.82"/><rect class="cls-19" x="522.85" y="320.62" width="11.26" height="39.54"/><rect class="cls-20" x="522.85" y="339.49" width="11.26" height="20.67"/><rect class="cls-19" x="551.86" y="303.32" width="11.26" height="56.84"/><rect class="cls-21" x="551.86" y="330.45" width="11.26" height="29.71"/><rect class="cls-19" x="580.86" y="285.61" width="11.26" height="74.55"/><rect class="cls-22" x="580.86" y="309.59" width="11.26" height="50.57"/><rect class="cls-19" x="609.87" y="299.2" width="11.26" height="60.96"/><rect class="cls-20" x="609.87" y="338.71" width="11.26" height="21.45"/><rect class="cls-19" x="638.87" y="283.6" width="11.26" height="76.56"/><rect class="cls-23" x="638.87" y="320.14" width="11.26" height="40.02"/><rect class="cls-19" x="667.88" y="276.13" width="11.26" height="84.03"/><rect class="cls-24" x="667.88" y="305.79" width="11.26" height="54.37"/><rect class="cls-19" x="696.88" y="287.26" width="11.26" height="72.91"/><rect class="cls-20" x="696.88" y="330.3" width="11.26" height="29.86"/><rect class="cls-19" x="725.89" y="265.01" width="11.26" height="95.15"/><rect class="cls-25" x="725.89" y="294.23" width="11.26" height="65.93"/><rect class="cls-19" x="754.89" y="251.42" width="11.26" height="108.74"/><rect class="cls-20" x="754.89" y="303.32" width="11.26" height="56.84"/><rect class="cls-19" x="507.17" y="366.75" width="274.67" height="6.59"/><polygon class="cls-19" points="504.65 315.55 501.84 310.93 587.21 258.91 616.31 279.58 675.19 244.76 699.03 262.81 761.84 225.93 764.58 230.6 698.65 269.31 674.82 251.26 616.04 286.02 586.98 265.38 504.65 315.55"/><polygon class="cls-19" points="765.95 239.17 776.6 220.4 755.03 220.56 765.95 239.17"/><g class="cls-26"><polygon class="cls-19" points="796.6 388.16 483.54 388.16 483.54 220.4 488.95 220.4 488.95 382.75 796.6 382.75 796.6 388.16"/></g><g class="cls-27"><path class="cls-28" d="M607.8,436.65c-.79-1.56-2.22-1.71-3.69-.76-4.14,2.71-21.27,18.4-22.42,14.29l.58-.42c1.59-1.12,3.11-2.24,4.6-3.39s3-2.25,4.36-3.36,2.74-2.2,4-3.23l3.52-3c2.16-1.86,3.93-3.44,5.18-4.55l1.93-1.8a4,4,0,0,0-5.16-6.09l-.07.05-2,1.55c-1.28,1-3.12,2.42-5.34,4.11s-4.8,3.66-7.59,5.73c-1.4,1-2.85,2.09-4.31,3.18l-2.24,1.6c-.74.54-1.49,1.08-2.24,1.6l-.89.63-.32-.47.17-.12,1.08-.86,2.15-1.74,8.45-6.81,7.32-6,5.15-4.29,1.94-1.64a4,4,0,0,0-5-6.24h0l-2,1.53-5.32,4.07-7.48,5.82c-2.72,2.15-5.62,4.44-8.51,6.74l-2.17,1.72-1.08.86-.41.32h0c-.41-.34-.82-.67-1.24-1l.24-.19c.69-.53,1.33-1.07,2-1.61,2.63-2.17,5.21-4.35,7.62-6.4,1.2-1,2.34-2,3.43-3s2.12-1.86,3.06-2.7c1.89-1.68,3.44-3.11,4.54-4.1l1.7-1.58a4,4,0,0,0-5.23-6h0l-1.79,1.45-4.7,3.84L573,419.86c-2.41,2-5,4.14-7.57,6.22l-1.92,1.54c-.63.51-1.23,1-1.9,1.51-1.25,1-20.28,12.54-21.8,11.64-5.94-3.5-4.34-10.45-2.66-19.3,1.8-9.41-3.41-9.13-5-8.73S524.5,433,523.6,436s-5.17,16.57-5,21.85c.11,2.72.16,13,.16,13L511.1,479l21.45,18.51,11-7.84s10.87-2.93,24.37-12.53c14-10,36.54-31.19,38-34.32C606.36,441.85,608.86,438.77,607.8,436.65Z" transform="translate(10.25 0)"/><polygon class="cls-8" points="504.56 487.64 524.88 471.15 547.5 499.23 518.97 524.36 504.56 487.64"/><path class="cls-29" d="M505.67,477.18c-27.37,19.15-55.32,38.36-85.05,53.7-3.69,1.9-7.42,3.74-11.26,5.34-1.71.71-3.19,1.62-4.78,1s-3.49-2.74-4.76-3.82c-6.62-5.58-12.73-11.76-18.77-18-13.21-13.54-26-27.49-39.15-41.1q-16.66-17.26-33.83-34L259,501l-7.07,8.73c26.38,17.52,51.74,36.38,77.28,55.1,21.79,16,56.08,39.36,77.38,37.33,16.69-1.59,43.8-21.07,61.9-35.11,13-10.12,25.64-20.8,38-31.69q8.5-7.49,16.85-15.16c1.59-1.47,10-7.57,9.93-9.53-.08-1.59-4.37-5.31-5.35-6.5l-9.26-11.23ZM402.31,538.84l-.7.06Z" transform="translate(10.25 0)"/><path class="cls-30" d="M437.92,643.55s35.7-13.93,38-13.93,46.23-2.65,46-2,1.64,7.68-7.39,9.8c-9.37,2.19-18.49,1.62-22.18,3.17-1.11.47-3.61,3.18-.54,6.36,3.83,4,15.38,8.14,19.24,8.49s32.46-.35,34,0,5.8,4.54,3.87,6.29l-14.3,3.49a20.64,20.64,0,0,1-3.39,3.7,67,67,0,0,1-7.43,2.94s-2.23,5.66-7.35,6.86c0,0-1.37,6.62-11,7.68-4.6.51-23.81,1.32-33.47-.21-4.57-.73-33.32-11.18-33.32-11.18S418.6,655.78,437.92,643.55Z" transform="translate(10.25 0)"/><path class="cls-31" d="M245.93,410a13,13,0,0,1,.22-3c-35.31-14.38-46.66,8.76-46.66,8.76l3.3,16,55.49-6.86C251.23,423.56,246.26,417.27,245.93,410Z" transform="translate(10.25 0)"/><path class="cls-8" d="M157.85,763.76H341.32c-4.53-43.91-2.09-85.72-4.42-130-.26-4.91,1.78-59.72-.59-92.8-1.09-15.34-22-91.27-32.44-97.4-13.31-7.8-41.24-22.41-58.47-22.28-68.43.53-109.71,77.48-109.71,117.58,0,46.74,15.26,112.8,21,149C159.52,705.51,160.82,726.26,157.85,763.76Z" transform="translate(10.25 0)"/><path class="cls-32" d="M340.64,617.39c-.85-4.87-13.78-29.09-16.42-34.33C294,523.19,213.88,430.47,211.52,428.44c-52.09,11.87-82,63.14-80,89.51,3.59,46.6,17.2,152.24,20.24,188.72,6.5,78.05-9.39,113.77-15.66,170.43,0,0,10.7,25.22,57.31,29,20.61,1.69,142.12.76,145.18-22.16C337.8,860.66,351.6,679.79,340.64,617.39Z" transform="translate(10.25 0)"/><path class="cls-33" d="M337.84,874.05c7.64,17.57,22.92,11.46,22.92,11.46-7.14-49.83-4.79-192.31-7.4-241.9-.26-4.91-4.06-78.44-10.93-104.93-3.87-14.87-4.09-63.52-27.87-92.7-8.31-10.2-21.5-14.29-53.83-25,27.82,27.54,64.12,106,79.4,200.2C340.51,623.5,337.29,855.7,337.84,874.05Z" transform="translate(10.25 0)"/><path class="cls-34" d="M339.94,610.51a230.27,230.27,0,0,1,3.63,27.89c1.8,26,2.57,65.56,3.19,104.3.46,29.14-7.06,101.42-7.64,124.73-.52,20.44,5.93-18.25,5.6-11.21,0,0,10.54-35.43,7.64-125C351.3,698.66,345.55,612,339.94,610.51Z" transform="translate(10.25 0)"/><g class="cls-35"><path class="cls-36" d="M354,636.28c-6.26-.29-40.85-7.3-57.48-11.49-22.22-5.6-68.07-64.92-93-105.8-.71-1.17-18.67,12.08-20,12.25l-1.12.14c-2.36.34-4.72.68-7.08,1-4.67.74-9.33,1.56-14,2.5a255.23,255.23,0,0,0-26.66,6.81,13,13,0,0,1,2.38,5c7.13,31.2,92.84,149.81,106,157.85,27.73,16.9,109.88,2.81,110.9,2.7C354.12,676,357,655.1,354,636.28Z" transform="translate(10.25 0)"/></g><path class="cls-8" d="M437.15,642.58c-12.18.65-26.33,3.4-40,3.07-.59,3.09-1.06,6.18-1.37,9.31,0,.21-.1,1.34-.16,2.18,0,.36,0,.67,0,.84-.07,2.7,0,5.4,0,8.1.17,5.49.74,16.21,1.53,21.54,13.06-3,29.42-5,43.19-8.28C438.65,670.47,438.54,651.5,437.15,642.58Z" transform="translate(10.25 0)"/><path class="cls-37" d="M429.42,640.91c-46.27.26-136.18-5.12-143.71-10.26-8.7-5.94-47-38.63-74.13-122.64-8-24.64-41.29-36.38-63-18.52-22.44,18.5-16.65,45.27-9,66.33,12.5,34.29,77.1,118.54,111,138.57,12,7.11,72.89,11.5,181-11.33C430.69,678.62,428.8,647,429.42,640.91Z" transform="translate(10.25 0)"/><path class="cls-38" d="M336.87,611.49c-1.14-6.66-16.87-74.85-27.68-95.55-10.2-19.51-28.52-42.16-34.82-52.36-4.94,1.84-7.95.69-13.08,2,12.38,44.62,25.8,74.47,26.14,77.75C289.85,550.85,327.75,604,336.87,611.49Z" transform="translate(10.25 0)"/><path class="cls-34" d="M274.71,473.52c3.62.66,4.45-2.26,4.83-2.24-2.86-4-3.55-5.09-5.17-7.7-4.94,1.84-7.95.69-13.08,2,1.65,5.94,2.44,7.84,3.79,13.33C267.19,476.18,270.8,472.81,274.71,473.52Z" transform="translate(10.25 0)"/><path class="cls-38" d="M278.15,460.44c-1.11-.72-10.46-8.49-11.19-9.09-1.14.85-11.32,4.26-11.38,4.41-.82,2-.72,3-3.41,12.67.21.14,6.38,7.23,12.53,9.42.57,0,6.15-8.58,14.84-6.57C280.27,464.92,279.45,466.23,278.15,460.44Z" transform="translate(10.25 0)"/><path class="cls-39" d="M261.92,449.11c.16-14.27-9.51-45.45-14.06-58.82-5.83-17.14-45-19.06-43,1.53,1.3,13-5.69,37.59-5.07,38.21C212.2,442.27,261.85,456.24,261.92,449.11Z" transform="translate(10.25 0)"/><path class="cls-40" d="M204.4,395.68c-24.79-21.59-47.19-58.26-39.62-75.58C173.56,300,257.41,294,257.41,294s47.4,92,21.37,114.5C252.52,431.24,216.45,406.19,204.4,395.68Z" transform="translate(10.25 0)"/><path class="cls-41" d="M251.75,384.9l27.81-12S275.61,401.67,251.75,384.9Z" transform="translate(10.25 0)"/><path class="cls-34" d="M203.1,416.44s6.93,21.08,57.35,34.45l-6,30.38s-52.94-20.82-60.4-46.22Z" transform="translate(10.25 0)"/><path class="cls-8" d="M202.88,414.64s7.15,22.88,57.57,36.25l-9.24,27.87s-49.66-18.31-57.12-43.71Z" transform="translate(10.25 0)"/><path class="cls-42" d="M179.18,391.51c-27-29.76-29-63.31-12.9-92.13,18.19-32.61,86.32-29.59,89.24-27.12,12.58,10.67,5,26.57,5,26.57a30,30,0,0,1-14,14.64c-16,8.17-36.46,12-39.44,20.48-3.34,9.48.58,20.7,1.23,27,.82,7.79-3.13,6.81-.28,26.29,0,0-3.93,25.6-4.81,24.86A143.78,143.78,0,0,1,179.18,391.51Z" transform="translate(10.25 0)"/><path class="cls-34" d="M256.05,417.93s.16,5,.48,5.62c5.34,10,5.75,22,3.92,27.34l27,19.35s-2.51-21.79-20.61-40.24C262.63,425.71,256.05,417.93,256.05,417.93Z" transform="translate(10.25 0)"/><path class="cls-8" d="M256.05,417.93s.16,5,.48,5.62c5.34,10,5.75,22,3.92,27.34l24.64,13.77s-.15-16.21-18.25-34.66C262.63,425.71,256.05,417.93,256.05,417.93Z" transform="translate(10.25 0)"/><path class="cls-43" d="M188.61,436.19l12.23-21.43s-4.62,11.91,33.15,45.71c18.32,16.4,99,121,106.43,164.71,0,0,.4-3.8-37.38-47.33-18.21-21-80.77-78.85-80.77-78.85l6.06-15.45-20.09-1.45S184.66,459.82,188.61,436.19Z" transform="translate(10.25 0)"/><path class="cls-44" d="M188.61,436.19l11.23-21s-1,11.5,35.6,42.76c22.38,19.12,97.58,123.57,105,167.25,0,0-7.86-22.08-76.69-96.13-11.59-12.48-34.66-31.1-34.66-31.1l6.74-19-23.29-.71S191.07,462.84,188.61,436.19Z" transform="translate(10.25 0)"/><path class="cls-45" d="M211.08,358c-2.49-2.9-19.65-3.24-16.65,9.45s16,24.16,22.33,20.48S217,364.87,211.08,358Z" transform="translate(10.25 0)"/><path class="cls-43" d="M256.3,419.25a37,37,0,0,0,.18,4.3c2.92,5.08,16.4,18.31,23.92,35.08,1.77,3.94,35.5,73.82,53.53,145.39,2.24,8.87,4.68,11.64,6.36,20.65,0,0-13.79-114.65-25.63-150.1-.34-1-18.49-13.56-18.49-13.56l3.17-7.82S278.62,432.24,256.3,419.25Z" transform="translate(10.25 0)"/><path class="cls-46" d="M255.92,417.48s.38,5.75.56,6.07c2.92,5.08,16.4,18.31,23.92,35.08,1.77,3.94,35.5,73.82,53.53,145.39,2.24,8.87,3.6,11.13,6.36,20.65,0,0-.7-7.86-3.1-21.44C331,568,317.76,500,309.21,474.42c-.34-1-17-13.58-17-13.58l3.17-7.82A183.74,183.74,0,0,0,255.92,417.48Z" transform="translate(10.25 0)"/></g><rect class="cls-47" x="945.6" y="249.89" width="155.37" height="155.37" rx="20.65"/><path class="cls-8" d="M1013,298.41a23.72,23.72,0,0,0-22.64,30.76h-.08s4.83,13,6,17.5a142.53,142.53,0,0,1,3.34,14.55l26.43,1.22c0-.31.29-3.87,3.48-15.77.84-3.14,3.47-10.5,5-14.6A23.71,23.71,0,0,0,1013,298.41Z" transform="translate(10.25 0)"/><path class="cls-8" d="M999.34,368.47v.79a7.15,7.15,0,0,0,.14,1.4l27,1.26a6.33,6.33,0,0,0,.2-1.58v-.6h-.06Z" transform="translate(10.25 0)"/><path class="cls-8" d="M999.34,363.75v2.19h.06l27.33,1.27V365h-.06Z" transform="translate(10.25 0)"/><path class="cls-8" d="M1006.81,376.73a6.63,6.63,0,0,0,12.46,0h1.08a6.4,6.4,0,0,0,4.93-2.33l-24.76-1.14A7.47,7.47,0,0,0,1006.81,376.73Z" transform="translate(10.25 0)"/><path class="cls-8" d="M998,291a2.73,2.73,0,0,0,2.55,1.73,2.74,2.74,0,0,0,2.56-3.77l-5.26-13.21a2.76,2.76,0,1,0-5.12,2Z" transform="translate(10.25 0)"/><path class="cls-8" d="M1059.4,302.28a2.75,2.75,0,0,0-3.57-1.54L1042.62,306a2.75,2.75,0,0,0,1,5.31,2.83,2.83,0,0,0,1-.19l13.21-5.27A2.74,2.74,0,0,0,1059.4,302.28Z" transform="translate(10.25 0)"/><path class="cls-8" d="M1024.82,292.88a2.83,2.83,0,0,0,1.09.22,2.75,2.75,0,0,0,2.53-1.66l5.62-13.07a2.75,2.75,0,0,0-5.06-2.17l-5.62,13.06A2.76,2.76,0,0,0,1024.82,292.88Z" transform="translate(10.25 0)"/><path class="cls-8" d="M983.38,305.2l-13.07-5.61a2.75,2.75,0,1,0-2.17,5.05l13.07,5.62a2.75,2.75,0,0,0,2.17-5.06Z" transform="translate(10.25 0)"/><rect class="cls-34" x="635.78" y="413.05" width="274.76" height="300.34"/><rect class="cls-8" x="646.6" y="402.91" width="274.76" height="300.34"/><rect class="cls-48" x="646.6" y="402.91" width="274.76" height="23.28"/><rect class="cls-49" x="662.4" y="443.82" width="243.15" height="37.64"/><rect class="cls-19" x="679.88" y="459.25" width="130.6" height="8.21"/><polygon class="cls-50" points="888.07 470.82 869.57 455.88 851.06 470.82 888.07 470.82"/><rect class="cls-49" x="806.43" y="640.45" width="99.12" height="7.62"/><rect class="cls-49" x="806.43" y="656.72" width="79.54" height="7.62"/><rect class="cls-49" x="662.4" y="492.89" width="243.15" height="37.64"/><rect class="cls-19" x="679.88" y="507.6" width="102.96" height="8.21"/><polygon class="cls-20" points="851.06 504.24 869.57 519.18 888.07 504.24 851.06 504.24"/><rect class="cls-8" x="654.37" y="408.24" width="12.68" height="12.47"/><path class="cls-19" d="M719.78,632.85a2.35,2.35,0,0,1-1.59-.61l-48.77-43.88a2.38,2.38,0,1,1,3.18-3.54l47.19,42.46,73.48-65.5a2.38,2.38,0,0,1,3.15,0l36.81,32,44.27-39a2.38,2.38,0,1,1,3.15,3.56l-45.84,40.4a2.36,2.36,0,0,1-3.13,0l-36.8-32-73.52,65.53A2.36,2.36,0,0,1,719.78,632.85Z" transform="translate(10.25 0)"/><circle class="cls-51" cx="681.96" cy="586.89" r="6.83"/><circle class="cls-19" cx="719.55" cy="629.82" r="6.83" transform="translate(-224.35 693.27) rotate(-45)"/><circle class="cls-52" cx="794.86" cy="564.22" r="6.83" transform="translate(73.36 1208.18) rotate(-76.72)"/><circle class="cls-53" cx="833.49" cy="596.32" r="6.83" transform="translate(-167.29 764.02) rotate(-45)"/><circle class="cls-54" cx="889.2" cy="556.6" r="6.83"/><path class="cls-34" d="M743.44,610.43a43.41,43.41,0,0,0-63.81,58.77l-6,6a6.82,6.82,0,0,0-6.44,1.81L614.25,730a6.84,6.84,0,0,0,9.67,9.67l52.9-52.89a6.83,6.83,0,0,0,1.8-6.43l6-6a43.42,43.42,0,0,0,58.77-63.82Z" transform="translate(10.25 0)"/><rect class="cls-55" x="612.96" y="695.1" width="92.59" height="7.14" transform="translate(-290.69 670.81) rotate(-45)"/><circle class="cls-56" cx="730.38" cy="637.63" r="38.07"/><path class="cls-57" d="M621.69,736.24a6.84,6.84,0,0,1,0-9.67l52.89-52.9a6.84,6.84,0,1,1,9.68,9.68l-52.9,52.89A6.84,6.84,0,0,1,621.69,736.24Z" transform="translate(10.25 0)"/><path class="cls-19" d="M744.94,603.36,719.59,626l-23.44-21.08a16.24,16.24,0,0,1-7.34,6.14l27.6,24.83a4.72,4.72,0,0,0,6.32,0L751,610.62A15.69,15.69,0,0,1,744.94,603.36Z" transform="translate(10.25 0)"/><circle class="cls-58" cx="729.37" cy="631.01" r="13.63"/><path class="cls-55" d="M689.48,668.45a43.42,43.42,0,1,1,61.4,0A43.46,43.46,0,0,1,689.48,668.45Zm56.35-56.35a36.28,36.28,0,1,0,0,51.31A36.32,36.32,0,0,0,745.83,612.1Z" transform="translate(10.25 0)"/><path class="cls-59" d="M739.26,612.18a31.77,31.77,0,1,0-31.91,54.62C706.23,644.41,718.65,621,739.26,612.18Z" transform="translate(10.25 0)"/><rect class="cls-60" x="4.46" y="658.88" width="213.16" height="303.44" rx="17.96"/><rect class="cls-61" x="16.63" y="658.88" width="213.16" height="303.44" rx="17.96"/><rect class="cls-62" x="34.23" y="684.6" width="177.95" height="61.42"/><rect class="cls-63" x="34.53" y="767.8" width="36.57" height="14.32" rx="4.51"/><rect class="cls-63" x="81.39" y="767.8" width="36.57" height="14.32" rx="4.51"/><rect class="cls-63" x="128.25" y="767.8" width="36.57" height="14.32" rx="4.51"/><rect class="cls-20" x="175.11" y="767.8" width="36.57" height="14.32" rx="4.51"/><rect class="cls-63" x="34.53" y="795.57" width="36.57" height="36.57" rx="7.2"/><rect class="cls-63" x="81.39" y="795.57" width="36.57" height="36.57" rx="7.2"/><rect class="cls-63" x="128.25" y="795.57" width="36.57" height="36.57" rx="7.2"/><rect class="cls-63" x="175.11" y="795.57" width="36.57" height="36.57" rx="7.2"/><rect class="cls-63" x="34.53" y="845.79" width="36.57" height="36.57" rx="7.2"/><rect class="cls-63" x="81.39" y="845.79" width="36.57" height="36.57" rx="7.2"/><rect class="cls-63" x="128.25" y="845.79" width="36.57" height="36.57" rx="7.2"/><rect class="cls-63" x="175.11" y="845.79" width="36.57" height="36.57" rx="7.2"/><rect class="cls-63" x="34.53" y="896" width="36.57" height="36.57" rx="7.2"/><rect class="cls-63" x="81.39" y="896" width="36.57" height="36.57" rx="7.2"/><rect class="cls-63" x="128.25" y="896" width="36.57" height="36.57" rx="7.2"/><rect class="cls-63" x="175.11" y="896" width="36.57" height="36.57" rx="7.2"/><path class="cls-63" d="M450.73,905.06l-.06,6.21,8-2.27a.76.76,0,0,0,0-1.49Z" transform="translate(10.25 0)"/><path class="cls-12" d="M452.06,904.39c-10.26-3.14-28.61-5.52-28.26-5.2h-.5l-.17,17.3h.51c-.14-.12,18.09-1.85,28.35-4.59Z" transform="translate(10.25 0)"/><path class="cls-64" d="M423.2,910l-.07,6.52h.51c-.14-.12,18.09-1.85,28.35-4.59l0-3.59C442.41,908.82,432.79,909.22,423.2,910Z" transform="translate(10.25 0)"/><polygon class="cls-65" points="387.68 896.78 434.97 897.36 434.77 918.32 387.48 917.74 387.68 896.78"/><g class="cls-66"><path d="M421.25,912.6c-8.24-.35-16.5-.66-24.75-.37-6.3.23-12.85,1.28-19.23,1.17l0,4.34,47.29.58.05-5.57C423.46,912.69,422.36,912.64,421.25,912.6Z" transform="translate(10.25 0)"/></g><g class="cls-66"><path d="M408.51,917.7a158.88,158.88,0,0,1-1.31-20.56l-29.77-.36-.2,21,31.34.39Z" transform="translate(10.25 0)"/></g><polygon class="cls-67" points="187.54 891.72 415.64 894.51 415.38 920.7 187.28 917.91 187.54 891.72"/><g class="cls-68"><path d="M268.57,914.32c-7.87,0-13.7-6.43-14-14a12.5,12.5,0,0,1,2.23-7.59l-79.47-1L177,917.91l228.1,2.79.07-6.38Z" transform="translate(10.25 0)"/></g><path class="cls-16" d="M271.59,892.87l-94.3-1.15L177,917.91l95.36,1.16A89.37,89.37,0,0,1,271.59,892.87Z" transform="translate(10.25 0)"/><path class="cls-69" d="M268.73,921.15l-106.52-1.3c-3.58-.05-6.45-3.33-6.41-7.34l.16-15.92c0-4,3-7.22,6.55-7.18L269,890.72Z" transform="translate(10.25 0)"/><g class="cls-68"><path d="M209.83,911.83a162.74,162.74,0,0,1-18.08.5c-10.18-.39-20.34-.1-30.52-.09a13,13,0,0,1-3.45-.43,14,14,0,0,1-2-.21v.91c0,4,2.83,7.29,6.41,7.34l106.52,1.3.1-9.32Z" transform="translate(10.25 0)"/></g><polygon class="cls-12" points="191.39 889.64 177.08 889.47 176.78 919.9 191.09 920.08 191.39 889.64"/><path class="cls-12" d="M257.15,921.35l-88-1.08.05-4.71,73.37.89v-1.09a2.46,2.46,0,0,1,.83-1.85,1.92,1.92,0,0,1,1.8-.41l12.45,3.61a2.36,2.36,0,0,1,1.56,2.59A2.2,2.2,0,0,1,257.15,921.35Z" transform="translate(10.25 0)"/><path class="cls-20" d="M103.35,919.81H358.53a0,0,0,0,1,0,0v42.86a0,0,0,0,1,0,0H103.35a21.43,21.43,0,0,1-21.43-21.43v0a21.43,21.43,0,0,1,21.43-21.43Z"/><rect class="cls-70" x="448.51" y="919.81" width="33.36" height="42.86"/><path class="cls-71" d="M78.16,956.36a26.13,26.13,0,0,0,17.38,6.31H348.28v-6.31Z" transform="translate(10.25 0)"/><path class="cls-8" d="M243.14,958.63a17.39,17.39,0,0,1,0-34.78H477.5v34.78Z" transform="translate(10.25 0)"/><path class="cls-72" d="M480.24,954.59H244.57c-7.57,0-14-5.68-14.2-12.94-.23-7.55,6.1-13.75,13.91-13.75h236a4.13,4.13,0,0,0,4.21-4h0a4.13,4.13,0,0,0-4.21-4h-236c-12.34,0-22.34,9.6-22.34,21.43h0c0,11.84,10,21.43,22.34,21.43h236a4.13,4.13,0,0,0,4.21-4h0A4.13,4.13,0,0,0,480.24,954.59Z" transform="translate(10.25 0)"/><path class="cls-73" d="M242.25,934.35l36.49-.37,17.68-.18,19.73-.17,42.87-.32,21.78-.21c7.19-.09,14.26-.11,21.1-.15s13.45,0,19.73.11l9.13.1,8.54.15c5.48.09,10.49.21,14.94.32l6.23.16,5.29.18c3.19.12,5.7.19,7.41.26l2.62.12v.29l-2.62.12c-1.71.07-4.22.14-7.41.26l-5.29.18-6.23.16c-4.45.11-9.46.23-14.94.32l-8.54.15-9.13.1c-6.28.08-12.89.11-19.73.11s-13.91-.06-21.1-.15L359,935.68l-42.87-.32-19.73-.17L278.74,935l-36.49-.38Z" transform="translate(10.25 0)"/><path class="cls-73" d="M475.79,941.86l-36.49.37-17.67.18-19.73.16L359,942.9l-21.78.2c-7.18.09-14.25.12-21.09.16s-13.46,0-19.73-.11l-9.14-.11-8.54-.14c-5.47-.09-10.49-.21-14.94-.32l-6.23-.17-5.28-.18c-3.2-.11-5.71-.18-7.42-.26l-2.62-.11v-.3l2.62-.11c1.71-.08,4.22-.15,7.42-.26l5.28-.18,6.23-.17c4.45-.1,9.47-.23,14.94-.32l8.54-.14,9.14-.11c6.27-.08,12.88-.1,19.73-.11s13.91.07,21.09.16l21.78.2,42.88.33,19.73.16,17.67.18,36.49.37Z" transform="translate(10.25 0)"/><path class="cls-73" d="M475.79,949.5l-27.48.38-13.32.17-14.86.16-32.29.33-16.41.2c-5.41.09-10.74.15-15.89.16s-10.14,0-14.86-.11l-6.88-.11-6.44-.14c-4.12-.09-7.9-.21-11.25-.32s-6.27-.23-8.67-.33-4.3-.2-5.59-.28l-2-.11v-.3l2-.11,5.59-.27c2.4-.11,5.32-.22,8.67-.34s7.13-.23,11.25-.32l6.44-.14,6.88-.1c4.72-.09,9.7-.11,14.86-.11s10.48.07,15.89.15l16.41.2,32.29.33,14.86.16,13.32.17,27.48.38Z" transform="translate(10.25 0)"/><rect class="cls-74" x="1072.23" y="459.44" width="149.51" height="149.51" rx="19.87"/><path class="cls-8" d="M1151.11,536.82a15.94,15.94,0,0,0-3.28-5.56L1139.1,534a30.52,30.52,0,0,0-4.68-4.3l2.09-9.05c-.88-.43-1.91-.9-2.84-1.38a7.44,7.44,0,0,0-2.86-1.28l-5.6,7.77a15.1,15.1,0,0,0-6.36-.75l-3.46-8.78a25.49,25.49,0,0,0-6.36,1.42v9.45a20.53,20.53,0,0,0-5.46,3l-7.83-4.93a37.05,37.05,0,0,0-4.38,4.79l5.55,7.56c-.59,1-1.14,2-1.58,2.78-.37.94-.78,2.14-1.17,2.94l-9.28.91a34.59,34.59,0,0,0-.61,6.34l8.92,2.9a20.82,20.82,0,0,0,1.26,6.06l-7.17,6.19c1,1.81,1.82,4,3.28,5.57l8.85-3.07a19.21,19.21,0,0,0,4.55,4.58l-2.13,9a33,33,0,0,0,3.05,1.35,10.93,10.93,0,0,1,2.75,1.33l5.52-7.77a29,29,0,0,0,6.34.73l3.45,8.77a27.22,27.22,0,0,0,6.37-1.4l0-9.42a35.53,35.53,0,0,0,5.4-3l8.11,4.55a20.38,20.38,0,0,0,4.22-4.56l-5.55-7.55a20.18,20.18,0,0,0,1.52-2.61c.45-1.14.83-2.21,1.11-3l9.29-.91a23,23,0,0,0,.71-6.37l-8.92-2.79a27,27,0,0,0-1.23-6Zm-17,21.15a16.26,16.26,0,0,1-21.69,8,16.41,16.41,0,1,1,21.69-8Z" transform="translate(10.25 0)"/><path class="cls-8" d="M1184.39,492.4a11.34,11.34,0,0,0-3.11-3.41l-5.69,3.22a21.58,21.58,0,0,0-3.9-2.31l.13-6.63c-.68-.17-1.47-.35-2.19-.55a5.3,5.3,0,0,0-2.18-.47l-2.78,6.25a11,11,0,0,0-4.55.41l-3.71-5.62a18.44,18.44,0,0,0-4.24,1.93l1.4,6.6a14.73,14.73,0,0,0-3.38,2.87L1144,492.4a26.42,26.42,0,0,0-2.36,4l5,4.47c-.26.8-.5,1.59-.7,2.17s-.23,1.61-.38,2.23l-6.35,2a24.46,24.46,0,0,0,.51,4.52l6.65.71a14.91,14.91,0,0,0,1.77,4l-4.09,5.38a18.53,18.53,0,0,0,3.11,3.41l5.73-3.45a13.74,13.74,0,0,0,3.85,2.53l-.16,6.61a21.49,21.49,0,0,0,2.33.5,8,8,0,0,1,2.12.53l2.71-6.24a21.07,21.07,0,0,0,4.54-.43L1172,531a19.78,19.78,0,0,0,4.24-1.91l-1.35-6.59a24.92,24.92,0,0,0,3.33-2.9l6.33,2a14.43,14.43,0,0,0,2.28-3.81l-5-4.45a13.56,13.56,0,0,0,.68-2.05c.15-.86.26-1.67.34-2.23l6.36-2a16.44,16.44,0,0,0-.44-4.56l-6.65-.64a19.27,19.27,0,0,0-1.74-4Zm-8.77,17.28a11.61,11.61,0,0,1-14,8.81,11.72,11.72,0,1,1,14-8.81Z" transform="translate(10.25 0)"/><rect class="cls-20" x="936.04" y="662.65" width="139.2" height="139.2" rx="18.5"/><path class="cls-8" d="M967.52,737.82q-19.5,0-19.5-19.51v-5.57q0-19.5,19.5-19.51T987,712.74v5.57Q987,737.83,967.52,737.82Zm-8.36-19.51q0,8.37,8.36,8.37t8.36-8.37v-5.57q0-8.36-8.36-8.36t-8.36,8.36Zm11.15,53,38.46-78h11.71l-38.46,78Zm72.46-19.5q0,19.5-19.51,19.5t-19.51-19.5v-5.58q0-19.5,19.51-19.5t19.51,19.5Zm-27.87,0q0,8.36,8.36,8.36t8.36-8.36v-5.58q0-8.35-8.36-8.36t-8.36,8.36Z" transform="translate(10.25 0)"/><g class="cls-75"><path class="cls-63" d="M133.29,716.58c-.19,0-.2,0-1.78,1.72a.32.32,0,0,0-.09.23v16.25a.33.33,0,0,0,.06.19,14.9,14.9,0,0,0,1.57,1.74.39.39,0,0,0,.24.1.35.35,0,0,0,.24-.1,15.34,15.34,0,0,0,1.58-1.74.33.33,0,0,0,.06-.19V718.53a.36.36,0,0,0-.09-.23C133.5,716.58,133.48,716.58,133.29,716.58Z" transform="translate(10.25 0)"/><path class="cls-63" d="M133.53,694a.33.33,0,0,0-.48,0,13.37,13.37,0,0,0-1.57,1.74.3.3,0,0,0-.06.18v16.25a.33.33,0,0,0,.06.19,14.09,14.09,0,0,0,1.57,1.74.34.34,0,0,0,.24.1.31.31,0,0,0,.24-.1,14.49,14.49,0,0,0,1.58-1.74.33.33,0,0,0,.06-.19V695.91a.3.3,0,0,0-.06-.18A13.73,13.73,0,0,0,133.53,694Z" transform="translate(10.25 0)"/><path class="cls-63" d="M157.38,733.12a.33.33,0,0,0-.19-.06H144a.33.33,0,0,0-.19.06,14.49,14.49,0,0,0-1.74,1.58.33.33,0,0,0,0,.47,14.49,14.49,0,0,0,1.74,1.58.33.33,0,0,0,.19.06h13.18a.33.33,0,0,0,.19-.06,14.49,14.49,0,0,0,1.74-1.58.35.35,0,0,0,.1-.24.33.33,0,0,0-.1-.23A14.49,14.49,0,0,0,157.38,733.12Z" transform="translate(10.25 0)"/><path class="cls-63" d="M142.24,733.74a.35.35,0,0,0,.24-.1,14.37,14.37,0,0,0,1.58-1.74.33.33,0,0,0,.06-.19V718.53a.33.33,0,0,0-.06-.19,14.37,14.37,0,0,0-1.58-1.74.35.35,0,0,0-.24-.1.33.33,0,0,0-.23.1,14.37,14.37,0,0,0-1.58,1.74.33.33,0,0,0-.06.19v13.18a.33.33,0,0,0,.06.19,14.37,14.37,0,0,0,1.58,1.74A.33.33,0,0,0,142.24,733.74Z" transform="translate(10.25 0)"/><path class="cls-63" d="M159,716.6a.34.34,0,0,0-.48,0,15.34,15.34,0,0,0-1.58,1.74.32.32,0,0,0,0,.19v13.18a.32.32,0,0,0,0,.19,13.73,13.73,0,0,0,1.58,1.74.31.31,0,0,0,.24.1.34.34,0,0,0,.24-.1,14.9,14.9,0,0,0,1.57-1.74.33.33,0,0,0,.06-.19V718.53a.33.33,0,0,0-.06-.19A14.9,14.9,0,0,0,159,716.6Z" transform="translate(10.25 0)"/><path class="cls-63" d="M143.75,697.5a.37.37,0,0,0,.18,0h13.19a.37.37,0,0,0,.18,0,14.61,14.61,0,0,0,1.74-1.58.31.31,0,0,0,.1-.24.33.33,0,0,0-.1-.24,13.37,13.37,0,0,0-1.74-1.57.3.3,0,0,0-.18-.06H143.93a.3.3,0,0,0-.18.06,13.37,13.37,0,0,0-1.74,1.57.33.33,0,0,0,0,.48A14.61,14.61,0,0,0,143.75,697.5Z" transform="translate(10.25 0)"/><path class="cls-63" d="M159,697a.33.33,0,0,0-.48,0,13.73,13.73,0,0,0-1.58,1.74.29.29,0,0,0,0,.18v13.19a.29.29,0,0,0,0,.18,13.73,13.73,0,0,0,1.58,1.74.31.31,0,0,0,.24.1.34.34,0,0,0,.24-.1,13.37,13.37,0,0,0,1.57-1.74.3.3,0,0,0,.06-.18V698.9a.3.3,0,0,0-.06-.18A13.37,13.37,0,0,0,159,697Z" transform="translate(10.25 0)"/><path class="cls-63" d="M142,714a.29.29,0,0,0,.23.1.31.31,0,0,0,.24-.1,13,13,0,0,0,1.58-1.74.3.3,0,0,0,.06-.18V698.9a.3.3,0,0,0-.06-.18,13,13,0,0,0-1.58-1.74.31.31,0,0,0-.24-.1.29.29,0,0,0-.23.1,13,13,0,0,0-1.58,1.74.3.3,0,0,0-.06.18v13.19a.3.3,0,0,0,.06.18A13,13,0,0,0,142,714Z" transform="translate(10.25 0)"/><path class="cls-63" d="M169.93,714a.31.31,0,0,0,.24.1.33.33,0,0,0,.24-.1,13.73,13.73,0,0,0,1.58-1.74.37.37,0,0,0,0-.18V698.9a.37.37,0,0,0,0-.18,13.73,13.73,0,0,0-1.58-1.74.33.33,0,0,0-.24-.1.31.31,0,0,0-.24.1,13.73,13.73,0,0,0-1.58,1.74.37.37,0,0,0,0,.18v13.19a.37.37,0,0,0,0,.18A13.73,13.73,0,0,0,169.93,714Z" transform="translate(10.25 0)"/><path class="cls-63" d="M171.67,697.5a.41.41,0,0,0,.19,0H185a.41.41,0,0,0,.19,0,16.45,16.45,0,0,0,1.74-1.58.35.35,0,0,0,.1-.24.37.37,0,0,0-.1-.24,14.9,14.9,0,0,0-1.74-1.57.33.33,0,0,0-.19-.06H171.86a.33.33,0,0,0-.19.06,13.37,13.37,0,0,0-1.74,1.57.34.34,0,0,0,0,.48A14.61,14.61,0,0,0,171.67,697.5Z" transform="translate(10.25 0)"/><path class="cls-63" d="M186.89,716.6a.34.34,0,0,0-.48,0,14.9,14.9,0,0,0-1.57,1.74.33.33,0,0,0-.06.19v13.18a.33.33,0,0,0,.06.19,13.37,13.37,0,0,0,1.57,1.74.34.34,0,0,0,.48,0,15.34,15.34,0,0,0,1.58-1.74.41.41,0,0,0,.05-.19V718.53a.41.41,0,0,0-.05-.19A15.34,15.34,0,0,0,186.89,716.6Z" transform="translate(10.25 0)"/><path class="cls-63" d="M188.47,698.72a13.73,13.73,0,0,0-1.58-1.74.33.33,0,0,0-.48,0,13.37,13.37,0,0,0-1.57,1.74.3.3,0,0,0-.06.18v13.19a.3.3,0,0,0,.06.18,13.37,13.37,0,0,0,1.57,1.74.34.34,0,0,0,.48,0,13.73,13.73,0,0,0,1.58-1.74.37.37,0,0,0,.05-.18V698.9A.37.37,0,0,0,188.47,698.72Z" transform="translate(10.25 0)"/><path class="cls-63" d="M170.17,733.74a.37.37,0,0,0,.24-.1A15.34,15.34,0,0,0,172,731.9a.41.41,0,0,0,0-.19V718.53a.41.41,0,0,0,0-.19,15.34,15.34,0,0,0-1.58-1.74.37.37,0,0,0-.24-.1.35.35,0,0,0-.24.1,15.34,15.34,0,0,0-1.58,1.74.41.41,0,0,0,0,.19v13.18a.41.41,0,0,0,0,.19,15.34,15.34,0,0,0,1.58,1.74A.35.35,0,0,0,170.17,733.74Z" transform="translate(10.25 0)"/><path class="cls-63" d="M185.3,733.12a.3.3,0,0,0-.18-.06H171.93a.3.3,0,0,0-.18.06A13.73,13.73,0,0,0,170,734.7a.32.32,0,0,0,0,.47,13.73,13.73,0,0,0,1.74,1.58.3.3,0,0,0,.18.06h13.19a.3.3,0,0,0,.18-.06,13.73,13.73,0,0,0,1.74-1.58.31.31,0,0,0,.1-.24.29.29,0,0,0-.1-.23A13.73,13.73,0,0,0,185.3,733.12Z" transform="translate(10.25 0)"/></g></g></g></g></g></svg>