<svg xmlns="http://www.w3.org/2000/svg" xmlns:xlink="http://www.w3.org/1999/xlink" width="22" height="22" viewBox="0 0 22 22">
  <defs>
    <clipPath id="clip-path">
      <path id="icon_target" data-name="icon / target" d="M11,22A10.968,10.968,0,0,1,0,11,10.968,10.968,0,0,1,11,0,10.968,10.968,0,0,1,22,11,10.968,10.968,0,0,1,11,22ZM11,2a9,9,0,1,0,9,9A9.01,9.01,0,0,0,11,2Zm0,16a6.956,6.956,0,1,1,4.963-2.037A6.964,6.964,0,0,1,11,18ZM11,6a5,5,0,1,0,5,5A4.946,4.946,0,0,0,11,6Zm0,8a2.934,2.934,0,0,1-3-3,2.934,2.934,0,0,1,3-3,2.934,2.934,0,0,1,3,3A2.935,2.935,0,0,1,11,14Zm0-4a1,1,0,1,0,1,1A.947.947,0,0,0,11,10Z" transform="translate(1 1)" fill="#222b45"/>
    </clipPath>
  </defs>
  <g id="ic-target" transform="translate(-1 -1)">
    <g id="Group_36" data-name="Group 36">
      <path id="icon_target-2" data-name="icon / target" d="M11,22A10.968,10.968,0,0,1,0,11,10.968,10.968,0,0,1,11,0,10.968,10.968,0,0,1,22,11,10.968,10.968,0,0,1,11,22ZM11,2a9,9,0,1,0,9,9A9.01,9.01,0,0,0,11,2Zm0,16a6.956,6.956,0,1,1,4.963-2.037A6.964,6.964,0,0,1,11,18ZM11,6a5,5,0,1,0,5,5A4.946,4.946,0,0,0,11,6Zm0,8a2.934,2.934,0,0,1-3-3,2.934,2.934,0,0,1,3-3,2.934,2.934,0,0,1,3,3A2.935,2.935,0,0,1,11,14Zm0-4a1,1,0,1,0,1,1A.947.947,0,0,0,11,10Z" transform="translate(1 1)" fill="#222b45"/>
    </g>
  </g>
</svg>
