<svg xmlns="http://www.w3.org/2000/svg" xmlns:xlink="http://www.w3.org/1999/xlink" width="74.5" height="74.172" viewBox="0 0 74.5 74.172">
  <defs>
    <clipPath id="clip-path">
      <rect id="Rectangle_5986" data-name="Rectangle 5986" width="74.5" height="74.172" transform="translate(0 0)" fill="#910c8c"/>
    </clipPath>
  </defs>
  <g id="ic-ut4" transform="translate(0 0)">
    <g id="Group_8836" data-name="Group 8836" clip-path="url(#clip-path)">
      <path id="Path_31009" data-name="Path 31009" d="M64.453,63.152A1.25,1.25,0,0,1,63.2,61.9V32.578a3.841,3.841,0,0,0-3.836-3.836H33.838a1.25,1.25,0,0,1,0-2.5H59.367A6.343,6.343,0,0,1,65.7,32.578V61.9a1.25,1.25,0,0,1-1.25,1.25" fill="#910c8c"/>
      <path id="Path_31010" data-name="Path 31010" d="M8.332,63.152a1.25,1.25,0,0,1-1.25-1.25V42.332a1.25,1.25,0,0,1,2.5,0V61.9a1.25,1.25,0,0,1-1.25,1.25" fill="#910c8c"/>
      <path id="Path_31011" data-name="Path 31011" d="M21.171,68.3H4.975A4.564,4.564,0,0,1,.417,63.743v-1.36a1.732,1.732,0,0,1,1.73-1.73H24.625a1.25,1.25,0,0,1,0,2.5H2.917v.59A2.06,2.06,0,0,0,4.975,65.8h16.2a1.25,1.25,0,0,1,0,2.5" fill="#910c8c"/>
      <path id="Path_31012" data-name="Path 31012" d="M67.811,68.3H51.682a1.25,1.25,0,0,1,0-2.5H67.811a2.059,2.059,0,0,0,2.057-2.056v-.591H48.16a1.25,1.25,0,0,1,0-2.5H70.638a1.732,1.732,0,0,1,1.73,1.73v1.361A4.561,4.561,0,0,1,67.811,68.3m2.827-5.147h0Z" fill="#910c8c"/>
      <path id="Path_31013" data-name="Path 31013" d="M36.515,32.578h-.246a1.25,1.25,0,0,1,0-2.5h.246a1.25,1.25,0,1,1,0,2.5" fill="#910c8c"/>
      <path id="Path_31014" data-name="Path 31014" d="M64.453,36.414H35.676a1.25,1.25,0,0,1,0-2.5H64.453a1.25,1.25,0,0,1,0,2.5" fill="#910c8c"/>
      <path id="Path_31015" data-name="Path 31015" d="M68.774,30.65a1.233,1.233,0,0,1-.208-.017,1.25,1.25,0,0,1-1.026-1.439,3.17,3.17,0,0,0-2.456-3.62,1.25,1.25,0,0,1,.528-2.444A5.669,5.669,0,0,1,70,29.606a1.25,1.25,0,0,1-1.231,1.044" fill="#910c8c"/>
      <path id="Path_31016" data-name="Path 31016" d="M73.121,31.865a1.233,1.233,0,0,1-.208-.017,1.249,1.249,0,0,1-1.026-1.439,8.162,8.162,0,0,0-6.332-9.325,1.25,1.25,0,0,1,.526-2.445,10.664,10.664,0,0,1,8.271,12.182,1.25,1.25,0,0,1-1.231,1.044" fill="#910c8c"/>
      <path id="Path_31017" data-name="Path 31017" d="M36.391,59.4a8.549,8.549,0,1,1,8.549-8.55,8.559,8.559,0,0,1-8.549,8.55m0-14.6a6.049,6.049,0,1,0,6.049,6.049A6.057,6.057,0,0,0,36.391,44.8" fill="#910c8c"/>
      <path id="Path_31018" data-name="Path 31018" d="M36.39,74.172a33.6,33.6,0,0,1-11.291-1.8,1.25,1.25,0,0,1-.783-1.339,12.2,12.2,0,0,1,24.153.031,1.25,1.25,0,0,1-.79,1.339A34.114,34.114,0,0,1,36.39,74.172m-9.4-3.805a33.7,33.7,0,0,0,9.4,1.305,34.162,34.162,0,0,0,9.4-1.282,9.7,9.7,0,0,0-18.8-.023" fill="#910c8c"/>
      <path id="Path_31019" data-name="Path 31019" d="M16.534,32.625A5.424,5.424,0,1,1,21.957,27.2a5.43,5.43,0,0,1-5.423,5.424m0-8.347A2.924,2.924,0,1,0,19.457,27.2a2.927,2.927,0,0,0-2.923-2.923" fill="#910c8c"/>
      <path id="Path_31020" data-name="Path 31020" d="M18.928,44.528H14.14a2.489,2.489,0,0,1-2.4-1.846l-.444-1.669A3.3,3.3,0,0,0,9.75,39a3.378,3.378,0,0,0-2.565-.35L5.524,39.1a2.485,2.485,0,0,1-2.8-1.157L.332,33.791a2.485,2.485,0,0,1,.4-3l1.346-1.343A3.161,3.161,0,0,0,3,27.225a3.188,3.188,0,0,0-.923-2.269L.729,23.614a2.487,2.487,0,0,1-.4-3l2.394-4.147a2.489,2.489,0,0,1,2.8-1.157l1.661.448a3.359,3.359,0,0,0,2.533-.332,3.318,3.318,0,0,0,1.576-2.035l.444-1.668a2.489,2.489,0,0,1,2.4-1.846h4.788a2.489,2.489,0,0,1,2.4,1.845l.444,1.67a3.367,3.367,0,0,0,4.11,2.366l1.66-.448a2.487,2.487,0,0,1,2.8,1.157l2.394,4.147a2.487,2.487,0,0,1-.4,3l-1.346,1.343a3.193,3.193,0,0,0,0,4.491l1.346,1.342a2.487,2.487,0,0,1,.4,3l-2.394,4.147a2.486,2.486,0,0,1-2.8,1.157l-1.661-.447a3.367,3.367,0,0,0-4.109,2.366l-.444,1.669a2.489,2.489,0,0,1-2.4,1.845M8.042,36.036a5.868,5.868,0,0,1,2.927.779,5.793,5.793,0,0,1,2.74,3.555l.445,1.67,4.774-.012.429-1.658a5.867,5.867,0,0,1,7.176-4.136l1.66.447,2.377-4.14-1.343-1.323a5.691,5.691,0,0,1,0-8.031l1.346-1.343-2.4-4.128-1.643.455a5.867,5.867,0,0,1-7.175-4.136l-.445-1.67-4.773.011-.43,1.658A5.776,5.776,0,0,1,11,17.571a5.889,5.889,0,0,1-4.465.6l-1.661-.448L2.5,21.863l1.344,1.323A5.681,5.681,0,0,1,5.5,27.18a5.706,5.706,0,0,1-1.657,4.038L2.495,32.561l2.4,4.127,1.644-.454a5.785,5.785,0,0,1,1.507-.2m-5.084-5.7h0Z" fill="#910c8c"/>
      <path id="Path_31021" data-name="Path 31021" d="M44.481,15.283A3.885,3.885,0,1,1,48.365,11.4a3.889,3.889,0,0,1-3.884,3.885m0-5.269A1.385,1.385,0,1,0,45.865,11.4a1.386,1.386,0,0,0-1.384-1.384" fill="#910c8c"/>
      <path id="Path_31022" data-name="Path 31022" d="M45.992,22.8H42.97a2.032,2.032,0,0,1-1.961-1.507l-.281-1.053a1.619,1.619,0,0,0-.76-.993,1.667,1.667,0,0,0-1.269-.175l-1.048.283a2.036,2.036,0,0,1-2.285-.944l-1.512-2.619a2.033,2.033,0,0,1,.325-2.452l.849-.847a1.509,1.509,0,0,0,.447-1.077,1.525,1.525,0,0,0-.447-1.105l-.849-.848a2.033,2.033,0,0,1-.325-2.452l1.512-2.617a2.031,2.031,0,0,1,2.285-.945l1.049.283a1.655,1.655,0,0,0,1.248-.164,1.631,1.631,0,0,0,.779-1l.282-1.055A2.031,2.031,0,0,1,42.97,0h3.022a2.033,2.033,0,0,1,1.961,1.506l.281,1.055a1.62,1.62,0,0,0,.76.993,1.65,1.65,0,0,0,1.269.175l1.047-.283a2.034,2.034,0,0,1,2.287.945l1.511,2.617a2.035,2.035,0,0,1-.325,2.452l-.85.848a1.533,1.533,0,0,0-.446,1.077,1.552,1.552,0,0,0,.446,1.1l.85.847a2.036,2.036,0,0,1,.326,2.451L53.6,18.407a2.037,2.037,0,0,1-2.285.945l-1.049-.283a1.665,1.665,0,0,0-2.028,1.167l-.281,1.054A2.033,2.033,0,0,1,45.992,22.8m-2.661-2.5h2.3l.187-.7a4.165,4.165,0,0,1,5.094-2.938l.7.188,1.15-1.991-.594-.592a4.056,4.056,0,0,1,0-5.722l.594-.593-1.15-1.991-.7.189a4.113,4.113,0,0,1-3.15-.414A4.114,4.114,0,0,1,45.818,3.2l-.187-.7h-2.3l-.188.7a4.1,4.1,0,0,1-1.924,2.513,4.184,4.184,0,0,1-3.169.425l-.7-.189L36.2,7.945l.594.592a4.057,4.057,0,0,1,0,5.723l-.594.592,1.15,1.991.7-.188a4.171,4.171,0,0,1,3.15.413,4.112,4.112,0,0,1,1.944,2.525Zm-7.42-6.922h0Z" fill="#910c8c"/>
    </g>
  </g>
</svg>
