<svg xmlns="http://www.w3.org/2000/svg" xmlns:xlink="http://www.w3.org/1999/xlink" width="74.5" height="70.324" viewBox="0 0 74.5 70.324">
  <defs>
    <clipPath id="clip-path">
      <rect id="Rectangle_5981" data-name="Rectangle 5981" width="74.5" height="70.324" transform="translate(0 0)" fill="#18a19c"/>
    </clipPath>
  </defs>
  <g id="ic-ut1" transform="translate(0 0)">
    <g id="Group_8832" data-name="Group 8832" clip-path="url(#clip-path)">
      <path id="Path_30980" data-name="Path 30980" d="M28.093,70.324a1.25,1.25,0,0,1-1.25-1.25v-3.03a1.25,1.25,0,0,1,2.5,0v3.03a1.25,1.25,0,0,1-1.25,1.25" fill="#18a19c"/>
      <path id="Path_30981" data-name="Path 30981" d="M22.408,70.324a1.25,1.25,0,0,1-1.25-1.25V67.943c0-7.242,3.312-10.893,11.433-12.6a1.25,1.25,0,1,1,.514,2.446c-7.063,1.487-9.447,4.05-9.447,10.156v1.131a1.25,1.25,0,0,1-1.25,1.25" fill="#18a19c"/>
      <path id="Path_30982" data-name="Path 30982" d="M52.092,70.324a1.25,1.25,0,0,1-1.25-1.25V67.943c0-6.106-2.384-8.669-9.447-10.156a1.25,1.25,0,1,1,.514-2.446c8.121,1.709,11.433,5.36,11.433,12.6v1.131a1.25,1.25,0,0,1-1.25,1.25" fill="#18a19c"/>
      <path id="Path_30983" data-name="Path 30983" d="M46.407,70.324a1.25,1.25,0,0,1-1.25-1.25v-3.03a1.25,1.25,0,0,1,2.5,0v3.03a1.25,1.25,0,0,1-1.25,1.25" fill="#18a19c"/>
      <path id="Path_30984" data-name="Path 30984" d="M37.25,59.832A7.058,7.058,0,0,1,31.9,57.38a1.253,1.253,0,0,1,0-1.627,5.425,5.425,0,0,0,1.3-2.677,1.25,1.25,0,0,1,2.5,0,6.571,6.571,0,0,1-1.19,3.338,4.7,4.7,0,0,0,5.48.008,6.436,6.436,0,0,1-1.18-3.347,1.25,1.25,0,0,1,2.5,0,5.249,5.249,0,0,0,1.285,2.662,1.255,1.255,0,0,1,.01,1.643,7.058,7.058,0,0,1-5.35,2.452" fill="#18a19c"/>
      <path id="Path_30985" data-name="Path 30985" d="M37.25,55.423a7.226,7.226,0,0,1-5.1-2.779,13.748,13.748,0,0,1-3.2-10.678c.578-4.6,3.992-7.816,8.3-7.816s7.723,3.214,8.3,7.816a13.748,13.748,0,0,1-3.2,10.678,7.226,7.226,0,0,1-5.1,2.779m0-18.773c-3.011,0-5.4,2.314-5.821,5.628a11.211,11.211,0,0,0,2.6,8.712,4.978,4.978,0,0,0,3.222,1.933,4.978,4.978,0,0,0,3.222-1.933,11.211,11.211,0,0,0,2.6-8.712c-.417-3.314-2.81-5.628-5.821-5.628" fill="#18a19c"/>
      <path id="Path_30986" data-name="Path 30986" d="M48.188,55.09a1.25,1.25,0,0,1-.625-2.334A21.191,21.191,0,0,1,53.747,50.6a1.25,1.25,0,0,1,.517,2.446,18.757,18.757,0,0,0-5.455,1.877,1.245,1.245,0,0,1-.621.166" fill="#18a19c"/>
      <path id="Path_30987" data-name="Path 30987" d="M73.25,70.324A1.25,1.25,0,0,1,72,69.074V63.2c0-6.106-2.384-8.669-9.448-10.156a1.25,1.25,0,0,1,.515-2.447C71.187,52.311,74.5,55.962,74.5,63.2v5.871a1.25,1.25,0,0,1-1.25,1.25" fill="#18a19c"/>
      <path id="Path_30988" data-name="Path 30988" d="M67.564,70.324a1.25,1.25,0,0,1-1.25-1.25V61.3a1.25,1.25,0,0,1,2.5,0v7.771a1.25,1.25,0,0,1-1.25,1.25" fill="#18a19c"/>
      <path id="Path_30989" data-name="Path 30989" d="M58.407,55.092a7.056,7.056,0,0,1-5.349-2.452,1.251,1.251,0,0,1,0-1.627,5.423,5.423,0,0,0,1.3-2.677,1.25,1.25,0,0,1,2.5,0,6.571,6.571,0,0,1-1.19,3.338,4.694,4.694,0,0,0,5.48.008,6.436,6.436,0,0,1-1.18-3.347,1.25,1.25,0,1,1,2.5,0A5.249,5.249,0,0,0,63.747,51a1.255,1.255,0,0,1,.01,1.643,7.058,7.058,0,0,1-5.35,2.452" fill="#18a19c"/>
      <path id="Path_30990" data-name="Path 30990" d="M58.408,50.683a7.224,7.224,0,0,1-5.1-2.779,13.739,13.739,0,0,1-3.2-10.677c.578-4.6,3.991-7.817,8.3-7.817s7.723,3.215,8.3,7.817a13.746,13.746,0,0,1-3.2,10.677,7.226,7.226,0,0,1-5.1,2.779m0-18.773c-3.011,0-5.405,2.314-5.821,5.628a11.207,11.207,0,0,0,2.6,8.711,4.98,4.98,0,0,0,3.223,1.934A4.976,4.976,0,0,0,61.63,46.25a11.21,11.21,0,0,0,2.6-8.712c-.416-3.314-2.809-5.628-5.82-5.628" fill="#18a19c"/>
      <path id="Path_30991" data-name="Path 30991" d="M26.313,55.09a1.247,1.247,0,0,1-.623-.166,18.76,18.76,0,0,0-5.454-1.877,1.25,1.25,0,1,1,.516-2.446,21.192,21.192,0,0,1,6.184,2.155,1.25,1.25,0,0,1-.623,2.334" fill="#18a19c"/>
      <path id="Path_30992" data-name="Path 30992" d="M1.25,70.324A1.25,1.25,0,0,1,0,69.074V63.2c0-7.241,3.313-10.892,11.433-12.6a1.25,1.25,0,0,1,.515,2.447C4.884,54.534,2.5,57.1,2.5,63.2v5.871a1.25,1.25,0,0,1-1.25,1.25" fill="#18a19c"/>
      <path id="Path_30993" data-name="Path 30993" d="M6.936,70.324a1.25,1.25,0,0,1-1.25-1.25V61.3a1.25,1.25,0,0,1,2.5,0v7.771a1.25,1.25,0,0,1-1.25,1.25" fill="#18a19c"/>
      <path id="Path_30994" data-name="Path 30994" d="M16.093,55.092a7.058,7.058,0,0,1-5.35-2.452,1.249,1.249,0,0,1,.013-1.645,5.256,5.256,0,0,0,1.282-2.66,1.25,1.25,0,0,1,2.5,0,6.436,6.436,0,0,1-1.18,3.347,4.694,4.694,0,0,0,5.48-.008,6.571,6.571,0,0,1-1.19-3.338,1.25,1.25,0,0,1,2.5,0,5.52,5.52,0,0,0,1.3,2.677,1.251,1.251,0,0,1,0,1.627,7.056,7.056,0,0,1-5.349,2.452" fill="#18a19c"/>
      <path id="Path_30995" data-name="Path 30995" d="M16.093,50.683A7.222,7.222,0,0,1,11,47.9a13.736,13.736,0,0,1-3.2-10.677c.578-4.6,3.991-7.817,8.3-7.817s7.723,3.215,8.3,7.817A13.745,13.745,0,0,1,21.19,47.9a7.226,7.226,0,0,1-5.1,2.78m0-18.774c-3.011,0-5.405,2.315-5.821,5.629a11.208,11.208,0,0,0,2.6,8.711,4.98,4.98,0,0,0,3.223,1.934,4.978,4.978,0,0,0,3.222-1.934,11.209,11.209,0,0,0,2.6-8.711c-.416-3.314-2.81-5.629-5.82-5.629M9.032,37.382h0Z" fill="#18a19c"/>
      <path id="Path_30996" data-name="Path 30996" d="M50.064,31a1.25,1.25,0,0,1-1.25-1.25,11.564,11.564,0,1,0-23.128,0,1.25,1.25,0,1,1-2.5,0,14.064,14.064,0,1,1,28.128,0A1.25,1.25,0,0,1,50.064,31" fill="#18a19c"/>
      <path id="Path_30997" data-name="Path 30997" d="M65.753,29.672a1.25,1.25,0,0,1-1.25-1.25V26.465a.656.656,0,0,0-.476-.629L59.286,24.5a4.572,4.572,0,0,1-2.742-6.619l2.409-4.295a.657.657,0,0,0-.107-.782L54.2,8.157a.656.656,0,0,0-.781-.108l-4.307,2.416A4.571,4.571,0,0,1,42.5,7.717L41.167,2.975a.656.656,0,0,0-.629-.475H33.962a.654.654,0,0,0-.628.476L32,7.717a4.572,4.572,0,0,1-6.619,2.742l-4.3-2.41a.654.654,0,0,0-.781.108l-4.65,4.649a.656.656,0,0,0-.107.781l2.409,4.3A4.573,4.573,0,0,1,15.227,24.5l-4.754,1.337a.656.656,0,0,0-.476.629v1.957a1.25,1.25,0,1,1-2.5,0V26.465A3.164,3.164,0,0,1,9.8,23.43l4.754-1.338a2,2,0,0,0,1.314-1.167,2.049,2.049,0,0,0-.089-1.819l-2.409-4.3a3.162,3.162,0,0,1,.521-3.771l4.649-4.65a3.165,3.165,0,0,1,3.772-.52l4.3,2.409A2.072,2.072,0,0,0,29.593,7.04L30.927,2.3A3.164,3.164,0,0,1,33.962,0h6.576a3.164,3.164,0,0,1,3.035,2.3L44.907,7.04a2.072,2.072,0,0,0,2.978,1.244l4.307-2.415a3.165,3.165,0,0,1,3.772.52l4.649,4.65a3.163,3.163,0,0,1,.521,3.772l-2.409,4.3a2.026,2.026,0,0,0-.106,1.778A2.047,2.047,0,0,0,59.962,22.1L64.7,23.43A3.164,3.164,0,0,1,67,26.465v1.957a1.25,1.25,0,0,1-1.25,1.25" fill="#18a19c"/>
    </g>
  </g>
</svg>
