<svg id="ic-ut3" xmlns="http://www.w3.org/2000/svg" xmlns:xlink="http://www.w3.org/1999/xlink" width="74.5" height="73.783" viewBox="0 0 74.5 73.783">
  <defs>
    <clipPath id="clip-path">
      <rect id="Rectangle_5982" data-name="Rectangle 5982" width="74.5" height="73.783" transform="translate(0 0)" fill="#5c63b4"/>
    </clipPath>
  </defs>
  <g id="Group_8834" data-name="Group 8834" clip-path="url(#clip-path)">
    <path id="Path_30998" data-name="Path 30998" d="M35.117,73.783a1.25,1.25,0,0,1-1.25-1.25V42.626a1.25,1.25,0,0,1,2.5,0V72.533a1.25,1.25,0,0,1-1.25,1.25" fill="#5c63b4"/>
    <path id="Path_30999" data-name="Path 30999" d="M35.117,38.172a1.25,1.25,0,0,1-1.25-1.25V26.715a1.25,1.25,0,0,1,2.5,0V36.922a1.25,1.25,0,0,1-1.25,1.25" fill="#5c63b4"/>
    <path id="Path_31000" data-name="Path 31000" d="M55.254,29.729a1.249,1.249,0,0,1-.606-2.343,1.576,1.576,0,0,0,.952-1.417c0-.318,0-1.06-1.619-1.645-4.472-1.615-14.7-.179-17.957,3.251a1.25,1.25,0,0,1-2.157-.861V5.537a1.247,1.247,0,0,1,.344-.861C38.186.492,49.557-1.109,54.83.794c2.7.977,3.27,2.713,3.27,4a1.25,1.25,0,0,1-2.5,0c0-.317,0-1.06-1.619-1.645-4.323-1.563-14.032-.27-17.614,2.919V24.2c4.991-2.92,13.956-3.854,18.463-2.225,2.7.975,3.27,2.711,3.27,4a4.029,4.029,0,0,1-2.242,3.6,1.232,1.232,0,0,1-.6.157" fill="#5c63b4"/>
    <path id="Path_31001" data-name="Path 31001" d="M56.85,27.219a1.25,1.25,0,0,1-1.25-1.25V4.791a1.25,1.25,0,0,1,2.5,0V25.969a1.25,1.25,0,0,1-1.25,1.25" fill="#5c63b4"/>
    <path id="Path_31002" data-name="Path 31002" d="M56.433,33.723a17.786,17.786,0,0,1-5.728-.761c-2.7-.975-3.269-2.711-3.27-4a4.033,4.033,0,0,1,2.24-3.6,1.25,1.25,0,0,1,1.213,2.187,1.574,1.574,0,0,0-.953,1.417c0,.317,0,1.06,1.619,1.644,4.12,1.487,15.09.121,19.578-2.668a38.1,38.1,0,0,1-7.1-6.586A1.25,1.25,0,0,1,64,19.8a26.949,26.949,0,0,0,4.634-9.931,24.038,24.038,0,0,1-7.285,2.307A1.25,1.25,0,1,1,60.945,9.7c3.878-.641,7.08-1.959,8.566-3.524a1.249,1.249,0,0,1,2.151.967A29.8,29.8,0,0,1,66.591,20.5a34.577,34.577,0,0,0,7.3,6.273,1.251,1.251,0,0,1,.269,1.936c-2.932,3.085-11.323,5.013-17.724,5.013" fill="#5c63b4"/>
    <path id="Path_31003" data-name="Path 31003" d="M40.031,29.976a1.25,1.25,0,0,1-.491-2.4A27.168,27.168,0,0,1,44.191,26.1a1.251,1.251,0,0,1,.551,2.44,24.65,24.65,0,0,0-4.222,1.335,1.228,1.228,0,0,1-.489.1" fill="#5c63b4"/>
    <path id="Path_31004" data-name="Path 31004" d="M73.25,73.783h-72a1.25,1.25,0,0,1,0-2.5h72a1.25,1.25,0,0,1,0,2.5" fill="#5c63b4"/>
    <path id="Path_31005" data-name="Path 31005" d="M11.315,73.783a1.25,1.25,0,0,1-1.25-1.25V45.118a1.25,1.25,0,0,1,2.5,0V72.533a1.25,1.25,0,0,1-1.25,1.25" fill="#5c63b4"/>
    <path id="Path_31006" data-name="Path 31006" d="M17.761,73.783a1.25,1.25,0,0,1-1.25-1.25V57.521a1.25,1.25,0,1,1,2.5,0V72.533a1.25,1.25,0,0,1-1.25,1.25" fill="#5c63b4"/>
    <path id="Path_31007" data-name="Path 31007" d="M17.761,33.958a7.743,7.743,0,0,1-7.734-7.734V24.6a7.734,7.734,0,0,1,15.468,0v1.62a7.743,7.743,0,0,1-7.734,7.734m0-14.588A5.239,5.239,0,0,0,12.527,24.6v1.62a5.234,5.234,0,0,0,10.468,0V24.6a5.239,5.239,0,0,0-5.234-5.234" fill="#5c63b4"/>
    <path id="Path_31008" data-name="Path 31008" d="M24.206,73.783a1.25,1.25,0,0,1-1.25-1.25v-28.2a2.957,2.957,0,0,1,2.954-2.953h9.6a1.6,1.6,0,1,0,0-3.2H13.564a6.71,6.71,0,0,0-6.7,6.7V54.959a1.6,1.6,0,0,0,3.2,0,1.25,1.25,0,0,1,2.5,0,4.1,4.1,0,0,1-8.2,0V44.874a9.214,9.214,0,0,1,9.2-9.2H35.513a4.1,4.1,0,0,1,0,8.2h-9.6a.454.454,0,0,0-.454.453v28.2a1.25,1.25,0,0,1-1.25,1.25" fill="#5c63b4"/>
  </g>
</svg>
