<svg id="ic-ut2" xmlns="http://www.w3.org/2000/svg" xmlns:xlink="http://www.w3.org/1999/xlink" width="74.5" height="70.172" viewBox="0 0 74.5 70.172">
  <defs>
    <clipPath id="clip-path">
      <rect id="Rectangle_5980" data-name="Rectangle 5980" width="74.5" height="70.172" transform="translate(0 0)" fill="#e8ae48"/>
    </clipPath>
  </defs>
  <g id="Group_8830" data-name="Group 8830" clip-path="url(#clip-path)">
    <path id="Path_30969" data-name="Path 30969" d="M73.25,70.172h-72a1.25,1.25,0,0,1,0-2.5h72a1.25,1.25,0,0,1,0,2.5" fill="#e8ae48"/>
    <path id="Path_30970" data-name="Path 30970" d="M11.314,70.172a1.25,1.25,0,0,1-1.25-1.25V41.508a1.25,1.25,0,0,1,2.5,0V68.922a1.25,1.25,0,0,1-1.25,1.25" fill="#e8ae48"/>
    <path id="Path_30971" data-name="Path 30971" d="M17.761,70.172a1.25,1.25,0,0,1-1.25-1.25V53.911a1.25,1.25,0,0,1,2.5,0V68.922a1.25,1.25,0,0,1-1.25,1.25" fill="#e8ae48"/>
    <path id="Path_30972" data-name="Path 30972" d="M17.761,30.347a7.742,7.742,0,0,1-7.734-7.733v-1.62a7.734,7.734,0,0,1,15.468,0v1.62a7.742,7.742,0,0,1-7.734,7.733m0-14.587a5.239,5.239,0,0,0-5.234,5.234v1.62a5.234,5.234,0,0,0,10.468,0v-1.62a5.239,5.239,0,0,0-5.234-5.234" fill="#e8ae48"/>
    <path id="Path_30973" data-name="Path 30973" d="M24.2,70.172a1.25,1.25,0,0,1-1.25-1.25v-28.2a2.957,2.957,0,0,1,2.954-2.954h9.6a1.6,1.6,0,0,0,0-3.2H13.563a6.71,6.71,0,0,0-6.7,6.7V51.349a1.6,1.6,0,0,0,3.2,0,1.25,1.25,0,0,1,2.5,0,4.1,4.1,0,0,1-8.2,0V41.264a9.213,9.213,0,0,1,9.2-9.2h21.95a4.1,4.1,0,0,1,0,8.2h-9.6a.455.455,0,0,0-.454.454v28.2a1.25,1.25,0,0,1-1.25,1.25" fill="#e8ae48"/>
    <path id="Path_30974" data-name="Path 30974" d="M50.446,42.438A19.533,19.533,0,0,1,42.3,40.679,1.25,1.25,0,1,1,43.335,38.4,17.165,17.165,0,1,0,34.11,28.121a1.25,1.25,0,0,1-2.375.781A19.7,19.7,0,1,1,50.446,42.438" fill="#e8ae48"/>
    <path id="Path_30975" data-name="Path 30975" d="M50.446,8.6a1.25,1.25,0,0,1-1.25-1.25V1.25a1.25,1.25,0,0,1,2.5,0V7.355a1.25,1.25,0,0,1-1.25,1.25" fill="#e8ae48"/>
    <path id="Path_30976" data-name="Path 30976" d="M50.446,45.49a1.25,1.25,0,0,1-1.25-1.25V38.135a1.25,1.25,0,0,1,2.5,0V44.24a1.25,1.25,0,0,1-1.25,1.25" fill="#e8ae48"/>
    <path id="Path_30977" data-name="Path 30977" d="M35.056,24h-6.1a1.25,1.25,0,0,1,0-2.5h6.1a1.25,1.25,0,0,1,0,2.5" fill="#e8ae48"/>
    <path id="Path_30978" data-name="Path 30978" d="M71.941,24H65.836a1.25,1.25,0,0,1,0-2.5h6.105a1.25,1.25,0,0,1,0,2.5" fill="#e8ae48"/>
    <path id="Path_30979" data-name="Path 30979" d="M50.446,30.555a7.81,7.81,0,1,1,7.811-7.81,7.819,7.819,0,0,1-7.811,7.81m0-13.12a5.31,5.31,0,1,0,5.311,5.31,5.316,5.316,0,0,0-5.311-5.31" fill="#e8ae48"/>
  </g>
</svg>
