<svg xmlns="http://www.w3.org/2000/svg" width="57.8" height="40.5" viewBox="0 0 57.8 40.5">
  <g id="ic_contract_link4" transform="translate(-2.2 -10.9)">
    <path id="Path_15722" data-name="Path 15722" d="M26.8,29.5l-7.1-3.2-1.1-.5L14.8,24l-12,5.5-.6.3V45.7l12,5.5.5.2.5-.2,12-5.5V29.8Zm-12-4.2L18.6,27l1.1.5,5.8,2.6L14.8,35,4.2,30.1Zm-.5,24.6L3.4,45V31l10.9,5V49.9Zm12-4.9L15.4,50V36l10.9-5Z" fill="#0b3e68"/>
    <path id="Path_15723" data-name="Path 15723" d="M59.5,29.5,47.5,24l-3.8,1.7-1.1.5-7.1,3.2-.5.4V45.7l12,5.5.5.2.5-.2,12-5.5V29.8Zm-16.9-2,1.1-.5,3.8-1.7,10.7,4.9L47.5,35,36.8,30.1ZM47,49.9l-10.9-5V31L47,36ZM59,45,48.1,50V36L59,31Z" fill="#0b3e68"/>
    <path id="Path_15724" data-name="Path 15724" d="M43.2,16.4l-12-5.5-12,5.5-.5.2v15h1.1V17.9l10.9,5v14l-3.2-1.5-1.1-.5-3.6-1.6-.5,1,4.1,1.8,1.1.5,3.2,1.5.5.2.5-.2,3.2-1.5,1.1-.5,3.8-1.7-.5-1-3.4,1.5-.9.5-3.2,1.5v-14l10.9-5V31.7h1.1v-15Zm-12,5.5L20.5,17l10.7-4.9L41.9,17Z" fill="#0b3e68"/>
  </g>
</svg>
