<svg xmlns="http://www.w3.org/2000/svg" width="60.3" height="53.525" viewBox="0 0 60.3 53.525">
  <g id="ic_contract_link2" transform="translate(-1 -4.5)">
    <g id="Group_4180" data-name="Group 4180">
      <g id="Group_4179" data-name="Group 4179">
        <g id="Group_4178" data-name="Group 4178">
          <path id="Path_15704" data-name="Path 15704" d="M29.4,47.7l-3.1,2.7a2.181,2.181,0,0,0-.4-.5c-.1-.2-.3-.3-.5-.5l2.9-2.6C28.7,47.2,29.1,47.4,29.4,47.7Z" fill="#0b3e68"/>
        </g>
      </g>
    </g>
    <g id="Group_4183" data-name="Group 4183">
      <g id="Group_4182" data-name="Group 4182">
        <g id="Group_4181" data-name="Group 4181">
          <path id="Path_15705" data-name="Path 15705" d="M27.1,53.4a4.137,4.137,0,0,0-.8-2.9,2.181,2.181,0,0,0-.4-.5c-.1-.2-.3-.3-.5-.5a2.177,2.177,0,0,0-.8-.5,4.672,4.672,0,0,0-5.5.6,4.834,4.834,0,0,0-.4,6.8,10.591,10.591,0,0,0,1.2,1,4.672,4.672,0,0,0,5.5-.6A5.3,5.3,0,0,0,27.1,53.4Zm-2.5,2.3a3.468,3.468,0,0,1-4,.4,5.5,5.5,0,0,1-.9-.7,3.84,3.84,0,0,1-.9-2.5A3.7,3.7,0,0,1,20,50.5a3.468,3.468,0,0,1,4-.4c.1.1.3.2.4.3.2.1.3.3.5.4a1.756,1.756,0,0,1,.4.5,4.552,4.552,0,0,1,.5,2A3.7,3.7,0,0,1,24.6,55.7Z" fill="#0b3e68"/>
        </g>
      </g>
    </g>
    <g id="Group_4186" data-name="Group 4186">
      <g id="Group_4185" data-name="Group 4185">
        <g id="Group_4184" data-name="Group 4184">
          <path id="Path_15706" data-name="Path 15706" d="M47.3,14.3l-4.8,4.2a4.44,4.44,0,0,0-1.1-.8l5-4.3a2.651,2.651,0,0,0,.5.6A1.38,1.38,0,0,0,47.3,14.3Z" fill="#0b3e68"/>
        </g>
      </g>
    </g>
    <g id="Group_4189" data-name="Group 4189">
      <g id="Group_4188" data-name="Group 4188">
        <g id="Group_4187" data-name="Group 4187">
          <path id="Path_15707" data-name="Path 15707" d="M53.7,29.7a1.952,1.952,0,0,0,.1.7H47.9v-.3c.3-.3.6-.7.9-1h5C53.7,29.2,53.7,29.4,53.7,29.7Z" fill="#0b3e68"/>
        </g>
      </g>
    </g>
    <g id="Group_4192" data-name="Group 4192">
      <g id="Group_4191" data-name="Group 4191">
        <g id="Group_4190" data-name="Group 4190">
          <path id="Path_15708" data-name="Path 15708" d="M25.7,16.2l-1.2.6-3-5.8a4.129,4.129,0,0,0,1.1-.7Z" fill="#0b3e68"/>
        </g>
      </g>
    </g>
    <g id="Group_4195" data-name="Group 4195">
      <g id="Group_4194" data-name="Group 4194">
        <g id="Group_4193" data-name="Group 4193">
          <path id="Path_15709" data-name="Path 15709" d="M48.1,42.9a2.181,2.181,0,0,0-.5.4,1.756,1.756,0,0,0-.4.5l-3.3-3.3a7.006,7.006,0,0,0,.8-1Z" fill="#0b3e68"/>
        </g>
      </g>
    </g>
    <g id="Group_4198" data-name="Group 4198">
      <g id="Group_4197" data-name="Group 4197">
        <g id="Group_4196" data-name="Group 4196">
          <path id="Path_15710" data-name="Path 15710" d="M17,28.5h0v.6a11.215,11.215,0,0,1-1.3.5H7.5c0-.2.1-.4.1-.6a1.7,1.7,0,0,0-.1-.7h9.3Z" fill="#0b3e68"/>
        </g>
      </g>
    </g>
    <g id="Group_4201" data-name="Group 4201">
      <g id="Group_4200" data-name="Group 4200">
        <g id="Group_4199" data-name="Group 4199">
          <path id="Path_15711" data-name="Path 15711" d="M57.5,25.9A3.768,3.768,0,0,0,53.8,29c0,.2-.1.4-.1.7a1.952,1.952,0,0,0,.1.7,3.754,3.754,0,0,0,3.7,3.1,3.8,3.8,0,0,0,0-7.6Zm0,6.2a2.584,2.584,0,0,1-2.4-1.8,1.483,1.483,0,0,1-.1-.7,1.952,1.952,0,0,1,.1-.7,2.5,2.5,0,1,1,2.4,3.2Z" fill="#0b3e68"/>
        </g>
      </g>
    </g>
    <g id="Group_4204" data-name="Group 4204">
      <g id="Group_4203" data-name="Group 4203">
        <g id="Group_4202" data-name="Group 4202">
          <path id="Path_15712" data-name="Path 15712" d="M55.3,6.3a5.6,5.6,0,0,0-4.2-1.8A5.367,5.367,0,0,0,47.3,6a5.672,5.672,0,0,0-.9,7.3,2.651,2.651,0,0,0,.5.6c.1.1.2.3.4.4a5.838,5.838,0,0,0,3.8,1.5,5.367,5.367,0,0,0,3.8-1.5,5.316,5.316,0,0,0,1.8-3.9A5.711,5.711,0,0,0,55.3,6.3Zm-1.3,7a4.357,4.357,0,0,1-2.9,1.1,4.779,4.779,0,0,1-2.8-1c-.1-.1-.3-.2-.4-.4-.2-.2-.3-.4-.5-.6a4.3,4.3,0,0,1,.8-5.5,4.364,4.364,0,0,1,6.1.3,4.111,4.111,0,0,1,1.1,3.1A4.473,4.473,0,0,1,54,13.3Z" fill="#0b3e68"/>
        </g>
      </g>
    </g>
    <g id="Group_4207" data-name="Group 4207">
      <g id="Group_4206" data-name="Group 4206">
        <g id="Group_4205" data-name="Group 4205">
          <path id="Path_15713" data-name="Path 15713" d="M22.6,5.7a3.255,3.255,0,0,0-2.3-1,2.9,2.9,0,0,0-2.3,1,3.2,3.2,0,0,0,0,4.6,3.255,3.255,0,0,0,2.3,1,5.019,5.019,0,0,0,1.2-.2,4.129,4.129,0,0,0,1.1-.7h0a3.255,3.255,0,0,0,1-2.3A2.965,2.965,0,0,0,22.6,5.7ZM18.9,9.4a1.933,1.933,0,0,1,0-2.8,1.933,1.933,0,0,1,2.8,0A1.816,1.816,0,0,1,22.3,8a2.051,2.051,0,0,1-2,2A3.506,3.506,0,0,1,18.9,9.4Z" fill="#0b3e68"/>
        </g>
      </g>
    </g>
    <g id="Group_4210" data-name="Group 4210">
      <g id="Group_4209" data-name="Group 4209">
        <g id="Group_4208" data-name="Group 4208">
          <path id="Path_15714" data-name="Path 15714" d="M52.3,43.3a3.255,3.255,0,0,0-2.3-1,3.743,3.743,0,0,0-1.8.5,2.181,2.181,0,0,0-.5.4,1.756,1.756,0,0,0-.4.5,3.28,3.28,0,0,0,.5,4.1,3.445,3.445,0,0,0,2.3,1,2.9,2.9,0,0,0,2.3-1A3.369,3.369,0,0,0,52.3,43.3Zm-1,3.7a2,2,0,0,1-3.4-1.4,1.884,1.884,0,0,1,.2-.8,1,1,0,0,1,.4-.5,2.092,2.092,0,0,1,.6-.4,2.354,2.354,0,0,1,.8-.2,1.974,1.974,0,0,1,1.4.6A1.819,1.819,0,0,1,51.3,47Z" fill="#0b3e68"/>
        </g>
      </g>
    </g>
    <g id="Group_4213" data-name="Group 4213">
      <g id="Group_4212" data-name="Group 4212">
        <g id="Group_4211" data-name="Group 4211">
          <path id="Path_15715" data-name="Path 15715" d="M7.5,28.3a3.228,3.228,0,0,0-3.2-2.6h0A3.381,3.381,0,0,0,1,28.9a3.244,3.244,0,0,0,3.2,3.3h0a3.228,3.228,0,0,0,3.2-2.6c0-.2.1-.4.1-.6A.854.854,0,0,0,7.5,28.3ZM4.3,30.9h0a2.006,2.006,0,0,1-2-2,1.923,1.923,0,0,1,2-1.9h0a2.072,2.072,0,0,1,1.8,1.3,1.483,1.483,0,0,1,.1.7,1.268,1.268,0,0,1-.1.6A1.75,1.75,0,0,1,4.3,30.9Z" fill="#0b3e68"/>
        </g>
      </g>
    </g>
    <path id="Path_15716" data-name="Path 15716" d="M32.1,15.9A11.468,11.468,0,0,1,43.6,27.4c0,2.637-1.882,6.583-5.594,11.73-2.734,3.791-5.506,6.874-5.534,6.9l-.371.412-.371-.412c-.028-.031-2.8-3.114-5.534-6.9C22.482,33.983,20.6,30.037,20.6,27.4A11.468,11.468,0,0,1,32.1,15.9Zm0,29.044C34.007,42.758,42.6,32.617,42.6,27.4a10.5,10.5,0,0,0-21,0c0,2.389,1.869,6.242,5.406,11.145C29.123,41.48,31.26,43.983,32.1,44.944Z" fill="#0b3e68"/>
    <path id="Ellipse_581" data-name="Ellipse 581" d="M4.7-.5A5.2,5.2,0,1,1-.5,4.7,5.206,5.206,0,0,1,4.7-.5Zm0,9.4A4.2,4.2,0,1,0,.5,4.7,4.2,4.2,0,0,0,4.7,8.9Z" transform="translate(27.6 21.7)" fill="#0b3e68"/>
  </g>
</svg>
