<svg xmlns="http://www.w3.org/2000/svg" width="59.91" height="50.9" viewBox="0 0 59.91 50.9">
  <g id="ic_contract_link1" transform="translate(-1.2 -7.5)">
    <g id="Group_4148" data-name="Group 4148">
      <path id="Path_15701" data-name="Path 15701" d="M45.8,7.5H11.4a3.255,3.255,0,0,0-1.4.4.1.1,0,0,0-.1.1H9.6c-.1,0-.1.1-.2.1,0,.1-.1.2-.2.3h0c-.1.1-.2.1-.3.2h0l-.2.2a.349.349,0,0,0-.1.2h0l-.3.3h0c-.1.2-.2.3-.2.5-.1,0-.1.1-.1.2s-.1.2-.1.4v.2c0,.1,0,.2-.1.2V33.3H1.2v9A3.868,3.868,0,0,0,5.1,46h9.5v6.4H42.9a6.117,6.117,0,0,1-.5-1.2H15.8V11.5a3.631,3.631,0,0,0-1.2-2.8h31a3.009,3.009,0,0,1,3,3V39.5a5.019,5.019,0,0,1,1.2-.2V11.7A3.885,3.885,0,0,0,45.8,7.5ZM2.5,42.2V34.4H7.7v7.8a2.647,2.647,0,0,1-2.6,2.6A2.647,2.647,0,0,1,2.5,42.2Zm12.1,2.6H7.9c.1-.1.2-.2.2-.3a.349.349,0,0,0,.1-.2.349.349,0,0,0,.1-.2A3.7,3.7,0,0,0,8.8,43V10.8c0-.1.1-.2.1-.3s.1-.1.1-.2c.1-.1.1-.3.2-.4,0-.1.1-.1.2-.2h0l.1-.1.1-.1h0l.1-.1.1-.1.2-.2c.4-.1.6-.1.7-.2h.1a1.483,1.483,0,0,1,.7-.1h1.2c.1,0,.1,0,.2.1A.1.1,0,0,1,13,9a3.178,3.178,0,0,1,1.6,1.8,2.769,2.769,0,0,1,.1.9V44.8Z" fill="#0b3e68"/>
    </g>
    <g id="Group_4152" data-name="Group 4152">
      <g id="Group_4151" data-name="Group 4151">
        <g id="Group_4150" data-name="Group 4150">
          <g id="Group_4149" data-name="Group 4149">
            <rect id="Rectangle_3723" data-name="Rectangle 3723" width="20.4" height="1.2" transform="translate(22.2 14.1)" fill="#0b3e68"/>
          </g>
        </g>
      </g>
    </g>
    <g id="Group_4156" data-name="Group 4156">
      <g id="Group_4155" data-name="Group 4155">
        <g id="Group_4154" data-name="Group 4154">
          <g id="Group_4153" data-name="Group 4153">
            <rect id="Rectangle_3724" data-name="Rectangle 3724" width="20.4" height="1.2" transform="translate(22.2 20.3)" fill="#0b3e68"/>
          </g>
        </g>
      </g>
    </g>
    <g id="Group_4160" data-name="Group 4160">
      <g id="Group_4159" data-name="Group 4159">
        <g id="Group_4158" data-name="Group 4158">
          <g id="Group_4157" data-name="Group 4157">
            <rect id="Rectangle_3725" data-name="Rectangle 3725" width="20.4" height="1.2" transform="translate(22.2 26.4)" fill="#0b3e68"/>
          </g>
        </g>
      </g>
    </g>
    <g id="Group_4164" data-name="Group 4164">
      <g id="Group_4163" data-name="Group 4163">
        <g id="Group_4162" data-name="Group 4162">
          <g id="Group_4161" data-name="Group 4161">
            <rect id="Rectangle_3726" data-name="Rectangle 3726" width="20.4" height="1.2" transform="translate(22.2 32.5)" fill="#0b3e68"/>
          </g>
        </g>
      </g>
    </g>
    <g id="Group_4168" data-name="Group 4168">
      <g id="Group_4167" data-name="Group 4167">
        <g id="Group_4166" data-name="Group 4166">
          <g id="Group_4165" data-name="Group 4165">
            <rect id="Rectangle_3727" data-name="Rectangle 3727" width="13.9" height="1.2" transform="translate(22.2 38.7)" fill="#0b3e68"/>
          </g>
        </g>
      </g>
    </g>
    <g id="Group_4172" data-name="Group 4172">
      <g id="Group_4171" data-name="Group 4171">
        <g id="Group_4170" data-name="Group 4170">
          <g id="Group_4169" data-name="Group 4169">
            <rect id="Rectangle_3728" data-name="Rectangle 3728" width="10.4" height="1.2" transform="translate(22.2 44.8)" fill="#0b3e68"/>
          </g>
        </g>
      </g>
    </g>
    <path id="Path_15702" data-name="Path 15702" d="M59.1,42.1a10.232,10.232,0,0,0-6.8-4,7.084,7.084,0,0,0-1.4-.1H50a5.019,5.019,0,0,0-1.2.2,10.341,10.341,0,0,0-8,8.6,10.821,10.821,0,0,0,.3,4.4,6.117,6.117,0,0,0,.5,1.2,10.168,10.168,0,0,0,7.9,5.9,7.084,7.084,0,0,0,1.4.1A10.23,10.23,0,0,0,61,49.6,9.955,9.955,0,0,0,59.1,42.1Zm.7,7.4a9.042,9.042,0,0,1-8.9,7.8,6.151,6.151,0,0,1-1.3-.1,8.786,8.786,0,0,1-6.7-4.7,6.117,6.117,0,0,1-.5-1.2,8.532,8.532,0,0,1-.4-4.2,9.1,9.1,0,0,1,6.8-7.5,5.019,5.019,0,0,1,1.2-.2h.9a6.151,6.151,0,0,1,1.3.1A8.67,8.67,0,0,1,58.1,43,8.827,8.827,0,0,1,59.8,49.5Z" fill="#0b3e68"/>
    <g id="Group_4177" data-name="Group 4177">
      <g id="Group_4176" data-name="Group 4176">
        <g id="Group_4175" data-name="Group 4175">
          <g id="Group_4174" data-name="Group 4174">
            <g id="Group_4173" data-name="Group 4173">
              <path id="Path_15703" data-name="Path 15703" d="M51.1,47.6c-.4-.1-.8-.3-1.1-.4-.5-.3-.9-.6-.9-1.1A1.009,1.009,0,0,1,50,45a1.949,1.949,0,0,1,.8-.1,4.264,4.264,0,0,1,2.3.8l.7-.9a4.778,4.778,0,0,0-2.3-1V42h-.9v1.7a.749.749,0,0,0-.5.1,3.337,3.337,0,0,0-1.2.5,2.055,2.055,0,0,0-.8,1.8,2,2,0,0,0,.8,1.7,4.494,4.494,0,0,0,1.2.6,6.89,6.89,0,0,0,.8.3c1.3.4,2.1.7,2.1,1.7,0,.9-.8,1.4-1.8,1.4a5.16,5.16,0,0,1-1.1-.2,2.925,2.925,0,0,1-1.2-.7l-.3-.3-.5.6-.2.3a7.1,7.1,0,0,0,1.4,1,7.366,7.366,0,0,0,1.4.4v1.7h.9V52.9c1.7-.1,2.7-1.1,2.7-2.5h0C54.1,48.6,52.8,48.1,51.1,47.6Z" fill="#0b3e68"/>
            </g>
          </g>
        </g>
      </g>
    </g>
  </g>
</svg>
