<svg xmlns="http://www.w3.org/2000/svg" width="100" height="100" viewBox="0 0 100 100">
  <path id="Path_18" data-name="Path 18" d="M278.625,147.273a44.961,44.961,0,1,0,31.806,13.175,44.972,44.972,0,0,0-31.806-13.175Zm0,62.656a3.92,3.92,0,0,1,2.787,1.154l.2.21a3.945,3.945,0,0,1-.2,5.363,3.937,3.937,0,1,1-5.573-5.561v-.012a3.94,3.94,0,0,1,2.786-1.154Zm2.518-9.3a2.513,2.513,0,1,1-5.025,0V169.2a2.513,2.513,0,1,1,5.025,0v31.421ZM278.625,225.9a33.484,33.484,0,1,1,12.883-2.542,33.756,33.756,0,0,1-12.883,2.542Zm14.8,2.087a38.759,38.759,0,1,1,12.557-8.395,38.458,38.458,0,0,1-12.557,8.395Zm-64.79-35.747A50,50,0,1,1,243.275,227.6,50,50,0,0,1,228.631,192.242Z" transform="translate(-228.631 -142.248)" fill="#2e528d" fill-rule="evenodd"/>
</svg>
