<svg xmlns="http://www.w3.org/2000/svg" width="100" height="106.606" viewBox="0 0 100 106.606">
  <path id="Path_16" data-name="Path 16" d="M64.878,182.919a21.793,21.793,0,0,1,12.7,19.818,2.608,2.608,0,0,1-2.6,2.613H36.59a2.618,2.618,0,0,1-2.613-2.613,21.847,21.847,0,0,1,12.7-19.818c-.375-.3-.738-.641-1.089-.98l-.145-.157a14.388,14.388,0,0,1,.145-20.218l.157-.145a14.373,14.373,0,0,1,20.206.145l.145.157a14.388,14.388,0,0,1-.145,20.218c-.339.339-.7.665-1.077.98ZM74.57,148.4h29.607a2.6,2.6,0,0,1,2.19,1.2l3.194,4.029V127.819a1.023,1.023,0,0,0-.29-.69l-.073-.061a.957.957,0,0,0-.629-.23h-34a.977.977,0,0,0-.7.29.949.949,0,0,0-.29.69v19.6a.97.97,0,0,0,.29.69,1,1,0,0,0,.7.29Zm28.361,5.215,7.2,9.111a2.584,2.584,0,0,0,3.642.423,2.554,2.554,0,0,0,.992-2.033h.012v-33.3a6.184,6.184,0,0,0-1.827-4.38l-.181-.157a6.131,6.131,0,0,0-4.2-1.658h-8.99V116.01a6.183,6.183,0,0,0-1.827-4.38h0a6.183,6.183,0,0,0-4.38-1.827h-34a6.223,6.223,0,0,0-4.2,1.645l-.194.182a6.131,6.131,0,0,0-1.815,4.38v33.3h.012a2.591,2.591,0,0,0,4.634,1.6l7.2-9.1h3.351v5.614a6.2,6.2,0,0,0,6.207,6.195ZM68.363,136.579h-4.6a2.611,2.611,0,0,0-2.19,1.2l-3.194,4.041V116.01a1,1,0,0,1,.29-.7l.073-.073a.965.965,0,0,1,.629-.218h34a.977.977,0,0,1,.7.29,1.029,1.029,0,0,1,.29.7v5.614H74.57a6.223,6.223,0,0,0-4.38,1.815l-.012.012a6.217,6.217,0,0,0-1.815,4.368v8.76Zm43.8,31.821a14.4,14.4,0,0,1,10.188,24.586V193c-.339.339-.714.665-1.089.98A21.822,21.822,0,0,1,133.977,213.8a2.61,2.61,0,0,1-2.613,2.613H92.985a2.618,2.618,0,0,1-2.613-2.613,21.847,21.847,0,0,1,12.7-19.819,13.965,13.965,0,0,1-1.089-.98,14.41,14.41,0,0,1,10.175-24.6Zm6.5,7.913a9.189,9.189,0,1,0-6.5,15.681h.012a9.133,9.133,0,0,0,6.485-2.686h.012a9.187,9.187,0,0,0-.012-12.995Zm5.251,25.759a16.54,16.54,0,0,0-11.736-4.852h-.012a16.588,16.588,0,0,0-16.37,13.975h32.765a16.575,16.575,0,0,0-4.646-9.123ZM55.78,180.934h0a9.19,9.19,0,0,0,6.606-15.572l-.121-.109a9.174,9.174,0,0,0-12.874-.121l-.109.121a9.189,9.189,0,0,0-.121,12.886l.121.109a9.162,9.162,0,0,0,6.5,2.686Zm11.736,10.079a16.551,16.551,0,0,0-11.736-4.864h0A16.616,16.616,0,0,0,39.4,200.124H72.162A16.5,16.5,0,0,0,67.516,191.013Z" transform="translate(-33.977 -109.803)" fill="#2e528d" fill-rule="evenodd" opacity="0.8"/>
</svg>
