<svg xmlns="http://www.w3.org/2000/svg" width="61" height="49" viewBox="0 0 61 49">
  <g id="ic_contract_link3" transform="translate(-0.6 -6.7)">
    <g id="Group_4217" data-name="Group 4217">
      <g id="Group_4216" data-name="Group 4216">
        <g id="Group_4215" data-name="Group 4215">
          <g id="Group_4214" data-name="Group 4214">
            <path id="Path_15717" data-name="Path 15717" d="M20.8,53.2a28.508,28.508,0,0,1-3.1-.2,20.114,20.114,0,0,1,3-40,20.5,20.5,0,0,1,10.5,2.9l.6.4L17.2,33.1,32,49.8l-.6.4A20.685,20.685,0,0,1,20.8,53.2Zm0-39.1A19,19,0,0,0,10.1,48.8a20.682,20.682,0,0,0,7.7,3.1,26.417,26.417,0,0,0,2.9.2,19.144,19.144,0,0,0,9.4-2.5L15.6,33.1,30,16.5A18.581,18.581,0,0,0,20.8,14.1Z" fill="#0b3e68"/>
          </g>
        </g>
      </g>
    </g>
    <g id="Group_4223" data-name="Group 4223">
      <g id="Group_4222" data-name="Group 4222">
        <g id="Group_4221" data-name="Group 4221">
          <g id="Group_4220" data-name="Group 4220">
            <g id="Group_4219" data-name="Group 4219">
              <g id="Group_4218" data-name="Group 4218">
                <path id="Path_15718" data-name="Path 15718" d="M45.9,15.8A2.739,2.739,0,0,1,43,18.5v1.8H42V18.5A4.571,4.571,0,0,1,39,17l.8-.9a4.175,4.175,0,0,0,2.9,1.2c1.1,0,1.9-.5,1.9-1.5,0-1.1-.9-1.4-2.2-1.9-1.6-.5-3.1-1-3.1-2.8a2.632,2.632,0,0,1,2.8-2.6V6.7h1V8.6a6.352,6.352,0,0,1,2.5,1.1l-.7.9a5.915,5.915,0,0,0-2.6-.8c-1,0-1.8.5-1.8,1.4s.9,1.3,2.1,1.7c1.9.5,3.3,1,3.3,2.9Z" fill="#0b3e68"/>
              </g>
            </g>
          </g>
        </g>
      </g>
    </g>
    <path id="Path_15719" data-name="Path 15719" d="M51.9,21.5v1.2h4.3L45.4,36.2H24.9L15.3,48.5l.9.7,9.3-11.8H46L57.3,23.2v4.7h1.2V21.5Z" fill="#0b3e68"/>
    <g id="Group_4227" data-name="Group 4227">
      <g id="Group_4226" data-name="Group 4226">
        <g id="Group_4225" data-name="Group 4225">
          <g id="Group_4224" data-name="Group 4224">
            <path id="Path_15720" data-name="Path 15720" d="M36.1,46.1,24.5,33,36,19.9l.4.5a20.515,20.515,0,0,1,4.5,13.4,21.144,21.144,0,0,1-1.4,6.7,16.633,16.633,0,0,1-3,5.2ZM26,33,36,44.3A18.186,18.186,0,0,0,38.4,40v-.1a20.781,20.781,0,0,0,1.3-6.3,19.129,19.129,0,0,0-3.8-12Z" fill="#0b3e68"/>
          </g>
        </g>
      </g>
    </g>
    <g id="Group_4231" data-name="Group 4231">
      <g id="Group_4230" data-name="Group 4230">
        <g id="Group_4229" data-name="Group 4229">
          <g id="Group_4228" data-name="Group 4228">
            <path id="Path_15721" data-name="Path 15721" d="M57.3,55.7H50V45.4H45.6l8-7.5,8,7.5H57.2V55.7Zm-6.1-1.2h5V44.2h2.6l-5.1-4.7-5.1,4.7h2.6Z" fill="#0b3e68"/>
          </g>
        </g>
      </g>
    </g>
  </g>
</svg>
