<svg xmlns="http://www.w3.org/2000/svg" width="41.102" height="37.382" viewBox="0 0 41.102 37.382">
  <g transform="translate(19767.551 2825.66)">
    <path id="icon-link-3" d="M14.679,36.005A4.22,4.22,0,0,1,19.083,32h2.936a4.22,4.22,0,0,1,4.4,4.005V65.377a4.22,4.22,0,0,1-4.4,4.005H19.083a4.22,4.22,0,0,1-4.4-4.005ZM0,52.026a4.22,4.22,0,0,1,4.4-4.005H7.34a4.22,4.22,0,0,1,4.4,4.005V65.377a4.22,4.22,0,0,1-4.4,4.005H4.4A4.22,4.22,0,0,1,0,65.377ZM33.762,37.34H36.7a4.22,4.22,0,0,1,4.4,4.005V65.377a4.22,4.22,0,0,1-4.4,4.005H33.762a4.22,4.22,0,0,1-4.4-4.005V41.346A4.22,4.22,0,0,1,33.762,37.34Z" transform="translate(-19767.551 -2857.66)" fill="#fff"/>
    <path id="icon-link-3_-_Outline" data-name="icon-link-3 - Outline" d="M19.083,35c-.827,0-1.4.53-1.4,1.005V65.377c0,.475.576,1.005,1.4,1.005h2.936c.827,0,1.4-.53,1.4-1.005V36.005c0-.475-.576-1.005-1.4-1.005H19.083m14.679,5.34c-.827,0-1.4.53-1.4,1.005V65.377c0,.475.576,1.005,1.4,1.005H36.7c.827,0,1.4-.53,1.4-1.005V41.346c0-.475-.576-1.005-1.4-1.005H33.762M4.4,51.021c-.827,0-1.4.53-1.4,1.005V65.377c0,.475.576,1.005,1.4,1.005H7.34c.827,0,1.4-.53,1.4-1.005V52.026c0-.475-.576-1.005-1.4-1.005H4.4M19.083,32h2.936a4.22,4.22,0,0,1,4.4,4.005V65.377a4.22,4.22,0,0,1-4.4,4.005H19.083a4.22,4.22,0,0,1-4.4-4.005V36.005A4.22,4.22,0,0,1,19.083,32Zm14.679,5.34H36.7a4.22,4.22,0,0,1,4.4,4.005V65.377a4.22,4.22,0,0,1-4.4,4.005H33.762a4.22,4.22,0,0,1-4.4-4.005V41.346A4.22,4.22,0,0,1,33.762,37.34ZM4.4,48.021H7.34a4.22,4.22,0,0,1,4.4,4.005V65.377a4.22,4.22,0,0,1-4.4,4.005H4.4A4.22,4.22,0,0,1,0,65.377V52.026A4.22,4.22,0,0,1,4.4,48.021Z" transform="translate(-19767.551 -2857.66)" fill="#d32d37"/>
  </g>
</svg>
