<svg id="icon-budget" xmlns="http://www.w3.org/2000/svg" xmlns:xlink="http://www.w3.org/1999/xlink" width="63.533" height="62.424" viewBox="0 0 63.533 62.424">
  <defs>
    <clipPath id="clip-path">
      <rect id="Rectangle_6262" data-name="Rectangle 6262" width="63.533" height="62.424" fill="none"/>
    </clipPath>
  </defs>
  <g id="Group_9015" data-name="Group 9015" clip-path="url(#clip-path)">
    <path id="Path_32098" data-name="Path 32098" d="M428.21,62.424a.788.788,0,1,1,0-1.577,5,5,0,0,0,0-10.006.789.789,0,0,1-.788-.788V.788A.789.789,0,0,1,428.21,0a6.588,6.588,0,0,1,6.58,6.58.788.788,0,0,1-1.577,0A5.011,5.011,0,0,0,429,1.639V49.311a6.58,6.58,0,0,1-.788,13.113" transform="translate(-371.258)" fill="#333652"/>
    <path id="Path_32099" data-name="Path 32099" d="M58.791,89.728H44.864a.788.788,0,1,1,0-1.577H58.791a.788.788,0,1,1,0,1.577" transform="translate(-38.284 -76.568)" fill="#333652"/>
    <path id="Path_32100" data-name="Path 32100" d="M335.538,89.728h-14.02a.788.788,0,1,1,0-1.577h14.02a.788.788,0,1,1,0,1.577" transform="translate(-278.585 -76.568)" fill="#333652"/>
    <path id="Path_32101" data-name="Path 32101" d="M472.285,94.916a.789.789,0,0,1-.788-.788V44.864a.788.788,0,1,1,1.577,0V94.128a.789.789,0,0,1-.788.788" transform="translate(-409.541 -38.284)" fill="#333652"/>
    <path id="Path_32102" data-name="Path 32102" d="M6.58,62.424a6.58,6.58,0,0,1-.788-13.113V1.639A5.011,5.011,0,0,0,1.577,6.58.788.788,0,0,1,0,6.58,6.588,6.588,0,0,1,6.58,0a.789.789,0,0,1,.788.788V50.052a.789.789,0,0,1-.788.788,5,5,0,1,0,0,10.006.788.788,0,0,1,0,1.577" fill="#333652"/>
    <path id="Path_32103" data-name="Path 32103" d="M95.236,464.633H44.863a.788.788,0,0,1,0-1.577H95.236a.788.788,0,0,1,0,1.577" transform="translate(-38.283 -402.209)" fill="#333652"/>
    <path id="Path_32104" data-name="Path 32104" d="M.788,94.916A.789.789,0,0,1,0,94.128V44.864a.788.788,0,0,1,1.577,0V94.128a.789.789,0,0,1-.788.788" transform="translate(0 -38.284)" fill="#333652"/>
    <path id="Path_32105" data-name="Path 32105" d="M164.211,53.565H138.427a.788.788,0,0,1-.788-.788,13.68,13.68,0,0,1,27.361,0,.788.788,0,0,1-.788.788m-24.97-1.577H163.4a12.1,12.1,0,0,0-24.156,0" transform="translate(-119.553 -33.959)" fill="#333652"/>
    <path id="Path_32106" data-name="Path 32106" d="M205.493,53.565a.789.789,0,0,1-.788-.788c0-7.133-2.5-12.1-4.745-12.1s-4.745,4.971-4.745,12.1a.788.788,0,1,1-1.577,0,24.623,24.623,0,0,1,1.685-9.427c1.177-2.743,2.824-4.253,4.637-4.253s3.46,1.51,4.637,4.253a24.625,24.625,0,0,1,1.685,9.427.789.789,0,0,1-.788.788" transform="translate(-168.193 -33.959)" fill="#333652"/>
    <path id="Path_32107" data-name="Path 32107" d="M164.21,158.782H138.426a.788.788,0,1,1,0-1.577H164.21a.788.788,0,1,1,0,1.577" transform="translate(-119.552 -136.548)" fill="#333652"/>
    <path id="Path_32108" data-name="Path 32108" d="M244.217,6.714h-7.679a.789.789,0,0,1-.788-.788V.788A.789.789,0,0,1,236.537,0h7.679a.788.788,0,0,1,.7,1.148l-1.13,2.21,1.13,2.21a.788.788,0,0,1-.7,1.147m-6.891-1.577h5.6L242.2,3.716a.789.789,0,0,1,0-.718l.727-1.421h-5.6Z" transform="translate(-204.771)" fill="#333652"/>
    <path id="Path_32109" data-name="Path 32109" d="M121.453,444.633H80.426a.788.788,0,0,1,0-1.577h41.027a.788.788,0,0,1,0,1.577" transform="translate(-69.173 -384.837)" fill="#333652"/>
    <path id="Path_32110" data-name="Path 32110" d="M141.6,424.633H107.76a.788.788,0,0,1,0-1.577H141.6a.788.788,0,0,1,0,1.577" transform="translate(-92.916 -367.465)" fill="#333652"/>
    <path id="Path_32111" data-name="Path 32111" d="M186.326,210.843a2.315,2.315,0,0,1-2.084-1.165,3.475,3.475,0,0,1-.319-1.815v-.445a10.484,10.484,0,0,1-3.393-1.038c-1.227-.58-2.546-1.351-2.546-3.123a2.832,2.832,0,0,1,.794-1.905,2.337,2.337,0,0,1,1.713-.69,4.228,4.228,0,0,1,2.04.653,6.809,6.809,0,0,0,3.632,1.006c1.35,0,2.959-.323,2.959-1.863a1.67,1.67,0,0,0-.4-1.195,2.5,2.5,0,0,0-1.464-.513l-2.516-.37a7.8,7.8,0,0,1-4.522-1.976,6.272,6.272,0,0,1-1.75-4.7,6.852,6.852,0,0,1,5.451-6.868v-.063a3.466,3.466,0,0,1,.311-1.8l.008-.015a2.446,2.446,0,0,1,4.167,0l.008.015a3.309,3.309,0,0,1,.311,1.7,11.23,11.23,0,0,1,2.977.937,3.2,3.2,0,0,1,2.148,2.775,2.88,2.88,0,0,1-.649,1.769l-.019.022a2.356,2.356,0,0,1-1.824.833,4.25,4.25,0,0,1-1.9-.561,5.911,5.911,0,0,0-2.972-.742c-1.514,0-2.455.674-2.455,1.759a1.276,1.276,0,0,0,.352,1.034,2.673,2.673,0,0,0,1.54.616l2.468.355a7.757,7.757,0,0,1,4.474,1.853,6.579,6.579,0,0,1,1.875,5.03c0,3.489-2.285,6.086-6.013,6.9v.6a3.478,3.478,0,0,1-.317,1.812,2.317,2.317,0,0,1-2.086,1.168m-5.835-8.6a.755.755,0,0,0-.6.228,1.25,1.25,0,0,0-.331.79c0,.624.247,1.038,1.652,1.7a9.1,9.1,0,0,0,3.561.963.789.789,0,0,1,.726.786v1.155c0,.718.029.879.127,1.061a.884.884,0,0,0,1.4,0c.1-.178.125-.34.125-1.058V206.6a.788.788,0,0,1,.667-.779c3.348-.523,5.346-2.568,5.346-5.471a5.087,5.087,0,0,0-1.379-3.882,6.328,6.328,0,0,0-3.619-1.44l-2.472-.356a4.236,4.236,0,0,1-2.37-1.009l-.011-.01a2.827,2.827,0,0,1-.858-2.191c0-1.66,1.247-3.335,4.032-3.335a7.458,7.458,0,0,1,3.7.92,2.745,2.745,0,0,0,1.173.383.778.778,0,0,0,.625-.281,1.313,1.313,0,0,0,.29-.767c0-.484-.46-.987-1.231-1.343a9.578,9.578,0,0,0-3.185-.894.788.788,0,0,1-.708-.784v-.592c0-.738-.034-.879-.129-1.064a.886.886,0,0,0-1.395,0c-.1.185-.129.325-.129,1.064v.7a.788.788,0,0,1-.645.775c-3.009.558-4.806,2.6-4.806,5.46a4.706,4.706,0,0,0,1.272,3.567,6.332,6.332,0,0,0,3.653,1.548l2.518.37a4.007,4.007,0,0,1,2.327.937,3.142,3.142,0,0,1,.879,2.331c0,2.154-1.7,3.44-4.536,3.44a8.338,8.338,0,0,1-4.366-1.187h0a2.776,2.776,0,0,0-1.305-.471" transform="translate(-154.596 -157.904)" fill="#333652"/>
    <path id="Path_32112" data-name="Path 32112" d="M349.362,232.1h-6.548a.788.788,0,0,1-.788-.788v-7.753a.788.788,0,0,1,.788-.788h6.548a.788.788,0,0,1,.788.788v7.753a.788.788,0,0,1-.788.788m-5.76-1.577h4.971v-6.176H343.6Z" transform="translate(-297.082 -193.502)" fill="#333652"/>
    <path id="Path_32113" data-name="Path 32113" d="M351.1,245.352h-6.285a.788.788,0,1,1,0-1.577H351.1a.788.788,0,1,1,0,1.577" transform="translate(-298.819 -211.742)" fill="#333652"/>
    <path id="Path_32114" data-name="Path 32114" d="M349.362,328.1h-6.548a.788.788,0,0,1-.788-.788v-7.753a.788.788,0,0,1,.788-.788h6.548a.788.788,0,0,1,.788.788v7.753a.788.788,0,0,1-.788.788m-5.76-1.577h4.971v-6.176H343.6Z" transform="translate(-297.082 -276.887)" fill="#333652"/>
    <path id="Path_32115" data-name="Path 32115" d="M351.1,341.352h-6.285a.788.788,0,0,1,0-1.577H351.1a.788.788,0,0,1,0,1.577" transform="translate(-298.819 -295.128)" fill="#333652"/>
    <path id="Path_32116" data-name="Path 32116" d="M86.976,232.1H80.427a.788.788,0,0,1-.788-.788v-7.753a.788.788,0,0,1,.788-.788h6.548a.788.788,0,0,1,.788.788v7.753a.788.788,0,0,1-.788.788m-5.76-1.577h4.971v-6.176H81.216Z" transform="translate(-69.174 -193.502)" fill="#333652"/>
    <path id="Path_32117" data-name="Path 32117" d="M88.713,245.352H82.427a.788.788,0,1,1,0-1.577h6.285a.788.788,0,1,1,0,1.577" transform="translate(-70.911 -211.742)" fill="#333652"/>
    <path id="Path_32118" data-name="Path 32118" d="M86.976,328.1H80.427a.788.788,0,0,1-.788-.788v-7.753a.788.788,0,0,1,.788-.788h6.548a.788.788,0,0,1,.788.788v7.753a.788.788,0,0,1-.788.788m-5.76-1.577h4.971v-6.176H81.216Z" transform="translate(-69.174 -276.887)" fill="#333652"/>
    <path id="Path_32119" data-name="Path 32119" d="M88.713,341.352H82.427a.788.788,0,0,1,0-1.577h6.285a.788.788,0,0,1,0,1.577" transform="translate(-70.911 -295.128)" fill="#333652"/>
  </g>
</svg>
