<svg xmlns="http://www.w3.org/2000/svg" width="34.118" height="60.6" viewBox="0 0 34.118 60.6">
  <path id="icon-costo-proyectos" d="M35.49-3.113c-1.054,5.882-6,9.623-13.032,10.451v3.978a3.788,3.788,0,1,1-7.575,0V7.178c-.052-.008-.1,0-.152-.012A52.584,52.584,0,0,1,5.506,4.614L4.2,4.171A3.789,3.789,0,0,1,1.83-.631,3.8,3.8,0,0,1,6.627-3l1.339.457A47.148,47.148,0,0,0,15.827-.333c5.574.823,11.489-.1,12.2-4.035.614-3.38-1.32-4.721-10.361-7.185l-1.781-.487c-5.2-1.454-16.009-4.472-14.03-15.35,1.049-5.788,5.974-9.531,13.024-10.356v-3.963a3.789,3.789,0,0,1,3.79-3.788,3.784,3.784,0,0,1,3.785,3.784v4.137a1.329,1.329,0,0,1,.152.013,43.966,43.966,0,0,1,7.191,1.84,3.788,3.788,0,0,1,2.416,4.778,3.8,3.8,0,0,1-4.778,2.412A37.5,37.5,0,0,0,21.5-30.072c-5.544-.826-11.466.1-12.184,4.038-.522,2.876.562,4.439,8.624,6.687l1.727.476C26.761-16.932,37.484-14.008,35.5-3.119Z" transform="translate(-1.62 45.497)" fill="#f1b84d"/>
</svg>
