<svg xmlns="http://www.w3.org/2000/svg" width="46.93" height="37.537" viewBox="0 0 46.93 37.537">
  <path id="icon-link-2" d="M39.236,3.088A1.758,1.758,0,0,1,41.722.6L46.416,5.3a1.771,1.771,0,0,1,0,2.494l-4.694,4.694A1.758,1.758,0,0,1,39.236,10L40.923,8.31,28.162,8.295a1.76,1.76,0,1,1,0-3.52H40.93ZM7.7,27.73,6.014,29.416H18.775a1.76,1.76,0,0,1,0,3.52H6.006l1.687,1.687A1.758,1.758,0,0,1,5.207,37.11L.513,32.423a1.771,1.771,0,0,1,0-2.494l4.694-4.694a1.758,1.758,0,0,1,2.486,2.486ZM7.04,4.775H24.781a3.81,3.81,0,0,0,3.381,5.574h8.61a3.811,3.811,0,0,0,6.4,3.579l1.415-1.415V28.243A4.7,4.7,0,0,1,39.9,32.937H22.156a3.81,3.81,0,0,0-3.381-5.574h-8.61a3.811,3.811,0,0,0-6.4-3.579L2.347,25.2V9.468A4.7,4.7,0,0,1,7.04,4.775Zm4.694,4.694H7.04v4.694A4.7,4.7,0,0,0,11.734,9.468ZM39.9,23.549A4.7,4.7,0,0,0,35.2,28.243H39.9ZM23.468,25.9a7.04,7.04,0,1,0-7.04-7.04A7.04,7.04,0,0,0,23.468,25.9Z" transform="translate(0 -0.087)" fill="#d32d37"/>
</svg>
