<svg xmlns="http://www.w3.org/2000/svg" xmlns:xlink="http://www.w3.org/1999/xlink" width="30.885" height="30.24" viewBox="0 0 30.885 30.24">
  <defs>
    <clipPath id="clip-path">
      <rect id="Rectangle_5263" data-name="Rectangle 5263" width="26.698" height="21.157" fill="#f1b84d"/>
    </clipPath>
    <clipPath id="clip-path-2">
      <rect id="Rectangle_5268" data-name="Rectangle 5268" width="30.24" height="30.24" fill="#f1b84d"/>
    </clipPath>
  </defs>
  <g id="icon-totalproyectos-pdl-yellow" transform="translate(-1101 -1987.567)">
    <g id="Group_6410" data-name="Group 6410" transform="translate(1105.187 1992.886)">
      <path id="Line_433" data-name="Line 433" d="M3.656-.07H-.535A.465.465,0,0,1-1-.535.465.465,0,0,1-.535-1H3.656a.465.465,0,0,1,.465.465A.465.465,0,0,1,3.656-.07Z" transform="translate(17.977 7.871)" fill="#f1b84d"/>
      <path id="Line_434" data-name="Line 434" d="M-.535,8.487a.465.465,0,0,1-.329-.14.465.465,0,0,1,0-.658L7.7-.871a.465.465,0,0,1,.658,0,.465.465,0,0,1,0,.658l-8.56,8.56a.465.465,0,0,1-.329.14Z" transform="translate(6.565 9.098)" fill="#f1b84d"/>
      <g id="Group_6409" data-name="Group 6409">
        <g id="Group_6408" data-name="Group 6408" clip-path="url(#clip-path)">
          <path id="Path_30184" data-name="Path 30184" d="M34.826,0a2.917,2.917,0,0,1,2.14.937,2.512,2.512,0,0,1,.679,1.924c-.115,1.381-2.187,4.8-2.424,5.184a.465.465,0,0,1-.791,0c-.023-.038-.58-.942-1.158-2.023a9.757,9.757,0,0,1-1.268-3.166A2.551,2.551,0,0,1,32.7.922,2.907,2.907,0,0,1,34.826,0Zm0,6.892a16.353,16.353,0,0,0,1.893-4.109,1.593,1.593,0,0,0-.436-1.217A2.011,2.011,0,0,0,34.826.93a1.974,1.974,0,0,0-1.442.625,1.628,1.628,0,0,0-.452,1.234A8.713,8.713,0,0,0,34.09,5.581c.266.5.529.958.736,1.312Z" transform="translate(-19.014 -0.058)" fill="#f1b84d"/>
          <path id="Path_30185" data-name="Path 30185" d="M37.136,6.264a1.238,1.238,0,1,1,1.238-1.237A1.238,1.238,0,0,1,37.136,6.264Zm0-1.544a.307.307,0,1,0,.307.307.307.307,0,0,0-.307-.307Z" transform="translate(-21.324 -2.303)" fill="#f1b84d"/>
          <path id="Path_30186" data-name="Path 30186" d="M2.828,31a2.917,2.917,0,0,1,2.14.937,2.512,2.512,0,0,1,.679,1.924c-.115,1.381-2.187,4.8-2.424,5.184l-.4.645-.4-.644c-.023-.038-.58-.942-1.158-2.023A9.776,9.776,0,0,1,.007,33.856a2.551,2.551,0,0,1,.7-1.934A2.907,2.907,0,0,1,2.828,31Zm0,6.892a16.387,16.387,0,0,0,1.893-4.109,1.593,1.593,0,0,0-.436-1.217,2.011,2.011,0,0,0-1.457-.636,1.974,1.974,0,0,0-1.442.625,1.628,1.628,0,0,0-.452,1.234,8.714,8.714,0,0,0,1.158,2.791c.266.5.529.958.736,1.312Z" transform="translate(-0.058 -18.423)" fill="#f1b84d"/>
          <path id="Path_30187" data-name="Path 30187" d="M5.138,37.264a1.238,1.238,0,1,1,1.238-1.237A1.238,1.238,0,0,1,5.138,37.264Zm0-1.544a.307.307,0,1,0,.307.307A.307.307,0,0,0,5.138,35.72Z" transform="translate(-2.368 -20.667)" fill="#f1b84d"/>
        </g>
      </g>
    </g>
    <g id="Group_6412" data-name="Group 6412" transform="translate(1101 1987.567)">
      <g id="Group_6411" data-name="Group 6411" clip-path="url(#clip-path-2)">
        <path id="Path_30190" data-name="Path 30190" d="M2.559,5.118A2.559,2.559,0,1,1,5.118,2.559,2.559,2.559,0,0,1,2.559,5.118m0-3.722A1.163,1.163,0,1,0,3.722,2.559,1.163,1.163,0,0,0,2.559,1.4" transform="translate(0)" fill="#f1b84d"/>
        <path id="Path_30191" data-name="Path 30191" d="M56.559,5.118a2.559,2.559,0,1,1,2.559-2.559,2.559,2.559,0,0,1-2.559,2.559m0-3.722a1.163,1.163,0,1,0,1.163,1.163A1.163,1.163,0,0,0,56.559,1.4" transform="translate(-28.877)" fill="#f1b84d"/>
        <path id="Path_30192" data-name="Path 30192" d="M2.559,59.118a2.559,2.559,0,1,1,2.559-2.559,2.559,2.559,0,0,1-2.559,2.559m0-3.722a1.163,1.163,0,1,0,1.163,1.163A1.163,1.163,0,0,0,2.559,55.4" transform="translate(0 -28.877)" fill="#f1b84d"/>
        <path id="Path_30193" data-name="Path 30193" d="M36.559,59.118a2.559,2.559,0,1,1,2.559-2.559,2.559,2.559,0,0,1-2.559,2.559m0-3.722a1.163,1.163,0,1,0,1.163,1.163A1.163,1.163,0,0,0,36.559,55.4" transform="translate(-18.182 -28.877)" fill="#f1b84d"/>
        <path id="Path_30194" data-name="Path 30194" d="M56.559,39.118a2.559,2.559,0,1,1,2.559-2.559,2.559,2.559,0,0,1-2.559,2.559m0-3.722a1.163,1.163,0,1,0,1.163,1.163A1.163,1.163,0,0,0,56.559,35.4" transform="translate(-28.877 -18.182)" fill="#f1b84d"/>
        <rect id="Rectangle_5264" data-name="Rectangle 5264" width="1.17" height="21.446" transform="translate(1.95 4.31)" fill="#f1b84d"/>
        <rect id="Rectangle_5265" data-name="Rectangle 5265" width="12.096" height="1.396" transform="translate(4.419 26.984)" fill="#f1b84d"/>
        <rect id="Rectangle_5266" data-name="Rectangle 5266" width="1.56" height="12.088" transform="translate(26.905 4.31)" fill="#f1b84d"/>
        <rect id="Rectangle_5267" data-name="Rectangle 5267" width="21.401" height="1.396" transform="translate(4.419 1.861)" fill="#f1b84d"/>
        <path id="Path_30195" data-name="Path 30195" d="M39.4,46.142H38V43.35A5.356,5.356,0,0,1,43.35,38h2.791v1.4H43.35A3.959,3.959,0,0,0,39.4,43.35Z" transform="translate(-20.321 -20.321)" fill="#f1b84d"/>
        <path id="Path_30196" data-name="Path 30196" d="M18.42,25.027a.7.7,0,0,1-.6-.334c-.372-.61-3.658-6.023-3.815-8.209h0a4.019,4.019,0,0,1,1.1-3.045,4.531,4.531,0,0,1,6.645.024,3.959,3.959,0,0,1,1.07,3.03c-.181,2.181-3.443,7.59-3.812,8.2a.7.7,0,0,1-.6.335ZM15.4,16.385c.093,1.3,1.866,4.6,3.014,6.576,1.143-1.978,2.911-5.277,3.019-6.584a2.578,2.578,0,0,0-.705-1.969A3.194,3.194,0,0,0,18.42,13.4a3.135,3.135,0,0,0-2.286.993,2.641,2.641,0,0,0-.732,2Z" transform="translate(-7.487 -6.418)" fill="#f1b84d"/>
        <path id="Path_30197" data-name="Path 30197" d="M21.094,21.187a2.094,2.094,0,1,1,2.094-2.094,2.094,2.094,0,0,1-2.094,2.094m0-2.791a.7.7,0,1,0,.7.7.7.7,0,0,0-.7-.7" transform="translate(-10.16 -9.091)" fill="#f1b84d"/>
      </g>
    </g>
  </g>
</svg>
