<svg xmlns="http://www.w3.org/2000/svg" width="84.62" height="75.101" viewBox="0 0 84.62 75.101">
  <path id="icon-totalproyectos" d="M38.31,0A15.958,15.958,0,0,0,22.348,15.963c0,7.263,9.724,20.206,13.994,25.54a2.5,2.5,0,0,0,3.937,0c4.27-5.334,13.994-18.277,13.994-25.54A15.958,15.958,0,0,0,38.31,0m0,20.219A5.321,5.321,0,1,1,43.631,14.9a5.321,5.321,0,0,1-5.321,5.321m35.124-3.2a3.2,3.2,0,0,0-1.19.231l-15.43,6.172c-.067.16-.133.333-.2.492-.386.9-.811,1.822-1.277,2.74V66.91l19.275-7.7a3.209,3.209,0,0,0,2.009-2.966V20.219a3.193,3.193,0,0,0-3.187-3.2M18.3,18.4v0l.012,0H18.3m0,0-16.3,6.513A3.209,3.209,0,0,0,0,27.881V63.9A3.19,3.19,0,0,0,4.376,66.87L21.283,60.1V26.657c-.466-.918-.891-1.836-1.277-2.74A25.256,25.256,0,0,1,18.3,18.4M25.54,33.92V59.78l25.54,7.3V33.92c-2.727,4.164-5.627,7.928-7.476,10.243a6.764,6.764,0,0,1-10.589,0c-1.849-2.315-4.749-6.079-7.476-10.243M38.31-4A19.946,19.946,0,0,1,58.273,15.963a14.5,14.5,0,0,1-.266,2.677l12.752-5.1a7.185,7.185,0,0,1,9.862,6.68V56.241a7.209,7.209,0,0,1-4.5,6.672l-.022.009-19.275,7.7a4,4,0,0,1-3.475-.245,4,4,0,0,1-3.365.549l-25.54-7.3a4,4,0,0,1-.776-.312,4,4,0,0,1-.894.5L5.863,70.583l-.006,0A7.185,7.185,0,0,1-4,63.9V27.881a7.157,7.157,0,0,1,1.24-4.033A7.21,7.21,0,0,1,.5,21.209L.524,21.2l16.112-6.44A4,4,0,0,1,18.3,14.4h.1A19.946,19.946,0,0,1,38.31-4Zm0,20.219A1.321,1.321,0,1,0,36.989,14.9,1.322,1.322,0,0,0,38.31,16.219Z" transform="translate(4 4)" fill="#4d4d4d"/>
</svg>
