<svg xmlns="http://www.w3.org/2000/svg" width="32.311" height="43.081" viewBox="0 0 32.311 43.081">
  <path id="icon-link-4" d="M4.039,0A4.04,4.04,0,0,0,0,4.039v35a4.04,4.04,0,0,0,4.039,4.039h8.078V36.349a4.039,4.039,0,0,1,8.078,0v6.731h8.078a4.04,4.04,0,0,0,4.039-4.039v-35A4.04,4.04,0,0,0,28.272,0ZM5.385,20.194a1.35,1.35,0,0,1,1.346-1.346H9.424a1.35,1.35,0,0,1,1.346,1.346v2.693a1.35,1.35,0,0,1-1.346,1.346H6.731a1.35,1.35,0,0,1-1.346-1.346Zm9.424-1.346H17.5a1.35,1.35,0,0,1,1.346,1.346v2.693A1.35,1.35,0,0,1,17.5,24.233H14.809a1.35,1.35,0,0,1-1.346-1.346V20.194A1.35,1.35,0,0,1,14.809,18.848Zm6.731,1.346a1.35,1.35,0,0,1,1.346-1.346h2.693a1.35,1.35,0,0,1,1.346,1.346v2.693a1.35,1.35,0,0,1-1.346,1.346H22.887a1.35,1.35,0,0,1-1.346-1.346ZM6.731,8.078H9.424A1.35,1.35,0,0,1,10.77,9.424v2.693a1.35,1.35,0,0,1-1.346,1.346H6.731a1.35,1.35,0,0,1-1.346-1.346V9.424A1.35,1.35,0,0,1,6.731,8.078Zm6.731,1.346a1.35,1.35,0,0,1,1.346-1.346H17.5a1.35,1.35,0,0,1,1.346,1.346v2.693A1.35,1.35,0,0,1,17.5,13.463H14.809a1.35,1.35,0,0,1-1.346-1.346Zm9.424-1.346h2.693a1.35,1.35,0,0,1,1.346,1.346v2.693a1.35,1.35,0,0,1-1.346,1.346H22.887a1.35,1.35,0,0,1-1.346-1.346V9.424A1.35,1.35,0,0,1,22.887,8.078Z" fill="#d32d37"/>
</svg>
