<svg xmlns="http://www.w3.org/2000/svg" xmlns:xlink="http://www.w3.org/1999/xlink" width="79.207" height="77.555" viewBox="0 0 79.207 77.555">
  <defs>
    <clipPath id="clip-path">
      <rect id="Rectangle_5263" data-name="Rectangle 5263" width="68.469" height="54.26" fill="#4d4d4d"/>
    </clipPath>
    <clipPath id="clip-path-2">
      <rect id="Rectangle_5268" data-name="Rectangle 5268" width="77.555" height="77.555" fill="#4d4d4d"/>
    </clipPath>
  </defs>
  <g id="icon-totalproyectos-pdl" transform="translate(-1101 -1987.567)">
    <g id="Group_6410" data-name="Group 6410" transform="translate(1111.738 2001.208)">
      <path id="Line_433" data-name="Line 433" d="M10.941,1.386H.193A1.193,1.193,0,0,1,.193-1H10.941a1.193,1.193,0,1,1,0,2.386Z" transform="translate(44.54 18.622)" fill="#4d4d4d"/>
      <path id="Line_434" data-name="Line 434" d="M.193,23.341a1.193,1.193,0,0,1-.844-.358,1.193,1.193,0,0,1,0-1.687L21.3-.657A1.193,1.193,0,0,1,22.991,1.03L1.037,22.984a1.193,1.193,0,0,1-.844.358Z" transform="translate(15.272 21.757)" fill="#4d4d4d"/>
      <g id="Group_6409" data-name="Group 6409">
        <g id="Group_6408" data-name="Group 6408" clip-path="url(#clip-path)">
          <path id="Path_30184" data-name="Path 30184" d="M39.25,0a7.48,7.48,0,0,1,5.488,2.4A6.443,6.443,0,0,1,46.48,7.338c-.295,3.542-5.608,12.307-6.216,13.294a1.193,1.193,0,0,1-2.028,0c-.06-.1-1.488-2.415-2.97-5.188-2.072-3.879-3.138-6.536-3.251-8.121a6.542,6.542,0,0,1,1.79-4.96A7.456,7.456,0,0,1,39.25,0Zm0,17.676c1.858-3.2,4.682-8.453,4.855-10.538a4.085,4.085,0,0,0-1.119-3.12A5.157,5.157,0,0,0,39.25,2.386a5.063,5.063,0,0,0-3.7,1.6,4.176,4.176,0,0,0-1.16,3.164c.049.69.5,2.537,2.97,7.159.681,1.27,1.358,2.458,1.886,3.365Z" transform="translate(1.302 -0.148)" fill="#4d4d4d"/>
          <path id="Path_30185" data-name="Path 30185" d="M39.072,10.137a3.174,3.174,0,1,1,3.174-3.173,3.174,3.174,0,0,1-3.174,3.173Zm0-3.96a.787.787,0,1,0,.787.787.787.787,0,0,0-.787-.787Z" transform="translate(1.477 0.023)" fill="#4d4d4d"/>
          <path id="Path_30186" data-name="Path 30186" d="M7.252,31a7.48,7.48,0,0,1,5.488,2.4,6.443,6.443,0,0,1,1.742,4.935c-.295,3.542-5.608,12.307-6.216,13.294L7.252,53.287,6.233,51.635c-.06-.1-1.488-2.415-2.97-5.188C1.193,42.565.13,39.908.016,38.324a6.542,6.542,0,0,1,1.79-4.96A7.456,7.456,0,0,1,7.252,31Zm0,17.676c1.858-3.2,4.68-8.453,4.855-10.538a4.085,4.085,0,0,0-1.119-3.12,5.157,5.157,0,0,0-3.736-1.632,5.063,5.063,0,0,0-3.7,1.6,4.176,4.176,0,0,0-1.16,3.164c.049.69.5,2.537,2.97,7.159.681,1.27,1.358,2.458,1.886,3.365Z" transform="translate(-0.148 1.256)" fill="#4d4d4d"/>
          <path id="Path_30187" data-name="Path 30187" d="M7.074,41.137a3.174,3.174,0,1,1,3.174-3.173A3.174,3.174,0,0,1,7.074,41.137Zm0-3.96a.787.787,0,1,0,.787.787.787.787,0,0,0-.787-.787Z" transform="translate(0.029 1.428)" fill="#4d4d4d"/>
        </g>
      </g>
    </g>
    <g id="Group_6412" data-name="Group 6412" transform="translate(1101 1987.567)">
      <g id="Group_6411" data-name="Group 6411" clip-path="url(#clip-path-2)">
        <path id="Path_30190" data-name="Path 30190" d="M6.562,13.125a6.562,6.562,0,1,1,6.562-6.562,6.562,6.562,0,0,1-6.562,6.562m0-9.545A2.983,2.983,0,1,0,9.545,6.562,2.983,2.983,0,0,0,6.562,3.579" fill="#4d4d4d"/>
        <path id="Path_30191" data-name="Path 30191" d="M60.562,13.125a6.562,6.562,0,1,1,6.562-6.562,6.562,6.562,0,0,1-6.562,6.562m0-9.545a2.983,2.983,0,1,0,2.983,2.983,2.983,2.983,0,0,0-2.983-2.983" transform="translate(10.43)" fill="#4d4d4d"/>
        <path id="Path_30192" data-name="Path 30192" d="M6.562,67.125a6.562,6.562,0,1,1,6.562-6.562,6.562,6.562,0,0,1-6.562,6.562m0-9.545a2.983,2.983,0,1,0,2.983,2.983,2.983,2.983,0,0,0-2.983-2.983" transform="translate(0 10.43)" fill="#4d4d4d"/>
        <path id="Path_30193" data-name="Path 30193" d="M40.562,67.125a6.562,6.562,0,1,1,6.562-6.562,6.562,6.562,0,0,1-6.562,6.562m0-9.545a2.983,2.983,0,1,0,2.983,2.983,2.983,2.983,0,0,0-2.983-2.983" transform="translate(6.567 10.43)" fill="#4d4d4d"/>
        <path id="Path_30194" data-name="Path 30194" d="M60.562,47.125a6.562,6.562,0,1,1,6.562-6.562,6.562,6.562,0,0,1-6.562,6.562m0-9.545a2.983,2.983,0,1,0,2.983,2.983,2.983,2.983,0,0,0-2.983-2.983" transform="translate(10.43 6.567)" fill="#4d4d4d"/>
        <rect id="Rectangle_5264" data-name="Rectangle 5264" width="3" height="55" transform="translate(5 11.054)" fill="#4d4d4d"/>
        <rect id="Rectangle_5265" data-name="Rectangle 5265" width="31.022" height="3.579" transform="translate(11.334 69.202)" fill="#4d4d4d"/>
        <rect id="Rectangle_5266" data-name="Rectangle 5266" width="4" height="31" transform="translate(69 11.054)" fill="#4d4d4d"/>
        <rect id="Rectangle_5267" data-name="Rectangle 5267" width="54.886" height="3.579" transform="translate(11.334 4.773)" fill="#4d4d4d"/>
        <path id="Path_30195" data-name="Path 30195" d="M41.579,58.88H38V51.721A13.737,13.737,0,0,1,51.721,38H58.88v3.579H51.721A10.154,10.154,0,0,0,41.579,51.721Z" transform="translate(7.34 7.34)" fill="#4d4d4d"/>
        <path id="Path_30196" data-name="Path 30196" d="M25.335,45.408a1.79,1.79,0,0,1-1.526-.855C22.854,42.988,14.428,29.1,14.025,23.5h0a10.306,10.306,0,0,1,2.825-7.81,11.621,11.621,0,0,1,17.042.062,10.154,10.154,0,0,1,2.744,7.77c-.464,5.592-8.829,19.465-9.775,21.028a1.79,1.79,0,0,1-1.526.859ZM17.6,23.245c.239,3.341,4.786,11.8,7.73,16.865,2.932-5.073,7.464-13.534,7.742-16.887a6.611,6.611,0,0,0-1.809-5.049,8.191,8.191,0,0,0-5.925-2.6,8.039,8.039,0,0,0-5.862,2.547A6.773,6.773,0,0,0,17.6,23.245Z" transform="translate(2.704 2.318)" fill="#4d4d4d"/>
        <path id="Path_30197" data-name="Path 30197" d="M24.369,27.738a5.369,5.369,0,1,1,5.369-5.369,5.369,5.369,0,0,1-5.369,5.369m0-7.159a1.79,1.79,0,1,0,1.79,1.79,1.79,1.79,0,0,0-1.79-1.79" transform="translate(3.67 3.283)" fill="#4d4d4d"/>
      </g>
    </g>
  </g>
</svg>
