<svg xmlns="http://www.w3.org/2000/svg" width="33.658" height="29.477" viewBox="0 0 33.658 29.477">
  <path id="icon-totalproyectos-yellow" d="M12.829-2.329A6.26,6.26,0,0,0,6.523,3.888c0,2.829,3.841,7.87,5.528,9.948a1,1,0,0,0,1.555,0c1.687-2.078,5.528-7.119,5.528-9.948a6.26,6.26,0,0,0-6.306-6.217m0,7.875a2.073,2.073,0,1,1,2.1-2.072,2.087,2.087,0,0,1-2.1,2.072M26.7,4.3a1.281,1.281,0,0,0-.47.09l-6.1,2.4c-.026.062-.053.13-.079.192-.152.352-.321.71-.5,1.067V23.731l7.615-3a1.25,1.25,0,0,0,.794-1.155V5.546A1.253,1.253,0,0,0,26.7,4.3M4.926,4.836v0l0,0H4.926m0,0L-1.512,7.375A1.25,1.25,0,0,0-2.305,8.53V22.56A1.258,1.258,0,0,0-.577,23.716L6.1,21.079V8.054c-.184-.357-.352-.715-.5-1.067a9.735,9.735,0,0,1-.672-2.148m2.858,6.044V20.954L17.874,23.8V10.882C16.8,12.5,15.651,13.97,14.921,14.872a2.7,2.7,0,0,1-4.183,0c-.73-.9-1.876-2.368-2.953-3.989M12.829-4a8.054,8.054,0,0,1,3.115.62,7.976,7.976,0,0,1,2.543,1.69A7.851,7.851,0,0,1,20.2.817a7.748,7.748,0,0,1,.629,3.071,5.471,5.471,0,0,1-.072.863l4.848-1.912a2.991,2.991,0,0,1,1.1-.21,2.938,2.938,0,0,1,2.953,2.916v14.03a2.871,2.871,0,0,1-.51,1.634,2.954,2.954,0,0,1-1.34,1.069l-.009,0-7.615,3a1.717,1.717,0,0,1-1.41-.069,1.715,1.715,0,0,1-1.366.191L7.318,22.561a1.713,1.713,0,0,1-.265-.1,1.7,1.7,0,0,1-.321.168L.053,25.267h0a2.988,2.988,0,0,1-1.1.209A2.938,2.938,0,0,1-4,22.56V8.53A2.871,2.871,0,0,1-3.49,6.9,2.954,2.954,0,0,1-2.15,5.827l.009,0L4.222,3.316a1.714,1.714,0,0,1,.639-.15,7.731,7.731,0,0,1,.6-2.35A7.851,7.851,0,0,1,7.171-1.69,7.976,7.976,0,0,1,9.714-3.38,8.054,8.054,0,0,1,12.829-4Zm0,7.875a.4.4,0,1,0-.407-.4A.405.405,0,0,0,12.829,3.875Z" transform="translate(4 4)" fill="#f1b84d"/>
</svg>
