<svg xmlns="http://www.w3.org/2000/svg" width="154.862" height="150.334" viewBox="0 0 154.862 150.334">
  <g id="img-emergencia3" transform="translate(-566.15 -345.467)">
    <g id="Group_3708" data-name="Group 3708" transform="translate(566.15 345.467)">
      <g id="Group_3666" data-name="Group 3666" transform="translate(8.891 0)">
        <g id="Group_3662" data-name="Group 3662" transform="translate(0 101.614)">
          <path id="Path_3671" data-name="Path 3671" d="M673.032,1214.915a.715.715,0,0,1-.342-.087c-2.161-1.172-4.29-2.468-6.328-3.85a.719.719,0,0,1,.808-1.191c2,1.356,4.087,2.626,6.206,3.776a.719.719,0,0,1-.344,1.352Zm-12.127-8.227a.716.716,0,0,1-.46-.167c-1.889-1.575-3.723-3.263-5.449-5.016a.72.72,0,0,1,1.026-1.01c1.693,1.72,3.491,3.376,5.345,4.921a.719.719,0,0,1-.461,1.272Zm-10.278-10.443a.718.718,0,0,1-.56-.268c-1.546-1.915-3.013-3.929-4.361-5.986a.72.72,0,1,1,1.2-.789c1.322,2.017,2.761,3.993,4.277,5.871a.719.719,0,0,1-.559,1.171ZM642.6,1183.99a.72.72,0,0,1-.638-.387c-1.139-2.182-2.181-4.446-3.1-6.728a.719.719,0,1,1,1.336-.536c.9,2.238,1.919,4.458,3.036,6.6a.72.72,0,0,1-.637,1.053Z" transform="translate(-638.809 -1175.888)" fill="#366088"/>
        </g>
        <g id="Group_3663" data-name="Group 3663" transform="translate(119.572 84.365)">
          <path id="Path_3672" data-name="Path 3672" d="M1616.709,1079.953a.719.719,0,0,1-.494-1.243c1.71-1.613,3.362-3.327,4.909-5.095a.72.72,0,0,1,1.083.948c-1.578,1.8-3.262,3.55-5.005,5.194A.717.717,0,0,1,1616.709,1079.953Zm9.4-10.74a.72.72,0,0,1-.584-1.139c1.372-1.91,2.666-3.907,3.846-5.938a.72.72,0,0,1,1.244.723c-1.2,2.071-2.523,4.108-3.922,6.055A.719.719,0,0,1,1626.107,1069.213Zm7.171-12.34a.72.72,0,0,1-.654-1.019c.98-2.137,1.865-4.347,2.632-6.567a.719.719,0,0,1,1.36.47c-.782,2.264-1.685,4.517-2.684,6.7A.72.72,0,0,1,1633.279,1056.874Zm4.661-13.491a.72.72,0,0,1-.7-.887c.547-2.283.99-4.623,1.314-6.952a.719.719,0,1,1,1.425.2c-.331,2.375-.782,4.761-1.34,7.089A.72.72,0,0,1,1637.939,1043.383Z" transform="translate(-1615.989 -1034.923)" fill="#366088"/>
        </g>
        <g id="Group_3664" data-name="Group 3664" transform="translate(32.151)">
          <path id="Path_3673" data-name="Path 3673" d="M902.278,356.56a.72.72,0,0,1-.357-1.345c2.139-1.219,4.363-2.344,6.609-3.343a.72.72,0,0,1,.585,1.315c-2.2.98-4.384,2.083-6.482,3.279A.718.718,0,0,1,902.278,356.56ZM966,352a.716.716,0,0,1-.263-.05c-2.246-.883-4.562-1.663-6.884-2.318a.72.72,0,1,1,.391-1.385c2.368.668,4.73,1.463,7.02,2.364A.72.72,0,0,1,966,352Zm-50.334-1.4a.72.72,0,0,1-.225-1.4c2.336-.771,4.739-1.433,7.141-1.968a.72.72,0,0,1,.313,1.4c-2.356.524-4.712,1.173-7,1.929A.718.718,0,0,1,915.665,350.606Zm36.232-2.58a.721.721,0,0,1-.126-.011c-2.372-.42-4.8-.726-7.208-.91a.72.72,0,0,1,.11-1.435c2.457.188,4.93.5,7.349.928a.72.72,0,0,1-.125,1.428Zm-21.93-.6a.719.719,0,0,1-.085-1.434c2.437-.293,4.922-.468,7.388-.521a.719.719,0,0,1,.031,1.439c-2.419.052-4.857.224-7.247.511A.719.719,0,0,1,929.966,347.421Z" transform="translate(-901.557 -345.467)" fill="#366088"/>
        </g>
        <g id="Group_3665" data-name="Group 3665" transform="translate(15.108 20.389)">
          <circle id="Ellipse_256" data-name="Ellipse 256" cx="54.383" cy="54.383" r="54.383" fill="#abe7ff"/>
        </g>
      </g>
      <g id="Group_3675" data-name="Group 3675" transform="translate(76.221 7.88)">
        <g id="Group_3674" data-name="Group 3674">
          <g id="Group_3667" data-name="Group 3667" transform="translate(7.809)">
            <path id="Path_3674" data-name="Path 3674" d="M1313.633,425.076a3.657,3.657,0,0,0,3.657-3.657V419.4a3.658,3.658,0,0,0-3.657-3.658H1288.7a3.658,3.658,0,0,0-3.657,3.658v2.017a3.657,3.657,0,0,0,3.657,3.657h.822v10.108h-30.225l-.543,12.075h30.769v10.906h-.822a3.657,3.657,0,0,0-3.657,3.657v2.95a3.657,3.657,0,0,0,3.657,3.657h24.938a3.657,3.657,0,0,0,3.657-3.657v-2.95a3.657,3.657,0,0,0-3.657-3.657h-.822V425.076Z" transform="translate(-1258.03 -415.025)" fill="#abe7ff"/>
            <path id="Path_3675" data-name="Path 3675" d="M1308.473,463.99h-24.937a4.382,4.382,0,0,1-4.377-4.377v-2.95a4.382,4.382,0,0,1,4.377-4.377h.1v-9.467h-30.049a.72.72,0,0,1-.719-.752l.543-12.075a.72.72,0,0,1,.719-.687h29.506v-8.669h-.1a4.382,4.382,0,0,1-4.377-4.376v-2.017a4.382,4.382,0,0,1,4.377-4.378h24.937a4.382,4.382,0,0,1,4.377,4.378v2.017a4.381,4.381,0,0,1-4.377,4.376h-.1v31.65h.1a4.382,4.382,0,0,1,4.377,4.377v2.95A4.382,4.382,0,0,1,1308.473,463.99Zm-24.937-10.265a2.941,2.941,0,0,0-2.938,2.938v2.95a2.941,2.941,0,0,0,2.938,2.938h24.937a2.941,2.941,0,0,0,2.938-2.938v-2.95a2.941,2.941,0,0,0-2.938-2.938h-.822a.72.72,0,0,1-.719-.719V419.916a.719.719,0,0,1,.719-.72h.822a2.941,2.941,0,0,0,2.938-2.937v-2.017a2.942,2.942,0,0,0-2.938-2.939h-24.937a2.942,2.942,0,0,0-2.938,2.939v2.017a2.941,2.941,0,0,0,2.938,2.937h.822a.719.719,0,0,1,.719.72v10.108a.719.719,0,0,1-.719.72H1254.82l-.479,10.636h30.016a.719.719,0,0,1,.719.72v10.906a.72.72,0,0,1-.719.719Z" transform="translate(-1252.869 -409.865)" fill="#366088"/>
          </g>
          <g id="Group_3668" data-name="Group 3668" transform="translate(0 9.09)">
            <path id="Path_3676" data-name="Path 3676" d="M1194.932,511.138l2.979,3.1a8.118,8.118,0,0,0,5.855,2.526h16.443a4.316,4.316,0,0,0,0-8.625h-9.522a3.885,3.885,0,0,1,0-7.763h20.287l-9.482-6.584a20.919,20.919,0,0,0-11.942-3.767h-11.393" transform="translate(-1194.212 -489.309)" fill="#fff"/>
            <path id="Path_3677" data-name="Path 3677" d="M1215.049,512.326h-16.443a8.9,8.9,0,0,1-6.374-2.747l-2.979-3.1a.719.719,0,1,1,1.038-1l2.979,3.1a7.353,7.353,0,0,0,5.336,2.3h16.443a3.6,3.6,0,0,0,0-7.186h-9.522a4.6,4.6,0,0,1,0-9.2h17.989l-7.594-5.273a20.136,20.136,0,0,0-11.532-3.638H1193a.72.72,0,0,1,0-1.439h11.393a21.569,21.569,0,0,1,12.352,3.9l9.46,6.569a.72.72,0,0,1-.055,1.243.711.711,0,0,1-.356.082h-20.265a3.166,3.166,0,0,0,0,6.324h9.522a5.035,5.035,0,0,1,0,10.063Z" transform="translate(-1189.052 -484.149)" fill="#366088"/>
          </g>
          <g id="Group_3669" data-name="Group 3669" transform="translate(22.758 60.248)">
            <path id="Path_3678" data-name="Path 3678" d="M1380.914,917.636v-4.08c0-3.006,1.742-5.442,3.889-5.442h46.666c2.148,0,3.889,2.436,3.889,5.442v4.08Z" transform="translate(-1380.194 -907.393)" fill="#2db5ff"/>
            <path id="Path_3679" data-name="Path 3679" d="M1430.2,913.195h-54.445a.72.72,0,0,1-.719-.719v-4.081c0-3.4,2.068-6.162,4.609-6.162h46.666c2.541,0,4.609,2.764,4.609,6.162v4.081A.719.719,0,0,1,1430.2,913.195Zm-53.725-1.439h53.006v-3.361c0-2.56-1.452-4.723-3.17-4.723h-46.666c-1.718,0-3.17,2.163-3.17,4.723Z" transform="translate(-1375.034 -902.233)" fill="#366088"/>
          </g>
          <g id="Group_3670" data-name="Group 3670" transform="translate(23.16 44.979)">
            <line id="Line_96" data-name="Line 96" x1="2.768" y1="5.452" transform="translate(0.72 0.72)" fill="#fff"/>
            <path id="Path_3680" data-name="Path 3680" d="M1381.808,784.343a.719.719,0,0,1-.642-.394L1378.4,778.5a.719.719,0,1,1,1.283-.651l2.768,5.452a.72.72,0,0,1-.641,1.045Z" transform="translate(-1378.32 -777.452)" fill="#366088"/>
          </g>
          <g id="Group_3671" data-name="Group 3671" transform="translate(16.504 52.613)">
            <line id="Line_97" data-name="Line 97" x1="5.235" y1="2.181" transform="translate(0.72 0.72)" fill="#fff"/>
            <path id="Path_3681" data-name="Path 3681" d="M1329.886,843.46a.718.718,0,0,1-.277-.056l-5.235-2.181a.719.719,0,0,1,.553-1.328l5.235,2.181a.72.72,0,0,1-.277,1.384Z" transform="translate(-1323.931 -839.84)" fill="#366088"/>
          </g>
          <g id="Group_3672" data-name="Group 3672" transform="translate(42.401 42.634)">
            <line id="Line_98" data-name="Line 98" x2="15.746" transform="translate(0.719 0.72)" fill="#fff"/>
            <path id="Path_3682" data-name="Path 3682" d="M1552.029,759.724h-15.746a.719.719,0,0,1,0-1.439h15.746a.719.719,0,1,1,0,1.439Z" transform="translate(-1535.563 -758.285)" fill="#366088"/>
          </g>
          <g id="Group_3673" data-name="Group 3673" transform="translate(42.401 9.09)">
            <line id="Line_99" data-name="Line 99" x2="15.746" transform="translate(0.719 0.72)" fill="#fff"/>
            <path id="Path_3683" data-name="Path 3683" d="M1552.029,485.588h-15.746a.72.72,0,0,1,0-1.439h15.746a.72.72,0,1,1,0,1.439Z" transform="translate(-1535.563 -484.149)" fill="#366088"/>
          </g>
        </g>
      </g>
      <g id="Group_3694" data-name="Group 3694" transform="translate(0 15.691)">
        <g id="Group_3676" data-name="Group 3676" transform="translate(12.312)">
          <path id="Path_3684" data-name="Path 3684" d="M672.645,479.578h48.713a5.687,5.687,0,0,1,5.687,5.687v54.648h-48.96V485.792" transform="translate(-671.926 -478.858)" fill="#fff"/>
          <path id="Path_3685" data-name="Path 3685" d="M721.885,535.472H672.925a.719.719,0,0,1-.719-.72V480.632a.719.719,0,0,1,1.439,0v53.4h47.522V480.1a4.974,4.974,0,0,0-4.968-4.968H667.484a.72.72,0,0,1,0-1.439H716.2A6.414,6.414,0,0,1,722.6,480.1v54.648A.719.719,0,0,1,721.885,535.472Z" transform="translate(-666.765 -473.698)" fill="#366088"/>
        </g>
        <g id="Group_3677" data-name="Group 3677" transform="translate(6.377)">
          <path id="Path_3686" data-name="Path 3686" d="M635.521,506.284V485.265a5.687,5.687,0,0,0-5.687-5.687h0a5.687,5.687,0,0,0-5.687,5.687v21.018Z" transform="translate(-623.427 -478.858)" fill="#2db5ff"/>
          <path id="Path_3687" data-name="Path 3687" d="M630.36,501.843H618.985a.719.719,0,0,1-.719-.719V480.1a6.407,6.407,0,1,1,12.814,0v21.018A.719.719,0,0,1,630.36,501.843ZM619.7,500.4h9.936V480.1a4.968,4.968,0,1,0-9.936,0Z" transform="translate(-618.266 -473.698)" fill="#366088"/>
        </g>
        <g id="Group_3678" data-name="Group 3678" transform="translate(23.471 12.252)">
          <line id="Line_100" data-name="Line 100" x2="37.818" transform="translate(0.72 0.719)" fill="#fff"/>
          <path id="Path_3688" data-name="Path 3688" d="M796.5,575.268H758.685a.719.719,0,1,1,0-1.439H796.5a.719.719,0,1,1,0,1.439Z" transform="translate(-757.965 -573.829)" fill="#366088"/>
        </g>
        <g id="Group_3679" data-name="Group 3679" transform="translate(23.471 25.507)">
          <line id="Line_101" data-name="Line 101" x2="16.041" transform="translate(0.72 0.719)" fill="#fff"/>
          <path id="Path_3689" data-name="Path 3689" d="M774.725,683.592H758.685a.72.72,0,0,1,0-1.439h16.041a.72.72,0,1,1,0,1.439Z" transform="translate(-757.965 -682.153)" fill="#366088"/>
        </g>
        <g id="Group_3684" data-name="Group 3684" transform="translate(39.176 19.066)">
          <g id="Group_3680" data-name="Group 3680" transform="translate(1.867 19.711)">
            <path id="Path_3690" data-name="Path 3690" d="M911.677,796.473l-4.235,10.541,4.428-2.385,1.547,4.786,4.044-10.067" transform="translate(-906.723 -795.753)" fill="#d0fdff"/>
            <path id="Path_3691" data-name="Path 3691" d="M908.258,804.973h-.025a.719.719,0,0,1-.66-.5l-1.282-3.964-3.668,1.976a.719.719,0,0,1-1.009-.9l4.235-10.541a.719.719,0,0,1,1.335.536l-3.494,8.7,2.679-1.443a.72.72,0,0,1,1.026.412l.936,2.9,3.3-8.223a.72.72,0,0,1,1.335.536l-4.044,10.067A.719.719,0,0,1,908.258,804.973Z" transform="translate(-901.562 -790.591)" fill="#366088"/>
          </g>
          <g id="Group_3681" data-name="Group 3681" transform="translate(12.088 20.749)">
            <path id="Path_3692" data-name="Path 3692" d="M997.179,804.959l3.818,9.5-4.428-2.385-1.548,4.786-4.05-10.081" transform="translate(-990.251 -804.239)" fill="#d0fdff"/>
            <path id="Path_3693" data-name="Path 3693" d="M989.859,812.42a.719.719,0,0,1-.667-.451l-4.05-10.081a.719.719,0,1,1,1.335-.536l3.309,8.237.936-2.9a.719.719,0,0,1,1.026-.412l2.679,1.443-3.077-7.659a.719.719,0,0,1,1.335-.536l3.818,9.5a.719.719,0,0,1-1.009.9l-3.668-1.976-1.282,3.964a.72.72,0,0,1-.66.5Z" transform="translate(-985.089 -799.077)" fill="#366088"/>
          </g>
          <g id="Group_3682" data-name="Group 3682" transform="translate(0 0)">
            <circle id="Ellipse_257" data-name="Ellipse 257" cx="9.455" cy="9.455" r="9.455" transform="translate(0 13.372) rotate(-45)" fill="#d0fdff"/>
            <path id="Path_3694" data-name="Path 3694" d="M922.607,675.986a10.175,10.175,0,1,1,10.174-10.175A10.186,10.186,0,0,1,922.607,675.986Zm0-18.91a8.736,8.736,0,1,0,8.736,8.736A8.745,8.745,0,0,0,922.607,657.076Z" transform="translate(-909.235 -652.44)" fill="#366088"/>
          </g>
          <g id="Group_3683" data-name="Group 3683" transform="translate(8.359 8.359)">
            <circle id="Ellipse_258" data-name="Ellipse 258" cx="4.296" cy="4.296" r="4.296" transform="translate(0.717 0.717)" fill="#fff"/>
            <path id="Path_3695" data-name="Path 3695" d="M959.629,707.847a5.013,5.013,0,1,1,3.546-1.467A5,5,0,0,1,959.629,707.847Zm0-8.587a3.574,3.574,0,1,0,2.529,1.046A3.565,3.565,0,0,0,959.629,699.259Z" transform="translate(-954.616 -697.821)" fill="#366088"/>
          </g>
        </g>
        <g id="Group_3685" data-name="Group 3685" transform="translate(0 41.185)">
          <circle id="Ellipse_259" data-name="Ellipse 259" cx="17.25" cy="17.25" r="17.25" transform="translate(0 24.395) rotate(-45)" fill="#cff1ff"/>
          <path id="Path_3696" data-name="Path 3696" d="M636.631,898.722A17.969,17.969,0,1,1,654.6,880.753,17.989,17.989,0,0,1,636.631,898.722Zm0-34.5a16.53,16.53,0,1,0,16.53,16.53A16.549,16.549,0,0,0,636.631,864.223Z" transform="translate(-612.236 -856.358)" fill="#366088"/>
        </g>
        <g id="Group_3693" data-name="Group 3693" transform="translate(13.27 54.356)">
          <g id="Group_3686" data-name="Group 3686" transform="translate(0.204)">
            <path id="Path_3697" data-name="Path 3697" d="M702.67,928.9l-10.224-5.112h-.077L682.145,928.9Z" transform="translate(-681.425 -923.07)" fill="#fff"/>
            <path id="Path_3698" data-name="Path 3698" d="M697.509,924.461H676.984a.719.719,0,0,1-.322-1.363l10.224-5.112a.719.719,0,0,1,.322-.076h.077a.72.72,0,0,1,.322.076l10.224,5.112a.72.72,0,0,1-.322,1.363Zm-17.477-1.439h14.429l-7.215-3.607Z" transform="translate(-676.264 -917.91)" fill="#366088"/>
          </g>
          <g id="Group_3691" data-name="Group 3691" transform="translate(3.075 7.835)">
            <g id="Group_3687" data-name="Group 3687">
              <line id="Line_102" data-name="Line 102" y2="8.791" transform="translate(0.719 0.72)" fill="#fff"/>
              <path id="Path_3699" data-name="Path 3699" d="M700.446,992.173a.719.719,0,0,1-.719-.72v-8.791a.719.719,0,1,1,1.439,0v8.791A.719.719,0,0,1,700.446,992.173Z" transform="translate(-699.727 -981.943)" fill="#366088"/>
            </g>
            <g id="Group_3688" data-name="Group 3688" transform="translate(4.928)">
              <line id="Line_103" data-name="Line 103" y2="8.791" transform="translate(0.719 0.72)" fill="#fff"/>
              <path id="Path_3700" data-name="Path 3700" d="M740.717,992.173a.719.719,0,0,1-.719-.72v-8.791a.719.719,0,1,1,1.439,0v8.791A.719.719,0,0,1,740.717,992.173Z" transform="translate(-739.998 -981.943)" fill="#366088"/>
            </g>
            <g id="Group_3689" data-name="Group 3689" transform="translate(9.855)">
              <line id="Line_104" data-name="Line 104" y2="8.791" transform="translate(0.719 0.72)" fill="#fff"/>
              <path id="Path_3701" data-name="Path 3701" d="M780.989,992.173a.72.72,0,0,1-.72-.72v-8.791a.72.72,0,0,1,1.439,0v8.791A.72.72,0,0,1,780.989,992.173Z" transform="translate(-780.269 -981.943)" fill="#366088"/>
            </g>
            <g id="Group_3690" data-name="Group 3690" transform="translate(14.783)">
              <line id="Line_105" data-name="Line 105" y2="8.791" transform="translate(0.72 0.72)" fill="#fff"/>
              <path id="Path_3702" data-name="Path 3702" d="M821.26,992.173a.72.72,0,0,1-.72-.72v-8.791a.72.72,0,0,1,1.439,0v8.791A.72.72,0,0,1,821.26,992.173Z" transform="translate(-820.54 -981.943)" fill="#366088"/>
            </g>
          </g>
          <g id="Group_3692" data-name="Group 3692" transform="translate(0 19.132)">
            <line id="Line_106" data-name="Line 106" x2="20.933" transform="translate(0.719 0.72)" fill="#fff"/>
            <path id="Path_3703" data-name="Path 3703" d="M696.249,1075.706H675.316a.72.72,0,1,1,0-1.439h20.933a.72.72,0,0,1,0,1.439Z" transform="translate(-674.596 -1074.267)" fill="#366088"/>
          </g>
        </g>
      </g>
      <g id="Group_3707" data-name="Group 3707" transform="translate(49.358 80.568)">
        <g id="Group_3700" data-name="Group 3700">
          <g id="Group_3695" data-name="Group 3695" transform="translate(6.901 38.334)">
            <path id="Path_3704" data-name="Path 3704" d="M1053.865,1350.079v-27.026l-22.071.1v27.026" transform="translate(-1031.075 -1322.333)" fill="#abe7ff"/>
            <path id="Path_3705" data-name="Path 3705" d="M1026.634,1345.734a.719.719,0,0,1-.719-.719v-27.026a.719.719,0,0,1,.716-.719l22.071-.1h0a.72.72,0,0,1,.72.719v27.026a.72.72,0,0,1-1.439,0v-26.3l-20.632.089v26.31A.719.719,0,0,1,1026.634,1345.734Z" transform="translate(-1025.915 -1317.173)" fill="#366088"/>
          </g>
          <g id="Group_3696" data-name="Group 3696" transform="translate(0 26.884)">
            <path id="Path_3706" data-name="Path 3706" d="M1004.369,1249.77v11.024a3.341,3.341,0,0,0,3.341,3.341h0a3.341,3.341,0,0,0,3.341-3.341v-5.644l-9.49-25.667H984.216a8.819,8.819,0,0,0-8.819,8.819v23.961a3.45,3.45,0,0,0,3.45,3.45h0a3.45,3.45,0,0,0,3.451-3.45v-13.573" transform="translate(-974.678 -1228.763)" fill="#abe7ff"/>
            <path id="Path_3707" data-name="Path 3707" d="M973.687,1261.272a4.175,4.175,0,0,1-4.17-4.17V1233.14a9.549,9.549,0,0,1,9.538-9.538H996.4a.72.72,0,0,1,.675.47l9.49,25.667a.717.717,0,0,1,.045.25v5.644a4.06,4.06,0,1,1-8.12,0v-11.024a.719.719,0,0,1,1.439,0v11.024a2.621,2.621,0,1,0,5.242,0v-5.516l-9.272-25.077H979.055a8.109,8.109,0,0,0-8.1,8.1V1257.1a2.731,2.731,0,0,0,5.462,0v-13.573a.719.719,0,1,1,1.439,0V1257.1A4.175,4.175,0,0,1,973.687,1261.272Z" transform="translate(-969.517 -1223.602)" fill="#366088"/>
          </g>
          <g id="Group_3697" data-name="Group 3697" transform="translate(4.615)">
            <circle id="Ellipse_260" data-name="Ellipse 260" cx="9.936" cy="9.936" r="9.936" transform="translate(0 14.051) rotate(-45)" fill="#abe7ff"/>
            <path id="Path_3708" data-name="Path 3708" d="M1045.641,1052.962a10.655,10.655,0,1,1,10.656-10.656A10.668,10.668,0,0,1,1045.641,1052.962Zm0-19.872a9.216,9.216,0,1,0,9.216,9.216A9.227,9.227,0,0,0,1045.641,1033.09Z" transform="translate(-1031.59 -1028.255)" fill="#366088"/>
          </g>
        </g>
        <g id="Group_3706" data-name="Group 3706" transform="translate(24.955 3.206)">
          <g id="Group_3701" data-name="Group 3701" transform="translate(0 9.039)">
            <path id="Path_3711" data-name="Path 3711" d="M1229.559,1131.8c-1.016,9.711-5.174,24.3-24.979,34.135a41.738,41.738,0,0,1-22.8-24.834,44.367,44.367,0,0,1-1.387-5.047,50.082,50.082,0,0,1-1.056-9.116,2.539,2.539,0,0,1,1.185-2.234l24.059-14.85,5.943,3.68" transform="translate(-1178.616 -1109.131)" fill="#cff1ff"/>
            <path id="Path_3712" data-name="Path 3712" d="M1199.42,1161.491a.72.72,0,0,1-.252-.045,36.6,36.6,0,0,1-8-4.6,42.373,42.373,0,0,1-15.226-20.676,45.289,45.289,0,0,1-1.409-5.129,51.027,51.027,0,0,1-1.072-9.247,3.266,3.266,0,0,1,1.527-2.865l24.059-14.85a.719.719,0,0,1,.757,0l5.943,3.68a.72.72,0,1,1-.758,1.224l-5.565-3.446-23.681,14.617a1.822,1.822,0,0,0-.844,1.6,49.569,49.569,0,0,0,1.041,8.986,43.794,43.794,0,0,0,1.364,4.965,40.926,40.926,0,0,0,14.716,19.98,37.4,37.4,0,0,0,7.372,4.3c14.77-7.424,22.719-18.36,24.294-33.421a.719.719,0,1,1,1.431.15,41.374,41.374,0,0,1-5.541,17.315c-4.256,7.117-10.928,12.967-19.832,17.389A.721.721,0,0,1,1199.42,1161.491Z" transform="translate(-1173.455 -1103.971)" fill="#366088"/>
          </g>
          <g id="Group_3702" data-name="Group 3702" transform="translate(6.172 16.516)">
            <path id="Path_3713" data-name="Path 3713" d="M1267.766,1186.864c-.668,6.834-4.236,17.512-18.918,25.886h-.091c-15.245-8.7-18.507-19.874-18.982-26.654v-3.372l19.073-11.773,5.475,3.39" transform="translate(-1229.055 -1170.231)" fill="#fff"/>
            <path id="Path_3714" data-name="Path 3714" d="M1243.688,1208.309h-.091a.72.72,0,0,1-.357-.095c-6.871-3.919-12.016-8.732-15.293-14.306a29.359,29.359,0,0,1-4.05-12.923c0-.017,0-.033,0-.05v-3.372a.719.719,0,0,1,.342-.612l19.073-11.773a.719.719,0,0,1,.757,0l5.475,3.39a.72.72,0,0,1-.758,1.224l-5.1-3.156-18.354,11.328v2.945c.518,7.292,4.126,17.667,18.308,25.876,13.822-8,17.556-18.08,18.247-25.152a.72.72,0,1,1,1.432.14c-.73,7.463-4.667,18.107-19.278,26.441A.719.719,0,0,1,1243.688,1208.309Z" transform="translate(-1223.895 -1165.07)" fill="#366088"/>
          </g>
          <g id="Group_3703" data-name="Group 3703" transform="translate(25.246 16.516)">
            <path id="Path_3715" data-name="Path 3715" d="M1380.489,1208.309a.719.719,0,0,1-.719-.719v-41.8a.719.719,0,1,1,1.439,0v41.8A.72.72,0,0,1,1380.489,1208.309Z" transform="translate(-1379.77 -1165.071)" fill="#366088"/>
          </g>
          <g id="Group_3704" data-name="Group 3704" transform="translate(24.017 0)">
            <circle id="Ellipse_261" data-name="Ellipse 261" cx="14.364" cy="14.364" r="14.364" transform="translate(0 20.314) rotate(-45)" fill="#fff"/>
            <path id="Path_3716" data-name="Path 3716" d="M1427.557,1103.008a15.083,15.083,0,1,1,15.083-15.083A15.1,15.1,0,0,1,1427.557,1103.008Zm0-28.728a13.644,13.644,0,1,0,13.644,13.644A13.66,13.66,0,0,0,1427.557,1074.28Z" transform="translate(-1407.244 -1067.611)" fill="#366088"/>
          </g>
          <g id="Group_3705" data-name="Group 3705" transform="translate(37.891 13.488)">
            <path id="Path_3717" data-name="Path 3717" d="M1488.988,1151.406a.718.718,0,0,1-.437-.148l-5.156-3.941a.719.719,0,1,1,.874-1.143l4.607,3.521,7.545-9.109a.72.72,0,0,1,1.108.918l-7.986,9.642A.719.719,0,0,1,1488.988,1151.406Z" transform="translate(-1483.112 -1140.326)" fill="#366088"/>
          </g>
        </g>
      </g>
    </g>
  </g>
</svg>
