<svg xmlns="http://www.w3.org/2000/svg" xmlns:xlink="http://www.w3.org/1999/xlink" width="415.623" height="321.95" viewBox="0 0 415.623 321.95">
  <defs>
    <clipPath id="clip-path">
      <rect id="Rectangle_6266" data-name="Rectangle 6266" width="415.623" height="321.95" fill="none"/>
    </clipPath>
    <clipPath id="clip-path-2">
      <path id="Path_29016" data-name="Path 29016" d="M147.333,28.054a.585.585,0,0,0-.458.234L141.3,35.514a.568.568,0,0,0-.14.406v2.793h-7.431a.579.579,0,0,0-.4.226L127.8,46.1c-.217.28-.346-.532-.346-.532v33.1l6.424-.547L144.9,82.246l3.789,13.836,41.122-2.1,5.337,1.915V32.775a.578.578,0,0,0-.538-.639l-1.846,0H176.251a.575.575,0,0,0-.427.225L170.237,39.6a.577.577,0,0,0-.136.375V43l-7.249-3.521V28.636a.575.575,0,0,0-.582-.582Z" transform="translate(-127.451 -28.054)" fill="none"/>
    </clipPath>
    <clipPath id="clip-path-3">
      <rect id="Rectangle_4570" data-name="Rectangle 4570" width="102.333" height="87.119" fill="none"/>
    </clipPath>
  </defs>
  <g id="img-construction" transform="translate(21655.813 -4329.313)">
    <g id="Group_9023" data-name="Group 9023" transform="translate(-21655.813 4329.313)">
      <g id="Group_9018" data-name="Group 9018" clip-path="url(#clip-path)">
        <path id="Path_32120" data-name="Path 32120" d="M88.487,258.936l-1.882.854a26.982,26.982,0,0,0-5.74-5.664l.851-2.268a6.554,6.554,0,1,0-12.271-4.609l-.727,1.937a26.816,26.816,0,0,0-8.059.051h0l-1-2.206a6.554,6.554,0,0,0-11.936,5.419l.854,1.882a26.992,26.992,0,0,0-5.664,5.74l-2.268-.852a6.554,6.554,0,0,0-4.609,12.272l1.936.727a26.814,26.814,0,0,0,.051,8.061v0l-2.205,1a6.554,6.554,0,1,0,5.419,11.936l1.88-.854a26.971,26.971,0,0,0,5.74,5.664L48,300.3A6.554,6.554,0,1,0,60.275,304.9l.725-1.93h0a27.216,27.216,0,0,0,8.065-.053l1,2.2A6.554,6.554,0,1,0,82,299.7l-.853-1.88a26.99,26.99,0,0,0,5.664-5.741l2.266.851a6.554,6.554,0,0,0,4.609-12.272l-1.931-.725h0a27.211,27.211,0,0,0-.052-8.067l2.2-1a6.554,6.554,0,0,0-5.419-11.936m-5.856,9.076a19.515,19.515,0,1,1-25.837-9.7,19.519,19.519,0,0,1,25.837,9.7" transform="translate(-19.883 -152.027)" fill="#d1d3d4"/>
        <path id="Path_32121" data-name="Path 32121" d="M88.292,315.833a12.337,12.337,0,1,0,6.13-16.335,12.334,12.334,0,0,0-6.13,16.335" transform="translate(-54.546 -186.682)" fill="#d1d3d4"/>
        <path id="Path_32122" data-name="Path 32122" d="M28.634,432.127l-.867.393a12.431,12.431,0,0,0-2.645-2.609l.392-1.045a3.02,3.02,0,0,0-5.654-2.123l-.335.893a12.341,12.341,0,0,0-3.713.024h0l-.462-1.016a3.02,3.02,0,0,0-5.5,2.5l.393.867a12.429,12.429,0,0,0-2.609,2.644l-1.045-.392a3.02,3.02,0,0,0-2.123,5.654l.892.335a12.346,12.346,0,0,0,.024,3.714h0l-1.016.461a3.02,3.02,0,1,0,2.5,5.5l.866-.393a12.442,12.442,0,0,0,2.645,2.61l-.392,1.044a3.02,3.02,0,0,0,5.654,2.123l.334-.889h0a12.533,12.533,0,0,0,3.716-.024l.46,1.013a3.02,3.02,0,0,0,5.5-2.5l-.393-.866a12.426,12.426,0,0,0,2.61-2.645l1.044.392a3.02,3.02,0,1,0,2.123-5.654l-.89-.334a12.535,12.535,0,0,0-.024-3.716l1.014-.46a3.02,3.02,0,1,0-2.5-5.5m-2.7,4.181a8.991,8.991,0,1,1-11.9-4.47,8.993,8.993,0,0,1,11.9,4.47" transform="translate(-1.569 -265.757)" fill="#d1d3d4"/>
        <path id="Path_32123" data-name="Path 32123" d="M28.544,458.342a5.684,5.684,0,1,0,2.824-7.526,5.683,5.683,0,0,0-2.824,7.526" transform="translate(-17.539 -281.724)" fill="#d1d3d4"/>
        <path id="Path_32124" data-name="Path 32124" d="M634.6,229.436l-.867.394a12.414,12.414,0,0,0-2.645-2.609l.392-1.045a3.02,3.02,0,1,0-5.654-2.123l-.335.892a12.329,12.329,0,0,0-3.713.024h0l-.462-1.016a3.02,3.02,0,1,0-5.5,2.5l.393.867a12.438,12.438,0,0,0-2.609,2.644l-1.045-.392a3.02,3.02,0,0,0-2.123,5.654l.892.335a12.346,12.346,0,0,0,.024,3.714h0l-1.016.461a3.02,3.02,0,1,0,2.5,5.5l.866-.393a12.443,12.443,0,0,0,2.645,2.61l-.392,1.044a3.02,3.02,0,0,0,5.654,2.123l.334-.889h0a12.558,12.558,0,0,0,3.716-.024l.46,1.013a3.02,3.02,0,0,0,5.5-2.5l-.393-.867a12.417,12.417,0,0,0,2.61-2.645l1.044.393A3.02,3.02,0,1,0,637,239.446l-.89-.334a12.535,12.535,0,0,0-.024-3.716l1.014-.46a3.02,3.02,0,0,0-2.5-5.5m-2.7,4.182a8.991,8.991,0,1,1-11.9-4.47,8.994,8.994,0,0,1,11.9,4.47" transform="translate(-380.677 -138.948)" fill="#d1d3d4"/>
        <path id="Path_32125" data-name="Path 32125" d="M634.509,255.651a5.684,5.684,0,1,0,2.824-7.526,5.683,5.683,0,0,0-2.824,7.526" transform="translate(-396.647 -154.915)" fill="#d1d3d4"/>
        <path id="Path_32126" data-name="Path 32126" d="M697.324,171.447v5.7h9.441v51.456H670.081v16.932h36.684v103.68h19.978V177.151h9.573v-5.7ZM688.3,243.865H672.284V230.28H688.3Zm18.224,0H690.5V230.28h16.021Zm17.03-65.723-6.73,6.187-6.173-6.187ZM709.984,330.254l-.685-.685,7.468-6.869,7.527,7.534-.018.021Zm12.266,1.858-5.428,4.99-4.983-4.99Zm-10.544-17.107H722.4l-5.574,5.122Zm-1.855-1.858-.553-.553,7.468-6.872,7.419,7.426Zm1.722-15.252h10.968l-5.721,5.258Zm-1.855-1.855-.421-.425,7.468-6.866,7.283,7.29Zm1.723-15.252h11.246l-5.863,5.387Zm-1.855-1.855-.289-.292,7.468-6.869,7.151,7.161Zm1.722-15.252h11.522l-6.009,5.522Zm-1.855-1.858-.156-.157,7.471-6.866,7.019,7.022Zm1.722-15.252h11.8l-6.152,5.655Zm-.981-2.707,6.57-6.041,6.034,6.041Zm1.66-13.585h10.38l-5.414,4.976Zm-2.439-2.669,7.353-6.761,6.751,6.761Zm1.5-15.252h12.35l-6.438,5.919Zm-1.354-1.855,7.207-6.629,6.622,6.629Zm1.218-15.252h12.632l-6.587,6.051Zm-1.072-1.858,7.061-6.493,6.493,6.493Zm-.818-14.386,6.57,6.577-6.57,6.037Zm0,16.978,6.57,6.574-6.57,6.041Zm0,16.971,6.57,6.577-6.57,6.041Zm0,17.322h.344l6.225,6.233-6.57,6.038Zm0,16.627,6.57,6.577-6.57,6.041Zm0,16.978,6.57,6.577-6.57,6.038Zm0,16.974,6.57,6.577-6.57,6.038Zm0,17.037h.063l6.507,6.514-6.57,6.037Zm0,17.11h.195l6.375,6.378-6.57,6.038Zm0,17.107h.331l6.239,6.246-6.57,6.037Zm0,15.249v-.439l7.878-7.252,7.68,7.69Zm15.736-2.453-6.486-6.493,6.486-5.961Zm0-16.971-6.486-6.493,6.486-5.964Zm0-16.978-6.486-6.493,6.486-5.961Zm0-16.974-6.486-6.493,6.486-5.961Zm0-16.974-6.486-6.493,6.486-5.964Zm0-16.974-6.486-6.493,6.486-5.961Zm0-16.974-6.486-6.493,6.486-5.965Zm0-16.974-6.486-6.493,6.486-5.961Zm0-16.974-6.486-6.493,6.486-5.965Zm0-16.978-6.486-6.49,6.486-5.965Z" transform="translate(-419.221 -107.262)" fill="#d1d3d4"/>
        <path id="Path_32127" data-name="Path 32127" d="M658.472,58.513l-2.055-7.639-.167-.612-.742,0-3.865-.02V45.1h-9.336L584.985,3.612a2.792,2.792,0,0,0,.086-.7A2.916,2.916,0,0,0,580.719.378a1.2,1.2,0,0,0-.112.064,1.974,1.974,0,0,0-.192.131.133.133,0,0,0-.022.019c-.057.042-.113.09-.166.134-.007,0-.01.01-.016.016a1.3,1.3,0,0,0-.1.093,2.9,2.9,0,0,0-.875,2.08,2.973,2.973,0,0,0,.089.724L493.059,50.329l-.083-.045-.147.074h-.465l-1.772,0h-.083l-12.025.022h-.3l-2.044,0h-.282v0l-.6.291-.57.283-.952.471-.332.164h0l-6.24,3.086-1.314.647-7.679,3.795h0l-.173.087-1.682.83v.218l1.858,0h.33l14.342-.025h0l.575,0,1.609,0h0l.208.115.141-.07.092-.045,2.077,0,5.782-.011v1.3h1.7v1.015h4.159V99.643a1.578,1.578,0,0,0-.993,2.615l-.364.152-.225.094-.253.105-.013.6-.013.5-.029,1.167-.01.5-.028,1.163v.061l-.013.439-.013.612h1.548l.045,1.733a1.418,1.418,0,0,1,.343-.045,1.079,1.079,0,0,1,.355.061,1.308,1.308,0,0,1,.174.074,1.063,1.063,0,0,1,.637,1.019c-.08.462-.613.657-.935.734a2.553,2.553,0,0,1-.257.045,1.587,1.587,0,0,1-.3,0,.363.363,0,0,1-.057,0,1.628,1.628,0,0,1-.526-.144,1.2,1.2,0,0,1-.456-.353c-.448-.571-.16-1.378-.313-1.41-.129-.026-.43.484-.433,1.045a1.78,1.78,0,0,0,.849,1.4L461.9,162.694h.6l25.882-50.627a2.519,2.519,0,0,0,.92.192l23.357,50.435h.583l-23.39-50.508a2.025,2.025,0,0,0,.344-.134,2.068,2.068,0,0,0,1.076-2.519,1.839,1.839,0,0,0-1.119-.93,2.377,2.377,0,0,0-.474-.116v-.836h1.7l0-.2.013-1.186v-.1l.006-.414.01-.785v0l.006-.4.007-.513.009-.738.006-.513v-.1l-.067-.033L491,102.5l-.448-.213a1.58,1.58,0,0,0-.967-2.647V62.526h4.416V61.511h1.061V60.19l11.723-.021h.842l1.343,0h0l.212.113.122-.059.111-.054h.264l1.813,0-.006,0h0l12.269-.022h2.183l.215.113.23-.114h.2l1.871,0h0l12.272-.022h0l.671,0h1.509l.215.113.23-.114,2.077,0h0l12.267-.022h0l1.239,0h.944l.214.113.231-.114h.468l1.609,0h0l7.563-.014c-.28.933-.466,1.554-.508,1.691a.219.219,0,0,1-.006.028l.12.216a.687.687,0,0,0-.177.453v.994a.7.7,0,0,0,.7.7h28.38a.694.694,0,0,0,.642-.43h.054V62.44a.688.688,0,0,0-.493-.656c-.007-.014-.013-.028-.019-.041q-.393-.872-.786-1.741l10.755-.02h0l1.638,0h.546l.214.113.23-.114.866,0,1.211,0,0,0h0l14.04-.025h1.19v.027l1.783.009v9.351h1.2v1.278a.338.338,0,0,0,.338.338h.824a.338.338,0,0,0,.338-.338V69.334h1.1v1.278a.337.337,0,0,0,.337.338h.824a.338.338,0,0,0,.338-.338V69.334h1.1v1.278a.338.338,0,0,0,.338.338h.824a.338.338,0,0,0,.337-.338V69.334h13.392V65.472h0v-5.38l1.491.008v2h5.736V60.13h.037Zm-197.847.7L467.108,56l5.967,3.183Zm7.794-3.856,4.987-2.464.01,5.127Zm9.67-3.926h0l12.419-.023v.1l-6.374,3.15h0l-6.045-3.224h0ZM475.3,59.018h0l-.019-.006h0l-.01-7.038.684-.34,6.875,3.667Zm2.3.161,4.541-2.244,1.942-.962h0l5.967,3.183Zm7.8-3.853,5.114-2.532h0l.009,5.266Zm96.315-44.8.34-4.689c.031,0,.067,0,.1,0a2.8,2.8,0,0,0,.465-.038l.5,4.724h-1.4Zm-.083,1.179h1.609l.638,6.027h-2.69Zm-.529,7.206H584l.635,6.027h-3.974Zm-.526,7.21h4.189l.635,6.028h-5.263ZM492.381,58.934l-.013-7.058.554-.272L499.8,55.27Zm2.682-7.538h.006l12.549-.022v.033l-6.505,3.214L495.069,51.4Zm-.493,7.75,6.486-3.205,5.966,3.183h0Zm7.8-3.855,5.25-2.593.009,5.4Zm7.116,3.546-.013-7.055.423-.209,6.874,3.666Zm2.549-7.472h0l12.614-.022h.006l0,0-6.571,3.247-6.044-3.224Zm-.488,7.75,6.485-3.2L524,59.092Zm7.8-3.853,5.382-2.66.01,5.537Zm7.249,3.479-.013-7.055.292-.144,6.874,3.666Zm2.421-7.406h0l12.613-.022-6.57,3.247-6.044-3.223Zm11.959,7.728-12.451.022h0l6.487-3.205,5.97,3.183h0Zm-4.656-3.833,5.518-2.724.009,5.673Zm7.384,3.415-.013-7.057.157-.077,6.874,3.667Zm2.285-7.342h0l12.617-.022h0l-6.571,3.247L545.99,51.3Zm-.492,7.75h0l6.487-3.206,5.968,3.183Zm7.8-3.853,5.648-2.791.011,5.809Zm7.516,3.347-.013-7.055.025-.013,6.875,3.665Zm9.845-.736v.01c-.127.421-.244.814-.355,1.186l-7.829.014,6.483-3.2,1.982,1.056c-.1.316-.192.641-.282.937m.631-2.1-1.018-.543,1.385-.684q-.186.623-.367,1.227m.822-2.743-3.1,1.53-6.042-3.223,9.652-.02c-.17.566-.341,1.14-.512,1.713m7.177-35.24c-.015.188-.027.38-.041.569s-.031.4-.044.608c-.151,2.009-.295,4.019-.443,6.028-.014.2-.028.395-.041.593s-.029.393-.043.59h0q-.22,3.014-.443,6.028c-.014.189-.028.38-.041.57s-.03.4-.045.607q-.22,3.014-.435,6.029h0c-.02.264-.039.533-.058.8a3.144,3.144,0,0,0-1.156,1.135,5.605,5.605,0,0,0-.731.158,3.156,3.156,0,0,0-2.258,1.652c-.384,1.023.278,1.007.771.882a2.894,2.894,0,0,0,.456-.139c-.017.078-.091.34-.213.755h.083c-.039.13-.08.271-.125.429-.349,1.176-.915,3.082-1.546,5.192l-9.571.017h0l-2.343,0-.135-.073-.146.073h0l-1.791,0h-.445l-12.112.023h0l-1.205,0-1.137,0-.135-.072-.147.073h-.579l-1.343,0h-.315l-12.108.022h0l-2.34,0h0l-.136-.072-.147.073-.879,0h-1.356l-12.11.022h0l-2.073,0h-.27l-.135-.073-.146.073h-2.236l-12.117.023h0l0,0-1.164,0L579.539,4.214a2.844,2.844,0,0,0,.667.875c-.131,1.81-.265,3.618-.4,5.433h0c-.01.133-.019.269-.029.4-.019.258-.038.516-.056.775q-.222,3.014-.437,6.027Zm2.362,21.622-2.034-.028.436-6h5.474l.635,6.027ZM595.42,54.535l-.4-1.216,0-1.773,6.633,3.537L596.758,57.5q-.67-1.481-1.338-2.964m1.493-3.325h.006l12.611-.022h0l-6.57,3.247-6.044-3.224Zm11.96,7.727-11.457.021c-.062-.134-.121-.268-.182-.4l5.669-2.8,5.97,3.183Zm-4.656-3.832,6.048-2.987.011,6.218Zm7.915,3.154-.013-6.673,6.5,3.466Zm1.761-7.078,12.607-.023h0L619.935,54.4Zm-.5,7.746,6.485-3.2,5.965,3.182Zm7.8-3.853,6.179-3.052h0l.011,6.355Zm9.166,3.293-.512,0,.039-7.629.473,0Zm0-13.272v5.032l-.47,0v-.01l-.664,0v0h-.6l-1.256,0-13.093.025h0l-2.16,0h-.179l-.138-.073-.147.073h-2.238l-12.108.023h0l-.967,0-1.375,0-.135-.072-.148.073h-.709q-.9-2.708-1.8-5.418l-.021-.314.669-.009.006-.022h.083s.733-2.241-.039-2.814c-.613-.45-3.448-.345-4.593-.283q-.043-.391-.083-.783c-.019-.189-.04-.378-.061-.567s-.042-.41-.064-.612h0c-.208-2.01-.423-4.019-.634-6.029-.033-.335-.07-.668-.107-1-.007-.059-.012-.119-.018-.178q-.313-3.014-.635-6.028c-.039-.394-.083-.788-.125-1.183-.215-2.009-.423-4.018-.637-6.027h0c-.043-.394-.081-.789-.128-1.178h0q-.312-3.014-.635-6.027c-.019-.194-.041-.387-.062-.581s-.041-.4-.062-.6h0q-.3-2.885-.606-5.766c.049-.061.1-.122.142-.186L630.577,45.1Zm7.893,0V43.5a.338.338,0,0,0-.337-.338h-.824a.338.338,0,0,0-.338.338V45.1h-1.1V43.5a.338.338,0,0,0-.338-.338h-.824a.337.337,0,0,0-.337.338V45.1h-1.1V43.5a.338.338,0,0,0-.338-.338h-.824a.338.338,0,0,0-.338.338V45.1h-.063L586.436,5.413,641.271,45.1Zm13.391,13.382V50.849l4.033.021,2.058,7.639Z" transform="translate(-285.481)" fill="#d1d3d4"/>
        <path id="Path_32128" data-name="Path 32128" d="M509.632,434.579H439.613a1.857,1.857,0,0,0,0,3.715h70.019a1.857,1.857,0,0,0,0-3.715" transform="translate(-273.872 -271.885)" fill="#d1d3d4"/>
        <path id="Path_32129" data-name="Path 32129" d="M452.557,363.822V529.641a4.845,4.845,0,0,1-5.095,4.553H140.181a4.851,4.851,0,0,1-5.1-4.553V363.822a4.851,4.851,0,0,1,5.1-4.553H447.462a4.845,4.845,0,0,1,5.095,4.553" transform="translate(-84.51 -224.769)" fill="#b5bdff"/>
        <path id="Path_32130" data-name="Path 32130" d="M446.229,363.906v168.85c0,2.561-2.385,4.636-5.333,4.636H119.242c-2.948,0-5.34-2.075-5.34-4.636V363.906c0-2.56,2.391-4.636,5.34-4.636H440.9c2.949,0,5.333,2.076,5.333,4.636" transform="translate(-71.26 -224.769)" fill="#f9f5ee"/>
        <path id="Path_32131" data-name="Path 32131" d="M544.076,330.53c0-2.909,2.695-5.267,6.018-5.267s6.019,2.358,6.019,5.267-2.695,5.267-6.019,5.267-6.018-2.358-6.018-5.267" transform="translate(-340.389 -203.493)" fill="#999"/>
        <path id="Path_32132" data-name="Path 32132" d="M429.478,848.358H60.8c-2.3,0-4.164-1.556-4.164-3.475s1.865-3.475,4.164-3.475H429.478c2.3,0,4.163,1.556,4.163,3.475s-1.864,3.475-4.163,3.475" transform="translate(-35.434 -526.408)" fill="#9598b8"/>
        <path id="Path_32133" data-name="Path 32133" d="M440.094,317.563H113.686c-2.684,0-4.86,1.905-4.86,4.254v187.6c0,2.348,2.177,4.254,4.86,4.254H440.094c2.683,0,4.861-1.905,4.861-4.254v-187.6c0-2.349-2.177-4.254-4.861-4.254m1.631,187.883c0,2.543-2.359,4.6-5.274,4.6H118.343c-2.916,0-5.281-2.061-5.281-4.6V337.781c0-2.543,2.365-4.6,5.281-4.6H436.45c2.916,0,5.274,2.061,5.274,4.6Z" transform="translate(-68.085 -198.676)" fill="#61658a"/>
        <path id="Path_32134" data-name="Path 32134" d="M197.725,266.975h238.58c7.374,0,13.353,6.44,13.353,14.385V443.595c0,7.944-5.978,14.385-13.353,14.385H197.725c-7.374,0-13.352-6.44-13.352-14.385V281.36c0-7.944,5.978-14.385,13.352-14.385" transform="translate(-115.349 -167.027)" fill="#9598b8"/>
        <path id="Path_32135" data-name="Path 32135" d="M207.2,320.627H439.149a12.821,12.821,0,0,1,12.981,12.655V476.006a12.821,12.821,0,0,1-12.981,12.654H207.2a12.821,12.821,0,0,1-12.981-12.654V333.282A12.821,12.821,0,0,1,207.2,320.627" transform="translate(-121.506 -200.593)" fill="#f9f5ee"/>
        <path id="Path_32136" data-name="Path 32136" d="M307.132,290.555a2.232,2.232,0,1,0-2.226,2.4,2.317,2.317,0,0,0,2.226-2.4" transform="translate(-189.365 -180.279)" fill="#fff"/>
        <path id="Path_32137" data-name="Path 32137" d="M277,290.555a2.232,2.232,0,1,0-2.226,2.4,2.317,2.317,0,0,0,2.226-2.4" transform="translate(-170.515 -180.279)" fill="#fff"/>
        <path id="Path_32138" data-name="Path 32138" d="M246.875,290.555a2.232,2.232,0,1,0-2.226,2.4,2.317,2.317,0,0,0,2.226-2.4" transform="translate(-151.667 -180.279)" fill="#fff"/>
        <path id="Path_32139" data-name="Path 32139" d="M693.01,292.953h51.162a2.4,2.4,0,1,0,0-4.8H693.01a2.4,2.4,0,1,0,0,4.8" transform="translate(-432.066 -180.279)" fill="#fff"/>
        <path id="Path_32141" data-name="Path 32141" d="M440.333,564.872a1.822,1.822,0,1,1,2.489.667,1.822,1.822,0,0,1-2.489-.667" transform="translate(-275.331 -351.69)" fill="#c8cced"/>
        <g id="Group_9022" data-name="Group 9022">
          <path id="Path_32140" data-name="Path 32140" d="M418.311,505.623a3.652,3.652,0,1,1,3.652,3.652,3.652,3.652,0,0,1-3.652-3.652" transform="translate(-280.672 -302.193)" fill="#c8cced"/>
          <path id="Path_32142" data-name="Path 32142" d="M659.686,494.714A10.919,10.919,0,1,1,648.767,483.8a10.919,10.919,0,0,1,10.919,10.918" transform="translate(-389.949 -293.146)" fill="#c8cced"/>
          <path id="Path_32143" data-name="Path 32143" d="M640,423.137a9.253,9.253,0,1,1-12.64-3.387A9.253,9.253,0,0,1,640,423.137" transform="translate(-382.426 -260.648)" fill="#c8cced"/>
          <path id="Path_32144" data-name="Path 32144" d="M591.226,380.435a8.7,8.7,0,1,1-11.887,3.185,8.7,8.7,0,0,1,11.887-3.185" transform="translate(-360.246 -241.115)" fill="#c8cced"/>
          <path id="Path_32145" data-name="Path 32145" d="M528.2,369.255a7.654,7.654,0,1,1-7.654,7.654,7.654,7.654,0,0,1,7.654-7.654" transform="translate(-331.563 -236.131)" fill="#c8cced"/>
          <path id="Path_32146" data-name="Path 32146" d="M468.591,392.121a6.325,6.325,0,1,1-2.316,8.64,6.324,6.324,0,0,1,2.316-8.64" transform="translate(-304.125 -247.091)" fill="#c8cced"/>
          <path id="Path_32147" data-name="Path 32147" d="M428.908,442.482a4.726,4.726,0,1,1,1.73,6.456,4.725,4.725,0,0,1-1.73-6.456" transform="translate(-285.631 -271.404)" fill="#c8cced"/>
        </g>
        <path id="Path_32159" data-name="Path 32159" d="M809.428,587.169s2.482,13.973,6.106,14.938a10.592,10.592,0,0,0,5.76-.611c3.4-1.151,6.53-3.2,6.638-3.758l3.452-10.478c-1.987.856-13.306,7.309-14.231,7.927-1.5-2.248-4.745-8.1-4.852-8.527a6.375,6.375,0,0,0-.563-2.92c-.55-.785-.757.526-.989.213-.253-.344-2.325-3.559-3.322-2.494-2.214,2.374,2,5.709,2,5.709" transform="translate(-504.747 -363.642)" fill="#f9cbcb"/>
        <path id="Path_32160" data-name="Path 32160" d="M839.583,602.8c.259,2.734,1.845,6.431,2.01,8.144,3.4-1.151,7.5-1.537,7.612-2.1l3.549-13.061c-1.986.856-9.223,4.67-13.172,7.013" transform="translate(-525.266 -372.744)" fill="#e87988"/>
        <path id="Path_32161" data-name="Path 32161" d="M859.106,702.589a46.872,46.872,0,0,1,1.39,7.273,80.949,80.949,0,0,1-.606,19.936l-2.91-.286s-4.111-14.927-6.054-22.561c-.5-1.937-.887-3.667-1.088-4.972-1.174-7.449,3.174-28.553,3.453-29.919l.012-.052,0-.019,11.708-1.636c6.221,14.8-1.158,18.525-5.91,32.236" transform="translate(-531.557 -419.391)" fill="#f1cccd"/>
        <path id="Path_32162" data-name="Path 32162" d="M864.626,690.427a99.473,99.473,0,0,0-5.521,12.162c.648,2.411,1.386,4.918,2.238,7.84l-10.126,1.415c-.5-1.937-1.177-8.56-1.378-9.865-1.174-7.449,3.174-28.553,3.453-29.919l.012-.053,0-.019,11.708-1.636c3.927,9.338,2.437,14.263-.389,20.074" transform="translate(-531.557 -419.391)" fill="#232538"/>
        <path id="Path_32163" data-name="Path 32163" d="M874.828,714.339a99.491,99.491,0,0,0-5.521,12.162c.648,2.411,1.385,4.918,2.238,7.84l-1.869.261c-.32-2.891-2.874-7.645-3.732-7.492.76-.188,7.719-13.817,8.249-18.537Z" transform="translate(-541.759 -443.303)" fill="#191624"/>
        <path id="Path_32164" data-name="Path 32164" d="M884.365,735.5l7.134-8.269s-5.238-8.182-9.477-13.621a41.542,41.542,0,0,0-2.767-3.282c-5.8-6.012-8.835-36.31-8.835-36.31h9.6c7.523,6.916,5.628,16.438,5.85,25.844a17.749,17.749,0,0,0,2.886,9.149c.354.553.688,1.113,1,1.687,2.195,4.006,3.5,8.7,4.7,16.419l1.485,5.008Z" transform="translate(-544.559 -421.683)" fill="#f1cccd"/>
        <path id="Path_32165" data-name="Path 32165" d="M889.044,710.332l-2.773,1.27-5.635,2.578c-1.006-1.3-1.767-3.213-2.578-4.056-5.8-6.012-9.552-36.429-9.552-36.429l9.9.113.409.006c7.271,6.684,5.745,15.8,5.835,24.9a17.114,17.114,0,0,0,3.5,10.278,10.4,10.4,0,0,1,.889,1.339" transform="translate(-543.361 -421.483)" fill="#30334d"/>
        <path id="Path_32166" data-name="Path 32166" d="M901.759,710.521l-2.773,1.27a42.081,42.081,0,0,1-2.965-5.891c-1.887-4.775-.726-11.26-1.179-20.379a12.951,12.951,0,0,0-6.012-9.983l2.3-1.541.409.006c7.271,6.684,5.745,15.8,5.835,24.9a17.114,17.114,0,0,0,3.5,10.278,10.392,10.392,0,0,1,.889,1.339" transform="translate(-556.077 -421.672)" fill="#232538"/>
        <path id="Path_32167" data-name="Path 32167" d="M875.334,604.678c-.082,6.049-1.572,16.539-2.138,20.312a1.946,1.946,0,0,1-.811,1.314,1.89,1.89,0,0,1-.8.32,53.266,53.266,0,0,1-7.949.616,39.682,39.682,0,0,1-6.8-.559,1.955,1.955,0,0,1-1.616-1.711c-.308-2.855.587-9.118.443-15.212-.094-3.855,1.115-13.722,8.314-15.274l4.217-.038a9.075,9.075,0,0,1,7.037,7.37,20.142,20.142,0,0,1,.113,2.861" transform="translate(-535.003 -371.902)" fill="#d94e61"/>
        <path id="Path_32168" data-name="Path 32168" d="M852.032,826.151c-4.478,1.719-9.447,1.542-9.757,5.584l14.09-.492a10.112,10.112,0,0,0-.854-5.092Z" transform="translate(-526.95 -516.863)" fill="#232538"/>
        <path id="Path_32169" data-name="Path 32169" d="M913.41,815.039c-3.585,3.188-8.947,5.435-7.812,9.326l13.012-4.35c-.449-1.661-1.051-4.329-2.332-5.644Z" transform="translate(-566.471 -509.494)" fill="#232538"/>
        <path id="Path_32170" data-name="Path 32170" d="M876.877,569.4c1.373.424,1.928,1.11,3.683.317,2.672-1.207,4.927-5.831,1.379-7.922a1.537,1.537,0,0,0-1.427-1.22c-.935-.2-1.893.2-3.182.182s-2.18-1.326-3.3.548.731,3.308,2.127,4.231.943,2.515.724,3.865" transform="translate(-546.599 -350.534)" fill="#30334d"/>
        <path id="Path_32171" data-name="Path 32171" d="M882.985,587.493c-1.534,1.535-2.982,1.828-4.276.027l.365-2.96.152-1.246h3.4l.065.773Z" transform="translate(-549.745 -364.937)" fill="#f9cbcb"/>
        <path id="Path_32172" data-name="Path 32172" d="M883.149,582.243a3.909,3.909,0,0,1-3.778.869l.269-2.192,3.415-1.433Z" transform="translate(-550.159 -362.543)" fill="#f0b4b4"/>
        <path id="Path_32173" data-name="Path 32173" d="M874.32,567.42c-.625,1.762-1.237,5.655.257,7.1.946.916,4.379.562,5.081-1.959.828-.6,1.436-2.062.673-2.725-.544-.473-1.239.777-2.187.57-.36-.078.746-2.484-.378-2.9s-2.312.486-3.445-.089" transform="translate(-546.578 -354.978)" fill="#f9cbcb"/>
        <path id="Path_32174" data-name="Path 32174" d="M871.442,562.466c-.281.834,2.092,2.385,5.3,3.465s6.035,1.279,6.316.445-2.092-2.385-5.3-3.465-6.035-1.279-6.316-.445" transform="translate(-545.184 -351.572)" fill="#ffbc47"/>
        <path id="Path_32175" data-name="Path 32175" d="M873.961,557.318a.528.528,0,0,0,.193.6,18.445,18.445,0,0,0,2.4,1.418,16.391,16.391,0,0,0,3.636,1.3,17.168,17.168,0,0,0,3.279.421.528.528,0,0,0,.511-.361,4.911,4.911,0,0,0-1.913-5.629,5.094,5.094,0,0,0-1.164-.572l-.739-.247a4.736,4.736,0,0,0-1.812-.246,4.468,4.468,0,0,0-.671.083,4.888,4.888,0,0,0-3.718,3.239" transform="translate(-546.757 -346.589)" fill="#ffbc47"/>
        <path id="Path_32176" data-name="Path 32176" d="M883.731,559.7a4.888,4.888,0,0,0-.97-1.323,4.845,4.845,0,0,1,.259.45,4.9,4.9,0,0,1,.257,3.737.528.528,0,0,1-.51.361,17.2,17.2,0,0,1-3.279-.421,16.4,16.4,0,0,1-3.636-1.3,18.053,18.053,0,0,1-1.891-1.079.525.525,0,0,0,.2.533,18.445,18.445,0,0,0,2.4,1.418,16.417,16.417,0,0,0,3.636,1.3,17.185,17.185,0,0,0,3.279.421.527.527,0,0,0,.51-.361,4.9,4.9,0,0,0-.257-3.737" transform="translate(-546.767 -349.335)" fill="#e6a940"/>
        <path id="Path_32177" data-name="Path 32177" d="M875.675,556.237a1.778,1.778,0,0,0,.465.4,1.86,1.86,0,0,0,2.63-2.4,4.871,4.871,0,0,0-3.095,2" transform="translate(-547.846 -346.743)" fill="#ffcf7a"/>
        <path id="Path_32178" data-name="Path 32178" d="M753.155,457.4l-8.8-5.716a.947.947,0,0,0-.947-.049l-4.052,2.07,3.52,6.89A11.045,11.045,0,1,1,723.2,470.646l-3.52-6.891-4.051,2.07a.948.948,0,0,0-.515.794l-.548,10.44a.946.946,0,0,0,.43.844l17.47,11.347a.947.947,0,0,0,.946.049l4.228-2.154,34.237,67.023a5.689,5.689,0,0,0,10.132-5.176l-34.232-67.012,4.2-2.137a.949.949,0,0,0,.516-.794l1.092-20.8a.949.949,0,0,0-.43-.844m24.695,95.945a2.6,2.6,0,1,1,1.134-3.5,2.605,2.605,0,0,1-1.134,3.5" transform="translate(-447.054 -282.492)" fill="#c8cbe3"/>
        <path id="Path_32179" data-name="Path 32179" d="M753.155,457.4l-8.8-5.716a.947.947,0,0,0-.947-.049l-4.052,2.07,3.52,6.89A11.045,11.045,0,1,1,723.2,470.646l-3.52-6.891-4.051,2.07a.948.948,0,0,0-.515.794l-.548,10.44a.946.946,0,0,0,.43.844l17.47,11.347a.947.947,0,0,0,.946.049l4.228-2.154,34.237,67.023a5.689,5.689,0,0,0,10.132-5.176l-34.232-67.012,4.2-2.137a.949.949,0,0,0,.516-.794l1.092-20.8a.949.949,0,0,0-.43-.844m24.695,95.945a2.6,2.6,0,1,1,1.134-3.5,2.605,2.605,0,0,1-1.134,3.5" transform="translate(-447.054 -282.492)" fill="#c8cbe3"/>
        <path id="Path_32180" data-name="Path 32180" d="M764.037,550.31a.941.941,0,0,0,.328-.09l2.459-1.253-.031-.061Z" transform="translate(-478.003 -343.411)" fill="#a1a6c9"/>
        <path id="Path_32181" data-name="Path 32181" d="M725.277,484.182l-1.768.9L727,491.912a11.044,11.044,0,0,0,14.86,4.811c.174-.088.334-.192.5-.288a11.04,11.04,0,0,1-13.561-5.364Z" transform="translate(-452.647 -302.918)" fill="#a1a6c9"/>
        <path id="Path_32182" data-name="Path 32182" d="M790.1,451.686a.949.949,0,0,0-.947-.049l-1.467.75a.939.939,0,0,1,.614.14l8.8,5.716a.949.949,0,0,1,.43.845l-1.092,20.8a.948.948,0,0,1-.516.794l-4.2,2.137,34.231,67.012a5.679,5.679,0,0,1-1.809,7.245,5.681,5.681,0,0,0,3.609-8.085l-34.232-67.012,4.2-2.137a.948.948,0,0,0,.516-.795l1.092-20.8a.946.946,0,0,0-.43-.844Z" transform="translate(-492.795 -282.492)" fill="#a1a6c9"/>
        <path id="Path_32183" data-name="Path 32183" d="M873.192,716.961a2.592,2.592,0,0,1-2.024-4.351,2.576,2.576,0,0,0-1.074.277,2.6,2.6,0,1,0,2.369,4.638,2.578,2.578,0,0,0,.729-.564" transform="translate(-543.467 -445.828)" fill="#a1a6c9"/>
        <path id="Path_32184" data-name="Path 32184" d="M863.03,608.685a23.052,23.052,0,0,1-2.766,8.685,10.673,10.673,0,0,1-1.679,2.1c-3.947,3.589-16.157,6.887-16.157,6.887-1.57,4.512-4.628,3.871-5.681,2.616-2.406-2.867,2.174-2.3,2.172-3.869,0,0-1.521-.652-1.4-1.37.214-1.314,3.62-.167,3.62-.167,4.649-3.287,8.832-5.6,12.576-8.576.153-.615.306-1.229.473-1.841a30.034,30.034,0,0,1,6.189-12.3c2.959,1.785,2.569,4.886,2.656,7.833" transform="translate(-523.054 -375.91)" fill="#f9cbcb"/>
        <path id="Path_32185" data-name="Path 32185" d="M890.123,616.15l-8.008-3.463c1.219-4.4,2.346-14.793,6.929-13.168,6.1,2.163,3.348,13.053,1.079,16.631" transform="translate(-551.875 -374.969)" fill="#e87988"/>
        <path id="Path_32186" data-name="Path 32186" d="M33.863,574H.514A.514.514,0,0,1,0,573.487v-.849a.514.514,0,0,1,.514-.514H33.863a.514.514,0,0,1,.514.514v.849a.514.514,0,0,1-.514.514" transform="translate(0 -357.937)" fill="#e6e7e8"/>
        <path id="Path_32187" data-name="Path 32187" d="M57.207,592.618H37.1a.514.514,0,0,1-.514-.514v-.849a.514.514,0,0,1,.514-.514H57.207a.514.514,0,0,1,.514.514v.849a.514.514,0,0,1-.514.514" transform="translate(-22.889 -369.585)" fill="#e6e7e8"/>
        <path id="Path_32188" data-name="Path 32188" d="M14.092,592.618H7.482a.513.513,0,0,1-.513-.514v-.849a.513.513,0,0,1,.513-.514h6.61a.514.514,0,0,1,.514.514v.849a.514.514,0,0,1-.514.514" transform="translate(-4.36 -369.585)" fill="#e6e7e8"/>
        <path id="Path_32189" data-name="Path 32189" d="M452.77,216.767H419.421a.514.514,0,0,1-.514-.514V215.4a.513.513,0,0,1,.514-.514H452.77a.514.514,0,0,1,.514.514v.849a.514.514,0,0,1-.514.514" transform="translate(-262.08 -134.442)" fill="#d5d8ed"/>
        <path id="Path_32190" data-name="Path 32190" d="M476.114,235.385H456a.514.514,0,0,1-.514-.514v-.849a.514.514,0,0,1,.514-.514h20.109a.513.513,0,0,1,.513.514v.849a.513.513,0,0,1-.513.514" transform="translate(-284.968 -146.09)" fill="#d5d8ed"/>
        <path id="Path_32191" data-name="Path 32191" d="M433,235.385h-6.61a.514.514,0,0,1-.514-.514v-.849a.514.514,0,0,1,.514-.514H433a.514.514,0,0,1,.514.514v.849a.514.514,0,0,1-.514.514" transform="translate(-266.439 -146.09)" fill="#d5d8ed"/>
        <path id="Path_32192" data-name="Path 32192" d="M1051.007,685.85h-33.349a.514.514,0,0,1-.514-.514v-.849a.514.514,0,0,1,.514-.514h33.349a.514.514,0,0,1,.514.514v.849a.514.514,0,0,1-.514.514" transform="translate(-636.353 -427.913)" fill="#d5d8ed"/>
        <path id="Path_32193" data-name="Path 32193" d="M1074.351,704.467h-20.109a.513.513,0,0,1-.514-.514V703.1a.513.513,0,0,1,.514-.514h20.109a.514.514,0,0,1,.514.514v.849a.514.514,0,0,1-.514.514" transform="translate(-659.242 -439.56)" fill="#d5d8ed"/>
        <path id="Path_32194" data-name="Path 32194" d="M1031.236,704.467h-6.61a.514.514,0,0,1-.514-.514V703.1a.514.514,0,0,1,.514-.514h6.61a.514.514,0,0,1,.514.514v.849a.514.514,0,0,1-.514.514" transform="translate(-640.713 -439.56)" fill="#d5d8ed"/>
      </g>
    </g>
    <g id="Group_9024" data-name="Group 9024" transform="translate(-21511.455 4497.417)">
      <g id="Group_5634" data-name="Group 5634" transform="translate(20.993 4.621)">
        <g id="Group_5633" data-name="Group 5633" clip-path="url(#clip-path-2)">
          <rect id="Rectangle_4565" data-name="Rectangle 4565" width="5.909" height="47.104" transform="translate(57.861 18.274)" fill="#ffed00"/>
          <rect id="Rectangle_4566" data-name="Rectangle 4566" width="11.818" height="11.814" transform="translate(51.952 8.004)" fill="#ffed00"/>
          <rect id="Rectangle_4567" data-name="Rectangle 4567" width="4.822" height="43.39" transform="translate(8.685 15.679)" fill="#4fdaad"/>
          <rect id="Rectangle_4568" data-name="Rectangle 4568" width="5.542" height="38.793" transform="translate(43.953 25.848)" fill="#4fdaad"/>
          <rect id="Rectangle_4569" data-name="Rectangle 4569" width="8.488" height="61.744" transform="translate(23.109 4.802)" fill="#ff9a00"/>
          <path id="Path_28989" data-name="Path 28989" d="M144.4,149.884H128.925a.582.582,0,0,1-.582-.582V100.6a.587.587,0,0,1,.122-.356l5.6-7.258a.582.582,0,0,1,.461-.226H144.4a.582.582,0,0,1,.582.582V149.3a.582.582,0,0,1-.582.582m-14.9-1.164h14.313V93.928h-9.006l-5.307,6.875Z" transform="translate(-128.196 -82.105)" fill="#1d1d1b"/>
          <path id="Path_28990" data-name="Path 28990" d="M162.939,149.885a.582.582,0,0,1-.582-.582V93.347a.582.582,0,0,1,1.165,0V149.3a.582.582,0,0,1-.582.582" transform="translate(-156.607 -82.106)" fill="#1d1d1b"/>
          <path id="Path_28991" data-name="Path 28991" d="M231.764,95.833H216.834a.582.582,0,1,1,0-1.164h14.349V29.219H217.12l-5.306,6.874v1.13a.582.582,0,0,1-1.164,0V35.894a.585.585,0,0,1,.122-.356l5.6-7.257a.583.583,0,0,1,.461-.226h14.931a.582.582,0,0,1,.582.582V95.251a.582.582,0,0,1-.582.582" transform="translate(-196.946 -28.055)" fill="#1d1d1b"/>
          <path id="Path_28992" data-name="Path 28992" d="M245.239,95.833a.582.582,0,0,1-.582-.582V28.637a.582.582,0,0,1,1.165,0V95.251a.582.582,0,0,1-.582.582" transform="translate(-225.352 -28.055)" fill="#1d1d1b"/>
          <path id="Path_28993" data-name="Path 28993" d="M354.156,205.515H335.886a.582.582,0,0,1,0-1.164h17.688V160.53H342.016l-5.694,6.442a.582.582,0,1,1-.873-.771l5.868-6.639a.584.584,0,0,1,.437-.2h12.4a.582.582,0,0,1,.582.582v44.985a.582.582,0,0,1-.582.582" transform="translate(-301.067 -137.736)" fill="#1d1d1b"/>
          <path id="Path_28994" data-name="Path 28994" d="M371.51,205.515a.582.582,0,0,1-.582-.582V159.947a.582.582,0,0,1,1.165,0v44.985a.582.582,0,0,1-.582.582" transform="translate(-330.824 -137.736)" fill="#1d1d1b"/>
          <path id="Path_28995" data-name="Path 28995" d="M420.975,68.828a.582.582,0,0,1-.582-.582V53.407a.582.582,0,1,1,1.164,0V68.246a.582.582,0,0,1-.582.582" transform="translate(-372.141 -48.745)" fill="#1d1d1b"/>
          <path id="Path_28996" data-name="Path 28996" d="M410.848,116.524H399.612a.582.582,0,1,1,0-1.164h10.654V53.99H392.855l-5.306,6.874v7.38a.582.582,0,0,1-1.164,0V60.665a.584.584,0,0,1,.122-.356l5.6-7.257a.583.583,0,0,1,.461-.226h18.28a.582.582,0,0,1,.582.582v62.534a.582.582,0,0,1-.582.582" transform="translate(-343.735 -48.746)" fill="#1d1d1b"/>
          <path id="Path_28997" data-name="Path 28997" d="M264.8,116.584a.582.582,0,0,1-.582-.582V54.257a.582.582,0,1,1,1.165,0V116a.582.582,0,0,1-.582.582" transform="translate(-241.689 -49.455)" fill="#1d1d1b"/>
          <path id="Path_28998" data-name="Path 28998" d="M316.328,116.584a.582.582,0,0,1-.582-.582V54.257a.582.582,0,1,1,1.164,0V116a.582.582,0,0,1-.582.582" transform="translate(-284.731 -49.455)" fill="#1d1d1b"/>
          <path id="Path_28999" data-name="Path 28999" d="M497.96,74.281h-2.7a.582.582,0,0,1,0-1.164h2.7a.582.582,0,0,1,0,1.164" transform="translate(-434.19 -65.695)" fill="#1d1d1b"/>
          <path id="Path_29000" data-name="Path 29000" d="M497.96,95.06h-2.7a.582.582,0,0,1,0-1.164h2.7a.582.582,0,0,1,0,1.164" transform="translate(-434.19 -83.051)" fill="#1d1d1b"/>
          <path id="Path_29001" data-name="Path 29001" d="M497.96,115.848h-2.7a.582.582,0,0,1,0-1.164h2.7a.582.582,0,0,1,0,1.164" transform="translate(-434.19 -100.415)" fill="#1d1d1b"/>
          <path id="Path_29002" data-name="Path 29002" d="M497.96,136.628h-2.7a.582.582,0,0,1,0-1.164h2.7a.582.582,0,0,1,0,1.164" transform="translate(-434.19 -117.772)" fill="#1d1d1b"/>
          <path id="Path_29003" data-name="Path 29003" d="M497.96,157.415h-2.7a.582.582,0,0,1,0-1.164h2.7a.582.582,0,0,1,0,1.164" transform="translate(-434.19 -135.135)" fill="#1d1d1b"/>
          <path id="Path_29004" data-name="Path 29004" d="M497.96,178.2h-2.7a.582.582,0,0,1,0-1.164h2.7a.582.582,0,0,1,0,1.164" transform="translate(-434.19 -152.493)" fill="#1d1d1b"/>
          <path id="Path_29005" data-name="Path 29005" d="M497.96,198.983h-2.7a.582.582,0,0,1,0-1.164h2.7a.582.582,0,0,1,0,1.164" transform="translate(-434.19 -169.857)" fill="#1d1d1b"/>
          <path id="Path_29006" data-name="Path 29006" d="M497.96,219.764h-2.7a.582.582,0,1,1,0-1.164h2.7a.582.582,0,0,1,0,1.164" transform="translate(-434.19 -187.215)" fill="#1d1d1b"/>
          <path id="Path_29007" data-name="Path 29007" d="M497.96,240.551h-2.7a.582.582,0,0,1,0-1.164h2.7a.582.582,0,0,1,0,1.164" transform="translate(-434.19 -204.578)" fill="#1d1d1b"/>
          <path id="Path_29008" data-name="Path 29008" d="M497.96,261.338h-2.7a.582.582,0,1,1,0-1.164h2.7a.582.582,0,0,1,0,1.164" transform="translate(-434.19 -221.941)" fill="#1d1d1b"/>
          <path id="Path_29009" data-name="Path 29009" d="M497.96,282.119h-2.7a.582.582,0,0,1,0-1.164h2.7a.582.582,0,0,1,0,1.164" transform="translate(-434.19 -239.299)" fill="#1d1d1b"/>
          <path id="Path_29010" data-name="Path 29010" d="M497.96,302.906h-2.7a.582.582,0,0,1,0-1.164h2.7a.582.582,0,0,1,0,1.164" transform="translate(-434.19 -256.662)" fill="#1d1d1b"/>
          <path id="Path_29011" data-name="Path 29011" d="M497.96,323.686h-2.7a.582.582,0,1,1,0-1.164h2.7a.582.582,0,0,1,0,1.164" transform="translate(-434.19 -274.019)" fill="#1d1d1b"/>
          <path id="Path_29012" data-name="Path 29012" d="M497.96,344.473h-2.7a.582.582,0,0,1,0-1.164h2.7a.582.582,0,0,1,0,1.164" transform="translate(-434.19 -291.383)" fill="#1d1d1b"/>
          <path id="Path_29013" data-name="Path 29013" d="M497.96,365.253h-2.7a.582.582,0,0,1,0-1.164h2.7a.582.582,0,0,1,0,1.164" transform="translate(-434.19 -308.74)" fill="#1d1d1b"/>
          <path id="Path_29014" data-name="Path 29014" d="M191.859,141.574a.582.582,0,0,1-.582-.582V120.83a.582.582,0,1,1,1.165,0v20.161a.582.582,0,0,1-.582.582" transform="translate(-180.764 -105.062)" fill="#1d1d1b"/>
          <path id="Path_29015" data-name="Path 29015" d="M408.169,213.627c-.322,0-.582-.39-.582-.871V182.591c0-.481.261-.871.582-.871s.582.389.582.871v30.165c0,.482-.26.871-.582.871" transform="translate(-361.445 -156.409)" fill="#1d1d1b"/>
        </g>
      </g>
      <g id="Group_5636" data-name="Group 5636">
        <g id="Group_5635" data-name="Group 5635" clip-path="url(#clip-path-3)">
          <path id="Path_29017" data-name="Path 29017" d="M253.9,273.44q-.2.439-.532,1.169t-.713,1.464q-.377.735-.774,1.372a3.548,3.548,0,0,1-.746.912,1.483,1.483,0,0,1-.754.564.71.71,0,0,1-.74-.285q-.295-.246-.107-1.167a12.222,12.222,0,0,1,.628-2.027A16.308,16.308,0,0,1,251.2,273.3a6.358,6.358,0,0,1,1.153-1.534.905.905,0,0,1,.784-.385.847.847,0,0,1,.587.387,2.008,2.008,0,0,1,.288.8,1.459,1.459,0,0,1-.112.869" transform="translate(-208.368 -226.674)" fill="#fff"/>
          <path id="Path_29018" data-name="Path 29018" d="M246.865,276.263a1.387,1.387,0,0,1-1.039-.5,1.876,1.876,0,0,1-.288-1.767,12.958,12.958,0,0,1,.662-2.138,17.057,17.057,0,0,1,1.08-2.23,6.992,6.992,0,0,1,1.26-1.674,1.442,1.442,0,0,1,2.384.108,2.666,2.666,0,0,1,.389,1.066,2.115,2.115,0,0,1-.164,1.247q-.2.44-.532,1.168c-.229.5-.473,1-.725,1.49s-.528.982-.8,1.42a4.338,4.338,0,0,1-.835,1.03,2.078,2.078,0,0,1-1.055.734,1.305,1.305,0,0,1-.336.044m-.088-1.412.008.009a.457.457,0,0,0,.088.081.944.944,0,0,0,.394-.331l.049-.063.063-.049a2.874,2.874,0,0,0,.593-.742c.254-.407.5-.852.746-1.324s.479-.959.7-1.44.4-.871.53-1.163l.007-.014a.811.811,0,0,0,.055-.485,1.368,1.368,0,0,0-.186-.541.191.191,0,0,0-.124-.1.74.74,0,0,0-.212.177l-.044.044a5.773,5.773,0,0,0-1.023,1.374,15.728,15.728,0,0,0-1,2.057,11.608,11.608,0,0,0-.6,1.917,1.8,1.8,0,0,0-.053.588" transform="translate(-205.022 -223.334)" fill="#fff"/>
          <path id="Path_29019" data-name="Path 29019" d="M44.751,401.215a1.227,1.227,0,0,0,.389-.056l.333-.111q.167-.055.375-.111a2.02,2.02,0,0,1,.514-.056,1.8,1.8,0,0,1,1.221.347.7.7,0,0,1,.194.846,23.561,23.561,0,0,0-.9,2.8q-.458,1.721-.985,3.65A14.614,14.614,0,0,1,45.441,410a27.5,27.5,0,0,1-1.374,3.539,10.447,10.447,0,0,1-1.666,2.568,2.714,2.714,0,0,1-2.026,1,2,2,0,0,1-.68-.125,1.162,1.162,0,0,1-.541-.375.853.853,0,0,1-.153-.638,1.787,1.787,0,0,1,.514-.916A20,20,0,0,0,41.1,413.08a11.152,11.152,0,0,0,.985-1.721c.25-.555.062-.242.2-.816s-.068.352.024-.333a.474.474,0,0,0-.472-.347,2.646,2.646,0,0,0-.777.1q-.417.111-.833.264a2.062,2.062,0,0,1-.666.153,2.016,2.016,0,0,1-1.721-.736,2.882,2.882,0,0,1-.555-1.79,8.949,8.949,0,0,1,.347-2.332,8.441,8.441,0,0,1,1.041-2.36,6.131,6.131,0,0,1,1.707-1.777A3.462,3.462,0,0,1,42.7,400.8a4.179,4.179,0,0,1,1.013.236,2.955,2.955,0,0,0,1.041.181m-3.692,6.94a1.609,1.609,0,0,0,.958-.361,3.27,3.27,0,0,0,.819-.889,5.391,5.391,0,0,0,.569-1.263,3.729,3.729,0,0,0,.181-1.263,1.471,1.471,0,0,0-.333-.93.959.959,0,0,0-.944-.236,4.541,4.541,0,0,0-.971.708,4.056,4.056,0,0,0-.666.819,4.579,4.579,0,0,0-.527,1.18,3.12,3.12,0,0,0-.125,1.1,1.436,1.436,0,0,0,.305.819.9.9,0,0,0,.736.319" transform="translate(-31.142 -334.769)" fill="#fff"/>
          <path id="Path_29020" data-name="Path 29020" d="M34.527,412.41a3.156,3.156,0,0,1-1.071-.193,2.3,2.3,0,0,1-1.061-.752A1.984,1.984,0,0,1,32.006,410a2.831,2.831,0,0,1,.8-1.562,18.946,18.946,0,0,0,1.491-1.855,10.729,10.729,0,0,0,.724-1.207q-.125.041-.249.087a3.243,3.243,0,0,1-3.7-.971A4.02,4.02,0,0,1,30.282,402a10.14,10.14,0,0,1,.387-2.634,9.634,9.634,0,0,1,1.183-2.679,7.308,7.308,0,0,1,2.026-2.106,4.6,4.6,0,0,1,3.067-.78l.024,0a5.35,5.35,0,0,1,1.292.3,1.8,1.8,0,0,0,.641.109l.04,0,.314-.1c.136-.045.279-.088.443-.132a3.14,3.14,0,0,1,.813-.1,2.9,2.9,0,0,1,1.989.639,1.855,1.855,0,0,1,.5,2.125l-.008.02a22.592,22.592,0,0,0-.855,2.663c-.3,1.132-.633,2.362-.988,3.658l-.135.5a2.826,2.826,0,0,1-.109.36c-.027.068-.1.3-.216.656a28.779,28.779,0,0,1-1.433,3.688,11.631,11.631,0,0,1-1.856,2.85,3.829,3.829,0,0,1-2.877,1.373m-.106-2.314a.7.7,0,0,0,.106.008,1.538,1.538,0,0,0,1.177-.625,9.35,9.35,0,0,0,1.475-2.286,26.464,26.464,0,0,0,1.315-3.39c.176-.556.231-.707.26-.781l.038-.141.137-.5c.353-1.291.684-2.516.984-3.643.263-.99.529-1.842.791-2.541-.054,0-.117-.007-.19-.007a.95.95,0,0,0-.217.017c-.116.031-.221.062-.309.091l-.333.111a2.367,2.367,0,0,1-.752.114,4.122,4.122,0,0,1-1.444-.253,3.036,3.036,0,0,0-.72-.168,2.322,2.322,0,0,0-1.557.387,5.014,5.014,0,0,0-1.387,1.447,7.334,7.334,0,0,0-.9,2.04,7.852,7.852,0,0,0-.307,2.03,1.751,1.751,0,0,0,.322,1.1c.058.076.208.275.789.278a1.513,1.513,0,0,0,.281-.082l.213-.075a1.989,1.989,0,0,1-.608-.5,2.569,2.569,0,0,1-.565-1.457,4.283,4.283,0,0,1,.164-1.5,5.751,5.751,0,0,1,.657-1.477,5.2,5.2,0,0,1,.845-1.041,5.718,5.718,0,0,1,1.218-.889l.169-.093.19-.033a2.065,2.065,0,0,1,2.006.609,2.6,2.6,0,0,1,.62,1.638,4.886,4.886,0,0,1-.23,1.656,6.554,6.554,0,0,1-.691,1.531,4.452,4.452,0,0,1-1.112,1.208q-.094.07-.19.132a1.561,1.561,0,0,1,.621.487l.538.116-.208,1.1a1.779,1.779,0,0,1-.043.18l-.018.076c-.016.067-.024.105-.026.122a1.991,1.991,0,0,1-.244.9,12.352,12.352,0,0,1-1.086,1.9,21.228,21.228,0,0,1-1.675,2.088c-.041.046-.075.087-.1.123m2.166-11.444a3.079,3.079,0,0,0-.3.252,2.937,2.937,0,0,0-.478.583,3.489,3.489,0,0,0-.405.9,2,2,0,0,0-.086.691c0,.016,0,.032,0,.045a1,1,0,0,0,.157-.1,2.1,2.1,0,0,0,.531-.578,4.237,4.237,0,0,0,.441-.985,2.7,2.7,0,0,0,.133-.807m2.338-4.433h0Z" transform="translate(-25.294 -328.921)" fill="#fff"/>
          <path id="Path_29021" data-name="Path 29021" d="M104.225,409.676a2.3,2.3,0,0,1-.583.305q-.417.167-.888.306t-.916.236a3.47,3.47,0,0,1-.694.1,1.687,1.687,0,0,1-1.527-.722,3.572,3.572,0,0,1-.528-1.8,8.528,8.528,0,0,1,.236-2.346,12.677,12.677,0,0,1,.777-2.346,8.218,8.218,0,0,1,1.069-1.8,1.569,1.569,0,0,1,1.138-.722q.86,0,1.041.486a2.156,2.156,0,0,1,.014,1.221,10.529,10.529,0,0,1-.513,1.6q-.347.861-.569,1.6a2.92,2.92,0,0,0-.153,1.222q.069.486.763.458a1.161,1.161,0,0,0,.86-.486,6.836,6.836,0,0,0,.805-1.208q.388-.721.763-1.568t.749-1.568a8.993,8.993,0,0,1,.736-1.208.981.981,0,0,1,.749-.486.891.891,0,0,1,.93.708,4.327,4.327,0,0,1,.069,1.763,13.286,13.286,0,0,1-.527,2.276,19.883,19.883,0,0,1-.874,2.276,13.032,13.032,0,0,1-.958,1.763q-.472.708-.749.708a2.029,2.029,0,0,1-.6-.167,1.1,1.1,0,0,1-.625-.583" transform="translate(-82.76 -334.847)" fill="#fff"/>
          <path id="Path_29022" data-name="Path 29022" d="M95.3,405.926a2.8,2.8,0,0,1-2.492-1.244,4.718,4.718,0,0,1-.714-2.376,9.7,9.7,0,0,1,.264-2.664,13.875,13.875,0,0,1,.849-2.559,9.394,9.394,0,0,1,1.223-2.057,2.641,2.641,0,0,1,2.035-1.15,2.018,2.018,0,0,1,2.122,1.236,3.278,3.278,0,0,1,.058,1.879,10.586,10.586,0,0,1-.319,1.106l.1-.218c.259-.584.521-1.134.78-1.633a10.042,10.042,0,0,1,.833-1.364,2.06,2.06,0,0,1,1.675-.951,2.038,2.038,0,0,1,2.036,1.535,5.4,5.4,0,0,1,.106,2.238,14.516,14.516,0,0,1-.572,2.476,21.064,21.064,0,0,1-.926,2.409,14.248,14.248,0,0,1-1.046,1.92,2.224,2.224,0,0,1-1.709,1.221,2.845,2.845,0,0,1-1.013-.244,2.342,2.342,0,0,1-.466-.242c-.283.11-.581.211-.889.3-.336.1-.671.185-.994.256a4.514,4.514,0,0,1-.941.124m1.137-9.678a1.858,1.858,0,0,0-.213.228,7.126,7.126,0,0,0-.914,1.552,11.594,11.594,0,0,0-.706,2.133,7.424,7.424,0,0,0-.208,2.027,2.469,2.469,0,0,0,.341,1.232c.043.066.131.2.562.2a2.406,2.406,0,0,0,.448-.07c.27-.059.552-.132.837-.216s.54-.172.786-.27a2.085,2.085,0,0,0,.288-.133l1.136-.948.588,1.264.011-.016a12,12,0,0,0,.87-1.605,18.8,18.8,0,0,0,.823-2.144,12.216,12.216,0,0,0,.483-2.077,4.654,4.654,0,0,0,.044-.737q-.177.286-.362.642c-.237.457-.479.963-.718,1.5-.26.588-.53,1.143-.8,1.648a7.994,7.994,0,0,1-.945,1.412,2.266,2.266,0,0,1-1.71.888,1.719,1.719,0,0,1-1.931-1.448,3.991,3.991,0,0,1,.191-1.718c.158-.523.361-1.094.6-1.694a9.455,9.455,0,0,0,.458-1.419,2.22,2.22,0,0,0,.041-.234m1.207,6.695h0Z" transform="translate(-76.914 -329)" fill="#fff"/>
          <path id="Path_29023" data-name="Path 29023" d="M167.555,403.015a3.637,3.637,0,0,1-.833,1.846,6.107,6.107,0,0,1-1.693,1.471,4.808,4.808,0,0,1-1.985.666,2.064,2.064,0,0,1-1.707-.569,1.971,1.971,0,0,0,.028,1.443,1.189,1.189,0,0,0,.861.611,2.738,2.738,0,0,0,1.388-.166,5.821,5.821,0,0,0,1.61-.888q.083-.056.306-.222a2.589,2.589,0,0,1,.5-.292.942.942,0,0,1,.5-.1q.222.028.305.389a2.116,2.116,0,0,1-.4,1.763,4.278,4.278,0,0,1-1.624,1.277,6.852,6.852,0,0,1-2.249.611,5.21,5.21,0,0,1-2.263-.236,3.374,3.374,0,0,1-1.693-1.291,3.67,3.67,0,0,1-.486-2.54,6.282,6.282,0,0,1,.638-2.249,6.15,6.15,0,0,1,1.388-1.832,6.538,6.538,0,0,1,1.971-1.221,6.451,6.451,0,0,1,2.415-.444,6.178,6.178,0,0,1,1.582.167,2.5,2.5,0,0,1,.944.444,1.256,1.256,0,0,1,.43.639,2.14,2.14,0,0,1,.069.722m-5.774,2.11a3.306,3.306,0,0,0,1.763-.069,2.1,2.1,0,0,0,.972-.666,1.16,1.16,0,0,0,.264-.763q-.028-.361-.361-.361a2.543,2.543,0,0,0-1.749.583,3.791,3.791,0,0,0-.888,1.277" transform="translate(-132.044 -334.987)" fill="#fff"/>
          <path id="Path_29024" data-name="Path 29024" d="M156.1,406.2a6.155,6.155,0,0,1-2.027-.332,4.519,4.519,0,0,1-2.26-1.718,4.786,4.786,0,0,1-.688-3.32,7.438,7.438,0,0,1,.754-2.646,7.322,7.322,0,0,1,1.647-2.172,7.712,7.712,0,0,1,2.315-1.436,7.623,7.623,0,0,1,2.843-.527,7.234,7.234,0,0,1,1.886.207,3.584,3.584,0,0,1,1.378.67,2.392,2.392,0,0,1,.806,1.224,3.313,3.313,0,0,1,.106,1.111l0,.047a4.779,4.779,0,0,1-1.078,2.431q-.145.181-.3.351a1.643,1.643,0,0,1,.633,1.015l.007.034a3.276,3.276,0,0,1-.613,2.683,5.431,5.431,0,0,1-2.051,1.625,8.026,8.026,0,0,1-2.624.716,7.208,7.208,0,0,1-.73.038m.449-9.421a5.384,5.384,0,0,0-1.477.944,5.024,5.024,0,0,0-1.13,1.492,5.162,5.162,0,0,0-.522,1.84,2.629,2.629,0,0,0,.281,1.771,2.231,2.231,0,0,0,1.127.863,4.036,4.036,0,0,0,1.768.179q.2-.02.392-.052a3.136,3.136,0,0,1-.824-.042,2.327,2.327,0,0,1-1.652-1.184,3.01,3.01,0,0,1-.134-2.3l.03-.113-.1-.017.266-.63.3-1.132.136.131a4.974,4.974,0,0,1,1.014-1.36,2.873,2.873,0,0,1,.52-.393m2.577-.413a1.492,1.492,0,0,1,.958,1.328,2.022,2.022,0,0,1-.023.5,2.456,2.456,0,0,0,.5-1.127,1,1,0,0,0-.035-.314s-.018-.02-.055-.051a1.4,1.4,0,0,0-.509-.217,4.057,4.057,0,0,0-.838-.115" transform="translate(-126.199 -329.141)" fill="#fff"/>
          <path id="Path_29025" data-name="Path 29025" d="M75.888,252.875a5.183,5.183,0,0,1-.535,3.633,7.521,7.521,0,0,1-2.508,2.545,12.581,12.581,0,0,1-3.6,1.531,17.968,17.968,0,0,1-3.762.59,40.4,40.4,0,0,1-3.393,7.653q-1.586,2.527-3.172,2.527a1.541,1.541,0,0,1-1.254-.664,3.886,3.886,0,0,1-.738-3.043.921.921,0,0,1,.7-.83,3.55,3.55,0,0,0,2.213-1.383,10.025,10.025,0,0,0,1.531-2.84,20.9,20.9,0,0,0,.941-3.633q.332-1.955.516-3.8t.24-3.319q.056-1.475.092-2.176a3.44,3.44,0,0,1-.646.313,4.849,4.849,0,0,1-1.088.3,2.654,2.654,0,0,1-1.088-.037.819.819,0,0,1-.609-.719,1.453,1.453,0,0,1,.24-1.143,2.854,2.854,0,0,1,.959-.812,4.731,4.731,0,0,1,1.365-.479,7.633,7.633,0,0,1,1.457-.148q1.032,0,2.269.055t2.508.24a15.568,15.568,0,0,1,2.489.572,8.737,8.737,0,0,1,2.213,1.051,6.537,6.537,0,0,1,1.7,1.641,5.849,5.849,0,0,1,.959,2.379m-9.368-3.061q0,.111.019,1.014t-.019,2.158q-.037,1.254-.2,2.637a13.921,13.921,0,0,1-.5,2.453,9.692,9.692,0,0,0,1.863-.24,9.218,9.218,0,0,0,2.268-.793,6.036,6.036,0,0,0,1.9-1.475,3.3,3.3,0,0,0,.757-2.324,2.5,2.5,0,0,0-.757-1.936,4.277,4.277,0,0,0-1.7-.867,10.931,10.931,0,0,0-1.992-.332,6.449,6.449,0,0,1-1.642-.295" transform="translate(-47.499 -206.263)" fill="#fff"/>
          <path id="Path_29026" data-name="Path 29026" d="M53.077,266.659a2.67,2.67,0,0,1-2.164-1.11,5.037,5.037,0,0,1-.957-3.981,2.057,2.057,0,0,1,1.6-1.729l.031-.006a2.419,2.419,0,0,0,1.505-.964,8.927,8.927,0,0,0,1.35-2.516,19.825,19.825,0,0,0,.888-3.433c.216-1.27.386-2.522.506-3.721s.2-2.294.235-3.247q.009-.234.017-.445-.162.034-.329.06a3.809,3.809,0,0,1-1.556-.06,1.964,1.964,0,0,1-1.451-1.623l0-.023a2.607,2.607,0,0,1,.447-2.014,4.006,4.006,0,0,1,1.337-1.143,5.908,5.908,0,0,1,1.695-.6,8.844,8.844,0,0,1,1.678-.169c.7,0,1.481.019,2.32.057.856.038,1.738.123,2.622.251a16.8,16.8,0,0,1,2.674.614,9.926,9.926,0,0,1,2.5,1.19,7.712,7.712,0,0,1,1.994,1.928,7.017,7.017,0,0,1,1.156,2.842l0,.011a6.321,6.321,0,0,1-.678,4.418,8.7,8.7,0,0,1-2.885,2.933,13.787,13.787,0,0,1-3.923,1.672,20.044,20.044,0,0,1-3.22.574,38.72,38.72,0,0,1-3.248,7.166c-1.3,2.063-2.652,3.066-4.149,3.066m-.868-4.6a2.576,2.576,0,0,0,.039,1.036,2.543,2.543,0,0,0,.485,1.036c.171.22.275.22.344.22.612,0,1.391-.705,2.2-1.986a39.565,39.565,0,0,0,3.282-7.424l.26-.736.78-.032a16.893,16.893,0,0,0,3.52-.554,11.493,11.493,0,0,0,3.27-1.389,6.33,6.33,0,0,0,2.132-2.157,4.036,4.036,0,0,0,.393-2.842,4.738,4.738,0,0,0-.762-1.911,5.418,5.418,0,0,0-1.4-1.353,7.629,7.629,0,0,0-1.923-.912,14.5,14.5,0,0,0-2.306-.529c-.808-.117-1.614-.194-2.394-.229-.553-.025-1.078-.041-1.569-.049l-.087,1.632c-.024.443-.053,1.129-.091,2.158-.037,1-.12,2.141-.245,3.391s-.3,2.555-.527,3.877a22.144,22.144,0,0,1-.994,3.833A11.218,11.218,0,0,1,54.9,260.3a4.718,4.718,0,0,1-2.693,1.758m.032-.121h0Zm2.777-18.629a1.815,1.815,0,0,0,.388-.022,3.727,3.727,0,0,0,.831-.224,4.034,4.034,0,0,0,.411-.185l.831-.621a6.968,6.968,0,0,0-.808.11,3.6,3.6,0,0,0-1.032.36,1.727,1.727,0,0,0-.58.48.2.2,0,0,0-.041.1m4.956,10.071H58.409l.464-1.495a12.858,12.858,0,0,0,.455-2.249c.105-.881.171-1.734.195-2.534.024-.816.03-1.523.018-2.1q-.02-.924-.019-1.038v-1.629l1.536.542a5.268,5.268,0,0,0,1.341.232,12.131,12.131,0,0,1,2.2.367,5.442,5.442,0,0,1,2.147,1.1,3.6,3.6,0,0,1,1.164,2.784,4.436,4.436,0,0,1-1.035,3.108,7.22,7.22,0,0,1-2.258,1.755,10.412,10.412,0,0,1-2.551.891,10.669,10.669,0,0,1-2.1.264m1.878-8c0,.525,0,1.126-.024,1.794-.026.869-.1,1.79-.21,2.74q-.061.5-.143.973l.129-.026a8.1,8.1,0,0,0,1.986-.7,4.859,4.859,0,0,0,1.541-1.2,2.174,2.174,0,0,0,.478-1.542,1.55,1.55,0,0,0-.349-1.085,3.112,3.112,0,0,0-1.246-.632,9.843,9.843,0,0,0-1.781-.3c-.131-.009-.258-.021-.38-.033" transform="translate(-41.653 -200.416)" fill="#fff"/>
          <path id="Path_29027" data-name="Path 29027" d="M169.933,300.3a2.113,2.113,0,0,0,.977-.258,2.412,2.412,0,0,1,1.125-.258q2.213,0,2.213,1.438a4.286,4.286,0,0,1-.276,1.383,17.716,17.716,0,0,1-.682,1.66l-.83,1.77a14.014,14.014,0,0,0-.682,1.715,6.526,6.526,0,0,0-.314.941q-.2.719-.406,1.494t-.387,1.4a2.462,2.462,0,0,1-.221.627,2.027,2.027,0,0,1-1.254-.019,3.2,3.2,0,0,1-.83-.5q-.351-.294-.719-.572a1.494,1.494,0,0,0-.922-.277,1.076,1.076,0,0,0-.553.222q-.332.221-.756.461t-.9.461a2.352,2.352,0,0,1-1,.221,2.688,2.688,0,0,1-1.531-.387,2.5,2.5,0,0,1-.848-.922,3.309,3.309,0,0,1-.351-1.088,7.124,7.124,0,0,1-.074-.885,12.369,12.369,0,0,1,.387-2.914,10.714,10.714,0,0,1,1.2-2.951,7.449,7.449,0,0,1,2.065-2.268,4.971,4.971,0,0,1,2.987-.9,4.024,4.024,0,0,1,1.2.2,4.583,4.583,0,0,0,1.383.2m-4.5,8.52a1.5,1.5,0,0,0,1.254-.2,3.912,3.912,0,0,0,1.125-1.088,7.177,7.177,0,0,0,.83-1.549,6.639,6.639,0,0,0,.424-1.586,2.41,2.41,0,0,0-.129-1.254.838.838,0,0,0-.848-.517,2.224,2.224,0,0,0-1.512.756,6.075,6.075,0,0,0-1.254,1.77,5.178,5.178,0,0,0-.516,2.047,1.957,1.957,0,0,0,.627,1.623" transform="translate(-134.241 -250.405)" fill="#fff"/>
          <path id="Path_29028" data-name="Path 29028" d="M163.933,307.6a2.626,2.626,0,0,1-1.034-.2,4.365,4.365,0,0,1-1.123-.678c-.217-.182-.443-.362-.668-.531a.261.261,0,0,0-.112-.038l-.031.02c-.244.162-.522.332-.828.505s-.635.341-.987.5a3.512,3.512,0,0,1-1.48.328,3.817,3.817,0,0,1-2.177-.585,3.65,3.65,0,0,1-1.226-1.348,4.46,4.46,0,0,1-.469-1.464,8.124,8.124,0,0,1-.084-1.038,13.577,13.577,0,0,1,.42-3.187,11.919,11.919,0,0,1,1.328-3.267,8.629,8.629,0,0,1,2.382-2.614,6.12,6.12,0,0,1,3.661-1.121,5.186,5.186,0,0,1,1.544.256,3.459,3.459,0,0,0,1.038.15.99.99,0,0,0,.446-.129,3.567,3.567,0,0,1,1.656-.388,4.124,4.124,0,0,1,2.288.546,2.355,2.355,0,0,1,1.078,2.046,5.361,5.361,0,0,1-.341,1.763,18.941,18.941,0,0,1-.726,1.768l-.83,1.771a12.963,12.963,0,0,0-.627,1.574l-.027.086-.04.08a6.133,6.133,0,0,0-.235.738c-.134.473-.268.968-.4,1.473s-.269,1-.4,1.435c-.187.635-.4,1.349-1.15,1.445a3.965,3.965,0,0,1-.848.1m-2.693-3.737a2.534,2.534,0,0,1,1.252.487c.259.2.518.4.769.611a2.043,2.043,0,0,0,.5.3c.109-.376.222-.787.336-1.224.136-.519.274-1.03.412-1.515a7.982,7.982,0,0,1,.347-1.048,15.422,15.422,0,0,1,.714-1.784l.829-1.769a16.572,16.572,0,0,0,.638-1.55,3.139,3.139,0,0,0,.212-1,.338.338,0,0,0-.012-.1s-.213-.181-1.048-.181a1.269,1.269,0,0,0-.6.13,3.256,3.256,0,0,1-1.507.387,5.755,5.755,0,0,1-1.729-.256,2.9,2.9,0,0,0-.853-.15,3.814,3.814,0,0,0-2.313.686,6.342,6.342,0,0,0-1.748,1.922,9.621,9.621,0,0,0-1.07,2.636,11.291,11.291,0,0,0-.354,2.64,5.907,5.907,0,0,0,.064.733,2.163,2.163,0,0,0,.231.709,1.36,1.36,0,0,0,.47.5,1.64,1.64,0,0,0,.885.19,1.2,1.2,0,0,0,.513-.115c.294-.136.57-.277.819-.418s.487-.286.685-.417q.066-.044.131-.084a2.588,2.588,0,0,1-.557-.1l-.246-.073-.192-.171a3.089,3.089,0,0,1-1.014-2.527,6.347,6.347,0,0,1,.626-2.5,7.255,7.255,0,0,1,1.491-2.1,3.327,3.327,0,0,1,2.317-1.084,1.978,1.978,0,0,1,1.908,1.215,3.547,3.547,0,0,1,.213,1.85,7.828,7.828,0,0,1-.494,1.864,8.357,8.357,0,0,1-.965,1.8,5.069,5.069,0,0,1-1.459,1.4c-.068.042-.137.081-.207.117m3.134,1.367-.075.018.037-.009Zm-2.289-7.271a1.793,1.793,0,0,0-.549.394,4.954,4.954,0,0,0-1.017,1.437,4.058,4.058,0,0,0-.407,1.595,1.218,1.218,0,0,0,.051.439c.022-.011.046-.025.072-.041a2.791,2.791,0,0,0,.79-.774,6.041,6.041,0,0,0,.7-1.3,5.535,5.535,0,0,0,.353-1.308,1.865,1.865,0,0,0,.009-.44" transform="translate(-128.394 -244.557)" fill="#fff"/>
          <path id="Path_29029" data-name="Path 29029" d="M231.265,339.725a2.144,2.144,0,0,1,.129-1.549,2.675,2.675,0,0,1,1.014-1.107,3.592,3.592,0,0,1,1.494-.5,2.94,2.94,0,0,1,1.586.258,3.215,3.215,0,0,1,1.309,1.18,4.72,4.72,0,0,1,.664,2.268,12.439,12.439,0,0,1-.5,3.633,29.911,29.911,0,0,1-1.66,4.629,41.975,41.975,0,0,1-2.6,4.887,29.262,29.262,0,0,1-3.3,4.407,17.591,17.591,0,0,1-3.781,3.172,7.643,7.643,0,0,1-4.02,1.217,4.131,4.131,0,0,1-1.549-.221,1.372,1.372,0,0,1-.7-1.07,8.456,8.456,0,0,1-.147-2.379q.074-1.494.35-3.338t.7-3.928q.423-2.083.9-4.131t.959-3.947q.479-1.9.867-3.356t.627-2.379a9.472,9.472,0,0,0,.24-1.032.373.373,0,0,1,.147-.406,1.869,1.869,0,0,1,.812-.111,1.956,1.956,0,0,1,1.807.9,5.046,5.046,0,0,1,.627,2.4,17.147,17.147,0,0,1-.221,3.412q-.3,1.918-.756,3.891t-.978,3.891q-.517,1.918-.885,3.412a18.227,18.227,0,0,0-.461,2.4q-.092.9.313.9.59,0,1.494-1.088a23.624,23.624,0,0,0,1.918-2.748q1.014-1.659,2.01-3.67t1.752-3.891q.755-1.88,1.18-3.338a4.566,4.566,0,0,0,.277-2.047q-.037-.147-.277-.2a3.369,3.369,0,0,0-.535-.074,2.267,2.267,0,0,1-.535-.092.35.35,0,0,1-.277-.258" transform="translate(-183.083 -280.595)" fill="#fff"/>
          <path id="Path_29030" data-name="Path 29030" d="M215.754,357.528a5.152,5.152,0,0,1-2-.315,2.434,2.434,0,0,1-1.369-1.867,9.509,9.509,0,0,1-.176-2.7c.051-1.026.172-2.188.362-3.452.187-1.244.426-2.586.711-3.987s.589-2.79.911-4.164c.314-1.343.638-2.677.964-3.966.307-1.219.6-2.353.87-3.37q.387-1.454.626-2.374c.124-.477.176-.7.2-.8a1.481,1.481,0,0,1,.714-1.339,2.629,2.629,0,0,1,1.4-.275,3.066,3.066,0,0,1,2.79,1.455,6.191,6.191,0,0,1,.8,2.942,18.351,18.351,0,0,1-.233,3.645c-.2,1.3-.461,2.639-.773,3.978s-.644,2.656-.987,3.929-.636,2.4-.879,3.388q-.066.266-.122.512c.408-.552.838-1.2,1.283-1.924.657-1.076,1.317-2.281,1.96-3.58s1.224-2.586,1.716-3.81.872-2.3,1.143-3.23a8.869,8.869,0,0,0,.214-.879,3.2,3.2,0,0,1-.521-.114,1.5,1.5,0,0,1-1.055-1.091,3.269,3.269,0,0,1,.22-2.333,3.82,3.82,0,0,1,1.443-1.573,4.752,4.752,0,0,1,1.969-.66,4.091,4.091,0,0,1,2.2.358,4.361,4.361,0,0,1,1.784,1.587,5.852,5.852,0,0,1,.854,2.819l0,.03a13.411,13.411,0,0,1-.534,3.982,31.221,31.221,0,0,1-1.723,4.809,43.317,43.317,0,0,1-2.672,5.022,30.541,30.541,0,0,1-3.431,4.58,18.813,18.813,0,0,1-4.03,3.378,8.809,8.809,0,0,1-4.621,1.386m-1.034-2.412a3.616,3.616,0,0,0,1.034.106,6.544,6.544,0,0,0,3.419-1.048,16.517,16.517,0,0,0,3.531-2.967,28.249,28.249,0,0,0,3.17-4.234,41.016,41.016,0,0,0,2.529-4.752,28.911,28.911,0,0,0,1.6-4.449,11.461,11.461,0,0,0,.463-3.268,3.628,3.628,0,0,0-.473-1.7,2.073,2.073,0,0,0-.835-.774,1.786,1.786,0,0,0-.974-.158,2.429,2.429,0,0,0-1.02.336,1.528,1.528,0,0,0-.583.638.834.834,0,0,0-.082.25,4.292,4.292,0,0,1,.523.084,1.434,1.434,0,0,1,1.138,1.047,5.287,5.287,0,0,1-.288,2.649c-.292,1-.7,2.161-1.217,3.446s-1.116,2.616-1.789,3.973-1.366,2.625-2.059,3.759a24.914,24.914,0,0,1-2.015,2.883,3.45,3.45,0,0,1-2.381,1.5,1.408,1.408,0,0,1-1.059-.466,2.161,2.161,0,0,1-.4-1.707,19.125,19.125,0,0,1,.489-2.557c.247-1,.547-2.158.891-3.435.336-1.248.662-2.545.968-3.854.3-1.28.548-2.56.739-3.8a16.091,16.091,0,0,0,.209-3.179,3.971,3.971,0,0,0-.459-1.852c-.072-.117-.2-.33-.735-.351-.04.169-.1.39-.172.684q-.241.926-.629,2.386c-.267,1.007-.558,2.131-.863,3.342-.322,1.276-.643,2.6-.954,3.927-.317,1.352-.618,2.731-.9,4.1s-.51,2.664-.69,3.869c-.178,1.188-.292,2.273-.339,3.224a7.42,7.42,0,0,0,.115,2.043l.008.035a1.15,1.15,0,0,0,.089.277m11.31-22.084h0" transform="translate(-177.235 -274.747)" fill="#fff"/>
          <path id="Path_29031" data-name="Path 29031" d="M327.221,402.587a4.829,4.829,0,0,1-1.106,2.453,8.12,8.12,0,0,1-2.25,1.955,6.4,6.4,0,0,1-2.637.885,2.742,2.742,0,0,1-2.268-.756,2.62,2.62,0,0,0,.037,1.918,1.578,1.578,0,0,0,1.143.811,3.633,3.633,0,0,0,1.844-.221,7.717,7.717,0,0,0,2.139-1.18q.111-.074.406-.295a3.435,3.435,0,0,1,.664-.387,1.255,1.255,0,0,1,.664-.13q.295.037.406.517a2.812,2.812,0,0,1-.535,2.342,5.683,5.683,0,0,1-2.157,1.7,9.1,9.1,0,0,1-2.987.811,6.921,6.921,0,0,1-3.006-.314,4.483,4.483,0,0,1-2.25-1.715,4.877,4.877,0,0,1-.645-3.375,8.339,8.339,0,0,1,.848-2.988,8.16,8.16,0,0,1,1.844-2.434,8.686,8.686,0,0,1,2.618-1.623,8.563,8.563,0,0,1,3.209-.59,8.206,8.206,0,0,1,2.1.221,3.319,3.319,0,0,1,1.254.59,1.668,1.668,0,0,1,.572.848,2.844,2.844,0,0,1,.092.959m-7.671,2.8a4.394,4.394,0,0,0,2.342-.092,2.784,2.784,0,0,0,1.291-.886,1.541,1.541,0,0,0,.35-1.014q-.037-.479-.479-.479a3.378,3.378,0,0,0-2.324.774,5.033,5.033,0,0,0-1.18,1.7" transform="translate(-262.812 -334.089)" fill="#fff"/>
          <path id="Path_29032" data-name="Path 29032" d="M313.924,408.355a7.8,7.8,0,0,1-2.569-.42,5.631,5.631,0,0,1-2.816-2.142,6,6,0,0,1-.848-4.155,9.515,9.515,0,0,1,.964-3.385,9.348,9.348,0,0,1,2.1-2.774,9.866,9.866,0,0,1,2.963-1.838,9.747,9.747,0,0,1,3.637-.672,9.238,9.238,0,0,1,2.406.262,4.394,4.394,0,0,1,1.688.816,2.805,2.805,0,0,1,.947,1.434,4.018,4.018,0,0,1,.129,1.347l0,.048a5.98,5.98,0,0,1-1.352,3.038,9.587,9.587,0,0,1-.72.8,1.681,1.681,0,0,1,1.091,1.333l.007.033a3.984,3.984,0,0,1-.745,3.262,6.849,6.849,0,0,1-2.585,2.045,10.291,10.291,0,0,1-3.363.916,9.154,9.154,0,0,1-.932.048m3.433-13.08a7.458,7.458,0,0,0-2.781.507,7.569,7.569,0,0,0-2.274,1.408,7.054,7.054,0,0,0-1.586,2.094,7.234,7.234,0,0,0-.732,2.579,3.835,3.835,0,0,0,.441,2.606,3.328,3.328,0,0,0,1.683,1.287,5.8,5.8,0,0,0,2.512.256,7.992,7.992,0,0,0,2.612-.707,4.572,4.572,0,0,0,1.73-1.349,1.773,1.773,0,0,0,.321-.656c-.15.111-.256.188-.334.241a8.868,8.868,0,0,1-2.435,1.332,4.759,4.759,0,0,1-2.436.263,2.721,2.721,0,0,1-1.935-1.384,3.646,3.646,0,0,1-.144-2.772l.145-.547-.064-.011.179-.423.241-.912.1.1.039-.093a6.2,6.2,0,0,1,1.446-2.082,4.489,4.489,0,0,1,3.091-1.093h.028a1.585,1.585,0,0,1,1.629,1.543,2.659,2.659,0,0,1-.566,1.781,3.9,3.9,0,0,1-1.808,1.284,4.7,4.7,0,0,1-2.014.269,1.784,1.784,0,0,0,.823.09,5.281,5.281,0,0,0,2.165-.732,7.01,7.01,0,0,0,1.932-1.68,3.748,3.748,0,0,0,.859-1.842,1.689,1.689,0,0,0-.058-.55.513.513,0,0,0-.2-.262,2.193,2.193,0,0,0-.819-.363,7.149,7.149,0,0,0-1.8-.181" transform="translate(-256.967 -328.242)" fill="#fff"/>
          <path id="Path_29033" data-name="Path 29033" d="M403.842,369.312a2.111,2.111,0,0,0,.977-.258,2.415,2.415,0,0,1,1.125-.258q2.213,0,2.213,1.438a4.285,4.285,0,0,1-.277,1.383,17.564,17.564,0,0,1-.682,1.659l-.83,1.77a14.135,14.135,0,0,0-.682,1.715,6.56,6.56,0,0,0-.314.941q-.2.719-.406,1.494t-.387,1.4a2.462,2.462,0,0,1-.221.627,2.024,2.024,0,0,1-1.254-.018,3.216,3.216,0,0,1-.83-.5q-.351-.295-.719-.572a1.5,1.5,0,0,0-.922-.276,1.075,1.075,0,0,0-.553.221q-.332.221-.756.461t-.9.461a2.353,2.353,0,0,1-1,.221,2.686,2.686,0,0,1-1.531-.387,2.5,2.5,0,0,1-.848-.922,3.3,3.3,0,0,1-.35-1.088,7.053,7.053,0,0,1-.074-.885,12.36,12.36,0,0,1,.387-2.914,10.711,10.711,0,0,1,1.2-2.95,7.462,7.462,0,0,1,2.065-2.269,4.971,4.971,0,0,1,2.987-.9,4.015,4.015,0,0,1,1.2.2,4.584,4.584,0,0,0,1.383.2m-4.5,8.52a1.5,1.5,0,0,0,1.254-.2,3.914,3.914,0,0,0,1.125-1.088,7.165,7.165,0,0,0,.83-1.549,6.66,6.66,0,0,0,.424-1.586,2.409,2.409,0,0,0-.129-1.254.837.837,0,0,0-.849-.517,2.225,2.225,0,0,0-1.512.757,6.076,6.076,0,0,0-1.254,1.77,5.192,5.192,0,0,0-.516,2.047,1.957,1.957,0,0,0,.627,1.623m7.229-13.057q-.407.259-1.088.682t-1.4.83q-.719.407-1.4.719a3.544,3.544,0,0,1-1.125.35,1.481,1.481,0,0,1-.941.056.71.71,0,0,1-.461-.645q-.111-.369.553-1.033a12.153,12.153,0,0,1,1.641-1.346,16.328,16.328,0,0,1,2.047-1.217,6.355,6.355,0,0,1,1.807-.645.9.9,0,0,1,.867.11.847.847,0,0,1,.276.646,2.008,2.008,0,0,1-.2.83,1.457,1.457,0,0,1-.572.664" transform="translate(-329.622 -302.769)" fill="#fff"/>
          <path id="Path_29034" data-name="Path 29034" d="M397.841,376.618a2.621,2.621,0,0,1-1.035-.2,4.366,4.366,0,0,1-1.122-.677c-.218-.183-.443-.362-.669-.532a.257.257,0,0,0-.112-.037l-.031.02c-.243.162-.522.332-.827.505s-.637.342-.988.5a3.511,3.511,0,0,1-1.48.327,3.813,3.813,0,0,1-2.178-.586,3.643,3.643,0,0,1-1.226-1.347,4.463,4.463,0,0,1-.469-1.465,8.086,8.086,0,0,1-.084-1.037,13.56,13.56,0,0,1,.42-3.187,11.9,11.9,0,0,1,1.328-3.266,8.643,8.643,0,0,1,2.382-2.614,5.781,5.781,0,0,1,1.869-.891,2.021,2.021,0,0,1-.444-.984,2.387,2.387,0,0,1,.869-2.081,13.349,13.349,0,0,1,1.8-1.476,17.571,17.571,0,0,1,2.191-1.3,7.521,7.521,0,0,1,2.1-.746,1.952,1.952,0,0,1,1.877.4,1.988,1.988,0,0,1,.643,1.489,3.152,3.152,0,0,1-.307,1.309,2.6,2.6,0,0,1-1.012,1.164q-.409.26-1.088.682c-.467.291-.953.579-1.443.855s-1,.541-1.487.763l-.067.03a3.649,3.649,0,0,0,.747.074.99.99,0,0,0,.446-.128,3.569,3.569,0,0,1,1.657-.388,4.123,4.123,0,0,1,2.288.546,2.355,2.355,0,0,1,1.078,2.046,5.359,5.359,0,0,1-.341,1.763,18.707,18.707,0,0,1-.727,1.768l-.83,1.771a13.116,13.116,0,0,0-.627,1.574l-.027.086-.04.08a6.133,6.133,0,0,0-.235.738c-.135.478-.269.973-.4,1.473-.139.528-.272,1.01-.4,1.435-.187.635-.4,1.348-1.15,1.444a3.967,3.967,0,0,1-.848.1m-2.693-3.737a2.536,2.536,0,0,1,1.251.486c.26.2.518.4.77.612a2.045,2.045,0,0,0,.5.3c.106-.367.219-.779.336-1.224.134-.513.272-1.024.411-1.515a7.986,7.986,0,0,1,.347-1.048,15.488,15.488,0,0,1,.714-1.783l.829-1.77a16.422,16.422,0,0,0,.638-1.55,3.139,3.139,0,0,0,.212-1,.331.331,0,0,0-.012-.1s-.213-.181-1.048-.181a1.274,1.274,0,0,0-.6.129,3.252,3.252,0,0,1-1.506.387,5.759,5.759,0,0,1-1.729-.256,2.9,2.9,0,0,0-.853-.15,3.816,3.816,0,0,0-2.313.686,6.354,6.354,0,0,0-1.749,1.922,9.6,9.6,0,0,0-1.07,2.635,11.273,11.273,0,0,0-.354,2.64,5.851,5.851,0,0,0,.064.732,2.146,2.146,0,0,0,.231.711,1.364,1.364,0,0,0,.47.5,1.638,1.638,0,0,0,.885.189,1.2,1.2,0,0,0,.513-.115c.292-.135.568-.276.818-.417s.487-.286.684-.417c.044-.029.088-.057.132-.083a2.594,2.594,0,0,1-.556-.1l-.247-.073-.193-.171a3.09,3.09,0,0,1-1.014-2.527,6.36,6.36,0,0,1,.626-2.5,7.251,7.251,0,0,1,1.492-2.1,3.326,3.326,0,0,1,2.317-1.084,1.978,1.978,0,0,1,1.908,1.216,3.544,3.544,0,0,1,.214,1.85,7.846,7.846,0,0,1-.495,1.864,8.341,8.341,0,0,1-.965,1.8,5.074,5.074,0,0,1-1.458,1.4q-.1.063-.207.118m3.133,1.367-.075.018.037-.009Zm-2.288-7.272a1.794,1.794,0,0,0-.549.394,4.955,4.955,0,0,0-1.017,1.437,4.018,4.018,0,0,0-.407,1.6,1.212,1.212,0,0,0,.051.438c.022-.011.046-.024.072-.041a2.794,2.794,0,0,0,.79-.774,6.055,6.055,0,0,0,.7-1.3,5.546,5.546,0,0,0,.354-1.31,1.847,1.847,0,0,0,.009-.439m4.186-9.077a6.815,6.815,0,0,0-1.115.457,15.26,15.26,0,0,0-1.9,1.131q-.467.326-.855.646l.046-.021c.425-.2.868-.422,1.315-.675s.919-.531,1.359-.8.81-.505,1.078-.676l.025-.016a.182.182,0,0,0,.048-.042" transform="translate(-323.775 -296.921)" fill="#fff"/>
          <path id="Path_29035" data-name="Path 29035" d="M479.891,407.218a.746.746,0,0,0-.314-.683,3.992,3.992,0,0,0-.922-.516q-.572-.24-1.272-.461a10.956,10.956,0,0,1-1.4-.553,2.3,2.3,0,0,1-1.309-1.254,4.3,4.3,0,0,1-.277-1.438,2.887,2.887,0,0,1,.572-1.771,5.949,5.949,0,0,1,1.586-1.549,8.119,8.119,0,0,1,2.158-1.032,6.372,6.372,0,0,1,2.323-.3,4.457,4.457,0,0,1,2.766,1.014,3.249,3.249,0,0,1,1.07,1.937,3.044,3.044,0,0,1-.055.866,1.781,1.781,0,0,1-.387.812,1.955,1.955,0,0,1-.866.553,2.946,2.946,0,0,1-1.457.055c-.148-.024-.252-.135-.314-.332a3.323,3.323,0,0,1-.129-.59,1.54,1.54,0,0,0-.627-1.291,2.011,2.011,0,0,0-1.328-.351,2.721,2.721,0,0,0-1.4.535,2.3,2.3,0,0,0-.885,1.328c-.025.074.1.16.369.258s.614.234,1.033.405.879.369,1.383.591a11.918,11.918,0,0,1,1.42.737,5.39,5.39,0,0,1,1.143.922,2.239,2.239,0,0,1,.59,1.143,2.879,2.879,0,0,1-.295,1.752,5.351,5.351,0,0,1-1.346,1.733,7.23,7.23,0,0,1-2.195,1.291,6.636,6.636,0,0,1-2.877.387,6.87,6.87,0,0,1-1.771-.332,4.625,4.625,0,0,1-1.236-.627,3.133,3.133,0,0,1-.774-.793,3.77,3.77,0,0,1-.424-.866,2.065,2.065,0,0,1-.055-1.125,3.45,3.45,0,0,1,.424-1.051,2.933,2.933,0,0,1,.7-.792,1.285,1.285,0,0,1,.775-.314q.553,0,.738.959a2.4,2.4,0,0,0,.922,1.383,2.537,2.537,0,0,0,1.586.572,5.469,5.469,0,0,0,.738-.056,3.244,3.244,0,0,0,.775-.2,1.783,1.783,0,0,0,.608-.387.78.78,0,0,0,.24-.571" transform="translate(-394.533 -332.155)" fill="#fff"/>
          <path id="Path_29036" data-name="Path 29036" d="M471.359,406.748q-.316,0-.641-.023a8.052,8.052,0,0,1-2.072-.394,5.793,5.793,0,0,1-1.541-.789,4.281,4.281,0,0,1-1.054-1.09,4.931,4.931,0,0,1-.551-1.13,3.214,3.214,0,0,1-.087-1.744,4.629,4.629,0,0,1,.567-1.4,4.1,4.1,0,0,1,.978-1.1,2.675,2.675,0,0,1,.911-.475,2.876,2.876,0,0,1-.131-.309,5.473,5.473,0,0,1-.344-1.8,4.029,4.029,0,0,1,.774-2.447,7.126,7.126,0,0,1,1.888-1.85,9.3,9.3,0,0,1,2.462-1.179,7.539,7.539,0,0,1,2.741-.345h.019a5.574,5.574,0,0,1,3.463,1.323,4.385,4.385,0,0,1,1.423,2.619l.006.054a4.2,4.2,0,0,1-.073,1.195,2.931,2.931,0,0,1-.636,1.33,3.309,3.309,0,0,1-1.946,1.041q.129.124.249.252a3.384,3.384,0,0,1,.881,1.728,4.013,4.013,0,0,1-.387,2.443,6.519,6.519,0,0,1-1.629,2.109,8.417,8.417,0,0,1-2.54,1.5,7.557,7.557,0,0,1-2.731.484m-3.24-5.607a2.106,2.106,0,0,0-.175.245,2.276,2.276,0,0,0-.281.7.909.909,0,0,0,.025.506,2.634,2.634,0,0,0,.3.6,2.014,2.014,0,0,0,.5.5,3.511,3.511,0,0,0,.93.465,5.769,5.769,0,0,0,1.473.271,5.518,5.518,0,0,0,2.38-.313,6.127,6.127,0,0,0,1.848-1.082,4.236,4.236,0,0,0,1.064-1.358,1.782,1.782,0,0,0,.2-1.056,1.107,1.107,0,0,0-.3-.565,4.256,4.256,0,0,0-.9-.722,10.817,10.817,0,0,0-1.282-.665c-.495-.217-.952-.412-1.359-.581s-.745-.3-.987-.388c-1.263-.457-1.167-1.329-1.09-1.633h0a3.43,3.43,0,0,1,1.325-1.971,3.874,3.874,0,0,1,1.99-.75,3.153,3.153,0,0,1,2.068.55,2.629,2.629,0,0,1,1.119,2.072,1.148,1.148,0,0,0,.37-.051.85.85,0,0,0,.37-.21.633.633,0,0,0,.139-.3,1.943,1.943,0,0,0,.039-.51,2.133,2.133,0,0,0-.714-1.227,3.393,3.393,0,0,0-2.058-.7,5.267,5.267,0,0,0-1.9.246,7,7,0,0,0-1.854.886,4.833,4.833,0,0,0-1.284,1.249,1.76,1.76,0,0,0-.37,1.069v.048a3.18,3.18,0,0,0,.209,1.051,1.333,1.333,0,0,0,.708.6,9.84,9.84,0,0,0,1.264.5c.5.156.956.324,1.371.5a5.1,5.1,0,0,1,1.19.674,1.89,1.89,0,0,1,.753,1.64,1.922,1.922,0,0,1-.577,1.336,2.941,2.941,0,0,1-.995.642,4.43,4.43,0,0,1-1.049.275,6.6,6.6,0,0,1-.893.066,3.675,3.675,0,0,1-2.293-.814,3.563,3.563,0,0,1-1.272-1.785m2.218-.637a1.315,1.315,0,0,0,.467.6,1.39,1.39,0,0,0,.88.331,4.388,4.388,0,0,0,.581-.045,2.155,2.155,0,0,0,.3-.063q-.093-.045-.207-.093c-.348-.146-.744-.289-1.173-.424-.284-.09-.569-.192-.852-.306m2.354-3.869,0,.01,0,.011.005-.021m.556-.751.164.067c.393.162.827.347,1.293.551-.013-.076-.025-.152-.034-.228l-.008-.092c-.013-.31-.1-.37-.129-.39a.863.863,0,0,0-.588-.15,1.511,1.511,0,0,0-.7.243m3.8.491v0m-.6-.457h0" transform="translate(-388.686 -326.307)" fill="#fff"/>
          <path id="Path_29037" data-name="Path 29037" d="M554.494,361.441a1.933,1.933,0,0,1,.443-1.273,1.5,1.5,0,0,1,1.217-.535,1.594,1.594,0,0,1,1.272.535,1.887,1.887,0,0,1,.461,1.273,1.576,1.576,0,0,1-.461,1.162,1.719,1.719,0,0,1-1.272.461,1.552,1.552,0,0,1-1.66-1.623m6.565-22.129a2.146,2.146,0,0,1,.737-.627,2.2,2.2,0,0,1,1.107-.295,1.684,1.684,0,0,1,.83.24,1.371,1.371,0,0,1,.608.83,7.584,7.584,0,0,1-.258,1.07q-.258.922-.664,2.287t-.941,3.08q-.535,1.715-1.107,3.485t-1.125,3.43q-.554,1.659-.978,2.969t-.719,2.12a4.375,4.375,0,0,1-.332.811,1.783,1.783,0,0,1-.885.2,2.263,2.263,0,0,1-.793-.166,3.223,3.223,0,0,1-.59-.314c-.16-.11-.24-.2-.24-.276a17.626,17.626,0,0,1,.443-2.342q.368-1.53.885-3.411t1.125-3.928q.609-2.047,1.18-3.872t1.032-3.246q.461-1.419.683-2.047" transform="translate(-463.161 -282.653)" fill="#fff"/>
          <path id="Path_29038" data-name="Path 29038" d="M550.307,358.37a2.738,2.738,0,0,1-2.05-.816,2.768,2.768,0,0,1-.763-1.959,3.066,3.066,0,0,1,.708-2.008,2.6,2.6,0,0,1,.7-.6,1.27,1.27,0,0,1-.193-.678l0-.1a18.551,18.551,0,0,1,.47-2.508c.249-1.036.55-2.2.894-3.447s.723-2.578,1.131-3.951c.421-1.417.809-2.689,1.185-3.889.383-1.222.732-2.318,1.036-3.257.314-.967.54-1.645.692-2.075l.048-.136.08-.12a3.228,3.228,0,0,1,1.124-.988,3.347,3.347,0,0,1,1.679-.447,2.827,2.827,0,0,1,1.4.389,2.5,2.5,0,0,1,1.142,1.489l.053.169v.177a5.314,5.314,0,0,1-.3,1.38c-.175.626-.4,1.4-.669,2.3s-.586,1.943-.945,3.094c-.351,1.125-.724,2.3-1.11,3.5-.4,1.24-.77,2.365-1.128,3.44-.364,1.091-.692,2.087-.974,2.96s-.532,1.608-.733,2.159c-.287.789-.493,1.355-1.044,1.521a3.084,3.084,0,0,1,.449,1.627,2.733,2.733,0,0,1-.8,1.977,2.849,2.849,0,0,1-2.087.8m0-3.43c-.232,0-.288.068-.329.117a.787.787,0,0,0-.178.537.462.462,0,0,0,.121.363c.026.027.1.107.386.107a.648.648,0,0,0,.457-.123.424.424,0,0,0,.124-.346.734.734,0,0,0-.182-.521c-.039-.046-.116-.134-.4-.134m1.066-2.637Zm-.28-.484.046.02a1.12,1.12,0,0,0,.386.077c.027-.072.058-.157.094-.257.191-.525.429-1.226.706-2.081.285-.879.615-1.881.981-2.979.356-1.068.723-2.187,1.121-3.42.383-1.187.754-2.356,1.1-3.474.356-1.142.671-2.173.937-3.065s.487-1.655.658-2.269c.078-.279.129-.471.162-.6a.543.543,0,0,0-.232-.073,1.038,1.038,0,0,0-.535.143,1.635,1.635,0,0,0-.288.2c-.143.414-.346,1.027-.607,1.828-.3.931-.649,2.019-1.029,3.234-.373,1.19-.757,2.451-1.175,3.857-.4,1.357-.78,2.671-1.118,3.9s-.632,2.364-.876,3.376c-.151.625-.262,1.153-.334,1.579" transform="translate(-457.314 -276.806)" fill="#fff"/>
          <path id="Path_29039" data-name="Path 29039" d="M7.069,294.624q.147-.664.516-2.1t.867-3.282q.5-1.844,1.088-3.91T10.7,281.4q.571-1.862,1.088-3.356a17.009,17.009,0,0,1,.885-2.194q.036-.074.332-.092a2.612,2.612,0,0,1,.664.055,2.857,2.857,0,0,1,.756.277,1.7,1.7,0,0,1,.645.609,9.819,9.819,0,0,1-.295,1.457q-.332,1.42-.867,3.54t-1.181,4.592q-.645,2.472-1.235,4.629t-1.014,3.651a13.515,13.515,0,0,1-.535,1.678,1.4,1.4,0,0,1-.959.387,1.545,1.545,0,0,1-.812-.24,1.989,1.989,0,0,1-.793-.83,2.625,2.625,0,0,1-.313-.941m6.307-22.2a1.707,1.707,0,0,1,1.014-.738,1.548,1.548,0,0,1,1.236.258,1.565,1.565,0,0,1,.867,1.051,1.648,1.648,0,0,1-.24,1.235,1.916,1.916,0,0,1-1.069.83,1.666,1.666,0,0,1-1.365-.2,1.606,1.606,0,0,1-.719-1.125,1.991,1.991,0,0,1,.277-1.309" transform="translate(-5.905 -226.901)" fill="#fff"/>
          <path id="Path_29040" data-name="Path 29040" d="M3.125,291.945l-.086,0a2.7,2.7,0,0,1-1.373-.41,3.133,3.133,0,0,1-1.212-1.282,3.709,3.709,0,0,1-.438-1.367L0,288.706l.039-.175c.1-.458.273-1.158.525-2.139.237-.926.522-2,.87-3.3.337-1.248.7-2.568,1.093-3.926.393-1.375.786-2.7,1.168-3.949s.756-2.4,1.1-3.395a17.927,17.927,0,0,1,.95-2.347,1.213,1.213,0,0,1,.583-.556,2.674,2.674,0,0,1-.277-.883,3.124,3.124,0,0,1,.426-2.047l.043-.068a2.869,2.869,0,0,1,1.692-1.205,2.674,2.674,0,0,1,2.1.388,2.67,2.67,0,0,1,1.406,1.814A2.812,2.812,0,0,1,11.326,269l-.01.015a3.093,3.093,0,0,1-1.242,1.126l.007.01c.378.446.282.857-.085,2.428-.219.937-.5,2.1-.871,3.56-.353,1.4-.751,2.945-1.183,4.6-.42,1.607-.836,3.169-1.239,4.641-.393,1.436-.735,2.668-1.017,3.662A9.091,9.091,0,0,1,5.031,291l-.1.165-.147.124a2.545,2.545,0,0,1-1.66.66m-.785-3.136a2.19,2.19,0,0,0,.162.383.839.839,0,0,0,.341.359l.067.041a.435.435,0,0,0,.191.046c.067-.206.181-.575.366-1.227.28-.987.62-2.212,1.012-3.641.4-1.464.814-3.017,1.232-4.616.431-1.65.827-3.192,1.178-4.583.364-1.445.646-2.6.862-3.521.085-.362.143-.623.183-.809a1.661,1.661,0,0,0-.4-.141H7.532c-.164.387-.351.882-.557,1.479-.336.971-.7,2.087-1.076,3.318s-.767,2.545-1.155,3.906-.75,2.657-1.084,3.894c-.346,1.281-.628,2.35-.863,3.268-.2.8-.357,1.414-.457,1.844m6.2-20.769a.475.475,0,0,0,.4.072.757.757,0,0,0,.434-.346.5.5,0,0,0,.082-.391c-.021-.1-.192-.212-.293-.267l-.069-.041c-.212-.137-.3-.114-.34-.106a.534.534,0,0,0-.311.237.824.824,0,0,0-.108.534.428.428,0,0,0,.2.308" transform="translate(0 -221.058)" fill="#fff"/>
          <path id="Path_29041" data-name="Path 29041" d="M44.3,401.191a1.223,1.223,0,0,0,.389-.056l.333-.111q.167-.056.375-.111a2.023,2.023,0,0,1,.514-.056,1.8,1.8,0,0,1,1.221.347.7.7,0,0,1,.194.846,23.587,23.587,0,0,0-.9,2.8q-.458,1.721-.985,3.65a14.613,14.613,0,0,1-.448,1.468,27.513,27.513,0,0,1-1.374,3.539,10.448,10.448,0,0,1-1.666,2.568,2.714,2.714,0,0,1-2.026,1,2,2,0,0,1-.68-.125,1.162,1.162,0,0,1-.541-.375.853.853,0,0,1-.153-.638,1.787,1.787,0,0,1,.514-.916,20.007,20.007,0,0,0,1.582-1.971,8.247,8.247,0,0,0,.985-1.721,3.737,3.737,0,0,0,.2-.816c.012-.048-.068.352.024-.333a.474.474,0,0,0-.472-.347,2.642,2.642,0,0,0-.777.1q-.417.111-.833.264a2.06,2.06,0,0,1-.666.153,2.016,2.016,0,0,1-1.721-.736,2.882,2.882,0,0,1-.555-1.79,8.949,8.949,0,0,1,.347-2.332,8.439,8.439,0,0,1,1.041-2.359,6.131,6.131,0,0,1,1.707-1.777,3.462,3.462,0,0,1,2.318-.583,4.179,4.179,0,0,1,1.013.236,2.956,2.956,0,0,0,1.041.181m-3.692,6.94a1.61,1.61,0,0,0,.958-.361,3.271,3.271,0,0,0,.819-.889,5.39,5.39,0,0,0,.569-1.263,3.728,3.728,0,0,0,.181-1.263,1.471,1.471,0,0,0-.333-.93.959.959,0,0,0-.944-.236,4.543,4.543,0,0,0-.971.708,4.056,4.056,0,0,0-.666.819,4.578,4.578,0,0,0-.527,1.18,3.12,3.12,0,0,0-.125,1.1,1.436,1.436,0,0,0,.305.819.9.9,0,0,0,.736.319" transform="translate(-30.768 -334.749)" fill="#5916c3"/>
          <path id="Path_29042" data-name="Path 29042" d="M103.777,409.652a2.3,2.3,0,0,1-.583.305q-.417.167-.888.306t-.916.236a3.47,3.47,0,0,1-.694.1,1.687,1.687,0,0,1-1.527-.722,3.573,3.573,0,0,1-.528-1.8,8.529,8.529,0,0,1,.236-2.346,12.681,12.681,0,0,1,.777-2.346,8.217,8.217,0,0,1,1.069-1.8,1.569,1.569,0,0,1,1.138-.722q.86,0,1.041.486a2.157,2.157,0,0,1,.014,1.221,10.531,10.531,0,0,1-.513,1.6q-.347.861-.569,1.6a2.92,2.92,0,0,0-.153,1.222q.069.486.763.458a1.161,1.161,0,0,0,.86-.486,6.835,6.835,0,0,0,.805-1.208q.388-.721.763-1.568t.749-1.568a8.984,8.984,0,0,1,.736-1.208.981.981,0,0,1,.749-.486.891.891,0,0,1,.93.708,4.328,4.328,0,0,1,.069,1.763,13.286,13.286,0,0,1-.527,2.276,19.87,19.87,0,0,1-.874,2.276,13.047,13.047,0,0,1-.958,1.763q-.472.708-.75.708a2.032,2.032,0,0,1-.6-.166,1.1,1.1,0,0,1-.625-.583" transform="translate(-82.386 -334.827)" fill="#5916c3"/>
          <path id="Path_29043" data-name="Path 29043" d="M167.107,402.992a3.638,3.638,0,0,1-.833,1.846,6.11,6.11,0,0,1-1.693,1.471,4.81,4.81,0,0,1-1.985.666,2.064,2.064,0,0,1-1.707-.569,1.972,1.972,0,0,0,.028,1.443,1.189,1.189,0,0,0,.861.611,2.738,2.738,0,0,0,1.388-.167,5.82,5.82,0,0,0,1.61-.888q.083-.056.306-.222a2.6,2.6,0,0,1,.5-.292.942.942,0,0,1,.5-.1q.222.028.305.389a2.116,2.116,0,0,1-.4,1.763,4.275,4.275,0,0,1-1.624,1.277,6.849,6.849,0,0,1-2.249.611,5.211,5.211,0,0,1-2.263-.236,3.375,3.375,0,0,1-1.693-1.291,3.67,3.67,0,0,1-.486-2.54,6.281,6.281,0,0,1,.638-2.249,6.15,6.15,0,0,1,1.388-1.832,6.537,6.537,0,0,1,1.971-1.222,6.451,6.451,0,0,1,2.415-.444,6.178,6.178,0,0,1,1.582.167,2.5,2.5,0,0,1,.944.444,1.257,1.257,0,0,1,.43.639,2.142,2.142,0,0,1,.069.722m-5.774,2.11a3.306,3.306,0,0,0,1.763-.07,2.1,2.1,0,0,0,.972-.666,1.16,1.16,0,0,0,.264-.763c-.019-.24-.139-.361-.361-.361a2.544,2.544,0,0,0-1.749.583,3.787,3.787,0,0,0-.888,1.277" transform="translate(-131.67 -334.968)" fill="#5916c3"/>
          <path id="Path_29044" data-name="Path 29044" d="M75.441,252.851a5.183,5.183,0,0,1-.535,3.633,7.52,7.52,0,0,1-2.508,2.545,12.581,12.581,0,0,1-3.6,1.531,17.966,17.966,0,0,1-3.762.59,40.4,40.4,0,0,1-3.393,7.653q-1.586,2.527-3.172,2.526a1.541,1.541,0,0,1-1.254-.664,3.887,3.887,0,0,1-.738-3.043.921.921,0,0,1,.7-.83,3.551,3.551,0,0,0,2.213-1.383,10.032,10.032,0,0,0,1.531-2.84,20.914,20.914,0,0,0,.941-3.633q.332-1.955.516-3.8t.24-3.319q.056-1.474.092-2.176a3.453,3.453,0,0,1-.646.313,4.846,4.846,0,0,1-1.088.295,2.653,2.653,0,0,1-1.088-.037.82.82,0,0,1-.609-.719,1.453,1.453,0,0,1,.24-1.143,2.853,2.853,0,0,1,.959-.812,4.731,4.731,0,0,1,1.365-.479,7.631,7.631,0,0,1,1.457-.148q1.032,0,2.269.055t2.508.24a15.554,15.554,0,0,1,2.489.572,8.739,8.739,0,0,1,2.213,1.051,6.54,6.54,0,0,1,1.7,1.641,5.851,5.851,0,0,1,.959,2.379m-9.368-3.061q0,.111.019,1.014t-.019,2.158q-.037,1.254-.2,2.637a13.922,13.922,0,0,1-.5,2.453,9.693,9.693,0,0,0,1.863-.24,9.223,9.223,0,0,0,2.268-.793,6.038,6.038,0,0,0,1.9-1.475,3.3,3.3,0,0,0,.757-2.324,2.5,2.5,0,0,0-.757-1.936,4.278,4.278,0,0,0-1.7-.867,10.923,10.923,0,0,0-1.992-.332,6.448,6.448,0,0,1-1.642-.295" transform="translate(-47.125 -206.243)" fill="#5916c3"/>
          <path id="Path_29045" data-name="Path 29045" d="M169.485,300.275a2.113,2.113,0,0,0,.977-.258,2.412,2.412,0,0,1,1.125-.258q2.213,0,2.213,1.438a4.286,4.286,0,0,1-.276,1.383,17.709,17.709,0,0,1-.682,1.66l-.83,1.77a14.027,14.027,0,0,0-.682,1.715,6.518,6.518,0,0,0-.314.941q-.2.719-.406,1.494t-.387,1.4a2.462,2.462,0,0,1-.221.627,2.027,2.027,0,0,1-1.254-.019,3.2,3.2,0,0,1-.83-.5q-.351-.295-.719-.572a1.494,1.494,0,0,0-.922-.277,1.076,1.076,0,0,0-.553.222q-.332.221-.756.461t-.9.461a2.353,2.353,0,0,1-1,.221,2.687,2.687,0,0,1-1.531-.387,2.5,2.5,0,0,1-.848-.922,3.31,3.31,0,0,1-.351-1.088,7.123,7.123,0,0,1-.074-.885,12.369,12.369,0,0,1,.387-2.914,10.711,10.711,0,0,1,1.2-2.951,7.449,7.449,0,0,1,2.065-2.268,4.971,4.971,0,0,1,2.987-.9,4.022,4.022,0,0,1,1.2.2,4.585,4.585,0,0,0,1.383.2m-4.5,8.52a1.5,1.5,0,0,0,1.254-.2,3.911,3.911,0,0,0,1.125-1.088,7.177,7.177,0,0,0,.83-1.549,6.637,6.637,0,0,0,.424-1.586,2.41,2.41,0,0,0-.129-1.254.838.838,0,0,0-.848-.517,2.224,2.224,0,0,0-1.512.756,6.075,6.075,0,0,0-1.254,1.77,5.177,5.177,0,0,0-.516,2.047,1.957,1.957,0,0,0,.627,1.623" transform="translate(-133.866 -250.385)" fill="#5916c3"/>
          <path id="Path_29046" data-name="Path 29046" d="M255.022,273.44q-.2.439-.532,1.169t-.713,1.464q-.377.735-.774,1.372a3.548,3.548,0,0,1-.746.912,1.483,1.483,0,0,1-.754.564.71.71,0,0,1-.74-.285q-.295-.246-.107-1.167a12.207,12.207,0,0,1,.628-2.027,16.32,16.32,0,0,1,1.038-2.144,6.36,6.36,0,0,1,1.153-1.534.905.905,0,0,1,.785-.385.847.847,0,0,1,.587.387,2.009,2.009,0,0,1,.288.8,1.459,1.459,0,0,1-.112.869" transform="translate(-209.308 -226.674)" fill="#5916c3"/>
          <path id="Path_29047" data-name="Path 29047" d="M230.817,339.7a2.144,2.144,0,0,1,.129-1.549,2.674,2.674,0,0,1,1.014-1.107,3.592,3.592,0,0,1,1.494-.5,2.942,2.942,0,0,1,1.586.258,3.216,3.216,0,0,1,1.309,1.18,4.718,4.718,0,0,1,.664,2.268,12.435,12.435,0,0,1-.5,3.633,29.906,29.906,0,0,1-1.66,4.629,41.984,41.984,0,0,1-2.6,4.887,29.272,29.272,0,0,1-3.3,4.407,17.588,17.588,0,0,1-3.781,3.172,7.642,7.642,0,0,1-4.02,1.217,4.134,4.134,0,0,1-1.549-.221,1.372,1.372,0,0,1-.7-1.07,8.454,8.454,0,0,1-.147-2.379q.074-1.494.35-3.338t.7-3.928q.423-2.083.9-4.131t.959-3.947q.479-1.9.867-3.356t.627-2.379a9.48,9.48,0,0,0,.24-1.032.373.373,0,0,1,.147-.406,1.867,1.867,0,0,1,.812-.111,1.956,1.956,0,0,1,1.807.9,5.046,5.046,0,0,1,.627,2.4,17.149,17.149,0,0,1-.221,3.412q-.3,1.918-.756,3.891t-.978,3.891q-.517,1.918-.885,3.412a18.218,18.218,0,0,0-.461,2.4q-.092.9.313.9.59,0,1.494-1.088a23.618,23.618,0,0,0,1.918-2.748q1.014-1.659,2.01-3.67t1.752-3.891q.755-1.88,1.18-3.338a4.566,4.566,0,0,0,.277-2.047q-.037-.147-.277-.2a3.4,3.4,0,0,0-.535-.074,2.263,2.263,0,0,1-.535-.092.35.35,0,0,1-.277-.258" transform="translate(-182.709 -280.575)" fill="#5916c3"/>
          <path id="Path_29048" data-name="Path 29048" d="M326.773,402.563a4.829,4.829,0,0,1-1.106,2.453,8.117,8.117,0,0,1-2.25,1.955,6.4,6.4,0,0,1-2.637.885,2.742,2.742,0,0,1-2.268-.756,2.619,2.619,0,0,0,.037,1.918,1.578,1.578,0,0,0,1.143.811,3.634,3.634,0,0,0,1.844-.221,7.715,7.715,0,0,0,2.139-1.18q.111-.074.406-.295a3.436,3.436,0,0,1,.664-.387,1.255,1.255,0,0,1,.664-.129q.295.037.406.517a2.812,2.812,0,0,1-.535,2.342,5.684,5.684,0,0,1-2.157,1.7,9.1,9.1,0,0,1-2.987.811,6.92,6.92,0,0,1-3.006-.314,4.483,4.483,0,0,1-2.25-1.715,4.877,4.877,0,0,1-.645-3.375,8.339,8.339,0,0,1,.848-2.988,8.16,8.16,0,0,1,1.844-2.434,8.686,8.686,0,0,1,2.618-1.623,8.565,8.565,0,0,1,3.209-.59,8.2,8.2,0,0,1,2.1.221,3.317,3.317,0,0,1,1.254.59,1.668,1.668,0,0,1,.572.848,2.845,2.845,0,0,1,.092.959m-7.671,2.8a4.394,4.394,0,0,0,2.342-.092,2.784,2.784,0,0,0,1.291-.885,1.541,1.541,0,0,0,.35-1.014q-.037-.479-.479-.48a3.378,3.378,0,0,0-2.324.775,5.034,5.034,0,0,0-1.18,1.7" transform="translate(-262.437 -334.069)" fill="#5916c3"/>
          <path id="Path_29049" data-name="Path 29049" d="M403.394,369.289a2.11,2.11,0,0,0,.977-.258,2.415,2.415,0,0,1,1.125-.258q2.213,0,2.213,1.438a4.282,4.282,0,0,1-.277,1.383,17.558,17.558,0,0,1-.682,1.659l-.83,1.771a14.132,14.132,0,0,0-.682,1.715,6.564,6.564,0,0,0-.314.941q-.2.72-.406,1.494t-.387,1.4a2.463,2.463,0,0,1-.221.627,2.024,2.024,0,0,1-1.254-.018,3.211,3.211,0,0,1-.83-.5q-.351-.295-.719-.572a1.5,1.5,0,0,0-.922-.276,1.074,1.074,0,0,0-.553.221q-.332.221-.756.461t-.9.461a2.353,2.353,0,0,1-1,.221,2.686,2.686,0,0,1-1.531-.387,2.5,2.5,0,0,1-.848-.922,3.3,3.3,0,0,1-.35-1.088,7.055,7.055,0,0,1-.074-.885,12.355,12.355,0,0,1,.388-2.914,10.7,10.7,0,0,1,1.2-2.95,7.463,7.463,0,0,1,2.065-2.269,4.972,4.972,0,0,1,2.987-.9,4.013,4.013,0,0,1,1.2.2,4.585,4.585,0,0,0,1.383.2m-4.5,8.52a1.5,1.5,0,0,0,1.254-.2,3.913,3.913,0,0,0,1.125-1.088,7.166,7.166,0,0,0,.83-1.549,6.658,6.658,0,0,0,.424-1.586,2.408,2.408,0,0,0-.129-1.254.837.837,0,0,0-.848-.517,2.225,2.225,0,0,0-1.512.756,6.078,6.078,0,0,0-1.254,1.77,5.191,5.191,0,0,0-.516,2.047,1.957,1.957,0,0,0,.627,1.623m7.229-13.057q-.407.259-1.088.682t-1.4.83q-.719.407-1.4.719a3.543,3.543,0,0,1-1.125.35,1.481,1.481,0,0,1-.941.056.711.711,0,0,1-.461-.645q-.11-.369.554-1.033a12.149,12.149,0,0,1,1.641-1.346,16.339,16.339,0,0,1,2.047-1.217,6.351,6.351,0,0,1,1.807-.645.9.9,0,0,1,.867.11.847.847,0,0,1,.276.646,2.008,2.008,0,0,1-.2.83,1.457,1.457,0,0,1-.572.664" transform="translate(-329.247 -302.749)" fill="#5916c3"/>
          <path id="Path_29050" data-name="Path 29050" d="M479.444,407.194a.747.747,0,0,0-.314-.683,4,4,0,0,0-.922-.516q-.572-.24-1.272-.461a10.937,10.937,0,0,1-1.4-.553,2.3,2.3,0,0,1-1.309-1.254,4.3,4.3,0,0,1-.277-1.438,2.887,2.887,0,0,1,.572-1.771,5.949,5.949,0,0,1,1.586-1.549,8.114,8.114,0,0,1,2.158-1.032,6.374,6.374,0,0,1,2.323-.3,4.457,4.457,0,0,1,2.766,1.014,3.248,3.248,0,0,1,1.07,1.937,3.043,3.043,0,0,1-.055.866,1.78,1.78,0,0,1-.387.812,1.955,1.955,0,0,1-.867.553,2.947,2.947,0,0,1-1.457.055c-.147-.024-.252-.135-.314-.332a3.327,3.327,0,0,1-.129-.59,1.54,1.54,0,0,0-.627-1.291,2.012,2.012,0,0,0-1.328-.351,2.721,2.721,0,0,0-1.4.535,2.3,2.3,0,0,0-.885,1.328c-.025.074.1.16.369.258s.614.234,1.033.405.879.369,1.383.591a11.923,11.923,0,0,1,1.42.737,5.388,5.388,0,0,1,1.143.922,2.238,2.238,0,0,1,.59,1.143,2.879,2.879,0,0,1-.295,1.752,5.351,5.351,0,0,1-1.346,1.733,7.231,7.231,0,0,1-2.195,1.291,6.634,6.634,0,0,1-2.877.387,6.862,6.862,0,0,1-1.77-.332,4.627,4.627,0,0,1-1.236-.627,3.134,3.134,0,0,1-.775-.793,3.758,3.758,0,0,1-.424-.866,2.064,2.064,0,0,1-.055-1.125,3.451,3.451,0,0,1,.424-1.051,2.937,2.937,0,0,1,.7-.793,1.286,1.286,0,0,1,.775-.314q.553,0,.738.959a2.4,2.4,0,0,0,.922,1.383,2.536,2.536,0,0,0,1.586.572,5.48,5.48,0,0,0,.738-.056,3.246,3.246,0,0,0,.775-.2,1.782,1.782,0,0,0,.609-.387.78.78,0,0,0,.24-.571" transform="translate(-394.16 -332.135)" fill="#5916c3"/>
          <path id="Path_29051" data-name="Path 29051" d="M554.047,361.417a1.933,1.933,0,0,1,.443-1.273,1.5,1.5,0,0,1,1.217-.535,1.594,1.594,0,0,1,1.272.535,1.887,1.887,0,0,1,.461,1.273,1.575,1.575,0,0,1-.461,1.162,1.719,1.719,0,0,1-1.272.461,1.552,1.552,0,0,1-1.66-1.623m6.565-22.129a2.148,2.148,0,0,1,.737-.627,2.2,2.2,0,0,1,1.107-.295,1.683,1.683,0,0,1,.83.24,1.371,1.371,0,0,1,.609.83,7.571,7.571,0,0,1-.258,1.07q-.258.922-.664,2.287t-.94,3.08q-.535,1.715-1.107,3.485t-1.125,3.43q-.553,1.659-.977,2.969t-.719,2.12a4.369,4.369,0,0,1-.332.811,1.783,1.783,0,0,1-.885.2,2.263,2.263,0,0,1-.793-.166,3.224,3.224,0,0,1-.59-.314c-.16-.11-.24-.2-.24-.276a17.659,17.659,0,0,1,.443-2.342q.368-1.53.885-3.411t1.125-3.928q.609-2.047,1.18-3.872t1.033-3.246q.461-1.419.682-2.047" transform="translate(-462.788 -282.633)" fill="#5916c3"/>
          <path id="Path_29052" data-name="Path 29052" d="M6.622,294.6q.147-.664.516-2.1t.867-3.282q.5-1.844,1.088-3.91t1.162-3.928q.571-1.862,1.088-3.356a17.011,17.011,0,0,1,.885-2.194c.024-.049.135-.08.332-.092a2.618,2.618,0,0,1,.664.056,2.854,2.854,0,0,1,.756.277,1.7,1.7,0,0,1,.645.608,9.82,9.82,0,0,1-.3,1.457q-.332,1.42-.867,3.54t-1.18,4.592q-.645,2.472-1.235,4.629t-1.014,3.651a13.52,13.52,0,0,1-.535,1.678,1.4,1.4,0,0,1-.959.387,1.545,1.545,0,0,1-.812-.24,1.988,1.988,0,0,1-.793-.83,2.625,2.625,0,0,1-.313-.941m6.307-22.2a1.705,1.705,0,0,1,1.014-.738,1.548,1.548,0,0,1,1.236.258,1.566,1.566,0,0,1,.867,1.051,1.648,1.648,0,0,1-.24,1.235,1.916,1.916,0,0,1-1.069.83,1.666,1.666,0,0,1-1.365-.2,1.606,1.606,0,0,1-.719-1.125,1.991,1.991,0,0,1,.277-1.309" transform="translate(-5.531 -226.882)" fill="#5916c3"/>
          <path id="Path_29053" data-name="Path 29053" d="M232.825,0,222.118,4.717l2.677.992L208.109,20.746,194.229,14a1.843,1.843,0,0,0-1.925.195L173.281,28.767a1.842,1.842,0,1,0,2.24,2.924l18.121-13.878L207.615,24.6a1.842,1.842,0,0,0,2.038-.289L227.526,8.206l1.205,2.754Z" transform="translate(-144.136)" fill="#614ed8"/>
        </g>
      </g>
    </g>
  </g>
</svg>
