<svg xmlns="http://www.w3.org/2000/svg" width="146.128" height="156.332" viewBox="0 0 146.128 156.332">
  <g id="img-emergencia2" transform="translate(-3223.804 -261.867)">
    <g id="Group_3617" data-name="Group 3617" transform="translate(3236.945 266.416)">
      <g id="Group_3613" data-name="Group 3613" transform="translate(9.821 122.162)">
        <path id="Path_3628" data-name="Path 3628" d="M3336.285,711.9a.738.738,0,0,1-.172-.02,71.873,71.873,0,0,1-7.6-2.237.749.749,0,0,1,.5-1.412,70.378,70.378,0,0,0,7.44,2.191.749.749,0,0,1-.171,1.479Zm-14.75-5.245a.75.75,0,0,1-.327-.075,72.343,72.343,0,0,1-6.924-3.848.749.749,0,1,1,.8-1.268,70.779,70.779,0,0,0,6.78,3.767.75.75,0,0,1-.328,1.424Zm-13.246-8.343a.744.744,0,0,1-.466-.163,72.753,72.753,0,0,1-5.922-5.26.749.749,0,0,1,1.055-1.065,71.274,71.274,0,0,0,5.8,5.151.749.749,0,0,1-.467,1.336Z" transform="translate(-3301.68 -691.609)" fill="#0059ab"/>
      </g>
      <g id="Group_3614" data-name="Group 3614" transform="translate(124.025 39.54)">
        <path id="Path_3629" data-name="Path 3629" d="M3696.427,455.643a.749.749,0,0,1-.742-.862,71.349,71.349,0,0,0,.782-8.66.749.749,0,0,1,.749-.728h.022a.749.749,0,0,1,.727.77,72.867,72.867,0,0,1-.8,8.842A.749.749,0,0,1,3696.427,455.643Zm.512-17.533a.749.749,0,0,1-.745-.68,70.823,70.823,0,0,0-1.332-8.59.749.749,0,1,1,1.464-.321,72.261,72.261,0,0,1,1.36,8.773.749.749,0,0,1-.677.815C3696.985,438.109,3696.962,438.11,3696.939,438.11Zm-3.753-17.131a.749.749,0,0,1-.706-.5,70.434,70.434,0,0,0-3.4-8,.749.749,0,0,1,1.341-.67,72.041,72.041,0,0,1,3.47,8.172.75.75,0,0,1-.707,1Z" transform="translate(-3689.003 -411.394)" fill="#0059ab"/>
      </g>
      <g id="Group_3615" data-name="Group 3615" transform="translate(0 0)">
        <path id="Path_3630" data-name="Path 3630" d="M3269.12,311.6a.75.75,0,0,1-.63-1.155,72.659,72.659,0,0,1,4.743-6.532.749.749,0,1,1,1.162.946,71.209,71.209,0,0,0-4.644,6.4A.748.748,0,0,1,3269.12,311.6ZM3279.2,299.23a.749.749,0,0,1-.524-1.284,72.892,72.892,0,0,1,6.066-5.324.749.749,0,0,1,.925,1.18,71.374,71.374,0,0,0-5.942,5.214A.746.746,0,0,1,3279.2,299.23Zm12.556-9.836a.75.75,0,0,1-.394-1.387,72.393,72.393,0,0,1,7.094-3.848.749.749,0,0,1,.64,1.355,70.782,70.782,0,0,0-6.947,3.768A.745.745,0,0,1,3291.752,289.394Zm14.422-6.8a.749.749,0,0,1-.241-1.459,71.909,71.909,0,0,1,7.772-2.167.749.749,0,0,1,.321,1.464,70.361,70.361,0,0,0-7.61,2.122A.751.751,0,0,1,3306.174,282.59Zm15.576-3.413a.749.749,0,0,1-.077-1.495,72.879,72.879,0,0,1,8.062-.387.749.749,0,0,1-.006,1.5h-.006a71.7,71.7,0,0,0-7.9.379A.7.7,0,0,1,3321.75,279.178Z" transform="translate(-3268.371 -277.294)" fill="#0059ab"/>
      </g>
      <g id="Group_3616" data-name="Group 3616" transform="translate(8.402 19.733)">
        <circle id="Ellipse_253" data-name="Ellipse 253" cx="52.442" cy="52.442" r="52.442" fill="#abe7ff"/>
      </g>
    </g>
    <g id="Group_3628" data-name="Group 3628" transform="translate(3223.804 309.155)">
      <g id="Group_3618" data-name="Group 3618" transform="translate(31.556 44.853)">
        <path id="Path_3631" data-name="Path 3631" d="M3333.369,576.9h24.967a12,12,0,0,1,0,24l-24.969.005" transform="translate(-3332.62 -576.155)" fill="#fff"/>
        <path id="Path_3632" data-name="Path 3632" d="M3331.577,599.864a.749.749,0,0,1,0-1.5l24.97-.005a11.249,11.249,0,0,0,0-22.5h-24.967a.749.749,0,0,1,0-1.5h24.967a12.748,12.748,0,0,1,0,25.5Z" transform="translate(-3330.828 -574.363)" fill="#0059ab"/>
      </g>
      <g id="Group_3619" data-name="Group 3619" transform="translate(0 0)">
        <path id="Path_3633" data-name="Path 3633" d="M3261.059,424.785h-22.715a12,12,0,0,0,0,24l22.718.005" transform="translate(-3225.596 -424.036)" fill="#fff"/>
        <path id="Path_3634" data-name="Path 3634" d="M3259.267,447.745h0l-22.717-.005a12.748,12.748,0,0,1,0-25.5h22.715a.749.749,0,0,1,0,1.5h-22.715a11.249,11.249,0,0,0,0,22.5l22.718.005a.749.749,0,0,1,0,1.5Z" transform="translate(-3223.804 -422.244)" fill="#0059ab"/>
      </g>
      <g id="Group_3620" data-name="Group 3620" transform="translate(2.427 2.764)">
        <path id="Path_3635" data-name="Path 3635" d="M3297.652,440.234l-6.423-5.976a.391.391,0,0,0-.533,0l-6.423,5.976a.442.442,0,0,0,.266.768h1.692v6.383a13.509,13.509,0,0,1-13.51,13.51h-17.13a21.015,21.015,0,0,0-21.015,21.015v14.225a1.491,1.491,0,0,0,1.491,1.491l6.8,0a1.49,1.49,0,0,0,1.489-1.49V484.45a13.771,13.771,0,0,1,13.771-13.771H3275a21.015,21.015,0,0,0,21.015-21.015V441h1.371A.443.443,0,0,0,3297.652,440.234Z" transform="translate(-3233.826 -433.406)" fill="#2db5ff"/>
        <path id="Path_3636" data-name="Path 3636" d="M3234.274,496.587a2.24,2.24,0,0,1-2.24-2.24V480.122a21.789,21.789,0,0,1,21.765-21.764h17.129a12.775,12.775,0,0,0,12.76-12.76v-5.634h-.942a1.15,1.15,0,0,1-1.072-.742,1.2,1.2,0,0,1,.3-1.324l6.423-5.976a1.144,1.144,0,0,1,1.554,0l6.423,5.976h0a1.2,1.2,0,0,1,.294,1.324,1.15,1.15,0,0,1-1.072.741h-.622v7.913a21.789,21.789,0,0,1-21.764,21.764h-16.869a13.036,13.036,0,0,0-13.021,13.021v11.68a2.242,2.242,0,0,1-2.238,2.24l-6.8.005Zm19.525-36.73a20.289,20.289,0,0,0-20.266,20.266v14.225a.741.741,0,0,0,.741.741h0l6.8-.005a.742.742,0,0,0,.741-.741v-11.68a14.537,14.537,0,0,1,14.52-14.52h16.869a20.289,20.289,0,0,0,20.266-20.266v-8.663a.749.749,0,0,1,.749-.749h.558l-5.61-5.219-5.61,5.219h.878a.749.749,0,0,1,.749.749V445.6a14.275,14.275,0,0,1-14.259,14.259Zm41.55-20.862Z" transform="translate(-3232.034 -431.617)" fill="#0059ab"/>
      </g>
      <g id="Group_3621" data-name="Group 3621" transform="translate(18.317 44.853)">
        <path id="Path_3637" data-name="Path 3637" d="M3312.907,590.079v-2.348a.79.79,0,0,0-.79-.79h-1.722a9.6,9.6,0,0,0-1.418-3.483l1.1-1.107a.79.79,0,0,0,0-1.114l-1.72-1.725a.79.79,0,0,0-1.135.016l-.983,1.044a13.647,13.647,0,0,0-3.364-1.446v-1.431a.79.79,0,0,0-.79-.79H3299.3a.79.79,0,0,0-.79.79v1.431a9.154,9.154,0,0,0-3.393,1.442l-1.047-1.069a.789.789,0,0,0-1.123,0l-1.718,1.728a.79.79,0,0,0,0,1.112l1.109,1.124a9.6,9.6,0,0,0-1.409,3.483h-1.664a.79.79,0,0,0-.79.79v2.348a.79.79,0,0,0,.79.79h1.682a9.457,9.457,0,0,0,1.433,3.44l-1.127,1.134a.79.79,0,0,0,0,1.115l1.724,1.727a.79.79,0,0,0,1.129-.011l1.063-1.107a9,9,0,0,0,3.342,1.412v1.536a.79.79,0,0,0,.79.79h2.784a.79.79,0,0,0,.79-.79v-1.536a13.432,13.432,0,0,0,3.313-1.41l1.082,1.114a.79.79,0,0,0,1.127.006l1.706-1.721a.79.79,0,0,0,0-1.114l-1.141-1.146a9.436,9.436,0,0,0,1.421-3.44h1.74A.79.79,0,0,0,3312.907,590.079Z" transform="translate(-3287.719 -576.155)" fill="#cff1ff"/>
        <path id="Path_3638" data-name="Path 3638" d="M3300.288,599.864H3297.5a1.541,1.541,0,0,1-1.539-1.539v-.937a9.387,9.387,0,0,1-2.473-1.053l-.643.669a1.524,1.524,0,0,1-1.095.473h-.015a1.528,1.528,0,0,1-1.089-.452l-1.724-1.728a1.542,1.542,0,0,1,0-2.173l.709-.713a10.161,10.161,0,0,1-1.079-2.584h-1.086a1.541,1.541,0,0,1-1.539-1.54V585.94a1.541,1.541,0,0,1,1.539-1.539h1.064a10.2,10.2,0,0,1,1.064-2.626l-.7-.706a1.545,1.545,0,0,1,0-2.167l1.717-1.728a1.528,1.528,0,0,1,1.091-.454h.006a1.528,1.528,0,0,1,1.094.462l.623.637a9.626,9.626,0,0,1,2.531-1.082V575.9a1.541,1.541,0,0,1,1.539-1.539h2.784a1.541,1.541,0,0,1,1.539,1.539v.88a15.032,15.032,0,0,1,2.483,1.044l.57-.6a1.539,1.539,0,0,1,2.21-.031l1.72,1.725a1.542,1.542,0,0,1,0,2.169l-.682.689a10.2,10.2,0,0,1,1.071,2.625h1.122a1.541,1.541,0,0,1,1.539,1.539v2.348a1.541,1.541,0,0,1-1.539,1.54h-1.144a10.131,10.131,0,0,1-1.067,2.583l.722.726a1.543,1.543,0,0,1,0,2.169l-1.707,1.721a1.529,1.529,0,0,1-1.093.456h-.008a1.526,1.526,0,0,1-1.1-.467l-.67-.689a14.741,14.741,0,0,1-2.438,1.017v.982A1.541,1.541,0,0,1,3300.288,599.864Zm-6.916-5.237a.748.748,0,0,1,.409.122,8.236,8.236,0,0,0,3.075,1.3.749.749,0,0,1,.606.735v1.536a.04.04,0,0,0,.041.041h2.784a.041.041,0,0,0,.041-.041v-1.536a.749.749,0,0,1,.539-.719,12.756,12.756,0,0,0,3.113-1.318.75.75,0,0,1,.948.1l1.082,1.114a.036.036,0,0,0,.029.012h0a.036.036,0,0,0,.029-.012l1.706-1.721a.04.04,0,0,0,0-.057l-1.141-1.147a.749.749,0,0,1-.093-.942,8.744,8.744,0,0,0,1.31-3.173.75.75,0,0,1,.735-.6h1.741a.04.04,0,0,0,.04-.041V585.94a.04.04,0,0,0-.041-.04H3308.6a.749.749,0,0,1-.736-.607,8.822,8.822,0,0,0-1.309-3.215.75.75,0,0,1,.095-.938l1.1-1.107a.04.04,0,0,0,0-.056l-1.721-1.726a.026.026,0,0,0-.029-.012.04.04,0,0,0-.029.013l-.984,1.044a.75.75,0,0,1-.959.111,12.967,12.967,0,0,0-3.164-1.352.749.749,0,0,1-.536-.719V575.9a.041.041,0,0,0-.041-.041H3297.5a.041.041,0,0,0-.041.041v1.432a.749.749,0,0,1-.6.735,8.4,8.4,0,0,0-3.124,1.332.749.749,0,0,1-.949-.1l-1.046-1.069a.039.039,0,0,0-.028-.012h0a.04.04,0,0,0-.029.012l-1.717,1.728a.041.041,0,0,0,0,.058l1.108,1.123a.748.748,0,0,1,.094.936,8.825,8.825,0,0,0-1.3,3.216.749.749,0,0,1-.736.607h-1.665a.04.04,0,0,0-.041.04v2.348a.04.04,0,0,0,.041.041h1.683a.75.75,0,0,1,.735.6,8.754,8.754,0,0,0,1.323,3.173.75.75,0,0,1-.093.942l-1.127,1.134a.04.04,0,0,0,0,.057l1.724,1.728s0,.01.029.012a.037.037,0,0,0,.028-.012l1.064-1.107A.748.748,0,0,1,3293.372,594.628Z" transform="translate(-3285.927 -574.363)" fill="#0059ab"/>
      </g>
      <g id="Group_3622" data-name="Group 3622" transform="translate(50.518 50.897)">
        <path id="Path_3639" data-name="Path 3639" d="M3399.79,608.275a.75.75,0,0,1-.75-.75V597.277l-2.655,2.356a.749.749,0,0,1-.995-1.121l3.9-3.462a.749.749,0,0,1,1.247.56v11.915A.749.749,0,0,1,3399.79,608.275Z" transform="translate(-3395.138 -594.862)" fill="#0059ab"/>
      </g>
      <g id="Group_3623" data-name="Group 3623" transform="translate(51.063 62.811)">
        <path id="Path_3640" data-name="Path 3640" d="M3404.449,636.769h-6.714a.749.749,0,1,1,0-1.5h6.714a.749.749,0,0,1,0,1.5Z" transform="translate(-3396.985 -635.27)" fill="#0059ab"/>
      </g>
      <g id="Group_3624" data-name="Group 3624" transform="translate(23.666 0)">
        <path id="Path_3641" data-name="Path 3641" d="M3306.609,437.961v-2.348a.79.79,0,0,1,.79-.79h1.722a9.6,9.6,0,0,1,1.418-3.484l-1.1-1.107a.79.79,0,0,1,0-1.114l1.72-1.725a.79.79,0,0,1,1.134.016l.983,1.043a13.638,13.638,0,0,1,3.364-1.446v-1.431a.79.79,0,0,1,.791-.79h2.784a.79.79,0,0,1,.79.79v1.431a9.152,9.152,0,0,1,3.393,1.443l1.047-1.069a.788.788,0,0,1,1.123,0l1.717,1.728a.789.789,0,0,1,0,1.111l-1.108,1.124a9.584,9.584,0,0,1,1.41,3.484h1.665a.79.79,0,0,1,.79.79v2.348a.79.79,0,0,1-.79.79h-1.683a9.459,9.459,0,0,1-1.433,3.441l1.128,1.134a.79.79,0,0,1,0,1.115l-1.724,1.728a.791.791,0,0,1-1.129-.011l-1.063-1.107a9,9,0,0,1-3.342,1.413V448a.79.79,0,0,1-.79.79h-2.784a.79.79,0,0,1-.791-.79v-1.536a13.424,13.424,0,0,1-3.312-1.41l-1.082,1.113a.79.79,0,0,1-1.127.006l-1.707-1.721a.789.789,0,0,1,0-1.113l1.141-1.147a9.433,9.433,0,0,1-1.42-3.441H3307.4A.789.789,0,0,1,3306.609,437.961Z" transform="translate(-3305.86 -424.037)" fill="#cff1ff"/>
        <path id="Path_3642" data-name="Path 3642" d="M3318.429,447.746h-2.784a1.541,1.541,0,0,1-1.54-1.539v-.982a14.76,14.76,0,0,1-2.438-1.017l-.669.689a1.527,1.527,0,0,1-1.1.467h-.008a1.526,1.526,0,0,1-1.093-.456l-1.706-1.721a1.542,1.542,0,0,1,0-2.169l.722-.726a10.139,10.139,0,0,1-1.067-2.583h-1.144a1.541,1.541,0,0,1-1.539-1.539v-2.348a1.541,1.541,0,0,1,1.539-1.539h1.122a10.187,10.187,0,0,1,1.071-2.625l-.683-.689a1.542,1.542,0,0,1,0-2.17l1.721-1.725a1.525,1.525,0,0,1,1.089-.452h.022a1.526,1.526,0,0,1,1.1.483l.569.6a15.008,15.008,0,0,1,2.483-1.044v-.88a1.541,1.541,0,0,1,1.54-1.539h2.784a1.541,1.541,0,0,1,1.539,1.539v.835a9.619,9.619,0,0,1,2.531,1.082l.624-.637a1.529,1.529,0,0,1,1.094-.462h0a1.526,1.526,0,0,1,1.091.454l1.717,1.728a1.545,1.545,0,0,1,0,2.166l-.7.705a10.208,10.208,0,0,1,1.065,2.626h1.063a1.541,1.541,0,0,1,1.539,1.539v2.348a1.541,1.541,0,0,1-1.539,1.539h-1.087a10.142,10.142,0,0,1-1.078,2.584l.708.713a1.541,1.541,0,0,1,0,2.173l-1.723,1.727a1.529,1.529,0,0,1-1.089.452h-.015a1.526,1.526,0,0,1-1.1-.472l-.643-.669a9.371,9.371,0,0,1-2.474,1.053v.938A1.541,1.541,0,0,1,3318.429,447.746Zm-6.887-5.234a.746.746,0,0,1,.41.122,13.045,13.045,0,0,0,3.113,1.317.75.75,0,0,1,.539.719v1.536a.041.041,0,0,0,.042.04h2.784a.04.04,0,0,0,.041-.04v-1.536a.749.749,0,0,1,.606-.736,8.235,8.235,0,0,0,3.075-1.3.749.749,0,0,1,.95.108l1.063,1.107s.005.007.029.012a.038.038,0,0,0,.029-.012l1.724-1.727a.041.041,0,0,0,0-.057l-1.128-1.135a.749.749,0,0,1-.093-.942,8.757,8.757,0,0,0,1.322-3.174.749.749,0,0,1,.735-.6h1.683a.04.04,0,0,0,.041-.041v-2.348a.041.041,0,0,0-.041-.041H3326.8a.749.749,0,0,1-.736-.607,8.826,8.826,0,0,0-1.3-3.215.748.748,0,0,1,.094-.936l1.108-1.124a.041.041,0,0,0,0-.057l-1.717-1.728a.038.038,0,0,0-.028-.012h0a.042.042,0,0,0-.029.012l-1.046,1.069a.75.75,0,0,1-.95.1,8.4,8.4,0,0,0-3.124-1.332.749.749,0,0,1-.6-.735v-1.431a.04.04,0,0,0-.041-.04h-2.784a.041.041,0,0,0-.042.04v1.431a.75.75,0,0,1-.536.719,12.93,12.93,0,0,0-3.164,1.352.749.749,0,0,1-.959-.111l-.984-1.044s0-.007-.03-.013a.039.039,0,0,0-.028.011l-1.721,1.725a.04.04,0,0,0,0,.057l1.1,1.108a.749.749,0,0,1,.095.937,8.837,8.837,0,0,0-1.309,3.215.749.749,0,0,1-.736.607h-1.722a.041.041,0,0,0-.041.041v2.348a.04.04,0,0,0,.041.041h1.74a.749.749,0,0,1,.735.6,8.748,8.748,0,0,0,1.311,3.174.749.749,0,0,1-.093.942l-1.141,1.147a.04.04,0,0,0,0,.057l1.707,1.722a.038.038,0,0,0,.028.012h0a.04.04,0,0,0,.03-.012l1.082-1.114A.748.748,0,0,1,3311.542,442.512Z" transform="translate(-3304.068 -422.245)" fill="#0059ab"/>
      </g>
      <g id="Group_3625" data-name="Group 3625" transform="translate(31.78 9.094)">
        <path id="Path_3643" data-name="Path 3643" d="M3335.174,459.94a1.88,1.88,0,0,1-1.334-.55l-2.035-2.034a.749.749,0,0,1,1.06-1.06l2.035,2.035a.389.389,0,0,0,.312.109.828.828,0,0,1,.127,0,.387.387,0,0,0,.311-.108l5.025-5.024a.749.749,0,0,1,1.06,1.06l-5.024,5.024a1.877,1.877,0,0,1-1.435.547Z" transform="translate(-3331.586 -453.087)" fill="#0059ab"/>
      </g>
      <g id="Group_3626" data-name="Group 3626" transform="translate(10.379 6.044)">
        <path id="Path_3644" data-name="Path 3644" d="M3267.011,456.155h-7.259a.75.75,0,0,1-.749-.75V452.15a3.455,3.455,0,0,1,3.451-3.451h1.856a1.954,1.954,0,0,0,1.952-1.952v-.554a1.954,1.954,0,0,0-1.952-1.952h-1.856a1.955,1.955,0,0,0-1.952,1.952.749.749,0,0,1-1.5,0,3.455,3.455,0,0,1,3.451-3.451h1.856a3.455,3.455,0,0,1,3.451,3.451v.554a3.455,3.455,0,0,1-3.451,3.451h-1.856a1.955,1.955,0,0,0-1.952,1.952v2.507h6.509a.749.749,0,1,1,0,1.5Z" transform="translate(-3259.003 -442.742)" fill="#0059ab"/>
      </g>
      <g id="Group_3627" data-name="Group 3627" transform="translate(26.431 53.947)">
        <path id="Path_3645" data-name="Path 3645" d="M3317.032,612.059a1.879,1.879,0,0,1-1.334-.55l-2.035-2.034a.749.749,0,0,1,1.06-1.06l2.035,2.034a.39.39,0,0,0,.311.109.757.757,0,0,1,.127,0,.389.389,0,0,0,.312-.108l5.025-5.024a.749.749,0,0,1,1.06,1.059l-5.024,5.024a1.881,1.881,0,0,1-1.435.547Z" transform="translate(-3313.444 -605.206)" fill="#0059ab"/>
      </g>
    </g>
    <g id="Group_3639" data-name="Group 3639" transform="translate(3290.236 261.867)">
      <g id="Group_3629" data-name="Group 3629" transform="translate(0 2.542)">
        <path id="Path_3646" data-name="Path 3646" d="M3474.284,306.571c0-4.455,5.065-8.066,11.317-8.066,6.095,0,11.069,3.435,11.3,7.742,0,0,.007.008,0,.013h0c.007,0,0-.008,0-.012.484-4.132,5.342-7.377,11.265-7.377,6.228,0,11.277,3.581,11.317,8.012h0a33.923,33.923,0,0,0-67.836-.725c.3-4.267,5.25-7.661,11.311-7.661,6.256,0,11.323,3.615,11.323,8.075Z" transform="translate(-3450.902 -272.281)" fill="#2db5ff"/>
        <path id="Path_3647" data-name="Path 3647" d="M3517.7,305.84a.749.749,0,0,1-.749-.742h0c0-.016,0-.031,0-.047-.073-3.986-4.8-7.222-10.567-7.222-5.438,0-10.045,2.928-10.515,6.673a.791.791,0,0,1-.02.135h0a.752.752,0,0,1-.289.438h0c-.016.011-.032.022-.049.032a.749.749,0,0,1-1.141-.63c-.228-3.869-4.957-7.014-10.555-7.014-5.807,0-10.535,3.26-10.567,7.276v.041a.75.75,0,0,1-1.5,0h0a6.367,6.367,0,0,0-3-5.1,13.112,13.112,0,0,0-7.572-2.226c-5.65,0-10.29,3.059-10.563,6.963a.749.749,0,0,1-1.5-.073,35,35,0,0,1,34.659-33.855h0a34.94,34.94,0,0,1,34.673,34.6.749.749,0,0,1-.743.755Zm-33.886-9.876c5.257,0,9.725,2.429,11.379,5.865,1.78-3.262,6.114-5.5,11.19-5.5,4.288,0,8.073,1.653,10.214,4.132a33.335,33.335,0,0,0-32.821-28.474h0a33.508,33.508,0,0,0-32.739,27.989c2.156-2.428,5.9-4.021,10.14-4.021,5.185,0,9.617,2.4,11.323,5.763C3474.2,298.362,3478.628,295.964,3483.809,295.964Z" transform="translate(-3449.11 -270.489)" fill="#0059ab"/>
      </g>
      <g id="Group_3630" data-name="Group 3630" transform="translate(22.208 2.543)">
        <path id="Path_3648" data-name="Path 3648" d="M3525.184,303.352a.749.749,0,0,1-.749-.74,46.46,46.46,0,0,1,4.894-21.714,45.62,45.62,0,0,1,7-10.161.749.749,0,0,1,1.109,1.008,44.1,44.1,0,0,0-6.768,9.827,44.967,44.967,0,0,0-4.734,21.021.749.749,0,0,1-.739.759Z" transform="translate(-3524.43 -270.492)" fill="#0059ab"/>
      </g>
      <g id="Group_3631" data-name="Group 3631" transform="translate(33.909 2.543)">
        <path id="Path_3649" data-name="Path 3649" d="M3576.554,303.806h-.017a.749.749,0,0,1-.732-.766,45.671,45.671,0,0,0-4.727-21.469,44.109,44.109,0,0,0-6.768-9.827.749.749,0,0,1,1.109-1.008,45.644,45.644,0,0,1,7,10.161,47.186,47.186,0,0,1,4.887,22.176A.75.75,0,0,1,3576.554,303.806Z" transform="translate(-3564.115 -270.491)" fill="#0059ab"/>
      </g>
      <g id="Group_3632" data-name="Group 3632" transform="translate(33.918)">
        <line id="Line_95" data-name="Line 95" y2="2.544" transform="translate(0.749 0.749)" fill="#fff"/>
        <path id="Path_3650" data-name="Path 3650" d="M3564.893,265.91a.749.749,0,0,1-.749-.749v-2.544a.749.749,0,1,1,1.5,0v2.544A.749.749,0,0,1,3564.893,265.91Z" transform="translate(-3564.144 -261.867)" fill="#0059ab"/>
      </g>
      <g id="Group_3633" data-name="Group 3633" transform="translate(23.85 28.018)">
        <path id="Path_3651" data-name="Path 3651" d="M3530.748,407.526a.749.749,0,0,1,0-1.5,9.356,9.356,0,0,0,9.346-9.346V357.641a.749.749,0,0,1,1.5,0v39.041A10.857,10.857,0,0,1,3530.748,407.526Z" transform="translate(-3529.999 -356.892)" fill="#0059ab"/>
      </g>
      <g id="Group_3634" data-name="Group 3634" transform="translate(17.025 38.399)">
        <path id="Path_3652" data-name="Path 3652" d="M3543.161,411.523a16.884,16.884,0,1,1-16.884-16.884A16.884,16.884,0,0,1,3543.161,411.523Z" transform="translate(-3508.643 -393.89)" fill="#cff1ff"/>
        <path id="Path_3653" data-name="Path 3653" d="M3524.485,427.365a17.634,17.634,0,1,1,17.633-17.634A17.654,17.654,0,0,1,3524.485,427.365Zm0-33.769a16.135,16.135,0,1,0,16.135,16.134A16.153,16.153,0,0,0,3524.485,393.6Z" transform="translate(-3506.851 -392.098)" fill="#0059ab"/>
      </g>
      <path id="Path_3665" data-name="Path 3665" d="M6.726-12.926H2.444v2.606H6.726a2.2,2.2,0,0,0,1.212-.226,1.1,1.1,0,0,0,.3-.915v-.324a1.105,1.105,0,0,0-.3-.913A2.181,2.181,0,0,0,6.726-12.926ZM2.444-6.869H1.6v-6.8H6.452a4.423,4.423,0,0,1,2.148.345,1.405,1.405,0,0,1,.527,1.271v.817a1.354,1.354,0,0,1-.262.922,1.718,1.718,0,0,1-.933.434,1.216,1.216,0,0,1,.84.395,1.4,1.4,0,0,1,.283.929v1.684H8.209V-8.385a1.144,1.144,0,0,0-.29-.908,2.406,2.406,0,0,0-1.353-.242H2.444Zm13.821-6.039H11.454v5.281h4.811A1.919,1.919,0,0,0,17.6-7.994a1.726,1.726,0,0,0,.383-1.276v-1.986a1.805,1.805,0,0,0-.361-1.305A1.988,1.988,0,0,0,16.265-12.908Zm-.539-.758a8.222,8.222,0,0,1,1.509.1,2.182,2.182,0,0,1,.838.335,1.731,1.731,0,0,1,.6.781,3.487,3.487,0,0,1,.189,1.26v1.84a3.487,3.487,0,0,1-.189,1.26,1.731,1.731,0,0,1-.6.781,2.113,2.113,0,0,1-.838.338,8.4,8.4,0,0,1-1.509.1H10.61v-6.8Zm7.495.694a4.988,4.988,0,0,0-1.954.231.951.951,0,0,0-.411.911.993.993,0,0,0,.349.876,2.669,2.669,0,0,0,1.381.242h.945v-2.259Zm2.273,2.981h-1.31v2.374h.543a4.3,4.3,0,0,0,1.878-.267,1.059,1.059,0,0,0,.459-1,1.065,1.065,0,0,0-.294-.867,2.031,2.031,0,0,0-1.184-.237Zm1.319-1.739v-.114a1.013,1.013,0,0,0-.34-.9,3.914,3.914,0,0,0-1.737-.228h-.552v2.259h1.1a9.344,9.344,0,0,1,1.26.057,1.675,1.675,0,0,1,.6.2,1.157,1.157,0,0,1,.507.566A2.807,2.807,0,0,1,27.8-8.85a1.741,1.741,0,0,1-.616,1.531,4.074,4.074,0,0,1-2.209.431h-.794V-6.1h-.653v-.785h-.89a3.6,3.6,0,0,1-1.967-.406,1.5,1.5,0,0,1-.593-1.333q0-.1.014-.37,0-.082,0-.128l.812,0q0,.087-.007.169t0,.2a.943.943,0,0,0,.415.886,3.494,3.494,0,0,0,1.6.246h.616V-9.991h-.981a3.445,3.445,0,0,1-1.94-.4,1.6,1.6,0,0,1-.548-1.385,1.611,1.611,0,0,1,.63-1.458,4.576,4.576,0,0,1,2.323-.413h.516v-.644h.653v.644h.383a11.367,11.367,0,0,1,1.8.1,1.778,1.778,0,0,1,.8.324,1.145,1.145,0,0,1,.356.511,2.279,2.279,0,0,1,.114.771q0,.032,0,.1t0,.11Z" transform="translate(19.965 66.229)" fill="#0059ab"/>
    </g>
    <g id="Group_3648" data-name="Group 3648" transform="translate(3291.012 343.582)">
      <g id="Group_3642" data-name="Group 3642" transform="translate(0)">
        <g id="Group_3640" data-name="Group 3640" transform="translate(0 44.158)">
          <path id="Path_3657" data-name="Path 3657" d="M3483.248,703.259l-14.505,14.532a8.469,8.469,0,0,1-11.977-11.977l14.5-14.5" transform="translate(-3453.535 -690.562)" fill="#cff1ff"/>
          <path id="Path_3658" data-name="Path 3658" d="M3460.961,719.228h0a9.218,9.218,0,0,1-6.519-15.737l14.5-14.5a.749.749,0,0,1,1.06,1.06l-14.5,14.5a7.72,7.72,0,1,0,10.917,10.917l14.505-14.531a.749.749,0,1,1,1.061,1.059l-14.506,14.532A9.159,9.159,0,0,1,3460.961,719.228Z" transform="translate(-3451.743 -688.769)" fill="#0059ab"/>
        </g>
        <g id="Group_3641" data-name="Group 3641" transform="translate(13.378)">
          <path id="Path_3659" data-name="Path 3659" d="M3529.527,541.547a29.87,29.87,0,1,0,29.869,29.869A29.87,29.87,0,0,0,3529.527,541.547Z" transform="translate(-3498.907 -540.798)" fill="#fff"/>
          <path id="Path_3660" data-name="Path 3660" d="M3527.734,600.245h0a30.619,30.619,0,1,1,0-61.239h0a30.619,30.619,0,0,1,0,61.239Zm0-59.74a29.121,29.121,0,1,0,29.12,29.12,29.155,29.155,0,0,0-29.12-29.12Z" transform="translate(-3497.115 -539.006)" fill="#0059ab"/>
        </g>
      </g>
      <g id="Group_3647" data-name="Group 3647" transform="translate(22.631 8.248)">
        <g id="Group_3645" data-name="Group 3645">
          <g id="Group_3643" data-name="Group 3643">
            <path id="Path_3661" data-name="Path 3661" d="M3568.354,591.142a16.736,16.736,0,0,0-.294-3.07l4.213-3.414a21.187,21.187,0,0,0-4.693-8.128l-5.066,1.943a16.646,16.646,0,0,0-5.313-3.066l-.852-5.361a21.207,21.207,0,0,0-9.386,0l-.851,5.361a16.648,16.648,0,0,0-5.314,3.066l-5.066-1.943a21.221,21.221,0,0,0-4.693,8.128l4.213,3.414a16.152,16.152,0,0,0,0,6.14l-4.213,3.414a21.222,21.222,0,0,0,4.693,8.128l5.066-1.943a16.662,16.662,0,0,0,5.314,3.066l.851,5.361a21.219,21.219,0,0,0,9.386,0l.852-5.361a16.675,16.675,0,0,0,5.314-3.066l5.065,1.943a21.188,21.188,0,0,0,4.693-8.128l-4.213-3.414A16.738,16.738,0,0,0,3568.354,591.142Z" transform="translate(-3530.29 -568.771)" fill="#2db5ff"/>
            <path id="Path_3662" data-name="Path 3662" d="M3549.864,611.722a22.532,22.532,0,0,1-4.855-.543.749.749,0,0,1-.578-.614l-.781-4.927a17.322,17.322,0,0,1-4.786-2.76l-4.656,1.785a.749.749,0,0,1-.821-.194,21.974,21.974,0,0,1-4.855-8.408.75.75,0,0,1,.243-.807l3.872-3.138a17.322,17.322,0,0,1-.23-2.765,17.077,17.077,0,0,1,.229-2.765l-3.871-3.138a.749.749,0,0,1-.243-.807,21.974,21.974,0,0,1,4.855-8.409.75.75,0,0,1,.821-.193l4.656,1.785a17.3,17.3,0,0,1,4.786-2.76l.781-4.927a.75.75,0,0,1,.578-.614,21.963,21.963,0,0,1,9.711,0,.749.749,0,0,1,.577.614l.782,4.927a17.316,17.316,0,0,1,4.785,2.76l4.655-1.785a.75.75,0,0,1,.821.193,21.956,21.956,0,0,1,4.855,8.409.749.749,0,0,1-.243.807l-3.871,3.138a16.735,16.735,0,0,1,0,5.53l3.871,3.138a.75.75,0,0,1,.243.807,21.947,21.947,0,0,1-4.855,8.408.75.75,0,0,1-.821.194l-4.655-1.785a17.349,17.349,0,0,1-4.785,2.76l-.783,4.927a.749.749,0,0,1-.578.614A22.526,22.526,0,0,1,3549.864,611.722Zm-4.034-1.9a20.351,20.351,0,0,0,8.068,0l.77-4.851a.749.749,0,0,1,.49-.589,15.881,15.881,0,0,0,5.076-2.928.749.749,0,0,1,.756-.131l4.584,1.758a20.345,20.345,0,0,0,4.034-6.986L3565.8,593a.749.749,0,0,1-.264-.719,15.407,15.407,0,0,0,0-5.866.748.748,0,0,1,.264-.719l3.813-3.09a20.355,20.355,0,0,0-4.034-6.986l-4.584,1.758a.75.75,0,0,1-.756-.131,15.831,15.831,0,0,0-5.074-2.928.749.749,0,0,1-.491-.589l-.77-4.852a20.456,20.456,0,0,0-8.068,0l-.769,4.851a.749.749,0,0,1-.491.589,15.825,15.825,0,0,0-5.075,2.928.749.749,0,0,1-.756.131l-4.584-1.758a20.367,20.367,0,0,0-4.033,6.986l3.812,3.09a.75.75,0,0,1,.265.719,15.4,15.4,0,0,0,0,5.866.751.751,0,0,1-.265.719l-3.812,3.09a20.363,20.363,0,0,0,4.034,6.986l4.584-1.758a.748.748,0,0,1,.756.131,15.848,15.848,0,0,0,5.075,2.928.749.749,0,0,1,.491.589Z" transform="translate(-3528.498 -566.979)" fill="#0059ab"/>
          </g>
          <g id="Group_3644" data-name="Group 3644" transform="translate(6.685 7.69)">
            <circle id="Ellipse_254" data-name="Ellipse 254" cx="12.204" cy="12.204" r="12.204" transform="translate(0 23.755) rotate(-76.717)" fill="#fff"/>
            <path id="Path_3663" data-name="Path 3663" d="M3569.983,624.827a12.953,12.953,0,1,1,12.953-12.953A12.968,12.968,0,0,1,3569.983,624.827Zm0-24.408a11.455,11.455,0,1,0,11.455,11.455A11.468,11.468,0,0,0,3569.983,600.419Z" transform="translate(-3555.302 -597.192)" fill="#0059ab"/>
          </g>
        </g>
        <g id="Group_3646" data-name="Group 3646" transform="translate(15.216 17.921)">
          <path id="Path_3664" data-name="Path 3664" d="M3585.317,637.352a.749.749,0,0,1-.53-.22l-4.463-4.463a.749.749,0,1,1,1.06-1.06l3.934,3.933,7.564-7.565a.749.749,0,0,1,1.06,1.06l-8.095,8.095A.748.748,0,0,1,3585.317,637.352Z" transform="translate(-3580.104 -627.759)" fill="#0059ab"/>
        </g>
      </g>
    </g>
  </g>
</svg>
