<?xml version="1.0" encoding="UTF-8"?><svg id="Layer_2" xmlns="http://www.w3.org/2000/svg" viewBox="0 0 343.79 231.26"><g id="VECTOR_PARQUE"><path d="M12.14,110.98c18.52-32.26,52.89-41.08,78.26-47.59,41.51-10.65,125.82-17.03,164.7,28.89,15.22,17.98,29.38,50.92,57.75,54.14,5.91.67,11.6-.04,17.56,4.08,13.79,9.54,17.53,37.02,8.36,53.48-16.51,29.61-75.24,24.22-98.53,22.09-53.39-4.89-55.08-22.12-103.61-28.35-69.37-8.9-100.69,21.84-123.71.57-16.76-15.48-16.56-55.62-3.16-82.87.37-.75,1.23-2.44,2.38-4.45Z" fill="#e3e89c"/><path d="M10.68,113.04c31.66-9.88,58.17-10.73,75-10,50.19,2.18,86.95,21.59,108,33,19.1,10.35,32.09,20.18,53,36,26.45,20.01,46.95,38.52,61,52" fill="none" stroke="#e5d29c" stroke-miterlimit="10" stroke-width="20"/><path d="M44.09,22.66c.56-.43,1.21-.75,1.94-.95,1.85-.49,3.81-.39,5.56-1.22,1.29-.61,2.39-1.69,3.68-2.31,2.48-1.18,5.27-.5,7.71.55,3.32,1.43,6.46,3.6,8.57,6.77,2.12,3.18,3.1,7.47,2.04,11.39-1.54,5.72-6.95,9.31-12.17,10.38-5.67,1.17-11.8-.06-16.01-4.2-2.83-2.79-4.6-6.97-4.7-11.28-.07-3.29.86-7.23,3.37-9.13Z" fill="#2b6e53"/><path d="M96.83,42.91c0,6.67-5.64,12.07-12.6,12.07s-12.6-5.4-12.6-12.07,5.64-12.07,12.6-12.07,12.6,5.4,12.6,12.07Z" fill="#399350"/><path d="M84.08,47.96c-2.21.2-4.4.51-6.48,1.08-1.91.53-3.87,1.13-5.67,1.97,2.89-3.01,6.01-5.68,9.48-8,1.97-1.32,3.94-2.57,5.55-4.33,1.17-1.29,2.36-2.57,3.55-3.84-.33-.17-1.12-.82-1.47-.77-.34.05-1,.95-1.25,1.18-1.59,1.51-3.15,3.12-4.91,4.44-.68.51-4.4,3.38-4.94,2.39-.35-.64.11-2.66.5-4.12-.24.03-.48.07-.74.07-.31,0-.59-.04-.86-.09-.38,2.03-.73,5.27-1.59,6.5-1.74,2.49-4.65,3.83-6.42,6.31.1-3.08.14-6.16.28-9.24.11-2.49.48-4.99,1.44-7.3.91-2.18,2.09-4.23,2.97-6.43.11-.27.82-1.57.72-1.87-.04-.13-.91-.63-1.05-.6-.58.13-1.61,2.82-1.86,3.31-2.04,3.99-3.74,8.3-3.97,12.83-.54-3.36-1.04-6.85-2.19-10.07-.74-2.07-1.44-4.15-2.09-6.26-.15-.5-.29-1.8-.66-2.18-.28-.29-.87-.16-1.34-.16.95,4.98,2.57,9.8,3.34,14.8.42,2.68,1.04,5.43,1.04,8.15,0,2.04-.19,4.09-.36,6.12-4.15-1.86-8.97-3.4-12.56-6.24-1.9-1.5-3.15-3.36-4.2-5.51-.37-.75-.76-2.47-1.37-3-.34-.3-.84-.11-1.38-.04.73,2.2,1.5,4.41,2.46,6.52.6,1.32,1.28,2.37,2.47,3.24,1.25.91,7.55,4.78,9.71,5.68,2.11.88,4.05,2.85,4.56,5.28.75,3.58.16,7.75-.04,11.36-.16,2.87-.33,5.74-.52,8.61-.17,2.67.15,6.17-1.06,8.59h7.95c-.92-1.25-.82-3.18-.92-4.66-.15-2.09-.29-4.17-.42-6.26-.25-3.9-.57-7.82-.57-11.73,0-2.14.16-4.24.75-6.31.68-2.37,1.55-3.67,3.84-4.73,3.21-1.49,6.78-2.47,10.3-2.93-.01-.59-.02-1.19-.03-1.78Z" fill="#6a4a1d"/><circle cx="48.29" cy="43.99" r="9.17" fill="#2b6e53"/><path d="M78.73,28.68c1.46-1.32,3.38-2.14,5.35-2.15,3.48-.03,6.38,2.41,7.74,5.48,1.43,3.23-.16,7.16-2.95,9.16-2.74,1.97-6.74,1.96-9.47-.03-2.73-1.98-3.97-5.79-2.94-9,.43-1.34,1.23-2.53,2.27-3.46Z" fill="#2b6e53"/><path d="M84.82,15.54s8.22-2.6,11.96,5.14c2.73,5.65-.6,10.8-3.4,11.99-4.61,1.96-7.4-.6-7.4-.6,0,0-3.12,6.1-11,7.37-13.92,2.24-18.75-7.18-18.75-7.18,0,0-3.32,1.78-8.08.9-6.29-1.17-9.57-6.13-8.95-11.67.71-6.37,6.31-10.03,11.08-9.21,0,0,.2-4.47,5.85-6.24,1.38-.43,4.57-.66,6.15.04,0,0,3.5-6.49,12.52-4.8,12.33,2.3,10.03,14.26,10.03,14.26Z" fill="#399350"/><path d="M274.09,126.66c.56-.43,1.21-.75,1.94-.95,1.85-.49,3.81-.39,5.56-1.22,1.29-.61,2.39-1.69,3.68-2.31,2.48-1.18,5.27-.5,7.71.55,3.32,1.43,6.46,3.6,8.57,6.77,2.12,3.18,3.1,7.47,2.04,11.39-1.54,5.72-6.95,9.31-12.17,10.38-5.67,1.17-11.8-.06-16.01-4.2-2.83-2.79-4.6-6.97-4.7-11.28-.07-3.29.86-7.23,3.37-9.13Z" fill="#2b6e53"/><path d="M326.83,146.91c0,6.67-5.64,12.07-12.6,12.07s-12.6-5.4-12.6-12.07,5.64-12.07,12.6-12.07,12.6,5.4,12.6,12.07Z" fill="#399350"/><path d="M314.08,151.96c-2.21.2-4.4.51-6.48,1.08-1.91.53-3.87,1.13-5.67,1.97,2.89-3.01,6.01-5.68,9.48-8,1.97-1.32,3.94-2.57,5.55-4.33,1.17-1.29,2.36-2.57,3.55-3.84-.33-.17-1.12-.82-1.47-.77-.34.05-1,.95-1.25,1.18-1.59,1.51-3.15,3.12-4.91,4.44-.68.51-4.4,3.38-4.94,2.39-.35-.64.11-2.66.5-4.12-.24.03-.48.07-.74.07-.31,0-.59-.04-.86-.09-.38,2.03-.73,5.27-1.59,6.5-1.74,2.49-4.65,3.83-6.42,6.31.1-3.08.14-6.16.28-9.24.11-2.49.48-4.99,1.44-7.3.91-2.18,2.09-4.23,2.97-6.43.11-.27.82-1.57.72-1.87-.04-.13-.91-.63-1.05-.6-.58.13-1.61,2.82-1.86,3.31-2.04,3.99-3.74,8.3-3.97,12.83-.54-3.36-1.04-6.85-2.19-10.07-.74-2.07-1.44-4.15-2.09-6.26-.15-.5-.29-1.8-.66-2.18-.28-.29-.87-.16-1.34-.16.95,4.98,2.57,9.8,3.34,14.8.42,2.68,1.04,5.43,1.04,8.15,0,2.04-.19,4.09-.36,6.12-4.15-1.86-8.97-3.4-12.56-6.24-1.9-1.5-3.15-3.36-4.2-5.51-.37-.75-.76-2.47-1.37-3-.34-.3-.84-.11-1.38-.04.73,2.2,1.5,4.41,2.46,6.52.6,1.32,1.28,2.37,2.47,3.24,1.25.91,7.55,4.78,9.71,5.68,2.11.88,4.05,2.85,4.56,5.28.75,3.58.16,7.75-.04,11.36-.16,2.87-.33,5.74-.52,8.61-.17,2.67.15,6.17-1.06,8.59h7.95c-.92-1.25-.82-3.18-.92-4.66-.15-2.09-.29-4.17-.42-6.26-.25-3.9-.57-7.82-.57-11.73,0-2.14.16-4.24.75-6.31.68-2.37,1.55-3.67,3.84-4.73,3.21-1.49,6.78-2.47,10.3-2.93-.01-.59-.02-1.19-.03-1.78Z" fill="#6a4a1d"/><circle cx="278.29" cy="147.99" r="9.17" fill="#2b6e53"/><path d="M308.73,132.68c1.46-1.32,3.38-2.14,5.35-2.15,3.48-.03,6.38,2.41,7.74,5.48,1.43,3.23-.16,7.16-2.95,9.16-2.74,1.97-6.74,1.96-9.47-.03-2.73-1.98-3.97-5.79-2.94-9,.43-1.34,1.23-2.53,2.27-3.46Z" fill="#2b6e53"/><path d="M314.82,119.54s8.22-2.6,11.96,5.14c2.73,5.65-.6,10.8-3.4,11.99-4.61,1.96-7.4-.6-7.4-.6,0,0-3.12,6.1-11,7.37-13.92,2.24-18.75-7.18-18.75-7.18,0,0-3.32,1.78-8.08.9-6.29-1.17-9.57-6.13-8.95-11.67.71-6.37,6.31-10.03,11.08-9.21,0,0,.2-4.47,5.85-6.24,1.38-.43,4.57-.66,6.15.04,0,0,3.5-6.49,12.52-4.8,12.33,2.3,10.03,14.26,10.03,14.26Z" fill="#399350"/><path d="M181.09,21.66c.56-.43,1.21-.75,1.94-.95,1.85-.49,3.81-.39,5.56-1.22,1.29-.61,2.39-1.69,3.68-2.31,2.48-1.18,5.27-.5,7.71.55,3.32,1.43,6.46,3.6,8.57,6.77,2.12,3.18,3.1,7.47,2.04,11.39-1.54,5.72-6.95,9.31-12.17,10.38-5.67,1.17-11.8-.06-16.01-4.2-2.83-2.79-4.6-6.97-4.7-11.28-.07-3.29.86-7.23,3.37-9.13Z" fill="#2b6e53"/><path d="M233.83,41.91c0,6.67-5.64,12.07-12.6,12.07s-12.6-5.4-12.6-12.07,5.64-12.07,12.6-12.07,12.6,5.4,12.6,12.07Z" fill="#399350"/><path d="M221.08,46.96c-2.21.2-4.4.51-6.48,1.08-1.91.53-3.87,1.13-5.67,1.97,2.89-3.01,6.01-5.68,9.48-8,1.97-1.32,3.94-2.57,5.55-4.33,1.17-1.29,2.36-2.57,3.55-3.84-.33-.17-1.12-.82-1.47-.77-.34.05-1,.95-1.25,1.18-1.59,1.51-3.15,3.12-4.91,4.44-.68.51-4.4,3.38-4.94,2.39-.35-.64.11-2.66.5-4.12-.24.03-.48.07-.74.07-.31,0-.59-.04-.86-.09-.38,2.03-.73,5.27-1.59,6.5-1.74,2.49-4.65,3.83-6.42,6.31.1-3.08.14-6.16.28-9.24.11-2.49.48-4.99,1.44-7.3.91-2.18,2.09-4.23,2.97-6.43.11-.27.82-1.57.72-1.87-.04-.13-.91-.63-1.05-.6-.58.13-1.61,2.82-1.86,3.31-2.04,3.99-3.74,8.3-3.97,12.83-.54-3.36-1.04-6.85-2.19-10.07-.74-2.07-1.44-4.15-2.09-6.26-.15-.5-.29-1.8-.66-2.18-.28-.29-.87-.16-1.34-.16.95,4.98,2.57,9.8,3.34,14.8.42,2.68,1.04,5.43,1.04,8.15,0,2.04-.19,4.09-.36,6.12-4.15-1.86-8.97-3.4-12.56-6.24-1.9-1.5-3.15-3.36-4.2-5.51-.37-.75-.76-2.47-1.37-3-.34-.3-.84-.11-1.38-.04.73,2.2,1.5,4.41,2.46,6.52.6,1.32,1.28,2.37,2.47,3.24,1.25.91,7.55,4.78,9.71,5.68,2.11.88,4.05,2.85,4.56,5.28.75,3.58.16,7.75-.04,11.36-.16,2.87-.33,5.74-.52,8.61-.17,2.67.15,6.17-1.06,8.59h7.95c-.92-1.25-.82-3.18-.92-4.66-.15-2.09-.29-4.17-.42-6.26-.25-3.9-.57-7.82-.57-11.73,0-2.14.16-4.24.75-6.31.68-2.37,1.55-3.67,3.84-4.73,3.21-1.49,6.78-2.47,10.3-2.93-.01-.59-.02-1.19-.03-1.78Z" fill="#6a4a1d"/><circle cx="185.29" cy="42.99" r="9.17" fill="#2b6e53"/><path d="M215.73,27.68c1.46-1.32,3.38-2.14,5.35-2.15,3.48-.03,6.38,2.41,7.74,5.48,1.43,3.23-.16,7.16-2.95,9.16-2.74,1.97-6.74,1.96-9.47-.03-2.73-1.98-3.97-5.79-2.94-9,.43-1.34,1.23-2.53,2.27-3.46Z" fill="#2b6e53"/><path d="M221.82,14.54s8.22-2.6,11.96,5.14c2.73,5.65-.6,10.8-3.4,11.99-4.61,1.96-7.4-.6-7.4-.6,0,0-3.12,6.1-11,7.37-13.92,2.24-18.75-7.18-18.75-7.18,0,0-3.32,1.78-8.08.9-6.29-1.17-9.57-6.13-8.95-11.67.71-6.37,6.31-10.03,11.08-9.21,0,0,.2-4.47,5.85-6.24,1.38-.43,4.57-.66,6.15.04,0,0,3.5-6.49,12.52-4.8,12.33,2.3,10.03,14.26,10.03,14.26Z" fill="#399350"/><path d="M69.21,49.5c.35-.27.75-.47,1.21-.59,1.15-.3,2.37-.24,3.47-.76.81-.38,1.49-1.05,2.29-1.44,1.54-.74,3.29-.31,4.8.34,2.07.89,4.02,2.24,5.34,4.22,1.32,1.98,1.93,4.65,1.27,7.1-.96,3.57-4.33,5.8-7.59,6.47-3.53.73-7.35-.04-9.97-2.61-1.77-1.74-2.87-4.34-2.93-7.03-.05-2.05.53-4.51,2.1-5.69Z" fill="#2b6e53"/><path d="M102.08,62.12c0,4.15-3.52,7.52-7.85,7.52s-7.85-3.37-7.85-7.52,3.52-7.52,7.85-7.52,7.85,3.37,7.85,7.52Z" fill="#399350"/><path d="M94.14,65.26c-1.38.12-2.74.32-4.04.67-1.19.33-2.41.7-3.53,1.23,1.8-1.88,3.75-3.54,5.91-4.99,1.23-.82,2.46-1.6,3.46-2.7.73-.8,1.47-1.6,2.21-2.39-.2-.11-.7-.51-.92-.48-.21.03-.62.59-.78.74-.99.94-1.97,1.94-3.06,2.76-.42.32-2.74,2.11-3.08,1.49-.22-.4.07-1.65.31-2.57-.15.02-.3.05-.46.05-.19,0-.37-.02-.54-.05-.23,1.26-.46,3.29-.99,4.05-1.09,1.55-2.9,2.39-4,3.93.06-1.92.09-3.84.17-5.75.07-1.55.3-3.11.9-4.55.56-1.36,1.3-2.64,1.85-4.01.07-.17.51-.98.45-1.16-.03-.08-.57-.39-.65-.38-.36.08-1,1.76-1.16,2.06-1.27,2.49-2.33,5.17-2.47,7.99-.34-2.09-.65-4.27-1.37-6.27-.46-1.29-.9-2.59-1.3-3.9-.1-.31-.18-1.12-.41-1.36-.18-.18-.54-.1-.83-.1.59,3.1,1.6,6.1,2.08,9.23.26,1.67.65,3.38.65,5.08,0,1.27-.12,2.55-.22,3.81-2.59-1.16-5.59-2.12-7.83-3.89-1.18-.93-1.96-2.09-2.62-3.43-.23-.47-.47-1.54-.85-1.87-.21-.19-.52-.07-.86-.02.45,1.37.94,2.75,1.53,4.06.37.82.8,1.48,1.54,2.02.78.57,4.7,2.98,6.05,3.54,1.32.55,2.53,1.78,2.84,3.29.47,2.23.1,4.83-.02,7.08-.1,1.79-.21,3.58-.32,5.37-.11,1.66.09,3.84-.66,5.35h4.96c-.57-.78-.51-1.98-.58-2.9-.09-1.3-.18-2.6-.26-3.9-.16-2.43-.35-4.87-.35-7.31,0-1.34.1-2.64.47-3.93.42-1.48.97-2.29,2.39-2.95,2-.93,4.22-1.54,6.42-1.83,0-.37-.02-.74-.02-1.11Z" fill="#6a4a1d"/><circle cx="71.84" cy="62.79" r="5.72" fill="#2b6e53"/><path d="M90.81,53.25c.91-.82,2.11-1.33,3.33-1.34,2.17-.02,3.97,1.5,4.82,3.42.89,2.01-.1,4.46-1.84,5.71-1.71,1.23-4.2,1.22-5.9-.02-1.7-1.24-2.48-3.61-1.84-5.61.27-.83.77-1.57,1.42-2.16Z" fill="#2b6e53"/><path d="M94.6,45.06s5.12-1.62,7.45,3.2c1.7,3.52-.37,6.73-2.12,7.47-2.87,1.22-4.61-.37-4.61-.37,0,0-1.95,3.8-6.86,4.59-8.67,1.4-11.68-4.48-11.68-4.48,0,0-2.07,1.11-5.04.56-3.92-.73-5.96-3.82-5.58-7.27.44-3.97,3.93-6.25,6.91-5.74,0,0,.12-2.79,3.64-3.89.86-.27,2.85-.41,3.83.03,0,0,2.18-4.04,7.8-2.99,7.68,1.43,6.25,8.88,6.25,8.88Z" fill="#399350"/><circle cx="18.6" cy="159.82" r="6.6" fill="#2b6e53"/><polygon points="14.51 182.35 18.36 182.35 18.34 180.63 18.1 165.75 24.52 158.55 24.02 158.25 17.81 163.7 16.82 140.75 16.29 141.5 15.91 150.08 10.93 144.88 10.8 145.35 15.83 152.76 15.14 167.74 8.37 161.57 8.09 162.23 15.02 170.57 14.51 182.35" fill="#6a4a1d"/><ellipse cx="8.72" cy="158.91" rx="6.13" ry="5.87" fill="#399350"/><path d="M31.06,156.92c0,2.81-2.38,5.08-5.31,5.08s-5.31-2.28-5.31-5.08,2.38-5.08,5.31-5.08,5.31,2.28,5.31,5.08Z" fill="#2b6e53"/><path d="M25.77,147.11s4-1.27,5.82,2.5c1.33,2.75-.29,5.25-1.65,5.83-2.24.95-3.6-.29-3.6-.29,0,0-1.52,2.97-5.35,3.58-6.77,1.09-9.12-3.49-9.12-3.49,0,0-1.62.87-3.93.44-3.06-.57-4.65-2.98-4.35-5.67.34-3.1,3.07-4.88,5.39-4.48,0,0,.1-2.17,2.84-3.03.67-.21,2.22-.32,2.99.02,0,0,1.7-3.15,6.09-2.34,6,1.12,4.88,6.93,4.88,6.93Z" fill="#399350"/><circle cx="227.06" cy="55.02" r="9.68" fill="#2b6e53"/><polygon points="221.05 88.04 226.7 88.04 226.67 85.53 226.32 63.71 235.72 53.16 234.99 52.73 225.9 60.71 224.45 27.08 223.66 28.18 223.12 40.75 215.81 33.13 215.62 33.82 222.99 44.69 221.99 66.64 212.06 57.59 211.65 58.56 221.81 70.78 221.05 88.04" fill="#6a4a1d"/><ellipse cx="212.57" cy="53.69" rx="8.98" ry="8.6" fill="#399350"/><path d="M245.31,50.77c0,4.11-3.48,7.45-7.78,7.45s-7.78-3.34-7.78-7.45,3.48-7.45,7.78-7.45,7.78,3.34,7.78,7.45Z" fill="#2b6e53"/><path d="M237.56,36.41s5.86-1.86,8.53,3.66c1.95,4.03-.42,7.7-2.43,8.55-3.29,1.4-5.27-.42-5.27-.42,0,0-2.23,4.35-7.84,5.25-9.92,1.6-13.36-5.12-13.36-5.12,0,0-2.37,1.27-5.76.64-4.48-.83-6.82-4.37-6.38-8.31.5-4.54,4.5-7.15,7.9-6.57,0,0,.14-3.19,4.17-4.44.98-.31,3.26-.47,4.38.03,0,0,2.49-4.62,8.92-3.42,8.79,1.64,7.15,10.16,7.15,10.16Z" fill="#399350"/><circle cx="56.6" cy="64.82" r="6.6" fill="#2b6e53"/><polygon points="52.51 87.35 56.36 87.35 56.34 85.63 56.1 70.75 62.52 63.55 62.02 63.25 55.81 68.7 54.82 45.75 54.29 46.5 53.91 55.08 48.93 49.88 48.8 50.35 53.83 57.76 53.14 72.74 46.37 66.57 46.09 67.23 53.02 75.57 52.51 87.35" fill="#6a4a1d"/><ellipse cx="46.72" cy="63.91" rx="6.13" ry="5.87" fill="#399350"/><path d="M69.06,61.92c0,2.81-2.38,5.08-5.31,5.08s-5.31-2.28-5.31-5.08,2.38-5.08,5.31-5.08,5.31,2.28,5.31,5.08Z" fill="#2b6e53"/><path d="M63.77,52.11s4-1.27,5.82,2.5c1.33,2.75-.29,5.25-1.65,5.83-2.24.95-3.6-.29-3.6-.29,0,0-1.52,2.97-5.35,3.58-6.77,1.09-9.12-3.49-9.12-3.49,0,0-1.62.87-3.93.44-3.06-.57-4.65-2.98-4.35-5.67.34-3.1,3.07-4.88,5.39-4.48,0,0,.1-2.17,2.84-3.03.67-.21,2.22-.32,2.99.02,0,0,1.7-3.15,6.09-2.34,6,1.12,4.88,6.93,4.88,6.93Z" fill="#399350"/><ellipse cx="165.16" cy="121.98" rx="23.52" ry="1.24" fill="#c49c8b"/><path d="M178.99,111.16s-11.2-9.16-14.45-14.55" fill="none" stroke="#0c081c" stroke-miterlimit="10" stroke-width=".19"/><path d="M179.7,116.41c.26.57-.29,1.25-.1,1.84.1.31.38.54.68.65s.63.14.96.18c.45.05.9.13,1.31.32.41.19.78.51.94.93.07.19.13.42.31.5.25.1.5-.16.6-.41.27-.7.02-1.56-.58-2-.45-.33-1.07-.45-1.38-.92-.36-.52-.16-1.22.05-1.82-1.04.19-2.08.39-2.79.71Z" fill="#4f2627"/><path d="M169.94,112.96c-.38.4-.46.99-.55,1.54s-.25,1.14-.7,1.45c-.31.21-.71.25-1.01.47-.53.4-.53,1.2-.32,1.83s.59,1.21.64,1.87c.03.33.03.75.34.85.17.06.37-.03.49-.17s.16-.33.19-.51c.06-.4.03-.81-.09-1.2-.09-.29-.21-.63-.03-.87.12-.16.33-.21.53-.25.54-.13,1.07-.33,1.52-.65.45-.32.82-.78.97-1.32.17-.62.03-1.3-.25-1.88-.29-.58-.71-1.08-1.72-1.17Z" fill="#4f2627"/><path d="M171.28,111.78c-.61.25-1.32.26-1.93.03s-1.13-.72-1.41-1.32c.21.85.8,1.6,1.58,2,.37.19.8.31,1.2.2.4-.11.74-.5.57-.91Z" fill="#0c081c"/><path d="M183.26,113.51c0,.55-.06,1.03-.17,1.45-.34,1.35-1.2,2.11-2.34,2.5-1.38.48-3.6.09-5.09-.59-1.4-.64-3.04-.33-4.12-.52-1.02-.18-1.76-.71-1.88-1.79,0-.06-.01-.11-.02-.17-.06-1.19.47-2.53,1.88-2.72.95-.13,7.4-.3,7.4-.3l4.34,2.12Z" fill="#734b44"/><path d="M180.64,117.2c-.58.19-1.19.18-1.79.08l2.12-.8c-.82-.05-1.7-.12-2.31-.65,0,0-.01,0-.02.01-.78.62-1.85.73-2.77.35-.16-.07-.32-.13-.48-.19-.41-.15-.79-.37-1.12-.67-.3-.27-.6-.52-.98-.6.25.2.35.56.26.86h0c-.5-.04-1-.05-1.49-.1-.77-.07-1.56-.25-2.16-.73-.08-.06-.15-.13-.22-.2.12,1.08.85,1.6,1.88,1.79,1.08.19,2.72-.12,4.12.52.47.21,1.01.4,1.58.53.15.08.3.13.46.15.09,0,.17,0,.25,0,1.01.17,2.03.17,2.79-.09,1.15-.4,2-1.15,2.34-2.5-.62.98-1.37,1.89-2.45,2.24Z" fill="#6b413c"/><g opacity=".47"><ellipse cx="173.79" cy="112.31" rx=".99" ry=".44" fill="#4f2627"/><ellipse cx="177.49" cy="111.96" rx="1.22" ry=".35" fill="#4f2627"/><ellipse cx="175.72" cy="112.44" rx=".65" ry=".29" fill="#4f2627"/></g><path d="M171.02,112.44l-.95.17s-.82.94-.42,2.64c.36,1.58.19,1.77-.07,2.61-.17.52.66,2.76,1.49,3.91.67.92,1.29.5,1.21.02-.11-.6-.58-1.91-.45-2.82s2.67-1.1,2.18-3.9" fill="#734b44"/><path d="M178.04,115.67s-.57,1.26-1.37,1.45c-.54.13-.91,3.65-.45,4.93.23.63,1.19.81,1.21.08,0-.13-.09-.74.01-1.09.25-.88.3-2.3,1.61-2.92,1.04-.49,2.15-.65,2.6-1.76" fill="#734b44"/><path d="M185.79,109.23c-.54.3-1.73.33-1.73.33l-.74,3.18-4.22-1.63,1.07-2.39s-.26-1.94.94-2.9c.12-.1.26-.19.42-.26,1.77-.85,2.92.37,3.2,1.24,0,0,1.04-.11,1.63.07.22.06.38.17.4.33.14,1.01-.42,1.72-.96,2.02Z" fill="#734b44"/><path d="M186.35,106.88s-.01.03-.02.05c-.58-.05-1.17-.01-1.74.11-.32-.75-1.03-1.32-1.83-1.47-.56-.1-1.15,0-1.65.27.12-.1.26-.19.42-.26,1.77-.85,2.92.37,3.2,1.24,0,0,1.03-.11,1.63.07Z" fill="#996d60"/><path d="M180.5,106.7c-.33.92-.81,1.78-1.42,2.53-.16.2-.35.42-.37.68-.02.29.16.56.4.72.43.28,1.01.21,1.44-.06.43-.27.73-.72.94-1.19.25-.55.39-1.15.4-1.76,0-.38-.06-.79-.3-1.08-.25-.29-.86-.45-1.07.16Z" fill="#0c081c"/><path d="M185.68,106.79c.25-.1.53-.14.8-.12.11,0,.23.03.32.1.1.09.13.22.13.35,0,.2-.04.4-.14.59-.01.02-.03.05-.06.05-.02,0-.04,0-.05-.02-.37-.25-.69-.56-1-.94Z" fill="#0c081c"/><polygon points="179.15 110.77 178.58 111.39 183.29 114.2 183.73 112.66 179.15 110.77" fill="#eb406e"/><path d="M158.82,84.87l-4.2-2.19c.66-1.28.82-2.49.82-2.49l.84.4,1.96.93c-.28.59-.31,1.14-.24,1.61.16.98.77,1.69.82,1.74Z" fill="#f3a37c"/><path d="M158.01,83.13c-2.28-.89-2.51-2.68-2.51-2.68l.79.14,1.96.93c-.28.59-.32,1.14-.24,1.61Z" fill="#e68565"/><path d="M153.95,74.43c-.04-.76-.97-1.33-1.82-1.23s-1.52.75-1.77,1.48c-.24.73-.11,1.52.18,2.24.24.58.58,1.19.4,1.79-.12.43-.49.76-.85,1.06s-.75.6-.96,1-.15.95.26,1.2c.26.16.6.17.9.26s.6.36.49.62c-.04.09-.12.17-.15.26-.06.21.16.42.4.45.24.04.48-.05.7-.13.31-.11.62-.23.86-.42s.42-.49.36-.78c-.09-.45-.65-.73-.71-1.18-.03-.28.15-.55.38-.75.24-.19.52-.33.78-.5.83-.56,1.27-1.49,1.29-2.41s-.69-1.77-.76-2.96Z" fill="#072442"/><path d="M152.87,74.94c.14-.79.66-1.36,1.17-1.27.51.09.8.8.66,1.59-.14.79-.66,1.36-1.17,1.27-.51-.09-.8-.8-.66-1.59Z" fill="#057a87"/><path d="M161.54,78.62c-.34,2.43-1.43,4.15-2.48,4.08-2.12-.13-5.44-2.84-5.1-5.27.33-2.43,2.3-4.1,4.4-3.81,1.22.17,2.01.56,2.52,1.1.48.51.7,1.17.76,1.91.05.61,0,1.29-.1,1.98Z" fill="#f3a37c"/><path d="M161.63,76.64c-1.21.19-2.5-.07-3.54-.73-.27,1-.83,1.91-1.59,2.59-.32-.84-.38-1.53-.23-2.2.15-.66.54-1.28,1.11-1.64.82-.51,1.87-.44,2.8-.17.23.07.46.14.68.25.48.51.7,1.17.76,1.91Z" fill="#e68565"/><path d="M161.64,76.41c-1.19,0-2.83-.26-3.77-1.02-.19,1.42-.59,2.69-1.53,3.68-.36.38-.54,1.17-1.06,1.6-1.3-.58-2.99-3.18-1.7-5.9.25-.52.56-.92.91-1.24.96-.87,2.22-1.07,3.19-.97,2.87.3,4.02,2.23,3.98,3.58,0,.1,0,.19-.03.28Z" fill="#082e4c"/><path d="M161.67,76.12c-.6-1.28-1.71-2.33-3.04-2.81s-2.85-.4-4.13.2c.96-.87,2.22-1.07,3.19-.97,2.87.3,4.02,2.23,3.97,3.58Z" fill="#1d5a7a" isolation="isolate" opacity=".6"/><path d="M154.67,78.09c.22-.5.92-.67,1.56-.38.64.29.97.92.74,1.42s-.92.67-1.56.38c-.64-.29-.97-.92-.74-1.42Z" fill="#f3a37c"/><path d="M161.2,78.72s.21.7.61,1.09c.19.19-.53.63-.88.61l.27-1.7Z" fill="#f3a37c"/><path d="M159.78,121.17c-.05.25-.09.51-.12.78,2.14.03,4.07.02,6.23.02,0-.18,0-.37-.05-.55-.1-.41-.36-.8-.81-1.1-.57-.38-1.37-.8-2.16-.83-.88-.04-1.66.21-2.45.25-.38.46-.55.94-.65,1.42Z" fill="#86be57"/><path d="M159.78,121.17c-.05.25-.09.51-.12.78,2.14.03,4.07.02,6.23.02,0-.18,0-.37-.05-.55l-6.07-.25Z" fill="#488a3b"/><path d="M163.28,119.7c-.14.13-.25.32-.31.52" fill="none" stroke="#fff" stroke-linecap="round" stroke-miterlimit="10" stroke-width=".38"/><path d="M164.01,119.9c-.14.13-.25.32-.31.52" fill="none" stroke="#fff" stroke-linecap="round" stroke-miterlimit="10" stroke-width=".38"/><path d="M146.99,115.8c-.25.06-.5.15-.75.23.9,1.94,1.75,3.67,2.69,5.62.17-.07.33-.17.47-.28.33-.27.56-.67.64-1.21.1-.68.12-1.58-.19-2.3-.35-.8-.91-1.4-1.29-2.09-.58-.14-1.08-.09-1.57.03Z" fill="#86be57"/><path d="M146.99,115.8c-.25.06-.5.15-.75.23.9,1.94,1.75,3.67,2.69,5.62.17-.07.33-.17.47-.28l-2.41-5.57Z" fill="#488a3b"/><path d="M149.84,118.32c-.18-.07-.39-.09-.61-.06" fill="none" stroke="#fff" stroke-linecap="round" stroke-miterlimit="10" stroke-width=".38"/><path d="M149.97,119.06c-.18-.07-.39-.08-.61-.05" fill="none" stroke="#fff" stroke-linecap="round" stroke-miterlimit="10" stroke-width=".38"/><path d="M162.93,119.59l-2.52.21-.58-3.22h0s-2.08-11.5-2.08-11.5c0,0,0,.02,0,.05h0c-.06.43-.51,3.49-.96,5.51-.49,2.17-7.09,6.93-7.09,6.93l-1.67-1.88s4.61-4.75,5.12-5.92c.5-1.17.22-4.43-.2-8.53-.11-1.05-.1-1.94-.05-2.68.13-1.78.57-2.67.57-2.67l8.09,1.73c.09.33.17.75.25,1.23.91,5.69,1.13,20.74,1.13,20.74Z" fill="#98a2a4"/><path d="M161.8,98.86c-2.95.5-6,.4-8.91-.3.13-1.78.57-2.67.57-2.67l8.09,1.73c.09.33.17.75.25,1.23Z" fill="#7d8d91"/><path d="M160.42,101.34c-1.35,3.8-1.18,8.81-.58,15.24l-2.08-11.5s0,.02,0,.05v-.11s.41-2.63.41-2.63c0,0,.91-.44,2.25-1.04Z" fill="#7d8d91"/><path d="M153.3,90.2s-.6,2.56.48,5.65l1.57-5.63-2.05-.02Z" fill="#e68565"/><path d="M154.14,84.14c-1.07,2.12-1.14,4.59-1.19,6.96,1.25.28,2.52.46,3.81.55.1-1.71.14-3.43.03-5.14-.04-.69-.12-1.42-.51-1.99-.39-.57-1.18-.94-2.13-.38Z" fill="#d9590f"/><path d="M154.6,82.62s-1.12,2.04-1.23,3.77c-.11,1.74.83,5.61.83,5.61l-1.25,5.62s6.22,1.22,9.05,1.04c0,0-.84-4.03-.84-4.87,0-1.7.38-4.26.21-5.42-.14-.96-2.57-3.77-3.54-4.45-1.61-1.13-3.22-1.3-3.22-1.3Z" fill="#fa8f1f"/><path d="M162.34,95.89l-.69,1.51s-5.45-1.6-6.01-2.64c-.28-.51-.65-1.6-.95-2.56-.31-.98-.55-1.83-.55-1.83l3-.21s.14.66.31,1.36c.17.67.36,1.37.49,1.57.28.4,4.38,2.8,4.38,2.8Z" fill="#f3a37c"/><path d="M157.47,91.53c-.69.33-1.74.71-2.77.68-.31-.98-.55-1.83-.55-1.83l3-.21s.14.66.31,1.36Z" fill="#e68565"/><path d="M153.87,91.55c1.27.23,2.89-.05,4.14-.37-.26-1.45-.39-2.41-.6-3.62-.2-1.13-.47-2.31-1.29-3.1-.44-.42-1.09-.71-1.66-.51-.75.26-1.02,1.17-1.11,1.95-.2,1.75.18,3.72.53,5.65Z" fill="#ed7213"/><path d="M162.2,95.79c.65-.3,1.4-.34,2.07-.12.25.08.48.22.64.44.27.35.13.58,0,.84.15.43.29.8.34,1.11.03.19,0,.41-.11.56s-.35.21-.57.12c-.05.14-.18.25-.33.26-.14,0-.29-.08-.35-.21-.06.16-.22.28-.38.27-.16,0-.32-.13-.37-.29-.13.19-.42.17-.6.03-.24-.19-1.11-1.68-1.11-1.68,0,0,.46-1.19.78-1.34Z" fill="#f3a37c"/><ellipse cx="78.12" cy="171.99" rx="15.72" ry="1.06" fill="#c49c8b"/><path d="M77.41,131l-1.48.96-1.29.84c-.12-.22-.25-.44-.38-.66-.26-.44-.55-.87-.85-1.3-2.58-3.66-6.18-6.77-6.18-6.77l.89-1.47c3.79,2.25,6.91,5.2,8.25,6.93.69.89,1.04,1.46,1.04,1.46Z" fill="#b06a47"/><path d="M77.41,131l-1.48.96-1.67.19c-.26-.44-.55-.87-.85-1.3l2.96-1.31c.69.89,1.04,1.46,1.04,1.46Z" fill="#a3583c"/><path d="M68.12,122.62c-1.17-.82-2.43-1.63-3.81-1.99-.29-.07-.8-.15-.85.13-.12-.1-.36-.2-.53-.05-.11.1-.13.26-.06.45-.16-.07-.32,0-.36.14-.05.19.12.33.12.33,0,0-.21.06-.22.24-.02.17.04.32.25.43.84.47,1.55.71,2.39,1.12-.45.13-.83.17-1.28.3-.07.02-.16.05-.2.11-.06.08-.04.2.02.28s.15.12.25.15c.45.13.93-.04,1.39,0,.35.03.68.2,1.02.28.92.21,1.47-.4,1.47-.4,0,0,.36-1.04.41-1.52Z" fill="#b06a47"/><path d="M63.5,120.89c.02.2.23.31.41.38.59.24,1.19.47,1.8.76.22.62.64,1.17,1.18,1.54" fill="none" stroke="#852b22" stroke-linecap="round" stroke-miterlimit="10" stroke-width=".16"/><path d="M62.93,121.17c.05.26.24.37.38.43.72.3,1.45.61,2.17.91" fill="none" stroke="#852b22" stroke-linecap="round" stroke-miterlimit="10" stroke-width=".16"/><path d="M62.72,121.64c.05.26.24.37.38.43.72.3,1.45.61,2.17.91" fill="none" stroke="#852b22" stroke-linecap="round" stroke-miterlimit="10" stroke-width=".16"/><path d="M72.16,149.01l-.96,1.11s-4.57-3.5-4.48-4.84c.03-.44.58-1.24,1.11-1.9.73-.91,1.59-1.74,1.59-1.74l1.78,2.56.05.07s-.06.05-.16.14c-.28.25-.85.78-1.05,1.13-.04.07-.07.13-.07.18-.04.36,2.2,3.29,2.2,3.29Z" fill="#b06a47"/><path d="M71.2,144.2l-.11.21c-.28.25-.85.78-1.05,1.13l-2.21-2.16c.73-.91,1.59-1.74,1.59-1.74l1.78,2.56Z" fill="#a3583c"/><path d="M73.1,172.3l-6.54-.04c0-.15.02-.28.05-.42.4-1.56,2.97-2.12,2.97-2.12l2.54.14c.6.77.84,1.4.93,1.83.08.39.05.61.05.61Z" fill="#0994d5"/><path d="M73.1,172.3l-6.54-.04c0-.15.02-.28.05-.42l6.44-.15c.08.39.05.61.05.61Z" fill="#004785"/><path d="M69,169.97c.14.17.25.35.33.55" fill="none" stroke="#d3e7ed" stroke-linecap="round" stroke-miterlimit="10" stroke-width=".33"/><path d="M68.37,170.25c.14.17.25.35.33.55" fill="none" stroke="#d3e7ed" stroke-linecap="round" stroke-miterlimit="10" stroke-width=".33"/><path d="M67.77,170.52c.14.17.25.35.33.55" fill="none" stroke="#d3e7ed" stroke-linecap="round" stroke-miterlimit="10" stroke-width=".33"/><polygon points="75.75 158.6 75.23 160.26 73.18 166.73 72.15 169.97 69.44 169.85 70.17 166.28 71.83 158.23 72.16 156.72 75.75 158.6" fill="#b06a47"/><polygon points="75.75 158.6 75.23 160.26 71.83 158.23 72.16 156.72 75.75 158.6" fill="#a3583c"/><polygon points="73.18 166.73 72.15 169.97 69.44 169.85 70.17 166.28 73.18 166.73" fill="#d3e7ed"/><path d="M83.09,172.3l6.54-.04c0-.15-.02-.28-.05-.42-.4-1.56-2.97-2.12-2.97-2.12l-2.54.14c-.6.77-.84,1.4-.93,1.83-.08.39-.05.61-.05.61Z" fill="#0994d5"/><path d="M83.09,172.3l6.54-.04c0-.15-.02-.28-.05-.42l-6.44-.15c-.08.39-.05.61-.05.61Z" fill="#004785"/><path d="M87.19,169.97c-.14.17-.25.35-.33.55" fill="none" stroke="#d3e7ed" stroke-linecap="round" stroke-miterlimit="10" stroke-width=".33"/><path d="M87.83,170.25c-.14.17-.25.35-.33.55" fill="none" stroke="#d3e7ed" stroke-linecap="round" stroke-miterlimit="10" stroke-width=".33"/><path d="M88.42,170.52c-.14.17-.25.35-.33.55" fill="none" stroke="#d3e7ed" stroke-linecap="round" stroke-miterlimit="10" stroke-width=".33"/><polygon points="80.44 158.6 80.97 160.26 83.02 166.73 84.04 169.97 86.76 169.85 86.02 166.28 84.37 158.23 84.04 156.72 80.44 158.6" fill="#b06a47"/><polygon points="80.44 158.6 80.97 160.26 84.37 158.23 84.04 156.72 80.44 158.6" fill="#a3583c"/><polygon points="83.02 166.73 84.04 169.97 86.76 169.85 86.02 166.28 83.02 166.73" fill="#d3e7ed"/><polygon points="85.01 157.26 79.87 159.46 78.09 155.26 76.57 159.46 71.03 157.48 72.61 151.48 73.05 149.78 82.59 148.91 82.87 149.89 85.01 157.26" fill="#0a2c4b"/><path d="M82.87,149.89c-3.16,1.55-6.79,2.11-10.26,1.59l.44-1.69,9.54-.87.28.98Z" fill="#062140"/><path d="M78.41,154.96c.76-.71,1.47-1.47,2.12-2.28-.22,1.1-1.05,2.06-2.12,2.28Z" fill="#062140"/><path d="M78.66,155.33c.93-.1,1.84-.37,2.67-.8-.71.73-1.84,1.03-2.67.8Z" fill="#062140"/><path d="M70.9,136.15c.58-.09,1.1.2,1.17.64.07.44-.35.87-.93.96-.58.09-1.1-.2-1.17-.64s.35-.87.93-.96Z" fill="#a3583c"/><path d="M75.24,133.51c.33-.48.9-.67,1.26-.42.37.25.4.85.07,1.33-.33.48-.9.67-1.26.42-.37-.25-.4-.85-.07-1.33Z" fill="#a3583c"/><path d="M82.86,149.62s-6.38,2.02-10.33.85c0,0-.17-1.08.29-1.79,0,0,.22-1.45-.03-3.28-.03-.26-.08-.53-.14-.81l-2.02,1.57-2.34-3.72s2.15-2.58,3.5-3.59c.24-.18.54-.38.87-.59,1.35-.86,3.17-1.91,3.27-2.51.03-.17-.09-.48-.28-.85-.66-1.29-2.24-3.38-2.24-3.38l4.3-1.46s2.19,3.91,2.86,6.49c.69,2.64,1.48,6.19,1.94,9.54.17,1.22.29,2.41.34,3.52Z" fill="#057a87"/><path d="M76.38,139.43c-.71.54-1.59.45-2.37,0-.52-.29-.95-.71-1.34-1.17,1.35-.86,3.17-1.91,3.27-2.51.03-.17-.09-.48-.28-.85.58.5,1.14,1.21,1.28,1.95.17.87.25,1.96-.55,2.57Z" fill="#1fb0b5"/><path d="M75.74,135.7c1.28-.22,2.64.11,3.68.88-.44-.59-1.09-1.01-1.8-1.19-.71-.18-1.48-.09-1.89.31Z" fill="#046378"/><path d="M72.51,144.17c-.67-.8-1.18-1.74-1.47-2.74.07.55.16,1.11.41,1.61.25.5.68.93,1.07,1.13Z" fill="#046378"/><path d="M82.86,149.62s-6.38,2.02-10.33.85c0,0-.17-1.08.29-1.79,0,0,.22-1.45-.03-3.28,2.08,1.53,4.89,2.04,7.37,1.3-1.29.98-2.92,1.71-4.51,1.4,1.56.5,3.32.37,4.79-.36.8-.4,1.51-.96,2.09-1.65.16,1.22.29,2.41.34,3.52Z" fill="#046378" isolation="isolate" opacity=".42"/><path d="M73.05,137.91c.45.68,1.16,1.14,1.92,1.25.36.05.74.02,1.03-.21.32-.25.46-.68.53-1.09.13-.85-.03-1.76-.44-2.5-1.01.81-2.02,1.62-3.04,2.55Z" fill="#a3583c"/><ellipse cx="72.9" cy="134.68" rx="3.14" ry="3.82" transform="translate(-65.61 69.35) rotate(-36.32)" fill="#b06a47"/><path d="M70.58,136.65c-.25-.62-.39-1.28-.38-1.95.4-.1.7-.52.77-.97.18-.06.37-.12.52-.23s.26-.3.33-.51c.25.06.52.02.74-.09s.41-.31.57-.53c.41.16.9.1,1.33-.14.46.43.93.86,1.39,1.29-.16-.41-.32-.82-.54-1.2-.22-.38-.5-.73-.82-.99-.56,0-1.1.17-1.63.34-1.01.33-2.04.68-2.87,1.35-.19.15-.37.33-.44.56-.05.17-.04.35-.02.52.1.8.36,1.58,1.03,2.55Z" fill="#a3583c"/><path d="M76.03,132.99c0,.4.06.79.13,1.18-.46-.9-1.11-1.71-1.92-2.3-.32.35-.93.44-1.31.16-.2.58-.93.9-1.49.66.05.46-.44.9-.89.79.14.4-.19.89-.61.92.14,1.02.5,1.92,1,2.74-.27-.21-.54-.36-.81-.48-.2,0-.36-.08-.45-.23-.08-.14-.08-.33,0-.47-.34.05-.62-.13-.73-.38-.11-.25-.03-.57.18-.75-.28-.14-.47-.39-.49-.67-.03-.27.12-.56.35-.7-.09-.15-.15-.35-.15-.54,0-.14.02-.27.07-.4.13-.3.45-.52.78-.53-.18-.3-.11-.7.14-.93.25-.23.65-.27.94-.1.03-.42.2-.63.41-.74.21-.11.46-.12.7-.09s.46.12.68.21c.24-.24.62-.36.9-.25.28.1.48.36.61.64.38-.14.75-.11,1.01.07.26.18.41.52.37.84.3.07.54.26.66.51,0,0,0,0,0,.01.11.26.09.57-.06.81Z" fill="#372d33"/><path d="M76.09,132.16c-.24-.11-.5-.17-.77-.16-.1-.49-.69-.81-1.16-.63-.36-.54-1.13-.73-1.63-.39-.5-.2-1.12,0-1.41.45-.26-.18-.62-.18-.88,0-.26.18-.38.52-.31.83-.45.02-.87.29-1.11.67,0-.14.02-.27.07-.4.13-.3.45-.52.78-.53-.18-.3-.11-.7.14-.93.25-.23.65-.27.94-.1.03-.42.2-.63.41-.74.21-.11.46-.12.7-.09s.46.12.68.21c.24-.24.62-.36.9-.25.28.1.48.36.61.64.38-.14.75-.11,1.01.07.26.18.41.52.37.84.3.07.54.26.66.51Z" fill="#5c4f56" isolation="isolate" opacity=".5"/><path d="M72.73,144.29c-.4-1.35-.67-2.74-.79-4.14-.2,1.41.11,2.88.79,4.14Z" fill="#046378"/><path d="M71.46,148.76c.45-.24.82-.35,1.27-.69.13-.16.23-.32.37-.48s.33-.3.55-.3c.2,0,.39.1.57.21.22.14.43.3.64.46.11.09.22.21.18.34-.04.14-.28.05-.42.02-.14-.04-.26-.12-.38-.19-.13-.07-.26-.13-.4-.13s-.29.09-.31.26c.4-.16.98.24,1.42.62.07.06.15.13.2.21s.06.19.01.28c-.05.08-.17.12-.25.06.05.12,0,.26-.09.34s-.24.09-.35.02c.07.09,0,.24-.11.27-.11.04-.23,0-.34-.03-.25-.07-.49-.15-.72-.22-.29.37-.72.65-1.19.69-.47.04-.97-.21-1.16-.66.22-.3.43-.87.53-1.1Z" fill="#b06a47"/><path d="M74.39,149.71c-.35-.3-.81-.48-1.28-.5" fill="none" stroke="#852b22" stroke-linecap="round" stroke-miterlimit="10" stroke-width=".16"/><path d="M74.88,149.38c-.35-.47-.95-.74-1.54-.68" fill="none" stroke="#852b22" stroke-linecap="round" stroke-miterlimit="10" stroke-width=".16"/><ellipse cx="246.57" cy="132.61" rx="19.17" ry="1.52" fill="#61ab6e"/><path d="M233.08,99.08s-2.13,4.62-1.61,5.63c.52,1.01,3.18.99,3.18.99l.87-2.67" fill="#e68565"/><path d="M237.71,131.68c-.04.31-.1.62-.16.93-2.45-.79-4.65-1.54-7.13-2.37.06-.22.15-.42.27-.6.27-.43.71-.77,1.35-.94.8-.22,1.87-.38,2.78-.11,1.01.3,1.81.88,2.7,1.23.25.67.27,1.28.2,1.88Z" fill="#0994d5"/><path d="M237.71,131.68c-.04.31-.1.62-.16.93-2.45-.79-4.65-1.54-7.13-2.37.06-.22.15-.42.27-.6l7.02,2.05Z" fill="#004785"/><path d="M257.19,118.73c.3-.09.6-.16.92-.23.28,2.56.5,4.88.75,7.48-.22.03-.44.03-.66,0-.5-.07-1-.33-1.41-.84-.53-.64-1.11-1.55-1.24-2.49-.14-1.05.06-2.01.02-2.96.51-.51,1.06-.77,1.63-.95Z" fill="#0994d5"/><path d="M257.19,118.73c.3-.09.6-.16.92-.23.28,2.56.5,4.88.75,7.48-.22.03-.44.03-.66,0l-1-7.25Z" fill="#004785"/><path d="M256.56,118.93l-1.08,3.76s-5.97-.15-8.52-1.78c-2.54-1.63-3.7-8.65-3.7-8.65-4.34,5.74-5.57,17.97-5.57,17.97l-3.65-1.77c0-10.82,3.14-18.11,4.22-20.31.23-.46.36-.69.36-.69l9.64-1.77s.09.61.23,1.55c.42,2.85,1.35,8.76,1.96,10.17.81,1.87,6.1,1.51,6.1,1.51Z" fill="#062c4a"/><path d="M248.5,107.25c-1.52.51-3.07.95-4.66,1.19-1.85.27-3.77.24-5.57-.27.23-.46.36-.69.36-.69l9.64-1.77s.08.61.22,1.55Z" fill="#031f40"/><path d="M256.14,93.55s-4.38,5.59-5.34,5.73c-.36.06-.91-.08-1.44-.28-.87-.32-1.72-.78-1.72-.78v-4s1.01.47,1.87.76c.48.16.91.28,1.11.24.57-.12,4.51-3.58,4.51-3.58l1.02,1.9Z" fill="#f3a37c"/><path d="M249.51,94.99l-.15,4.02c-.87-.32-1.72-.78-1.72-.78v-4s1,.46,1.87.76Z" fill="#e68565"/><path d="M254.72,92.58c0-.76.45-1.56.8-1.91s.83-.6,1.32-.6,1.01.28,1.21.82c.25.16.52.34.64.61.13.27.05.66-.23.76.07.37-.21.76-.58.82-.02.38-.43.7-.8.61-.2.36-.88.67-1.34.13l-1.03-1.24Z" fill="#f3a37c"/><path d="M258.31,92.17c-.18-.27-.43-.48-.73-.61-.19-.08-.43-.12-.59,0s-.18.38-.09.57.25.32.42.45.34.25.45.42" fill="#f3a37c" stroke="#bf474f" stroke-linecap="round" stroke-miterlimit="10" stroke-width=".21"/><path d="M256.82,91.93c-.23-.07-.48.1-.56.33s-.01.48.12.68.32.35.51.5" fill="#f3a37c" stroke="#bf474f" stroke-linecap="round" stroke-miterlimit="10" stroke-width=".21"/><path d="M256.11,92.5c-.19,0-.36.14-.42.33s-.01.38.08.55.22.31.35.45" fill="#f3a37c" stroke="#bf474f" stroke-linecap="round" stroke-miterlimit="10" stroke-width=".21"/><path d="M257.97,91.03c-.18.42-.5.79-.9,1.03-.11.06-.24.12-.36.09-.15-.05-.23-.23-.21-.39.02-.16.12-.3.21-.43-.39.1-.82.06-1.18-.12" fill="#f3a37c" stroke="#bf474f" stroke-linecap="round" stroke-linejoin="round" stroke-width=".21"/><path d="M247.02,101.45l1.29,4.59c-2.98,1.78-7.1,2.96-9.96,2.22l-.57-2.4-1.12-4.71-.76,1.71-3.81-2.21s1.16-5.16,3.17-6.23,6.8-2.28,8.19-2.06c1.39.22,5.73,2.29,5.73,2.29l-.89,4.75-2.04-.61.75,2.67Z" fill="#eb406e"/><path d="M239.46,95.71c.86-.5,1.99-.51,2.87-.04.04-.63.09-1.27-.05-1.88s-.49-1.21-1.04-1.5c-.51-.26-1.11-.24-1.68-.19-.57.05-1.14.13-1.67.33s-1.03.55-1.31,1.05c-.31.54-.34,1.19-.23,1.8.12.61.38,1.18.64,1.74.48-.9,1.56-1.43,2.48-1.31Z" fill="#ffc7d1"/><path d="M248.32,106.03c-2.98,1.78-7.1,2.96-9.96,2.22l-.57-2.4c3.54.11,7.09-1.6,9.23-4.41l1.29,4.59Z" fill="#e0346a"/><path d="M241.18,92.95s-1.15,2.54-1.77,2.77c-.62.23-2.42-1.58-2.42-1.58,0,0,.12-.19.13-.65.01-.43-.07-1.1-.44-2.07l3.41-.51s.11.52.32,1.04c.18.45.44.89.78,1Z" fill="#f3a37c"/><path d="M240.4,91.95c-.9.8-2.06,1.35-3.28,1.54.01-.43-.07-1.1-.44-2.07l3.41-.51s.11.52.32,1.04Z" fill="#e68565"/><path d="M240.92,86.94c.65-.3,1.37-.13,1.61.39.24.51-.09,1.18-.74,1.48-.65.3-1.37.13-1.61-.39-.24-.51.09-1.18.74-1.48Z" fill="#e68565"/><path d="M233.64,88.97c-.78-2.41.28-4.88,2.37-5.52s4.42.79,5.21,3.2c.78,2.41-.02,4.88-1.79,5.45-2.08.68-5-.72-5.79-3.13Z" fill="#f3a37c"/><path d="M234.94,89.19c.13-.79.14-1.61.12-2.4.36.08.75.11,1.11,0s.68-.37.89-.66c.47.14.99.14,1.46,0,.19-.06.38-.14.51-.28s.2-.36.12-.49c.48,0,.96.13,1.44.38.28.24.51.55.67.89-.11-.61-.24-1.26-.69-1.68-.11-.1-.23-.18-.36-.24-.4-.2-.87-.21-1.32-.2-1.47.01-2.97.19-4.29.84-.24.12-.49.27-.59.51-.08.19-.06.4-.03.6.11.8.32,1.59.95,2.73Z" fill="#e68565"/><path d="M240.57,85.41c-.59-.24-1.19-.36-1.8-.39.09.1.26.43.05.61-.54.47-1.51.21-2.23-.04,0,.49-.17.71-.67.84-.47.12-.83,0-1.27-.16.23,1.32.38,2.53.46,3.75-.42-.05-.76-.08-1.09-.03-.51-.65-.86-1.18-1.06-1.78-.2-.6-.23-1.28.1-1.84,0-.74.18-1.47.53-2.13h0c.38-.73.96-1.36,1.66-1.78.41-.25.97-.41,1.36-.09.37-.18.74-.36,1.14-.46.4-.09.83-.1,1.2.07.37.17.67.53.79,1.05.43-.08.9.12,1.15.48.12.18.19.39.2.62.01.23-.03.48-.12.71.34.74.47,1.82.45,2.64-.24-.83-.46-1.53-.86-2.08Z" fill="#0b2d4d"/><path d="M241.09,84.14c-.12-.13-.26-.24-.41-.32-.49-.28-1.12-.31-1.64-.07-.2-.6-.76-.88-1.28-.87-.53,0-1.02.25-1.46.53-.12-.17-.29-.26-.47-.28s-.35.01-.53.07c-.65.19-1.25.57-1.72,1.06.38-.73.96-1.36,1.66-1.78.41-.25.97-.41,1.36-.09.37-.18.74-.36,1.14-.46.4-.09.83-.1,1.2.07.37.17.67.53.79,1.05.43-.08.9.12,1.15.48.13.18.19.39.2.62Z" fill="#164869"/><path d="M234.08,89.07c.72-.02,1.32.42,1.33.99.02.56-.55,1.04-1.27,1.06-.72.02-1.32-.42-1.33-.99-.02-.56.56-1.04,1.27-1.06Z" fill="#f3a37c"/><path d="M236.08,103c.27-.02.51.19.59.45.09.25.04.53-.04.78-.1.32-.28.64-.58.81-.29.17-.72.14-.92-.12.27-.73.58-1.45.95-1.92Z" fill="#e68565"/><path d="M232.82,104.81c.12-.86.4-1.69.82-2.44.15-.26.33-.53.6-.65.42-.17.89.05,1.28.27.32.18.65.37.81.7.16.33.03.82-.33.88.23.44-.07,1.06-.56,1.14.1.21.08.47-.04.66s-.36.31-.59.3c.12.27-.16.58-.45.6s-.56-.16-.78-.36c-.36-.33-.81-.72-.76-1.12Z" fill="#f3a37c"/><path d="M235.91,103.52c-.43-.22-.85-.43-1.28-.64" fill="none" stroke="#bf474f" stroke-linecap="round" stroke-miterlimit="10" stroke-width=".21"/><path d="M235.32,104.64c-.3-.29-.66-.5-1.06-.63" fill="none" stroke="#bf474f" stroke-linecap="round" stroke-miterlimit="10" stroke-width=".21"/><path d="M234.64,105.59c-.31-.22-.62-.45-.92-.67" fill="none" stroke="#bf474f" stroke-linecap="round" stroke-miterlimit="10" stroke-width=".21"/><path d="M255.89,93.8c-.29,2.65-1.89,5.07-4.06,6.68-2.17,1.61-4.88,2.44-7.59,2.65s-5.45-.17-8.1-.82" fill="none" stroke="#0a2c4b" stroke-linecap="round" stroke-miterlimit="10" stroke-width=".21"/><path d="M233.63,106.06c-.48.94-.52,2.01-.13,2.98.39.97,1.22,1.82,2.31,2.39" fill="none" stroke="#0a2c4b" stroke-linecap="round" stroke-miterlimit="10" stroke-width=".21"/><path d="M282.68,87.8c-.27-.91-1.22-1.45-2.14-1.68s-1.9-.23-2.8-.53c-1.6-.53-2.83-2.05-2.97-3.88-.13.17-.3.31-.29.49,0,1.09.41,2.18,1.14,3s1.77,1.34,2.86,1.46c.47.05.94.02,1.41.06.47.04.95.16,1.32.46.72.59.81,1.7,1.48,2.36-.14-.58.15-1.22,0-1.74Z" fill="#db8700"/><path d="M268.99,75.09c-.21.11-.42.23-.57.38-.39.73-.59,1.6-.39,2.41s.86,1.52,1.69,1.63c.57.07,1.13-.14,1.69-.28s1.21-.18,1.66.18l-.19-1.05c-.65-.15-1.31.05-1.97.17-.65.12-1.4.12-1.89-.33-.4-.37-.52-.96-.45-1.5s.32-1.03.41-1.61Z" fill="#db8700"/><path d="M275.97,73.83c.68,1.48,2.18,2.47,3.75,2.9.98.27,2,.36,2.94.72.94.36,1.84,1.09,2.01,2.09-.25.34-.5.68-.74,1.02-.12-1.21-1.16-2.14-2.27-2.64-1.11-.49-2.34-.68-3.47-1.12s-2.23-1.27-2.5-2.46c.15-.15.11-.3.28-.51Z" fill="#db8700"/><polygon points="275.98 73.83 274.7 82.77 270.92 78.44 268.32 75.45 269.59 68.07 274.2 72.22 275.98 73.83" fill="#fde004"/><path d="M275.98,73.83l-1.28,8.94-3.78-4.33c1.13-.7,2.05-1.85,2.56-3.09.41-1,.62-2.05.72-3.12l1.78,1.61Z" fill="#ebb800" isolation="isolate" opacity=".33"/><path d="M269.47,77.91c-.27,3.08-1.58,6.06-3.58,8.39-2,2.32-4.73,3.98-7.69,4.65" fill="none" stroke="#0a2c4b" stroke-linecap="round" stroke-miterlimit="10" stroke-width=".21"/><path d="M270.04,71.24s-.68,6.49-.55,6.63c.3.3,4.13,1.66,4.13,1.66" fill="none" stroke="#0a2c4b" stroke-linecap="round" stroke-miterlimit="10" stroke-width=".21"/></g></svg>