<?xml version="1.0" encoding="UTF-8"?><svg xmlns="http://www.w3.org/2000/svg" viewBox="0 0 349 260.93"><g isolation="isolate"><g id="Layer_2"><g id="VECTOR_METRO"><path d="M36.93,156.15c7.28-5.65,19.51-13.87,36.9-19.87,46.22-15.96,102.36-7.19,105.98,9.46,1.95,8.97-12.31,15.86-9.46,21.76,3.82,7.91,31.27-.56,75.7-3.78,46.59-3.38,55.1,3.12,58.67,6.62,12.03,11.81,14.33,35.22,4.73,49.2-10.98,16-34.76,15.62-65.29,15.14-33.24-.53-42.03-7.14-87.05-10.41-33.85-2.46-51.62-.37-52.04,2.84-.51,3.84,23.99,7.49,24.6,17.03.35,5.45-7.27,10.04-9.46,11.35C90.51,273.36,1.63,244.58.02,206.3c-.87-20.8,24.21-40.29,36.9-50.15Z" fill="#efb4c1"/><path d="M349,169.95v-42.08c-1.74-1.62-3.48-3.27-5.21-4.96-36.72-35.91-33.83-59.47-56.51-80.26-18.97-17.38-42.25-20.54-70.51-24.38-32.21-4.37-49.92,1.95-53.97,3.48-5.85,2.2-11.71,8.18-24.38,13.93-8.46,3.84-14.35,5.51-21.76,7.83-31.1,9.73-46.65,14.59-58.33,24.38-6.28,5.26-10.28,11.34-18.28,23.5-8.47,12.87-19.71,32.24-29.6,58.33l338.55,20.21Z" fill="#6daa6a" opacity=".5"/><rect x="10.76" y="149.86" width="338.24" height="50.36" fill="#4d4d4d"/><rect x="254.88" width="14.45" height="6.14" fill="#b59f86"/><rect x="254.88" width="14.45" height="1.36" fill="#fadcb9"/><rect x="246.47" y="5.18" width="92.99" height="164.76" fill="#363359"/><rect x="246.47" y="5.18" width="92.99" height="3.51" fill="#fadcb9"/><rect x="246.47" y="6.94" width="92.99" height="1.75" fill="#b59f86"/><rect x="281.67" y="14.45" width="22.14" height="124.43" fill="#fff" opacity=".35"/><rect x="310.24" y="14.45" width="22.14" height="124.43" fill="#fff" opacity=".35"/><rect x="253.55" y="14.45" width="22.14" height="124.43" fill="#fff" opacity=".35"/><g opacity=".42"><polygon points="253.55 67.37 275.69 45.24 275.69 61.52 253.55 83.66 253.55 67.37" fill="#fff"/><polygon points="303.81 17.11 303.81 33.39 281.67 55.53 281.67 39.25 303.81 17.11" fill="#fff"/><polygon points="322.76 14.45 310.24 26.96 310.24 14.45 322.76 14.45" fill="#fff"/><polygon points="298.06 138.88 303.81 133.13 303.81 138.88 298.06 138.88" fill="#fff"/><polygon points="332.38 104.56 332.38 120.84 314.34 138.88 310.24 138.88 310.24 126.7 332.38 104.56" fill="#fff"/><polygon points="275.69 14.45 275.69 29.57 253.55 51.71 253.55 30.42 269.52 14.45 275.69 14.45" fill="#fff"/><polygon points="290.81 14.45 281.67 23.59 281.67 14.45 290.81 14.45" fill="#fff"/><polygon points="253.55 91.48 275.69 69.34 275.69 77.48 253.55 99.62 253.55 91.48" fill="#fff"/><polygon points="281.67 63.36 303.81 41.22 303.81 49.36 281.67 71.5 281.67 63.36" fill="#fff"/><polygon points="332.38 14.45 332.38 20.79 310.24 42.93 310.24 34.79 330.58 14.45 332.38 14.45" fill="#fff"/><polygon points="281.67 136.62 303.81 114.48 303.81 122.62 287.55 138.88 281.67 138.88 281.67 136.62" fill="#fff"/><polygon points="332.38 85.91 332.38 94.06 310.24 116.19 310.24 108.05 332.38 85.91" fill="#fff"/><polygon points="253.55 131.87 275.69 109.73 275.69 126.02 262.83 138.88 253.55 138.88 253.55 131.87" fill="#fff"/><polygon points="281.67 103.75 303.81 81.61 303.81 97.9 281.67 120.04 281.67 103.75" fill="#fff"/><polygon points="332.38 53.04 332.38 69.33 310.24 91.47 310.24 75.18 332.38 53.04" fill="#fff"/></g><rect x="244.92" y="25.18" width="96.09" height="3.51" fill="#fadcb9"/><rect x="244.92" y="26.94" width="96.09" height="1.75" fill="#b59f86"/><rect x="244.92" y="39.46" width="96.09" height="3.51" fill="#fadcb9"/><rect x="244.92" y="41.22" width="96.09" height="1.75" fill="#b59f86"/><rect x="244.92" y="53.74" width="96.09" height="3.51" fill="#fadcb9"/><rect x="244.92" y="55.5" width="96.09" height="1.75" fill="#b59f86"/><rect x="244.92" y="68.03" width="96.09" height="3.51" fill="#fadcb9"/><rect x="244.92" y="69.78" width="96.09" height="1.75" fill="#b59f86"/><rect x="244.92" y="82.31" width="96.09" height="3.51" fill="#fadcb9"/><rect x="244.92" y="84.06" width="96.09" height="1.75" fill="#b59f86"/><rect x="244.92" y="96.59" width="96.09" height="3.51" fill="#fadcb9"/><rect x="244.92" y="98.34" width="96.09" height="1.75" fill="#b59f86"/><rect x="244.92" y="110.87" width="96.09" height="3.51" fill="#fadcb9"/><rect x="244.92" y="112.62" width="96.09" height="1.75" fill="#b59f86"/><rect x="244.92" y="125.15" width="96.09" height="3.51" fill="#fadcb9"/><rect x="244.92" y="126.9" width="96.09" height="1.75" fill="#b59f86"/><rect x="277.13" y="145.14" width="31.66" height="24.81" fill="#b59f86"/><rect x="268.39" y="145.14" width="1.88" height="24.81" fill="#b59f86"/><rect x="315.66" y="145.14" width="1.88" height="24.81" transform="translate(633.2 315.09) rotate(180)" fill="#b59f86"/><rect x="268.39" y="145.14" width="1.88" height="4.82" fill="#7d6e5d"/><rect x="315.66" y="145.14" width="1.88" height="4.82" transform="translate(633.2 295.09) rotate(180)" fill="#7d6e5d"/><rect x="277.13" y="145.14" width="31.66" height="4.82" fill="#7d6e5d"/><rect x="281.89" y="154.16" width="22.14" height="15.79" fill="#363359"/><rect x="253.55" y="149.95" width="11.07" height="14.17" fill="#fff" opacity=".35"/><rect x="321.31" y="149.95" width="11.07" height="14.17" fill="#fff" opacity=".35"/><rect x="266.17" y="144.06" width="53.58" height="3.51" fill="#fadcb9"/><rect x="266.17" y="145.82" width="53.58" height="1.75" fill="#b59f86"/><rect x="284.33" y="157.04" width="6.31" height="9.85" fill="#fff" opacity=".35"/><rect x="295.29" y="157.04" width="6.31" height="9.85" fill="#fff" opacity=".35"/><path d="M294.04,167.14h0c-.23,0-.42-.19-.42-.42v-6.39c0-.23.19-.42.42-.42h0c.23,0,.42.19.42.42v6.39c0,.23-.19.42-.42.42Z" fill="#24223b"/><path d="M291.8,167.14h0c-.23,0-.42-.19-.42-.42v-6.39c0-.23.19-.42.42-.42h0c.23,0,.42.19.42.42v6.39c0,.23-.19.42-.42.42Z" fill="#24223b"/><polygon points="264.61 149.95 264.61 154.62 255.12 164.12 253.55 164.12 253.55 157.8 261.39 149.95 264.61 149.95" fill="#fff" opacity=".45"/><polygon points="332.38 149.95 332.38 155.44 323.7 164.12 321.31 164.12 321.31 158.62 329.98 149.95 332.38 149.95" fill="#fff" opacity=".45"/><polygon points="301.6 159.66 301.6 166.89 295.29 166.89 295.29 165.97 301.6 159.66" fill="#fff" opacity=".45"/><polygon points="290.64 157.04 290.64 161.07 284.81 166.89 284.33 166.89 284.33 159.49 286.77 157.04 290.64 157.04" fill="#fff" opacity=".45"/><rect x="187.04" y="84.07" width="3.25" height="6.53" fill="#666"/><rect x="192.28" y="80.17" width="3.25" height="10.43" fill="#666"/><polygon points="135.42 95.72 135.42 150.92 190.62 95.72 135.42 95.72" fill="#d6d9cb"/><polygon points="135.42 150.92 135.42 169.08 211.21 169.08 211.21 95.72 190.62 95.72 135.42 150.92" fill="#c9ccbf"/><polygon points="212.04 95.56 134.59 95.56 138.2 88.83 208.43 88.83 212.04 95.56" fill="#666"/><rect x="141.34" y="117.67" width="9.83" height="12.27" fill="#fafafa"/><rect x="142.46" y="118.68" width="7.59" height="10.25" fill="#3f4551"/><rect x="140.1" y="129.94" width="12.19" height=".94" fill="#b0b3a7"/><polygon points="149.7 118.68 142.46 125.92 142.46 122.78 146.57 118.68 149.7 118.68" fill="#fff" opacity=".45"/><rect x="159.27" y="117.67" width="9.83" height="12.27" fill="#fafafa"/><rect x="160.4" y="118.68" width="7.59" height="10.25" fill="#3f4551"/><rect x="158.04" y="129.94" width="12.19" height=".94" fill="#b0b3a7"/><polygon points="167.63 118.68 160.4 125.92 160.4 122.78 164.5 118.68 167.63 118.68" fill="#fff" opacity=".45"/><rect x="177.21" y="117.67" width="9.83" height="12.27" fill="#fafafa"/><rect x="178.33" y="118.68" width="7.59" height="10.25" fill="#3f4551"/><rect x="175.97" y="129.94" width="12.19" height=".94" fill="#b0b3a7"/><polygon points="185.57 118.68 178.33 125.92 178.33 122.78 182.44 118.68 185.57 118.68" fill="#fff" opacity=".45"/><rect x="195.14" y="117.67" width="9.83" height="12.27" fill="#fafafa"/><rect x="196.27" y="118.68" width="7.59" height="10.25" fill="#3f4551"/><rect x="193.91" y="129.94" width="12.19" height=".94" fill="#b0b3a7"/><polygon points="203.5 118.68 196.27 125.92 196.27 122.78 200.37 118.68 203.5 118.68" fill="#fff" opacity=".45"/><rect x="141.34" y="101.43" width="9.83" height="12.27" fill="#fafafa"/><rect x="142.46" y="102.44" width="7.59" height="10.25" fill="#3f4551"/><rect x="140.1" y="113.7" width="12.19" height=".94" fill="#b0b3a7"/><polygon points="149.7 102.44 142.46 109.67 142.46 106.53 146.57 102.44 149.7 102.44" fill="#fff" opacity=".45"/><rect x="159.27" y="101.43" width="9.83" height="12.27" fill="#fafafa"/><rect x="160.4" y="102.44" width="7.59" height="10.25" fill="#3f4551"/><rect x="158.04" y="113.7" width="12.19" height=".94" fill="#b0b3a7"/><polygon points="167.63 102.44 160.4 109.67 160.4 106.53 164.5 102.44 167.63 102.44" fill="#fff" opacity=".45"/><rect x="177.21" y="101.43" width="9.83" height="12.27" fill="#fafafa"/><rect x="178.33" y="102.44" width="7.59" height="10.25" fill="#3f4551"/><rect x="175.97" y="113.7" width="12.19" height=".94" fill="#b0b3a7"/><polygon points="185.57 102.44 178.33 109.67 178.33 106.53 182.44 102.44 185.57 102.44" fill="#fff" opacity=".45"/><rect x="195.14" y="101.43" width="9.83" height="12.27" fill="#fafafa"/><rect x="196.27" y="102.44" width="7.59" height="10.25" fill="#3f4551"/><rect x="193.91" y="113.7" width="12.19" height=".94" fill="#b0b3a7"/><polygon points="203.5 102.44 196.27 109.67 196.27 106.53 200.37 102.44 203.5 102.44" fill="#fff" opacity=".45"/><rect x="141.34" y="133.92" width="9.83" height="12.27" fill="#fafafa"/><rect x="142.46" y="134.93" width="7.59" height="10.25" fill="#3f4551"/><rect x="140.1" y="146.19" width="12.19" height=".94" fill="#b0b3a7"/><polygon points="149.7 134.93 142.46 142.16 142.46 139.02 146.57 134.93 149.7 134.93" fill="#fff" opacity=".45"/><rect x="159.27" y="133.92" width="9.83" height="12.27" fill="#fafafa"/><rect x="160.4" y="134.93" width="7.59" height="10.25" fill="#3f4551"/><rect x="158.04" y="146.19" width="12.19" height=".94" fill="#b0b3a7"/><polygon points="167.63 134.93 160.4 142.16 160.4 139.02 164.5 134.93 167.63 134.93" fill="#fff" opacity=".45"/><rect x="177.21" y="133.92" width="9.83" height="12.27" fill="#fafafa"/><rect x="178.33" y="134.93" width="7.59" height="10.25" fill="#3f4551"/><rect x="175.97" y="146.19" width="12.19" height=".94" fill="#b0b3a7"/><polygon points="185.57 134.93 178.33 142.16 178.33 139.02 182.44 134.93 185.57 134.93" fill="#fff" opacity=".45"/><rect x="195.14" y="133.92" width="9.83" height="12.27" fill="#fafafa"/><rect x="196.27" y="134.93" width="7.59" height="10.25" fill="#3f4551"/><rect x="193.91" y="146.19" width="12.19" height=".94" fill="#b0b3a7"/><polygon points="203.5 134.93 196.27 142.16 196.27 139.02 200.37 134.93 203.5 134.93" fill="#fff" opacity=".45"/><rect x="141.34" y="151.53" width="23.96" height="12.27" fill="#fafafa"/><rect x="142.46" y="152.54" width="21.71" height="10.25" fill="#3f4551"/><rect x="140.1" y="163.8" width="26.35" height=".94" fill="#b0b3a7"/><polygon points="158.84 152.54 148.59 162.79 142.46 162.79 142.46 161.58 151.5 152.54 158.84 152.54" fill="#fff" opacity=".45"/><rect x="180.98" y="151.53" width="23.96" height="12.27" fill="#fafafa"/><rect x="182.1" y="152.54" width="21.71" height="10.25" fill="#3f4551"/><rect x="179.74" y="163.8" width="26.35" height=".94" fill="#b0b3a7"/><polygon points="198.48 152.54 188.23 162.79 182.1 162.79 182.1 161.58 191.14 152.54 198.48 152.54" fill="#fff" opacity=".45"/><rect x="168.72" y="153.29" width="9.19" height="15.79" fill="#fff"/><rect x="140.1" y="149.08" width="26.35" height="5.15" fill="#ff8787"/><path d="M140.1,154.23h26.35c0,1.42-1.15,2.57-2.57,2.57h-21.21c-1.42,0-2.57-1.15-2.57-2.57h0Z" fill="#fa6e6e"/><rect x="179.78" y="149.08" width="26.35" height="5.15" fill="#ff8787"/><path d="M179.78,154.23h26.35c0,1.42-1.15,2.57-2.57,2.57h-21.21c-1.42,0-2.57-1.15-2.57-2.57h0Z" fill="#fa6e6e"/><rect x="52.26" y="40.35" width="57.13" height="91.8" fill="#b0b3a7"/><rect x="52.26" y="40.35" width="57.13" height="2.82" fill="#4166bf"/><rect x="46.94" y="92.19" width="67.75" height="76.37" fill="#b0b3a7"/><rect x="46.94" y="92.19" width="67.75" height="3.52" fill="#4166bf"/><rect x="52.26" y="101.09" width="57.13" height="15.61" fill="#d6d9cb"/><rect x="54.08" y="102.87" width="5.05" height="12.06" fill="#3f4551"/><rect x="61" y="102.87" width="5.05" height="12.06" fill="#3f4551"/><rect x="67.92" y="102.87" width="5.05" height="12.06" fill="#3f4551"/><rect x="74.84" y="102.87" width="5.05" height="12.06" fill="#3f4551"/><rect x="81.76" y="102.87" width="5.05" height="12.06" fill="#3f4551"/><rect x="88.67" y="102.87" width="5.05" height="12.06" fill="#3f4551"/><rect x="95.59" y="102.87" width="5.05" height="12.06" fill="#3f4551"/><rect x="102.51" y="102.87" width="5.05" height="12.06" fill="#3f4551"/><rect x="52.26" y="69.44" width="57.13" height="15.61" fill="#d6d9cb"/><rect x="61" y="71.21" width="5.05" height="12.06" fill="#3f4551"/><rect x="67.92" y="71.21" width="5.05" height="12.06" fill="#3f4551"/><rect x="74.84" y="71.21" width="5.05" height="12.06" fill="#3f4551"/><rect x="81.76" y="71.21" width="5.05" height="12.06" fill="#3f4551"/><rect x="88.67" y="71.21" width="5.05" height="12.06" fill="#3f4551"/><rect x="95.59" y="71.21" width="5.05" height="12.06" fill="#3f4551"/><rect x="52.26" y="49.73" width="57.13" height="15.61" fill="#d6d9cb"/><rect x="61" y="51.5" width="5.05" height="12.06" fill="#3f4551"/><rect x="67.92" y="51.5" width="5.05" height="12.06" fill="#3f4551"/><rect x="74.84" y="51.5" width="5.05" height="12.06" fill="#3f4551"/><rect x="81.76" y="51.5" width="5.05" height="12.06" fill="#3f4551"/><rect x="88.67" y="51.5" width="5.05" height="12.06" fill="#3f4551"/><rect x="95.59" y="51.5" width="5.05" height="12.06" fill="#3f4551"/><rect x="46.94" y="119.98" width="67.75" height="15.61" fill="#d6d9cb"/><rect x="54.08" y="121.75" width="5.05" height="12.07" fill="#3f4551"/><rect x="61" y="121.75" width="5.05" height="12.07" fill="#3f4551"/><rect x="67.92" y="121.75" width="5.05" height="12.07" fill="#3f4551"/><rect x="74.84" y="121.75" width="5.05" height="12.07" fill="#3f4551"/><rect x="81.76" y="121.75" width="5.05" height="12.07" fill="#3f4551"/><rect x="88.67" y="121.75" width="5.05" height="12.07" fill="#3f4551"/><rect x="95.59" y="121.75" width="5.05" height="12.07" fill="#3f4551"/><rect x="102.51" y="121.75" width="5.05" height="12.07" fill="#3f4551"/><rect x="52.26" y="138.87" width="57.13" height="15.61" fill="#d6d9cb"/><rect x="54.08" y="140.64" width="5.05" height="12.07" fill="#3f4551"/><rect x="61" y="140.64" width="5.05" height="12.07" fill="#3f4551"/><rect x="67.92" y="140.64" width="5.05" height="12.07" fill="#3f4551"/><rect x="74.84" y="140.64" width="5.05" height="12.07" fill="#3f4551"/><rect x="81.76" y="140.64" width="5.05" height="12.07" fill="#3f4551"/><rect x="88.67" y="140.64" width="5.05" height="12.07" fill="#3f4551"/><rect x="95.59" y="140.64" width="5.05" height="12.07" fill="#3f4551"/><rect x="102.51" y="140.64" width="5.05" height="12.07" fill="#3f4551"/><rect x="31" y="166.24" width="15.94" height="2.32" fill="#a6a89d"/><rect x="33.99" y="163.92" width="12.95" height="2.32" fill="#bfc2b5"/><rect x="37.09" y="161.6" width="9.85" height="2.32" fill="#d6d9cb"/><rect x="34.99" y="148.11" width="1.11" height="20.46" fill="#363359"/><rect x="31.67" y="147.13" width="15.28" height="1.95" fill="#4166bf"/><g opacity=".21"><polygon points="54.08 121.75 57.35 121.75 54.08 125.01 54.08 121.75" fill="#fff"/><polygon points="54.08 113.27 59.13 108.23 59.13 114.93 54.08 114.93 54.08 113.27" fill="#fff"/><polygon points="66.05 102.87 66.05 113.04 64.17 114.93 61 114.93 61 106.36 64.49 102.87 66.05 102.87" fill="#fff"/><polygon points="67.92 102.87 72.97 102.87 72.97 106.13 67.92 111.17 67.92 102.87" fill="#fff"/><polygon points="76.23 102.87 74.84 104.26 74.84 102.87 76.23 102.87" fill="#fff"/><polygon points="57.48 140.64 59.13 140.64 59.13 144.86 54.08 149.91 54.08 144.04 57.48 140.64" fill="#fff"/><polygon points="61 140.64 63.35 140.64 61 142.99 61 140.64" fill="#fff"/><polygon points="64.3 133.82 66.05 132.07 66.05 133.82 64.3 133.82" fill="#fff"/><polygon points="67.92 130.2 72.97 125.15 72.97 131.02 70.17 133.82 67.92 133.82 67.92 130.2" fill="#fff"/><polygon points="79.88 121.75 79.88 124.11 74.84 129.16 74.84 123.28 76.37 121.75 79.88 121.75" fill="#fff"/><polygon points="81.76 121.75 82.24 121.75 81.76 122.23 81.76 121.75" fill="#fff"/><polygon points="83.19 114.93 86.81 111.31 86.81 114.93 83.19 114.93" fill="#fff"/><polygon points="93.72 104.4 93.72 110.27 89.06 114.93 88.67 114.93 88.67 109.45 93.72 104.4" fill="#fff"/><polygon points="100.64 102.87 100.64 103.35 95.59 108.4 95.59 102.87 100.64 102.87" fill="#fff"/><polygon points="92.68 152.71 93.72 151.67 93.72 152.71 92.68 152.71" fill="#fff"/><polygon points="95.59 149.8 100.64 144.75 100.64 150.62 98.55 152.71 95.59 152.71 95.59 149.8" fill="#fff"/><polygon points="107.56 140.64 107.56 143.71 102.51 148.76 102.51 142.89 104.75 140.64 107.56 140.64" fill="#fff"/><polygon points="54.08 128.69 59.13 123.64 59.13 130.92 56.24 133.82 54.08 133.82 54.08 128.69" fill="#fff"/><polygon points="66.05 121.75 66.05 124 61 129.06 61 121.78 61.03 121.75 66.05 121.75" fill="#fff"/><polygon points="67.92 121.75 68.31 121.75 67.92 122.13 67.92 121.75" fill="#fff"/><polygon points="67.92 114.85 72.97 109.81 72.97 114.93 67.92 114.93 67.92 114.85" fill="#fff"/><polygon points="79.88 102.89 79.88 110.17 75.13 114.93 74.84 114.93 74.84 107.94 79.88 102.89" fill="#fff"/><polygon points="86.81 102.87 86.81 103.25 81.76 108.3 81.76 102.87 86.81 102.87" fill="#fff"/><polygon points="64.89 152.71 66.05 151.54 66.05 152.71 64.89 152.71" fill="#fff"/><polygon points="67.92 149.67 72.97 144.63 72.97 152.71 67.92 152.71 67.92 149.67" fill="#fff"/><polygon points="76.95 140.64 79.88 140.64 79.88 152.71 74.84 152.71 74.84 142.76 76.95 140.64" fill="#fff"/><polygon points="83.78 133.82 86.81 130.79 86.81 133.82 83.78 133.82" fill="#fff"/><polygon points="81.76 140.64 86.81 140.64 86.81 150.43 84.52 152.71 81.76 152.71 81.76 140.64" fill="#fff"/><polygon points="88.67 128.92 93.72 123.88 93.72 133.82 88.67 133.82 88.67 128.92" fill="#fff"/><polygon points="88.67 140.64 93.72 140.64 93.72 143.51 88.67 148.56 88.67 140.64" fill="#fff"/><polygon points="95.59 140.64 96.59 140.64 95.59 141.64 95.59 140.64" fill="#fff"/><polygon points="95.85 121.75 100.64 121.75 100.64 133.82 95.59 133.82 95.59 122.01 95.85 121.75" fill="#fff"/><polygon points="107.56 110.04 107.56 114.93 102.67 114.93 107.56 110.04" fill="#fff"/><polygon points="102.51 121.75 107.56 121.75 107.56 129.67 103.41 133.82 102.51 133.82 102.51 121.75" fill="#fff"/></g><g opacity=".3"><polygon points="61 58.79 66.05 53.73 66.05 63.56 61 63.56 61 58.79" fill="#fff"/><polygon points="72.97 51.5 72.97 56.67 67.92 61.72 67.92 51.86 68.29 51.5 72.97 51.5" fill="#fff"/><polygon points="78.14 51.5 74.84 54.81 74.84 51.5 78.14 51.5" fill="#fff"/><polygon points="63.66 71.21 66.05 71.21 66.05 83.27 61 83.27 61 73.86 63.66 71.21" fill="#fff"/><polygon points="71.3 63.56 72.97 61.89 72.97 63.56 71.3 63.56" fill="#fff"/><polygon points="67.92 71.21 72.97 71.21 72.97 77.69 67.92 82.74 67.92 71.21" fill="#fff"/><polygon points="74.84 71.21 79.45 71.21 74.84 75.82 74.84 71.21" fill="#fff"/><polygon points="74.84 60.03 79.88 54.98 79.88 63.56 74.84 63.56 74.84 60.03" fill="#fff"/><polygon points="83.36 51.5 86.81 51.5 86.81 63.56 81.76 63.56 81.76 53.11 83.36 51.5" fill="#fff"/><polygon points="88.67 51.5 93.72 51.5 93.72 56.95 88.67 61.99 88.67 51.5" fill="#fff"/><polygon points="99.17 51.5 95.59 55.08 95.59 51.5 99.17 51.5" fill="#fff"/><polygon points="81.76 82.3 86.81 77.25 86.81 83.27 81.76 83.27 81.76 82.3" fill="#fff"/><polygon points="93.72 71.21 93.72 76.74 88.67 81.79 88.67 75.39 92.85 71.21 93.72 71.21" fill="#fff"/><polygon points="95.59 71.21 99.25 71.21 95.59 74.87 95.59 71.21" fill="#fff"/><polygon points="100.64 63.42 100.64 63.56 100.5 63.56 100.64 63.42" fill="#fff"/></g><path d="M124.29,168.57h-13.08v-19.04c0-3.61,2.93-6.54,6.54-6.54h0c3.61,0,6.54,2.93,6.54,6.54v19.04Z" fill="#00877d"/><path d="M225.62,169.95h-13.08v-19.04c0-3.61,2.93-6.54,6.54-6.54h0c3.61,0,6.54,2.93,6.54,6.54v19.04Z" fill="#00877d"/><path d="M135.23,169.08h-13.08v-7.39c0-3.61,2.93-6.54,6.54-6.54h0c3.61,0,6.54,2.93,6.54,6.54v7.39Z" fill="#00a498"/><path d="M115.01,169.08h-13.08v-7.39c0-3.61,2.93-6.54,6.54-6.54h0c3.61,0,6.54,2.93,6.54,6.54v7.39Z" fill="#00a498"/><path d="M246.9,169.08h-13.08v-7.39c0-3.61,2.93-6.54,6.54-6.54h0c3.61,0,6.54,2.93,6.54,6.54v7.39Z" fill="#00a498"/><rect x="113.17" y="141.92" width="2.62" height=".89" fill="#3f4149"/><rect x="106.25" y="141.92" width="2.62" height=".89" fill="#3f4149"/><rect x="99.32" y="141.92" width="2.62" height=".89" fill="#3f4149"/><rect x="92.4" y="141.92" width="2.62" height=".89" fill="#3f4149"/><rect x="85.47" y="141.92" width="2.62" height=".89" fill="#3f4149"/><rect x="78.54" y="141.92" width="2.62" height=".89" fill="#3f4149"/><rect x="71.62" y="141.92" width="2.62" height=".89" fill="#3f4149"/><rect x="64.69" y="141.92" width="2.62" height=".89" fill="#3f4149"/><rect x="57.77" y="141.92" width="2.62" height=".89" fill="#3f4149"/><rect x="50.84" y="141.92" width="2.62" height=".89" fill="#3f4149"/><rect x="182.43" y="141.92" width="2.62" height=".89" fill="#3f4149"/><rect x="175.51" y="141.92" width="2.62" height=".89" fill="#3f4149"/><rect x="168.58" y="141.92" width="2.62" height=".89" fill="#3f4149"/><rect x="161.66" y="141.92" width="2.62" height=".89" fill="#3f4149"/><rect x="154.73" y="141.92" width="2.62" height=".89" fill="#3f4149"/><rect x="147.8" y="141.92" width="2.62" height=".89" fill="#3f4149"/><rect x="140.88" y="141.92" width="2.62" height=".89" fill="#3f4149"/><rect x="133.95" y="141.92" width="2.62" height=".89" fill="#3f4149"/><rect x="127.03" y="141.92" width="2.62" height=".89" fill="#3f4149"/><rect x="120.1" y="141.92" width="2.62" height=".89" fill="#3f4149"/><rect x="189.8" y="141.92" width="2.62" height=".89" fill="#3f4149"/><rect x="259.06" y="141.92" width="2.62" height=".89" fill="#3f4149"/><rect x="252.13" y="141.92" width="2.62" height=".89" fill="#3f4149"/><rect x="245.21" y="141.92" width="2.62" height=".89" fill="#3f4149"/><rect x="238.28" y="141.92" width="2.62" height=".89" fill="#3f4149"/><rect x="231.35" y="141.92" width="2.62" height=".89" fill="#3f4149"/><rect x="224.43" y="141.92" width="2.62" height=".89" fill="#3f4149"/><rect x="217.5" y="141.92" width="2.62" height=".89" fill="#3f4149"/><rect x="210.58" y="141.92" width="2.62" height=".89" fill="#3f4149"/><rect x="203.65" y="141.92" width="2.62" height=".89" fill="#3f4149"/><rect x="196.72" y="141.92" width="2.62" height=".89" fill="#3f4149"/><rect x="43.91" y="141.92" width="2.62" height=".89" fill="#3f4149"/><rect x="36.99" y="141.92" width="2.62" height=".89" fill="#3f4149"/><rect x="30.06" y="141.92" width="2.62" height=".89" fill="#3f4149"/><rect x="23.14" y="141.92" width="2.62" height=".89" fill="#3f4149"/><rect x="16.21" y="141.92" width="2.62" height=".89" fill="#3f4149"/><rect x="9.28" y="141.92" width="2.62" height=".89" fill="#3f4149"/><polygon points="141.35 138.78 141.35 140.3 140.74 140.3 140.74 136.64 141.35 136.64 141.35 138.47 147.45 138.47 147.45 138.78 141.35 138.78" fill="#242426"/><path d="M195.87,138.67c0,1.49,1.2,2.69,2.69,2.69s2.69-1.2,2.69-2.69-1.2-2.69-2.69-2.69-2.69,1.2-2.69,2.69Z" fill="#242426"/><path d="M188.95,138.67c0,1.49,1.2,2.69,2.69,2.69s2.69-1.2,2.69-2.69-1.2-2.69-2.69-2.69-2.69,1.2-2.69,2.69Z" fill="#242426"/><path d="M151.68,138.67c0,1.49,1.2,2.69,2.69,2.69s2.69-1.2,2.69-2.69-1.2-2.69-2.69-2.69-2.69,1.2-2.69,2.69Z" fill="#242426"/><path d="M144.77,138.67c0,1.49,1.2,2.69,2.69,2.69s2.69-1.2,2.69-2.69-1.2-2.69-2.69-2.69-2.69,1.2-2.69,2.69Z" fill="#242426"/><path d="M141.96,137.42h61.65c6.07,0,9.53-1.39,11.47-2.81,1.63-1.19,1.35-3.74-.18-5.06-2.82-2.42-7.55-6.33-12.54-8.55-7.42-3.31-12.72-3.26-12.72-3.26h-47.68v19.68Z" fill="#fff"/><path d="M216.16,131.39c.3,1.17-.05,2.4-1.13,3.18-1.94,1.39-5.33,2.69-11.38,2.69h-61.69v-3.62c56.11,0,71.41.62,74.2-2.24Z" fill="#e6e7e9"/><path d="M193.85,121.7h9.97c3.43,1.83,6.72,4.27,9.36,6.4l-15.67-.3-3.65-6.1Z" fill="#1e212a"/><polygon points="191.74 121.7 195.39 127.8 185.56 127.8 185.56 121.7 191.74 121.7" fill="#1e212a"/><path d="M199.92,119.99l-57.96-.12v-2.13h47.64s5.05-.01,10.32,2.26Z" fill="#ec1c2c"/><rect x="151.3" y="121.57" width="22.38" height=".67" transform="translate(324.98 243.81) rotate(180)" fill="#dbdbdd"/><rect x="151.3" y="124.64" width="22.38" height=".67" transform="translate(324.98 249.96) rotate(180)" fill="#dbdbdd"/><rect x="151.3" y="123.11" width="22.38" height=".67" transform="translate(324.98 246.89) rotate(180)" fill="#dbdbdd"/><g mix-blend-mode="multiply"><rect x="151.3" y="134.11" width="32.56" height=".55" transform="translate(335.16 268.76) rotate(180)" fill="#dbdbdd"/><rect x="151.3" y="136.63" width="32.56" height=".55" transform="translate(335.16 273.81) rotate(180)" fill="#dbdbdd"/><rect x="151.3" y="135.37" width="32.56" height=".55" transform="translate(335.16 271.28) rotate(180)" fill="#dbdbdd"/></g><rect x="177.35" y="121.57" width="6.51" height="10.95" transform="translate(361.21 254.09) rotate(180)" fill="#dbdbdd"/><rect x="178.1" y="122.24" width="5.01" height="4.8" transform="translate(361.21 249.29) rotate(180)" fill="#1e212a"/><rect x="177.35" y="128.93" width="6.51" height=".51" transform="translate(361.21 258.38) rotate(180)" fill="#ec1c2c"/><path d="M215.5,130.16c.32.37.49.79.6,1.24-2.8,2.86-18.04,2.23-74.15,2.23v-1.73c52.75,0,69.4.55,73.55-1.75Z" fill="#1b486d"/><path d="M215.09,134.57c.62-.45,1.01-1.02,1.18-1.7.3,1.17-.1,2.42-1.18,3.2-1.94,1.39-5.38,2.71-11.44,2.71h-61.69v-1.52h61.69c6.05,0,9.5-1.29,11.44-2.69Z" fill="#454547"/><polygon points="141.04 134.87 141.94 137.52 141.94 120.23 141.04 123.11 141.04 134.87" fill="#242426"/><polygon points="73.44 134.87 74.57 137.52 74.57 120.23 73.44 123.11 73.44 134.87" fill="#242426"/><polygon points="140.74 138.47 140.74 136.64 141.35 136.64 141.35 140.3 140.74 140.3 140.74 138.78 134.33 138.78 134.33 138.47 140.74 138.47" fill="#242426"/><polygon points="73.35 138.78 73.35 140.3 73.04 140.3 73.04 136.64 73.35 136.64 73.35 138.47 80.36 138.47 80.36 138.78 73.35 138.78" fill="#242426"/><path d="M84.31,138.67c0,1.49-1.2,2.69-2.69,2.69s-2.69-1.2-2.69-2.69,1.2-2.69,2.69-2.69,2.69,1.2,2.69,2.69Z" fill="#242426"/><path d="M91.23,138.67c0,1.49-1.2,2.69-2.69,2.69s-2.69-1.2-2.69-2.69,1.2-2.69,2.69-2.69,2.69,1.2,2.69,2.69Z" fill="#242426"/><path d="M128.5,138.67c0,1.49-1.2,2.69-2.69,2.69s-2.69-1.2-2.69-2.69,1.2-2.69,2.69-2.69,2.69,1.2,2.69,2.69Z" fill="#242426"/><path d="M135.42,138.67c0,1.49-1.2,2.69-2.69,2.69s-2.69-1.2-2.69-2.69,1.2-2.69,2.69-2.69,2.69,1.2,2.69,2.69Z" fill="#242426"/><polygon points="140.8 134.87 139.68 137.52 139.68 120.23 140.8 123.11 140.8 134.87" fill="#242426"/><rect x="74.57" y="118.02" width="65.08" height="21.04" transform="translate(214.23 257.07) rotate(180)" fill="#fff"/><rect x="131.8" y="122.91" width="5.01" height="4.8" fill="#1e212a"/><rect x="122.73" y="122.91" width="5.01" height="4.8" fill="#1e212a"/><rect x="113.67" y="122.91" width="5.01" height="4.8" fill="#1e212a"/><rect x="104.61" y="122.91" width="5.01" height="4.8" fill="#1e212a"/><rect x="95.54" y="122.91" width="5.01" height="4.8" fill="#1e212a"/><rect x="86.48" y="122.91" width="5.01" height="4.8" fill="#1e212a"/><rect x="77.41" y="122.91" width="5.01" height="4.8" fill="#1e212a"/><rect x="74.57" y="133.59" width="65.26" height="5.18" fill="#e6e7e9"/><rect x="74.57" y="117.74" width="65.26" height="2.13" fill="#ec1c2c"/><rect x="74.57" y="131.76" width="65.26" height="1.83" fill="#1b486d"/><g mix-blend-mode="multiply"><rect x="77.41" y="134.11" width="59.38" height=".55" fill="#dbdbdd"/><rect x="77.41" y="136.63" width="59.38" height=".55" fill="#dbdbdd"/><rect x="77.41" y="135.37" width="59.38" height=".55" fill="#dbdbdd"/></g><rect x="74.57" y="137.25" width="65.26" height="1.83" fill="#454547"/><polygon points="72.74 138.47 72.74 136.64 73.35 136.64 73.35 140.3 72.74 140.3 72.74 138.78 66.64 138.78 66.64 138.47 72.74 138.47" fill="#242426"/><path d="M16.41,138.67c0,1.49-1.2,2.69-2.69,2.69s-2.69-1.2-2.69-2.69,1.2-2.69,2.69-2.69,2.69,1.2,2.69,2.69Z" fill="#242426"/><path d="M23.33,138.67c0,1.49-1.2,2.69-2.69,2.69s-2.69-1.2-2.69-2.69,1.2-2.69,2.69-2.69,2.69,1.2,2.69,2.69Z" fill="#242426"/><path d="M60.6,138.67c0,1.49-1.2,2.69-2.69,2.69s-2.69-1.2-2.69-2.69,1.2-2.69,2.69-2.69,2.69,1.2,2.69,2.69Z" fill="#242426"/><path d="M67.51,138.67c0,1.49-1.2,2.69-2.69,2.69s-2.69-1.2-2.69-2.69,1.2-2.69,2.69-2.69,2.69,1.2,2.69,2.69Z" fill="#242426"/><polygon points="72.88 134.87 71.75 137.52 71.75 120.23 72.88 123.11 72.88 134.87" fill="#242426"/><rect x="6.67" y="118.02" width="65.08" height="21.04" transform="translate(78.42 257.07) rotate(180)" fill="#fff"/><rect x="63.9" y="122.91" width="5.01" height="4.8" fill="#1e212a"/><rect x="54.83" y="122.91" width="5.01" height="4.8" fill="#1e212a"/><rect x="45.77" y="122.91" width="5.01" height="4.8" fill="#1e212a"/><rect x="36.7" y="122.91" width="5.01" height="4.8" fill="#1e212a"/><rect x="27.64" y="122.91" width="5.01" height="4.8" fill="#1e212a"/><rect x="18.57" y="122.91" width="5.01" height="4.8" fill="#1e212a"/><rect x="9.51" y="122.91" width="5.01" height="4.8" fill="#1e212a"/><rect x="6.57" y="133.59" width="65.26" height="5.18" fill="#e6e7e9"/><rect x="6.57" y="117.74" width="65.26" height="2.13" fill="#ec1c2c"/><rect x="6.57" y="131.76" width="65.26" height="1.83" fill="#1b486d"/><g mix-blend-mode="multiply"><rect x="9.51" y="134.11" width="59.38" height=".55" fill="#dbdbdd"/><rect x="9.51" y="136.63" width="59.38" height=".55" fill="#dbdbdd"/><rect x="9.51" y="135.37" width="59.38" height=".55" fill="#dbdbdd"/></g><rect x="6.57" y="137.25" width="65.26" height="1.83" fill="#454547"/><rect x="6.09" y="133.19" width="316.01" height="13.06" rx="6.53" ry="6.53" fill="#d0d2d3"/><rect x="170.63" y="144.51" width="13.06" height="52.23" rx=".09" ry=".09" fill="#d0d2d3"/><rect x="289.02" y="144.51" width="13.06" height="52.23" rx=".09" ry=".09" fill="#d0d2d3"/><polygon points="170.63 146.25 183.69 191.52 183.69 146.25 170.63 146.25" fill="#6d6d6d" opacity=".5"/><polygon points="289.02 146.25 302.08 191.52 302.08 146.25 289.02 146.25" fill="#6d6d6d" opacity=".5"/></g></g></g></svg>