<?xml version="1.0" encoding="UTF-8"?><svg id="Layer_2" xmlns="http://www.w3.org/2000/svg" viewBox="0 0 326.66 228.05"><g id="VECTOR_CASAS_1"><path d="M39.92,123.76c-16.71,8.97-30.08,29.9-28.17,52.58,2.67,31.77,33.54,46.01,35.68,46.95,34.83,15.36,72.2-10.89,80.75-16.9,18.38-12.91,13.94-18.31,28.17-26.29,16.15-9.06,32.18-7.9,103.29,3.76,43.16,7.08,55.07,9.57,61.97,1.88,9.84-10.96,4.54-37.07-9.39-52.58-18.97-21.11-51.39-19.73-101.41-16.9-61.01,3.45-61.39,15-101.41,11.27-36.08-3.37-50.21-14.1-69.49-3.76Z" fill="#f6db93"/><rect x="48.61" y="24.62" width="53.43" height="123.62" fill="#f1d6bf"/><rect x="48.61" y="65.98" width="53.43" height="5.33" fill="#d6bda9"/><rect x="64.63" y="132.1" width="20.77" height="11.52" transform="translate(212.88 62.84) rotate(90)" fill="#6d4c46"/><rect x="45.1" y="63.31" width="60.46" height="5.33" fill="#ff6160"/><rect x="48.61" y="109.55" width="53.43" height="5.33" fill="#d6bda9"/><rect x="45.1" y="106.89" width="60.46" height="5.33" fill="#ff6160"/><rect x="84.48" y="82.49" width="8.06" height="16.4" fill="#6d4c46"/><rect x="58.39" y="82.49" width="8.06" height="16.4" fill="#6d4c46"/><rect x="71.28" y="82.49" width="8.06" height="16.4" fill="#6d4c46"/><rect x="48.61" y="25.82" width="53.43" height="5.33" fill="#d6bda9"/><polygon points="102.04 0 48.61 0 43.15 25.82 107.51 25.82 102.04 0" fill="#ff6160"/><rect x="84.48" y="39.66" width="8.06" height="16.4" fill="#6d4c46"/><rect x="58.39" y="39.66" width="8.06" height="16.4" fill="#6d4c46"/><rect x="71.28" y="39.66" width="8.06" height="16.4" fill="#6d4c46"/><path d="M146.1,45.62l-13.08-6.97h-26.49c-.06.11-.11.22-.17.34v31.02h-6.9v79.24h46.64V45.62Z" fill="#aa9d7e"/><polygon points="134.5 39.44 134.5 149.25 146.1 149.25 146.1 45.62 134.5 39.44" fill="#867850"/><rect x="116.41" y="43.49" width="13.45" height="7.59" fill="#785f3b"/><rect x="116.41" y="58.08" width="13.45" height="7.59" fill="#785f3b"/><rect x="116.41" y="72.67" width="13.45" height="7.59" fill="#785f3b"/><rect x="116.41" y="87.26" width="13.45" height="7.59" fill="#785f3b"/><rect x="116.41" y="101.85" width="13.45" height="7.59" fill="#785f3b"/><rect x="116.41" y="116.44" width="13.45" height="7.59" fill="#785f3b"/><rect x="116.41" y="131.03" width="13.45" height="7.59" fill="#785f3b"/><rect x="104" y="86.44" width="2.82" height="51.41" fill="#785f3b"/><polygon points="106.83 76.47 96.12 76.47 99.46 69.47 106.83 69.47 106.83 76.47" fill="#ddcfaf"/><polygon points="106.83 93.44 96.12 93.44 99.46 86.44 106.83 86.44 106.83 93.44" fill="#ddcfaf"/><polygon points="106.83 110.41 96.12 110.41 99.46 103.41 106.83 103.41 106.83 110.41" fill="#ddcfaf"/><polygon points="106.83 127.38 96.12 127.38 99.46 120.38 106.83 120.38 106.83 127.38" fill="#ddcfaf"/><polygon points="106.83 144.35 96.12 144.35 99.46 137.35 106.83 137.35 106.83 144.35" fill="#ddcfaf"/><rect x="142.1" y="45.32" width="57.74" height="102.92" transform="translate(341.94 193.57) rotate(180)" fill="#f1d6bf"/><rect x="142.1" y="102.76" width="57.74" height="6.86" transform="translate(341.94 212.38) rotate(180)" fill="#d6bda9"/><rect x="142.1" y="145.22" width="57.74" height="3.03" transform="translate(341.94 293.47) rotate(180)" fill="#d6bda9"/><rect x="142.1" y="46.5" width="57.74" height="22.58" transform="translate(341.94 115.57) rotate(180)" fill="#d6bda9"/><rect x="138.85" y="41.71" width="64.24" height="5.5" transform="translate(341.94 88.92) rotate(180)" fill="#f1d6bf"/><rect x="138.85" y="97.28" width="64.49" height="8.2" transform="translate(342.19 202.75) rotate(180)" fill="#59918c"/><rect x="163.51" y="118.94" width="14.92" height="29.31" transform="translate(341.94 267.19) rotate(180)" fill="#6d4c46"/><polygon points="192.33 57.79 206.57 57.79 203.34 47.21 190.53 47.21 192.33 57.79" fill="#74afa8"/><polygon points="178.09 57.79 192.33 57.79 190.53 47.21 177.72 47.21 178.09 57.79" fill="#fff"/><polygon points="163.85 57.79 178.09 57.79 177.72 47.21 164.91 47.21 163.85 57.79" fill="#74afa8"/><polygon points="149.61 57.79 163.85 57.79 164.91 47.21 152.1 47.21 149.61 57.79" fill="#fff"/><polygon points="135.37 57.79 149.61 57.79 152.1 47.21 139.29 47.21 135.37 57.79" fill="#74afa8"/><path d="M192.33,57.79h14.24v3.13c0,3.93-3.19,7.12-7.12,7.12h0c-3.93,0-7.12-3.19-7.12-7.12v-3.13Z" fill="#59918c"/><path d="M178.09,57.79h14.24v3.13c0,3.93-3.19,7.12-7.12,7.12h0c-3.93,0-7.12-3.19-7.12-7.12v-3.13Z" fill="#f4eae9"/><path d="M163.85,57.79h14.24v3.13c0,3.93-3.19,7.12-7.12,7.12h0c-3.93,0-7.12-3.19-7.12-7.12v-3.13Z" fill="#59918c"/><path d="M149.61,57.79h14.24v3.13c0,3.93-3.19,7.12-7.12,7.12h0c-3.93,0-7.12-3.19-7.12-7.12v-3.13Z" fill="#f4eae9"/><path d="M135.37,57.79h14.24v3.13c0,3.93-3.19,7.12-7.12,7.12h0c-3.93,0-7.12-3.19-7.12-7.12v-3.13Z" fill="#59918c"/><rect x="146.93" y="77.39" width="7.62" height="14.58" transform="translate(301.48 169.36) rotate(180)" fill="#6d4c46"/><rect x="187.4" y="77.39" width="7.62" height="14.58" transform="translate(382.41 169.36) rotate(180)" fill="#6d4c46"/><rect x="146.93" y="118.94" width="7.62" height="19.35" transform="translate(301.48 257.23) rotate(180)" fill="#6d4c46"/><rect x="187.4" y="118.94" width="7.62" height="19.35" transform="translate(382.41 257.23) rotate(180)" fill="#6d4c46"/><rect x="167.37" y="77.39" width="7.62" height="14.58" transform="translate(342.37 169.36) rotate(180)" fill="#6d4c46"/><path d="M4.96,103.42c.56-.43,1.21-.75,1.94-.95,1.85-.49,3.81-.39,5.56-1.22,1.29-.61,2.39-1.69,3.68-2.31,2.48-1.18,5.27-.5,7.71.55,3.32,1.43,6.46,3.6,8.57,6.77,2.12,3.18,3.1,7.47,2.04,11.39-1.54,5.72-6.95,9.31-12.17,10.38-5.67,1.17-11.8-.06-16.01-4.2-2.83-2.79-4.6-6.97-4.7-11.28-.07-3.29.86-7.23,3.37-9.13Z" fill="#2b6e53"/><path d="M57.71,123.67c0,6.67-5.64,12.07-12.6,12.07s-12.6-5.4-12.6-12.07,5.64-12.07,12.6-12.07,12.6,5.4,12.6,12.07Z" fill="#399350"/><path d="M44.96,128.73c-2.21.2-4.4.51-6.48,1.08-1.91.53-3.87,1.13-5.67,1.97,2.89-3.01,6.01-5.68,9.48-8,1.97-1.32,3.94-2.57,5.55-4.33,1.17-1.29,2.36-2.57,3.55-3.84-.33-.17-1.12-.82-1.47-.77-.34.05-1,.95-1.25,1.18-1.59,1.51-3.15,3.12-4.91,4.44-.68.51-4.4,3.38-4.94,2.39-.35-.64.11-2.66.5-4.12-.24.03-.48.07-.74.07-.31,0-.59-.04-.86-.09-.38,2.03-.73,5.27-1.59,6.5-1.74,2.49-4.65,3.83-6.42,6.31.1-3.08.14-6.16.28-9.24.11-2.49.48-4.99,1.44-7.3.91-2.18,2.09-4.23,2.97-6.43.11-.27.82-1.57.72-1.87-.04-.13-.91-.63-1.05-.6-.58.13-1.61,2.82-1.86,3.31-2.04,3.99-3.74,8.3-3.97,12.83-.54-3.36-1.04-6.85-2.19-10.07-.74-2.07-1.44-4.15-2.09-6.26-.15-.5-.29-1.8-.66-2.18-.28-.29-.87-.16-1.34-.16.95,4.98,2.57,9.8,3.34,14.8.42,2.68,1.04,5.43,1.04,8.15,0,2.04-.19,4.09-.36,6.12-4.15-1.86-8.97-3.4-12.56-6.24-1.9-1.5-3.15-3.36-4.2-5.51-.37-.75-.76-2.47-1.37-3-.34-.3-.84-.11-1.38-.04.73,2.2,1.5,4.41,2.46,6.52.6,1.32,1.28,2.37,2.47,3.24,1.25.91,7.55,4.78,9.71,5.68,2.11.88,4.05,2.85,4.56,5.28.75,3.58.16,7.75-.04,11.36-.16,2.87-.33,5.74-.52,8.61-.17,2.67.15,6.17-1.06,8.59h7.95c-.92-1.25-.82-3.18-.92-4.66-.15-2.09-.29-4.17-.42-6.26-.25-3.9-.57-7.82-.57-11.73,0-2.14.16-4.24.75-6.31.68-2.37,1.55-3.67,3.84-4.73,3.21-1.49,6.78-2.47,10.3-2.93-.01-.59-.02-1.19-.03-1.78Z" fill="#6a4a1d"/><circle cx="9.17" cy="124.76" r="9.17" fill="#2b6e53"/><path d="M39.61,109.44c1.46-1.32,3.38-2.14,5.35-2.15,3.48-.03,6.38,2.41,7.74,5.48,1.43,3.23-.16,7.16-2.95,9.16-2.74,1.97-6.74,1.96-9.47-.03-2.73-1.98-3.97-5.79-2.94-9,.43-1.34,1.23-2.53,2.27-3.46Z" fill="#2b6e53"/><path d="M45.7,96.3s8.22-2.6,11.96,5.14c2.73,5.65-.6,10.8-3.4,11.99-4.61,1.96-7.4-.6-7.4-.6,0,0-3.12,6.1-11,7.37-13.92,2.24-18.75-7.18-18.75-7.18,0,0-3.32,1.79-8.08.9-6.29-1.17-9.57-6.13-8.95-11.67.71-6.37,6.31-10.03,11.08-9.21,0,0,.2-4.47,5.85-6.24,1.38-.43,4.57-.66,6.15.04,0,0,3.5-6.49,12.52-4.8,12.33,2.3,10.03,14.26,10.03,14.26Z" fill="#399350"/><path d="M229.06,113.49c-1.47.82-3.13,1.32-4.81,1.42-3.91.22-7.84-1.66-10.3-4.7-2.53-3.12-4.41-8.38-1.95-11.85,2.65-3.75,7.6-5.89,12.12-5.32,3.52.45,6.85,2.47,8.73,5.48,1.88,3.01,2.22,6.97.73,10.2-.94,2.03-2.56,3.69-4.52,4.77Z" fill="#2b6e53"/><ellipse cx="243.42" cy="98.18" rx="12.6" ry="12.07" fill="#2b6e53"/><ellipse cx="228.59" cy="80.65" rx="10.91" ry="10.45" fill="#2b6e53"/><path d="M224.25,126.55c1.42,1.28,3.14,2.22,4.91,2.92,1.05.42,1.31.58,1.33,1.81.03,2.19-.23,4.42-.4,6.6-.19,2.36-.27,4.64-1.97,6.46h14.99c-3.07-2.9-2.67-7.08-2.89-10.97-.09-1.63-.56-3.16,1.15-3.87,1.64-.68,3.22-1.48,4.61-2.61,1.71-1.39,2.99-3.25,4-5.19.51-.97.95-1.98,1.33-3.01.15-.39.72-1.42.6-1.83-.06-.23-1.24-.86-1.63-.69-.54.23-1.32,2.27-1.64,2.76-2.18,3.36-4.77,5.84-9,6.09-.11-3.36-.2-6.69-.14-10.05.01-.68-.27-2.25.05-2.87.23-.44,1.11-.67,1.59-.95,1.59-.89,3.21-1.98,4.4-3.38,1.39-1.64,2.21-3.8,2.9-5.81-.59.07-1.24-.03-1.82.07-.69.11-.28-.19-.8.35-.13.14-.22.42-.32.59-.49.83-1.08,1.63-1.88,2.19-.71.5-3.7,1.75-4.58.73-.23-.26-.1-1.35-.13-1.69-.08-1.25-.16-2.51-.24-3.76-.1-1.59-.21-3.17-.31-4.76-.04-.67-.39-2.06-.06-2.59.21-.34.97-.67,1.3-.9.8-.57,1.6-1.16,2.36-1.79,2.29-1.87,2.76-4.73,2.96-7.57-.44.09-1.83.18-2.03.48-.12.18.02,1.03,0,1.28-.09.79-.36,1.57-.84,2.21-.54.72-3.03,2.5-4.02,1.46-.16-.17-.1-.49-.12-.75-.31-4.47-.44-8.96-.66-13.44-.1-2.06-.2-4.13-.31-6.19-.05-1.05.15-1.16-1.03-1.23-1.19-.07-.97.11-1.07,1.15-.43,4.69-.96,9.37-1.47,14.06-.13,1.22-.26,2.44-.4,3.66-.08.69-.01,1.63-.25,2.28-.2.56-.11.57-.95.62-2.23.12-3.89-1.94-4.06-4.01-.35.12-1.31.21-1.55.48-.29.33-.11.79.02,1.35.22.96.5,2,1.07,2.83,1.03,1.49,2.96,2.59,4.43,3.62.73.51.67.37.71,1.15.05,1.09-.05,2.21-.07,3.3-.06,2.57-.11,5.14-.17,7.71-.02.73.14.87-.42,1.18-1.59.87-4.14-.57-5.15-1.72-.66-.75-1.14-1.64-1.54-2.56-.28-.64-.39-1.52-.74-2.1-.32-.53.08-.25-.58-.41-.53-.13-1.26,0-1.81,0,.67,2.69,1.59,5.58,3.19,7.87,1.15,1.65,2.87,2.88,4.59,3.88.71.41,1.69.59,1.9,1.29.28.93-.14,2.54-.19,3.5-.07,1.35-.15,2.7-.22,4.05-.09,1.74-.16,3.47-.22,5.21-2.7-.16-5.24-1.3-6.99-3.35-.96-1.12-1.78-2.36-2.54-3.61-.19-.32-.74-1.75-1.1-1.9-.18-.08-1.6.4-1.67.54-.15.33.54,1.72.65,2.02,1.07,2.88,2.61,5.75,4.92,7.82Z" fill="#6a4a1d"/><ellipse cx="249.65" cy="115.65" rx="12.6" ry="12.07" fill="#399350"/><circle cx="237" cy="68.26" r="10.74" fill="#399350"/><circle cx="221.85" cy="119.58" r="9.17" fill="#399350"/><path d="M237.92,76.46c1.46-1.32,3.38-2.14,5.35-2.15,3.48-.03,6.38,2.41,7.74,5.48,1.43,3.23-.16,7.16-2.95,9.16-2.74,1.97-6.74,1.96-9.47-.03-2.73-1.98-3.97-5.79-2.94-9,.43-1.34,1.23-2.53,2.27-3.46Z" fill="#2b6e53"/><path d="M239.59,83.01c2.18-1.89,5.06-3.07,8-3.09,5.2-.05,9.54,3.45,11.58,7.87,2.14,4.63-.24,10.27-4.41,13.14-4.1,2.82-10.09,2.81-14.17-.04-4.08-2.85-5.94-8.3-4.41-12.91.64-1.92,1.85-3.62,3.4-4.97Z" fill="#399350"/><ellipse cx="222.68" cy="92.22" rx="10.91" ry="10.45" fill="#399350"/><path d="M85.25,187.65c.25-2.11.2-3.53-.03-4.39-1.01-3.69-2.33-11.43-2.33-11.43l4.89-.17s.17,11.4.24,11.82c.33,1.8-1.12,10.14-.83,10.92.3.78,1.92,1.2,1.92,1.2,0,0-1.26.76-2.01.5-.75-.27-1.49-.97-1.49-.97.39-1.44-.63-5.3-.37-7.49Z" fill="#ffa186"/><path d="M85.63,194.78s1.01.71,1.92,1.02c.91.31,1.4-.28,1.4-.28,0,0,.95.48,1.57.79.73.36-.7.82-2.39.72-1.69-.09-2.58-.41-2.58-.41l.08-1.84Z" fill="#0e2c3d"/><path d="M79.05,186.08c.57-1.33,2.44-5.02,2.45-5.39.03-.69.34-9.79.38-10.67l5.22,1.62s-2.07,8.87-2.32,9.85c-.05.18-.3.77-.58,1.11-.84,1.02-5.6,9.14-5.73,9.96-.13.82,1.17,1.97,1.17,1.97,0,0-1.58.05-2.14-.54-.57-.59-.89-1.56-.89-1.56,1.12-1.05,1.58-4.32,2.45-6.34Z" fill="#ffb098"/><path d="M76.8,192.13s.57,1.1,1.26,1.81c.69.7,1.46.43,1.46.43,0,0,.6.85,1.26,1.16s.5.72.5.72c0,0-1.18.33-2.72-.57-1.54-.9-2.72-2.38-2.72-2.38l.95-1.16Z" fill="#0e2c3d"/><path d="M80.15,166.26c-.5.55-.06,1.85,1.88,1.96l2.24-3.37s-2.8-.04-4.12,1.41Z" fill="#ee5b5a"/><path d="M86.06,173.76c-.08.04,1.12,3.9,1.04,3.93-2.84.78-6.9-.21-7.16-.2.39-1.57.65-6.16.27-7.7-.65-2.68.77-3.54,2.07-4.88s3.04-1.05,3.04-1.05l.59,3.92s.76,1.37.8,2.89c.02.55-.03,1.65-.1,2.85-.18.08-.36.16-.54.24Z" fill="#ee5b5a"/><path d="M85.2,147.58s1.58-.15,1.99,1.57c.41,1.72.61,3.46.87,6,.26,2.54-2.85,4.51-4.76,2.15-1.91-2.36-2.46-2.09-2.46-2.09l2.03-3.92,2.33-3.71Z" fill="#382728"/><path d="M85.92,155.32c-.2-.25-.65-.5-.54-1.12l-2.03-.03s.02.33-.48,1c-.5.67,1.53,5.07,2.76,5.27s1.66-1.34,1.66-1.34l-.87-3.03-.5-.76Z" fill="#ffb098"/><path d="M85.82,153.5c-.41.34-.7,1.35-.82,1.98h-2.69s.68-.93.92-2.21c.24-1.28-.04-1.82-.04-1.82l2.62,2.05Z" fill="#ffb098"/><path d="M86.64,148.76c.3.37.41.92.44,1.18.03.26-.08.52.08.74.16.23.72.6.77.74.06.13-.32.42-.35.52-.04.1-.17.87-.23,1.27-.06.39-.95.43-1.53.3-.59-.13-1.45-.61-1.79-.8-.33-.19-.83-1.25-.83-1.25l-.47-2.09s.33-1.16,1.64-1.18c1.31-.03,1.92.16,2.27.59Z" fill="#ffb098"/><path d="M86.29,148.41s-.49,2.65-1.79,3.22c0,0-.25,2.57-1.63,3.55-1.39.98-1.02,3.09-.89,4.16,0,0-2.86-.5-2.47-2.35.44-2.06,1.36-2.68,1.76-4,.39-1.32-.73-3.28.84-4.65,2.63-2.28,4.18.07,4.18.07Z" fill="#382728"/><path d="M84.04,177.29c-.82-1.13-1.97-5.47-2.07-6.68-.16-1.99.77-3.29,2.25-3.99,1.17-.55,3.11-.08,3.11-.08,0,0,1.09,8.22,2.03,11.24-.11.09-2.94.57-5.32-.48Z" fill="#ee5b5a"/><path d="M82.87,155.18s.84.37,1.57,1.23c.73.86,1.75,1.93,2.03,1.82.28-.11-.26-2.51-.76-3.17l.84.56s.58,2.08.95,2.75c.37.67.93,1.61.87,2.49-.06.88-.65,2.12-.59,2.88.06.76-.13,3.41-.13,3.41,0,0-1.53.53-3.41.39-1.88-.14-3.48-1.63-4.1-1.26,0,0,.93-1.46,1.49-2.71.56-1.25-.2-2.66-.48-4.17-.28-1.52-.64-2.37-.1-3.13.53-.76,1.82-1.07,1.82-1.07Z" fill="#ee5b5a"/><path d="M95.42,168.29c-.15-.3-.04-.51-.52-.86-.48-.35-1-.3-1.82-.75-.82-.45-1.71-1.07-1.71-1.07,0,0,0,0-.02,0-.31.31-.61.62-.92.93.41.23,2.03,1.21,2.43,1.34.51.17,1.14.07,1.47.5.33.43.36.62.46.85.1.23.3-.2.39-.35.1-.14.39-.29.24-.59Z" fill="#ffb098"/><path d="M82.55,155.48c-.66-.55-1.57-.28-1.71,1.16-.14,1.44,3,6.35,4.74,7.52,1.29.87,3.12,1.95,5.33,2.85,0,0,.64-.88.99-1.05,0,0-4.11-2.8-4.71-3.2,0,0-1.49-2.24-2.37-3.88-.94-1.75-1.57-2.82-2.27-3.4Z" fill="#fd6d65"/><path d="M69.37,159.7s1.43,2.48,1.64,2.7c.21.23,3.93,4.43,4.64,4.98l-.48,1.08s-1.69-1.31-2.68-2.12c-.99-.81-2.03-1.38-2.33-1.69-.29-.31-.73-.54-1.12-1.1-.39-.56-3.11-4.22-3.11-4.22l3.42.36Z" fill="#ffb098"/><path d="M70.5,161.38c-.96-1.98-2.23-5.68-3.32-7.26-.78-1.13-2.83.37-2.54,2.54.35,2.57,1.49,4.62,3.23,6.53.86-.63,1.74-1.23,2.63-1.8Z" fill="#007188"/><path d="M58.08,190.32l-2.02,3.49-.2.09s-.79.81-.74,1.06c.09.46.71.93.93,1.1.85.65,1.66.92,1.66.92,0,0,1.3.2,1.36-.1.06-.33-.7-.76-.92-1.27-.12-.29-.6-.8-.6-.8l1.31-2.12-.78-2.36Z" fill="#0e2c3d"/><path d="M66.97,172.07c-.29.84-.32,7.94-.57,11.09-.06.71-.28.96-.64,1.7-.15.32-1.68,3.13-3.41,5.27-2.01,2.48-4.16,4.34-4.16,4.34l-1.81-1.47s4.84-7.53,5.25-10.41c.47-3.32-2.22-11.71-.77-13.39,1.44-1.68,3.03-1.93,3.03-1.93l3.08,4.81Z" fill="#0e2c3d"/><path d="M67.79,190.81l.65,4.13-.12.18s-.15,1.31.03,1.5c.32.34.99.26,1.27.23,1.18-.1,1.89-.1,1.89-.1,0,0,1.29-.11,1.18-.39-.12-.31-1.04-.52-1.5-.84-.26-.18-.96-.53-.96-.53l-.4-4.42-2.05.23Z" fill="#133b50"/><path d="M62.36,166.92s-1.8,1.14-2.06,2.65c-.61,3.5,4.49,10.63,5.83,13.88.19.45.34.94.43,1.42.48,2.45,1.3,9.41,1.3,9.41l2.38-.11s.46-9.99.28-11.24c-.26-1.85-1.4-10.99-2.23-12.45-.83-1.46-5.94-3.54-5.94-3.54Z" fill="#133b50"/><path d="M69.07,146.94c.08.72.22,1.38.19,1.87-.03.49.53,1.12.79,1.39.27.27-.47.59-.47.59,0,0-.25.58-.37,1.57-.05.44-.87.38-1.35.47-.48.09-.92-.3-1.78-.71-.86-.41-1.61-1.45-1.61-1.45l-.67-2.64,2.56-1.72,2.71.63Z" fill="#ffb098"/><path d="M69.14,147.44s.53-1.05-1.09-1.66c-1.22-.46-3.1-.33-4.03.27-.94.6-.98,1.32-.81,1.37,0,0-.53.47-.46,1.77.06,1.3,2.29,2.94,2.52,3.57l.67-1.67s-.98-.39-1.05-1.16c-.07-.76.88-1.28,1.18-.61.3.67.31,1.04.31,1.04,0,0,.58-.92.24-1.27-.64-.65.08-.92.95-1.04.63-.09.78-.38,1.56-.63Z" fill="#471a17"/><path d="M65.71,150.88s-.89,2.2-1.05,2.53c-.16.34-2.32.87-2.32.87,0,0-.64,2.58,1.65,2.87,2.29.29,4.54.02,4.54.02,0,0-.41-2.78-.64-3.25-.22-.47.03-1.73.03-1.73l-2.22-1.31Z" fill="#ffb098"/><path d="M62,154.1l3.01-1.52s1.66,2.55,2.59,2.23c.29-.1.29-.89.29-.89,0,0,.67,1.88.77,2.7.18,1.53-.02,3.43-.12,6.69-.08,2.59.51,8.23.51,8.23,0,0-2.16.69-4.03.53-2.48-.21-4.31-.4-5.13-1.1,0,0,.56-7.6.49-12.07-.04-2.22,1.61-4.79,1.61-4.79Z" fill="#008baa"/><path d="M58.96,169.21c-.11-1.96-.18-6.35-.08-6.59.12-.28,1.78-2.62,1.78-2.62l-1.1-3.26s-2.05,3.39-2.39,3.97c-.35.58-.39,1.45-.38,1.87,0,.43.21,2.65.38,3.91.11.79.29,1.92.4,2.65v.92s-.06.88-.06.88l.09.8-.06.44.26.29.17-.17v.27h.34l.06-.32.05.32.34-.03.06-.29.18.3.37-.11s.14-.74.07-1.14c-.05-.33-.38-1.63-.5-2.1Z" fill="#ffb098"/><path d="M59.94,161.3c1.49-1.67,3.47-3.82,4.33-5.26.7-1.17-.42-3.11-2.27-1.94-1.81,1.14-3.23,2.83-4.51,4.86.46,1.3,2.36,2.3,2.44,2.35Z" fill="#007188"/><path d="M75.17,166.92s1.08.9,2.2,1.35c.38.15.94,1.42.94,1.42l-.2.04-.34-.09.15.25-.32.12-.21-.19-.33-.16.33.42-.29.06-.32-.35-.15.34-.19-.05-.08-.54-.67-.21-.57-.68-.8-.88.85-.85Z" fill="#ffb098"/></g></svg>