<?xml version="1.0" encoding="UTF-8"?><svg id="Layer_2" xmlns="http://www.w3.org/2000/svg" viewBox="0 0 423.88 150.55"><g id="ALERTA_PERIODOS"><rect x=".44" y="28.11" width="423" height="122" rx="14.73" ry="14.73" fill="none" stroke="#003a5b" stroke-dasharray="4.41" stroke-miterlimit="10" stroke-width=".88"/><rect x="90.94" y="46.61" width="308" height="25" rx="12.5" ry="12.5" fill="#99d4c3"/><rect x="66.94" y="79.61" width="332" height="25" rx="12.5" ry="12.5" fill="none" stroke="#ffbca5" stroke-miterlimit="10"/><line x1="222.94" y1="42.61" x2="222.94" y2="77.61" fill="none" stroke="#f3f3f3" stroke-miterlimit="10" stroke-width="2"/><line x1="310.44" y1="43.61" x2="310.44" y2="75.61" fill="none" stroke="#f3f3f3" stroke-miterlimit="10" stroke-width="2"/><path d="M102.09,63.77c-.68-.35-1.21-.85-1.58-1.48-.37-.64-.56-1.37-.56-2.21v-4.45c0-.84.19-1.58.56-2.21.37-.64.9-1.13,1.58-1.48.68-.35,1.48-.52,2.38-.52s1.67.17,2.36.5c.68.34,1.21.81,1.58,1.42.37.61.56,1.32.56,2.12,0,.06-.02.11-.06.15s-.09.06-.15.06l-1.66.09c-.14,0-.22-.07-.22-.2,0-.71-.22-1.28-.66-1.71-.44-.43-1.02-.65-1.75-.65s-1.32.22-1.76.65c-.44.43-.67,1-.67,1.71v4.59c0,.7.22,1.26.67,1.69.44.43,1.03.65,1.76.65s1.32-.21,1.75-.64c.44-.43.66-.99.66-1.7,0-.13.07-.2.22-.2l1.66.07c.06,0,.11.02.15.05.04.04.06.08.06.13,0,.82-.19,1.53-.56,2.15-.37.62-.9,1.1-1.58,1.43-.68.34-1.47.5-2.36.5s-1.69-.18-2.38-.53Z" fill="#fff"/><path d="M113.07,63.79c-.7-.37-1.23-.88-1.61-1.56-.38-.67-.57-1.45-.57-2.32v-4.1c0-.86.19-1.63.58-2.29s.92-1.18,1.61-1.55c.69-.37,1.48-.55,2.38-.55s1.71.18,2.4.55c.69.37,1.23.88,1.61,1.55s.58,1.43.58,2.29v4.1c0,.88-.19,1.65-.58,2.32-.38.67-.92,1.19-1.61,1.56-.69.37-1.49.55-2.4.55s-1.7-.18-2.39-.55ZM117.28,61.84c.46-.47.68-1.09.68-1.85v-4.19c0-.78-.23-1.4-.68-1.87-.46-.47-1.06-.7-1.82-.7s-1.34.23-1.8.7c-.46.47-.68,1.09-.68,1.87v4.19c0,.77.23,1.39.68,1.85.46.47,1.06.7,1.8.7s1.36-.23,1.82-.7Z" fill="#fff"/><path d="M129.2,64l-2.38-5.18s-.06-.07-.11-.07h-2.16c-.06,0-.09.03-.09.09v5.11c0,.06-.02.11-.06.15s-.09.06-.15.06h-1.66c-.06,0-.11-.02-.15-.06s-.06-.09-.06-.15v-12.17c0-.06.02-.11.06-.15.04-.04.09-.06.15-.06h4.95c.73,0,1.38.15,1.94.46.56.31,1,.74,1.31,1.3.31.56.47,1.2.47,1.92,0,.83-.21,1.53-.64,2.12-.43.58-1.02.99-1.77,1.21-.02,0-.04.01-.05.04-.01.02-.01.05,0,.07l2.54,5.24s.04.08.04.11c0,.1-.07.14-.2.14h-1.73c-.12,0-.2-.05-.25-.16ZM124.46,53.45v3.58c0,.06.03.09.09.09h2.7c.58,0,1.04-.17,1.39-.51.35-.34.53-.79.53-1.36s-.18-1.02-.53-1.37c-.35-.35-.82-.52-1.39-.52h-2.7c-.06,0-.09.03-.09.09Z" fill="#fff"/><path d="M141.83,51.62s.06.09.06.15v1.39c0,.06-.02.11-.06.15-.04.04-.09.06-.15.06h-3.31c-.06,0-.09.03-.09.09v10.48c0,.06-.02.11-.06.15s-.09.06-.15.06h-1.66c-.06,0-.11-.02-.15-.06s-.06-.09-.06-.15v-10.48c0-.06-.03-.09-.09-.09h-3.19c-.06,0-.11-.02-.15-.06-.04-.04-.06-.09-.06-.15v-1.39c0-.06.02-.11.06-.15.04-.04.09-.06.15-.06h8.77c.06,0,.11.02.15.06Z" fill="#fff"/><path d="M145.06,63.79c-.7-.37-1.23-.88-1.61-1.56-.38-.67-.57-1.45-.57-2.32v-4.1c0-.86.19-1.63.58-2.29s.92-1.18,1.61-1.55c.69-.37,1.48-.55,2.38-.55s1.71.18,2.4.55c.69.37,1.23.88,1.61,1.55s.58,1.43.58,2.29v4.1c0,.88-.19,1.65-.58,2.32-.38.67-.92,1.19-1.61,1.56-.69.37-1.49.55-2.4.55s-1.7-.18-2.39-.55ZM149.27,61.84c.46-.47.68-1.09.68-1.85v-4.19c0-.78-.23-1.4-.68-1.87-.46-.47-1.06-.7-1.82-.7s-1.34.23-1.8.7c-.46.47-.68,1.09-.68,1.87v4.19c0,.77.23,1.39.68,1.85.46.47,1.06.7,1.8.7s1.36-.23,1.82-.7Z" fill="#fff"/><path d="M160.83,58.08c.29.16.51.38.67.66.16.29.24.61.24.99s-.08.69-.24.97c-.16.28-.39.5-.69.65-.3.15-.64.23-1.03.23h-1.44s-.04.02-.04.05v2.42s-.01.06-.03.08c-.02.02-.05.03-.08.03h-.83s-.06-.01-.08-.03c-.02-.02-.03-.05-.03-.08v-6.09s.01-.06.03-.08c.02-.02.05-.03.08-.03h2.47c.38,0,.71.08,1,.23ZM160.42,60.47c.19-.18.28-.42.28-.71s-.09-.54-.28-.73c-.19-.19-.43-.28-.74-.28h-1.34s-.04.02-.04.05v1.9s.01.04.04.04h1.34c.31,0,.55-.09.74-.27Z" fill="#fff"/><path d="M162.69,64.13s-.03-.05-.03-.08v-6.08s0-.06.03-.08c.02-.02.05-.03.08-.03h.83s.06.01.08.03c.02.02.03.05.03.08v5.25s.01.04.04.04h3.01s.06.01.08.03c.02.02.03.05.03.08v.68s-.01.06-.03.08-.05.03-.08.03h-4s-.06-.01-.08-.03Z" fill="#fff"/><path d="M171.82,64.07l-.3-.96s-.03-.04-.05-.04h-2.38s-.03.01-.04.04l-.3.96c-.02.06-.06.09-.12.09h-.9s-.06-.01-.08-.03c-.02-.02-.02-.05,0-.09l1.95-6.08c.02-.06.06-.09.12-.09h1.12c.06,0,.1.03.12.09l1.96,6.08s0,.03,0,.04c0,.05-.03.08-.1.08h-.9c-.06,0-.1-.03-.12-.09ZM169.37,62.25h1.83s.05-.02.04-.05l-.93-3.02s-.01-.04-.03-.04c-.01,0-.02.01-.03.04l-.92,3.02s0,.05.04.05Z" fill="#fff"/><path d="M173.69,64.13s-.03-.05-.03-.08v-.77s.01-.09.04-.13l3.03-4.34s.01-.02,0-.04c0-.01-.02-.02-.04-.02h-2.94s-.06-.01-.08-.03c-.02-.02-.03-.05-.03-.08v-.68s.01-.06.03-.08c.02-.02.05-.03.08-.03h4.05s.06.01.08.03c.02.02.03.05.03.08v.77s-.01.09-.04.13l-3.03,4.34s-.02.02,0,.04.02.02.04.02h2.94s.06.01.08.03c.02.02.03.05.03.08v.68s0,.06-.03.08c-.02.02-.05.03-.08.03h-4.05s-.06-.01-.08-.03Z" fill="#fff"/><path d="M179.9,63.98c-.35-.18-.62-.44-.81-.78-.19-.34-.28-.72-.28-1.16v-2.05c0-.43.1-.81.29-1.15s.46-.59.81-.77c.34-.18.74-.27,1.19-.27s.86.09,1.2.27c.35.18.61.44.81.77s.29.72.29,1.15v2.05c0,.44-.1.83-.29,1.16s-.46.6-.81.78c-.34.18-.75.27-1.2.27s-.85-.09-1.2-.27ZM182.01,63c.23-.23.34-.54.34-.93v-2.1c0-.39-.11-.7-.34-.94-.23-.23-.53-.35-.91-.35s-.67.12-.9.35c-.23.23-.34.55-.34.94v2.1c0,.38.11.69.34.93.23.23.53.35.9.35s.68-.12.91-.35Z" fill="#fff"/><path d="M144.25,42.94s.01.02.03.02h2.56s.06.01.08.03c.02.02.03.05.03.08v.68s-.01.06-.03.08-.05.03-.08.03h-3.87s-.05-.01-.08-.03c-.02-.02-.03-.05-.03-.08v-.65c0-.05.02-.1.05-.14.46-.49.98-1.08,1.58-1.79l.42-.49c.55-.64.83-1.13.83-1.46,0-.25-.09-.45-.26-.6-.17-.16-.4-.23-.67-.23s-.5.08-.67.23c-.17.16-.26.36-.26.62v.23s0,.06-.03.08c-.02.02-.05.03-.08.03h-.84s-.06-.01-.08-.03c-.02-.02-.03-.05-.03-.08v-.39c.01-.32.11-.61.28-.85.17-.24.41-.43.71-.56s.63-.2,1-.2c.4,0,.75.08,1.05.23s.53.36.69.62c.16.26.24.55.24.88,0,.49-.26,1.06-.78,1.7-.29.36-.76.9-1.42,1.62l-.34.38s-.02.02-.01.04Z" fill="#003a5b"/><path d="M148.43,43.42c-.37-.36-.55-.84-.55-1.44v-2.54c0-.6.18-1.08.55-1.43.37-.35.87-.53,1.5-.53s1.13.18,1.51.53c.38.35.56.83.56,1.43v2.54c0,.61-.19,1.09-.56,1.44s-.88.54-1.51.54-1.13-.18-1.5-.54ZM150.67,42.78c.19-.18.28-.43.28-.74v-2.63c0-.31-.09-.56-.28-.74-.19-.18-.43-.27-.75-.27s-.55.09-.73.27c-.18.18-.27.43-.27.74v2.63c0,.31.09.56.27.74s.43.27.73.27.56-.09.75-.27Z" fill="#003a5b"/><path d="M154.32,42.94s.01.02.03.02h2.56s.06.01.08.03c.02.02.03.05.03.08v.68s-.01.06-.03.08-.05.03-.08.03h-3.87s-.05-.01-.08-.03c-.02-.02-.03-.05-.03-.08v-.65c0-.05.02-.1.05-.14.46-.49.98-1.08,1.58-1.79l.42-.49c.55-.64.83-1.13.83-1.46,0-.25-.09-.45-.26-.6-.17-.16-.4-.23-.67-.23s-.5.08-.67.23c-.17.16-.26.36-.26.62v.23s0,.06-.03.08c-.02.02-.05.03-.08.03h-.84s-.06-.01-.08-.03c-.02-.02-.03-.05-.03-.08v-.39c.01-.32.11-.61.28-.85.17-.24.41-.43.71-.56s.63-.2,1-.2c.4,0,.75.08,1.05.23s.53.36.69.62c.16.26.24.55.24.88,0,.49-.26,1.06-.78,1.7-.29.36-.76.9-1.42,1.62l-.34.38s-.02.02-.01.04Z" fill="#003a5b"/><path d="M159.28,42.94s.01.02.03.02h2.56s.06.01.08.03c.02.02.03.05.03.08v.68s-.01.06-.03.08-.05.03-.08.03h-3.87s-.05-.01-.08-.03c-.02-.02-.03-.05-.03-.08v-.65c0-.05.02-.1.05-.14.46-.49.98-1.08,1.58-1.79l.42-.49c.55-.64.83-1.13.83-1.46,0-.25-.09-.45-.26-.6-.17-.16-.4-.23-.67-.23s-.5.08-.67.23c-.17.16-.26.36-.26.62v.23s0,.06-.03.08c-.02.02-.05.03-.08.03h-.84s-.06-.01-.08-.03c-.02-.02-.03-.05-.03-.08v-.39c.01-.32.11-.61.28-.85.17-.24.41-.43.71-.56s.63-.2,1-.2c.4,0,.75.08,1.05.23s.53.36.69.62c.16.26.24.55.24.88,0,.49-.26,1.06-.78,1.7-.29.36-.76.9-1.42,1.62l-.34.38s-.02.02-.01.04Z" fill="#003a5b"/><path d="M162.73,41.57s-.03-.05-.03-.08v-.68s.01-.06.03-.08c.02-.02.05-.03.08-.03h2.83s.05.01.08.03c.02.02.03.05.03.08v.68s-.01.06-.03.08c-.02.02-.05.03-.08.03h-2.83s-.06-.01-.08-.03Z" fill="#003a5b"/><path d="M167.87,42.94s.01.02.03.02h2.56s.06.01.08.03c.02.02.03.05.03.08v.68s-.01.06-.03.08-.05.03-.08.03h-3.87s-.05-.01-.08-.03c-.02-.02-.03-.05-.03-.08v-.65c0-.05.02-.1.05-.14.46-.49.98-1.08,1.58-1.79l.42-.49c.55-.64.83-1.13.83-1.46,0-.25-.09-.45-.26-.6-.17-.16-.4-.23-.67-.23s-.5.08-.67.23c-.17.16-.26.36-.26.62v.23s0,.06-.03.08c-.02.02-.05.03-.08.03h-.84s-.06-.01-.08-.03c-.02-.02-.03-.05-.03-.08v-.39c.01-.32.11-.61.28-.85.17-.24.41-.43.71-.56s.63-.2,1-.2c.4,0,.75.08,1.05.23s.53.36.69.62c.16.26.24.55.24.88,0,.49-.26,1.06-.78,1.7-.29.36-.76.9-1.42,1.62l-.34.38s-.02.02-.01.04Z" fill="#003a5b"/><path d="M172.05,43.42c-.37-.36-.55-.84-.55-1.44v-2.54c0-.6.18-1.08.55-1.43.37-.35.87-.53,1.5-.53s1.13.18,1.51.53c.38.35.56.83.56,1.43v2.54c0,.61-.19,1.09-.56,1.44s-.88.54-1.51.54-1.13-.18-1.5-.54ZM174.3,42.78c.19-.18.28-.43.28-.74v-2.63c0-.31-.09-.56-.28-.74-.19-.18-.43-.27-.75-.27s-.55.09-.73.27c-.18.18-.27.43-.27.74v2.63c0,.31.09.56.27.74s.43.27.73.27.56-.09.75-.27Z" fill="#003a5b"/><path d="M177.95,42.94s.01.02.03.02h2.56s.06.01.08.03c.02.02.03.05.03.08v.68s-.01.06-.03.08-.05.03-.08.03h-3.87s-.05-.01-.08-.03c-.02-.02-.03-.05-.03-.08v-.65c0-.05.02-.1.05-.14.46-.49.98-1.08,1.58-1.79l.42-.49c.55-.64.83-1.13.83-1.46,0-.25-.09-.45-.26-.6-.17-.16-.4-.23-.67-.23s-.5.08-.67.23c-.17.16-.26.36-.26.62v.23s0,.06-.03.08c-.02.02-.05.03-.08.03h-.84s-.06-.01-.08-.03c-.02-.02-.03-.05-.03-.08v-.39c.01-.32.11-.61.28-.85.17-.24.41-.43.71-.56s.63-.2,1-.2c.4,0,.75.08,1.05.23s.53.36.69.62c.16.26.24.55.24.88,0,.49-.26,1.06-.78,1.7-.29.36-.76.9-1.42,1.62l-.34.38s-.02.02-.01.04Z" fill="#003a5b"/><path d="M182.2,43.73l1.99-5.22s0-.05-.04-.05h-1.94s-.04.02-.04.04v.4s0,.06-.03.08-.05.03-.08.03h-.65s-.06-.01-.08-.03c-.02-.02-.03-.05-.03-.08v-1.24s0-.06.03-.08c.02-.02.05-.03.08-.03h3.79s.06.01.08.03c.02.02.03.05.03.08v.72s0,.08-.03.14l-1.98,5.25c-.02.06-.06.09-.13.09h-.89c-.09,0-.12-.04-.09-.13Z" fill="#003a5b"/><path d="M247.71,113.94s.01.02.03.02h2.56s.06.01.08.03c.02.02.03.05.03.08v.68s-.01.06-.03.08-.05.03-.08.03h-3.87s-.05-.01-.08-.03c-.02-.02-.03-.05-.03-.08v-.65c0-.05.02-.1.05-.14.46-.49.98-1.08,1.58-1.79l.42-.49c.55-.64.83-1.13.83-1.46,0-.25-.09-.45-.26-.6-.17-.16-.4-.23-.67-.23s-.5.08-.67.23c-.17.16-.26.36-.26.62v.23s0,.06-.03.08c-.02.02-.05.03-.08.03h-.84s-.06-.01-.08-.03c-.02-.02-.03-.05-.03-.08v-.39c.01-.32.11-.61.28-.85.17-.24.41-.43.71-.56s.63-.2,1-.2c.4,0,.75.08,1.05.23s.53.36.69.62c.16.26.24.55.24.88,0,.49-.26,1.06-.78,1.7-.29.36-.76.9-1.42,1.62l-.34.38s-.02.02-.01.04Z" fill="#003a5b"/><path d="M251.89,114.42c-.37-.36-.55-.84-.55-1.44v-2.54c0-.6.18-1.08.55-1.43.37-.35.87-.53,1.5-.53s1.13.18,1.51.53c.38.35.56.83.56,1.43v2.54c0,.61-.19,1.09-.56,1.44s-.88.54-1.51.54-1.13-.18-1.5-.54ZM254.13,113.78c.19-.18.28-.43.28-.74v-2.63c0-.31-.09-.56-.28-.74-.19-.18-.43-.27-.75-.27s-.55.09-.73.27c-.18.18-.27.43-.27.74v2.63c0,.31.09.56.27.74s.43.27.73.27.56-.09.75-.27Z" fill="#003a5b"/><path d="M257.78,113.94s.01.02.03.02h2.56s.06.01.08.03c.02.02.03.05.03.08v.68s-.01.06-.03.08-.05.03-.08.03h-3.87s-.05-.01-.08-.03c-.02-.02-.03-.05-.03-.08v-.65c0-.05.02-.1.05-.14.46-.49.98-1.08,1.58-1.79l.42-.49c.55-.64.83-1.13.83-1.46,0-.25-.09-.45-.26-.6-.17-.16-.4-.23-.67-.23s-.5.08-.67.23c-.17.16-.26.36-.26.62v.23s0,.06-.03.08c-.02.02-.05.03-.08.03h-.84s-.06-.01-.08-.03c-.02-.02-.03-.05-.03-.08v-.39c.01-.32.11-.61.28-.85.17-.24.41-.43.71-.56s.63-.2,1-.2c.4,0,.75.08,1.05.23s.53.36.69.62c.16.26.24.55.24.88,0,.49-.26,1.06-.78,1.7-.29.36-.76.9-1.42,1.62l-.34.38s-.02.02-.01.04Z" fill="#003a5b"/><path d="M265.29,113.04c0,.36-.08.69-.23.98-.16.28-.38.5-.68.67s-.65.24-1.06.24-.76-.08-1.07-.24c-.31-.16-.55-.39-.7-.7-.16-.28-.23-.6-.23-.96,0-.32.07-.63.21-.92.12-.25.29-.43.51-.56.03-.02.03-.04,0-.06-.15-.11-.29-.26-.41-.45-.16-.25-.23-.53-.23-.84,0-.38.11-.72.33-1.02.16-.23.38-.42.66-.54.28-.13.58-.19.93-.19s.66.06.93.19c.27.13.48.31.64.54.21.31.32.65.32,1.02,0,.33-.08.62-.24.86-.11.17-.25.31-.4.41-.02.02-.02.04,0,.06.23.13.4.33.53.58.13.26.2.57.2.91ZM264.24,112.95c0-.28-.05-.49-.14-.65-.15-.28-.41-.41-.79-.41-.35,0-.61.13-.77.4-.1.16-.15.39-.15.68s.05.5.16.67c.16.26.42.4.77.4.34,0,.58-.12.74-.37.13-.17.19-.41.19-.71ZM262.43,110.22c0,.2.05.39.15.55.14.25.38.37.72.37s.57-.13.74-.38c.09-.13.13-.31.13-.55,0-.13-.03-.27-.1-.41-.08-.14-.18-.25-.32-.33-.13-.08-.29-.12-.47-.12-.17,0-.32.04-.45.12-.13.08-.23.19-.31.34-.07.16-.11.29-.11.41Z" fill="#003a5b"/><path d="M266.03,112.57s-.03-.05-.03-.08v-.68s.01-.06.03-.08c.02-.02.05-.03.08-.03h2.83s.05.01.08.03c.02.02.03.05.03.08v.68s-.01.06-.03.08c-.02.02-.05.03-.08.03h-2.83s-.06-.01-.08-.03Z" fill="#003a5b"/><path d="M271.18,113.94s.01.02.03.02h2.56s.06.01.08.03c.02.02.03.05.03.08v.68s-.01.06-.03.08-.05.03-.08.03h-3.87s-.05-.01-.08-.03c-.02-.02-.03-.05-.03-.08v-.65c0-.05.02-.1.05-.14.46-.49.98-1.08,1.58-1.79l.42-.49c.55-.64.83-1.13.83-1.46,0-.25-.09-.45-.26-.6-.17-.16-.4-.23-.67-.23s-.5.08-.67.23c-.17.16-.26.36-.26.62v.23s0,.06-.03.08c-.02.02-.05.03-.08.03h-.84s-.06-.01-.08-.03c-.02-.02-.03-.05-.03-.08v-.39c.01-.32.11-.61.28-.85.17-.24.41-.43.71-.56s.63-.2,1-.2c.4,0,.75.08,1.05.23s.53.36.69.62c.16.26.24.55.24.88,0,.49-.26,1.06-.78,1.7-.29.36-.76.9-1.42,1.62l-.34.38s-.02.02-.01.04Z" fill="#003a5b"/><path d="M275.35,114.42c-.37-.36-.55-.84-.55-1.44v-2.54c0-.6.18-1.08.55-1.43.37-.35.87-.53,1.5-.53s1.13.18,1.51.53c.38.35.56.83.56,1.43v2.54c0,.61-.19,1.09-.56,1.44s-.88.54-1.51.54-1.13-.18-1.5-.54ZM277.6,113.78c.19-.18.28-.43.28-.74v-2.63c0-.31-.09-.56-.28-.74-.19-.18-.43-.27-.75-.27s-.55.09-.73.27c-.18.18-.27.43-.27.74v2.63c0,.31.09.56.27.74s.43.27.73.27.56-.09.75-.27Z" fill="#003a5b"/><path d="M283.74,112.85c0,.34-.05.63-.15.89-.14.38-.37.67-.68.88-.32.21-.7.31-1.15.31s-.83-.11-1.16-.34c-.33-.23-.56-.53-.7-.91-.07-.19-.11-.43-.13-.73,0-.07.04-.11.11-.11h.84c.07,0,.11.04.11.11.01.19.04.35.09.46.05.19.15.34.3.45.15.11.33.17.54.17.4,0,.67-.18.82-.54.08-.17.12-.4.12-.67,0-.31-.04-.56-.13-.76-.16-.34-.43-.5-.81-.5-.1,0-.24.06-.41.18-.02.01-.04.02-.06.02-.03,0-.06-.02-.09-.05l-.41-.58s-.03-.05-.03-.07c0-.03.01-.06.04-.08l1.49-1.46s.01-.02,0-.04c0-.01-.02-.02-.04-.02h-2.25s-.05-.01-.08-.03-.03-.05-.03-.08v-.68s0-.06.03-.08.05-.03.08-.03h3.59s.05.01.08.03c.02.02.03.05.03.08v.78c0,.05-.02.1-.05.14l-1.29,1.3s-.01.04.04.05c.56.08.95.39,1.19.93.12.29.18.62.18.99Z" fill="#003a5b"/><path d="M285.73,108.56h.86s.05.01.08.03c.02.02.03.05.03.08v6.08s-.01.06-.03.08-.05.03-.08.03h-.83s-.06-.01-.08-.03-.03-.05-.03-.08v-5.11s0-.02-.02-.03c-.01,0-.02-.01-.04,0l-.9.28s-.03,0-.04,0c-.02,0-.04,0-.06-.03s-.02-.04-.02-.07l-.03-.59c0-.06.02-.1.07-.13l.97-.49s.09-.03.13-.03Z" fill="#003a5b"/><path d="M331.24,113.94s.01.02.03.02h2.56s.06.01.08.03c.02.02.03.05.03.08v.68s-.01.06-.03.08-.05.03-.08.03h-3.87s-.05-.01-.08-.03c-.02-.02-.03-.05-.03-.08v-.65c0-.05.02-.1.05-.14.46-.49.98-1.08,1.58-1.79l.42-.49c.55-.64.83-1.13.83-1.46,0-.25-.09-.45-.26-.6-.17-.16-.4-.23-.67-.23s-.5.08-.67.23c-.17.16-.26.36-.26.62v.23s0,.06-.03.08c-.02.02-.05.03-.08.03h-.84s-.06-.01-.08-.03c-.02-.02-.03-.05-.03-.08v-.39c.01-.32.11-.61.28-.85.17-.24.41-.43.71-.56s.63-.2,1-.2c.4,0,.75.08,1.05.23s.53.36.69.62c.16.26.24.55.24.88,0,.49-.26,1.06-.78,1.7-.29.36-.76.9-1.42,1.62l-.34.38s-.02.02-.01.04Z" fill="#003a5b"/><path d="M335.42,114.42c-.37-.36-.55-.84-.55-1.44v-2.54c0-.6.18-1.08.55-1.43.37-.35.87-.53,1.5-.53s1.13.18,1.51.53c.38.35.56.83.56,1.43v2.54c0,.61-.19,1.09-.56,1.44s-.88.54-1.51.54-1.13-.18-1.5-.54ZM337.66,113.78c.19-.18.28-.43.28-.74v-2.63c0-.31-.09-.56-.28-.74-.19-.18-.43-.27-.75-.27s-.55.09-.73.27c-.18.18-.27.43-.27.74v2.63c0,.31.09.56.27.74s.43.27.73.27.56-.09.75-.27Z" fill="#003a5b"/><path d="M343.8,112.85c0,.34-.05.63-.15.89-.14.38-.37.67-.68.88-.32.21-.7.31-1.15.31s-.83-.11-1.16-.34c-.33-.23-.56-.53-.7-.91-.07-.19-.11-.43-.13-.73,0-.07.04-.11.11-.11h.84c.07,0,.11.04.11.11.01.19.04.35.09.46.05.19.15.34.3.45.15.11.33.17.54.17.4,0,.67-.18.82-.54.08-.17.12-.4.12-.67,0-.31-.04-.56-.13-.76-.16-.34-.43-.5-.81-.5-.1,0-.24.06-.41.18-.02.01-.04.02-.06.02-.03,0-.06-.02-.09-.05l-.41-.58s-.03-.05-.03-.07c0-.03.01-.06.04-.08l1.49-1.46s.01-.02,0-.04c0-.01-.02-.02-.04-.02h-2.25s-.05-.01-.08-.03-.03-.05-.03-.08v-.68s0-.06.03-.08.05-.03.08-.03h3.59s.05.01.08.03c.02.02.03.05.03.08v.78c0,.05-.02.1-.05.14l-1.29,1.3s-.01.04.04.05c.56.08.95.39,1.19.93.12.29.18.62.18.99Z" fill="#003a5b"/><path d="M346.09,113.94s.01.02.03.02h2.56s.06.01.08.03c.02.02.03.05.03.08v.68s-.01.06-.03.08-.05.03-.08.03h-3.87s-.05-.01-.08-.03c-.02-.02-.03-.05-.03-.08v-.65c0-.05.02-.1.05-.14.46-.49.98-1.08,1.58-1.79l.42-.49c.55-.64.83-1.13.83-1.46,0-.25-.09-.45-.26-.6-.17-.16-.4-.23-.67-.23s-.5.08-.67.23c-.17.16-.26.36-.26.62v.23s0,.06-.03.08c-.02.02-.05.03-.08.03h-.84s-.06-.01-.08-.03c-.02-.02-.03-.05-.03-.08v-.39c.01-.32.11-.61.28-.85.17-.24.41-.43.71-.56s.63-.2,1-.2c.4,0,.75.08,1.05.23s.53.36.69.62c.16.26.24.55.24.88,0,.49-.26,1.06-.78,1.7-.29.36-.76.9-1.42,1.62l-.34.38s-.02.02-.01.04Z" fill="#003a5b"/><path d="M349.54,112.57s-.03-.05-.03-.08v-.68s.01-.06.03-.08c.02-.02.05-.03.08-.03h2.83s.05.01.08.03c.02.02.03.05.03.08v.68s-.01.06-.03.08c-.02.02-.05.03-.08.03h-2.83s-.06-.01-.08-.03Z" fill="#003a5b"/><path d="M354.69,113.94s.01.02.03.02h2.56s.06.01.08.03c.02.02.03.05.03.08v.68s-.01.06-.03.08-.05.03-.08.03h-3.87s-.05-.01-.08-.03c-.02-.02-.03-.05-.03-.08v-.65c0-.05.02-.1.05-.14.46-.49.98-1.08,1.58-1.79l.42-.49c.55-.64.83-1.13.83-1.46,0-.25-.09-.45-.26-.6-.17-.16-.4-.23-.67-.23s-.5.08-.67.23c-.17.16-.26.36-.26.62v.23s0,.06-.03.08c-.02.02-.05.03-.08.03h-.84s-.06-.01-.08-.03c-.02-.02-.03-.05-.03-.08v-.39c.01-.32.11-.61.28-.85.17-.24.41-.43.71-.56s.63-.2,1-.2c.4,0,.75.08,1.05.23s.53.36.69.62c.16.26.24.55.24.88,0,.49-.26,1.06-.78,1.7-.29.36-.76.9-1.42,1.62l-.34.38s-.02.02-.01.04Z" fill="#003a5b"/><path d="M358.86,114.42c-.37-.36-.55-.84-.55-1.44v-2.54c0-.6.18-1.08.55-1.43.37-.35.87-.53,1.5-.53s1.13.18,1.51.53c.38.35.56.83.56,1.43v2.54c0,.61-.19,1.09-.56,1.44s-.88.54-1.51.54-1.13-.18-1.5-.54ZM361.11,113.78c.19-.18.28-.43.28-.74v-2.63c0-.31-.09-.56-.28-.74-.19-.18-.43-.27-.75-.27s-.55.09-.73.27c-.18.18-.27.43-.27.74v2.63c0,.31.09.56.27.74s.43.27.73.27.56-.09.75-.27Z" fill="#003a5b"/><path d="M367.25,112.85c0,.34-.05.63-.15.89-.14.38-.37.67-.68.88-.32.21-.7.31-1.15.31s-.83-.11-1.16-.34c-.33-.23-.56-.53-.7-.91-.07-.19-.11-.43-.13-.73,0-.07.04-.11.11-.11h.84c.07,0,.11.04.11.11.01.19.04.35.09.46.05.19.15.34.3.45.15.11.33.17.54.17.4,0,.67-.18.82-.54.08-.17.12-.4.12-.67,0-.31-.04-.56-.13-.76-.16-.34-.43-.5-.81-.5-.1,0-.24.06-.41.18-.02.01-.04.02-.06.02-.03,0-.06-.02-.09-.05l-.41-.58s-.03-.05-.03-.07c0-.03.01-.06.04-.08l1.49-1.46s.01-.02,0-.04c0-.01-.02-.02-.04-.02h-2.25s-.05-.01-.08-.03-.03-.05-.03-.08v-.68s0-.06.03-.08.05-.03.08-.03h3.59s.05.01.08.03c.02.02.03.05.03.08v.78c0,.05-.02.1-.05.14l-1.29,1.3s-.01.04.04.05c.56.08.95.39,1.19.93.12.29.18.62.18.99Z" fill="#003a5b"/><path d="M372.12,112.87c0,.28-.04.55-.12.8-.13.38-.36.69-.69.91-.34.23-.73.34-1.18.34s-.83-.11-1.16-.33c-.33-.22-.56-.51-.69-.89-.05-.13-.09-.28-.12-.45v-.02c0-.07.04-.1.11-.1h.85c.06,0,.1.03.12.1,0,.04.02.09.04.16.07.2.17.35.32.46.14.11.32.16.52.16s.39-.06.54-.18c.15-.12.25-.28.32-.48.05-.14.08-.31.08-.49,0-.17-.02-.35-.07-.51-.04-.2-.14-.35-.29-.45-.15-.1-.33-.16-.55-.16-.2,0-.39.05-.55.14-.17.09-.27.21-.32.36-.02.06-.07.09-.13.09h-.87s-.06-.01-.08-.03c-.02-.02-.03-.05-.03-.08v-3.56s.01-.06.03-.08c.02-.02.05-.03.08-.03h3.5s.06.01.08.03c.02.02.03.05.03.08v.68s0,.06-.03.08c-.02.02-.05.03-.08.03h-2.52s-.04.02-.04.04v1.62s0,.04,0,.04c.01,0,.02,0,.04-.01.28-.21.62-.31,1.02-.31.42,0,.78.11,1.09.32.31.21.52.51.63.88.08.27.12.55.12.84Z" fill="#003a5b"/><path d="M166.82,115.74s.02.02.04.02h3.42s.07.01.1.04c.03.03.04.06.04.1v.91s-.01.07-.04.1c-.03.03-.06.04-.1.04h-5.16s-.07-.01-.1-.04c-.03-.03-.04-.06-.04-.1v-.86c0-.07.02-.13.07-.18.61-.65,1.31-1.44,2.11-2.39l.56-.66c.74-.86,1.1-1.5,1.1-1.94,0-.33-.12-.6-.35-.8-.23-.21-.53-.31-.9-.31s-.67.1-.89.31c-.23.21-.34.48-.34.83v.31s-.01.07-.04.1c-.03.03-.06.04-.1.04h-1.12s-.07-.01-.1-.04c-.03-.03-.04-.06-.04-.1v-.52c.02-.43.14-.81.37-1.13.23-.32.55-.57.94-.74.4-.18.84-.26,1.33-.26.54,0,1,.1,1.4.3s.71.47.92.82.32.74.32,1.17c0,.66-.35,1.41-1.04,2.27-.38.48-1.02,1.2-1.9,2.16l-.46.5s-.02.03-.02.05Z" fill="#003a5b"/><path d="M172.38,116.38c-.49-.48-.74-1.12-.74-1.93v-3.38c0-.8.25-1.43.74-1.9.49-.47,1.16-.7,2-.7s1.51.23,2.01.7c.5.47.75,1.1.75,1.9v3.38c0,.81-.25,1.45-.75,1.93s-1.17.71-2.01.71-1.51-.24-2-.71ZM175.38,115.51c.25-.24.37-.57.37-.99v-3.5c0-.42-.12-.75-.37-.99-.25-.24-.58-.37-1-.37s-.73.12-.98.37c-.24.24-.37.57-.37.99v3.5c0,.42.12.75.37.99s.57.37.98.37.75-.12,1-.37Z" fill="#003a5b"/><path d="M180.24,115.74s.02.02.04.02h3.42s.07.01.1.04c.03.03.04.06.04.1v.91s-.01.07-.04.1c-.03.03-.06.04-.1.04h-5.16s-.07-.01-.1-.04c-.03-.03-.04-.06-.04-.1v-.86c0-.07.02-.13.07-.18.61-.65,1.31-1.44,2.11-2.39l.56-.66c.74-.86,1.1-1.5,1.1-1.94,0-.33-.12-.6-.35-.8-.23-.21-.53-.31-.9-.31s-.67.1-.89.31c-.23.21-.34.48-.34.83v.31s-.01.07-.04.1c-.03.03-.06.04-.1.04h-1.12s-.07-.01-.1-.04c-.03-.03-.04-.06-.04-.1v-.52c.02-.43.14-.81.37-1.13.23-.32.55-.57.94-.74.4-.18.84-.26,1.33-.26.54,0,1,.1,1.4.3s.71.47.92.82.32.74.32,1.17c0,.66-.35,1.41-1.04,2.27-.38.48-1.02,1.2-1.9,2.16l-.46.5s-.02.03-.02.05Z" fill="#003a5b"/><path d="M190.78,113.55s.04.06.04.1v.96s-.01.07-.04.1c-.03.03-.06.04-.1.04h-.5s-.06.02-.06.06v2s-.01.07-.04.1c-.03.03-.06.04-.1.04h-1.1s-.07-.01-.1-.04c-.03-.03-.04-.06-.04-.1v-2s-.02-.06-.06-.06h-3.65s-.07-.01-.1-.04c-.03-.03-.04-.06-.04-.1v-.77s.01-.11.04-.18l2.27-4.99c.03-.07.09-.11.17-.11h1.18c.06,0,.09.01.11.04.02.03.02.07,0,.13l-2.14,4.7s0,.03,0,.05.02.02.04.02h2.14s.06-.02.06-.06v-1.63s.01-.07.04-.1c.03-.03.06-.04.1-.04h1.1s.07.01.1.04c.03.03.04.06.04.1v1.63s.02.06.06.06h.5s.07.01.1.04Z" fill="#003a5b"/><path d="M191.86,113.91s-.04-.06-.04-.1v-.91s.01-.07.04-.1.06-.04.1-.04h3.78s.07.01.1.04c.03.03.04.06.04.1v.91s-.01.07-.04.1c-.03.03-.06.04-.1.04h-3.78s-.07-.01-.1-.04Z" fill="#003a5b"/><path d="M198.72,115.74s.02.02.04.02h3.42s.07.01.1.04c.03.03.04.06.04.1v.91s-.01.07-.04.1c-.03.03-.06.04-.1.04h-5.16s-.07-.01-.1-.04c-.03-.03-.04-.06-.04-.1v-.86c0-.07.02-.13.07-.18.61-.65,1.31-1.44,2.11-2.39l.56-.66c.74-.86,1.1-1.5,1.1-1.94,0-.33-.12-.6-.35-.8-.23-.21-.53-.31-.9-.31s-.67.1-.89.31c-.23.21-.34.48-.34.83v.31s-.01.07-.04.1c-.03.03-.06.04-.1.04h-1.12s-.07-.01-.1-.04c-.03-.03-.04-.06-.04-.1v-.52c.02-.43.14-.81.37-1.13.23-.32.55-.57.94-.74.4-.18.84-.26,1.33-.26.54,0,1,.1,1.4.3s.71.47.92.82.32.74.32,1.17c0,.66-.35,1.41-1.04,2.27-.38.48-1.02,1.2-1.9,2.16l-.46.5s-.02.03-.02.05Z" fill="#003a5b"/><path d="M204.29,116.38c-.49-.48-.74-1.12-.74-1.93v-3.38c0-.8.25-1.43.74-1.9.49-.47,1.16-.7,2-.7s1.51.23,2.01.7c.5.47.75,1.1.75,1.9v3.38c0,.81-.25,1.45-.75,1.93s-1.17.71-2.01.71-1.51-.24-2-.71ZM207.28,115.51c.25-.24.37-.57.37-.99v-3.5c0-.42-.12-.75-.37-.99-.25-.24-.58-.37-1-.37s-.73.12-.98.37c-.24.24-.37.57-.37.99v3.5c0,.42.12.75.37.99s.57.37.98.37.75-.12,1-.37Z" fill="#003a5b"/><path d="M212.15,115.74s.02.02.04.02h3.42s.07.01.1.04c.03.03.04.06.04.1v.91s-.01.07-.04.1c-.03.03-.06.04-.1.04h-5.16s-.07-.01-.1-.04c-.03-.03-.04-.06-.04-.1v-.86c0-.07.02-.13.07-.18.61-.65,1.31-1.44,2.11-2.39l.56-.66c.74-.86,1.1-1.5,1.1-1.94,0-.33-.12-.6-.35-.8-.23-.21-.53-.31-.9-.31s-.67.1-.89.31c-.23.21-.34.48-.34.83v.31s-.01.07-.04.1c-.03.03-.06.04-.1.04h-1.12s-.07-.01-.1-.04c-.03-.03-.04-.06-.04-.1v-.52c.02-.43.14-.81.37-1.13.23-.32.55-.57.94-.74.4-.18.84-.26,1.33-.26.54,0,1,.1,1.4.3s.71.47.92.82.32.74.32,1.17c0,.66-.35,1.41-1.04,2.27-.38.48-1.02,1.2-1.9,2.16l-.46.5s-.02.03-.02.05Z" fill="#003a5b"/><path d="M217.82,116.79l2.65-6.96s0-.07-.05-.07h-2.58s-.06.02-.06.06v.54s-.01.07-.04.1c-.03.03-.06.04-.1.04h-.86s-.07-.01-.1-.04c-.03-.03-.04-.06-.04-.1v-1.66s.01-.07.04-.1c.03-.03.06-.04.1-.04h5.05s.07.01.1.04c.03.03.04.06.04.1v.96s-.01.11-.04.18l-2.64,7c-.02.08-.08.12-.17.12h-1.19c-.12,0-.16-.06-.12-.17Z" fill="#003a5b"/><path d="M97.03,113.94s.01.02.03.02h2.56s.06.01.08.03c.02.02.03.05.03.08v.68s-.01.06-.03.08-.05.03-.08.03h-3.87s-.05-.01-.08-.03c-.02-.02-.03-.05-.03-.08v-.65c0-.05.02-.1.05-.14.46-.49.98-1.08,1.58-1.79l.42-.49c.55-.64.83-1.13.83-1.46,0-.25-.09-.45-.26-.6-.17-.16-.4-.23-.67-.23s-.5.08-.67.23c-.17.16-.26.36-.26.62v.23s0,.06-.03.08c-.02.02-.05.03-.08.03h-.84s-.06-.01-.08-.03c-.02-.02-.03-.05-.03-.08v-.39c.01-.32.11-.61.28-.85.17-.24.41-.43.71-.56s.63-.2,1-.2c.4,0,.75.08,1.05.23s.53.36.69.62c.16.26.24.55.24.88,0,.49-.26,1.06-.78,1.7-.29.36-.76.9-1.42,1.62l-.34.38s-.02.02-.01.04Z" fill="#003a5b"/><path d="M101.2,114.42c-.37-.36-.55-.84-.55-1.44v-2.54c0-.6.18-1.08.55-1.43.37-.35.87-.53,1.5-.53s1.13.18,1.51.53c.38.35.56.83.56,1.43v2.54c0,.61-.19,1.09-.56,1.44s-.88.54-1.51.54-1.13-.18-1.5-.54ZM103.45,113.78c.19-.18.28-.43.28-.74v-2.63c0-.31-.09-.56-.28-.74-.19-.18-.43-.27-.75-.27s-.55.09-.73.27c-.18.18-.27.43-.27.74v2.63c0,.31.09.56.27.74s.43.27.73.27.56-.09.75-.27Z" fill="#003a5b"/><path d="M107.1,113.94s.01.02.03.02h2.56s.06.01.08.03c.02.02.03.05.03.08v.68s-.01.06-.03.08-.05.03-.08.03h-3.87s-.05-.01-.08-.03c-.02-.02-.03-.05-.03-.08v-.65c0-.05.02-.1.05-.14.46-.49.98-1.08,1.58-1.79l.42-.49c.55-.64.83-1.13.83-1.46,0-.25-.09-.45-.26-.6-.17-.16-.4-.23-.67-.23s-.5.08-.67.23c-.17.16-.26.36-.26.62v.23s0,.06-.03.08c-.02.02-.05.03-.08.03h-.84s-.06-.01-.08-.03c-.02-.02-.03-.05-.03-.08v-.39c.01-.32.11-.61.28-.85.17-.24.41-.43.71-.56s.63-.2,1-.2c.4,0,.75.08,1.05.23s.53.36.69.62c.16.26.24.55.24.88,0,.49-.26,1.06-.78,1.7-.29.36-.76.9-1.42,1.62l-.34.38s-.02.02-.01.04Z" fill="#003a5b"/><path d="M111.28,114.42c-.37-.36-.55-.84-.55-1.44v-2.54c0-.6.18-1.08.55-1.43.37-.35.87-.53,1.5-.53s1.13.18,1.51.53c.38.35.56.83.56,1.43v2.54c0,.61-.19,1.09-.56,1.44s-.88.54-1.51.54-1.13-.18-1.5-.54ZM113.52,113.78c.19-.18.28-.43.28-.74v-2.63c0-.31-.09-.56-.28-.74-.19-.18-.43-.27-.75-.27s-.55.09-.73.27c-.18.18-.27.43-.27.74v2.63c0,.31.09.56.27.74s.43.27.73.27.56-.09.75-.27Z" fill="#003a5b"/><path d="M115.66,112.57s-.03-.05-.03-.08v-.68s.01-.06.03-.08c.02-.02.05-.03.08-.03h2.83s.05.01.08.03c.02.02.03.05.03.08v.68s-.01.06-.03.08c-.02.02-.05.03-.08.03h-2.83s-.06-.01-.08-.03Z" fill="#003a5b"/><path d="M120.81,113.94s.01.02.03.02h2.56s.06.01.08.03c.02.02.03.05.03.08v.68s-.01.06-.03.08-.05.03-.08.03h-3.87s-.05-.01-.08-.03c-.02-.02-.03-.05-.03-.08v-.65c0-.05.02-.1.05-.14.46-.49.98-1.08,1.58-1.79l.42-.49c.55-.64.83-1.13.83-1.46,0-.25-.09-.45-.26-.6-.17-.16-.4-.23-.67-.23s-.5.08-.67.23c-.17.16-.26.36-.26.62v.23s0,.06-.03.08c-.02.02-.05.03-.08.03h-.84s-.06-.01-.08-.03c-.02-.02-.03-.05-.03-.08v-.39c.01-.32.11-.61.28-.85.17-.24.41-.43.71-.56s.63-.2,1-.2c.4,0,.75.08,1.05.23s.53.36.69.62c.16.26.24.55.24.88,0,.49-.26,1.06-.78,1.7-.29.36-.76.9-1.42,1.62l-.34.38s-.02.02-.01.04Z" fill="#003a5b"/><path d="M124.98,114.42c-.37-.36-.55-.84-.55-1.44v-2.54c0-.6.18-1.08.55-1.43.37-.35.87-.53,1.5-.53s1.13.18,1.51.53c.38.35.56.83.56,1.43v2.54c0,.61-.19,1.09-.56,1.44s-.88.54-1.51.54-1.13-.18-1.5-.54ZM127.23,113.78c.19-.18.28-.43.28-.74v-2.63c0-.31-.09-.56-.28-.74-.19-.18-.43-.27-.75-.27s-.55.09-.73.27c-.18.18-.27.43-.27.74v2.63c0,.31.09.56.27.74s.43.27.73.27.56-.09.75-.27Z" fill="#003a5b"/><path d="M130.88,113.94s.01.02.03.02h2.56s.06.01.08.03c.02.02.03.05.03.08v.68s-.01.06-.03.08-.05.03-.08.03h-3.87s-.05-.01-.08-.03c-.02-.02-.03-.05-.03-.08v-.65c0-.05.02-.1.05-.14.46-.49.98-1.08,1.58-1.79l.42-.49c.55-.64.83-1.13.83-1.46,0-.25-.09-.45-.26-.6-.17-.16-.4-.23-.67-.23s-.5.08-.67.23c-.17.16-.26.36-.26.62v.23s0,.06-.03.08c-.02.02-.05.03-.08.03h-.84s-.06-.01-.08-.03c-.02-.02-.03-.05-.03-.08v-.39c.01-.32.11-.61.28-.85.17-.24.41-.43.71-.56s.63-.2,1-.2c.4,0,.75.08,1.05.23s.53.36.69.62c.16.26.24.55.24.88,0,.49-.26,1.06-.78,1.7-.29.36-.76.9-1.42,1.62l-.34.38s-.02.02-.01.04Z" fill="#003a5b"/><path d="M138.23,112.85c0,.34-.05.63-.15.89-.14.38-.37.67-.68.88-.32.21-.7.31-1.15.31s-.83-.11-1.16-.34c-.33-.23-.56-.53-.7-.91-.07-.19-.11-.43-.13-.73,0-.07.04-.11.11-.11h.84c.07,0,.11.04.11.11.01.19.04.35.09.46.05.19.15.34.3.45.15.11.33.17.54.17.4,0,.67-.18.82-.54.08-.17.12-.4.12-.67,0-.31-.04-.56-.13-.76-.16-.34-.43-.5-.81-.5-.1,0-.24.06-.41.18-.02.01-.04.02-.06.02-.03,0-.06-.02-.09-.05l-.41-.58s-.03-.05-.03-.07c0-.03.01-.06.04-.08l1.49-1.46s.01-.02,0-.04c0-.01-.02-.02-.04-.02h-2.25s-.05-.01-.08-.03-.03-.05-.03-.08v-.68s0-.06.03-.08.05-.03.08-.03h3.59s.05.01.08.03c.02.02.03.05.03.08v.78c0,.05-.02.1-.05.14l-1.29,1.3s-.01.04.04.05c.56.08.95.39,1.19.93.12.29.18.62.18.99Z" fill="#003a5b"/><path d="M93.29,146.27s-.04.02-.06.02h-4.73s-.04,0-.06-.02c-.02-.02-.02-.04-.02-.06v-1.71c0-.33.06-.62.17-.88s.28-.45.5-.58c.22-.14.47-.21.76-.21h2.03c.29,0,.54.07.76.21.22.14.38.33.5.58.12.25.17.54.17.88v1.71s0,.04-.02.06ZM92.62,145.45v-.98c0-.25-.08-.44-.23-.59-.16-.15-.37-.22-.63-.23h-1.77c-.27,0-.48.08-.63.22s-.23.35-.23.6v.97s.01.04.04.04h3.43s.04-.01.04-.04Z" fill="red"/><path d="M93.29,141.94s-.04.02-.06.02h-4.73s-.04,0-.06-.02c-.02-.02-.02-.04-.02-.06v-.64s0-.04.02-.06c.02-.02.04-.02.06-.02h4.73s.04,0,.06.02c.02.02.02.04.02.06v.64s0,.04-.02.06Z" fill="red"/><path d="M93.16,139.42c-.14.27-.33.47-.58.62-.25.15-.53.22-.86.22h-1.73c-.33,0-.61-.07-.86-.22-.25-.14-.44-.35-.57-.62-.14-.27-.2-.57-.2-.92s.06-.65.2-.92c.13-.27.32-.47.55-.62.24-.14.51-.22.83-.22.02,0,.04,0,.06.03.02.02.02.04.02.06l.04.64c0,.06-.03.08-.08.08-.28,0-.5.08-.67.26-.17.17-.25.4-.25.68s.08.51.25.69.39.26.67.26h1.78c.27,0,.49-.09.66-.26s.25-.4.25-.69-.08-.51-.25-.68c-.17-.17-.39-.26-.66-.26-.05,0-.08-.03-.08-.08l.03-.64s0-.04.02-.06c.01-.02.03-.03.05-.03.32,0,.6.07.84.22.24.14.43.35.56.62.13.27.2.57.2.92s-.07.66-.21.92Z" fill="red"/><path d="M92.6,133.56s.01,0,.01-.02v-2s0-.04.02-.06c.02-.02.04-.02.06-.02h.53s.04,0,.06.02c.02.02.02.04.02.06v3.01s0,.04-.02.06c-.02.02-.04.02-.06.02h-.5s-.08-.01-.1-.04c-.38-.36-.84-.77-1.39-1.23l-.38-.33c-.5-.43-.88-.64-1.13-.64-.19,0-.35.07-.47.2-.12.13-.18.31-.18.52s.06.39.18.52c.12.13.28.2.48.2h.18s.04,0,.06.03c.02.02.03.04.03.06v.65s0,.04-.03.06c-.02.02-.04.02-.06.02h-.3c-.25,0-.47-.08-.66-.22-.19-.14-.33-.32-.43-.55-.1-.23-.15-.49-.15-.77,0-.31.06-.59.17-.82.12-.23.28-.41.48-.54s.43-.19.68-.19c.38,0,.82.2,1.32.61.28.22.7.59,1.26,1.11l.29.27s.02.01.03,0Z" fill="red"/><path d="M92.98,130.32c-.28.29-.65.43-1.12.43h-1.97c-.47,0-.84-.14-1.11-.43s-.41-.68-.41-1.17.14-.88.41-1.17.64-.44,1.11-.44h1.97c.47,0,.85.15,1.12.44.28.29.42.68.42,1.17s-.14.88-.42,1.17ZM92.47,128.57c-.14-.15-.33-.22-.58-.22h-2.04c-.24,0-.43.07-.58.22-.14.14-.21.34-.21.58s.07.43.21.57c.14.14.33.21.58.21h2.04c.24,0,.43-.07.58-.21.14-.14.21-.33.21-.57s-.07-.44-.21-.58Z" fill="red"/><path d="M92.6,125.73s.01,0,.01-.02v-2s0-.04.02-.06c.02-.02.04-.02.06-.02h.53s.04,0,.06.02c.02.02.02.04.02.06v3.01s0,.04-.02.06c-.02.02-.04.02-.06.02h-.5s-.08-.01-.1-.04c-.38-.36-.84-.77-1.39-1.23l-.38-.33c-.5-.43-.88-.64-1.13-.64-.19,0-.35.07-.47.2-.12.13-.18.31-.18.52s.06.39.18.52c.12.13.28.2.48.2h.18s.04,0,.06.03c.02.02.03.04.03.06v.65s0,.04-.03.06c-.02.02-.04.02-.06.02h-.3c-.25,0-.47-.08-.66-.22-.19-.14-.33-.32-.43-.55-.1-.23-.15-.49-.15-.77,0-.31.06-.59.17-.82.12-.23.28-.41.48-.54s.43-.19.68-.19c.38,0,.82.2,1.32.61.28.22.7.59,1.26,1.11l.29.27s.02.01.03,0Z" fill="red"/><path d="M88.41,122.14v-.67s0-.04.02-.06c.02-.02.04-.03.06-.03h4.73s.04,0,.06.03c.02.02.02.04.02.06v.64s0,.04-.02.06c-.02.02-.04.02-.06.02h-3.98s-.02,0-.02.01c0,0,0,.02,0,.03l.22.7s0,.02,0,.04c0,.02,0,.03-.02.04s-.03.02-.06.02l-.46.02s-.08-.02-.1-.06l-.38-.76s-.02-.07-.02-.1Z" fill="red"/><path d="M231.86,55.56h1.01s.07.01.09.04c.03.03.04.06.04.09v7.44s-.01.07-.04.09c-.03.03-.06.04-.09.04h-1.01s-.07-.01-.09-.04c-.03-.03-.04-.06-.04-.09v-5.25s0-.04-.03-.04c-.02,0-.03,0-.04.02l-1.38,2.11c-.04.06-.09.09-.15.09h-.51c-.07,0-.12-.03-.15-.09l-1.39-2.1s-.02-.03-.04-.02-.03.02-.03.04v5.24s-.01.07-.04.09c-.03.03-.06.04-.09.04h-1.01s-.07-.01-.09-.04c-.03-.03-.04-.06-.04-.09v-7.44s.01-.07.04-.09c.03-.03.06-.04.09-.04h1.01c.07,0,.12.03.15.09l1.79,2.72s.03.02.04.02c.01,0,.03,0,.03-.02l1.79-2.72c.04-.06.09-.09.15-.09Z" fill="#fff"/><path d="M239.78,56.62s-.06.04-.09.04h-3.75s-.05.02-.05.06v2.06s.02.05.05.05h2.52s.07.01.09.04c.03.03.04.06.04.09v.84s-.01.07-.04.09c-.03.03-.06.04-.09.04h-2.52s-.05.02-.05.06v2.12s.02.05.05.05h3.75s.07.01.09.04c.03.03.04.06.04.09v.84s-.01.07-.04.09c-.03.03-.06.04-.09.04h-4.95s-.07-.01-.09-.04c-.03-.03-.04-.06-.04-.09v-7.44s.01-.07.04-.09c.03-.03.06-.04.09-.04h4.95s.07.01.09.04c.03.03.04.06.04.09v.84s-.01.07-.04.09Z" fill="#fff"/><path d="M241.16,63.22s-.04-.06-.04-.09v-7.44s.01-.07.04-.09c.03-.03.06-.04.09-.04h2.68c.52,0,.98.09,1.38.28.4.18.7.45.92.79.22.34.33.74.33,1.19v3.19c0,.45-.11.85-.33,1.19-.22.34-.52.6-.92.79-.4.18-.85.27-1.38.27h-2.68s-.07-.01-.09-.04ZM242.45,62.16h1.54c.39,0,.7-.12.93-.37s.35-.57.36-.98v-2.78c0-.42-.12-.75-.35-1-.24-.25-.55-.37-.95-.37h-1.53s-.05.02-.05.06v5.39s.02.05.05.05Z" fill="#fff"/><path d="M247.96,63.22s-.04-.06-.04-.09v-7.44s.01-.07.04-.09c.03-.03.06-.04.09-.04h1.01s.07.01.09.04c.03.03.04.06.04.09v7.44s-.01.07-.04.09c-.03.03-.06.04-.09.04h-1.01s-.07-.01-.09-.04Z" fill="#fff"/><path d="M255.43,63.15l-.36-1.18s-.03-.04-.06-.04h-2.9s-.04.01-.06.04l-.36,1.18c-.02.07-.07.11-.14.11h-1.1s-.08-.01-.1-.04c-.02-.03-.03-.06-.01-.12l2.39-7.44c.02-.07.07-.11.14-.11h1.38c.07,0,.12.04.14.11l2.4,7.44s.01.03.01.05c0,.07-.04.1-.12.1h-1.1c-.07,0-.12-.04-.14-.11ZM252.44,60.93h2.23s.06-.02.04-.07l-1.13-3.69s-.02-.04-.03-.04-.03.01-.03.04l-1.12,3.69s0,.07.04.07Z" fill="#fff"/><path d="M262.44,55.6s.06-.04.09-.04h1.01s.07.01.09.04c.03.03.04.06.04.09v7.44s-.01.07-.04.09c-.03.03-.06.04-.09.04h-.98c-.07,0-.12-.03-.15-.09l-3.17-5.19s-.03-.03-.04-.03c-.01,0-.02.02-.02.05l.02,5.13s-.01.07-.04.09c-.03.03-.06.04-.09.04h-1.01s-.07-.01-.09-.04c-.03-.03-.04-.06-.04-.09v-7.44s.01-.07.04-.09c.03-.03.06-.04.09-.04h.98c.07,0,.12.03.15.09l3.16,5.19s.03.03.04.03c.01,0,.02-.02.02-.05v-5.13s0-.07.03-.09Z" fill="#fff"/><path d="M266.43,63.03c-.43-.22-.75-.54-.98-.95-.23-.41-.35-.88-.35-1.42v-2.51c0-.53.12-1,.35-1.4.23-.41.56-.72.98-.95.42-.22.91-.34,1.46-.34s1.05.11,1.47.34c.42.22.75.54.98.95.23.41.35.87.35,1.4v2.51c0,.54-.12,1.01-.35,1.42-.24.41-.56.73-.98.95-.42.22-.91.34-1.47.34s-1.04-.11-1.46-.34ZM269.01,61.84c.28-.29.42-.66.42-1.13v-2.56c0-.48-.14-.86-.42-1.14-.28-.29-.65-.43-1.11-.43s-.82.14-1.1.43c-.28.29-.42.67-.42,1.14v2.56c0,.47.14.85.42,1.13.28.29.65.43,1.1.43s.83-.14,1.11-.43Z" fill="#fff"/><path d="M278.63,55.84c.35.19.62.46.82.81.19.35.29.75.29,1.2s-.1.84-.3,1.19c-.2.34-.48.61-.84.8-.36.19-.78.28-1.26.28h-1.76s-.06.02-.06.06v2.96s-.01.07-.04.09c-.03.03-.06.04-.09.04h-1.01s-.07-.01-.09-.04c-.03-.03-.04-.06-.04-.09v-7.45s.01-.07.04-.09.06-.04.09-.04h3.02c.46,0,.87.1,1.22.29ZM278.13,58.75c.23-.22.34-.51.34-.87s-.11-.66-.34-.89c-.23-.23-.53-.34-.9-.34h-1.64s-.06.02-.06.05v2.32s.02.05.06.05h1.64c.37,0,.67-.11.9-.33Z" fill="#fff"/><path d="M280.9,63.22s-.04-.06-.04-.09v-7.44s.01-.07.04-.09c.03-.03.06-.04.09-.04h1.01s.07.01.09.04c.03.03.04.06.04.09v6.41s.02.05.05.05h3.69s.07.01.09.04c.03.03.04.06.04.09v.84s-.01.07-.04.09c-.03.03-.06.04-.09.04h-4.88s-.07-.01-.09-.04Z" fill="#fff"/><path d="M292.06,63.15l-.36-1.18s-.03-.04-.06-.04h-2.9s-.04.01-.06.04l-.36,1.18c-.02.07-.07.11-.14.11h-1.1s-.08-.01-.1-.04c-.02-.03-.03-.06-.01-.12l2.39-7.44c.02-.07.07-.11.14-.11h1.38c.07,0,.12.04.14.11l2.4,7.44s.01.03.01.05c0,.07-.04.1-.12.1h-1.1c-.07,0-.12-.04-.14-.11ZM289.07,60.93h2.23s.06-.02.04-.07l-1.13-3.69s-.02-.04-.03-.04-.03.01-.03.04l-1.12,3.69s0,.07.04.07Z" fill="#fff"/><path d="M294.34,63.22s-.04-.06-.04-.09v-.94c0-.05.02-.11.05-.17l3.71-5.3s.02-.03.01-.04c0-.01-.02-.02-.04-.02h-3.6s-.07-.01-.09-.04c-.03-.03-.04-.06-.04-.09v-.84s.01-.07.04-.09c.03-.03.06-.04.09-.04h4.95s.07.01.09.04c.03.03.04.06.04.09v.94c0,.05-.02.11-.05.17l-3.71,5.3s-.02.03-.01.04c0,.01.02.02.04.02h3.6s.07.01.09.04c.03.03.04.06.04.09v.84s-.01.07-.04.09c-.03.03-.06.04-.09.04h-4.95s-.07-.01-.09-.04Z" fill="#fff"/><path d="M301.94,63.03c-.43-.22-.75-.54-.98-.95-.23-.41-.35-.88-.35-1.42v-2.51c0-.53.12-1,.35-1.4.23-.41.56-.72.98-.95.42-.22.91-.34,1.46-.34s1.05.11,1.47.34c.42.22.75.54.98.95.23.41.35.87.35,1.4v2.51c0,.54-.12,1.01-.35,1.42-.24.41-.56.73-.98.95-.42.22-.91.34-1.47.34s-1.04-.11-1.46-.34ZM304.51,61.84c.28-.29.42-.66.42-1.13v-2.56c0-.48-.14-.86-.42-1.14-.28-.29-.65-.43-1.11-.43s-.82.14-1.1.43c-.28.29-.42.67-.42,1.14v2.56c0,.47.14.85.42,1.13.28.29.65.43,1.1.43s.83-.14,1.11-.43Z" fill="#fff"/><path d="M316.78,63.22s-.04-.06-.04-.09v-7.44s.01-.07.04-.09c.03-.03.06-.04.09-.04h1.01s.07.01.09.04c.03.03.04.06.04.09v6.41s.02.05.05.05h3.69s.07.01.09.04c.03.03.04.06.04.09v.84s-.01.07-.04.09c-.03.03-.06.04-.09.04h-4.88s-.07-.01-.09-.04Z" fill="#fff"/><path d="M327.94,63.15l-.36-1.18s-.03-.04-.06-.04h-2.9s-.04.01-.06.04l-.36,1.18c-.02.07-.07.11-.14.11h-1.1s-.08-.01-.1-.04c-.02-.03-.03-.06-.01-.12l2.39-7.44c.02-.07.07-.11.14-.11h1.38c.07,0,.12.04.14.11l2.4,7.44s.01.03.01.05c0,.07-.04.1-.12.1h-1.1c-.07,0-.12-.04-.14-.11ZM324.95,60.93h2.23s.06-.02.04-.07l-1.13-3.69s-.02-.04-.03-.04-.03.01-.03.04l-1.12,3.69s0,.07.04.07Z" fill="#fff"/><path d="M334.61,63.16l-1.45-3.17s-.04-.04-.07-.04h-1.32s-.05.02-.05.06v3.12s-.01.07-.04.09c-.03.03-.06.04-.09.04h-1.01s-.07-.01-.09-.04c-.03-.03-.04-.06-.04-.09v-7.44s.01-.07.04-.09c.03-.03.06-.04.09-.04h3.03c.45,0,.84.09,1.19.28.34.19.61.45.8.79.19.34.29.73.29,1.17,0,.51-.13.94-.39,1.29-.26.36-.62.6-1.08.74-.01,0-.03,0-.03.02,0,.01,0,.03,0,.04l1.55,3.2s.02.05.02.07c0,.06-.04.09-.12.09h-1.06c-.07,0-.12-.03-.15-.1ZM331.72,56.72v2.19s.02.06.05.06h1.65c.35,0,.64-.1.85-.31.22-.21.32-.49.32-.83s-.11-.62-.32-.84c-.22-.21-.5-.32-.85-.32h-1.65s-.05.02-.05.06Z" fill="#fff"/><path d="M338.3,63.02c-.42-.22-.74-.52-.97-.92s-.34-.85-.34-1.36v-2.66c0-.52.11-.98.34-1.37.23-.39.55-.7.97-.91s.9-.32,1.45-.32,1.02.11,1.44.32c.41.21.74.5.96.87.23.37.34.78.34,1.24v.09s-.01.07-.04.09c-.03.03-.06.04-.09.04h-1s-.07-.01-.09-.04c-.03-.03-.04-.06-.04-.09v-.06c0-.4-.13-.72-.4-.98-.27-.26-.62-.38-1.07-.38s-.81.13-1.08.4c-.27.27-.41.62-.41,1.06v2.75c0,.44.14.79.43,1.06.29.27.66.4,1.11.4s.79-.12,1.04-.35.38-.55.38-.95v-.68s-.02-.05-.05-.05h-1.35s-.07-.01-.09-.04c-.03-.03-.04-.06-.04-.09v-.81s.01-.07.04-.09c.03-.03.06-.04.09-.04h2.54s.07.01.09.04c.03.03.04.06.04.09v1.41c0,.84-.25,1.5-.74,1.97-.49.47-1.16.7-2,.7-.55,0-1.03-.11-1.45-.32Z" fill="#fff"/><path d="M345.07,63.03c-.43-.22-.75-.54-.98-.95-.23-.41-.35-.88-.35-1.42v-2.51c0-.53.12-1,.35-1.4.23-.41.56-.72.98-.95.42-.22.91-.34,1.46-.34s1.05.11,1.47.34c.42.22.75.54.98.95.23.41.35.87.35,1.4v2.51c0,.54-.12,1.01-.35,1.42-.24.41-.56.73-.98.95-.42.22-.91.34-1.47.34s-1.04-.11-1.46-.34ZM347.64,61.84c.28-.29.42-.66.42-1.13v-2.56c0-.48-.14-.86-.42-1.14-.28-.29-.65-.43-1.11-.43s-.82.14-1.1.43c-.28.29-.42.67-.42,1.14v2.56c0,.47.14.85.42,1.13.28.29.65.43,1.1.43s.83-.14,1.11-.43Z" fill="#fff"/><path d="M357.27,55.84c.35.19.62.46.82.81.19.35.29.75.29,1.2s-.1.84-.3,1.19c-.2.34-.48.61-.84.8-.36.19-.78.28-1.26.28h-1.76s-.06.02-.06.06v2.96s-.01.07-.04.09c-.03.03-.06.04-.09.04h-1.01s-.07-.01-.09-.04c-.03-.03-.04-.06-.04-.09v-7.45s.01-.07.04-.09.06-.04.09-.04h3.02c.46,0,.87.1,1.22.29ZM356.76,58.75c.23-.22.34-.51.34-.87s-.11-.66-.34-.89c-.23-.23-.53-.34-.9-.34h-1.64s-.06.02-.06.05v2.32s.02.05.06.05h1.64c.37,0,.67-.11.9-.33Z" fill="#fff"/><path d="M359.54,63.22s-.04-.06-.04-.09v-7.44s.01-.07.04-.09c.03-.03.06-.04.09-.04h1.01s.07.01.09.04c.03.03.04.06.04.09v6.41s.02.05.05.05h3.69s.07.01.09.04c.03.03.04.06.04.09v.84s-.01.07-.04.09c-.03.03-.06.04-.09.04h-4.88s-.07-.01-.09-.04Z" fill="#fff"/><path d="M370.7,63.15l-.36-1.18s-.03-.04-.06-.04h-2.9s-.04.01-.06.04l-.36,1.18c-.02.07-.07.11-.14.11h-1.1s-.08-.01-.1-.04c-.02-.03-.03-.06-.01-.12l2.39-7.44c.02-.07.07-.11.14-.11h1.38c.07,0,.12.04.14.11l2.4,7.44s.01.03.01.05c0,.07-.04.1-.12.1h-1.1c-.07,0-.12-.04-.14-.11ZM367.71,60.93h2.23s.06-.02.04-.07l-1.13-3.69s-.02-.04-.03-.04-.03.01-.03.04l-1.12,3.69s0,.07.04.07Z" fill="#fff"/><path d="M372.98,63.22s-.04-.06-.04-.09v-.94c0-.05.02-.11.05-.17l3.71-5.3s.02-.03.01-.04c0-.01-.02-.02-.04-.02h-3.6s-.07-.01-.09-.04c-.03-.03-.04-.06-.04-.09v-.84s.01-.07.04-.09c.03-.03.06-.04.09-.04h4.95s.07.01.09.04c.03.03.04.06.04.09v.94c0,.05-.02.11-.05.17l-3.71,5.3s-.02.03-.01.04c0,.01.02.02.04.02h3.6s.07.01.09.04c.03.03.04.06.04.09v.84s-.01.07-.04.09c-.03.03-.06.04-.09.04h-4.95s-.07-.01-.09-.04Z" fill="#fff"/><path d="M380.58,63.03c-.43-.22-.75-.54-.98-.95-.23-.41-.35-.88-.35-1.42v-2.51c0-.53.12-1,.35-1.4.23-.41.56-.72.98-.95.42-.22.91-.34,1.46-.34s1.05.11,1.47.34c.42.22.75.54.98.95.23.41.35.87.35,1.4v2.51c0,.54-.12,1.01-.35,1.42-.24.41-.56.73-.98.95-.42.22-.91.34-1.47.34s-1.04-.11-1.46-.34ZM383.15,61.84c.28-.29.42-.66.42-1.13v-2.56c0-.48-.14-.86-.42-1.14-.28-.29-.65-.43-1.11-.43s-.82.14-1.1.43c-.28.29-.42.67-.42,1.14v2.56c0,.47.14.85.42,1.13.28.29.65.43,1.1.43s.83-.14,1.11-.43Z" fill="#fff"/><path d="M21.72,12.3s-.09.06-.15.06h-6.14c-.06,0-.09.03-.09.09v3.37c0,.06.03.09.09.09h4.12c.06,0,.11.02.15.06s.06.09.06.15v1.37c0,.06-.02.11-.06.15-.04.04-.09.06-.15.06h-4.12c-.06,0-.09.03-.09.09v3.47c0,.06.03.09.09.09h6.14c.06,0,.11.02.15.06s.06.09.06.15v1.37c0,.06-.02.11-.06.15s-.09.06-.15.06h-8.1c-.06,0-.11-.02-.15-.06s-.06-.09-.06-.15v-12.17c0-.06.02-.11.06-.15.04-.04.09-.06.15-.06h8.1c.06,0,.11.02.15.06.04.04.06.09.06.15v1.37c0,.06-.02.11-.06.15Z" fill="#003a5b"/><path d="M30.45,14.68c.58.58.87,1.36.87,2.36v5.9c0,.06-.02.11-.06.15s-.09.06-.15.06h-1.66c-.06,0-.11-.02-.15-.06s-.06-.09-.06-.15v-5.47c0-.55-.16-1-.47-1.34-.31-.34-.73-.51-1.24-.51s-.93.17-1.25.5c-.32.34-.48.78-.48,1.33v5.49c0,.06-.02.11-.06.15s-.09.06-.15.06h-1.66c-.06,0-.11-.02-.15-.06s-.06-.09-.06-.15v-8.77c0-.06.02-.11.06-.15s.09-.06.15-.06h1.66c.06,0,.11.02.15.06s.06.09.06.15v.58s.01.06.04.07c.02.01.04,0,.05-.04.49-.65,1.24-.97,2.23-.97s1.75.29,2.33.86Z" fill="#003a5b"/><path d="M44.34,16.7c1.22.58,1.84,1.57,1.84,2.97,0,1.14-.38,2.01-1.14,2.6-.76.59-1.75.89-2.98.89h-4.54c-.06,0-.11-.02-.15-.06s-.06-.09-.06-.15v-12.17c0-.06.02-.11.06-.15.04-.04.09-.06.15-.06h4.39c1.31,0,2.32.28,3.02.85s1.06,1.42,1.06,2.56c0,1.26-.55,2.14-1.66,2.63-.07.04-.07.07,0,.11ZM39.39,12.45v3.33c0,.06.03.09.09.09h2.43c.64,0,1.14-.15,1.5-.46s.55-.73.55-1.27-.18-.99-.55-1.31c-.37-.32-.87-.48-1.5-.48h-2.43c-.06,0-.09.03-.09.09ZM43.54,20.84c.37-.34.55-.79.55-1.37s-.19-1.05-.56-1.38-.88-.5-1.51-.5h-2.54c-.06,0-.09.03-.09.09v3.56c0,.06.03.09.09.09h2.57c.62,0,1.12-.17,1.48-.5Z" fill="#003a5b"/><path d="M49.77,22.58c-.68-.48-1.16-1.15-1.43-2-.2-.65-.31-1.33-.31-2.05,0-.77.1-1.45.29-2.05.28-.84.76-1.49,1.44-1.96.68-.47,1.51-.7,2.47-.7s1.7.23,2.37.7c.67.47,1.14,1.12,1.41,1.94.22.58.32,1.26.32,2.05s-.1,1.44-.31,2.05c-.28.85-.75,1.52-1.42,2.01s-1.47.73-2.39.73-1.76-.24-2.44-.72ZM53.35,21.13c.32-.25.55-.61.69-1.06.12-.4.18-.9.18-1.51,0-.65-.06-1.15-.18-1.51-.13-.46-.36-.81-.68-1.05s-.72-.37-1.19-.37-.83.12-1.15.37-.56.6-.7,1.05c-.12.42-.18.92-.18,1.51s.06,1.09.18,1.51c.13.46.36.81.69,1.06s.73.38,1.2.38c.44,0,.82-.13,1.14-.38Z" fill="#003a5b"/><path d="M64.01,14.03s.09-.06.15-.06h1.66c.06,0,.11.02.15.06.04.04.06.09.06.15v8.37c0,1.5-.43,2.57-1.29,3.21-.86.64-1.98.96-3.38.96-.37,0-.74-.02-1.1-.05-.13-.01-.2-.09-.2-.23l.05-1.48c0-.13.08-.2.25-.2.35.04.66.05.94.05.9,0,1.56-.18,1.99-.53.43-.35.64-.95.64-1.79v-.14s-.01-.06-.04-.06c-.02,0-.05,0-.07.03-.49.53-1.19.79-2.09.79-.78,0-1.49-.2-2.14-.59-.65-.4-1.1-1-1.35-1.82-.16-.56-.23-1.29-.23-2.18,0-1,.1-1.76.29-2.29.24-.73.65-1.32,1.24-1.75.59-.44,1.28-.66,2.07-.66.95,0,1.69.28,2.21.83.02.04.05.05.07.04.02-.01.04-.04.04-.07v-.43c0-.06.02-.11.06-.15ZM63.92,19.51c.02-.21.03-.55.03-1.02s0-.78-.03-.98c-.02-.2-.06-.39-.12-.58-.1-.4-.29-.71-.58-.95-.29-.24-.67-.36-1.12-.36s-.8.12-1.1.36c-.3.24-.52.56-.65.95-.14.34-.22.86-.22,1.58s.06,1.27.18,1.57c.12.38.34.7.66.95.32.25.7.37,1.14.37.47,0,.85-.12,1.13-.36.29-.24.48-.55.58-.94.05-.18.08-.38.1-.58Z" fill="#003a5b"/><path d="M69.66,22.58c-.68-.48-1.16-1.15-1.43-2-.2-.65-.31-1.33-.31-2.05,0-.77.1-1.45.29-2.05.28-.84.76-1.49,1.44-1.96.68-.47,1.51-.7,2.47-.7s1.7.23,2.37.7c.67.47,1.14,1.12,1.41,1.94.22.58.32,1.26.32,2.05s-.1,1.44-.31,2.05c-.28.85-.75,1.52-1.42,2.01s-1.47.73-2.39.73-1.76-.24-2.44-.72ZM73.24,21.13c.32-.25.55-.61.69-1.06.12-.4.18-.9.18-1.51,0-.65-.06-1.15-.18-1.51-.13-.46-.36-.81-.68-1.05s-.72-.37-1.19-.37-.83.12-1.15.37-.56.6-.7,1.05c-.12.42-.18.92-.18,1.51s.06,1.09.18,1.51c.13.46.36.81.69,1.06s.73.38,1.2.38c.44,0,.82-.13,1.14-.38Z" fill="#003a5b"/><path d="M82.82,15.59s-.09.06-.15.06h-1.84c-.06,0-.09.03-.09.09v4.34c0,.46.1.79.3.99.2.2.51.31.94.31h.54c.06,0,.11.02.15.06.04.04.06.09.06.15v1.35c0,.13-.07.21-.22.23l-.94.02c-.95,0-1.66-.16-2.12-.49-.47-.32-.71-.94-.72-1.84v-5.13c0-.06-.03-.09-.09-.09h-1.03c-.06,0-.11-.02-.15-.06s-.06-.09-.06-.15v-1.26c0-.06.02-.11.06-.15s.09-.06.15-.06h1.03c.06,0,.09-.03.09-.09v-2.11c0-.06.02-.11.06-.15s.09-.06.15-.06h1.57c.06,0,.11.02.15.06s.06.09.06.15v2.11c0,.06.03.09.09.09h1.84c.06,0,.11.02.15.06s.06.09.06.15v1.26c0,.06-.02.11-.06.15Z" fill="#003a5b"/><path d="M90.24,14.21c.58.26,1.02.63,1.33,1.09.31.46.47.99.47,1.57v6.07c0,.06-.02.11-.06.15-.04.04-.09.06-.15.06h-1.66c-.06,0-.11-.02-.15-.06-.04-.04-.06-.09-.06-.15v-.58s-.01-.06-.04-.06c-.02,0-.05,0-.07.03-.59.65-1.44.97-2.56.97-.9,0-1.64-.23-2.22-.68s-.87-1.13-.87-2.03.33-1.66.98-2.19c.65-.52,1.58-.78,2.76-.78h1.93c.06,0,.09-.03.09-.09v-.43c0-.47-.14-.83-.41-1.09-.28-.26-.69-.39-1.24-.39-.46,0-.83.08-1.11.24-.28.16-.46.39-.53.67-.04.14-.12.2-.25.18l-1.75-.22c-.06-.01-.11-.03-.15-.06-.04-.03-.06-.07-.04-.12.1-.73.49-1.33,1.18-1.8.69-.47,1.56-.7,2.6-.7.76,0,1.42.13,2,.4ZM89.32,21.18c.42-.31.63-.71.63-1.19v-.85c0-.06-.03-.09-.09-.09h-1.51c-.64,0-1.14.12-1.5.36-.37.24-.55.58-.55,1.03,0,.38.14.68.42.89.28.21.64.31,1.09.31.59,0,1.09-.16,1.51-.47ZM87.31,12.74s-.02-.11.02-.18l.99-1.85c.05-.1.14-.14.27-.14h1.42c.08,0,.14.03.17.08.03.05.02.12-.03.19l-1.24,1.84c-.06.1-.14.14-.25.14h-1.19c-.08,0-.14-.02-.16-.07Z" fill="#003a5b"/><path d="M99.16,22.93c-.57-.22-1.01-.53-1.32-.92-.31-.39-.47-.82-.47-1.31v-.16c0-.06.02-.11.06-.15.04-.04.09-.06.15-.06h1.58c.06,0,.11.02.15.06.04.04.06.09.06.15v.04c0,.3.16.56.49.78.33.22.75.33,1.25.33s.87-.1,1.17-.3c.3-.2.45-.45.45-.75,0-.28-.12-.48-.37-.62-.25-.14-.64-.28-1.2-.44l-.68-.22c-.61-.18-1.13-.37-1.55-.58s-.77-.48-1.06-.84-.43-.81-.43-1.36c0-.84.33-1.51.99-2.01.66-.5,1.53-.75,2.61-.75.73,0,1.37.12,1.93.35s.98.56,1.28.97c.3.41.45.88.45,1.41,0,.06-.02.11-.06.15s-.09.06-.15.06h-1.53c-.06,0-.11-.02-.15-.06s-.06-.09-.06-.15c0-.31-.15-.57-.46-.78-.31-.21-.72-.31-1.25-.31-.47,0-.85.09-1.14.26-.29.17-.44.42-.44.73,0,.29.14.51.42.66.28.15.75.31,1.41.5l.4.11c.64.19,1.17.39,1.6.58.43.2.8.47,1.1.83.3.35.45.81.45,1.38,0,.85-.34,1.52-1.01,2.01-.67.49-1.57.73-2.68.73-.76,0-1.42-.11-1.99-.33Z" fill="#003a5b"/><path d="M114.43,18.53l-.02.56c0,.14-.07.22-.22.22h-5.63c-.06,0-.09.03-.09.09.04.4.09.67.16.81.29.86.99,1.3,2.11,1.31.82,0,1.46-.34,1.94-1.01.05-.07.11-.11.18-.11.05,0,.09.02.13.05l1.12.92c.11.08.13.18.05.29-.37.53-.87.94-1.48,1.22-.62.29-1.31.43-2.06.43-.94,0-1.73-.21-2.38-.63-.65-.42-1.13-1.01-1.43-1.76-.28-.65-.41-1.55-.41-2.7,0-.7.07-1.26.22-1.69.24-.84.69-1.5,1.36-1.99.67-.49,1.47-.73,2.4-.73,2.36,0,3.7,1.24,4,3.71.05.3.07.64.07,1.01ZM109.26,15.95c-.29.22-.5.53-.62.93-.07.2-.12.47-.14.79-.02.06,0,.09.07.09h3.65c.06,0,.09-.03.09-.09-.02-.3-.06-.53-.11-.68-.11-.43-.32-.77-.64-1.01-.32-.24-.72-.36-1.2-.36-.44,0-.81.11-1.11.33Z" fill="#003a5b"/><path d="M125.71,10.62s.09-.06.15-.06h1.66c.06,0,.11.02.15.06.04.04.06.09.06.15v12.17c0,.06-.02.11-.06.15s-.09.06-.15.06h-1.66c-.06,0-.11-.02-.15-.06s-.06-.09-.06-.15v-.54s-.01-.06-.04-.07c-.02-.01-.05,0-.07.04-.53.62-1.22.94-2.07.94s-1.57-.22-2.16-.67c-.59-.44-1.01-1.06-1.28-1.85-.22-.67-.32-1.42-.32-2.25s.1-1.58.31-2.2c.26-.79.69-1.41,1.28-1.85s1.33-.67,2.21-.67c.83,0,1.51.3,2.03.9.02.02.05.03.07.03.02,0,.04-.03.04-.06v-3.91c0-.06.02-.11.06-.15ZM125.63,18.55c0-.94-.15-1.65-.45-2.14-.32-.53-.78-.79-1.37-.79s-1.09.25-1.44.76c-.36.53-.54,1.26-.54,2.2,0,.84.14,1.53.43,2.07.33.58.85.86,1.53.86.61,0,1.09-.29,1.42-.86.28-.49.41-1.19.41-2.09Z" fill="#003a5b"/><path d="M130.27,12.34c-.24-.24-.36-.55-.36-.92s.12-.68.36-.92.55-.36.92-.36.68.12.92.36.36.55.36.92-.12.68-.36.92-.55.36-.92.36-.68-.12-.92-.36ZM130.17,23.1s-.06-.09-.06-.15v-8.78c0-.06.02-.11.06-.15s.09-.06.15-.06h1.66c.06,0,.11.02.15.06s.06.09.06.15v8.78c0,.06-.02.11-.06.15s-.09.06-.15.06h-1.66c-.06,0-.11-.02-.15-.06Z" fill="#003a5b"/><path d="M136.84,22.98l-2.9-8.78s-.02-.05-.02-.09c0-.11.07-.16.2-.16h1.84c.13,0,.22.06.25.18l1.75,6.01s.03.05.05.05.04-.02.05-.05l1.75-6.01c.04-.12.12-.18.25-.18l1.84.04c.07,0,.13.02.16.06.04.04.04.11.02.19l-2.88,8.75c-.04.12-.11.18-.23.18h-1.89c-.12,0-.2-.06-.23-.18Z" fill="#003a5b"/><path d="M143.93,12.34c-.24-.24-.36-.55-.36-.92s.12-.68.36-.92.55-.36.92-.36.68.12.92.36.36.55.36.92-.12.68-.36.92-.55.36-.92.36-.68-.12-.92-.36ZM143.83,23.1s-.06-.09-.06-.15v-8.78c0-.06.02-.11.06-.15s.09-.06.15-.06h1.66c.06,0,.11.02.15.06s.06.09.06.15v8.78c0,.06-.02.11-.06.15s-.09.06-.15.06h-1.66c-.06,0-.11-.02-.15-.06Z" fill="#003a5b"/><path d="M154.02,10.62s.09-.06.15-.06h1.66c.06,0,.11.02.15.06.04.04.06.09.06.15v12.17c0,.06-.02.11-.06.15s-.09.06-.15.06h-1.66c-.06,0-.11-.02-.15-.06s-.06-.09-.06-.15v-.54s-.01-.06-.04-.07c-.02-.01-.05,0-.07.04-.53.62-1.22.94-2.07.94s-1.57-.22-2.16-.67c-.59-.44-1.01-1.06-1.28-1.85-.22-.67-.32-1.42-.32-2.25s.1-1.58.31-2.2c.26-.79.69-1.41,1.28-1.85s1.33-.67,2.21-.67c.83,0,1.51.3,2.03.9.02.02.05.03.07.03.02,0,.04-.03.04-.06v-3.91c0-.06.02-.11.06-.15ZM153.94,18.55c0-.94-.15-1.65-.45-2.14-.32-.53-.78-.79-1.37-.79s-1.09.25-1.44.76c-.36.53-.54,1.26-.54,2.2,0,.84.14,1.53.43,2.07.33.58.85.86,1.53.86.61,0,1.09-.29,1.42-.86.28-.49.41-1.19.41-2.09Z" fill="#003a5b"/><path d="M166.14,18.53l-.02.56c0,.14-.07.22-.22.22h-5.63c-.06,0-.09.03-.09.09.04.4.09.67.16.81.29.86.99,1.3,2.11,1.31.82,0,1.46-.34,1.94-1.01.05-.07.11-.11.18-.11.05,0,.09.02.13.05l1.12.92c.11.08.13.18.05.29-.37.53-.87.94-1.48,1.22-.62.29-1.31.43-2.06.43-.94,0-1.73-.21-2.38-.63-.65-.42-1.13-1.01-1.43-1.76-.28-.65-.41-1.55-.41-2.7,0-.7.07-1.26.22-1.69.24-.84.69-1.5,1.36-1.99.67-.49,1.47-.73,2.4-.73,2.36,0,3.7,1.24,4,3.71.05.3.07.64.07,1.01ZM160.97,15.95c-.29.22-.5.53-.62.93-.07.2-.12.47-.14.79-.02.06,0,.09.07.09h3.65c.06,0,.09-.03.09-.09-.02-.3-.06-.53-.11-.68-.11-.43-.32-.77-.64-1.01-.32-.24-.72-.36-1.2-.36-.44,0-.81.11-1.11.33Z" fill="#003a5b"/><path d="M177.42,10.62s.09-.06.15-.06h1.66c.06,0,.11.02.15.06.04.04.06.09.06.15v12.17c0,.06-.02.11-.06.15s-.09.06-.15.06h-1.66c-.06,0-.11-.02-.15-.06s-.06-.09-.06-.15v-.54s-.01-.06-.04-.07c-.02-.01-.05,0-.07.04-.53.62-1.22.94-2.07.94s-1.57-.22-2.16-.67c-.59-.44-1.01-1.06-1.28-1.85-.22-.67-.32-1.42-.32-2.25s.1-1.58.31-2.2c.26-.79.69-1.41,1.28-1.85s1.33-.67,2.21-.67c.83,0,1.51.3,2.03.9.02.02.05.03.07.03.02,0,.04-.03.04-.06v-3.91c0-.06.02-.11.06-.15ZM177.34,18.55c0-.94-.15-1.65-.45-2.14-.32-.53-.78-.79-1.37-.79s-1.09.25-1.44.76c-.36.53-.54,1.26-.54,2.2,0,.84.14,1.53.43,2.07.33.58.85.86,1.53.86.61,0,1.09-.29,1.42-.86.28-.49.41-1.19.41-2.09Z" fill="#003a5b"/><path d="M189.54,18.53l-.02.56c0,.14-.07.22-.22.22h-5.63c-.06,0-.09.03-.09.09.04.4.09.67.16.81.29.86.99,1.3,2.11,1.31.82,0,1.46-.34,1.94-1.01.05-.07.11-.11.18-.11.05,0,.09.02.13.05l1.12.92c.11.08.13.18.05.29-.37.53-.87.94-1.48,1.22-.62.29-1.31.43-2.06.43-.94,0-1.73-.21-2.38-.63-.65-.42-1.13-1.01-1.43-1.76-.28-.65-.41-1.55-.41-2.7,0-.7.07-1.26.22-1.69.24-.84.69-1.5,1.36-1.99.67-.49,1.47-.73,2.4-.73,2.36,0,3.7,1.24,4,3.71.05.3.07.64.07,1.01ZM184.37,15.95c-.29.22-.5.53-.62.93-.07.2-.12.47-.14.79-.02.06,0,.09.07.09h3.65c.06,0,.09-.03.09-.09-.02-.3-.06-.53-.11-.68-.11-.43-.32-.77-.64-1.01-.32-.24-.72-.36-1.2-.36-.44,0-.81.11-1.11.33Z" fill="#003a5b"/><path d="M195.11,23.1s-.06-.09-.06-.15v-12.17c0-.06.02-.11.06-.15.04-.04.09-.06.15-.06h1.66c.06,0,.11.02.15.06.04.04.06.09.06.15v12.17c0,.06-.02.11-.06.15s-.09.06-.15.06h-1.66c-.06,0-.11-.02-.15-.06Z" fill="#003a5b"/><path d="M204.86,14.21c.58.26,1.02.63,1.33,1.09.31.46.47.99.47,1.57v6.07c0,.06-.02.11-.06.15-.04.04-.09.06-.15.06h-1.66c-.06,0-.11-.02-.15-.06-.04-.04-.06-.09-.06-.15v-.58s-.01-.06-.04-.06c-.02,0-.05,0-.07.03-.59.65-1.44.97-2.56.97-.9,0-1.64-.23-2.22-.68s-.87-1.13-.87-2.03.33-1.66.98-2.19c.65-.52,1.58-.78,2.76-.78h1.93c.06,0,.09-.03.09-.09v-.43c0-.47-.14-.83-.41-1.09-.28-.26-.69-.39-1.24-.39-.46,0-.83.08-1.11.24-.28.16-.46.39-.53.67-.04.14-.12.2-.25.18l-1.75-.22c-.06-.01-.11-.03-.15-.06-.04-.03-.06-.07-.04-.12.1-.73.49-1.33,1.18-1.8.69-.47,1.56-.7,2.6-.7.76,0,1.42.13,2,.4ZM203.94,21.18c.42-.31.63-.71.63-1.19v-.85c0-.06-.03-.09-.09-.09h-1.51c-.64,0-1.14.12-1.5.36-.37.24-.55.58-.55,1.03,0,.38.14.68.42.89.28.21.64.31,1.09.31.59,0,1.09-.16,1.51-.47Z" fill="#003a5b"/><path d="M213.78,22.93c-.57-.22-1.01-.53-1.32-.92-.31-.39-.47-.82-.47-1.31v-.16c0-.06.02-.11.06-.15.04-.04.09-.06.15-.06h1.58c.06,0,.11.02.15.06.04.04.06.09.06.15v.04c0,.3.16.56.49.78.33.22.75.33,1.25.33s.87-.1,1.17-.3c.3-.2.45-.45.45-.75,0-.28-.12-.48-.37-.62-.25-.14-.64-.28-1.2-.44l-.68-.22c-.61-.18-1.13-.37-1.55-.58s-.77-.48-1.06-.84-.43-.81-.43-1.36c0-.84.33-1.51.99-2.01.66-.5,1.53-.75,2.61-.75.73,0,1.37.12,1.93.35s.98.56,1.28.97c.3.41.45.88.45,1.41,0,.06-.02.11-.06.15s-.09.06-.15.06h-1.53c-.06,0-.11-.02-.15-.06s-.06-.09-.06-.15c0-.31-.15-.57-.46-.78-.31-.21-.72-.31-1.25-.31-.47,0-.85.09-1.14.26-.29.17-.44.42-.44.73,0,.29.14.51.42.66.28.15.75.31,1.41.5l.4.11c.64.19,1.17.39,1.6.58.43.2.8.47,1.1.83.3.35.45.81.45,1.38,0,.85-.34,1.52-1.01,2.01-.67.49-1.57.73-2.68.73-.76,0-1.42-.11-1.99-.33Z" fill="#003a5b"/><path d="M221.49,12.34c-.24-.24-.36-.55-.36-.92s.12-.68.36-.92.55-.36.92-.36.68.12.92.36.36.55.36.92-.12.68-.36.92-.55.36-.92.36-.68-.12-.92-.36ZM221.39,23.1s-.06-.09-.06-.15v-8.78c0-.06.02-.11.06-.15s.09-.06.15-.06h1.66c.06,0,.11.02.15.06s.06.09.06.15v8.78c0,.06-.02.11-.06.15s-.09.06-.15.06h-1.66c-.06,0-.11-.02-.15-.06Z" fill="#003a5b"/><path d="M231.51,14.03s.09-.06.15-.06h1.66c.06,0,.11.02.15.06.04.04.06.09.06.15v8.37c0,1.5-.43,2.57-1.29,3.21-.86.64-1.98.96-3.38.96-.37,0-.74-.02-1.1-.05-.13-.01-.2-.09-.2-.23l.05-1.48c0-.13.08-.2.25-.2.35.04.66.05.94.05.9,0,1.56-.18,1.99-.53.43-.35.64-.95.64-1.79v-.14s-.01-.06-.04-.06c-.02,0-.05,0-.07.03-.49.53-1.19.79-2.09.79-.78,0-1.49-.2-2.14-.59-.65-.4-1.1-1-1.35-1.82-.16-.56-.23-1.29-.23-2.18,0-1,.1-1.76.29-2.29.24-.73.65-1.32,1.24-1.75.59-.44,1.28-.66,2.07-.66.95,0,1.69.28,2.21.83.02.04.05.05.07.04.02-.01.04-.04.04-.07v-.43c0-.06.02-.11.06-.15ZM231.42,19.51c.02-.21.03-.55.03-1.02s0-.78-.03-.98c-.02-.2-.06-.39-.12-.58-.1-.4-.29-.71-.58-.95-.29-.24-.67-.36-1.12-.36s-.8.12-1.1.36c-.3.24-.52.56-.65.95-.14.34-.22.86-.22,1.58s.06,1.27.18,1.57c.12.38.34.7.66.95.32.25.7.37,1.14.37.47,0,.85-.12,1.13-.36.29-.24.48-.55.58-.94.05-.18.08-.38.1-.58Z" fill="#003a5b"/><path d="M241.19,14.03s.09-.06.15-.06h1.64c.06,0,.11.02.15.06s.06.09.06.15v8.77c0,.06-.02.11-.06.15s-.09.06-.15.06h-1.64c-.06,0-.11-.02-.15-.06s-.06-.09-.06-.15v-.58s-.01-.06-.04-.07c-.02-.01-.05,0-.07.04-.49.64-1.23.95-2.21.95-.91,0-1.68-.26-2.3-.79-.62-.53-.93-1.28-.93-2.25v-6.07c0-.06.02-.11.06-.15s.09-.06.15-.06h1.66c.06,0,.11.02.15.06s.06.09.06.15v5.47c0,.56.15,1.01.44,1.35.29.34.71.5,1.23.5s.97-.17,1.3-.5c.32-.34.49-.79.49-1.35v-5.47c0-.06.02-.11.06-.15Z" fill="#003a5b"/><path d="M245.7,12.34c-.24-.24-.36-.55-.36-.92s.12-.68.36-.92.55-.36.92-.36.68.12.92.36.36.55.36.92-.12.68-.36.92-.55.36-.92.36-.68-.12-.92-.36ZM245.6,23.1s-.06-.09-.06-.15v-8.78c0-.06.02-.11.06-.15s.09-.06.15-.06h1.66c.06,0,.11.02.15.06s.06.09.06.15v8.78c0,.06-.02.11-.06.15s-.09.06-.15.06h-1.66c-.06,0-.11-.02-.15-.06Z" fill="#003a5b"/><path d="M257.85,18.53l-.02.56c0,.14-.07.22-.22.22h-5.63c-.06,0-.09.03-.09.09.04.4.09.67.16.81.29.86.99,1.3,2.11,1.31.82,0,1.46-.34,1.94-1.01.05-.07.11-.11.18-.11.05,0,.09.02.13.05l1.12.92c.11.08.13.18.05.29-.37.53-.87.94-1.48,1.22-.62.29-1.31.43-2.06.43-.94,0-1.73-.21-2.38-.63-.65-.42-1.13-1.01-1.43-1.76-.28-.65-.41-1.55-.41-2.7,0-.7.07-1.26.22-1.69.24-.84.69-1.5,1.36-1.99.67-.49,1.47-.73,2.4-.73,2.36,0,3.7,1.24,4,3.71.05.3.07.64.07,1.01ZM252.67,15.95c-.29.22-.5.53-.62.93-.07.2-.12.47-.14.79-.02.06,0,.09.07.09h3.65c.06,0,.09-.03.09-.09-.02-.3-.06-.53-.11-.68-.11-.43-.32-.77-.64-1.01-.32-.24-.72-.36-1.2-.36-.44,0-.81.11-1.11.33Z" fill="#003a5b"/><path d="M266.5,14.68c.58.58.87,1.36.87,2.36v5.9c0,.06-.02.11-.06.15s-.09.06-.15.06h-1.66c-.06,0-.11-.02-.15-.06s-.06-.09-.06-.15v-5.47c0-.55-.16-1-.47-1.34-.31-.34-.73-.51-1.24-.51s-.93.17-1.25.5c-.32.34-.48.78-.48,1.33v5.49c0,.06-.02.11-.06.15s-.09.06-.15.06h-1.66c-.06,0-.11-.02-.15-.06s-.06-.09-.06-.15v-8.77c0-.06.02-.11.06-.15s.09-.06.15-.06h1.66c.06,0,.11.02.15.06s.06.09.06.15v.58s.01.06.04.07c.02.01.04,0,.05-.04.49-.65,1.24-.97,2.23-.97s1.75.29,2.33.86Z" fill="#003a5b"/><path d="M274.36,15.59s-.09.06-.15.06h-1.84c-.06,0-.09.03-.09.09v4.34c0,.46.1.79.3.99.2.2.51.31.94.31h.54c.06,0,.11.02.15.06.04.04.06.09.06.15v1.35c0,.13-.07.21-.22.23l-.94.02c-.95,0-1.66-.16-2.12-.49-.47-.32-.71-.94-.72-1.84v-5.13c0-.06-.03-.09-.09-.09h-1.03c-.06,0-.11-.02-.15-.06s-.06-.09-.06-.15v-1.26c0-.06.02-.11.06-.15s.09-.06.15-.06h1.03c.06,0,.09-.03.09-.09v-2.11c0-.06.02-.11.06-.15s.09-.06.15-.06h1.57c.06,0,.11.02.15.06s.06.09.06.15v2.11c0,.06.03.09.09.09h1.84c.06,0,.11.02.15.06s.06.09.06.15v1.26c0,.06-.02.11-.06.15Z" fill="#003a5b"/><path d="M283.93,18.53l-.02.56c0,.14-.07.22-.22.22h-5.63c-.06,0-.09.03-.09.09.04.4.09.67.16.81.29.86.99,1.3,2.11,1.31.82,0,1.46-.34,1.94-1.01.05-.07.11-.11.18-.11.05,0,.09.02.13.05l1.12.92c.11.08.13.18.05.29-.37.53-.87.94-1.48,1.22-.62.29-1.31.43-2.06.43-.94,0-1.73-.21-2.38-.63-.65-.42-1.13-1.01-1.43-1.76-.28-.65-.41-1.55-.41-2.7,0-.7.07-1.26.22-1.69.24-.84.69-1.5,1.36-1.99.67-.49,1.47-.73,2.4-.73,2.36,0,3.7,1.24,4,3.71.05.3.07.64.07,1.01ZM278.75,15.95c-.29.22-.5.53-.62.93-.07.2-.12.47-.14.79-.02.06,0,.09.07.09h3.65c.06,0,.09-.03.09-.09-.02-.3-.06-.53-.11-.68-.11-.43-.32-.77-.64-1.01-.32-.24-.72-.36-1.2-.36-.44,0-.81.11-1.11.33Z" fill="#003a5b"/><path d="M301.45,14.66c.52.56.78,1.33.78,2.33v5.96c0,.06-.02.11-.06.15s-.09.06-.15.06h-1.64c-.06,0-.11-.02-.15-.06s-.06-.09-.06-.15v-5.53c0-.55-.15-.99-.44-1.31-.29-.32-.69-.49-1.18-.49s-.89.16-1.21.49c-.31.32-.47.76-.47,1.3v5.54c0,.06-.02.11-.06.15-.04.04-.09.06-.15.06h-1.64c-.06,0-.11-.02-.15-.06s-.06-.09-.06-.15v-5.53c0-.55-.15-.99-.45-1.31-.3-.32-.7-.49-1.19-.49-.46,0-.83.13-1.12.4-.29.26-.46.62-.51,1.08v5.85c0,.06-.02.11-.06.15s-.09.06-.15.06h-1.66c-.06,0-.11-.02-.15-.06s-.06-.09-.06-.15v-8.77c0-.06.02-.11.06-.15s.09-.06.15-.06h1.66c.06,0,.11.02.15.06s.06.09.06.15v.59s.01.06.04.07c.02.01.05,0,.07-.04.26-.34.59-.58.98-.75s.83-.24,1.3-.24c.59,0,1.1.12,1.55.36.44.24.79.59,1.03,1.04.04.05.08.05.13,0,.26-.48.63-.83,1.1-1.06.47-.23.99-.34,1.57-.34.92,0,1.65.28,2.17.84Z" fill="#003a5b"/><path d="M309.87,14.21c.58.26,1.02.63,1.33,1.09.31.46.47.99.47,1.57v6.07c0,.06-.02.11-.06.15-.04.04-.09.06-.15.06h-1.66c-.06,0-.11-.02-.15-.06-.04-.04-.06-.09-.06-.15v-.58s-.01-.06-.04-.06c-.02,0-.05,0-.07.03-.59.65-1.44.97-2.56.97-.9,0-1.64-.23-2.22-.68s-.87-1.13-.87-2.03.33-1.66.98-2.19c.65-.52,1.58-.78,2.76-.78h1.93c.06,0,.09-.03.09-.09v-.43c0-.47-.14-.83-.41-1.09-.28-.26-.69-.39-1.24-.39-.46,0-.83.08-1.11.24-.28.16-.46.39-.53.67-.04.14-.12.2-.25.18l-1.75-.22c-.06-.01-.11-.03-.15-.06-.04-.03-.06-.07-.04-.12.1-.73.49-1.33,1.18-1.8.69-.47,1.56-.7,2.6-.7.76,0,1.42.13,2,.4ZM308.95,21.18c.42-.31.63-.71.63-1.19v-.85c0-.06-.03-.09-.09-.09h-1.51c-.64,0-1.14.12-1.5.36-.37.24-.55.58-.55,1.03,0,.38.14.68.42.89.28.21.64.31,1.09.31.59,0,1.09-.16,1.51-.47Z" fill="#003a5b"/><path d="M320.49,14.68c.58.58.87,1.36.87,2.36v5.9c0,.06-.02.11-.06.15s-.09.06-.15.06h-1.66c-.06,0-.11-.02-.15-.06s-.06-.09-.06-.15v-5.47c0-.55-.16-1-.47-1.34-.31-.34-.73-.51-1.24-.51s-.93.17-1.25.5c-.32.34-.48.78-.48,1.33v5.49c0,.06-.02.11-.06.15s-.09.06-.15.06h-1.66c-.06,0-.11-.02-.15-.06s-.06-.09-.06-.15v-8.77c0-.06.02-.11.06-.15s.09-.06.15-.06h1.66c.06,0,.11.02.15.06s.06.09.06.15v.58s.01.06.04.07c.02.01.04,0,.05-.04.49-.65,1.24-.97,2.23-.97s1.75.29,2.33.86Z" fill="#003a5b"/><path d="M331.3,18.53l-.02.56c0,.14-.07.22-.22.22h-5.63c-.06,0-.09.03-.09.09.04.4.09.67.16.81.29.86.99,1.3,2.11,1.31.82,0,1.46-.34,1.94-1.01.05-.07.11-.11.18-.11.05,0,.09.02.13.05l1.12.92c.11.08.13.18.05.29-.37.53-.87.94-1.48,1.22-.62.29-1.31.43-2.06.43-.94,0-1.73-.21-2.38-.63-.65-.42-1.13-1.01-1.43-1.76-.28-.65-.41-1.55-.41-2.7,0-.7.07-1.26.22-1.69.24-.84.69-1.5,1.36-1.99.67-.49,1.47-.73,2.4-.73,2.36,0,3.7,1.24,4,3.71.05.3.07.64.07,1.01ZM326.13,15.95c-.29.22-.5.53-.62.93-.07.2-.12.47-.14.79-.02.06,0,.09.07.09h3.65c.06,0,.09-.03.09-.09-.02-.3-.06-.53-.11-.68-.11-.43-.32-.77-.64-1.01-.32-.24-.72-.36-1.2-.36-.44,0-.81.11-1.11.33Z" fill="#003a5b"/><path d="M338.5,14.09c.1.05.13.14.11.27l-.31,1.62c-.01.14-.1.19-.25.13-.18-.06-.39-.09-.63-.09-.16,0-.28,0-.36.02-.5.02-.92.2-1.26.53-.34.33-.5.76-.5,1.29v5.09c0,.06-.02.11-.06.15s-.09.06-.15.06h-1.66c-.06,0-.11-.02-.15-.06s-.06-.09-.06-.15v-8.77c0-.06.02-.11.06-.15s.09-.06.15-.06h1.66c.06,0,.11.02.15.06s.06.09.06.15v.81s0,.08.03.08c.02,0,.04,0,.06-.05.5-.78,1.21-1.17,2.11-1.17.38,0,.72.08,1.01.23Z" fill="#003a5b"/><path d="M345.4,14.21c.58.26,1.02.63,1.33,1.09.31.46.47.99.47,1.57v6.07c0,.06-.02.11-.06.15-.04.04-.09.06-.15.06h-1.66c-.06,0-.11-.02-.15-.06-.04-.04-.06-.09-.06-.15v-.58s-.01-.06-.04-.06c-.02,0-.05,0-.07.03-.59.65-1.44.97-2.56.97-.9,0-1.64-.23-2.22-.68s-.87-1.13-.87-2.03.33-1.66.98-2.19c.65-.52,1.58-.78,2.76-.78h1.93c.06,0,.09-.03.09-.09v-.43c0-.47-.14-.83-.41-1.09-.28-.26-.69-.39-1.24-.39-.46,0-.83.08-1.11.24-.28.16-.46.39-.53.67-.04.14-.12.2-.25.18l-1.75-.22c-.06-.01-.11-.03-.15-.06-.04-.03-.06-.07-.04-.12.1-.73.49-1.33,1.18-1.8.69-.47,1.56-.7,2.6-.7.76,0,1.42.13,2,.4ZM344.48,21.18c.42-.31.63-.71.63-1.19v-.85c0-.06-.03-.09-.09-.09h-1.51c-.64,0-1.14.12-1.5.36-.37.24-.55.58-.55,1.03,0,.38.14.68.42.89.28.21.64.31,1.09.31.59,0,1.09-.16,1.51-.47Z" fill="#003a5b"/><path d="M16.08,52.52s-.05.04-.08.04h-3.41s-.05.02-.05.05v1.87s.02.05.05.05h2.29s.06.01.08.03c.02.02.03.05.03.08v.76s-.01.06-.03.08c-.02.02-.05.04-.08.04h-2.29s-.05.02-.05.05v1.93s.02.05.05.05h3.41s.06.01.08.04.04.05.04.08v.76s-.01.06-.04.08c-.02.02-.05.04-.08.04h-4.5s-.06-.01-.08-.04c-.02-.02-.03-.05-.03-.08v-6.76s.01-.06.03-.08.05-.04.08-.04h4.5s.06.01.08.04.04.05.04.08v.76s-.01.06-.04.08Z" fill="#003a5b"/><path d="M17.93,58.36c-.37-.18-.65-.44-.85-.78-.2-.33-.3-.72-.3-1.16v-.67s.01-.06.04-.08.05-.04.08-.04h.92s.06.01.08.04.04.05.04.08v.67c0,.36.12.65.34.88.23.22.54.33.93.33s.68-.11.92-.33c.24-.22.36-.52.36-.88v-4.75s.01-.06.04-.08.05-.04.08-.04h.91s.06.01.08.04.04.05.04.08v4.75c0,.44-.1.83-.3,1.16-.2.33-.49.59-.86.78-.37.18-.79.27-1.26.27s-.91-.09-1.28-.27Z" fill="#003a5b"/><path d="M27.81,52.52s-.05.04-.08.04h-3.41s-.05.02-.05.05v1.87s.02.05.05.05h2.29s.06.01.08.03c.02.02.03.05.03.08v.76s-.01.06-.03.08c-.02.02-.05.04-.08.04h-2.29s-.05.02-.05.05v1.93s.02.05.05.05h3.41s.06.01.08.04.04.05.04.08v.76s-.01.06-.04.08c-.02.02-.05.04-.08.04h-4.5s-.06-.01-.08-.04c-.02-.02-.03-.05-.03-.08v-6.76s.01-.06.03-.08.05-.04.08-.04h4.5s.06.01.08.04.04.05.04.08v.76s-.01.06-.04.08Z" fill="#003a5b"/><path d="M30.04,58.34c-.38-.2-.67-.47-.88-.83-.21-.35-.31-.76-.31-1.23v-2.47c0-.47.1-.88.31-1.23.21-.35.5-.63.88-.82s.82-.29,1.32-.29.93.09,1.31.28.67.45.88.79c.21.34.31.73.31,1.18,0,.03-.01.06-.04.08-.02.02-.05.04-.08.04l-.92.05c-.08,0-.12-.04-.12-.11,0-.39-.12-.71-.37-.95-.24-.24-.57-.36-.97-.36s-.73.12-.98.36c-.25.24-.37.56-.37.95v2.55c0,.39.12.7.37.94.25.24.57.36.98.36s.73-.12.97-.35.37-.55.37-.95c0-.07.04-.11.12-.11l.92.04s.06.01.08.03c.02.02.04.04.04.07,0,.45-.1.85-.31,1.19-.21.34-.5.61-.88.79-.38.19-.82.28-1.31.28s-.94-.1-1.32-.29Z" fill="#003a5b"/><path d="M36.24,58.35c-.38-.19-.67-.47-.88-.83-.21-.36-.32-.77-.32-1.23v-4.61s.01-.06.04-.08.05-.04.08-.04h.92s.06.01.08.04.04.05.04.08v4.63c0,.39.12.71.37.96.25.25.57.37.98.37s.73-.12.98-.37c.25-.25.37-.57.37-.96v-4.63s.01-.06.04-.08c.02-.02.05-.04.08-.04h.92s.06.01.08.04.04.05.04.08v4.61c0,.47-.1.88-.31,1.23-.21.36-.5.63-.88.83s-.82.29-1.32.29-.93-.1-1.31-.29Z" fill="#003a5b"/><path d="M42.39,58.34c-.38-.2-.67-.47-.88-.83-.21-.35-.31-.76-.31-1.23v-2.47c0-.47.1-.88.31-1.23.21-.35.5-.63.88-.82s.82-.29,1.32-.29.93.09,1.31.28.67.45.88.79c.21.34.31.73.31,1.18,0,.03-.01.06-.04.08-.02.02-.05.04-.08.04l-.92.05c-.08,0-.12-.04-.12-.11,0-.39-.12-.71-.37-.95-.24-.24-.57-.36-.97-.36s-.73.12-.98.36c-.25.24-.37.56-.37.95v2.55c0,.39.12.7.37.94.25.24.57.36.98.36s.73-.12.97-.35.37-.55.37-.95c0-.07.04-.11.12-.11l.92.04s.06.01.08.03c.02.02.04.04.04.07,0,.45-.1.85-.31,1.19-.21.34-.5.61-.88.79-.38.19-.82.28-1.31.28s-.94-.1-1.32-.29Z" fill="#003a5b"/><path d="M47.49,58.52s-.03-.05-.03-.08v-6.76s.01-.06.03-.08.05-.04.08-.04h.92s.06.01.09.04c.02.02.03.05.03.08v6.76s-.01.06-.03.08c-.02.02-.05.04-.09.04h-.92s-.06-.01-.08-.04Z" fill="#003a5b"/><path d="M51.11,58.35c-.39-.2-.68-.49-.89-.86-.21-.37-.32-.8-.32-1.29v-2.28c0-.48.11-.9.32-1.27.21-.37.51-.66.9-.86.38-.2.82-.31,1.32-.31s.95.1,1.33.31c.38.2.68.49.9.86.21.37.32.79.32,1.27v2.28c0,.49-.11.92-.32,1.29-.21.37-.51.66-.9.86-.38.2-.83.31-1.33.31s-.94-.1-1.33-.31ZM53.45,57.27c.25-.26.38-.6.38-1.03v-2.33c0-.43-.13-.78-.38-1.04-.25-.26-.59-.39-1.01-.39s-.75.13-1,.39c-.25.26-.38.61-.38,1.04v2.33c0,.43.13.77.38,1.03.25.26.59.39,1,.39s.76-.13,1.01-.39ZM51.88,50.88s0-.06,0-.1l.55-1.03c.03-.05.08-.08.15-.08h.79s.08.02.09.04c.02.03.01.07-.01.1l-.69,1.02c-.03.05-.08.08-.14.08h-.66s-.08-.01-.09-.04Z" fill="#003a5b"/><path d="M60.39,51.59s.05-.04.08-.04h.92s.06.01.08.04.04.05.04.08v6.76s-.01.06-.04.08c-.02.02-.05.04-.08.04h-.89c-.07,0-.11-.03-.14-.08l-2.88-4.72s-.03-.03-.04-.03c-.01,0-.02.02-.02.05l.02,4.66s-.01.06-.03.08c-.02.02-.05.04-.09.04h-.92s-.06-.01-.08-.04c-.02-.02-.03-.05-.03-.08v-6.76s.01-.06.03-.08.05-.04.08-.04h.89c.07,0,.11.03.14.08l2.87,4.72s.03.03.04.03.02-.02.02-.05v-4.66s0-.06.03-.08Z" fill="#003a5b"/><path d="M32.16,63.81c.32.17.57.42.74.73.18.32.27.68.27,1.1s-.09.77-.27,1.08c-.18.31-.43.55-.76.72-.33.17-.71.26-1.14.26h-1.6s-.05.02-.05.05v2.69s-.01.06-.04.08c-.02.02-.05.04-.08.04h-.92s-.06-.01-.08-.04c-.02-.02-.04-.05-.04-.08v-6.77s.01-.06.04-.08c.02-.02.05-.03.08-.03h2.75c.42,0,.79.09,1.11.26ZM31.7,66.46c.21-.2.31-.46.31-.79s-.1-.6-.31-.81c-.21-.21-.48-.31-.82-.31h-1.49s-.05.02-.05.05v2.11s.02.05.05.05h1.49c.34,0,.61-.1.82-.3Z" fill="#003a5b"/><path d="M35.23,70.35c-.39-.2-.68-.49-.89-.86-.21-.37-.32-.8-.32-1.29v-2.28c0-.48.11-.9.32-1.27.21-.37.51-.66.9-.86.38-.2.82-.31,1.32-.31s.95.1,1.33.31c.38.2.68.49.9.86.21.37.32.79.32,1.27v2.28c0,.49-.11.92-.32,1.29-.21.37-.51.66-.9.86-.38.2-.83.31-1.33.31s-.94-.1-1.33-.31ZM37.57,69.27c.25-.26.38-.6.38-1.03v-2.33c0-.43-.13-.78-.38-1.04-.25-.26-.59-.39-1.01-.39s-.75.13-1,.39c-.25.26-.38.61-.38,1.04v2.33c0,.43.13.77.38,1.03.25.26.59.39,1,.39s.76-.13,1.01-.39Z" fill="#003a5b"/><path d="M45,63.59s.04.05.04.08v.77s-.01.06-.04.08-.05.03-.08.03h-1.84s-.05.02-.05.05v5.82s-.01.06-.04.08c-.02.02-.05.04-.08.04h-.92s-.06-.01-.08-.04c-.02-.02-.04-.05-.04-.08v-5.82s-.02-.05-.05-.05h-1.77s-.06-.01-.08-.03-.04-.05-.04-.08v-.77s.01-.06.04-.08.05-.04.08-.04h4.87s.06.01.08.04Z" fill="#003a5b"/><path d="M25.32,89.46l-.33-1.07s-.03-.04-.05-.04h-2.64s-.04.01-.05.04l-.33,1.07c-.02.07-.06.1-.13.1h-1s-.07-.01-.09-.04c-.02-.02-.02-.06-.01-.1l2.17-6.76c.02-.07.06-.1.13-.1h1.25c.07,0,.11.03.13.1l2.18,6.76s0,.03,0,.05c0,.06-.04.09-.11.09h-1c-.07,0-.11-.03-.13-.1ZM22.6,87.44h2.03s.05-.02.04-.06l-1.03-3.35s-.02-.04-.03-.04c-.01,0-.02.01-.03.04l-1.02,3.35s0,.06.04.06Z" fill="#003a5b"/><path d="M27.63,89.52s-.03-.05-.03-.08v-6.76s.01-.06.03-.08.05-.04.08-.04h2.44c.47,0,.89.08,1.25.25s.64.4.83.71.29.67.29,1.08v2.9c0,.41-.1.77-.29,1.08s-.47.55-.83.71-.78.25-1.25.25h-2.44s-.06-.01-.08-.04ZM28.8,88.56h1.4c.35,0,.63-.11.84-.33.21-.22.32-.52.33-.9v-2.53c0-.38-.11-.68-.32-.91-.21-.22-.5-.33-.86-.33h-1.39s-.05.02-.05.05v4.9s.02.05.05.05Z" fill="#003a5b"/><path d="M38.42,82.56h.92s.06.01.08.04.04.05.04.08v6.76s-.01.06-.04.08c-.02.02-.05.04-.08.04h-.92s-.06-.01-.08-.04c-.02-.02-.04-.05-.04-.08v-4.77s0-.03-.02-.04c-.02,0-.03,0-.04.02l-1.25,1.92c-.03.05-.08.08-.14.08h-.46c-.06,0-.11-.03-.14-.08l-1.26-1.91s-.02-.03-.04-.02-.03.02-.03.04v4.76s-.01.06-.03.08c-.02.02-.05.04-.09.04h-.92s-.06-.01-.08-.04c-.02-.02-.03-.05-.03-.08v-6.76s.01-.06.03-.08.05-.04.08-.04h.92c.06,0,.11.03.14.08l1.63,2.47s.03.02.04.02.02,0,.03-.02l1.63-2.47c.03-.05.08-.08.14-.08Z" fill="#003a5b"/><path d="M40.96,89.52s-.03-.05-.03-.08v-6.76s.01-.06.03-.08.05-.04.08-.04h.92s.06.01.09.04c.02.02.03.05.03.08v6.76s-.01.06-.03.08c-.02.02-.05.04-.09.04h-.92s-.06-.01-.08-.04Z" fill="#003a5b"/><path d="M47.65,82.59s.05-.04.08-.04h.92s.06.01.08.04.04.05.04.08v6.76s-.01.06-.04.08c-.02.02-.05.04-.08.04h-.89c-.07,0-.11-.03-.14-.08l-2.88-4.72s-.03-.03-.04-.03c-.01,0-.02.02-.02.05l.02,4.66s-.01.06-.03.08c-.02.02-.05.04-.09.04h-.92s-.06-.01-.08-.04c-.02-.02-.03-.05-.03-.08v-6.76s.01-.06.03-.08.05-.04.08-.04h.89c.07,0,.11.03.14.08l2.87,4.72s.03.03.04.03.02-.02.02-.05v-4.66s0-.06.03-.08Z" fill="#003a5b"/><path d="M12.46,101.52s-.03-.05-.03-.08v-6.76s.01-.06.03-.08.05-.04.08-.04h2.44c.47,0,.89.08,1.25.25s.64.4.83.71.29.67.29,1.08v2.9c0,.41-.1.77-.29,1.08s-.47.55-.83.71-.78.25-1.25.25h-2.44s-.06-.01-.08-.04ZM13.64,100.56h1.4c.35,0,.63-.11.84-.33.21-.22.32-.52.33-.9v-2.53c0-.38-.11-.68-.32-.91-.21-.22-.5-.33-.86-.33h-1.39s-.05.02-.05.05v4.9s.02.05.05.05Z" fill="#003a5b"/><path d="M18.64,101.52s-.03-.05-.03-.08v-6.76s.01-.06.03-.08.05-.04.08-.04h.92s.06.01.09.04c.02.02.03.05.03.08v6.76s-.01.06-.03.08c-.02.02-.05.04-.09.04h-.92s-.06-.01-.08-.04Z" fill="#003a5b"/><path d="M22.13,101.39c-.39-.17-.68-.4-.89-.7-.21-.3-.32-.65-.32-1.06v-.25s.01-.06.04-.08c.02-.02.05-.03.08-.03h.89s.06.01.08.03c.02.02.04.05.04.08v.19c0,.31.14.56.41.77.27.2.65.31,1.12.31.41,0,.71-.09.92-.26.21-.17.31-.4.31-.67,0-.19-.06-.34-.17-.48-.11-.13-.27-.25-.48-.35-.21-.11-.53-.24-.95-.4-.47-.17-.86-.34-1.15-.49-.29-.15-.54-.36-.73-.62-.2-.26-.29-.59-.29-.99,0-.59.21-1.05.64-1.39.43-.34,1-.51,1.71-.51.5,0,.94.09,1.33.26.38.17.68.42.89.72.21.31.32.67.32,1.08v.17s-.01.06-.04.08c-.02.02-.05.04-.08.04h-.9s-.06-.01-.08-.04c-.02-.02-.04-.05-.04-.08v-.11c0-.31-.13-.58-.39-.79-.26-.22-.61-.33-1.06-.33-.37,0-.65.08-.86.23-.2.15-.3.37-.3.65,0,.2.05.36.16.49s.27.24.48.34c.21.1.54.24.99.4.47.18.85.34,1.13.49.28.15.53.35.73.61.2.26.3.59.3.99,0,.6-.22,1.08-.67,1.43-.44.35-1.05.53-1.81.53-.52,0-.97-.08-1.36-.25Z" fill="#003a5b"/><path d="M31.69,94.59s.04.05.04.08v.77s-.01.06-.04.08-.05.03-.08.03h-1.84s-.05.02-.05.05v5.82s-.01.06-.04.08c-.02.02-.05.04-.08.04h-.92s-.06-.01-.08-.04c-.02-.02-.04-.05-.04-.08v-5.82s-.02-.05-.05-.05h-1.77s-.06-.01-.08-.03-.04-.05-.04-.08v-.77s.01-.06.04-.08.05-.04.08-.04h4.87s.06.01.08.04Z" fill="#003a5b"/><path d="M36.59,101.47l-1.32-2.88s-.03-.04-.06-.04h-1.2s-.05.02-.05.05v2.84s-.01.06-.03.08c-.02.02-.05.04-.09.04h-.92s-.06-.01-.08-.04c-.02-.02-.03-.05-.03-.08v-6.76s.01-.06.03-.08.05-.04.08-.04h2.75c.41,0,.77.08,1.08.25s.56.41.73.72c.17.31.26.67.26,1.06,0,.46-.12.85-.35,1.17-.24.32-.57.55-.99.68-.01,0-.02,0-.03.02,0,.01,0,.03,0,.04l1.41,2.91s.02.05.02.06c0,.05-.04.08-.11.08h-.96c-.07,0-.11-.03-.14-.09ZM33.96,95.61v1.99s.02.05.05.05h1.5c.32,0,.58-.09.77-.28s.29-.44.29-.76-.1-.57-.29-.76-.46-.29-.77-.29h-1.5s-.05.02-.05.05Z" fill="#003a5b"/><path d="M38.96,101.52s-.03-.05-.03-.08v-6.76s.01-.06.03-.08.05-.04.08-.04h.92s.06.01.09.04c.02.02.03.05.03.08v6.76s-.01.06-.03.08c-.02.02-.05.04-.09.04h-.92s-.06-.01-.08-.04Z" fill="#003a5b"/><path d="M46.23,94.59s.04.05.04.08v.77s-.01.06-.04.08-.05.03-.08.03h-1.84s-.05.02-.05.05v5.82s-.01.06-.04.08c-.02.02-.05.04-.08.04h-.92s-.06-.01-.08-.04c-.02-.02-.04-.05-.04-.08v-5.82s-.02-.05-.05-.05h-1.77s-.06-.01-.08-.03-.04-.05-.04-.08v-.77s.01-.06.04-.08.05-.04.08-.04h4.87s.06.01.08.04Z" fill="#003a5b"/><path d="M50.94,101.46l-.33-1.07s-.03-.04-.05-.04h-2.64s-.04.01-.05.04l-.33,1.07c-.02.07-.06.1-.13.1h-1s-.07-.01-.09-.04c-.02-.02-.02-.06-.01-.1l2.17-6.76c.02-.07.06-.1.13-.1h1.25c.07,0,.11.03.13.1l2.18,6.76s0,.03,0,.05c0,.06-.04.09-.11.09h-1c-.07,0-.11-.03-.13-.1ZM48.22,99.44h2.03s.05-.02.04-.06l-1.03-3.35s-.02-.04-.03-.04c-.01,0-.02.01-.03.04l-1.02,3.35s0,.06.04.06Z" fill="#003a5b"/><path d="M53.24,101.52s-.03-.05-.03-.08v-6.76s.01-.06.03-.08.05-.04.08-.04h.92s.06.01.09.04c.02.02.03.05.03.08v5.83s.02.05.05.05h3.35s.06.01.08.04.04.05.04.08v.76s-.01.06-.04.08c-.02.02-.05.04-.08.04h-4.44s-.06-.01-.08-.04Z" fill="#003a5b"/><rect x="149.94" y="79.61" width="73" height="25" fill="#ffbca5"/><line x1="223.44" y1="79.61" x2="223.44" y2="104.61" fill="none" stroke="#ffbca5" stroke-miterlimit="10"/><line x1="310.44" y1="79.61" x2="310.44" y2="104.61" fill="none" stroke="#ffbca5" stroke-miterlimit="10"/><line x1="91.44" y1="38.11" x2="91.44" y2="119.11" fill="none" stroke="#878787" stroke-dasharray="3" stroke-miterlimit="10"/><path d="M378.46,21.29c0-2.75,0-5.51,0-8.26,0-.58.18-1.04.6-1.45,3.67-3.65,7.33-7.31,10.98-10.98.41-.41.86-.61,1.45-.61,5.52,0,11.04,0,16.55,0,.58,0,1.04.19,1.45.6,3.66,3.68,7.33,7.34,11.01,11.01.39.39.58.83.58,1.38,0,5.54,0,11.09,0,16.63,0,.55-.18.99-.57,1.38-3.68,3.67-7.36,7.35-11.04,11.03-.39.39-.83.58-1.38.58-5.54,0-11.09,0-16.63,0-.55,0-.99-.18-1.38-.57-3.67-3.68-7.35-7.36-11.04-11.03-.39-.39-.58-.82-.58-1.38.01-2.78,0-5.56,0-8.33ZM401.89,17.02c0-2.55,0-5.1,0-7.65,0-.6-.25-.85-.85-.86-.86,0-1.72,0-2.57,0-.58,0-.83.26-.83.84,0,5.12,0,10.24,0,15.37,0,.58.25.83.83.83.83,0,1.67,0,2.5,0,.7,0,.93-.23.93-.93,0-2.54,0-5.07,0-7.61ZM397.64,31.95c0,.43,0,.86,0,1.29,0,.03,0,.05,0,.08.01.48.26.77.74.78.93.02,1.87.02,2.8,0,.46-.01.71-.3.72-.76,0-.91,0-1.81,0-2.72,0-.49-.24-.76-.74-.77-.93-.02-1.87-.02-2.8,0-.48.01-.71.27-.71.75,0,.45,0,.91,0,1.36Z" fill="#e0223e"/><path d="M401.89,17.02c0,2.54,0,5.07,0,7.61,0,.7-.22.93-.93.93-.83,0-1.67,0-2.5,0-.58,0-.83-.25-.83-.83,0-5.12,0-10.24,0-15.37,0-.58.25-.83.83-.84.86,0,1.72,0,2.57,0,.6,0,.85.26.85.86,0,2.55,0,5.1,0,7.65Z" fill="#fff"/><path d="M397.64,31.95c0-.45,0-.91,0-1.36,0-.48.24-.74.71-.75.93-.02,1.87-.02,2.8,0,.49,0,.73.27.74.77,0,.91,0,1.81,0,2.72,0,.46-.26.75-.72.76-.93.02-1.87.02-2.8,0-.48,0-.72-.29-.74-.78,0-.03,0-.05,0-.08,0-.43,0-.86,0-1.29Z" fill="#fff"/></g></svg>