<?xml version="1.0" encoding="UTF-8"?>
<svg id="Layer_1" xmlns="http://www.w3.org/2000/svg" version="1.1" viewBox="0 0 230.86 99">
  <!-- Generator: Adobe Illustrator 30.0.0, SVG Export Plug-In . SVG Version: 2.1.1 Build 123)  -->
  <defs>
    <style>
      .st0 {
        fill: #fff;
      }
    </style>
  </defs>
  <g>
    <path class="st0" d="M63.52,52.58v-.02c0-1.68,1.4-3.17,3.48-3.17,1.17,0,1.89.3,2.59.81l-.51.52c-.54-.41-1.13-.7-2.11-.7-1.54,0-2.64,1.15-2.64,2.51v.02c0,1.46,1.06,2.55,2.75,2.55.79,0,1.53-.27,2-.61v-1.52h-2.11v-.62h2.87v2.44c-.64.51-1.62.94-2.79.94-2.18,0-3.53-1.4-3.53-3.15Z"/>
    <path class="st0" d="M72.43,52.58v-.02c0-1.69,1.44-3.17,3.55-3.17s3.53,1.46,3.53,3.15t0,.02c0,1.69-1.44,3.17-3.55,3.17s-3.53-1.46-3.53-3.15ZM78.7,52.58v-.02c0-1.39-1.15-2.53-2.74-2.53s-2.72,1.12-2.72,2.51v.02c0,1.39,1.15,2.53,2.74,2.53s2.72-1.12,2.72-2.51Z"/>
    <path class="st0" d="M82.3,49.51h2.96c.79,0,1.42.2,1.82.54.29.26.45.59.45.98v.02c0,.8-.56,1.21-1.1,1.42.82.22,1.49.64,1.49,1.48v.02c0,1.05-1,1.67-2.52,1.67h-3.09v-6.12ZM85.13,52.23c.94,0,1.6-.38,1.6-1.09v-.02c0-.6-.54-1-1.54-1h-2.11v2.11h2.05ZM85.41,55.01c1.05,0,1.71-.41,1.71-1.09v-.02c0-.66-.64-1.05-1.85-1.05h-2.19v2.16h2.33Z"/>
    <path class="st0" d="M90.66,49.51h.78v6.12h-.78v-6.12Z"/>
    <path class="st0" d="M94.61,49.51h5.02v.63h-4.24v2.09h3.79v.63h-3.79v2.14h4.29v.63h-5.07v-6.12Z"/>
    <path class="st0" d="M102.39,49.51h2.99c.85,0,1.54.23,1.97.61.34.3.54.73.54,1.21v.02c0,1.01-.79,1.61-1.88,1.78l2.13,2.5h-.96l-2.01-2.38h-1.98v2.38h-.78v-6.12ZM105.3,52.63c1.04,0,1.79-.47,1.79-1.26v-.02c0-.75-.66-1.21-1.78-1.21h-2.14v2.48h2.13Z"/>
    <path class="st0" d="M110.69,49.51h.73l4.37,4.91v-4.91h.76v6.12h-.62l-4.48-5.02v5.02h-.76v-6.12Z"/>
    <path class="st0" d="M119.35,52.58v-.02c0-1.69,1.44-3.17,3.55-3.17s3.53,1.46,3.53,3.15t0,.02c0,1.69-1.44,3.17-3.55,3.17s-3.53-1.46-3.53-3.15ZM125.62,52.58v-.02c0-1.39-1.15-2.53-2.74-2.53s-2.72,1.12-2.72,2.51v.02c0,1.39,1.15,2.53,2.74,2.53s2.72-1.12,2.72-2.51Z"/>
    <path class="st0" d="M133.33,49.51h2.41c2.18,0,3.69,1.32,3.69,3.04v.02c0,1.72-1.51,3.06-3.69,3.06h-2.41v-6.12ZM135.74,54.99c1.76,0,2.88-1.05,2.88-2.41v-.02c0-1.36-1.12-2.42-2.88-2.42h-1.63v4.85h1.63Z"/>
    <path class="st0" d="M142.21,49.51h5.02v.63h-4.24v2.09h3.79v.63h-3.79v2.14h4.28v.63h-5.07v-6.12Z"/>
    <path class="st0" d="M154.1,49.51h.78v5.48h3.91v.64h-4.69v-6.12Z"/>
    <path class="st0" d="M163.94,49.46h.73l3.16,6.17h-.84l-.81-1.62h-3.78l-.82,1.62h-.8l3.16-6.17ZM165.87,53.39l-1.58-3.12-1.59,3.12h3.16Z"/>
  </g>
  <g>
    <path class="st0" d="M13.1,70.55c-.9.26-2.15.23-3.01-.75l-2.21-2.5c-.62-.71-1.35-.81-2.35-.82v2.45c0,.88.69,1.04,1.6,1.14.1.01.03.43-.09.43H2.72c-.11,0-.2-.42-.09-.43.73-.09,1.19-.34,1.19-1.14v-5.63c0-.83-.5-1.07-1.19-1.24-.11-.03-.04-.44.09-.43.56.06,1.19.08,1.65.08,1.06,0,2.05-.08,2.74-.08,2.16,0,3.61.78,3.61,2.34,0,1.46-1.35,2.18-2.55,2.25v.06c.57,0,.99.21,1.62.91l2.13,2.36c.44.49.87.63,1.19.63.11,0,.09.34,0,.37ZM8.91,64.31c0-1.35-.97-2.02-2.25-2.02-.85,0-1.12.3-1.12,1.01v2.6h.42c2.13,0,2.95-.33,2.95-1.59Z"/>
    <path class="st0" d="M15.42,70.07c.83-.19,1.47-.3,1.47-1.24v-5.61c0-.81-.59-1.02-1.2-1.16-.11-.03-.04-.44.07-.43,1.05.1,2.85.08,3.72.08,1.3,0,2.25-.05,3.42-.08.34,0,.34.2.27.49l-.34,1.2c-.04.18-.4.18-.46,0-.22-.62-.64-.97-2.44-.97-1,0-1.33.23-1.33.88v2.06c0,.33.19.39.47.39h.31c1.16,0,2.16-.1,2.75-.57.14-.11.46-.09.33.16l-.82,1.59c-.11.23-.33.2-.49.01-.33-.4-1.06-.57-1.89-.57h-.2c-.29,0-.47.06-.47.39v2.12c0,.72.34.98,1.53.98,2.16,0,3.02-.87,3.37-1.35.1-.14.49-.08.49.14,0,.64-.62,1.92-1.52,1.92-.8-.04-1.59-.08-2.79-.08-1.32,0-2.88-.04-4.18.08-.14.01-.2-.43-.08-.45Z"/>
    <path class="st0" d="M29.71,67.11v1.82c0,.88.69,1.04,1.6,1.14.1.01.03.43-.09.43h-4.34c-.11,0-.2-.42-.09-.43.73-.09,1.19-.34,1.19-1.14v-5.63c0-.83-.5-1.07-1.19-1.24-.11-.03-.04-.44.09-.43.56.06,1.19.08,1.65.08,1.06,0,1.95-.08,2.68-.08,2.22,0,4.05.72,4.05,2.7,0,2.25-2.39,3.2-5.56,2.78ZM29.71,63.3v3.2c2.43.3,3.71-.21,3.71-1.87,0-1.5-1.09-2.34-2.56-2.34-.9,0-1.15.28-1.15,1.01Z"/>
    <path class="st0" d="M39.31,67.19v-3.97c0-.8-.46-1.06-1.16-1.14-.11-.01-.03-.43.09-.43h3.91c.11,0,.2.42.09.43-.57.06-1.15.25-1.15,1.14v4.03c0,1.77,1.16,2.59,2.68,2.59s2.81-.82,2.81-2.59v-4.03c0-.82-.53-1.05-1.23-1.14-.1-.01-.03-.43.08-.43h3.22c.1,0,.19.42.07.43-.57.06-1.15.25-1.15,1.14v3.95c0,2.32-1.7,3.52-3.98,3.52-2.02,0-4.28-.95-4.28-3.51ZM43.52,58.51c.26-.33,1.46.64,1.12.87l-1.88,1.25c-.19.13-.69-.28-.54-.45l1.3-1.67Z"/>
    <path class="st0" d="M60.2,67.95c0,1.57-1.62,2.58-4.01,2.58-.69,0-1.49-.08-2.55-.08-.9,0-1.59.01-2.25.08-.13.01-.2-.43-.09-.45.83-.19,1.48-.3,1.48-1.24v-5.61c0-.81-.59-1.02-1.2-1.16-.11-.03-.04-.44.07-.43.59.06,1.28.08,1.73.08,1.15,0,1.99-.08,2.62-.08,1.85,0,3.37.68,3.38,2.07.01,1.02-.8,1.73-1.8,1.91v.08c1.33,0,2.62.85,2.62,2.26ZM54.5,63.23v2.25h1.47c1.03,0,1.63-.45,1.63-1.43,0-1.2-.92-1.75-2.09-1.75-.76,0-1.02.23-1.02.93ZM58.35,68.23c0-1.39-1.05-2.12-2.38-2.12h-1.47v2.73c0,.69.4,1.04,1.65,1.04s2.2-.33,2.2-1.64Z"/>
    <path class="st0" d="M62.94,70.07c.83-.19,1.48-.3,1.48-1.24v-5.61c0-.88-.59-1.06-1.2-1.14-.11-.01-.03-.43.07-.43h3.95c.1,0,.17.42.07.43-.6.06-1.17.25-1.17,1.14v5.61c0,.72.34.98,1.53.98,2.16,0,3.02-.87,3.37-1.35.1-.14.49-.08.49.14,0,.64-.62,1.92-1.52,1.92-.8-.04-1.59-.08-2.79-.08-1.32,0-2.88-.04-4.18.08-.14.01-.2-.43-.09-.45Z"/>
    <path class="st0" d="M74.05,70.07c.73-.09,1.19-.34,1.19-1.14v-5.71c0-.8-.46-1.05-1.19-1.14-.11-.01-.03-.43.09-.43h3.92c.11,0,.2.42.09.43-.62.08-1.19.25-1.19,1.14v5.71c0,.88.57,1.06,1.19,1.14.11.01.03.43-.09.43h-3.92c-.11,0-.2-.42-.09-.43Z"/>
    <path class="st0" d="M81.17,66.24c0-2.18,1.52-4.79,5.53-4.79,1.66,0,3.09.45,2.92.9l-.19.49c-.52,1.35-1.07-.38-3.62-.38-2.05,0-3.05,1.17-3.05,2.99,0,2.84,2.45,4.03,4.41,4.03.26,0,1.56-.18,2.31-.59.11-.06.42.23.33.34-.62.8-2.54,1.46-2.98,1.46-2.41,0-5.66-1.24-5.66-4.46Z"/>
    <path class="st0" d="M102.88,70.5h-3.78c-.19,0-.2-.4-.04-.43.53-.09,1.1-.25.57-1.34l-.16-.32c-.14-.3-.39-.33-.82-.33h-2.92c-.43,0-.67.03-.82.33l-.14.32c-.5,1.09.04,1.25.73,1.34.19.02.14.43-.04.43h-3.09c-.17,0-.21-.4-.04-.43.59-.09.93-.27,1.46-1.34l2.42-4.9c.56-1.11.73-1.63.73-2.11,0-.08,1-.28,1.05-.19l3.5,7.18c.52,1.07.86,1.28,1.43,1.35.2.02.14.43-.03.43ZM98.89,67.18l-1.68-3.54-1.69,3.54c-.09.18.13.2.33.2h2.71c.2,0,.42-.02.33-.2Z"/>
    <path class="st0" d="M109.82,70.07c.83-.19,1.47-.3,1.47-1.24v-5.61c0-.81-.59-1.02-1.2-1.16-.11-.03-.04-.44.07-.43.59.06,1.19.08,1.79.08,1.12,0,2.12-.08,2.85-.08,3.47,0,5.34,1.82,5.34,4.26s-1.88,4.63-5.36,4.63c-.69,0-1.58-.08-2.64-.08-.89,0-1.59.01-2.25.08-.14.01-.2-.43-.08-.45ZM118.43,66.61c0-2.41-1.49-4.31-4.07-4.31-1.02,0-1.35.28-1.35.92v5.61c0,.68.53,1.02,1.92,1.02,2.33,0,3.49-1.11,3.49-3.25Z"/>
    <path class="st0" d="M123.26,66.13c0-2.55,2.06-4.67,5.2-4.67s5.17,1.93,5.17,4.56-2.05,4.68-5.2,4.68c-2.98,0-5.17-1.94-5.17-4.57ZM131.92,66.72c0-2.55-1.96-4.41-4.02-4.41-1.26,0-2.92.73-2.92,3.11,0,2.58,1.96,4.42,4.01,4.42,1.26,0,2.94-.73,2.94-3.12Z"/>
    <path class="st0" d="M149.22,70.5h-3.74c-.1,0-.17-.42-.09-.43.6-.09,1.05-.34,1-1.14l-.27-4.24-2.32,4.17c-.3.54-.53,1.1-.57,1.3-.03.15-.33.23-.56.23-.22,0-.36-.08-.45-.23l-3.31-5.53-.22,4.31c-.04.88.54,1.09,1,1.14.11.01.03.43-.07.43h-2.96c-.11,0-.2-.42-.09-.43.62-.06,1.13-.25,1.19-1.14l.46-7.25c.01-.21.56-.23.7,0l4.15,6.84,3.85-6.84c.13-.23.7-.21.72,0l.46,7.25c.06.88.57,1.07,1.17,1.14.11.01.03.43-.07.43Z"/>
    <path class="st0" d="M152.16,70.07c.73-.09,1.19-.34,1.19-1.14v-5.71c0-.8-.46-1.05-1.19-1.14-.11-.01-.03-.43.08-.43h3.92c.11,0,.2.42.09.43-.62.08-1.19.25-1.19,1.14v5.71c0,.88.57,1.06,1.19,1.14.11.01.03.43-.09.43h-3.92c-.11,0-.2-.42-.08-.43Z"/>
    <path class="st0" d="M168.03,70.38l-6.82-6.29v4.8c0,.86.57,1,1.39,1.17.11.02.06.43-.09.43h-3.39c-.11,0-.2-.39-.07-.43.6-.18,1.17-.28,1.17-1.17v-4.9c0-.9-.16-1.33-.53-1.77-.13-.15-.26-.25-.26-.29,0-.11.09-.28.29-.28h1.06c.14,0,.24.01.34.11l6.67,6.23v-4.75c0-.9-.64-1-1.39-1.16-.11-.02-.06-.43.08-.43h3.39c.11,0,.19.4.07.43-.63.16-1.17.27-1.17,1.16v4.91c0,.83.03,1.75.17,2.22.06.19-.17.24-.4.24-.24,0-.37-.09-.53-.24Z"/>
    <path class="st0" d="M172.84,70.07c.73-.09,1.19-.34,1.19-1.14v-5.71c0-.8-.46-1.05-1.19-1.14-.11-.01-.03-.43.08-.43h3.92c.11,0,.2.42.09.43-.62.08-1.19.25-1.19,1.14v5.71c0,.88.57,1.06,1.19,1.14.11.01.03.43-.09.43h-3.92c-.11,0-.2-.42-.08-.43Z"/>
    <path class="st0" d="M179.96,66.24c0-2.18,1.52-4.79,5.53-4.79,1.66,0,3.09.45,2.92.9l-.19.49c-.52,1.35-1.07-.38-3.62-.38-2.05,0-3.05,1.17-3.05,2.99,0,2.84,2.45,4.03,4.41,4.03.26,0,1.56-.18,2.31-.59.11-.06.42.23.33.34-.61.8-2.53,1.46-2.98,1.46-2.41,0-5.66-1.24-5.66-4.46Z"/>
    <path class="st0" d="M201.67,70.5h-3.78c-.19,0-.2-.4-.04-.43.53-.09,1.1-.25.57-1.34l-.16-.32c-.14-.3-.39-.33-.82-.33h-2.92c-.43,0-.67.03-.82.33l-.14.32c-.5,1.09.04,1.25.73,1.34.19.02.14.43-.04.43h-3.09c-.17,0-.21-.4-.04-.43.59-.09.93-.27,1.46-1.34l2.42-4.9c.56-1.11.73-1.63.73-2.11,0-.08,1-.28,1.05-.19l3.5,7.18c.52,1.07.86,1.28,1.43,1.35.2.02.14.43-.03.43ZM197.68,67.18l-1.68-3.54-1.69,3.54c-.08.18.13.2.33.2h2.71c.2,0,.42-.02.33-.2Z"/>
    <path class="st0" d="M213.34,70.38l-6.82-6.29v4.8c0,.86.57,1,1.39,1.17.11.02.06.43-.09.43h-3.39c-.11,0-.2-.39-.07-.43.6-.18,1.17-.28,1.17-1.17v-4.9c0-.9-.16-1.33-.53-1.77-.13-.15-.26-.25-.26-.29,0-.11.09-.28.29-.28h1.06c.14,0,.24.01.34.11l6.67,6.23v-4.75c0-.9-.64-1-1.39-1.16-.11-.02-.06-.43.09-.43h3.39c.11,0,.19.4.07.43-.63.16-1.17.27-1.17,1.16v4.91c0,.83.03,1.75.17,2.22.06.19-.17.24-.4.24-.24,0-.37-.09-.53-.24Z"/>
    <path class="st0" d="M228.12,70.5h-3.78c-.19,0-.2-.4-.04-.43.53-.09,1.1-.25.57-1.34l-.16-.32c-.14-.3-.39-.33-.82-.33h-2.92c-.43,0-.67.03-.82.33l-.14.32c-.5,1.09.04,1.25.73,1.34.19.02.14.43-.04.43h-3.09c-.17,0-.21-.4-.04-.43.59-.09.93-.27,1.46-1.34l2.42-4.9c.56-1.11.73-1.63.73-2.11,0-.08,1-.28,1.05-.19l3.5,7.18c.52,1.07.86,1.28,1.43,1.35.2.02.14.43-.03.43ZM224.13,67.18l-1.68-3.54-1.69,3.54c-.08.18.13.2.33.2h2.71c.2,0,.42-.02.33-.2Z"/>
  </g>
  <polyline class="st0" points="141.4 80.18 89.62 80.18 89.62 78.02 141.4 78.02"/>
  <g>
    <path class="st0" d="M24.51,98.29s.06.05.06.14-.02.18-.05.27c-.03.09-.07.13-.12.13h-4.7s-.08-.05-.11-.14c-.03-.09-.05-.18-.05-.27s.02-.14.06-.14c.43-.05.76-.17.96-.37.21-.2.32-.5.32-.9v-2.23c-.05-.16-.29-.24-.69-.24h-3.4c-.42,0-.66.08-.72.24v2.23c0,.31.07.55.2.73.13.18.29.31.46.37.17.06.39.11.65.14.04,0,.06.05.06.14s-.01.18-.05.27c-.03.09-.07.13-.11.13h-4.71s-.08-.05-.11-.14c-.03-.09-.05-.18-.05-.27s.02-.14.06-.14c.44-.05.76-.16.97-.35.21-.19.31-.49.31-.9v-6.15c0-.41-.1-.71-.31-.9-.21-.19-.53-.31-.97-.36-.04,0-.06-.05-.06-.14s.02-.18.05-.27c.03-.09.07-.14.11-.14h4.71s.08.04.11.13.05.18.05.27-.02.14-.06.14c-.26.03-.48.08-.65.14-.17.06-.32.18-.45.37-.13.18-.19.43-.19.73v2.39c.05.16.29.24.72.24h3.4c.41,0,.64-.08.69-.24v-2.39c0-.4-.11-.7-.32-.9-.21-.2-.53-.32-.96-.37-.04,0-.06-.05-.06-.14s.02-.18.05-.27c.03-.09.07-.14.11-.14h4.7s.08.04.11.13c.03.09.05.18.05.27s-.02.14-.06.14c-.26.03-.48.08-.65.14-.17.06-.32.18-.45.37-.13.18-.19.43-.19.73v6.15c0,.31.07.55.2.73.13.18.29.31.45.37.17.06.39.11.65.14l-.02.09Z"/>
    <path class="st0" d="M37.35,98.24c.1.02.15.12.13.29-.02.17-.07.25-.16.25h-4.57c-.1,0-.15-.08-.16-.25,0-.17.03-.27.12-.29.18-.03.32-.06.43-.1.11-.04.22-.11.32-.2.1-.09.15-.24.13-.42-.02-.18-.09-.41-.22-.69l-.08-.12c-.07-.18-.15-.29-.26-.34-.1-.05-.26-.07-.49-.07h-3.09c-.26,0-.43.02-.53.07s-.19.16-.28.33l-.05.12c-.13.27-.2.49-.21.68,0,.19.04.33.15.43.11.09.22.16.35.2.13.04.3.07.51.1.1.02.15.12.13.29-.02.17-.08.25-.18.25h-3.56c-.08,0-.13-.08-.15-.25-.02-.17.02-.27.11-.29.35-.05.63-.17.85-.35.22-.18.45-.54.72-1.07l2.67-5.47c.53-1.05.8-1.8.81-2.24,0-.05.19-.11.56-.18.37-.07.56-.08.59-.03l3.86,7.92c.26.54.5.9.72,1.08s.5.3.84.35v.02ZM32.24,95.4c.07,0,.13,0,.18-.02.05-.01.09-.03.13-.07.04-.03.04-.08,0-.14l-1.58-3.37-1.59,3.37c-.04.09-.03.15.03.18.06.03.15.05.29.05h2.55,0Z"/>
    <path class="st0" d="M44.03,99c-.7,0-1.4-.09-2.08-.28-.69-.18-1.34-.46-1.97-.83-.62-.37-1.13-.88-1.52-1.53-.39-.65-.58-1.4-.58-2.24,0-.63.12-1.25.34-1.85.22-.6.56-1.16,1.02-1.69.45-.53,1.09-.96,1.92-1.29.82-.33,1.78-.49,2.87-.49.6,0,1.17.05,1.7.14s.94.22,1.22.38c.28.16.39.31.32.47l-.24.6c-.14.35-.27.56-.39.65-.12.09-.29.09-.49,0-.21-.09-.43-.21-.67-.36s-.59-.29-1.05-.43c-.46-.14-.96-.2-1.5-.2-1.06,0-1.83.28-2.31.83-.49.55-.73,1.31-.73,2.26,0,.75.15,1.42.45,2,.3.58.69,1.03,1.17,1.35.48.32.97.56,1.48.71.51.16,1.03.23,1.54.23.24,0,.66-.05,1.26-.16s1.03-.22,1.27-.37c.06-.03.16.01.29.15.13.14.18.23.14.29-.3.4-.86.77-1.68,1.11s-1.4.51-1.75.51l-.04.03Z"/>
    <path class="st0" d="M49.08,98.78s-.08-.05-.11-.14-.05-.18-.05-.27.02-.14.06-.14c.44-.05.76-.16.97-.35s.31-.49.31-.9v-6.15c0-.41-.1-.71-.31-.9-.21-.19-.53-.31-.97-.36-.04,0-.06-.05-.06-.14s.02-.18.05-.27c.03-.09.07-.14.11-.14h4.71s.08.04.11.13c.03.09.05.18.05.27s-.02.14-.06.14c-.26.03-.48.08-.65.14-.17.06-.32.18-.45.37-.13.18-.19.43-.19.73v6.15c0,.31.07.55.2.73.13.18.29.31.46.37.17.06.39.11.65.14.04,0,.06.05.06.14s-.02.18-.05.27c-.03.09-.07.13-.11.13h-4.71l-.02.03Z"/>
    <path class="st0" d="M55.14,98.81c-.07,0-.12-.09-.15-.29-.03-.2-.02-.31.05-.33.32-.08.53-.13.66-.17.12-.04.28-.11.46-.2.19-.09.31-.22.38-.38.07-.16.1-.36.1-.61v-6.09c0-.26-.07-.48-.21-.65s-.29-.3-.44-.37c-.15-.07-.37-.14-.65-.2-.04,0-.06-.05-.06-.14s.02-.18.04-.26c.02-.08.05-.12.08-.12.26.03.63.06,1.08.07.46.01.86.02,1.22.02s.76,0,1.2,0c.45,0,.69,0,.75,0,.57,0,1.3-.01,2.2-.04.89-.03,1.43-.04,1.61-.04s.29.05.34.15c.05.1.05.24,0,.41l-.36,1.34c-.02.1-.11.15-.25.15s-.24-.05-.27-.16c-.09-.26-.22-.46-.38-.59s-.42-.25-.77-.32c-.35-.07-.85-.12-1.48-.12-.49,0-.83.07-1.03.21-.2.14-.3.37-.3.69v2.2c0,.17.05.28.13.35s.22.09.39.09h.41c1.37,0,2.31-.18,2.85-.56.09-.07.2-.09.32-.06.12.03.14.12.07.26l-.86,1.75c-.07.13-.16.2-.27.2s-.21-.05-.3-.17c-.32-.44-.96-.65-1.9-.65h-.3c-.18,0-.31.03-.39.09s-.12.18-.12.35v2.21c0,.41.11.69.32.86.22.17.63.25,1.23.25.92,0,1.68-.16,2.3-.49.62-.33,1.06-.66,1.32-1.01.04-.06.15-.07.32-.02s.27.12.27.22c0,.38-.18.83-.53,1.35-.35.52-.76.78-1.23.78-1.43-.05-2.44-.08-3-.08-2.58,0-4.19.03-4.81.08l-.02.03Z"/>
    <path class="st0" d="M76.58,98.92c-.24,0-.45-.09-.65-.26l-7.4-6.48v4.74c0,.23.03.42.09.57s.19.27.38.37c.19.09.36.16.5.2.14.04.38.09.72.17.06,0,.08.1.05.28-.02.18-.08.27-.15.27h-4.07c-.06,0-.11-.09-.13-.26-.02-.17,0-.27.07-.29.05-.03.16-.07.32-.12.16-.05.29-.1.36-.14.08-.04.17-.1.28-.18s.18-.2.23-.35c.05-.15.07-.33.07-.53v-5.21c0-.18,0-.35-.02-.51-.02-.16-.03-.28-.05-.38-.02-.09-.05-.2-.09-.32-.05-.12-.08-.2-.1-.24-.02-.04-.06-.12-.12-.22s-.1-.18-.11-.2c-.05-.07-.11-.15-.17-.22-.06-.07-.11-.12-.14-.16-.03-.03-.05-.05-.05-.06,0-.23.12-.35.38-.35h1.26c.16,0,.29.04.37.13l7.23,6.39v-4.68c0-.23-.03-.41-.09-.56-.06-.15-.18-.27-.35-.36-.17-.09-.32-.15-.44-.18-.12-.03-.32-.09-.61-.16-.08-.02-.15-.03-.19-.04-.06,0-.08-.1-.05-.28s.07-.26.14-.26h4.08c.05,0,.09.09.12.26.02.18,0,.27-.05.28-.02,0-.09.03-.22.07-.12.04-.2.06-.23.07s-.09.03-.19.06c-.1.03-.16.06-.19.08-.03.02-.08.05-.15.11s-.12.1-.14.15-.05.11-.09.18-.06.16-.07.25c0,.09-.02.19-.02.31v5.24c0,1.23.06,2.09.19,2.56.02.09,0,.15-.09.18-.08.03-.22.05-.42.05v.03Z"/>
    <path class="st0" d="M79.42,98.78c-.07,0-.12-.09-.15-.29s-.02-.31.05-.33c.32-.07.53-.13.66-.17.12-.04.28-.11.46-.2.19-.09.31-.22.38-.38s.1-.36.1-.61v-6.09c0-.38-.12-.66-.34-.83-.22-.17-.54-.31-.95-.4-.04,0-.06-.05-.06-.14s.02-.18.04-.26.05-.12.08-.12c.52.05,1.24.08,2.18.09.52,0,1.16-.01,1.9-.04.74-.03,1.22-.04,1.43-.04,1.8,0,3.23.44,4.3,1.31,1.06.88,1.6,2,1.6,3.37,0,.88-.22,1.71-.66,2.48s-1.12,1.4-2.04,1.9c-.92.5-1.99.76-3.22.76-.2,0-.64-.01-1.32-.04-.68-.03-1.26-.04-1.76-.04-1.21,0-2.1.03-2.67.08h0ZM85.53,97.96c1.13,0,1.96-.27,2.47-.82.51-.54.76-1.38.76-2.5,0-1.42-.38-2.58-1.13-3.49-.76-.9-1.77-1.36-3.03-1.36-.49,0-.83.07-1.04.22s-.32.39-.32.71v6.09c0,.76.76,1.14,2.27,1.14h.02Z"/>
    <path class="st0" d="M103.61,98.24c.1.02.15.12.13.29-.02.17-.07.25-.16.25h-4.57c-.1,0-.15-.08-.16-.25,0-.17.03-.27.12-.29.18-.03.32-.06.43-.1.11-.04.22-.11.32-.2.1-.09.15-.24.13-.42-.02-.18-.09-.41-.22-.69l-.08-.12c-.07-.18-.15-.29-.26-.34-.1-.05-.26-.07-.49-.07h-3.09c-.26,0-.43.02-.53.07s-.19.16-.28.33l-.05.12c-.13.27-.2.49-.21.68,0,.19.04.33.15.43.11.09.22.16.35.2.13.04.3.07.51.1.1.02.15.12.13.29-.02.17-.08.25-.18.25h-3.56c-.08,0-.13-.08-.15-.25-.02-.17.02-.27.11-.29.35-.05.63-.17.85-.35.22-.18.45-.54.72-1.07l2.67-5.47c.53-1.05.8-1.8.81-2.24,0-.05.19-.11.56-.18.37-.07.56-.08.59-.03l3.86,7.92c.26.54.5.9.72,1.08s.5.3.84.35v.02ZM98.49,95.4c.07,0,.13,0,.18-.02.05-.01.09-.03.13-.07.04-.03.04-.08,0-.14l-1.58-3.37-1.59,3.37c-.04.09-.03.15.03.18.06.03.15.05.29.05h2.55,0Z"/>
    <path class="st0" d="M118.78,89.02c.08,0,.14.09.15.26.02.17-.02.26-.1.29-.61.07-1.23.54-1.85,1.41l-2.44,3.35v2.66c0,.44.12.75.37.91.25.16.65.28,1.2.34.03,0,.05.05.05.14s-.02.18-.04.27-.05.13-.09.13h-5.31s-.07-.05-.1-.14c-.03-.09-.05-.18-.05-.27s.02-.14.05-.14c.58-.07.99-.2,1.23-.37.24-.17.36-.47.36-.9v-2.56l-2.59-3.43c-.37-.48-.69-.83-.94-1.05-.26-.22-.55-.35-.87-.38-.1-.02-.15-.12-.13-.29.02-.17.08-.26.19-.26h4.57c.1,0,.15.09.16.26,0,.17-.03.26-.12.29-.36.05-.57.18-.63.41-.06.22.06.56.36,1l1.84,2.42,1.78-2.42c.29-.43.37-.76.25-.98s-.39-.37-.82-.43c-.12-.02-.16-.12-.15-.29.02-.17.07-.26.16-.26h3.52l-.02.03Z"/>
    <path class="st0" d="M123.07,98.81c-.07,0-.12-.09-.15-.29-.03-.2-.02-.31.05-.33.32-.08.53-.13.66-.17.12-.04.28-.11.46-.2.19-.09.31-.22.38-.38.07-.16.1-.36.1-.61v-6.09c0-.26-.07-.48-.21-.65s-.29-.3-.44-.37c-.15-.07-.37-.14-.65-.2-.04,0-.06-.05-.06-.14s.02-.18.04-.26.05-.12.08-.12c.26.03.63.06,1.08.07.46.01.86.02,1.22.02s.76,0,1.2,0c.45,0,.69,0,.75,0,.57,0,1.3-.01,2.2-.04.9-.03,1.43-.04,1.61-.04s.29.05.34.15c.05.1.05.24,0,.41l-.36,1.34c-.02.1-.11.15-.25.15s-.24-.05-.27-.16c-.09-.26-.22-.46-.38-.59s-.42-.25-.77-.32c-.35-.07-.85-.12-1.48-.12-.49,0-.82.07-1.03.21-.2.14-.3.37-.3.69v2.2c0,.17.05.28.13.35s.22.09.39.09h.41c1.37,0,2.31-.18,2.85-.56.09-.07.2-.09.32-.06.12.03.14.12.07.26l-.86,1.75c-.07.13-.16.2-.27.2s-.21-.05-.3-.17c-.32-.44-.96-.65-1.9-.65h-.3c-.18,0-.31.03-.39.09s-.12.18-.12.35v2.21c0,.41.11.69.32.86.22.17.63.25,1.23.25.92,0,1.68-.16,2.3-.49.62-.33,1.06-.66,1.32-1.01.04-.06.15-.07.32-.02s.27.12.27.22c0,.38-.18.83-.53,1.35-.35.52-.76.78-1.23.78-1.43-.05-2.44-.08-3-.08-2.58,0-4.19.03-4.81.08l-.02.03Z"/>
    <path class="st0" d="M140.16,99c-.7,0-1.4-.09-2.08-.28-.69-.18-1.34-.46-1.97-.83-.62-.37-1.13-.88-1.52-1.53-.39-.65-.58-1.4-.58-2.24,0-.63.12-1.25.34-1.85.22-.6.56-1.16,1.02-1.69.45-.53,1.09-.96,1.92-1.29.82-.33,1.78-.49,2.87-.49.6,0,1.17.05,1.7.14s.94.22,1.22.38c.28.16.39.31.32.47l-.24.6c-.14.35-.27.56-.39.65-.12.09-.29.09-.49,0-.21-.09-.43-.21-.67-.36s-.59-.29-1.05-.43c-.46-.14-.96-.2-1.5-.2-1.06,0-1.83.28-2.31.83-.49.55-.73,1.31-.73,2.26,0,.75.15,1.42.45,2,.3.58.69,1.03,1.17,1.35.48.32.97.56,1.48.71.51.16,1.03.23,1.54.23.24,0,.66-.05,1.26-.16s1.03-.22,1.27-.37c.06-.03.16.01.29.15.13.14.18.23.14.29-.3.4-.86.77-1.68,1.11s-1.4.51-1.75.51l-.04.03Z"/>
    <path class="st0" d="M151.04,98.99c-1.64,0-3.01-.48-4.1-1.43s-1.64-2.16-1.64-3.6.54-2.67,1.62-3.67,2.47-1.5,4.16-1.5,3.03.47,4.12,1.41c1.09.94,1.64,2.13,1.64,3.59s-.54,2.69-1.61,3.69-2.46,1.5-4.17,1.5l-.02.02ZM151.7,97.9c.75,0,1.4-.26,1.97-.78.56-.52.85-1.33.85-2.44,0-1.32-.42-2.45-1.26-3.38-.84-.93-1.8-1.4-2.87-1.4-.75,0-1.4.26-1.95.77s-.83,1.33-.83,2.43c0,1.33.42,2.46,1.27,3.39.84.93,1.8,1.4,2.86,1.4h-.02Z"/>
    <path class="st0" d="M168.92,98.92c-.24,0-.45-.09-.65-.26l-7.4-6.48v4.74c0,.23.03.42.09.57s.19.27.38.37c.19.09.36.16.5.2.14.04.38.09.72.17.06,0,.08.1.05.28-.02.18-.08.27-.15.27h-4.07c-.06,0-.11-.09-.13-.26-.02-.17,0-.27.07-.29.05-.03.16-.07.32-.12.16-.05.29-.1.36-.14.08-.04.17-.1.28-.18s.18-.2.23-.35c.05-.15.07-.33.07-.53v-5.21c0-.18,0-.35-.02-.51-.02-.16-.03-.28-.05-.38-.02-.09-.05-.2-.09-.32-.05-.12-.08-.2-.1-.24-.02-.04-.06-.12-.12-.22s-.1-.18-.11-.2c-.05-.07-.11-.15-.17-.22-.06-.07-.11-.12-.14-.16-.03-.03-.05-.05-.05-.06,0-.23.12-.35.38-.35h1.26c.16,0,.29.04.37.13l7.23,6.39v-4.68c0-.23-.03-.41-.09-.56-.06-.15-.18-.27-.35-.36-.17-.09-.32-.15-.44-.18-.12-.03-.32-.09-.61-.16-.08-.02-.15-.03-.19-.04-.06,0-.08-.1-.05-.28s.07-.26.14-.26h4.08c.05,0,.09.09.12.26.02.18,0,.27-.05.28-.02,0-.09.03-.22.07-.12.04-.2.06-.23.07s-.09.03-.19.06c-.1.03-.16.06-.19.08-.03.02-.08.05-.15.11s-.12.1-.14.15-.05.11-.09.18-.06.16-.07.25c0,.09-.02.19-.02.31v5.24c0,1.23.06,2.09.19,2.56.02.09,0,.15-.09.18-.08.03-.22.05-.42.05v.03Z"/>
    <path class="st0" d="M177.81,98.99c-1.64,0-3.01-.48-4.1-1.43s-1.64-2.16-1.64-3.6.54-2.67,1.62-3.67,2.47-1.5,4.16-1.5,3.03.47,4.12,1.41c1.09.94,1.64,2.13,1.64,3.59s-.54,2.69-1.61,3.69-2.46,1.5-4.17,1.5l-.02.02ZM178.46,97.9c.75,0,1.4-.26,1.97-.78.56-.52.85-1.33.85-2.44,0-1.32-.42-2.45-1.26-3.38-.84-.93-1.8-1.4-2.87-1.4-.75,0-1.4.26-1.95.77s-.83,1.33-.83,2.43c0,1.33.42,2.46,1.27,3.39.84.93,1.8,1.4,2.86,1.4h-.02Z"/>
    <path class="st0" d="M199.4,98.21c.06,0,.08.1.05.28s-.06.27-.12.27h-4.6c-.05,0-.09-.09-.12-.27s-.02-.27.02-.28c.83-.13,1.22-.54,1.18-1.24l-.3-4.11-2.23,4.03c-.36.65-.59,1.15-.68,1.5-.03.17-.29.25-.76.25-.29,0-.48-.08-.58-.25l-3.49-5.79-.2,4.37c-.03.73.35,1.14,1.16,1.25.06,0,.08.1.05.28-.02.18-.06.26-.12.26h-3.49s-.08-.05-.11-.14c-.03-.09-.05-.18-.05-.27s.02-.14.06-.14c.39-.03.69-.14.91-.32.22-.18.34-.49.37-.93l.56-7.9c0-.14.14-.22.39-.22s.44.07.55.22l4.54,7.34,4.17-7.34c.08-.15.27-.23.55-.23s.42.07.43.21l.56,7.91c.03.44.15.76.38.93s.52.29.89.32h0Z"/>
    <path class="st0" d="M200.85,98.8s-.08-.05-.11-.14c-.03-.09-.05-.18-.05-.27s.02-.14.06-.14c.44-.05.76-.16.97-.35.21-.19.31-.49.31-.9v-6.15c0-.41-.1-.71-.31-.9s-.53-.31-.97-.36c-.04,0-.06-.05-.06-.14s.02-.18.05-.27c.03-.09.07-.14.11-.14h4.71s.08.04.11.13c.03.09.05.18.05.27s-.02.14-.06.14c-.26.03-.48.08-.65.14-.17.06-.32.18-.45.37-.13.18-.19.43-.19.73v6.15c0,.31.07.55.2.73.13.18.29.31.45.37.17.06.39.11.65.14.04,0,.06.05.06.14s-.02.18-.05.27c-.03.09-.07.13-.11.13h-4.71l-.02.03ZM203.26,85.49c.08-.12.26-.1.54.04.28.14.51.33.69.56.18.23.22.38.11.46l-2.02,1.34c-.1.08-.25.01-.47-.18-.22-.19-.29-.33-.22-.42l1.37-1.8Z"/>
    <path class="st0" d="M218.51,98.24c.1.02.15.12.13.29-.02.17-.07.25-.16.25h-4.57c-.1,0-.15-.08-.16-.25,0-.17.03-.27.12-.29.18-.03.32-.06.43-.1.11-.04.22-.11.32-.2.1-.09.15-.24.13-.42-.02-.18-.09-.41-.22-.69l-.08-.12c-.07-.18-.15-.29-.26-.34-.1-.05-.26-.07-.49-.07h-3.09c-.26,0-.43.02-.53.07s-.19.16-.28.33l-.05.12c-.13.27-.2.49-.21.68,0,.19.04.33.15.43.11.09.22.16.35.2.13.04.3.07.51.1.1.02.15.12.13.29-.02.17-.08.25-.18.25h-3.56c-.08,0-.13-.08-.15-.25-.02-.17.02-.27.11-.29.35-.05.63-.17.85-.35.22-.18.45-.54.72-1.07l2.67-5.47c.53-1.05.8-1.8.81-2.24,0-.05.19-.11.56-.18.37-.07.56-.08.59-.03l3.86,7.92c.26.54.5.9.72,1.08s.5.3.84.35v.02ZM213.4,95.4c.07,0,.13,0,.18-.02.05-.01.09-.03.13-.07.04-.03.04-.08,0-.14l-1.58-3.37-1.59,3.37c-.04.09-.03.15.03.18.06.03.15.05.29.05h2.55,0Z"/>
  </g>
  <path class="st0" d="M141.37,41.09h-51.48c-.16,0-.29.11-.29.26v1.07c0,.14.13.26.29.26h51.48c.16,0,.29-.11.29-.26v-1.07c0-.14-.13-.26-.29-.26ZM116.73,40.52c.16,0,.29-.11.29-.26v-1.93c0-.14-.13-.26-.29-.26h-2.19c-.16,0-.29.11-.29.26v1.93c0,.14.13.26.29.26h2.19ZM127.48,40.52c.16,0,.29-.11.29-.26v-1.93c0-.14-.13-.26-.29-.26h-2.19c-.16,0-.29.11-.29.26v1.93c0,.14.13.26.29.26h2.19ZM105.98,40.52c.16,0,.29-.11.29-.26v-1.93c0-.14-.13-.26-.29-.26h-2.19c-.16,0-.29.11-.29.26v1.93c0,.14.13.26.29.26h2.19ZM134.15,40.52c-.16,0-.29-.11-.29-.26v-1.93c0-.14.13-.26.29-.26h2.19c.16,0,.29.11.29.26v1.93c0,.14-.13.26-.29.26h-2.19ZM97.12,40.52c.16,0,.29-.11.29-.26v-1.93c0-.14-.13-.26-.29-.26h-2.19c-.16,0-.29.11-.29.26v1.93c0,.14.13.26.29.26h2.19ZM141.66,36.79v.38c0,.08-.07.14-.16.14h-51.74c-.09,0-.16-.06-.16-.14v-.38c0-.08.07-.14.16-.14h.13s0,0,0,0h4.71s0-.68,0-.68c0-.14.13-.26.29-.26h2.23c.16,0,.29.11.29.26v.68h6.1s0-.68,0-.68c0-.14.13-.26.29-.26h2.23c.16,0,.29.11.29.26v.68h7.88s0-.68,0-.68c0-.14.13-.26.29-.26h2.23c.16,0,.29.11.29.26v.68h8.01s0-.68,0-.68c0-.14.13-.26.29-.26h2.16c.16,0,.29.11.29.26v.68h6.1s0-.68,0-.68c0-.14.13-.26.29-.26h2.16c.16,0,.29.11.29.26v.68h4.78s0,0,0,0h.12c.09,0,.16.06.16.14ZM114.38,35.06V15.08s-.93.74-1.33,1.12c-.68.64-1.33,1.36-1.93,2.15-.98,1.28-1.85,2.75-2.57,4.36-.74,1.65-1.34,3.45-1.76,5.37s-.66,3.96-.7,6.07c0,.2,0,.9,0,.9h8.3ZM125.18,35.06s0-.71,0-.9c-.04-2.11-.28-4.15-.7-6.07-.42-1.92-1.01-3.72-1.76-5.37s-1.59-3.08-2.57-4.36c-.6-.79-1.25-1.51-1.93-2.15-.4-.37-1.33-1.12-1.33-1.12v19.97s8.3,0,8.3,0ZM109.02,17.24c.88-1.21,1.85-2.12,2.18-2.42.07-.07.17-.15.17-.15,0,0-.16.07-.23.09-2.05.81-3.95,1.99-5.66,3.46-1.47,1.27-2.78,2.76-3.92,4.42-.23.33-1.89,3.07-2.24,3.83-.94,2.04-1.48,4.07-1.79,5.81-.1.58-.37,2.77-.37,2.77h6.49s.12-3.42.26-4.57c.28-2.4.81-4.6,1.56-6.63.89-2.44,2.1-4.62,3.55-6.63ZM125.79,23.86c.74,2.02,1.27,4.22,1.56,6.63.14,1.15.26,4.57.26,4.57h6.49s-.26-2.19-.37-2.77c-.31-1.74-.85-3.77-1.79-5.81-.35-.76-2.01-3.5-2.24-3.83-1.14-1.67-2.45-3.16-3.92-4.42-1.71-1.48-3.61-2.65-5.66-3.46-.06-.02-.23-.09-.23-.09,0,0,.1.08.17.15.33.3,1.3,1.21,2.18,2.42,1.45,2,2.65,4.19,3.55,6.63ZM94.76,35.06s.24-2.33.7-4.4c.4-1.76,1.03-3.3,1.11-3.49.4-1,.85-2.12,1.54-3.32,1.25-2.17,2.53-4.2,4.83-6.34.7-.65,1.48-1.35,2.41-2.02.4-.29,1.46-.98,1.97-1.27.12-.07.48-.25.48-.25,0,0-.4.14-.51.19-.74.28-1.45.58-2.15.91-1.54.73-2.98,1.58-4.32,2.55-2.28,1.65-4.25,3.63-5.81,5.86-2.02,2.89-3.36,6.19-3.81,9.73-.07.55-.15,1.84-.15,1.84h3.72ZM140.23,35.06s-.08-1.3-.15-1.84c-.45-3.54-1.79-6.84-3.81-9.73-1.56-2.23-3.53-4.21-5.81-5.86-1.34-.97-2.78-1.82-4.32-2.55-.7-.33-1.42-.64-2.15-.91-.11-.04-.51-.19-.51-.19,0,0,.37.18.48.25.51.29,1.57.98,1.97,1.27.93.67,1.7,1.37,2.41,2.02,2.3,2.14,3.57,4.17,4.83,6.34.69,1.2,1.14,2.32,1.54,3.32.08.19.71,1.73,1.11,3.49.47,2.06.7,4.4.7,4.4h3.72ZM110.79,13.29h9.69c.09,0,.16-.06.16-.14v-.33c0-.08-.07-.14-.16-.14h-9.69c-.09,0-.16.06-.16.14v.33c0,.08.07.14.16.14ZM110.79,6.85h9.69c.09,0,.16-.06.16-.14v-.33c0-.08-.07-.14-.16-.14h-9.69c-.09,0-.16.06-.16.14v.33c0,.08.07.14.16.14ZM118.56,7.21c.16,0,.29.11.29.26v4.44c0,.14-.13.26-.29.26h-.94c-.16,0-.29-.11-.29-.26v-4.44c0-.14.13-.26.29-.26h.94ZM115.16,7.21c-.16,0-.29.11-.29.26v4.44c0,.14.13.26.29.26h.94c.16,0,.29-.11.29-.26v-4.44c0-.14-.13-.26-.29-.26h-.94ZM112.7,7.21c-.16,0-.29.11-.29.26v4.44c0,.14.13.26.29.26h.94c.16,0,.29-.11.29-.26v-4.44c0-.14-.13-.26-.29-.26h-.94ZM119.36,5.44c-.2-1.71-1.76-3.04-3.66-3.07v-.56h1.02v-.43s-.02-.03-.03-.03h-.15s-.03.01-.03.03v.33h-.8V.43h.02s.04-.02.04-.04V.04s-.02-.04-.04-.04h-.18s-.04.02-.04.04v.35s.02.04.04.04h.03v1.28h-.81v-.33s-.02-.03-.03-.03h-.15s-.03.01-.03.03v.43h1.03v.56c-1.91.03-3.46,1.37-3.66,3.08-.01.12-.02.37-.02.37h7.5s0-.26-.02-.38Z"/>
</svg>