<svg xmlns="http://www.w3.org/2000/svg" xmlns:xlink="http://www.w3.org/1999/xlink" width="2388" height="1461" viewBox="0 0 1791 1095.75"><g data-name="Capa 1"><clipPath id="a"><path transform="matrix(1 0 0 -1 0 1095.75)" d="M0 1095.75h1791V0H0z"/></clipPath><g clip-path="url(#a)"><symbol id="b"><path d="M.489 0h.168v.68H.489V.417H.168V.68H0V0h.168v.271h.321V0z"/></symbol><symbol id="c"><path d="M0 .274A.27.27 0 0 1 .281 0c.164 0 .283.117.283.274a.272.272 0 0 1-.283.277A.271.271 0 0 1 0 .274m.162 0c0 .069.048.124.119.124.073 0 .121-.055.121-.124A.118.118 0 0 0 .281.152a.117.117 0 0 0-.119.122z"/></symbol><symbol id="d"><path d="M0 .533V.01h.168v.312c.015.03.048.065.095.065C.32.387.351.35.351.283V.148C.351.041.399 0 .483 0c.051 0 .096.01.124.022L.602.155A.126.126 0 0 0 .551.141C.525.141.519.163.519.189v.122c0 .128-.057.231-.192.231A.215.215 0 0 1 .168.475v.058H0z"/></symbol><symbol id="e"><path d="M.39.72V.488a.218.218 0 0 1-.149.054C.099.542 0 .43 0 .272 0 .114.099 0 .241 0c.076 0 .128.029.161.071C.421.02.462 0 .521 0a.36.36 0 0 1 .125.022L.64.155A.141.141 0 0 0 .59.141C.564.141.558.162.558.189V.72H.39M.171.272c0 .076.047.124.119.124a.153.153 0 0 0 .1-.038V.183a.16.16 0 0 0-.1-.037C.217.146.171.195.171.272z"/></symbol><symbol id="f"><path d="M.351.533V.204A.11.11 0 0 0 .256.153C.188.153.168.186.168.255v.278H0V.231C0 .097.057 0 .192 0c.073 0 .133.024.172.068C.383.02.424 0 .481 0c.05 0 .099.01.125.022L.6.155A.122.122 0 0 0 .549.141c-.025 0-.03.022-.03.048v.344H.351z"/></symbol><symbol id="g"><path d="M.088 0h.168v.273c.005.054.027.104.089.104.05 0 .095-.016.1-.023l.021.153C.462.514.422.532.373.532A.13.13 0 0 1 .246.455C.228.509.186.532.124.532A.315.315 0 0 1 0 .51L.005.378a.13.13 0 0 0 .051.013C.083.391.088.37.088.343V0z"/></symbol><symbol id="h"><path d="M.557.533H.389V.487a.196.196 0 0 1-.148.055C.098.542 0 .429 0 .27 0 .113.098.001.241.001c.07 0 .125.032.16.074C.419.023.46 0 .52 0c.05 0 .097.011.125.022L.639.155a.11.11 0 0 0-.05-.014C.564.141.557.163.557.189v.344M.389.184a.155.155 0 0 0-.1-.038C.217.146.171.195.171.27c0 .077.045.126.118.126a.15.15 0 0 0 .1-.038V.184z"/></symbol><symbol id="i"><path d="M.432.504a.548.548 0 0 1-.195.038C.091.542 0 .471 0 .367 0 .288.042.241.127.216L.21.193C.243.184.263.175.263.158.263.135.24.127.201.127a.385.385 0 0 0-.163.049L.007.045A.477.477 0 0 1 .213 0c.138 0 .218.068.218.169 0 .071-.03.122-.125.148L.213.342C.183.35.17.357.17.377c0 .025.029.035.063.035A.35.35 0 0 0 .389.37l.043.134z"/></symbol><use xlink:href="#b" transform="matrix(277.6794 0 0 -277.6794 72.224 763.232)" fill="#79cfdd"/><use xlink:href="#c" transform="matrix(277.6794 0 0 -277.6794 321.025 767.12)" fill="#79cfdd"/><use xlink:href="#d" transform="matrix(277.6794 0 0 -277.6794 544.001 766.01)" fill="#79cfdd"/><use xlink:href="#e" transform="matrix(277.6794 0 0 -277.6794 763.368 766.01)" fill="#79cfdd"/><use xlink:href="#f" transform="matrix(277.6794 0 0 -277.6794 1003.838 766.01)" fill="#79cfdd"/><use xlink:href="#g" transform="matrix(277.6794 0 0 -277.6794 1221.54 763.232)" fill="#79cfdd"/><use xlink:href="#h" transform="matrix(277.6794 0 0 -277.6794 1400.643 766.01)" fill="#79cfdd"/><use xlink:href="#i" transform="matrix(277.6794 0 0 -277.6794 1634.17 766.01)" fill="#79cfdd"/><symbol id="j"><path d="M0 0h.168v.68H0V0z"/></symbol><symbol id="k"><path d="M.087.232C.087.089.166 0 .334 0c.169 0 .262.104.262.259a.784.784 0 0 1-.054.274H.364A.645.645 0 0 0 .428.269C.428.19.39.153.334.153.28.153.255.186.255.257v.136c0 .109-.048.149-.131.149A.317.317 0 0 1 0 .52L.005.388a.11.11 0 0 0 .051.013c.026 0 .031-.02.031-.048V.232z"/></symbol><symbol id="l"><path d="M.447.183a.282.282 0 0 0-.15-.05c-.077 0-.12.039-.13.1h.335a.447.447 0 0 1 .011.1c0 .12-.076.218-.235.218A.266.266 0 0 1 0 .274C0 .119.09 0 .287 0c.089 0 .168.027.222.071L.447.183m-.08.156H.17c.008.046.045.084.107.084s.09-.03.09-.072V.339z"/></symbol><symbol id="m"><path d="M.175.533H.007V.148C.007.042.055 0 .138 0c.063 0 .121.018.125.022L.256.155A.106.106 0 0 0 .207.141C.18.141.175.163.175.189v.344M0 .68C0 .624.037.604.092.604c.054 0 .09.02.09.076 0 .056-.036.076-.09.076C.037.756 0 .736 0 .68z"/></symbol><use xlink:href="#j" transform="matrix(277.6794 0 0 -277.6794 72.224 1013.7)" fill="#cccecf"/><use xlink:href="#d" transform="matrix(277.6794 0 0 -277.6794 162.47 1016.476)" fill="#cccecf"/><use xlink:href="#k" transform="matrix(277.6794 0 0 -277.6794 341.573 1016.476)" fill="#cccecf"/><use xlink:href="#l" transform="matrix(277.6794 0 0 -277.6794 535.116 1017.587)" fill="#cccecf"/><use xlink:href="#g" transform="matrix(277.6794 0 0 -277.6794 699.224 1013.7)" fill="#cccecf"/><use xlink:href="#i" transform="matrix(277.6794 0 0 -277.6794 846.394 1016.476)" fill="#cccecf"/><use xlink:href="#m" transform="matrix(277.6794 0 0 -277.6794 998.285 1016.476)" fill="#cccecf"/><use xlink:href="#c" transform="matrix(277.6794 0 0 -277.6794 1092.14 1017.587)" fill="#cccecf"/><use xlink:href="#d" transform="matrix(277.6794 0 0 -277.6794 1282.073 1016.476)" fill="#cccecf"/><use xlink:href="#l" transform="matrix(277.6794 0 0 -277.6794 1468.118 1017.587)" fill="#cccecf"/><use xlink:href="#i" transform="matrix(277.6794 0 0 -277.6794 1636.947 1016.476)" fill="#cccecf"/></g><path d="m349.307 179.54 15.458 47.568h49.954l-40.411 29.376 15.409 47.52-40.41-29.377-40.411 29.376 15.409-47.519-40.411-29.376h49.954zM566.911 302.978l15.508 47.52h49.904l-40.41 29.375 15.408 47.568-40.41-29.376-40.41 29.376 15.408-47.568-40.41-29.376h49.953zM131.702 302.978l15.458 47.52h49.954l-40.411 29.375 15.409 47.568-40.41-29.376-40.411 29.376 15.409-47.568-40.411-29.376h49.954zM566.911 56.102l15.508 47.568h49.904l-40.41 29.376 15.408 47.52-40.41-29.377-40.41 29.376 15.408-47.519-40.41-29.376h49.953zM131.702 56.102l15.458 47.568h49.954l-40.411 29.376 15.409 47.52-40.41-29.377-40.411 29.376 15.409-47.519-40.411-29.376h49.954zM1001.202 285.07H846.32v142.357H741.59V56.575h104.73v137.982h154.882V56.575h104.679v370.852H1001.2z" fill="#79cfdd"/></g></svg>