<?xml version="1.0" encoding="UTF-8"?>
<svg id="Capa_1" data-name="Capa 1" xmlns="http://www.w3.org/2000/svg" version="1.1" xmlns:xlink="http://www.w3.org/1999/xlink" viewBox="0 0 124.1 123.7">
  <defs>
    <style>
      .cls-1 {
        fill: #9ba9b5;
  ***REMOVED***

      .cls-1, .cls-2, .cls-3, .cls-4 {
        stroke-width: 0px;
  ***REMOVED***

      .cls-2 {
        fill: url(#Degradado_sin_nombre_3);
  ***REMOVED***

      .cls-5 {
        isolation: isolate;
  ***REMOVED***

      .cls-3 {
        fill: url(#Degradado_sin_nombre);
  ***REMOVED***

      .cls-4 {
        fill: url(#Degradado_sin_nombre_2);
  ***REMOVED***
    </style>
    <linearGradient id="Degradado_sin_nombre" data-name="Degradado sin nombre" x1="-1768.1" y1="67.8" x2="-1737.6" y2="98.2" gradientTransform="translate(-1697.3 126) rotate(-180)" gradientUnits="userSpaceOnUse">
      <stop offset="0" stop-color="#bfc8ce"/>
      <stop offset="1" stop-color="#91a7b3"/>
    </linearGradient>
    <linearGradient id="Degradado_sin_nombre_2" data-name="Degradado sin nombre 2" x1="-1765.5" y1="70.3" x2="-1744.8" y2="91" gradientTransform="translate(-1697.3 126) rotate(-180)" gradientUnits="userSpaceOnUse">
      <stop offset="0" stop-color="#bfc8ce"/>
      <stop offset="1" stop-color="#91a7b3"/>
    </linearGradient>
    <linearGradient id="Degradado_sin_nombre_3" data-name="Degradado sin nombre 3" x1="-1763" y1="72.7" x2="-1752" y2="83.8" gradientTransform="translate(-1697.3 126) rotate(-180)" gradientUnits="userSpaceOnUse">
      <stop offset="0" stop-color="#bfc8ce"/>
      <stop offset="1" stop-color="#91a7b3"/>
    </linearGradient>
  </defs>
  <g>
    <path class="cls-3" d="M51.8,76.1c1.3,0,2.4-1.1,2.4-2.4s-1.1-2.4-2.4-2.4c-6.3,0-11.5-5.1-11.5-11.5v-20.5c0-6.3,5.1-11.5,11.5-11.5h20.5c6.3,0,11.5,5.1,11.5,11.5s1.1,2.4,2.4,2.4,2.4-1.1,2.4-2.4c0-9-7.3-16.3-16.3-16.3h-20.5c-9,0-16.3,7.3-16.3,16.3v20.5c0,9,7.3,16.3,16.3,16.3Z"/>
    <path class="cls-4" d="M55.5,67.5c1.3,0,2.4-1.1,2.4-2.4s-1.1-2.4-2.4-2.4c-3.6,0-6.5-2.9-6.5-6.5v-13.2c0-3.6,2.9-6.5,6.5-6.5h13.2c3.6,0,6.5,2.9,6.5,6.5s1.1,2.4,2.4,2.4,2.4-1.1,2.4-2.4c0-6.2-5.1-11.3-11.3-11.3h-13.2c-6.2,0-11.3,5.1-11.3,11.3v13.2c0,6.2,5.1,11.3,11.3,11.3Z"/>
    <path class="cls-2" d="M59.1,58.9c1.3,0,2.4-1.1,2.4-2.4s-1.1-2.4-2.4-2.4-1.6-.7-1.6-1.6v-5.8c0-.9.7-1.6,1.6-1.6h5.8c.9,0,1.6.7,1.6,1.6,0,1.3,1.1,2.4,2.4,2.4s2.4-1.1,2.4-2.4c0-3.5-2.8-6.3-6.3-6.3h-5.8c-3.5,0-6.3,2.8-6.3,6.3v5.8c0,3.5,2.8,6.3,6.3,6.3h-.1Z"/>
  </g>
  <g class="cls-5">
    <g class="cls-5">
      <path class="cls-1" d="M11.8,88.3h2.9v10.2h6.3v2.4h-9.2v-12.6Z"/>
    </g>
    <g class="cls-5">
      <path class="cls-1" d="M21.7,94.6c0-3.7,2.9-6.5,6.9-6.5s6.9,2.8,6.9,6.5-2.9,6.5-6.9,6.5-6.9-2.8-6.9-6.5ZM32.5,94.6c0-2.4-1.7-4-3.9-4s-3.9,1.6-3.9,4,1.7,4,3.9,4,3.9-1.6,3.9-4Z"/>
      <path class="cls-1" d="M46.2,94.4h2.7v5.1c-1.4,1-3.3,1.6-5.1,1.6-4,0-6.9-2.7-6.9-6.5s2.9-6.5,6.9-6.5,4.1.8,5.3,2.2l-1.9,1.7c-.9-1-2-1.4-3.3-1.4-2.4,0-4.1,1.6-4.1,4s1.7,4,4.1,4,1.5-.1,2.3-.5v-3.7Z"/>
      <path class="cls-1" d="M50.8,94.6c0-3.7,2.9-6.5,6.9-6.5s6.9,2.8,6.9,6.5-2.9,6.5-6.9,6.5-6.9-2.8-6.9-6.5ZM61.6,94.6c0-2.4-1.7-4-3.9-4s-3.9,1.6-3.9,4,1.7,4,3.9,4,3.9-1.6,3.9-4Z"/>
    </g>
    <g class="cls-5">
      <path class="cls-1" d="M82.7,92.9c0,2.8-2.1,4.6-5.5,4.6h-2.5v3.5h-2.9v-12.6h5.5c3.4,0,5.5,1.7,5.5,4.6ZM79.8,92.9c0-1.4-.9-2.2-2.7-2.2h-2.4v4.4h2.4c1.8,0,2.7-.8,2.7-2.2Z"/>
    </g>
    <g class="cls-5">
      <path class="cls-1" d="M92.5,98.2h-5.9l-1.1,2.7h-3l5.6-12.6h2.9l5.6,12.6h-3.1l-1.1-2.7ZM91.6,96l-2-4.8-2,4.8h4Z"/>
      <path class="cls-1" d="M100.2,84.7h3l-3.3,2.6h-2.2l2.4-2.6ZM98,88.3h2.9v12.6h-2.9v-12.6Z"/>
      <path class="cls-1" d="M102.9,99.7l1-2.2c1.1.8,2.6,1.3,4.2,1.3s2.4-.6,2.4-1.3c0-2.4-7.3-.7-7.3-5.4s1.7-3.9,5.3-3.9,3.2.4,4.4,1.1l-.9,2.2c-1.2-.7-2.4-1-3.5-1-1.7,0-2.4.6-2.4,1.4,0,2.3,7.3.7,7.3,5.3s-1.7,3.9-5.3,3.9-4-.6-5.1-1.5Z"/>
    </g>
  </g>
</svg>