<svg xmlns="http://www.w3.org/2000/svg" width="287.464" height="41.344" viewBox="0 0 287.464 41.344">
  <g id="logoEntidad3" transform="translate(0 0.06)">
    <g id="a" transform="translate(0 -0.06)">
      <path id="Path_14260" data-name="Path 14260" d="M28.864,31.682A7.382,7.382,0,0,1,39,21.576l6.818-6.8A16.9,16.9,0,0,0,22.032,38.494l6.832-6.8Z" transform="translate(-6.047 -3.611)" fill="#fff"/>
      <path id="Path_14261" data-name="Path 14261" d="M51.656,20.633l-6.818,6.8A7.382,7.382,0,0,1,34.671,37.538L27.88,44.363A16.9,16.9,0,0,0,51.663,20.62Z" transform="translate(-9.17 -6.742)" fill="#fff"/>
      <path id="Path_14262" data-name="Path 14262" d="M85.169,37.608a7.382,7.382,0,0,1-10.106-10.14l-6.8-6.818A16.9,16.9,0,0,0,91.981,44.426l-6.8-6.818Z" transform="translate(-21.249 -6.752)" fill="#fff"/>
      <path id="Path_14263" data-name="Path 14263" d="M74.1,14.81l6.8,6.818a7.382,7.382,0,0,1,10.106,10.14l6.8,6.8A16.9,16.9,0,0,0,74.09,14.8Z" transform="translate(-24.37 -3.637)" fill="#fff"/>
      <path id="Path_14264" data-name="Path 14264" d="M.047,11.19v9.63A7.382,7.382,0,0,1,5.51,27.987,7.382,7.382,0,0,1,0,35.141v9.63A16.9,16.9,0,0,0,15,27.994,16.9,16.9,0,0,0,.047,11.19Z" transform="translate(0 -3.64)" fill="#fff"/>
      <path id="Path_14265" data-name="Path 14265" d="M125.955,35.321a7.415,7.415,0,0,1,0-14.321V11.37a16.9,16.9,0,0,0-.047,33.554v-9.63Z" transform="translate(-36.527 -3.699)" fill="#fff"/>
      <path id="Path_14266" data-name="Path 14266" d="M22.877,5.349a5.369,5.369,0,1,0-5.369,5.328,5.369,5.369,0,0,0,5.369-5.328Z" transform="translate(-3.993 0.06)" fill="#fff"/>
      <path id="Path_14267" data-name="Path 14267" d="M69.277,5.349a5.369,5.369,0,1,0-5.369,5.328,5.369,5.369,0,0,0,5.369-5.328Z" transform="translate(-19.255 0.06)" fill="#fff"/>
      <circle id="Ellipse_566" data-name="Ellipse 566" cx="5.335" cy="5.335" r="5.335" transform="translate(70.49 0.128)" fill="#fff"/>
      <path id="Path_14268" data-name="Path 14268" d="M145.6,23.847V12.15h4.026a6.248,6.248,0,0,1,2.463.47,5.08,5.08,0,0,1,1.832,1.255,5.281,5.281,0,0,1,1.06,1.852,7.166,7.166,0,0,1,.349,2.268,7.046,7.046,0,0,1-.4,2.416,5.134,5.134,0,0,1-1.141,1.845,5.06,5.06,0,0,1-1.812,1.2,6.174,6.174,0,0,1-2.329.416h-4.026Zm8.214-5.858a5.811,5.811,0,0,0-.268-1.819,3.926,3.926,0,0,0-.805-1.429,3.785,3.785,0,0,0-1.342-.933,4.315,4.315,0,0,0-1.765-.342h-2.57v9.06h2.57a4.282,4.282,0,0,0,1.785-.342,3.6,3.6,0,0,0,1.3-.953,4.12,4.12,0,0,0,.792-1.443,5.785,5.785,0,0,0,.275-1.805Z" transform="translate(-47.891 -3.956)" fill="#fff"/>
      <path id="Path_14269" data-name="Path 14269" d="M162.853,13.5V11.69h1.436V13.5Zm0,10.214v-8.6h1.436v8.6h-1.45Z" transform="translate(-53.562 -3.805)" fill="#fff"/>
      <path id="Path_14270" data-name="Path 14270" d="M173.037,18.045a3.738,3.738,0,0,0-1.919.557,2.859,2.859,0,0,0-1.181,1.463v5.3H168.48v-8.6h1.342v2.013a4.073,4.073,0,0,1,1.168-1.443,2.926,2.926,0,0,1,1.55-.617h.315a.577.577,0,0,1,.195,0v1.342Z" transform="translate(-55.417 -5.455)" fill="#fff"/>
      <path id="Path_14271" data-name="Path 14271" d="M180.625,25.512a4.382,4.382,0,0,1-1.778-.356,4.141,4.141,0,0,1-1.382-.966,4.362,4.362,0,0,1-.893-1.429,4.657,4.657,0,0,1-.322-1.725,4.564,4.564,0,0,1,.322-1.711,4.409,4.409,0,0,1,.906-1.416,4.507,4.507,0,0,1,4.946-.946,4.154,4.154,0,0,1,1.342.966,4.4,4.4,0,0,1,.866,1.4,4.53,4.53,0,0,1,.3,1.658v.329a.918.918,0,0,1,0,.228H177.78a3.288,3.288,0,0,0,.315,1.161,2.926,2.926,0,0,0,.671.906,3.006,3.006,0,0,0,.9.6,2.765,2.765,0,0,0,1.832.107,3.51,3.51,0,0,0,.711-.289,2.4,2.4,0,0,0,.584-.443,1.879,1.879,0,0,0,.389-.591l1.255.349a3.107,3.107,0,0,1-.584.872,3.932,3.932,0,0,1-.859.671,4.207,4.207,0,0,1-1.08.45,4.7,4.7,0,0,1-1.235.161Zm2.953-5.04a3.114,3.114,0,0,0-.3-1.127,2.979,2.979,0,0,0-.671-.886,2.892,2.892,0,0,0-.9-.57,2.946,2.946,0,0,0-2.174,0,2.751,2.751,0,0,0-.9.577,2.966,2.966,0,0,0-.631.879,3.208,3.208,0,0,0-.289,1.121h5.838Z" transform="translate(-57.973 -5.419)" fill="#fff"/>
      <path id="Path_14272" data-name="Path 14272" d="M190.76,21.042a4.7,4.7,0,0,1,.315-1.711,4.167,4.167,0,0,1,.893-1.409,4.261,4.261,0,0,1,3.161-1.3,4.181,4.181,0,0,1,2.215.57,3.751,3.751,0,0,1,1.409,1.523l-1.416.443a2.315,2.315,0,0,0-.919-.94,2.684,2.684,0,0,0-1.342-.342,2.657,2.657,0,0,0-2.027.906,3.221,3.221,0,0,0-.6,1.007,3.5,3.5,0,0,0-.221,1.268,3.456,3.456,0,0,0,.228,1.268,3.355,3.355,0,0,0,.617,1.033,2.839,2.839,0,0,0,.906.671,2.53,2.53,0,0,0,1.114.248,2.611,2.611,0,0,0,.752-.107,3.074,3.074,0,0,0,.671-.289,2.791,2.791,0,0,0,.537-.416,1.436,1.436,0,0,0,.329-.517l1.416.429a3.047,3.047,0,0,1-.49.879,3.355,3.355,0,0,1-.832.671,4.409,4.409,0,0,1-1.06.443,4.6,4.6,0,0,1-1.228.161,4.282,4.282,0,0,1-3.161-1.342,4.363,4.363,0,0,1-.893-1.429,4.657,4.657,0,0,1-.322-1.725Z" transform="translate(-62.746 -5.426)" fill="#fff"/>
      <path id="Path_14273" data-name="Path 14273" d="M204.223,21.062a4.7,4.7,0,0,1,.315-1.711,4.167,4.167,0,0,1,.893-1.409,4.261,4.261,0,0,1,3.161-1.3,4.181,4.181,0,0,1,2.215.57,3.751,3.751,0,0,1,1.409,1.523l-1.416.443a2.315,2.315,0,0,0-.919-.953,2.684,2.684,0,0,0-1.342-.342,2.657,2.657,0,0,0-2.027.906,3.22,3.22,0,0,0-.6,1.007,3.5,3.5,0,0,0-.221,1.268,3.456,3.456,0,0,0,.228,1.268,3.355,3.355,0,0,0,.617,1.033,2.839,2.839,0,0,0,.906.671,2.53,2.53,0,0,0,1.114.248,2.611,2.611,0,0,0,.752-.107,3.074,3.074,0,0,0,.671-.289,2.792,2.792,0,0,0,.537-.416,1.436,1.436,0,0,0,.329-.517l1.416.429a3.048,3.048,0,0,1-.55.872,3.356,3.356,0,0,1-.832.671,4.409,4.409,0,0,1-1.06.443,4.6,4.6,0,0,1-1.228.161,4.281,4.281,0,0,1-3.161-1.342,4.363,4.363,0,0,1-.893-1.429,4.657,4.657,0,0,1-.322-1.725Z" transform="translate(-67.17 -5.432)" fill="#fff"/>
      <path id="Path_14274" data-name="Path 14274" d="M218.71,13.572V11.76h1.45v1.812Zm0,10.214v-8.6h1.45v8.6h-1.45Z" transform="translate(-71.939 -3.828)" fill="#fff"/>
      <path id="Path_14275" data-name="Path 14275" d="M227.822,23.963a4.221,4.221,0,0,1-1.772-.362,4.275,4.275,0,0,1-1.342-.973,4.456,4.456,0,0,1-.879-1.416,4.644,4.644,0,0,1-.309-1.7,4.563,4.563,0,0,1,.322-1.711,4.489,4.489,0,0,1,.893-1.416,4.3,4.3,0,0,1,1.342-.973,4.208,4.208,0,0,1,1.758-.362,4.281,4.281,0,0,1,1.765.362,4.228,4.228,0,0,1,1.342.973,4.469,4.469,0,0,1,.953,1.416,4.563,4.563,0,0,1,.322,1.711,4.7,4.7,0,0,1-.315,1.7,4.3,4.3,0,0,1-2.268,2.389,4.221,4.221,0,0,1-1.772.362Zm-2.845-4.436a3.5,3.5,0,0,0,.208,1.255,3.187,3.187,0,0,0,.611,1.007,2.819,2.819,0,0,0,.906.671,2.624,2.624,0,0,0,2.228,0,2.745,2.745,0,0,0,.913-.671,3.2,3.2,0,0,0,.617-1.02,3.536,3.536,0,0,0,.221-1.262,3.482,3.482,0,0,0-.221-1.241,3.194,3.194,0,0,0-.617-1.02,3.02,3.02,0,0,0-.913-.671,2.59,2.59,0,0,0-2.228,0,2.859,2.859,0,0,0-.906.671,3.3,3.3,0,0,0-.611,1.02,3.537,3.537,0,0,0-.221,1.262Zm3.107-5.765-.953-.329.96-1.664h1.45l-1.45,2.013Z" transform="translate(-73.521 -3.831)" fill="#fff"/>
      <path id="Path_14276" data-name="Path 14276" d="M246.516,25.434h-1.45V20.622a3.731,3.731,0,0,0-.409-2.013,1.456,1.456,0,0,0-1.275-.631,2.369,2.369,0,0,0-.893.175,3.355,3.355,0,0,0-.839.47,3.281,3.281,0,0,0-.671.7,2.845,2.845,0,0,0-.443.906V25.42H239.08v-8.6h1.342v1.845a3.785,3.785,0,0,1,1.476-1.45,4.208,4.208,0,0,1,2.1-.544,2.53,2.53,0,0,1,1.235.275,2.148,2.148,0,0,1,.792.758,3.355,3.355,0,0,1,.416,1.148,7.962,7.962,0,0,1,.121,1.436v5.14Z" transform="translate(-78.639 -5.442)" fill="#fff"/>
      <path id="Path_14277" data-name="Path 14277" d="M267.979,22.407a4.708,4.708,0,0,1-5.731,1.141,5.718,5.718,0,0,1-1.718-1.342,6.342,6.342,0,0,1-1.141-1.906A5.946,5.946,0,0,1,259,18.112a6.134,6.134,0,0,1,.416-2.248,6.208,6.208,0,0,1,1.141-1.879,5.315,5.315,0,0,1,1.731-1.288,5.543,5.543,0,0,1,4.966.235,4.65,4.65,0,0,1,1.644,1.825l-1.141.792a3.537,3.537,0,0,0-1.376-1.523,3.919,3.919,0,0,0-1.96-.5,3.423,3.423,0,0,0-1.617.383,3.872,3.872,0,0,0-1.235,1.02,4.73,4.73,0,0,0-.792,1.463,5.368,5.368,0,0,0-.3,1.718,5.02,5.02,0,0,0,.309,1.772,4.825,4.825,0,0,0,.852,1.47,4.026,4.026,0,0,0,1.282,1,3.637,3.637,0,0,0,1.617.362,4.429,4.429,0,0,0,3.443-1.839V19.266h-2.517V18.145h3.771v5.838h-1.262V22.4Z" transform="translate(-85.191 -3.979)" fill="#fff"/>
      <path id="Path_14278" data-name="Path 14278" d="M280.785,25.615a4.382,4.382,0,0,1-1.778-.356,4.141,4.141,0,0,1-1.382-.966,4.361,4.361,0,0,1-.893-1.429,4.657,4.657,0,0,1-.322-1.725,4.563,4.563,0,0,1,.322-1.711,4.409,4.409,0,0,1,.906-1.416,4.322,4.322,0,0,1,3.174-1.342,4.221,4.221,0,0,1,1.772.362,4.154,4.154,0,0,1,1.342.966,4.288,4.288,0,0,1,.866,1.4,4.651,4.651,0,0,1,.3,1.658v.329a.918.918,0,0,1,0,.228H277.94a3.288,3.288,0,0,0,.3,1.161,2.926,2.926,0,0,0,.671.906,3.006,3.006,0,0,0,.9.6,2.765,2.765,0,0,0,1.832.107,3.509,3.509,0,0,0,.711-.289,2.4,2.4,0,0,0,.584-.443,1.879,1.879,0,0,0,.389-.591l1.255.349a3.106,3.106,0,0,1-.584.872,3.933,3.933,0,0,1-.859.671,4.208,4.208,0,0,1-1.08.45,4.7,4.7,0,0,1-1.235.161Zm2.953-5.04a3.113,3.113,0,0,0-.3-1.127,2.979,2.979,0,0,0-.671-.886,2.892,2.892,0,0,0-.9-.57,2.946,2.946,0,0,0-2.174,0,2.752,2.752,0,0,0-.9.577,2.966,2.966,0,0,0-.631.879,3.208,3.208,0,0,0-.289,1.121h5.838Z" transform="translate(-90.918 -5.443)" fill="#fff"/>
      <path id="Path_14279" data-name="Path 14279" d="M299.246,25.5H297.8V20.692a3.731,3.731,0,0,0-.409-2.013,1.456,1.456,0,0,0-1.275-.631,2.369,2.369,0,0,0-.893.175,3.355,3.355,0,0,0-.839.47,3.281,3.281,0,0,0-.671.7,2.845,2.845,0,0,0-.443.906V25.49H291.81v-8.6h1.342v1.845a3.785,3.785,0,0,1,1.476-1.45,4.208,4.208,0,0,1,2.1-.544,2.53,2.53,0,0,1,1.235.275,2.147,2.147,0,0,1,.792.758,3.234,3.234,0,0,1,.416,1.148,7.965,7.965,0,0,1,.121,1.436V25.5Z" transform="translate(-95.983 -5.465)" fill="#fff"/>
      <path id="Path_14280" data-name="Path 14280" d="M309.785,25.692a4.382,4.382,0,0,1-1.778-.356,4.141,4.141,0,0,1-1.382-.966,4.362,4.362,0,0,1-.892-1.4,4.656,4.656,0,0,1-.322-1.725,4.564,4.564,0,0,1,.322-1.711,4.409,4.409,0,0,1,.906-1.416,4.322,4.322,0,0,1,3.194-1.335,4.221,4.221,0,0,1,1.772.362,4.154,4.154,0,0,1,1.342.966,4.4,4.4,0,0,1,.866,1.4,4.651,4.651,0,0,1,.3,1.658c0,.121,0,.228,0,.329a.918.918,0,0,1,0,.228H306.94a3.288,3.288,0,0,0,.3,1.161,2.926,2.926,0,0,0,.671.906,3.006,3.006,0,0,0,.9.6,2.765,2.765,0,0,0,1.832.107,3.51,3.51,0,0,0,.711-.289,2.4,2.4,0,0,0,.584-.443,1.879,1.879,0,0,0,.389-.591l1.255.349a3.108,3.108,0,0,1-.584.872,3.934,3.934,0,0,1-.859.671,4.208,4.208,0,0,1-1.08.45,4.7,4.7,0,0,1-1.235.161Zm2.953-5.04a3.114,3.114,0,0,0-.3-1.127,2.98,2.98,0,0,0-.671-.886,2.892,2.892,0,0,0-.9-.57,2.946,2.946,0,0,0-2.174,0,2.752,2.752,0,0,0-.9.577,2.966,2.966,0,0,0-.631.879,3.207,3.207,0,0,0-.289,1.121h5.838Z" transform="translate(-100.457 -5.479)" fill="#fff"/>
      <path id="Path_14281" data-name="Path 14281" d="M325.317,18.258a3.738,3.738,0,0,0-1.919.557,2.859,2.859,0,0,0-1.181,1.463v5.308H320.76v-8.6H322.1V19a4.073,4.073,0,0,1,1.168-1.443,2.926,2.926,0,0,1,1.55-.617h.282a.577.577,0,0,1,.195,0v1.342Z" transform="translate(-105.506 -5.528)" fill="#fff"/>
      <path id="Path_14282" data-name="Path 14282" d="M331.589,25.718a2.993,2.993,0,0,1-1.134-.208,2.88,2.88,0,0,1-.913-.57,2.684,2.684,0,0,1-.611-.852,2.523,2.523,0,0,1-.221-1.06,2.234,2.234,0,0,1,.262-1.08,2.463,2.463,0,0,1,.752-.832,4.027,4.027,0,0,1,1.154-.544,5.026,5.026,0,0,1,1.456-.195,6.872,6.872,0,0,1,1.268.121,5.865,5.865,0,0,1,1.134.315v-.671a2.074,2.074,0,0,0-2.268-2.262,4.865,4.865,0,0,0-2.738,1l-.477-.94a5.973,5.973,0,0,1,3.355-1.114,3.637,3.637,0,0,1,2.644.913,3.355,3.355,0,0,1,.913,2.557v3.49c0,.342.148.517.456.53v1.255l-.383.047a2.376,2.376,0,0,1-.315,0,.926.926,0,0,1-.671-.255,1.06,1.06,0,0,1-.3-.617l-.034-.611a3.711,3.711,0,0,1-1.456,1.174,4.489,4.489,0,0,1-1.886.4Zm.383-1.087a3.55,3.55,0,0,0,1.443-.289,2.416,2.416,0,0,0,1.013-.765.919.919,0,0,0,.315-.671V21.638a5.926,5.926,0,0,0-2.188-.416,3.154,3.154,0,0,0-1.772.456,1.389,1.389,0,0,0-.671,1.2,1.638,1.638,0,0,0,.141.671,1.671,1.671,0,0,0,.4.544,1.852,1.852,0,0,0,.6.362,2.06,2.06,0,0,0,.738.134Z" transform="translate(-108.121 -5.492)" fill="#fff"/>
      <path id="Path_14283" data-name="Path 14283" d="M343.333,11.923h1.45v9.8a1.06,1.06,0,0,0,.255.752.933.933,0,0,0,.718.275,2.261,2.261,0,0,0,.429-.054,3.113,3.113,0,0,0,.463-.141l.228,1.168a4.7,4.7,0,0,1-.859.248,4.409,4.409,0,0,1-.906.074,1.664,1.664,0,0,1-1.805-1.812V11.91Z" transform="translate(-112.92 -3.877)" fill="#fff"/>
      <path id="Path_14284" data-name="Path 14284" d="M144.25,47.341a5.972,5.972,0,0,1,.389-2.114,5.711,5.711,0,0,1,1.134-1.866,5.778,5.778,0,0,1,1.812-1.342,5.57,5.57,0,0,1,2.436-.51,5.369,5.369,0,0,1,2.785.718,4.53,4.53,0,0,1,1.751,1.845l-1.751,1.2a3.053,3.053,0,0,0-.557-.832,2.8,2.8,0,0,0-.711-.537,3.121,3.121,0,0,0-.792-.289,3.758,3.758,0,0,0-.805-.094,3.094,3.094,0,0,0-1.49.342,3.255,3.255,0,0,0-1.013.9,4.067,4.067,0,0,0-.671,1.248,4.792,4.792,0,0,0-.215,1.389,4.449,4.449,0,0,0,.248,1.49,3.912,3.912,0,0,0,.671,1.262,3.429,3.429,0,0,0,1.087.872,2.946,2.946,0,0,0,1.389.329,3.644,3.644,0,0,0,.846-.121,3.356,3.356,0,0,0,.819-.309,3.248,3.248,0,0,0,.718-.55,2.544,2.544,0,0,0,.53-.812l1.859,1.074a3.63,3.63,0,0,1-.8,1.161,5.186,5.186,0,0,1-1.168.846,6.308,6.308,0,0,1-2.845.671,5.013,5.013,0,0,1-2.288-.53,6.04,6.04,0,0,1-1.785-1.342,6.462,6.462,0,0,1-1.168-1.926,5.959,5.959,0,0,1-.416-2.2Z" transform="translate(-47.447 -13.613)" fill="#fff"/>
      <path id="Path_14285" data-name="Path 14285" d="M165.535,54.935a4.7,4.7,0,0,1-1.892-.362,4.308,4.308,0,0,1-1.423-.98,4.147,4.147,0,0,1-.893-1.429,4.812,4.812,0,0,1,0-3.409,4.234,4.234,0,0,1,2.362-2.4,4.758,4.758,0,0,1,1.892-.362,4.7,4.7,0,0,1,1.886.362,4.214,4.214,0,0,1,2.262,2.409,4.812,4.812,0,0,1,0,3.409,4.4,4.4,0,0,1-.893,1.423,4.207,4.207,0,0,1-1.416.98,4.758,4.758,0,0,1-1.892.362Zm-2.248-4.469a2.906,2.906,0,0,0,.174,1.047,2.6,2.6,0,0,0,.476.819,2.168,2.168,0,0,0,.718.537,2.214,2.214,0,0,0,1.785,0,2.147,2.147,0,0,0,.718-.537,2.49,2.49,0,0,0,.476-.825,3.127,3.127,0,0,0,.174-1.054,2.919,2.919,0,0,0-.174-1.04,2.637,2.637,0,0,0-.476-.825,2.168,2.168,0,0,0-.718-.537,2.087,2.087,0,0,0-.893-.188,2.114,2.114,0,0,0-.893.195,2.288,2.288,0,0,0-.718.544,2.49,2.49,0,0,0-.476.825,3.046,3.046,0,0,0-.174,1.04Z" transform="translate(-52.962 -15.087)" fill="#fff"/>
      <path id="Path_14286" data-name="Path 14286" d="M184.709,54.8H182.5V49.951a2.49,2.49,0,0,0-.356-1.517,1.181,1.181,0,0,0-1.007-.476,1.919,1.919,0,0,0-.671.127,2.422,2.422,0,0,0-.671.369,2.967,2.967,0,0,0-.55.57,2.161,2.161,0,0,0-.362.725v5.04H176.67V46.153h2.013v1.6a3.2,3.2,0,0,1,1.382-1.282,4.342,4.342,0,0,1,2.013-.456,2.617,2.617,0,0,1,1.342.3,2.188,2.188,0,0,1,.792.772,3.175,3.175,0,0,1,.383,1.087,6.926,6.926,0,0,1,.107,1.235v5.369Z" transform="translate(-58.111 -15.095)" fill="#fff"/>
      <path id="Path_14287" data-name="Path 14287" d="M196.261,53.066a9.656,9.656,0,0,1-1.087.4,4.49,4.49,0,0,1-1.342.195,3.255,3.255,0,0,1-.866-.114,1.866,1.866,0,0,1-.7-.369,1.805,1.805,0,0,1-.483-.671,2.389,2.389,0,0,1-.181-.98V46.576H190.47v-1.7h1.141v-2.8h2.215v2.805h1.805v1.7h-1.812V50.8a.778.778,0,0,0,.235.671.906.906,0,0,0,.584.188,2.147,2.147,0,0,0,.671-.114c.221-.074.4-.141.53-.195l.443,1.745Z" transform="translate(-62.65 -13.801)" fill="#fff"/>
      <path id="Path_14288" data-name="Path 14288" d="M205.974,48.11a4.5,4.5,0,0,0-1.8.383,2.268,2.268,0,0,0-1.141,1.107V54.82H200.82V46.184h2.013v1.852a3.985,3.985,0,0,1,.544-.8,4.181,4.181,0,0,1,.671-.617,3.3,3.3,0,0,1,.731-.4,2.013,2.013,0,0,1,.718-.141h.275a.5.5,0,0,1,.174,0v2.013Z" transform="translate(-66.055 -15.113)" fill="#fff"/>
      <path id="Path_14289" data-name="Path 14289" d="M212.216,54.985a3.194,3.194,0,0,1-1.168-.208,2.838,2.838,0,0,1-.939-.577,2.725,2.725,0,0,1-.617-.866,2.624,2.624,0,0,1-.221-1.087,2.376,2.376,0,0,1,.275-1.127,2.638,2.638,0,0,1,.758-.879,3.825,3.825,0,0,1,1.161-.57,5.181,5.181,0,0,1,1.483-.2,6.288,6.288,0,0,1,1.127.1,4.7,4.7,0,0,1,.98.282v-.49a1.725,1.725,0,0,0-.483-1.342,2.013,2.013,0,0,0-1.443-.463,3.725,3.725,0,0,0-1.342.248,5.952,5.952,0,0,0-1.342.725l-.671-1.4a6.4,6.4,0,0,1,3.59-1.1,4.214,4.214,0,0,1,2.892.919,3.355,3.355,0,0,1,1.027,2.644v2.684a.805.805,0,0,0,.121.5.537.537,0,0,0,.4.168v1.879a5.167,5.167,0,0,1-.973.114,1.483,1.483,0,0,1-.966-.282,1.188,1.188,0,0,1-.416-.745l-.047-.476a3.872,3.872,0,0,1-1.4,1.154,4.026,4.026,0,0,1-1.765.4Zm.631-1.611a2.946,2.946,0,0,0,1.06-.195,2.013,2.013,0,0,0,.785-.523.792.792,0,0,0,.362-.624v-.986a5.268,5.268,0,0,0-.852-.242,4.631,4.631,0,0,0-.886-.1,2.389,2.389,0,0,0-1.4.383,1.154,1.154,0,0,0-.544.96,1.175,1.175,0,0,0,.43.933,1.55,1.55,0,0,0,1.054.369Z" transform="translate(-68.834 -15.096)" fill="#fff"/>
      <path id="Path_14290" data-name="Path 14290" d="M229.011,53.116a9.656,9.656,0,0,1-1.087.4,4.49,4.49,0,0,1-1.342.195,3.255,3.255,0,0,1-.866-.114,1.865,1.865,0,0,1-.7-.369,1.805,1.805,0,0,1-.483-.671,2.389,2.389,0,0,1-.181-.98V46.626H223.22v-1.7h1.141v-2.8h2.215v2.805h1.805v1.7h-1.812v4.214a.778.778,0,0,0,.235.671.906.906,0,0,0,.584.188,2.147,2.147,0,0,0,.671-.114c.221-.074.4-.141.53-.195l.443,1.745Z" transform="translate(-73.423 -13.817)" fill="#fff"/>
      <path id="Path_14291" data-name="Path 14291" d="M235.629,55.005a3.194,3.194,0,0,1-1.168-.208,2.839,2.839,0,0,1-.939-.577,2.725,2.725,0,0,1-.631-.832,2.624,2.624,0,0,1-.221-1.087,2.376,2.376,0,0,1,.275-1.127,2.637,2.637,0,0,1,.758-.879,3.825,3.825,0,0,1,1.161-.57,5.18,5.18,0,0,1,1.483-.2,6.287,6.287,0,0,1,1.127.1,4.7,4.7,0,0,1,.98.282v-.544a1.725,1.725,0,0,0-.483-1.342,2.013,2.013,0,0,0-1.443-.463,3.724,3.724,0,0,0-1.342.248,5.952,5.952,0,0,0-1.342.725l-.671-1.4a6.4,6.4,0,0,1,3.59-1.1,4.214,4.214,0,0,1,2.892.919,3.355,3.355,0,0,1,1.027,2.644v2.684a.805.805,0,0,0,.121.5.537.537,0,0,0,.4.168v1.879a5.167,5.167,0,0,1-.973.114,1.483,1.483,0,0,1-.966-.282,1.188,1.188,0,0,1-.416-.745l-.047-.476a3.872,3.872,0,0,1-1.4,1.154,4.026,4.026,0,0,1-1.765.4Zm.617-1.617a2.946,2.946,0,0,0,1.06-.195,2.013,2.013,0,0,0,.785-.523.792.792,0,0,0,.362-.624v-.98a5.268,5.268,0,0,0-.852-.242,4.631,4.631,0,0,0-.886-.094,2.389,2.389,0,0,0-1.4.383,1.154,1.154,0,0,0-.544.98,1.174,1.174,0,0,0,.429.933A1.55,1.55,0,0,0,236.247,53.388Z" transform="translate(-76.531 -15.096)" fill="#fff"/>
      <path id="Path_14292" data-name="Path 14292" d="M246.847,50.562a4.7,4.7,0,0,1,.315-1.711,4.194,4.194,0,0,1,.906-1.416,4.449,4.449,0,0,1,1.436-.973A4.758,4.758,0,0,1,251.4,46.1a4.557,4.557,0,0,1,2.409.611,3.912,3.912,0,0,1,1.49,1.6l-2.161.671a2.014,2.014,0,0,0-.738-.731,2.188,2.188,0,0,0-1.913-.067,2.228,2.228,0,0,0-.718.523,2.5,2.5,0,0,0-.477.812,3.127,3.127,0,0,0-.174,1.054,2.939,2.939,0,0,0,.181,1.054,2.785,2.785,0,0,0,.483.825,2.168,2.168,0,0,0,.718.537,2.013,2.013,0,0,0,.872.188,2.141,2.141,0,0,0,1.094-.3,1.6,1.6,0,0,0,.671-.725l2.161.671a3.6,3.6,0,0,1-1.47,1.611,4.624,4.624,0,0,1-2.456.624,4.7,4.7,0,0,1-1.892-.362,4.281,4.281,0,0,1-2.342-2.416,4.468,4.468,0,0,1-.315-1.7Z" transform="translate(-81.185 -15.122)" fill="#fff"/>
      <path id="Path_14293" data-name="Path 14293" d="M261.53,43.468V41.28h2.208v2.194H261.53Zm0,9.831v-8.63h2.208v8.637H261.53Z" transform="translate(-86.024 -13.538)" fill="#fff"/>
      <path id="Path_14294" data-name="Path 14294" d="M271.495,55.075a4.7,4.7,0,0,1-1.892-.362,4.309,4.309,0,0,1-1.423-.98,4.147,4.147,0,0,1-.893-1.429,4.812,4.812,0,0,1,0-3.409,4.234,4.234,0,0,1,2.329-2.4,4.758,4.758,0,0,1,1.892-.362,4.7,4.7,0,0,1,1.886.362,4.214,4.214,0,0,1,2.322,2.409,4.812,4.812,0,0,1,0,3.409,4.4,4.4,0,0,1-.892,1.423,4.208,4.208,0,0,1-1.416.98,4.738,4.738,0,0,1-1.892.362Zm-2.248-4.469a2.906,2.906,0,0,0,.174,1.047,2.6,2.6,0,0,0,.476.819,2.167,2.167,0,0,0,.718.537,2.138,2.138,0,0,0,2.5-.537,2.489,2.489,0,0,0,.476-.825,3.1,3.1,0,0,0,.174-1.054,2.92,2.92,0,0,0-.174-1.04,2.638,2.638,0,0,0-.476-.825,2.167,2.167,0,0,0-.718-.537,2.087,2.087,0,0,0-.893-.188,2.114,2.114,0,0,0-.893.195,2.289,2.289,0,0,0-.718.544,2.489,2.489,0,0,0-.477.825A3.047,3.047,0,0,0,269.247,50.606Z" transform="translate(-87.815 -15.133)" fill="#fff"/>
      <path id="Path_14295" data-name="Path 14295" d="M290.659,54.936h-2.208V50.071a2.49,2.49,0,0,0-.356-1.517,1.181,1.181,0,0,0-1.007-.476,1.919,1.919,0,0,0-.671.128,2.423,2.423,0,0,0-.671.369,2.967,2.967,0,0,0-.55.57,2.16,2.16,0,0,0-.362.725v5.04H282.62V46.273h2.013v1.6a3.2,3.2,0,0,1,1.382-1.282,4.342,4.342,0,0,1,2.013-.456,2.617,2.617,0,0,1,1.342.3,2.188,2.188,0,0,1,.792.772,3.175,3.175,0,0,1,.383,1.087,6.927,6.927,0,0,1,.107,1.235V54.9Z" transform="translate(-92.961 -15.135)" fill="#fff"/>
      <path id="Path_14296" data-name="Path 14296" d="M301.216,55.115a4.832,4.832,0,0,1-1.879-.356,4.2,4.2,0,0,1-1.429-.966,4.416,4.416,0,0,1-1.228-3.114A4.812,4.812,0,0,1,297,48.941a4.181,4.181,0,0,1,.906-1.429,4.4,4.4,0,0,1,1.443-.98,4.8,4.8,0,0,1,1.906-.362,4.7,4.7,0,0,1,1.886.362,4.261,4.261,0,0,1,1.416.973,4.141,4.141,0,0,1,.886,1.416,4.758,4.758,0,0,1,.3,1.678v.409a1.415,1.415,0,0,1-.04.329h-6.671a2.584,2.584,0,0,0,.248.9,2.342,2.342,0,0,0,.51.671,2.234,2.234,0,0,0,.7.429,2.275,2.275,0,0,0,.825.148,2.537,2.537,0,0,0,1.241-.322,1.7,1.7,0,0,0,.8-.846l1.892.53a3.825,3.825,0,0,1-1.523,1.617,4.7,4.7,0,0,1-2.5.631Zm2.248-5.2a2.309,2.309,0,0,0-.711-1.557,2.181,2.181,0,0,0-1.537-.584,2.262,2.262,0,0,0-.832.154,2.208,2.208,0,0,0-.671.436,2.315,2.315,0,0,0-.711,1.55h4.476Z" transform="translate(-97.585 -15.146)" fill="#fff"/>
      <path id="Path_14297" data-name="Path 14297" d="M315.086,55.145a6.576,6.576,0,0,1-2.127-.349,5.154,5.154,0,0,1-1.778-.993l.825-1.382a7.087,7.087,0,0,0,1.537.852,4.027,4.027,0,0,0,1.49.289,1.879,1.879,0,0,0,1.04-.248.812.812,0,0,0,.383-.671.711.711,0,0,0-.443-.671,9.8,9.8,0,0,0-1.45-.5c-.557-.154-1.04-.3-1.429-.45a3.591,3.591,0,0,1-.953-.49,1.63,1.63,0,0,1-.523-.624,2.013,2.013,0,0,1-.161-.846,2.751,2.751,0,0,1,.255-1.188,2.584,2.584,0,0,1,.718-.9,3.188,3.188,0,0,1,1.08-.564,4.3,4.3,0,0,1,1.342-.195,5.7,5.7,0,0,1,1.819.282,4.53,4.53,0,0,1,1.557.906l-.893,1.342a5.187,5.187,0,0,0-1.275-.725,3.463,3.463,0,0,0-1.228-.235,1.772,1.772,0,0,0-.939.228.812.812,0,0,0-.383.738.671.671,0,0,0,.376.671,2.382,2.382,0,0,0,.517.221c.215.074.483.148.8.221.591.154,1.1.309,1.523.463a4.026,4.026,0,0,1,1.04.53,1.879,1.879,0,0,1,.591.671,2.1,2.1,0,0,1,.188.933,2.409,2.409,0,0,1-.94,2.013,4.027,4.027,0,0,1-2.557.658Z" transform="translate(-102.355 -15.162)" fill="#fff"/>
      <path id="Path_14298" data-name="Path 14298" d="M330.59,53.567V41.87h4.973a3.355,3.355,0,0,1,1.49.349,3.865,3.865,0,0,1,1.195.893,4.22,4.22,0,0,1,.772,1.255,3.63,3.63,0,0,1,.275,1.409,4.114,4.114,0,0,1-1.013,2.684,3.725,3.725,0,0,1-1.174.879,3.315,3.315,0,0,1-1.483.329h-2.745v3.919H330.6Zm2.282-5.912h2.637a1.342,1.342,0,0,0,1.047-.5,2.1,2.1,0,0,0,.423-1.382,2.3,2.3,0,0,0-.128-.8,2.012,2.012,0,0,0-.342-.6,1.288,1.288,0,0,0-.5-.369,1.516,1.516,0,0,0-.584-.121h-2.543v3.785Z" transform="translate(-108.739 -13.732)" fill="#fff"/>
      <path id="Path_14299" data-name="Path 14299" d="M348.178,53.607a2.456,2.456,0,0,1-2.013-.859,3.959,3.959,0,0,1-.671-2.537V44.842h2.215v4.932c0,1.342.47,2.013,1.423,2.013a2.261,2.261,0,0,0,1.241-.383,2.731,2.731,0,0,0,.98-1.174V44.862h2.215v6.1a.764.764,0,0,0,.114.5.537.537,0,0,0,.4.168v1.879a3.569,3.569,0,0,1-.557.081h-.4a1.6,1.6,0,0,1-.966-.275,1.073,1.073,0,0,1-.436-.752l-.047-.671a3.731,3.731,0,0,1-1.483,1.342,4.389,4.389,0,0,1-2.013.443Zm1.892-9.778-1.416-.429.893-1.96h2.06Z" transform="translate(-113.637 -13.59)" fill="#fff"/>
      <path id="Path_14300" data-name="Path 14300" d="M365.652,53.607a3.436,3.436,0,0,1-1.765-.45,3.215,3.215,0,0,1-1.215-1.221v1.5H360.74V41.4h2.208v4.912a3.315,3.315,0,0,1,1.208-1.228,3.449,3.449,0,0,1,1.758-.436,3.241,3.241,0,0,1,1.53.362,3.8,3.8,0,0,1,1.195.973,4.409,4.409,0,0,1,.772,1.436,5.5,5.5,0,0,1,.268,1.731,4.8,4.8,0,0,1-.309,1.745,4.4,4.4,0,0,1-.852,1.409,3.912,3.912,0,0,1-1.289.946,3.771,3.771,0,0,1-1.6.342Zm-.6-1.879a2.241,2.241,0,0,0,.973-.208,2.322,2.322,0,0,0,.758-.55,2.564,2.564,0,0,0,.49-.805,2.826,2.826,0,0,0,.174-.986,3.16,3.16,0,0,0-.161-1.007,2.631,2.631,0,0,0-.47-.839,2.3,2.3,0,0,0-.718-.577,1.96,1.96,0,0,0-.906-.215,2.013,2.013,0,0,0-1.342.483,3.234,3.234,0,0,0-.9,1.195v2.06a1.778,1.778,0,0,0,.336.591,2.5,2.5,0,0,0,.5.456,2.235,2.235,0,0,0,.611.3,2.013,2.013,0,0,0,.671.107Z" transform="translate(-118.656 -13.577)" fill="#fff"/>
      <path id="Path_14301" data-name="Path 14301" d="M376.3,41.42h2.208v9.261a1.08,1.08,0,0,0,.228.738.832.832,0,0,0,.671.262,1.537,1.537,0,0,0,.436-.067,3.355,3.355,0,0,0,.456-.161l.3,1.684a4.214,4.214,0,0,1-1.04.329,5.919,5.919,0,0,1-1.074.114,2.2,2.2,0,0,1-1.6-.557,2.08,2.08,0,0,1-.564-1.577V41.38Z" transform="translate(-123.774 -13.57)" fill="#fff"/>
      <path id="Path_14302" data-name="Path 14302" d="M384.11,43.638V41.45h2.208v2.194H384.11Zm0,9.831v-8.63h2.208v8.637H384.11Z" transform="translate(-126.343 -13.593)" fill="#fff"/>
      <path id="Path_14303" data-name="Path 14303" d="M389.537,50.752a4.7,4.7,0,0,1,.315-1.711,4.194,4.194,0,0,1,.906-1.416,4.449,4.449,0,0,1,1.436-.973,4.758,4.758,0,0,1,1.892-.362,4.557,4.557,0,0,1,2.409.611,3.913,3.913,0,0,1,1.49,1.6l-2.161.671a2.013,2.013,0,0,0-.738-.731,2.188,2.188,0,0,0-1.913-.067,2.228,2.228,0,0,0-.718.523,2.5,2.5,0,0,0-.476.812,3.127,3.127,0,0,0-.175,1.054,2.94,2.94,0,0,0,.181,1.054,2.785,2.785,0,0,0,.483.825,2.168,2.168,0,0,0,.718.537,2.013,2.013,0,0,0,.872.188,2.141,2.141,0,0,0,1.094-.3,1.6,1.6,0,0,0,.671-.725l2.161.671a3.6,3.6,0,0,1-1.47,1.611,4.624,4.624,0,0,1-2.456.624,4.7,4.7,0,0,1-1.892-.362,4.335,4.335,0,0,1-1.429-.98,4.509,4.509,0,0,1-1.228-3.141Z" transform="translate(-128.119 -15.185)" fill="#fff"/>
      <path id="Path_14304" data-name="Path 14304" d="M406.256,55.275a3.194,3.194,0,0,1-1.168-.208,2.839,2.839,0,0,1-.94-.577,2.725,2.725,0,0,1-.617-.866,2.624,2.624,0,0,1-.221-1.087,2.375,2.375,0,0,1,.275-1.127,2.637,2.637,0,0,1,.758-.879,3.825,3.825,0,0,1,1.161-.57,5.181,5.181,0,0,1,1.483-.2,6.288,6.288,0,0,1,1.127.1,4.7,4.7,0,0,1,.98.282v-.5a1.725,1.725,0,0,0-.483-1.342,2.013,2.013,0,0,0-1.443-.463,3.725,3.725,0,0,0-1.342.248,5.952,5.952,0,0,0-1.342.725l-.711-1.356a6.4,6.4,0,0,1,3.59-1.1,4.214,4.214,0,0,1,2.892.919,3.355,3.355,0,0,1,1.027,2.644V52.6a.805.805,0,0,0,.121.5.537.537,0,0,0,.4.168v1.879a5.167,5.167,0,0,1-.973.114,1.483,1.483,0,0,1-.966-.282,1.188,1.188,0,0,1-.416-.745l-.047-.476a3.872,3.872,0,0,1-1.4,1.154,4.026,4.026,0,0,1-1.765.4Zm.631-1.611a2.946,2.946,0,0,0,1.06-.195,2.013,2.013,0,0,0,.785-.523.792.792,0,0,0,.362-.624v-.986a5.268,5.268,0,0,0-.852-.242,4.63,4.63,0,0,0-.886-.094,2.389,2.389,0,0,0-1.4.383,1.154,1.154,0,0,0-.544.98,1.174,1.174,0,0,0,.43.933,1.55,1.55,0,0,0,1.054.369Z" transform="translate(-132.658 -15.205)" fill="#fff"/>
      <path id="Path_14305" data-name="Path 14305" d="M421.236,55.3a6.577,6.577,0,0,1-2.127-.349,5.154,5.154,0,0,1-1.778-.993l.825-1.382a7.086,7.086,0,0,0,1.537.852,4.026,4.026,0,0,0,1.49.289,1.879,1.879,0,0,0,1.04-.248.805.805,0,0,0,.382-.671.711.711,0,0,0-.443-.671,9.8,9.8,0,0,0-1.45-.5c-.557-.154-1.04-.3-1.429-.45a3.59,3.59,0,0,1-.953-.49,1.631,1.631,0,0,1-.523-.624,2.014,2.014,0,0,1-.161-.846,2.751,2.751,0,0,1,.255-1.188,2.584,2.584,0,0,1,.718-.9,3.188,3.188,0,0,1,1.08-.564,4.3,4.3,0,0,1,1.342-.195,5.7,5.7,0,0,1,1.819.282,4.53,4.53,0,0,1,1.557.906l-.893,1.342a5.187,5.187,0,0,0-1.275-.725,3.463,3.463,0,0,0-1.228-.235,1.772,1.772,0,0,0-.939.228.812.812,0,0,0-.383.738.671.671,0,0,0,.376.671,2.382,2.382,0,0,0,.517.221c.215.074.483.148.8.221.591.154,1.1.309,1.523.463a4.026,4.026,0,0,1,1.04.53,1.879,1.879,0,0,1,.591.671,2.1,2.1,0,0,1,.188.933,2.409,2.409,0,0,1-.939,2.013,4.027,4.027,0,0,1-2.557.731Z" transform="translate(-137.27 -15.212)" fill="#fff"/>
    </g>
  </g>
</svg>
