<svg width="2255" height="1283" viewBox="0 0 2255 1283" fill="none" xmlns="http://www.w3.org/2000/svg">
<path d="M189.346 943.643H251.546V691.88H189.346V789.253H70.4988V691.88H8.29858V943.643H70.4988V843.308H189.346V943.643Z" fill="white"/>
<path d="M340.033 847.381C339.82 860.983 342.386 874.484 347.572 887.06C352.759 899.636 360.458 911.02 370.197 920.517C379.936 930.014 391.512 937.423 404.214 942.291C416.916 947.158 430.479 949.383 444.07 948.827C504.79 948.827 548.848 905.509 548.848 847.381C549.112 833.652 546.565 820.013 541.364 807.304C536.163 794.595 528.417 783.084 518.604 773.479C508.79 763.873 497.116 756.376 484.299 751.449C471.481 746.521 457.791 744.267 444.07 744.825C430.397 744.316 416.764 746.61 404.01 751.565C391.255 756.519 379.649 764.031 369.905 773.636C360.16 783.242 352.484 794.739 347.347 807.421C342.21 820.103 339.721 833.702 340.033 847.381M400.012 847.381C400.012 821.835 417.783 801.471 444.07 801.471C471.098 801.471 488.869 821.835 488.869 847.381C489.073 853.336 488.057 859.271 485.883 864.818C483.708 870.366 480.422 875.411 476.226 879.642C472.03 883.873 467.012 887.2 461.483 889.42C455.953 891.64 450.027 892.705 444.07 892.55C438.161 892.657 432.292 891.553 426.825 889.306C421.357 887.059 416.408 883.717 412.281 879.486C408.154 875.255 404.936 870.224 402.826 864.702C400.716 859.181 399.758 853.286 400.012 847.381Z" fill="white"/>
<path d="M637.334 750.009V943.644H699.535V828.13C705.088 817.022 717.306 804.064 734.707 804.064C755.811 804.064 767.288 817.763 767.288 842.569V892.551C767.288 932.167 785.06 947.347 816.16 947.347C835.042 947.347 851.703 943.644 862.07 939.201L860.218 889.96C854.362 893.004 847.926 894.77 841.336 895.143C831.71 895.143 829.489 886.998 829.489 877.371V832.202C829.489 784.812 808.385 746.677 758.403 746.677C747.409 746.522 736.503 748.646 726.371 752.916C716.239 757.185 707.102 763.507 699.535 771.483V750.009H637.334Z" fill="white"/>
<path d="M1074.22 680.774V766.67C1058.99 753.321 1039.3 746.184 1019.05 746.677C966.478 746.677 929.824 788.144 929.824 846.641C929.824 905.139 966.478 947.347 1019.05 947.347C1047.19 947.347 1066.44 936.61 1078.66 921.06C1085.69 939.942 1100.87 947.347 1122.72 947.347C1138.51 947.394 1154.18 944.636 1169 939.201L1166.78 889.959C1160.98 892.818 1154.7 894.576 1148.27 895.143C1138.64 895.143 1136.42 887.368 1136.42 877.371V680.774H1074.22ZM993.135 846.641C993.135 818.503 1010.54 800.732 1037.19 800.732C1050.83 800.814 1063.97 805.809 1074.22 814.801V879.593C1063.81 888.258 1050.74 893.093 1037.19 893.292C1010.17 893.292 993.135 875.15 993.135 846.641Z" fill="white"/>
<path d="M1380.4 750.009V871.818C1376.66 877.72 1371.45 882.557 1365.29 885.864C1359.13 889.171 1352.22 890.837 1345.23 890.7C1320.06 890.7 1312.65 878.482 1312.65 852.936V750.009H1250.45V861.821C1250.45 911.433 1271.55 947.347 1321.54 947.347C1348.56 947.347 1370.78 938.461 1385.22 922.17C1392.25 939.942 1407.43 947.347 1428.54 947.347C1447.05 947.347 1465.19 943.644 1474.82 939.201L1472.59 889.96C1466.75 893.047 1460.31 894.817 1453.71 895.143C1444.46 895.143 1442.6 886.998 1442.6 877.371V750.009H1380.4V750.009Z" fill="white"/>
<path d="M1573.3 943.643H1635.5V842.567C1637.35 822.574 1645.5 804.063 1668.45 804.063C1686.96 804.063 1703.63 809.986 1705.48 812.578L1713.25 755.931C1711.77 753.34 1696.96 746.675 1678.82 746.675C1669.01 746.057 1659.24 748.457 1650.84 753.554C1642.43 758.65 1635.79 766.199 1631.8 775.184C1625.13 755.191 1609.58 746.675 1586.63 746.675C1570.93 746.273 1555.32 749.043 1540.72 754.821L1542.57 803.692C1548.47 800.817 1554.9 799.179 1561.45 798.879C1571.45 798.879 1573.3 806.654 1573.3 816.651V943.643Z" fill="white"/>
<path d="M1985.75 750.009H1923.55V767.04C1916.32 760.032 1907.72 754.603 1898.29 751.097C1888.86 747.591 1878.8 746.086 1868.75 746.677C1815.81 746.677 1779.52 788.514 1779.52 847.382C1779.52 905.51 1815.81 946.976 1868.75 946.976C1894.67 946.976 1915.03 935.129 1927.99 919.579C1934.65 938.831 1949.83 947.347 1972.05 947.347C1990.56 947.347 2007.96 943.274 2018.33 939.201L2016.11 889.96C2010.44 893.14 2004.09 894.917 1997.59 895.143C1988.34 895.143 1985.75 886.998 1985.75 877.371V750.009M1923.55 879.223C1913.27 888.158 1900.14 893.144 1886.52 893.292C1859.87 893.292 1842.83 875.15 1842.83 847.382C1842.83 818.874 1859.5 800.732 1886.52 800.732C1900.17 800.712 1913.35 805.72 1923.55 814.801V879.223Z" fill="white"/>
<path d="M2250.84 760.746C2227.83 751.697 2203.36 746.929 2178.64 746.677C2124.59 746.677 2090.89 772.964 2090.89 811.469C2090.89 840.718 2106.44 858.119 2137.91 867.375L2168.64 875.891C2180.86 879.223 2188.27 882.555 2188.27 888.849C2188.27 897.364 2179.75 900.326 2165.31 900.326C2144.09 898.857 2123.47 892.658 2104.96 882.185L2093.48 930.686C2117.35 941.859 2143.41 947.552 2169.75 947.347C2220.85 947.347 2250.47 922.17 2250.47 884.776C2250.47 858.489 2239.36 839.607 2204.19 829.981L2169.75 820.725C2158.65 817.763 2153.83 815.171 2153.83 807.766C2153.83 798.511 2164.57 794.808 2177.16 794.808C2197.36 795.416 2217.14 800.742 2234.92 810.358L2250.84 760.746Z" fill="white"/>
<path d="M8.29858 1277.6H70.4988V1025.84H8.29858V1277.6Z" fill="white"/>
<path d="M128.627 1083.96V1277.6H190.827V1162.08C196.38 1150.98 208.598 1138.02 225.999 1138.02C247.103 1138.02 258.581 1151.72 258.581 1176.52V1226.51C258.581 1266.12 276.352 1281.3 307.452 1281.3C326.334 1281.3 342.995 1277.6 353.362 1273.16L351.511 1223.91C345.654 1226.96 339.218 1228.73 332.628 1229.1C323.002 1229.1 320.781 1220.95 320.781 1211.33V1166.16C320.781 1118.77 299.677 1080.63 249.695 1080.63C238.701 1080.48 227.795 1082.6 217.663 1086.87C207.532 1091.14 198.394 1097.46 190.827 1105.44V1083.96H128.627Z" fill="white"/>
<path d="M399.641 1195.41C399.641 1248.35 428.89 1281.3 491.091 1281.3C553.661 1281.3 588.093 1242.8 588.093 1185.41C587.554 1150.67 580.782 1116.31 568.1 1083.96H502.198C516.945 1114.49 525.023 1147.81 525.893 1181.71C525.893 1210.96 511.824 1224.65 491.091 1224.65C471.098 1224.65 461.842 1212.44 461.842 1186.15V1135.8C461.842 1095.44 444.07 1080.63 413.34 1080.63C397.646 1080.25 382.035 1083.02 367.431 1088.78L369.282 1137.65C375.094 1134.54 381.573 1132.89 388.164 1132.84C397.79 1132.84 399.641 1140.24 399.641 1150.61V1195.41Z" fill="white"/>
<path d="M790.985 1215.03C774.617 1226.37 755.348 1232.79 735.449 1233.54C706.941 1233.54 691.02 1219.1 687.318 1196.52H811.348C814.095 1184.37 815.461 1171.95 815.421 1159.49C815.421 1115.06 787.283 1078.78 728.415 1078.78C714.763 1078.15 701.129 1080.37 688.382 1085.3C675.634 1090.22 664.051 1097.75 654.37 1107.4C644.689 1117.04 637.122 1128.6 632.149 1141.33C627.177 1154.06 624.908 1167.68 625.488 1181.34C625.488 1238.72 658.81 1282.78 731.747 1282.78C764.698 1282.78 793.947 1272.79 813.94 1256.5L790.985 1215.03ZM761.366 1157.27H688.429C691.391 1140.24 705.089 1126.17 728.044 1126.17C750.999 1126.17 761.366 1137.28 761.366 1152.83V1157.27V1157.27Z" fill="white"/>
<path d="M876.88 1277.6H939.08V1176.52C940.931 1156.53 949.076 1138.02 972.031 1138.02C990.543 1138.02 1007.2 1143.94 1009.06 1146.54L1016.83 1089.89C1015.35 1087.3 1000.54 1080.63 982.398 1080.63C972.587 1080.01 962.822 1082.41 954.416 1087.51C946.01 1092.61 939.366 1100.16 935.377 1109.14C928.713 1089.15 913.163 1080.63 890.208 1080.63C874.513 1080.23 858.898 1083 844.299 1088.78L846.15 1137.65C852.05 1134.77 858.476 1133.14 865.032 1132.84C875.028 1132.84 876.88 1140.61 876.88 1150.61V1277.6Z" fill="white"/>
<path d="M1200.47 1094.7C1177.46 1085.65 1152.99 1080.88 1128.27 1080.63C1074.22 1080.63 1040.53 1106.92 1040.53 1145.42C1040.53 1174.67 1056.08 1192.07 1087.55 1201.33L1118.28 1209.85C1130.49 1213.18 1137.9 1216.51 1137.9 1222.8C1137.9 1231.32 1129.38 1234.28 1114.94 1234.28C1093.73 1232.81 1073.11 1226.61 1054.59 1216.14L1043.12 1264.64C1066.98 1275.81 1093.04 1281.51 1119.39 1281.3C1170.48 1281.3 1200.1 1256.13 1200.1 1218.73C1200.1 1192.44 1188.99 1173.56 1153.82 1163.94L1119.39 1154.68C1108.28 1151.72 1103.47 1149.13 1103.47 1141.72C1103.47 1132.47 1114.2 1128.76 1126.79 1128.76C1146.99 1129.37 1166.77 1134.7 1184.55 1144.31L1200.47 1094.7Z" fill="white"/>
<path d="M1307.84 1083.96H1245.64V1226.51C1245.64 1265.75 1263.41 1281.3 1294.14 1281.3C1317.46 1281.3 1338.94 1274.64 1340.42 1273.16L1337.83 1223.91C1332.29 1227.09 1326.06 1228.87 1319.69 1229.1C1309.69 1229.1 1307.84 1220.95 1307.84 1211.33V1083.96M1243.05 1029.54C1243.05 1050.27 1256.75 1057.68 1277.11 1057.68C1297.1 1057.68 1310.43 1050.27 1310.43 1029.54C1310.43 1008.81 1297.1 1001.4 1277.11 1001.4C1256.75 1001.4 1243.05 1008.81 1243.05 1029.54Z" fill="white"/>
<path d="M1368.19 1181.34C1367.97 1194.94 1370.54 1208.44 1375.73 1221.02C1380.91 1233.59 1388.61 1244.98 1398.35 1254.47C1408.09 1263.97 1419.67 1271.38 1432.37 1276.25C1445.07 1281.11 1458.63 1283.34 1472.22 1282.78C1532.94 1282.78 1577 1239.46 1577 1181.34C1577.27 1167.61 1574.72 1153.97 1569.52 1141.26C1564.32 1128.55 1556.57 1117.04 1546.76 1107.43C1536.94 1097.83 1525.27 1090.33 1512.45 1085.4C1499.63 1080.48 1485.94 1078.22 1472.22 1078.78C1458.55 1078.27 1444.92 1080.57 1432.16 1085.52C1419.41 1090.48 1407.8 1097.99 1398.06 1107.59C1388.31 1117.2 1380.64 1128.7 1375.5 1141.38C1370.36 1154.06 1367.87 1167.66 1368.19 1181.34M1428.17 1181.34C1428.17 1155.79 1445.94 1135.43 1472.22 1135.43C1499.25 1135.43 1517.02 1155.79 1517.02 1181.34C1517.23 1187.29 1516.21 1193.23 1514.04 1198.77C1511.86 1204.32 1508.58 1209.37 1504.38 1213.6C1500.18 1217.83 1495.17 1221.16 1489.64 1223.38C1484.11 1225.6 1478.18 1226.66 1472.22 1226.51C1466.31 1226.61 1460.45 1225.51 1454.98 1223.26C1449.51 1221.02 1444.56 1217.67 1440.43 1213.44C1436.31 1209.21 1433.09 1204.18 1430.98 1198.66C1428.87 1193.14 1427.91 1187.24 1428.17 1181.34Z" fill="white"/>
<path d="M1621.43 1083.96V1277.6H1683.63V1162.08C1689.18 1150.98 1701.4 1138.02 1718.8 1138.02C1739.91 1138.02 1751.38 1151.72 1751.38 1176.52V1226.51C1751.38 1266.12 1769.16 1281.3 1800.26 1281.3C1819.14 1281.3 1835.8 1277.6 1846.17 1273.16L1844.31 1223.91C1838.46 1226.96 1832.02 1228.73 1825.43 1229.1C1815.81 1229.1 1813.58 1220.95 1813.58 1211.33V1166.16C1813.58 1118.77 1792.48 1080.63 1742.5 1080.63C1731.51 1080.48 1720.6 1082.6 1710.47 1086.87C1700.34 1091.14 1691.2 1097.46 1683.63 1105.44V1083.96H1621.43Z" fill="white"/>
<path d="M2034.99 1215.03C2018.62 1226.37 1999.35 1232.79 1979.45 1233.54C1950.94 1233.54 1935.02 1219.1 1931.32 1196.52H2055.35C2058.1 1184.37 2059.46 1171.95 2059.42 1159.49C2059.42 1115.06 2031.29 1078.78 1972.42 1078.78C1958.77 1078.15 1945.13 1080.37 1932.38 1085.3C1919.64 1090.22 1908.05 1097.75 1898.37 1107.4C1888.69 1117.04 1881.12 1128.6 1876.15 1141.33C1871.18 1154.06 1868.91 1167.68 1869.49 1181.34C1869.49 1238.72 1902.81 1282.78 1975.75 1282.78C2008.7 1282.78 2037.95 1272.79 2057.94 1256.5L2034.99 1215.03ZM2005.37 1157.27H1932.43C1935.39 1140.24 1949.09 1126.17 1972.05 1126.17C1995 1126.17 2005.37 1137.28 2005.37 1152.83V1157.27V1157.27Z" fill="white"/>
<path d="M2254.54 1094.7C2231.53 1085.65 2207.06 1080.88 2182.34 1080.63C2128.29 1080.63 2094.6 1106.92 2094.6 1145.42C2094.6 1174.67 2110.15 1192.07 2141.62 1201.33L2172.35 1209.85C2184.56 1213.18 2191.97 1216.51 2191.97 1222.8C2191.97 1231.32 2183.45 1234.28 2169.01 1234.28C2147.8 1232.81 2127.18 1226.61 2108.67 1216.14L2097.19 1264.64C2121.05 1275.81 2147.11 1281.51 2173.46 1281.3C2224.55 1281.3 2254.17 1256.13 2254.17 1218.73C2254.17 1192.44 2243.06 1173.56 2207.89 1163.94L2173.46 1154.68C2162.35 1151.72 2157.54 1149.13 2157.54 1141.72C2157.54 1132.47 2168.27 1128.76 2180.86 1128.76C2201.06 1129.37 2220.84 1134.7 2238.62 1144.31L2254.54 1094.7Z" fill="white"/>
<path d="M377.743 165.387L398.353 228.811H464.959L411.077 267.979L431.623 331.339L377.743 292.169L323.861 331.337L344.407 267.979L290.525 228.811H357.131L377.743 165.387ZM667.881 329.971L688.559 393.331H755.097L701.217 432.497L721.761 495.921L667.881 456.753L614.001 495.921L634.545 432.497L580.665 393.329H647.269L667.881 329.971ZM87.6026 329.971L108.213 393.331H174.819L120.937 432.497L141.483 495.921L87.6026 456.753L33.7213 495.921L54.2666 432.497L0.385254 393.329H66.9906L87.6026 329.971ZM667.881 0.802673L688.559 64.2267H755.097L701.217 103.395L721.761 166.755L667.881 127.585L614.001 166.753L634.545 103.395L580.665 64.2267H647.269L667.881 0.802673ZM87.6026 0.802673L108.213 64.2267H174.819L120.937 103.395L141.483 166.755L87.6026 127.585L33.7213 166.753L54.2666 103.395L0.385254 64.2267H66.9906L87.6026 0.802673ZM1246.94 306.093H1040.43V495.903H900.787V1.43334H1040.43V185.409H1246.94V1.43334H1386.51V495.903H1246.93L1246.94 306.093Z" fill="white"/>
</svg>
