<?xml version="1.0" encoding="UTF-8"?>
<svg id="Capa_1" data-name="Capa 1" xmlns="http://www.w3.org/2000/svg" version="1.1" viewBox="0 0 103 81">
  <defs>
    <style>
      .cls-1 {
        fill: #fff;
        stroke-width: 0px;
      }
    </style>
  </defs>
  <g>
    <path class="cls-1" d="M5.9,65.9h1.6v7.1h4.4v1.3h-5.9v-8.4Z"/>
    <path class="cls-1" d="M12.3,71.1c0-1.9,1.4-3.3,3.4-3.3s3.4,1.4,3.4,3.3-1.4,3.3-3.4,3.3-3.4-1.4-3.4-3.3ZM17.6,71.1c0-1.2-.8-2-1.9-2s-1.9.8-1.9,2,.8,2,1.9,2,1.9-.8,1.9-2Z"/>
    <path class="cls-1" d="M27,67.9v5.4c0,2.3-1.2,3.4-3.5,3.4s-2.4-.3-3.1-.9l.7-1.1c.6.5,1.5.8,2.4.8,1.4,0,2-.6,2-1.9v-.3c-.5.6-1.3.9-2.1.9-1.8,0-3.2-1.2-3.2-3.1s1.4-3.1,3.2-3.1,1.7.3,2.2.9v-.9h1.4ZM25.5,70.9c0-1.1-.8-1.8-1.9-1.8s-2,.7-2,1.8.8,1.8,2,1.8,1.9-.7,1.9-1.8Z"/>
    <path class="cls-1" d="M28.4,71.1c0-1.9,1.4-3.3,3.4-3.3s3.4,1.4,3.4,3.3-1.4,3.3-3.4,3.3-3.4-1.4-3.4-3.3ZM33.7,71.1c0-1.2-.8-2-1.9-2s-1.9.8-1.9,2,.8,2,1.9,2,1.9-.8,1.9-2Z"/>
    <path class="cls-1" d="M46.4,73v1.3h-6.3v-8.4h6.1v1.3h-4.6v2.2h4.1v1.3h-4.1v2.3h4.7Z"/>
    <path class="cls-1" d="M54.3,70.6v3.7h-1.5v-3.5c0-1.1-.6-1.7-1.5-1.7s-1.8.6-1.8,1.9v3.2h-1.5v-6.4h1.4v.8c.5-.6,1.3-.9,2.2-.9,1.5,0,2.7.9,2.7,2.8Z"/>
    <path class="cls-1" d="M60.1,74c-.4.3-.9.4-1.4.4-1.4,0-2.2-.7-2.2-2.2v-3.1h-1.1v-1.2h1.1v-1.5h1.5v1.5h1.7v1.2h-1.7v3c0,.6.3,1,.9,1s.6,0,.8-.3l.4,1.1Z"/>
    <path class="cls-1" d="M61.1,65.9c0-.5.4-.9,1-.9s1,.4,1,.9-.4.9-1,.9-1-.4-1-.9ZM61.3,67.9h1.5v6.4h-1.5v-6.4Z"/>
    <path class="cls-1" d="M71.1,65.4v8.9h-1.4v-.8c-.5.6-1.2.9-2.1.9-1.9,0-3.2-1.3-3.2-3.3s1.4-3.3,3.2-3.3,1.6.3,2.1.9v-3.3h1.5ZM69.6,71.1c0-1.2-.8-2-1.9-2s-1.9.8-1.9,2,.8,2,1.9,2,1.9-.8,1.9-2Z"/>
    <path class="cls-1" d="M78.4,70.5v3.8h-1.4v-.8c-.4.6-1.1.9-2,.9-1.5,0-2.4-.8-2.4-1.9s.7-1.9,2.7-1.9h1.7c0-1-.5-1.5-1.6-1.5s-1.5.2-1.9.6l-.6-1.1c.7-.5,1.7-.8,2.7-.8,1.8,0,2.9.9,2.9,2.7ZM76.9,72.3v-.7h-1.5c-1,0-1.3.4-1.3.9s.5.9,1.2.9,1.4-.3,1.6-1Z"/>
    <path class="cls-1" d="M86.6,65.4v8.9h-1.4v-.8c-.5.6-1.2.9-2.1.9-1.9,0-3.2-1.3-3.2-3.3s1.4-3.3,3.2-3.3,1.6.3,2.1.9v-3.3h1.5ZM85.2,71.1c0-1.2-.8-2-1.9-2s-1.9.8-1.9,2,.8,2,1.9,2,1.9-.8,1.9-2Z"/>
    <path class="cls-1" d="M99,72.4h-1.5v1.9h-1.5v-1.9h-4.6v-1.1l4.1-5.4h1.7l-3.9,5.2h2.7v-1.7h1.5v1.7h1.5v1.3Z"/>
  </g>
  <g>
    <path class="cls-1" d="M62.2,57.4c.7-.3,1.5-.6,2.2-1v-11.9h11.9c.4-.7.7-1.4,1-2.2h-15.1s0,15.1,0,15.1Z"/>
    <path class="cls-1" d="M66.8,55c1.6-1,3.1-2.2,4.5-3.6,1.4-1.4,2.6-2.9,3.6-4.5h-8.1v8.1Z"/>
    <path class="cls-1" d="M24.1,33c0,.7,0,1.5.2,2.2h24v24c.7,0,1.5.2,2.2.2v-26.4s-26.4,0-26.4,0Z"/>
    <path class="cls-1" d="M77.3,21.4c-.3-.7-.6-1.5-1-2.2h-11.9V7.2c-.7-.4-1.4-.7-2.2-1v15.1h15.1Z"/>
    <path class="cls-1" d="M78.7,26c-.2-.7-.3-1.5-.6-2.2h-18.4V5.4c-.7-.2-1.5-.4-2.2-.6v21.2h21.2Z"/>
    <path class="cls-1" d="M79.3,30.6c0-.7,0-1.5-.2-2.2h-24V4.4c-.7,0-1.5-.2-2.2-.2v26.4s26.4,0,26.4,0Z"/>
    <path class="cls-1" d="M24.7,37.6c.2.7.3,1.5.6,2.2h18.4s0,18.4,0,18.4c.7.2,1.5.4,2.2.6v-21.2h-21.2Z"/>
    <path class="cls-1" d="M26.2,42.2c.3.7.6,1.5,1,2.2h11.9v11.9c.7.4,1.4.7,2.2,1v-15.1s-15.1,0-15.1,0Z"/>
    <path class="cls-1" d="M28.6,46.9c1,1.6,2.2,3.1,3.6,4.5,1.4,1.4,2.9,2.6,4.5,3.6v-8.1s-8.1,0-8.1,0Z"/>
    <path class="cls-1" d="M50.5,4.2c-.7,0-1.5,0-2.2.2v24h-24c0,.7-.2,1.5-.2,2.2h26.4s0-26.4,0-26.4Z"/>
    <path class="cls-1" d="M41.3,6.2c-.7.3-1.5.6-2.2,1v11.9h-11.9c-.4.7-.7,1.4-1,2.2h15.1s0-15.1,0-15.1Z"/>
    <path class="cls-1" d="M36.7,8.7c-1.6,1-3.1,2.2-4.5,3.6-1.4,1.4-2.6,2.9-3.6,4.5h8.1v-8.1Z"/>
    <path class="cls-1" d="M45.9,4.8c-.7.2-1.5.3-2.2.6v18.4s-18.4,0-18.4,0c-.2.7-.4,1.5-.6,2.2h21.2V4.8Z"/>
    <path class="cls-1" d="M57.6,58.8c.7-.2,1.5-.3,2.2-.6v-18.4h18.4c.2-.7.4-1.5.6-2.2h-21.2v21.2Z"/>
    <path class="cls-1" d="M74.9,16.7c-1-1.6-2.2-3.1-3.6-4.5-1.4-1.4-2.9-2.6-4.5-3.6v8.1h8.1Z"/>
    <path class="cls-1" d="M52.9,59.4c.7,0,1.5,0,2.2-.2v-24h24c0-.7.2-1.5.2-2.2h-26.4s0,26.4,0,26.4Z"/>
  </g>
</svg>