<?xml version="1.0" encoding="UTF-8"?>
<svg id="Capa_1" data-name="Capa 1" xmlns="http://www.w3.org/2000/svg" version="1.1" viewBox="0 0 260.1 61.7">
  <defs>
    <style>
      .cls-1 {
        fill: #003876;
        stroke-width: 0px;
  ***REMOVED***
    </style>
  </defs>
  <path id="Path_15698" data-name="Path 15698" class="cls-1" d="M21.8,13.6v21h-2.1v-16.8l-8.2,14.1h-1.1L2.1,17.9v16.7H0V13.6h1.8l9.1,15.6,9-15.6h1.8ZM33.7,18.7c1.7-.1,3.4.4,4.7,1.5,1.2,1.2,1.8,2.9,1.7,4.6v9.8h-2v-2.5c-.5.8-1.2,1.5-2.1,1.9-1,.5-2.2.7-3.3.7-1.5,0-3-.4-4.2-1.3-1-.8-1.6-2-1.6-3.3,0-1.2.5-2.4,1.5-3.2,1.4-.9,3-1.4,4.6-1.2h5v-1c0-1.2-.3-2.3-1.1-3.1-.9-.8-2.1-1.2-3.3-1.1-1,0-2,.2-2.9.5-.9.3-1.7.8-2.4,1.4l-1-1.6c.8-.7,1.8-1.2,2.9-1.6,1.1-.4,2.3-.6,3.5-.6ZM33,33.1c1.1,0,2.2-.3,3.1-.8.9-.6,1.5-1.4,1.9-2.4v-2.6h-5c-2.7,0-4,.9-4,2.8,0,.9.4,1.7,1,2.2.9.6,1.9.9,2.9.8ZM54,18.7c1.4,0,2.8.3,4,1,1.2.7,2.2,1.6,2.8,2.8.7,1.3,1,2.7,1,4.2,0,1.5-.3,2.9-1,4.2-.7,1.2-1.6,2.2-2.8,2.8-1.2.7-2.6,1-4,1-1.2,0-2.4-.3-3.5-.8-1-.5-1.9-1.3-2.5-2.3v8.8h-2.1v-21.6h2v3.1c.6-1,1.5-1.8,2.5-2.4,1.1-.6,2.3-.9,3.6-.8ZM53.9,32.9c1,0,2.1-.3,3-.8.9-.5,1.6-1.3,2.1-2.2.5-1,.8-2.1.8-3.2,0-1.1-.2-2.2-.8-3.2-.5-.9-1.2-1.7-2.1-2.2-1.9-1-4.1-1-6,0-.9.5-1.6,1.3-2.1,2.2-.5,1-.8,2.1-.8,3.2,0,1.1.2,2.2.8,3.2.5.9,1.2,1.7,2.1,2.2.9.5,2,.8,3,.8ZM71.7,18.7c1.7-.1,3.4.4,4.7,1.5,1.2,1.2,1.8,2.9,1.7,4.6v9.8h-2v-2.5c-.5.8-1.2,1.5-2.1,1.9-1,.5-2.2.7-3.3.7-1.5,0-3-.4-4.2-1.3-1-.8-1.6-2-1.6-3.3,0-1.2.5-2.4,1.5-3.2,1.4-.9,3-1.4,4.6-1.2h5v-1c0-1.2-.3-2.3-1.1-3.1-.9-.8-2.1-1.2-3.3-1.1-1,0-2,.2-2.9.5-.9.3-1.7.8-2.4,1.4l-1-1.6c.8-.7,1.8-1.2,2.9-1.6,1.1-.4,2.3-.6,3.5-.6ZM70.9,33.1c1.1,0,2.2-.3,3.1-.8.9-.6,1.5-1.4,1.9-2.4v-2.6h-4.9c-2.7,0-4.1.9-4.1,2.8,0,.9.4,1.7,1.1,2.2.9.6,1.9.9,2.9.8ZM83.4,13.6h4.9v21h-4.9V13.6ZM102.7,18.3c1.8,0,3.5.6,4.8,1.8,1.3,1.5,2,3.4,1.8,5.3v9.2h-4.7v-8.5c0-1-.2-2-.8-2.9-.6-.7-1.5-1-2.4-.9-1.1,0-2.1.3-2.8,1.1-.8.9-1.1,2.1-1.1,3.3v8h-4.7v-16.1h4.5v1.9c.6-.7,1.4-1.2,2.3-1.6,1-.4,2-.6,3-.6ZM129.3,18.5l-6.8,16.1h-4.8l-6.8-16.1h4.8l4.5,11,4.6-11h4.5ZM146.6,26.6c0,0,0,.5,0,1.3h-12.2c.2,1,.8,1.8,1.6,2.4.9.6,2,.9,3.1.9.8,0,1.5-.1,2.2-.4.7-.3,1.3-.7,1.8-1.2l2.5,2.7c-1.5,1.7-3.7,2.6-6.7,2.6-1.7,0-3.3-.3-4.8-1.1-1.3-.7-2.5-1.7-3.2-3-.8-1.3-1.2-2.8-1.1-4.3,0-1.5.4-3,1.1-4.3.7-1.3,1.8-2.3,3.1-3,2.7-1.4,5.9-1.4,8.7,0,1.3.7,2.3,1.7,3,2.9.8,1.4,1.1,2.9,1.1,4.4ZM138.2,21.8c-1,0-1.9.3-2.7.9-.7.6-1.2,1.5-1.3,2.5h7.9c-.1-1-.6-1.8-1.3-2.4-.7-.6-1.7-.9-2.6-.9ZM154.2,20.6c.6-.8,1.4-1.4,2.3-1.8,1-.4,2.2-.6,3.3-.6v4.3c-.5,0-.9,0-1.1,0-1.2,0-2.3.3-3.2,1.1-.8.9-1.2,2.1-1.1,3.4v7.6h-4.7v-16.1h4.5v2.1ZM168,34.9c-1.3,0-2.6-.2-3.9-.5-1.1-.2-2.1-.7-3.1-1.2l1.6-3.4c.8.5,1.7.9,2.6,1.1,1,.3,2,.4,3,.4,2,0,3-.5,3-1.5,0-.5-.3-.9-.8-1-.8-.3-1.6-.4-2.5-.5-1.1-.2-2.2-.4-3.3-.7-.9-.3-1.6-.7-2.2-1.4-.7-.8-1-1.8-.9-2.8,0-1,.3-1.9.9-2.7.7-.8,1.6-1.5,2.6-1.8,1.3-.5,2.6-.7,4-.7,1.1,0,2.3.1,3.4.4,1,.2,1.9.5,2.8,1l-1.6,3.3c-1.4-.8-3-1.2-4.6-1.2-.8,0-1.5,0-2.2.4-.4.2-.7.6-.8,1.1,0,.5.3.9.8,1,.8.3,1.7.5,2.6.6,1.1.2,2.2.4,3.2.7.8.2,1.6.7,2.2,1.4.7.8,1,1.8.9,2.8,0,1-.3,1.9-.9,2.7-.7.8-1.6,1.5-2.6,1.8-1.3.5-2.7.7-4.1.6h0ZM178.5,18.5h4.7v16.1h-4.7v-16.1ZM180.9,16.2c-.8,0-1.5-.2-2.1-.8-.5-.5-.8-1.2-.8-1.9,0-.7.3-1.4.8-1.9.6-.5,1.3-.8,2.1-.8.8,0,1.5.2,2.1.7.5.4.8,1.1.8,1.8,0,.7-.3,1.4-.8,1.9-.6.5-1.3.8-2.1.8h0ZM195.2,34.9c-1.6,0-3.2-.3-4.6-1.1-1.3-.7-2.4-1.7-3.2-3-.8-1.3-1.2-2.8-1.1-4.3,0-1.5.4-3,1.1-4.3.8-1.3,1.9-2.3,3.2-3,2.9-1.4,6.3-1.4,9.1,0,1.3.7,2.4,1.7,3.1,3,.8,1.3,1.2,2.8,1.1,4.3,0,1.5-.4,3-1.1,4.3-.8,1.3-1.8,2.3-3.1,3-1.4.7-3,1.1-4.6,1.1ZM195.2,31c1.1,0,2.2-.4,3-1.2.8-.9,1.2-2.1,1.2-3.3,0-1.2-.4-2.4-1.2-3.3-.8-.8-1.8-1.3-3-1.2-1.1,0-2.2.4-3,1.2-.8.9-1.2,2.1-1.2,3.3,0,1.2.4,2.4,1.2,3.3.8.8,1.9,1.2,3,1.2ZM217,18.3c1.8,0,3.5.6,4.8,1.8,1.3,1.5,2,3.4,1.8,5.3v9.2h-4.7v-8.5c0-1-.2-2-.8-2.9-.6-.7-1.5-1-2.4-.9-1.1,0-2.1.3-2.8,1.1-.8.9-1.1,2.1-1.1,3.3v8h-4.7v-16.1h4.5v1.9c.6-.7,1.4-1.2,2.3-1.6,1-.4,2-.6,3-.6ZM243.9,26.6c0,0,0,.5,0,1.3h-12.2c.2,1,.8,1.8,1.6,2.4.9.6,2,.9,3.1.9.8,0,1.5-.1,2.2-.4.7-.3,1.3-.7,1.8-1.2l2.5,2.7c-1.5,1.7-3.7,2.6-6.7,2.6-1.7,0-3.3-.3-4.8-1.1-1.3-.7-2.5-1.7-3.2-3-.8-1.3-1.2-2.8-1.1-4.3,0-1.5.4-3,1.1-4.3.7-1.3,1.8-2.3,3.1-3,2.7-1.4,5.9-1.4,8.7,0,1.3.7,2.3,1.7,3,2.9.8,1.4,1.1,2.9,1.1,4.4ZM235.6,21.8c-1,0-1.9.3-2.7.9-.7.6-1.2,1.5-1.3,2.5h7.9c-.1-1-.6-1.8-1.3-2.4-.7-.6-1.7-.9-2.6-.9h0ZM252.5,34.9c-1.3,0-2.6-.2-3.9-.5-1.1-.2-2.1-.7-3.1-1.2l1.6-3.4c.8.5,1.7.9,2.6,1.1,1,.3,2,.4,3,.4,2,0,3-.5,3-1.5,0-.5-.3-.9-.8-1-.8-.3-1.6-.4-2.5-.5-1.1-.2-2.2-.4-3.3-.7-.9-.3-1.6-.7-2.2-1.4-.7-.8-1-1.8-.9-2.8,0-1,.3-1.9.9-2.7.7-.8,1.6-1.5,2.6-1.8,1.3-.5,2.6-.7,4-.7,1.1,0,2.3.1,3.4.4,1,.2,1.9.5,2.8,1l-1.6,3.3c-1.4-.8-3-1.2-4.6-1.2-.8,0-1.5,0-2.2.4-.4.2-.7.6-.8,1.1,0,.5.3.9.8,1,.8.3,1.7.5,2.6.6,1.1.2,2.2.4,3.2.7.8.2,1.6.7,2.2,1.4.7.8,1,1.8.9,2.8,0,1-.3,1.9-.9,2.7-.7.8-1.6,1.5-2.6,1.8-1.3.5-2.7.7-4.1.6Z"/>
  <path id="Path_15699" data-name="Path 15699" class="cls-1" d="M7.4,43.6l-3.1,7h-1.3L0,43.6h1.4l2.3,5.4,2.3-5.4h1.3ZM12.6,48c0,0,0,.2,0,.4h-4.2c0,.4.3.7.6.9.3.2.7.4,1.2.3.5,0,1.1-.2,1.4-.6l.7.8c-.2.3-.6.5-.9.6-.4.2-.8.2-1.2.2-.5,0-1.1-.1-1.6-.4-.4-.2-.8-.6-1-1-.2-.4-.4-.9-.4-1.4,0-.5.1-1,.4-1.4.2-.4.6-.7,1-1,.4-.2.9-.4,1.4-.3.5,0,1,.1,1.4.3.4.2.7.6,1,1,.2.4.4.9.3,1.4ZM9.9,46.2c-.4,0-.7.1-1,.4-.3.2-.5.6-.5.9h3c0-.4-.2-.7-.5-.9-.3-.2-.6-.4-1-.4ZM15,46c.4-.6,1.2-.9,1.9-.8v1.2c0,0-.2,0-.3,0-.4,0-.8.1-1.1.4-.3.3-.4.8-.4,1.2v2.6h-1.2v-5.3h1.2v.8ZM19.6,50.7c-.4,0-.9,0-1.3-.2-.4,0-.7-.2-1-.4l.5-.9c.3.2.6.3.9.4.3,0,.7.1,1,.1.7,0,1.1-.2,1.1-.6,0-.2-.1-.3-.3-.4-.3,0-.6-.2-.9-.2-.4,0-.7-.1-1.1-.2-.3,0-.5-.2-.7-.5-.2-.3-.3-.6-.3-.9,0-.5.2-.9.6-1.2.5-.3,1.1-.5,1.7-.5.4,0,.7,0,1.1.1.3,0,.6.2.9.3l-.5,1c-.5-.3-1-.4-1.5-.4-.3,0-.6,0-.8.2-.2,0-.3.2-.3.4,0,.2.1.4.3.4.3.1.6.2.9.2.4,0,.7.1,1,.2.3,0,.5.2.7.4.2.2.3.6.3.9,0,.5-.2.9-.6,1.2-.5.3-1.1.5-1.8.4ZM23.1,45.3h1.2v5.3h-1.2v-5.3ZM23.8,44.4c-.2,0-.4,0-.6-.2-.2-.1-.2-.3-.2-.5,0-.2,0-.4.2-.5.2-.1.4-.2.6-.2.2,0,.4,0,.6.2.2.1.2.3.2.5,0,.2,0,.4-.2.6-.2.2-.4.2-.6.2ZM28.4,50.7c-.5,0-1-.1-1.5-.4-.4-.2-.8-.6-1-1-.2-.4-.4-.9-.4-1.4,0-.5.1-1,.4-1.4.2-.4.6-.7,1-1,.4-.2,1-.4,1.5-.3.5,0,1,.1,1.5.3.4.2.8.6,1,1,.2.4.4.9.4,1.4,0,.5-.1,1-.4,1.4-.2.4-.6.8-1,1-.5.2-1,.4-1.5.4ZM28.4,49.6c.4,0,.8-.2,1.1-.5.3-.3.5-.8.5-1.2,0-.4-.1-.9-.5-1.2-.3-.3-.7-.5-1.1-.5-.4,0-.8.2-1.1.5-.3.3-.5.8-.4,1.2,0,.4.1.9.4,1.2.3.3.7.5,1.1.5ZM28.9,43.2h1.5l-1.7,1.4h-1.1l1.3-1.4ZM35.5,45.2c.6,0,1.2.2,1.6.6.4.5.7,1.1.6,1.8v3.1h-1.2v-2.9c0-.4,0-.8-.3-1.1-.2-.2-.6-.4-.9-.4-.4,0-.8.1-1.1.4-.3.3-.4.8-.4,1.2v2.7h-1.2v-5.3h1.2v.7c.2-.2.5-.4.8-.6.3-.1.7-.2,1.1-.2ZM46.8,49.5v1.1h-5.2v-.9l2.8-2.6c.3-.2.5-.5.6-.8.1-.2.2-.4.2-.7,0-.3-.1-.6-.3-.8-.3-.2-.6-.3-1-.3-.6,0-1.2.2-1.6.7l-.9-.7c.3-.4.7-.7,1.1-.9.5-.2,1-.3,1.6-.3.7,0,1.3.2,1.8.5.4.4.7.9.7,1.5,0,.4,0,.7-.2,1.1-.2.4-.5.8-.9,1.1l-1.9,1.8h3.3ZM48.4,50.7c-.2,0-.4,0-.6-.2-.2-.2-.2-.4-.2-.6,0-.2,0-.4.2-.6.2-.2.4-.2.6-.2.2,0,.4,0,.6.2.2.2.2.4.2.6,0,.2,0,.4-.2.6-.2.2-.4.2-.6.2ZM52.9,50.7c-.5,0-1.1-.1-1.5-.4-.5-.3-.8-.7-1-1.2-.3-.6-.4-1.3-.4-1.9,0-.7.1-1.3.4-1.9.2-.5.6-.9,1-1.2.4-.3,1-.4,1.5-.4.5,0,1.1.1,1.5.4.5.3.8.7,1,1.2.3.6.4,1.3.4,1.9,0,.7-.1,1.3-.4,1.9-.2.5-.6.9-1,1.2-.4.3-1,.4-1.5.4ZM52.9,49.6c.5,0,.9-.2,1.2-.6.3-.6.5-1.2.4-1.9,0-.6-.1-1.3-.4-1.8-.3-.4-.7-.6-1.2-.6-.5,0-.9.2-1.2.6-.3.6-.5,1.2-.4,1.8,0,.6.1,1.3.4,1.9.3.4.7.6,1.2.6Z"/>
</svg>