<svg id="logo-mapa-inversiones" xmlns="http://www.w3.org/2000/svg" width="832.33" height="100.621" viewBox="0 0 832.33 100.621">
  <path id="Path_29182" data-name="Path 29182" d="M0,32.78c0,5.43,3.11,12.38,7.47,19.45l.34.12c2.1,3.08,4.88,6.52,6.49,6.52.7,0,11.59-15.92,11.59-15.92l8.02,9.64,14.7-21.83,3.05,4.63.43-17.47L37.27,29.42l7.17-.52L33.86,45.34l-9.61-11.4S17.21,44.31,13.76,48.88C10.01,43,7.26,37.17,7.26,32.66c0-14.18,12.01-25.67,26.8-25.67s26.83,11.5,26.83,25.67S34.54,74.31,34.54,74.31A165.866,165.866,0,0,1,20.73,58.58c-.67,1.19-3.54,3.9-4.24,4.94,9.18,11.95,18.17,22.44,18.17,22.44S68.14,50.89,68.14,32.78,52.9,0,34.06,0,0,14.67,0,32.78Z" fill="#323232"/>
  <path id="Path_29183" data-name="Path 29183" d="M44.79,79.55c7.87,2.07,11.43,5.95,9,9.76S43.67,95.68,34.4,95.74c-9.24.06-17.11-2.38-19.85-6.16s.55-7.69,8.26-9.88L16.5,75.61C4.46,79.02-.64,85.12,3.63,91.01s16.53,9.69,30.95,9.61,26.44-4.09,30.25-10.03S63.06,78.61,50.77,75.38L44.8,79.55Z" fill="#323232"/>
  <path id="Path_29184" data-name="Path 29184" d="M146.48,78.48V39.03l-19.45,32.5h-5L102.58,39.58V78.47H92.02V19.04h9.17l23.33,39.45,23.06-39.45h9.17V78.49H146.47Z" fill="#323232"/>
  <path id="Path_29185" data-name="Path 29185" d="M204.54,37.37c3.61,3.33,5.28,8.06,5.28,14.45V78.49h-10V72.93a11.107,11.107,0,0,1-5.56,4.44,20.73,20.73,0,0,1-8.61,1.67,22.1,22.1,0,0,1-8.89-1.67,14.2,14.2,0,0,1-5.83-4.72,11.9,11.9,0,0,1-1.94-6.94,11.623,11.623,0,0,1,4.44-9.72c3.06-2.5,7.78-3.61,14.17-3.61h11.67v-.56c0-3.06-.83-5.56-2.78-7.22s-4.72-2.5-8.33-2.5a23.487,23.487,0,0,0-7.5,1.11,18.28,18.28,0,0,0-6.11,3.33l-4.17-7.78a27.7,27.7,0,0,1,8.61-4.17,44.087,44.087,0,0,1,10.56-1.39q9.585-.84,15,4.17Zm-9.73,31.95a10.435,10.435,0,0,0,4.44-5.28V58.76H188.42c-6.11,0-9.17,1.94-9.17,6.11a5.389,5.389,0,0,0,2.22,4.44c1.39,1.11,3.61,1.67,6.39,1.67a10.006,10.006,0,0,0,6.94-1.67Z" fill="#323232"/>
  <path id="Path_29186" data-name="Path 29186" d="M260.37,35.43a20.419,20.419,0,0,1,8.06,8.06,24.958,24.958,0,0,1,3.06,12.22,25.654,25.654,0,0,1-3.06,12.22,18.77,18.77,0,0,1-8.06,8.06,24.49,24.49,0,0,1-11.94,2.78c-6.11,0-10.83-1.94-14.45-6.11V94.61H223.42V33.22h10v5.83a13.356,13.356,0,0,1,6.39-4.72,20.73,20.73,0,0,1,8.61-1.67,24.379,24.379,0,0,1,11.94,2.78Zm-3.33,30.55a14.27,14.27,0,0,0,3.89-10.28,14.27,14.27,0,0,0-3.89-10.28,13.4,13.4,0,0,0-9.72-3.89,15.052,15.052,0,0,0-6.94,1.67,10.337,10.337,0,0,0-4.72,5,17.676,17.676,0,0,0,0,15,11.79,11.79,0,0,0,4.72,5,14.249,14.249,0,0,0,6.94,1.67A13.4,13.4,0,0,0,257.04,65.98Z" fill="#323232"/>
  <path id="Path_29187" data-name="Path 29187" d="M313.71,37.37c3.61,3.33,5.28,8.06,5.28,14.45V78.49h-10V72.93a11.107,11.107,0,0,1-5.56,4.44,20.73,20.73,0,0,1-8.61,1.67,22.1,22.1,0,0,1-8.89-1.67,14.2,14.2,0,0,1-5.83-4.72,11.9,11.9,0,0,1-1.94-6.94,11.623,11.623,0,0,1,4.44-9.72c3.06-2.5,7.78-3.61,14.17-3.61h11.67v-.56c0-3.06-.83-5.56-2.78-7.22s-4.72-2.5-8.33-2.5a23.487,23.487,0,0,0-7.5,1.11,18.28,18.28,0,0,0-6.11,3.33l-4.17-7.78a27.7,27.7,0,0,1,8.61-4.17,44.087,44.087,0,0,1,10.56-1.39c6.11-.56,11.39.83,15,4.17Zm-9.73,31.95a10.435,10.435,0,0,0,4.44-5.28V58.76H297.59c-6.11,0-9.17,1.94-9.17,6.11a5.389,5.389,0,0,0,2.22,4.44c1.39,1.11,3.61,1.67,6.39,1.67a10.37,10.37,0,0,0,6.94-1.67Z" fill="#323232"/>
  <path id="Path_29188" data-name="Path 29188" d="M332.6,19.04h13.61V78.49H332.6Z" fill="#323232"/>
  <path id="Path_29189" data-name="Path 29189" d="M400.93,37.09c3.61,3.33,5.28,8.33,5.28,15V78.2H392.88V54.03c0-3.61-.83-6.39-2.5-8.06a9.38,9.38,0,0,0-6.94-2.78,11.119,11.119,0,0,0-8.06,3.06c-1.94,1.94-3.06,5-3.06,9.17v22.5H358.99V32.64h12.5v5.28a16.6,16.6,0,0,1,6.67-4.44,21.674,21.674,0,0,1,8.61-1.67c6.11.28,10.56,1.94,14.17,5.28Z" fill="#323232"/>
  <path id="Path_29190" data-name="Path 29190" d="M462.6,32.65,443.43,78.21H429.82L410.65,32.65h13.61l12.5,31.11,13.06-31.11H462.6Z" fill="#323232"/>
  <path id="Path_29191" data-name="Path 29191" d="M511.22,59.32H476.77a11.091,11.091,0,0,0,4.44,6.67,14.329,14.329,0,0,0,8.61,2.5,15.141,15.141,0,0,0,11.39-4.44l6.94,7.5c-4.17,5-10.56,7.5-18.89,7.5a29.728,29.728,0,0,1-13.61-3.06,22.38,22.38,0,0,1-12.5-20.55,25.654,25.654,0,0,1,3.06-12.22,22.484,22.484,0,0,1,8.61-8.33,26.067,26.067,0,0,1,12.5-3.06,25.481,25.481,0,0,1,12.22,2.78,22.483,22.483,0,0,1,8.61,8.33,26.068,26.068,0,0,1,3.06,12.5v3.89ZM480.1,44.59a10.048,10.048,0,0,0-3.61,6.94h22.5a12.029,12.029,0,0,0-3.61-6.94,11.085,11.085,0,0,0-7.5-2.5,11.384,11.384,0,0,0-7.78,2.5Z" fill="#323232"/>
  <path id="Path_29192" data-name="Path 29192" d="M539.27,33.76a24.492,24.492,0,0,1,9.17-1.67V44.31c-1.39,0-2.5-.28-3.06-.28a12.725,12.725,0,0,0-8.89,3.06c-2.22,2.22-3.33,5.28-3.33,9.44V78.2H519.83V32.64h12.5v6.11a17.858,17.858,0,0,1,6.94-5Z" fill="#323232"/>
  <path id="Path_29193" data-name="Path 29193" d="M560.66,77.65a27.567,27.567,0,0,1-8.61-3.61l4.44-9.44a23.5,23.5,0,0,0,7.5,3.06,32.018,32.018,0,0,0,8.61,1.11q8.34,0,8.33-4.17c0-1.39-.83-2.22-2.22-2.78a27.152,27.152,0,0,0-6.94-1.39,52.8,52.8,0,0,1-9.17-1.94,15.243,15.243,0,0,1-6.39-3.89c-1.94-1.94-2.78-4.44-2.78-8.06a12.969,12.969,0,0,1,2.5-7.78,18.2,18.2,0,0,1,7.22-5.28,33.571,33.571,0,0,1,11.39-1.94,38.84,38.84,0,0,1,9.72,1.11,27.139,27.139,0,0,1,8.06,3.06l-4.44,9.44a26.108,26.108,0,0,0-13.06-3.33c-2.78,0-5,.28-6.39,1.11a3.878,3.878,0,0,0-2.22,3.06,3.255,3.255,0,0,0,2.22,3.06,40.427,40.427,0,0,0,7.22,1.67c3.61.56,6.67,1.39,9.17,1.94a12.836,12.836,0,0,1,6.11,3.89,11.349,11.349,0,0,1,2.5,7.78,12.158,12.158,0,0,1-2.5,7.5,14.973,14.973,0,0,1-7.5,5,36.6,36.6,0,0,1-11.67,1.94,37.828,37.828,0,0,1-11.11-1.11Z" fill="#323232"/>
  <path id="Path_29194" data-name="Path 29194" d="M602.33,24.31a7.117,7.117,0,0,1-2.22-5.28,7.117,7.117,0,0,1,2.22-5.28,8.427,8.427,0,0,1,5.83-2.22c2.5,0,4.44.56,5.83,1.94a6.027,6.027,0,0,1,2.22,5,8.273,8.273,0,0,1-2.22,5.56,8.427,8.427,0,0,1-5.83,2.22c-2.5,0-4.44-.56-5.83-1.94Zm-.83,8.34h13.33V78.21H601.5V32.65Z" fill="#323232"/>
  <path id="Path_29195" data-name="Path 29195" d="M635.94,75.98a21.4,21.4,0,0,1-8.89-8.33,22.41,22.41,0,0,1-3.33-12.22,23.1,23.1,0,0,1,3.33-12.22,21.4,21.4,0,0,1,8.89-8.33A28.366,28.366,0,0,1,649,31.82a27.085,27.085,0,0,1,12.78,3.06,21.4,21.4,0,0,1,8.89,8.33A22.41,22.41,0,0,1,674,55.43a23.1,23.1,0,0,1-3.33,12.22,21.4,21.4,0,0,1-8.89,8.33,28.8,28.8,0,0,1-25.84,0Zm21.12-11.11q3.33-3.33,3.33-9.17t-3.33-9.17a12.084,12.084,0,0,0-16.66,0q-3.33,3.33-3.33,9.17t3.33,9.17a11.268,11.268,0,0,0,8.33,3.33Q654.145,68.2,657.06,64.87Z" fill="#323232"/>
  <path id="Path_29196" data-name="Path 29196" d="M724,37.09c3.61,3.33,5.28,8.33,5.28,15V78.2H715.95V54.03c0-3.61-.83-6.39-2.5-8.06a9.38,9.38,0,0,0-6.94-2.78,11.119,11.119,0,0,0-8.06,3.06c-1.94,1.94-3.06,5-3.06,9.17v22.5H682.06V32.64h12.5v5.28a16.6,16.6,0,0,1,6.67-4.44,21.674,21.674,0,0,1,8.61-1.67c6.11.28,10.83,1.94,14.17,5.28Z" fill="#323232"/>
  <path id="Path_29197" data-name="Path 29197" d="M786.23,59.32H751.78a11.091,11.091,0,0,0,4.44,6.67,14.329,14.329,0,0,0,8.61,2.5,15.515,15.515,0,0,0,6.39-1.11,15.743,15.743,0,0,0,5-3.33l6.94,7.5c-4.17,5-10.56,7.5-18.89,7.5a29.728,29.728,0,0,1-13.61-3.06,22.189,22.189,0,0,1-9.17-8.33c-2.23-3.61-3.06-7.5-3.06-12.22a25.654,25.654,0,0,1,3.06-12.22,22.484,22.484,0,0,1,8.61-8.33,26.068,26.068,0,0,1,12.5-3.06,25.481,25.481,0,0,1,12.22,2.78,22.483,22.483,0,0,1,8.61,8.33,26.068,26.068,0,0,1,3.06,12.5,28.414,28.414,0,0,1-.28,3.89ZM755.39,44.59a10.048,10.048,0,0,0-3.61,6.94h22.5a12.029,12.029,0,0,0-3.61-6.94,11.085,11.085,0,0,0-7.5-2.5A11.384,11.384,0,0,0,755.39,44.59Z" fill="#323232"/>
  <path id="Path_29198" data-name="Path 29198" d="M799.56,77.65a27.567,27.567,0,0,1-8.61-3.61l4.44-9.44a23.5,23.5,0,0,0,7.5,3.06,32.018,32.018,0,0,0,8.61,1.11q8.34,0,8.33-4.17c0-1.39-.83-2.22-2.22-2.78a27.152,27.152,0,0,0-6.94-1.39,52.8,52.8,0,0,1-9.17-1.94,15.243,15.243,0,0,1-6.39-3.89c-1.94-1.94-2.78-4.44-2.78-8.06a12.969,12.969,0,0,1,2.5-7.78,18.2,18.2,0,0,1,7.22-5.28,33.571,33.571,0,0,1,11.39-1.94,38.84,38.84,0,0,1,9.72,1.11,27.139,27.139,0,0,1,8.06,3.06l-4.44,9.44a26.108,26.108,0,0,0-13.06-3.33c-2.78,0-5,.28-6.39,1.11a3.878,3.878,0,0,0-2.22,3.06,3.255,3.255,0,0,0,2.22,3.06,40.427,40.427,0,0,0,7.22,1.67c3.61.56,6.67,1.39,9.17,1.94a12.836,12.836,0,0,1,6.11,3.89,11.349,11.349,0,0,1,2.5,7.78,12.158,12.158,0,0,1-2.5,7.5,14.973,14.973,0,0,1-7.5,5,43.628,43.628,0,0,1-22.78.83Z" fill="#323232"/>
</svg>
