<?xml version="1.0" encoding="UTF-8"?>
<svg id="Capa_1" data-name="Capa 1" xmlns="http://www.w3.org/2000/svg" version="1.1" xmlns:xlink="http://www.w3.org/1999/xlink" viewBox="0 0 108.2 78.2">
  <defs>
    <style>
      .cls-1 {
        fill: #524596;
      }

      .cls-1, .cls-2, .cls-3, .cls-4, .cls-5, .cls-6, .cls-7, .cls-8, .cls-9 {
        stroke-width: 0px;
      }

      .cls-2 {
        fill: url(#linear-gradient);
      }

      .cls-3 {
        fill: url(#linear-gradient-6);
      }

      .cls-4 {
        fill: url(#linear-gradient-5);
      }

      .cls-5 {
        fill: url(#linear-gradient-2);
      }

      .cls-6 {
        fill: url(#linear-gradient-7);
      }

      .cls-7 {
        fill: url(#linear-gradient-3);
      }

      .cls-8 {
        fill: url(#linear-gradient-8);
      }

      .cls-9 {
        fill: url(#linear-gradient-4);
      }
    </style>
    <linearGradient id="linear-gradient" x1="29" y1="26.2" x2="74.8" y2="26.2" gradientUnits="userSpaceOnUse">
      <stop offset="0" stop-color="#7600ff"/>
      <stop offset="1" stop-color="aqua"/>
    </linearGradient>
    <linearGradient id="linear-gradient-2" x1="29" y1="27.1" x2="74.8" y2="27.1" xlink:href="#linear-gradient"/>
    <linearGradient id="linear-gradient-3" x1="29" y1="28.1" x2="74.8" y2="28.1" xlink:href="#linear-gradient"/>
    <linearGradient id="linear-gradient-4" x1="29" y1="29" x2="74.8" y2="29" xlink:href="#linear-gradient"/>
    <linearGradient id="linear-gradient-5" x1="34.7" y1="36.1" x2="79" y2="36.1" gradientUnits="userSpaceOnUse">
      <stop offset="0" stop-color="aqua"/>
      <stop offset="1" stop-color="#7600ff"/>
    </linearGradient>
    <linearGradient id="linear-gradient-6" x1="34.7" y1="35.1" x2="79" y2="35.1" xlink:href="#linear-gradient-5"/>
    <linearGradient id="linear-gradient-7" x1="34.7" y1="34.2" x2="79" y2="34.2" xlink:href="#linear-gradient-5"/>
    <linearGradient id="linear-gradient-8" x1="34.7" y1="33.2" x2="79" y2="33.2" xlink:href="#linear-gradient-5"/>
  </defs>
  <g>
    <g>
      <path class="cls-2" d="M71.4,13.9l2.3-2.3c-10.2-10.2-26.6-10.2-36.8,0-10.2,10.2-10.2,26.6,0,36.8l2.3-2.3c-8.9-8.9-8.9-23.3,0-32.3,8.9-8.9,23.3-8.9,32.3,0Z"/>
      <path class="cls-5" d="M66.8,18.4l2.3-2.3c-7.6-7.6-20-7.6-27.7,0-7.6,7.6-7.6,20,0,27.7l2.3-2.3c-6.4-6.4-6.4-16.7,0-23.1,6.4-6.4,16.8-6.4,23.1,0Z"/>
      <path class="cls-7" d="M62.2,23l2.3-2.3c-5.1-5.1-13.5-5.1-18.6,0-5.1,5.1-5.1,13.5,0,18.6l2.3-2.3c-3.9-3.9-3.9-10.2,0-14,3.9-3.9,10.2-3.9,14,0Z"/>
      <path class="cls-9" d="M57.7,27.5l2.3-2.3c-2.6-2.6-6.9-2.6-9.5,0-2.6,2.6-2.6,6.9,0,9.5l2.3-2.3c-1.4-1.4-1.4-3.6,0-4.9,1.4-1.4,3.6-1.4,4.9,0Z"/>
    </g>
    <g>
      <path class="cls-4" d="M71.4,13.9l-2.3,2.3c8.9,8.9,8.9,23.3,0,32.3-8.9,8.9-23.3,8.9-32.3,0l-2.3,2.3c10.2,10.2,26.6,10.2,36.8,0,10.2-10.2,10.2-26.6,0-36.8Z"/>
      <path class="cls-3" d="M66.8,46.1c-7.6,7.6-20,7.6-27.7,0l2.3-2.3c6.4,6.4,16.8,6.4,23.1,0,6.4-6.4,6.4-16.8,0-23.1l2.3-2.3c7.7,7.7,7.7,20.1,0,27.7Z"/>
      <path class="cls-6" d="M62.2,41.6c-5.1,5.1-13.5,5.1-18.6,0l2.3-2.3c3.9,3.9,10.2,3.9,14,0,3.9-3.9,3.9-10.2,0-14l2.3-2.3c5.1,5.1,5.1,13.5,0,18.6Z"/>
      <path class="cls-8" d="M57.7,37c-2.6,2.6-6.9,2.6-9.5,0l2.3-2.3c1.4,1.4,3.6,1.4,4.9,0,1.4-1.4,1.4-3.6,0-4.9l2.3-2.3c2.6,2.6,2.6,6.9,0,9.5Z"/>
    </g>
  </g>
  <g>
    <path class="cls-1" d="M9.2,63.4h1.6v7.1h4.4v1.3h-5.9v-8.4Z"/>
    <path class="cls-1" d="M15.6,68.6c0-1.9,1.4-3.3,3.4-3.3s3.4,1.4,3.4,3.3-1.4,3.3-3.4,3.3-3.4-1.4-3.4-3.3ZM20.9,68.6c0-1.2-.8-2-1.9-2s-1.9.8-1.9,2,.8,2,1.9,2,1.9-.8,1.9-2Z"/>
    <path class="cls-1" d="M30.3,65.4v5.4c0,2.3-1.2,3.4-3.5,3.4s-2.4-.3-3.1-.9l.7-1.1c.6.5,1.5.8,2.4.8,1.4,0,2-.6,2-1.9v-.3c-.5.6-1.3.9-2.1.9-1.8,0-3.2-1.2-3.2-3.1s1.4-3.1,3.2-3.1,1.7.3,2.2.9v-.9h1.4ZM28.8,68.4c0-1.1-.8-1.8-1.9-1.8s-2,.7-2,1.8.8,1.8,2,1.8,1.9-.7,1.9-1.8Z"/>
    <path class="cls-1" d="M31.7,68.6c0-1.9,1.4-3.3,3.4-3.3s3.4,1.4,3.4,3.3-1.4,3.3-3.4,3.3-3.4-1.4-3.4-3.3ZM37,68.6c0-1.2-.8-2-1.9-2s-1.9.8-1.9,2,.8,2,1.9,2,1.9-.8,1.9-2Z"/>
    <path class="cls-1" d="M49.2,67.5h1.5v3.3c-.9.7-2.1,1.1-3.3,1.1-2.6,0-4.5-1.8-4.5-4.3s1.9-4.3,4.5-4.3,2.6.5,3.4,1.4l-1,1c-.7-.7-1.4-1-2.3-1-1.8,0-3,1.2-3,3s1.3,3,3,3,1.2-.1,1.7-.4v-2.6Z"/>
    <path class="cls-1" d="M52,68.6c0-1.9,1.4-3.3,3.4-3.3s3.4,1.4,3.4,3.3-1.4,3.3-3.4,3.3-3.4-1.4-3.4-3.3ZM57.3,68.6c0-1.2-.8-2-1.9-2s-1.9.8-1.9,2,.8,2,1.9,2,1.9-.8,1.9-2Z"/>
    <path class="cls-1" d="M67.1,68.6c0,2-1.4,3.3-3.2,3.3s-1.6-.3-2.1-.9v.8h-1.4v-8.9h1.5v3.3c.5-.6,1.2-.9,2.1-.9,1.9,0,3.2,1.3,3.2,3.3ZM65.6,68.6c0-1.2-.8-2-1.9-2s-1.9.8-1.9,2,.8,2,1.9,2,1.9-.8,1.9-2Z"/>
    <path class="cls-1" d="M68.3,63.5c0-.5.4-.9,1-.9s1,.4,1,.9-.4.9-1,.9-1-.4-1-.9ZM68.5,65.4h1.5v6.4h-1.5v-6.4Z"/>
    <path class="cls-1" d="M78,69.1h-5c.2.9,1,1.5,2.1,1.5s1.3-.2,1.7-.7l.8.9c-.6.7-1.5,1-2.6,1-2.1,0-3.5-1.4-3.5-3.3s1.4-3.3,3.3-3.3,3.2,1.3,3.2,3.3,0,.3,0,.4ZM72.9,68.1h3.6c-.1-.9-.8-1.6-1.8-1.6s-1.7.6-1.8,1.6Z"/>
    <path class="cls-1" d="M83.1,65.4v1.4c-.1,0-.2,0-.3,0-1.1,0-1.9.7-1.9,2v3.1h-1.5v-6.4h1.4v.9c.4-.7,1.2-1,2.3-1Z"/>
    <path class="cls-1" d="M90.7,68.2v3.7h-1.5v-3.5c0-1.1-.6-1.7-1.5-1.7s-1.8.6-1.8,1.9v3.2h-1.5v-6.4h1.4v.8c.5-.6,1.3-.9,2.2-.9,1.5,0,2.7.9,2.7,2.8Z"/>
    <path class="cls-1" d="M92.2,68.6c0-1.9,1.4-3.3,3.4-3.3s3.4,1.4,3.4,3.3-1.4,3.3-3.4,3.3-3.4-1.4-3.4-3.3ZM97.5,68.6c0-1.2-.8-2-1.9-2s-1.9.8-1.9,2,.8,2,1.9,2,1.9-.8,1.9-2Z"/>
  </g>
</svg>