<svg xmlns="http://www.w3.org/2000/svg" width="260.1" height="61.71" viewBox="0 0 260.1 61.71">
  <g id="logoMIV" transform="translate(5176 -4991.39)">
    <path id="Path_15697" data-name="Path 15697" d="M10.051,0,7.486-3.705H4.655V0H1.577V-13.3H7.334a7.388,7.388,0,0,1,3.069.589,4.559,4.559,0,0,1,2,1.672,4.606,4.606,0,0,1,.7,2.565A4.514,4.514,0,0,1,12.4-5.919a4.516,4.516,0,0,1-2.024,1.644L13.357,0ZM9.994-8.474a2.107,2.107,0,0,0-.722-1.72,3.233,3.233,0,0,0-2.109-.6H4.655v4.636H7.163a3.2,3.2,0,0,0,2.109-.608A2.113,2.113,0,0,0,9.994-8.474Zm15.352,3.4q0,.057-.057.8H17.556a2.408,2.408,0,0,0,.988,1.5,3.272,3.272,0,0,0,1.938.551A3.924,3.924,0,0,0,21.9-2.461a3.428,3.428,0,0,0,1.15-.751L24.624-1.5A5.3,5.3,0,0,1,20.406.152a6.672,6.672,0,0,1-3.059-.675,4.944,4.944,0,0,1-2.052-1.872,5.157,5.157,0,0,1-.722-2.717,5.224,5.224,0,0,1,.713-2.707A4.992,4.992,0,0,1,17.243-9.7a5.746,5.746,0,0,1,2.783-.675,5.7,5.7,0,0,1,2.717.646,4.715,4.715,0,0,1,1.91,1.852A5.524,5.524,0,0,1,25.346-5.073Zm-5.3-3.059a2.553,2.553,0,0,0-1.691.57A2.426,2.426,0,0,0,17.518-6h5.035a2.451,2.451,0,0,0-.836-1.549A2.5,2.5,0,0,0,20.045-8.132Zm13.319-2.242a5.209,5.209,0,0,1,2.594.656,4.707,4.707,0,0,1,1.833,1.843,5.564,5.564,0,0,1,.665,2.765,5.564,5.564,0,0,1-.665,2.765A4.707,4.707,0,0,1,35.958-.5a5.209,5.209,0,0,1-2.594.656,3.948,3.948,0,0,1-3.078-1.235V3.686H27.322V-10.222h2.831v1.178A3.931,3.931,0,0,1,33.364-10.374ZM32.851-2.28a2.469,2.469,0,0,0,1.872-.769,2.868,2.868,0,0,0,.731-2.062,2.868,2.868,0,0,0-.731-2.062,2.469,2.469,0,0,0-1.872-.769,2.469,2.469,0,0,0-1.871.769,2.868,2.868,0,0,0-.732,2.062,2.868,2.868,0,0,0,.732,2.062A2.469,2.469,0,0,0,32.851-2.28ZM50.73-10.222V0H47.918V-1.216A3.931,3.931,0,0,1,46.512-.2a4.423,4.423,0,0,1-1.767.352,4.353,4.353,0,0,1-3.192-1.159,4.62,4.62,0,0,1-1.178-3.439v-5.776h2.964v5.339q0,2.47,2.071,2.47a2.226,2.226,0,0,0,1.71-.694,2.926,2.926,0,0,0,.646-2.062v-5.054Zm-4.351-4.047h3.192l-3.439,2.736H43.814Zm13.148,3.9a5.209,5.209,0,0,1,2.594.656,4.707,4.707,0,0,1,1.833,1.843,5.564,5.564,0,0,1,.665,2.765,5.564,5.564,0,0,1-.665,2.765A4.707,4.707,0,0,1,62.12-.5a5.209,5.209,0,0,1-2.594.656,3.931,3.931,0,0,1-3.211-1.33V0H53.485V-14.1h2.964v4.959A3.948,3.948,0,0,1,59.527-10.374ZM59.014-2.28a2.469,2.469,0,0,0,1.872-.769,2.868,2.868,0,0,0,.731-2.062,2.868,2.868,0,0,0-.731-2.062,2.469,2.469,0,0,0-1.872-.769,2.469,2.469,0,0,0-1.871.769,2.868,2.868,0,0,0-.732,2.062,2.868,2.868,0,0,0,.732,2.062A2.469,2.469,0,0,0,59.014-2.28ZM66.6-14.1h2.964V0H66.6Zm5.719,3.876h2.964V0H72.314ZM73.8-11.647a1.88,1.88,0,0,1-1.33-.475,1.541,1.541,0,0,1-.513-1.178,1.541,1.541,0,0,1,.513-1.178,1.88,1.88,0,0,1,1.33-.475,1.927,1.927,0,0,1,1.33.456,1.462,1.462,0,0,1,.513,1.14,1.613,1.613,0,0,1-.513,1.226A1.858,1.858,0,0,1,73.8-11.647ZM82.973.152a6.285,6.285,0,0,1-2.936-.675A5.051,5.051,0,0,1,78-2.394a5.105,5.105,0,0,1-.731-2.717A5.105,5.105,0,0,1,78-7.828,5.051,5.051,0,0,1,80.037-9.7a6.285,6.285,0,0,1,2.936-.675,5.688,5.688,0,0,1,2.822.675,4,4,0,0,1,1.757,1.928l-2.3,1.235a2.513,2.513,0,0,0-2.3-1.406,2.6,2.6,0,0,0-1.919.76,2.8,2.8,0,0,0-.76,2.071,2.8,2.8,0,0,0,.76,2.071,2.6,2.6,0,0,0,1.919.76,2.487,2.487,0,0,0,2.3-1.406l2.3,1.254a4.081,4.081,0,0,1-1.757,1.9A5.624,5.624,0,0,1,82.973.152ZM93.385-10.374a5.32,5.32,0,0,1,3.648,1.13,4.326,4.326,0,0,1,1.273,3.411V0H95.532V-1.273A3.3,3.3,0,0,1,92.416.152a4.836,4.836,0,0,1-2.043-.4,3.046,3.046,0,0,1-1.321-1.1,2.868,2.868,0,0,1-.456-1.6A2.663,2.663,0,0,1,89.67-5.187,5.471,5.471,0,0,1,92.986-6h2.356A1.889,1.889,0,0,0,94.753-7.5a2.594,2.594,0,0,0-1.767-.523,5.159,5.159,0,0,0-1.605.257,4.248,4.248,0,0,0-1.34.694L88.977-9.139a6.42,6.42,0,0,1,2-.912A8.979,8.979,0,0,1,93.385-10.374Zm-.228,8.531a2.581,2.581,0,0,0,1.349-.351,1.923,1.923,0,0,0,.836-1.036V-4.275H93.309q-1.824,0-1.824,1.2a1.066,1.066,0,0,0,.446.9A2.011,2.011,0,0,0,93.157-1.843ZM106.571-13.3h6.042a8.492,8.492,0,0,1,3.828.826,6.188,6.188,0,0,1,2.584,2.328,6.547,6.547,0,0,1,.922,3.5,6.547,6.547,0,0,1-.922,3.5,6.188,6.188,0,0,1-2.584,2.328A8.492,8.492,0,0,1,112.613,0h-6.042Zm5.89,10.773a4.47,4.47,0,0,0,3.182-1.112,3.926,3.926,0,0,0,1.188-3.012,3.926,3.926,0,0,0-1.187-3.012,4.47,4.47,0,0,0-3.182-1.111h-2.812v8.246ZM126.92.152a6.129,6.129,0,0,1-2.9-.675,5.014,5.014,0,0,1-2-1.872,5.157,5.157,0,0,1-.722-2.717,5.157,5.157,0,0,1,.722-2.717,5.014,5.014,0,0,1,2-1.871,6.129,6.129,0,0,1,2.9-.675,6.073,6.073,0,0,1,2.888.675A5.03,5.03,0,0,1,131.8-7.828a5.157,5.157,0,0,1,.722,2.717,5.157,5.157,0,0,1-.722,2.717,5.03,5.03,0,0,1-1.995,1.872A6.073,6.073,0,0,1,126.92.152Zm0-2.432a2.469,2.469,0,0,0,1.872-.769,2.869,2.869,0,0,0,.731-2.062,2.869,2.869,0,0,0-.731-2.062,2.469,2.469,0,0,0-1.872-.769,2.5,2.5,0,0,0-1.881.769,2.847,2.847,0,0,0-.741,2.062,2.847,2.847,0,0,0,.741,2.062A2.5,2.5,0,0,0,126.92-2.28Zm20.672-8.094a4.121,4.121,0,0,1,3.049,1.13,4.606,4.606,0,0,1,1.131,3.391V0h-2.964V-5.4a2.769,2.769,0,0,0-.5-1.815,1.77,1.77,0,0,0-1.435-.6,2.114,2.114,0,0,0-1.653.674,2.907,2.907,0,0,0-.608,2V0h-2.964V-5.4q0-2.413-1.938-2.413a2.091,2.091,0,0,0-1.634.674,2.907,2.907,0,0,0-.608,2V0H134.5V-10.222h2.831v1.178a3.741,3.741,0,0,1,1.4-.988,4.7,4.7,0,0,1,1.814-.342,4.395,4.395,0,0,1,1.957.427A3.466,3.466,0,0,1,143.906-8.7a4.193,4.193,0,0,1,1.587-1.235A5.005,5.005,0,0,1,147.592-10.374Zm6.84.152H157.4V0h-2.964Zm1.482-1.425a1.88,1.88,0,0,1-1.33-.475,1.541,1.541,0,0,1-.513-1.178,1.541,1.541,0,0,1,.513-1.178,1.88,1.88,0,0,1,1.33-.475,1.927,1.927,0,0,1,1.33.456,1.462,1.462,0,0,1,.513,1.14,1.613,1.613,0,0,1-.513,1.226A1.858,1.858,0,0,1,155.914-11.647Zm10.45,1.273a4.207,4.207,0,0,1,3.069,1.14A4.521,4.521,0,0,1,170.6-5.852V0h-2.964V-5.4a2.665,2.665,0,0,0-.532-1.815,1.951,1.951,0,0,0-1.539-.6,2.359,2.359,0,0,0-1.786.694,2.872,2.872,0,0,0-.665,2.062V0h-2.964V-10.222h2.831v1.2a3.931,3.931,0,0,1,1.463-1A5.1,5.1,0,0,1,166.364-10.374Zm6.916.152h2.964V0H173.28Zm1.482-1.425a1.88,1.88,0,0,1-1.33-.475,1.541,1.541,0,0,1-.513-1.178,1.541,1.541,0,0,1,.513-1.178,1.88,1.88,0,0,1,1.33-.475,1.927,1.927,0,0,1,1.33.456,1.462,1.462,0,0,1,.513,1.14,1.613,1.613,0,0,1-.513,1.226A1.858,1.858,0,0,1,174.762-11.647Zm9.177,11.8A6.285,6.285,0,0,1,181-.523a5.051,5.051,0,0,1-2.033-1.872,5.105,5.105,0,0,1-.731-2.717,5.105,5.105,0,0,1,.731-2.717A5.051,5.051,0,0,1,181-9.7a6.285,6.285,0,0,1,2.936-.675,5.688,5.688,0,0,1,2.822.675,4,4,0,0,1,1.757,1.928l-2.3,1.235a2.513,2.513,0,0,0-2.3-1.406,2.6,2.6,0,0,0-1.919.76,2.8,2.8,0,0,0-.76,2.071A2.8,2.8,0,0,0,182-3.04a2.6,2.6,0,0,0,1.919.76,2.487,2.487,0,0,0,2.3-1.406l2.3,1.254a4.081,4.081,0,0,1-1.757,1.9A5.624,5.624,0,0,1,183.939.152Zm10.412-10.526A5.32,5.32,0,0,1,198-9.244a4.326,4.326,0,0,1,1.273,3.411V0H196.5V-1.273A3.3,3.3,0,0,1,193.382.152a4.836,4.836,0,0,1-2.042-.4,3.046,3.046,0,0,1-1.321-1.1,2.868,2.868,0,0,1-.456-1.6,2.663,2.663,0,0,1,1.074-2.242A5.471,5.471,0,0,1,193.952-6h2.356a1.889,1.889,0,0,0-.589-1.492,2.594,2.594,0,0,0-1.767-.523,5.159,5.159,0,0,0-1.605.257,4.247,4.247,0,0,0-1.339.694l-1.064-2.071a6.42,6.42,0,0,1,2-.912A8.979,8.979,0,0,1,194.351-10.374Zm-.228,8.531a2.581,2.581,0,0,0,1.349-.351,1.923,1.923,0,0,0,.836-1.036V-4.275h-2.033q-1.824,0-1.824,1.2a1.066,1.066,0,0,0,.447.9A2.011,2.011,0,0,0,194.123-1.843Zm14.041-8.531a4.207,4.207,0,0,1,3.069,1.14A4.521,4.521,0,0,1,212.4-5.852V0h-2.964V-5.4a2.665,2.665,0,0,0-.532-1.815,1.951,1.951,0,0,0-1.539-.6,2.359,2.359,0,0,0-1.786.694,2.872,2.872,0,0,0-.665,2.062V0h-2.964V-10.222h2.831v1.2a3.931,3.931,0,0,1,1.463-1A5.1,5.1,0,0,1,208.164-10.374Zm11.039,0a5.32,5.32,0,0,1,3.648,1.13,4.326,4.326,0,0,1,1.273,3.411V0H221.35V-1.273A3.3,3.3,0,0,1,218.234.152a4.836,4.836,0,0,1-2.042-.4,3.046,3.046,0,0,1-1.321-1.1,2.868,2.868,0,0,1-.456-1.6,2.663,2.663,0,0,1,1.074-2.242A5.471,5.471,0,0,1,218.8-6h2.356a1.889,1.889,0,0,0-.589-1.492,2.594,2.594,0,0,0-1.767-.523,5.159,5.159,0,0,0-1.605.257,4.247,4.247,0,0,0-1.339.694l-1.064-2.071a6.42,6.42,0,0,1,2-.912A8.979,8.979,0,0,1,219.2-10.374Zm-.228,8.531a2.581,2.581,0,0,0,1.349-.351,1.923,1.923,0,0,0,.836-1.036V-4.275h-2.033q-1.824,0-1.824,1.2a1.066,1.066,0,0,0,.447.9A2.011,2.011,0,0,0,218.975-1.843Z" transform="translate(-5177.577 5038)" fill="#003876"/>
    <path id="Path_15698" data-name="Path 15698" d="M25.23,8V29H23.1V12.2L14.85,26.33H13.8L5.55,12.29V29H3.42V8H5.25l9.12,15.57L23.4,8Zm11.91,5.1a6.68,6.68,0,0,1,4.74,1.545,5.97,5.97,0,0,1,1.65,4.575V29H41.49V26.54a4.884,4.884,0,0,1-2.115,1.92,7.4,7.4,0,0,1-3.315.69,6.491,6.491,0,0,1-4.2-1.26,4.069,4.069,0,0,1-1.56-3.33,4.035,4.035,0,0,1,1.455-3.24,7.12,7.12,0,0,1,4.635-1.23H41.4v-.96a4.044,4.044,0,0,0-1.14-3.105,4.708,4.708,0,0,0-3.33-1.065,8.465,8.465,0,0,0-2.88.495,7.258,7.258,0,0,0-2.37,1.365l-.96-1.59a8.513,8.513,0,0,1,2.88-1.575A11.212,11.212,0,0,1,37.14,13.1Zm-.75,14.37a5.613,5.613,0,0,0,3.09-.825A4.926,4.926,0,0,0,41.4,24.26V21.68H36.45q-4.05,0-4.05,2.82a2.58,2.58,0,0,0,1.05,2.175A4.78,4.78,0,0,0,36.39,27.47ZM57.45,13.1A8.1,8.1,0,0,1,61.47,14.1a7.187,7.187,0,0,1,2.82,2.835,8.419,8.419,0,0,1,1.02,4.17,8.481,8.481,0,0,1-1.02,4.2,7.215,7.215,0,0,1-2.805,2.835,8.08,8.08,0,0,1-4.035,1,7.461,7.461,0,0,1-3.465-.8A6.566,6.566,0,0,1,51.45,26.03v8.79H49.32V13.22h2.04v3.12a6.561,6.561,0,0,1,2.535-2.4A7.435,7.435,0,0,1,57.45,13.1ZM57.3,27.26a5.978,5.978,0,0,0,3-.765,5.4,5.4,0,0,0,2.115-2.175,6.622,6.622,0,0,0,.765-3.21,6.536,6.536,0,0,0-.765-3.195A5.532,5.532,0,0,0,60.3,15.74a6.188,6.188,0,0,0-6.015,0,5.563,5.563,0,0,0-2.1,2.175,6.536,6.536,0,0,0-.765,3.195,6.622,6.622,0,0,0,.765,3.21,5.433,5.433,0,0,0,2.1,2.175A5.954,5.954,0,0,0,57.3,27.26ZM75.09,13.1a6.68,6.68,0,0,1,4.74,1.545,5.97,5.97,0,0,1,1.65,4.575V29H79.44V26.54a4.884,4.884,0,0,1-2.115,1.92,7.4,7.4,0,0,1-3.315.69,6.491,6.491,0,0,1-4.2-1.26,4.069,4.069,0,0,1-1.56-3.33,4.035,4.035,0,0,1,1.455-3.24,7.12,7.12,0,0,1,4.635-1.23h5.01v-.96a4.044,4.044,0,0,0-1.14-3.105,4.708,4.708,0,0,0-3.33-1.065,8.465,8.465,0,0,0-2.88.495,7.257,7.257,0,0,0-2.37,1.365l-.96-1.59a8.513,8.513,0,0,1,2.88-1.575A11.212,11.212,0,0,1,75.09,13.1Zm-.75,14.37a5.613,5.613,0,0,0,3.09-.825,4.926,4.926,0,0,0,1.92-2.385V21.68H74.4q-4.05,0-4.05,2.82a2.58,2.58,0,0,0,1.05,2.175A4.78,4.78,0,0,0,74.34,27.47ZM86.79,8h4.86V29H86.79Zm19.32,4.62a6.642,6.642,0,0,1,4.845,1.8,7.138,7.138,0,0,1,1.845,5.34V29h-4.68V20.48a4.207,4.207,0,0,0-.84-2.865,3.081,3.081,0,0,0-2.43-.945,3.724,3.724,0,0,0-2.82,1.095,4.534,4.534,0,0,0-1.05,3.255V29H96.3V12.86h4.47v1.89a6.206,6.206,0,0,1,2.31-1.575A8.048,8.048,0,0,1,106.11,12.62Zm26.64.24L125.94,29h-4.83l-6.78-16.14h4.83l4.47,10.98,4.62-10.98Zm17.28,8.13q0,.09-.09,1.26H137.73a3.8,3.8,0,0,0,1.56,2.37,5.167,5.167,0,0,0,3.06.87,6.2,6.2,0,0,0,2.235-.375A5.413,5.413,0,0,0,146.4,23.93l2.49,2.7q-2.28,2.61-6.66,2.61a10.536,10.536,0,0,1-4.83-1.065,7.807,7.807,0,0,1-3.24-2.955,8.142,8.142,0,0,1-1.14-4.29,8.248,8.248,0,0,1,1.125-4.275,7.881,7.881,0,0,1,3.09-2.97,9.567,9.567,0,0,1,8.685-.045,7.445,7.445,0,0,1,3.015,2.925A8.722,8.722,0,0,1,150.03,20.99Zm-8.37-4.83a4.03,4.03,0,0,0-2.67.9,3.831,3.831,0,0,0-1.32,2.46h7.95a3.87,3.87,0,0,0-1.32-2.445A3.945,3.945,0,0,0,141.66,16.16Zm15.96-1.17a5.2,5.2,0,0,1,2.265-1.77,8.407,8.407,0,0,1,3.285-.6v4.32q-.78-.06-1.05-.06A4.29,4.29,0,0,0,158.97,18a4.547,4.547,0,0,0-1.14,3.375V29h-4.68V12.86h4.47Zm13.83,14.25a15.679,15.679,0,0,1-3.93-.495,10.268,10.268,0,0,1-3.06-1.245l1.56-3.36a9.818,9.818,0,0,0,2.61,1.125,10.939,10.939,0,0,0,3,.435q2.97,0,2.97-1.47a1.04,1.04,0,0,0-.81-.99,12,12,0,0,0-2.49-.51,24.021,24.021,0,0,1-3.27-.69,5.073,5.073,0,0,1-2.235-1.38,3.924,3.924,0,0,1-.945-2.82,4.418,4.418,0,0,1,.885-2.715,5.7,5.7,0,0,1,2.58-1.845,11.019,11.019,0,0,1,4.005-.66,15.718,15.718,0,0,1,3.4.375,9.518,9.518,0,0,1,2.8,1.035l-1.56,3.33a9.313,9.313,0,0,0-4.65-1.2,4.731,4.731,0,0,0-2.25.42,1.235,1.235,0,0,0-.75,1.08,1.072,1.072,0,0,0,.81,1.05,14.339,14.339,0,0,0,2.58.57,27.617,27.617,0,0,1,3.24.705,4.867,4.867,0,0,1,2.19,1.365,3.873,3.873,0,0,1,.93,2.76,4.262,4.262,0,0,1-.9,2.67,5.745,5.745,0,0,1-2.625,1.815A11.7,11.7,0,0,1,171.45,29.24Zm10.5-16.38h4.68V29h-4.68Zm2.34-2.25a2.968,2.968,0,0,1-2.1-.75A2.432,2.432,0,0,1,181.38,8a2.432,2.432,0,0,1,.81-1.86,2.968,2.968,0,0,1,2.1-.75,3.043,3.043,0,0,1,2.1.72,2.309,2.309,0,0,1,.81,1.8,2.547,2.547,0,0,1-.81,1.935A2.934,2.934,0,0,1,184.29,10.61Zm14.37,18.63a9.678,9.678,0,0,1-4.575-1.065,7.917,7.917,0,0,1-3.165-2.955,8.142,8.142,0,0,1-1.14-4.29,8.142,8.142,0,0,1,1.14-4.29,7.917,7.917,0,0,1,3.165-2.955,10.327,10.327,0,0,1,9.135,0,7.942,7.942,0,0,1,3.15,2.955,8.142,8.142,0,0,1,1.14,4.29,8.142,8.142,0,0,1-1.14,4.29,7.942,7.942,0,0,1-3.15,2.955A9.589,9.589,0,0,1,198.66,29.24Zm0-3.84a3.9,3.9,0,0,0,2.955-1.215,4.529,4.529,0,0,0,1.155-3.255,4.529,4.529,0,0,0-1.155-3.255,3.9,3.9,0,0,0-2.955-1.215,3.946,3.946,0,0,0-2.97,1.215,4.5,4.5,0,0,0-1.17,3.255,4.5,4.5,0,0,0,1.17,3.255A3.946,3.946,0,0,0,198.66,25.4Zm21.78-12.78a6.642,6.642,0,0,1,4.845,1.8,7.138,7.138,0,0,1,1.845,5.34V29h-4.68V20.48a4.207,4.207,0,0,0-.84-2.865,3.081,3.081,0,0,0-2.43-.945,3.724,3.724,0,0,0-2.82,1.095,4.534,4.534,0,0,0-1.05,3.255V29h-4.68V12.86h4.47v1.89a6.206,6.206,0,0,1,2.31-1.575A8.048,8.048,0,0,1,220.44,12.62Zm26.91,8.37q0,.09-.09,1.26H235.05a3.8,3.8,0,0,0,1.56,2.37,5.167,5.167,0,0,0,3.06.87,6.2,6.2,0,0,0,2.235-.375,5.413,5.413,0,0,0,1.815-1.185l2.49,2.7q-2.28,2.61-6.66,2.61a10.536,10.536,0,0,1-4.83-1.065,7.807,7.807,0,0,1-3.24-2.955,8.142,8.142,0,0,1-1.14-4.29,8.248,8.248,0,0,1,1.125-4.275,7.881,7.881,0,0,1,3.09-2.97,9.567,9.567,0,0,1,8.685-.045,7.445,7.445,0,0,1,3.015,2.925A8.722,8.722,0,0,1,247.35,20.99Zm-8.37-4.83a4.03,4.03,0,0,0-2.67.9,3.831,3.831,0,0,0-1.32,2.46h7.95a3.87,3.87,0,0,0-1.32-2.445A3.945,3.945,0,0,0,238.98,16.16ZM255.9,29.24a15.679,15.679,0,0,1-3.93-.495,10.268,10.268,0,0,1-3.06-1.245l1.56-3.36a9.818,9.818,0,0,0,2.61,1.125,10.939,10.939,0,0,0,3,.435q2.97,0,2.97-1.47a1.04,1.04,0,0,0-.81-.99,12,12,0,0,0-2.49-.51,24.021,24.021,0,0,1-3.27-.69,5.073,5.073,0,0,1-2.235-1.38,3.924,3.924,0,0,1-.945-2.82,4.418,4.418,0,0,1,.885-2.715,5.7,5.7,0,0,1,2.58-1.845,11.019,11.019,0,0,1,4-.66,15.718,15.718,0,0,1,3.4.375,9.518,9.518,0,0,1,2.805,1.035l-1.56,3.33a9.313,9.313,0,0,0-4.65-1.2,4.731,4.731,0,0,0-2.25.42,1.235,1.235,0,0,0-.75,1.08,1.072,1.072,0,0,0,.81,1.05,14.339,14.339,0,0,0,2.58.57,27.618,27.618,0,0,1,3.24.705,4.867,4.867,0,0,1,2.19,1.365,3.873,3.873,0,0,1,.93,2.76,4.262,4.262,0,0,1-.9,2.67,5.745,5.745,0,0,1-2.625,1.815A11.7,11.7,0,0,1,255.9,29.24Z" transform="translate(-5179.42 4986)" fill="#003876"/>
    <path id="Path_15699" data-name="Path 15699" d="M7.34-7,4.29,0H3.01L-.05-7H1.36L3.69-1.6,6.04-7Zm5.24,4.36q0,.13-.02.37H8.37a1.452,1.452,0,0,0,.575.935A1.885,1.885,0,0,0,10.1-.99a1.946,1.946,0,0,0,1.45-.58l.67.77a2.257,2.257,0,0,1-.91.65,3.315,3.315,0,0,1-1.24.22A3.3,3.3,0,0,1,8.52-.28a2.521,2.521,0,0,1-1.035-.975A2.753,2.753,0,0,1,7.12-2.67a2.794,2.794,0,0,1,.355-1.405A2.518,2.518,0,0,1,8.46-5.05,2.874,2.874,0,0,1,9.88-5.4a2.8,2.8,0,0,1,1.395.345,2.443,2.443,0,0,1,.96.97A2.941,2.941,0,0,1,12.58-2.64ZM9.88-4.4a1.508,1.508,0,0,0-1.015.355A1.493,1.493,0,0,0,8.36-3.1h3.03a1.474,1.474,0,0,0-.49-.94A1.49,1.49,0,0,0,9.88-4.4Zm5.09-.16a2.083,2.083,0,0,1,1.9-.84v1.19a1.587,1.587,0,0,0-.29-.03,1.51,1.51,0,0,0-1.14.425,1.7,1.7,0,0,0-.41,1.225V0H13.78V-5.34h1.19ZM19.6.07A4.781,4.781,0,0,1,18.33-.1a3.2,3.2,0,0,1-.99-.43l.48-.95a3.086,3.086,0,0,0,.865.385,3.594,3.594,0,0,0,1,.145q1.12,0,1.12-.59a.394.394,0,0,0-.285-.39,4.921,4.921,0,0,0-.915-.21,7.423,7.423,0,0,1-1.075-.23,1.65,1.65,0,0,1-.72-.455,1.271,1.271,0,0,1-.3-.905,1.423,1.423,0,0,1,.635-1.215A2.89,2.89,0,0,1,19.85-5.4a4.949,4.949,0,0,1,1.1.125,3.084,3.084,0,0,1,.9.335l-.48.95a2.961,2.961,0,0,0-1.53-.4A1.7,1.7,0,0,0,19-4.225a.492.492,0,0,0-.285.435.434.434,0,0,0,.305.425,4.847,4.847,0,0,0,.945.235,7.292,7.292,0,0,1,1.05.23,1.643,1.643,0,0,1,.7.44,1.227,1.227,0,0,1,.3.88,1.392,1.392,0,0,1-.65,1.2A3.065,3.065,0,0,1,19.6.07Zm3.5-5.41h1.25V0H23.1Zm.63-.88a.8.8,0,0,1-.57-.215.7.7,0,0,1-.23-.535.7.7,0,0,1,.23-.535.8.8,0,0,1,.57-.215.825.825,0,0,1,.57.2A.661.661,0,0,1,24.53-7a.754.754,0,0,1-.225.555A.779.779,0,0,1,23.73-6.22ZM28.39.07a3.03,3.03,0,0,1-1.46-.35,2.552,2.552,0,0,1-1.015-.975A2.753,2.753,0,0,1,25.55-2.67a2.727,2.727,0,0,1,.365-1.41,2.562,2.562,0,0,1,1.015-.97,3.03,3.03,0,0,1,1.46-.35,3.051,3.051,0,0,1,1.47.35,2.562,2.562,0,0,1,1.015.97,2.727,2.727,0,0,1,.365,1.41,2.753,2.753,0,0,1-.365,1.415A2.552,2.552,0,0,1,29.86-.28,3.051,3.051,0,0,1,28.39.07Zm0-1.07a1.527,1.527,0,0,0,1.14-.46,1.656,1.656,0,0,0,.45-1.21,1.656,1.656,0,0,0-.45-1.21,1.527,1.527,0,0,0-1.14-.46,1.511,1.511,0,0,0-1.135.46,1.667,1.667,0,0,0-.445,1.21,1.667,1.667,0,0,0,.445,1.21A1.511,1.511,0,0,0,28.39-1Zm.5-6.44h1.47L28.62-6.07H27.54ZM35.47-5.4a2.231,2.231,0,0,1,1.62.59,2.327,2.327,0,0,1,.61,1.75V0H36.45V-2.9a1.5,1.5,0,0,0-.33-1.055,1.22,1.22,0,0,0-.94-.355,1.443,1.443,0,0,0-1.09.415,1.654,1.654,0,0,0-.4,1.2V0H32.44V-5.34h1.19v.69a1.954,1.954,0,0,1,.78-.56A2.807,2.807,0,0,1,35.47-5.4ZM46.74-1.1V0H41.58V-.87l2.78-2.64a3.054,3.054,0,0,0,.635-.785,1.5,1.5,0,0,0,.165-.665.9.9,0,0,0-.33-.75,1.544,1.544,0,0,0-.97-.26,1.957,1.957,0,0,0-1.64.73l-.91-.7a2.7,2.7,0,0,1,1.1-.855,3.83,3.83,0,0,1,1.555-.3,2.845,2.845,0,0,1,1.82.54,1.777,1.777,0,0,1,.68,1.47,2.441,2.441,0,0,1-.24,1.07,4.176,4.176,0,0,1-.92,1.14L43.44-1.1ZM48.37.07a.8.8,0,0,1-.58-.235.8.8,0,0,1-.24-.6.8.8,0,0,1,.235-.6.8.8,0,0,1,.585-.23.8.8,0,0,1,.585.23.8.8,0,0,1,.235.6.8.8,0,0,1-.24.6A.8.8,0,0,1,48.37.07ZM52.83.1a2.71,2.71,0,0,1-1.5-.425,2.87,2.87,0,0,1-1.04-1.24A4.544,4.544,0,0,1,49.91-3.5a4.544,4.544,0,0,1,.38-1.935,2.87,2.87,0,0,1,1.04-1.24,2.71,2.71,0,0,1,1.5-.425,2.735,2.735,0,0,1,1.505.425,2.857,2.857,0,0,1,1.045,1.24A4.544,4.544,0,0,1,55.76-3.5a4.544,4.544,0,0,1-.38,1.935,2.857,2.857,0,0,1-1.045,1.24A2.735,2.735,0,0,1,52.83.1Zm0-1.13a1.373,1.373,0,0,0,1.185-.62A3.226,3.226,0,0,0,54.45-3.5a3.226,3.226,0,0,0-.435-1.85,1.373,1.373,0,0,0-1.185-.62,1.364,1.364,0,0,0-1.175.62A3.226,3.226,0,0,0,51.22-3.5a3.226,3.226,0,0,0,.435,1.85A1.364,1.364,0,0,0,52.83-1.03Z" transform="translate(-5175.95 5053)" fill="#003876"/>
  </g>
</svg>
