<?xml version="1.0" encoding="UTF-8"?>
<svg id="Capa_1" data-name="Capa 1" xmlns="http://www.w3.org/2000/svg" version="1.1" viewBox="0 0 253.7 61.5">
  <defs>
    <style>
      .cls-1 {
        fill: #ffc000;
      }

      .cls-1, .cls-2, .cls-3, .cls-4 {
        stroke-width: 0px;
      }

      .cls-2 {
        fill: #063d82;
      }

      .cls-3 {
        fill: #2684fa;
      }

      .cls-4 {
        fill: #7f7f7f;
      }
    </style>
  </defs>
  <g id="Layer_2" data-name="Layer 2">
    <g id="a">
      <path class="cls-3" d="M24.5-120c-3.1-5.2-1.4-12,3.8-15.1,3.5-2.1,7.8-2.1,11.3,0l10.2-10.1c-10.9-8.7-26.7-6.9-35.4,4-7.3,9.2-7.3,22.1,0,31.3l10.2-10.1h0Z"/>
      <path class="cls-1" d="M53.8-141.2l-10.2,10.1c3.1,5.2,1.4,12-3.8,15.1-3.5,2.1-7.9,2.1-11.4,0l-10.1,10.2c10.8,8.7,26.7,7,35.4-3.9,7.4-9.2,7.4-22.3,0-31.5h0Z"/>
      <path class="cls-1" d="M85.7-115.9c-5.2,3.1-12,1.4-15.1-3.8-2.1-3.5-2.1-7.8,0-11.3l-10.1-10.2c-8.6,10.9-6.8,26.7,4.1,35.4,9.2,7.3,22.1,7.3,31.3,0l-10.1-10.2h0Z"/>
      <path class="cls-2" d="M64.6-145.2l10.1,10.2c5.2-3.1,12-1.4,15.1,3.8,2.1,3.5,2.1,7.8,0,11.3l10.1,10.1c8.6-10.9,6.8-26.8-4.1-35.4-9.1-7.2-22.1-7.2-31.2,0h0Z"/>
      <path class="cls-3" d="M-9.5-150.6v14.4c4.8,1.3,8.2,5.7,8.1,10.7,0,5-3.4,9.4-8.2,10.7v14.3c12.7-1.4,22.3-12.2,22.4-25,0-12.8-9.6-23.6-22.3-25Z"/>
      <path class="cls-2" d="M123.7-114.7c-5.9-1.6-9.4-7.7-7.8-13.5,1-3.8,4-6.8,7.8-7.8v-14.4c-13.8,1.6-23.7,14.2-22,28,1.4,11.5,10.4,20.6,22,22v-14.3h0Z"/>
      <path class="cls-3" d="M18.6-153.8c0-4.4-3.5-8-7.9-8.1-4.4,0-8,3.5-8.1,7.9,0,4.4,3.5,8,7.9,8.1,0,0,0,0,0,0,4.4,0,8-3.5,8-7.9Z"/>
      <path class="cls-1" d="M65-153.8c0-4.4-3.5-8-7.9-8.1-4.4,0-8,3.5-8.1,7.9s3.5,8,7.9,8.1c0,0,0,0,0,0,4.4,0,8-3.5,8-7.9Z"/>
      <circle class="cls-2" cx="103.5" cy="-153.7" r="7.9"/>
      <path class="cls-4" d="M136.1-132.2v-17.4h6c1.3,0,2.5.2,3.7.7,1,.4,2,1.1,2.7,1.9.7.8,1.2,1.7,1.6,2.8.4,1.1.5,2.2.5,3.4,0,1.2-.2,2.4-.6,3.6-.4,1-.9,2-1.7,2.8-.8.8-1.7,1.4-2.7,1.8-1.1.4-2.3.6-3.5.6h-6ZM148.3-140.9c0-.9-.1-1.8-.4-2.7-.2-.8-.7-1.5-1.2-2.1-.6-.6-1.2-1.1-2-1.4-.8-.4-1.7-.5-2.6-.5h-3.8v13.5h3.8c.9,0,1.8-.2,2.7-.5.7-.3,1.4-.8,1.9-1.4.5-.6.9-1.4,1.2-2.1.3-.9.4-1.8.4-2.7h0Z"/>
      <path class="cls-4" d="M153.3-147.4v-2.7h2.1v2.7h-2.1ZM153.3-132.2v-12.8h2.1v12.8h-2.2,0Z"/>
      <path class="cls-4" d="M165.7-143.1c-1,0-2,.3-2.9.8-.8.5-1.4,1.3-1.8,2.2v7.9h-2.2v-12.8h2v3c.4-.8,1-1.6,1.7-2.1.7-.5,1.5-.8,2.3-.9h.5c0,0,.2,0,.3,0v2h0Z"/>
      <path class="cls-4" d="M173.2-131.9c-.9,0-1.8-.2-2.6-.5-.8-.3-1.5-.8-2.1-1.4-.6-.6-1-1.3-1.3-2.1-.3-.8-.5-1.7-.5-2.6,0-.9.2-1.7.5-2.5.3-.8.8-1.5,1.4-2.1,1.2-1.3,3-2,4.7-2,.9,0,1.8.2,2.6.5.8.3,1.4.8,2,1.4.6.6,1,1.3,1.3,2.1.3.8.5,1.6.4,2.5v.5c0,.1,0,.2,0,.3h-10.7c0,.6.2,1.2.5,1.7.2.5.6,1,1,1.4.4.4.8.7,1.3.9.9.4,1.8.4,2.7.2.4-.1.7-.2,1.1-.4.3-.2.6-.4.9-.7.2-.3.4-.6.6-.9l1.9.5c-.2.5-.5.9-.9,1.3-.4.4-.8.7-1.3,1-.5.3-1,.5-1.6.7-.6.2-1.2.2-1.8.2h0ZM177.6-139.4c0-.6-.2-1.2-.4-1.7-.2-.5-.6-.9-1-1.3-.4-.4-.8-.7-1.3-.9-1-.4-2.2-.4-3.2,0-.5.2-1,.5-1.3.9-.4.4-.7.8-.9,1.3-.2.5-.4,1.1-.4,1.7h8.7Z"/>
      <path class="cls-4" d="M181.2-138.6c0-.9.2-1.7.5-2.5.3-.8.7-1.5,1.3-2.1,1.2-1.3,2.9-2,4.7-1.9,1.2,0,2.3.3,3.3.9.9.5,1.6,1.3,2.1,2.3l-2.1.7c-.3-.6-.8-1.1-1.4-1.4-.6-.3-1.3-.5-2-.5-.6,0-1.1.1-1.7.4-.5.2-1,.6-1.4,1-.4.4-.7.9-.9,1.5-.2.6-.3,1.2-.3,1.9,0,.6.1,1.3.3,1.9.2.6.5,1.1.9,1.5.4.4.8.8,1.4,1,.5.2,1.1.4,1.7.4.4,0,.8,0,1.1-.2.3-.1.7-.2,1-.4.3-.2.6-.4.8-.6.2-.2.4-.5.5-.8l2.1.6c-.2.5-.4.9-.7,1.3-.4.4-.8.7-1.2,1-.5.3-1,.5-1.6.7-.6.2-1.2.2-1.8.2-1.8,0-3.5-.7-4.7-2-.6-.6-1-1.3-1.3-2.1-.3-.8-.5-1.7-.5-2.6h0Z"/>
      <path class="cls-4" d="M194.7-138.6c0-.9.2-1.7.5-2.5.3-.8.7-1.5,1.3-2.1,1.2-1.3,2.9-2,4.7-1.9,1.2,0,2.3.3,3.3.9.9.5,1.6,1.3,2.1,2.3l-2.1.7c-.3-.6-.8-1.1-1.4-1.4-.6-.3-1.3-.5-2-.5-.6,0-1.1.1-1.7.4-.5.2-1,.6-1.4,1-.4.4-.7.9-.9,1.5-.2.6-.3,1.2-.3,1.9,0,.6.1,1.3.3,1.9.2.6.5,1.1.9,1.5.4.4.8.8,1.4,1,.5.2,1.1.4,1.7.4.4,0,.8,0,1.1-.2.3-.1.7-.2,1-.4.3-.2.6-.4.8-.6.2-.2.4-.5.5-.8l2.1.6c-.2.5-.5.9-.8,1.3-.4.4-.8.7-1.2,1-.5.3-1,.5-1.6.7-.6.2-1.2.2-1.8.2-1.8,0-3.5-.7-4.7-2-.6-.6-1-1.3-1.3-2.1-.3-.8-.5-1.7-.5-2.6h0Z"/>
      <path class="cls-4" d="M209.2-147.3v-2.7h2.2v2.7h-2.2ZM209.2-132.1v-12.8h2.2v12.8h-2.2Z"/>
      <path class="cls-4" d="M220.4-131.9c-.9,0-1.8-.2-2.6-.5-.8-.3-1.4-.8-2-1.5-.6-.6-1-1.3-1.3-2.1-.3-.8-.5-1.7-.5-2.5,0-.9.2-1.7.5-2.5.3-.8.8-1.5,1.3-2.1.6-.6,1.2-1.1,2-1.5.8-.4,1.7-.6,2.6-.5.9,0,1.8.2,2.6.5.8.3,1.4.8,2,1.5.6.6,1.1,1.3,1.4,2.1.3.8.5,1.7.5,2.5,0,.9-.2,1.7-.5,2.5-.6,1.6-1.8,2.9-3.4,3.6-.8.4-1.7.6-2.6.5h0ZM216.2-138.5c0,.6,0,1.3.3,1.9.2.6.5,1.1.9,1.5.4.4.8.8,1.4,1,1.1.5,2.3.5,3.3,0,.5-.2,1-.6,1.4-1,.4-.4.7-1,.9-1.5.2-.6.3-1.2.3-1.9,0-.6-.1-1.3-.3-1.9-.2-.6-.5-1.1-.9-1.5-.4-.4-.8-.8-1.4-1-1.1-.5-2.3-.5-3.3,0-.5.2-1,.6-1.4,1-.4.4-.7,1-.9,1.5-.2.6-.3,1.2-.3,1.9h0ZM220.8-147.1l-1.4-.5,1.4-2.5h2.2l-2.2,3h0Z"/>
      <path class="cls-4" d="M240.6-132.1h-2.2v-7.2c0-1-.1-2.1-.6-3-.4-.6-1.1-1-1.9-.9-.5,0-.9,0-1.3.3-.4.2-.9.4-1.2.7-.4.3-.7.7-1,1-.3.4-.5.9-.7,1.4v7.7h-2.2v-12.8h2v2.8c.5-.9,1.3-1.7,2.2-2.2,1-.5,2-.8,3.1-.8.6,0,1.3.1,1.8.4.5.3.9.7,1.2,1.1.3.5.5,1.1.6,1.7.1.7.2,1.4.2,2.1v7.7h0Z"/>
      <path class="cls-4" d="M262.9-134.4c-1.3,1.6-3.3,2.5-5.3,2.5-1.1,0-2.2-.3-3.2-.8-1-.5-1.8-1.2-2.6-2-.7-.8-1.3-1.8-1.7-2.8-.4-1-.6-2.1-.6-3.3,0-1.1.2-2.3.6-3.4.4-1,1-2,1.7-2.8.7-.8,1.6-1.5,2.6-1.9,2.4-1.1,5.1-.9,7.4.4,1,.7,1.9,1.6,2.5,2.7l-1.7,1.2c-.4-.9-1.2-1.7-2-2.3-.9-.5-1.9-.8-2.9-.7-.8,0-1.7.2-2.4.6-.7.4-1.3.9-1.8,1.5-.5.7-.9,1.4-1.2,2.2-.3.8-.4,1.7-.4,2.6,0,.9.1,1.8.5,2.6.3.8.7,1.5,1.3,2.2.5.6,1.2,1.1,1.9,1.5.8.4,1.6.5,2.4.5,2,0,3.9-1.1,5.1-2.7v-2.4h-3.8v-1.7h5.6v8.7h-1.9v-2.4h0Z"/>
      <path class="cls-4" d="M273.4-131.8c-.9,0-1.8-.2-2.6-.5-.8-.3-1.5-.8-2.1-1.4-.6-.6-1-1.3-1.3-2.1-.3-.8-.5-1.7-.5-2.6,0-.9.2-1.7.5-2.5.3-.8.8-1.5,1.4-2.1,1.2-1.3,2.9-2,4.7-2,.9,0,1.8.2,2.6.5.8.3,1.4.8,2,1.4.6.6,1,1.3,1.3,2.1.3.8.5,1.6.5,2.5v.5c0,.1,0,.2,0,.3h-10.7c0,.6.2,1.2.4,1.7.2.5.6,1,1,1.4.4.4.8.7,1.3.9.9.4,1.8.4,2.7.2.4-.1.7-.2,1.1-.4.3-.2.6-.4.9-.7.2-.3.4-.6.6-.9l1.9.5c-.2.5-.5.9-.9,1.3-.4.4-.8.7-1.3,1-.5.3-1,.5-1.6.7-.6.2-1.2.2-1.8.2h0ZM277.8-139.3c0-.6-.2-1.2-.5-1.7-.2-.5-.6-.9-1-1.3-.4-.4-.8-.7-1.3-.9-1-.4-2.2-.4-3.2,0-.5.2-1,.5-1.3.9-.4.4-.7.8-.9,1.3-.2.5-.4,1.1-.4,1.7h8.7Z"/>
      <path class="cls-4" d="M293.4-132h-2.2v-7.2c0-1-.1-2.1-.6-3-.4-.6-1.1-1-1.9-.9-.5,0-.9,0-1.3.3-.4.2-.9.4-1.2.7-.4.3-.7.7-1,1-.3.4-.5.9-.7,1.4v7.7h-2.2v-12.8h2v2.8c.5-.9,1.3-1.7,2.2-2.2,1-.5,2-.8,3.1-.8.6,0,1.3.1,1.8.4.5.3.9.7,1.2,1.1.3.5.5,1.1.6,1.7.1.7.2,1.4.2,2.1v7.7h0Z"/>
      <path class="cls-4" d="M302.4-131.7c-.9,0-1.8-.2-2.6-.5-.8-.3-1.5-.8-2.1-1.4-.6-.6-1-1.3-1.3-2.1-.3-.8-.5-1.7-.5-2.6,0-.9.2-1.7.5-2.5.3-.8.8-1.5,1.4-2.1,1.2-1.3,3-2,4.8-2,.9,0,1.8.2,2.6.5.8.3,1.4.8,2,1.4.6.6,1,1.3,1.3,2.1.3.8.5,1.6.5,2.5v.5c0,.1,0,.2,0,.3h-10.7c0,.6.2,1.2.4,1.7.2.5.6,1,1,1.4.4.4.8.7,1.3.9.9.4,1.8.4,2.7.2.4-.1.7-.2,1.1-.4.3-.2.6-.4.9-.7.2-.3.4-.6.6-.9l1.9.5c-.2.5-.5.9-.9,1.3-.4.4-.8.7-1.3,1-.5.3-1,.5-1.6.7-.6.2-1.2.2-1.8.2h0ZM306.8-139.2c0-.6-.2-1.2-.5-1.7-.2-.5-.6-.9-1-1.3-.4-.4-.8-.7-1.3-.9-1-.4-2.2-.4-3.2,0-.5.2-1,.5-1.3.9-.4.4-.7.8-.9,1.3-.2.5-.4,1.1-.4,1.7h8.7Z"/>
      <path class="cls-4" d="M318-142.9c-1,0-2,.3-2.9.8-.8.5-1.4,1.3-1.8,2.2v7.9h-2.2v-12.8h2v3c.4-.8,1-1.6,1.7-2.1.7-.5,1.5-.8,2.3-.9h.4c0,0,.2,0,.3,0v2h0Z"/>
      <path class="cls-4" d="M323.5-131.7c-.6,0-1.2,0-1.7-.3-.5-.2-1-.5-1.4-.9-.4-.4-.7-.8-.9-1.3-.2-.5-.3-1-.3-1.6,0-.6.1-1.1.4-1.6.3-.5.7-.9,1.1-1.2.5-.4,1.1-.6,1.7-.8.7-.2,1.4-.3,2.2-.3.6,0,1.3,0,1.9.2.6,0,1.1.3,1.7.5v-1c.2-1.7-1.1-3.2-2.8-3.4-.2,0-.4,0-.6,0-1.5,0-2.9.6-4.1,1.5l-.7-1.4c1.5-1,3.2-1.6,5-1.7,1.4,0,2.9.4,3.9,1.4,1,1,1.5,2.4,1.4,3.8v5.2c0,.5.2.8.7.8v1.9h-.6c-.2,0-.3,0-.5,0-.4,0-.7-.1-1-.4-.2-.2-.4-.6-.5-.9v-.9c-.6.8-1.4,1.4-2.2,1.8-.9.4-1.8.6-2.8.6h0ZM324-133.3c.7,0,1.5-.1,2.1-.4.6-.2,1.1-.6,1.5-1.1.3-.3.5-.6.5-1v-1.9c-1-.4-2.1-.6-3.3-.6-.9,0-1.8.2-2.6.7-.6.4-1,1.1-1,1.8,0,.3,0,.7.2,1,.1.3.3.6.6.8.3.2.6.4.9.5.4.1.7.2,1.1.2h0Z"/>
      <path class="cls-4" d="M333.8-149.9h2.2v14.6c0,.4.1.8.4,1.1.3.3.7.4,1.1.4.2,0,.4,0,.6,0,.2,0,.5-.1.7-.2l.3,1.7c-.4.2-.8.3-1.3.4-.4,0-.9.1-1.4.1-1.4.1-2.6-.9-2.7-2.2,0-.1,0-.3,0-.5v-15.4h0Z"/>
      <path class="cls-4" d="M134.7-111.6c0-1.1.2-2.1.6-3.2.4-1,1-2,1.7-2.8.8-.8,1.7-1.5,2.7-2,1.1-.5,2.4-.8,3.6-.8,1.5,0,2.9.3,4.1,1.1,1.1.6,2,1.6,2.6,2.8l-2.6,1.8c-.2-.5-.5-.9-.8-1.2-.3-.3-.7-.6-1.1-.8-.4-.2-.8-.3-1.2-.4-.4,0-.8-.1-1.2-.1-.8,0-1.5.2-2.2.5-.6.3-1.1.8-1.5,1.3-.4.6-.8,1.2-1,1.9-.2.7-.3,1.4-.3,2.1,0,.8.1,1.5.4,2.2.2.7.6,1.3,1,1.9.4.5,1,1,1.6,1.3.6.3,1.4.5,2.1.5.4,0,.8,0,1.3-.2.4,0,.8-.3,1.2-.5.4-.2.8-.5,1.1-.8.3-.3.6-.8.8-1.2l2.8,1.6c-.3.6-.7,1.2-1.2,1.7-.5.5-1.1.9-1.7,1.3-1.3.7-2.8,1-4.2,1-1.2,0-2.4-.3-3.4-.8-1-.5-1.9-1.2-2.7-2-.7-.8-1.3-1.8-1.7-2.9-.4-1-.6-2.2-.6-3.3h0Z"/>
      <path class="cls-4" d="M158.2-102.5c-1,0-1.9-.2-2.8-.5-.8-.3-1.5-.8-2.1-1.5-.6-.6-1-1.3-1.3-2.1-.6-1.6-.6-3.4,0-5.1.6-1.6,1.9-2.9,3.5-3.6.9-.4,1.9-.6,2.8-.5,1,0,1.9.2,2.8.5,1.6.7,2.8,2,3.4,3.6.6,1.6.6,3.4,0,5.1-.3.8-.8,1.5-1.3,2.1-.6.6-1.3,1.1-2.1,1.5-.9.4-1.9.6-2.8.5h0ZM154.9-109.1c0,.5,0,1.1.3,1.6.2.4.4.9.7,1.2.3.3.7.6,1.1.8.4.2.9.3,1.3.3.5,0,.9,0,1.3-.3.4-.2.8-.5,1.1-.8.3-.4.6-.8.7-1.2.2-.5.3-1,.3-1.6,0-.5,0-1.1-.3-1.5-.2-.4-.4-.9-.7-1.2-.3-.3-.7-.6-1.1-.8-.4-.2-.9-.3-1.3-.3-.5,0-.9,0-1.3.3-.4.2-.8.5-1.1.8-.3.4-.6.8-.7,1.2-.2.5-.3,1-.3,1.5Z"/>
      <path class="cls-4" d="M179.1-102.7h-3.3v-7.2c0-.8-.1-1.6-.5-2.3-.4-.5-.9-.7-1.5-.7-.3,0-.7,0-1,.2-.4.1-.7.3-1,.5-.3.2-.6.5-.8.8-.2.3-.4.7-.5,1.1v7.5h-3.3v-12.9h3v2.4c.5-.8,1.2-1.5,2.1-1.9.9-.5,2-.7,3-.7.7,0,1.4.1,2,.4.5.3.9.7,1.2,1.2.3.5.5,1,.6,1.6.1.6.2,1.2.2,1.8v8h0Z"/>
      <path class="cls-4" d="M189.6-103.3c-.5.2-1.1.4-1.6.6-.6.2-1.3.3-2,.3-.4,0-.9,0-1.3-.2-.4-.1-.7-.3-1.1-.5-.3-.3-.6-.6-.7-1-.2-.5-.3-1-.3-1.5v-7.4h-1.7v-2.5h1.7v-4.2h3.3v4.2h2.7v2.5h-2.7v6.3c0,.4,0,.7.4,1,.2.2.6.3.9.3.3,0,.7,0,1-.2.3-.1.6-.2.8-.3l.7,2.6h0Z"/>
      <path class="cls-4" d="M199-112.7c-.9,0-1.8.2-2.7.6-.7.3-1.4.9-1.7,1.7v7.8h-3.3v-12.9h3v2.8c.2-.4.5-.8.8-1.2.3-.3.6-.7,1-.9.3-.2.7-.4,1.1-.6.3-.1.7-.2,1.1-.2h.4c0,0,.2,0,.3,0v3h0Z"/>
      <path class="cls-4" d="M204.1-102.4c-.6,0-1.2,0-1.7-.3-.5-.2-1-.5-1.4-.9-.4-.4-.7-.8-.9-1.3-.2-.5-.3-1.1-.3-1.6,0-.6.1-1.2.4-1.7.3-.5.7-1,1.1-1.3.5-.4,1.1-.7,1.7-.8.7-.2,1.5-.3,2.2-.3.6,0,1.1,0,1.7.2.5,0,1,.2,1.5.4v-.7c0-.7-.2-1.5-.7-2-.6-.5-1.4-.7-2.1-.7-.7,0-1.4.1-2,.4-.7.3-1.4.6-2,1.1l-1-2.1c1.6-1.1,3.4-1.6,5.4-1.6,1.6,0,3.1.4,4.3,1.4,1.1,1,1.6,2.5,1.5,3.9v4c0,.3,0,.5.2.7.2.2.4.3.6.2v2.8c-.5.1-1,.2-1.4.2-.5,0-1-.1-1.4-.4-.3-.3-.6-.7-.6-1.1v-.7c-.6.7-1.3,1.3-2.2,1.7-.8.4-1.7.6-2.6.6h0ZM205.1-104.8c.5,0,1.1,0,1.6-.3.4-.2.8-.4,1.2-.8.3-.2.5-.6.5-.9v-1.5c-.4-.2-.8-.3-1.3-.4-.4,0-.9-.1-1.3-.1-.7,0-1.5.2-2.1.6-.5.3-.8.8-.8,1.4,0,.5.2,1,.6,1.4.4.4,1,.6,1.6.5h0Z"/>
      <path class="cls-4" d="M222.3-103.3c-.5.2-1.1.4-1.6.6-.6.2-1.3.3-2,.3-.4,0-.9,0-1.3-.2-.4-.1-.7-.3-1.1-.5-.3-.3-.6-.6-.7-1-.2-.5-.3-1-.3-1.5v-7.4h-1.7v-2.5h1.7v-4.2h3.3v4.2h2.7v2.5h-2.7v6.3c0,.4,0,.7.4,1,.2.2.6.3.9.3.3,0,.7,0,1-.2.3-.1.6-.2.8-.3l.7,2.6h0Z"/>
      <path class="cls-4" d="M227.6-102.4c-.6,0-1.2,0-1.7-.3-.5-.2-1-.5-1.4-.9-.4-.3-.7-.8-.9-1.2-.2-.5-.3-1.1-.3-1.6,0-.6.1-1.2.4-1.7.3-.5.7-1,1.1-1.3.5-.4,1.1-.7,1.7-.8.7-.2,1.5-.3,2.2-.3.6,0,1.1,0,1.7.2.5,0,1,.2,1.5.4v-.8c0-.7-.2-1.5-.7-2-.6-.5-1.4-.7-2.1-.7-.7,0-1.4.1-2,.4-.7.3-1.4.6-2,1.1l-1-2.1c1.6-1.1,3.4-1.6,5.4-1.6,1.6,0,3.1.4,4.3,1.4,1.1,1,1.6,2.5,1.5,3.9v4c0,.3,0,.5.2.7.2.2.4.3.6.2v2.8c-.5.1-1,.2-1.4.2-.5,0-1-.1-1.4-.4-.3-.3-.6-.7-.6-1.1v-.7c-.6.7-1.3,1.3-2.2,1.7-.8.4-1.7.6-2.6.6h0ZM228.5-104.8c.5,0,1.1,0,1.6-.3.4-.2.8-.4,1.2-.8.3-.2.5-.6.5-.9v-1.5c-.4-.2-.8-.3-1.3-.4-.4,0-.9-.1-1.3-.1-.7,0-1.5.2-2.1.6-.5.3-.8.9-.8,1.5,0,.5.2,1,.6,1.4.4.4,1,.6,1.6.5Z"/>
      <path class="cls-4" d="M237.3-109c0-.9.2-1.7.5-2.5.3-.8.8-1.5,1.4-2.1.6-.6,1.3-1.1,2.1-1.5.9-.4,1.9-.6,2.8-.5,1.3,0,2.5.3,3.6.9,1,.6,1.7,1.4,2.2,2.4l-3.2,1c-.3-.5-.6-.8-1.1-1.1-.9-.5-1.9-.5-2.9,0-.4.2-.8.5-1.1.8-.3.4-.6.8-.7,1.2-.2.5-.3,1-.3,1.6,0,.5,0,1.1.3,1.6.2.4.4.9.7,1.2.3.3.7.6,1.1.8.4.2.9.3,1.3.3.6,0,1.1-.1,1.6-.4.4-.2.8-.6,1-1.1l3.2,1c-.5,1-1.2,1.8-2.2,2.4-1.1.6-2.4,1-3.7.9-1,0-1.9-.2-2.8-.5-1.6-.7-2.9-2-3.5-3.6-.3-.8-.5-1.7-.5-2.5h0Z"/>
      <path class="cls-4" d="M252-117.2v-3.3h3.3v3.3h-3.3ZM252-102.6v-12.9h3.3v12.9h-3.3Z"/>
      <path class="cls-4" d="M264.2-102.3c-1,0-1.9-.2-2.8-.5-.8-.3-1.5-.8-2.1-1.5-.6-.6-1-1.3-1.3-2.1-.6-1.6-.6-3.4,0-5.1.6-1.6,1.9-2.9,3.5-3.6.9-.4,1.9-.6,2.8-.5,1,0,1.9.2,2.8.5,1.6.7,2.9,2,3.5,3.6.6,1.6.6,3.4,0,5.1-.3.8-.8,1.5-1.3,2.1-.6.6-1.3,1.1-2.1,1.5-.9.4-1.9.6-2.8.5h0ZM260.8-109c0,.5,0,1.1.3,1.6.2.4.4.9.7,1.2.3.3.7.6,1.1.8.4.2.9.3,1.3.3.5,0,.9,0,1.3-.3.4-.2.8-.5,1.1-.8.3-.4.6-.8.7-1.2.2-.5.3-1,.3-1.6,0-.5,0-1.1-.3-1.5-.2-.4-.4-.9-.7-1.2-.3-.3-.7-.6-1.1-.8-.4-.2-.9-.3-1.3-.3-.5,0-.9,0-1.3.3-.4.2-.8.5-1.1.8-.3.4-.6.8-.7,1.2-.2.5-.3,1-.3,1.5Z"/>
      <path class="cls-4" d="M285.1-102.5h-3.3v-7.2c0-.8-.1-1.6-.5-2.3-.4-.5-.9-.7-1.5-.7-.3,0-.7,0-1,.2-.4.1-.7.3-1,.5-.3.2-.6.5-.8.8-.2.3-.4.7-.5,1.1v7.5h-3.3v-12.9h3v2.4c.5-.8,1.2-1.5,2.1-1.9.9-.5,2-.7,3-.7.7,0,1.4.1,2,.4.5.3.9.7,1.2,1.2.3.5.5,1,.6,1.6.1.6.2,1.2.2,1.8v8h0Z"/>
      <path class="cls-4" d="M293.9-102.3c-1,0-1.9-.2-2.8-.5-.8-.3-1.5-.8-2.1-1.4-1.2-1.2-1.9-2.9-1.8-4.6,0-.9.2-1.8.5-2.6.3-.8.8-1.5,1.4-2.1.6-.6,1.3-1.1,2.1-1.5.9-.4,1.9-.6,2.8-.5,1,0,1.9.2,2.8.5.8.3,1.5.8,2.1,1.5.6.6,1,1.3,1.3,2.1.3.8.5,1.6.5,2.5v.6c0,.2,0,.3,0,.5h-9.9c0,.5.2.9.4,1.3.2.4.4.7.8,1,.3.3.7.5,1,.6.4.1.8.2,1.2.2.6,0,1.3-.2,1.9-.5.5-.3,1-.7,1.2-1.3l2.8.8c-.5,1-1.3,1.8-2.3,2.4-1.1.7-2.4,1-3.7.9h0ZM297.3-110c0-.9-.4-1.7-1.1-2.3-.6-.6-1.4-.9-2.3-.9-.4,0-.8,0-1.2.2-.4.2-.7.4-1,.7-.6.6-1,1.4-1.1,2.3h6.7,0Z"/>
      <path class="cls-4" d="M307.5-102.3c-1.1,0-2.1-.2-3.2-.5-1-.3-1.9-.8-2.6-1.5l1.2-2.1c.7.5,1.5.9,2.3,1.3.7.3,1.5.4,2.2.4.5,0,1.1,0,1.5-.4.3-.2.6-.6.6-1,0-.4-.3-.8-.7-1-.7-.3-1.4-.6-2.2-.7-.8-.2-1.5-.5-2.1-.7-.5-.2-1-.4-1.4-.7-.3-.2-.6-.6-.8-.9-.2-.4-.3-.8-.2-1.3,0-.6.1-1.2.4-1.8.3-.5.6-1,1.1-1.3.5-.4,1-.7,1.6-.8.6-.2,1.3-.3,2-.3.9,0,1.8.1,2.7.4.9.3,1.6.7,2.3,1.3l-1.3,2c-.6-.4-1.2-.8-1.9-1.1-.6-.2-1.2-.3-1.8-.3-.5,0-1,0-1.4.3-.4.2-.6.7-.6,1.1,0,.4.2.8.6,1,.2.1.5.3.8.3.3.1.7.2,1.2.3.9.2,1.6.5,2.3.7.6.2,1.1.5,1.5.8.4.3.7.6.9,1,.2.4.3.9.3,1.4,0,1.2-.5,2.3-1.4,3-1.1.7-2.5,1.1-3.8,1h0Z"/>
      <path class="cls-4" d="M321.1-102.5v-17.4h7.4c.8,0,1.5.2,2.2.5.7.3,1.3.8,1.8,1.3.5.6.9,1.2,1.1,1.9.3.7.4,1.4.4,2.1,0,1.5-.5,2.9-1.5,4-.5.5-1.1,1-1.8,1.3-.7.3-1.4.5-2.2.5h-4.1v5.8h-3.4ZM324.5-111.3h3.9c.6,0,1.2-.3,1.6-.8.4-.6.7-1.3.6-2.1,0-.4,0-.8-.2-1.2-.1-.3-.3-.6-.5-.9-.2-.2-.5-.4-.8-.5-.3-.1-.6-.2-.9-.2h-3.8v5.6h0Z"/>
      <path class="cls-4" d="M340-102.2c-1.1,0-2.3-.4-3-1.3-.8-1.1-1.1-2.4-1-3.8v-8h3.3v7.3c0,2,.7,3,2.1,3,.7,0,1.3-.2,1.9-.6.6-.4,1.1-1,1.5-1.8v-8h3.3v9.1c0,.3,0,.5.2.7.2.2.4.3.6.2v2.8c-.3,0-.6.1-.8.1h-.6c-.5,0-1-.1-1.4-.4-.4-.3-.6-.7-.6-1.1v-1c-.6.9-1.4,1.5-2.3,2-.9.5-2,.7-3,.7h0ZM342.8-116.8l-2.1-.6,1.3-2.9h3.1l-2.3,3.6Z"/>
      <path class="cls-4" d="M358.5-102.2c-.9,0-1.8-.2-2.6-.7-.8-.4-1.4-1.1-1.8-1.8v2.2h-2.9v-17.9h3.3v7.3c.4-.8,1-1.4,1.8-1.8.8-.4,1.7-.7,2.6-.7.8,0,1.6.2,2.3.5.7.4,1.3.9,1.8,1.5.5.6.9,1.4,1.1,2.1.3.8.4,1.7.4,2.6,0,.9-.1,1.8-.5,2.6-.3.8-.7,1.5-1.3,2.1-.5.6-1.2,1.1-1.9,1.4-.7.3-1.6.5-2.4.5h0ZM357.6-105c.5,0,1,0,1.5-.3.4-.2.8-.5,1.1-.8.3-.4.6-.8.7-1.2.2-.5.3-1,.3-1.5,0-.5,0-1-.2-1.5-.2-.5-.4-.9-.7-1.2-.3-.4-.7-.6-1.1-.9-.4-.2-.9-.3-1.4-.3-.7,0-1.4.2-2,.7-.6.5-1,1.1-1.3,1.8v3.1c.1.3.3.6.5.9.2.3.5.5.8.7.3.2.6.3.9.4.3.1.7.2,1,.2h0Z"/>
      <path class="cls-4" d="M366.8-120.4h3.3v13.8c0,.4,0,.8.3,1.1.3.3.6.4,1,.4.2,0,.4,0,.6,0,.2,0,.5-.1.7-.2l.4,2.5c-.5.2-1,.4-1.5.5-.5.1-1.1.2-1.6.2-.9,0-1.7-.2-2.4-.8-.6-.6-.9-1.5-.8-2.3v-15h0Z"/>
      <path class="cls-4" d="M374.6-117.1v-3.3h3.3v3.3h-3.3ZM374.6-102.4v-12.9h3.3v12.9h-3.3Z"/>
      <path class="cls-4" d="M380-108.9c0-.9.2-1.7.5-2.5.3-.8.8-1.5,1.4-2.1.6-.6,1.3-1.1,2.1-1.5.9-.4,1.9-.6,2.8-.5,1.3,0,2.5.3,3.6.9,1,.6,1.7,1.4,2.2,2.4l-3.2,1c-.3-.5-.6-.8-1.1-1.1-.9-.5-1.9-.5-2.9,0-.4.2-.8.5-1.1.8-.3.4-.6.8-.7,1.2-.2.5-.3,1-.3,1.6,0,.5,0,1.1.3,1.6.2.4.4.9.7,1.2.3.3.7.6,1.1.8.4.2.9.3,1.3.3.6,0,1.1-.1,1.6-.4.4-.2.8-.6,1-1.1l3.2,1c-.5,1-1.2,1.8-2.2,2.4-1.1.6-2.4,1-3.7.9-1,0-1.9-.2-2.8-.5-.8-.3-1.5-.8-2.1-1.5-1.2-1.3-1.8-2.9-1.8-4.7h0Z"/>
      <path class="cls-4" d="M398.2-102.1c-.6,0-1.2,0-1.7-.3-.5-.2-1-.5-1.4-.9-.4-.4-.7-.8-.9-1.3-.2-.5-.3-1.1-.3-1.6,0-.6.1-1.2.4-1.7.3-.5.7-1,1.1-1.3.5-.4,1.1-.7,1.7-.8.7-.2,1.5-.3,2.2-.3.6,0,1.1,0,1.7.2.5,0,1,.2,1.5.4v-.7c0-.7-.2-1.5-.7-2-.6-.5-1.4-.7-2.1-.7-.7,0-1.4.1-2,.4-.7.3-1.4.6-2,1.1l-1.1-2c1.6-1.1,3.4-1.6,5.4-1.6,1.6,0,3.1.4,4.3,1.4,1.1,1,1.6,2.5,1.5,3.9v4c0,.3,0,.5.2.7.2.2.4.3.6.2v2.8c-.5.1-1,.2-1.5.2-.5,0-1-.1-1.4-.4-.3-.3-.6-.7-.6-1.1v-.7c-.6.7-1.3,1.3-2.2,1.7-.8.4-1.7.6-2.6.6h0ZM399.1-104.5c.5,0,1.1,0,1.6-.3.4-.2.8-.4,1.2-.8.3-.2.5-.6.5-.9v-1.5c-.4-.2-.8-.3-1.3-.4-.4,0-.9-.1-1.3-.1-.7,0-1.5.2-2.1.6-.5.3-.8.9-.8,1.5,0,.5.2,1,.6,1.4.4.4,1,.6,1.6.5h0Z"/>
      <path class="cls-4" d="M413.6-102.1c-1.1,0-2.1-.2-3.2-.5-1-.3-1.9-.8-2.6-1.5l1.2-2.1c.7.5,1.5.9,2.3,1.3.7.3,1.5.4,2.2.4.5,0,1.1,0,1.5-.4.3-.2.6-.6.6-1,0-.4-.3-.8-.7-1-.7-.3-1.4-.6-2.2-.7-.8-.2-1.5-.5-2.1-.7-.5-.2-1-.4-1.4-.7-.3-.2-.6-.6-.8-.9-.2-.4-.3-.8-.2-1.3,0-.6.1-1.2.4-1.8.3-.5.6-1,1.1-1.3.5-.4,1-.7,1.6-.8.6-.2,1.3-.3,2-.3.9,0,1.8.1,2.7.4.9.3,1.6.7,2.3,1.3l-1.3,2c-.6-.4-1.2-.8-1.9-1.1-.6-.2-1.2-.3-1.8-.3-.5,0-1,0-1.4.3-.4.2-.6.7-.6,1.1,0,.4.2.8.6,1,.2.1.5.3.8.3.3.1.7.2,1.2.3.9.2,1.6.5,2.3.7.6.2,1.1.5,1.5.8.4.3.7.6.9,1,.2.4.3.9.3,1.4,0,1.2-.5,2.3-1.4,3-1.1.8-2.5,1.2-3.8,1.1h0Z"/>
    </g>
  </g>
  <g>
    <path class="cls-2" d="M72.7,21.8h2.9v13h8v2.4h-10.8v-15.3h-.2Z"/>
    <path class="cls-2" d="M84.4,31.3c0-3.5,2.6-6,6.2-6s6.2,2.6,6.2,6-2.6,6-6.2,6-6.2-2.6-6.2-6ZM94,31.3c0-2.2-1.5-3.7-3.5-3.7s-3.5,1.5-3.5,3.7,1.5,3.7,3.5,3.7,3.5-1.5,3.5-3.7Z"/>
    <path class="cls-2" d="M111.2,25.5v9.9c0,4.2-2.2,6.2-6.4,6.2s-4.4-.5-5.7-1.6l1.3-2c1.1.9,2.7,1.5,4.4,1.5,2.6,0,3.7-1.1,3.7-3.5v-.5c-.9,1.1-2.4,1.6-3.8,1.6-3.3,0-5.8-2.2-5.8-5.7s2.6-5.7,5.8-5.7,3.1.5,4,1.6v-1.6h2.6v-.2ZM108.5,31c0-2-1.5-3.3-3.5-3.3s-3.7,1.3-3.7,3.3,1.5,3.3,3.7,3.3,3.5-1.3,3.5-3.3Z"/>
    <path class="cls-2" d="M113.8,31.3c0-3.5,2.6-6,6.2-6s6.2,2.6,6.2,6-2.6,6-6.2,6-6.2-2.6-6.2-6ZM123.5,31.3c0-2.2-1.5-3.7-3.5-3.7s-3.5,1.5-3.5,3.7,1.5,3.7,3.5,3.7,3.5-1.5,3.5-3.7Z"/>
    <path class="cls-2" d="M146.7,34.8v2.4h-11.5v-15.3h11.1v2.4h-8.4v4h7.5v2.4h-7.5v4.2h8.8Z"/>
    <path class="cls-2" d="M161.1,30.4v6.8h-2.7v-6.4c0-2-1.1-3.1-2.7-3.1s-3.3,1.1-3.3,3.5v5.8h-2.7v-11.7h2.6v1.5c.9-1.1,2.4-1.6,4-1.6,2.7,0,4.9,1.6,4.9,5.1v.2Z"/>
    <path class="cls-2" d="M171.7,36.6c-.7.5-1.6.7-2.6.7-2.6,0-4-1.3-4-4v-5.7h-2v-2.2h2v-2.7h2.7v2.7h3.1v2.2h-3.1v5.5c0,1.1.5,1.8,1.6,1.8s1.1,0,1.5-.5l.7,2v.2Z"/>
    <path class="cls-2" d="M173.5,21.8c0-.9.7-1.6,1.8-1.6s1.8.7,1.8,1.6-.7,1.6-1.8,1.6-1.8-.7-1.8-1.6ZM173.9,25.5h2.7v11.7h-2.7v-11.7Z"/>
    <path class="cls-2" d="M191.8,20.9v16.3h-2.6v-1.5c-.9,1.1-2.2,1.6-3.8,1.6-3.5,0-5.8-2.4-5.8-6s2.6-6,5.8-6,2.9.5,3.8,1.6v-6h2.7-.2ZM189,31.3c0-2.2-1.5-3.7-3.5-3.7s-3.5,1.5-3.5,3.7,1.5,3.7,3.5,3.7,3.5-1.5,3.5-3.7Z"/>
    <path class="cls-2" d="M205.1,30.2v6.9h-2.6v-1.5c-.7,1.1-2,1.6-3.7,1.6-2.7,0-4.4-1.5-4.4-3.5s1.3-3.5,4.9-3.5h3.1c0-1.8-.9-2.7-2.9-2.7s-2.7.4-3.5,1.1l-1.1-2c1.3-.9,3.1-1.5,4.9-1.5,3.3,0,5.3,1.6,5.3,4.9h-.2ZM202.4,33.5v-1.3h-2.7c-1.8,0-2.4.7-2.4,1.6s.9,1.6,2.2,1.6,2.6-.5,2.9-1.8v-.2Z"/>
    <path class="cls-2" d="M220.1,20.9v16.3h-2.6v-1.5c-.9,1.1-2.2,1.6-3.8,1.6-3.5,0-5.8-2.4-5.8-6s2.6-6,5.8-6,2.9.5,3.8,1.6v-6h2.7-.2ZM217.5,31.3c0-2.2-1.5-3.7-3.5-3.7s-3.5,1.5-3.5,3.7,1.5,3.7,3.5,3.7,3.5-1.5,3.5-3.7Z"/>
    <path class="cls-2" d="M242.7,33.7h-2.7v3.5h-2.7v-3.5h-8.4v-2l7.5-9.9h3.1l-7.1,9.5h4.9v-3.1h2.7v3.1h2.7s0,2.4,0,2.4Z"/>
  </g>
  <g>
    <path class="cls-2" d="M45,54.5c.7-.3,1.5-.6,2.2-1v-11.9h11.9c.4-.7.7-1.4,1-2.2h-15.1s0,15.1,0,15.1Z"/>
    <path class="cls-2" d="M49.6,52.1c1.6-1,3.1-2.2,4.5-3.6,1.4-1.4,2.6-2.9,3.6-4.5h-8.1v8.1Z"/>
    <path class="cls-2" d="M6.9,30.1c0,.7,0,1.5.2,2.2h24v24c.7,0,1.5.2,2.2.2v-26.4H6.9Z"/>
    <path class="cls-2" d="M60.1,18.5c-.3-.7-.6-1.5-1-2.2h-11.9V4.3c-.7-.4-1.4-.7-2.2-1v15.1h15.1Z"/>
    <path class="cls-2" d="M61.5,23.1c-.2-.7-.3-1.5-.6-2.2h-18.4V2.5c-.7-.2-1.5-.4-2.2-.6v21.2h21.2Z"/>
    <path class="cls-2" d="M62.1,27.7c0-.7,0-1.5-.2-2.2h-24V1.5c-.7,0-1.5-.2-2.2-.2v26.4h26.4Z"/>
    <path class="cls-2" d="M7.5,34.7c.2.7.3,1.5.6,2.2h18.4v18.4c.7.2,1.5.4,2.2.6v-21.2s-21.2,0-21.2,0Z"/>
    <path class="cls-2" d="M9,39.3c.3.7.6,1.5,1,2.2h11.9v11.9c.7.4,1.4.7,2.2,1v-15.1s-15.1,0-15.1,0Z"/>
    <path class="cls-2" d="M11.4,44c1,1.6,2.2,3.1,3.6,4.5,1.4,1.4,2.9,2.6,4.5,3.6v-8.1h-8.1Z"/>
    <path class="cls-2" d="M33.3,1.3c-.7,0-1.5,0-2.2.2v24H7.1c0,.7-.2,1.5-.2,2.2h26.4V1.3Z"/>
    <path class="cls-2" d="M24.1,3.3c-.7.3-1.5.6-2.2,1v11.9h-11.9c-.4.7-.7,1.4-1,2.2h15.1s0-15.1,0-15.1Z"/>
    <path class="cls-2" d="M19.5,5.8c-1.6,1-3.1,2.2-4.5,3.6-1.4,1.4-2.6,2.9-3.6,4.5h8.1s0-8.1,0-8.1Z"/>
    <path class="cls-2" d="M28.7,1.9c-.7.2-1.5.3-2.2.6v18.4H8.1c-.2.7-.4,1.5-.6,2.2h21.2V1.9Z"/>
    <path class="cls-2" d="M40.4,55.9c.7-.2,1.5-.3,2.2-.6v-18.4h18.4c.2-.7.4-1.5.6-2.2h-21.2s0,21.2,0,21.2Z"/>
    <path class="cls-2" d="M57.7,13.8c-1-1.6-2.2-3.1-3.6-4.5s-2.9-2.6-4.5-3.6v8.1h8.1Z"/>
    <path class="cls-2" d="M35.7,56.5c.7,0,1.5,0,2.2-.2v-24h24c0-.7.2-1.5.2-2.2h-26.4v26.4Z"/>
  </g>
</svg>