<?xml version="1.0" encoding="UTF-8"?>
<svg id="Capa_1" data-name="Capa 1" xmlns="http://www.w3.org/2000/svg" version="1.1" viewBox="0 0 2255 1283">
  <defs>
    <style>
      .cls-1 {
        fill: #fff;
        stroke-width: 0px;
  ***REMOVED***
    </style>
  </defs>
  <path class="cls-1" d="M774.6,459.9c0,56.2,32.2,128.2,77.4,201.5l3.5,1.3c21.8,31.9,50.5,67.6,67.3,67.6s120-164.9,120-164.9l83,99.8,152.2-226.1,31.6,48,4.4-180.9-153.5,119.1,74.2-5.4-109.6,170.2-99.5-118.1s-72.9,107.4-108.6,154.7c-38.8-60.9-67.3-121.3-67.3-168,0-146.8,124.4-265.9,277.6-265.9s277.9,119.1,277.9,265.9-272.8,431.4-272.8,431.4c0,0-68.5-66.7-143.1-162.9-7,12.3-36.6,40.4-43.9,51.2,95.1,123.8,188.2,232.4,188.2,232.4,0,0,346.7-363.1,346.7-550.7s-157.9-339.5-353.1-339.5-352.7,151.9-352.7,339.5Z"/>
  <path class="cls-1" d="M1238.5,944.3c81.5,21.5,118.4,61.6,93.2,101.1-25.3,39.5-104.8,66-200.8,66.6-95.7.6-177.2-24.6-205.6-63.8-28.4-39.2,5.7-79.6,85.6-102.3l-65.4-42.3c-124.7,35.4-177.5,98.5-133.3,159.5,44.2,60.9,171.2,100.4,320.5,99.5,149.4-.9,273.8-42.3,313.3-103.9,39.5-61.6-18.3-124.1-145.6-157.6l-61.9,43.2Z"/>
</svg>