<svg xmlns="http://www.w3.org/2000/svg" viewBox="0 0 428.36 61.52"><defs><style>.cls-1{fill:#2684fa;}.cls-2{fill:#ffc000;}.cls-3{fill:#063d82;}.cls-4{fill:#7f7f7f;}</style></defs><g id="Layer_2" data-name="Layer 2"><g id="a"><path class="cls-1" d="M34,41.77A11,11,0,0,1,49.1,26.71L59.26,16.58A25.19,25.19,0,0,0,23.82,51.92L34,41.79Z"/><path class="cls-2" d="M63.31,20.64,53.15,30.77A11,11,0,0,1,38,45.83L27.88,56A25.19,25.19,0,0,0,63.32,20.62Z"/><path class="cls-2" d="M95.25,45.92A11,11,0,0,1,80.19,30.81L70.06,20.65A25.19,25.19,0,0,0,105.4,56.08L95.27,45.92Z"/><path class="cls-3" d="M74.11,16.59,84.24,26.75A11,11,0,0,1,99.3,41.86L109.43,52A25.19,25.19,0,0,0,74.09,16.58Z"/><path class="cls-1" d="M.07,11.19l0,14.35A11,11,0,0,1,8.21,36.22,11,11,0,0,1,0,46.88L0,61.23a25.19,25.19,0,0,0,22.35-25A25.19,25.19,0,0,0,.07,11.19Z"/><path class="cls-3" d="M133.26,47.06a11.05,11.05,0,0,1,0-21.34l0-14.35a25.18,25.18,0,0,0-.07,50l0-14.35Z"/><path class="cls-1" d="M28.14,8a8,8,0,1,0-8,7.94A8,8,0,0,0,28.14,8Z"/><path class="cls-2" d="M74.54,8a8,8,0,1,0-8,7.94A8,8,0,0,0,74.54,8Z"/><circle class="cls-3" cx="112.99" cy="8.08" r="7.95"/><path class="cls-4" d="M145.6,29.58l0-17.43h6a9.31,9.31,0,0,1,3.67.7A7.57,7.57,0,0,1,158,14.72a7.87,7.87,0,0,1,1.58,2.76,10.68,10.68,0,0,1,.52,3.38,10.5,10.5,0,0,1-.59,3.6,7.65,7.65,0,0,1-1.7,2.75A7.54,7.54,0,0,1,155.11,29a9.2,9.2,0,0,1-3.47.62h-6Zm12.24-8.73a8.66,8.66,0,0,0-.4-2.71,5.85,5.85,0,0,0-1.2-2.13,5.64,5.64,0,0,0-2-1.39,6.43,6.43,0,0,0-2.63-.51h-3.83l0,13.5h3.83a6.38,6.38,0,0,0,2.66-.51,5.37,5.37,0,0,0,1.94-1.42,6.14,6.14,0,0,0,1.18-2.15,8.62,8.62,0,0,0,.41-2.69Z"/><path class="cls-4" d="M162.86,14.39v-2.7H165v2.7Zm0,15.22,0-12.81H165l0,12.82h-2.16Z"/><path class="cls-4" d="M175.27,18.7a5.57,5.57,0,0,0-2.86.83,4.26,4.26,0,0,0-1.76,2.18v7.9h-2.17l0-12.82h2v3a6.07,6.07,0,0,1,1.74-2.15,4.36,4.36,0,0,1,2.31-.92H175a.86.86,0,0,1,.29,0v2Z"/><path class="cls-4" d="M182.77,29.88a6.53,6.53,0,0,1-2.65-.53,6.17,6.17,0,0,1-2.06-1.44,6.5,6.5,0,0,1-1.33-2.13,6.94,6.94,0,0,1-.48-2.57,6.8,6.8,0,0,1,.48-2.55,6.57,6.57,0,0,1,1.35-2.11,6.44,6.44,0,0,1,4.73-1.95,6.49,6.49,0,0,1,2.64.54,6.19,6.19,0,0,1,2,1.44,6.56,6.56,0,0,1,1.29,2.09,6.75,6.75,0,0,1,.45,2.47c0,.18,0,.34,0,.49a1.37,1.37,0,0,1,0,.34H178.53A4.9,4.9,0,0,0,179,25.7a4.36,4.36,0,0,0,1,1.35,4.48,4.48,0,0,0,1.34.89,4.12,4.12,0,0,0,2.73.16,5.23,5.23,0,0,0,1.06-.43,3.57,3.57,0,0,0,.87-.66,2.8,2.8,0,0,0,.58-.88l1.87.52a4.63,4.63,0,0,1-.87,1.3,5.86,5.86,0,0,1-1.28,1,6.27,6.27,0,0,1-1.61.67,7,7,0,0,1-1.84.24Zm4.4-7.51a4.64,4.64,0,0,0-.45-1.68,4.44,4.44,0,0,0-1-1.32,4.31,4.31,0,0,0-1.34-.85,4.39,4.39,0,0,0-3.24,0,4.1,4.1,0,0,0-1.34.86,4.42,4.42,0,0,0-.94,1.31,4.78,4.78,0,0,0-.43,1.67h8.7Z"/><path class="cls-4" d="M190.76,23.21a7,7,0,0,1,.47-2.55,6.21,6.21,0,0,1,1.33-2.1,6.35,6.35,0,0,1,4.71-1.94,6.23,6.23,0,0,1,3.3.85,5.59,5.59,0,0,1,2.1,2.27l-2.11.66A3.45,3.45,0,0,0,199.19,19a4,4,0,0,0-2-.51,4.1,4.1,0,0,0-1.67.35,4.14,4.14,0,0,0-1.35,1,4.8,4.8,0,0,0-.9,1.5,5.21,5.21,0,0,0-.33,1.89,5.15,5.15,0,0,0,.34,1.89,5,5,0,0,0,.92,1.54,4.23,4.23,0,0,0,1.35,1,3.77,3.77,0,0,0,1.66.37,3.89,3.89,0,0,0,1.12-.16,4.58,4.58,0,0,0,1-.43,4.16,4.16,0,0,0,.8-.62,2.14,2.14,0,0,0,.49-.77l2.11.64A4.54,4.54,0,0,1,202,28a5,5,0,0,1-1.24,1,6.57,6.57,0,0,1-1.58.66,6.85,6.85,0,0,1-1.83.24,6.38,6.38,0,0,1-4.71-2,6.5,6.5,0,0,1-1.33-2.13,6.94,6.94,0,0,1-.48-2.57Z"/><path class="cls-4" d="M204.23,23.23a7,7,0,0,1,.47-2.55,6.21,6.21,0,0,1,1.33-2.1,6.35,6.35,0,0,1,4.71-1.94,6.23,6.23,0,0,1,3.3.85,5.59,5.59,0,0,1,2.1,2.27l-2.11.66A3.45,3.45,0,0,0,212.66,19a4,4,0,0,0-2-.51,4.1,4.1,0,0,0-1.67.35,4.14,4.14,0,0,0-1.35,1,4.8,4.8,0,0,0-.9,1.5,5.21,5.21,0,0,0-.33,1.89,5.15,5.15,0,0,0,.34,1.89,5,5,0,0,0,.92,1.54,4.23,4.23,0,0,0,1.35,1,3.77,3.77,0,0,0,1.66.37,3.89,3.89,0,0,0,1.12-.16,4.58,4.58,0,0,0,1-.43,4.16,4.16,0,0,0,.8-.62,2.14,2.14,0,0,0,.49-.77l2.11.64a4.54,4.54,0,0,1-.82,1.3,5,5,0,0,1-1.24,1,6.57,6.57,0,0,1-1.58.66,6.85,6.85,0,0,1-1.83.24,6.38,6.38,0,0,1-4.71-2,6.5,6.5,0,0,1-1.33-2.13,6.94,6.94,0,0,1-.48-2.57Z"/><path class="cls-4" d="M218.71,14.46v-2.7h2.16v2.7Zm0,15.22,0-12.81h2.16l0,12.82h-2.16Z"/><path class="cls-4" d="M229.93,29.94a6.29,6.29,0,0,1-2.64-.54,6.37,6.37,0,0,1-2-1.45,6.64,6.64,0,0,1-1.31-2.11,6.92,6.92,0,0,1-.46-2.53,6.8,6.8,0,0,1,.48-2.55,6.69,6.69,0,0,1,1.33-2.11,6.41,6.41,0,0,1,2-1.45,6.27,6.27,0,0,1,2.62-.54,6.38,6.38,0,0,1,2.63.54,6.3,6.3,0,0,1,2,1.45A6.66,6.66,0,0,1,236,20.76a6.8,6.8,0,0,1,.48,2.55,7,7,0,0,1-.47,2.53,6.41,6.41,0,0,1-3.38,3.56,6.29,6.29,0,0,1-2.64.54Zm-4.24-6.61A5.22,5.22,0,0,0,226,25.2a4.75,4.75,0,0,0,.91,1.5,4.2,4.2,0,0,0,1.35,1,3.91,3.91,0,0,0,3.32,0,4.09,4.09,0,0,0,1.36-1,4.76,4.76,0,0,0,.92-1.52,5.27,5.27,0,0,0,.33-1.88,5.19,5.19,0,0,0-.33-1.85,4.76,4.76,0,0,0-.92-1.52,4.5,4.5,0,0,0-1.36-1,3.86,3.86,0,0,0-3.32,0,4.26,4.26,0,0,0-1.35,1,4.92,4.92,0,0,0-.91,1.52,5.27,5.27,0,0,0-.33,1.88Zm4.63-8.59-1.42-.49,1.43-2.48h2.16l-2.16,3Z"/><path class="cls-4" d="M250.16,29.73H248V22.56a5.56,5.56,0,0,0-.61-3,2.17,2.17,0,0,0-1.9-.94,3.53,3.53,0,0,0-1.33.26,5,5,0,0,0-1.25.7,4.89,4.89,0,0,0-1,1.05,4.24,4.24,0,0,0-.66,1.35v7.73h-2.17l0-12.82h2v2.75a5.64,5.64,0,0,1,2.2-2.16,6.27,6.27,0,0,1,3.13-.81,3.77,3.77,0,0,1,1.84.41,3.2,3.2,0,0,1,1.18,1.13,5,5,0,0,1,.62,1.71,11.87,11.87,0,0,1,.18,2.14v7.66Z"/><path class="cls-4" d="M272.38,27.4a7,7,0,0,1-5.31,2.47,7,7,0,0,1-3.23-.77,8.52,8.52,0,0,1-2.56-2,9.45,9.45,0,0,1-1.7-2.84A8.86,8.86,0,0,1,259,21a9.14,9.14,0,0,1,.62-3.35,9.25,9.25,0,0,1,1.7-2.8,7.92,7.92,0,0,1,2.58-1.92,8.26,8.26,0,0,1,7.4.35A6.93,6.93,0,0,1,273.75,16l-1.7,1.18A5.27,5.27,0,0,0,270,14.91a5.84,5.84,0,0,0-2.92-.74,5.1,5.1,0,0,0-2.41.57,5.77,5.77,0,0,0-1.84,1.52,7.05,7.05,0,0,0-1.18,2.18A8,8,0,0,0,261.2,21a7.48,7.48,0,0,0,.46,2.64,7.19,7.19,0,0,0,1.27,2.19,6,6,0,0,0,1.91,1.49,5.42,5.42,0,0,0,2.41.54,6.6,6.6,0,0,0,5.13-2.74V22.72h-3.75V21.05h5.62v8.7h-1.88V27.39Z"/><path class="cls-4" d="M282.93,30a6.53,6.53,0,0,1-2.65-.53,6.17,6.17,0,0,1-2.06-1.44,6.5,6.5,0,0,1-1.33-2.13,6.94,6.94,0,0,1-.48-2.57,6.8,6.8,0,0,1,.48-2.55,6.57,6.57,0,0,1,1.35-2.11,6.44,6.44,0,0,1,4.73-2,6.29,6.29,0,0,1,2.64.54,6.19,6.19,0,0,1,2,1.44,6.39,6.39,0,0,1,1.29,2.09,6.93,6.93,0,0,1,.45,2.47c0,.18,0,.34,0,.49a1.37,1.37,0,0,1,0,.34H278.69a4.9,4.9,0,0,0,.44,1.73,4.36,4.36,0,0,0,1,1.35,4.48,4.48,0,0,0,1.34.89,4.12,4.12,0,0,0,2.73.16,5.23,5.23,0,0,0,1.06-.43,3.57,3.57,0,0,0,.87-.66,2.8,2.8,0,0,0,.58-.88l1.87.52a4.63,4.63,0,0,1-.87,1.3,5.86,5.86,0,0,1-1.28,1,6.27,6.27,0,0,1-1.61.67,7,7,0,0,1-1.84.24Zm4.4-7.51a4.64,4.64,0,0,0-.45-1.68,4.44,4.44,0,0,0-1-1.32,4.31,4.31,0,0,0-1.34-.85,4.39,4.39,0,0,0-3.24,0,4.1,4.1,0,0,0-1.34.86,4.42,4.42,0,0,0-.94,1.31,4.78,4.78,0,0,0-.43,1.67h8.7Z"/><path class="cls-4" d="M302.89,29.8h-2.16V22.63a5.56,5.56,0,0,0-.61-3,2.17,2.17,0,0,0-1.9-.94,3.53,3.53,0,0,0-1.33.26,5,5,0,0,0-1.25.7,4.89,4.89,0,0,0-1,1.05,4.24,4.24,0,0,0-.66,1.35v7.73h-2.17l0-12.82h2v2.75a5.64,5.64,0,0,1,2.2-2.16,6.27,6.27,0,0,1,3.13-.81,3.77,3.77,0,0,1,1.84.41,3.2,3.2,0,0,1,1.18,1.13,4.82,4.82,0,0,1,.62,1.71,11.87,11.87,0,0,1,.18,2.14v7.66Z"/><path class="cls-4" d="M311.93,30.06a6.53,6.53,0,0,1-2.65-.53,6.17,6.17,0,0,1-2.06-1.44A6.5,6.5,0,0,1,305.89,26a6.94,6.94,0,0,1-.48-2.57,6.8,6.8,0,0,1,.48-2.55,6.57,6.57,0,0,1,1.35-2.11A6.44,6.44,0,0,1,312,16.78a6.29,6.29,0,0,1,2.64.54,6.19,6.19,0,0,1,2,1.44,6.56,6.56,0,0,1,1.29,2.09,6.93,6.93,0,0,1,.45,2.47c0,.18,0,.34,0,.49a1.37,1.37,0,0,1,0,.34H307.69a4.9,4.9,0,0,0,.44,1.73,4.36,4.36,0,0,0,1,1.35,4.48,4.48,0,0,0,1.34.89,4.12,4.12,0,0,0,2.73.16,5.23,5.23,0,0,0,1.06-.43,3.57,3.57,0,0,0,.87-.66,2.8,2.8,0,0,0,.58-.88l1.87.52a4.63,4.63,0,0,1-.87,1.3,5.86,5.86,0,0,1-1.28,1,6.27,6.27,0,0,1-1.61.67,7,7,0,0,1-1.84.24Zm4.4-7.51a4.64,4.64,0,0,0-.45-1.68,4.44,4.44,0,0,0-1-1.32,4.31,4.31,0,0,0-1.34-.85,4.39,4.39,0,0,0-3.24,0,4.1,4.1,0,0,0-1.34.86,4.42,4.42,0,0,0-.94,1.31,4.78,4.78,0,0,0-.43,1.67h8.7Z"/><path class="cls-4" d="M327.55,18.91a5.57,5.57,0,0,0-2.86.83,4.26,4.26,0,0,0-1.76,2.18v7.91h-2.17l0-12.82h2v3a6.07,6.07,0,0,1,1.74-2.15,4.36,4.36,0,0,1,2.31-.92h.42a.86.86,0,0,1,.29,0v2Z"/><path class="cls-4" d="M333,30.08a4.46,4.46,0,0,1-1.69-.31,4.29,4.29,0,0,1-1.36-.85,4,4,0,0,1-.91-1.27,3.76,3.76,0,0,1-.33-1.58,3.33,3.33,0,0,1,.39-1.61,3.67,3.67,0,0,1,1.12-1.24,6,6,0,0,1,1.72-.81,7.49,7.49,0,0,1,2.17-.29,10.24,10.24,0,0,1,1.89.18,8.74,8.74,0,0,1,1.69.47v-1a3.09,3.09,0,0,0-3.38-3.37,7.25,7.25,0,0,0-4.08,1.49l-.71-1.4a8.9,8.9,0,0,1,5-1.66,5.42,5.42,0,0,1,3.94,1.36A5,5,0,0,1,339.82,22V27.2c0,.51.22.77.68.79v1.87l-.57.07a3.54,3.54,0,0,1-.47,0,1.38,1.38,0,0,1-1-.38,1.58,1.58,0,0,1-.45-.92l-.05-.91a5.53,5.53,0,0,1-2.17,1.75,6.69,6.69,0,0,1-2.81.6Zm.57-1.62a5.29,5.29,0,0,0,2.15-.43,3.6,3.6,0,0,0,1.51-1.14,1.37,1.37,0,0,0,.47-1V24a8.83,8.83,0,0,0-3.26-.62,4.7,4.7,0,0,0-2.64.68,2.07,2.07,0,0,0-1,1.79,2.44,2.44,0,0,0,.21,1,2.49,2.49,0,0,0,.59.81,2.76,2.76,0,0,0,.89.54,3.07,3.07,0,0,0,1.1.2Z"/><path class="cls-4" d="M343.35,11.93h2.16l0,14.61a1.58,1.58,0,0,0,.38,1.12,1.39,1.39,0,0,0,1.07.41,3.37,3.37,0,0,0,.64-.08,4.64,4.64,0,0,0,.69-.21l.34,1.74a7,7,0,0,1-1.28.37A6.57,6.57,0,0,1,346,30a2.48,2.48,0,0,1-2.69-2.7l0-15.39Z"/><path class="cls-4" d="M144.25,50.2a8.9,8.9,0,0,1,.58-3.15,8.51,8.51,0,0,1,1.69-2.78,8.61,8.61,0,0,1,2.7-2,8.3,8.3,0,0,1,3.63-.76A8,8,0,0,1,157,42.58a6.75,6.75,0,0,1,2.61,2.75L157,47.12a4.55,4.55,0,0,0-.83-1.24,4.17,4.17,0,0,0-1.06-.8,4.65,4.65,0,0,0-1.18-.43,5.6,5.6,0,0,0-1.2-.14,4.61,4.61,0,0,0-2.22.51A4.85,4.85,0,0,0,149,46.36a6.06,6.06,0,0,0-1,1.86,7.14,7.14,0,0,0-.32,2.07,6.63,6.63,0,0,0,.37,2.22,5.83,5.83,0,0,0,1,1.88,5.11,5.11,0,0,0,1.62,1.3,4.39,4.39,0,0,0,2.07.49A5.43,5.43,0,0,0,154,56a5,5,0,0,0,1.22-.46,4.84,4.84,0,0,0,1.07-.82,3.79,3.79,0,0,0,.79-1.21l2.77,1.6a5.41,5.41,0,0,1-1.19,1.73,7.73,7.73,0,0,1-1.74,1.26,9.4,9.4,0,0,1-4.24,1,7.47,7.47,0,0,1-3.41-.79,9,9,0,0,1-2.66-2,9.63,9.63,0,0,1-1.74-2.87,8.88,8.88,0,0,1-.62-3.28Z"/><path class="cls-4" d="M167.75,59.32a7,7,0,0,1-2.82-.54,6.42,6.42,0,0,1-2.12-1.46,6.18,6.18,0,0,1-1.33-2.13,7.17,7.17,0,0,1,0-5.08A6.31,6.31,0,0,1,165,46.53a7.09,7.09,0,0,1,2.82-.54,7,7,0,0,1,2.81.54A6.28,6.28,0,0,1,174,50.12a7.17,7.17,0,0,1,0,5.08,6.56,6.56,0,0,1-1.33,2.12,6.27,6.27,0,0,1-2.11,1.46,7.09,7.09,0,0,1-2.82.54Zm-3.35-6.66a4.33,4.33,0,0,0,.26,1.56,3.88,3.88,0,0,0,.71,1.22,3.23,3.23,0,0,0,1.07.8,3.11,3.11,0,0,0,1.33.28,3.14,3.14,0,0,0,1.33-.28,3.2,3.2,0,0,0,1.07-.8,3.71,3.71,0,0,0,.71-1.23,4.66,4.66,0,0,0,.26-1.57,4.35,4.35,0,0,0-.26-1.55,3.93,3.93,0,0,0-.71-1.23,3.23,3.23,0,0,0-1.07-.8,3.11,3.11,0,0,0-1.33-.28,3.15,3.15,0,0,0-1.33.29,3.41,3.41,0,0,0-1.07.81,3.71,3.71,0,0,0-.71,1.23A4.54,4.54,0,0,0,164.4,52.66Z"/><path class="cls-4" d="M188.65,59.1h-3.29V51.88a3.71,3.71,0,0,0-.53-2.26,1.76,1.76,0,0,0-1.5-.71,2.86,2.86,0,0,0-1,.19,3.61,3.61,0,0,0-1,.55,4.42,4.42,0,0,0-.82.85,3.22,3.22,0,0,0-.54,1.08v7.51h-3.3l0-12.87h3v2.39a4.77,4.77,0,0,1,2.06-1.91,6.47,6.47,0,0,1,3-.68,3.9,3.9,0,0,1,2,.44,3.26,3.26,0,0,1,1.18,1.15,4.73,4.73,0,0,1,.57,1.62,10.32,10.32,0,0,1,.16,1.84v8Z"/><path class="cls-4" d="M199.1,58.45a14.39,14.39,0,0,1-1.62.59,6.69,6.69,0,0,1-2,.29,4.85,4.85,0,0,1-1.29-.17,2.78,2.78,0,0,1-1.05-.55,2.69,2.69,0,0,1-.72-1,3.56,3.56,0,0,1-.27-1.46V48.78h-1.68V46.25h1.7V42.08h3.3v4.18h2.69v2.53h-2.7v6.28a1.16,1.16,0,0,0,.35,1,1.35,1.35,0,0,0,.87.28,3.2,3.2,0,0,0,1-.17c.33-.11.59-.21.79-.29l.66,2.6Z"/><path class="cls-4" d="M208.5,49.11a6.71,6.71,0,0,0-2.68.57,3.38,3.38,0,0,0-1.7,1.65v7.78h-3.3l0-12.87h3V49a5.94,5.94,0,0,1,.81-1.19,6.23,6.23,0,0,1,1-.92,4.92,4.92,0,0,1,1.09-.6,3,3,0,0,1,1.07-.21h.41a.74.74,0,0,1,.26,0v3Z"/><path class="cls-4" d="M213.66,59.38a4.76,4.76,0,0,1-1.74-.31,4.23,4.23,0,0,1-1.4-.86,4.06,4.06,0,0,1-.92-1.29,3.91,3.91,0,0,1-.33-1.62,3.54,3.54,0,0,1,.41-1.68,3.93,3.93,0,0,1,1.13-1.31,5.7,5.7,0,0,1,1.73-.85,7.72,7.72,0,0,1,2.21-.3,9.37,9.37,0,0,1,1.68.15,7,7,0,0,1,1.46.42V51a2.57,2.57,0,0,0-.72-2,3,3,0,0,0-2.15-.69,5.55,5.55,0,0,0-2,.37,8.87,8.87,0,0,0-2,1.08l-1-2.09a9.54,9.54,0,0,1,5.35-1.64,6.28,6.28,0,0,1,4.31,1.37,5,5,0,0,1,1.53,3.94v4a1.2,1.2,0,0,0,.18.74.8.8,0,0,0,.6.25v2.8a7.7,7.7,0,0,1-1.45.17,2.21,2.21,0,0,1-1.44-.42,1.77,1.77,0,0,1-.62-1.11l-.07-.71a5.77,5.77,0,0,1-2.09,1.72,6,6,0,0,1-2.63.59Zm.94-2.4a4.39,4.39,0,0,0,1.58-.29,3,3,0,0,0,1.17-.78,1.18,1.18,0,0,0,.54-.93V53.51a7.85,7.85,0,0,0-1.27-.36A6.9,6.9,0,0,0,215.3,53a3.56,3.56,0,0,0-2.09.57A1.72,1.72,0,0,0,212.4,55a1.75,1.75,0,0,0,.64,1.39,2.31,2.31,0,0,0,1.57.55Z"/><path class="cls-4" d="M231.85,58.5a14.39,14.39,0,0,1-1.62.59,6.69,6.69,0,0,1-2,.29,4.85,4.85,0,0,1-1.29-.17,2.78,2.78,0,0,1-1.05-.55,2.69,2.69,0,0,1-.72-1,3.56,3.56,0,0,1-.27-1.46V48.83h-1.68V46.3h1.7V42.13h3.3v4.18h2.69v2.53h-2.7v6.28a1.16,1.16,0,0,0,.35,1,1.35,1.35,0,0,0,.87.28,3.2,3.2,0,0,0,1-.17c.33-.11.59-.21.79-.29l.66,2.6Z"/><path class="cls-4" d="M237.08,59.41a4.76,4.76,0,0,1-1.74-.31,4.23,4.23,0,0,1-1.4-.86A4.06,4.06,0,0,1,233,57a3.91,3.91,0,0,1-.33-1.62,3.54,3.54,0,0,1,.41-1.68,3.93,3.93,0,0,1,1.13-1.31,5.7,5.7,0,0,1,1.73-.85,7.72,7.72,0,0,1,2.21-.3,9.37,9.37,0,0,1,1.68.15,7,7,0,0,1,1.46.42V51a2.57,2.57,0,0,0-.72-2,3,3,0,0,0-2.15-.69,5.55,5.55,0,0,0-2,.37,8.87,8.87,0,0,0-2,1.08l-1-2.09a9.54,9.54,0,0,1,5.35-1.64,6.28,6.28,0,0,1,4.31,1.37,5,5,0,0,1,1.53,3.94v4a1.2,1.2,0,0,0,.18.74.8.8,0,0,0,.6.25v2.8a7.7,7.7,0,0,1-1.45.17,2.21,2.21,0,0,1-1.44-.42,1.77,1.77,0,0,1-.62-1.11l-.07-.71a5.77,5.77,0,0,1-2.09,1.72,6,6,0,0,1-2.63.59ZM238,57a4.39,4.39,0,0,0,1.58-.29,3,3,0,0,0,1.17-.78,1.18,1.18,0,0,0,.54-.93V53.54a7.85,7.85,0,0,0-1.27-.36,6.9,6.9,0,0,0-1.32-.14,3.56,3.56,0,0,0-2.09.57,1.72,1.72,0,0,0-.81,1.46,1.75,1.75,0,0,0,.64,1.39A2.31,2.31,0,0,0,238,57Z"/><path class="cls-4" d="M246.86,52.75a7,7,0,0,1,.47-2.55,6.25,6.25,0,0,1,1.35-2.11,6.63,6.63,0,0,1,2.14-1.45,7.09,7.09,0,0,1,2.82-.54,6.79,6.79,0,0,1,3.59.91,5.83,5.83,0,0,1,2.22,2.38l-3.22,1a3,3,0,0,0-1.1-1.09,3.26,3.26,0,0,0-2.85-.1,3.32,3.32,0,0,0-1.07.78,3.72,3.72,0,0,0-.71,1.21,4.66,4.66,0,0,0-.26,1.57,4.38,4.38,0,0,0,.27,1.57,4.15,4.15,0,0,0,.72,1.23,3.23,3.23,0,0,0,1.07.8,3,3,0,0,0,1.3.28,3.19,3.19,0,0,0,1.63-.44,2.39,2.39,0,0,0,1-1.08l3.22,1a5.36,5.36,0,0,1-2.19,2.4,6.89,6.89,0,0,1-3.66.93,7,7,0,0,1-2.82-.54,6.38,6.38,0,0,1-3.49-3.6,6.66,6.66,0,0,1-.47-2.54Z"/><path class="cls-4" d="M261.53,44.54V41.28h3.29v3.27h-3.29Zm0,14.65,0-12.86h3.29l0,12.87h-3.29Z"/><path class="cls-4" d="M273.71,59.46a7,7,0,0,1-2.82-.54,6.42,6.42,0,0,1-2.12-1.46,6.18,6.18,0,0,1-1.33-2.13,7.17,7.17,0,0,1,0-5.08,6.31,6.31,0,0,1,3.47-3.58,7.09,7.09,0,0,1,2.82-.54,7,7,0,0,1,2.81.54A6.28,6.28,0,0,1,280,50.26a7.17,7.17,0,0,1,0,5.08,6.56,6.56,0,0,1-1.33,2.12,6.27,6.27,0,0,1-2.11,1.46,7.06,7.06,0,0,1-2.82.54Zm-3.35-6.66a4.33,4.33,0,0,0,.26,1.56,3.88,3.88,0,0,0,.71,1.22,3.23,3.23,0,0,0,1.07.8,3.11,3.11,0,0,0,1.33.28,3.14,3.14,0,0,0,1.33-.28,3.1,3.1,0,0,0,1.07-.8,3.71,3.71,0,0,0,.71-1.23,4.62,4.62,0,0,0,.26-1.57,4.35,4.35,0,0,0-.26-1.55,3.93,3.93,0,0,0-.71-1.23,3.23,3.23,0,0,0-1.07-.8,3.11,3.11,0,0,0-1.33-.28,3.15,3.15,0,0,0-1.33.29,3.41,3.41,0,0,0-1.07.81,3.71,3.71,0,0,0-.71,1.23A4.54,4.54,0,0,0,270.36,52.8Z"/><path class="cls-4" d="M294.6,59.25h-3.29V52a3.71,3.71,0,0,0-.53-2.26,1.76,1.76,0,0,0-1.5-.71,2.86,2.86,0,0,0-1,.19,3.61,3.61,0,0,0-1,.55,4.42,4.42,0,0,0-.82.85,3.22,3.22,0,0,0-.54,1.08v7.51h-3.3l0-12.87h3v2.39a4.77,4.77,0,0,1,2.06-1.91,6.47,6.47,0,0,1,3-.68,3.9,3.9,0,0,1,2,.44,3.26,3.26,0,0,1,1.18,1.15,4.73,4.73,0,0,1,.57,1.62,10.32,10.32,0,0,1,.16,1.84v8Z"/><path class="cls-4" d="M303.44,59.5a7.2,7.2,0,0,1-2.8-.53,6.26,6.26,0,0,1-2.13-1.44,6.58,6.58,0,0,1-1.83-4.64,7.17,7.17,0,0,1,.47-2.59,6.23,6.23,0,0,1,1.35-2.13,6.55,6.55,0,0,1,2.15-1.46,7.15,7.15,0,0,1,2.84-.54,7,7,0,0,1,2.81.54,6.35,6.35,0,0,1,2.11,1.45,6.17,6.17,0,0,1,1.32,2.11,7.09,7.09,0,0,1,.45,2.5c0,.21,0,.42,0,.61a2.11,2.11,0,0,1-.06.49h-9.94a3.85,3.85,0,0,0,.37,1.34,3.49,3.49,0,0,0,.76,1,3.33,3.33,0,0,0,1.05.64,3.39,3.39,0,0,0,1.23.22,3.78,3.78,0,0,0,1.85-.48,2.54,2.54,0,0,0,1.19-1.26l2.82.79a5.7,5.7,0,0,1-2.27,2.41,7,7,0,0,1-3.72.94Zm3.35-7.75a3.44,3.44,0,0,0-1.06-2.32,3.25,3.25,0,0,0-2.29-.87,3.37,3.37,0,0,0-1.24.23,3.29,3.29,0,0,0-1,.65,3.45,3.45,0,0,0-1.06,2.31h6.67Z"/><path class="cls-4" d="M317,59.52a9.8,9.8,0,0,1-3.17-.52,7.68,7.68,0,0,1-2.65-1.48l1.23-2.06a10.56,10.56,0,0,0,2.29,1.27,6,6,0,0,0,2.22.43,2.8,2.8,0,0,0,1.55-.37,1.21,1.21,0,0,0,.57-1,1.06,1.06,0,0,0-.66-1,14.6,14.6,0,0,0-2.16-.74c-.83-.23-1.55-.45-2.13-.67a5.35,5.35,0,0,1-1.42-.73,2.43,2.43,0,0,1-.78-.93,3,3,0,0,1-.24-1.26,4.1,4.1,0,0,1,.38-1.77,3.85,3.85,0,0,1,1.07-1.34,4.75,4.75,0,0,1,1.61-.84,6.4,6.4,0,0,1,2-.29,8.5,8.5,0,0,1,2.71.42,6.75,6.75,0,0,1,2.32,1.35l-1.33,2a7.73,7.73,0,0,0-1.9-1.08,5.16,5.16,0,0,0-1.83-.35,2.64,2.64,0,0,0-1.4.34,1.21,1.21,0,0,0-.57,1.1,1,1,0,0,0,.56,1,3.55,3.55,0,0,0,.77.33c.32.11.72.22,1.19.33.88.23,1.64.46,2.27.69a6,6,0,0,1,1.55.79,2.8,2.8,0,0,1,.88,1,3.13,3.13,0,0,1,.28,1.39,3.59,3.59,0,0,1-1.4,3A6,6,0,0,1,317,59.51Z"/><path class="cls-4" d="M330.59,59.3l0-17.43H338a5,5,0,0,1,2.22.52A5.76,5.76,0,0,1,342,43.72a6.29,6.29,0,0,1,1.15,1.87,5.41,5.41,0,0,1,.41,2.1,6.13,6.13,0,0,1-1.51,4A5.55,5.55,0,0,1,340.3,53a4.94,4.94,0,0,1-2.21.49H334v5.84h-3.4Zm3.4-8.81h3.93a2,2,0,0,0,1.56-.75,3.13,3.13,0,0,0,.63-2.06,3.42,3.42,0,0,0-.19-1.19,3,3,0,0,0-.51-.9,1.92,1.92,0,0,0-.75-.55,2.26,2.26,0,0,0-.87-.18H334V50.5Z"/><path class="cls-4" d="M349.5,59.57a3.66,3.66,0,0,1-3-1.28,5.9,5.9,0,0,1-1-3.78v-8h3.3v7.35c0,2,.7,3,2.12,3a3.37,3.37,0,0,0,1.85-.57,4.07,4.07,0,0,0,1.46-1.75v-8h3.3v9.09a1.14,1.14,0,0,0,.17.74.8.8,0,0,0,.6.25v2.8a5.32,5.32,0,0,1-.83.12c-.22,0-.42,0-.6,0a2.39,2.39,0,0,1-1.44-.41,1.6,1.6,0,0,1-.65-1.12l-.07-1a5.56,5.56,0,0,1-2.21,2,6.54,6.54,0,0,1-3,.66ZM352.32,45l-2.11-.64,1.33-2.92h3.07Z"/><path class="cls-4" d="M368.06,59.59a5.12,5.12,0,0,1-2.63-.67,4.79,4.79,0,0,1-1.81-1.82v2.23h-2.88l0-17.93h3.29v7.32a4.94,4.94,0,0,1,1.8-1.83,5.14,5.14,0,0,1,2.62-.65,4.83,4.83,0,0,1,2.28.54,5.66,5.66,0,0,1,1.78,1.45,6.57,6.57,0,0,1,1.15,2.14,8.19,8.19,0,0,1,.4,2.58,7.15,7.15,0,0,1-.46,2.6,6.56,6.56,0,0,1-1.27,2.1,5.83,5.83,0,0,1-1.92,1.41,5.62,5.62,0,0,1-2.38.51Zm-.9-2.8a3.34,3.34,0,0,0,1.45-.31,3.46,3.46,0,0,0,1.13-.82,3.82,3.82,0,0,0,.73-1.2,4.21,4.21,0,0,0,.26-1.47,4.71,4.71,0,0,0-.24-1.5,3.92,3.92,0,0,0-.7-1.25,3.42,3.42,0,0,0-1.07-.86,2.92,2.92,0,0,0-1.35-.32,3,3,0,0,0-2,.72,4.82,4.82,0,0,0-1.34,1.78v3.07a2.65,2.65,0,0,0,.5.88,3.72,3.72,0,0,0,.75.68,3.33,3.33,0,0,0,.91.44,3,3,0,0,0,1,.16Z"/><path class="cls-4" d="M376.3,41.44h3.29l0,13.8a1.61,1.61,0,0,0,.34,1.1,1.24,1.24,0,0,0,1,.39,2.29,2.29,0,0,0,.65-.1,5,5,0,0,0,.68-.24l.44,2.51a6.28,6.28,0,0,1-1.55.49,8.82,8.82,0,0,1-1.6.17,3.28,3.28,0,0,1-2.39-.83,3.1,3.1,0,0,1-.84-2.35l0-15Z"/><path class="cls-4" d="M384.11,44.71V41.45h3.29v3.27h-3.29Zm0,14.65,0-12.86h3.29l0,12.87h-3.29Z"/><path class="cls-4" d="M389.55,52.94a7,7,0,0,1,.47-2.55,6.25,6.25,0,0,1,1.35-2.11,6.63,6.63,0,0,1,2.14-1.45,7.09,7.09,0,0,1,2.82-.54,6.79,6.79,0,0,1,3.59.91,5.83,5.83,0,0,1,2.22,2.38l-3.22,1a3,3,0,0,0-1.1-1.09,3.26,3.26,0,0,0-2.85-.1,3.32,3.32,0,0,0-1.07.78,3.72,3.72,0,0,0-.71,1.21,4.66,4.66,0,0,0-.26,1.57,4.38,4.38,0,0,0,.27,1.57,4.15,4.15,0,0,0,.72,1.23,3.23,3.23,0,0,0,1.07.8,3,3,0,0,0,1.3.28,3.19,3.19,0,0,0,1.63-.44,2.39,2.39,0,0,0,1-1.08l3.22,1a5.36,5.36,0,0,1-2.19,2.4,6.89,6.89,0,0,1-3.66.93,7,7,0,0,1-2.82-.54,6.46,6.46,0,0,1-2.13-1.46,6.72,6.72,0,0,1-1.83-4.68Z"/><path class="cls-4" d="M407.7,59.65a4.76,4.76,0,0,1-1.74-.31,4.23,4.23,0,0,1-1.4-.86,4.06,4.06,0,0,1-.92-1.29,3.91,3.91,0,0,1-.33-1.62,3.54,3.54,0,0,1,.41-1.68,3.93,3.93,0,0,1,1.13-1.31,5.7,5.7,0,0,1,1.73-.85,7.72,7.72,0,0,1,2.21-.3,9.37,9.37,0,0,1,1.68.15,7,7,0,0,1,1.46.42v-.74a2.57,2.57,0,0,0-.72-2,3,3,0,0,0-2.15-.69,5.55,5.55,0,0,0-2,.37,8.87,8.87,0,0,0-2,1.08L404,48a9.54,9.54,0,0,1,5.35-1.64,6.28,6.28,0,0,1,4.31,1.37,5,5,0,0,1,1.53,3.94v4a1.2,1.2,0,0,0,.18.74.8.8,0,0,0,.6.25v2.8a7.7,7.7,0,0,1-1.45.17,2.21,2.21,0,0,1-1.44-.42,1.77,1.77,0,0,1-.62-1.11l-.07-.71a5.77,5.77,0,0,1-2.09,1.72,6,6,0,0,1-2.63.59Zm.94-2.4a4.39,4.39,0,0,0,1.58-.29,3,3,0,0,0,1.17-.78,1.18,1.18,0,0,0,.54-.93V53.78a7.85,7.85,0,0,0-1.27-.36,6.9,6.9,0,0,0-1.32-.14,3.56,3.56,0,0,0-2.09.57,1.72,1.72,0,0,0-.81,1.46,1.75,1.75,0,0,0,.64,1.39,2.31,2.31,0,0,0,1.57.55Z"/><path class="cls-4" d="M423.15,59.67a9.8,9.8,0,0,1-3.17-.52,7.68,7.68,0,0,1-2.65-1.48l1.23-2.06a10.56,10.56,0,0,0,2.29,1.27,6,6,0,0,0,2.22.43,2.8,2.8,0,0,0,1.55-.37,1.2,1.2,0,0,0,.57-1,1.06,1.06,0,0,0-.66-1,14.6,14.6,0,0,0-2.16-.74c-.83-.23-1.55-.45-2.13-.67a5.35,5.35,0,0,1-1.42-.73,2.43,2.43,0,0,1-.78-.93,3,3,0,0,1-.24-1.26,4.1,4.1,0,0,1,.38-1.77,3.85,3.85,0,0,1,1.07-1.34,4.75,4.75,0,0,1,1.61-.84,6.4,6.4,0,0,1,2-.29,8.5,8.5,0,0,1,2.71.42,6.75,6.75,0,0,1,2.32,1.35l-1.33,2a7.73,7.73,0,0,0-1.9-1.08,5.16,5.16,0,0,0-1.83-.35,2.64,2.64,0,0,0-1.4.34,1.21,1.21,0,0,0-.57,1.1,1,1,0,0,0,.56,1,3.55,3.55,0,0,0,.77.33c.32.11.72.22,1.19.33.88.23,1.64.46,2.27.69a6,6,0,0,1,1.55.79,2.8,2.8,0,0,1,.88,1,3.13,3.13,0,0,1,.28,1.39,3.59,3.59,0,0,1-1.4,3,6,6,0,0,1-3.81,1.09Z"/></g></g></svg>