<?xml version="1.0" encoding="UTF-8"?>
<svg id="Capa_1" data-name="Capa 1" xmlns="http://www.w3.org/2000/svg" version="1.1" viewBox="0 0 103 81">
  <defs>
    <style>
      .cls-1 {
        fill: #fff;
        stroke-width: 0px;
      }
    </style>
  </defs>
  <g>
    <path class="cls-1" d="M6.1,65.9h1.6v7.1h4.4v1.3h-5.9v-8.4h-.1Z"/>
    <path class="cls-1" d="M12.6,71.1c0-1.9,1.4-3.3,3.4-3.3s3.4,1.4,3.4,3.3-1.4,3.3-3.4,3.3-3.4-1.4-3.4-3.3ZM17.9,71.1c0-1.2-.8-2-1.9-2s-1.9.8-1.9,2,.8,2,1.9,2,1.9-.8,1.9-2Z"/>
    <path class="cls-1" d="M27.2,67.9v5.4c0,2.3-1.2,3.4-3.5,3.4s-2.4-.3-3.1-.9l.7-1.1c.6.5,1.5.8,2.4.8,1.4,0,2-.6,2-1.9v-.3c-.5.6-1.3.9-2.1.9-1.8,0-3.2-1.2-3.2-3.1s1.4-3.1,3.2-3.1,1.7.3,2.2.9v-.9h1.4ZM25.7,70.9c0-1.1-.8-1.8-1.9-1.8s-2,.7-2,1.8.8,1.8,2,1.8,1.9-.7,1.9-1.8Z"/>
    <path class="cls-1" d="M28.6,71.1c0-1.9,1.4-3.3,3.4-3.3s3.4,1.4,3.4,3.3-1.4,3.3-3.4,3.3-3.4-1.4-3.4-3.3ZM34,71.1c0-1.2-.8-2-1.9-2s-1.9.8-1.9,2,.8,2,1.9,2,1.9-.8,1.9-2Z"/>
    <path class="cls-1" d="M46.7,73v1.3h-6.3v-8.4h6.1v1.3h-4.6v2.2h4.1v1.3h-4.1v2.3h4.8Z"/>
    <path class="cls-1" d="M54.6,70.6v3.7h-1.5v-3.5c0-1.1-.6-1.7-1.5-1.7s-1.8.6-1.8,1.9v3.2h-1.5v-6.4h1.4v.8c.5-.6,1.3-.9,2.2-.9,1.5,0,2.7.9,2.7,2.8h0Z"/>
    <path class="cls-1" d="M60.3,74c-.4.3-.9.4-1.4.4-1.4,0-2.2-.7-2.2-2.2v-3.1h-1.1v-1.2h1.1v-1.5h1.5v1.5h1.7v1.2h-1.7v3c0,.6.3,1,.9,1s.6,0,.8-.3l.4,1.1h0Z"/>
    <path class="cls-1" d="M61.4,65.9c0-.5.4-.9,1-.9s1,.4,1,.9-.4.9-1,.9-1-.4-1-.9ZM61.6,67.9h1.5v6.4h-1.5v-6.4Z"/>
    <path class="cls-1" d="M71.3,65.4v8.9h-1.4v-.8c-.5.6-1.2.9-2.1.9-1.9,0-3.2-1.3-3.2-3.3s1.4-3.3,3.2-3.3,1.6.3,2.1.9v-3.3h1.5,0ZM69.8,71.1c0-1.2-.8-2-1.9-2s-1.9.8-1.9,2,.8,2,1.9,2,1.9-.8,1.9-2Z"/>
    <path class="cls-1" d="M78.6,70.5v3.8h-1.4v-.8c-.4.6-1.1.9-2,.9-1.5,0-2.4-.8-2.4-1.9s.7-1.9,2.7-1.9h1.7c0-1-.5-1.5-1.6-1.5s-1.5.2-1.9.6l-.6-1.1c.7-.5,1.7-.8,2.7-.8,1.8,0,2.9.9,2.9,2.7h0ZM77.1,72.3v-.7h-1.5c-1,0-1.3.4-1.3.9s.5.9,1.2.9,1.4-.3,1.6-1h0Z"/>
    <path class="cls-1" d="M86.9,65.4v8.9h-1.4v-.8c-.5.6-1.2.9-2.1.9-1.9,0-3.2-1.3-3.2-3.3s1.4-3.3,3.2-3.3,1.6.3,2.1.9v-3.3h1.5,0ZM85.4,71.1c0-1.2-.8-2-1.9-2s-1.9.8-1.9,2,.8,2,1.9,2,1.9-.8,1.9-2Z"/>
    <path class="cls-1" d="M97.7,71.8c0,1.4-1.1,2.6-3.3,2.6s-2.4-.4-3.2-1l.7-1.2c.6.5,1.5.8,2.5.8s1.8-.5,1.8-1.3-.6-1.2-1.8-1.2h-.8v-1.1l1.9-2.3h-3.8v-1.3h5.7v1l-2,2.4c1.6.2,2.4,1.2,2.4,2.4v.2Z"/>
  </g>
  <g>
    <path class="cls-1" d="M73.1,38.5c-3,8.7-11.3,15-21.1,15s-3.9-.3-5.7-.7v5.1c1.8.4,3.8.6,5.7.6,12.5,0,23.1-8.5,26.3-20,0,0-5.2,0-5.2,0ZM29.7,31.1c0-1.9.3-3.8.7-5.6h-5.1c-.4,1.8-.6,3.7-.6,5.6,0,12.5,8.4,23.1,19.9,26.3v-5.2c-8.7-3.1-14.9-11.3-14.9-21h0ZM59.2,4.8v5.2c8.8,3,15.1,11.3,15.1,21.1s-.3,3.8-.7,5.6h5.1c.4-1.8.6-3.7.6-5.6,0-12.6-8.5-23.2-20.1-26.3ZM52,3.8c-12.5,0-23.1,8.5-26.3,20h5.2c3-8.7,11.3-15,21.1-15s3.8.2,5.5.7v-5.1c-1.8-.4-3.6-.6-5.5-.6Z"/>
    <path class="cls-1" d="M61.9,38.5c-2.2,3-5.8,5-9.9,5s-4-.5-5.7-1.4v5.4c1.8.6,3.7,1,5.7,1,6.9,0,12.9-4.1,15.7-10,0,0-5.8,0-5.8,0ZM39.7,31.1c0-2,.5-4,1.4-5.6h-5.4c-.6,1.8-.9,3.7-.9,5.6,0,6.9,4.1,12.9,9.9,15.6v-5.8c-3-2.2-4.9-5.8-4.9-9.8h0ZM59.2,15.4v5.8c3.1,2.2,5.1,5.9,5.1,10s-.5,4-1.4,5.6h5.4c.6-1.8.9-3.7.9-5.6,0-7-4.1-13-10.1-15.7h0ZM52,13.8c-6.9,0-12.9,4.1-15.7,10h5.8c2.2-3,5.8-5,9.9-5s3.9.5,5.5,1.3v-5.4c-1.7-.6-3.6-.9-5.5-.9Z"/>
    <path class="cls-1" d="M59.3,31.1c0,4-3.3,7.3-7.3,7.3s-7.3-3.3-7.3-7.3,3.3-7.3,7.3-7.3,7.3,3.3,7.3,7.3Z"/>
  </g>
</svg>