<?xml version="1.0" encoding="utf-8"?>
<!-- Generator: Adobe Illustrator 27.0.1, SVG Export Plug-In . SVG Version: 6.00 Build 0)  -->
<svg version="1.1" id="Capa_1" xmlns="http://www.w3.org/2000/svg" xmlns:xlink="http://www.w3.org/1999/xlink" x="0px" y="0px"
	 viewBox="0 0 124.1 123.7" style="enable-background:new 0 0 124.1 123.7;" xml:space="preserve">
<style type="text/css">
	.st0{fill:#5FD0DF;}
	.st1{fill:#98989A;}
	.st2{fill:#D74A5C;}
</style>
<g>
	<g>
		<path class="st0" d="M59.5,10.6c0.1,0,0.1,0.1,0.1,0.2l-1,3c0,0.1,0.1,0.3,0.2,0.2l2.6-1.9c0.1,0,0.1,0,0.2,0l2.6,1.9
			c0.1,0.1,0.3,0,0.2-0.2l-1-3c0-0.1,0-0.1,0.1-0.2L66,8.7c0.1-0.1,0.1-0.3-0.1-0.3h-3.2c-0.1,0-0.1,0-0.1-0.1l-1-3
			c0-0.1-0.2-0.1-0.3,0l-1,3c0,0.1-0.1,0.1-0.1,0.1H57c-0.1,0-0.2,0.2-0.1,0.3L59.5,10.6z"/>
		<path class="st0" d="M75.1,20.4c0.1,0,0.1,0.1,0.1,0.2l-0.5,1.7c0,0.1,0.1,0.3,0.2,0.2l1.4-1c0.1,0,0.1,0,0.2,0l1.4,1
			c0.1,0.1,0.3,0,0.2-0.2l-0.5-1.7c0-0.1,0-0.1,0.1-0.2l1.4-1c0.1-0.1,0.1-0.3-0.1-0.3h-1.7c-0.1,0-0.1,0-0.1-0.1l-0.5-1.7
			c0-0.1-0.2-0.1-0.3,0L75.7,19c0,0.1-0.1,0.1-0.1,0.1h-1.7c-0.2,0-0.2,0.2-0.1,0.3L75.1,20.4z"/>
		<path class="st0" d="M82.9,32.4c0.1,0,0.1,0.1,0.1,0.2l-0.5,1.7c0,0.1,0.1,0.3,0.2,0.2l1.4-1c0.1,0,0.1,0,0.2,0l1.4,1
			c0.1,0.1,0.3,0,0.2-0.2l-0.5-1.7c0-0.1,0-0.1,0.1-0.2l1.4-1c0.1-0.1,0.1-0.3-0.1-0.3H85c-0.1,0-0.1,0-0.1-0.1l-0.5-1.7
			c0-0.1-0.2-0.1-0.3,0L83.5,31c0,0.1-0.1,0.1-0.1,0.1h-1.7c-0.1,0-0.2,0.2-0.1,0.3L82.9,32.4z"/>
		<path class="st0" d="M45.2,20.4c0.1,0,0.1,0.1,0.1,0.2l-0.5,1.7c0,0.1,0.1,0.3,0.2,0.2l1.4-1c0.1,0,0.1,0,0.2,0l1.4,1
			c0.1,0.1,0.3,0,0.2-0.2l-0.5-1.7c0-0.1,0-0.1,0.1-0.2l1.4-1c0.1-0.1,0.1-0.3-0.1-0.3h-1.7c-0.1,0-0.1,0-0.1-0.1l-0.5-1.7
			c0-0.1-0.2-0.1-0.3,0L45.8,19c0,0.1-0.1,0.1-0.1,0.1h-1.7c-0.2,0-0.2,0.2-0.1,0.3L45.2,20.4z"/>
		<path class="st0" d="M37.4,32.4c0.1,0,0.1,0.1,0.1,0.2l-0.5,1.7c0,0.1,0.1,0.3,0.2,0.2l1.4-1c0.1,0,0.1,0,0.2,0l1.4,1
			c0.1,0.1,0.3,0,0.2-0.2l-0.5-1.7c0-0.1,0-0.1,0.1-0.2l1.4-1c0.1-0.1,0.1-0.3-0.1-0.3h-1.7c-0.1,0-0.1,0-0.1-0.1l-0.5-1.7
			c0-0.1-0.2-0.1-0.3,0L38,31c0,0.1-0.1,0.1-0.1,0.1h-1.7c-0.2,0-0.2,0.2-0.1,0.3L37.4,32.4z"/>
		<path class="st1" d="M54.2,60.3c0.4,0.2,0.9,0.2,1.2,0l0.2-0.1c0.2-0.1,0.4-0.1,0.6,0l0.2,0.1c0.2,0.1,0.4,0.2,0.6,0.2
			c0.2,0,0.4-0.1,0.6-0.2l0.2-0.1c0.2-0.1,0.4-0.1,0.6,0l0.2,0.1c0.4,0.2,0.9,0.2,1.2,0l0.2-0.1c0.2-0.1,0.4-0.1,0.6,0l0.2,0.1
			c0.4,0.2,0.9,0.2,1.3,0l0.1-0.1c0.2-0.1,0.4-0.1,0.6,0l0.2,0.1c0.1,0.1,0.3,0.1,0.5,0.2c0.1,0,0.1,0,0.2,0c0,0,0,0,0,0s0,0,0,0
			c0.1,0,0.1,0,0.2,0c0,0,0,0,0,0c0.1,0,0.3-0.1,0.4-0.2l0.2-0.1c0.1-0.1,0.2-0.1,0.3-0.1s0.2,0,0.3,0.1l0.2,0.1
			c0.2,0.2,0.5,0.2,0.8,0.2c0.2,0,0.3-0.1,0.5-0.2l0.2-0.1c0.2-0.1,0.4-0.1,0.6,0l0.1,0.1c0.4,0.3,0.9,0.3,1.3,0
			c0.1-0.1,0.2-0.3,0.1-0.4c-0.1-0.1-0.3-0.2-0.4-0.1c-0.2,0.1-0.4,0.1-0.6,0l-0.1-0.1c-0.4-0.3-0.9-0.3-1.3,0l-0.2,0.1c0,0,0,0,0,0
			c-0.1,0-0.1,0.1-0.2,0.1c-0.1,0-0.3,0-0.4-0.1l-0.2-0.1c-0.2-0.1-0.4-0.2-0.6-0.2c-0.2,0-0.4,0.1-0.6,0.2l-0.2,0.1
			c-0.1,0.1-0.2,0.1-0.4,0.1c-0.1,0-0.2,0-0.2-0.1c0,0,0,0,0,0l-0.2-0.1c-0.4-0.2-0.9-0.2-1.3,0l-0.1,0.1c-0.2,0.1-0.4,0.1-0.6,0
			l-0.2-0.1c-0.4-0.2-0.9-0.2-1.2,0l-0.2,0.1c-0.2,0.1-0.4,0.1-0.6,0l-0.2-0.1c-0.4-0.2-0.9-0.2-1.2,0l-0.2,0.1
			c-0.2,0.1-0.4,0.1-0.6,0l-0.2-0.1c-0.4-0.2-0.8-0.2-1.2,0l-0.2,0.1c-0.2,0.1-0.4,0.1-0.6,0c-0.1-0.1-0.3,0-0.4,0.1
			C54,60,54,60.2,54.2,60.3"/>
		<path class="st1" d="M67.3,61.6c-0.2,0.1-0.4,0.1-0.6,0l-0.2-0.1c-0.4-0.2-0.9-0.2-1.2,0L65,61.6c-0.2,0.1-0.4,0.1-0.6,0l-0.2-0.1
			c-0.4-0.2-0.9-0.2-1.3,0l-0.1,0.1c-0.2,0.1-0.4,0.1-0.6,0L62,61.5c-0.4-0.2-0.9-0.2-1.2,0l-0.2,0.1c-0.2,0.1-0.4,0.1-0.6,0
			l-0.2-0.1c-0.4-0.2-0.9-0.2-1.2,0l-0.2,0.1c-0.2,0.1-0.4,0.1-0.6,0l-0.2-0.1c-0.4-0.2-0.8-0.2-1.2,0l-0.2,0.1
			c-0.2,0.1-0.4,0.1-0.6,0c-0.1-0.1-0.3,0-0.4,0.1c-0.1,0.1,0,0.3,0.1,0.4c0.4,0.2,0.9,0.2,1.2,0l0.2-0.1c0.2-0.1,0.4-0.1,0.6,0
			l0.2,0.1c0.2,0.1,0.4,0.2,0.6,0.2c0.2,0,0.4-0.1,0.6-0.2l0.2-0.1c0.2-0.1,0.4-0.1,0.6,0l0.2,0.1c0.4,0.2,0.9,0.2,1.2,0l0.2-0.1
			c0.2-0.1,0.4-0.1,0.6,0l0.2,0.1c0.4,0.2,0.9,0.2,1.3,0l0.1-0.1c0.2-0.1,0.4-0.1,0.6,0l0.2,0.1c0.4,0.2,0.9,0.2,1.2,0l0.2-0.1
			c0.2-0.1,0.4-0.1,0.6,0l0.2,0.1c0.4,0.2,0.9,0.2,1.2,0c0.1-0.1,0.2-0.3,0.1-0.4C67.6,61.6,67.4,61.5,67.3,61.6"/>
		<path class="st1" d="M65,63.4c-0.2,0.1-0.4,0.1-0.6,0l-0.2-0.1c-0.4-0.2-0.9-0.2-1.2,0l-0.2,0.1c-0.2,0.1-0.4,0.1-0.6,0L62,63.3
			c-0.4-0.2-0.9-0.2-1.2,0l-0.2,0.1c-0.2,0.1-0.4,0.1-0.6,0l-0.2-0.1c-0.4-0.2-0.8-0.2-1.2,0l-0.2,0.1c-0.2,0.1-0.4,0.1-0.6,0
			c-0.1-0.1-0.3,0-0.4,0.1c-0.1,0.1,0,0.3,0.1,0.4c0.4,0.2,0.9,0.2,1.2,0l0.2-0.1c0.2-0.1,0.4-0.1,0.6,0l0.2,0.1
			c0.2,0.1,0.4,0.2,0.6,0.2s0.4-0.1,0.6-0.2l0.2-0.1c0.2-0.1,0.4-0.1,0.6,0l0.2,0.1c0.4,0.2,0.9,0.2,1.2,0l0.2-0.1
			c0.2-0.1,0.4-0.1,0.6,0l0.2,0.1c0.4,0.2,0.9,0.2,1.3,0c0.1-0.1,0.2-0.3,0.1-0.4C65.4,63.4,65.2,63.3,65,63.4"/>
		<path class="st1" d="M42,46.1c0.1,0,0.2,0,0.3,0c0,0,0.1,0,0.1,0c0.1,0,0.1,0,0.2,0c0,0,0,0,0,0c0.4,0,0.8,0.1,1.2,0.1
			c0.7,0.2,1.5,0.4,2.2,0.7c0,0,0.1,0,0.1,0.1l0.2,0.1c0.1,0,0.2,0.1,0.4,0.1c0.2,0,0.4,0.1,0.5,0.1c0.1,0,0.1,0,0.2,0
			c0.1,0,0.1,0,0.2,0c0,0,0,0,0.1,0c0,0,0.1,0,0.1,0c0,0,0,0,0,0c0,0,0,0,0,0c0.1,0,0.1,0,0.2,0c0,0,0,0,0.1,0c0.1,0,0.2,0,0.2,0
			c0,0,0,0,0,0c0.1,0,0.1,0,0.2,0c0,0,0,0,0.1,0c0.1,0,0.2,0,0.3-0.1c0.1,0,0.1,0,0.2-0.1c0.1,0,0.1-0.1,0.2-0.1
			c0.1-0.1,0.3-0.1,0.4-0.2c0.1,0,0.1-0.1,0.2-0.1c0.2-0.1,0.4-0.3,0.5-0.5c0,0,0.1-0.1,0.1-0.1c-0.6,1.9-1,3.9-1,6.1
			c0,8.6,5.5,15.5,12.3,15.5s12.3-7,12.3-15.5c0-2-0.3-3.9-0.8-5.7c0.1,0.1,0.3,0.2,0.4,0.3c0.2,0.2,0.5,0.3,0.8,0.4
			c0.1,0,0.2,0,0.3,0.1l0.1,0c0.1,0,0.1,0,0.2,0c0,0,0,0,0,0c0.1,0,0.2,0,0.2,0c0,0,0,0,0.1,0c0.1,0,0.1,0,0.2,0c0,0,0,0,0,0
			c0,0,0,0,0,0c0,0,0.1,0,0.1,0c0,0,0,0,0.1,0c0.1,0,0.1,0,0.2,0c0.1,0,0.1,0,0.2,0c0.2,0,0.4-0.1,0.5-0.1c0.1,0,0.2-0.1,0.4-0.1
			l0.2-0.1c0,0,0.1,0,0.1-0.1c0.4-0.1,0.7-0.3,1.1-0.4c0.4-0.1,0.7-0.2,1.1-0.3c0.4-0.1,0.8-0.1,1.2-0.1c0,0,0,0,0,0
			c0.1,0,0.1,0,0.2,0c0,0,0.1,0,0.1,0c0.1,0,0.2,0,0.3,0c0.1,0,0.2,0,0.3,0.1c0.1,0,0.1,0,0.2,0c0.1,0,0.1,0,0.2,0.1
			c0-0.1,0-0.2-0.1-0.2s-0.1-0.2-0.1-0.2c-0.1-0.1-0.1-0.3-0.2-0.4c0-0.1-0.1-0.1-0.1-0.2c-0.1-0.2-0.3-0.4-0.4-0.5
			c-0.4-0.4-0.9-0.7-1.4-0.9c-0.1,0-0.3-0.1-0.4-0.1s-0.3-0.1-0.4-0.1c-0.1,0-0.2,0-0.2,0c0,0,0,0-0.1,0c-0.1,0-0.2,0-0.2,0
			c0,0,0,0,0,0h0c-0.1,0-0.1,0-0.2,0c-0.5,0-1,0.1-1.5,0.3L76.4,44c-0.1,0-0.2,0.1-0.3,0.1c-0.1,0-0.2,0.1-0.3,0.1
			c-0.1,0-0.2,0.1-0.3,0.1c-0.4,0.1-0.7,0.2-1.1,0.3c-0.1,0-0.2,0-0.3,0.1c0,0-0.1,0-0.1,0c-0.1,0-0.1,0-0.2,0c0,0-0.1,0-0.1,0
			c-0.1,0-0.1,0-0.2,0c0,0-0.1,0-0.1,0c0,0,0,0-0.1,0c-0.1,0-0.1,0-0.2,0c-0.2,0-0.4,0-0.6-0.1c-0.1,0-0.2-0.1-0.3-0.1
			c-0.2-0.4-0.3-0.7-0.5-1c0.1,0,0.2,0.1,0.3,0.1c0.1,0,0.2,0.1,0.4,0.1l0.2,0l0.1,0c0,0,0.1,0,0.1,0l0.2,0c0.1,0,0.1,0,0.2,0
			c0,0,0,0,0.1,0c0,0,0.1,0,0.1,0c0,0,0,0,0,0c0.1,0,0.1,0,0.2,0c0.2,0,0.5-0.1,0.7-0.1c0.1,0,0.2-0.1,0.3-0.1l0.1,0
			c0,0,0.1,0,0.1,0c0.7-0.2,1.3-0.4,2-0.6c0.3-0.1,0.7-0.1,1-0.2c0.1,0,0.2,0,0.3,0c0,0,0.1,0,0.1,0c0,0,0.1,0,0.1,0
			c0,0,0.1,0,0.1,0c0.2,0,0.3,0,0.5,0c0.1,0,0.1,0,0.2,0c0-0.1-0.1-0.3-0.1-0.4c-0.1-0.1-0.1-0.2-0.2-0.4s-0.2-0.2-0.2-0.3
			c-0.1-0.1-0.2-0.2-0.3-0.3c-0.1-0.1-0.2-0.2-0.3-0.2c-0.1-0.1-0.3-0.2-0.4-0.2c-0.1-0.1-0.3-0.1-0.4-0.2c-0.1,0-0.1,0-0.2-0.1
			c-0.1,0-0.2-0.1-0.3-0.1c-0.1,0-0.2,0-0.3-0.1c-0.1,0-0.2,0-0.3,0c0,0,0,0-0.1,0c-0.1,0-0.2,0-0.2,0c0,0,0,0,0,0c0,0-0.1,0-0.1,0
			l0,0c-0.2,0-0.5,0-0.7,0.1c-0.2,0-0.4,0.1-0.7,0.2c-0.1,0-0.1,0-0.2,0.1l-0.1,0c0,0-0.1,0-0.1,0s-0.1,0-0.1,0
			c-0.2,0.1-0.3,0.1-0.5,0.2c-0.3,0.1-0.6,0.2-1,0.3c-0.3,0.1-0.6,0.1-1,0.2c0,0-0.1,0-0.1,0c0,0-0.1,0-0.1,0c0,0-0.1,0-0.1,0
			c-0.1,0-0.2,0-0.3,0c0,0,0,0-0.1,0c-0.2-0.3-0.5-0.6-0.7-0.9c0,0,0,0,0,0l0.2,0c0.1,0,0.1,0,0.2,0l0.2,0c0.1,0,0.1,0,0.2,0
			c0,0,0,0,0.1,0c0,0,0,0,0,0c0.1,0,0.1,0,0.2,0c0.2,0,0.4,0,0.6-0.1c0.1,0,0.1,0,0.2,0c0.1,0,0.1,0,0.1,0l0.1,0l0.1,0l0.9-0.2
			c0.3-0.1,0.6-0.1,0.9-0.2c0.3-0.1,0.6-0.1,0.9-0.2c0.2,0,0.3,0,0.5,0c0,0,0.1,0,0.1,0h0c0.1,0,0.1,0,0.2,0c0,0,0,0,0,0
			c0.1,0,0.2,0,0.2,0c0,0,0-0.1,0-0.1c0-0.1,0-0.1-0.1-0.2c0,0,0-0.1,0-0.1c-0.1-0.1-0.1-0.2-0.2-0.3c-0.1-0.2-0.3-0.3-0.5-0.5
			c-0.2-0.1-0.4-0.2-0.6-0.3c-0.2-0.1-0.4-0.2-0.6-0.2c-0.2-0.1-0.4-0.1-0.6-0.1c-0.1,0-0.2,0-0.3,0c0,0-0.1,0-0.1,0
			c-0.1,0-0.1,0-0.2,0c0,0-0.1,0-0.1,0c-0.4,0-0.8,0.1-1.2,0.2l-0.1,0l-0.1,0c0,0-0.1,0-0.1,0c0,0-0.1,0-0.1,0l-0.4,0.1
			c-0.3,0.1-0.6,0.2-0.9,0.2s-0.6,0.1-0.9,0.2c-0.1,0-0.2,0-0.3,0c0,0,0,0,0,0c-0.1,0-0.1,0-0.2,0c-0.1,0-0.2,0-0.2,0
			c-0.3-0.2-0.5-0.4-0.8-0.6c0.1,0,0.2,0,0.3,0c0.6,0,1.2-0.1,1.7-0.2c0.2,0,0.3-0.1,0.5-0.1c0.5-0.1,0.9-0.3,1.3-0.3
			c0.2,0,0.5,0,0.7,0l0.6,0.1l-0.3-0.6c0,0-0.5-0.8-1.6-1.1c-0.3-0.1-0.6-0.1-1-0.1c-1-0.1-2.2-0.1-2.9-1.1c0.3-0.3,0.4-0.8,0.4-1.2
			c-0.1-1-1-1.7-2-1.6v-0.8h2.6c0.2,0,0.4-0.2,0.4-0.4v-1.5c0-0.2-0.2-0.4-0.4-0.4c0,0,0,0,0,0h-1v-0.5l1.8-1.8v-6.9l-0.9,0.8
			l-1.3,1.1c-0.1-0.1-0.3-0.2-0.5-0.2h-0.7c0,0-0.1,0-0.1,0v-2.9L64.1,19l-1.5,1.2c-0.1-0.1-0.3-0.2-0.5-0.2h-0.8
			c-0.2,0-0.4,0.1-0.5,0.2L59.4,19l-0.9-0.8v2.9c0,0-0.1,0-0.1,0h-0.7c-0.2,0-0.3,0.1-0.5,0.2L56,20.3L55,19.6v6.9l1.8,1.8v0.5h-1
			c-0.2,0-0.4,0.2-0.4,0.4v1.5c0,0.2,0.2,0.4,0.4,0.4h2.6V32c-0.1,0-0.1,0-0.2,0c-1-0.1-2,0.6-2.1,1.6c-0.1,0.5,0.1,0.9,0.4,1.2
			c-0.7,1-1.9,1.1-2.9,1.1c-0.4,0-0.7,0-1,0.1c-1,0.3-1.6,1.1-1.6,1.1l-0.4,0.5l0.6-0.1c0.2,0,0.5,0,0.7,0c0.5,0,0.9,0.2,1.3,0.3
			c0.1,0,0.3,0.1,0.5,0.1c0.5,0.1,1.1,0.2,1.7,0.2c0.2,0,0.4,0,0.6,0c0,0,0,0,0,0c-0.2,0.2-0.5,0.3-0.7,0.5c0,0,0,0,0,0
			c-0.2,0.1-0.3,0.1-0.4,0.1c0,0-0.1,0-0.1,0c-0.1,0-0.1,0-0.2,0c0,0,0,0,0,0c-0.1,0-0.2,0-0.3,0c-0.3,0-0.6-0.1-0.9-0.2
			c-0.3-0.1-0.6-0.2-0.9-0.2l-0.4-0.1c-0.1,0-0.1,0-0.2-0.1l-0.1,0l-0.1,0c-0.3-0.1-0.6-0.1-0.9-0.2c-0.1,0-0.2,0-0.3,0
			c0,0-0.1,0-0.1,0c-0.1,0-0.1,0-0.2,0c0,0-0.1,0-0.1,0c-0.1,0-0.2,0-0.3,0c-0.2,0-0.4,0.1-0.6,0.1c-0.2,0.1-0.4,0.1-0.6,0.2
			c-0.2,0.1-0.4,0.2-0.6,0.3c-0.2,0.1-0.3,0.3-0.5,0.5c-0.1,0.1-0.1,0.2-0.2,0.3c0,0,0,0.1,0,0.1c0,0.1,0,0.1-0.1,0.2
			c0,0,0,0.1,0,0.1c0.1,0,0.2,0,0.2,0c0,0,0,0,0,0c0.1,0,0.1,0,0.2,0h0c0,0,0.1,0,0.1,0c0.2,0,0.4,0,0.5,0c0.3,0,0.6,0.1,0.9,0.2
			c0.3,0.1,0.6,0.1,0.9,0.2l0.9,0.2l0.1,0l0.1,0c0.1,0,0.2,0,0.3,0.1c0.2,0,0.4,0.1,0.6,0.1c0.1,0,0.1,0,0.2,0c0,0,0,0,0,0
			c0,0,0,0,0.1,0c0.1,0,0.1,0,0.2,0l0.2,0c0.1,0,0.1,0,0.2,0l0.2,0c0.1,0,0.1,0,0.2,0c0,0,0.1,0,0.1,0c-0.2,0.3-0.5,0.6-0.7,0.9
			c-0.1,0-0.2,0.1-0.4,0.1c-0.1,0-0.2,0-0.3,0c0,0-0.1,0-0.1,0c0,0-0.1,0-0.1,0c0,0-0.1,0-0.1,0c-0.4,0-0.7-0.1-1-0.2
			c-0.3-0.1-0.6-0.2-1-0.3c-0.2-0.1-0.3-0.1-0.5-0.2c-0.1,0-0.2-0.1-0.3-0.1l-0.1,0c-0.1,0-0.1,0-0.2-0.1c-0.2-0.1-0.4-0.1-0.7-0.2
			c-0.2,0-0.5-0.1-0.7-0.1l0,0c0,0-0.1,0-0.1,0c0,0,0,0,0,0c-0.1,0-0.2,0-0.2,0c0,0,0,0-0.1,0c-0.1,0-0.2,0-0.3,0
			c-0.1,0-0.2,0-0.3,0.1c-0.1,0-0.2,0.1-0.3,0.1c-0.1,0-0.1,0-0.2,0.1c-0.1,0.1-0.3,0.1-0.4,0.2s-0.3,0.2-0.4,0.2
			c-0.1,0.1-0.2,0.2-0.3,0.2c0,0-0.1,0.1-0.1,0.1c-0.1,0.1-0.2,0.2-0.3,0.3c0,0.1-0.1,0.1-0.1,0.2c-0.1,0.1-0.1,0.2-0.2,0.4
			c-0.1,0.1-0.1,0.3-0.1,0.4c0.1,0,0.1,0,0.2,0c0.2,0,0.3,0,0.5,0c0.1,0,0.1,0,0.1,0c0,0,0.1,0,0.1,0c0,0,0.1,0,0.1,0
			c0.1,0,0.2,0,0.3,0c0.4,0,0.7,0.1,1,0.2c0.7,0.2,1.3,0.4,2,0.6c0,0,0.1,0,0.1,0l0.1,0c0.1,0,0.2,0.1,0.3,0.1c0.1,0,0.2,0,0.3,0.1
			s0.2,0,0.3,0l0,0c0.1,0,0.1,0,0.2,0c0,0,0,0,0,0c0,0,0.1,0,0.1,0c0,0,0,0,0.1,0c0.1,0,0.1,0,0.2,0l0.2,0c0,0,0.1,0,0.1,0l0.1,0
			l0.2,0c0.1,0,0.2,0,0.4-0.1c0.1,0,0.2-0.1,0.4-0.1c0.1,0,0.1-0.1,0.2-0.1c0,0,0,0,0.1,0c-0.2,0.3-0.3,0.7-0.5,1
			c-0.2,0.1-0.4,0.2-0.6,0.3c-0.2,0.1-0.4,0.1-0.6,0.1c-0.1,0-0.1,0-0.2,0c0,0,0,0-0.1,0c0,0-0.1,0-0.1,0c-0.1,0-0.1,0-0.2,0
			c0,0-0.1,0-0.1,0c-0.1,0-0.1,0-0.2,0c0,0-0.1,0-0.1,0c-0.1,0-0.2,0-0.3-0.1c-0.4-0.1-0.7-0.2-1.1-0.3c-0.1,0-0.2-0.1-0.3-0.1
			c-0.1,0-0.2-0.1-0.3-0.1c-0.1,0-0.1-0.1-0.2-0.1c0,0,0,0-0.1,0l-0.3-0.1c-0.5-0.2-1-0.3-1.5-0.3c-0.1,0-0.1,0-0.2,0h0c0,0,0,0,0,0
			c-0.1,0-0.2,0-0.2,0c0,0,0,0-0.1,0c-0.1,0-0.2,0-0.2,0c-0.1,0-0.3,0-0.4,0.1s-0.3,0.1-0.4,0.1c-0.5,0.2-1,0.5-1.4,0.9
			c-0.1,0.1-0.2,0.2-0.2,0.3c-0.1,0.1-0.1,0.2-0.2,0.3c0,0.1-0.1,0.1-0.1,0.2c-0.1,0.1-0.2,0.3-0.2,0.4c0,0.1-0.1,0.2-0.1,0.2
			c0,0.1,0,0.2-0.1,0.2c0.1,0,0.2-0.1,0.4-0.1C41.7,46.1,41.9,46.1,42,46.1 M73.4,45.3c0.1,0,0.1,0,0.2,0c0.3,0,0.7,0,1.1-0.1
			c0.4-0.1,0.8-0.2,1.1-0.3c0.1,0,0.2-0.1,0.2-0.1l0,0c0.1,0,0.1-0.1,0.2-0.1c0,0,0.1,0,0.1,0c0.1,0,0.1-0.1,0.2-0.1
			c0,0,0.1,0,0.1,0l0.3-0.1c0.4-0.2,0.9-0.2,1.3-0.3l0,0l0,0c0.1,0,0.1,0,0.2,0c0.1,0,0.3,0,0.5,0c0.3,0,0.5,0.1,0.6,0.1h0h0
			c0.4,0.1,0.8,0.4,1.2,0.7c0.1,0.1,0.2,0.2,0.3,0.3c-0.1,0-0.1,0-0.2,0c0,0,0,0-0.1,0c-0.4,0-0.8,0-1.3,0.1l0,0l0,0
			c-0.8,0.2-1.5,0.4-2.3,0.7h0h0c0,0,0,0-0.1,0c0,0,0,0-0.1,0l-0.2,0.1c0,0-0.1,0-0.1,0c-0.1,0-0.2,0-0.2,0.1l0,0l0,0
			c-0.2,0.1-0.5,0.1-0.6,0.1c-0.1,0-0.3,0-0.4,0c-0.3,0-0.6,0-0.9-0.1h0h0c-0.5-0.1-0.9-0.4-1.2-0.8c-0.1-0.1-0.2-0.2-0.3-0.4
			C73.3,45.3,73.3,45.3,73.4,45.3 M71.3,42.2c0,0,0.1,0,0.1,0l0,0l0,0c0.4,0,0.7-0.1,1.1-0.2c0.4-0.1,0.7-0.2,1-0.3l0,0l0,0
			c0.2-0.1,0.3-0.1,0.5-0.2c0.1,0,0.1,0,0.2-0.1c0,0,0.1,0,0.1,0l0.1,0c0,0,0,0,0.1,0c0,0,0.1,0,0.1,0h0h0c0.4-0.1,0.8-0.2,1.2-0.2
			l0,0l0,0c0,0,0.1,0,0.1,0c0.1,0,0.3,0,0.5,0c0.2,0,0.4,0.1,0.6,0.1h0h0c0.4,0.1,0.8,0.3,1.1,0.6c0.1,0.1,0.1,0.1,0.2,0.2
			c-0.1,0-0.1,0-0.2,0c-0.3,0-0.7,0.1-1.1,0.2l0,0l0,0c-0.7,0.2-1.4,0.4-2.1,0.6h0h0c0,0,0,0-0.1,0l0,0l-0.1,0c0,0,0,0-0.1,0
			c-0.1,0-0.2,0-0.2,0.1c-0.2,0-0.4,0.1-0.6,0.1h0c-0.1,0-0.2,0-0.2,0c0,0,0,0,0,0h0h0c0,0,0,0-0.1,0c0,0-0.1,0-0.1,0l-0.2,0
			c0,0,0,0,0,0s0,0,0,0l-0.1,0l-0.2,0c0,0-0.1,0-0.1,0c-0.1,0-0.1,0-0.2-0.1l0,0l0,0c-0.1,0-0.2-0.1-0.3-0.1c-0.1,0-0.2-0.1-0.3-0.1
			l0,0h0c-0.2-0.1-0.4-0.2-0.5-0.4c0,0-0.1-0.1-0.1-0.1C71.4,42.2,71.3,42.2,71.3,42.2C71.3,42.2,71.3,42.2,71.3,42.2 M69.1,39.5
			L69.1,39.5L69.1,39.5c0.4,0,0.7-0.1,1-0.2c0.3-0.1,0.6-0.2,0.9-0.2l0,0l0,0l0.4-0.1c0,0,0.1,0,0.1,0c0,0,0.1,0,0.1,0l0,0l0,0
			l0.1,0l0.1,0c0.4-0.1,0.7-0.1,1.1-0.1c0,0,0,0,0.1,0c0.1,0,0.3,0,0.5,0c0.2,0,0.4,0.1,0.5,0.1h0h0c0.3,0.1,0.6,0.2,0.9,0.4
			c-0.4,0-0.7,0.1-1,0.2l0,0l0,0c-0.3,0.1-0.6,0.1-0.9,0.2l-0.9,0.2l-0.1,0l-0.1,0c0,0,0,0-0.1,0c-0.1,0-0.1,0-0.2,0h0h0
			c-0.2,0-0.4,0.1-0.5,0.1l0,0l0,0c-0.1,0-0.2,0-0.2,0c0,0,0,0-0.1,0l0,0l0,0c0,0,0,0-0.1,0c0,0-0.1,0-0.1,0l-0.2,0h0h0
			c0,0-0.1,0-0.1,0l0,0l0,0l-0.1,0c0,0,0,0-0.1,0c-0.1,0-0.1,0-0.2,0h0h0c-0.2,0-0.4-0.1-0.5-0.2l0,0l0,0
			C69.3,39.7,69.2,39.6,69.1,39.5L69.1,39.5C69.1,39.5,69.1,39.5,69.1,39.5 M56.2,37.6c-0.1,0-0.1,0-0.2,0c-0.8,0-1.5,0-2.1-0.2
			c-0.1,0-0.3-0.1-0.4-0.1c-0.5-0.1-0.9-0.3-1.5-0.3c0,0,0,0,0,0c0.2-0.1,0.4-0.3,0.7-0.4c0.2-0.1,0.5-0.1,0.8-0.1
			c0.5,0,1.2-0.1,1.8-0.3c0.6-0.2,1.1-0.6,1.5-1.1c0.2,0.1,0.3,0.1,0.5,0.2c0.3,0,0.7,0,1-0.2c0,0,0,0,0,0c0.1-0.1,0.2-0.2,0.3-0.3
			c0.1-0.2,0.2-0.4,0.2-0.6c0-0.3,0-0.6-0.2-0.8c-0.1-0.1-0.2-0.2-0.3-0.3C58.3,33,58.1,33,58,33c-0.3,0-0.5,0-0.7,0.2
			c-0.2,0.2-0.3,0.4-0.4,0.6c0,0.1,0.1,0.3,0.2,0.3c0,0,0,0,0.1,0c0.2,0,0.3-0.1,0.4-0.3c0-0.1,0.1-0.2,0.1-0.2s0.2-0.1,0.2-0.1
			c0.3,0,0.5,0.3,0.4,0.6c-0.1,0.4-0.4,0.6-0.8,0.6c-0.2,0-0.4-0.1-0.6-0.3c-0.2-0.2-0.3-0.5-0.3-0.8c0.1-0.7,0.7-1.2,1.4-1.1
			c0.1,0,0.2,0,0.3,0.1c0.1,0,0.2,0.1,0.3,0.1c0.1,0.1,0.2,0.1,0.3,0.2c0.3,0.2,0.5,0.6,0.5,0.9c0.1,0.4,0.1,0.8,0,1.2
			c-0.1,0.5-0.4,1-0.7,1.4C58.2,37.1,57.3,37.5,56.2,37.6 M66.7,33.7c0,0.3-0.1,0.6-0.3,0.8c-0.1,0.2-0.3,0.3-0.6,0.3
			c-0.2,0-0.5-0.1-0.6-0.2c-0.1-0.1-0.2-0.2-0.2-0.4c0-0.2,0-0.3,0.2-0.5c0.1-0.1,0.2-0.1,0.2-0.1c0.1,0,0.2,0,0.2,0.1
			s0.1,0.1,0.1,0.2c0,0.2,0.2,0.3,0.4,0.3c0,0,0,0,0.1,0c0.1-0.1,0.2-0.2,0.2-0.3c-0.1-0.5-0.6-0.9-1.1-0.8c-0.1,0-0.1,0-0.2,0
			c-0.1,0-0.2,0.1-0.3,0.1c-0.1,0.1-0.2,0.2-0.3,0.3c0,0,0,0,0,0.1c-0.1,0.2-0.2,0.5-0.2,0.8c0,0.2,0.1,0.3,0.2,0.5
			c0.1,0.1,0.2,0.3,0.3,0.4c0,0,0,0,0,0c0,0,0,0,0,0c0.3,0.2,0.6,0.3,1,0.2c0.2,0,0.4-0.1,0.5-0.2c0.4,0.5,0.9,0.9,1.5,1.1
			c0.6,0.2,1.3,0.3,1.8,0.3c0.3,0,0.6,0,0.8,0.1c0.3,0.1,0.5,0.2,0.7,0.4c0,0,0,0,0,0c-0.5,0-1,0.2-1.5,0.3c-0.1,0-0.3,0.1-0.4,0.1
			c-0.6,0.2-1.3,0.2-2.1,0.2c-0.1,0-0.1,0-0.2,0c-1.1-0.1-2-0.5-2.5-1.1c-0.4-0.4-0.6-0.9-0.7-1.4c-0.1-0.4-0.1-0.8,0-1.2
			c0.1-0.5,0.4-0.9,0.8-1.1c0.1-0.1,0.2-0.1,0.3-0.1c0.1,0,0.2-0.1,0.3-0.1h0c0.1,0,0.1,0,0.2,0C66,32.6,66.6,33,66.7,33.7 M59,31.2
			h5.6v0.9c-0.3,0.1-0.5,0.3-0.7,0.5c-0.4,0.3-0.6,0.8-0.7,1.2c-0.1,0.4-0.1,0.7,0,1.1c-0.4,0.1-0.9,0.1-1.4,0.1
			c-0.6,0-1.2-0.1-1.6-0.2c0-0.4,0-0.7,0-1c-0.1-0.5-0.3-0.9-0.7-1.2c-0.1-0.1-0.3-0.2-0.5-0.3V31.2L59,31.2z M60,35.5
			c0.5,0.1,1.1,0.2,1.8,0.2c0.6,0,1.1-0.1,1.6-0.2c0.1,0.4,0.4,0.9,0.6,1.2c-0.7-0.2-1.4-0.2-2.2-0.2c-0.8,0-1.7,0.1-2.5,0.3
			C59.7,36.4,59.9,36,60,35.5 M66.7,21.9l1.4-1.1v1.8l-0.9,1.5l0.9-0.8v1.4l-0.7,1.3l0.7-0.7v0.9l-1.4,1.3V21.9z M65.2,21.9
			C65.2,21.8,65.2,21.8,65.2,21.9l0.7-0.1c0,0,0.1,0,0.1,0.1v5.8h-0.8V21.9z M64.9,28.3C64.9,28.3,64.9,28.3,64.9,28.3l1.3,0
			c0,0,0,0,0,0v0.6h-1.3L64.9,28.3L64.9,28.3z M63.1,27.8l0.4-0.4l0.6,0.6l0.2,0.2c0,0,0,0,0,0v0.6h-1.2c0,0,0,0,0,0V27.8
			C63.2,27.8,63.1,27.8,63.1,27.8 M63.9,27l0.4-0.4l0,0l0.3-0.3v1.3L63.9,27z M63,20.7l1.5-1.2v2.1l-0.5,0.7l0,0l-0.5,0.8l0.4-0.3
			l0.6-0.5l0,0v1.6l-0.6,1l-0.2,0.4l0.8-0.8v1l-0.9,0.9l-0.1,0.1L63,27.1L63,20.7L63,20.7z M61.4,20.7
			C61.4,20.6,61.4,20.6,61.4,20.7l0.8-0.1c0,0,0.1,0,0.1,0.1v6.5h-0.9L61.4,20.7L61.4,20.7z M61.1,27.8
			C61.1,27.8,61.1,27.8,61.1,27.8l1.4,0c0,0,0,0,0,0v1c0,0,0,0,0,0h-1.5c0,0,0,0,0,0V27.8z M59.1,24.6l0.8,0.8L59.7,25l-0.6-1v-1.6
			l0,0l0.6,0.5l0.4,0.3l-0.5-0.8l0,0l-0.5-0.7v-2.1l1.5,1.2v6.4l-0.4-0.4l-0.1-0.1l-0.9-0.9L59.1,24.6L59.1,24.6z M60.5,28.9h-1.2
			v-0.6c0,0,0,0,0,0l0.2-0.2l0.6-0.6l0.4,0.4c0,0,0,0,0,0.1L60.5,28.9L60.5,28.9z M59.1,26.4l0.7,0.7l-0.7,0.7V26.4z M57.7,21.9
			C57.7,21.8,57.7,21.8,57.7,21.9l0.7-0.1c0,0,0.1,0,0.1,0.1v5.8h-0.8V21.9z M57.4,28.3C57.4,28.3,57.4,28.3,57.4,28.3l1.3,0
			c0,0,0,0,0,0v0.6h-1.3L57.4,28.3L57.4,28.3z M55.6,26.3v-0.9l0.7,0.7l-0.7-1.3v-1.4l0.9,0.8l-0.9-1.5v-1.8l1.4,1.1v5.7L55.6,26.3z
			 M56,29.4h11.7v1.2H56V29.4z M53.4,39.9L53.4,39.9L53.4,39.9c-0.1,0-0.1,0-0.2,0c0,0,0,0-0.1,0L53,40l0,0l0,0c0,0-0.1,0-0.1,0h0h0
			l-0.2,0c0,0,0,0-0.1,0c0,0,0,0-0.1,0l0,0l0,0c0,0,0,0-0.1,0c-0.1,0-0.1,0-0.2,0l0,0l0,0c-0.2,0-0.4,0-0.5-0.1h0h0
			c-0.1,0-0.1,0-0.2,0c0,0,0,0-0.1,0l-0.1,0l-0.1,0l-0.9-0.2c-0.3-0.1-0.6-0.1-0.9-0.2l0,0l0,0c-0.3-0.1-0.6-0.1-1-0.2
			c0.3-0.2,0.6-0.3,0.9-0.4h0h0c0.2-0.1,0.4-0.1,0.5-0.1c0.2,0,0.3,0,0.5,0c0,0,0,0,0.1,0c0.4,0,0.7,0.1,1.1,0.1l0.1,0l0.1,0l0,0
			l0,0c0,0,0.1,0,0.1,0c0,0,0.1,0,0.1,0l0.4,0.1l0,0l0,0c0.3,0.1,0.6,0.2,0.9,0.2c0.3,0.1,0.6,0.1,1,0.2l0,0l0,0c0,0,0,0,0,0
			c-0.1,0.1-0.2,0.2-0.4,0.2l0,0l0,0C53.8,39.8,53.6,39.9,53.4,39.9 M51.4,42.7L51.4,42.7L51.4,42.7c-0.1,0.1-0.2,0.1-0.3,0.1
			c-0.1,0-0.2,0.1-0.3,0.1l0,0l0,0c-0.1,0-0.1,0-0.2,0.1c0,0-0.1,0-0.1,0l-0.2,0l-0.1,0c0,0,0,0,0,0c0,0,0,0,0,0l-0.2,0
			c0,0,0,0-0.1,0c0,0,0,0-0.1,0h0h0c0,0,0,0,0,0c-0.1,0-0.1,0-0.2,0h0c-0.2,0-0.4,0-0.6-0.1c-0.1,0-0.1,0-0.2-0.1c0,0,0,0-0.1,0
			l-0.1,0c0,0,0,0,0,0c0,0,0,0-0.1,0h0h0c-0.7-0.2-1.4-0.4-2.1-0.6l0,0l0,0c-0.4-0.1-0.8-0.2-1.1-0.2c-0.1,0-0.1,0-0.2,0
			c0.1-0.1,0.1-0.1,0.2-0.2c0.3-0.3,0.7-0.5,1.1-0.6h0h0c0.2-0.1,0.4-0.1,0.6-0.1c0.2,0,0.3,0,0.5,0c0,0,0.1,0,0.1,0l0,0l0,0
			c0.4,0,0.8,0.1,1.2,0.2h0h0c0,0,0.1,0,0.1,0c0,0,0,0,0.1,0l0.1,0c0,0,0.1,0,0.1,0c0,0,0.1,0,0.2,0.1c0.2,0.1,0.3,0.1,0.5,0.2l0,0
			c0.3,0.1,0.7,0.2,1,0.3c0.4,0.1,0.8,0.2,1.1,0.2l0,0l0,0c0,0,0.1,0,0.1,0c0,0,0,0,0.1,0c-0.1,0.1-0.1,0.1-0.2,0.2
			C51.8,42.5,51.6,42.6,51.4,42.7 M61.8,37.1c2.5,0,4.8,1,6.7,2.7c0,0,0.1,0.1,0.1,0.1c0,0,0,0,0,0c0.7,0.6,1.3,1.4,1.9,2.1
			c0,0,0,0,0,0c0.1,0.1,0.1,0.2,0.2,0.4c0,0.1,0.1,0.1,0.1,0.2c1.6,2.6,2.6,5.8,2.6,9.4c0,8.2-5.2,14.9-11.7,14.9
			c-6.4,0-11.7-6.7-11.7-14.9C50.1,43.8,55.4,37.1,61.8,37.1 M42.7,45.1c0.3-0.3,0.7-0.6,1.2-0.7h0h0c0.2-0.1,0.4-0.1,0.6-0.1
			c0.2,0,0.3,0,0.5,0c0.1,0,0.1,0,0.2,0l0,0l0,0c0.4,0,0.8,0.1,1.3,0.3l0.3,0.1c0,0,0.1,0,0.1,0c0.1,0,0.1,0.1,0.2,0.1
			c0,0,0.1,0,0.1,0c0.1,0,0.1,0.1,0.2,0.1l0,0c0.1,0,0.2,0.1,0.2,0.1c0.3,0.1,0.7,0.2,1.1,0.3c0.4,0.1,0.7,0.1,1.1,0.1
			c0.1,0,0.1,0,0.2,0c0.1,0,0.2,0,0.2,0c-0.1,0.1-0.2,0.3-0.3,0.4c-0.3,0.4-0.7,0.6-1.2,0.8h0h0c-0.3,0.1-0.6,0.1-0.9,0.1
			c-0.1,0-0.2,0-0.4,0c-0.2,0-0.4-0.1-0.6-0.1l0,0l0,0c-0.1,0-0.1,0-0.2-0.1c0,0-0.1,0-0.1,0l-0.2-0.1c0,0,0,0-0.1,0c0,0,0,0-0.1,0
			h0h0c-0.8-0.3-1.6-0.5-2.3-0.7l0,0l0,0c-0.5-0.1-0.9-0.1-1.3-0.1c0,0,0,0-0.1,0c-0.1,0-0.1,0-0.2,0C42.4,45.3,42.5,45.2,42.7,45.1
			"/>
		<path class="st1" d="M51.7,57.7c0.6,1.7,1.4,3.2,2.4,4.5c2.1,2.6,4.8,4.1,7.7,4.1c2.9,0,5.6-1.4,7.7-4.1c1-1.3,1.8-2.8,2.4-4.5
			c0.6-1.8,0.9-3.7,0.9-5.6c0-2-0.3-3.8-0.9-5.6c-0.6-1.7-1.4-3.2-2.4-4.5c-2.1-2.6-4.8-4.1-7.7-4.1c-2.9,0-5.6,1.4-7.7,4.1
			c-1,1.3-1.8,2.8-2.4,4.5c-0.6,1.8-0.9,3.7-0.9,5.6C50.8,54,51.1,55.9,51.7,57.7 M57.2,51.8V52v0.6h0.5v-0.7v0v0h0h0.3h0h0.2h0.1
			v0.1V52v0.5h0.5v-0.7v-0.1h0.4l0,0.1l0.3,0.8l-0.4,0.6L59,53.5h-0.3h-0.6h0h-0.6h-0.3L57,53.2l-0.4-0.6l0.3-0.9L57.2,51.8
			L57.2,51.8L57.2,51.8z M66.4,51.8L66.4,51.8h0.4l0.2,0.9l-0.4,0.6l-0.2,0.3h-0.3h-0.6h0h-0.6h-0.3l-0.2-0.3l-0.4-0.6l0.3-0.8
			l0-0.1h0.4v0.1v0.7h0.5V52v-0.2v-0.1h0.1h0.2h0h0.3h0v0.1v0v0.7h0.5V52L66.4,51.8L66.4,51.8z M67,56.7h-1V56
			c0-0.3-0.2-0.5-0.5-0.5s-0.5,0.2-0.5,0.5v0.7h-0.9v-0.2l0.2-0.2c0,0,0.1-0.1,0.1-0.2l0.4-2.2h0.7h0h0.7l0.4,2.2
			c0,0.1,0,0.1,0.1,0.2l0.2,0.2V56.7L67,56.7z M63.3,58.1v-0.7h0.5H65v0.7H63.3z M61.1,57.3h1.6v0.7h-1.6V57.3z M58.8,58.1v-0.7h1
			h0.6v0.7H58.8z M60,56.2L59.8,56l-0.1-0.6l0.7-1l0.4,0.5C60.9,55,61,55,61.1,55c0.1,0,0.1,0,0.2-0.1c0.1-0.1,0.2-0.3,0-0.4
			L61,54.1l0.3-0.5c0.4,0.2,1,0.2,1.3,0l1.3,1.8L63.9,56l-0.2,0.2c-0.1,0.1-0.1,0.1-0.1,0.2v0.3h-0.4c0,0,0,0-0.1,0c0,0,0,0-0.1,0
			h-2.1c0,0,0,0-0.1,0c0,0,0,0-0.1,0h-0.6v-0.3C60.1,56.3,60.1,56.3,60,56.2 M60,52.5l-0.2-0.7l-0.1-0.2l-0.1-0.4h-0.4H59
			c0.4-1.2,1.5-2,2.8-2c1.3,0,2.4,0.8,2.8,2h-0.3H64l-0.1,0.4l-0.1,0.2l-0.2,0.7l-0.1,0.2l0.1,0.2l0.5,0.9l0,0.1l-0.1,0.7L63,52.9
			c-0.1-0.1-0.1-0.1-0.2-0.1c-0.1,0-0.2,0-0.2,0.1c-0.2,0.2-0.8,0.3-1.1,0c-0.1-0.1-0.2-0.1-0.3-0.1c-0.1,0-0.2,0.1-0.2,0.1
			l-0.4,0.6l-0.1,0c-0.1-0.1-0.3,0-0.4,0.1l-0.6,0.9l-0.1-0.7l0-0.1l0.5-0.9l0.1-0.2L60,52.5z M58.4,51.3h-0.3h0h-0.2
			c0.2-0.8,0.6-1.5,1.2-2c0.7-0.7,1.7-1.1,2.7-1.1c1,0,2,0.4,2.7,1.1c0.6,0.5,1,1.2,1.2,2h-0.2h0h-0.3h0c-0.4-1.5-1.8-2.6-3.4-2.6
			C60.2,48.7,58.8,49.8,58.4,51.3L58.4,51.3z M57,56.2l0.4-2.2h0.7h0h0.7l0.4,2.2c0,0.1,0,0.1,0.1,0.2l0.2,0.2v0.2h-1c0,0,0,0,0,0
			V56c0-0.3-0.2-0.5-0.5-0.5c-0.3,0-0.5,0.2-0.5,0.5v0.7h-0.9v-0.2l0.2-0.2C56.9,56.3,56.9,56.2,57,56.2 M56.3,57.3h1.4h0.5v0.7
			h-5.6c-0.1-0.2-0.1-0.4-0.2-0.6c0,0,0-0.1,0-0.1H56.3z M71.3,57.5c-0.1,0.2-0.1,0.4-0.2,0.6h-5.5v-0.7H66h1.4h4
			C71.3,57.4,71.3,57.4,71.3,57.5 M67.6,56.7v-0.3c0-0.1,0-0.2-0.1-0.2L67.3,56l-0.4-2.2l0,0l0.5-0.9l0.1-0.2l-0.1-0.2l-0.2-0.9
			l-0.1-0.4h-0.4h-0.4h0c-0.2-0.9-0.7-1.8-1.4-2.5c-0.9-0.8-2-1.2-3.1-1.2c-1.2,0-2.3,0.4-3.1,1.2c-0.7,0.7-1.2,1.5-1.4,2.5h0h-0.4
			h-0.4l-0.1,0.4l-0.3,0.9l-0.1,0.2l0.1,0.2l0.5,0.9l0,0L56.4,56l-0.3,0.2c-0.1,0.1-0.1,0.1-0.1,0.2v0.3h-3.5L61.8,43l9.3,13.7
			L67.6,56.7L67.6,56.7z M69,61.8c-1.9,2.5-4.5,3.8-7.2,3.8s-5.2-1.4-7.2-3.8c-0.7-0.9-1.4-2-1.8-3.1h18.1
			C70.4,59.8,69.7,60.9,69,61.8 M52.3,46.6c0.5-1.6,1.3-3.1,2.3-4.4c1.9-2.5,4.5-3.8,7.2-3.8s5.2,1.4,7.2,3.8c1,1.3,1.8,2.7,2.3,4.4
			c0.6,1.7,0.9,3.5,0.9,5.4c0,1.5-0.2,3-0.6,4.4l-9.5-14.2c-0.1-0.1-0.2-0.1-0.3-0.1c-0.1,0-0.2,0.1-0.3,0.1L52,56.4
			c-0.4-1.4-0.5-2.8-0.5-4.3C51.4,50.1,51.7,48.3,52.3,46.6"/>
		<path class="st1" d="M61.8,52.3c0.4,0,0.7-0.2,1-0.5c0.2-0.2,0.3-0.5,0.3-0.8c0-0.7-0.5-1.2-1.2-1.2s-1.2,0.5-1.2,1.2
			c0,0.3,0.1,0.6,0.3,0.8C61.1,52.1,61.4,52.3,61.8,52.3 M62.6,51.1c0,0.4-0.3,0.7-0.7,0.8c0,0,0,0,0,0c0,0,0,0,0,0
			c-0.4,0-0.7-0.4-0.7-0.8c0-0.4,0.3-0.8,0.8-0.8S62.6,50.6,62.6,51.1"/>
		<path class="st1" d="M81.4,47.6L81.4,47.6L81.4,47.6c0,0-0.7-0.3-1.5-0.2c-0.6,0-1.1,0.2-1.7,0.4c-1.6,0.8-2.1,2.1-2.1,2.3
			c-0.2,0.5-0.1,1,0.1,1.4c0.3,0.6,1,1,1.7,1c0.2,0,0.5-0.1,0.7-0.2c0.1-0.1,0.3-0.2,0.4-0.3c0.2,0.2,0.5,0.2,0.8,0.2
			c0.2,0,0.4-0.1,0.6-0.2c0.5-0.2,0.7-0.7,0.8-1.1c0.1,0,0.3-0.1,0.4-0.1c0.9-0.4,1.2-1.5,0.8-2.4C82.1,48,81.8,47.7,81.4,47.6
			 M81.1,47.7C81.1,47.7,81.1,47.7,81.1,47.7C81.1,47.7,81.1,47.7,81.1,47.7C81.1,47.7,81.1,47.7,81.1,47.7
			C81.1,47.7,81.1,47.7,81.1,47.7 M79.9,47.8L79.9,47.8c0.4,0,0.8,0,1,0.1l0,0c0-0.1,0-0.1,0.1-0.2c0,0-0.1,0.1-0.1,0.2
			c0,0,0,0.1,0,0.1c0.1,0.4-0.3,0.7-0.5,0.8c-0.6,0.3-1.4-0.2-1.8-0.7C79.1,47.9,79.5,47.9,79.9,47.8 M78.6,48.1
			C78.6,48.1,78.6,48.1,78.6,48.1C78.6,48.1,78.6,48.1,78.6,48.1C78.5,48,78.4,48,78.3,48C78.4,48,78.5,48,78.6,48.1 M76.6,50.2
			c0.1-0.2,0.4-1.1,1.5-1.7c0,0,0-0.1,0-0.1c0-0.1,0-0.1,0-0.2c0,0.1,0,0.1,0,0.2c0,0,0,0.1,0,0.1c0.2,0.6,0.1,1.5-0.5,1.8
			C77.3,50.4,76.8,50.5,76.6,50.2C76.6,50.2,76.6,50.2,76.6,50.2C76.5,50.2,76.5,50.2,76.6,50.2C76.5,50.2,76.5,50.2,76.6,50.2
			L76.6,50.2z M81.3,50.3c-0.2,0.1-0.3,0.1-0.5,0.1c-0.1,0-0.1,0-0.2,0l0,0c0.1,0.4-0.1,0.9-0.5,1.1c-0.1,0.1-0.3,0.1-0.4,0.1
			c-0.3,0-0.7-0.1-0.9-0.4v0c-0.1,0.2-0.3,0.4-0.5,0.5c-0.2,0.1-0.3,0.1-0.5,0.1c-0.5,0-1-0.2-1.2-0.7c-0.1-0.2-0.1-0.3-0.1-0.5
			c-0.1-0.1-0.2-0.1-0.3-0.2c0-0.1-0.1-0.1,0-0.2c0,0.1,0,0.1,0,0.2c0.1,0.1,0.2,0.2,0.3,0.2c0.2,0.1,0.4,0.1,0.6,0.1
			c0.2,0,0.5-0.1,0.7-0.2c0.4-0.2,0.6-0.5,0.8-1c0,0.1,0,0.2,0.1,0.2l0.1,0.4c0,0,0,0,0,0c-0.1,0-0.2,0.2-0.1,0.3
			c0,0.1,0.2,0.2,0.3,0.1s0.2-0.2,0.1-0.3c0-0.1-0.1-0.1-0.1-0.1c0-0.1,0-0.3,0-0.4c0-0.1,0-0.2,0-0.3c0,0,0-0.1,0-0.1l0.1,0.2
			l0.2,0.3c0.1,0.1,0.2,0.2,0.3,0.3c-0.1,0.1-0.1,0.1-0.1,0.2c0,0.1,0.2,0.2,0.3,0.1s0.2-0.2,0.1-0.3c0-0.1-0.1-0.2-0.2-0.1
			c-0.1-0.1-0.1-0.3-0.2-0.4l-0.1-0.3l-0.1-0.1c0,0,0.1,0,0.1,0.1c0.1,0.1,0.2,0.1,0.3,0.2c0.1,0,0.2,0.1,0.3,0.1c0,0,0,0.1,0,0.1
			c0,0.1,0.2,0.2,0.3,0.1c0.1,0,0.2-0.2,0.1-0.3s-0.2-0.2-0.3-0.1c0,0,0,0-0.1,0c-0.1-0.1-0.1-0.1-0.2-0.2c0,0-0.1-0.1-0.1-0.1
			c0.2,0,0.3,0.1,0.5,0c0.2,0,0.4-0.1,0.6-0.2c0.4-0.2,0.8-0.6,0.8-1.1c0-0.1,0-0.2,0-0.3c0,0,0,0,0,0c0,0,0,0,0,0
			c0,0.1,0,0.2,0,0.3c0.2,0.1,0.3,0.3,0.4,0.5C82.2,49.2,81.9,50,81.3,50.3"/>
		<path class="st1" d="M76,49.3c0.3-0.4,0.3-1,0.3-1.1c0-0.1-0.1-0.2-0.2-0.2c0,0-0.7,0-1.1,0.5c-0.4,0.5-0.2,1.1-0.2,1.2
			c0,0.1,0,0.1,0.1,0.1c0,0,0.1,0,0.1,0C75,49.8,75.6,49.7,76,49.3 M75.6,49c-0.1,0.2-0.3,0.2-0.4,0.3c0-0.1,0-0.3,0.1-0.5
			c0.1-0.2,0.3-0.2,0.4-0.3C75.8,48.7,75.7,48.9,75.6,49"/>
		<path class="st1" d="M75.1,51.3c-0.2,0.1-0.2,0.3-0.1,0.5c0.1,0.2,0.3,0.2,0.5,0.1c0.2-0.1,0.2-0.3,0.1-0.5
			C75.4,51.2,75.2,51.2,75.1,51.3"/>
		<path class="st1" d="M76.1,53.1c0.2-0.1,0.2-0.3,0.1-0.5c-0.1-0.2-0.3-0.2-0.5-0.1c-0.2,0.1-0.2,0.3-0.1,0.5
			C75.8,53.2,76,53.2,76.1,53.1"/>
		<path class="st1" d="M77.1,53c-0.2,0.1-0.2,0.3-0.1,0.5c0.1,0.2,0.3,0.2,0.5,0.1c0.2-0.1,0.2-0.3,0.1-0.5
			C77.5,53,77.3,52.9,77.1,53"/>
		<path class="st1" d="M48.2,50.2C48.2,50.2,48.2,50.2,48.2,50.2C48.1,50.2,48.1,50.2,48.2,50.2c-0.1-0.1-0.1-0.1-0.1-0.1
			c0,0,0,0,0,0c0,0,0,0,0,0c0,0,0,0,0,0s0,0,0,0h0c0,0,0,0,0,0c0,0,0,0,0,0c0,0,0,0,0,0c0,0,0,0,0,0c0,0,0,0,0,0c0,0,0,0,0,0
			c0,0,0,0-0.1,0c-0.1,0.1-0.2,0.3,0,0.5c0,0,0,0,0.1,0c0,0,0,0,0,0c0,0,0,0,0,0c0,0,0,0,0,0c0,0,0,0,0,0c0,0,0,0,0,0c0,0,0,0,0,0h0
			c0,0,0,0,0,0c0,0,0,0,0,0c0,0,0,0,0,0c0,0,0,0,0,0c0,0,0,0,0,0c0,0,0,0,0,0c0,0,0,0,0.1,0C48.3,50.6,48.3,50.3,48.2,50.2"/>
		<path class="st1" d="M46.9,52C46.9,52,46.9,52,46.9,52C46.9,52.1,46.9,52.1,46.9,52C47,52.1,47,52.1,46.9,52
			c0.1,0.1,0.1,0.1,0.1,0.1c0,0,0,0,0,0c0,0,0,0,0,0h0c0,0,0,0,0,0c0,0,0,0,0,0c0,0,0,0,0,0c0,0,0,0,0,0c0,0,0,0,0,0c0,0,0,0,0,0
			c0,0,0,0,0.1,0c0.1-0.1,0.2-0.4,0-0.5c0,0,0,0-0.1-0.1c0,0,0,0,0,0c0,0,0,0,0,0c0,0,0,0,0,0c0,0,0,0,0,0c0,0,0,0,0,0c0,0,0,0,0,0
			h0c0,0,0,0,0,0c0,0,0,0,0,0s0,0,0,0c0,0,0,0,0,0c0,0,0,0,0,0s0,0,0,0c0,0,0,0-0.1,0C46.7,51.6,46.7,51.8,46.9,52
			C46.9,52,46.9,52,46.9,52"/>
		<path class="st1" d="M47.2,49.8c0-0.2,0-0.4-0.1-0.6c-0.1-0.3-0.3-0.6-0.3-0.7c0,0,0,0,0,0c0,0,0,0,0,0c0,0,0,0,0,0c0,0,0,0,0,0
			c0,0,0,0,0,0c0,0,0,0,0,0c0,0,0,0,0,0c0,0,0,0-0.1,0l0,0h0c0,0,0,0-0.1,0c0,0,0,0,0,0c0,0,0,0-0.1,0c0,0,0,0,0,0
			c0,0-0.1,0-0.1,0.1c-0.2,0.2-0.6,0.5-0.7,1c0,0,0,0.1,0,0.2c0,0,0,0.1,0,0.1c0,0,0,0.1,0,0.1c0,0,0,0.1,0,0.1c0,0.1,0,0.2,0.1,0.3
			c0,0.1,0,0.1,0.1,0.2c0.1,0.2,0.2,0.3,0.2,0.4c0.1,0.1,0.2,0.2,0.2,0.2c0,0,0.1,0.1,0.2,0.1s0.1,0,0.2-0.1c0,0,0,0,0,0
			c0,0,0,0,0,0c0,0,0,0,0,0c0.1-0.1,0.2-0.2,0.2-0.3c0-0.1,0.1-0.1,0.1-0.2C47.1,50.3,47.2,50.1,47.2,49.8 M46.7,49.8
			c0,0.1,0,0.2-0.1,0.3c0,0.1-0.1,0.1-0.1,0.2c0,0-0.1,0.1-0.1,0.1c0,0-0.1,0.1-0.1,0.1c0-0.1-0.1-0.2-0.1-0.3c0,0,0-0.1,0-0.1
			c0,0,0-0.1,0-0.1c0-0.1,0-0.2,0-0.3c0-0.1,0-0.1,0-0.2c0-0.1,0.1-0.2,0.2-0.3c0-0.1,0.1-0.1,0.1-0.2c0,0,0,0,0.1-0.1
			C46.6,49.2,46.7,49.5,46.7,49.8"/>
		<path class="st1" d="M40.5,50.9c-0.1,0.7,0.5,1.3,1.2,1.4c0,0,0.1,0,0.1,0c0,0,0,0,0,0c0,0,0,0,0.1,0c0,0,0.1,0,0.1,0
			c0,0,0,0,0.1,0c0,0,0.1,0,0.1,0c0,0,0,0,0.1,0c0.1,0,0.1,0,0.1-0.1c0.2,0.4,0.6,0.6,1,0.6c0,0,0.1,0,0.1,0c0.2,0,0.3,0,0.4-0.1
			c0.1-0.1,0.3-0.1,0.4-0.2c0,0,0.1-0.1,0.1-0.1c0.1-0.1,0.2-0.2,0.2-0.4c0.1,0,0.2,0.1,0.2,0.1c0.1,0,0.2,0,0.3,0
			c0.1,0,0.1,0,0.2,0c0,0,0.1,0,0.1,0l0.5-0.1l-0.3-0.4c-0.1-0.1-1.2-1.5,0-3.4l0.1-0.1L45.6,48l0,0c0,0,0,0,0,0c0,0,0,0,0,0
			c0,0,0,0,0,0l0,0c0,0,0,0,0-0.1l0,0c0,0,0,0-0.1-0.1l0,0c0,0,0,0-0.1-0.1c0,0,0,0,0,0c0,0-0.1-0.1-0.1-0.1l0,0
			c0,0-0.1-0.1-0.1-0.1c0,0,0,0,0,0c0,0-0.1-0.1-0.1-0.1c0,0,0,0,0,0c0,0-0.1-0.1-0.1-0.1c0,0,0,0,0,0c-0.1,0-0.1-0.1-0.2-0.1
			c0,0,0,0,0,0c-0.1,0-0.1-0.1-0.2-0.1c0,0,0,0,0,0c-0.1,0-0.1,0-0.2-0.1c0,0,0,0,0,0c-0.1,0-0.1,0-0.2-0.1c0,0,0,0,0,0
			c-0.1,0-0.2,0-0.2,0c0,0,0,0,0,0c-0.1,0-0.2,0-0.3,0c0,0,0,0,0,0c-0.1,0-0.2,0-0.3,0c0,0,0,0,0,0s0,0,0,0c-0.1,0-0.1,0-0.2,0
			c0,0,0,0-0.1,0c-0.1,0-0.2,0-0.3,0c0,0,0,0-0.1,0c-0.1,0-0.2,0-0.2,0c0,0-0.1,0-0.1,0c-0.1,0-0.2,0-0.3,0.1l-0.1,0l0,0.1
			c-0.1,0.2-0.1,0.5-0.1,0.8c-0.6,0.1-1,0.6-1.1,1.2c0,0.4,0.1,0.8,0.4,1C40.6,50.4,40.5,50.6,40.5,50.9 M42,47.5
			c0.1,0,0.2,0,0.3-0.1c0,0,0.1,0,0.1,0c0.1,0,0.1,0,0.2,0c0,0,0.1,0,0.1,0c0.1,0,0.1,0,0.2,0c0,0,0.1,0,0.1,0c0,0,0,0,0,0
			c0.1,0,0.1,0,0.2,0c0,0,0,0,0,0c0.1,0,0.2,0,0.2,0c0,0,0,0,0.1,0c0.1,0,0.1,0,0.2,0c0,0,0,0,0.1,0c0,0,0.1,0,0.1,0c0,0,0,0,0.1,0
			c0.1,0,0.1,0,0.2,0.1c0,0,0,0,0,0c0.1,0,0.1,0,0.2,0.1c0,0,0,0,0,0c0,0,0.1,0,0.1,0c0,0,0,0,0,0c0,0,0.1,0,0.1,0.1c0,0,0,0,0,0
			c0,0,0.1,0,0.1,0.1l0,0c0,0,0.1,0,0.1,0.1c0,0,0,0,0,0c0,0,0,0,0.1,0c0,0,0,0,0,0c0,0,0,0,0.1,0c0,0,0,0,0,0c0,0,0,0,0.1,0.1
			c-0.2,0.4-0.4,0.8-0.5,1.2c0,0.2-0.1,0.4-0.1,0.6c0,0.4,0.1,0.7,0.2,1c0,0.1,0,0.1,0.1,0.2c0.1,0.2,0.1,0.3,0.2,0.4
			c-0.1,0-0.2-0.1-0.3-0.1c0,0,0,0,0,0c-0.1,0-0.1-0.1-0.1-0.2c0-0.1-0.1-0.1-0.1-0.2l0,0l0,0c0-0.1,0-0.2,0-0.2l0-0.2h-0.2h0
			c0,0,0,0,0,0c0,0-0.1,0-0.1,0l0,0c-0.1,0-0.2,0-0.3-0.1l0,0c0,0-0.1,0-0.1-0.1c0,0-0.1-0.1-0.1-0.1c-0.1-0.2-0.1-0.3-0.1-0.5
			c0-0.1,0-0.1,0-0.1l0-0.3l0,0l0-0.1h0l-0.3,0c0,0-0.1,0-0.1,0c0,0,0,0,0,0c0,0,0,0,0,0c0,0-0.1,0-0.1,0c0,0,0,0,0,0c0,0,0,0-0.1,0
			c0,0,0,0,0,0c0,0-0.1,0-0.1,0c0,0,0,0-0.1,0c0,0,0,0,0,0c-0.1-0.1-0.1-0.2-0.1-0.2l0,0c0,0,0-0.1,0-0.1c0,0,0-0.1,0-0.1
			c0,0,0,0,0-0.1c0,0,0,0,0,0c0,0,0,0,0,0l0-0.1l0-0.1l-0.2-0.1c-0.1-0.1-0.2-0.2-0.3-0.2l0,0C42.1,48.2,42,48.1,42,48
			c0-0.1,0-0.2,0-0.3C42,47.7,42,47.6,42,47.5 M42.4,49.8L42.4,49.8c0,0,0.1,0.1,0.1,0.1c0,0,0.1,0.1,0.1,0.1c0.1,0,0.2,0.1,0.3,0.1
			c0,0.2,0,0.4,0.2,0.6c0,0-0.1,0-0.1,0h0c0,0,0,0-0.1,0c-0.1,0-0.2,0-0.3-0.1c-0.1,0-0.2-0.1-0.2-0.2c-0.1-0.1-0.1-0.2-0.1-0.2
			s0-0.2,0-0.3C42.4,49.9,42.4,49.9,42.4,49.8 M40.9,49.2c0-0.1,0-0.1,0-0.1c0,0,0,0,0,0c0,0,0-0.1,0-0.1c0,0,0,0,0,0
			c0,0,0-0.1,0-0.1c0,0,0,0,0,0c0,0,0,0,0.1-0.1c0,0,0,0,0,0c0,0,0,0,0.1,0c0,0,0,0,0.1,0c0,0,0,0,0.1,0c0,0,0,0,0.1,0
			c0,0,0,0,0.1,0c0,0,0,0,0.1,0s0,0,0.1,0h0c0,0,0.1,0.1,0.1,0.1c0.1,0.1,0.2,0.2,0.3,0.3c0,0.1,0,0.1,0,0.2c0,0.1,0,0.1,0,0.2
			c-0.1,0.2-0.2,0.4-0.3,0.6c0,0.1,0,0.2,0,0.4c0,0.2,0.1,0.4,0.3,0.5c0.1,0.1,0.1,0.1,0.2,0.2c0.2,0.1,0.4,0.2,0.7,0.3
			c0,0,0.1,0,0.1,0c0.1,0,0.3,0,0.4-0.1c0,0,0.1,0,0.1,0c0.1,0,0.1,0.1,0.2,0.1c0.1,0,0.1,0,0.2,0c0,0.1,0.1,0.2,0.1,0.3
			c0,0,0.1,0.1,0.1,0.1c0,0,0,0.1,0,0.1c0,0,0,0.1-0.1,0.1c0,0.1-0.1,0.1-0.2,0.2c0,0-0.1,0.1-0.1,0.1c0,0,0,0,0,0c0,0-0.1,0-0.1,0
			c0,0,0,0-0.1,0c0,0-0.1,0-0.1,0c0,0,0,0-0.1,0c0,0,0,0-0.1,0c0,0,0,0-0.1,0c-0.3,0-0.6-0.3-0.7-0.6l-0.1-0.4l-0.3,0.3
			c0,0-0.1,0.1-0.1,0.1c0,0,0,0,0,0c0,0-0.1,0-0.1,0c0,0,0,0-0.1,0c0,0-0.1,0-0.1,0c0,0,0,0-0.1,0c0,0,0,0-0.1,0c0,0,0,0-0.1,0
			c-0.4,0-0.7-0.4-0.7-0.8c0,0,0-0.1,0-0.1c0-0.1,0-0.2,0.1-0.2c0,0,0.1-0.1,0.1-0.1c0,0,0.1-0.1,0.1-0.1l0.4-0.2L41.3,50
			c-0.1,0-0.1-0.1-0.2-0.1c0,0-0.1-0.1-0.1-0.1c-0.1-0.1-0.1-0.3-0.2-0.4C40.9,49.3,40.9,49.2,40.9,49.2"/>
		<path class="st1" d="M48.4,49c0-0.1,0-0.1,0-0.2l0,0c0-0.1,0-0.1-0.1-0.2c0,0,0,0-0.1,0c0,0,0,0,0,0c0,0,0,0,0,0c0,0,0,0,0,0
			c0,0,0,0,0,0c0,0,0,0,0,0c0,0,0,0,0,0h0c0,0,0,0,0,0c0,0,0,0,0,0s0,0,0,0c0,0,0,0,0,0c0,0,0,0,0,0c0,0,0,0,0,0c0,0,0,0-0.1,0l0,0
			c-0.1,0-0.1,0.1-0.1,0.2c0,0.1,0,0.2,0.1,0.3c0,0,0,0,0.1,0c0,0,0,0,0,0c0,0,0,0,0,0c0,0,0,0,0,0c0,0,0,0,0,0c0,0,0,0,0,0
			c0,0,0,0,0,0h0c0,0,0,0,0,0c0,0,0,0,0,0s0,0,0,0c0,0,0,0,0,0c0,0,0,0,0,0c0,0,0,0,0,0c0,0,0,0,0.1,0C48.3,49.1,48.3,49.1,48.4,49
			L48.4,49z"/>
		<path class="st1" d="M53.8,48.4L53.8,48.4H56h0c0.4,0,0.8-0.4,0.8-0.8c0-0.2-0.1-0.4-0.2-0.6c-0.1-0.1-0.3-0.2-0.5-0.2
			c-0.1-0.1-0.1-0.2-0.2-0.2l0,0c-0.1-0.1-0.2-0.2-0.3-0.2c-0.1-0.1-0.2-0.1-0.4-0.1c-0.1,0-0.1,0-0.2,0c-0.5,0-0.9,0.2-1.1,0.6
			c0,0-0.1,0-0.1,0c0,0,0,0,0,0s0,0-0.1,0h0c-0.2,0-0.4,0.1-0.5,0.2c-0.1,0.1-0.2,0.3-0.3,0.5c0,0.2,0,0.4,0.2,0.6
			C53.3,48.2,53.5,48.4,53.8,48.4 M53.5,47.4C53.5,47.4,53.5,47.4,53.5,47.4c0.1-0.1,0.1-0.1,0.2-0.2c0,0,0.1,0,0.1,0c0,0,0,0,0,0
			l0,0c0,0,0.1,0,0.1,0c0,0,0,0,0,0c0,0,0.1,0,0.1,0c0,0,0,0,0,0l0.1,0c0,0,0,0,0.1,0c0,0,0,0,0,0s0,0,0,0c0,0,0,0,0,0l0,0
			c0,0,0,0,0,0l0,0c0,0,0,0,0,0l0-0.1c0,0,0-0.1,0-0.1c0.1-0.3,0.4-0.5,0.7-0.5c0.1,0,0.1,0,0.2,0c0.1,0,0.2,0.1,0.3,0.1
			s0.2,0.1,0.2,0.2c0,0,0,0.1,0,0.1l0.1,0.1l0.1,0c0,0,0,0,0,0c0,0,0,0,0,0c0.2,0,0.3,0.2,0.3,0.4c0,0,0,0,0,0.1
			c0,0.1-0.1,0.1-0.2,0.2c0,0-0.1,0-0.2,0h-2.2c-0.1,0-0.3-0.1-0.3-0.2c0,0,0-0.1,0-0.1C53.5,47.5,53.5,47.5,53.5,47.4"/>
		<path class="st1" d="M56.8,43.3L56.8,43.3h2.2l0,0c0.4,0,0.8-0.4,0.8-0.8c0-0.1,0-0.1,0-0.2c0-0.1,0-0.2-0.1-0.2s-0.1-0.1-0.1-0.2
			c-0.1-0.1-0.3-0.2-0.5-0.2c-0.2-0.2-0.4-0.4-0.6-0.5c-0.1,0-0.2-0.1-0.3-0.1c-0.1,0-0.1,0-0.2,0c-0.4,0-0.8,0.2-1.1,0.6
			c0,0-0.1,0-0.1,0c0,0,0,0,0,0c0,0,0,0-0.1,0h0c-0.4,0-0.8,0.3-0.8,0.7C56,42.8,56.3,43.2,56.8,43.3 M56.6,42.2
			c0,0,0.1-0.1,0.2-0.1c0,0,0,0,0,0c0,0,0,0,0,0c0,0,0.1,0,0.1,0c0,0,0,0,0,0c0,0,0.1,0,0.1,0c0,0,0,0,0,0l0.1,0c0,0,0,0,0.1,0
			c0,0,0,0,0,0s0,0,0,0c0,0,0,0,0,0l0,0c0,0,0,0,0,0l0,0c0,0,0,0,0,0l0-0.1c0,0,0-0.1,0-0.1c0.1-0.3,0.4-0.5,0.7-0.5
			c0.1,0,0.1,0,0.2,0c0.2,0.1,0.4,0.2,0.5,0.4c0,0,0,0.1,0,0.1l0.1,0.1l0.1,0c0,0,0,0,0,0c0,0,0,0,0,0c0.1,0,0.2,0.1,0.3,0.2
			c0,0,0,0.1,0,0.1c0,0,0,0,0,0.1c0,0,0,0.1,0,0.1c-0.1,0.1-0.2,0.2-0.3,0.2h-2.2c-0.2,0-0.4-0.2-0.3-0.4
			C56.5,42.3,56.6,42.2,56.6,42.2"/>
		<path class="st1" d="M67.2,47c-0.2,0.2-0.2,0.4-0.2,0.6c0,0.4,0.4,0.8,0.8,0.8l0,0H70l0,0c0.3,0,0.6-0.2,0.7-0.5
			c0.1-0.1,0.1-0.3,0.1-0.4c0-0.1,0-0.2-0.1-0.3c-0.1-0.3-0.4-0.4-0.7-0.4h0c0,0,0,0-0.1,0c0,0,0,0,0,0c0,0-0.1,0-0.1,0
			c-0.2-0.4-0.6-0.6-1.1-0.6c-0.1,0-0.1,0-0.2,0c-0.4,0-0.7,0.3-0.9,0.6C67.4,46.8,67.3,46.9,67.2,47 M67.7,47.2
			C67.7,47.2,67.8,47.2,67.7,47.2l0.2,0l0.1-0.1c0,0,0-0.1,0-0.1c0.1-0.1,0.1-0.2,0.2-0.2c0.1-0.1,0.2-0.1,0.3-0.1
			c0.1,0,0.1,0,0.2,0c0.3,0,0.6,0.2,0.7,0.5c0,0,0,0.1,0,0.1l0,0.1c0,0,0,0,0,0l0,0c0,0,0,0,0,0l0,0c0,0,0,0,0,0c0,0,0,0,0,0
			s0,0,0,0c0,0,0,0,0.1,0l0.1,0c0,0,0,0,0,0c0,0,0,0,0.1,0c0,0,0,0,0,0c0,0,0.1,0,0.1,0c0,0,0,0,0,0c0,0,0,0,0,0
			c0.2,0,0.3,0.1,0.3,0.3c0,0.2-0.1,0.4-0.3,0.4h-2.2c-0.1,0-0.1,0-0.2,0c-0.1,0-0.1-0.1-0.2-0.2c0,0,0,0,0-0.1c0,0,0-0.1,0-0.1
			c0-0.1,0.1-0.2,0.2-0.2C67.6,47.3,67.7,47.3,67.7,47.2C67.7,47.2,67.7,47.2,67.7,47.2"/>
		<path class="st1" d="M64.7,43.3L64.7,43.3h2.2l0,0c0.5,0,0.9-0.4,0.8-0.9c0-0.1,0-0.2-0.1-0.3c-0.1-0.2-0.3-0.4-0.6-0.4
			c0,0-0.1,0-0.1,0h0c0,0,0,0-0.1,0c0,0,0,0,0,0c0,0-0.1,0-0.1,0c-0.2-0.4-0.6-0.6-1.1-0.6c-0.2,0-0.3,0-0.5,0.1c0,0-0.1,0-0.1,0
			c-0.1,0-0.1,0.1-0.2,0.1c0,0-0.1,0-0.1,0.1c-0.1,0.1-0.2,0.2-0.2,0.2c0,0-0.1,0-0.1,0c-0.1,0-0.2,0.1-0.2,0.1c0,0-0.1,0-0.1,0.1
			c0,0-0.1,0.1-0.1,0.1c-0.1,0.1-0.1,0.3-0.1,0.5C63.9,42.9,64.3,43.2,64.7,43.3 M64.5,42.2c0,0,0.1-0.1,0.2-0.1l0,0c0,0,0,0,0,0
			c0,0,0,0,0,0l0.1,0l0.1-0.1c0,0,0-0.1,0-0.1c0.1-0.2,0.3-0.3,0.5-0.4c0.1,0,0.1,0,0.2,0c0.3,0,0.6,0.2,0.7,0.5c0,0,0,0.1,0,0.1
			l0,0.1c0,0,0,0,0,0l0,0c0,0,0,0,0,0l0,0c0,0,0,0,0,0c0,0,0,0,0,0s0,0,0,0c0,0,0,0,0.1,0l0.1,0c0,0,0,0,0,0c0,0,0,0,0.1,0
			c0,0,0,0,0,0c0,0,0.1,0,0.1,0c0,0,0,0,0,0c0,0,0,0,0,0c0.1,0,0.1,0,0.2,0.1c0.1,0.1,0.1,0.1,0.1,0.2c0,0.2-0.1,0.4-0.3,0.4h-2.2
			c-0.2,0-0.3-0.1-0.3-0.3C64.4,42.4,64.4,42.3,64.5,42.2"/>
		<path class="st1" d="M80.9,70l-2.2-1.3v-5.2c0.4-0.5,0.7-1.1,0.6-1.8c0,0,0,0,0,0c0.1,0,0.2,0,0.3,0c0.1,0,0.2,0,0.3,0
			c0.7-0.1,1.4-0.4,1.9-1c0.5-0.6,0.7-1.3,0.6-2c-0.1-1.1-0.8-2-1.7-2.4c-0.1-1.2-1.1-2.1-2.3-2.1c-0.1,0-0.1,0-0.2,0
			c-1.1,0.1-2,1-2.1,2c-1.1,0.5-1.9,1.6-1.7,2.9c0,0.1,0,0.3,0.1,0.4c0,0.1-0.1,0.2-0.1,0.4c-0.9,0.4-1.4,1.3-1.3,2.3
			c0.1,1.2,1.1,2,2.2,2c0.1,0,0.1,0,0.2,0c0.1,0,0.3,0,0.4-0.1V67l-4.6-2.7l-9.9,6.4l-10.4-7.1L48,65.3v-2.2h2
			c0.2,0,0.4-0.1,0.5-0.3c0.1-0.2,0.1-0.4,0-0.6l-0.6-1.1c0.1,0,0.1-0.1,0.2-0.2c0.1-0.2,0.1-0.4,0-0.6l-0.5-0.9c0,0,0,0,0,0
			c0.1-0.2,0.1-0.4,0-0.6L49.1,58c0.1-0.2,0.1-0.4,0-0.5l-0.5-0.8l-0.5-0.8c-0.1-0.2-0.3-0.3-0.5-0.3c-0.2,0-0.4,0.1-0.5,0.3
			l-0.9,1.6c-0.1,0.2-0.1,0.4,0,0.5l-0.2,0.3l-0.7-1.2c0,0,0,0,0,0c0.1-0.2,0.1-0.4,0-0.6l-1.1-2c-0.1-0.2-0.3-0.3-0.5-0.3
			c-0.2,0-0.4,0.1-0.5,0.3l-1.1,2c-0.1,0.2-0.1,0.4,0,0.6c0,0,0,0,0,0l-0.7,1.2c-0.1,0.2-0.1,0.4,0,0.6c0,0,0.1,0.1,0.1,0.1L41,60.2
			c-0.1,0.2-0.1,0.4,0,0.6c0.1,0.1,0.2,0.2,0.4,0.3l-0.8,1.4c-0.1,0.2-0.1,0.4,0,0.6c0.1,0.2,0.3,0.3,0.5,0.3h2.5v4.4c0,0,0,0,0,0.1
			l-2.2,1.2c3.4,5.8,9.5,10.1,16.5,11.3l0.6-0.5c-2.9-0.4-5.9-1.5-8.4-2.9c-3.2-1.9-5.9-4.5-7.8-7.6l8.8-4.7L63,72.6
			c0.1,0,0.1,0.1,0.2,0.1c0.1,0,0.2,0,0.3-0.1c0.1-0.1,0.1-0.3-0.1-0.4L62,71.1l9.4-6l8.7,5.1l-0.1,0.2c-2,2.8-4.7,5.2-7.8,6.8
			c-1.6,0.8-3.3,1.5-5.1,1.9c-1,0.2-1.8,0.3-2.8,0.5l0.6,0.5c6.6-0.9,11.8-4.4,15.7-9.6c0,0,0.1-0.1,0.1-0.2
			C80.7,70.3,80.8,70.1,80.9,70 M43.8,59.1c-0.2,0-0.3,0.1-0.3,0.3v0.7l-0.3-0.4c-0.1-0.1-0.3-0.1-0.4,0c-0.1,0.1-0.1,0.3,0,0.4
			l0.8,0.9v1.7H41l1.3-2.2h-0.8l1-1.8H42l0.9-1.6l0.1-0.2h-0.4l1.1-2l1.1,2h-0.4l0.1,0.2l0.9,1.6h-0.4l0.6,1l0.3,0.6l0.1,0.2h-0.8
			l0.5,0.9l0.1,0.2l0.6,1l0.1,0.1h-2.5v-0.4l0.8-0.9c0.1-0.1,0.1-0.3,0-0.4c-0.1-0.1-0.3-0.1-0.4,0l-0.3,0.4v-2
			C44.1,59.2,44,59.1,43.8,59.1 M47.4,65.6l-3.3,1.8v-4.1h2.5c0.1,0,0.2,0,0.3-0.1h0.4V65.6z M47.7,59.2c-0.2,0-0.3,0.1-0.3,0.3v0.3
			l-0.1-0.1c-0.1-0.1-0.3-0.1-0.4,0c-0.1,0.1-0.1,0.3,0,0.4l0.5,0.6v1.9h-0.2c0-0.1,0-0.1-0.1-0.2L46.4,61c0.1,0,0.2-0.1,0.3-0.2
			c0.1-0.2,0.1-0.4,0-0.6l-0.3-0.5l0.2-0.4h-0.4l0.7-1.3l0.1-0.2h-0.3l0.9-1.6l0.5,0.8l0.5,0.8h-0.3l0.1,0.2l0.7,1.3h-0.4l0.9,1.5
			H49l1,1.8h-2v-0.5l0.5-0.6c0.1-0.1,0.1-0.3,0-0.4c-0.1-0.1-0.3-0.1-0.4,0L48,61.2v-1.7C48,59.3,47.9,59.2,47.7,59.2 M76.8,56.7
			C76.8,56.7,76.8,56.7,76.8,56.7c-0.1-1,0.6-1.8,1.5-1.9c0.1,0,0.1,0,0.2,0c0.9,0,1.6,0.7,1.7,1.5c0,0.1,0,0.3,0,0.4
			c0.9,0.2,1.7,1,1.8,2c0.1,1.2-0.8,2.3-2,2.4c-0.1,0-0.1,0-0.2,0c-0.2,0-0.3,0-0.5-0.1c-0.1-0.3-0.3-0.5-0.5-0.7V60l1.1-0.9
			c0.1-0.1,0.1-0.3,0-0.4c-0.1-0.1-0.3-0.1-0.4,0l-0.7,0.6v-1.7c0-0.2-0.1-0.3-0.3-0.3c-0.2,0-0.3,0.1-0.3,0.3v0.6l-0.6-0.5
			c-0.1-0.1-0.3-0.1-0.4,0c-0.1,0.1-0.1,0.3,0,0.4l1,0.9v1c0,0-0.1,0-0.1,0c-0.1-0.9-0.9-1.6-1.8-1.6c-0.1,0-0.1,0-0.2,0
			c-0.4,0-0.7,0.2-1,0.4C75.1,57.8,75.8,56.9,76.8,56.7 M78.1,68.3l-1.6-1v-3.3c0.2,0.1,0.4,0.1,0.6,0.1c0.1,0,0.1,0,0.2,0
			c0.3,0,0.5-0.1,0.8-0.2L78.1,68.3L78.1,68.3z M78.6,62.7C78.6,62.7,78.5,62.8,78.6,62.7c-0.1,0.1-0.1,0.1-0.1,0.1
			c0,0,0,0.1-0.1,0.1c0,0,0,0,0,0c0,0-0.1,0.1-0.1,0.1c0,0,0,0,0,0c0,0-0.1,0.1-0.1,0.1l0,0c0,0-0.1,0.1-0.1,0.1
			c-0.2,0.2-0.5,0.3-0.8,0.3c-0.1,0-0.1,0-0.2,0c-0.2,0-0.4,0-0.6-0.1v-0.6l0.8-0.7c0.1-0.1,0.1-0.3,0-0.4c-0.1-0.1-0.3-0.1-0.4,0
			L76.5,62v-1.1c0-0.2-0.1-0.3-0.3-0.3c-0.2,0-0.3,0.1-0.3,0.3v0.3l-0.3-0.3c-0.1-0.1-0.3-0.1-0.4,0c-0.1,0.1-0.1,0.3,0,0.4l0.7,0.6
			v1.5c-0.1,0.1-0.3,0.1-0.5,0.1c-0.1,0-0.1,0-0.2,0c-0.8,0-1.6-0.6-1.6-1.5c-0.1-0.8,0.4-1.5,1.1-1.7c0.1,0,0.1,0,0.2,0l0,0
			c0,0,0,0,0-0.1c0-0.1,0-0.1,0-0.2c0,0,0,0,0,0c0-0.1,0-0.1,0-0.2l0,0c0-0.1,0-0.1,0-0.2c0,0,0,0,0,0c0-0.1,0-0.1,0.1-0.2
			c0.2-0.4,0.6-0.6,1-0.7c0,0,0.1,0,0.1,0c0.6,0,1.2,0.5,1.2,1.1c0,0.1,0,0.2,0,0.3c0.3,0.1,0.5,0.2,0.7,0.3
			c0.1,0.1,0.1,0.1,0.2,0.2c0,0,0.1,0.1,0.1,0.1c0,0,0,0,0,0c0,0,0.1,0.1,0.1,0.1c0,0,0,0,0,0c0,0.1,0.1,0.1,0.1,0.2c0,0,0,0,0,0.1
			c0,0,0,0.1,0,0.1c0,0,0,0.1,0,0.1c0,0.1,0,0.1,0,0.2c0,0.2,0,0.3,0,0.5C78.7,62.4,78.7,62.5,78.6,62.7
			C78.6,62.7,78.6,62.7,78.6,62.7"/>
		<path class="st1" d="M61,80.2l5.5,4.7c0.1,0.1,0.3,0.2,0.4,0.2c0,0,0,0,0,0c0.1,0,0.1,0,0.2,0c0.1,0,0.1,0,0.2,0
			c0.2,0,0.3-0.1,0.4-0.3c0.1-0.1,0.2-0.3,0.2-0.4c0-0.1,0-0.1,0-0.2c0-0.1,0-0.3-0.1-0.4c0-0.1-0.1-0.1-0.2-0.2l-5-4.2l4-3.4
			l0.2,0.2c0.1,0.1,0.3,0.2,0.5,0.2H68c0,0,0,0,0,0c0.3,0,0.5-0.2,0.6-0.5l0.1-0.7l0,0c0-0.2,0-0.4-0.2-0.5l-1.6-1.7
			c-0.2-0.3-0.6-0.3-0.9-0.1l-0.8,0.7c-0.2,0.2-0.3,0.6,0,0.9l0.3,0.3l-4.1,3.5l-4.2-3.5l0.1-0.2c0,0,0-0.1,0.1-0.1l0,0
			c0.1-0.1,0.2-0.3,0.2-0.5l-0.1-0.7c0-0.3-0.3-0.5-0.6-0.5l-0.7,0c-0.2,0-0.3,0.1-0.5,0.2l-1.4,1.5c0,0,0,0.1-0.1,0.1l0,0
			c-0.1,0.1-0.2,0.3-0.2,0.5l0.1,0.7c0,0.3,0.2,0.5,0.5,0.5c0,0,0,0,0.1,0h0.7c0.2,0,0.3-0.1,0.5-0.2l0.1-0.1l4.8,4.1l-5.1,4.3
			c0,0-0.1,0.1-0.2,0.1c-0.1,0-0.1,0-0.2-0.1c0,0-0.1-0.1-0.1-0.2c0-0.1,0-0.1,0.1-0.2l4.7-4l0,0l0.3-0.3l-0.5-0.4l-5,4.2
			c-0.1,0.1-0.1,0.1-0.2,0.2c-0.1,0.1-0.1,0.2-0.1,0.4c0,0.1,0,0.1,0,0.2c0,0.2,0.1,0.3,0.2,0.4c0.1,0.1,0.3,0.2,0.4,0.3
			c0.1,0,0.1,0,0.2,0c0.1,0,0.1,0,0.2,0c0,0,0,0,0,0c0.2,0,0.3-0.1,0.4-0.2l4.9-4.1l0.3-0.3L61,80.2z M66.4,73.4
			C66.4,73.4,66.4,73.4,66.4,73.4l1.6,1.7c0,0,0,0,0,0l0,0l-0.1,0.7h-0.7l0,0c0,0,0,0,0,0l-0.9-1l-0.6-0.7c0,0,0,0,0,0L66.4,73.4z
			 M61.8,78.7l4.1-3.5l0.3,0.4l-4,3.4l-0.7-0.6L61.8,78.7z M56.3,74.9L56.3,74.9L56,75.2l-0.2,0.2l-0.2,0.2l-0.1,0.1c0,0,0,0,0,0
			h-0.6l-0.1-0.6c0,0,0,0,0,0l0.1-0.1l0,0c0,0,0,0,0,0l1.4-1.5c0,0,0,0,0,0l0.6,0l0.1,0.6c0,0,0,0,0,0l-0.1,0.1l0,0c0,0,0,0,0,0
			l-0.2,0.2l-0.2,0.2L56.3,74.9L56.3,74.9z M56.5,75.6l0.1-0.2l0.1-0.1l0.1-0.1l10.4,8.9c0,0,0.1,0.1,0.1,0.2c0,0.1,0,0.1-0.1,0.2
			c0,0.1-0.1,0.1-0.2,0.1c-0.1,0-0.1,0-0.2-0.1L56.5,75.6z"/>
		<path class="st1" d="M53.3,73.4c0.2,0,0.3-0.1,0.3-0.3v-2.6v-0.6v-1.2H49v1.2v0.6v2.6c0,0.2,0.1,0.3,0.3,0.3
			c0.2,0,0.3-0.1,0.3-0.3v-2.6h0.6v2.6c0,0.2,0.1,0.3,0.3,0.3c0.2,0,0.3-0.1,0.3-0.3v-0.2h1v0.2c0,0.2,0.1,0.3,0.3,0.3
			c0.2,0,0.3-0.1,0.3-0.3v-2.6H53v2.6C53,73.2,53.1,73.4,53.3,73.4 M49.6,69.3H53v0.6h-3.4L49.6,69.3L49.6,69.3z"/>
		<path class="st1" d="M73.5,73.4c0.2,0,0.3-0.1,0.3-0.3v-2.6v-0.6v-1.2h-4.5v1.2v0.6v2.6c0,0.2,0.1,0.3,0.3,0.3
			c0.2,0,0.3-0.1,0.3-0.3v-2.6h0.6v2.6c0,0.2,0.1,0.3,0.3,0.3c0.2,0,0.3-0.1,0.3-0.3v-0.2h1v0.2c0,0.2,0.1,0.3,0.3,0.3
			c0.2,0,0.3-0.1,0.3-0.3v-2.6h0.6v2.6C73.2,73.2,73.4,73.4,73.5,73.4 M69.9,69.3h3.4v0.6h-3.4V69.3z"/>
	</g>
	<g>
		<path class="st1" d="M18.2,113.6c0,0,0,0.1,0,0.1c0,0,0.1,0,0.1,0h0.4v0.5c-0.1,0-0.2,0.1-0.2,0.1c-0.1,0-0.2,0-0.3,0
			c-0.1,0-0.3,0-0.4-0.1c-0.1-0.1-0.2-0.1-0.3-0.2c-0.1-0.1-0.2-0.2-0.2-0.3c-0.1-0.1-0.1-0.3-0.1-0.5c0-0.2,0-0.3,0.1-0.4
			c0-0.1,0.1-0.2,0.2-0.3c0.1-0.1,0.2-0.2,0.3-0.2c0.1-0.1,0.3-0.1,0.4-0.1c0.3,0,0.5,0,0.7,0.1c0,0.2,0,0.3,0,0.3
			c0,0.1,0.1,0.1,0.1,0.1h0.3v-0.9l0,0c-0.4-0.2-0.8-0.2-1.1-0.2h0c-0.2,0-0.5,0-0.7,0.1c-0.2,0.1-0.4,0.2-0.5,0.3
			c-0.1,0.1-0.3,0.3-0.3,0.5c-0.1,0.2-0.1,0.4-0.1,0.7c0,0.2,0,0.5,0.1,0.7c0.1,0.2,0.2,0.4,0.3,0.5c0.1,0.1,0.3,0.3,0.5,0.3
			c0.2,0.1,0.4,0.1,0.6,0.1c0.1,0,0.2,0,0.4,0c0.1,0,0.2,0,0.3-0.1c0.1,0,0.2-0.1,0.3-0.1c0.1,0,0.2-0.1,0.3-0.2l0,0v-1.3h-1.1
			L18.2,113.6L18.2,113.6z"/>
		<path class="st1" d="M22.9,111.8c-0.3-0.1-0.5-0.2-0.9-0.2c-0.3,0-0.6,0.1-0.8,0.2c-0.3,0.1-0.5,0.3-0.6,0.6
			c-0.1,0.3-0.2,0.5-0.2,0.9c0,0.3,0.1,0.6,0.2,0.9c0.1,0.3,0.3,0.5,0.6,0.6c0.3,0.1,0.5,0.2,0.8,0.2c0.3,0,0.6-0.1,0.9-0.2
			c0.3-0.1,0.5-0.3,0.6-0.6c0.1-0.3,0.2-0.5,0.2-0.9s-0.1-0.6-0.2-0.8C23.4,112.1,23.2,111.9,22.9,111.8 M22.1,114.3
			c-0.3,0-0.5-0.1-0.7-0.3c-0.2-0.2-0.3-0.5-0.3-0.8c0-0.3,0.1-0.6,0.3-0.8c0.2-0.2,0.4-0.3,0.7-0.3c0.3,0,0.5,0.1,0.7,0.3
			c0.2,0.2,0.3,0.5,0.3,0.8c0,0.3-0.1,0.6-0.2,0.8C22.6,114.2,22.4,114.3,22.1,114.3"/>
		<path class="st1" d="M27,113.2c0.1,0,0.1-0.1,0.1-0.1c0.1-0.1,0.1-0.1,0.2-0.2c0.1-0.1,0.1-0.1,0.1-0.2c0-0.1,0-0.1,0-0.2
			c0-0.1,0-0.3-0.1-0.4c0-0.1-0.1-0.2-0.2-0.3c-0.1-0.1-0.2-0.1-0.4-0.2c-0.1,0-0.3-0.1-0.5-0.1h-1.5v0.3c0,0.1,0.1,0.2,0.1,0.2l0,0
			c0,0,0,0,0,0c0,0,0,0,0,0l0.1,0v2.2l-0.1,0c0,0,0,0,0,0s0,0,0,0l0,0c-0.1,0-0.1,0.1-0.1,0.2v0.3h1.6c0.2,0,0.4,0,0.5-0.1
			c0.2-0.1,0.3-0.1,0.4-0.2c0.1-0.1,0.2-0.2,0.2-0.3c0.1-0.1,0.1-0.3,0.1-0.4C27.6,113.5,27.4,113.3,27,113.2 M25.8,113.5h0.5
			c0.1,0,0.2,0,0.3,0c0.1,0,0.1,0,0.2,0.1c0,0,0.1,0.1,0.1,0.1c0,0.1,0,0.1,0,0.2c0,0.1,0,0.1,0,0.2c0,0,0,0.1-0.1,0.1
			c0,0-0.1,0.1-0.2,0.1c-0.1,0-0.2,0-0.3,0h-0.6L25.8,113.5L25.8,113.5z M26.7,112.9c-0.1,0.1-0.2,0.1-0.4,0.1h-0.4v-0.8h0.5
			c0.2,0,0.3,0,0.4,0.1c0.1,0.1,0.1,0.2,0.1,0.3C26.8,112.7,26.8,112.8,26.7,112.9"/>
		<path class="st1" d="M29,111.9c0,0.1,0.1,0.2,0.1,0.2l0,0c0,0,0,0,0,0c0,0,0,0,0,0l0.1,0v2.2l-0.2,0c-0.1,0-0.1,0.1-0.1,0.2v0.3
			h1.3v-0.3c0-0.1-0.1-0.2-0.1-0.2l0,0c0,0,0,0,0,0c0,0,0,0,0,0l-0.1,0v-2.2l0.1,0c0,0,0,0,0,0c0,0,0,0,0,0l0,0
			c0.1,0,0.1-0.1,0.1-0.2v-0.3H29L29,111.9L29,111.9z"/>
		<path class="st1" d="M31.7,111.9c0,0.1,0.1,0.2,0.1,0.2l0,0c0,0,0,0,0,0s0,0,0,0l0.1,0v2.2l-0.1,0c0,0,0,0,0,0s0,0,0,0l0,0
			c-0.1,0-0.1,0.1-0.1,0.2v0.3h2.4v-0.9h-0.3c-0.1,0-0.1,0-0.1,0.1c0,0.1,0,0.2,0,0.2h-0.9v-0.8h1.1v-0.5h-1.1v-0.8h0.9
			c0,0.1,0,0.2,0,0.3c0,0.1,0.1,0.1,0.1,0.1h0.3v-0.9h-2.4L31.7,111.9L31.7,111.9z"/>
		<path class="st1" d="M38.3,114.4L38.3,114.4C38.3,114.4,38.3,114.4,38.3,114.4l-0.2,0l-0.5-0.7c0-0.1-0.1-0.1-0.1-0.1
			c0.1,0,0.2-0.1,0.2-0.1c0.1-0.1,0.2-0.1,0.2-0.2c0.1-0.1,0.1-0.2,0.1-0.3c0-0.1,0.1-0.2,0.1-0.3c0-0.1,0-0.3-0.1-0.4
			c0-0.1-0.1-0.2-0.2-0.3c-0.1-0.1-0.2-0.2-0.4-0.2c-0.2,0-0.4-0.1-0.6-0.1h-1.3v0.3c0,0.1,0.1,0.2,0.1,0.2l0,0c0,0,0,0,0,0s0,0,0,0
			l0.1,0v2.2l-0.2,0c-0.1,0-0.1,0.1-0.1,0.2v0.3h1.3v-0.3c0-0.1-0.1-0.2-0.1-0.2l0,0c0,0,0,0,0,0s0,0,0,0l-0.1,0v-0.7h0.2
			c0,0,0.1,0,0.1,0c0,0,0,0,0.1,0.1l0.7,1c0,0,0.1,0.1,0.1,0.1c0,0,0.1,0,0.2,0h0.6v-0.3C38.5,114.5,38.4,114.4,38.3,114.4
			 M36.5,112.1h0.3c0.2,0,0.4,0,0.5,0.1c0.1,0.1,0.1,0.2,0.1,0.3c0,0.1,0,0.1,0,0.2c0,0.1-0.1,0.1-0.1,0.2c-0.1,0-0.1,0.1-0.2,0.1
			c-0.1,0-0.2,0-0.3,0h-0.3V112.1z"/>
		<path class="st1" d="M41.7,111.9c0,0.1,0.1,0.2,0.1,0.2l0.3,0v1.5c0,0.1,0,0.1,0,0.1v0l-1.6-2l0-0.1c0,0,0,0-0.1,0c0,0,0,0-0.1,0
			l0,0l-0.7,0v0.3c0,0.1,0.1,0.2,0.1,0.2l0,0c0,0,0,0,0,0c0,0,0,0,0,0l0.1,0v2.2l-0.2,0c-0.1,0-0.1,0.1-0.1,0.2v0.3h1.3v-0.3
			c0-0.1-0.1-0.2-0.1-0.2l-0.2,0v-1.5l0-0.1l0,0l1.6,2c0,0,0.1,0.1,0.1,0.1c0,0,0.1,0,0.1,0h0.4v-2.7l0.1,0c0,0,0,0,0,0s0,0,0,0l0,0
			c0.1,0,0.1-0.1,0.1-0.2v-0.3h-1.3L41.7,111.9L41.7,111.9z"/>
		<path class="st1" d="M46.4,111.8c-0.3-0.1-0.5-0.2-0.9-0.2c-0.3,0-0.6,0.1-0.8,0.2c-0.3,0.1-0.5,0.3-0.6,0.6
			c-0.1,0.3-0.2,0.5-0.2,0.9c0,0.3,0.1,0.6,0.2,0.9c0.1,0.3,0.3,0.5,0.6,0.6c0.3,0.1,0.5,0.2,0.9,0.2c0.3,0,0.6-0.1,0.9-0.2
			c0.3-0.1,0.4-0.3,0.6-0.6c0.1-0.3,0.2-0.5,0.2-0.9s-0.1-0.6-0.2-0.8C46.9,112.1,46.7,111.9,46.4,111.8 M45.6,114.3
			c-0.3,0-0.5-0.1-0.7-0.3c-0.2-0.2-0.3-0.5-0.3-0.8c0-0.3,0.1-0.6,0.3-0.8c0.2-0.2,0.4-0.3,0.7-0.3c0.3,0,0.5,0.1,0.7,0.3
			c0.2,0.2,0.3,0.5,0.3,0.8c0,0.3-0.1,0.6-0.2,0.8C46.1,114.2,45.9,114.3,45.6,114.3"/>
		<path class="st1" d="M53.7,112.1c-0.1-0.1-0.3-0.3-0.5-0.3c-0.2-0.1-0.4-0.1-0.7-0.1h-1.5v0.3c0,0.1,0.1,0.2,0.1,0.2l0,0
			c0,0,0,0,0,0s0,0,0,0l0.1,0v2.2l-0.1,0c0,0,0,0,0,0s0,0,0,0l0,0c-0.1,0-0.1,0.1-0.1,0.2v0.3h1.5c0.2,0,0.5,0,0.7-0.1
			c0.2-0.1,0.4-0.2,0.5-0.3c0.1-0.1,0.3-0.3,0.3-0.5c0.1-0.2,0.1-0.4,0.1-0.7c0-0.2,0-0.5-0.1-0.7C53.9,112.4,53.8,112.2,53.7,112.1
			 M52.5,114.3h-0.5v-2.1h0.5c0.1,0,0.3,0,0.4,0.1c0.1,0.1,0.2,0.1,0.3,0.2c0.1,0.1,0.1,0.2,0.2,0.3c0,0.1,0.1,0.3,0.1,0.5
			s0,0.3-0.1,0.5c0,0.1-0.1,0.3-0.2,0.3c-0.1,0.1-0.2,0.2-0.3,0.2C52.7,114.3,52.6,114.3,52.5,114.3"/>
		<path class="st1" d="M55.2,111.9c0,0.1,0.1,0.2,0.1,0.2l0,0c0,0,0,0,0,0s0,0,0,0l0.1,0v2.2l-0.1,0c0,0,0,0,0,0c0,0,0,0,0,0l0,0
			c-0.1,0-0.1,0.1-0.1,0.2v0.3h2.4v-0.9h-0.3c-0.1,0-0.1,0-0.1,0.1c0,0.1,0,0.2,0,0.2h-0.9v-0.8h1.1v-0.5h-1.1v-0.8h0.9
			c0,0.1,0,0.2,0,0.3c0,0.1,0.1,0.1,0.1,0.1h0.3v-0.9h-2.4L55.2,111.9L55.2,111.9z"/>
		<path class="st1" d="M63.3,114.1c0,0,0,0,0,0.2h-0.9v-2.2l0.2,0c0.1,0,0.1-0.1,0.1-0.2v-0.3h-1.3v0.3c0,0.1,0.1,0.2,0.1,0.2l0,0
			c0,0,0,0,0,0c0,0,0,0,0,0l0.1,0v2.2l-0.2,0c-0.1,0-0.1,0.1-0.1,0.2v0.3h2.4V114h-0.3C63.4,114,63.4,114,63.3,114.1"/>
		<path class="st1" d="M68.4,114.4l-0.2-0.1l-1.1-2.7h-0.7l-1.1,2.7l-0.2,0.1c-0.1,0-0.1,0.1-0.1,0.2v0.3h1.2v-0.3
			c0,0,0-0.1-0.1-0.2l0,0l0.2-0.4h1.2l0.2,0.4l-0.1,0c-0.1,0-0.1,0.1-0.1,0.2v0.3h1.2v-0.3C68.5,114.5,68.4,114.5,68.4,114.4
			 M66.7,112.3c0,0.1,0.1,0.2,0.1,0.2l0.3,0.9h-0.8l0.3-0.9C66.7,112.5,66.7,112.4,66.7,112.3"/>
		<path class="st1" d="M75,114.4L75,114.4C74.9,114.4,74.9,114.4,75,114.4l-0.2,0l-0.5-0.7c0-0.1-0.1-0.1-0.1-0.1
			c0.1,0,0.2-0.1,0.2-0.1c0.1-0.1,0.2-0.1,0.2-0.2c0.1-0.1,0.1-0.2,0.1-0.3c0-0.1,0.1-0.2,0.1-0.3c0-0.1,0-0.3-0.1-0.4
			c0-0.1-0.1-0.2-0.2-0.3c-0.1-0.1-0.2-0.2-0.4-0.2c-0.2,0-0.4-0.1-0.6-0.1h-1.3v0.3c0,0.1,0.1,0.2,0.1,0.2l0,0c0,0,0,0,0,0
			c0,0,0,0,0,0l0.1,0v2.2l-0.2,0c-0.1,0-0.1,0.1-0.1,0.2v0.3h1.3v-0.3c0-0.1-0.1-0.2-0.1-0.2l0,0c0,0,0,0,0,0c0,0,0,0,0,0l-0.1,0
			v-0.7h0.2c0,0,0.1,0,0.1,0c0,0,0,0,0.1,0.1l0.7,1c0,0,0.1,0.1,0.1,0.1c0,0,0.1,0,0.2,0h0.6v-0.3C75.1,114.5,75.1,114.4,75,114.4
			 M73.2,112.1h0.3c0.2,0,0.4,0,0.5,0.1c0.1,0.1,0.1,0.2,0.1,0.3c0,0.1,0,0.1,0,0.2c0,0.1-0.1,0.1-0.1,0.2c-0.1,0-0.1,0.1-0.2,0.1
			c-0.1,0-0.2,0-0.3,0h-0.3V112.1z"/>
		<path class="st1" d="M76.2,111.9c0,0.1,0.1,0.2,0.1,0.2l0,0c0,0,0,0,0,0s0,0,0,0l0.1,0v2.2l-0.1,0c0,0,0,0,0,0c0,0,0,0,0,0l0,0
			c-0.1,0-0.1,0.1-0.1,0.2v0.3h2.4v-0.9h-0.3c-0.1,0-0.1,0-0.1,0.1c0,0.1,0,0.2,0,0.2h-0.9v-0.8h1.1v-0.5h-1.1v-0.8h0.9
			c0,0.1,0,0.2,0,0.3c0,0.1,0.1,0.1,0.1,0.1h0.3v-0.9h-2.4L76.2,111.9L76.2,111.9z"/>
		<path class="st1" d="M82.3,111.9c-0.1-0.1-0.2-0.2-0.4-0.2c-0.2-0.1-0.4-0.1-0.6-0.1H80v0.3c0,0.1,0.1,0.2,0.1,0.2l0,0
			c0,0,0,0,0,0c0,0,0,0,0,0l0.1,0v2.2l-0.2,0c-0.1,0-0.1,0.1-0.1,0.2v0.3h1.3v-0.3c0-0.1-0.1-0.2-0.1-0.2l0,0c0,0,0,0,0,0
			c0,0,0,0,0,0l-0.1,0v-0.6h0.3c0.2,0,0.4,0,0.5-0.1c0.2-0.1,0.3-0.1,0.4-0.2c0.1-0.1,0.2-0.2,0.2-0.3c0.1-0.1,0.1-0.3,0.1-0.4
			c0-0.2,0-0.3-0.1-0.4C82.5,112.1,82.4,112,82.3,111.9 M81.6,113.2c-0.1,0-0.2,0-0.3,0H81v-1h0.3c0.1,0,0.2,0,0.3,0
			s0.1,0.1,0.2,0.1c0,0,0.1,0.1,0.1,0.2s0,0.1,0,0.2c0,0.1,0,0.2,0,0.2c0,0.1-0.1,0.1-0.1,0.2C81.7,113.1,81.7,113.1,81.6,113.2"/>
		<path class="st1" d="M85.5,111.9c0,0.1,0.1,0.2,0.1,0.2l0,0c0,0,0,0,0,0s0,0,0,0l0.1,0v1.4c0,0.1,0,0.2-0.1,0.3
			c0,0.1-0.1,0.2-0.1,0.2c0,0.1-0.1,0.1-0.2,0.1c-0.1,0-0.2,0.1-0.3,0.1s-0.2,0-0.3-0.1c-0.1,0-0.2-0.1-0.2-0.1
			c-0.1-0.1-0.1-0.2-0.1-0.2c0-0.1,0-0.2,0-0.3v-1.4l0.1,0c0,0,0,0,0,0c0,0,0,0,0,0l0,0c0.1,0,0.1-0.1,0.1-0.2v-0.3h-1.4v0.3
			c0,0.1,0.1,0.2,0.1,0.2l0,0c0,0,0,0,0,0c0,0,0,0,0,0l0.1,0v1.4c0,0.2,0,0.4,0.1,0.5c0.1,0.2,0.2,0.3,0.3,0.4
			c0.1,0.1,0.3,0.2,0.4,0.3c0.2,0.1,0.4,0.1,0.6,0.1s0.4,0,0.6-0.1c0.2-0.1,0.3-0.2,0.4-0.3c0.1-0.1,0.2-0.3,0.3-0.4
			c0.1-0.2,0.1-0.3,0.1-0.5v-1.4l0.1,0c0,0,0,0,0,0c0,0,0,0,0,0l0,0c0.1,0,0.1-0.1,0.1-0.2v-0.3h-1.4L85.5,111.9L85.5,111.9z"/>
		<path class="st1" d="M90.4,113.2c0.1,0,0.1-0.1,0.1-0.1c0.1-0.1,0.1-0.1,0.2-0.2c0.1-0.1,0.1-0.1,0.1-0.2c0-0.1,0-0.1,0-0.2
			c0-0.1,0-0.3-0.1-0.4c0-0.1-0.1-0.2-0.2-0.3c-0.1-0.1-0.2-0.1-0.4-0.2c-0.1,0-0.3-0.1-0.5-0.1h-1.5v0.3c0,0.1,0.1,0.2,0.1,0.2l0,0
			c0,0,0,0,0,0c0,0,0,0,0,0l0.1,0v2.2l-0.1,0c0,0,0,0,0,0c0,0,0,0,0,0l0,0c-0.1,0-0.1,0.1-0.1,0.2v0.3h1.6c0.2,0,0.4,0,0.5-0.1
			c0.2-0.1,0.3-0.1,0.4-0.2c0.1-0.1,0.2-0.2,0.2-0.3c0.1-0.1,0.1-0.3,0.1-0.4C91,113.5,90.8,113.3,90.4,113.2 M89.2,113.5h0.6
			c0.1,0,0.2,0,0.3,0c0.1,0,0.1,0,0.2,0.1c0,0,0.1,0.1,0.1,0.1c0,0.1,0,0.1,0,0.2c0,0.1,0,0.1,0,0.2c0,0,0,0.1-0.1,0.1
			c0,0-0.1,0.1-0.2,0.1c-0.1,0-0.2,0-0.3,0h-0.6L89.2,113.5L89.2,113.5z M90.1,112.9c-0.1,0.1-0.2,0.1-0.4,0.1h-0.4v-0.8h0.5
			c0.2,0,0.3,0,0.4,0.1c0.1,0.1,0.1,0.2,0.1,0.3C90.2,112.7,90.2,112.8,90.1,112.9"/>
		<path class="st1" d="M94.1,114.1c0,0,0,0,0,0.2h-0.9v-2.2l0.2,0c0.1,0,0.1-0.1,0.1-0.2v-0.3h-1.3v0.3c0,0.1,0.1,0.2,0.1,0.2l0,0
			c0,0,0,0,0,0c0,0,0,0,0,0l0.1,0v2.2l-0.2,0c-0.1,0-0.1,0.1-0.1,0.2v0.3h2.4V114h-0.3C94.2,114,94.1,114,94.1,114.1"/>
		<path class="st1" d="M95.6,111.9c0,0.1,0.1,0.2,0.1,0.2l0,0c0,0,0,0,0,0c0,0,0,0,0,0l0.1,0v2.2l-0.2,0c-0.1,0-0.1,0.1-0.1,0.2v0.3
			h1.3v-0.3c0-0.1-0.1-0.2-0.1-0.2l0,0c0,0,0,0,0,0c0,0,0,0,0,0l-0.1,0v-2.2l0.1,0c0,0,0,0,0,0s0,0,0,0l0,0c0.1,0,0.1-0.1,0.1-0.2
			v-0.3h-1.3L95.6,111.9L95.6,111.9z"/>
		<path class="st1" d="M100.7,114C100.7,114,100.7,114,100.7,114c-0.1,0-0.1,0-0.1,0.1c-0.1,0-0.1,0.1-0.1,0.1
			c-0.1,0-0.1,0.1-0.1,0.1c-0.1,0-0.1,0-0.2,0c-0.1,0-0.1,0-0.2,0c-0.1,0-0.3,0-0.4-0.1c-0.1-0.1-0.2-0.1-0.3-0.2s-0.1-0.2-0.2-0.3
			c-0.1-0.1-0.1-0.3-0.1-0.5c0-0.2,0-0.3,0.1-0.5c0-0.1,0.1-0.2,0.2-0.3c0.1-0.1,0.2-0.2,0.3-0.2c0.2-0.1,0.5-0.1,1,0
			c0,0.2,0,0.3,0,0.3l0,0c0,0.1,0.1,0.1,0.1,0.1h0.3v-0.9l0,0c-0.4-0.2-0.7-0.2-1-0.2c-0.2,0-0.5,0-0.7,0.1
			c-0.2,0.1-0.4,0.2-0.5,0.3c-0.1,0.1-0.3,0.3-0.3,0.5c-0.1,0.2-0.1,0.4-0.1,0.7c0,0.2,0,0.5,0.1,0.7c0.1,0.2,0.2,0.4,0.3,0.5
			c0.1,0.1,0.3,0.3,0.5,0.3s0.4,0.1,0.6,0.1c0.3,0,0.5,0,0.7-0.1c0.2-0.1,0.4-0.2,0.5-0.4l0,0l-0.3-0.3
			C100.8,114,100.8,114,100.7,114"/>
		<path class="st1" d="M105.4,114.4l-0.2-0.1l-1.1-2.7h-0.7l-1.1,2.7l-0.2,0.1c-0.1,0-0.1,0.1-0.1,0.2v0.3h1.2v-0.3
			c0,0,0-0.1-0.1-0.2l0,0l0.2-0.4h1.2l0.2,0.4l-0.1,0c-0.1,0-0.1,0.1-0.1,0.2v0.3h1.2v-0.3C105.5,114.5,105.4,114.5,105.4,114.4
			 M103.7,112.3c0,0.1,0.1,0.2,0.1,0.2l0.3,0.9h-0.8l0.3-0.9C103.7,112.5,103.7,112.4,103.7,112.3"/>
		<polygon class="st0" points="16.5,97.9 10.3,97.9 10.3,92.8 7.1,92.8 7.1,105.9 10.3,105.9 10.3,100.7 16.5,100.7 16.5,105.9 
			19.7,105.9 19.7,92.8 16.5,92.8 		"/>
		<path class="st0" d="M28,92.6c-3.8,0-6.7,2.9-6.7,6.7c0,3.8,2.9,6.7,6.7,6.7c3.9,0,6.7-2.9,6.7-6.7C34.7,95.5,31.9,92.6,28,92.6
			 M28,103c-2.1,0-3.6-1.6-3.6-3.7c0-2.1,1.5-3.7,3.6-3.7c2.1,0,3.6,1.6,3.6,3.7C31.6,101.4,30.1,103,28,103"/>
		<polygon class="st0" points="45.8,100.8 39.2,92.8 36.4,92.8 36.4,105.9 39.6,105.9 39.6,97.9 46.2,105.9 49,105.9 49,92.8 
			45.8,92.8 		"/>
		<path class="st0" d="M56.9,92.8H51v13.1h5.9c3.9,0,6.7-2.3,6.7-6.5C63.6,95.1,60.7,92.8,56.9,92.8 M56.7,103.1h-2.5v-7.5h2.5
			c2.1,0,3.6,1.3,3.6,3.7C60.3,101.8,58.9,103.1,56.7,103.1"/>
		<path class="st0" d="M74.1,100.1c0,1.8-1,3-2.9,3c-1.9,0-2.8-1.2-2.8-3v-7.2h-3.2v7.5c0,3.4,2.2,5.8,6.1,5.8c4,0,6.1-2.7,6.1-5.8
			v-7.5h-3.2L74.1,100.1L74.1,100.1z"/>
		<path class="st0" d="M88.7,102.8c-0.3-0.2-0.5-0.6-0.7-0.9c-0.2-0.3-0.5-0.6-0.7-0.8c0.3-0.3,0.9-0.3,1.3-0.5
			c0.4-0.2,0.8-0.5,1.1-0.9c0.6-0.7,0.9-1.6,0.9-2.6c0-3.1-2.5-4.3-5-4.3h-6.2v13.1h3.2c0-1.6,0-3.1,0-4.7c0.6-0.2,1.1,0.3,1.5,0.8
			c0.7,0.8,1.3,1.8,2,2.6c0.7,0.7,1.5,1.3,2.5,1.4c0.3,0,2.6-0.1,2.6-0.5l-0.3-2.5C90.3,103.1,89.3,103.3,88.7,102.8 M85.6,98.8
			h-2.9v-3.2h2.9c1.1,0,1.7,0.6,1.7,1.6C87.3,98.2,86.6,98.8,85.6,98.8"/>
		<path class="st0" d="M96.8,92.8l-5.1,13.1H95l0.9-2.4h5.5l0.9,2.4h3.3l-5-13.1H96.8z M96.7,101.1l2-5.1l1.9,5.1H96.7z"/>
		<path class="st0" d="M112.3,98.2l-2.3-0.7c-0.8-0.2-1.2-0.5-1.2-1c0-0.6,0.6-1.1,1.9-1.1c1.4,0,2.9,0.5,3.9,1.1l0.9-2.9
			c-1-0.5-2.9-1-4.7-1c-3.6,0-5.3,1.8-5.3,4.1c0,1.8,1,3,3,3.5l2.4,0.7c0.9,0.3,1.5,0.6,1.5,1.2c0,0.7-0.7,1.3-2,1.3
			c-1.5,0-3-0.6-4-1.3l-0.7,2.9c0.8,0.5,2.7,1.1,4.7,1.1c3.3,0,5.4-1.7,5.4-4.2C115.8,100,114.7,98.9,112.3,98.2"/>
		<path class="st2" d="M85.1,111.5L85.1,111.5C85.2,111.4,85.2,111.4,85.1,111.5c0.1,0,0.1,0,0.1,0l0.8-0.6h-0.7l-0.1,0
			c0,0,0,0-0.1,0c0,0,0,0-0.1,0l-0.5,0.6h0.1L85.1,111.5z"/>
	</g>
</g>
</svg>
