<?xml version="1.0" encoding="UTF-8"?>
<svg id="Layer_1" xmlns="http://www.w3.org/2000/svg" version="1.1" viewBox="0 0 190.52 97.08">
  <!-- Generator: Adobe Illustrator 30.0.0, SVG Export Plug-In . SVG Version: 2.1.1 Build 123)  -->
  <defs>
    <style>
      .st0 {
        fill: #003876;
      }

      .st1 {
        fill: #203c73;
      }

      .st2 {
        fill: #ed232a;
      }

      .st3 {
        fill: #ec252c;
      }
    </style>
  </defs>
  <g id="logoGobierno">
    <g id="c">
      <g id="Group_3536">
        <g id="Group_3534">
          <g id="Group_3533">
            <path id="Path_3517" class="st1" d="M-361.7-83.85l1.3-6.77-3.56-8.36-3.98-4.15c-.08-.06-.16-.12-.23-.19,6.38,2.77,11.15,10.29,11.95,19.41v.05l-5.49.02h.01ZM-363.72-83.84l-7-.03v-19.08s.06.05.09.08c4.11,3.54,6.91,10.61,6.91,18.75v.3M-356.23-83.86l-5.46.02s0-.65-.03-1.01c0-1.12-.06-2.24-.19-3.35-.4-4.51-1.88-8.86-4.3-12.68-.56-.87-1.21-1.68-1.94-2.41l-.03-.04s.53.32.83.51c.44.28.87.56,1.28.86,1.2.87,2.33,1.84,3.37,2.9.07.07.3.3.55.59s.52.61.73.85c.89,1.07,1.68,2.21,2.37,3.42.39.7.73,1.43,1.03,2.17,1,2.53,1.59,5.21,1.77,7.92l.02.25h0ZM-353.52-84.81l-2.7-10.91-5.66-6.05s-1.68-1.19-2.63-1.84c-.22-.15-.44-.28-.67-.41.01,0,.02,0,.03.01,8.26,3.34,13.78,11.22,14.11,20.12v.02l-2.49-.94h0ZM-354.17-83.86s-.2-2.21-.59-4.18c-.23-1.13-.54-2.25-.93-3.33-.36-1.09-.79-2.15-1.3-3.18-1.04-2.22-2.41-4.27-4.08-6.08-.63-.69-1.31-1.33-2.03-1.93-.51-.43-.97-.76-1.3-1,.19.11.45.27.75.44.57.33,1.26.73,1.99,1.23.33.22.63.46.97.71.08.06,1.11.86,2.12,1.82.78.75,1.52,1.56,2.2,2.41,1.06,1.33,1.98,2.77,2.75,4.29.87,1.74,1.53,3.58,1.96,5.48.29,1.27.5,3.3.5,3.3h-3.04.01ZM-356.24-83.86l-5.46.02s0-.65-.03-1.01c0-1.12-.06-2.24-.19-3.35-.4-4.51-1.88-8.86-4.3-12.68-.56-.87-1.21-1.67-1.94-2.41l-.03-.04s.53.32.83.51c.44.28.87.56,1.28.86,1.2.87,2.33,1.84,3.37,2.9.07.07.3.3.55.59s.52.61.73.85c.89,1.07,1.68,2.21,2.36,3.42.39.7.73,1.43,1.03,2.17,1,2.53,1.59,5.21,1.77,7.92l.02.25h0ZM-375.66-103.13l-3.98,4.16-3.56,8.37,1.3,6.77-5.49-.02v-.05c.8-9.11,5.57-16.64,11.95-19.42-.07.07-.15.13-.23.19M-379.86-83.82v-.3c0-8.14,2.81-15.22,6.91-18.75.03-.03.09-.08.09-.08v19.1l-7,.03h0ZM-375.44-103.3c-.73.73-1.38,1.54-1.93,2.41-2.42,3.83-3.89,8.17-4.3,12.68-.13,1.11-.2,2.23-.19,3.35-.01.36-.03,1.01-.03,1.01l-5.46-.02s.02-.22.02-.25h0c.18-2.72.78-5.4,1.78-7.93.3-.74.64-1.47,1.03-2.17.68-1.21,1.47-2.35,2.36-3.42.2-.24.48-.57.73-.85s.49-.51.55-.59c1.04-1.06,2.17-2.03,3.37-2.9.41-.3.84-.57,1.28-.86.3-.19.83-.51.83-.51l-.03.04h-.01ZM-379.07-103.61c-.95.65-2.63,1.84-2.63,1.84l-5.66,6.05-2.88,11.87h-2.31v-.03c.33-8.9,5.85-16.78,14.11-20.13h.03c-.23.12-.46.25-.67.4M-382.51-100.63c-1.66,1.8-3.04,3.85-4.07,6.08-.5,1.03-.94,2.09-1.3,3.18-.39,1.09-.7,2.21-.93,3.34-.4,1.97-.59,4.18-.59,4.18h-3.04s.22-2.04.5-3.3c.43-1.91,1.09-3.75,1.97-5.5,1.26-2.5,2.93-4.76,4.95-6.7,1.02-.96,2.05-1.76,2.12-1.82.34-.26.65-.5.97-.71.73-.5,1.42-.9,1.99-1.23.3-.18.56-.32.75-.44-.33.23-.79.57-1.3,1-.71.6-1.39,1.25-2.03,1.93h0ZM-375.43-103.3c-.73.73-1.38,1.54-1.94,2.41-2.42,3.83-3.89,8.17-4.3,12.68-.13,1.11-.2,2.23-.19,3.35-.01.36-.03,1.01-.03,1.01l-5.46-.02s.02-.22.02-.25h0c.18-2.72.78-5.4,1.78-7.93.3-.74.64-1.47,1.03-2.17.68-1.21,1.47-2.35,2.36-3.42.2-.24.48-.57.73-.85s.49-.51.55-.59c1.04-1.06,2.17-2.03,3.37-2.9.41-.3.84-.57,1.28-.86.3-.19.83-.51.83-.51l-.03.04h0ZM-367.72-110.83h-8.18c-.07,0-.13-.06-.13-.13,0,0,0,0,0,0v-.31c0-.07.06-.13.13-.13,0,0,0,0,0,0h8.18c.07,0,.13.06.13.13,0,0,0,0,0,0v.31c0,.07-.06.13-.13.13,0,0,0,0,0,0M-367.72-104.66h-8.18c-.07,0-.13-.06-.13-.13,0,0,0,0,0,0v-.31c0-.07.06-.13.13-.13,0,0,0,0,0,0h8.18c.07,0,.13.06.13.13,0,0,0,0,0,0v.32c0,.07-.06.13-.13.13,0,0,0,0,0,0M-349.96-81.66h-43.68c-.07,0-.13-.06-.13-.13,0,0,0,0,0,0v-.37c0-.07.06-.13.13-.13,0,0,0,0,0,0h43.68c.07,0,.13.06.13.13,0,0,0,0,0,0v.37c0,.07-.06.13-.13.13,0,0,0,0,0,0M-372.57-115.72h-.12s-.03,0-.03-.03v-.31s.01-.03.03-.03h.12s.03,0,.03.03v.31s-.01.03-.03.03M-370.91-115.72h-.12s-.03,0-.03-.03v-.31s.01-.03.03-.03h.12s.03,0,.03.03v.31s-.01.03-.03.03M-372.72-115.76h1.84v.1h-1.84v-.1ZM-371.72-116.98h-.15s-.04-.02-.04-.04v-.33s.02-.04.04-.04h.15s.04.02.04.04v.33s-.02.04-.04.04M-371.85-116.98h.11v2.14h-.11v-2.14h0ZM-374.95-111.83v-.02c-.06-1.75,1.3-3.21,3.04-3.28s3.21,1.3,3.28,3.04c0,.07,0,.15,0,.22v.03h-6.34.01ZM-367.82-110.87h-7.94c-.14,0-.25-.11-.25-.25v-.07c0-.14.11-.25.25-.25h7.94c.14,0,.25.11.25.25v.07c0,.14-.11.25-.24.25,0,0,0,0,0,0M-367.82-104.67h-7.94c-.14,0-.25-.11-.25-.25v-.07c0-.14.11-.25.25-.25h7.94c.14,0,.25.11.25.25v.07c0,.14-.11.25-.24.25,0,0,0,0,0,0M-371.39-105.74h-.8c-.14,0-.25-.11-.25-.24,0,0,0,0,0,0v-4.25c0-.14.11-.25.24-.25,0,0,0,0,0,0h.8c.13,0,.24.11.24.25v4.25c0,.14-.11.25-.24.25,0,0,0,0,0,0M-369.33-105.74h-.8c-.14,0-.25-.11-.25-.24,0,0,0,0,0,0v-4.25c0-.14.11-.25.24-.25,0,0,0,0,0,0h.8c.14,0,.25.11.25.24,0,0,0,0,0,0v4.25c0,.14-.11.25-.25.25M-373.48-105.74h-.8c-.14,0-.25-.11-.25-.24,0,0,0,0,0,0v-4.25c0-.14.11-.25.25-.25h.8c.14,0,.25.11.25.25v4.25c0,.14-.11.25-.24.25,0,0,0,0,0,0M-363.89-82.03v-.96c0-.11.09-.21.21-.21h1.94c.11,0,.21.09.21.21v.9l-2.34.07h-.01ZM-361.8-78.59h-1.84c-.14,0-.25-.11-.25-.24,0,0,0,0,0,0v-1.85c0-.14.11-.25.25-.25h1.85c.14,0,.25.11.25.25v1.85c0,.14-.11.25-.25.25M-356.4-82.03v-.96c0-.11.09-.21.21-.21h1.93c.11,0,.21.09.21.21v.9l-2.34.07h0ZM-354.31-78.59h-1.85c-.14,0-.25-.11-.25-.24,0,0,0,0,0,0v-1.85c0-.14.11-.25.24-.25,0,0,0,0,0,0h1.85c.14,0,.25.11.25.25v1.85c0,.14-.11.25-.25.25M-382.03-82.11v-.9c0-.11.09-.21.21-.21h1.93c.11,0,.21.09.21.21v.97l-2.34-.07h0ZM-379.93-78.6h-1.85c-.14,0-.25-.11-.25-.24,0,0,0,0,0,0v-1.84c0-.14.11-.25.24-.25,0,0,0,0,0,0h1.85c.14,0,.25.11.25.25v1.85c0,.14-.11.25-.24.25,0,0,0,0,0,0M-389.51-82.11v-.9c0-.11.09-.21.21-.21h1.93c.11,0,.21.09.21.21v.97l-2.34-.07h0ZM-387.41-78.6h-1.85c-.14,0-.25-.11-.25-.24,0,0,0,0,0,0v-1.84c0-.14.11-.25.24-.25,0,0,0,0,0,0h1.85c.14,0,.25.11.25.25v1.85c0,.14-.11.25-.25.25M-372.96-82.11v-.9c0-.11.09-.21.21-.21h1.93c.11,0,.21.09.21.21v.97l-2.34-.07h0ZM-370.87-78.59h-1.85c-.14,0-.25-.11-.25-.24,0,0,0,0,0,0v-1.85c0-.14.11-.25.25-.25h1.85c.14,0,.25.11.25.25v1.85c0,.14-.11.25-.25.25M-350.07-81.67h-43.45c-.14,0-.25-.11-.25-.25v-.14c0-.14.11-.25.25-.25h43.46c.14,0,.25.11.25.25v.14c0,.14-.11.25-.25.25M-350.06-76.53h-43.46c-.14,0-.25-.11-.25-.25v-1.03c0-.14.11-.25.24-.25,0,0,0,0,0,0h43.46c.14,0,.25.11.25.25v1.03c0,.14-.11.25-.25.25"/>
            <g id="Group_3531">
              <path id="Path_3518" class="st1" d="M-393.77-67.06v-.02c-.05-1.62,1.22-2.98,2.85-3.03.03,0,.06,0,.1,0,.8-.03,1.59.25,2.19.78l-.43.5c-.48-.45-1.12-.69-1.78-.67-1.26.03-2.26,1.08-2.23,2.35,0,.02,0,.03,0,.05v.02c-.1,1.25.84,2.34,2.09,2.43.08,0,.16,0,.24,0,.62,0,1.21-.21,1.7-.59v-1.46h-1.78v-.59h2.42v2.33c-.65.58-1.48.9-2.35.9-1.59.06-2.92-1.18-2.98-2.77,0-.08,0-.17,0-.25"/>
              <path id="Path_3519" class="st1" d="M-386.24-67.06v-.02c0-1.65,1.33-2.99,2.99-2.99,1.65,0,2.99,1.33,2.99,2.99v.02c0,1.65-1.33,2.99-2.99,2.99s-2.99-1.33-2.99-2.99M-380.95-67.05v-.02c.05-1.29-.95-2.37-2.24-2.42-.03,0-.05,0-.08,0-1.27,0-2.3,1.03-2.3,2.3,0,.03,0,.06,0,.1v.02c-.05,1.29.95,2.37,2.24,2.42.03,0,.05,0,.08,0,1.27,0,2.3-1.03,2.3-2.3,0-.03,0-.06,0-.1"/>
              <path id="Path_3520" class="st1" d="M-377.91-70h2.5c.56-.03,1.11.15,1.53.52.25.25.39.58.38.93v.02c.01.6-.36,1.15-.93,1.35.7.21,1.26.61,1.26,1.42v.02c0,1.01-.85,1.6-2.12,1.6h-2.6v-5.87h-.01ZM-375.52-67.39c.8,0,1.35-.36,1.35-1.05v-.02c0-.58-.46-.95-1.3-.95h-1.78v2.02h1.73-.01ZM-375.28-64.73c.89,0,1.44-.39,1.44-1.05v-.02c0-.64-.53-1.01-1.56-1.01h-1.85v2.07h1.97Z"/>
              <rect id="Rectangle_1480" class="st1" x="-370.86" y="-70" width=".66" height="5.86"/>
              <path id="Path_3521" class="st1" d="M-367.52-70h4.24v.6h-3.57v2.01h3.19v.6h-3.19v2.05h3.61v.61h-4.28v-5.86Z"/>
              <path id="Path_3522" class="st1" d="M-360.96-70h2.52c.61-.03,1.21.18,1.67.59.3.31.46.72.45,1.15v.02c0,.9-.7,1.64-1.59,1.7l1.8,2.39h-.81l-1.7-2.28h-1.68v2.28h-.67v-5.86h.01ZM-358.5-67.01c.88,0,1.5-.46,1.5-1.21v-.02c0-.72-.55-1.15-1.5-1.15h-1.81v2.38h1.81Z"/>
              <path id="Path_3523" class="st1" d="M-353.96-70h.63l3.68,4.69v-4.69h.65v5.87h-.52l-3.79-4.81v4.81h-.64v-5.87Z"/>
              <path id="Path_3524" class="st1" d="M-346.64-67.06v-.02c0-1.65,1.33-2.99,2.99-2.99s2.99,1.33,2.99,2.99v.02c0,1.65-1.33,2.99-2.99,2.99s-2.99-1.33-2.99-2.99M-341.35-67.05v-.02c.05-1.29-.95-2.37-2.24-2.42-.03,0-.05,0-.08,0-1.27,0-2.3,1.03-2.3,2.3,0,.03,0,.06,0,.1v.02c-.05,1.29.95,2.37,2.24,2.42.03,0,.05,0,.08,0,1.27,0,2.3-1.03,2.3-2.3,0-.03,0-.06,0-.1"/>
              <path id="Path_3525" class="st1" d="M-334.85-70h2.04c1.61-.1,3,1.12,3.11,2.73,0,.06,0,.12,0,.19v.02c0,1.62-1.31,2.94-2.94,2.94-.06,0-.12,0-.18,0h-2.04v-5.86ZM-332.81-64.75c1.25.09,2.33-.85,2.42-2.1,0-.07,0-.13,0-.2v-.02c.03-1.26-.97-2.3-2.24-2.33-.06,0-.13,0-.19,0h-1.37v4.64h1.37Z"/>
              <path id="Path_3526" class="st1" d="M-327.34-70h4.24v.6h-3.57v2.01h3.19v.6h-3.19v2.05h3.61v.61h-4.28v-5.86Z"/>
              <path id="Path_3527" class="st1" d="M-317.32-70h.67v5.25h3.29v.62h-3.96v-5.86Z"/>
              <path id="Path_3528" class="st1" d="M-309-70.04h.62l2.67,5.9h-.71l-.69-1.55h-3.19l-.7,1.55h-.67l2.68-5.9ZM-307.37-66.28l-1.33-2.99-1.34,2.99h2.67Z"/>
            </g>
            <g id="Group_3532">
              <path id="Path_3529" class="st1" d="M-384.88-49.85c-.91.35-1.94.06-2.54-.71l-1.87-2.39c-.48-.59-1.23-.88-1.98-.79v2.34c0,.85.58.99,1.35,1.08.09.01.03.41-.08.41h-3.65c-.1,0-.17-.4-.08-.41.62-.09,1-.32,1-1.08v-5.39c0-.8-.42-1.03-1-1.18-.1-.03-.04-.43.08-.41.46.05.93.08,1.39.08.9,0,1.72-.08,2.31-.08,1.83,0,3.05.75,3.05,2.24,0,1.19-.96,2.15-2.15,2.15v.06c.49,0,.84.21,1.36.87l1.8,2.26c.22.35.59.57,1,.61.1,0,.08.32,0,.35M-388.43-55.82c.09-.97-.62-1.84-1.6-1.93-.1,0-.2-.01-.3,0-.71,0-.94.29-.94.97v2.5h.35c1.8,0,2.49-.31,2.49-1.52"/>
              <path id="Path_3530" class="st1" d="M-382.93-50.31c.7-.18,1.25-.3,1.25-1.18v-5.37c0-.77-.5-.98-1.02-1.11-.1-.03-.04-.43.06-.41.89.1,2.41.08,3.14.08,1.1,0,1.9-.05,2.89-.08.29,0,.29.19.23.48l-.3,1.15c-.05.11-.17.16-.28.11-.05-.02-.09-.06-.11-.11-.18-.59-.54-.93-2.06-.93-.85,0-1.12.22-1.12.85v1.97c0,.31.16.37.4.37h.27c.81.09,1.64-.1,2.32-.54.12-.1.39-.09.28.16l-.69,1.52c-.1.22-.28.19-.41.01-.42-.42-1.01-.62-1.6-.54h-.17c-.24,0-.4.06-.4.37v2.03c0,.69.3.94,1.3.94,1.11.12,2.2-.37,2.84-1.29.09-.13.41-.08.41.13,0,.62-.52,1.84-1.28,1.84-.68-.04-1.34-.08-2.36-.08-1.11,0-2.43-.04-3.53.08-.12.01-.17-.41-.08-.44"/>
              <path id="Path_3531" class="st1" d="M-370.86-53.15v1.74c0,.85.58.99,1.35,1.08.09.01.03.41-.08.41h-3.67c-.1,0-.17-.4-.08-.41.62-.09,1-.32,1-1.08v-5.39c0-.8-.42-1.03-1-1.18-.1-.03-.04-.43.08-.41.46.05.93.08,1.39.08.9,0,1.65-.08,2.26-.08,1.88,0,3.42.69,3.42,2.59,0,2.15-2.02,3.06-4.69,2.66M-370.87-56.78v3.06c2.06.29,3.13-.21,3.13-1.79.1-1.13-.74-2.13-1.87-2.23-.1,0-.19,0-.29,0-.76,0-.97.27-.97.97"/>
              <path id="Path_3532" class="st1" d="M-362.75-53.07v-3.8c.07-.52-.3-1.01-.82-1.08-.05,0-.11,0-.16,0-.1,0-.03-.41.08-.41h3.3c.1,0,.17.4.08.41-.53-.02-.96.4-.98.93,0,.05,0,.11,0,.16v3.86c-.17,1.19.67,2.29,1.86,2.46.14.02.27.02.41.02,1.24.07,2.31-.88,2.38-2.13,0-.12,0-.23,0-.35v-3.86c0-.79-.45-1-1.04-1.08-.09,0-.03-.41.08-.41h2.72c.09,0,.15.4.06.41-.53-.02-.96.4-.98.93,0,.05,0,.11,0,.16v3.78c.14,1.72-1.13,3.23-2.85,3.37-.17.01-.34.01-.51,0-1.7,0-3.61-.9-3.61-3.36M-359.18-61.38c.22-.31,1.23.62.94.84l-1.58,1.2c-.16.12-.58-.27-.46-.44l1.1-1.6h0Z"/>
              <path id="Path_3533" class="st1" d="M-345.13-52.35c0,1.5-1.36,2.47-3.38,2.47-.58,0-1.26-.08-2.15-.08-.63-.01-1.27.01-1.9.08-.1.01-.17-.41-.08-.44.7-.18,1.25-.3,1.25-1.18v-5.37c0-.77-.5-.98-1.02-1.11-.1-.03-.04-.42.06-.41.49.05.98.08,1.47.08.97,0,1.68-.08,2.21-.08,1.56,0,2.84.66,2.86,1.98.01.9-.63,1.68-1.52,1.83v.08c1.18-.04,2.17.89,2.21,2.08,0,.03,0,.06,0,.08M-349.94-56.87v2.15h1.25c.67.09,1.29-.39,1.38-1.06.01-.1.01-.21,0-.31.06-.87-.6-1.63-1.48-1.68-.1,0-.19,0-.29,0-.64,0-.86.22-.86.9M-346.68-52.08c.08-1.04-.7-1.95-1.74-2.03-.09,0-.18,0-.27,0h-1.25v2.61c0,.67.34.99,1.39.99s1.86-.31,1.86-1.57"/>
              <path id="Path_3534" class="st1" d="M-342.81-50.31c.7-.18,1.25-.3,1.25-1.18v-5.37c0-.85-.5-1.02-1.02-1.08-.1,0-.03-.41.06-.41h3.33c.09,0,.14.4.06.41-.53-.02-.97.39-1,.91,0,.06,0,.11,0,.17v5.37c0,.69.29.94,1.29.94,1.11.12,2.2-.38,2.85-1.29.09-.13.41-.08.41.13,0,.62-.52,1.84-1.28,1.84-.68-.04-1.34-.08-2.36-.08-1.11,0-2.43-.04-3.53.08-.12.01-.17-.41-.08-.44"/>
              <path id="Path_3535" class="st1" d="M-333.44-50.31c.62-.09,1-.32,1-1.08v-5.47c0-.76-.39-1-1-1.08-.1,0-.03-.41.08-.41h3.31c.1,0,.17.4.08.41-.52.08-1,.24-1,1.08v5.47c0,.85.49,1.02,1,1.08.1.01.02.41-.08.41h-3.31c-.1,0-.17-.4-.08-.41"/>
              <path id="Path_3536" class="st1" d="M-327.43-53.97c-.11-2.42,1.76-4.47,4.17-4.58.16,0,.33,0,.49,0,1.4,0,2.61.44,2.47.86l-.15.47c-.44,1.29-.9-.36-3.06-.36-1.73,0-2.57,1.12-2.57,2.87-.11,2.02,1.44,3.74,3.45,3.85.09,0,.18,0,.27,0,.68-.06,1.34-.25,1.94-.57.1-.06.35.22.28.32-.67.72-1.55,1.21-2.51,1.4-2.03,0-4.77-1.18-4.77-4.27"/>
              <path id="Path_3537" class="st1" d="M-309.1-49.9h-3.19c-.16,0-.17-.39-.04-.41.45-.09.93-.24.49-1.29l-.13-.3c-.12-.29-.32-.31-.69-.31h-2.47c-.36,0-.57.03-.69.31l-.12.3c-.42,1.04.04,1.2.62,1.29.16.02.12.41-.04.41h-2.61c-.14,0-.18-.39-.04-.41.5-.09.79-.26,1.23-1.29l2.05-4.69c.35-.62.56-1.31.62-2.02.27-.14.58-.2.89-.18l2.95,6.87c.44,1.03.72,1.22,1.21,1.29.17.02.12.41-.03.41M-312.46-53.09l-1.42-3.38-1.43,3.38c-.08.17.1.19.28.19h2.28c.17,0,.35-.03.28-.19"/>
              <path id="Path_3538" class="st1" d="M-303.24-50.31c.7-.18,1.25-.3,1.25-1.18v-5.37c0-.77-.5-.98-1.02-1.11-.1-.03-.04-.43.06-.41.5.05,1.01.08,1.51.08.94,0,1.79-.08,2.41-.08,2.92,0,4.51,1.74,4.51,4.07.09,2.36-1.76,4.35-4.12,4.44-.13,0-.27,0-.4,0-.58,0-1.33-.08-2.23-.08-.63-.01-1.27.01-1.89.08-.12.01-.17-.41-.08-.44M-295.98-53.62c0-2.31-1.26-4.12-3.44-4.12-.86,0-1.13.27-1.13.89v5.37c0,.66.45.98,1.62.98,1.97,0,2.95-1.07,2.95-3.1"/>
              <path id="Path_3539" class="st1" d="M-291.89-54.09c-.09-2.38,1.77-4.38,4.15-4.47.08,0,.16,0,.24,0,2.29-.11,4.25,1.65,4.36,3.94,0,.14,0,.28,0,.42.07,2.42-1.83,4.43-4.25,4.5-2.42.07-4.43-1.83-4.5-4.25,0-.05,0-.11,0-.16M-284.58-53.53c0-2.45-1.66-4.22-3.4-4.22-1.07,0-2.47.7-2.47,2.97,0,2.47,1.66,4.23,3.39,4.23,1.07,0,2.48-.7,2.48-2.99"/>
              <path id="Path_3540" class="st1" d="M-269.98-49.9h-3.15c-.09,0-.14-.4-.08-.41.5-.02.88-.44.87-.93,0-.05,0-.1-.02-.15l-.23-4.07-1.96,3.99c-.2.4-.37.82-.49,1.25-.03.14-.28.22-.48.22-.16.01-.31-.08-.37-.22l-2.79-5.29-.18,4.12c-.04.85.46,1.04.85,1.08.1.01.03.41-.06.41h-2.5c-.1,0-.17-.4-.08-.41.52-.06.95-.24,1-1.08l.39-6.94c.01-.2.47-.22.59,0l3.5,6.55,3.25-6.55c.1-.22.59-.2.61,0l.39,6.94c.05.85.49,1.03.99,1.08.1.01.03.41-.06.41"/>
              <path id="Path_3541" class="st1" d="M-267.5-50.31c.62-.09,1-.32,1-1.08v-5.47c0-.76-.39-1-1-1.08-.1,0-.03-.41.08-.41h3.31c.1,0,.17.4.08.41-.52.08-1,.24-1,1.08v5.47c0,.85.49,1.02,1,1.08.1.01.02.41-.08.41h-3.31c-.1,0-.17-.4-.08-.41"/>
              <path id="Path_3542" class="st1" d="M-254.1-50.01l-5.75-6.02v4.59c0,.82.49.95,1.17,1.12.1.02.05.41-.08.41h-2.87c-.1,0-.17-.37-.06-.41.5-.17.99-.27.99-1.12v-4.69c.06-.6-.1-1.2-.45-1.69-.1-.14-.22-.24-.22-.28,0-.14.11-.26.25-.27h.9c.11-.02.21.02.29.1l5.64,5.96v-4.55c0-.86-.54-.95-1.17-1.11-.1-.02-.05-.41.08-.41h2.87c.1,0,.16.39.06.41-.53.15-.99.26-.99,1.11v4.7c-.02.71.03,1.42.14,2.12.05.18-.14.23-.34.23-.18,0-.34-.08-.45-.23"/>
              <path id="Path_3543" class="st1" d="M-250.04-50.31c.62-.09,1-.32,1-1.08v-5.47c0-.76-.39-1-1-1.08-.1,0-.03-.41.08-.41h3.31c.1,0,.17.4.08.41-.52.08-1,.24-1,1.08v5.47c0,.85.49,1.02,1,1.08.1.01.03.41-.08.41h-3.31c-.1,0-.17-.4-.08-.41"/>
              <path id="Path_3544" class="st1" d="M-244.04-53.97c-.11-2.42,1.76-4.47,4.17-4.58.16,0,.33,0,.49,0,1.4,0,2.61.44,2.47.86l-.16.47c-.44,1.29-.9-.36-3.06-.36-1.73,0-2.58,1.12-2.58,2.87-.11,2.02,1.44,3.74,3.45,3.85.09,0,.18,0,.27,0,.68-.06,1.34-.25,1.94-.57.1-.06.35.22.28.32-.67.72-1.55,1.21-2.51,1.4-2.03,0-4.77-1.18-4.77-4.27"/>
              <path id="Path_3545" class="st1" d="M-225.71-49.9h-3.19c-.16,0-.17-.39-.04-.41.45-.09.93-.24.49-1.29l-.13-.3c-.12-.29-.32-.31-.69-.31h-2.47c-.36,0-.57.03-.69.31l-.12.3c-.42,1.04.04,1.2.62,1.29.16.02.12.41-.04.41h-2.61c-.14,0-.18-.39-.04-.41.5-.09.79-.26,1.23-1.29l2.04-4.69c.35-.62.56-1.31.62-2.02.27-.14.58-.2.88-.18l2.95,6.87c.44,1.03.72,1.22,1.21,1.29.17.02.12.41-.03.41M-229.08-53.09l-1.42-3.38-1.43,3.38c-.08.17.1.19.28.19h2.29c.17,0,.35-.03.28-.19"/>
              <path id="Path_3546" class="st1" d="M-215.86-50.01l-5.75-6.02v4.59c0,.82.49.95,1.17,1.12.1.02.05.41-.08.41h-2.87c-.1,0-.17-.37-.06-.41.5-.17.99-.27.99-1.12v-4.69c.06-.6-.1-1.2-.45-1.69-.1-.14-.22-.24-.22-.28,0-.14.1-.26.24-.27h.9c.11-.02.21.02.29.1l5.64,5.96v-4.55c0-.86-.54-.95-1.17-1.11-.1-.02-.05-.41.08-.41h2.87c.1,0,.15.39.06.41-.53.15-.99.26-.99,1.11v4.7c-.02.71.03,1.42.14,2.12.05.18-.14.23-.34.23-.18,0-.34-.08-.45-.23"/>
              <path id="Path_3547" class="st1" d="M-203.38-49.9h-3.19c-.16,0-.17-.39-.04-.41.45-.09.93-.24.49-1.29l-.13-.3c-.12-.29-.32-.31-.69-.31h-2.47c-.36,0-.57.03-.69.31l-.12.3c-.42,1.04.04,1.2.62,1.29.16.02.12.41-.04.41h-2.61c-.14,0-.18-.39-.04-.41.5-.09.78-.26,1.23-1.29l2.04-4.69c.35-.62.56-1.31.62-2.02.27-.14.58-.2.88-.18l2.95,6.87c.44,1.03.72,1.22,1.21,1.29.17.02.12.41-.03.41M-206.75-53.09l-1.42-3.38-1.43,3.38c-.08.17.1.19.28.19h2.29c.17,0,.35-.03.28-.19"/>
            </g>
          </g>
          <path id="Path_3548" class="st3" d="M-343.12-39.19h-50.65v-2.4h50.65"/>
        </g>
      </g>
    </g>
  </g>
  <g>
    <g>
      <path class="st0" d="M2.04,51.25v-.02c0-1.59,1.17-3,2.91-3,.98,0,1.58.28,2.16.77l-.42.5c-.45-.39-.94-.66-1.76-.66-1.28,0-2.2,1.09-2.2,2.38v.02c0,1.38.89,2.41,2.29,2.41.66,0,1.28-.26,1.67-.58v-1.44h-1.76v-.59h2.39v2.31c-.54.48-1.35.89-2.33.89-1.82,0-2.95-1.33-2.95-2.98Z"/>
      <path class="st0" d="M9.48,51.25v-.02c0-1.6,1.2-3,2.97-3s2.95,1.38,2.95,2.98t0,.02c0,1.6-1.2,3-2.97,3s-2.95-1.38-2.95-2.98ZM14.71,51.25v-.02c0-1.32-.96-2.39-2.29-2.39s-2.27,1.06-2.27,2.38v.02c0,1.32.96,2.39,2.29,2.39s2.27-1.06,2.27-2.38Z"/>
      <path class="st0" d="M17.72,48.33h2.47c.66,0,1.18.19,1.52.51.24.25.37.56.37.93v.02c0,.75-.46,1.14-.92,1.34.69.21,1.24.6,1.24,1.4v.02c0,.99-.84,1.58-2.1,1.58h-2.58v-5.8ZM20.08,50.92c.79,0,1.33-.36,1.33-1.04v-.02c0-.57-.45-.94-1.28-.94h-1.76v2h1.71ZM20.31,53.54c.88,0,1.43-.39,1.43-1.04v-.02c0-.63-.53-.99-1.54-.99h-1.83v2.05h1.95Z"/>
      <path class="st0" d="M24.7,48.33h.65v5.8h-.65v-5.8Z"/>
      <path class="st0" d="M28,48.33h4.19v.6h-3.54v1.98h3.16v.6h-3.16v2.03h3.58v.6h-4.23v-5.8Z"/>
      <path class="st0" d="M34.49,48.33h2.49c.71,0,1.28.22,1.65.58.28.28.45.69.45,1.14v.02c0,.96-.66,1.52-1.57,1.69l1.78,2.37h-.8l-1.68-2.25h-1.66v2.25h-.65v-5.8ZM36.93,51.29c.87,0,1.49-.45,1.49-1.19v-.02c0-.71-.55-1.14-1.48-1.14h-1.79v2.35h1.78Z"/>
      <path class="st0" d="M41.42,48.33h.61l3.65,4.65v-4.65h.64v5.8h-.52l-3.74-4.75v4.75h-.64v-5.8Z"/>
      <path class="st0" d="M48.65,51.25v-.02c0-1.6,1.2-3,2.97-3s2.95,1.38,2.95,2.98t0,.02c0,1.6-1.2,3-2.97,3s-2.95-1.38-2.95-2.98ZM53.89,51.25v-.02c0-1.32-.96-2.39-2.29-2.39s-2.27,1.06-2.27,2.38v.02c0,1.32.96,2.39,2.29,2.39s2.27-1.06,2.27-2.38Z"/>
      <path class="st0" d="M60.32,48.33h2.01c1.82,0,3.08,1.25,3.08,2.88v.02c0,1.63-1.26,2.9-3.08,2.9h-2.01v-5.8ZM62.34,53.53c1.47,0,2.4-.99,2.4-2.28v-.02c0-1.28-.94-2.29-2.4-2.29h-1.36v4.59h1.36Z"/>
      <path class="st0" d="M67.74,48.33h4.19v.6h-3.54v1.98h3.16v.6h-3.16v2.03h3.58v.6h-4.23v-5.8Z"/>
      <path class="st0" d="M77.67,48.33h.65v5.19h3.26v.6h-3.92v-5.8Z"/>
      <path class="st0" d="M85.88,48.29h.61l2.64,5.84h-.7l-.68-1.53h-3.16l-.69,1.53h-.67l2.64-5.84ZM87.5,52.01l-1.32-2.96-1.32,2.96h2.64Z"/>
    </g>
    <g>
      <path class="st0" d="M9.9,68.26c-.75.25-1.79.22-2.51-.71l-1.84-2.37c-.51-.67-1.12-.77-1.96-.78v2.32c0,.84.57.98,1.34,1.08.08.01.02.41-.07.41H1.23c-.1,0-.17-.39-.07-.41.61-.08.99-.32.99-1.08v-5.33c0-.79-.42-1.02-.99-1.17-.1-.02-.04-.42.07-.41.47.06.99.07,1.38.07.89,0,1.71-.07,2.28-.07,1.81,0,3.01.74,3.01,2.21,0,1.39-1.12,2.07-2.13,2.13v.06c.48,0,.83.2,1.35.86l1.78,2.24c.37.47.73.6.99.6.1,0,.07.32,0,.35ZM6.39,62.36c0-1.28-.81-1.91-1.88-1.91-.71,0-.93.29-.93.96v2.46h.35c1.78,0,2.46-.31,2.46-1.51Z"/>
      <path class="st0" d="M11.83,67.81c.69-.18,1.23-.29,1.23-1.17v-5.31c0-.77-.49-.97-1-1.1-.1-.02-.04-.42.06-.41.87.1,2.38.07,3.11.07,1.09,0,1.88-.05,2.86-.07.29,0,.29.19.23.47l-.29,1.14c-.04.17-.33.17-.38,0-.18-.59-.54-.92-2.03-.92-.84,0-1.11.22-1.11.84v1.95c0,.31.16.37.4.37h.26c.97,0,1.81-.1,2.3-.54.12-.11.38-.08.28.16l-.68,1.51c-.1.22-.28.19-.41.01-.28-.38-.89-.54-1.58-.54h-.17c-.24,0-.4.06-.4.37v2.01c0,.68.29.93,1.28.93,1.81,0,2.52-.83,2.81-1.28.08-.13.41-.07.41.13,0,.61-.51,1.82-1.27,1.82-.67-.04-1.33-.07-2.33-.07-1.1,0-2.4-.04-3.49.07-.12.01-.17-.41-.07-.43Z"/>
      <path class="st0" d="M23.76,65.01v1.72c0,.84.57.98,1.34,1.08.08.01.02.41-.07.41h-3.62c-.1,0-.17-.39-.07-.41.61-.08.99-.32.99-1.08v-5.33c0-.79-.42-1.02-.99-1.17-.1-.02-.04-.42.07-.41.47.06.99.07,1.38.07.89,0,1.63-.07,2.24-.07,1.85,0,3.38.68,3.38,2.56,0,2.13-2,3.03-4.64,2.63ZM23.76,61.4v3.03c2.03.29,3.1-.2,3.1-1.77,0-1.42-.91-2.21-2.14-2.21-.75,0-.96.26-.96.96Z"/>
      <path class="st0" d="M31.78,65.08v-3.75c0-.75-.38-1-.97-1.08-.1-.01-.02-.41.07-.41h3.26c.1,0,.17.39.07.41-.48.06-.96.24-.96,1.08v3.81c0,1.67.97,2.45,2.24,2.45s2.34-.78,2.34-2.45v-3.81c0-.78-.44-.99-1.03-1.08-.08-.01-.02-.41.07-.41h2.69c.08,0,.16.39.06.41-.48.06-.96.24-.96,1.08v3.74c0,2.2-1.42,3.34-3.32,3.34-1.69,0-3.58-.9-3.58-3.32ZM35.3,56.87c.22-.31,1.22.61.93.83l-1.57,1.18c-.16.12-.57-.26-.45-.43l1.09-1.58Z"/>
      <path class="st0" d="M49.22,65.8c0,1.48-1.35,2.44-3.35,2.44-.57,0-1.24-.07-2.13-.07-.75,0-1.33.01-1.88.07-.11.01-.17-.41-.07-.43.69-.18,1.23-.29,1.23-1.17v-5.31c0-.77-.49-.97-1-1.1-.1-.02-.04-.42.06-.41.49.06,1.06.07,1.45.07.96,0,1.66-.07,2.19-.07,1.54,0,2.81.65,2.82,1.96.01.97-.67,1.64-1.51,1.81v.07c1.11,0,2.19.8,2.19,2.14ZM44.46,61.33v2.13h1.23c.86,0,1.36-.43,1.36-1.35,0-1.14-.77-1.66-1.75-1.66-.63,0-.85.22-.85.88ZM47.68,66.06c0-1.32-.87-2.01-1.99-2.01h-1.23v2.58c0,.66.33.98,1.38.98s1.84-.31,1.84-1.55Z"/>
      <path class="st0" d="M51.51,67.81c.69-.18,1.23-.29,1.23-1.17v-5.31c0-.84-.49-1-1-1.08-.1-.01-.02-.41.06-.41h3.3c.08,0,.14.39.06.41-.5.06-.98.24-.98,1.08v5.31c0,.68.29.93,1.28.93,1.81,0,2.52-.83,2.81-1.28.08-.13.41-.07.41.13,0,.61-.51,1.82-1.27,1.82-.67-.04-1.33-.07-2.33-.07-1.1,0-2.4-.04-3.49.07-.12.01-.17-.41-.07-.43Z"/>
      <path class="st0" d="M60.78,67.81c.61-.08.99-.32.99-1.08v-5.41c0-.75-.38-.99-.99-1.08-.1-.01-.02-.41.07-.41h3.28c.1,0,.17.39.07.41-.51.07-.99.24-.99,1.08v5.41c0,.84.48,1,.99,1.08.1.01.02.41-.07.41h-3.28c-.1,0-.17-.39-.07-.41Z"/>
      <path class="st0" d="M66.73,64.18c0-2.07,1.27-4.53,4.62-4.53,1.39,0,2.58.43,2.44.85l-.16.47c-.43,1.28-.9-.36-3.03-.36-1.71,0-2.55,1.11-2.55,2.83,0,2.69,2.04,3.81,3.68,3.81.22,0,1.3-.17,1.93-.56.1-.06.35.22.28.32-.51.75-2.12,1.39-2.49,1.39-2.01,0-4.72-1.17-4.72-4.22Z"/>
      <path class="st0" d="M84.86,68.21h-3.16c-.15,0-.17-.38-.04-.41.44-.08.92-.24.48-1.27l-.13-.3c-.12-.29-.32-.31-.68-.31h-2.44c-.36,0-.56.02-.68.31l-.12.3c-.42,1.03.04,1.18.61,1.27.15.02.12.41-.04.41h-2.58c-.14,0-.18-.38-.04-.41.49-.08.78-.25,1.22-1.27l2.02-4.64c.47-1.05.61-1.54.61-2,0-.07.84-.26.87-.18l2.92,6.8c.43,1.02.72,1.21,1.2,1.28.17.02.12.41-.02.41ZM81.52,65.07l-1.4-3.35-1.41,3.35c-.07.17.11.19.28.19h2.26c.17,0,.35-.02.28-.19Z"/>
      <path class="st0" d="M90.65,67.81c.69-.18,1.23-.29,1.23-1.17v-5.31c0-.77-.49-.97-1-1.1-.1-.02-.04-.42.06-.41.49.06.99.07,1.49.07.93,0,1.77-.07,2.38-.07,2.89,0,4.46,1.72,4.46,4.03s-1.57,4.39-4.47,4.39c-.57,0-1.32-.07-2.2-.07-.74,0-1.33.01-1.88.07-.12.01-.17-.41-.07-.43ZM97.84,64.53c0-2.28-1.24-4.08-3.4-4.08-.85,0-1.12.26-1.12.87v5.31c0,.65.44.97,1.6.97,1.95,0,2.92-1.05,2.92-3.07Z"/>
      <path class="st0" d="M101.87,64.08c0-2.42,1.72-4.42,4.34-4.42s4.32,1.83,4.32,4.32-1.71,4.44-4.34,4.44c-2.49,0-4.32-1.84-4.32-4.33ZM109.11,64.64c0-2.42-1.64-4.17-3.36-4.17-1.05,0-2.44.69-2.44,2.94,0,2.44,1.64,4.19,3.35,4.19,1.05,0,2.45-.69,2.45-2.95Z"/>
      <path class="st0" d="M123.55,68.21h-3.12c-.08,0-.14-.39-.07-.41.5-.08.87-.32.84-1.08l-.23-4.02-1.94,3.95c-.25.51-.44,1.04-.48,1.23-.02.14-.28.22-.47.22-.18,0-.3-.07-.37-.22l-2.76-5.24-.18,4.08c-.04.84.45,1.03.84,1.08.1.01.02.41-.06.41h-2.48c-.1,0-.17-.39-.07-.41.51-.06.94-.24.99-1.08l.38-6.86c.01-.2.47-.22.59,0l3.47,6.48,3.22-6.48c.11-.22.59-.2.6,0l.38,6.86c.05.84.48,1.02.98,1.08.1.01.02.41-.06.41Z"/>
      <path class="st0" d="M126,67.81c.61-.08.99-.32.99-1.08v-5.41c0-.75-.38-.99-.99-1.08-.1-.01-.02-.41.07-.41h3.28c.1,0,.17.39.07.41-.51.07-.99.24-.99,1.08v5.41c0,.84.48,1,.99,1.08.1.01.02.41-.07.41h-3.28c-.1,0-.17-.39-.07-.41Z"/>
      <path class="st0" d="M139.25,68.11l-5.69-5.96v4.54c0,.81.48.94,1.16,1.11.1.02.05.41-.07.41h-2.83c-.1,0-.17-.37-.06-.41.5-.17.98-.26.98-1.11v-4.64c0-.85-.13-1.26-.44-1.67-.11-.14-.22-.24-.22-.28,0-.11.07-.26.24-.26h.88c.12,0,.2.01.29.11l5.57,5.9v-4.5c0-.85-.54-.94-1.16-1.1-.1-.02-.05-.41.07-.41h2.83c.1,0,.16.38.06.41-.53.16-.98.25-.98,1.1v4.65c0,.79.02,1.66.14,2.1.05.18-.14.23-.33.23-.2,0-.31-.08-.44-.23Z"/>
      <path class="st0" d="M143.27,67.81c.61-.08.99-.32.99-1.08v-5.41c0-.75-.38-.99-.99-1.08-.1-.01-.02-.41.07-.41h3.28c.1,0,.17.39.07.41-.51.07-.99.24-.99,1.08v5.41c0,.84.48,1,.99,1.08.1.01.02.41-.07.41h-3.28c-.1,0-.17-.39-.07-.41Z"/>
      <path class="st0" d="M149.21,64.18c0-2.07,1.27-4.53,4.62-4.53,1.39,0,2.58.43,2.44.85l-.16.47c-.43,1.28-.9-.36-3.03-.36-1.71,0-2.55,1.11-2.55,2.83,0,2.69,2.05,3.81,3.68,3.81.22,0,1.3-.17,1.93-.56.1-.06.35.22.28.32-.51.75-2.12,1.39-2.49,1.39-2.01,0-4.72-1.17-4.72-4.22Z"/>
      <path class="st0" d="M167.34,68.21h-3.16c-.16,0-.17-.38-.04-.41.44-.08.92-.24.48-1.27l-.13-.3c-.12-.29-.32-.31-.68-.31h-2.44c-.36,0-.56.02-.68.31l-.12.3c-.42,1.03.04,1.18.61,1.27.16.02.12.41-.04.41h-2.58c-.14,0-.18-.38-.04-.41.49-.08.78-.25,1.22-1.27l2.02-4.64c.47-1.05.61-1.54.61-2,0-.07.84-.26.87-.18l2.92,6.8c.43,1.02.72,1.21,1.2,1.28.17.02.12.41-.02.41ZM164.01,65.07l-1.4-3.35-1.41,3.35c-.07.17.11.19.28.19h2.26c.17,0,.35-.02.28-.19Z"/>
      <path class="st0" d="M177.08,68.11l-5.69-5.96v4.54c0,.81.48.94,1.16,1.11.1.02.05.41-.07.41h-2.83c-.1,0-.17-.37-.06-.41.5-.17.98-.26.98-1.11v-4.64c0-.85-.13-1.26-.44-1.67-.11-.14-.22-.24-.22-.28,0-.11.07-.26.24-.26h.88c.12,0,.2.01.29.11l5.57,5.9v-4.5c0-.85-.54-.94-1.16-1.1-.1-.02-.05-.41.07-.41h2.83c.1,0,.16.38.06.41-.53.16-.98.25-.98,1.1v4.65c0,.79.02,1.66.14,2.1.05.18-.14.23-.33.23-.2,0-.31-.08-.44-.23Z"/>
      <path class="st0" d="M189.43,68.21h-3.16c-.16,0-.17-.38-.04-.41.44-.08.92-.24.48-1.27l-.13-.3c-.12-.29-.32-.31-.68-.31h-2.44c-.36,0-.56.02-.68.31l-.12.3c-.42,1.03.04,1.18.61,1.27.16.02.12.41-.04.41h-2.58c-.14,0-.18-.38-.04-.41.49-.08.78-.25,1.22-1.27l2.02-4.64c.47-1.05.61-1.54.61-2,0-.07.84-.26.87-.18l2.92,6.8c.43,1.02.72,1.21,1.2,1.28.17.02.12.41-.02.41ZM186.09,65.07l-1.4-3.35-1.41,3.35c-.07.17.11.19.28.19h2.26c.17,0,.35-.02.28-.19Z"/>
    </g>
    <rect class="st2" x="2.14" y="75.34" width="43.23" height="2.05"/>
    <g>
      <path class="st2" d="M11.06,94.95s.05.04.05.13-.01.17-.04.26c-.03.08-.06.12-.1.12h-3.93s-.06-.05-.09-.13c-.03-.08-.04-.17-.04-.26s.02-.13.05-.13c.36-.04.63-.16.81-.35.17-.19.26-.47.26-.85v-2.11c-.04-.15-.24-.23-.58-.23h-2.84c-.35,0-.55.08-.6.23v2.11c0,.29.06.52.17.7.11.17.24.29.38.35.14.06.32.1.54.14.03,0,.05.04.05.13s-.01.17-.04.26c-.03.08-.06.12-.09.12H1.1s-.06-.05-.09-.13c-.03-.08-.04-.17-.04-.26s.02-.14.05-.14c.37-.04.64-.15.81-.33.17-.18.26-.46.26-.85v-5.83c0-.39-.08-.67-.26-.85-.17-.18-.44-.3-.81-.34-.03,0-.05-.05-.05-.14s.01-.17.04-.26c.03-.08.06-.13.09-.13h3.93s.06.04.09.12.04.17.04.26-.02.14-.05.14c-.22.03-.4.08-.54.13-.14.06-.26.17-.37.35-.11.17-.16.41-.16.7v2.27c.04.15.24.22.6.22h2.84c.34,0,.53-.08.58-.22v-2.27c0-.38-.09-.66-.26-.85-.17-.19-.44-.3-.81-.35-.03,0-.05-.05-.05-.14s.01-.17.04-.26c.03-.08.06-.13.09-.13h3.93s.06.04.09.12c.03.08.04.17.04.26s-.02.14-.05.14c-.22.03-.4.08-.54.13-.14.06-.26.17-.37.35-.11.17-.16.41-.16.7v5.83c0,.29.06.52.17.7.11.17.24.29.38.35.14.06.32.1.54.13l-.02.08Z"/>
      <path class="st2" d="M21.45,94.9c.08.02.12.11.11.27-.01.16-.06.24-.13.24h-3.81c-.08,0-.13-.08-.14-.24,0-.16.03-.25.1-.27.15-.03.27-.06.36-.1.09-.04.18-.1.26-.19.08-.09.12-.23.11-.4-.01-.17-.08-.39-.19-.66l-.07-.12c-.06-.17-.13-.28-.21-.32-.08-.04-.22-.07-.41-.07h-2.58c-.21,0-.36.02-.44.06s-.16.15-.23.32l-.04.12c-.11.25-.17.46-.17.64,0,.18.03.32.12.41.09.09.19.15.3.19.11.04.25.07.43.1.08.02.12.11.11.27-.01.16-.06.24-.15.24h-2.97c-.07,0-.11-.08-.12-.24-.01-.16.02-.25.09-.27.29-.05.53-.16.71-.33.18-.17.38-.51.6-1.02l2.23-5.18c.44-1,.67-1.71.68-2.12,0-.04.15-.1.46-.17.31-.06.47-.08.49-.03l3.22,7.5c.22.51.42.85.61,1.02s.42.28.7.33v.02ZM17.18,92.2c.06,0,.11,0,.15-.02.04-.01.08-.03.11-.06.03-.03.03-.08,0-.13l-1.32-3.19-1.33,3.19c-.03.08-.03.14.03.17.05.03.13.04.24.04h2.13,0Z"/>
      <path class="st2" d="M26.7,95.62c-.59,0-1.17-.09-1.74-.26-.57-.17-1.12-.44-1.64-.79-.52-.35-.95-.83-1.27-1.45-.32-.62-.48-1.33-.48-2.12,0-.6.1-1.18.28-1.75.19-.57.47-1.1.85-1.6.38-.5.91-.91,1.6-1.22.69-.31,1.49-.46,2.4-.46.5,0,.98.04,1.42.13.44.09.79.21,1.02.36.23.15.32.3.27.44l-.2.57c-.12.33-.22.53-.33.62-.1.08-.24.08-.41,0-.17-.08-.36-.2-.56-.34s-.49-.28-.88-.41c-.39-.13-.81-.19-1.25-.19-.88,0-1.53.26-1.93.79-.41.52-.61,1.24-.61,2.14,0,.71.12,1.35.37,1.89.25.55.58.97.98,1.27.4.3.81.53,1.24.68.42.15.86.22,1.29.22.2,0,.55-.05,1.06-.15s.86-.21,1.06-.35c.05-.03.14.01.24.14.11.13.15.22.12.28-.25.38-.72.73-1.4,1.05s-1.17.48-1.46.48l-.03.03Z"/>
      <path class="st2" d="M30.59,95.41s-.06-.04-.09-.13-.04-.17-.04-.26.02-.14.05-.14c.37-.04.64-.15.81-.33s.26-.46.26-.85v-5.83c0-.39-.08-.67-.26-.85-.17-.18-.44-.3-.81-.34-.03,0-.05-.05-.05-.14s.01-.17.04-.26c.03-.08.06-.13.09-.13h3.93s.06.04.09.12c.03.08.04.17.04.26s-.02.14-.05.14c-.22.03-.4.08-.54.13-.14.06-.26.17-.37.35-.11.17-.16.41-.16.7v5.83c0,.29.06.52.17.7.11.17.24.29.38.35.14.06.32.1.54.13.03,0,.05.04.05.14s-.01.17-.04.26c-.03.08-.06.12-.09.12h-3.93v.03Z"/>
      <path class="st2" d="M35.32,95.44c-.06,0-.1-.08-.12-.27-.03-.19-.01-.29.04-.31.26-.07.44-.12.55-.16.1-.04.23-.1.39-.19.15-.09.26-.21.32-.36.06-.15.08-.34.08-.58v-5.76c0-.24-.06-.45-.17-.62s-.24-.28-.37-.35c-.13-.06-.31-.13-.54-.19-.03,0-.05-.05-.05-.13s.01-.17.03-.24c.02-.08.04-.12.07-.12.22.03.52.06.9.07.38.01.72.02,1.02.02s.63,0,1,0c.37,0,.58,0,.62,0,.48,0,1.09-.01,1.84-.04s1.2-.04,1.35-.04.24.04.28.14c.04.1.04.22,0,.39l-.3,1.27c-.02.1-.09.14-.21.14s-.2-.05-.23-.15c-.08-.24-.18-.43-.32-.56s-.35-.23-.64-.3c-.3-.07-.71-.11-1.24-.11-.41,0-.69.06-.86.2-.17.13-.25.35-.25.66v2.09c0,.16.04.27.11.33s.18.08.33.08h.34c1.14,0,1.93-.17,2.38-.53.08-.07.17-.09.26-.06.1.03.12.12.06.24l-.72,1.66c-.06.12-.13.19-.22.19s-.17-.05-.25-.16c-.27-.41-.8-.62-1.58-.62h-.25c-.15,0-.26.03-.33.08s-.1.17-.1.33v2.09c0,.39.09.66.27.82.18.16.52.24,1.02.24.77,0,1.4-.15,1.92-.46.52-.31.88-.62,1.1-.95.03-.06.12-.06.27-.02s.23.12.23.21c0,.36-.15.79-.44,1.28-.3.5-.64.74-1.03.73-1.2-.05-2.03-.08-2.51-.08-2.16,0-3.5.03-4.02.08v.03Z"/>
      <path class="st2" d="M52.89,95.54c-.2,0-.38-.08-.54-.24l-6.18-6.14v4.49c0,.22.03.4.08.54s.15.26.32.35c.16.09.3.15.42.19.12.04.32.09.6.16.05,0,.06.1.04.26-.02.17-.06.25-.13.25h-3.4c-.05,0-.09-.08-.11-.24-.02-.16,0-.25.06-.27.04-.03.13-.06.27-.12.13-.05.24-.1.3-.13.06-.04.14-.1.23-.17s.15-.19.19-.33c.04-.14.06-.31.06-.5v-4.93c0-.17,0-.33-.02-.48-.01-.15-.03-.27-.04-.36-.01-.09-.04-.19-.08-.3-.04-.11-.06-.19-.08-.23-.02-.04-.05-.11-.1-.21s-.08-.17-.09-.19c-.04-.07-.09-.14-.14-.21-.05-.06-.09-.12-.12-.15-.03-.03-.04-.05-.04-.06,0-.22.1-.33.32-.33h1.06c.14,0,.24.04.31.12l6.04,6.05v-4.43c0-.21-.03-.39-.08-.53-.05-.14-.15-.26-.29-.34-.14-.08-.26-.14-.37-.17-.1-.03-.27-.08-.51-.15-.07-.02-.12-.03-.16-.04-.05,0-.06-.1-.04-.26s.06-.25.12-.25h3.41s.08.08.1.25c.02.17,0,.26-.04.26-.02,0-.08.03-.18.06-.1.04-.17.06-.19.06s-.08.03-.16.06c-.08.03-.13.06-.16.08-.03.02-.06.05-.12.1s-.1.1-.12.14-.04.1-.08.17-.05.15-.06.23c0,.08-.01.18-.01.29v4.96c0,1.17.05,1.98.16,2.43.02.08,0,.14-.08.17-.07.03-.19.05-.35.05v.03Z"/>
      <path class="st2" d="M54.92,95.4c-.06,0-.1-.08-.12-.27s-.01-.29.04-.31c.26-.07.44-.12.55-.16.1-.04.23-.1.39-.19.15-.09.26-.21.32-.36s.08-.34.08-.58v-5.76c0-.36-.1-.62-.28-.79-.19-.16-.45-.29-.79-.38-.03,0-.05-.05-.05-.13s.01-.17.03-.24.04-.12.07-.12c.43.05,1.04.08,1.82.08.44,0,.97-.01,1.58-.04.62-.03,1.02-.04,1.19-.04,1.5,0,2.7.41,3.59,1.24.89.83,1.33,1.89,1.33,3.19,0,.84-.19,1.62-.55,2.34s-.93,1.33-1.7,1.8c-.77.48-1.66.72-2.69.72-.17,0-.53-.01-1.1-.04-.57-.03-1.06-.04-1.47-.04-1.01,0-1.75.03-2.23.08h0ZM60.02,94.63c.95,0,1.64-.26,2.06-.77.42-.52.64-1.31.64-2.37,0-1.35-.32-2.45-.95-3.3-.63-.86-1.48-1.29-2.53-1.29-.41,0-.7.07-.87.21s-.26.37-.26.67v5.76c0,.72.63,1.08,1.9,1.08h.01Z"/>
      <path class="st2" d="M74.79,94.9c.08.02.12.11.11.27-.01.16-.06.24-.13.24h-3.81c-.08,0-.13-.08-.14-.24,0-.16.03-.25.1-.27.15-.03.27-.06.36-.1.09-.04.18-.1.26-.19.08-.09.12-.23.11-.4-.01-.17-.08-.39-.19-.66l-.07-.12c-.06-.17-.13-.28-.21-.32-.08-.04-.22-.07-.41-.07h-2.58c-.21,0-.36.02-.44.06s-.16.15-.23.32l-.04.12c-.11.25-.17.46-.17.64,0,.18.03.32.12.41.09.09.19.15.3.19.11.04.25.07.43.1.08.02.12.11.11.27-.01.16-.06.24-.15.24h-2.97c-.07,0-.11-.08-.12-.24-.01-.16.02-.25.09-.27.29-.05.53-.16.71-.33.18-.17.38-.51.6-1.02l2.23-5.18c.44-1,.67-1.71.68-2.12,0-.04.15-.1.46-.17.31-.06.47-.08.49-.03l3.22,7.5c.22.51.42.85.61,1.02s.42.28.7.33v.02ZM70.52,92.2c.06,0,.11,0,.15-.02.04-.01.08-.03.11-.06.03-.03.03-.08,0-.13l-1.32-3.19-1.33,3.19c-.03.08-.03.14.03.17.05.03.13.04.24.04h2.13,0Z"/>
      <path class="st2" d="M86.8,86.17c.07,0,.12.08.13.24.01.16-.01.25-.08.27-.51.07-1.02.51-1.55,1.33l-2.03,3.17v2.52c0,.42.1.71.31.86.21.15.54.26,1,.32.03,0,.04.04.04.14s-.01.17-.03.26-.04.12-.08.12h-4.43s-.06-.04-.08-.13c-.03-.08-.04-.17-.04-.26s.01-.14.04-.14c.48-.07.82-.19,1.02-.35.2-.16.3-.44.3-.85v-2.43l-2.16-3.25c-.31-.46-.57-.79-.79-.99-.21-.21-.46-.33-.73-.36-.08-.02-.12-.11-.11-.27.01-.16.06-.24.15-.24h3.81c.08,0,.13.08.14.24,0,.16-.03.25-.1.27-.3.04-.48.17-.53.39-.05.21.05.53.3.95l1.53,2.29,1.49-2.29c.24-.41.31-.72.21-.93s-.33-.35-.68-.41c-.1-.02-.13-.11-.12-.27.01-.16.06-.24.14-.24h2.94v.03Z"/>
      <path class="st2" d="M89.72,95.44c-.06,0-.1-.08-.12-.27-.03-.19-.01-.29.04-.31.26-.07.44-.12.55-.16.1-.04.23-.1.39-.19.15-.09.26-.21.32-.36.06-.15.08-.34.08-.58v-5.76c0-.24-.06-.45-.17-.62s-.24-.28-.37-.35c-.13-.06-.31-.13-.54-.19-.03,0-.05-.05-.05-.13s.01-.17.03-.24c.02-.08.04-.12.07-.12.22.03.52.06.9.07.38.01.72.02,1.02.02s.63,0,1,0c.37,0,.58,0,.62,0,.48,0,1.09-.01,1.84-.04s1.2-.04,1.35-.04.24.04.28.14c.04.1.04.22,0,.39l-.3,1.27c-.02.1-.09.14-.21.14s-.2-.05-.23-.15c-.08-.24-.18-.43-.32-.56s-.35-.23-.64-.3c-.3-.07-.71-.11-1.24-.11-.41,0-.69.06-.86.2-.17.13-.25.35-.25.66v2.09c0,.16.04.27.11.33s.18.08.33.08h.34c1.14,0,1.93-.17,2.38-.53.08-.07.17-.09.26-.06.1.03.12.12.06.24l-.72,1.66c-.06.12-.13.19-.22.19s-.17-.05-.25-.16c-.27-.41-.8-.62-1.58-.62h-.25c-.15,0-.26.03-.33.08s-.1.17-.1.33v2.09c0,.39.09.66.27.82.18.16.52.24,1.02.24.77,0,1.4-.15,1.92-.46.52-.31.88-.62,1.1-.95.03-.06.12-.06.27-.02s.23.12.23.21c0,.36-.15.79-.44,1.28-.3.5-.64.74-1.03.73-1.2-.05-2.03-.08-2.51-.08-2.16,0-3.5.03-4.02.08v.03Z"/>
      <path class="st2" d="M103.66,95.62c-.59,0-1.17-.09-1.74-.26-.57-.17-1.12-.44-1.64-.79-.52-.35-.95-.83-1.27-1.45-.32-.62-.48-1.33-.48-2.12,0-.6.1-1.18.28-1.75.19-.57.47-1.1.85-1.6.38-.5.91-.91,1.6-1.22.69-.31,1.49-.46,2.4-.46.5,0,.98.04,1.42.13s.79.21,1.02.36c.23.15.32.3.27.44l-.2.57c-.12.33-.22.53-.33.62-.1.08-.24.08-.41,0-.17-.08-.36-.2-.56-.34s-.49-.28-.88-.41c-.39-.13-.81-.19-1.25-.19-.88,0-1.53.26-1.93.79-.41.52-.61,1.24-.61,2.14,0,.71.12,1.35.37,1.89.25.55.58.97.98,1.27.4.3.81.53,1.24.68.42.15.86.22,1.29.22.2,0,.55-.05,1.06-.15s.86-.21,1.06-.35c.05-.03.14.01.24.14.11.13.15.22.12.28-.25.38-.72.73-1.4,1.05s-1.17.48-1.46.48l-.03.03Z"/>
      <path class="st2" d="M112.42,95.61c-1.37,0-2.51-.45-3.43-1.35s-1.37-2.04-1.37-3.41.45-2.53,1.35-3.48,2.06-1.42,3.48-1.42,2.53.44,3.44,1.33c.91.89,1.37,2.02,1.37,3.4s-.45,2.54-1.35,3.49-2.05,1.42-3.48,1.42v.02ZM112.96,94.57c.62,0,1.17-.24,1.64-.73.47-.49.71-1.26.71-2.31,0-1.25-.35-2.32-1.06-3.2-.7-.88-1.5-1.33-2.4-1.33-.62,0-1.16.24-1.63.73s-.7,1.26-.7,2.3c0,1.26.35,2.33,1.06,3.21.7.88,1.5,1.33,2.39,1.33h-.02Z"/>
      <path class="st2" d="M127.02,95.54c-.2,0-.38-.08-.54-.24l-6.18-6.14v4.49c0,.22.03.4.08.54s.15.26.32.35c.16.09.3.15.42.19.12.04.32.09.6.16.05,0,.06.1.04.26-.02.17-.06.25-.13.25h-3.4c-.05,0-.09-.08-.11-.24-.02-.16,0-.25.06-.27.04-.03.13-.06.27-.12.13-.05.24-.1.3-.13.06-.04.14-.1.23-.17s.15-.19.19-.33c.04-.14.06-.31.06-.5v-4.93c0-.17,0-.33-.02-.48-.01-.15-.03-.27-.04-.36-.01-.09-.04-.19-.08-.3-.04-.11-.06-.19-.08-.23-.02-.04-.05-.11-.1-.21s-.08-.17-.09-.19c-.04-.07-.09-.14-.14-.21-.05-.06-.09-.12-.12-.15-.03-.03-.04-.05-.04-.06,0-.22.1-.33.32-.33h1.06c.14,0,.24.04.31.12l6.04,6.05v-4.43c0-.21-.03-.39-.08-.53-.05-.14-.15-.26-.29-.34-.14-.08-.26-.14-.37-.17-.1-.03-.27-.08-.51-.15-.07-.02-.12-.03-.16-.04-.05,0-.06-.1-.04-.26s.06-.25.12-.25h3.41s.08.08.1.25c.02.17,0,.26-.04.26-.02,0-.08.03-.18.06-.1.04-.17.06-.19.06s-.08.03-.16.06c-.08.03-.13.06-.16.08-.03.02-.06.05-.12.1s-.1.1-.12.14-.04.1-.08.17-.05.15-.06.23c0,.08-.01.18-.01.29v4.96c0,1.17.05,1.98.16,2.43.02.08,0,.14-.08.17-.07.03-.19.05-.35.05v.03Z"/>
      <path class="st2" d="M134.11,95.61c-1.37,0-2.51-.45-3.43-1.35s-1.37-2.04-1.37-3.41.45-2.53,1.35-3.48,2.06-1.42,3.48-1.42,2.53.44,3.44,1.33c.91.89,1.37,2.02,1.37,3.4s-.45,2.54-1.35,3.49-2.05,1.42-3.48,1.42v.02ZM134.65,94.57c.62,0,1.17-.24,1.64-.73.47-.49.71-1.26.71-2.31,0-1.25-.35-2.32-1.06-3.2-.7-.88-1.5-1.33-2.4-1.33-.62,0-1.16.24-1.63.73s-.7,1.26-.7,2.3c0,1.26.35,2.33,1.06,3.21.7.88,1.5,1.33,2.39,1.33h-.02Z"/>
      <path class="st2" d="M151.8,94.87c.05,0,.06.1.04.26s-.05.25-.1.25h-3.84s-.08-.08-.1-.25-.01-.26.02-.26c.69-.12,1.02-.52.99-1.18l-.25-3.89-1.86,3.81c-.3.61-.49,1.09-.57,1.42-.03.16-.24.24-.63.24-.24,0-.4-.08-.48-.24l-2.92-5.49-.17,4.14c-.03.69.3,1.08.97,1.18.05,0,.06.1.04.26-.02.17-.05.25-.1.25h-2.92s-.06-.04-.09-.13c-.03-.08-.04-.17-.04-.26s.02-.13.05-.13c.33-.03.58-.13.76-.3.18-.17.28-.46.31-.88l.46-7.48c0-.13.12-.21.33-.21s.37.06.46.21l3.79,6.95,3.48-6.95c.07-.14.23-.21.46-.21s.35.06.36.2l.46,7.49c.03.42.13.72.32.88s.43.27.74.3h0Z"/>
      <path class="st2" d="M152.69,95.42s-.06-.04-.09-.13c-.03-.08-.04-.17-.04-.26s.02-.13.05-.13c.37-.04.64-.15.81-.34.17-.18.26-.46.26-.85v-5.83c0-.39-.08-.67-.26-.85s-.44-.3-.81-.34c-.03,0-.05-.04-.05-.13s.01-.17.04-.26c.03-.08.06-.13.09-.13h3.93s.06.04.09.12c.03.08.04.17.04.26s-.02.13-.05.13c-.22.03-.4.08-.54.14-.14.06-.26.17-.37.35-.11.17-.16.41-.16.7v5.83c0,.29.06.52.17.7.11.17.24.29.38.35.14.06.32.1.54.14.03,0,.05.04.05.13s-.01.17-.04.26c-.03.08-.06.12-.09.12h-3.93v.03ZM154.7,82.82c.07-.11.22-.1.45.04.23.14.42.31.58.53.15.22.19.36.09.43l-1.69,1.27c-.08.07-.21.01-.39-.17-.18-.18-.24-.32-.18-.4l1.14-1.7Z"/>
      <path class="st2" d="M167.1,94.9c.08.02.12.11.11.27-.01.16-.06.24-.14.24h-3.81c-.08,0-.13-.08-.14-.24,0-.16.03-.25.1-.27.15-.03.27-.06.36-.1.09-.04.18-.1.26-.19.08-.09.12-.23.11-.4-.01-.17-.08-.39-.19-.66l-.07-.12c-.06-.17-.13-.28-.21-.32-.08-.04-.22-.07-.41-.07h-2.58c-.21,0-.36.02-.44.06s-.16.15-.23.32l-.04.12c-.11.25-.17.46-.17.64,0,.18.03.32.12.41.09.09.19.15.3.19.11.04.25.07.43.1.08.02.12.11.11.27-.01.16-.06.24-.15.24h-2.97c-.07,0-.11-.08-.12-.24-.01-.16.02-.25.09-.27.29-.05.53-.16.71-.33.18-.17.38-.51.6-1.02l2.23-5.18c.44-1,.67-1.71.68-2.12,0-.04.15-.1.46-.17.31-.06.47-.08.49-.03l3.22,7.5c.22.51.42.85.61,1.02s.42.28.7.33v.02ZM162.83,92.2c.06,0,.11,0,.15-.02.04-.01.08-.03.11-.06.03-.03.03-.08,0-.13l-1.32-3.19-1.33,3.19c-.03.08-.03.14.03.17.05.03.13.04.24.04h2.13,0Z"/>
    </g>
    <path class="st0" d="M45.07,40.38H2.08c-.13,0-.24.11-.24.24v1.02c0,.13.11.24.24.24h42.99c.13,0,.24-.11.24-.24v-1.02c0-.13-.11-.24-.24-.24ZM24.49,39.84c.13,0,.24-.11.24-.24v-1.83c0-.13-.11-.24-.24-.24h-1.83c-.13,0-.24.11-.24.24v1.83c0,.13.11.24.24.24h1.83ZM33.47,39.84c.13,0,.24-.11.24-.24v-1.83c0-.13-.11-.24-.24-.24h-1.83c-.13,0-.24.11-.24.24v1.83c0,.13.11.24.24.24h1.83ZM15.52,39.84c.13,0,.24-.11.24-.24v-1.83c0-.13-.11-.24-.24-.24h-1.83c-.13,0-.24.11-.24.24v1.83c0,.13.11.24.24.24h1.83ZM39.04,39.84c-.13,0-.24-.11-.24-.24v-1.83c0-.13.11-.24.24-.24h1.83c.13,0,.24.11.24.24v1.83c0,.13-.11.24-.24.24h-1.83ZM8.12,39.84c.13,0,.24-.11.24-.24v-1.83c0-.13-.11-.24-.24-.24h-1.83c-.13,0-.24.11-.24.24v1.83c0,.13.11.24.24.24h1.83ZM45.31,36.3v.36c0,.07-.06.13-.13.13H1.98c-.07,0-.13-.06-.13-.13v-.36c0-.07.06-.13.13-.13h.11s0,0,0,0h3.93s0-.64,0-.64c0-.13.11-.24.24-.24h1.86c.13,0,.24.11.24.24v.64h5.09s0-.64,0-.64c0-.13.11-.24.24-.24h1.86c.13,0,.24.11.24.24v.64h6.58s0-.64,0-.64c0-.13.11-.24.24-.24h1.86c.13,0,.24.11.24.24v.64h6.69s0-.64,0-.64c0-.13.11-.24.24-.24h1.8c.13,0,.24.11.24.24v.64h5.09s0-.64,0-.64c0-.13.11-.24.24-.24h1.8c.13,0,.24.11.24.24v.64h4s0,0,0,0h.1c.07,0,.13.06.13.13ZM22.53,34.66V15.75s-.78.7-1.11,1.06c-.57.61-1.11,1.29-1.61,2.04-.82,1.22-1.54,2.6-2.15,4.13s-1.12,3.27-1.47,5.08c-.35,1.82-.55,3.75-.59,5.75,0,.19,0,.86,0,.86h6.93ZM31.55,34.66s0-.67,0-.86c-.03-2-.24-3.93-.59-5.75s-.85-3.52-1.47-5.08c-.6-1.52-1.33-2.91-2.15-4.13-.5-.75-1.04-1.43-1.61-2.04-.33-.35-1.11-1.06-1.11-1.06v18.91s6.93,0,6.93,0ZM18.06,17.79c.73-1.15,1.54-2.01,1.82-2.29.06-.06.14-.14.14-.14,0,0-.14.06-.19.09-1.71.77-3.3,1.88-4.72,3.28-1.22,1.2-2.32,2.61-3.27,4.19-.19.32-1.58,2.91-1.87,3.63-.78,1.93-1.23,3.85-1.49,5.5-.09.55-.31,2.62-.31,2.62h5.42s.1-3.24.21-4.32c.24-2.28.68-4.36,1.3-6.27.75-2.31,1.75-4.38,2.96-6.28ZM32.06,24.06c.62,1.92,1.06,4,1.3,6.27.11,1.09.21,4.32.21,4.32h5.42s-.22-2.07-.31-2.62c-.26-1.65-.71-3.57-1.49-5.5-.29-.72-1.68-3.32-1.87-3.63-.95-1.58-2.05-2.99-3.27-4.19-1.42-1.4-3.01-2.51-4.72-3.28-.05-.02-.19-.09-.19-.09,0,0,.08.08.14.14.27.28,1.08,1.14,1.82,2.29,1.21,1.9,2.21,3.97,2.96,6.28ZM6.15,34.66s.2-2.21.59-4.16c.33-1.67.86-3.12.92-3.3.33-.94.71-2,1.29-3.14,1.05-2.06,2.11-3.98,4.03-6.01.59-.62,1.24-1.28,2.01-1.91.33-.28,1.22-.93,1.64-1.21.1-.06.4-.24.4-.24,0,0-.33.14-.42.18-.61.26-1.21.55-1.8.86-1.28.69-2.49,1.5-3.61,2.42-1.91,1.57-3.55,3.44-4.85,5.55-1.69,2.74-2.81,5.87-3.18,9.22-.06.52-.13,1.75-.13,1.75h3.1ZM44.11,34.66s-.07-1.23-.13-1.75c-.38-3.35-1.49-6.48-3.18-9.22-1.3-2.11-2.95-3.99-4.85-5.55-1.12-.92-2.32-1.73-3.61-2.42-.58-.31-1.18-.6-1.8-.86-.09-.04-.42-.18-.42-.18,0,0,.31.17.4.24.43.28,1.31.93,1.64,1.21.77.64,1.42,1.3,2.01,1.91,1.92,2.03,2.98,3.95,4.03,6.01.58,1.14.95,2.2,1.29,3.14.06.18.59,1.64.92,3.3.39,1.95.59,4.16.59,4.16h3.1ZM19.53,14.05h8.09c.07,0,.13-.06.13-.13v-.31c0-.07-.06-.13-.13-.13h-8.09c-.07,0-.13.06-.13.13v.31c0,.07.06.13.13.13ZM19.53,7.95h8.09c.07,0,.13-.06.13-.13v-.31c0-.07-.06-.13-.13-.13h-8.09c-.07,0-.13.06-.13.13v.31c0,.07.06.13.13.13ZM26.02,8.29c.13,0,.24.11.24.24v4.2c0,.13-.11.24-.24.24h-.79c-.13,0-.24-.11-.24-.24v-4.2c0-.13.11-.24.24-.24h.79ZM23.18,8.29c-.13,0-.24.11-.24.24v4.2c0,.13.11.24.24.24h.79c.13,0,.24-.11.24-.24v-4.2c0-.13-.11-.24-.24-.24h-.79ZM21.13,8.29c-.13,0-.24.11-.24.24v4.2c0,.13.11.24.24.24h.79c.13,0,.24-.11.24-.24v-4.2c0-.13-.11-.24-.24-.24h-.79ZM26.69,6.61c-.17-1.62-1.47-2.88-3.06-2.91v-.53h.85v-.41s-.01-.03-.03-.03h-.13s-.03.01-.03.03v.31h-.67v-1.21h.02s.04-.02.04-.04v-.33s-.02-.04-.04-.04h-.15s-.04.02-.04.04v.33s.02.04.04.04h.02v1.21h-.68v-.31s-.01-.03-.03-.03h-.13s-.03.01-.03.03v.41h.86v.53c-1.59.03-2.89,1.3-3.06,2.92-.01.11-.02.35-.02.35h6.26s0-.25-.02-.36Z"/>
  </g>
</svg>