<?xml version="1.0" encoding="UTF-8"?><svg id="Layer_2" xmlns="http://www.w3.org/2000/svg" width="226.94" height="62" viewBox="0 0 226.94 62"><g id="Layer_1-2"><path d="M74.88,19.78h0c0-1.3.95-2.44,2.36-2.44.79,0,1.28.23,1.75.62l-.34.4c-.36-.32-.77-.54-1.43-.54-1.04,0-1.79.88-1.79,1.93h0c0,1.14.72,1.97,1.86,1.97.54,0,1.03-.21,1.36-.47v-1.17h-1.43v-.48h1.94v1.87c-.44.39-1.09.72-1.89.72-1.48,0-2.39-1.07-2.39-2.42Z" fill="#fff"/><path d="M80.92,19.78h0c0-1.31.97-2.44,2.4-2.44s2.39,1.12,2.39,2.42t0,.01c0,1.3-.97,2.43-2.4,2.43s-2.39-1.12-2.39-2.42ZM85.16,19.78h0c0-1.08-.78-1.95-1.85-1.95s-1.84.86-1.84,1.93h0c0,1.08.78,1.96,1.85,1.96s1.84-.86,1.84-1.93Z" fill="#fff"/><path d="M87.6,17.42h2c.54,0,.96.15,1.23.42.19.2.3.45.3.75h0c0,.62-.38.94-.75,1.1.56.17,1.01.49,1.01,1.14h0c0,.82-.68,1.3-1.71,1.3h-2.09v-4.7ZM89.51,19.52c.64,0,1.08-.29,1.08-.84h0c0-.48-.37-.78-1.04-.78h-1.43v1.62h1.39ZM89.7,21.65c.71,0,1.16-.32,1.16-.84h0c0-.52-.43-.82-1.25-.82h-1.48v1.66h1.58Z" fill="#fff"/><path d="M93.26,17.42h.53v4.7h-.53v-4.7Z" fill="#fff"/><path d="M95.93,17.42h3.4v.48h-2.87v1.61h2.57v.48h-2.57v1.65h2.9v.48h-3.43v-4.7Z" fill="#fff"/><path d="M101.2,17.42h2.02c.58,0,1.04.17,1.34.47.23.23.36.56.36.93h0c0,.79-.54,1.25-1.28,1.38l1.44,1.92h-.65l-1.36-1.83h-1.34v1.83h-.53v-4.7ZM103.17,19.82c.71,0,1.21-.36,1.21-.97h0c0-.59-.44-.94-1.2-.94h-1.45v1.91h1.44Z" fill="#fff"/><path d="M106.82,17.42h.5l2.96,3.77v-3.77h.52v4.7h-.42l-3.04-3.86v3.86h-.52v-4.7Z" fill="#fff"/><path d="M112.68,19.78h0c0-1.31.97-2.44,2.4-2.44s2.39,1.12,2.39,2.42t0,.01c0,1.3-.97,2.43-2.4,2.43s-2.39-1.12-2.39-2.42ZM116.93,19.78h0c0-1.08-.78-1.95-1.85-1.95s-1.84.86-1.84,1.93h0c0,1.08.78,1.96,1.85,1.96s1.84-.86,1.84-1.93Z" fill="#fff"/><path d="M122.15,17.42h1.63c1.48,0,2.5,1.01,2.5,2.34h0c0,1.34-1.02,2.36-2.5,2.36h-1.63v-4.7ZM123.78,21.63c1.19,0,1.95-.81,1.95-1.85h0c0-1.05-.76-1.87-1.95-1.87h-1.1v3.72h1.1Z" fill="#fff"/><path d="M128.16,17.42h3.4v.48h-2.87v1.61h2.57v.48h-2.57v1.65h2.9v.48h-3.43v-4.7Z" fill="#fff"/><path d="M136.21,17.42h.53v4.21h2.65v.49h-3.18v-4.7Z" fill="#fff"/><path d="M142.87,17.39h.5l2.14,4.74h-.57l-.55-1.24h-2.56l-.56,1.24h-.54l2.14-4.74ZM144.18,20.4l-1.07-2.4-1.07,2.4h2.14Z" fill="#fff"/><path d="M81.25,33.58c-.61.2-1.45.17-2.04-.57l-1.49-1.92c-.42-.54-.91-.62-1.59-.63v1.88c0,.68.47.8,1.09.87.07,0,.02.33-.06.33h-2.94c-.08,0-.14-.32-.06-.33.49-.07.8-.26.8-.87v-4.33c0-.64-.34-.82-.8-.95-.08-.02-.03-.34.06-.33.38.05.8.06,1.12.06.72,0,1.39-.06,1.85-.06,1.46,0,2.44.6,2.44,1.79,0,1.12-.91,1.68-1.73,1.73v.05c.39,0,.67.17,1.1.7l1.45,1.81c.3.38.59.48.8.48.08,0,.06.26,0,.28ZM78.41,28.79c0-1.04-.66-1.55-1.52-1.55-.57,0-.76.23-.76.78v2h.28c1.44,0,2-.25,2-1.22Z" fill="#fff"/><path d="M82.82,33.21c.56-.15,1-.23,1-.95v-4.31c0-.62-.4-.79-.81-.89-.08-.02-.03-.34.05-.33.71.08,1.93.06,2.52.06.88,0,1.52-.04,2.32-.06.23,0,.23.16.18.38l-.23.92c-.03.14-.27.14-.31,0-.15-.48-.44-.75-1.65-.75-.68,0-.9.17-.9.68v1.58c0,.25.13.3.32.3h.21c.79,0,1.46-.08,1.86-.44.1-.09.31-.07.22.13l-.55,1.22c-.08.17-.22.16-.33,0-.22-.31-.72-.44-1.28-.44h-.14c-.19,0-.32.05-.32.3v1.63c0,.55.23.76,1.04.76,1.46,0,2.05-.67,2.28-1.04.07-.11.33-.06.33.11,0,.49-.42,1.47-1.03,1.47-.54-.03-1.08-.06-1.89-.06-.89,0-1.95-.03-2.83.06-.1.01-.14-.33-.06-.35Z" fill="#fff"/><path d="M92.5,30.94v1.4c0,.68.47.8,1.09.87.07,0,.02.33-.06.33h-2.94c-.08,0-.14-.32-.06-.33.49-.07.8-.26.8-.87v-4.33c0-.64-.34-.82-.8-.95-.08-.02-.03-.34.06-.33.38.05.8.06,1.12.06.72,0,1.32-.06,1.81-.06,1.5,0,2.74.55,2.74,2.08,0,1.73-1.62,2.45-3.76,2.13ZM92.5,28.01v2.45c1.65.23,2.51-.17,2.51-1.44,0-1.15-.74-1.79-1.74-1.79-.61,0-.78.21-.78.78Z" fill="#fff"/><path d="M99,31v-3.04c0-.61-.31-.81-.79-.87-.08,0-.02-.33.06-.33h2.65c.08,0,.14.32.06.33-.39.05-.78.19-.78.87v3.09c0,1.36.79,1.99,1.81,1.99s1.9-.63,1.9-1.99v-3.09c0-.63-.36-.8-.83-.87-.07,0-.02-.33.06-.33h2.18c.07,0,.13.32.05.33-.39.05-.78.19-.78.87v3.03c0,1.78-1.15,2.71-2.7,2.71-1.37,0-2.9-.73-2.9-2.7ZM101.85,24.34c.17-.25.99.5.76.67l-1.27.96c-.13.1-.47-.21-.37-.35l.88-1.28Z" fill="#fff"/><path d="M113.14,31.58c0,1.2-1.1,1.98-2.71,1.98-.47,0-1.01-.06-1.73-.06-.61,0-1.08,0-1.52.06-.09.01-.14-.33-.06-.35.56-.15,1-.23,1-.95v-4.31c0-.62-.4-.79-.81-.89-.08-.02-.03-.34.05-.33.4.05.86.06,1.17.06.78,0,1.35-.06,1.77-.06,1.25,0,2.28.52,2.29,1.59.01.79-.54,1.33-1.22,1.46v.06c.9,0,1.77.65,1.77,1.74ZM109.28,27.96v1.73h1c.7,0,1.11-.35,1.11-1.1,0-.92-.62-1.35-1.42-1.35-.51,0-.69.17-.69.72ZM111.89,31.8c0-1.07-.71-1.63-1.61-1.63h-1v2.09c0,.53.27.8,1.12.8s1.49-.25,1.49-1.26Z" fill="#fff"/><path d="M115,33.21c.56-.15,1-.23,1-.95v-4.31c0-.68-.4-.81-.81-.87-.08,0-.02-.33.05-.33h2.68c.07,0,.12.32.05.33-.41.05-.8.19-.8.87v4.31c0,.55.23.76,1.04.76,1.46,0,2.05-.67,2.28-1.04.07-.11.33-.06.33.11,0,.49-.42,1.47-1.03,1.47-.54-.03-1.08-.06-1.89-.06-.89,0-1.95-.03-2.83.06-.1.01-.14-.33-.06-.35Z" fill="#fff"/><path d="M122.52,33.21c.49-.07.8-.26.8-.87v-4.38c0-.61-.31-.8-.8-.87-.08,0-.02-.33.06-.33h2.66c.08,0,.14.32.06.33-.42.06-.8.19-.8.87v4.38c0,.68.39.81.8.87.08,0,.02.33-.06.33h-2.66c-.08,0-.14-.32-.06-.33Z" fill="#fff"/><path d="M127.34,30.27c0-1.68,1.03-3.68,3.74-3.68,1.13,0,2.09.35,1.98.69l-.13.38c-.35,1.04-.73-.29-2.45-.29-1.39,0-2.07.9-2.07,2.3,0,2.18,1.66,3.09,2.99,3.09.17,0,1.06-.14,1.56-.46.08-.05.28.17.22.26-.42.61-1.72,1.12-2.02,1.12-1.63,0-3.83-.95-3.83-3.42Z" fill="#fff"/><path d="M142.04,33.54h-2.56c-.13,0-.14-.31-.03-.33.36-.07.75-.19.39-1.03l-.11-.24c-.1-.23-.26-.25-.55-.25h-1.98c-.29,0-.46.02-.55.25l-.1.24c-.34.83.03.96.5,1.03.13.02.1.33-.03.33h-2.09c-.12,0-.15-.31-.03-.33.4-.07.63-.2.99-1.03l1.64-3.76c.38-.85.49-1.25.49-1.62,0-.06.68-.21.71-.15l2.37,5.52c.35.82.58.98.97,1.04.14.02.1.33-.02.33ZM139.34,30.99l-1.13-2.71-1.14,2.71c-.06.14.09.16.22.16h1.83c.14,0,.28-.02.22-.16Z" fill="#fff"/><path d="M146.74,33.21c.56-.15,1-.23,1-.95v-4.31c0-.62-.4-.79-.81-.89-.08-.02-.03-.34.05-.33.4.05.8.06,1.21.06.76,0,1.44-.06,1.93-.06,2.35,0,3.62,1.4,3.62,3.27s-1.27,3.56-3.63,3.56c-.47,0-1.07-.06-1.78-.06-.6,0-1.08,0-1.52.06-.1.01-.14-.33-.06-.35ZM152.57,30.56c0-1.85-1.01-3.31-2.75-3.31-.69,0-.91.21-.91.71v4.31c0,.52.36.79,1.3.79,1.58,0,2.37-.85,2.37-2.49Z" fill="#fff"/><path d="M155.84,30.19c0-1.96,1.4-3.59,3.52-3.59s3.5,1.48,3.5,3.5-1.39,3.6-3.52,3.6c-2.02,0-3.5-1.49-3.5-3.51ZM161.71,30.64c0-1.96-1.33-3.38-2.72-3.38-.85,0-1.98.56-1.98,2.39,0,1.98,1.33,3.39,2.72,3.39.85,0,1.99-.56,1.99-2.4Z" fill="#fff"/><path d="M173.41,33.54h-2.53c-.07,0-.12-.32-.06-.33.41-.07.71-.26.68-.87l-.18-3.26-1.57,3.2c-.2.42-.36.84-.39,1-.02.12-.22.17-.38.17-.15,0-.24-.06-.3-.17l-2.24-4.25-.15,3.31c-.03.68.37.83.68.87.08,0,.02.33-.05.33h-2.01c-.08,0-.14-.32-.06-.33.42-.05.77-.19.8-.87l.31-5.57c0-.16.38-.17.48,0l2.81,5.26,2.61-5.26c.09-.17.47-.16.48,0l.31,5.57c.04.68.39.82.8.87.08,0,.02.33-.05.33Z" fill="#fff"/><path d="M175.41,33.21c.49-.07.8-.26.8-.87v-4.38c0-.61-.31-.8-.8-.87-.08,0-.02-.33.06-.33h2.66c.08,0,.14.32.06.33-.42.06-.8.19-.8.87v4.38c0,.68.39.81.8.87.08,0,.02.33-.06.33h-2.66c-.08,0-.14-.32-.06-.33Z" fill="#fff"/><path d="M186.15,33.45l-4.62-4.83v3.68c0,.66.39.77.94.9.08.02.04.33-.06.33h-2.3c-.08,0-.14-.3-.05-.33.41-.14.79-.21.79-.9v-3.76c0-.69-.11-1.02-.36-1.36-.09-.12-.17-.19-.17-.22,0-.09.06-.21.19-.21h.72c.1,0,.17,0,.23.09l4.52,4.78v-3.65c0-.69-.44-.77-.94-.89-.08-.02-.04-.33.06-.33h2.3c.08,0,.13.31.05.33-.43.13-.8.2-.8.89v3.77c0,.64.02,1.35.12,1.71.04.15-.12.18-.27.18-.17,0-.25-.07-.36-.18Z" fill="#fff"/><path d="M189.41,33.21c.49-.07.8-.26.8-.87v-4.38c0-.61-.31-.8-.8-.87-.08,0-.02-.33.06-.33h2.66c.08,0,.14.32.06.33-.42.06-.8.19-.8.87v4.38c0,.68.39.81.8.87.08,0,.02.33-.06.33h-2.66c-.08,0-.14-.32-.06-.33Z" fill="#fff"/><path d="M194.23,30.27c0-1.68,1.03-3.68,3.74-3.68,1.13,0,2.09.35,1.98.69l-.13.38c-.35,1.04-.73-.29-2.45-.29-1.39,0-2.07.9-2.07,2.3,0,2.18,1.66,3.09,2.99,3.09.17,0,1.06-.14,1.56-.46.08-.05.28.17.22.26-.42.61-1.72,1.12-2.02,1.12-1.63,0-3.83-.95-3.83-3.42Z" fill="#fff"/><path d="M208.93,33.54h-2.56c-.13,0-.14-.31-.03-.33.36-.07.75-.19.39-1.03l-.11-.24c-.1-.23-.26-.25-.55-.25h-1.98c-.29,0-.46.02-.55.25l-.1.24c-.34.83.03.96.49,1.03.13.02.1.33-.03.33h-2.09c-.12,0-.15-.31-.03-.33.4-.07.63-.2.99-1.03l1.64-3.76c.38-.85.5-1.25.5-1.62,0-.06.68-.21.71-.15l2.37,5.52c.35.82.58.98.97,1.04.14.02.1.33-.02.33ZM206.22,30.99l-1.13-2.71-1.14,2.71c-.06.14.09.16.22.16h1.83c.14,0,.28-.02.22-.16Z" fill="#fff"/><path d="M216.83,33.45l-4.62-4.83v3.68c0,.66.39.77.94.9.08.02.04.33-.06.33h-2.3c-.08,0-.14-.3-.05-.33.41-.14.79-.21.79-.9v-3.76c0-.69-.11-1.02-.36-1.36-.09-.12-.17-.19-.17-.22,0-.09.06-.21.19-.21h.72c.1,0,.17,0,.23.09l4.52,4.78v-3.65c0-.69-.44-.77-.94-.89-.08-.02-.04-.33.06-.33h2.3c.08,0,.13.31.05.33-.43.13-.8.2-.8.89v3.77c0,.64.02,1.35.12,1.71.04.15-.12.18-.27.18-.17,0-.25-.07-.36-.18Z" fill="#fff"/><path d="M226.84,33.54h-2.56c-.13,0-.14-.31-.03-.33.36-.07.75-.19.39-1.03l-.11-.24c-.1-.23-.26-.25-.55-.25h-1.98c-.29,0-.46.02-.55.25l-.1.24c-.34.83.03.96.49,1.03.13.02.1.33-.03.33h-2.09c-.12,0-.15-.31-.03-.33.4-.07.63-.2.99-1.03l1.64-3.76c.38-.85.5-1.25.5-1.62,0-.06.68-.21.71-.15l2.37,5.52c.35.82.58.98.97,1.04.14.02.1.33-.02.33ZM224.13,30.99l-1.13-2.71-1.14,2.71c-.06.14.09.16.22.16h1.83c.14,0,.28-.02.22-.16Z" fill="#fff"/><rect x="74.97" y="39.32" width="35.06" height="1.66" fill="#fff"/><path d="M82.2,55.22s.04.04.04.11-.01.14-.03.21c-.02.07-.05.1-.08.1h-3.19s-.05-.04-.07-.1c-.02-.07-.03-.14-.03-.21s.02-.11.04-.11c.29-.04.51-.13.65-.28.14-.15.21-.38.21-.69v-1.71c-.04-.12-.19-.18-.47-.18h-2.3c-.29,0-.45.06-.49.18v1.71c0,.24.05.42.14.56.09.14.19.23.31.28.11.05.26.08.44.11.03,0,.04.04.04.11s-.01.14-.03.21c-.02.07-.05.1-.07.1h-3.19s-.05-.04-.07-.1c-.02-.07-.03-.14-.03-.21s.02-.11.04-.11c.3-.04.52-.13.66-.27.14-.15.21-.38.21-.69v-4.73c0-.31-.07-.54-.21-.69-.14-.15-.36-.24-.66-.28-.03,0-.04-.04-.04-.11s.01-.14.03-.21c.02-.07.05-.1.07-.1h3.19s.05.03.07.1.03.14.03.21-.02.11-.04.11c-.18.03-.32.06-.44.11-.12.05-.21.14-.3.28-.09.14-.13.33-.13.56v1.84c.04.12.2.18.49.18h2.3c.28,0,.43-.06.47-.18v-1.84c0-.31-.07-.54-.21-.69-.14-.15-.36-.25-.65-.28-.03,0-.04-.04-.04-.11s.01-.14.03-.21c.02-.07.05-.1.07-.1h3.19s.05.03.07.1c.02.07.03.14.03.21s-.02.11-.04.11c-.18.03-.32.06-.44.11-.11.05-.21.14-.3.28-.09.14-.13.33-.13.56v4.73c0,.23.05.42.14.56.09.14.19.23.31.28.11.05.26.08.44.11l-.02.07Z" fill="#fff"/><path d="M90.62,55.18c.07.02.1.09.09.22-.01.13-.05.19-.11.19h-3.09c-.07,0-.1-.06-.11-.19,0-.13.02-.2.08-.22.12-.02.22-.05.29-.08.07-.03.15-.08.21-.16.07-.07.1-.18.09-.32-.01-.14-.06-.32-.15-.53l-.06-.09c-.05-.14-.1-.22-.17-.26-.07-.04-.18-.06-.33-.06h-2.09c-.17,0-.29.02-.36.05s-.13.12-.19.26l-.03.09c-.09.2-.14.38-.14.52,0,.15.03.26.1.33.07.07.15.12.24.16.09.03.2.06.34.08.07.02.1.09.09.22-.01.13-.05.19-.12.19h-2.41c-.06,0-.09-.06-.1-.19-.01-.13.02-.2.07-.22.23-.04.43-.13.57-.27.15-.14.31-.41.49-.83l1.81-4.2c.36-.81.54-1.38.55-1.72,0-.04.13-.08.38-.14.25-.05.38-.06.4-.03l2.61,6.08c.18.41.34.69.49.83s.34.23.57.27v.02ZM87.16,53s.09,0,.12-.02c.03-.01.06-.03.09-.05.03-.03.03-.06,0-.11l-1.07-2.59-1.08,2.59c-.03.07-.02.11.02.14.04.03.1.04.19.04h1.73,0Z" fill="#fff"/><path d="M94.88,55.76c-.48,0-.95-.07-1.41-.21-.47-.14-.91-.36-1.33-.64-.42-.28-.77-.67-1.03-1.17-.26-.5-.39-1.08-.39-1.72,0-.49.08-.96.23-1.42.15-.46.38-.89.69-1.3.31-.41.74-.74,1.3-.99.56-.25,1.21-.38,1.94-.38.41,0,.79.04,1.15.11.36.07.64.17.83.29.19.12.26.24.22.36l-.16.46c-.09.27-.18.43-.27.5-.08.07-.19.07-.33,0-.14-.07-.29-.16-.45-.28s-.4-.22-.71-.33c-.31-.1-.65-.16-1.01-.16-.72,0-1.24.21-1.57.64-.33.42-.5,1-.5,1.74,0,.58.1,1.09.3,1.54.2.44.47.79.79,1.03.32.25.66.43,1,.55.34.12.69.18,1.04.18.16,0,.45-.04.86-.12s.69-.17.86-.28c.04-.03.11.01.2.11.09.1.12.18.09.22-.2.31-.58.59-1.14.85s-.95.39-1.19.39l-.03.02Z" fill="#fff"/><path d="M98.03,55.6s-.05-.04-.07-.1-.03-.14-.03-.21.02-.11.04-.11c.3-.04.52-.12.66-.27s.21-.38.21-.69v-4.73c0-.31-.07-.54-.21-.69-.14-.15-.36-.24-.66-.28-.03,0-.04-.04-.04-.11s.01-.14.03-.21c.02-.07.05-.1.07-.1h3.19s.05.03.07.1c.02.07.03.14.03.21s-.02.11-.04.11c-.18.03-.32.06-.44.11-.11.05-.21.14-.3.28-.09.14-.13.33-.13.56v4.73c0,.23.05.42.14.56.09.14.19.23.31.28.11.05.26.08.44.11.03,0,.04.04.04.11s-.01.14-.03.21c-.02.07-.05.1-.07.1h-3.19v.03Z" fill="#fff"/><path d="M101.87,55.62s-.08-.07-.1-.22c-.02-.15-.01-.23.03-.25.21-.06.36-.1.44-.13.08-.03.19-.08.31-.16.13-.07.21-.17.26-.29.05-.12.07-.28.07-.47v-4.67c0-.2-.05-.37-.14-.5s-.19-.23-.3-.28c-.1-.05-.25-.1-.44-.15-.03,0-.04-.04-.04-.11s.01-.14.03-.2c.02-.06.04-.09.06-.09.18.03.42.05.73.06.31.01.58.02.83.02s.51,0,.81,0c.3,0,.47,0,.51,0,.39,0,.88-.01,1.49-.03s.97-.03,1.09-.03.2.04.23.11c.03.08.03.18,0,.31l-.25,1.03c-.02.08-.07.11-.17.11s-.16-.04-.18-.12c-.06-.2-.15-.35-.26-.45s-.28-.19-.52-.25c-.24-.06-.57-.09-1-.09-.33,0-.56.05-.69.16-.14.11-.2.29-.2.53v1.69c0,.13.03.22.09.27s.15.07.27.07h.28c.92,0,1.57-.14,1.93-.43.06-.06.14-.07.21-.05.08.03.09.09.05.2l-.58,1.35c-.05.1-.11.15-.18.15s-.14-.04-.2-.13c-.22-.33-.65-.5-1.28-.5h-.2c-.12,0-.21.02-.27.07s-.08.14-.08.27v1.7c0,.31.07.53.22.66.15.13.42.19.83.19.62,0,1.14-.13,1.56-.38.42-.25.72-.51.89-.77.03-.05.1-.05.22-.02s.18.09.18.17c0,.29-.12.64-.36,1.04-.24.4-.52.6-.84.6-.97-.04-1.65-.06-2.03-.06-1.75,0-2.84.02-3.26.06v.03Z" fill="#fff"/><path d="M116.12,55.7c-.16,0-.31-.07-.44-.2l-5.01-4.98v3.64c0,.18.02.32.06.44s.13.21.26.28c.13.07.25.12.34.16.09.03.26.07.49.13.04,0,.05.08.04.21-.02.14-.05.2-.1.2h-2.76s-.07-.07-.09-.2c-.02-.13,0-.2.05-.22.04-.02.11-.05.22-.09.11-.04.19-.08.25-.11.05-.03.12-.08.19-.14s.12-.15.16-.27c.03-.11.05-.25.05-.41v-4c0-.14,0-.27-.02-.39-.01-.12-.02-.22-.03-.29-.01-.07-.03-.16-.06-.25-.03-.09-.05-.15-.07-.18-.02-.03-.04-.09-.08-.17s-.07-.14-.07-.16c-.04-.06-.07-.11-.11-.17-.04-.05-.07-.09-.09-.12-.02-.03-.03-.04-.03-.05,0-.18.08-.27.26-.27h.86c.11,0,.19.03.25.1l4.9,4.91v-3.59c0-.17-.02-.31-.06-.43-.04-.11-.12-.21-.23-.28-.11-.07-.21-.11-.3-.14-.08-.03-.22-.07-.41-.12-.06-.02-.1-.03-.13-.03-.04,0-.05-.08-.04-.21s.05-.2.09-.2h2.76s.06.07.08.2c.02.14,0,.21-.03.21-.02,0-.06.02-.15.05-.08.03-.14.05-.16.05s-.06.02-.13.05c-.07.03-.11.05-.13.06-.02.02-.05.04-.1.08s-.08.08-.09.11-.04.08-.06.14-.04.12-.05.19c0,.07-.01.15-.01.23v4.02c0,.95.04,1.6.13,1.97.02.07,0,.11-.06.14-.06.03-.15.04-.28.04v.03Z" fill="#fff"/><path d="M117.77,55.59s-.08-.07-.1-.22-.01-.23.03-.25c.21-.06.36-.1.44-.13.08-.03.19-.08.31-.16.13-.07.21-.17.26-.29s.07-.28.07-.47v-4.67c0-.29-.08-.51-.23-.64-.15-.13-.37-.23-.64-.31-.03,0-.04-.04-.04-.11s.01-.14.03-.2.04-.09.06-.09c.35.04.84.06,1.48.07.36,0,.78-.01,1.28-.03.5-.02.83-.03.97-.03,1.22,0,2.19.33,2.91,1.01.72.67,1.08,1.54,1.08,2.58,0,.68-.15,1.31-.45,1.9s-.76,1.08-1.38,1.46c-.62.39-1.35.58-2.18.58-.14,0-.43-.01-.89-.03-.46-.02-.86-.03-1.19-.03-.82,0-1.42.02-1.81.06h0ZM121.9,54.96c.77,0,1.33-.21,1.67-.63.34-.42.52-1.06.52-1.92,0-1.09-.26-1.98-.77-2.68-.51-.69-1.2-1.04-2.05-1.04-.33,0-.56.06-.7.17s-.21.3-.21.54v4.67c0,.58.51.88,1.54.88h.01Z" fill="#fff"/><path d="M133.88,55.18c.07.02.1.09.09.22-.01.13-.05.19-.11.19h-3.09c-.07,0-.1-.06-.11-.19,0-.13.02-.2.08-.22.12-.02.22-.05.29-.08.07-.03.15-.08.21-.16.07-.07.1-.18.09-.32-.01-.14-.06-.32-.15-.53l-.06-.09c-.05-.14-.1-.22-.17-.26-.07-.04-.18-.06-.33-.06h-2.09c-.17,0-.29.02-.36.05s-.13.12-.19.26l-.03.09c-.09.2-.14.38-.14.52,0,.15.03.26.1.33.07.07.15.12.24.16.09.03.2.06.34.08.07.02.1.09.09.22-.01.13-.05.19-.12.19h-2.41c-.06,0-.09-.06-.1-.19-.01-.13.02-.2.07-.22.23-.04.43-.13.57-.27.15-.14.31-.41.49-.83l1.81-4.2c.36-.81.54-1.38.55-1.72,0-.04.13-.08.38-.14.25-.05.38-.06.4-.03l2.61,6.08c.18.41.34.69.49.83s.34.23.57.27v.02ZM130.42,53s.09,0,.12-.02c.03-.01.06-.03.09-.05.03-.03.03-.06,0-.11l-1.07-2.59-1.08,2.59c-.03.07-.02.11.02.14.04.03.1.04.19.04h1.73,0Z" fill="#fff"/><path d="M143.62,48.1c.06,0,.09.07.1.2.01.13-.01.2-.07.22-.41.06-.83.42-1.25,1.08l-1.65,2.57v2.04c0,.34.08.57.25.7.17.13.44.21.81.26.02,0,.03.04.03.11s-.01.14-.03.21-.04.1-.06.1h-3.59s-.05-.04-.07-.1c-.02-.07-.03-.14-.03-.21s.01-.11.03-.11c.39-.06.67-.15.83-.28.16-.13.25-.36.25-.69v-1.97l-1.75-2.63c-.25-.37-.46-.64-.64-.8-.17-.17-.37-.27-.59-.29-.07-.02-.1-.09-.09-.22.01-.13.05-.2.13-.2h3.09c.07,0,.1.07.11.2,0,.13-.02.2-.08.22-.25.04-.39.14-.43.31-.04.17.04.43.25.77l1.24,1.86,1.21-1.86c.19-.33.25-.58.17-.75s-.27-.28-.55-.33c-.08-.02-.11-.09-.1-.22.01-.13.05-.2.11-.2h2.39v.02Z" fill="#fff"/><path d="M145.99,55.62s-.08-.07-.1-.22c-.02-.15-.01-.23.03-.25.21-.06.36-.1.44-.13.08-.03.19-.08.31-.16.13-.07.21-.17.26-.29.05-.12.07-.28.07-.47v-4.67c0-.2-.05-.37-.14-.5s-.19-.23-.3-.28c-.1-.05-.25-.1-.44-.15-.03,0-.04-.04-.04-.11s.01-.14.03-.2c.02-.06.04-.09.06-.09.18.03.42.05.73.06.31.01.58.02.83.02s.51,0,.81,0c.3,0,.47,0,.51,0,.39,0,.88-.01,1.49-.03s.97-.03,1.09-.03.2.04.23.11c.03.08.03.18,0,.31l-.25,1.03c-.02.08-.07.11-.17.11s-.16-.04-.18-.12c-.06-.2-.15-.35-.26-.45s-.28-.19-.52-.25c-.24-.06-.57-.09-1-.09-.33,0-.56.05-.69.16-.14.11-.2.29-.2.53v1.69c0,.13.03.22.09.27s.15.07.27.07h.28c.92,0,1.57-.14,1.93-.43.06-.06.14-.07.21-.05.08.03.09.09.05.2l-.58,1.35c-.05.1-.11.15-.18.15s-.14-.04-.2-.13c-.22-.33-.65-.5-1.28-.5h-.2c-.12,0-.21.02-.27.07s-.08.14-.08.27v1.7c0,.31.07.53.22.66.15.13.42.19.83.19.62,0,1.14-.13,1.56-.38.42-.25.72-.51.89-.77.03-.05.1-.05.22-.02s.18.09.18.17c0,.29-.12.64-.36,1.04-.24.4-.52.6-.84.6-.97-.04-1.65-.06-2.03-.06-1.75,0-2.84.02-3.26.06v.03Z" fill="#fff"/><path d="M157.29,55.76c-.48,0-.95-.07-1.41-.21-.47-.14-.91-.36-1.33-.64-.42-.28-.77-.67-1.03-1.17-.26-.5-.39-1.08-.39-1.72,0-.49.08-.96.23-1.42.15-.46.38-.89.69-1.3.31-.41.74-.74,1.3-.99.56-.25,1.21-.38,1.94-.38.41,0,.79.04,1.15.11s.64.17.83.29c.19.12.26.24.22.36l-.16.46c-.09.27-.18.43-.27.5-.08.07-.19.07-.33,0-.14-.07-.29-.16-.45-.28s-.4-.22-.71-.33c-.31-.1-.65-.16-1.01-.16-.72,0-1.24.21-1.57.64-.33.42-.5,1-.5,1.74,0,.58.1,1.09.3,1.54.2.44.47.79.79,1.03.32.25.66.43,1,.55.34.12.69.18,1.04.18.16,0,.45-.04.86-.12s.69-.17.86-.28c.04-.03.11.01.2.11.09.1.12.18.09.22-.2.31-.58.59-1.14.85s-.95.39-1.19.39l-.03.02Z" fill="#fff"/><path d="M164.39,55.76c-1.11,0-2.04-.37-2.78-1.1s-1.11-1.66-1.11-2.77.37-2.05,1.1-2.82,1.67-1.15,2.82-1.15,2.05.36,2.79,1.08c.74.72,1.11,1.64,1.11,2.76s-.37,2.06-1.09,2.83-1.67,1.15-2.82,1.15v.02ZM164.83,54.92c.51,0,.95-.2,1.33-.6.38-.4.57-1.02.57-1.87,0-1.01-.29-1.88-.86-2.6-.57-.72-1.22-1.08-1.94-1.08-.51,0-.94.2-1.32.59s-.56,1.02-.56,1.86c0,1.02.29,1.89.86,2.6.57.72,1.22,1.08,1.94,1.08h-.02Z" fill="#fff"/><path d="M176.23,55.7c-.16,0-.31-.07-.44-.2l-5.01-4.98v3.64c0,.18.02.32.06.44s.13.21.26.28c.13.07.25.12.34.16.09.03.26.07.49.13.04,0,.05.08.04.21-.02.14-.05.2-.1.2h-2.76s-.07-.07-.09-.2c-.02-.13,0-.2.05-.22.04-.02.11-.05.22-.09.11-.04.19-.08.25-.11.05-.03.12-.08.19-.14s.12-.15.16-.27c.03-.11.05-.25.05-.41v-4c0-.14,0-.27-.02-.39-.01-.12-.02-.22-.03-.29-.01-.07-.03-.16-.06-.25-.03-.09-.05-.15-.07-.18-.02-.03-.04-.09-.08-.17s-.07-.14-.07-.16c-.04-.06-.07-.11-.11-.17-.04-.05-.07-.09-.09-.12-.02-.03-.03-.04-.03-.05,0-.18.08-.27.26-.27h.86c.11,0,.19.03.25.1l4.9,4.91v-3.59c0-.17-.02-.31-.06-.43-.04-.11-.12-.21-.23-.28-.11-.07-.21-.11-.3-.14-.08-.03-.22-.07-.41-.12-.06-.02-.1-.03-.13-.03-.04,0-.05-.08-.04-.21s.05-.2.09-.2h2.76s.06.07.08.2c.02.14,0,.21-.03.21-.02,0-.06.02-.15.05-.08.03-.14.05-.16.05s-.06.02-.13.05c-.07.03-.11.05-.13.06-.02.02-.05.04-.1.08s-.08.08-.09.11-.04.08-.06.14-.04.12-.05.19c0,.07-.01.15-.01.23v4.02c0,.95.04,1.6.13,1.97.02.07,0,.11-.06.14-.06.03-.15.04-.28.04v.03Z" fill="#fff"/><path d="M181.98,55.76c-1.11,0-2.04-.37-2.78-1.1s-1.11-1.66-1.11-2.77.37-2.05,1.1-2.82,1.67-1.15,2.82-1.15,2.05.36,2.79,1.08c.74.72,1.11,1.64,1.11,2.76s-.37,2.06-1.09,2.83-1.67,1.15-2.82,1.15v.02ZM182.42,54.92c.51,0,.95-.2,1.33-.6.38-.4.57-1.02.57-1.87,0-1.01-.29-1.88-.86-2.6-.57-.72-1.22-1.08-1.94-1.08-.51,0-.94.2-1.32.59s-.56,1.02-.56,1.86c0,1.02.29,1.89.86,2.6.57.72,1.22,1.08,1.94,1.08h-.02Z" fill="#fff"/><path d="M196.33,55.16s.05.08.04.21-.04.2-.08.2h-3.11s-.06-.07-.08-.2-.01-.21.02-.21c.56-.1.83-.42.8-.96l-.2-3.15-1.51,3.09c-.25.5-.4.88-.46,1.15-.02.13-.19.19-.51.19-.19,0-.32-.06-.39-.19l-2.37-4.45-.14,3.36c-.02.56.24.88.79.96.04,0,.05.08.04.21-.02.14-.04.2-.08.2h-2.37s-.05-.04-.07-.1c-.02-.07-.03-.14-.03-.21s.02-.11.04-.11c.27-.03.47-.11.62-.25.15-.14.23-.38.25-.72l.38-6.06c0-.11.09-.17.27-.17s.3.05.37.17l3.08,5.63,2.82-5.63c.06-.12.18-.17.37-.17s.29.05.29.16l.38,6.07c.02.34.1.58.26.72s.35.22.6.25h0Z" fill="#fff"/><path d="M197.05,55.61s-.05-.04-.07-.1c-.02-.07-.03-.14-.03-.21s.02-.11.04-.11c.3-.04.52-.13.66-.27.14-.15.21-.38.21-.69v-4.73c0-.31-.07-.54-.21-.69s-.36-.24-.66-.28c-.03,0-.04-.04-.04-.11s.01-.14.03-.21c.02-.07.05-.1.07-.1h3.19s.05.03.07.1c.02.07.03.14.03.21s-.02.11-.04.11c-.18.03-.32.06-.44.11-.11.05-.21.14-.3.28-.09.14-.13.33-.13.56v4.73c0,.23.05.42.14.56.09.14.19.23.31.28.11.05.26.08.44.11.03,0,.04.04.04.11s-.01.14-.03.21c-.02.07-.05.1-.07.1h-3.19v.03ZM198.67,45.39c.06-.09.18-.08.37.03.19.11.34.25.47.43.12.18.15.29.07.35l-1.37,1.03c-.07.06-.17.01-.32-.14-.15-.15-.19-.26-.15-.32l.92-1.38Z" fill="#fff"/><path d="M208.73,55.18c.07.02.1.09.09.22-.01.13-.05.19-.11.19h-3.09c-.07,0-.1-.06-.11-.19,0-.13.02-.2.08-.22.12-.02.22-.05.29-.08.07-.03.15-.08.21-.16.07-.07.1-.18.09-.32-.01-.14-.06-.32-.15-.53l-.06-.09c-.05-.14-.1-.22-.17-.26-.07-.04-.18-.06-.33-.06h-2.09c-.17,0-.29.02-.36.05s-.13.12-.19.26l-.03.09c-.09.2-.14.38-.14.52,0,.15.03.26.1.33.07.07.15.12.24.16.09.03.2.06.34.08.07.02.1.09.09.22-.01.13-.05.19-.12.19h-2.41c-.06,0-.09-.06-.1-.19-.01-.13.02-.2.07-.22.23-.04.43-.13.57-.27.15-.14.31-.41.49-.83l1.81-4.2c.36-.81.54-1.38.55-1.72,0-.04.13-.08.38-.14.25-.05.38-.06.4-.03l2.61,6.08c.18.41.34.69.49.83s.34.23.57.27v.02ZM205.27,53s.09,0,.12-.02c.03-.01.06-.03.09-.05.03-.03.03-.06,0-.11l-1.07-2.59-1.08,2.59c-.03.07-.02.11.02.14.04.03.1.04.19.04h1.73,0Z" fill="#fff"/><path d="M59.29,53.37H.33c-.18,0-.33.15-.33.33v1.39c0,.18.15.33.33.33h58.95c.18,0,.33-.15.33-.33v-1.39c0-.18-.15-.33-.33-.33ZM31.07,52.63c.18,0,.33-.15.33-.33v-2.51c0-.18-.15-.33-.33-.33h-2.51c-.18,0-.33.15-.33.33v2.51c0,.18.15.33.33.33h2.51ZM43.37,52.63c.18,0,.33-.15.33-.33v-2.51c0-.18-.15-.33-.33-.33h-2.51c-.18,0-.33.15-.33.33v2.51c0,.18.15.33.33.33h2.51ZM18.76,52.63c.18,0,.33-.15.33-.33v-2.51c0-.18-.15-.33-.33-.33h-2.51c-.18,0-.33.15-.33.33v2.51c0,.18.15.33.33.33h2.51ZM51.01,52.63c-.18,0-.33-.15-.33-.33v-2.51c0-.18.15-.33.33-.33h2.51c.18,0,.33.15.33.33v2.51c0,.18-.15.33-.33.33h-2.51ZM8.61,52.63c.18,0,.33-.15.33-.33v-2.51c0-.18-.15-.33-.33-.33h-2.51c-.18,0-.33.15-.33.33v2.51c0,.18.15.33.33.33h2.51ZM59.62,47.78v.5c0,.1-.08.18-.18.18H.18c-.1,0-.18-.08-.18-.18v-.5c0-.1.08-.18.18-.18h.15s0,0,0,0h5.4s0-.88,0-.88c0-.18.15-.33.33-.33h2.55c.18,0,.33.15.33.33v.88h6.98s0-.88,0-.88c0-.18.15-.33.33-.33h2.55c.18,0,.33.15.33.33v.88h9.02s0-.88,0-.88c0-.18.15-.33.33-.33h2.55c.18,0,.33.15.33.33v.88h9.18s0-.88,0-.88c0-.18.15-.33.33-.33h2.47c.18,0,.33.15.33.33v.88h6.98s0-.88,0-.88c0-.18.15-.33.33-.33h2.47c.18,0,.33.15.33.33v.88h5.48s0,0,0,0h.14c.1,0,.18.08.18.18ZM28.38,45.53v-25.94s-1.07.97-1.52,1.45c-.78.84-1.52,1.77-2.21,2.8-1.12,1.67-2.11,3.57-2.94,5.66-.85,2.14-1.53,4.49-2.01,6.97-.48,2.5-.76,5.14-.8,7.89,0,.26,0,1.17,0,1.17h9.5ZM40.74,45.53s0-.92,0-1.17c-.04-2.74-.32-5.39-.8-7.89-.48-2.49-1.16-4.83-2.01-6.97-.83-2.09-1.82-3.99-2.94-5.66-.69-1.02-1.43-1.96-2.21-2.8-.45-.48-1.52-1.45-1.52-1.45v25.94s9.5,0,9.5,0ZM22.24,22.39c1-1.57,2.11-2.75,2.49-3.14.09-.09.2-.19.2-.19,0,0-.19.09-.26.12-2.34,1.05-4.53,2.58-6.48,4.5-1.68,1.65-3.19,3.58-4.49,5.75-.26.43-2.16,3.99-2.57,4.98-1.07,2.64-1.69,5.28-2.05,7.54-.12.75-.42,3.59-.42,3.59h7.43s.14-4.44.29-5.93c.32-3.12.93-5.98,1.78-8.61,1.02-3.16,2.4-6.01,4.06-8.61ZM41.44,30.99c.85,2.63,1.46,5.48,1.78,8.61.15,1.49.29,5.93.29,5.93h7.43s-.3-2.84-.42-3.59c-.35-2.26-.97-4.9-2.05-7.54-.4-.99-2.31-4.55-2.57-4.98-1.3-2.17-2.81-4.1-4.49-5.75-1.95-1.92-4.13-3.44-6.48-4.5-.07-.03-.26-.12-.26-.12,0,0,.11.11.2.19.38.38,1.49,1.57,2.49,3.14,1.66,2.6,3.04,5.44,4.06,8.61ZM5.9,45.53s.27-3.03.81-5.71c.46-2.29,1.18-4.28,1.27-4.53.45-1.3.97-2.75,1.76-4.31,1.43-2.82,2.89-5.46,5.53-8.24.8-.85,1.69-1.75,2.75-2.63.46-.38,1.67-1.27,2.26-1.65.14-.09.56-.32.56-.32,0,0-.46.19-.58.24-.84.36-1.66.76-2.47,1.19-1.76.95-3.41,2.06-4.95,3.32-2.62,2.15-4.87,4.72-6.66,7.61-2.32,3.75-3.85,8.04-4.37,12.64-.08.71-.17,2.39-.17,2.39h4.26ZM57.97,45.53s-.09-1.69-.17-2.39c-.52-4.6-2.05-8.89-4.37-12.64-1.79-2.89-4.04-5.47-6.66-7.61-1.53-1.26-3.19-2.37-4.95-3.32-.8-.43-1.62-.83-2.47-1.19-.12-.05-.58-.24-.58-.24,0,0,.42.24.56.32.59.38,1.8,1.27,2.26,1.65,1.06.87,1.95,1.78,2.75,2.63,2.63,2.78,4.09,5.42,5.53,8.24.8,1.56,1.31,3.02,1.76,4.31.09.24.81,2.24,1.27,4.53.54,2.68.81,5.71.81,5.71h4.26ZM24.26,17.27h11.09c.1,0,.18-.08.18-.18v-.43c0-.1-.08-.18-.18-.18h-11.09c-.1,0-.18.08-.18.18v.43c0,.1.08.18.18.18ZM24.26,8.89h11.09c.1,0,.18-.08.18-.18v-.43c0-.1-.08-.18-.18-.18h-11.09c-.1,0-.18.08-.18.18v.43c0,.1.08.18.18.18ZM33.16,9.36c.18,0,.33.15.33.33v5.77c0,.18-.15.33-.33.33h-1.08c-.18,0-.33-.15-.33-.33v-5.77c0-.18.15-.33.33-.33h1.08ZM29.27,9.36c-.18,0-.33.15-.33.33v5.77c0,.18.15.33.33.33h1.08c.18,0,.33-.15.33-.33v-5.77c0-.18-.15-.33-.33-.33h-1.08ZM26.46,9.36c-.18,0-.33.15-.33.33v5.77c0,.18.15.33.33.33h1.08c.18,0,.33-.15.33-.33v-5.77c0-.18-.15-.33-.33-.33h-1.08ZM34.08,7.06c-.23-2.22-2.01-3.95-4.19-3.99v-.72h1.17v-.56s-.02-.04-.04-.04h-.17s-.04.02-.04.04v.42h-.92V.56h.02s.05-.02.05-.05V.05s-.02-.05-.05-.05h-.2s-.05.02-.05.05v.46s.02.05.05.05h.03v1.66h-.93v-.42s-.02-.04-.04-.04h-.17s-.04.02-.04.04v.56h1.18v.72c-2.18.04-3.97,1.78-4.19,4-.02.15-.02.47-.02.47h8.58s0-.34-.03-.49Z" fill="#fff"/><rect x="66.04" y="12.42" width=".93" height="49.58" fill="#fff"/></g></svg>