<?xml version="1.0" encoding="UTF-8"?>
<svg id="Capa_1" data-name="Capa 1" xmlns="http://www.w3.org/2000/svg" version="1.1" viewBox="0 0 2388 447.3">
  <defs>
    <style>
      .cls-1 {
        fill: #f16322;
  ***REMOVED***

      .cls-1, .cls-2 {
        stroke-width: 0px;
  ***REMOVED***

      .cls-2 {
        fill: #231f20;
  ***REMOVED***
    </style>
  </defs>
  <g>
    <path class="cls-1" d="M48.1,157c0,16.5,9.5,37.6,22.7,59.1l1,.4c6.4,9.4,14.8,19.8,19.7,19.8s35.2-48.4,35.2-48.4l24.4,29.3,44.7-66.4,9.3,14.1,1.3-53.1-45,34.9,21.8-1.6-32.2,50-29.2-34.7s-21.4,31.5-31.9,45.4c-11.4-17.9-19.7-35.6-19.7-49.3,0-43.1,36.5-78,81.5-78s81.6,34.9,81.6,78-80.1,126.6-80.1,126.6c0,0-20.1-19.6-42-47.8-2,3.6-10.8,11.9-12.9,15,27.9,36.3,55.2,68.2,55.2,68.2,0,0,101.7-106.6,101.7-161.6s-46.4-99.6-103.6-99.6-103.5,44.6-103.5,99.6Z"/>
    <path class="cls-1" d="M184.3,299.2c23.9,6.3,34.7,18.1,27.3,29.7-7.4,11.6-30.8,19.4-58.9,19.6-28.1.2-52-7.2-60.3-18.7-8.3-11.5,1.7-23.4,25.1-30l-19.2-12.4c-36.6,10.4-52.1,28.9-39.1,46.8,13,17.9,50.2,29.5,94.1,29.2,43.8-.3,80.3-12.4,91.9-30.5,11.6-18.1-5.4-36.4-42.7-46.2l-18.2,12.7Z"/>
  </g>
  <g>
    <path class="cls-2" d="M494.8,268.6v-106.1l-52.3,87.4h-13.5l-52.3-85.9v104.6h-28.4V108.6h24.7l62.8,106.1,62-106.1h24.7v159.9h-27.6Z"/>
    <path class="cls-2" d="M651,158c9.7,9,14.2,21.7,14.2,38.9v71.7h-26.9v-14.9c-3.7,5.2-8.2,9.7-14.9,12-6.7,3-14.2,4.5-23.2,4.5s-17.2-1.5-23.9-4.5c-6.7-3-12-7.5-15.7-12.7-3.7-5.2-5.2-12-5.2-18.7,0-11.2,3.7-19.4,12-26.2,8.2-6.7,20.9-9.7,38.1-9.7h31.4v-1.5c0-8.2-2.2-14.9-7.5-19.4-5.2-4.5-12.7-6.7-22.4-6.7s-13.5.7-20.2,3c-6.7,2.2-12,5.2-16.4,9l-11.2-20.9c6.7-5.2,14.2-8.2,23.2-11.2,9-2.2,18.7-3.7,28.4-3.7,17.2-1.5,30.6,2.2,40.4,11.2ZM624.9,243.9c5.2-3,9.7-8.2,12-14.2v-14.2h-29.1c-16.4,0-24.7,5.2-24.7,16.4s2.2,9,6,12c3.7,3,9.7,4.5,17.2,4.5,6.7.7,13.5-.7,18.7-4.5Z"/>
    <path class="cls-2" d="M801.2,152.7c9.7,5.2,16.4,12.7,21.7,21.7,5.2,9.7,8.2,20.2,8.2,32.9s-3,23.2-8.2,32.9c-5.2,9.7-12.7,17.2-21.7,21.7-9.7,5.2-20.2,7.5-32.1,7.5s-29.1-5.2-38.9-16.4v59h-28.4v-165.1h26.9v15.7c4.5-6,10.5-10.5,17.2-12.7,6.7-3,14.2-4.5,23.2-4.5s22.4,2.2,32.1,7.5ZM792.3,234.9c6.7-6.7,10.5-16.4,10.5-27.6s-3.7-20.9-10.5-27.6c-6.7-6.7-15.7-10.5-26.2-10.5s-12.7,1.5-18.7,4.5c-6,3-9.7,7.5-12.7,13.5-3,6-4.5,12.7-4.5,20.2s1.5,14.2,4.5,20.2c3,6,7.5,10.5,12.7,13.5,5.2,3,12,4.5,18.7,4.5,10.5,0,19.4-3.7,26.2-10.5Z"/>
    <path class="cls-2" d="M944.7,158c9.7,9,14.2,21.7,14.2,38.9v71.7h-26.9v-14.9c-3.7,5.2-8.2,9.7-14.9,12-6.7,3-14.2,4.5-23.2,4.5s-17.2-1.5-23.9-4.5c-6.7-3-12-7.5-15.7-12.7-3.7-5.2-5.2-12-5.2-18.7,0-11.2,3.7-19.4,12-26.2,8.2-6.7,20.9-9.7,38.1-9.7h31.4v-1.5c0-8.2-2.2-14.9-7.5-19.4-5.2-4.5-12.7-6.7-22.4-6.7s-13.5.7-20.2,3c-6.7,2.2-12,5.2-16.4,9l-11.2-20.9c6.7-5.2,14.2-8.2,23.2-11.2,9-2.2,18.7-3.7,28.4-3.7,16.4-1.5,30.6,2.2,40.4,11.2ZM918.6,243.9c5.2-3,9.7-8.2,12-14.2v-14.2h-29.1c-16.4,0-24.7,5.2-24.7,16.4s2.2,9,6,12c3.7,3,9.7,4.5,17.2,4.5,6.7.7,12.7-.7,18.7-4.5Z"/>
    <path class="cls-2" d="M995.5,108.6h36.6v159.9h-36.6V108.6Z"/>
    <path class="cls-2" d="M1179.4,157.2c9.7,9,14.2,22.4,14.2,40.4v70.2h-35.9v-65c0-9.7-2.2-17.2-6.7-21.7-4.5-4.5-10.5-7.5-18.7-7.5s-16.4,3-21.7,8.2c-5.2,5.2-8.2,13.5-8.2,24.7v60.5h-35.9v-121.8h33.6v14.2c4.5-5.2,10.5-9,17.9-12,6.7-3,14.9-4.5,23.2-4.5,16.4.7,28.4,5.2,38.1,14.2Z"/>
    <path class="cls-2" d="M1345.2,145.3l-51.6,122.6h-36.6l-51.6-122.6h36.6l33.6,83.7,35.1-83.7h34.4Z"/>
    <path class="cls-2" d="M1476,217h-92.7c1.5,7.5,6,13.5,12,17.9,6,4.5,14.2,6.7,23.2,6.7s12-.7,17.2-3c5.2-2.2,9.7-5.2,13.5-9l18.7,20.2c-11.2,13.5-28.4,20.2-50.8,20.2s-26.2-3-36.6-8.2c-10.5-5.2-18.7-12.7-24.7-22.4s-9-20.2-9-32.9,3-23.2,8.2-32.9c6-9.7,13.5-17.2,23.2-22.4,9.7-5.2,20.9-8.2,33.6-8.2s23.2,2.2,32.9,7.5c9.7,5.2,17.2,12.7,23.2,22.4,5.2,9.7,8.2,20.9,8.2,33.6,0,1.5,0,4.5,0,10.5ZM1392.3,177.4c-5.2,4.5-9,10.5-9.7,18.7h60.5c-1.5-7.5-4.5-14.2-9.7-18.7-5.2-4.5-12-6.7-20.2-6.7s-15.7,2.2-20.9,6.7Z"/>
    <path class="cls-2" d="M1551.5,148.2c7.5-3,15.7-4.5,24.7-4.5v32.9c-3.7,0-6.7-.7-8.2-.7-10.5,0-17.9,3-23.9,8.2-6,6-9,14.2-9,25.4v58.3h-35.9v-122.6h33.6v16.4c5.2-6,11.2-10.5,18.7-13.5Z"/>
    <path class="cls-2" d="M1609,266.3c-9.7-2.2-17.2-6-23.2-9.7l12-25.4c5.2,3.7,12,6,20.2,8.2,8.2,2.2,15.7,3,23.2,3,14.9,0,22.4-3.7,22.4-11.2s-2.2-6-6-7.5c-3.7-1.5-10.5-3-18.7-3.7-9.7-1.5-18.7-3-24.7-5.2-6.7-2.2-12-5.2-17.2-10.5-5.2-5.2-7.5-12-7.5-21.7s2.2-14.9,6.7-20.9c4.5-6,11.2-10.5,19.4-14.2,8.2-3,18.7-5.2,30.6-5.2s17.2.7,26.2,3c9,2.2,15.7,4.5,21.7,8.2l-12,25.4c-10.5-6-22.4-9-35.1-9s-13.5.7-17.2,3c-3.7,2.2-6,5.2-6,8.2s2.2,6.7,6,8.2c3.7,1.5,10.5,3,19.4,4.5,9.7,1.5,17.9,3.7,24.7,5.2,6.7,2.2,12,5.2,16.4,10.5,4.5,5.2,6.7,12,6.7,20.9s-2.2,14.2-6.7,20.2c-4.5,6-11.2,10.5-20.2,13.5-9,3-19.4,5.2-31.4,5.2-9.7.7-20.2-.7-29.9-3Z"/>
    <path class="cls-2" d="M1721.1,122.8c-3.7-3.7-6-8.2-6-14.2s2.2-10.5,6-14.2c3.7-3.7,9.7-6,15.7-6s12,1.5,15.7,5.2c4.5,3.7,6,8.2,6,13.5s-2.2,10.5-6,14.9c-3.7,3.7-9.7,6-15.7,6s-12-1.5-15.7-5.2ZM1718.9,145.3h35.9v122.6h-35.9v-122.6Z"/>
    <path class="cls-2" d="M1811.5,261.8c-10.5-5.2-17.9-12.7-23.9-22.4-6-9.7-9-20.2-9-32.9s3-23.2,9-32.9c6-9.7,13.5-17.2,23.9-22.4,10.5-5.2,21.7-8.2,35.1-8.2s24.7,3,34.4,8.2c10.5,5.2,17.9,12.7,23.9,22.4,6,9.7,9,20.2,9,32.9s-3,23.2-9,32.9c-6,9.7-13.5,17.2-23.9,22.4-10.5,5.2-21.7,8.2-34.4,8.2s-24.7-3-35.1-8.2ZM1868.3,231.9c6-6,9-14.2,9-24.7s-3-18.7-9-24.7c-6-6-13.5-9-22.4-9s-16.4,3-22.4,9c-6,6-9,14.2-9,24.7s3,18.7,9,24.7c6,6,13.5,9,22.4,9s17.2-3,22.4-9Z"/>
    <path class="cls-2" d="M2048.4,157.2c9.7,9,14.2,22.4,14.2,40.4v70.2h-35.9v-65c0-9.7-2.2-17.2-6.7-21.7-4.5-4.5-10.5-7.5-18.7-7.5s-16.4,3-21.7,8.2c-5.2,5.2-8.2,13.5-8.2,24.7v60.5h-35.9v-121.8h33.6v14.2c4.5-5.2,10.5-9,17.9-12,6.7-3,14.9-4.5,23.2-4.5,16.4.7,29.1,5.2,38.1,14.2Z"/>
    <path class="cls-2" d="M2215.8,217h-92.7c1.5,7.5,6,13.5,12,17.9s14.2,6.7,23.2,6.7,12-.7,17.2-3c5.2-2.2,9.7-5.2,13.5-9l18.7,20.2c-11.2,13.5-28.4,20.2-50.8,20.2s-26.2-3-36.6-8.2c-10.5-5.2-18.7-12.7-24.7-22.4-6-9.7-8.2-20.2-8.2-32.9s3-23.2,8.2-32.9c6-9.7,13.5-17.2,23.2-22.4,9.7-5.2,20.9-8.2,33.6-8.2s23.2,2.2,32.9,7.5c9.7,5.2,17.2,12.7,23.2,22.4,5.2,9.7,8.2,20.9,8.2,33.6,0,1.5,0,4.5-.7,10.5ZM2132.9,177.4c-5.2,4.5-9,10.5-9.7,18.7h60.5c-1.5-7.5-4.5-14.2-9.7-18.7-5.2-4.5-12-6.7-20.2-6.7s-15.7,2.2-20.9,6.7Z"/>
    <path class="cls-2" d="M2251.7,266.3c-9.7-2.2-17.2-6-23.2-9.7l12-25.4c5.2,3.7,12,6,20.2,8.2,8.2,2.2,15.7,3,23.2,3,14.9,0,22.4-3.7,22.4-11.2s-2.2-6-6-7.5c-3.7-1.5-10.5-3-18.7-3.7-9.7-1.5-18.7-3-24.7-5.2-6.7-2.2-12-5.2-17.2-10.5-5.2-5.2-7.5-12-7.5-21.7s2.2-14.9,6.7-20.9c4.5-6,11.2-10.5,19.4-14.2,8.2-3,18.7-5.2,30.6-5.2s17.2.7,26.2,3c9,2.2,15.7,4.5,21.7,8.2l-12,25.4c-10.5-6-22.4-9-35.1-9s-13.5.7-17.2,3c-3.7,2.2-6,5.2-6,8.2s2.2,6.7,6,8.2,10.5,3,19.4,4.5c9.7,1.5,17.9,3.7,24.7,5.2,6.7,2.2,12,5.2,16.4,10.5,4.5,5.2,6.7,12,6.7,20.9s-2.2,14.2-6.7,20.2c-4.5,6-11.2,10.5-20.2,13.5-9,3-19.4,5.2-31.4,5.2-10.5.7-20.2-.7-29.9-3Z"/>
  </g>
</svg>