<svg xmlns="http://www.w3.org/2000/svg" xmlns:xlink="http://www.w3.org/1999/xlink" width="231" height="44" viewBox="0 0 231 44">
  <defs>
    <clipPath id="clip-logoMIVW">
      <rect width="231" height="44"/>
    </clipPath>
  </defs>
  <g id="logoMIVW" clip-path="url(#clip-logoMIVW)">
    <path id="Trazado_8361" data-name="Trazado 8361" d="M34.98,15.835l1.606,4.943h5.2l-4.2,3.055,1.606,4.943L34.98,25.721l-4.2,3.055,1.606-4.943-4.205-3.055h5.2Z" transform="translate(-5.549 -2.645)" fill="#fff"/>
    <path id="Trazado_8366" data-name="Trazado 8366" d="M62.9,31.669l1.606,4.943h5.2l-4.2,3.056L67.1,44.611l-4.2-3.056-4.205,3.056L60.3,39.668l-4.2-3.056h5.2Z" transform="translate(-10.84 -5.646)" fill="#fff"/>
    <path id="Trazado_8367" data-name="Trazado 8367" d="M5.455,36.612H.257l4.205,3.056L2.855,44.611l4.205-3.055,4.2,3.055L9.659,39.668l4.205-3.056h-5.2L7.061,31.669Z" transform="translate(-0.257 -5.646)" fill="#fff"/>
    <path id="Trazado_8362" data-name="Trazado 8362" d="M62.9,0,61.293,4.943H56.1L60.3,8l-1.606,4.944L62.9,9.887l4.2,3.055L65.5,8l4.2-3.055h-5.2Z" transform="translate(-10.84 0.356)" fill="#fff"/>
    <path id="Trazado_8360" data-name="Trazado 8360" d="M7.06,0,5.455,4.943H.257L4.462,8,2.855,12.942,7.06,9.887l4.2,3.055L9.659,8l4.205-3.055h-5.2Z" transform="translate(-0.257 0.356)" fill="#fff"/>
    <path id="Trazado_8363" data-name="Trazado 8363" d="M113.894,23.818H97.789v14.8H86.9V.057H97.789V14.406h16.105V.057h10.888V38.62H113.894Z" transform="translate(-16.679 0.346)" fill="#fff"/>
    <path id="Trazado_8364" data-name="Trazado 8364" d="M11.64,64.435V70.7H4V64.435H0V80.621H4V74.171H11.64v6.451h4V64.435Z" transform="translate(116.496 -64.078)" fill="#fff"/>
    <path id="Trazado_8368" data-name="Trazado 8368" d="M38.83,78.413a6.754,6.754,0,0,1,.5-2.594,6.278,6.278,0,0,1,1.4-2.107,6.452,6.452,0,0,1,2.142-1.393,6.987,6.987,0,0,1,2.642-.5,8.215,8.215,0,0,1,1.547.166,6.628,6.628,0,0,1,1.726.607,6.722,6.722,0,0,1,1.666,1.226,5.935,5.935,0,0,1,1.3,2,6.745,6.745,0,0,1,.5,2.594,6.592,6.592,0,0,1-.5,2.558,6.232,6.232,0,0,1-1.416,2.095,6.433,6.433,0,0,1-2.154,1.381,7.459,7.459,0,0,1-5.308,0,6.263,6.263,0,0,1-3.547-3.475,6.6,6.6,0,0,1-.5-2.558m3.856,0a2.888,2.888,0,0,0,.8,2.059,2.673,2.673,0,0,0,2.035.845,3.3,3.3,0,0,0,1.274-.285,2.527,2.527,0,0,0,1.142-1.012,2.922,2.922,0,0,0,.464-1.607,3.6,3.6,0,0,0-.262-1.262,2.576,2.576,0,0,0-.976-1.19,2.794,2.794,0,0,0-1.643-.5,2.7,2.7,0,0,0-1.607.5,2.592,2.592,0,0,0-.964,1.19,3.588,3.588,0,0,0-.262,1.262" transform="translate(95.566 -68.058)" fill="#fff"/>
    <path id="Trazado_8370" data-name="Trazado 8370" d="M72.548,72.291h4v1.452a5.078,5.078,0,0,1,3.928-1.666,4.763,4.763,0,0,1,2.559.643,4.319,4.319,0,0,1,1.619,1.856,6.893,6.893,0,0,1,.584,3V84.74h-4v-6.5a2.752,2.752,0,0,0-.547-1.833,2.039,2.039,0,0,0-1.643-.643,2.531,2.531,0,0,0-1.523.464,3.222,3.222,0,0,0-.976,1.083V84.74h-4Z" transform="translate(77.392 -68.197)" fill="#fff"/>
    <path id="Trazado_8373" data-name="Trazado 8373" d="M104.458,73.551a7.726,7.726,0,0,1,.416-2.571,6.052,6.052,0,0,1,1.178-2.047,5.308,5.308,0,0,1,1.833-1.333,5.625,5.625,0,0,1,2.309-.476,5.151,5.151,0,0,1,1.975.381,4.728,4.728,0,0,1,1.572,1.023V62.887h4v16.9h-4V78.549a4.628,4.628,0,0,1-1.524,1.071,4.9,4.9,0,0,1-2.023.4,5.624,5.624,0,0,1-2.309-.476,5.172,5.172,0,0,1-1.833-1.357,6.307,6.307,0,0,1-1.178-2.071,7.718,7.718,0,0,1-.416-2.57m4.07,0a3.257,3.257,0,0,0,.441,1.725,2.324,2.324,0,0,0,1.118,1,3.413,3.413,0,0,0,1.274.274,4.065,4.065,0,0,0,1.166-.214,3.181,3.181,0,0,0,1.214-.691V71.527a3.805,3.805,0,0,0-1.107-.655,3.417,3.417,0,0,0-1.274-.274,2.74,2.74,0,0,0-2.059.8,2.963,2.963,0,0,0-.774,2.155" transform="translate(60.192 -63.244)" fill="#fff"/>
    <path id="Trazado_8376" data-name="Trazado 8376" d="M151.945,84.991h-4V83.539a5.079,5.079,0,0,1-3.928,1.666,4.767,4.767,0,0,1-2.558-.643,4.32,4.32,0,0,1-1.619-1.857,6.892,6.892,0,0,1-.584-3V72.542h4v6.5a2.748,2.748,0,0,0,.548,1.833,2.038,2.038,0,0,0,1.643.643,3.011,3.011,0,0,0,.951-.166,2.434,2.434,0,0,0,.9-.547,3.167,3.167,0,0,0,.642-.833V72.542h4Z" transform="translate(41.435 -68.448)" fill="#fff"/>
    <path id="Trazado_8378" data-name="Trazado 8378" d="M173.028,84.74V72.291h4v2.166a3.692,3.692,0,0,1,3.38-2.381,5.522,5.522,0,0,1,1.154.143,4.056,4.056,0,0,1,1.321.571l-1.214,3.451a4.716,4.716,0,0,0-2.047-.476,2.493,2.493,0,0,0-1.642.571,2.915,2.915,0,0,0-.952,1.452v6.95Z" transform="translate(23.232 -68.197)" fill="#fff"/>
    <path id="Trazado_8380" data-name="Trazado 8380" d="M196.662,76.147l-.668-3.213a15.837,15.837,0,0,1,4.928-.857q5.449,0,5.45,5.094V84.74h-3.9V83.574a5.013,5.013,0,0,1-3.546,1.4,4.026,4.026,0,0,1-2.916-1,3.565,3.565,0,0,1-1.036-2.69,4.569,4.569,0,0,1,.274-1.535,3.684,3.684,0,0,1,1.023-1.464,4.557,4.557,0,0,1,1.928-1.011,9.227,9.227,0,0,1,2.44-.322,10.592,10.592,0,0,1,1.833.143,1.753,1.753,0,0,0-.488-1.321,2.111,2.111,0,0,0-1.44-.416,10.059,10.059,0,0,0-1.952.226,10.681,10.681,0,0,0-1.927.559m2.213,4.713q0,1.285,1.571,1.285a3.455,3.455,0,0,0,2.024-.714V79.48a4.793,4.793,0,0,0-1.071-.119,4.382,4.382,0,0,0-1.416.214,1.63,1.63,0,0,0-.869.571,1.278,1.278,0,0,0-.239.714" transform="translate(11.405 -68.197)" fill="#fff"/>
    <path id="Trazado_8382" data-name="Trazado 8382" d="M234.428,73.005,233.4,76.124a8.469,8.469,0,0,0-1.8-.69,7.092,7.092,0,0,0-1.8-.262,1.89,1.89,0,0,0-.975.214.684.684,0,0,0-.357.619.589.589,0,0,0,.143.417,2.188,2.188,0,0,0,.857.345l1.928.523a5.038,5.038,0,0,1,2.57,1.4,3.391,3.391,0,0,1,.762,2.261,3.481,3.481,0,0,1-1.464,2.916,6.336,6.336,0,0,1-3.916,1.107,13.207,13.207,0,0,1-2.44-.25,9.375,9.375,0,0,1-2.464-.821l.786-3.095a8.574,8.574,0,0,0,3.856,1.143q1.618,0,1.619-.762,0-.595-1.238-.9l-1.761-.476a4.705,4.705,0,0,1-2.428-1.3,3.322,3.322,0,0,1-.762-2.273,3.692,3.692,0,0,1,1.417-3.023,6.153,6.153,0,0,1,3.963-1.143,13.619,13.619,0,0,1,2.19.226,8.876,8.876,0,0,1,2.333.7" transform="translate(-4.487 -68.197)" fill="#fff"/>
    <path id="Trazado_8365" data-name="Trazado 8365" d="M0,129.45V112.736H8.308a7.316,7.316,0,0,1,2.372.381,5.766,5.766,0,0,1,1.979,1.143A5.1,5.1,0,0,1,14,116.214a7.236,7.236,0,0,1,.48,2.716,6.309,6.309,0,0,1-.492,2.519,5.672,5.672,0,0,1-3.319,3.158,6.744,6.744,0,0,1-2.359.418H4.129v4.424Zm7.669-13.125H4.129v5.113h3.54a3.058,3.058,0,0,0,1.094-.234,2.175,2.175,0,0,0,1.02-.861A2.531,2.531,0,0,0,10.2,118.9a3.178,3.178,0,0,0-.246-1.18,2.108,2.108,0,0,0-.873-1.008,2.605,2.605,0,0,0-1.413-.393" transform="translate(116.496 -90.113)" fill="#fff"/>
    <path id="Trazado_8369" data-name="Trazado 8369" d="M36.456,124.83l-.688-3.318a16.351,16.351,0,0,1,5.088-.885q5.628,0,5.629,5.26V133.7H42.454v-1.2a5.176,5.176,0,0,1-3.663,1.45,4.156,4.156,0,0,1-3.011-1.032,3.68,3.68,0,0,1-1.069-2.777,4.73,4.73,0,0,1,.283-1.585,3.808,3.808,0,0,1,1.057-1.512A4.714,4.714,0,0,1,38.041,126a9.531,9.531,0,0,1,2.52-.332,10.978,10.978,0,0,1,1.893.148,1.815,1.815,0,0,0-.5-1.364,2.176,2.176,0,0,0-1.487-.43,10.381,10.381,0,0,0-2.016.233,11,11,0,0,0-1.991.578m2.286,4.867q0,1.328,1.622,1.327a3.568,3.568,0,0,0,2.09-.737v-2.015a4.973,4.973,0,0,0-1.106-.123,4.532,4.532,0,0,0-1.463.221,1.686,1.686,0,0,0-.9.59,1.318,1.318,0,0,0-.246.737" transform="translate(97.787 -94.366)" fill="#fff"/>
    <path id="Trazado_8371" data-name="Trazado 8371" d="M68.036,133.7V120.848h4.13v2.237a3.812,3.812,0,0,1,3.49-2.458,5.659,5.659,0,0,1,1.192.148,4.165,4.165,0,0,1,1.364.59l-1.253,3.564a4.867,4.867,0,0,0-2.114-.491,2.574,2.574,0,0,0-1.7.59,3.009,3.009,0,0,0-.983,1.5V133.7Z" transform="translate(79.824 -94.366)" fill="#fff"/>
    <path id="Trazado_8372" data-name="Trazado 8372" d="M95.2,114.015H98.72v3.269h4.449v3.2H98.72v4.326a2.474,2.474,0,0,0,.381,1.536,1.344,1.344,0,0,0,1.118.479,3.552,3.552,0,0,0,1.266-.271,4.479,4.479,0,0,0,1.143-.614l1.278,3.146a9.316,9.316,0,0,1-4.99,1.3,4.154,4.154,0,0,1-3.183-1.217,4.926,4.926,0,0,1-1.143-3.5v-5.187H92.4v-3.2h2.31Z" transform="translate(66.69 -90.802)" fill="#fff"/>
    <path id="Trazado_8374" data-name="Trazado 8374" d="M122.1,111.216q0-1.893,2.311-1.892,2.285,0,2.286,1.892,0,1.942-2.286,1.942a2.746,2.746,0,0,1-1.7-.467,1.732,1.732,0,0,1-.615-1.475m.221,3.539h4.13v12.855h-4.13Z" transform="translate(50.683 -88.274)" fill="#fff"/>
    <path id="Trazado_8375" data-name="Trazado 8375" d="M137.936,127.12a7.171,7.171,0,0,1,.492-2.667,6.215,6.215,0,0,1,3.65-3.588,8.373,8.373,0,0,1,5.654-.024,7.114,7.114,0,0,1,2.249,1.29l-1.868,3.048a4.427,4.427,0,0,0-2.9-1.057,3.673,3.673,0,0,0-1.438.295,2.511,2.511,0,0,0-1.156,1.02,3.1,3.1,0,0,0-.455,1.684,3.819,3.819,0,0,0,.258,1.315,2.629,2.629,0,0,0,.971,1.217,3.025,3.025,0,0,0,1.819.516,4.43,4.43,0,0,0,2.9-1.081l1.868,3.048a7.105,7.105,0,0,1-2.249,1.291,8.018,8.018,0,0,1-2.765.479,7.83,7.83,0,0,1-2.888-.516,6.442,6.442,0,0,1-2.237-1.438,6.3,6.3,0,0,1-1.413-2.163,7.166,7.166,0,0,1-.492-2.667" transform="translate(42.147 -94.222)" fill="#fff"/>
    <path id="Trazado_8377" data-name="Trazado 8377" d="M169.448,111.216q0-1.893,2.31-1.892,2.285,0,2.285,1.892,0,1.942-2.285,1.942a2.744,2.744,0,0,1-1.7-.467,1.732,1.732,0,0,1-.615-1.475m.221,3.539h4.13v12.855h-4.13Z" transform="translate(25.162 -88.274)" fill="#fff"/>
    <path id="Trazado_8379" data-name="Trazado 8379" d="M200.679,127.313a7.919,7.919,0,0,1-.43,2.63,6.419,6.419,0,0,1-1.217,2.126,5.414,5.414,0,0,1-1.892,1.389,5.814,5.814,0,0,1-2.384.491,5.2,5.2,0,0,1-2.04-.393,5.137,5.137,0,0,1-1.6-1.032v5.8h-4.13V120.848h4.13v1.3a4.715,4.715,0,0,1,3.638-1.524,5.815,5.815,0,0,1,2.384.491,5.42,5.42,0,0,1,1.892,1.389,6.4,6.4,0,0,1,1.217,2.138,8.108,8.108,0,0,1,.43,2.667m-4.179,0a3.141,3.141,0,0,0-.8-2.262,2.808,2.808,0,0,0-2.127-.836,3.741,3.741,0,0,0-1.376.271,3.121,3.121,0,0,0-1.081.664v4.3a3.9,3.9,0,0,0,1.155.651,3.713,3.713,0,0,0,1.3.258,2.827,2.827,0,0,0,2.127-.823,3.061,3.061,0,0,0,.8-2.224" transform="translate(15.708 -94.366)" fill="#fff"/>
    <path id="Trazado_8381" data-name="Trazado 8381" d="M222.966,124.83l-.688-3.318a16.345,16.345,0,0,1,5.088-.885q5.627,0,5.629,5.26V133.7h-4.032v-1.2a5.175,5.175,0,0,1-3.662,1.45,4.156,4.156,0,0,1-3.011-1.032,3.68,3.68,0,0,1-1.069-2.777,4.729,4.729,0,0,1,.282-1.585,3.808,3.808,0,0,1,1.057-1.512A4.713,4.713,0,0,1,224.551,126a9.528,9.528,0,0,1,2.519-.332,10.969,10.969,0,0,1,1.892.148,1.815,1.815,0,0,0-.5-1.364,2.179,2.179,0,0,0-1.487-.43,10.369,10.369,0,0,0-2.015.233,10.994,10.994,0,0,0-1.991.578m2.286,4.867q0,1.328,1.622,1.327a3.565,3.565,0,0,0,2.089-.737v-2.015a4.962,4.962,0,0,0-1.106-.123,4.529,4.529,0,0,0-1.462.221,1.682,1.682,0,0,0-.9.59,1.317,1.317,0,0,0-.246.737" transform="translate(-2.744 -94.366)" fill="#fff"/>
  </g>
</svg>
