<svg xmlns="http://www.w3.org/2000/svg" xmlns:xlink="http://www.w3.org/1999/xlink" width="47" height="37" viewBox="0 0 47 37">
  <defs>
    <clipPath id="clip-Web_1920_1">
      <rect width="47" height="37"/>
    </clipPath>
  </defs>
  <g id="Web_1920_1" data-name="Web 1920 – 1" clip-path="url(#clip-Web_1920_1)">
    <g id="Group_4397" data-name="Group 4397" transform="translate(3 2)">
      <g id="Group_3" data-name="Group 3" transform="translate(9.284 7.799)">
        <g id="Group_2" data-name="Group 2">
          <path id="Path_16" data-name="Path 16" d="M226,50.783a5.4,5.4,0,0,0,.966,2.525l.05.025c.272.4.644.842.842.842.074,0,1.51-2.08,1.51-2.08l1.04,1.263,1.906-2.847.4.594.049-2.278-1.931,1.51.941-.074-1.362,2.129-1.263-1.485s-.916,1.362-1.362,1.931a4.351,4.351,0,0,1-.842-2.1,3.494,3.494,0,0,1,6.982,0c0,1.832-3.417,5.447-3.417,5.447a21.728,21.728,0,0,1-1.807-2.055c-.074.149-.47.5-.545.644,1.188,1.56,2.352,2.921,2.352,2.921s4.382-4.555,4.382-6.932a4.329,4.329,0,0,0-4.432-4.258A4.388,4.388,0,0,0,226,50.783Z" transform="translate(-226 -46.5)" fill="#fff"/>
          <path id="Path_17" data-name="Path 17" d="M232.619,86.745c1.015.272,1.485.767,1.164,1.263a3.176,3.176,0,0,1-2.525.842,3.559,3.559,0,0,1-2.6-.792c-.347-.5.074-1.015,1.065-1.287l-.817-.545c-1.584.446-2.228,1.238-1.684,2.005s2.154,1.263,4.035,1.263c1.882-.025,3.441-.545,3.936-1.312s-.223-1.56-1.832-1.981Z" transform="translate(-226.776 -76.371)" fill="#fff"/>
        </g>
      </g>
      <path id="Path_18" data-name="Path 18" d="M214.446,41.045H199.1l-7.625,5.793a.935.935,0,0,1-1.287-.173.859.859,0,0,1-.173-.718l.916-4.927a2.882,2.882,0,0,1-1.585-.817l-.049-.05a2.913,2.913,0,0,1-.792-2.005V21.883a2.842,2.842,0,0,1,.867-2.055h0a2.943,2.943,0,0,1,2.055-.867H200.8v-1.04a2.913,2.913,0,0,1,.792-2.005l.05-.05A2.943,2.943,0,0,1,203.7,15H226.75a2.842,2.842,0,0,1,2.055.867h0a2.943,2.943,0,0,1,.867,2.055V34.162a2.8,2.8,0,0,1-.867,2.055h0a2.967,2.967,0,0,1-1.584.817l.916,4.927a.839.839,0,0,1-.173.718.912.912,0,0,1-1.287.173l-7.625-5.793h-1.684V38.1a2.8,2.8,0,0,1-.867,2.055l-.05.05a2.708,2.708,0,0,1-2.005.842Zm2.946-17.033v4.135m0,1.832v5.249h1.981a.879.879,0,0,1,.619.248l5.917,4.481-.668-3.639a.908.908,0,0,1,.743-1.065c.05,0,.1-.025.173-.025h.644a1.086,1.086,0,0,0,.767-.322h0a1.086,1.086,0,0,0,.322-.767V17.921a1.086,1.086,0,0,0-.322-.767h0a1.086,1.086,0,0,0-.767-.322H203.726a1.086,1.086,0,0,0-.767.322l-.025.025a1.079,1.079,0,0,0-.272.718v1.065h11.809a2.842,2.842,0,0,1,2.055.867h0a2.943,2.943,0,0,1,.867,2.055v.272M198.8,39.213h15.647a1.033,1.033,0,0,0,.718-.272l.025-.025a1.086,1.086,0,0,0,.322-.767V21.883a1.086,1.086,0,0,0-.322-.767h0a1.086,1.086,0,0,0-.767-.322H191.347a1.086,1.086,0,0,0-.767.322h0a1.086,1.086,0,0,0-.322.767V38.124a1.033,1.033,0,0,0,.272.718l.025.025a1.086,1.086,0,0,0,.767.322h.619a.483.483,0,0,1,.173.025.92.92,0,0,1,.743,1.065l-.668,3.639,5.917-4.481A1.339,1.339,0,0,1,198.8,39.213Z" transform="translate(-188.5 -15)" fill="#fff" fill-rule="evenodd"/>
    </g>
  </g>
</svg>
