<?xml version="1.0" encoding="UTF-8"?>
<svg id="Capa_1" data-name="Capa 1" xmlns="http://www.w3.org/2000/svg" version="1.1" viewBox="0 0 103 81">
  <defs>
    <style>
      .cls-1 {
        fill: #fff;
        stroke-width: 0px;
  ***REMOVED***
    </style>
  </defs>
  <g>
    <path class="cls-1" d="M6.6,65.9h1.6v7.1h4.4v1.3h-5.9v-8.4h-.1Z"/>
    <path class="cls-1" d="M13.1,71.1c0-1.9,1.4-3.3,3.4-3.3s3.4,1.4,3.4,3.3-1.4,3.3-3.4,3.3-3.4-1.4-3.4-3.3ZM18.4,71.1c0-1.2-.8-2-1.9-2s-1.9.8-1.9,2,.8,2,1.9,2,1.9-.8,1.9-2Z"/>
    <path class="cls-1" d="M27.7,67.9v5.4c0,2.3-1.2,3.4-3.5,3.4s-2.4-.3-3.1-.9l.7-1.1c.6.5,1.5.8,2.4.8,1.4,0,2-.6,2-1.9v-.3c-.5.6-1.3.9-2.1.9-1.8,0-3.2-1.2-3.2-3.1s1.4-3.1,3.2-3.1,1.7.3,2.2.9v-.9h1.4ZM26.2,70.9c0-1.1-.8-1.8-1.9-1.8s-2,.7-2,1.8.8,1.8,2,1.8,1.9-.7,1.9-1.8Z"/>
    <path class="cls-1" d="M29.1,71.1c0-1.9,1.4-3.3,3.4-3.3s3.4,1.4,3.4,3.3-1.4,3.3-3.4,3.3-3.4-1.4-3.4-3.3ZM34.5,71.1c0-1.2-.8-2-1.9-2s-1.9.8-1.9,2,.8,2,1.9,2,1.9-.8,1.9-2Z"/>
    <path class="cls-1" d="M47.2,73v1.3h-6.3v-8.4h6.1v1.3h-4.6v2.2h4.1v1.3h-4.1v2.3h4.8Z"/>
    <path class="cls-1" d="M55.1,70.6v3.7h-1.5v-3.5c0-1.1-.6-1.7-1.5-1.7s-1.8.6-1.8,1.9v3.2h-1.5v-6.4h1.4v.8c.5-.6,1.3-.9,2.2-.9,1.5,0,2.7.9,2.7,2.8h0Z"/>
    <path class="cls-1" d="M60.8,73.9c-.4.3-.9.4-1.4.4-1.4,0-2.2-.7-2.2-2.2v-3.1h-1.1v-1.2h1.1v-1.5h1.5v1.5h1.7v1.2h-1.7v3c0,.6.3,1,.9,1s.6,0,.8-.3l.4,1.1h0Z"/>
    <path class="cls-1" d="M61.9,65.9c0-.5.4-.9,1-.9s1,.4,1,.9-.4.9-1,.9-1-.4-1-.9ZM62.1,67.9h1.5v6.4h-1.5v-6.4Z"/>
    <path class="cls-1" d="M71.8,65.4v8.9h-1.4v-.8c-.5.6-1.2.9-2.1.9-1.9,0-3.2-1.3-3.2-3.3s1.4-3.3,3.2-3.3,1.6.3,2.1.9v-3.3h1.5,0ZM70.3,71.1c0-1.2-.8-2-1.9-2s-1.9.8-1.9,2,.8,2,1.9,2,1.9-.8,1.9-2Z"/>
    <path class="cls-1" d="M79.1,70.5v3.8h-1.4v-.8c-.4.6-1.1.9-2,.9-1.5,0-2.4-.8-2.4-1.9s.7-1.9,2.7-1.9h1.7c0-1-.5-1.5-1.6-1.5s-1.5.2-1.9.6l-.6-1.1c.7-.5,1.7-.8,2.7-.8,1.8,0,2.9.9,2.9,2.7h0ZM77.7,72.3v-.7h-1.5c-1,0-1.3.4-1.3.9s.5.9,1.2.9,1.4-.3,1.6-1h0Z"/>
    <path class="cls-1" d="M87.4,65.4v8.9h-1.4v-.8c-.5.6-1.2.9-2.1.9-1.9,0-3.2-1.3-3.2-3.3s1.4-3.3,3.2-3.3,1.6.3,2.1.9v-3.3h1.5,0ZM85.9,71.1c0-1.2-.8-2-1.9-2s-1.9.8-1.9,2,.8,2,1.9,2,1.9-.8,1.9-2Z"/>
    <path class="cls-1" d="M98.3,72.9v1.3h-6.2v-1l3.3-3.2c.8-.8,1-1.3,1-1.7,0-.8-.5-1.2-1.6-1.2s-1.5.3-2,.9l-1.1-.8c.6-.9,1.8-1.4,3.2-1.4s3,.9,3,2.4-.2,1.6-1.4,2.7l-2.2,2.1h4,0Z"/>
  </g>
  <path class="cls-1" d="M80,32.7v-.2h0v-.2h0s0-.2,0-.3h0s0-.1,0-.2h0l-.2-.2h0s0,0-.2-.1h-1.1s-.2.1-.2.2l-24.2,24.2c-1.5,0-3,0-4.5-.2l30.1-30.1.2-.2h0s0-.2,0-.2h0v-.2h0v-.3c0,0,0,0,0,0v-.3h0c-.7-2.4-1.6-4.8-2.9-7h0s0-.1-.2-.2h0c-.2-.2-.4-.3-.6-.4h-.8s-.2,0-.2.1h0s-.2.1-.3.2l-35.1,35.1c-.9-.6-1.8-1.3-2.7-2L71.9,13.6c.6-.6.6-1.7,0-2.3-1.7-1.7-3.5-3.1-5.6-4.3h-.3c-.4,0-.8,0-1.2,0h0s0,0-.2,0c0,0-.2,0-.2.2L29.8,41.8c-.5-1.1-1-2.2-1.3-3.4L60.1,6.8s0,0,.2-.2h0s0-.2,0-.2h0v-.2h0v-.3c0-.1,0,0,0,0v-.3h0v-.2h0s0-.2,0-.2h0c0-.2-.3-.3-.4-.4h0s-.2,0-.2,0h-.2c-2.9-.8-6-1.1-9-.9h-.8s-.2,0-.2.2l-21.1,21.1c1.1-4.2,3.3-8,6.4-11.1.6-.6.6-1.7,0-2.3s-1.7-.6-2.3,0c-4.8,4.8-7.7,11.2-8.1,18h0v.3h0v.2h0s0,.2.1.3h0s0,.1.1.2h0l.2.2h0s.1,0,.2.1h1.1s.2,0,.2-.1c0,0,.2-.1.3-.2L51.2,6.4c1.5,0,3,0,4.5.2l-30.1,30.1s-.1,0-.2.2h0s0,.2-.1.2h0v.2h0v.3c0,0,0,0,0,0v.3h0c.7,2.4,1.6,4.8,2.9,7h0s0,0,.1.2h0c.2.2.4.3.6.4h.9s.1,0,.2,0c0,0,.2,0,.3-.2L65.7,10.5c.9.6,1.8,1.3,2.7,2l-36,36s0,.2-.2.3v.2h0v.3h0v.6h0v.2h0v.3s0,.2.2.3c1.7,1.7,3.6,3.1,5.6,4.3,0,0,0,0,.2,0h1.1s.2,0,.2,0c0,0,.2,0,.3-.2l34.5-34.5c.5,1.1,1,2.2,1.3,3.4l-31.6,31.6-.2.2h0s0,.2,0,.2h0v.2h0v.3h0v.3h0v.2h0s0,.2,0,.2h0c0,.2.2.3.4.4h0s.2,0,.2,0h.2c2.4.6,4.8.9,7.2.9s1.2,0,1.8,0h.8s.2,0,.2-.2l21.1-21.1c-1.1,4.1-3.3,7.9-6.3,11h0c-.7.6-.7,1.6-.2,2.3.6.7,1.6.8,2.3.2,0,0,0,0,.2-.2h0c4.8-4.9,7.6-11.3,8-18h0l.2.4Z"/>
</svg>