<?xml version="1.0" encoding="utf-8"?>
<!-- Generator: Adobe Illustrator 25.4.1, SVG Export Plug-In . SVG Version: 6.00 Build 0)  -->
<svg version="1.1" id="Layer_1" xmlns="http://www.w3.org/2000/svg" xmlns:xlink="http://www.w3.org/1999/xlink" x="0px" y="0px"
	 viewBox="0 0 420 66" style="enable-background:new 0 0 420 66;" xml:space="preserve">
<style type="text/css">
	.st0{fill:#157694;}
	.st1{fill:#231F20;}
</style>
<g>
	<g id="Group_171_00000026865610423587498420000005097906435796931747_" transform="translate(-16281 -779)">
		<path id="Path_306_00000037683499950082749410000017140381052472650904_" class="st0" d="M16377,803.9v-12.1l-6.1,10h-1.6l-6-9.8
			v12h-3.2v-18.3h2.8l7.2,12.1l7-12.1h2.8v18.3L16377,803.9L16377,803.9z"/>
		<path id="Path_307_00000101825812575962477450000009358441958315962047_" class="st0" d="M16394.8,791.2c1.1,1.1,1.8,2.8,1.6,4.5
			v8.2h-3v-1.7c-0.4,0.7-1,1.1-1.7,1.3c-0.8,0.3-1.7,0.6-2.7,0.6c-1,0-1.9-0.2-2.7-0.6c-0.7-0.3-1.4-0.8-1.8-1.5
			c-0.4-0.7-0.7-1.4-0.7-2.1c-0.1-1.1,0.4-2.3,1.3-2.9c0.9-0.8,2.5-1.1,4.4-1.1h3.6v-0.2c0.1-0.8-0.2-1.6-0.9-2.2
			c-0.7-0.6-1.6-0.8-2.6-0.8c-0.7,0-1.6,0.1-2.3,0.3c-0.7,0.2-1.3,0.6-1.9,1l-1.2-2.4c0.8-0.6,1.7-1,2.7-1.2
			c1.1-0.2,2.1-0.4,3.2-0.4C16392.2,789.8,16393.7,790.2,16394.8,791.2z M16391.8,801.1c0.7-0.3,1.1-1,1.3-1.6v-1.6h-3.3
			c-1.9,0-2.8,0.7-2.8,1.9c0,0.6,0.2,1.1,0.7,1.3c0.6,0.4,1.2,0.6,2,0.6C16390.4,801.7,16391.2,801.5,16391.8,801.1z"/>
		<path id="Path_308_00000141436250595205629710000010936927418083643805_" class="st0" d="M16411.9,790.6c1.1,0.6,1.9,1.5,2.5,2.5
			c0.7,1.1,1,2.5,0.9,3.8c0,1.3-0.3,2.6-0.9,3.8c-0.6,1.1-1.5,1.9-2.5,2.5c-1.1,0.7-2.4,0.9-3.7,0.9c-1.7,0.1-3.4-0.7-4.5-1.9v6.7
			h-3.2v-19h3v1.8c0.5-0.7,1.1-1.1,2-1.5c0.8-0.3,1.7-0.6,2.7-0.6C16409.6,789.7,16410.8,790.1,16411.9,790.6z M16411,800.1
			c0.8-0.8,1.2-2,1.1-3.1c0.1-1.1-0.3-2.3-1.1-3.1c-0.8-0.8-1.9-1.2-2.9-1.1c-0.7,0-1.5,0.2-2.1,0.6c-0.7,0.4-1.1,0.9-1.5,1.6
			c-0.3,0.7-0.5,1.5-0.6,2.3c0,0.8,0.2,1.6,0.6,2.3c0.3,0.7,0.8,1.2,1.5,1.6c0.7,0.4,1.4,0.6,2.1,0.6
			C16409.1,801.3,16410.1,800.8,16411,800.1z"/>
		<path id="Path_309_00000072243555968654160470000002830730350463020216_" class="st0" d="M16428.4,791.2c1.1,1.1,1.8,2.8,1.6,4.5
			v8.2h-3v-1.7c-0.4,0.7-1,1.1-1.7,1.3c-0.8,0.3-1.7,0.6-2.7,0.6s-1.9-0.2-2.7-0.6c-0.7-0.3-1.4-0.8-1.8-1.5
			c-0.4-0.7-0.7-1.4-0.7-2.1c-0.1-1.1,0.4-2.3,1.3-2.9c0.9-0.8,2.5-1.1,4.4-1.1h3.6v-0.2c0.1-0.8-0.2-1.6-0.9-2.2
			c-0.7-0.6-1.6-0.8-2.6-0.8c-0.7,0-1.6,0.1-2.3,0.3c-0.7,0.2-1.3,0.6-1.9,1l-1.2-2.5c0.8-0.6,1.7-1,2.7-1.2
			c1.1-0.2,2.1-0.4,3.2-0.4C16425.5,789.7,16427.1,790.2,16428.4,791.2z M16425.4,801.1c0.7-0.3,1.1-1,1.3-1.6v-1.6h-3.3
			c-1.9,0-2.8,0.7-2.8,1.9c0,0.6,0.2,1.1,0.7,1.3C16422.5,801.7,16424.1,801.8,16425.4,801.1L16425.4,801.1z"/>
		<path id="Path_310_00000021841855050546438670000003340115792700172454_" class="st0" d="M16434.2,785.6h4.2v18.3h-4.2V785.6z"/>
		<path id="Path_311_00000170976449751455527590000003330399531097559207_" class="st0" d="M16455.2,791.1c1.1,1,1.6,2.6,1.6,4.6v8
			h-4.1v-7.5c0.1-0.9-0.2-1.8-0.8-2.5c-0.6-0.6-1.3-0.9-2.1-0.9c-0.9,0-1.8,0.3-2.5,0.9c-0.7,0.7-1,1.8-0.9,2.8v7h-4.2v-13.7h3.8
			v1.6c0.6-0.7,1.2-1.1,2-1.3c0.8-0.3,1.7-0.6,2.7-0.6C16452.4,789.6,16454,790.1,16455.2,791.1z"/>
		<path id="Path_312_00000165214147395102313740000018097027429924778377_" class="st0" d="M16474.2,789.8l-5.9,14h-4.2l-5.9-14h4.2
			l3.8,9.6l4-9.6H16474.2z"/>
		<path id="Path_313_00000050634061250422446200000003970825229251881104_" class="st0" d="M16489.1,797.9h-10.6
			c0.2,0.8,0.7,1.6,1.3,2c0.7,0.6,1.7,0.8,2.7,0.8c0.7,0,1.3-0.1,2-0.3c0.6-0.2,1.1-0.6,1.6-1l2.1,2.3c-1.2,1.6-3.2,2.3-5.8,2.3
			c-1.5,0.1-2.9-0.2-4.2-0.9c-1.1-0.6-2.1-1.5-2.8-2.6c-0.7-1.1-1.1-2.5-1-3.8c0-1.3,0.3-2.6,0.9-3.8c0.7-1.1,1.6-2,2.7-2.6
			c1.1-0.7,2.5-1,3.8-0.9c2.6-0.2,5.1,1.2,6.4,3.4c0.7,1.1,1,2.5,0.9,3.8C16489.1,797.1,16489,797.5,16489.1,797.9z M16479.5,793.5
			c-0.7,0.5-1.1,1.3-1.1,2.1h6.9c-0.1-0.8-0.5-1.6-1.1-2.1c-0.7-0.6-1.5-0.8-2.3-0.8C16481.1,792.7,16480.2,792.9,16479.5,793.5
			L16479.5,793.5z"/>
		<path id="Path_314_00000101067360644441911520000004397621939206874789_" class="st0" d="M16497.7,790.2c0.9-0.3,1.9-0.6,2.8-0.6
			v3.8c-0.4,0-0.8-0.1-0.9-0.1c-1-0.1-2,0.2-2.7,0.9c-0.7,0.8-1.1,1.8-1,2.9v6.6h-4.1v-13.9h3.8v1.9
			C16496.1,791.1,16496.9,790.5,16497.7,790.2z"/>
		<path id="Path_315_00000170965020537466335790000006212443783875171248_" class="st0" d="M16504.2,803.6c-0.9-0.2-1.8-0.6-2.7-1.1
			l1.3-2.9c0.7,0.4,1.5,0.7,2.3,0.9c0.9,0.2,1.8,0.3,2.7,0.3c1.7,0,2.6-0.4,2.6-1.2c0-0.4-0.3-0.7-0.7-0.9c-0.7-0.2-1.4-0.3-2.1-0.4
			c-1-0.1-1.9-0.3-2.8-0.7c-0.7-0.2-1.4-0.7-2-1.1c-0.7-0.7-1-1.6-0.9-2.5c0-0.9,0.2-1.7,0.8-2.5c0.6-0.7,1.3-1.3,2.2-1.6
			c1.1-0.4,2.3-0.6,3.5-0.7c1,0,2,0.1,2.9,0.3c0.9,0.2,1.7,0.5,2.5,0.9l-1.3,2.9c-1.2-0.7-2.6-1.1-4-1c-0.7-0.1-1.3,0.1-2,0.3
			c-0.3,0.2-0.7,0.6-0.7,0.9c0,0.4,0.3,0.8,0.7,0.9c0.7,0.2,1.5,0.4,2.2,0.6c1,0.2,1.9,0.3,2.8,0.7c0.7,0.2,1.4,0.7,1.9,1.1
			c0.6,0.7,0.8,1.6,0.8,2.5c0,0.8-0.2,1.6-0.8,2.3c-0.7,0.7-1.4,1.2-2.3,1.6c-1.1,0.4-2.4,0.6-3.6,0.7
			C16506.5,804.1,16505.4,803.9,16504.2,803.6z"/>
		<path id="Path_316_00000006686325984970554830000000364622127728368788_" class="st0" d="M16517.1,787.2c-0.4-0.4-0.7-1.1-0.7-1.6
			c0-0.7,0.2-1.2,0.7-1.6c0.5-0.5,1.1-0.7,1.8-0.7c0.7-0.1,1.3,0.2,1.8,0.7c0.5,0.3,0.7,1,0.7,1.6c0,0.7-0.2,1.2-0.7,1.7
			s-1.1,0.7-1.8,0.7C16518.2,787.9,16517.6,787.7,16517.1,787.2z M16516.8,789.8h4.1v14h-4.1V789.8z"/>
		<path id="Path_317_00000155136307044892709610000017506587685104925353_" class="st0" d="M16527.4,803.1c-1.1-0.6-2-1.5-2.7-2.6
			c-0.7-1.1-1.1-2.5-1-3.8c0-1.3,0.3-2.6,1-3.8c0.7-1.1,1.6-2,2.7-2.6c1.2-0.7,2.6-1,4-0.9c1.4,0,2.7,0.3,3.9,0.9
			c1.1,0.6,2,1.5,2.7,2.6c0.7,1.1,1.1,2.5,1,3.8c0,1.3-0.3,2.6-1,3.8c-0.7,1.1-1.6,2-2.7,2.6c-1.2,0.7-2.5,1-3.9,0.9
			C16530,804.1,16528.6,803.7,16527.4,803.1z M16533.9,799.7c0.7-0.7,1.1-1.8,1-2.8c0.1-1.1-0.3-2-1-2.8c-1.5-1.4-3.7-1.4-5.2,0
			c-0.7,0.7-1.1,1.8-1,2.8c-0.1,1.1,0.3,2,1,2.8c0.7,0.7,1.6,1.1,2.6,1C16532.2,800.8,16533.2,800.4,16533.9,799.7z"/>
		<path id="Path_318_00000083795345886643349090000005609702903078712220_" class="st0" d="M16554.5,791.1c1.1,1,1.6,2.6,1.6,4.6v8
			h-4.2v-7.5c0.1-0.9-0.2-1.8-0.8-2.5c-0.6-0.6-1.3-0.9-2.1-0.9c-0.9,0-1.8,0.3-2.5,0.9c-0.7,0.7-1,1.8-0.9,2.8v7h-4.1v-13.7h3.8
			v1.6c0.6-0.7,1.2-1.1,2-1.3c0.8-0.3,1.7-0.6,2.7-0.6C16551.7,789.5,16553.3,790.1,16554.5,791.1z"/>
		<path id="Path_319_00000139285564510959650250000014966678533143512707_" class="st0" d="M16573.6,797.9h-10.6
			c0.2,0.8,0.7,1.6,1.3,2c0.7,0.6,1.7,0.8,2.7,0.8c0.7,0,1.3-0.1,2-0.3c0.6-0.2,1.1-0.6,1.6-1l2.1,2.3c-1.2,1.6-3.2,2.3-5.8,2.3
			c-1.5,0.1-2.9-0.2-4.2-0.9c-1.1-0.6-2.1-1.5-2.8-2.6s-1-2.5-0.9-3.8c0-1.3,0.3-2.6,0.9-3.8c0.7-1.1,1.6-2,2.7-2.6
			c1.1-0.7,2.5-1,3.8-0.9c2.6-0.2,5.1,1.2,6.4,3.4c0.7,1.1,1,2.5,0.9,3.8C16573.7,797.1,16573.6,797.5,16573.6,797.9z
			 M16564.1,793.5c-0.7,0.5-1.1,1.3-1.1,2.1h6.9c-0.1-0.8-0.5-1.6-1.1-2.1c-0.7-0.6-1.5-0.8-2.3-0.8
			C16565.7,792.6,16564.8,792.9,16564.1,793.5z"/>
		<path id="Path_320_00000109021668925307561900000007373064709968620160_" class="st0" d="M16577.7,803.6c-0.9-0.2-1.8-0.6-2.7-1.1
			l1.3-2.9c0.7,0.4,1.5,0.7,2.3,0.9c0.9,0.2,1.8,0.3,2.7,0.3c1.7,0,2.6-0.4,2.6-1.2c0-0.4-0.3-0.7-0.7-0.9c-0.7-0.2-1.4-0.3-2.1-0.4
			c-1-0.1-1.9-0.3-2.8-0.7c-0.7-0.2-1.4-0.7-2-1.1c-0.7-0.7-1-1.6-0.9-2.5c0-0.9,0.2-1.7,0.8-2.5c0.6-0.7,1.3-1.3,2.2-1.6
			c1.1-0.4,2.3-0.6,3.5-0.7c1,0,2,0.1,2.9,0.3c0.9,0.2,1.7,0.5,2.5,0.9l-1.3,2.9c-1.2-0.7-2.6-1.1-4-1c-0.7-0.1-1.3,0.1-2,0.3
			c-0.4,0.2-0.7,0.6-0.7,0.9c0,0.4,0.3,0.8,0.7,0.9c0.7,0.2,1.5,0.4,2.2,0.6c1,0.2,1.9,0.3,2.8,0.7c0.7,0.2,1.4,0.7,1.9,1.1
			c0.6,0.7,0.9,1.6,0.8,2.5c0,0.8-0.2,1.6-0.8,2.3c-0.7,0.7-1.4,1.2-2.3,1.6c-1.1,0.4-2.4,0.6-3.6,0.7
			C16580,804.1,16578.8,803.9,16577.7,803.6z"/>
	</g>
	<g id="Group_307_00000003819079057038651720000007069284124008986506_" transform="translate(-0.469)">
		<g id="Group_175_00000178191670486412273910000005146743703882250127_" transform="translate(-16284.531 -744.845)">
			<path id="Path_321_00000059306971291254398850000001856236849541317551_" class="st0" d="M16613.4,763.6h-5.3v5.2h-3.2v-5.2h-5.3
				v-3h5.3v-5.2h3.2v5.2h5.3V763.6z"/>
		</g>
		<path id="Path_394_00000183234097983797910960000013119787429742219913_" class="st1" d="M19.1,32.9c1.8,0,3.5,0.3,5.2,1
			c1.3,0.6,2.5,1.5,3.4,2.8c0.8,1.3,1.2,2.8,1.2,4.3s-0.3,3-1.2,4.3c-0.8,1.2-2,2.2-3.4,2.8c-1.7,0.7-3.4,1-5.2,1h-4.5v6.2H9.4V32.9
			H19.1z M18.8,44.8c1.2,0.1,2.5-0.2,3.5-1c0.9-0.7,1.3-1.8,1.2-2.9c0.1-1.1-0.3-2.2-1.2-2.9c-1-0.8-2.3-1.1-3.5-1h-4.2v7.7H18.8z
			 M38.9,37.8c2.2-0.1,4.4,0.6,6.2,1.9c1.5,1.5,2.3,3.6,2.1,5.7v9.8h-4.6v-2.1c-1.2,1.8-3.2,2.6-5.2,2.4c-1.2,0-2.3-0.2-3.4-0.7
			c-0.9-0.4-1.7-1-2.2-1.9c-0.6-0.8-0.8-1.8-0.8-2.6c0-1.4,0.7-2.9,1.8-3.7c1.7-1,3.6-1.5,5.6-1.3h4c0.1-1-0.3-1.9-1-2.5
			c-0.9-0.7-1.9-1-3-0.9c-0.9,0-1.9,0.1-2.6,0.4c-0.8,0.2-1.5,0.7-2.2,1.2L31.7,40c1-0.7,2.2-1.2,3.4-1.5
			C36.2,38,37.5,37.8,38.9,37.8L38.9,37.8z M38.5,52.1c0.8,0,1.5-0.2,2.3-0.6c0.7-0.4,1.1-1,1.4-1.8V48h-3.4c-2.1,0-3.1,0.7-3.1,2
			c0,0.6,0.2,1.2,0.8,1.5C37.1,52,37.8,52.2,38.5,52.1L38.5,52.1z M56.4,40.3c0.7-0.9,1.4-1.5,2.4-1.9c1.1-0.4,2.3-0.7,3.5-0.7v4.6
			c-0.6,0-0.9-0.1-1.1-0.1c-1.2-0.1-2.4,0.3-3.3,1.2c-0.9,1-1.3,2.3-1.2,3.6v8.2h-5V38.1h4.7L56.4,40.3z M72.1,37.8
			c2.2-0.1,4.4,0.6,6.2,1.9c1.5,1.5,2.3,3.6,2.1,5.7v9.8h-4.6v-2.1c-1.2,1.8-3.2,2.6-5.2,2.4c-1.2,0-2.3-0.2-3.4-0.7
			c-0.9-0.4-1.7-1-2.2-1.9c-0.6-0.8-0.8-1.8-0.8-2.6c-0.1-1.4,0.7-2.9,1.8-3.7c1.7-1,3.6-1.5,5.6-1.3h4c0.1-1-0.3-1.9-1-2.5
			c-0.9-0.7-1.9-1-3-0.9c-0.9,0-1.9,0.1-2.6,0.4c-0.8,0.2-1.5,0.7-2.2,1.2L65,40.1c1-0.7,2.2-1.2,3.4-1.5
			C69.4,38,70.7,37.8,72.1,37.8z M71.7,52.1c0.8,0,1.5-0.2,2.3-0.6c0.7-0.4,1.1-1,1.4-1.8V48H72c-2.1,0-3.1,0.7-3.1,2
			c0,0.6,0.2,1.2,0.8,1.5C70.2,52,71,52.2,71.7,52.1L71.7,52.1z M102.7,38.1v14.3c0.2,2.5-0.7,5.2-2.4,7c-2,1.7-4.6,2.5-7.2,2.3
			c-1.5,0-3.2-0.2-4.7-0.7c-1.3-0.3-2.6-0.9-3.7-1.8l2-3.5c0.8,0.7,1.8,1.1,2.8,1.4c1.1,0.3,2.2,0.6,3.3,0.6
			c1.3,0.1,2.8-0.3,3.9-1.2c0.9-1,1.3-2.2,1.2-3.5v-0.8c-1.4,1.4-3.4,2.2-5.4,2.1c-1.5,0-3-0.3-4.3-1c-1.3-0.7-2.3-1.7-3.1-2.9
			c-0.8-1.3-1.2-2.9-1.1-4.3c0-1.5,0.3-3,1.1-4.3c0.8-1.2,1.9-2.2,3.1-2.9c1.3-0.7,2.9-1.1,4.3-1c2.2-0.1,4.3,0.8,5.6,2.4v-2.2h4.7
			V38.1z M93.3,50.3c1.2,0,2.3-0.3,3.2-1.2c0.9-0.8,1.3-1.9,1.2-3.1c0-1.1-0.4-2.3-1.2-3.1c-0.9-0.8-2.1-1.2-3.2-1.2
			c-1.2,0-2.3,0.3-3.3,1.2c-0.9,0.8-1.3,1.9-1.3,3.1c0,1.1,0.4,2.3,1.3,3.1C91,49.9,92.2,50.3,93.3,50.3L93.3,50.3z M124.7,38.1
			v17.2h-4.7v-2.1c-0.7,0.8-1.4,1.3-2.3,1.7c-1,0.4-2,0.6-3,0.6c-2,0.1-4-0.6-5.4-2c-1.4-1.5-2.1-3.6-2-5.7V38h5v8.9
			c0,2.8,1.2,4.2,3.5,4.2c1.1,0,2.1-0.3,2.9-1.2c0.8-1,1.2-2.2,1.1-3.4V38h5V38.1z M136.1,37.8c2.2-0.1,4.4,0.6,6.2,1.9
			c1.5,1.5,2.3,3.6,2.1,5.7v9.8h-4.6v-2.1c-1.2,1.8-3.2,2.6-5.2,2.4c-1.2,0-2.3-0.2-3.4-0.7c-0.9-0.4-1.7-1-2.2-1.9
			c-0.6-0.8-0.8-1.8-0.8-2.6c-0.1-1.4,0.7-2.9,1.8-3.7c1.7-1,3.6-1.5,5.6-1.3h4c0.1-1-0.3-1.9-1-2.5c-0.9-0.7-1.9-1-3-0.9
			c-0.9,0-1.9,0.1-2.6,0.4c-0.8,0.2-1.5,0.7-2.2,1.2L129,40c1-0.7,2.2-1.2,3.4-1.5C133.5,38,134.8,37.8,136.1,37.8L136.1,37.8z
			 M135.8,52.1c0.8,0,1.5-0.2,2.3-0.6c0.7-0.4,1.1-1,1.4-1.8V48h-3.4c-2.1,0-3.1,0.7-3.1,2c0,0.6,0.2,1.2,0.8,1.5
			C134.4,52,135,52.2,135.8,52.1L135.8,52.1z M165.6,38.1l-7.7,18.2c-0.6,1.7-1.5,3.1-2.9,4.2c-1.2,0.9-2.8,1.2-4.2,1.2
			c-0.9,0-1.8-0.1-2.6-0.4c-0.8-0.2-1.5-0.7-2.1-1.1l1.8-3.5c0.4,0.3,0.9,0.7,1.3,0.8c0.4,0.2,1,0.3,1.4,0.3c0.6,0,1.2-0.1,1.7-0.4
			c0.6-0.4,0.9-1,1.1-1.7l0.1-0.2l-7.4-17.3h5.2l4.8,11.7l4.8-11.7L165.6,38.1z M193.5,46.7c0,0.1,0,0.6-0.1,1.3h-13
			c0.2,1,0.8,1.9,1.7,2.5c1,0.7,2.1,1,3.3,0.9c0.8,0,1.7-0.1,2.4-0.4c0.8-0.3,1.4-0.7,2-1.2l2.6,2.9c-1.9,2-4.4,3-7,2.8
			c-1.8,0-3.5-0.3-5.2-1.1c-1.4-0.7-2.6-1.8-3.4-3.1c-0.8-1.4-1.2-3-1.2-4.5c0-1.5,0.4-3.2,1.2-4.5c0.8-1.3,1.9-2.4,3.3-3.2
			c2.9-1.5,6.3-1.5,9.3,0c1.3,0.7,2.4,1.8,3.2,3.1C193.1,43.4,193.5,45.1,193.5,46.7L193.5,46.7z M184.6,41.5c-1,0-2,0.3-2.9,1
			c-0.8,0.7-1.3,1.7-1.4,2.6h8.5c-0.1-1-0.7-2-1.4-2.6C186.6,41.9,185.6,41.5,184.6,41.5L184.6,41.5z M207.2,37.8
			c1.9-0.1,3.7,0.6,5.2,1.9c1.4,1.5,2.1,3.6,2,5.6v9.8h-5v-9c0.1-1.1-0.2-2.2-0.9-3.1c-0.7-0.7-1.7-1.1-2.5-1c-1.1,0-2.2,0.3-3,1.2
			c-0.8,1-1.2,2.2-1.1,3.4v8.5h-5v-17h4.7v2c0.7-0.8,1.5-1.3,2.4-1.7C205.1,38,206.1,37.8,207.2,37.8L207.2,37.8z M242.4,55.2
			l-4.3-6.2h-4.7v6.3h-5.2V32.9h9.7c1.8,0,3.5,0.3,5.2,1c1.3,0.6,2.5,1.5,3.4,2.8c0.8,1.3,1.2,2.8,1.2,4.3s-0.3,3-1.2,4.3
			c-0.9,1.2-2,2.2-3.4,2.8l5,7.2L242.4,55.2z M242.3,41c0.1-1.1-0.3-2.2-1.2-2.9c-1-0.8-2.3-1.1-3.5-1h-4.2v7.8h4.2
			c1.2,0.1,2.5-0.2,3.5-1C242,43.2,242.4,42.1,242.3,41L242.3,41z M268.1,46.7c0,0.1,0,0.6-0.1,1.3h-13c0.2,1,0.8,1.9,1.7,2.5
			c1,0.7,2.1,1,3.3,0.9c0.8,0,1.7-0.1,2.4-0.4c0.8-0.3,1.4-0.7,2-1.2l2.6,2.9c-1.9,2-4.4,3-7,2.8c-1.8,0-3.5-0.3-5.2-1.1
			c-1.4-0.7-2.6-1.8-3.4-3.1c-0.8-1.3-1.2-3-1.2-4.5c0-1.5,0.4-3.2,1.2-4.5c0.8-1.3,1.9-2.4,3.3-3.2c2.9-1.5,6.3-1.5,9.3,0
			c1.3,0.7,2.4,1.8,3.2,3.1C267.7,43.4,268.1,45.1,268.1,46.7L268.1,46.7z M259.1,41.5c-1,0-2,0.3-2.9,1c-0.8,0.7-1.3,1.7-1.4,2.6
			h8.5c-0.1-1-0.7-2-1.4-2.6C261.2,41.9,260.1,41.5,259.1,41.5L259.1,41.5z M277.2,55.5c-1.4,0-2.9-0.2-4.2-0.6
			c-1.1-0.2-2.2-0.7-3.3-1.3l1.7-3.5c0.9,0.6,1.8,0.9,2.8,1.2c1,0.3,2.1,0.4,3.2,0.4c2.1,0,3.2-0.6,3.2-1.5c0-0.6-0.3-1-0.9-1.1
			c-0.9-0.2-1.8-0.4-2.6-0.6c-1.2-0.1-2.3-0.4-3.5-0.8c-0.9-0.2-1.8-0.8-2.4-1.4c-0.7-0.9-1.1-1.9-1-3c0-1,0.3-2.1,1-2.9
			c0.7-0.9,1.7-1.5,2.8-2c1.3-0.4,2.8-0.8,4.3-0.7c1.2,0,2.4,0.1,3.6,0.4c1,0.2,2.1,0.6,3,1.1L283,43c-1.5-0.9-3.2-1.3-5-1.3
			c-0.8,0-1.7,0.1-2.4,0.4c-0.4,0.2-0.8,0.7-0.8,1.1c0,0.6,0.3,1,0.9,1.1c0.9,0.3,1.8,0.4,2.8,0.7c1.2,0.2,2.3,0.4,3.4,0.8
			c0.9,0.2,1.7,0.8,2.3,1.4c0.7,0.8,1.1,1.9,1,3c0,1-0.3,2-1,2.9c-0.8,0.9-1.7,1.5-2.8,2C280.1,55.3,278.6,55.5,277.2,55.5
			L277.2,55.5z M305.5,38.1v17.2h-4.7v-2.1c-0.7,0.8-1.4,1.3-2.3,1.7c-1,0.4-2,0.6-3,0.6c-2,0.1-4-0.6-5.4-2c-1.4-1.5-2.1-3.6-2-5.7
			V38h5v8.9c0,2.8,1.2,4.2,3.5,4.2c1.1,0,2.1-0.3,2.9-1.2c0.8-1,1.2-2.2,1.1-3.4V38h5V38.1z M310.1,31.6h5v23.7h-5V31.6z
			 M332.1,54.4c-0.6,0.4-1.1,0.7-1.8,0.8c-0.8,0.2-1.5,0.2-2.2,0.2c-1.8,0.1-3.4-0.4-4.7-1.5c-1.2-1.2-1.8-2.9-1.7-4.6v-7h-2.6v-3.9
			h2.6v-4.2h5v4.2h4.3v3.9h-4.3v6.9c0,0.7,0.1,1.2,0.6,1.7c0.4,0.4,1,0.7,1.5,0.6c0.8,0,1.4-0.2,2-0.7L332.1,54.4z M341.9,37.8
			c2.2-0.1,4.4,0.6,6.2,1.9c1.5,1.5,2.3,3.6,2.1,5.7v9.8h-4.6v-2.1c-1.2,1.8-3.2,2.6-5.2,2.4c-1.2,0-2.3-0.2-3.4-0.7
			c-0.9-0.4-1.7-1-2.2-1.9c-0.6-0.8-0.8-1.8-0.8-2.6c-0.1-1.4,0.7-2.9,1.8-3.7c1.7-1,3.6-1.5,5.6-1.3h4c0.1-1-0.3-1.9-1-2.5
			c-0.9-0.7-1.9-1-3-0.9c-0.9,0-1.9,0.1-2.6,0.4c-0.8,0.2-1.5,0.7-2.2,1.2l-1.8-3.4c1-0.7,2.2-1.2,3.4-1.5
			C339.1,38,340.4,37.8,341.9,37.8L341.9,37.8z M341.4,52.1c0.8,0,1.5-0.2,2.3-0.6c0.7-0.4,1.1-1,1.4-1.8V48h-3.4
			c-2.1,0-3.1,0.7-3.1,2c0,0.6,0.2,1.2,0.8,1.5C340,52,340.7,52.2,341.4,52.1L341.4,52.1z M372.3,31.6v23.7h-4.7v-2.1
			c-1.3,1.5-3.3,2.3-5.4,2.2c-1.5,0-3.1-0.3-4.4-1.1c-1.3-0.7-2.3-1.8-3.1-3.1c-0.8-1.4-1.1-3.1-1.1-4.6c0-1.7,0.3-3.2,1.1-4.6
			c0.7-1.3,1.8-2.4,3.1-3.1c1.3-0.8,2.9-1.1,4.4-1.1c2-0.1,3.9,0.7,5.2,2.1v-8.4L372.3,31.6z M363,51.4c1.2,0,2.3-0.4,3.1-1.3
			c0.9-1,1.3-2.2,1.2-3.4c0.1-1.3-0.3-2.5-1.2-3.4c-1.8-1.8-4.5-1.8-6.3,0c-0.9,1-1.3,2.2-1.2,3.4c-0.1,1.3,0.3,2.5,1.2,3.4
			C360.6,51,361.8,51.4,363,51.4z M384.9,55.5c-1.7,0-3.3-0.3-4.8-1.1c-1.4-0.7-2.5-1.8-3.4-3.1c-0.8-1.4-1.2-3-1.2-4.5
			c0-1.7,0.4-3.2,1.2-4.5c0.8-1.3,2-2.4,3.4-3.1c3.1-1.5,6.6-1.5,9.7,0c1.4,0.8,2.5,1.8,3.3,3.1c0.8,1.4,1.2,3,1.2,4.5
			c0,1.7-0.4,3.2-1.2,4.5s-2,2.4-3.3,3.1C388.3,55.1,386.7,55.5,384.9,55.5L384.9,55.5z M384.9,51.4c1.2,0,2.3-0.4,3.1-1.3
			c0.9-1,1.3-2.2,1.2-3.4c0.1-1.3-0.3-2.5-1.2-3.4c-0.8-0.9-2-1.3-3.1-1.3c-1.2,0-2.3,0.4-3.2,1.3c-0.9,1-1.3,2.2-1.2,3.4
			c-0.1,1.3,0.3,2.5,1.2,3.4C382.6,51,383.8,51.4,384.9,51.4z M403.4,55.5c-1.4,0-2.9-0.2-4.2-0.6c-1.1-0.2-2.2-0.7-3.3-1.3l1.7-3.5
			c0.9,0.6,1.8,0.9,2.8,1.2c1,0.3,2.1,0.4,3.2,0.4c2.1,0,3.2-0.6,3.2-1.5c0-0.6-0.3-1-0.9-1.1c-0.9-0.2-1.8-0.4-2.6-0.6
			c-1.2-0.1-2.3-0.4-3.5-0.8c-0.9-0.2-1.8-0.8-2.4-1.4c-0.7-0.9-1.1-1.9-1-3c0-1,0.3-2.1,1-2.9c0.7-0.9,1.7-1.5,2.8-2
			c1.3-0.4,2.8-0.8,4.3-0.7c1.2,0,2.4,0.1,3.6,0.4c1,0.2,2.1,0.6,3,1.1l-1.7,3.5c-1.5-0.9-3.2-1.3-5-1.3c-0.8,0-1.7,0.1-2.4,0.4
			c-0.4,0.2-0.8,0.7-0.8,1.1c0,0.6,0.3,1,0.9,1.1c0.9,0.3,1.8,0.4,2.8,0.7c1.2,0.2,2.3,0.4,3.4,0.8c0.9,0.2,1.7,0.8,2.3,1.4
			c0.7,0.8,1.1,1.9,1,3c0,1-0.3,2-1,2.9c-0.8,0.9-1.7,1.5-2.8,2C406.4,55.3,405,55.5,403.4,55.5L403.4,55.5z"/>
	</g>
</g>
</svg>
