<?xml version="1.0" encoding="UTF-8"?><svg id="Layer_2" xmlns="http://www.w3.org/2000/svg" viewBox="0 0 29.33 40"><g id="VECTOR_LOCALIZACIÓN"><path d="M14.71,40c-.15-.21-.26-.37-.37-.52-3.95-5.84-7.84-11.71-11.86-17.5C-.82,17.22-.66,12.32,1.98,7.51,4.81,2.34,9.44-.14,15.33,0c7.23.18,13.26,5.98,13.93,13.18.29,3.15-.39,5.98-2.21,8.61-4.06,5.88-8.02,11.82-12.02,17.74-.09.13-.18.26-.32.46ZM14.7,22.21c4.51,0,8.2-3.67,8.2-8.18,0-4.5-3.68-8.2-8.18-8.2-4.5,0-8.19,3.68-8.2,8.18,0,4.51,3.67,8.2,8.18,8.2Z" fill="#003a5b"/></g></svg>