<svg xmlns="http://www.w3.org/2000/svg" width="44.727" height="38.558" viewBox="0 0 44.727 38.558">
  <g id="ic-salud" transform="translate(-17 -10)">
    <path id="XMLID_90_" d="M67.927,48.4H64.11V44.581A1.5,1.5,0,0,0,62.8,43H57.4c-.771,0-1,.81-1,1.581V48.4H52.311A1.225,1.225,0,0,0,51,49.671h0v5.4A1.347,1.347,0,0,0,52.272,56.5H56.4v3.7c0,.771.231,1.311,1,1.311h5.4a1.49,1.49,0,0,0,1.35-1.542H64.11V56.5h3.779a1.63,1.63,0,0,0,1.619-1.427h0v-5.4C69.508,48.938,68.66,48.4,67.927,48.4Zm-.347,6.169H63.261c-.5,0-.694.463-.694.964V59.58H57.94V55.531a1.043,1.043,0,0,0-1-.964h-4.01V49.94h4.01c.5,0,1-.193,1-.694V44.928h4.627v4.28c0,.5.154.733.655.733H67.58Z" transform="translate(-20.89 -20.276)" fill="#4d4d4d"/>
    <path id="XMLID_106_" d="M55.288,15.9l-.116-.116H47.846V12.815a2.827,2.827,0,0,0-2.7-2.776c-.077,0-.27-.039-.347-.039H33.619a2.721,2.721,0,0,0-2.776,2.545c0,.077.039.193.039.27v2.969H23.246c-2.93,0-6.246,1.928-6.246,6.593V42.35c0,4.666,3.316,6.208,6.246,6.208H55.173c2.93,0,6.555-1.542,6.555-6.208V22.377A6.151,6.151,0,0,0,55.288,15.9ZM32.809,12.815c0-.27-.193-1.272.81-1.272H44.8c.964,0,1.118,1,1.118,1.272v2.969H32.809ZM59.8,42.35c0,4.049-3.277,4.28-4.627,4.28H23.246c-1.35,0-4.319-.231-4.319-4.28V22.377c0-4.049,2.93-4.666,4.319-4.666H55.173A4.37,4.37,0,0,1,59.8,22.377Z" transform="translate(0 0)" fill="#4d4d4d"/>
  </g>
</svg>
