<svg xmlns="http://www.w3.org/2000/svg" width="56.473" height="29.985" viewBox="0 0 56.473 29.985">
  <g id="sector-ic9" transform="translate(0 -11.986)">
    <path id="Path_3461" data-name="Path 3461" d="M6.5,37.627A6.9,6.9,0,0,1,3.8,33.9H8.309c1.072,3.951,3.656,5.763,4.37,5.763a1.154,1.154,0,0,0,.738-2.039,6.9,6.9,0,0,1-2.7-3.724h4.607a8.071,8.071,0,0,0,15.457,0h9.561a5.763,5.763,0,0,0,11.41,1.153h2.422A1.152,1.152,0,0,0,55.327,33.9V24.681a5.77,5.77,0,0,0-5.763-5.763H35.156l-2.513-3.35,1.6-1.6a1.153,1.153,0,0,0-1.63-1.63L28,16.95a1.154,1.154,0,0,0,.815,1.968c.6,0,.725-.248,2.181-1.7l2.272,3.029-1.049,2.63A12.646,12.646,0,0,0,12.91,23.99a1.153,1.153,0,0,0,1.844,1.383,10.339,10.339,0,0,1,1.326-1.425L17.7,25.573a8.039,8.039,0,0,0-2.72,6.024H1.153c-1.44,0-1.713,2.305.241,2.305,1.072,3.951,3.656,5.763,4.37,5.763A1.154,1.154,0,0,0,6.5,37.627Zm22.47-11.5,2.958.148a10.311,10.311,0,0,1,1.5,5.318H31.121A8.029,8.029,0,0,0,28.971,26.131ZM35.732,31.6a12.618,12.618,0,0,0-1.116-5.185l7.977.4a2.481,2.481,0,0,1,2.158,1.505,5.774,5.774,0,0,0-3.92,3.28ZM46.106,37.36A3.458,3.458,0,1,1,49.564,33.9,3.462,3.462,0,0,1,46.106,37.36Zm6.7-13.832H50.716a1.153,1.153,0,0,0,0,2.305h2.305V32.75H51.753a5.772,5.772,0,0,0-4.62-4.507,4.78,4.78,0,0,0-4.423-3.735l-8.492-.424,1.142-2.861h14.2A3.453,3.453,0,0,1,52.81,23.529Zm-34.85-.96a10.346,10.346,0,0,1,12.013,1.3c-6.621-.331-7.931-.69-10.3.409Zm5.082,3.267A5.763,5.763,0,1,1,17.29,31.6,5.768,5.768,0,0,1,23.041,25.835Z" transform="translate(0)" fill="#fff"/>
    <path id="Path_3462" data-name="Path 3462" d="M20.458,32.916A3.458,3.458,0,1,0,17,29.458,3.462,3.462,0,0,0,20.458,32.916Zm0-4.611a1.153,1.153,0,0,1,0,2.305A1.153,1.153,0,0,1,20.458,28.305Z" transform="translate(2.595 2.139)" fill="#fff"/>
    <path id="Path_3463" data-name="Path 3463" d="M40.151,30a1.153,1.153,0,0,0,0,2.305A1.153,1.153,0,0,0,40.151,30Z" transform="translate(5.954 2.75)" fill="#fff"/>
    <path id="Path_3464" data-name="Path 3464" d="M55.326,36H1.152a1.153,1.153,0,0,0,0,2.305H55.326A1.153,1.153,0,0,0,55.326,36Z" transform="translate(0.001 3.666)" fill="#fff"/>
  </g>
</svg>
