<svg xmlns="http://www.w3.org/2000/svg" width="46.115" height="46.115" viewBox="0 0 46.115 46.115">
  <g id="sector-ic3" transform="translate(-1726.5 -334.5)">
    <path id="Path_3458" data-name="Path 3458" d="M1747.766,367.307H1736a1.5,1.5,0,0,1-1.5-1.5v-10.93a7.381,7.381,0,0,1,14.762,0v10.93A1.5,1.5,0,0,1,1747.766,367.307Zm-10.274-2.992h8.778v-9.434a4.389,4.389,0,0,0-8.778,0Z" transform="translate(7.676 13.308)" fill="#fff"/>
    <path id="Path_3459" data-name="Path 3459" d="M1749.558,334.5a1.494,1.494,0,0,1,.854.268l7.961,5.538V336a1.5,1.5,0,0,1,1.5-1.5h3.75a1.5,1.5,0,0,1,1.5,1.5v9l6.054,4.213a3.372,3.372,0,0,1,1.446,2.767v2.769a1.5,1.5,0,0,1-1.5,1.5h-4.129v21a3.375,3.375,0,0,1-3.371,3.371H1735.5a3.375,3.375,0,0,1-3.371-3.371v-21H1728a1.5,1.5,0,0,1-1.5-1.5v-2.769a3.372,3.372,0,0,1,1.446-2.767l20.757-14.44A1.494,1.494,0,0,1,1749.558,334.5Zm12.565,2.992h-.758v5.677a1.5,1.5,0,0,1-2.35,1.228l-9.457-6.579-19.9,13.846a.379.379,0,0,0-.162.311v1.273h4.129a1.5,1.5,0,0,1,1.5,1.5v22.5a.379.379,0,0,0,.379.379h28.123a.379.379,0,0,0,.379-.379v-22.5a1.5,1.5,0,0,1,1.5-1.5h4.129v-1.273a.379.379,0,0,0-.163-.311l-6.7-4.659a1.5,1.5,0,0,1-.641-1.228Z" transform="translate(0 0)" fill="#fff"/>
  </g>
</svg>
