<svg xmlns="http://www.w3.org/2000/svg" width="80" height="50.718" viewBox="0 0 80 50.718">
  <path id="sector-ic2" d="M108.787,313.962v.1a6.708,6.708,0,0,0,1.978,4.767l.073.081a6.75,6.75,0,0,0,11.447-4.848v-.008a6.721,6.721,0,0,0-1.97-4.767h-.008a6.746,6.746,0,0,0-11.52,4.678ZM103.3,300.326h-1.654v-3.64h25.14V312.3h-1.151a10.306,10.306,0,0,0-2.854-5.489h0a10.254,10.254,0,0,0-17.325,5.408H101.8a.131.131,0,0,1-.105-.048l-.024-.024-.024-.073v-8.245H103.3a1.751,1.751,0,0,0,0-3.5Zm71.358,3.5h-3.21a1.751,1.751,0,0,1,0-3.5h3.21v-3.259l-.016-.089-.073-.049-.495-.194H151.3V312.3h1.013a10.211,10.211,0,0,1,2.846-5.489h.008a10.247,10.247,0,0,1,14.487,0h-.008A10.2,10.2,0,0,1,172.5,312.3h2.011a.148.148,0,0,0,.1-.041.143.143,0,0,0,.049-.105v-8.326Zm-33.936-26.753V312.3h7.086V277.075ZM137.227,312.3V277.075h-6.948V312.3Zm37.795-18.97a1.656,1.656,0,0,1,.4.194l.405.154a3.622,3.622,0,0,1,2.327,3.389v15.087a3.654,3.654,0,0,1-3.64,3.64H172.5a10.24,10.24,0,0,1-20.186,0h-26.68a10.241,10.241,0,0,1-17.235,5.6l-.105-.1a10.254,10.254,0,0,1-2.87-5.586H101.8a3.613,3.613,0,0,1-2.578-1.07l-.122-.138a3.577,3.577,0,0,1-.948-2.432V279.118a5.536,5.536,0,0,1,5.537-5.537h61.994a5.579,5.579,0,0,1,3.381,1.127,5.329,5.329,0,0,1,1.962,2.959l4,15.663Zm-23.721-.089h20.1l-3.754-14.714a1.926,1.926,0,0,0-.689-1.046,2.058,2.058,0,0,0-1.273-.406H151.3v16.165Zm-35.217-16.165v16.117h10.7V277.075Zm-3.494,16.117V277.075h-8.9a2.036,2.036,0,0,0-1.443.6,2.07,2.07,0,0,0-.6,1.443v14.074Zm2.951,17.414a3.451,3.451,0,0,1,2.44,5.885l-.138.122a3.449,3.449,0,0,1-5.756-2.554,3.465,3.465,0,0,1,1.013-2.44h0a3.4,3.4,0,0,1,2.44-1.013Zm46.867,0a3.445,3.445,0,0,1,2.44,5.885l-.13.122a3.432,3.432,0,0,1-4.743-.122h-.008a3.449,3.449,0,0,1,2.44-5.885Zm.049,3.453h-.041l.024.024.016-.024Zm-.041,0h.041l-.016-.032-.032.024.008.008Zm6.745,0a6.749,6.749,0,0,1-13.5.032V314a6.7,6.7,0,0,1,1.97-4.718v-.008a6.762,6.762,0,0,1,9.55.008h.008a6.79,6.79,0,0,1,1.97,4.767Z" transform="translate(-98.151 -273.581)" fill="#fff" fill-rule="evenodd"/>
</svg>
