<svg xmlns="http://www.w3.org/2000/svg" width="70" height="62.181" viewBox="0 0 70 62.181">
  <path id="sector-ic6" d="M51.453,188.246a1.7,1.7,0,0,1,0-3.4h3.469v-28.09h-.346a1.68,1.68,0,0,1-1.675-1.691v-5.137H51.453a1.7,1.7,0,0,1-1.691-1.7v-4.421a1.693,1.693,0,0,1,.96-1.526l33.3-16.055a1.72,1.72,0,0,1,1.471,0l33.187,16a1.708,1.708,0,0,1,1.078,1.581v4.421a1.7,1.7,0,0,1-1.7,1.7h-1.439v5.137a1.687,1.687,0,0,1-1.683,1.691h-.346v28.09h3.469a1.7,1.7,0,0,1,0,3.4ZM69.8,156.758v28.09h7.528v-28.09h-.346a1.687,1.687,0,0,1-1.683-1.691v-5.137H71.818v5.137a1.687,1.687,0,0,1-1.683,1.691Zm-1.337-6.828h-12.2v3.437h12.2v-3.437Zm-2.053,6.828H58.312v28.09h8.094v-28.09Zm25.785,0v28.09h7.528v-28.09h-.338a1.687,1.687,0,0,1-1.683-1.691v-5.137H94.221v5.137a1.687,1.687,0,0,1-1.683,1.691Zm-1.329-6.828h-12.2v3.437h12.2v-3.437ZM88.8,156.758H80.715v28.09H88.8v-28.09Zm22.4,0h-8.086v28.09H111.2v-28.09Zm-10.147-6.828v3.437h12.208v-3.437Zm-47.9-3.4h63.219v-1.66L84.758,129.636,53.152,144.873Z" transform="translate(-49.762 -126.065)" fill="#fff" fill-rule="evenodd"/>
</svg>
