<svg xmlns="http://www.w3.org/2000/svg" width="70" height="68.394" viewBox="0 0 70 68.394">
  <path id="sector-ic8" d="M403.722,119.342a1.809,1.809,0,1,1,2.389,2.717L391.687,134.7a1.819,1.819,0,0,1-2.405-.017L383,129.173l-11.514,10.1a1.809,1.809,0,1,1-2.38-2.725L381.8,125.431a1.809,1.809,0,0,1,2.4-.017l6.3,5.517,13.229-11.59Zm-1.867,29.765a2.086,2.086,0,0,1,.1.244,13.016,13.016,0,0,0,1.64,2.742,10.873,10.873,0,0,0,.816.925,1.578,1.578,0,0,1,.2.21,9.479,9.479,0,0,0,1.682,1.3,4.709,4.709,0,0,0,5.147,0,9.182,9.182,0,0,0,1.682-1.3,1.636,1.636,0,0,1,.21-.21c.278-.286.547-.6.807-.925a13.07,13.07,0,0,0,1.943-3.482,10.678,10.678,0,0,0,.673-3.633v-.16c0-.185.009-.345,0-.53,0-.328.017-1.186.034-2.027.092-5.021.16-8.856-7.923-8.856s-8.015,3.835-7.923,8.856c.017.841.034,1.7.034,2.027v.4a1.3,1.3,0,0,1,0,.362,10.758,10.758,0,0,0,.673,3.566c.067.168.126.328.2.5Zm-12.288,4.037v-1.4H399.1a16.855,16.855,0,0,0,1.648,2.582c.2.252.412.5.631.74l-.025.286v.042c-.059.875-.143,1.96-.227,2.641l-.866.538a20.572,20.572,0,0,0-7.965,3.289,7.555,7.555,0,0,0-3.373,6.114h.008v8.8a1.805,1.805,0,0,0,1.808,1.808L427,178.517a1.811,1.811,0,0,0,1.808-1.808v-8.73h.009a7.555,7.555,0,0,0-3.373-6.114,20.57,20.57,0,0,0-7.965-3.289l-.866-.538c-.084-.681-.168-1.766-.227-2.641v-.042l-.017-.286c.21-.235.421-.488.622-.74a16.334,16.334,0,0,0,2.49-4.491,14.326,14.326,0,0,0,.9-4.861v-.067h0l-.008-.151.008-.471c0-1.035.017-1.522.017-1.977.109-5.719.193-10.362-5.929-11.943V113.816h.4a1.812,1.812,0,1,0,0-3.625H360.636a1.812,1.812,0,1,0,0,3.625h.4v36.123a1.813,1.813,0,0,0,1.817,1.808h23.086v1.4a1.813,1.813,0,0,0,3.625,0Zm21.278-39.327H364.673v34.306h33.07a13.3,13.3,0,0,1-.387-3.145l.008-.261-.008-.429c0-1.035-.009-1.522-.017-1.977-.135-7.1-.227-12.532,11.531-12.532.7,0,1.354.017,1.977.059V113.816Zm-18.31,61.152v-6.989h.009a4.121,4.121,0,0,1,1.934-3.221,17.5,17.5,0,0,1,6.821-2.717,1.75,1.75,0,0,0,.5-.185,6.993,6.993,0,0,0,2.616,2.077,10.393,10.393,0,0,0,2.641.841l.059,10.168-14.584.025Zm18.2-.034-.059-10.177a10.119,10.119,0,0,0,2.465-.824,8.262,8.262,0,0,0,2.767-2.094,1.935,1.935,0,0,0,.538.21,17.472,17.472,0,0,1,6.821,2.708,4.133,4.133,0,0,1,1.926,3.221h.009v6.93l-14.466.025Zm-6.2-15.5a14.555,14.555,0,0,0,.244-1.615,8.187,8.187,0,0,0,8.175,0,14.5,14.5,0,0,0,.244,1.615,4.326,4.326,0,0,1-1.632,1.245,6.316,6.316,0,0,1-2.7.648,6.916,6.916,0,0,1-2.885-.656A3.092,3.092,0,0,1,404.538,159.434Z" transform="translate(-358.819 -110.191)" fill="#fff" fill-rule="evenodd"/>
</svg>
