<svg xmlns="http://www.w3.org/2000/svg" width="57.529" height="64.562" viewBox="0 0 57.529 64.562">
  <path id="sector-ic5" d="M33.96,2a6.392,6.392,0,1,0,6.392,6.392A6.391,6.391,0,0,0,33.96,2ZM56.334,2a3.2,3.2,0,1,0,3.2,3.2A3.2,3.2,0,0,0,56.334,2ZM4.682,8.4A2.458,2.458,0,0,0,2.16,9.9,2.386,2.386,0,0,0,3.3,12.825l6.9,3.914c2.467,1.4,9.569,3.733,12.654,5.487l1.38.787L20.052,24.58A3.2,3.2,0,1,0,22.3,30.56l8.465-3.177V38.756a4.8,4.8,0,0,0,4.794,4.794l-1.386,8.234-7.248,9.67a3.185,3.185,0,0,0,.637,4.463l.013.006a3.188,3.188,0,0,0,4.463-.637l7.423-9.895a6.235,6.235,0,0,0,1.011-2c.857-2.889,3.078-10.762,3.078-14.633V22.588l4.32-1.617a3.195,3.195,0,1,0-2.248-5.98l-19.215,7.2L23.8,20.715c-3.088-1.755-8.626-6.606-11.093-8.009L5.694,8.723A2.5,2.5,0,0,0,4.682,8.4Zm40.34,40.546c-.511,2.014-1.058,3.9-1.473,5.337a9,9,0,0,1-1.5,2.972l2.922,5.812a3.192,3.192,0,0,0,5.706-2.865Z" transform="translate(-2.001 -2)" fill="#fff"/>
</svg>
