<svg xmlns="http://www.w3.org/2000/svg" width="64" height="63.999" viewBox="0 0 64 63.999">
  <g id="sector-ic7" transform="translate(0)">
    <g id="Group_3592" data-name="Group 3592">
      <path id="Path_3619" data-name="Path 3619" d="M30.521,19.506a33.416,33.416,0,0,0,5.033-.674,8.455,8.455,0,0,0,2.565-3.064C38.784,18.379,40.64,20,43,20c4.335,0,9-2.19,9-7a50.071,50.071,0,0,1,.979-7.8,1,1,0,0,0-.663-1.151c-.348-.116-3.573-1.042-9.764,2.054a8.293,8.293,0,0,0-3.834,3.926C37.685,6.253,33.877,3,30,3,27.56,3,21.49.882,19.357.066A1,1,0,0,0,18.01.858c-.061.425-1.421,10.459,4.143,15.67a11.776,11.776,0,0,0,8.369,2.978ZM43.447,7.894a16.338,16.338,0,0,1,7.129-2.051c.086,0,.166,0,.242,0A45.466,45.466,0,0,0,50,13c0,3.436-3.629,5-7,5a2.8,2.8,0,0,1-.707-.09l4.52-6.329a1,1,0,1,0-1.627-1.162l-4.5,6.294a4.922,4.922,0,0,1-.664-1.533,6.55,6.55,0,0,1,3.421-7.286ZM19.879,2.39C22.26,3.247,27.445,5,30,5a7.581,7.581,0,0,1,7,7,6.437,6.437,0,0,1-1.909,4.607L26.743,7.331a1,1,0,1,0-1.486,1.338l7.785,8.65c-4.117.557-7.319-.19-9.517-2.246C19.774,11.566,19.717,5.1,19.879,2.39Z" fill="#fff"/>
      <path id="Path_3620" data-name="Path 3620" d="M39,30V20a1,1,0,0,0-2,0V30a1,1,0,0,0,2,0Z" fill="#fff"/>
      <path id="Path_3621" data-name="Path 3621" d="M63,40H61.662A8.165,8.165,0,0,0,62,38a1,1,0,0,0-1-1H59.323A9.284,9.284,0,0,0,60,34a1,1,0,0,0-1-1H55a1,1,0,0,0-.515.143l-5,3a1,1,0,1,0,1.029,1.715L55.277,35h2.577c-.1.433-.6,2-.6,2H57a1,1,0,0,0-.515.143l-5,3a1,1,0,0,0,1.029,1.715L57.276,39h2.577l-.3,1H59a1,1,0,0,0-.507.138L41.82,49.947,23.961,46.375A1.2,1.2,0,0,1,24.2,44H39a4,4,0,1,0,0-8H16.485a6.958,6.958,0,0,0-4.95,2.05L.293,49.293a1,1,0,0,0,1.414,1.414L12.949,39.465A4.968,4.968,0,0,1,16.485,38H39a2,2,0,0,1,0,4H24.2a3.2,3.2,0,0,0-.628,6.334L41.8,51.98a1,1,0,0,0,.7-.119L59.272,42h2.59c-.334,1.533-1.48,4.543-5.407,7.162L41.413,58.938a11.077,11.077,0,0,1-9.656,1.15L20.333,56.056a1,1,0,0,0-1.04.236l-6,6a1,1,0,1,0,1.414,1.414l5.555-5.554,10.829,3.822A13.074,13.074,0,0,0,42.5,60.615l15.052-9.784C63.927,46.583,64,41.225,64,41a1,1,0,0,0-1-1Z" fill="#fff"/>
      <path id="Path_3622" data-name="Path 3622" d="M31,30a8.479,8.479,0,0,0-6.832,3.445,1,1,0,0,0,1.661,1.114,6.5,6.5,0,0,1,10.339,0,1,1,0,0,0,1.664-1.11A8.476,8.476,0,0,0,31,30Z" fill="#fff"/>
      <path id="Path_3623" data-name="Path 3623" d="M40,34c3.316,0,5.09,3.416,5.1,3.447a1,1,0,1,0,1.789-.894C46.8,36.367,44.565,32,40,32a1,1,0,0,0,0,2Z" fill="#fff"/>
      <path id="Path_3624" data-name="Path 3624" d="M45.5,40.5a2,2,0,0,1,2,2,1,1,0,0,0,2,0,4,4,0,0,0-4-4,1,1,0,0,0,0,2Z" fill="#fff"/>
    </g>
  </g>
</svg>
