<svg xmlns="http://www.w3.org/2000/svg" width="787" height="324" viewBox="0 0 787 324"><defs><style>.cls-1{isolation:isolate;}.cls-2{fill:#f0f8ff;}.cls-3{fill:#a8dbe1;}.cls-4{fill:#009245;}.cls-5{fill:#f0c0a7;}.cls-6{fill:#fff;}.cls-7{fill:#e1b39d;}.cls-8{fill:#144665;}.cls-9{fill:#003853;}.cls-10{fill:#d2e8f2;}.cls-11{fill:#e8ac4c;}.cls-12{fill:#305d81;}.cls-13{fill:#b0dde5;mix-blend-mode:multiply;}.cls-14{fill:none;}</style></defs><g class="cls-1"><g id="Layer_2" data-name="Layer 2"><g id="Layer_1-2" data-name="Layer 1"><rect class="cls-2" y="1" width="787" height="323"/><polygon class="cls-3" points="470.76 136.74 477.18 145.8 481.57 135.79 470.76 136.74"/><path class="cls-3" d="M86.73,324l3-3.27L91,321.9,89.1,324Zm7.16-5.29-1.28-1.17,5.83-6.37,1.28,1.16-5.83,6.38Zm8.74-9.57L101.36,308l5.83-6.38,1.27,1.16-5.83,6.38Zm8.75-9.56-1.28-1.17,5.83-6.38,1.28,1.17-5.83,6.38Zm8.74-9.57-1.27-1.17,5.83-6.38,1.27,1.17L120.12,290Zm8.75-9.57-1.28-1.17,5.83-6.37,1.28,1.16-5.83,6.38Zm109-7.34-1-1.38,6.91-5.18,1,1.38-6.92,5.18Zm-4.58-1.16L226,267.29l.93-1.46,7.28,4.65-.93,1.46Zm-95.71-1.07-1.27-1.16,5.83-6.38,1.27,1.17-5.83,6.37Zm110.67-5.54-1-1.38,6.92-5.18,1,1.38-6.91,5.18ZM222.4,265l-7.28-4.66.93-1.45,7.28,4.65L222.4,265Zm-76-3.65-1.28-1.17,5.83-6.38,1.28,1.17-5.83,6.38ZM211.48,258l-7.28-4.65.93-1.46,7.28,4.66-.93,1.45Zm47.17-.41-1-1.38,6.92-5.18,1,1.39-6.92,5.17ZM155.1,251.74l-1.27-1.17,5.83-6.38,1.27,1.17-5.83,6.38Zm45.46-.75-7.28-4.66.93-1.45,7.28,4.65-.93,1.46ZM269,249.8l-1-1.39,6.92-5.18,1,1.39L269,249.8ZM189.64,244l-7.28-4.66.93-1.45,7.28,4.65-.93,1.46Zm-25.79-1.84L162.57,241l5.83-6.38,1.28,1.16-5.83,6.38ZM279.41,242l-1-1.39,6.92-5.17,1,1.38L279.41,242Zm-100.69-5-7-4.49.31-.47-.68-.62.69-.76,7.64,4.89-.93,1.45Zm111.06-2.76-1-1.38,6.91-5.18,1,1.38-6.92,5.18Zm10.38-7.77-1-1.38,6.92-5.18,1,1.38-6.92,5.18Zm10.37-7.77-1-1.38,6.92-5.18,1,1.38-6.92,5.18ZM320.91,211l-1-1.39,6.92-5.18,1,1.39L320.91,211Zm10.38-7.77-1-1.39,6.92-5.18,1,1.39-6.91,5.18Zm10.37-7.77-1-1.38,6.91-5.18,1,1.38-6.92,5.18Zm65.76-6-3.34-2.2.95-1.44,2.35,1.54,3.78-2.7,1,1.41-4.75,3.39ZM352,187.65l-1-1.38,6.92-5.18,1,1.38L352,187.65Zm48.43-2.83-7.21-4.75.95-1.44,7.21,4.75-.95,1.44Zm15.22-1.32-1-1.4,7-5,1,1.41-7,5Zm-53.28-3.62-1-1.38,6.92-5.18,1,1.38-6.92,5.18Zm27.24-2.18-7.22-4.76.95-1.44,7.22,4.75-1,1.45ZM426.24,176l-1-1.41,7-5,1,1.4-7,5Zm-53.45-3.87-1-1.38,4.89-3.66,3.12,2.05-.95,1.45-2.11-1.39-3.92,2.93Zm64-3.65-1-1.41,7-5,1,1.41-7,5Zm10.55-7.53-1-1.4,7-5,1,1.41-7,5Zm10.56-7.52-1-1.41,7-5,1,1.4-7,5Zm10.55-7.52-1-1.41,7-5,1,1.41-7,5Z"/><polygon class="cls-4" points="67 324 171.97 194.16 238.17 227.72 324.68 143.45 406.7 200.75 546.74 102.94 530.28 83.91 635.14 57.62 595.44 156.51 577.47 134.46 411.19 245.69 325.8 187.27 238.17 256.93 173.38 215.75 77.58 324 67 324"/><path class="cls-5" d="M465.46,206.55a61,61,0,0,0-3.88-9.78c-1.93,1.38.36,5.73.36,5.73s-9.88-7.53-10.38-7.83-1.35.6-1.35.6-1.44-.74-1.12.38,4.64,5.42,4.64,5.42-3.5-2.43-3.78-2.71-1.1,1,1.2,3.37c.87.88,6.28,7.87,9.74,7.11a22.92,22.92,0,0,0,2.48,1.59Z"/><path class="cls-6" d="M465.55,206.12s28.53,17.73,30.05,19.52c1.76-.8,3.67-3,12.36-11.13,5.38-5,16.46,1.53,16.46,1.53s1-2.38-22.46,20.34c-4.24,4.11-11.37,3.6-19.89-5-9.72-9.87-19.39-20.23-19.39-20.23Z"/><path class="cls-6" d="M500.86,274.11s.31-40,5.64-52.22c2.67-6.12,5.39-10.43,8.7-13.82.21-.22-.2-2.46,0-2.65,6.77-5.61,17.3-6.55,17.3-6.55s13.21,19.28,9.27,33.83c-5.64,20.86-10.21,33.64-10.21,33.64L531,276.78Z"/><path class="cls-7" d="M511.44,194.3c1.38,0,8.07,8.53,7.69,12.33,6-2.64,11.52-5.47,12.66-5.68-.9-2.95.27-8.78.27-8.78S521.35,165.23,511.44,194.3Z"/><path class="cls-5" d="M523.26,181.5s2.46-3.05,4.26.21-3.42,5.74-3.42,5.74-3.3,7.31-6.68,7.54a42.3,42.3,0,0,1-6.61-.14c-.34,0-.89-.17-.95-.51s.44-10.53.44-10.53-1.89.14-1.23-1.05l5.32-9.65s6.47-5.66,8.37-3S523.26,181.5,523.26,181.5Z"/><path class="cls-8" d="M519.59,182s2.31,3.11,3.43,1.29,2.77-1.62,3.83-.19-.9,4-.05,6.15c.56,1.41,4.69,2.91,5.26,3.07.55-3.33,5-16.86,3.21-18.79a28.5,28.5,0,0,0-14-6.8c-5.92-.81-9.71,1-7,6.37C529.68,168,519.59,182,519.59,182Z"/><path class="cls-9" d="M537,323.89c-1.21-8.06-.69-36-2.54-41.78s-5.9-4-5.9-4l-9.84,45.74S533.33,324.13,537,323.89Z"/><path class="cls-8" d="M494.5,323.89c-.07-14.74,6.54-50.46,6.54-50.46l30.31-.64s7.71,14.64,2.85,20.18c-9.09,10.35-12.65,30.92-12.65,30.92Z"/><path class="cls-10" d="M518.19,270.61l-3.56-1s5.49-12.5,7.67-23.81,9.8-34.35,11.69-26C538.18,238.17,518.19,270.61,518.19,270.61Z"/><path class="cls-5" d="M508.27,285.89s-4.22,2.47-5.3,5-2.32,4.1-.84,4.83c-.07.29-.33.59-.48,1.06-.31,1,1.72,2.23,2.32,1.23.5-.84,1.29.5,2.16.11s1.42-.87,2-.57,1.1-.12,1.46-.67,1.78.25,2.32-1.9a32.91,32.91,0,0,0,.22-6.93l2.42-3.63-4.14-2Z"/><path class="cls-6" d="M534,201.42s-10,3.24-9.14,17.36,1.69,27.56,1.69,27.56L508,285.17l6,3.34s19-26.06,24-39,8.81-26.07,8.17-33.72C545.82,212.2,534,201.42,534,201.42Z"/><path class="cls-11" d="M516.81,206.19a3.55,3.55,0,0,0-2.51,2.45,4.4,4.4,0,0,0-.27,2.52,45.55,45.55,0,0,0-10.23,18.65c-5.07,18.07-8.94,33.57-8.94,33.57l4.66,7.5,6.3-6.08a302,302,0,0,1,3.28-34.5c2-12.54,6.54-18.2,6.54-18.2s1.46-1.1,3.25-2.21A12.44,12.44,0,0,1,516.81,206.19Z"/><path class="cls-10" d="M518,206.62a12.63,12.63,0,0,0,4.55,5.5c5.49-8.94,10.13-10.52,10.13-10.52s-.26-.94-.71-2.29C527.38,200.3,518,206.62,518,206.62Z"/><path class="cls-5" d="M317,240.21l.91-15.15a22.55,22.55,0,0,1-5.3-8.52c2.45-.51,4.5,2.48,4.5,2.48s.91-11.13,1-11.73,1.42-.62,1.42-.62.45-1.64,1.09-.59.89,7.46.89,7.46.62-4.45.6-4.87,1.59-.1,1.75,3.34c.06,1.31,1,11.3-2.05,13.43.06.38,1.65,14.77,1.65,14.77Z"/><path class="cls-8" d="M297.18,178.94s13.28,4.73,1,13.94S297.18,178.94,297.18,178.94Z"/><path class="cls-8" d="M290.49,214.09c6.88,2.63,12.89,9.29,17.88,18.61s4.56,8.64,6.61,10.58c1.12,1.06,1.65-4.78,1.65-4.78l6.84-.65s.81,12.53-1.07,17.05-7.54,2.25-12.14-1.54S296,239.08,296,239.08,287.12,212.81,290.49,214.09Z"/><path class="cls-6" d="M279.3,269.59l26.46,4.5s-4.41-22.91-1.69-26.79,3.34-3.48,3.17-8.51c-.12-3.12-11.07-15-15.44-22.59s-11.25-5.07-11.25-5.07Z"/><path class="cls-8" d="M271.91,323.9s-1.8-25.3.4-36.21a55.31,55.31,0,0,1,7-18.1l26.46,4.5a66.1,66.1,0,0,1-1.19,11.67c1.21,12-.19,38.14-.19,38.14Z"/><path class="cls-8" d="M263,226.62l17.53-15.49s12.2,16.61,13.75,37.65c.33,7.57-1.69,21.91-13,48a37.07,37.07,0,0,1-16,0c.39-14.45,9.82-34.42,8.92-45.52S263,226.62,263,226.62Z"/><path class="cls-8" d="M275.29,187.62s-7.67-2.44-7.9,5.37,5.61,19.38,5.35,21.7-2.49,4.4,3.27,1.71-2.44-17.56-1.92-20.33a8.74,8.74,0,0,1,1.88-4.21Z"/><path class="cls-7" d="M292.93,194.67S293,218,293,219.92c-1.57,3.38-12.43-8.79-12.43-8.79a11.76,11.76,0,0,0,1.95-5.36c.3-3.14-2.44-16.42-2.44-16.42Z"/><path class="cls-5" d="M289.3,192.87s-2.13-3.55-4.49-.42,3.23,5.79,3.23,5.79,1.73,7.25,5.21,8c2.09.45,6,1.08,6.33,1.19a.75.75,0,0,0,.9-.44c.11-.34,2.86-8.29,2.86-8.29s2.22-.1,1.36-1.24c-4.47-5.94-1-11.18-6.59-14.2Z"/><path class="cls-8" d="M292.55,201.58s-2.08.89-2.84-7.69c-.2-2.24-2.76-3.28-4.08-2s-.09,5.23-1.3,7.33c-1.06,1.84-2.37,1.89-2.37,1.89s-2.93-1.73-4.58-2.77-2.48-14.52-.28-16.25,10.5-6.47,16.79-6.41,6.41,4.81,2.76,10S292.55,201.58,292.55,201.58Z"/><path class="cls-12" d="M281.24,209.75l-5.21,4s10.69,14.7,13.37,13.93C288,223.76,281.24,209.75,281.24,209.75Z"/><path class="cls-9" d="M291.69,267.76c.76-2.61,2.62-15.37,2.62-15.37s-24.07-18.64-23.74-16.81C274.28,255.92,288.83,267,291.69,267.76Z"/><path class="cls-5" d="M290.65,244.31,303.77,226a79.77,79.77,0,0,1-2.63-11.76c2.51,0,3.1,5.19,3.1,5.19s4.12-12.4,4.38-13,1.53-.29,1.53-.29.81-1.49,1.19-.32-.81,7.46-.81,7.46,1.6-4.19,1.68-4.6,1.57.26,1,3.65c-.23,1.29-.79,10.57-4.25,11.95,0,.39-10.77,22.69-10.77,22.69Z"/><path class="cls-8" d="M291.94,241.65l-7.24,11.12s-8.1-12.19-12-18.91-6.43-12-11.45-5.36,15.45,32.75,20.31,36.63,11.28-4.94,13.86-11c1.63-3.83,4.12-8.74,4.12-8.74Z"/><path class="cls-5" d="M549.63,153.85a52.52,52.52,0,0,0,0-14c-2.64.87-1.6,6.53-1.6,6.53s-8.41-11.86-8.87-12.37-1.72.19-1.72.19-1.34-1.32-1.37,0,3.28,7.68,3.28,7.68-3.06-3.94-3.28-4.35-1.59.79.17,4.19c.67,1.29,4.27,11,8.4,11.33.15.41,2.29,3.18,2.29,3.18Z"/><path class="cls-8" d="M621.6,157.93s8.58-4.23,15.29,5.24c4.53,6.37,3.07,10.79,4.81,16.9,4.62,16.33-18.29,14.14-18.29,14.14s-14-6-17-17.37c-2.16-8.18,2.27-2.27,4.69-6.27C617.2,159.56,621.6,157.93,621.6,157.93Z"/><path class="cls-8" d="M550.52,152.55c7.71,21,14.9,32.22,18.12,37s-2.74,15.29-10.3,6.49S545,156.58,545,156.58A12.19,12.19,0,0,1,550.52,152.55Z"/><path class="cls-8" d="M635.45,224S638,190.6,645,207.44s13,34.45,12.7,40.93-6.91,15.46-9.76,4.06S635.45,224,635.45,224Z"/><path class="cls-8" d="M635.45,324s3.89-28.49-6.73-55.43-31.43-24.78-41.62-3.45-8.09,41-1.88,58.88h20.45s1-17.35,1.29-19.43S609.67,324,609.67,324Z"/><path class="cls-6" d="M642,207.79s-10.88-14.85-18.3-17.79-29.36,2.07-29.36,2.07-2.59,14.51-.69,27.8-6.56,45.25-6.56,45.25,29.7,5.52,41.62,3.45C632.34,238.18,642,207.79,642,207.79Z"/><path class="cls-8" d="M641.19,277.15a38.59,38.59,0,0,1-3.67-32.76c6.22-18.82,8.17-28.42,8.73-33.23C642.71,198.74,632.69,196,632.69,196s-6.05,63.9-7.43,75.29,8.31,9.87,9.52,9.53S641.19,277.15,641.19,277.15Z"/><path class="cls-8" d="M614,189.15s-13.74,16.39-12.7,31.07-11.4,40.23-14.16,44.9a95.84,95.84,0,0,1-6.8,9.65s-2.93-.69-1.38-4.48,12-15.88,13.36-30.9.35-19-.35-27.8,3.63-21.42,3.63-21.42Z"/><path class="cls-8" d="M606.1,189.92s-29.88-1.3-38.69-1.82-14.16,9.84-1.55,12.26,23.83,2.42,31.08,12.61C601.43,208.48,606.1,189.92,606.1,189.92Z"/><path class="cls-7" d="M630.27,186.07l-2.33,8.42s-1.9,15.08-10.7,13.22c-9-1.9-1.56-17.87-1.56-17.87l4.75-9.34Z"/><path class="cls-5" d="M616.11,172.81s-2.24.05-1.28,2.64a13.54,13.54,0,0,1,1,3.54s.32,6.57,2.9,9.86c5.21,2.07,6.54,1.55,6.54,1.55s6-4.14,8.23-8.59c1.86-.61,4.84-3.38,1.45-5.62.16-10.71-9.12-3.77-12.51-13.49C617,165,616.11,172.81,616.11,172.81Z"/><path class="cls-13" d="M614.71,257.6c-6.5-1.18-6-7.88-6-7.88s27.06,5.34,26.07,7.15S621.2,258.79,614.71,257.6Z"/><path class="cls-5" d="M607.56,244.59a104,104,0,0,0-15-1.9c.35,2.76,6.1,2.81,6.1,2.81s-13.24,6-13.82,6.36-.14,1.73-.14,1.73-1.56,1.06-.23,1.35,8.17-1.77,8.17-1.77-4.45,2.27-4.9,2.4.48,1.71,4.15.63c1.39-.41,11.6-2.11,12.72-6.1.43-.07,3.31-.16,3.31-.16Z"/><path class="cls-8" d="M605.53,244l41.57,3.76s-8-15.95-11.45-23.88,9.89-15.11,9.89-15.11,13.87,36.53,14.1,43.44-13,7.86-26.73,4.18-26.81-5.68-26.81-5.68Z"/><path class="cls-5" d="M437.81,236.2a47.58,47.58,0,0,1,9.39-8.4c1,2.29-2.56,4.85-2.56,4.85s12.15-1.36,12.77-1.36.91,1.26.91,1.26,1.7.1.8.94-7.12,2.44-7.12,2.44,4.49-.33,4.89-.44.43,1.55-2.9,2.42c-1.27.33-9.93,3.76-12.65,1.21-.36.14-3.5.38-3.5.38Z"/><polygon class="cls-9" points="376.3 323.9 382.19 275.23 398.77 278.64 398.84 323.9 376.3 323.9"/><path class="cls-8" d="M390.05,209.89s12.61,22.94,15.2,28.17c10-2.09,20.57-1.94,34.34-3.86.19,5.85-.65,8-.65,8s-28.48,8.93-36,8.28-24.79-29-24.79-29Z"/><path class="cls-8" d="M362.77,279.5c-5.91,14.52,1.74,31-4.67,44.4H379l13.36-50.06S368.67,265,362.77,279.5Z"/><path class="cls-6" d="M368.43,195.68l2.92-3.46,19.29,6.34-.3,5.18s13.37,15,11,36.26-2.54,38.6-2.54,38.6l-31.58-2.9Z"/><path class="cls-11" d="M387.85,202.54s1.65.45,2.27,2.93a4.59,4.59,0,0,1-.08,2.66,48,48,0,0,1,8,21c2.67,19.61,6.39,36.06,6.39,36.06l-7.87,7.45-6.36-7.45a241.6,241.6,0,0,0,2.23-36.3c-.24-13.39-4.2-20-4.2-20s-1.36-1.36-3.07-2.78A13,13,0,0,0,387.85,202.54Z"/><path class="cls-8" d="M369.42,194.47,366,197.58s-11.52,4.7-14.51,9.72c-1.16,11.67,9,41.35,8.54,66.3-3,4.2-5.06,12.59-6.4,29.14,14,3.73,16.2-5.11,22.73-13.74s12.13-34.06,9.57-50.85C381.57,209.61,369.42,194.47,369.42,194.47Z"/><path class="cls-7" d="M394.83,188.68c-3.11-.08-6.31,6.63-7.66,12.28A113.33,113.33,0,0,0,373,193.32a17.81,17.81,0,0,0,.82-7.25S387.44,157.16,394.83,188.68Z"/><path class="cls-5" d="M383.67,174.66s-2.27-3.45-4.49-.21,3,6.37,3,6.37,2.9,7.56,6.42,8.16a44.83,44.83,0,0,0,7,.53c.36,0,.95-.08,1-.43s.07-10,.07-10,1.45-.21.91-1.54a87.68,87.68,0,0,1-3.63-10.86s-6.31-6.5-8.57-3.85S383.67,174.66,383.67,174.66Z"/><path class="cls-8" d="M387.46,175.56s-2.75,3-3.73,1-2.74-2-4-.59.16,5.23-1,7.39c-.73,1.42-4.32,2.62-4.93,2.74-.24-3.56-4.25-16.14-.71-19,2.19-1.76,7.81-7.53,14.12-7.76s10.2,2.09,6.79,7.41C378.62,163.08,387.46,175.56,387.46,175.56Z"/><path class="cls-10" d="M386.77,202.09s-1.51,1-4.75,3a49.47,49.47,0,0,0-11.49-10.26,19.83,19.83,0,0,0,1.46-1.4C373.21,193.83,386.77,202.09,386.77,202.09Z"/><path class="cls-5" d="M376,279.61s5.16.22,7.39,2,4.19,2.68,3.17,4.08c.21.24,1,.68,1.76,1.45s-.56,2.68-2.1,1.71c-.87-.56-.79.89-1.79.95s-2.16,0-2.59.58-1.08.44-1.69.1-1.53,1.11-3.09-.62-3.63-6.34-3.63-6.34l-2.88-2,3.29-4Z"/><path class="cls-8" d="M352.54,205.76c-8,9.57-15.32,40.43-16,48.44s33.62,30.29,33.62,30.29,5.41-5.3,6.1-6.06c-9-8.89-18.06-23.34-25.7-26.73,4.29-9,8.87-18.5,16.84-29.25S360.52,196.2,352.54,205.76Z"/><path class="cls-12" d="M380.78,220.53c-2.87-.82-9.85-10.53-9.85-10.53l2.6-4.1-5.61-.14-1.5-7.21,1.92-2.19S376,204.8,380.78,220.53Z"/><rect class="cls-14" x="371" width="411" height="323"/></g></g></g></svg>