<svg xmlns="http://www.w3.org/2000/svg" width="59.107" height="43.129" viewBox="0 0 59.107 43.129">
  <g id="transporte" transform="translate(-5 -9.531)">
    <path id="XMLID_321_" d="M63.9,40.73,55.03,27.093a.88.88,0,0,0-.844-.338H44.264V20.633c0-.549-.338-.633-.887-.633H6.055C5.507,20,5,20.084,5,20.633V52.087c0,.549.507,1.267,1.055,1.267h6.966a6.151,6.151,0,0,0,5.826,4.9,6.1,6.1,0,0,0,5.784-4.9H46.417a5.914,5.914,0,0,0,11.653,0h4.982c.549,0,1.055-.718,1.055-1.267V41.279A.994.994,0,0,0,63.9,40.73Zm-7.811-8.317L60.6,39.421H48.064V32.666h8.022Zm-37.238,23.6a3.926,3.926,0,1,1,3.926-3.926A3.946,3.946,0,0,1,18.848,56.013Zm0-9.668a6.151,6.151,0,0,0-5.826,4.9H7.111V49.132h5.066V47.443H7.111V21.689H42.575V23.8H8.8v2.111H42.575V47.443H25.688v1.689H42.575v2.111H24.632A6.1,6.1,0,0,0,18.848,46.345Zm33.4,9.668a3.926,3.926,0,1,1,3.926-3.926A3.946,3.946,0,0,1,52.244,56.013Zm5.826-4.771a5.914,5.914,0,0,0-11.653,0H44.264v-22.8h9.415l1.267,2.111h-7.6a.888.888,0,0,0-.971.887v8.824c0,.549.422,1.224.971,1.224H61.912l.127.042v5.911H59.083v1.689h2.955v2.111Z" transform="translate(0 -5.59)" fill="#4d4d4d"/>
    <rect id="XMLID_332_" width="2" height="2" transform="translate(18 45.531)" fill="#4d4d4d"/>
    <rect id="XMLID_333_" width="3" height="2" transform="translate(51 45.531)" fill="#4d4d4d"/>
    <rect id="XMLID_334_" width="14" height="3" transform="translate(9 9.531)" fill="#4d4d4d"/>
    <rect id="XMLID_335_" width="1" height="3" transform="translate(5 9.531)" fill="#4d4d4d"/>
  </g>
</svg>
