<svg xmlns="http://www.w3.org/2000/svg" xmlns:xlink="http://www.w3.org/1999/xlink" width="31" height="37" viewBox="0 0 31 37">
  <defs>
    <clipPath id="clip-path">
      <rect id="Rectángulo_2081" data-name="Rectángulo 2081" width="26.835" height="37.32"/>
    </clipPath>
    <clipPath id="clip-BmanWM">
      <rect width="31" height="37"/>
    </clipPath>
  </defs>
  <g id="BmanWM" clip-path="url(#clip-BmanWM)">
    <g id="Grupo_3489" data-name="Grupo 3489" transform="translate(2.083 0)">
      <g id="Grupo_3490" data-name="Grupo 3490" transform="translate(0 0)" clip-path="url(#clip-path)">
        <path id="Trazado_7528" data-name="Trazado 7528" d="M6.661,19.4C2.343,12.369,3.286,7.318,5.555,4.153A10.7,10.7,0,0,1,8.715,1.247,7.668,7.668,0,0,1,11.79.123a2.2,2.2,0,0,1,1.5.323A4.333,4.333,0,0,1,16.8.295a8.131,8.131,0,0,1,3.4,2.433A11.571,11.571,0,0,1,22.5,7.085c.973,3.423.629,7.807-2.416,12.444a.913.913,0,0,1-.534.383v0c-.254.069-.534.133-.827.194-.177.034-.362.065-.56.095l-.009.013.065,1.473a.5.5,0,0,0,.1.28.144.144,0,0,0,.095.069l.293.052a13.63,13.63,0,0,1,3.415.921,7.375,7.375,0,0,1,4.061,4.853l.022.078a21.863,21.863,0,0,1,.624,6.179v.435a2.75,2.75,0,0,1-.81,1.951l-.06.056a2.745,2.745,0,0,1-1.89.758H2.76A2.771,2.771,0,0,1,0,34.557v-.517a21.36,21.36,0,0,1,.65-6.175h0a7.387,7.387,0,0,1,4.061-4.853,13.661,13.661,0,0,1,3.419-.921l.306-.056a.226.226,0,0,0,.082-.065.527.527,0,0,0,.095-.28l.065-1.473-.039-.047-.594-.116c-.293-.065-.577-.138-.84-.22a.919.919,0,0,1-.538-.439m-.151,4.93a6.2,6.2,0,0,0,2.338,1.834,10.853,10.853,0,0,0,4.564,1.029,10.034,10.034,0,0,0,4.315-1.025,7.9,7.9,0,0,0,2.541-1.856c-.607-.168-1.249-.28-1.877-.392l-.293-.052v0h0a1.994,1.994,0,0,1-1.223-.736,2.311,2.311,0,0,1-.487-1.219,5.324,5.324,0,0,1-2.812.9h-.039l-.034,0h-.082a5.74,5.74,0,0,1-.672-.043l0,0a5.345,5.345,0,0,1-2.291-.861,2.375,2.375,0,0,1-.487,1.227,2.027,2.027,0,0,1-1.132.719l-.1.022-.288.052c-.65.116-1.313.233-1.933.409m15.514.741a9.306,9.306,0,0,1-3.492,2.764,11.9,11.9,0,0,1-5.12,1.21,12.869,12.869,0,0,1-5.37-1.21,7.775,7.775,0,0,1-3.26-2.752A5.757,5.757,0,0,0,2.42,28.4v0a19.849,19.849,0,0,0-.568,5.632l0,.09v.435a.916.916,0,0,0,.267.642.887.887,0,0,0,.637.263H24.07a.9.9,0,0,0,.607-.228l.03-.034a.9.9,0,0,0,.267-.642v-.435h0v0a20.457,20.457,0,0,0-.543-5.645l-.026-.069a5.75,5.75,0,0,0-2.385-3.337M10.24,19.215l.082.086A5.21,5.21,0,0,0,11.85,20.55a3.4,3.4,0,0,0,1.516.4h.108l.017,0h.052a3.482,3.482,0,0,0,1.442-.4,5.26,5.26,0,0,0,1.533-1.257l.082-.082A11.136,11.136,0,0,0,18.563,14.9l0-.013,0-.013v-.013l0-.013,0-.013v-.013l0-.009v0l0-.013V14.78l0-.013,0-.013v-.013l0-.013,0-.013V14.7l0-.013,0-.009v-.017l0-.013,0-.017v-.013l0,0v-.009l0-.013v-.013l0-.013,0-.013v-.013l0-.022v0l0-.013,0-.017v-.013l.022-.095,0-.013V14.35l.009-.039,0-.013v-.017l0-.013v0l0-.009v-.013l0-.009v-.022l0-.013v-.013l0-.017,0-.013v-.013l0-.009,0-.022V14.1c.078-.439.133-.87.168-1.309.03-.31.047-.62.052-.934V11.6q0-.3-.013-.62v-.03l-.009-.125v-.047l0-.009v-.013h0v-.009l0-.013,0-.013,0-.009V10.7h0l0-.009,0-.013,0-.009v0l0-.009,0-.009,0-.009,0,0,0-.009-.009-.013,0-.009-.009-.013-.009-.009-.009-.009-.009-.009v0l-.009-.009-.009-.009-.009-.013-.009-.009-.009-.009-.009-.009-.013-.009v0l-.009-.009-.013-.009-.009-.009-.013-.009-.009-.009h0l-.009-.009-.013-.009-.009-.009,0,0-.013-.009-.013-.009-.013-.009-.013-.009-.013-.009-.013-.009-.013-.009h0l-.013-.009-.013,0-.017-.009-.013-.009-.017-.009-.013-.009-.017-.009-.017-.009-.013-.009-.017-.009-.017,0-.017-.009-.017-.009-.017-.009-.017-.009-.034-.013-.017-.009-.017-.009h0l-.017,0-.017-.009-.03-.013-.03-.009-.03-.013-.03-.013-.03-.009-.034-.013-.03-.009-.034-.013-.03-.009-.034-.009-.03-.013-.034-.009-.034-.013-.034-.009-.034-.009-.034-.009-.034-.013L17.637,10,17.6,10l-.039-.009-.034-.009L17.5,9.97l-.039-.009-.034-.009-.039-.009-.039-.009-.034-.009-.039-.009-.039-.009L17.194,9.9l-.039-.009-.039-.009-.039-.009-.039-.009L17,9.859l-.039,0-.039-.009-.039-.009-.043-.009L16.8,9.82l-.039-.009-.043,0L16.681,9.8l-.043-.009-.039,0-.043-.009-.039-.009-.043,0-.039-.009-.043-.009-.043,0-.043-.009-.039-.009-.043-.009-.043,0L16.139,9.7l-.039,0-.043-.009-.043-.009-.043,0-.043-.009-.043-.009-.043,0L15.8,9.648l-.052-.009-.056-.009-.056-.009-.056-.009L15.523,9.6l-.056-.013-.056-.009-.056-.009L15.3,9.566l-.056-.013-.056-.009-.056-.009-.056-.009-.056-.013-.056-.009L14.907,9.5l-.056-.009L14.8,9.475l-.056-.009-.056-.013-.056-.009-.056-.013-.056-.009-.056-.013L14.4,9.4l-.056-.013-.056-.009-.056-.013-.056-.013-.056-.013-.056-.009-.056-.013-.052-.013L13.9,9.294l-.056-.013-.056-.013-.056-.013-.056-.013-.056-.013-.052-.013L13.517,9.2l-.056-.017-.052-.013-.056-.017L13.3,9.144l-.056-.013-.052-.017L13.133,9.1l-.052-.013-.056-.017-.056-.017-.052-.017-.056-.017L12.81,9l-.056-.017L12.7,8.963l-.052-.017L12.6,8.924l-.052-.017-.052-.022-.052-.017-.056-.022-.052-.017-.052-.022-.039-.017L12.2,8.778l-.039-.017-.039-.017-.043-.017-.039-.017-.039-.017-.034-.017h0l-.034-.017-.039-.017h0l-.034-.017h0l-.073-.034v0l-.034-.017h0L11.7,8.549l-.039-.017v0a1.547,1.547,0,0,1-.146-.073h0l-.034-.022-.034-.022h0l-.03-.017,0,0-.034-.017v0L11.3,8.33h0l-.034-.022-.034-.022L11.2,8.265l0,0-.03-.017,0,0L11.092,8.2h0l-.03-.022h0l-.03-.022,0,0-.03-.022h0l-.03-.022,0,0-.03-.022-.03-.022,0,0-.03-.022-.065-.052h0l-.159-.125v0l-.06-.052,0,0-.03-.022v0l-.06-.052,0,0-.026-.022,0,0-.026-.026,0,0-.056-.052,0,0-.022-.026-.009,0L10.3,7.546l-.03-.03,0,0-.026-.026,0,0-.022-.026-.009,0-.022-.026,0,0L10.154,7.4l-.009,0-.022-.026L10.1,7.331a9.155,9.155,0,0,0-1,1.167,6.446,6.446,0,0,0-1.008,2.321v.009l-.009.039,0,0a8.3,8.3,0,0,0-.133,1.085v.013l0,.009v.095l0,.009,0,.323c0,.276.017.573.043.878l0,.022c.047.426.112.844.194,1.249v0l0,.022a12.382,12.382,0,0,0,1.219,3.363c.151.271.31.538.482.788l.034.043.026.039a4.743,4.743,0,0,0,.306.4m-4-4.9c-.047-.293-.086-.577-.112-.857l0-.022v-.022c-.017-.151-.03-.3-.043-.452v-.039c0-.121-.009-.25-.009-.379V12.4c0-.078,0-.181.009-.31v-.082l0,0v-.065l0-.009v-.06a8.431,8.431,0,0,1,.947-3.565L7.045,8.3l.022-.039A10.384,10.384,0,0,1,9.624,5.251h0l.039-.039a1.355,1.355,0,0,1,.2-.129.923.923,0,0,1,1.232.435l.017.034.022.039.017.034.017.034.022.034.017.034.022.034.022.03.022.034.022.03.022.034.022.03.022.03.026.03.022.03.022.03.026.03.026.03.026.03.026.026.026.03.026.026.026.026.026.03.026.026.03.026.026.026.03.026.026.022.03.026.03.026.03.022v0l.03.022.03.022.03.026.03.022.03.022.034.022v0l.03.017.03.026.034.017v0l.03.022.034.017.034.022.034.022.034.017.034.022.03.017.034.022.039.017.034.017.034.022.034.017.034.017.039.017.034.017.039.017L12.737,7l.039.013.039.017.034.017.039.013.039.017.034.017.047.017.043.013.043.017.043.017.043.017.047.013.043.017.047.017.043.013.047.013.043.017.047.013.047.013.047.017.047.013.043.013.052.013.047.013.047.013.047.013.047.013.047.013.047.013.052.013.047.009.047.013.052.013.047.009.052.013.047.013.052.009.052.013.047.009.052.013.047.009.052.009.052.013.052.009.047.009.052.013.052.009.052.009.052.013.047.009.052.009.052.009.052.009.052.009.052.009.052.013.052.009.052,0,.052.009.052.013.047.009.052.009.052.009.052.009.052.009.052.009.052.009L16,7.8l.052.009.052.009.047,0,.047.009.047.009.047.009.047.009.047.009.047.009.047,0,.047.009.047.009.047.009.047.009.047.009.047.009.047,0,.047.009.043.009.047.009L17,7.973l.047.009.043.009L17.134,8l.047.009.043.009.047.009.047.013.043.009.047.009.043.009.047.009.043.009.043.009.047.013.043.009.043.009.043.009.043.013.047.009.043.009.043.013.043.009.043.013.039.009.043.013.043.009.043.013.039.013.043.009.043.013.039.013L18.4,8.3l.039.009.039.013.043.013.039.013.039.013.039.013.039.013.039.013.039.017.039.013.039.013.034.017.039.013.047.017L19,8.506l.095.039.043.022.047.022.043.022.047.022.043.022.043.022L19.4,8.7l.043.026.039.022.043.026.039.022.043.026.039.026.039.026.039.022v0l.039.026.034.026.039.026.034.03.034.026.039.03.03.03.034.026.034.03.034.03.03.034.03.03.03.03.03.034.03.03.03.034.026.034.026.034.03.034.026.034.022.039.026.034.026.039.022.034.022.039.022.039.022.039.022.039.017.043.017.039.017.043.017.043.017.043.017.043.013.043.013.043.013.047a.713.713,0,0,1,.026.09l.009.047.013.047.009.047.009.052,0,.047.009.052v.009l0,.047c.009.159.017.319.022.474v.017c0,.168.009.336.009.5v.082c0,.211-.009.422-.017.629l0,.146-.022.409-.03.323a.754.754,0,0,1-.017.172c-.034.267-.073.538-.121.81a11.743,11.743,0,0,0,.129-6.605,9.785,9.785,0,0,0-1.933-3.66,6.254,6.254,0,0,0-2.592-1.89,2.482,2.482,0,0,0-2.274.181,1.036,1.036,0,0,0-.1.09,1.04,1.04,0,0,1-.444.284l-.073.026c-.642.172-.965.017-1.206-.646a5.248,5.248,0,0,0-2.429.853,8.947,8.947,0,0,0-2.614,2.4C5.6,7.258,4.836,10.255,6.239,14.315" transform="translate(0 -0.003)" fill-rule="evenodd"/>
      </g>
    </g>
  </g>
</svg>
