<svg xmlns="http://www.w3.org/2000/svg" xmlns:xlink="http://www.w3.org/1999/xlink" width="31" height="37" viewBox="0 0 31 37">
  <defs>
    <clipPath id="clip-path">
      <rect id="Rectángulo_2080" data-name="Rectángulo 2080" width="30.74" height="37.32"/>
    </clipPath>
    <clipPath id="clip-BmanPP">
      <rect width="31" height="37"/>
    </clipPath>
  </defs>
  <g id="BmanPP" clip-path="url(#clip-BmanPP)">
    <g id="Grupo_3488" data-name="Grupo 3488" transform="translate(0 0)">
      <g id="Grupo_3487" data-name="Grupo 3487" transform="translate(0 0)" clip-path="url(#clip-path)">
        <path id="Trazado_7527" data-name="Trazado 7527" d="M10.287,23.808a5.044,5.044,0,0,0,1.542,1.1,8.441,8.441,0,0,0,3.539.8,7.807,7.807,0,0,0,3.346-.8A6.514,6.514,0,0,0,20.4,23.769l-.5-.31a.9.9,0,0,1-.413-.508,12.173,12.173,0,0,1-.314-2.3c-.194.133-.388.258-.59.375a6.872,6.872,0,0,1-2.071.814h0l-.039.009h-.013l-.03.009-.022,0-.022,0-.03,0h-.013l-.034.009h-.009L16.2,21.9l-.009,0-.034,0-.047,0-.022,0-.022,0h-.03l-.013,0-.039,0h0l-.043,0h0l-.039,0h-.013l-.03,0h-.022l-.022,0h-.026l-.022,0h-.043l-.039,0h0l-.043,0H15.5l-.026,0h-.207l-.026,0h-.129l-.043,0h-.009l-.034,0h-.043l-.026,0h-.013l-.129-.013H14.8l-.03,0a6.413,6.413,0,0,1-2.144-.646l-.03-.013a8.006,8.006,0,0,1-1.033-.62A12.164,12.164,0,0,1,11.29,22.9a.921.921,0,0,1-.375.5Zm11.889.758a13.627,13.627,0,0,1,4.991,2.1A3.732,3.732,0,0,1,28.884,29.6h0v4.96a.916.916,0,0,1-.267.642h0a.9.9,0,0,1-.637.263H2.76a.894.894,0,0,1-.637-.263.916.916,0,0,1-.267-.642V29.6A3.692,3.692,0,0,1,3.57,26.675,13.522,13.522,0,0,1,8.547,24.6a6.484,6.484,0,0,0,2.48,1.981,10.41,10.41,0,0,0,4.34.982,9.619,9.619,0,0,0,4.147-.982,7.8,7.8,0,0,0,2.661-2.011m-1.262-5.473c.013.168.026.34.039.525.052.822.125,1.895.215,2.454l.956.586a15.9,15.9,0,0,1,6.158,2.523A5.485,5.485,0,0,1,30.74,29.6h0v4.96a2.75,2.75,0,0,1-.81,1.951l0,0a2.776,2.776,0,0,1-1.951.81H2.76A2.764,2.764,0,0,1,0,34.56V29.6a5.45,5.45,0,0,1,2.463-4.4,16.009,16.009,0,0,1,6.162-2.515l.965-.624c.082-.564.142-1.641.185-2.467l.026-.53c-.151-.168-.293-.344-.435-.521a12.356,12.356,0,0,1-1.886-3.4A10.75,10.75,0,0,1,6.8,11.48v-.056l.009-.112c-.009-.155-.009-.284-.009-.375,0-.732-.009-1.154-.017-1.567C6.687,4.061,6.61,0,15.372,0s8.685,4.061,8.59,9.37c-.009.413-.017.835-.017,1.567l-.009.388,0,.1h0v.056a10.75,10.75,0,0,1-.68,3.656,12.584,12.584,0,0,1-1.886,3.4q-.226.284-.465.555M11.4,18.059l.043.047,0,.009q.2.207.413.4l.039.03.022.022.013.013.013.013.022.017.013.013.026.022.034.026v0l.026.022.009.009.022.017.017.013.013.013.034.026.026.022v0a6.97,6.97,0,0,0,1.236.805l.034.017a4.542,4.542,0,0,0,1.554.465l.06,0h.009l.022,0h.06l.026,0h.073l.017,0h.159l.022,0h.09l.03,0h.039l.022,0H15.7l.009,0h.026l0,0h.03l.03,0H15.8l.022,0h.013l.022,0h.017l.013,0h.022l.009,0,.026,0h0l.03,0,.03,0,.009,0,.108-.017,0,0,.03,0,.03,0,.009,0c.056-.013.116-.026.172-.043h0l.026-.009h.013l.017-.009h.017c.095-.03.189-.06.284-.095l.06-.022.013,0c.069-.026.142-.052.211-.082l.017-.009.056-.026h0l.03-.013.1-.052.013,0,.095-.043v0l.03-.013,0,0,.03-.013,0,0,.03-.013,0,0,.026-.013.009-.009.026-.009.013-.009.017-.013.017-.009.017-.009.017-.009.013-.009.022-.013.013,0,.022-.013.013-.009.026-.017h0l.034-.022.03-.017.009,0,.026-.017.013-.009.017-.013.022-.009.013-.009.022-.017.009,0,.03-.022.039-.022.026-.017.013-.009.022-.013.017-.013.013-.013.022-.013.009,0,.03-.022h0l.03-.026h0l.039-.03.022-.013.017-.013.013-.009.022-.017.009-.009L18.3,19h0l.03-.026a8.511,8.511,0,0,0,1.589-1.585,10.584,10.584,0,0,0,1.606-2.881,9.392,9.392,0,0,0,.512-2.175l-.555-1.722-.017-.069a6.319,6.319,0,0,1-.189-1.124c-.026-.3-.034-.65-.043-.99a6.1,6.1,0,0,0-.069-.99,1.329,1.329,0,0,0-.233-.59.767.767,0,0,0-.655-.276,7.645,7.645,0,0,0-1.632.327l0,0a12.366,12.366,0,0,1-3.268.551,11.98,11.98,0,0,1-3.212-.538.986.986,0,0,1-.121-.03c-1.016-.276-1.877-.5-2.226-.039a1.386,1.386,0,0,0-.237.59,6.561,6.561,0,0,0-.065.99c-.009.34-.017.693-.043.99a6.591,6.591,0,0,1-.194,1.141L8.7,12.324a9.368,9.368,0,0,0,.517,2.183,10.572,10.572,0,0,0,1.6,2.881,8.794,8.794,0,0,0,.581.672M8.9,5.154c1.012-.758,2.239-.431,3.643-.052l.03.009a10.846,10.846,0,0,0,2.795.487,10.846,10.846,0,0,0,2.795-.487,8.249,8.249,0,0,1,2.1-.392,2.583,2.583,0,0,1,1.576.452c-.555-2.019-2.131-3.311-6.472-3.311S9.46,3.143,8.9,5.154" transform="translate(0 -0.002)" fill-rule="evenodd"/>
      </g>
    </g>
  </g>
</svg>
