<svg xmlns="http://www.w3.org/2000/svg" xmlns:xlink="http://www.w3.org/1999/xlink" width="83" height="80" viewBox="0 0 83 80">
  <defs>
    <clipPath id="clip-path">
      <rect id="Rectangle_2" data-name="Rectangle 2" width="71.125" height="71.125" fill="#203c73"/>
    </clipPath>
    <clipPath id="clip-ICO-Org-011">
      <rect width="83" height="80"/>
    </clipPath>
  </defs>
  <g id="ICO-Org-011" clip-path="url(#clip-ICO-Org-011)">
    <g id="Group_4" data-name="Group 4" transform="translate(6 4)">
      <g id="Group_3" data-name="Group 3" transform="translate(0 0)" clip-path="url(#clip-path)">
        <path id="Path_3" data-name="Path 3" d="M13.89,43.428A4.281,4.281,0,0,1,9.6,38.973a4.325,4.325,0,1,1,8.641,0,4.258,4.258,0,0,1-4.349,4.455m.057-6.764a2.113,2.113,0,0,0-2.15,2.309,2.126,2.126,0,1,0,4.243,0,2.067,2.067,0,0,0-2.093-2.309m2.164-4.173H11.889a1.1,1.1,0,0,1-1.1-1.013l-.11-1.41c-.37-3.349.877-6.874,3.609-10.153,2.243-2.639,3.538-4.583,3.538-6.715,0-2.882-2.212-3.525-4.063-3.556A8.523,8.523,0,0,0,8.981,11.1a1.1,1.1,0,0,1-1.692-.485l-1.3-3.411a1.1,1.1,0,0,1,.379-1.282,15.2,15.2,0,0,1,8.39-2.379C21.764,3.545,24.9,8.1,24.9,12.6c0,3.979-2.133,6.826-4.918,10.13-2.159,2.551-2.979,4.636-2.829,7.187l.057,1.428a1.116,1.116,0,0,1-.308.806,1.1,1.1,0,0,1-.793.335m-3.2-2.2h2.062l-.009-.264c-.185-3.111.815-5.724,3.345-8.712C20.878,18.258,22.7,15.843,22.7,12.6c0-3.314-2.084-6.856-7.94-6.856A13.986,13.986,0,0,0,8.364,7.26l.507,1.335a11.388,11.388,0,0,1,4.913-1.15c3.86.062,6.244,2.269,6.244,5.755,0,2.807-1.485,5.107-4.054,8.13-2.366,2.842-3.415,5.715-3.1,8.535Z" transform="translate(20.155 12.075)" fill="#203c73"/>
        <path id="Path_4" data-name="Path 4" d="M35.565,71.125A35.563,35.563,0,1,1,71.129,35.56,35.607,35.607,0,0,1,35.565,71.125m0-68.926A33.364,33.364,0,1,0,68.926,35.56,33.4,33.4,0,0,0,35.565,2.2" transform="translate(0 -0.001)" fill="#203c73"/>
      </g>
    </g>
  </g>
</svg>
