<svg xmlns="http://www.w3.org/2000/svg" xmlns:xlink="http://www.w3.org/1999/xlink" width="83" height="80" viewBox="0 0 83 80">
  <defs>
    <clipPath id="clip-path">
      <rect id="Rectangle_3874" data-name="Rectangle 3874" width="77.833" height="73.131" fill="#203c73"/>
    </clipPath>
    <clipPath id="clip-ICO-Org-005">
      <rect width="83" height="80"/>
    </clipPath>
  </defs>
  <g id="ICO-Org-005" clip-path="url(#clip-ICO-Org-005)">
    <rect width="83" height="80" fill="#fff"/>
    <g id="Group_4272" data-name="Group 4272" transform="translate(3 3)">
      <g id="Group_4325" data-name="Group 4325" transform="translate(0 0)" clip-path="url(#clip-path)">
        <path id="Path_20606" data-name="Path 20606" d="M28.725,43.964a14.121,14.121,0,0,1-10.017-4.181A14.279,14.279,0,0,1,14.87,26.7L8.534,20.366a1.043,1.043,0,0,1,1.476-1.476l6.749,6.749a1.057,1.057,0,0,1,.271,1A12.192,12.192,0,0,0,20.18,38.312,12.055,12.055,0,0,0,32.169,41.38l-6.861-6.861a3.94,3.94,0,0,1,0-5.557l2.447-2.447a4.038,4.038,0,0,1,5.561,0l6.974,6.978A12.129,12.129,0,0,0,25.666,18a1.035,1.035,0,0,1-1-.271l-6.749-6.749a1.04,1.04,0,0,1,1.471-1.471l6.34,6.336A14.21,14.21,0,0,1,41.614,35.79a1.04,1.04,0,0,1-1.68.292l-8.1-8.1a1.9,1.9,0,0,0-2.614,0l-2.443,2.447a1.857,1.857,0,0,0,0,2.614l8.008,8.012a1.019,1.019,0,0,1,.288.925,1.037,1.037,0,0,1-.6.763,14.274,14.274,0,0,1-5.748,1.217" transform="translate(26.077 29.169)" fill="#203c73"/>
        <path id="Path_20607" data-name="Path 20607" d="M23.269,34.687a1.038,1.038,0,0,1-.738-.3l-5.294-5.294A14.214,14.214,0,0,1,1.351,9.143a1.04,1.04,0,0,1,1.68-.292l8.1,8.1a1.9,1.9,0,0,0,2.609,0L16.183,14.5a1.849,1.849,0,0,0,0-2.614L8.171,3.878a1.049,1.049,0,0,1-.288-.93,1.063,1.063,0,0,1,.6-.763A14.122,14.122,0,0,1,24.257,5.15,14.276,14.276,0,0,1,28.092,18.23l5.557,5.557a1.042,1.042,0,1,1-1.476,1.471l-5.965-5.965a1.035,1.035,0,0,1-.271-1A12.184,12.184,0,0,0,22.785,6.625,12.046,12.046,0,0,0,10.8,3.557l6.857,6.857a3.935,3.935,0,0,1,0,5.561l-2.443,2.447a4.038,4.038,0,0,1-5.561,0L2.677,11.444A12.125,12.125,0,0,0,17.3,26.93a1.037,1.037,0,0,1,1,.271l5.711,5.707a1.049,1.049,0,0,1,0,1.476,1.038,1.038,0,0,1-.738.3" transform="translate(-0.001 3.072)" fill="#203c73"/>
        <path id="Path_20608" data-name="Path 20608" d="M9.081,67.957c-1.742,0-3.552-.925-5.377-2.751C1.715,63.217.794,61.25.977,59.361a5.178,5.178,0,0,1,2-3.514l37.12-36.1c.238-.938.959-4.431-.675-7.074C38.385,11,36.547,9.928,33.954,9.5a13.762,13.762,0,0,0-4.619.2c-1.492.254-2.776.471-3.652-.354a3.165,3.165,0,0,1-.654-2.709c.183-1.676,1.546-3.293,3.835-4.548C32.578.057,38.547-.922,42.783,1.153a76.833,76.833,0,0,1,6.961,3.91,19.875,19.875,0,0,0,2.047,1.184,5.6,5.6,0,0,0,.525-.263,3.172,3.172,0,0,1,3.1-.383c.459.254,8.47,7.124,8.616,8.908.021.229.029.613.042,1.084.021.921.088,3.731.454,4.285.75.746,1.938,1.459,2.584,1.28,2.113-.571,6.544,4.564,6.586,4.614.759.925,1.4,1.9.971,2.755-.058.121-9.2,11.171-11.28,10.638-1.288-.321-5.89-5.06-6.674-6.49a1.469,1.469,0,0,1-.183-1.2,2.122,2.122,0,0,0-.363-1.58,3.923,3.923,0,0,0-3.122-1.246,19.8,19.8,0,0,0-3.752.033L13.062,65.939a5.155,5.155,0,0,1-3.51,1.993,4.456,4.456,0,0,1-.471.025M32.4,7.3a11.47,11.47,0,0,1,1.888.15c3.218.529,5.544,1.926,6.907,4.143,2.389,3.881.884,8.812.817,9.02a1.023,1.023,0,0,1-.267.434L4.375,57.39a.779.779,0,0,1-.146.117,3.055,3.055,0,0,0-1.18,2.076c-.1,1.217.629,2.651,2.13,4.152s2.935,2.234,4.148,2.13a3.031,3.031,0,0,0,2.08-1.192,1.187,1.187,0,0,1,.113-.133L47.726,27.306l.008-.017c.358-.575.93-.934,5.411-.721,2.8.133,4.135,1.259,4.769,2.176a4.3,4.3,0,0,1,.684,3.03A33.8,33.8,0,0,0,63.7,37c1.713-1.2,7.695-7.549,8.937-9.171-.684-1.238-4.081-4.352-5.106-4.627-2.038.459-4.11-1.484-4.514-1.888-.775-.775-.955-2.518-1.03-5.669-.008-.346-.013-.634-.025-.838-.688-1.242-6.657-6.861-7.562-7.382-.175-.1-.784.229-1.109.4a4.051,4.051,0,0,1-1.3.513c-.746.113-1.513-.363-3.351-1.5a74.976,74.976,0,0,0-6.782-3.81c-3.556-1.742-8.837-.838-12,.9-1.655.909-2.664,1.984-2.772,2.955a1.982,1.982,0,0,0,.033.984,8.246,8.246,0,0,0,1.855-.2A19.983,19.983,0,0,1,32.4,7.3" transform="translate(3.024 0.003)" fill="#203c73"/>
      </g>
    </g>
  </g>
</svg>
