<svg xmlns="http://www.w3.org/2000/svg" xmlns:xlink="http://www.w3.org/1999/xlink" width="83" height="80" viewBox="0 0 83 80">
  <defs>
    <clipPath id="clip-path">
      <rect id="Rectangle_3810" data-name="Rectangle 3810" width="80.594" height="75" fill="#203c73"/>
    </clipPath>
    <clipPath id="clip-ICO-Org-004">
      <rect width="83" height="80"/>
    </clipPath>
  </defs>
  <g id="ICO-Org-004" clip-path="url(#clip-ICO-Org-004)">
    <rect width="83" height="80" fill="#fff"/>
    <g id="Group_1" data-name="Group 1" transform="translate(1 3)">
      <g id="Group_4271" data-name="Group 4271" clip-path="url(#clip-path)">
        <path id="Path_20561" data-name="Path 20561" d="M74.706,5.415a1.217,1.217,0,1,0-1.582,1.851c3.306,2.751,5.048,5.872,5.048,9.027,0,10.112-16.952,18.3-37.773,18.3S2.625,26.405,2.625,16.293a9.461,9.461,0,0,1,1.127-4.316L5.51,13.466,6.89,6.324,0,8.713l1.868,1.632A11.92,11.92,0,0,0,.2,16.293c0,11.635,17.65,20.729,40.2,20.763,22.546-.034,40.2-9.128,40.2-20.763,0-3.878-2.044-7.656-5.889-10.878" transform="translate(0 37.939)" fill="#203c73"/>
        <path id="Path_20562" data-name="Path 20562" d="M2.163,57.35,29.243,69.456H29.3a.8.8,0,0,0,.429.076.878.878,0,0,0,.437-.076h.059L57.317,57.35a1.264,1.264,0,0,0,.707-1.127V27.333a1.547,1.547,0,0,0-.05-.362,1.739,1.739,0,0,0-.126-.286l-.034-.076a1.173,1.173,0,0,1-.185-.177c-.017,0-.034-.042-.076-.042-.017-.034-.034-.076-.067-.076-.042-.034-.093-.034-.126-.067l-.059-.034L38.523,17.835,30.842.69c-.017-.034-.076-.1-.093-.143A.42.42,0,0,0,30.64.4a.367.367,0,0,0-.16-.143c-.059-.042-.093-.118-.151-.118a.445.445,0,0,0-.193-.067C30.076.042,30.042,0,29.984,0h-.5a.239.239,0,0,0-.143.076.478.478,0,0,0-.2.067c-.05,0-.1.076-.143.118a.327.327,0,0,0-.16.143.337.337,0,0,0-.109.143.58.58,0,0,0-.093.143L20.948,17.835,2.163,26.214l-.05.034c-.05.034-.093.034-.126.067l-.076.076c-.034,0-.067.042-.084.076a.319.319,0,0,0-.135.143l-.067.109c-.059.034-.076.109-.109.177l-.034.109a.882.882,0,0,0-.042.328v28.89a1.265,1.265,0,0,0,.724,1.127M55.6,55.423,30.951,66.444V40.2L55.6,29.218ZM30.951,6.89l8.875,19.829-8.875,3.954ZM28.52,30.673l-8.884-3.954L28.52,6.89Zm-9.061-9.506-2.541,5.662a1.222,1.222,0,0,0-.034.942,1.145,1.145,0,0,0,.656.656l11.7,5.25a.057.057,0,0,1,.059.034,1.345,1.345,0,0,0,.429.076,1.443,1.443,0,0,0,.437-.076.052.052,0,0,1,.059-.034l11.7-5.25a1.16,1.16,0,0,0,.614-1.6l-2.532-5.662,13.805,6.167L29.731,38.1,5.645,27.333ZM3.87,29.218l14.588,6.495L28.52,40.2V66.444L3.87,55.423Z" transform="translate(10.667 0.003)" fill="#203c73"/>
      </g>
    </g>
  </g>
</svg>
