<svg xmlns="http://www.w3.org/2000/svg" width="33" height="27" viewBox="0 0 33 27"><g transform="translate(-1563 -1763)"><g transform="translate(20)"><rect width="33" height="8" rx="1" transform="translate(1543 1763)" fill="#30536e"/><rect width="33" height="3" rx="1" transform="translate(1543 1773)" fill="#30536e"/><rect width="23" height="3" rx="1" transform="translate(1543 1778)" fill="#30536e"/><rect width="23" height="3" rx="1" transform="translate(1543 1783)" fill="#30536e"/><rect width="33" height="2" rx="1" transform="translate(1543 1788)" fill="#30536e"/><line y2="24" transform="translate(1543.5 1764.5)" fill="none" stroke="#30536e" stroke-width="1"/><line y2="24" transform="translate(1575.5 1765.5)" fill="none" stroke="#30536e" stroke-width="1"/><line y2="24" transform="translate(1565.5 1765.5)" fill="none" stroke="#30536e" stroke-width="1"/><line y2="24" transform="translate(1554.5 1765.5)" fill="none" stroke="#30536e" stroke-width="1"/></g><g transform="translate(1588.5 1779)"><path d="M169.68,179.081h.848V181a2.656,2.656,0,0,1-.779.424,3.331,3.331,0,0,1-.917.183v.766h-.566V181.6a2.592,2.592,0,0,1-1.155-.414,2.367,2.367,0,0,1-.79-.869,2.6,2.6,0,0,1,0-2.359,2.338,2.338,0,0,1,.79-.866,2.679,2.679,0,0,1,1.155-.417v-.779h.566v.766a2.8,2.8,0,0,1,.993.224,2.179,2.179,0,0,1,.766.555l-.566.552a1.791,1.791,0,0,0-1.193-.545v3.38a1.882,1.882,0,0,0,.848-.242Zm-2.376,1.131a1.647,1.647,0,0,0,.962.58V177.48a1.615,1.615,0,0,0-.962.573,1.79,1.79,0,0,0,0,2.159Z" transform="translate(-166.038 -175.894)" fill="#30536e"/></g></g></svg>