<svg xmlns="http://www.w3.org/2000/svg" xmlns:xlink="http://www.w3.org/1999/xlink" width="91" height="90" viewBox="0 0 91 90"><defs><clipPath id="a"><rect width="88" height="88" fill="#203c73"/></clipPath><clipPath id="c"><rect width="91" height="90"/></clipPath></defs><g id="b" clip-path="url(#c)"><rect width="91" height="90" fill="#fff"/><g transform="translate(2 1)"><g transform="translate(0 0)" clip-path="url(#a)"><path d="M81.57,5.467a1.251,1.251,0,0,0-1.883.168,1.488,1.488,0,0,0,.156,2c3.61,3.228,5.511,6.89,5.511,10.592C85.354,30.1,66.845,39.7,44.11,39.7S2.866,30.1,2.866,18.23A11.758,11.758,0,0,1,4.1,13.166l1.92,1.747,1.506-8.38L0,9.336l2.039,1.915A14.783,14.783,0,0,0,.22,18.23c0,13.652,19.272,24.322,43.89,24.362C68.728,42.552,88,31.882,88,18.23c0-4.551-2.232-8.983-6.43-12.763" transform="translate(0 45.402)" fill="#203c73"/><path d="M2.229,67.291,31.8,81.5h.064a.822.822,0,0,0,.468.089.9.9,0,0,0,.478-.089h.064l29.578-14.2a1.5,1.5,0,0,0,.772-1.323v-33.9a1.942,1.942,0,0,0-.055-.424,2.121,2.121,0,0,0-.138-.336l-.037-.089a1.325,1.325,0,0,1-.2-.207c-.018,0-.037-.049-.083-.049-.018-.039-.037-.089-.073-.089-.046-.039-.1-.039-.138-.079l-.064-.039-20.5-9.832L33.543.809c-.018-.039-.083-.118-.1-.168a.489.489,0,0,0-.119-.168.412.412,0,0,0-.175-.168c-.064-.049-.1-.138-.165-.138a.465.465,0,0,0-.211-.079C32.707.049,32.671,0,32.606,0h-.551A.256.256,0,0,0,31.9.089a.5.5,0,0,0-.22.079c-.055,0-.11.089-.156.138a.367.367,0,0,0-.175.168.392.392,0,0,0-.119.168.689.689,0,0,0-.1.168L22.741,20.927,2.229,30.758l-.055.039c-.055.039-.1.039-.138.079l-.083.089c-.037,0-.073.049-.092.089a.364.364,0,0,0-.147.168l-.073.128c-.064.039-.083.128-.119.207l-.037.128a1.107,1.107,0,0,0-.046.385v33.9a1.5,1.5,0,0,0,.79,1.323m58.348-2.26L33.663,77.961V47.174L60.577,34.282ZM33.663,8.084,43.354,31.35,33.663,35.99ZM31.008,35.99l-9.7-4.639,9.7-23.266ZM21.115,24.835l-2.774,6.643a1.532,1.532,0,0,0-.037,1.106,1.3,1.3,0,0,0,.716.77L31.8,39.514a.061.061,0,0,1,.064.039,1.377,1.377,0,0,0,.468.089,1.478,1.478,0,0,0,.478-.089.056.056,0,0,1,.064-.039l12.777-6.16a1.358,1.358,0,0,0,.716-.77,1.488,1.488,0,0,0-.046-1.106l-2.765-6.643L58.63,32.071l-26.3,12.635L6.032,32.071ZM4.094,34.282,20.022,41.9l10.986,5.271V77.961L4.094,65.03Z" transform="translate(11.779 0.004)" fill="#203c73"/></g></g></g></svg>