<?xml version="1.0" encoding="utf-8"?>
<!-- Generator: Adobe Illustrator 28.2.0, SVG Export Plug-In . SVG Version: 6.00 Build 0)  -->
<svg version="1.1" id="Capa_1" xmlns="http://www.w3.org/2000/svg" xmlns:xlink="http://www.w3.org/1999/xlink" x="0px" y="0px"
	 width="70px" height="69px" viewBox="0 0 70 69" style="enable-background:new 0 0 70 69;" xml:space="preserve">
<style type="text/css">
	.st0{fill:none;}
	.st1{clip-path:url(#SVGID_00000119806318177541955830000010170365394450857904_);}
	.st2{fill:#2A4061;}
</style>
<rect y="0" class="st0" width="70" height="69"/>
<g id="Group_1" transform="translate(1 1)">
	<g>
		<defs>
			<rect id="SVGID_1_" y="0" width="67.1" height="67"/>
		</defs>
		<clipPath id="SVGID_00000060729598733152354750000005998695055766613930_">
			<use xlink:href="#SVGID_1_"  style="overflow:visible;"/>
		</clipPath>
		<g id="Group_3683" style="clip-path:url(#SVGID_00000060729598733152354750000005998695055766613930_);">
			<path id="Path_10692" class="st2" d="M33.5,67C15,66.9,0.1,51.9,0.1,33.4S15.2-0.1,33.7,0s33.5,15.1,33.4,33.6c0,0,0,0.1,0,0.1
				C67,52.2,52,67.1,33.5,67C33.5,67,33.5,67,33.5,67 M33.6,4.8C17.7,4.8,4.9,17.7,4.9,33.5c0,15.9,12.9,28.7,28.7,28.7
				c15.8,0,28.7-12.8,28.7-28.7C62.3,17.7,49.4,4.9,33.6,4.8"/>
			<path id="Path_10693" class="st2" d="M43.1,28.7h-4.5c-0.1-0.1-0.2-0.2-0.2-0.3c-0.2-3.6-1.1-4.4-4.7-4.4c-0.5,0-1,0-1.5,0
				c-1.7-0.1-3.1,1.1-3.4,2.7c-0.2,1.6,0.9,3.1,2.4,3.5c2.3,0.8,4.7,1.5,7.1,2.4c4,1.7,5.9,6.4,4.2,10.4c-0.8,1.9-2.3,3.4-4.2,4.2
				c-0.8,0.3-1.5,0.5-2.3,0.7v2.2h-4.7c0-0.7-0.1-1.4-0.1-2.1c-5.8-2.2-7.4-4.5-7.1-9.6h4.5c0.1,0.1,0.1,0.2,0.1,0.2
				c0.2,3.6,1.1,4.4,4.7,4.4c0.6,0,1.3,0,1.9,0c1.6-0.1,2.8-1.3,3-2.9c0.1-1.4-0.8-2.8-2.2-3.2c-2.1-0.8-4.3-1.5-6.5-2.2
				c-3.6-1-6-4.4-5.7-8.1c0.1-3.4,2.5-6.2,6.3-7.3c0.3-0.1,0.6-0.2,0.9-0.3v-2.2h4.7L36,19C41.8,21.2,43.5,23.5,43.1,28.7"/>
		</g>
	</g>
</g>
</svg>
