<svg xmlns="http://www.w3.org/2000/svg" xmlns:xlink="http://www.w3.org/1999/xlink" width="91" height="90" viewBox="0 0 91 90"><defs><clipPath id="a"><rect width="88" height="88" fill="#203c73"/></clipPath><clipPath id="b"><rect width="87.972" height="88" fill="#203c73"/></clipPath><clipPath id="d"><rect width="91" height="90"/></clipPath></defs><g id="c" clip-path="url(#d)"><rect width="91" height="90" fill="#fff"/><g transform="translate(-81 84)"><g transform="translate(0 0)" clip-path="url(#a)"><path d="M81.57,5.467a1.251,1.251,0,0,0-1.883.168,1.488,1.488,0,0,0,.156,2c3.61,3.228,5.511,6.89,5.511,10.592C85.354,30.1,66.845,39.7,44.11,39.7S2.866,30.1,2.866,18.23A11.758,11.758,0,0,1,4.1,13.166l1.92,1.747,1.506-8.38L0,9.336l2.039,1.915A14.783,14.783,0,0,0,.22,18.23c0,13.652,19.272,24.322,43.89,24.362C68.728,42.552,88,31.882,88,18.23c0-4.551-2.232-8.983-6.43-12.763" transform="translate(0 45.402)" fill="#203c73"/><path d="M2.229,67.291,31.8,81.5h.064a.822.822,0,0,0,.468.089.9.9,0,0,0,.478-.089h.064l29.578-14.2a1.5,1.5,0,0,0,.772-1.323v-33.9a1.942,1.942,0,0,0-.055-.424,2.121,2.121,0,0,0-.138-.336l-.037-.089a1.325,1.325,0,0,1-.2-.207c-.018,0-.037-.049-.083-.049-.018-.039-.037-.089-.073-.089-.046-.039-.1-.039-.138-.079l-.064-.039-20.5-9.832L33.543.809c-.018-.039-.083-.118-.1-.168a.489.489,0,0,0-.119-.168.412.412,0,0,0-.175-.168c-.064-.049-.1-.138-.165-.138a.465.465,0,0,0-.211-.079C32.707.049,32.671,0,32.606,0h-.551A.256.256,0,0,0,31.9.089a.5.5,0,0,0-.22.079c-.055,0-.11.089-.156.138a.367.367,0,0,0-.175.168.392.392,0,0,0-.119.168.689.689,0,0,0-.1.168L22.741,20.927,2.229,30.758l-.055.039c-.055.039-.1.039-.138.079l-.083.089c-.037,0-.073.049-.092.089a.364.364,0,0,0-.147.168l-.073.128c-.064.039-.083.128-.119.207l-.037.128a1.107,1.107,0,0,0-.046.385v33.9a1.5,1.5,0,0,0,.79,1.323m58.348-2.26L33.663,77.961V47.174L60.577,34.282ZM33.663,8.084,43.354,31.35,33.663,35.99ZM31.008,35.99l-9.7-4.639,9.7-23.266ZM21.115,24.835l-2.774,6.643a1.532,1.532,0,0,0-.037,1.106,1.3,1.3,0,0,0,.716.77L31.8,39.514a.061.061,0,0,1,.064.039,1.377,1.377,0,0,0,.468.089,1.478,1.478,0,0,0,.478-.089.056.056,0,0,1,.064-.039l12.777-6.16a1.358,1.358,0,0,0,.716-.77,1.488,1.488,0,0,0-.046-1.106l-2.765-6.643L58.63,32.071l-26.3,12.635L6.032,32.071ZM4.094,34.282,20.022,41.9l10.986,5.271V77.961L4.094,65.03Z" transform="translate(11.779 0.004)" fill="#203c73"/></g></g><g transform="translate(2 1)"><g transform="translate(0 0)" clip-path="url(#b)"><path d="M77.4,74.74a9.86,9.86,0,0,0,1.607-1.221,7.915,7.915,0,0,0,2.3-5.859c0-14.087-3.067-31.892-11.157-42.177h1.166a4.67,4.67,0,1,0,0-9.339h-.156A17.969,17.969,0,0,0,75.888,4.4a1.248,1.248,0,0,0-.3-.836,8.935,8.935,0,0,0-14.279,0,6.627,6.627,0,0,1-5.087,2.571A6.541,6.541,0,0,1,51.14,3.563,9.243,9.243,0,0,0,44,0h-.018a9.167,9.167,0,0,0-7.126,3.563,6.662,6.662,0,0,1-5.106,2.571,6.61,6.61,0,0,1-5.078-2.571A9.189,9.189,0,0,0,19.523,0a9.243,9.243,0,0,0-7.144,3.563,1.289,1.289,0,0,0-.294.836,17.946,17.946,0,0,0,4.784,11.745h-.22a4.67,4.67,0,0,0,0,9.339h1.175C9.725,35.768,6.658,53.573,6.658,67.66a7.922,7.922,0,0,0,2.3,5.859,9.941,9.941,0,0,0,1.616,1.221A12.015,12.015,0,0,0,0,86.65,1.329,1.329,0,0,0,1.322,88H86.65a1.335,1.335,0,0,0,1.322-1.35A12.027,12.027,0,0,0,77.4,74.74M14.757,4.913a6.352,6.352,0,0,1,4.766-2.222A6.628,6.628,0,0,1,24.61,5.262a9.212,9.212,0,0,0,7.135,3.563,9.224,9.224,0,0,0,7.163-3.563,6.593,6.593,0,0,1,5.069-2.571H44a6.625,6.625,0,0,1,5.078,2.571,9.216,9.216,0,0,0,7.144,3.563,9.243,9.243,0,0,0,7.144-3.563A6.61,6.61,0,0,1,68.44,2.691a6.385,6.385,0,0,1,4.775,2.222c-.184,4.7-2.828,8.467-5.758,11.231H20.505c-2.92-2.764-5.574-6.529-5.749-11.231m-.1,15.9a2.021,2.021,0,0,1,1.993-2.02H71.315a2,2,0,1,1,0,3.995H16.649a2.011,2.011,0,0,1-1.993-1.974m6.63,4.665H66.65c8.742,9.22,12,27.742,12,42.177a5.3,5.3,0,0,1-1.5,3.958c-1.947,1.864-5.7,2.691-10.432,3.049h-45.5c-4.711-.358-8.467-1.185-10.386-3.049A5.21,5.21,0,0,1,9.311,67.66c0-14.436,3.242-32.921,11.975-42.177M2.764,85.309A9.32,9.32,0,0,1,12,77.32H75.989a9.306,9.306,0,0,1,9.21,7.989Z" transform="translate(0 0.003)" fill="#203c73"/><path d="M19.633,36.961A16.662,16.662,0,1,0,2.975,20.294,16.691,16.691,0,0,0,19.633,36.961m0-30.671a14.009,14.009,0,1,1-13.986,14,14.03,14.03,0,0,1,13.986-14" transform="translate(24.344 29.757)" fill="#203c73"/><path d="M9.813,22.094a2.831,2.831,0,0,1-2.966-2.617,1.336,1.336,0,1,0-2.672,0,5.328,5.328,0,0,0,4.316,5.069v1.028a1.332,1.332,0,0,0,2.663,0V24.546a5.319,5.319,0,0,0,4.316-5.069c0-2.525-1.478-5.216-5.657-5.216-2,0-2.966-.872-2.966-2.608a2.8,2.8,0,0,1,2.966-2.58,2.8,2.8,0,0,1,2.994,2.58,1.332,1.332,0,1,0,2.663,0,5.382,5.382,0,0,0-4.316-5.106V5.556a1.332,1.332,0,1,0-2.663,0v.992a5.392,5.392,0,0,0-4.316,5.106c0,2.525,1.488,5.253,5.638,5.253,2.02,0,2.994.836,2.994,2.571a2.827,2.827,0,0,1-2.994,2.617" transform="translate(34.164 34.494)" fill="#203c73"/></g></g></g></svg>