<svg xmlns="http://www.w3.org/2000/svg" xmlns:xlink="http://www.w3.org/1999/xlink" width="83" height="80" viewBox="0 0 83 80">
  <defs>
    <clipPath id="clip-path">
      <rect id="Rectangle_3875" data-name="Rectangle 3875" width="77.266" height="76.381" fill="#203c73"/>
    </clipPath>
    <clipPath id="clip-ICO-Org-006">
      <rect width="83" height="80"/>
    </clipPath>
  </defs>
  <g id="ICO-Org-006" clip-path="url(#clip-ICO-Org-006)">
    <rect width="83" height="80" fill="#fff"/>
    <g id="Group_4326" data-name="Group 4326" transform="translate(3 2)" clip-path="url(#clip-path)">
      <path id="Path_20609" data-name="Path 20609" d="M3.664,22.243a1.025,1.025,0,0,1-1.025-1.025V1.025A1.028,1.028,0,0,1,3.664,0H56.225a1.025,1.025,0,0,1,1.021,1.025V11.62a1.023,1.023,0,1,1-2.046,0V2.051H4.69V21.218a1.023,1.023,0,0,1-1.025,1.025" transform="translate(8.227 -0.002)" fill="#203c73"/>
      <path id="Path_20610" data-name="Path 20610" d="M56.221,42.9H16.746a1.015,1.015,0,0,1-.725-.3L2.94,29.514a1.022,1.022,0,0,1-.3-.725V11.767a1.023,1.023,0,1,1,2.046,0v16.6L17.17,40.846H55.2V12.78a1.025,1.025,0,1,1,2.051,0V41.871A1.023,1.023,0,0,1,56.221,42.9" transform="translate(8.227 33.487)" fill="#203c73"/>
      <path id="Path_20611" data-name="Path 20611" d="M16.745,30.007a1.026,1.026,0,0,1-.725-.3L2.939,16.625a1.025,1.025,0,0,1,.725-1.75h13.1A1.026,1.026,0,0,1,17.791,15.9L17.77,28.986a1.015,1.015,0,0,1-.634.943.99.99,0,0,1-.391.078M6.138,16.926l9.59,9.586.012-9.586Z" transform="translate(8.228 46.372)" fill="#203c73"/>
      <path id="Path_20612" data-name="Path 20612" d="M28.732,26.085a3.89,3.89,0,0,1-2.767-1.145l-11.192-11.2a1.576,1.576,0,0,1,0-2.232l3.3-3.306a1.614,1.614,0,0,1,2.232,0L31.5,19.4a3.914,3.914,0,0,1-2.771,6.683M16.553,12.628,27.415,23.49a1.913,1.913,0,0,0,2.639,0,1.864,1.864,0,0,0,0-2.639L19.192,9.989Z" transform="translate(44.614 24.185)" fill="#203c73"/>
      <path id="Path_20613" data-name="Path 20613" d="M17.354,14.409h0a1.022,1.022,0,0,1-.725-.3l-2.5-2.5a1.025,1.025,0,0,1,1.449-1.449l1.775,1.775L18.49,10.8,16.716,9.023a1.025,1.025,0,1,1,1.449-1.449l2.5,2.5a1.024,1.024,0,0,1,0,1.449l-2.586,2.586a1.022,1.022,0,0,1-.725.3" transform="translate(43.117 22.676)" fill="#203c73"/>
      <path id="Path_20614" data-name="Path 20614" d="M23.171,31.27A14.651,14.651,0,0,1,12.812,6.256a14.651,14.651,0,1,1,20.72,20.72,14.538,14.538,0,0,1-10.36,4.295m0-27.258a12.6,12.6,0,0,0-8.91,21.518A12.6,12.6,0,0,0,32.082,7.7a12.514,12.514,0,0,0-8.91-3.689" transform="translate(26.552 6.111)" fill="#203c73"/>
      <path id="Path_20615" data-name="Path 20615" d="M19.1,5.477H5.6a1.025,1.025,0,1,1,0-2.051H19.1a1.025,1.025,0,0,1,0,2.051" transform="translate(14.254 10.679)" fill="#203c73"/>
      <path id="Path_20616" data-name="Path 20616" d="M17.234,7.717H5.6a1.025,1.025,0,0,1,0-2.051H17.234a1.025,1.025,0,0,1,0,2.051" transform="translate(14.254 17.662)" fill="#203c73"/>
      <path id="Path_20617" data-name="Path 20617" d="M19.1,9.957H5.6a1.025,1.025,0,1,1,0-2.051H19.1a1.025,1.025,0,0,1,0,2.051" transform="translate(14.254 24.645)" fill="#203c73"/>
      <path id="Path_20618" data-name="Path 20618" d="M33.422,12.2h-25a1.025,1.025,0,0,1,0-2.051h25a1.025,1.025,0,1,1,0,2.051" transform="translate(23.067 31.629)" fill="#203c73"/>
      <path id="Path_20619" data-name="Path 20619" d="M29.045,14.437H9.828a1.025,1.025,0,0,1,0-2.051H29.045a1.025,1.025,0,0,1,0,2.051" transform="translate(27.444 38.612)" fill="#203c73"/>
      <path id="Path_20620" data-name="Path 20620" d="M31.374,16.677H9.081a1.025,1.025,0,1,1,0-2.051H31.374a1.025,1.025,0,1,1,0,2.051" transform="translate(25.115 45.596)" fill="#203c73"/>
      <path id="Path_20621" data-name="Path 20621" d="M28.851,35.193a1.074,1.074,0,0,1-.2-.021l-5.876-1.141a1.015,1.015,0,0,1-.527-.28L1.556,13.057a1.026,1.026,0,0,1,0-1.449L6.291,6.872a1.058,1.058,0,0,1,1.449,0L28.435,27.567a1.041,1.041,0,0,1,.28.531l1.141,5.872a1.029,1.029,0,0,1-1,1.223M23.478,32.08l4.076.791-.791-4.076L7.016,9.047,3.73,12.332Z" transform="translate(3.916 20.528)" fill="#203c73"/>
      <path id="Path_20622" data-name="Path 20622" d="M3.833,14.915a1.009,1.009,0,0,1-.725-.3L.3,11.81a1.024,1.024,0,0,1,0-1.449L5.036,5.626a1.026,1.026,0,0,1,1.449,0L9.293,8.434a1.023,1.023,0,0,1,.3.721,1.042,1.042,0,0,1-.3.729L4.558,14.614a1.023,1.023,0,0,1-.725.3M2.475,11.086,3.833,12.44,7.119,9.155,5.76,7.8Z" transform="translate(0 16.603)" fill="#203c73"/>
      <path id="Path_20623" data-name="Path 20623" d="M11.4,17.751a1.016,1.016,0,0,1-.725-.3L2.132,8.906A1.025,1.025,0,0,1,3.581,7.457L12.125,16a1.026,1.026,0,0,1,0,1.449,1.016,1.016,0,0,1-.725.3" transform="translate(5.712 22.311)" fill="#203c73"/>
      <path id="Path_20624" data-name="Path 20624" d="M7.306,18.393a1.016,1.016,0,0,1-.725-.3,1.026,1.026,0,0,1,0-1.449l4.735-4.735a1.025,1.025,0,1,1,1.449,1.449L8.031,18.092a1.016,1.016,0,0,1-.725.3" transform="translate(19.585 36.188)" fill="#203c73"/>
    </g>
  </g>
</svg>
