<svg xmlns="http://www.w3.org/2000/svg" xmlns:xlink="http://www.w3.org/1999/xlink" width="91" height="90" viewBox="0 0 91 90"><defs><clipPath id="a"><rect width="88" height="88" fill="#203c73"/></clipPath><clipPath id="c"><rect width="91" height="90"/></clipPath></defs><g id="b" clip-path="url(#c)"><rect width="91" height="90" fill="#fff"/><g transform="translate(2 1)"><g transform="translate(0 0)" clip-path="url(#a)"><path d="M82.657,77.514H81.334v-1.35a5.323,5.323,0,0,0-4-5.145V35.751a5.323,5.323,0,0,0,4-5.145V29.265h5.318a1.345,1.345,0,0,0,1.286-.955,1.315,1.315,0,0,0-.569-1.507L44.7.207a1.329,1.329,0,0,0-1.424,0L.636,26.8A1.364,1.364,0,0,0,.048,28.31a1.362,1.362,0,0,0,1.286.955H6.679v1.341a5.3,5.3,0,0,0,4,5.145V71.019a5.3,5.3,0,0,0-4,5.145v1.35H5.329A5.32,5.32,0,0,0,0,82.815v3.84a1.337,1.337,0,0,0,1.332,1.35H86.652A1.341,1.341,0,0,0,88,86.655v-3.84a5.324,5.324,0,0,0-5.346-5.3m-4-1.35v1.35H62.67v-1.35a2.648,2.648,0,0,1,2.654-2.646H76.007a2.648,2.648,0,0,1,2.654,2.646m-54.65-5.145V35.751a5.323,5.323,0,0,0,4-5.145V29.265h5.318v1.341a5.317,5.317,0,0,0,4.023,5.145V71.019a5.317,5.317,0,0,0-4.023,5.145v1.35H28.007v-1.35a5.323,5.323,0,0,0-4-5.145m-2.673-.193H13.32V35.953h8.018ZM39.993,35.953h8.018V70.826H39.993ZM49.334,33.3H38.67A2.691,2.691,0,0,1,36,30.606V29.265H51.988v1.341A2.694,2.694,0,0,1,49.334,33.3M36,76.163a2.652,2.652,0,0,1,2.673-2.646H49.334a2.654,2.654,0,0,1,2.654,2.646v1.35H36Zm14.659-5.145V35.751a5.337,5.337,0,0,0,4.023-5.145V29.265H60v1.341a5.323,5.323,0,0,0,4,5.145V71.019a5.323,5.323,0,0,0-4,5.145v1.35H54.652v-1.35a5.345,5.345,0,0,0-4-5.145M66.666,35.953h8V70.826h-8Zm12-5.347A2.688,2.688,0,0,1,76.007,33.3H65.325a2.688,2.688,0,0,1-2.654-2.692V29.265H78.661Zm-70.65-4H6L44,2.9,82,26.61H8.011Zm1.323,4V29.265h16v1.341A2.709,2.709,0,0,1,22.661,33.3H12a2.708,2.708,0,0,1-2.664-2.692m0,45.557A2.668,2.668,0,0,1,12,73.518H22.661a2.67,2.67,0,0,1,2.673,2.646v1.35h-16Zm76,9.187H2.684V82.815A2.648,2.648,0,0,1,5.329,80.16H82.657a2.66,2.66,0,0,1,2.673,2.655Z" transform="translate(-0.002 0)" fill="#203c73"/><path d="M10.438,13.734A6.334,6.334,0,1,0,4.1,7.4a6.335,6.335,0,0,0,6.338,6.33m0-10.014A3.684,3.684,0,1,1,6.773,7.4,3.7,3.7,0,0,1,10.438,3.72" transform="translate(33.558 8.715)" fill="#203c73"/></g></g></g></svg>