<?xml version="1.0" encoding="utf-8"?>
<!-- Generator: Adobe Illustrator 28.2.0, SVG Export Plug-In . SVG Version: 6.00 Build 0)  -->
<svg version="1.1" id="Capa_1" xmlns="http://www.w3.org/2000/svg" xmlns:xlink="http://www.w3.org/1999/xlink" x="0px" y="0px"
	 width="156px" height="135px" viewBox="0 0 156 135" style="enable-background:new 0 0 156 135;" xml:space="preserve">
<style type="text/css">
	.st0{fill:none;}
	.st1{clip-path:url(#SVGID_00000026869058637525230030000006718105739285121194_);fill:#203C73;}
</style>
<rect y="0" class="st0" width="156" height="135"/>
<g>
	<defs>
		<rect id="SVGID_1_" x="3" y="6" width="149.8" height="123.6"/>
	</defs>
	<clipPath id="SVGID_00000031194682950222847630000004510810163760670090_">
		<use xlink:href="#SVGID_1_"  style="overflow:visible;"/>
	</clipPath>
	<path id="Path_20576" style="clip-path:url(#SVGID_00000031194682950222847630000004510810163760670090_);fill:#203C73;" d="
		M107.8,102.4h-6.1c-5.1,0-9.1-4.1-9.2-9.2c0-1,0.9-1.9,1.9-1.9c1,0,1.9,0.9,1.9,1.9c0,3,2.4,5.4,5.4,5.4h6.1c3,0,5.3-2.5,5.3-5.4
		c0-2.9-2.4-5.2-5.3-5.3h-6.1c-5.1,0-9.2-4.1-9.2-9.2c0-5.1,4.1-9.2,9.2-9.2h6.1c5.1,0,9.2,4.1,9.2,9.2c0,1-0.8,1.9-1.9,1.9
		c-1,0-1.9-0.8-1.9-1.9c0,0,0,0,0,0c0-3-2.4-5.4-5.4-5.4h-6.1c-3,0-5.3,2.5-5.3,5.4c0,2.9,2.4,5.2,5.3,5.3h6.1
		c5.1,0,9.2,4.1,9.2,9.2C117,98.3,112.9,102.4,107.8,102.4"/>
	<path id="Path_20577" style="clip-path:url(#SVGID_00000031194682950222847630000004510810163760670090_);fill:#203C73;" d="
		M104.8,73.4c-1,0-1.9-0.9-1.9-1.9v-6.7c0-1,0.8-1.9,1.9-1.9s1.9,0.8,1.9,1.9c0,0,0,0,0,0v6.7C106.7,72.5,105.8,73.4,104.8,73.4"/>
	<path id="Path_20578" style="clip-path:url(#SVGID_00000031194682950222847630000004510810163760670090_);fill:#203C73;" d="
		M104.8,109.1c-1,0-1.9-0.9-1.9-1.9v-6.7c0-1,0.8-1.9,1.9-1.9s1.9,0.8,1.9,1.9c0,0,0,0,0,0v6.7C106.7,108.3,105.8,109.1,104.8,109.1
		"/>
	<path id="Path_20579" style="clip-path:url(#SVGID_00000031194682950222847630000004510810163760670090_);fill:#203C73;" d="
		M120.7,31.3c-1,0-1.9-0.9-1.9-1.9c0,0,0,0,0,0c0-1.7,1.6-3.7,10.9-11.8c0.9-0.8,1.8-1.6,2.2-2c0.3-0.7,0.3-1.6,0-2.3
		c-0.3-0.5-1.4-0.8-2.9-0.8c-7.2,0-9.4-0.3-11.6-2.5c-0.7-0.6-4.7-0.1-7.3,1.4c-1.7,0.9-3.6,1.1-5.4,0.7c-1.8,0.5-3.8,0.2-5.4-0.7
		c-2.6-1.5-6.5-2-7.3-1.4c-2.2,2.2-4.4,2.5-11.6,2.5c-1.5,0-2.5,0.3-2.9,0.8c-0.3,0.7-0.3,1.6,0,2.3c0.4,0.4,1.3,1.2,2.2,2
		c9.3,8.1,10.9,10.1,10.9,11.8c0,1-0.9,1.9-1.9,1.9c-0.9,0-1.7-0.7-1.8-1.5c-0.9-1.6-7.2-7.1-9.7-9.3c-2.7-2.4-3.2-2.8-3.3-3.4
		c-0.4-1-1.1-3.6,0.3-5.8c1.1-1.7,3.2-2.6,6.1-2.6c7.3,0,8-0.4,9-1.4c2.7-2.7,9.1-0.7,11.9,0.8c1,0.4,2,0.5,3,0.2
		c0.3-0.1,0.7-0.1,1,0c1,0.3,2.1,0.3,3-0.2c2.7-1.6,9.2-3.5,11.9-0.8c1,1,1.7,1.4,9,1.4c2.9,0,4.9,0.9,6.1,2.6
		c1.4,2.2,0.7,4.8,0.3,5.8c-0.1,0.6-0.5,1-3.3,3.4c-2.4,2.1-8.8,7.7-9.7,9.3C122.4,30.7,121.6,31.3,120.7,31.3"/>
	<path id="Path_20580" style="clip-path:url(#SVGID_00000031194682950222847630000004510810163760670090_);fill:#203C73;" d="
		M118.3,44.8H91.2c-4.8,0.1-8.7-3.8-8.7-8.5s3.8-8.7,8.5-8.7c0.1,0,0.1,0,0.2,0h27.1c4.8-0.1,8.7,3.8,8.7,8.5s-3.8,8.7-8.5,8.7
		C118.4,44.8,118.4,44.8,118.3,44.8 M91.2,31.3c-2.7,0-4.8,2.2-4.8,4.8c0,2.7,2.2,4.8,4.8,4.8h27.1c2.7,0,4.8-2.2,4.8-4.8
		c0-2.7-2.2-4.8-4.8-4.8H91.2z"/>
	<path id="Path_20581" style="clip-path:url(#SVGID_00000031194682950222847630000004510810163760670090_);fill:#203C73;" d="
		M104.8,129.6c-6.3,0-13.2-1.7-23.3-5.7c-1-0.4-1.4-1.6-0.9-2.5c0.4-0.9,1.4-1.3,2.3-1c9.6,3.8,16.2,5.4,22,5.4s12.3-1.6,21.9-5.4
		c6.8-2.7,9.9-2.2,12.8-1.7c1.9,0.4,3.9,0.5,5.8,0.1c1.2-0.2,3.1-0.7,3.6-2c0.4-1.2-0.4-3.1-2-4.6c-2.9-2.9-3.9-12.9-5.2-28.9
		c-0.2-3-0.5-6.1-0.8-9.1c-1.4-14.7-23.5-29.6-23.7-29.8c-0.9-0.6-1-1.8-0.4-2.7c0.6-0.8,1.7-1,2.5-0.5c1,0.7,23.9,16.1,25.4,32.6
		c0.3,3,0.5,6.1,0.8,9.1c0.9,10.9,2,24.5,4.1,26.5c2,2.1,3.9,5.4,2.9,8.5c-0.5,1.7-2.1,3.8-6.6,4.5c-2.3,0.4-4.7,0.3-7.1-0.1
		c-2.7-0.4-5-0.8-10.8,1.5C118,127.9,111,129.6,104.8,129.6"/>
	<path id="Path_20582" style="clip-path:url(#SVGID_00000031194682950222847630000004510810163760670090_);fill:#203C73;" d="
		M67.1,73c-0.2,0-0.3,0-0.5-0.1c-1-0.3-1.6-1.3-1.4-2.3c0,0,0,0,0,0c3.9-15.2,24-28.8,24.8-29.3c0.9-0.6,2.1-0.3,2.6,0.6
		c0.5,0.9,0.3,2-0.5,2.5C92.1,44.6,72.5,57.8,69,71.6C68.8,72.4,68,73,67.1,73"/>
	<path id="Path_20583" style="clip-path:url(#SVGID_00000031194682950222847630000004510810163760670090_);fill:#203C73;" d="
		M71.5,129.6H37.6c-1,0-1.9-0.9-1.9-1.9v-3.6c0-1,0.9-1.9,1.9-1.9c1,0,1.9,0.9,1.9,1.9v1.7h30.1v-7.9H44.7c-1,0-1.9-0.9-1.9-1.9
		s0.9-1.9,1.9-1.9h26.8c1,0,1.9,0.8,1.9,1.9c0,0,0,0,0,0v11.7C73.4,128.7,72.5,129.6,71.5,129.6L71.5,129.6"/>
	<path id="Path_20584" style="clip-path:url(#SVGID_00000031194682950222847630000004510810163760670090_);fill:#203C73;" d="
		M76.5,117.8H44.7c-1,0-1.9-0.8-1.9-1.9c0-1,0.8-1.9,1.9-1.9c0,0,0,0,0,0h29.9v-7.9H46.6c-1,0-1.9-0.9-1.9-1.9s0.9-1.9,1.9-1.9h29.8
		c1,0,1.9,0.9,1.9,1.9l0,0v11.7C78.4,117,77.5,117.8,76.5,117.8L76.5,117.8"/>
	<path id="Path_20585" style="clip-path:url(#SVGID_00000031194682950222847630000004510810163760670090_);fill:#203C73;" d="
		M71.5,106.1H46.6c-1,0-1.9-0.9-1.9-1.9c0-1,0.9-1.9,1.9-1.9h22.9v-7.9H41.2c-1,0-1.9-0.9-1.9-1.9s0.9-1.9,1.9-1.9h30.3
		c1,0,1.9,0.9,1.9,1.9l0,0v11.7C73.4,105.2,72.5,106.1,71.5,106.1L71.5,106.1"/>
	<path id="Path_20586" style="clip-path:url(#SVGID_00000031194682950222847630000004510810163760670090_);fill:#203C73;" d="
		M69,94.4H41.2c-1,0-1.9-0.8-1.9-1.9c0-1,0.8-1.9,1.9-1.9c0,0,0,0,0,0h25.9v-7.9H37v5.3c0,1-0.9,1.9-1.9,1.9c-1,0-1.9-0.9-1.9-1.9
		v-7.2c0-1,0.9-1.9,1.9-1.9H69c1,0,1.9,0.9,1.9,1.9l0,0v11.7C70.9,93.5,70.1,94.4,69,94.4L69,94.4"/>
	<path id="Path_20587" style="clip-path:url(#SVGID_00000031194682950222847630000004510810163760670090_);fill:#203C73;" d="
		M25.8,129.5C13.2,129.5,3,119.3,3,106.7s10.2-22.9,22.9-22.8c12.6,0,22.8,10.2,22.8,22.8C48.7,119.3,38.5,129.5,25.8,129.5
		 M25.8,87.6c-10.5,0-19.1,8.5-19.1,19.1s8.5,19.1,19.1,19.1c10.5,0,19.1-8.5,19.1-19.1c0,0,0,0,0,0C44.9,96.2,36.4,87.7,25.8,87.6"
		/>
	<path id="Path_20588" style="clip-path:url(#SVGID_00000031194682950222847630000004510810163760670090_);fill:#203C73;" d="
		M27.4,116.1h-3.1c-3.1,0-5.7-2.5-5.7-5.7c0-1,0.9-1.9,1.9-1.9c1,0,1.9,0.9,1.9,1.9c0,1,0.8,1.9,1.9,1.9h3.1c1,0,1.9-0.8,1.9-1.8
		c0-1-0.8-1.9-1.8-1.9c0,0-0.1,0-0.1,0h-3.2c-3.1,0-5.7-2.5-5.7-5.7s2.5-5.7,5.7-5.7h3.1c3.1,0,5.7,2.5,5.7,5.7c0,1-0.9,1.9-1.9,1.9
		c-1,0-1.9-0.9-1.9-1.9c0-1-0.8-1.9-1.9-1.9h-3.1c-1,0-1.9,0.8-1.9,1.8c0,1,0.8,1.9,1.8,1.9c0,0,0.1,0,0.1,0h3.1
		c3.1,0,5.7,2.5,5.7,5.7S30.5,116.1,27.4,116.1"/>
	<path id="Path_20589" style="clip-path:url(#SVGID_00000031194682950222847630000004510810163760670090_);fill:#203C73;" d="
		M25.8,101.1c-1,0-1.9-0.9-1.9-1.9v-3.5c0-1,0.8-1.9,1.9-1.9c1,0,1.9,0.8,1.9,1.9c0,0,0,0,0,0v3.5C27.7,100.2,26.9,101.1,25.8,101.1
		"/>
	<path id="Path_20590" style="clip-path:url(#SVGID_00000031194682950222847630000004510810163760670090_);fill:#203C73;" d="
		M25.8,119.6c-1,0-1.9-0.9-1.9-1.9v-3.5c0-1,0.8-1.9,1.9-1.9s1.9,0.8,1.9,1.9c0,0,0,0,0,0v3.5C27.7,118.7,26.9,119.6,25.8,119.6"/>
</g>
</svg>
