<svg xmlns="http://www.w3.org/2000/svg" xmlns:xlink="http://www.w3.org/1999/xlink" width="83" height="80" viewBox="0 0 83 80">
  <defs>
    <clipPath id="clip-path">
      <rect id="Rectangle_3811" data-name="Rectangle 3811" width="73.227" height="73.25" fill="#203c73"/>
    </clipPath>
    <clipPath id="clip-ICO-Org-008">
      <rect width="83" height="80"/>
    </clipPath>
  </defs>
  <g id="ICO-Org-008" clip-path="url(#clip-ICO-Org-008)">
    <rect width="83" height="80" fill="#fff"/>
    <g id="Group_4274" data-name="Group 4274" transform="translate(5 3)">
      <g id="Group_4273" data-name="Group 4273" transform="translate(0 0)" clip-path="url(#clip-path)">
        <path id="Path_20563" data-name="Path 20563" d="M64.429,62.212A8.208,8.208,0,0,0,65.767,61.2a6.588,6.588,0,0,0,1.911-4.877c0-11.725-2.553-26.547-9.287-35.108h.971a3.887,3.887,0,1,0,0-7.774h-.13a14.957,14.957,0,0,0,3.937-9.776,1.039,1.039,0,0,0-.252-.7,7.437,7.437,0,0,0-11.886,0A5.516,5.516,0,0,1,46.8,5.106a5.444,5.444,0,0,1-4.227-2.14A7.694,7.694,0,0,0,36.621,0h-.015a7.631,7.631,0,0,0-5.932,2.966,5.546,5.546,0,0,1-4.25,2.14A5.5,5.5,0,0,1,22.2,2.966,7.648,7.648,0,0,0,16.251,0,7.694,7.694,0,0,0,10.3,2.966a1.073,1.073,0,0,0-.245.7,14.938,14.938,0,0,0,3.982,9.776h-.183a3.887,3.887,0,0,0,0,7.774h.978C8.095,29.772,5.542,44.594,5.542,56.319A6.594,6.594,0,0,0,7.46,61.2a8.275,8.275,0,0,0,1.345,1.017A10,10,0,0,0,0,72.126,1.106,1.106,0,0,0,1.1,73.25H72.126a1.111,1.111,0,0,0,1.1-1.124,10.011,10.011,0,0,0-8.8-9.914M12.283,4.089a5.287,5.287,0,0,1,3.967-1.85,5.517,5.517,0,0,1,4.235,2.14,7.668,7.668,0,0,0,5.939,2.966A7.678,7.678,0,0,0,32.387,4.38a5.488,5.488,0,0,1,4.219-2.14h.015a5.514,5.514,0,0,1,4.227,2.14A7.671,7.671,0,0,0,46.8,7.346,7.694,7.694,0,0,0,52.742,4.38a5.5,5.5,0,0,1,4.227-2.14,5.315,5.315,0,0,1,3.975,1.85c-.153,3.914-2.354,7.048-4.793,9.348H17.068c-2.431-2.3-4.64-5.435-4.785-9.348M12.2,17.328a1.682,1.682,0,0,1,1.659-1.682h45.5a1.663,1.663,0,1,1,0,3.325h-45.5A1.674,1.674,0,0,1,12.2,17.328m5.519,3.883h37.76c7.277,7.674,9.99,23.092,9.99,35.108a4.408,4.408,0,0,1-1.246,3.294c-1.62,1.552-4.747,2.24-8.683,2.538H17.665c-3.921-.3-7.048-.986-8.645-2.538a4.336,4.336,0,0,1-1.269-3.294c0-12.016,2.7-27.4,9.967-35.108M2.3,71.01a7.758,7.758,0,0,1,7.69-6.65H63.252a7.746,7.746,0,0,1,7.667,6.65Z" transform="translate(0 0.003)" fill="#203c73"/>
        <path id="Path_20564" data-name="Path 20564" d="M16.841,31.375A13.87,13.87,0,1,0,2.975,17.5,13.894,13.894,0,0,0,16.841,31.375m0-25.53A11.661,11.661,0,1,1,5.2,17.5,11.679,11.679,0,0,1,16.841,5.845" transform="translate(19.765 24.16)" fill="#203c73"/>
        <path id="Path_20565" data-name="Path 20565" d="M8.868,19.1A2.356,2.356,0,0,1,6.4,16.919a1.112,1.112,0,1,0-2.224,0,4.435,4.435,0,0,0,3.593,4.219v.856a1.109,1.109,0,0,0,2.217,0v-.856a4.427,4.427,0,0,0,3.593-4.219c0-2.1-1.231-4.342-4.709-4.342-1.666,0-2.469-.726-2.469-2.171A2.333,2.333,0,0,1,8.868,8.259a2.33,2.33,0,0,1,2.492,2.148,1.108,1.108,0,1,0,2.217,0,4.48,4.48,0,0,0-3.593-4.25V5.331a1.108,1.108,0,1,0-2.217,0v.826a4.488,4.488,0,0,0-3.593,4.25c0,2.1,1.238,4.372,4.693,4.372,1.682,0,2.492.7,2.492,2.14A2.354,2.354,0,0,1,8.868,19.1" transform="translate(27.738 28.006)" fill="#203c73"/>
      </g>
    </g>
  </g>
</svg>
