<svg xmlns="http://www.w3.org/2000/svg" xmlns:xlink="http://www.w3.org/1999/xlink" width="114" height="108" viewBox="0 0 114 108">
  <defs>
    <clipPath id="clip-path">
      <rect id="Rectángulo_2069" data-name="Rectángulo 2069" width="28.79" height="51.397" fill="#121212"/>
    </clipPath>
    <clipPath id="clip-ico_Lempiras">
      <rect width="114" height="108"/>
    </clipPath>
  </defs>
  <g id="ico_Lempiras" clip-path="url(#clip-ico_Lempiras)">
    <rect width="114" height="108" fill="#fff"/>
    <g id="Grupo_3465" data-name="Grupo 3465" transform="translate(10576 1475)">
      <path id="Trazado_6452" data-name="Trazado 6452" d="M351.351,149.353a35.809,35.809,0,0,0-25.988,11.262,39.686,39.686,0,0,0,0,54.378,35.615,35.615,0,0,0,51.976,0,39.719,39.719,0,0,0,0-54.378,35.849,35.849,0,0,0-25.988-11.262ZM339.656,145.7V129a2.641,2.641,0,0,1,2.575-2.694h74.828A2.641,2.641,0,0,1,419.634,129v21.689h0v65.041a2.63,2.63,0,0,1-2.575,2.681H381.332l-.357.387a40.58,40.58,0,0,1-59.248,0,45.255,45.255,0,0,1,0-61.985,41.639,41.639,0,0,1,17.93-11.113Zm45.955,67.336a44.707,44.707,0,0,0,6.759-16.3h22.114v16.3Zm7.5-21.676h21.374V175.045H391.441a45.84,45.84,0,0,1,1.8,12.759c0,1.2-.048,2.382-.131,3.555ZM389.5,169.67a43.874,43.874,0,0,0-8.523-12.859,42.949,42.949,0,0,0-3.708-3.442h37.218v16.3Zm-20.6-21.676h45.586v-16.3H344.794V144.5a40.616,40.616,0,0,1,6.557-.524,40.194,40.194,0,0,1,17.547,4.016Z" transform="translate(-10883.448 -1599.305)" fill="#121212" fill-rule="evenodd"/>
      <g id="Grupo_3464" data-name="Grupo 3464" transform="translate(-10542.797 -1439.847)">
        <g id="Grupo_3463" data-name="Grupo 3463" clip-path="url(#clip-path)">
          <path id="Trazado_7523" data-name="Trazado 7523" d="M6.456,44.935h14.8c1.394,0,2.79-.043,4.182.011,2.006.077,3.311,1.093,3.356,3.151a2.993,2.993,0,0,1-3.266,3.241c-7.379.081-14.76.071-22.139.008-2.144-.018-3.294-1.32-3.352-3.46-.055-2.048-.024-4.1-.024-6.148q0-18.2.01-36.4c0-7.094,6.431-7.094,6.431-.186q0,18.2.006,36.4v3.382" transform="translate(0 0)" fill="#121212"/>
        </g>
      </g>
    </g>
  </g>
</svg>
