<svg xmlns="http://www.w3.org/2000/svg" xmlns:xlink="http://www.w3.org/1999/xlink" width="38" height="36" viewBox="0 0 38 36">
  <defs>
    <clipPath id="clip-path">
      <rect id="Rectángulo_2086" data-name="Rectángulo 2086" width="35.69" height="32"/>
    </clipPath>
    <clipPath id="clip-ICO_Avance">
      <rect width="38" height="36"/>
    </clipPath>
  </defs>
  <g id="ICO_Avance" clip-path="url(#clip-ICO_Avance)">
    <rect width="38" height="36" fill="#fff"/>
    <g id="Grupo_1" data-name="Grupo 1" transform="translate(1 2)">
      <g id="Grupo_3500" data-name="Grupo 3500" transform="translate(0 0)" clip-path="url(#clip-path)">
        <path id="Trazado_7530" data-name="Trazado 7530" d="M21.4,30.135V9.977a.111.111,0,0,0-.026-.069h0a.1.1,0,0,0-.073-.03H14.387a.1.1,0,0,0-.073.03h0a.092.092,0,0,0-.035.073v7.991l0,.026V30.135ZM.928,32a.933.933,0,0,1,0-1.865H3.441V18a1.949,1.949,0,0,1,.514-1.321l.065-.069a1.958,1.958,0,0,1,1.386-.574h7.016V9.982A1.968,1.968,0,0,1,13,8.591h0a1.978,1.978,0,0,1,1.386-.579H21.3l.1,0V1.964A1.968,1.968,0,0,1,23.368,0H30.28a1.968,1.968,0,0,1,1.969,1.964V30.135h2.509a.933.933,0,1,1,0,1.865H.928Zm29.456-1.865V1.964a.089.089,0,0,0-.03-.073.1.1,0,0,0-.073-.03H23.368a.1.1,0,0,0-.069.03.089.089,0,0,0-.03.073V30.135ZM12.422,17.99a.092.092,0,0,0-.03-.065l-.013-.013a.1.1,0,0,0-.06-.017H5.406a.086.086,0,0,0-.069.03l-.017.013L5.3,18V30.135h7.12V17.99Z" transform="translate(0 -0.002)" fill-rule="evenodd"/>
      </g>
    </g>
  </g>
</svg>
