<?xml version="1.0" encoding="utf-8"?>
<!-- Generator: Adobe Illustrator 26.0.3, SVG Export Plug-In . SVG Version: 6.00 Build 0)  -->
<svg version="1.1" id="Capa_1" xmlns="http://www.w3.org/2000/svg" xmlns:xlink="http://www.w3.org/1999/xlink" x="0px" y="0px"
	 width="90px" height="78.7px" viewBox="0 0 90 78.7" style="enable-background:new 0 0 90 78.7;" xml:space="preserve">
<style type="text/css">
	.st0{fill-rule:evenodd;clip-rule:evenodd;fill:#9A1C1F;}
</style>
<path class="st0" d="M52.8,20.9c-1.7-1.7-3.8-3.1-6-4c-2.2-0.9-4.6-1.4-7.1-1.4c-2.5,0-4.9,0.5-7.1,1.4c-2.3,0.9-4.3,2.3-6,4
	c-1.7,1.7-3.1,3.8-4,6c-0.9,2.2-1.4,4.6-1.4,7.1c0,2.5,0.5,4.9,1.4,7.1c0.9,2.3,2.3,4.3,4,6c1.7,1.7,3.8,3.1,6,4
	c2.2,0.9,4.6,1.4,7.1,1.4c2.5,0,4.9-0.5,7.1-1.4c2.3-0.9,4.3-2.3,6-4c1.7-1.7,3.1-3.8,4-6c0.9-2.2,1.4-4.6,1.4-7.1
	c0-2.5-0.5-4.9-1.4-7.1C55.9,24.6,54.5,22.6,52.8,20.9L52.8,20.9z M66.3,50l13.1,13.1l0.1,0.1c1.2,1.2,1.7,2.8,1.7,4.4
	c0,1.6-0.6,3.3-1.9,4.5v0l-0.1,0.1l-1.5,1.5c-1.2,1.2-2.7,1.9-4.2,2c-1.5,0.1-3-0.4-4.2-1.7l0,0L55.8,60.4
	C51.1,63.3,45.6,65,39.7,65c-8.6,0-16.3-3.5-21.9-9.1C12.2,50.3,8.7,42.5,8.7,34c0-8.6,3.5-16.3,9.1-21.9C23.4,6.5,31.2,3,39.7,3
	c8.6,0,16.3,3.5,21.9,9.1c5.6,5.6,9.1,13.4,9.1,21.9C70.7,39.8,69.1,45.3,66.3,50L66.3,50z M59.1,58.2l13.1,13.1v0
	c0.4,0.4,0.8,0.6,1.2,0.6c0.5,0,1.1-0.3,1.7-0.9l1.5-1.5l0.1-0.1l0,0c0.5-0.5,0.7-1.1,0.7-1.7c0-0.6-0.2-1.2-0.6-1.7L64,53.2
	c-0.7,0.9-1.5,1.8-2.4,2.7C60.8,56.7,60,57.4,59.1,58.2L59.1,58.2z M39.7,7c7.4,0,14.2,3,19,7.9c4.9,4.9,7.9,11.6,7.9,19
	c0,7.4-3,14.2-7.9,19s-11.6,7.9-19,7.9c-7.4,0-14.2-3-19-7.9c-4.9-4.9-7.9-11.6-7.9-19c0-7.4,3-14.2,7.9-19C25.5,10.1,32.3,7,39.7,7
	L39.7,7z M48.3,13.3c2.7,1.1,5.2,2.8,7.3,4.9l0,0c2.1,2.1,3.7,4.5,4.9,7.3c1.1,2.6,1.7,5.5,1.7,8.6c0,3-0.6,5.9-1.7,8.6
	c-1.1,2.7-2.8,5.2-4.9,7.3c-2.1,2.1-4.5,3.7-7.3,4.9c-2.6,1.1-5.5,1.7-8.6,1.7c-3,0-5.9-0.6-8.6-1.7c-2.8-1.1-5.2-2.8-7.3-4.9
	c-2.1-2.1-3.7-4.5-4.9-7.3c-1.1-2.6-1.7-5.5-1.7-8.6c0-3,0.6-5.9,1.7-8.6c1.1-2.7,2.8-5.2,4.9-7.3l0,0c2.1-2.1,4.5-3.7,7.3-4.9
	c2.6-1.1,5.5-1.7,8.6-1.7C42.7,11.6,45.6,12.2,48.3,13.3z"/>
</svg>
