<?xml version="1.0" encoding="utf-8"?>
<!-- Generator: Adobe Illustrator 25.4.1, SVG Export Plug-In . SVG Version: 6.00 Build 0)  -->
<svg version="1.1" id="Layer_1" xmlns="http://www.w3.org/2000/svg" xmlns:xlink="http://www.w3.org/1999/xlink" x="0px" y="0px"
	 viewBox="0 0 90 59.9" style="enable-background:new 0 0 90 59.9;" xml:space="preserve">
<style type="text/css">
	.st0{fill-rule:evenodd;clip-rule:evenodd;fill:#10487A;}
</style>
<path class="st0" d="M11.2,0.9H45h33.8c1,0,1.9,0.4,2.6,1.1c0.7,0.7,1.1,1.6,1.1,2.6v43.8h2.3c0.9,0,1.8,0.4,2.5,1l0.1,0.1
	C88,50,88.4,51,88.4,52v3.4c0,1-0.4,1.9-1.1,2.6c-0.7,0.7-1.6,1.1-2.6,1.1H5.3c-1,0-1.9-0.4-2.6-1.1c-0.7-0.7-1.1-1.6-1.1-2.6V52
	c0-1,0.4-1.9,1.1-2.6l0,0c0.7-0.7,1.6-1.1,2.6-1.1h2.3V4.5c0-1,0.4-1.9,1.1-2.6C9.3,1.3,10.2,0.9,11.2,0.9L11.2,0.9z M64.1,51.9v0.4
	c0,1-0.8,1.8-1.8,1.8c-1,0-1.8-0.8-1.8-1.8v-0.4H28.3H16.1H9.3h-4c0,0-0.1,0-0.1,0v0c0,0,0,0,0,0.1v3.4c0,0,0,0.1,0,0.1
	c0,0,0,0,0.1,0h79.5c0,0,0.1,0,0.1,0c0,0,0,0,0-0.1V52c0,0,0-0.1,0-0.1l0,0c0,0,0,0-0.1,0h-4h-4.3v0.4c0,1-0.8,1.8-1.8,1.8
	c-1,0-1.8-0.8-1.8-1.8v-0.4h-2.6v0.4c0,1-0.8,1.8-1.8,1.8c-1,0-1.8-0.8-1.8-1.8v-0.4H64.1L64.1,51.9z M44.9,11.3
	c3.3,0,6.3,1.3,8.5,3.5l0,0c2.2,2.2,3.5,5.2,3.5,8.5c0,3.3-1.3,6.3-3.5,8.5l0,0c-0.5,0.5-1,0.9-1.5,1.3c2.3,0.9,4.3,2.3,6.1,4
	c2.9,2.9,4.9,6.8,5.3,11.2h5.3h5.4h0.7h4.3V4.5c0,0,0-0.1,0-0.1c0,0,0,0-0.1,0h-32v0.4c0,1-0.8,1.8-1.8,1.8c-1,0-1.8-0.8-1.8-1.8
	V4.4h-32c0,0-0.1,0-0.1,0c0,0,0,0,0,0.1v43.8h5h10.5c0.4-4.4,2.4-8.3,5.3-11.2c1.7-1.7,3.8-3.1,6-4c-0.5-0.4-1.1-0.8-1.5-1.3
	l-0.1-0.1c-2.1-2.2-3.4-5.1-3.4-8.4c0-3.3,1.3-6.3,3.5-8.5l0,0C38.6,12.7,41.6,11.3,44.9,11.3L44.9,11.3z M50.9,17.4
	c-1.5-1.5-3.6-2.5-5.9-2.5c-2.3,0-4.4,0.9-5.9,2.5h0c-1.5,1.5-2.5,3.6-2.5,5.9c0,2.3,0.9,4.4,2.4,5.9l0.1,0.1
	c1.5,1.5,3.6,2.5,5.9,2.5h0c2.3,0,4.4-0.9,5.9-2.5h0c1.5-1.5,2.5-3.6,2.5-5.9C53.3,21,52.4,18.9,50.9,17.4L50.9,17.4L50.9,17.4z
	 M59.6,48.3c-0.4-3.4-1.9-6.4-4.2-8.7c-2.7-2.7-6.4-4.3-10.5-4.3h0c-4.1,0-7.8,1.7-10.5,4.3c-2.3,2.3-3.8,5.3-4.2,8.7H59.6z"/>
</svg>
