<?xml version="1.0" encoding="utf-8"?>
<!-- Generator: Adobe Illustrator 26.1.0, SVG Export Plug-In . SVG Version: 6.00 Build 0)  -->
<svg version="1.1" id="Layer_1" xmlns="http://www.w3.org/2000/svg" xmlns:xlink="http://www.w3.org/1999/xlink" x="0px" y="0px"
	 width="93.3px" height="78.7px" viewBox="0 0 93.3 78.7" style="enable-background:new 0 0 93.3 78.7;" xml:space="preserve">
<style type="text/css">
	.st0{fill-rule:evenodd;clip-rule:evenodd;fill:#88CFE0;}
</style>
<path class="st0" d="M55.9,56.6H29.5l-13.2,10c-0.7,0.5-1.7,0.4-2.2-0.3c-0.3-0.4-0.4-0.8-0.3-1.2l1.6-8.5c-1.1-0.2-2-0.7-2.8-1.4
	l-0.1-0.1c-0.9-0.9-1.4-2.1-1.4-3.5v-28c0-1.4,0.6-2.6,1.5-3.6l0,0c0.9-0.9,2.2-1.5,3.6-1.5h16.2v-1.8c0-1.3,0.5-2.6,1.4-3.5
	l0.1-0.1c0.9-0.9,2.2-1.5,3.6-1.5h39.7c1.4,0,2.6,0.6,3.6,1.5l0,0c0.9,0.9,1.5,2.2,1.5,3.6v28c0,1.4-0.6,2.7-1.5,3.6l0,0
	c-0.7,0.7-1.7,1.2-2.7,1.4l1.6,8.5c0.1,0.4,0,0.9-0.3,1.2c-0.5,0.7-1.5,0.8-2.2,0.3l-13.2-10h-2.9v1.8c0,1.4-0.6,2.6-1.5,3.6
	l-0.1,0.1C58.5,56.1,57.2,56.6,55.9,56.6L55.9,56.6z M40.5,40.9h-20c-0.9,0-1.6,0.7-1.6,1.6c0,0.9,0.7,1.6,1.6,1.6h20
	c0.9,0,1.6-0.7,1.6-1.6C42.1,41.6,41.4,40.9,40.5,40.9L40.5,40.9z M51.5,30.5h-31c-0.9,0-1.6,0.7-1.6,1.6c0,0.9,0.7,1.6,1.6,1.6h31
	c0.9,0,1.6-0.7,1.6-1.6C53.1,31.3,52.4,30.5,51.5,30.5L51.5,30.5z M72.6,34.4c0.9,0,1.6,0.7,1.6,1.6c0,0.9-0.7,1.6-1.6,1.6H60.9v9.1
	h3.4c0.4,0,0.8,0.2,1.1,0.4l10.2,7.7l-1.2-6.3c-0.2-0.9,0.4-1.7,1.3-1.8c0.1,0,0.2,0,0.3,0v0h1.1c0.5,0,1-0.2,1.3-0.5v0
	c0.3-0.3,0.5-0.8,0.5-1.3v-28c0-0.5-0.2-1-0.5-1.3l0,0c-0.3-0.3-0.8-0.5-1.3-0.5H37.4c-0.5,0-1,0.2-1.3,0.5L36,15.5
	c-0.3,0.3-0.5,0.8-0.5,1.3v1.8h20.4c1.4,0,2.6,0.6,3.6,1.5l0,0c0.9,0.9,1.5,2.2,1.5,3.6v0.5h11.6c0.9,0,1.6,0.7,1.6,1.6
	c0,0.9-0.7,1.6-1.6,1.6H60.9v7.1H72.6L72.6,34.4z M28.9,53.5h27c0.5,0,0.9-0.2,1.3-0.5l0.1-0.1c0.3-0.3,0.5-0.8,0.5-1.3v-3.4V23.6
	c0-0.5-0.2-1-0.5-1.3l0,0c-0.3-0.3-0.8-0.5-1.3-0.5h-22H16.2c-0.5,0-1,0.2-1.3,0.5h0c-0.3,0.3-0.5,0.8-0.5,1.3v28
	c0,0.5,0.2,0.9,0.5,1.3l0.1,0.1c0.3,0.3,0.8,0.5,1.3,0.5h1.1v0c0.1,0,0.2,0,0.3,0c0.9,0.2,1.4,1,1.3,1.8l-1.2,6.3l10.2-7.7
	C28.1,53.6,28.5,53.5,28.9,53.5z"/>
</svg>
