<?xml version="1.0" encoding="utf-8"?>
<!-- Generator: Adobe Illustrator 25.4.1, SVG Export Plug-In . SVG Version: 6.00 Build 0)  -->
<svg version="1.1" id="Layer_1" xmlns="http://www.w3.org/2000/svg" xmlns:xlink="http://www.w3.org/1999/xlink" x="0px" y="0px"
	 width="50px" height="36px" viewBox="0 0 50 36" style="enable-background:new 0 0 50 36;" xml:space="preserve">
<style type="text/css">
	.st0{fill-rule:evenodd;clip-rule:evenodd;fill:#FFFFFF;}
</style>
<path class="st0" d="M17.6,5.3c-0.5,0.3-1,0.6-1.4,0.9l8.8,10.6l10.3-9.2c-1.8-1.8-4.1-3.1-6.5-3.8C25.2,2.8,21.2,3.2,17.6,5.3
	L17.6,5.3L17.6,5.3z M41.2,15.2L41.2,15.2L41.2,15.2c0.4,2.4,0.3,4.8-0.3,7.1c-1.1,4-3.7,7.7-7.6,9.9c0,0-0.1,0.1-0.1,0.1
	c-3.9,2.2-8.4,2.7-12.4,1.6c-4-1.1-7.7-3.7-10-7.6c0,0-0.1-0.1-0.1-0.1C8.5,22.2,8,17.8,9.1,13.7c0.9-3.2,2.7-6.1,5.3-8.3l0,0l0,0
	c0.7-0.6,1.4-1.1,2.3-1.6c0,0,0.1,0,0.1-0.1c3.9-2.2,8.4-2.7,12.4-1.6c4,1.1,7.7,3.7,10,7.6c0,0,0,0.1,0.1,0.1
	C40.3,11.5,40.9,13.4,41.2,15.2L41.2,15.2z M39.6,16.4c0.2,1.8,0.1,3.7-0.4,5.4c-1,3.6-3.3,6.9-6.8,8.9l0,0c-3.5,2-7.5,2.4-11.2,1.5
	c-0.2,0-0.3-0.1-0.5-0.1l4.9-13.3L39.6,16.4L39.6,16.4z M27.8,16.6l8.7-7.8c0.4,0.6,0.9,1.2,1.2,1.8l0,0c0.7,1.3,1.3,2.6,1.6,4
	L27.8,16.6L27.8,16.6z M14.9,7.3L24,18.2l-4.9,13.3c-2.8-1.2-5.2-3.3-6.8-6.1c-2-3.5-2.4-7.5-1.5-11.2C11.5,11.6,12.9,9.2,14.9,7.3z
	"/>
</svg>
