<?xml version="1.0" encoding="utf-8"?>
<!-- Generator: Adobe Illustrator 25.4.1, SVG Export Plug-In . SVG Version: 6.00 Build 0)  -->
<svg version="1.1" id="Layer_1" xmlns="http://www.w3.org/2000/svg" xmlns:xlink="http://www.w3.org/1999/xlink" x="0px" y="0px"
	 width="90px" height="59.9px" viewBox="0 0 90 59.9" style="enable-background:new 0 0 90 59.9;" xml:space="preserve">
<style type="text/css">
	.st0{fill-rule:evenodd;clip-rule:evenodd;fill:#10487A;}
</style>
<path id="Path_6436" class="st0" d="M166.4-53.1h-10.3l-5,14.8h20.2L166.4-53.1L166.4-53.1z M191.5-15.8h-10.3l-5,14.8h20.2
	L191.5-15.8z M188-19.7h4.5c0.8,0,1.5,0.4,2,1c0.2,0.3,0.4,0.6,0.5,1c0.5,1.4,4.8,13.9,5.6,16.7h3.1c1.1,0,2,0.8,2,1.9s-0.8,2-1.9,2
	h-0.1h-84.8c-1.1,0-1.9-0.9-1.9-2c0-1,0.9-1.9,1.9-1.9h3.1l5.6-16.6c0.1-0.4,0.3-0.8,0.5-1.1c0.5-0.7,1.2-1,2-1h4.5l5.6-16.6
	c0.1-0.4,0.3-0.8,0.5-1.1c0.5-0.6,1.2-1,2-1h4.5l5.6-16.6c0.1-0.4,0.3-0.8,0.5-1.1c0.5-0.7,1.2-1,2-1h12.2c0.8,0,1.5,0.4,2,1l0,0
	c0.2,0.3,0.4,0.6,0.5,1c0.5,1.4,4.8,13.9,5.6,16.7h4.4c0.8,0,1.5,0.4,2,1c0.2,0.3,0.4,0.7,0.5,1.1L188-19.7L188-19.7z M173.8-5.9
	l-3.3-9.9h6.7L173.8-5.9L173.8-5.9z M148.7-5.9l3.3-9.8h-6.6C146.2-13.4,147.6-9.3,148.7-5.9L148.7-5.9z M161.9-15.8h-5.8l-5,14.8
	h20.2l-5-14.8H161.9z M136.8-15.8H131L126-1h20.2l-5-14.8H136.8L136.8-15.8z M161.2-24.6l3.3-9.8h-6.6
	C158.7-32.1,160.1-28,161.2-24.6L161.2-24.6z M178.9-34.5h-10.3l-5,14.8h20.2L178.9-34.5z M149.4-34.5h-5.8l-5,14.8h20.2l-5-14.8
	H149.4z"/>
<path id="Path_6439" class="st0" d="M80.3-38.3c0,1.1-0.9,1.9-1.9,1.9H16.6c-1.1,0-1.9-0.9-1.9-1.9l0,0v-3h-1.6
	c-0.2,0-0.4,0-0.6,0.1c-0.2,0.1-0.4,0.3-0.5,0.4c-0.2,0.2-0.3,0.5-0.4,0.7l0,0c-0.1,0.3-0.1,0.6-0.1,0.9l1.1,16.9
	c0,0.5,0.2,1,0.6,1.4c0.3,0.3,0.6,0.5,1,0.5h65.6c0.2,0,0.5-0.1,0.7-0.2c0.3-0.2,0.5-0.5,0.7-0.8l11.4-20H80.3V-38.3L80.3-38.3z
	 M66.5-50v-6h-16v6H66.5L66.5-50z M46.7-50v-7.9c0-1.1,0.9-1.9,1.9-1.9l0,0h19.8c1.1,0,1.9,0.9,1.9,1.9v7.9h8c1.1,0,1.9,0.9,1.9,1.9
	l0,0v3h15.6c1.1,0,1.9,0.9,1.9,1.9c0,0.3-0.1,0.7-0.2,0.9l-13,22.8c-0.5,0.9-1.1,1.6-2,2.1c-0.8,0.5-1.8,0.8-2.8,0.8H14.2
	c-1.4,0-2.8-0.6-3.8-1.7c-1-1-1.6-2.4-1.6-3.8L7.7-38.9c0-0.8,0-1.5,0.3-2.3c0.2-0.7,0.6-1.4,1.1-2s1.1-1.1,1.8-1.4
	c0.7-0.3,1.5-0.5,2.2-0.5h1.6v-8.5c0-1.1,0.9-1.9,1.9-1.9l0,0h8.5v-11c0-1.1,0.9-1.9,1.9-1.9h11.7c1.1,0,1.9,0.9,1.9,1.9V-50H46.7z
	 M60.4-46.2h16v6h-16V-46.2z M40.6-46.2h16v6h-16V-46.2L40.6-46.2z M25.1-51.7v11.5h-6.6v-11.5H25.1z M29-40.3v-24.4h7.8v24.4
	L29-40.3z"/>
<path class="st0" d="M43.7,49.3c2.6,0,5.1-0.5,7.4-1.5c2.4-1,4.5-2.4,6.3-4.2c1.8-1.8,3.2-3.9,4.2-6.3c0.9-2.3,1.5-4.8,1.5-7.4
	c0-2.6-0.5-5.1-1.5-7.4c-1-2.4-2.4-4.5-4.2-6.3c-1.8-1.8-3.9-3.2-6.3-4.2c-2.3-0.9-4.8-1.5-7.4-1.5c-2.6,0-5.1,0.5-7.4,1.5
	c-2.4,1-4.5,2.4-6.3,4.2c-1.8,1.8-3.2,3.9-4.2,6.3c-0.9,2.3-1.5,4.8-1.5,7.4c0,2.6,0.5,5.1,1.5,7.4c1,2.4,2.4,4.5,4.2,6.3
	c1.8,1.8,3.9,3.2,6.3,4.2C38.5,48.8,41,49.3,43.7,49.3L43.7,49.3z M52.2,50.5c2.7-1.1,5.2-2.8,7.2-4.8c2-2,3.7-4.5,4.8-7.2
	c1.1-2.6,1.7-5.5,1.7-8.5c0-3-0.6-5.9-1.7-8.5c-1.1-2.7-2.8-5.2-4.8-7.2c-2-2-4.5-3.7-7.2-4.8c-2.6-1.1-5.5-1.7-8.5-1.7
	c-3,0-5.9,0.6-8.5,1.7c-2.7,1.1-5.2,2.8-7.2,4.8c-2,2-3.7,4.5-4.8,7.2c-1.1,2.6-1.7,5.5-1.7,8.5c0,3,0.6,5.9,1.7,8.5
	c1.1,2.7,2.8,5.2,4.8,7.2c2,2,4.5,3.7,7.2,4.8c2.6,1.1,5.5,1.7,8.5,1.7C46.7,52.2,49.6,51.6,52.2,50.5L52.2,50.5z M43.7,4.1
	c-14.3,0-25.8,11.6-25.8,25.8c0,7.1,2.9,13.6,7.6,18.3c4.7,4.7,11.1,7.6,18.3,7.6c7.1,0,13.6-2.9,18.3-7.6
	c4.7-4.7,7.6-11.1,7.6-18.3c0-7.1-2.9-13.6-7.6-18.3S50.8,4.1,43.7,4.1L43.7,4.1z M14.9,29.9c0,7.9,3.2,15.1,8.4,20.3
	c5.2,5.2,12.4,8.4,20.3,8.4s15.1-3.2,20.3-8.4c5.2-5.2,8.4-12.4,8.4-20.3c0-7.9-3.2-15.1-8.4-20.3c-5.2-5.2-12.4-8.4-20.3-8.4
	C27.8,1.2,14.9,14.1,14.9,29.9L14.9,29.9z"/>
<g>
	<text transform="matrix(1 0 0 1 -70.9507 -13.416)" style="font-family:'Montserrat-Bold'; font-size:12px;">G</text>
</g>
<path class="st0" d="M49.4,29.6h4.8v9.1c-1,0.8-2.3,1.4-3.6,1.9c-1.4,0.5-2.7,0.8-4.2,0.9V45h-3.2v-3.6c-2-0.3-3.8-0.9-5.4-1.9
	c-1.6-1-2.8-2.4-3.7-4c-0.9-1.6-1.3-3.5-1.3-5.5s0.4-3.8,1.3-5.5c0.9-1.6,2.1-3,3.7-4c1.6-1,3.4-1.7,5.4-2v-3.6h3.2v3.5
	c1.7,0.1,3.3,0.5,4.6,1.2c1.4,0.7,2.6,1.5,3.5,2.7l-3.3,3.1c-1.4-1.5-3-2.3-4.8-2.5v14.2c1-0.1,2.1-0.4,3-0.9V29.6z M39.5,34.4
	c0.9,1.2,2.2,2.1,3.7,2.5V23.1c-1.6,0.4-2.8,1.3-3.7,2.5s-1.4,2.7-1.4,4.4C38.1,31.7,38.6,33.2,39.5,34.4z"/>
</svg>
