<?xml version="1.0" encoding="utf-8"?>
<!-- Generator: Adobe Illustrator 25.4.1, SVG Export Plug-In . SVG Version: 6.00 Build 0)  -->
<svg version="1.1" id="Layer_1" xmlns="http://www.w3.org/2000/svg" xmlns:xlink="http://www.w3.org/1999/xlink" x="0px" y="0px"
	 width="93.3px" height="78.7px" viewBox="0 0 93.3 78.7" style="enable-background:new 0 0 93.3 78.7;" xml:space="preserve">
<style type="text/css">
	.st0{fill-rule:evenodd;clip-rule:evenodd;fill:#9A1C1F;}
</style>
<path class="st0" d="M19.6,29.2c0.8,0,1.4-0.3,1.9-0.8c0.5-0.5,0.8-1.2,0.8-1.9c0-0.8-0.3-1.5-0.8-1.9c-0.5-0.5-1.2-0.8-1.9-0.8
	c-0.8,0-1.5,0.3-1.9,0.8l0,0c-0.5,0.5-0.8,1.2-0.8,2c0,0.7,0.3,1.4,0.7,1.9l0.1,0.1C18.1,28.9,18.8,29.2,19.6,29.2L19.6,29.2z
	 M72.4,58.9c0.8,0,1.5-0.3,1.9-0.8c0.5-0.5,0.8-1.2,0.8-1.9c0-0.8-0.3-1.5-0.8-1.9c-0.5-0.5-1.2-0.8-1.9-0.8c-0.8,0-1.4,0.3-1.9,0.8
	c-0.5,0.5-0.8,1.2-0.8,1.9c0,0.8,0.3,1.4,0.8,1.9C71,58.6,71.7,58.9,72.4,58.9L72.4,58.9z M67.5,61.1c1.3,1.3,3,2.1,5,2.1
	c1.9,0,3.7-0.8,5-2.1c1.3-1.3,2.1-3,2.1-5c0-1.9-0.8-3.7-2.1-5c-1.3-1.3-3-2.1-5-2.1c-1.2,0-2.3,0.3-3.3,0.8l-7-6.3V7.5h17.7
	c0.8,0,1.5,0.3,2,0.8c0.5,0.5,0.8,1.2,0.8,2v58c0,0.8-0.3,1.5-0.8,2c-0.5,0.5-1.2,0.8-2,0.8H62.1V49.4l4,3.6c-0.5,1-0.7,2-0.7,3.2
	C65.4,58.1,66.2,59.9,67.5,61.1L67.5,61.1z M46.2,34.6c0.8,0,1.4-0.3,1.9-0.8v0l0.1-0.1c0.5-0.5,0.7-1.2,0.7-1.9
	c0-0.7-0.3-1.4-0.7-1.9l-0.1-0.1c-0.5-0.5-1.2-0.8-1.9-0.8c-0.8,0-1.4,0.3-1.9,0.8c-0.5,0.5-0.8,1.2-0.8,1.9c0,0.8,0.3,1.4,0.8,1.9
	C44.8,34.3,45.5,34.6,46.2,34.6L46.2,34.6z M41.3,36.8c1.3,1.3,3,2.1,5,2.1c1.2,0,2.3-0.3,3.3-0.8l8.3,7.5v25.6H35.4V31.7l3.8,0.7
	C39.4,34.2,40.1,35.7,41.3,36.8L41.3,36.8z M52.5,35c0.5-0.9,0.7-2,0.7-3.1c0-1.9-0.7-3.6-1.9-4.8l-0.1-0.1c-1.3-1.3-3-2.1-5-2.1
	c-1.9,0-3.7,0.8-5,2.1c-0.4,0.4-0.8,0.9-1.1,1.4l-4.8-0.9V7.5h22.5v32.3L52.5,35L52.5,35z M6.4,32.3V10.4c0-2,0.8-3.7,2.1-5
	s3.1-2.1,5-2.1h19.8H60h19.8c2,0,3.7,0.8,5,2.1c1.3,1.3,2.1,3.1,2.1,5v58c0,2-0.8,3.7-2.1,5c-1.3,1.3-3.1,2.1-5,2.1h-66
	c0,0-0.1,0-0.1,0c0,0-0.1,0-0.1,0c-2,0-3.7-0.8-5-2.1c-1.3-1.3-2.1-3.1-2.1-5V32.3L6.4,32.3z M13.5,71.2c-0.8,0-1.5-0.3-2-0.8
	c-0.5-0.5-0.8-1.2-0.8-2V32.3V10.4c0-0.8,0.3-1.5,0.8-2c0.5-0.5,1.2-0.8,2-0.8h17.7v19.1l-4.6-0.9c-0.2-1.6-0.9-3.1-2-4.2
	c-1.3-1.3-3-2.1-5-2.1c-1.9,0-3.7,0.8-5,2.1v0c-1.3,1.3-2.1,3-2.1,5c0,1.9,0.7,3.6,1.9,4.8l0.1,0.1c1.3,1.3,3,2.1,5,2.1
	c1.9,0,3.7-0.8,5-2.1c0.5-0.5,0.8-1,1.2-1.5l5.4,1v40.2H13.8c0,0-0.1,0-0.1,0C13.6,71.2,13.5,71.2,13.5,71.2z"/>
</svg>
