<?xml version="1.0" encoding="utf-8"?>
<!-- Generator: Adobe Illustrator 25.4.1, SVG Export Plug-In . SVG Version: 6.00 Build 0)  -->
<svg version="1.1" id="Layer_1" xmlns="http://www.w3.org/2000/svg" xmlns:xlink="http://www.w3.org/1999/xlink" x="0px" y="0px"
	 width="26.2px" height="23.2px" viewBox="0 0 26.2 23.2" style="enable-background:new 0 0 26.2 23.2;" xml:space="preserve">
<style type="text/css">
	.st0{fill:#53A9D5;}
</style>
<g id="Group_201" transform="translate(0 0)">
	<path id="icon_arrow-right-circle-2" class="st0" d="M13.1,22.6c-6.1,0-11-4.9-11-10.9c0,0,0,0,0-0.1c0-6.1,4.9-11,10.9-11
		c0,0,0,0,0.1,0c6.1,0,11,4.9,11,10.9c0,0,0,0,0,0.1C24.1,17.7,19.2,22.6,13.1,22.6C13.1,22.6,13.1,22.6,13.1,22.6z M13.1,2.6
		c-5,0-9,4-9,9s4,9,9,9s9-4,9-9C22.1,6.6,18.1,2.6,13.1,2.6z M13.1,16.6c-0.3,0-0.5-0.1-0.7-0.3c-0.4-0.4-0.4-1,0-1.4c0,0,0,0,0,0
		l2.3-2.3H9.1c-0.6,0-1-0.4-1-1s0.4-1,1-1h5.6l-2.3-2.3c-0.4-0.4-0.4-1,0-1.4c0,0,0,0,0,0c0.4-0.4,1-0.4,1.4,0c0,0,0,0,0,0l4,4
		c0.1,0.1,0.2,0.2,0.2,0.3c0,0,0,0.1,0,0.1c0,0.1,0.1,0.2,0.1,0.3c0,0.1,0,0.3-0.1,0.4c0,0.1-0.1,0.2-0.2,0.3l-4,4
		C13.6,16.5,13.4,16.6,13.1,16.6z"/>
</g>
</svg>
