<svg xmlns="http://www.w3.org/2000/svg" xmlns:xlink="http://www.w3.org/1999/xlink" width="40" height="48" viewBox="0 0 40 48">
  <defs>
    <clipPath id="clip-path">
      <rect id="Rectángulo_2079" data-name="Rectángulo 2079" width="36" height="44"/>
    </clipPath>
    <clipPath id="clip-ICO_Infoproyecto">
      <rect width="40" height="48"/>
    </clipPath>
  </defs>
  <g id="ICO_Infoproyecto" clip-path="url(#clip-ICO_Infoproyecto)">
    <rect width="40" height="48" fill="#fff"/>
    <g id="Grupo_1" data-name="Grupo 1" transform="translate(2 2)">
      <g id="Grupo_3485" data-name="Grupo 3485" transform="translate(0 0)" clip-path="url(#clip-path)">
        <path id="Trazado_7526" data-name="Trazado 7526" d="M3.451,1.032h6.906A1.062,1.062,0,0,1,11.424,0H24.576a1.066,1.066,0,0,1,1.072,1.032h6.906a3.457,3.457,0,0,1,2.433,1l0,0A3.383,3.383,0,0,1,36,4.448V40.584A3.406,3.406,0,0,1,34.992,43l-.074.064A3.442,3.442,0,0,1,32.554,44H3.451a3.457,3.457,0,0,1-2.433-1l0,0A3.4,3.4,0,0,1,0,40.584V4.448A3.381,3.381,0,0,1,1.013,2.035a3.46,3.46,0,0,1,2.438-1m6.9,25.674h-.1a1.059,1.059,0,1,0,0,2.118h.1a1.059,1.059,0,1,0,0-2.118m0-5.794h-.1a1.059,1.059,0,1,0,0,2.118h.1a1.059,1.059,0,1,0,0-2.118m0-5.794h-.1a1.059,1.059,0,1,0,0,2.118h.1a1.059,1.059,0,1,0,0-2.118m15.4,0H14.314a1.059,1.059,0,1,0,0,2.118H25.753a1.059,1.059,0,1,0,0-2.118m0,5.794H14.314a1.059,1.059,0,1,0,0,2.118H25.753a1.059,1.059,0,1,0,0-2.118m-2.616,5.794H14.314a1.059,1.059,0,1,0,0,2.118h8.823a1.059,1.059,0,1,0,0-2.118M12.5,2.118V6.232H23.5V2.118ZM25.648,5.126h4.995a1.065,1.065,0,0,1,1.072,1.057V38.751a1.069,1.069,0,0,1-1.072,1.062H5.362A1.069,1.069,0,0,1,4.29,38.751V6.183A1.065,1.065,0,0,1,5.362,5.126h4.995V3.15H3.451a1.314,1.314,0,0,0-.923.383,1.27,1.27,0,0,0-.387.914V40.584a1.286,1.286,0,0,0,.382.914l0,0a1.308,1.308,0,0,0,.923.374h29.1a1.307,1.307,0,0,0,.884-.339l.04-.039a1.3,1.3,0,0,0,.382-.914V4.448a1.282,1.282,0,0,0-.377-.914l0,0a1.321,1.321,0,0,0-.923-.378H25.648ZM10.357,7.244H6.429V37.695H29.571V7.244H25.648v.044A1.069,1.069,0,0,1,24.576,8.35H11.424a1.065,1.065,0,0,1-1.067-1.062Z" transform="translate(0 0.002)" fill-rule="evenodd"/>
      </g>
    </g>
  </g>
</svg>
