<?xml version="1.0" encoding="utf-8"?>
<!-- Generator: Adobe Illustrator 26.1.0, SVG Export Plug-In . SVG Version: 6.00 Build 0)  -->
<svg version="1.1" id="Capa_1" xmlns="http://www.w3.org/2000/svg" xmlns:xlink="http://www.w3.org/1999/xlink" x="0px" y="0px"
	 width="90px" height="78.7px" viewBox="0 0 90 78.7" style="enable-background:new 0 0 90 78.7;" xml:space="preserve">
<style type="text/css">
	.st0{fill-rule:evenodd;clip-rule:evenodd;fill:#88CFE0;}
</style>
<path class="st0" d="M53.3,19.8c-1.8-1.8-4-3.3-6.3-4.2c-2.3-1-4.8-1.5-7.5-1.5c-2.7,0-5.2,0.5-7.5,1.5c-2.4,1-4.5,2.4-6.3,4.2
	c-1.8,1.8-3.3,4-4.2,6.3c-1,2.3-1.5,4.8-1.5,7.5c0,2.7,0.5,5.2,1.5,7.5c0.8,1.9,1.8,3.6,3.1,5.1c0.8-2.6,2.1-4.8,4-6.7v0
	c1.2-1.2,2.6-2.2,4.1-2.9c-0.2-0.1-0.3-0.3-0.5-0.4c-1.9-1.9-3-4.5-3-7.4c0-2.9,1.2-5.5,3.1-7.4l0,0c1.9-1.9,4.5-3,7.4-3
	c2.9,0,5.5,1.2,7.4,3c1.9,1.9,3,4.5,3,7.4s-1.2,5.5-3,7.4l-0.1,0.1c-0.1,0.1-0.2,0.2-0.4,0.3c1.5,0.8,2.9,1.7,4.1,2.9
	c1.8,1.8,3.2,4.1,4,6.7c1.3-1.5,2.3-3.3,3.1-5.1c1-2.3,1.5-4.8,1.5-7.5c0-2.7-0.5-5.2-1.5-7.5C56.5,23.8,55.1,21.6,53.3,19.8
	L53.3,19.8z M39.4,35.1c-1.7,0-3.2-0.7-4.4-1.8c-1.1-1.1-1.8-2.7-1.8-4.4c0-1.7,0.7-3.3,1.8-4.4h0c1.1-1.1,2.7-1.8,4.4-1.8
	c1.7,0,3.3,0.7,4.4,1.8c1.1,1.1,1.8,2.7,1.8,4.4c0,1.7-0.7,3.3-1.8,4.4l-0.1,0.1C42.6,34.4,41.1,35.1,39.4,35.1L39.4,35.1L39.4,35.1
	L39.4,35.1L39.4,35.1z M28,49.6c0.3-2.7,1.5-5.2,3.3-7l0,0c2.1-2,4.9-3.3,8-3.3h0h0h0c3.1,0,5.9,1.3,8,3.3c1.8,1.8,3.1,4.3,3.3,7
	c-1.2,0.9-2.5,1.6-3.9,2.2c-2.3,1-4.8,1.5-7.5,1.5c-2.7,0-5.2-0.5-7.5-1.5C30.5,51.2,29.2,50.5,28,49.6L28,49.6z M24.9,52.4
	c-0.2-0.1-0.3-0.2-0.5-0.4c-0.6-0.5-1.1-0.9-1.6-1.4l-0.1-0.1c-2.2-2.2-3.9-4.8-5.1-7.7c-1.2-2.8-1.8-5.9-1.8-9.1
	c0-3.2,0.6-6.3,1.8-9.1c1.2-2.9,3-5.5,5.1-7.7l0,0c2.2-2.2,4.8-3.9,7.7-5.1c2.8-1.2,5.9-1.8,9.1-1.8c3.2,0,6.3,0.6,9.1,1.8
	c2.9,1.2,5.5,3,7.7,5.1l0,0c2.2,2.2,3.9,4.8,5.1,7.7c1.2,2.8,1.8,5.9,1.8,9.1c0,3.2-0.6,6.3-1.8,9.1c-1.2,2.9-2.9,5.4-5,7.6
	l-0.1,0.1C55.6,51,55,51.5,54.4,52c-0.1,0.1-0.3,0.2-0.4,0.3c-1.7,1.3-3.5,2.4-5.5,3.2c-2.8,1.2-5.9,1.8-9.1,1.8
	c-3.2,0-6.3-0.6-9.1-1.8C28.4,54.8,26.5,53.7,24.9,52.4L24.9,52.4z M67.5,50.6l13.9,13.9c1.3,1.3,2,3.1,2,4.8c0,1.7-0.7,3.5-2,4.8
	l-1.6,1.6l-0.1,0.1c-1.3,1.2-2.8,1.9-4.3,2c-1.6,0.1-3.2-0.5-4.5-1.8l0,0L56.5,61.7c-5,3-10.8,4.8-17,4.8c-9,0-17.2-3.7-23.2-9.6
	c-5.9-5.9-9.6-14.1-9.6-23.2c0-9,3.7-17.2,9.6-23.2c5.9-5.9,14.1-9.6,23.2-9.6c9.1,0,17.2,3.7,23.2,9.6c5.9,5.9,9.6,14.1,9.6,23.2
	C72.2,39.8,70.5,45.6,67.5,50.6L67.5,50.6z M59.9,59.2L73.7,73v0c0.4,0.4,0.9,0.6,1.3,0.6c0.5,0,1.1-0.3,1.6-0.9l1.7-1.7
	c0.5-0.5,0.7-1.2,0.7-1.8c0-0.7-0.3-1.3-0.7-1.8L65.1,54.1c-0.8,1-1.6,1.9-2.5,2.8C61.7,57.7,60.9,58.5,59.9,59.2L59.9,59.2z
	 M39.4,5.2c7.8,0,15,3.2,20.1,8.3c5.1,5.1,8.3,12.3,8.3,20.1c0,7.9-3.2,15-8.3,20.1c-5.1,5.1-12.2,8.3-20.1,8.3
	c-7.8,0-15-3.2-20.1-8.3C14.2,48.6,11,41.5,11,33.7c0-7.8,3.2-15,8.3-20.1C24.5,8.4,31.6,5.2,39.4,5.2z"/>
</svg>
