<?xml version="1.0" encoding="utf-8"?>
<!-- Generator: Adobe Illustrator 25.4.1, SVG Export Plug-In . SVG Version: 6.00 Build 0)  -->
<svg version="1.1" id="Layer_1" xmlns="http://www.w3.org/2000/svg" xmlns:xlink="http://www.w3.org/1999/xlink" x="0px" y="0px"
	 width="90px" height="59.9px" viewBox="0 0 90 59.9" style="enable-background:new 0 0 90 59.9;" xml:space="preserve">
<style type="text/css">
	.st0{fill-rule:evenodd;clip-rule:evenodd;fill:#10487A;}
</style>
<path class="st0" d="M52.6,38.7c-2.5,1.6-4.8,2.7-7.2,2.8c-2.5,0.1-5-0.7-8-2.8l-0.7,0.4c-0.1,0.1-0.3,0.2-0.5,0.2
	c-0.8,0.2-1.6,0.4-2.4,0.6l0,8.1l22.4,0l0-8.1c-0.8-0.2-1.6-0.4-2.4-0.6c-0.1,0-0.3-0.1-0.4-0.2L52.6,38.7L52.6,38.7z M31.2,40.8
	c-1.1,0.5-2.1,1-2.9,1.6c-1.5,1.1-2.4,2.5-2.4,4.1v8.2l0,0l0,0c0,0,0,0,0,0h5.2l0-5.4c0,0,0-0.1,0-0.1c0,0,0-0.1,0-0.1L31.2,40.8
	L31.2,40.8z M33.8,54.8h22.4l0-4.2l-22.4,0V54.8L33.8,54.8z M58.8,54.8H64c0,0,0,0,0,0h0c0,0,0,0,0,0h0v-8.2h0c0-1.6-0.9-3-2.4-4.1
	c-0.8-0.6-1.8-1.1-2.8-1.6l0,8.4v0.1v0.1L58.8,54.8L58.8,54.8z M51.3,6.4v8.1c1.4,0.2,2.7,0.5,3.7,0.8C55,11.4,54.6,7.9,51.3,6.4
	L51.3,6.4z M50,16.9L50,16.9c-0.2,0-0.3,0-0.4,0c-1.5-0.1-3.2-0.2-4.9-0.2c-1.6,0-3.2,0.1-4.6,0.2c-0.1,0-0.2,0-0.3,0l0,0
	c-1.8,0.2-3.4,0.5-4.5,1c0.1,0.1,0.1,0.2,0.2,0.3c0.1,0.2,0.3,0.4,0.3,0.5c3,0.4,5.9,0.6,8.9,0.6c3,0,6-0.2,9.1-0.7l0.8-0.8
	C53.5,17.4,51.9,17.1,50,16.9L50,16.9z M48.7,14.2V5c-1.3-0.4-2.5-0.5-3.8-0.5c-1.2,0-2.5,0.2-3.8,0.5v9.2c1.2-0.1,2.4-0.1,3.6-0.1
	C46,14.1,47.4,14.1,48.7,14.2L48.7,14.2z M38.5,14.5V6.4c-3.4,1.5-3.8,5-3.7,9C35.8,15,37.1,14.7,38.5,14.5L38.5,14.5z M52.8,4.2
	c5,2.5,4.9,7.6,4.8,12.8c0,0.1,0,0.3,0,0.4l0,0.5c0,0.3-0.1,0.7-0.4,0.9L57.1,19c0,0.1,0,0.2,0,0.2l0,0.5c0,0.4,0,0.9,0,0.9
	c0,0.1,0,0.2,0,0.3h0c0,1.8-0.3,3.5-0.9,5.2c-0.6,1.7-1.5,3.4-2.7,4.8c-0.2,0.3-0.4,0.5-0.7,0.8c0,0.2,0,0.5,0.1,0.7
	c0.1,1.2,0.2,2.7,0.3,3.5l1.3,0.8c3.5,0.7,6.5,1.9,8.7,3.6c2.2,1.6,3.5,3.7,3.5,6.2h0l0,8.2h0c0,0.7-0.3,1.4-0.8,1.9l0,0
	c-0.5,0.5-1.1,0.8-1.9,0.8H26c-0.7,0-1.4-0.3-1.9-0.8L24,56.6c-0.4-0.5-0.7-1.1-0.7-1.8v-8.2c0-2.5,1.3-4.6,3.5-6.2
	c2.2-1.6,5.2-2.8,8.7-3.5l1.4-0.9c0.1-0.8,0.2-2.3,0.3-3.5l0-0.7c-0.2-0.2-0.4-0.5-0.6-0.7c-1.1-1.4-2-3-2.7-4.8
	c-0.6-1.7-1-3.4-1-5.2c0-0.1,0-0.1,0-0.2c0-0.3,0-0.6,0-0.9l0-0.6l0-0.1c-0.5-0.2-0.7-0.7-0.7-1.2l0-0.9C32.1,11.8,32,6.6,37,4.2
	c0.1-0.4,0.4-0.7,0.8-0.9c2.5-1,4.8-1.5,7.1-1.5c2.3,0,4.7,0.5,7.1,1.6C52.4,3.6,52.7,3.9,52.8,4.2L52.8,4.2z M54.5,21.2
	c-3.3,0.5-6.5,0.7-9.7,0.7c-3.1,0-6.2-0.2-9.2-0.6c0,1.3,0.3,2.7,0.8,4c0.5,1.5,1.3,2.9,2.3,4.1c0.3,0.3,0.5,0.6,0.8,0.9
	c0,0,0,0,0.1,0.1c0.2,0.2,0.4,0.4,0.6,0.6l0,0l0,0l0,0l0,0l0,0l0,0l0,0l0,0l0,0l0,0l0,0l0,0l0,0l0,0l0,0l0,0l0,0l0,0
	c0.6,0.5,1.2,0.9,1.8,1.2l0,0c0.7,0.4,1.5,0.6,2.2,0.7h0l0.1,0l0,0l0,0l0,0l0,0l0,0h0l0,0l0,0l0,0h0l0,0h0h0l0,0h0h0h0h0h0h0h0h0
	l0,0h0l0,0h0l0,0l0,0h0l0,0h0l0,0h0l0,0l0,0l0,0l0,0l0,0l0,0l0,0l0,0l0,0l0,0l0,0l0,0l0,0l0,0l0,0l0,0l0,0h0l0,0h0l0,0l0,0l0,0l0,0
	l0.2,0l0,0l0,0h0l0,0l0,0c0.1,0,0.2,0,0.2-0.1l0,0l0,0l0,0l0,0l0,0l0.1,0l0,0c0.1,0,0.2-0.1,0.3-0.1v0l0,0l0,0l0,0l0,0
	c0.1,0,0.1-0.1,0.2-0.1l0,0l0,0l0,0l0,0l0,0l0.1,0l0,0l0,0l0,0l0.1,0l0,0l0,0l0,0l0,0l0,0l0,0l0,0h0l0,0l0,0l0,0l0,0l0,0l0,0l0,0
	l0,0l0,0l0,0l0,0l0,0l0,0l0,0l0,0l0,0l0,0l0,0l0,0l0,0l0,0l0,0h0l0,0l0,0l0,0l0,0l0,0l0,0l0,0l0.1-0.1l0,0l0,0l0,0l0.1,0l0,0l0,0
	l0,0l0,0l0,0l0,0l0,0l0,0l0,0l0.1,0l0,0l0,0l0,0l0,0l0,0l0,0l0,0l0,0l0,0c0.8-0.6,1.6-1.4,2.2-2.2c1-1.2,1.7-2.6,2.3-4.1
	C54.2,23.9,54.4,22.6,54.5,21.2L54.5,21.2z M39.3,36.8c0.1-0.7,0.2-1.8,0.3-2.9c0.5,0.3,1,0.6,1.5,0.9l0,0c1,0.5,2,0.8,3,0.9l0,0
	l0,0l0.2,0l0,0l0,0l0,0h0l0,0h0l0.1,0l0,0l0.1,0h0l0,0l0,0h0l0,0h0h0h0H45h0.1h0h0.1h0l0,0h0l0,0l0,0h0l0.1,0h0l0.1,0h0l0.1,0h0l0,0
	l0,0l0,0l0,0l0,0l0,0l0,0l0.1,0h0l0.1,0l0,0l0.1,0l0,0l0,0l0,0l0,0l0.1,0l0,0l0,0l0.1,0l0,0l0.1,0l0,0l0,0l0,0l0,0l0,0l0,0l0.1,0
	l0,0c1-0.2,2-0.6,2.9-1.1c0.3-0.2,0.6-0.3,0.8-0.5c0.1,1.1,0.2,2.1,0.3,2.8c-2,1.2-3.7,2-5.4,2.1C43.5,39,41.6,38.4,39.3,36.8z"/>
</svg>
