<?xml version="1.0" encoding="utf-8"?>
<!-- Generator: Adobe Illustrator 25.4.1, SVG Export Plug-In . SVG Version: 6.00 Build 0)  -->
<svg version="1.1" id="Layer_1" xmlns="http://www.w3.org/2000/svg" xmlns:xlink="http://www.w3.org/1999/xlink" x="0px" y="0px"
	 width="52.2px" height="50.4px" viewBox="0 0 52.2 50.4" style="enable-background:new 0 0 52.2 50.4;" xml:space="preserve">
<style type="text/css">
	.st0{fill-rule:evenodd;clip-rule:evenodd;fill:#9A1C1F;}
</style>
<path id="Path_6446" class="st0" d="M19.3,36c-0.7,0-1.3-0.6-1.3-1.3c0-0.7,0.6-1.3,1.3-1.3h5.5v-7h-2.7c-1.1,0-2.1-0.4-2.9-1.2
	l-0.1-0.1c-0.7-0.8-1.1-1.8-1.1-2.8v-3.9c0-1.1,0.4-2.1,1.2-2.9l0,0c0.8-0.8,1.8-1.2,2.9-1.2h2.7v-2.3c0-0.7,0.6-1.3,1.3-1.3
	c0.7,0,1.3,0.6,1.3,1.3v2.3h4.6c0.7,0,1.3,0.6,1.3,1.3c0,0.7-0.6,1.3-1.3,1.3h-4.6v7h2.7c1.1,0,2.1,0.4,2.9,1.2v0
	c0.8,0.8,1.2,1.8,1.2,2.9v3.9c0,1-0.4,2.1-1.1,2.8L33,34.8c-0.8,0.8-1.8,1.2-2.9,1.2h-2.7v2.3c0,0.7-0.6,1.3-1.3,1.3
	c-0.7,0-1.3-0.6-1.3-1.3V36L19.3,36z M26.1,42.2c9.3,0,16.8-7.6,16.8-16.9S35.3,8.4,26,8.5S9.2,16.1,9.2,25.4
	c0,6.8,4.1,12.9,10.4,15.5C21.7,41.7,23.9,42.2,26.1,42.2z M33.5,43.2c10-4.1,14.7-15.5,10.6-25.5C40,7.8,28.6,3.1,18.7,7.2
	c-4.8,2-8.6,5.8-10.6,10.6C4,27.7,8.7,39.1,18.6,43.2C23.4,45.2,28.8,45.2,33.5,43.2L33.5,43.2z M26.1,2.5
	C13.6,2.5,3.4,12.7,3.4,25.2s10.1,22.7,22.7,22.7s22.7-10.1,22.7-22.7c0-6-2.4-11.8-6.6-16C37.9,4.9,32.1,2.5,26.1,2.5z M0.9,25.2
	c0,13.9,11.3,25.2,25.2,25.2c13.9,0,25.2-11.3,25.2-25.2C51.3,11.3,40,0,26.1,0c0,0,0,0,0,0C12.2,0,0.9,11.2,0.9,25
	C0.9,25.1,0.9,25.1,0.9,25.2z M27.4,33.4h2.7c0.4,0,0.8-0.2,1.1-0.5l0.1,0c0.3-0.3,0.4-0.7,0.4-1.1V28c0-0.4-0.2-0.8-0.5-1.1h0
	c-0.3-0.3-0.7-0.5-1.1-0.5h-2.7V33.4L27.4,33.4z M24.8,17h-2.7c-0.4,0-0.8,0.2-1.1,0.5v0c-0.3,0.3-0.5,0.7-0.5,1.1v3.9
	c0,0.4,0.1,0.8,0.4,1l0,0c0.3,0.3,0.7,0.5,1.1,0.5h2.7L24.8,17z"/>
</svg>
