<?xml version="1.0" encoding="utf-8"?>
<!-- Generator: Adobe Illustrator 25.4.1, SVG Export Plug-In . SVG Version: 6.00 Build 0)  -->
<svg version="1.1" id="Layer_1" xmlns="http://www.w3.org/2000/svg" xmlns:xlink="http://www.w3.org/1999/xlink" x="0px" y="0px"
	 viewBox="0 0 90 59.9" style="enable-background:new 0 0 90 59.9;" xml:space="preserve">
<style type="text/css">
	.st0{fill-rule:evenodd;clip-rule:evenodd;fill:#10487A;}
</style>
<path class="st0" d="M39.4,15.5h11.3c1,0,1.8,0.8,1.8,1.8v9h9c1,0,1.8,0.8,1.8,1.8v11.3c0,1-0.8,1.8-1.8,1.8h-9v9
	c0,1-0.8,1.8-1.8,1.8H39.4c-1,0-1.8-0.8-1.8-1.8v-9h-9c-1,0-1.8-0.8-1.8-1.8V28.1c0-1,0.8-1.8,1.8-1.8h9v-9
	C37.5,16.3,38.4,15.5,39.4,15.5L39.4,15.5z M55.7,7.6V3.8c0-0.1,0-0.1-0.1-0.1l0,0c0,0-0.1,0-0.1,0H34.6c-0.1,0-0.1,0-0.1,0.1
	c0,0-0.1,0.1-0.1,0.1v3.7H55.7L55.7,7.6z M30.7,7.6H11.6c-1.6,0-3.1,0.7-4.1,1.7l0,0c-1.1,1.1-1.7,2.5-1.7,4.1V54
	c0,1.6,0.7,3.1,1.7,4.2c1.1,1.1,2.5,1.7,4.2,1.7h66.8c1.6,0,3.1-0.7,4.1-1.7l0,0c1.1-1.1,1.7-2.5,1.7-4.1V13.5
	c0-1.6-0.7-3.1-1.7-4.2c-1.1-1.1-2.5-1.7-4.2-1.7H59.3V3.8c0-1.1-0.4-2-1.1-2.7L58,1c-0.7-0.6-1.6-1-2.6-1H34.6
	c-1.1,0-2,0.4-2.7,1.1l0,0c-0.7,0.7-1.1,1.7-1.1,2.7V7.6L30.7,7.6z M78.4,11.2H57.5h-25H11.6c-0.6,0-1.2,0.2-1.6,0.6l0,0
	c-0.4,0.4-0.6,1-0.6,1.6V54c0,0.6,0.2,1.2,0.7,1.6c0.4,0.4,1,0.7,1.6,0.7h66.8c0.6,0,1.2-0.2,1.6-0.7c0.4-0.4,0.7-1,0.7-1.6V13.5
	c0-0.6-0.3-1.2-0.7-1.6C79.6,11.5,79,11.2,78.4,11.2L78.4,11.2z M48.8,19.1h-7.6v9c0,1-0.8,1.8-1.8,1.8h-9v7.6h9
	c1,0,1.8,0.8,1.8,1.8v9h7.6v-9c0-1,0.8-1.8,1.8-1.8h9v-7.6h-9c-1,0-1.8-0.8-1.8-1.8V19.1z"/>
</svg>
