<?xml version="1.0" encoding="utf-8"?>
<!-- Generator: Adobe Illustrator 25.4.1, SVG Export Plug-In . SVG Version: 6.00 Build 0)  -->
<svg version="1.1" id="Layer_1" xmlns="http://www.w3.org/2000/svg" xmlns:xlink="http://www.w3.org/1999/xlink" x="0px" y="0px"
	 width="93.3px" height="78.7px" viewBox="0 0 93.3 78.7" style="enable-background:new 0 0 93.3 78.7;" xml:space="preserve">
<style type="text/css">
	.st0{fill-rule:evenodd;clip-rule:evenodd;fill:#9A1C1F;}
</style>
<path class="st0" d="M9,74.5c-1.1,0-1.9-0.9-1.9-1.9c0-1.1,0.9-1.9,1.9-1.9h3.9V38.9h-0.4c-1,0-1.9-0.9-1.9-1.9v-5.8H9
	c-1.1,0-1.9-0.9-1.9-1.9v-5c0-0.7,0.4-1.4,1.1-1.7L45.8,4.4c0.5-0.2,1.1-0.3,1.7,0L85,22.5c0.7,0.3,1.2,1,1.2,1.8v5
	c0,1.1-0.9,1.9-1.9,1.9h-1.6V37c0,1.1-0.8,1.9-1.9,1.9h-0.4v31.7h3.9c1.1,0,1.9,0.9,1.9,1.9c0,1.1-0.9,1.9-1.9,1.9H9L9,74.5z
	 M29.7,38.9v31.7h8.5V38.9h-0.4c-1,0-1.9-0.9-1.9-1.9v-5.8H32V37c0,1.1-0.8,1.9-1.9,1.9H29.7L29.7,38.9z M28.2,31.2H14.4v3.9h13.8
	V31.2L28.2,31.2z M25.9,38.9h-9.1v31.7h9.1V38.9L25.9,38.9z M55.1,38.9v31.7h8.5V38.9h-0.4c-1,0-1.9-0.9-1.9-1.9v-5.8h-3.9V37
	c0,1.1-0.9,1.9-1.9,1.9H55.1L55.1,38.9z M53.5,31.2H39.8v3.9h13.8V31.2L53.5,31.2z M51.2,38.9h-9.1v31.7h9.1V38.9L51.2,38.9z
	 M76.5,38.9h-9.1v31.7h9.1V38.9L76.5,38.9z M65.1,31.2v3.9h13.8v-3.9H65.1L65.1,31.2z M10.9,27.4h1.6h17.6h7.7h17.6h7.7h17.6h1.6
	v-1.9L46.7,8.3L10.9,25.5V27.4z"/>
</svg>
