<?xml version="1.0" encoding="utf-8"?>
<!-- Generator: Adobe Illustrator 25.4.1, SVG Export Plug-In . SVG Version: 6.00 Build 0)  -->
<svg version="1.1" id="Layer_1" xmlns="http://www.w3.org/2000/svg" xmlns:xlink="http://www.w3.org/1999/xlink" x="0px" y="0px"
	 width="90px" height="59.9px" viewBox="0 0 90 59.9" style="enable-background:new 0 0 90 59.9;" xml:space="preserve">
<style type="text/css">
	.st0{fill-rule:evenodd;clip-rule:evenodd;fill:#10487A;}
</style>
<path class="st0" d="M52.6,8.9l2,0.8c0,0,0.1,0,0.1,0c0,0,0,0,0.1,0L59,7.5c0.6-0.3,1.2-0.4,1.8-0.3c0.6,0.1,1.1,0.4,1.6,0.8h0
	l4.5,4.5c0.4,0.4,0.7,1,0.8,1.6c0.1,0.6,0,1.2-0.3,1.8l-2.2,4.3c0,0,0,0,0,0.1c0,0,0,0,0,0.1l0.9,2.1c0,0,0,0,0,0.1c0,0,0,0,0.1,0
	l4.6,1.5c0.6,0.2,1.1,0.6,1.4,1l0,0c0.4,0.5,0.6,1.1,0.6,1.7v6.4c0,0.6-0.2,1.2-0.6,1.7v0c-0.3,0.5-0.8,0.8-1.5,1l-4.6,1.5
	c0,0,0,0-0.1,0c0,0,0,0,0,0.1l-0.9,2.1c0,0,0,0.1,0,0.1c0,0,0,0,0,0.1l2.2,4.3c0.3,0.6,0.4,1.2,0.3,1.8c-0.1,0.6-0.4,1.1-0.8,1.6
	l-4.5,4.5c-0.4,0.4-1,0.7-1.6,0.8c-0.6,0.1-1.2,0-1.8-0.3l-4.3-2.2c0,0,0,0-0.1,0c0,0,0,0-0.1,0L52.5,51c0,0,0,0-0.1,0
	c0,0,0,0,0,0.1l-1.5,4.7c-0.2,0.6-0.6,1.1-1,1.4c-0.5,0.4-1.1,0.6-1.7,0.6h-6.4c-0.6,0-1.2-0.2-1.7-0.6c-0.5-0.4-0.8-0.8-1-1.4
	l-1.5-4.7c0,0,0,0,0-0.1c0,0,0,0-0.1,0l-2.1-0.9c0,0-0.1,0-0.1,0c0,0,0,0-0.1,0L31,52.4c-0.6,0.3-1.2,0.4-1.8,0.3
	c-0.6-0.1-1.1-0.4-1.6-0.8l-4.5-4.5L23,47.2c-0.4-0.4-0.6-0.9-0.7-1.5c-0.1-0.6,0-1.2,0.3-1.8l2.2-4.3c0,0,0,0,0-0.1c0,0,0,0,0-0.1
	L24,37.4c0,0,0,0,0-0.1c0,0,0,0-0.1,0l-4.6-1.5c-0.6-0.2-1.1-0.6-1.5-1l-0.1-0.1c-0.3-0.5-0.5-1-0.5-1.6v-6.4c0-0.6,0.2-1.2,0.6-1.7
	v0c0.3-0.5,0.8-0.8,1.5-1l4.6-1.5c0,0,0,0,0.1,0c0,0,0,0,0-0.1l0.9-2.1c0,0,0-0.1,0-0.1c0,0,0,0,0-0.1l-2.2-4.3
	c-0.3-0.6-0.4-1.2-0.3-1.8c0.1-0.6,0.4-1.1,0.8-1.6l0,0L27.6,8c0.4-0.4,1-0.7,1.6-0.8c0.6-0.1,1.2,0,1.8,0.3l4.3,2.2
	c0,0,0.1,0,0.1,0c0,0,0,0,0.1,0l2.1-0.9l0,0c0,0,0,0,0-0.1c0.5-1.5,1-3.1,1.5-4.6c0.2-0.6,0.6-1.1,1-1.4c0.5-0.4,1.1-0.6,1.7-0.6
	h6.4c0.6,0,1.2,0.2,1.7,0.6c0.5,0.4,0.8,0.8,1,1.4l1.5,4.7c0,0,0,0,0,0.1C52.4,8.9,52.5,8.9,52.6,8.9L52.6,8.9L52.6,8.9z M45,42.5
	c3.5,0,6.6-1.4,8.9-3.7c2.3-2.3,3.7-5.4,3.7-8.9s-1.4-6.6-3.7-8.9c-2.3-2.3-5.4-3.7-8.9-3.7s-6.6,1.4-8.9,3.7
	c-2.3,2.3-3.7,5.4-3.7,8.9s1.4,6.6,3.7,8.9C38.4,41.1,41.5,42.5,45,42.5L45,42.5z M55.8,40.7c2.8-2.8,4.5-6.6,4.5-10.8
	c0-4.2-1.7-8-4.5-10.8c-2.8-2.8-6.6-4.5-10.8-4.5s-8,1.7-10.8,4.5c-2.8,2.8-4.5,6.6-4.5,10.8c0,4.2,1.7,8,4.5,10.8
	c2.8,2.8,6.6,4.5,10.8,4.5S53,43.5,55.8,40.7L55.8,40.7z M53.5,12.3l-2.1-0.9c-0.4-0.2-0.7-0.4-1-0.7c-0.3-0.3-0.5-0.7-0.6-1.1
	L48.3,5c0,0,0-0.1,0-0.1s-0.1,0-0.1,0h-6.4c0,0-0.1,0-0.1,0c0,0,0,0-0.1,0.1l-1.5,4.6c-0.1,0.4-0.3,0.8-0.6,1.1
	c-0.3,0.3-0.6,0.5-0.9,0.7l-0.1,0l-2.1,0.9c-0.4,0.2-0.8,0.2-1.2,0.2c-0.4,0-0.8-0.1-1.2-0.3l-4.3-2.2c0,0-0.1,0-0.1,0
	c0,0-0.1,0-0.1,0.1L25,14.5h0c0,0,0,0.1,0,0.1c0,0,0,0.1,0,0.1l2.2,4.3c0.2,0.4,0.3,0.8,0.3,1.2c0,0.4-0.1,0.8-0.2,1.2l-0.9,2.1
	c-0.2,0.4-0.4,0.7-0.7,1c-0.3,0.3-0.7,0.5-1.1,0.6L20,26.6c0,0-0.1,0-0.1,0.1c0,0,0,0.1,0,0.1v6.4c0,0,0,0.1,0,0.1l0,0
	c0,0,0,0,0.1,0.1l4.6,1.5c0.4,0.1,0.8,0.3,1.1,0.6c0.3,0.3,0.5,0.6,0.7,1l0.9,2.1c0.2,0.4,0.2,0.8,0.2,1.2c0,0.4-0.1,0.8-0.3,1.2
	L25,45.2c0,0,0,0.1,0,0.1c0,0,0,0,0,0.1l4.6,4.5c0,0,0.1,0,0.1,0.1c0,0,0.1,0,0.1,0l4.3-2.2c0.4-0.2,0.8-0.3,1.2-0.3
	c0.4,0,0.8,0.1,1.2,0.2l2.1,0.9c0.4,0.2,0.7,0.4,1,0.7c0.3,0.3,0.5,0.7,0.6,1.1l1.5,4.6c0,0,0,0.1,0.1,0.1c0,0,0.1,0,0.1,0h6.4
	c0,0,0.1,0,0.1,0c0,0,0,0,0.1-0.1l1.5-4.6c0.1-0.4,0.3-0.8,0.6-1.1c0.3-0.3,0.6-0.5,1-0.7l2.1-0.9c0.4-0.2,0.8-0.2,1.2-0.2
	c0.4,0,0.8,0.1,1.2,0.3l4.3,2.2c0,0,0.1,0,0.1,0c0,0,0.1,0,0.1-0.1l4.5-4.5c0,0,0-0.1,0.1-0.1c0,0,0-0.1,0-0.1l-2.2-4.3
	c-0.2-0.4-0.3-0.8-0.3-1.2c0-0.4,0.1-0.8,0.2-1.2l0.9-2.1c0.2-0.4,0.4-0.7,0.7-1c0.3-0.3,0.7-0.5,1.1-0.6l4.6-1.5c0,0,0.1,0,0.1-0.1
	c0,0,0,0,0-0.1v-6.4c0,0,0-0.1,0-0.1v0c0,0,0,0-0.1-0.1l-4.6-1.5c-0.4-0.1-0.8-0.3-1.1-0.6c-0.3-0.3-0.5-0.6-0.7-1l-0.9-2.1
	c-0.2-0.4-0.2-0.8-0.2-1.2c0-0.4,0.1-0.8,0.3-1.2l2.2-4.3c0,0,0-0.1,0-0.1c0,0,0-0.1-0.1-0.1L60.5,10l0,0c0,0-0.1,0-0.1,0
	c0,0-0.1,0-0.1,0l-4.3,2.2c-0.4,0.2-0.8,0.3-1.2,0.3C54.3,12.5,53.9,12.4,53.5,12.3L53.5,12.3z M45,23.2c-1.9,0-3.6,0.8-4.8,2v0
	c-1.2,1.2-2,2.9-2,4.8c0,1.9,0.8,3.6,2,4.8c1.2,1.2,2.9,2,4.8,2c1.8,0,3.5-0.7,4.7-1.9l0.1-0.1c1.2-1.2,2-2.9,2-4.8
	c0-1.9-0.8-3.6-2-4.8C48.6,23.9,46.9,23.2,45,23.2L45,23.2z M47.9,27.1c-0.7-0.7-1.8-1.2-2.9-1.2c-1.1,0-2.1,0.5-2.9,1.2l0,0
	c-0.7,0.7-1.2,1.8-1.2,2.9c0,1.1,0.5,2.1,1.2,2.9c0.7,0.7,1.8,1.2,2.9,1.2c1.1,0,2.1-0.4,2.8-1.1l0.1-0.1c0.7-0.7,1.2-1.8,1.2-2.9
	C49.1,28.8,48.6,27.8,47.9,27.1z"/>
</svg>
