<?xml version="1.0" encoding="utf-8"?>
<!-- Generator: Adobe Illustrator 26.1.0, SVG Export Plug-In . SVG Version: 6.00 Build 0)  -->
<svg version="1.1" id="Layer_1" xmlns="http://www.w3.org/2000/svg" xmlns:xlink="http://www.w3.org/1999/xlink" x="0px" y="0px"
	 width="90px" height="78.7px" viewBox="0 0 90 78.7" style="enable-background:new 0 0 90 78.7;" xml:space="preserve">
<style type="text/css">
	.st0{fill-rule:evenodd;clip-rule:evenodd;fill:#88CFE0;}
</style>
<path class="st0" d="M23.5,3.3l29.2,0c0.1,0,0.1,0,0.2,0c0.6,0,1.1,0.3,1.5,0.7L72,21.7c0.4,0.4,0.7,0.9,0.7,1.4c0,0.1,0,0.1,0,0.2
	l0,46c0,1.7-0.7,3.2-1.8,4.3c-1.1,1.1-2.6,1.8-4.3,1.8H23.5l0,0c-1.7,0-3.2-0.7-4.3-1.8c-1.1-1.1-1.8-2.6-1.8-4.3h0V9.4
	c0-1.7,0.7-3.2,1.8-4.3C20.2,4,21.8,3.3,23.5,3.3L23.5,3.3L23.5,3.3L23.5,3.3z M29.4,50.4h18.1c1.1,0,1.9-0.9,1.9-1.9
	c0-1.1-0.9-1.9-1.9-1.9H29.4c-1,0-1.9,0.9-1.9,1.9C27.5,49.5,28.3,50.4,29.4,50.4L29.4,50.4z M29.4,41.3h29.4c1.1,0,1.9-0.8,1.9-1.9
	s-0.9-1.9-1.9-1.9H29.4c-1,0-1.9,0.9-1.9,1.9S28.3,41.3,29.4,41.3L29.4,41.3z M29.4,32.1h29.4c1.1,0,1.9-0.9,1.9-1.9
	c0-1.1-0.9-1.9-1.9-1.9H29.4c-1,0-1.9,0.9-1.9,1.9C27.5,31.3,28.3,32.1,29.4,32.1L29.4,32.1z M58.7,57.1c-0.8,0-1.6,0.3-2.2,0.9
	c-0.6,0.6-0.9,1.3-0.9,2.2c0,0.9,0.3,1.6,0.9,2.2l0,0c0.6,0.5,1.3,0.9,2.2,0.9c0.8,0,1.6-0.3,2.2-0.9c0.6-0.6,0.9-1.3,0.9-2.2
	c0-0.9-0.3-1.6-0.9-2.2C60.3,57.5,59.5,57.1,58.7,57.1L58.7,57.1z M53.8,55.3c-1.2,1.2-2,3-2,4.9c0,1.9,0.8,3.6,2,4.9l0,0
	c1.2,1.2,3,2,4.9,2c1.9,0,3.6-0.8,4.9-2c1.2-1.2,2-3,2-4.9c0-1.9-0.8-3.6-2-4.9l0,0c-1.2-1.2-3-2-4.9-2
	C56.8,53.3,55.1,54.1,53.8,55.3L53.8,55.3z M68.9,25H57.1c-1.7,0-3.2-0.7-4.3-1.8l0,0c-1.1-1.1-1.8-2.6-1.8-4.3V7.1l-27.5,0v0l0,0
	c-0.6,0-1.2,0.3-1.6,0.7c-0.4,0.4-0.7,1-0.7,1.6v59.9l0,0c0,0.6,0.3,1.2,0.7,1.6c0.4,0.4,1,0.7,1.6,0.7v0h43.1
	c0.6,0,1.2-0.3,1.6-0.7c0.4-0.4,0.7-1,0.7-1.6L68.9,25L68.9,25z M54.8,9.8v9.1c0,0.6,0.3,1.2,0.7,1.6l0,0c0.4,0.4,1,0.7,1.6,0.7h9.1
	L54.8,9.8z"/>
</svg>
