<?xml version="1.0" encoding="utf-8"?>
<!-- Generator: Adobe Illustrator 25.4.1, SVG Export Plug-In . SVG Version: 6.00 Build 0)  -->
<svg version="1.1" id="Layer_1" xmlns="http://www.w3.org/2000/svg" xmlns:xlink="http://www.w3.org/1999/xlink" x="0px" y="0px"
	 width="90px" height="59.9px" viewBox="0 0 90 59.9" style="enable-background:new 0 0 90 59.9;" xml:space="preserve">
<style type="text/css">
	.st0{fill-rule:evenodd;clip-rule:evenodd;fill:#10487A;}
</style>
<path class="st0" d="M34,35.7c-0.7-0.2-1.2-0.6-1.5-1c-0.3-0.4-0.5-0.9-0.5-1.5c0-0.5,0.1-1,0.3-1.5c0.3-0.5,0.7-0.9,1.4-1.2
	c0.3-0.1,0.7-0.3,1-0.5c0.3-0.2,0.6-0.5,0.8-0.8v0c0.3-0.3,0.5-0.6,0.6-0.9c0.2-0.3,0.3-0.7,0.4-1.1l0.9-3.3c0.3-1,0.7-1.9,1.3-2.7
	c0.6-0.8,1.3-1.6,2.1-2.2c0.7-0.5,1.6-1,2.4-1.2c0.5-0.2,1.1-0.3,1.6-0.4l0.6-2.1c0.1-0.4,0.3-0.8,0.6-1.2c0.3-0.4,0.6-0.6,1-0.9
	c0.8-0.5,1.7-0.6,2.6-0.3c0.8,0.2,1.6,0.8,2.1,1.6c0.2,0.4,0.4,0.8,0.4,1.3c0.1,0.4,0,0.9-0.1,1.3l-0.6,2.1c0.4,0.3,0.9,0.7,1.2,1.1
	c0.6,0.7,1.1,1.5,1.5,2.3c0.4,0.9,0.7,1.9,0.7,2.9c0.1,1,0,2-0.3,3l-0.9,3.3c-0.1,0.4-0.2,0.8-0.2,1.1c0,0.4,0,0.8,0.1,1.1
	c0.1,0.4,0.2,0.7,0.3,1.1c0.2,0.3,0.4,0.7,0.6,1c0.4,0.5,0.6,1.1,0.6,1.7c0,0.5-0.2,1.1-0.5,1.5c-0.3,0.4-0.7,0.8-1.2,1
	c-0.5,0.2-1.2,0.3-1.8,0.1l-2.1-0.6c-0.2,0.3-0.4,0.6-0.6,0.8c-0.4,0.4-0.9,0.8-1.4,1.1h0c-0.6,0.4-1.4,0.6-2.1,0.7
	c-0.7,0.1-1.5,0.1-2.2-0.1c-0.7-0.2-1.4-0.5-2-1c-0.6-0.5-1.1-1-1.5-1.7c-0.3-0.5-0.5-1-0.6-1.6c-0.1-0.3-0.1-0.7-0.1-1L34,35.7
	L34,35.7z M24.4,12.3c0.2,5.9,0.4,10.9,1,15.2c0.5,4.2,1.4,7.7,2.8,10.8c1.4,3,3.3,5.7,6.1,8.3c2.7,2.5,6.2,5,10.8,7.6
	c4.6-2.7,8.1-5.1,10.8-7.6c2.8-2.6,4.7-5.3,6.1-8.3c1.4-3.1,2.2-6.6,2.8-10.8c0.5-4.3,0.8-9.3,1-15.2c0-0.1,0-0.2,0-0.2
	c0-0.1,0-0.1,0-0.2c0,0,0-0.1-0.1-0.1c0-0.1-0.1-0.1-0.1-0.2c0,0-0.1-0.1-0.1-0.1l-0.1,0l-0.1,0l-0.1,0c-0.6,0-1.3-0.1-2-0.2
	c-0.7-0.1-1.4-0.3-2-0.6c-0.6-0.2-1.3-0.5-2-0.9c-0.6-0.3-1.3-0.7-1.9-1.2C56.3,8,55.4,7.4,54.4,7c-1-0.5-2-0.9-3-1.2
	c-1-0.3-2.1-0.6-3.2-0.7c-1.1-0.2-2.2-0.2-3.3-0.2c0,0,0,0,0,0c-1.1,0-2.2,0.1-3.3,0.2c-1.1,0.2-2.1,0.4-3.2,0.7c-1,0.3-2,0.7-3,1.2
	c-1,0.5-1.9,1-2.7,1.6C32.2,9,31.6,9.4,31,9.7c-0.7,0.4-1.3,0.6-2,0.9c-0.7,0.3-1.4,0.4-2,0.6c-0.7,0.1-1.4,0.2-2,0.2h0
	c0,0-0.1,0-0.1,0l-0.1,0l-0.1,0c0,0-0.1,0.1-0.1,0.1l0,0c0,0-0.1,0.1-0.1,0.2c0,0.1-0.1,0.1-0.1,0.1c0,0.1,0,0.1,0,0.2
	C24.4,12.2,24.4,12.2,24.4,12.3L24.4,12.3L24.4,12.3z M22.7,27.9c0.6,4.5,1.5,8.2,3,11.6c1.5,3.3,3.7,6.3,6.7,9.2
	c3,2.8,6.9,5.5,11.9,8.4l0.7,0.4l0.7-0.4c5-2.9,8.9-5.6,11.9-8.4c3.1-2.9,5.2-5.8,6.7-9.2c1.5-3.4,2.4-7.1,3-11.6
	c0.5-4.3,0.8-9.4,1-15.5c0-0.2,0-0.5,0-0.7c0-0.2-0.1-0.5-0.2-0.7v0c-0.1-0.2-0.2-0.4-0.3-0.6c-0.1-0.2-0.2-0.4-0.4-0.6l0,0
	c-0.2-0.2-0.3-0.3-0.5-0.5c-0.2-0.1-0.4-0.3-0.6-0.4l0,0c-0.2-0.1-0.4-0.2-0.6-0.2c-0.2,0-0.4-0.1-0.6-0.1c-0.5,0-1-0.1-1.5-0.2
	c-0.5-0.1-1-0.3-1.6-0.5h0c-0.5-0.2-1.1-0.4-1.6-0.7c-0.5-0.3-1-0.6-1.6-1c-1-0.7-2-1.3-3.1-1.8c-1.1-0.5-2.2-1-3.4-1.3
	c-1.2-0.4-2.4-0.6-3.6-0.8c-1.2-0.2-2.4-0.3-3.6-0.2v0h0v0c-1.2,0-2.5,0.1-3.6,0.2c-1.2,0.2-2.4,0.4-3.6,0.8
	c-1.2,0.4-2.3,0.8-3.4,1.3c-1.1,0.5-2.1,1.1-3.1,1.8c-0.5,0.4-1.1,0.7-1.6,1c-0.6,0.3-1.1,0.5-1.6,0.7c-0.6,0.2-1.1,0.4-1.6,0.5
	c-0.5,0.1-1.1,0.2-1.5,0.2c-0.2,0-0.5,0-0.7,0.1c-0.2,0-0.4,0.1-0.6,0.2c-0.2,0.1-0.4,0.2-0.6,0.4c-0.2,0.1-0.3,0.3-0.5,0.5h0
	c-0.2,0.2-0.3,0.4-0.4,0.6c-0.1,0.2-0.2,0.4-0.3,0.6c-0.1,0.2-0.1,0.4-0.2,0.7c0,0.2,0,0.5,0,0.7C21.9,18.5,22.2,23.6,22.7,27.9
	L22.7,27.9z M46.8,39.2l-4.9-1.3c0.1,0.2,0.1,0.4,0.2,0.5v0c0.2,0.3,0.5,0.6,0.8,0.9c0.3,0.2,0.7,0.4,1.1,0.5
	c0.4,0.1,0.8,0.1,1.2,0.1c0.4-0.1,0.8-0.2,1.1-0.4C46.5,39.4,46.6,39.3,46.8,39.2L46.8,39.2z M34.7,33.1L34.7,33.1l17.7,4.7
	c0,0,0,0,0,0l0,0c0,0,0,0,0,0v0c-0.4-0.5-0.7-1-0.9-1.5c-0.2-0.5-0.4-1.1-0.5-1.7c-0.1-0.6-0.2-1.1-0.1-1.7c0-0.6,0.1-1.2,0.3-1.7
	l0.9-3.3c0.2-0.7,0.2-1.4,0.2-2.1c-0.1-0.7-0.2-1.4-0.5-2c-0.3-0.6-0.6-1.1-1-1.6c-0.4-0.5-0.9-0.9-1.5-1.2l-0.9-0.5l1.1-4
	c0-0.1,0-0.2,0-0.3c0-0.1,0-0.2-0.1-0.3c-0.1-0.2-0.2-0.3-0.4-0.3c-0.2,0-0.4,0-0.5,0.1c-0.1,0-0.1,0.1-0.2,0.2
	c-0.1,0.1-0.1,0.1-0.1,0.2c0,0.4-0.9,3.2-1.1,4l-1,0c-0.6,0-1.3,0.1-1.9,0.3c-0.6,0.2-1.2,0.5-1.7,0.9c-0.6,0.4-1.1,0.9-1.5,1.5v0
	c-0.4,0.6-0.7,1.2-0.9,1.9l-0.9,3.3c-0.2,0.6-0.4,1.1-0.6,1.6c-0.3,0.5-0.6,1-1,1.4l0,0c-0.4,0.4-0.8,0.8-1.3,1.2
	C35.8,32.5,35.3,32.8,34.7,33.1L34.7,33.1C34.7,33,34.7,33.1,34.7,33.1L34.7,33.1z"/>
</svg>
