<?xml version="1.0" encoding="utf-8"?>
<!-- Generator: Adobe Illustrator 25.4.1, SVG Export Plug-In . SVG Version: 6.00 Build 0)  -->
<svg version="1.1" id="Layer_1" xmlns="http://www.w3.org/2000/svg" xmlns:xlink="http://www.w3.org/1999/xlink" x="0px" y="0px"
	 viewBox="0 0 90 59.9" style="enable-background:new 0 0 90 59.9;" xml:space="preserve">
<style type="text/css">
	.st0{fill-rule:evenodd;clip-rule:evenodd;fill:#10487A;}
</style>
<path class="st0" d="M145.6,24.8h-13.3c-0.1,0-0.1,0-0.1,0.1l0,0c0,0,0,0.1,0,0.1v50.9c0,0.1,0,0.1,0.1,0.1c0,0,0.1,0.1,0.1,0.1
	h13.3c0.1,0,0.1,0,0.1-0.1l0,0c0,0,0.1-0.1,0.1-0.1V25c0-0.1,0-0.1-0.1-0.1C145.7,24.8,145.6,24.8,145.6,24.8L145.6,24.8z
	 M181.5,32.2c1-0.1,1.8,0.5,2,1.5c0.1,1-0.5,1.8-1.5,2l-7.6,1c-1,0.1-1.8-0.5-2-1.5c-0.1-1,0.5-1.8,1.5-2L181.5,32.2L181.5,32.2z
	 M181.6,61.6c-0.6,0.1-1.1,0.4-1.4,0.8c-0.3,0.4-0.5,1-0.4,1.6c0.1,0.6,0.4,1.1,0.8,1.4c0.4,0.3,1,0.5,1.6,0.4
	c0.6-0.1,1.1-0.4,1.4-0.8c0.3-0.4,0.5-1,0.4-1.6c-0.1-0.6-0.4-1.1-0.8-1.4C182.7,61.7,182.2,61.5,181.6,61.6L181.6,61.6z
	 M177.4,60.3c0.9-1.1,2.2-2,3.7-2.2c1.5-0.2,3,0.2,4.1,1.1c1.1,0.9,2,2.2,2.2,3.7c0.2,1.5-0.2,3-1.1,4.1c-0.9,1.1-2.2,2-3.7,2.2
	c-1.5,0.2-3-0.2-4.1-1.1c-1.1-0.9-2-2.2-2.2-3.7C176.1,62.9,176.6,61.5,177.4,60.3L177.4,60.3z M183.1,23.2L169.9,25
	c0,0-0.1,0-0.1,0.1l0,0c0,0-0.1,0.1,0,0.2c1.9,16.7,5.3,33.8,6.9,50.4c0,0,0,0.1,0.1,0.1l0,0c0,0,0.1,0.1,0.2,0l13.2-1.8
	c0.1,0,0.1,0,0.1-0.1l0,0c0,0,0.1-0.1,0-0.2c-1.9-16.7-5.3-33.8-6.9-50.4c0-0.1,0-0.1-0.1-0.1l0,0C183.2,23.2,183.2,23.2,183.1,23.2
	L183.1,23.2L183.1,23.2z M169.6,21.5l12.9-1.8c0.1,0,0.2,0,0.3,0c0.9-0.1,1.9,0.2,2.6,0.7v0c0.7,0.5,1.2,1.3,1.4,2.3
	c0,0.1,0,0.2,0,0.3l6.9,50.2c0,0.1,0,0.2,0,0.3c0.1,0.9-0.2,1.9-0.7,2.6h0c-0.5,0.7-1.3,1.2-2.3,1.4c-0.1,0-0.2,0-0.3,0l-12.9,1.8
	c-0.1,0-0.2,0-0.3,0c-0.9,0.1-1.9-0.2-2.6-0.7v0c-0.7-0.5-1.2-1.3-1.4-2.3c0-0.1,0-0.2-0.1-0.3l-6.7-49v48.8c0,1-0.4,2-1.1,2.6h0
	c-0.7,0.7-1.6,1.1-2.6,1.1h-13.3c-0.7,0-1.4-0.2-2-0.6c-0.6,0.4-1.2,0.6-2,0.6h-13.3c-1,0-1.9-0.4-2.6-1.1l0,0
	c-0.7-0.7-1.1-1.6-1.1-2.6V25c0-1,0.4-1.8,1-2.5l0.1-0.1c0.7-0.7,1.6-1.1,2.6-1.1h13.3c0.7,0,1.4,0.2,2,0.6c0.6-0.4,1.2-0.6,2-0.6
	h13.3c1,0,2,0.4,2.6,1.1c0.5,0.5,0.9,1.1,1,1.9c0.1-0.5,0.3-0.9,0.6-1.2h0c0.5-0.7,1.3-1.2,2.3-1.4
	C169.4,21.5,169.5,21.5,169.6,21.5L169.6,21.5z M156.1,62.6c-0.6,0-1.1,0.2-1.5,0.6l0,0c-0.4,0.4-0.6,0.9-0.6,1.5
	c0,0.6,0.2,1.1,0.6,1.5c0.4,0.4,0.9,0.6,1.5,0.6c0.6,0,1.1-0.2,1.5-0.6l0.1-0.1c0.3-0.4,0.5-0.9,0.5-1.4c0-0.6-0.2-1.1-0.6-1.5
	C157.2,62.9,156.6,62.6,156.1,62.6L156.1,62.6z M152.1,60.8L152.1,60.8c-1,1-1.6,2.4-1.6,4c0,1.5,0.6,2.9,1.6,4l0,0
	c1,1,2.4,1.6,4,1.6c1.5,0,3-0.6,4-1.6l0.1-0.1c1-1,1.5-2.4,1.5-3.9c0-1.5-0.6-3-1.6-4c-1-1-2.4-1.6-4-1.6
	C154.5,59.1,153.1,59.7,152.1,60.8L152.1,60.8z M159.9,33.5h-7.7c-1,0-1.8,0.8-1.8,1.8c0,1,0.8,1.8,1.8,1.8h7.7c1,0,1.8-0.8,1.8-1.8
	C161.7,34.2,160.9,33.5,159.9,33.5L159.9,33.5z M162.8,24.8h-13.3c-0.1,0-0.1,0-0.1,0.1l0,0c0,0,0,0.1,0,0.1v0v0v50.9
	c0,0.1,0,0.1,0.1,0.1c0,0,0.1,0.1,0.1,0.1h13.3c0.1,0,0.1,0,0.1-0.1l0,0c0,0,0.1-0.1,0.1-0.1V25c0-0.1,0-0.1-0.1-0.1
	C162.9,24.8,162.8,24.8,162.8,24.8L162.8,24.8z M138.9,62.6c0.6,0,1.1,0.2,1.5,0.6l0,0c0.4,0.4,0.6,0.9,0.6,1.5c0,0.6-0.2,1-0.5,1.4
	l-0.1,0.1c-0.4,0.4-0.9,0.6-1.5,0.6c-0.6,0-1-0.2-1.4-0.5l-0.1-0.1c-0.4-0.4-0.6-0.9-0.6-1.5c0-0.6,0.2-1.1,0.6-1.5l0,0
	C137.8,62.9,138.3,62.6,138.9,62.6L138.9,62.6z M134.9,60.8c1-1,2.4-1.6,4-1.6c1.5,0,3,0.6,4,1.6v0c1,1,1.6,2.4,1.6,4
	c0,1.5-0.6,2.8-1.5,3.9l-0.1,0.1c-1,1-2.4,1.6-4,1.6c-1.5,0-2.8-0.6-3.9-1.5l-0.1-0.1c-1-1-1.6-2.4-1.6-4
	C133.3,63.2,133.9,61.8,134.9,60.8L134.9,60.8L134.9,60.8z M142.7,33.5c1,0,1.8,0.8,1.8,1.8c0,1-0.8,1.8-1.8,1.8H135
	c-1,0-1.8-0.8-1.8-1.8c0-1,0.8-1.8,1.8-1.8H142.7z"/>
<path class="st0" d="M22,0h25.4h25.4c1.7,0,3.2,0.7,4.3,1.8c1.1,1.1,1.8,2.6,1.8,4.3v47.8c0,1.7-0.7,3.2-1.8,4.3
	c-1.1,1.1-2.6,1.8-4.3,1.8v0l-25.3,0c0,0-0.1,0-0.1,0l-0.1,0L22,60v0c-1.7,0-3.2-0.7-4.3-1.8c-1.1-1.1-1.8-2.6-1.8-4.3V6.1
	c0-1.7,0.7-3.2,1.8-4.3C18.7,0.7,20.3,0,22,0L22,0z M45.7,28.3v-7c0-0.9,0.7-1.7,1.7-1.7h2.7c1.1,0,2-0.4,2.7-1.1l0.1-0.1
	c0.6-0.7,1-1.6,1-2.6c0-1.1-0.4-2-1.1-2.7c-0.7-0.7-1.6-1.1-2.7-1.1h-2.7c-0.9,0-1.7-0.7-1.7-1.7v-7H22c-0.8,0-1.5,0.3-2,0.8
	c-0.5,0.5-0.8,1.2-0.8,2v22.2H26v-1c0-2,0.8-3.8,2.1-5.1c1.3-1.3,3.1-2.1,5.1-2.1c2,0,3.7,0.8,5,2.1l0,0c1.3,1.3,2.1,3.1,2.1,5v1
	H45.7L45.7,28.3z M49,3.3v5.4h1c2,0,3.8,0.8,5.1,2.1c1.3,1.3,2.1,3.1,2.1,5.1c0,1.9-0.8,3.7-2,5l-0.1,0.1C53.8,22.2,52,23,50.1,23
	h-1v5.4h7c0.9,0,1.7,0.7,1.7,1.7v2.7c0,1.1,0.4,2,1.1,2.7l0,0c0.7,0.7,1.6,1.1,2.7,1.1c1.1,0,2-0.4,2.7-1.1l0,0
	c0.7-0.7,1.1-1.6,1.1-2.7V30c0-0.9,0.7-1.7,1.7-1.7h8.5V6.1c0-0.8-0.3-1.5-0.8-2c-0.5-0.5-1.2-0.8-2-0.8H49L49,3.3z M45.7,31.7h-7
	c-0.9,0-1.7-0.7-1.7-1.7v-2.7c0-1.1-0.4-2-1.1-2.7l0,0c-0.7-0.7-1.6-1.1-2.7-1.1c-1.1,0-2,0.4-2.7,1.1c-0.7,0.7-1.1,1.6-1.1,2.7V30
	c0,0.9-0.7,1.7-1.7,1.7h-8.5v22.2c0,0.8,0.3,1.5,0.8,2c0.5,0.5,1.2,0.8,2,0.8v0l23.7,0v-5.4h-1c-2,0-3.8-0.8-5.1-2.1
	c-1.3-1.3-2.1-3.1-2.1-5.1c0-2,0.8-3.8,2.1-5.1c1.3-1.3,3.1-2.1,5.1-2.1h1V31.7L45.7,31.7z M49,31.7v7c0,0.9-0.7,1.7-1.7,1.7h-2.7
	c-1.1,0-2,0.4-2.7,1.1c-0.7,0.7-1.1,1.6-1.1,2.7c0,1.1,0.4,2,1.1,2.7c0.7,0.7,1.6,1.1,2.7,1.1h2.7c0.9,0,1.7,0.7,1.7,1.7v7l23.7,0v0
	c0.8,0,1.5-0.3,2-0.8c0.5-0.5,0.8-1.2,0.8-2V31.7h-6.9v1c0,2-0.8,3.8-2.1,5.1h0c-1.3,1.3-3.1,2.1-5,2.1c-2,0-3.7-0.8-5-2.1l0,0
	c-1.3-1.3-2.1-3.1-2.1-5v-1H49z"/>
</svg>
