<?xml version="1.0" encoding="utf-8"?>
<!-- Generator: Adobe Illustrator 25.4.1, SVG Export Plug-In . SVG Version: 6.00 Build 0)  -->
<svg version="1.1" id="Layer_1" xmlns="http://www.w3.org/2000/svg" xmlns:xlink="http://www.w3.org/1999/xlink" x="0px" y="0px"
	 viewBox="0 0 90 59.9" style="enable-background:new 0 0 90 59.9;" xml:space="preserve">
<style type="text/css">
	.st0{fill-rule:evenodd;clip-rule:evenodd;fill:#10487A;}
	.st1{fill-rule:evenodd;clip-rule:evenodd;fill:#1C3C50;}
</style>
<path class="st0" d="M184.1,19.2h11.3c1,0,1.8,0.8,1.8,1.8v9h9c1,0,1.8,0.8,1.8,1.8v11.3c0,1-0.8,1.8-1.8,1.8h-9v9
	c0,1-0.8,1.8-1.8,1.8h-11.3c-1,0-1.8-0.8-1.8-1.8v-9h-9c-1,0-1.8-0.8-1.8-1.8V31.9c0-1,0.8-1.8,1.8-1.8h9v-9
	C182.3,20.1,183.1,19.2,184.1,19.2L184.1,19.2z M200.4,11.4V7.6c0-0.1,0-0.1-0.1-0.1l0,0c0,0-0.1,0-0.1,0h-20.9
	c-0.1,0-0.1,0-0.1,0.1c0,0-0.1,0.1-0.1,0.1v3.7H200.4L200.4,11.4z M175.5,11.4h-19.1c-1.6,0-3.1,0.7-4.1,1.7l0,0
	c-1.1,1.1-1.7,2.5-1.7,4.1v40.6c0,1.6,0.7,3.1,1.7,4.2c1.1,1.1,2.5,1.7,4.2,1.7h66.8c1.6,0,3.1-0.7,4.1-1.7l0,0
	c1.1-1.1,1.7-2.5,1.7-4.1V17.2c0-1.6-0.7-3.1-1.7-4.2c-1.1-1.1-2.5-1.7-4.2-1.7h-19.1V7.6c0-1.1-0.4-2-1.1-2.7l-0.1-0.1
	c-0.7-0.6-1.6-1-2.6-1h-20.9c-1.1,0-2,0.4-2.7,1.1l0,0c-0.7,0.7-1.1,1.7-1.1,2.7V11.4L175.5,11.4z M223.2,15h-20.9h-25h-20.9
	c-0.6,0-1.2,0.2-1.6,0.6l0,0c-0.4,0.4-0.6,1-0.6,1.6v40.6c0,0.6,0.2,1.2,0.7,1.6c0.4,0.4,1,0.7,1.6,0.7h66.8c0.6,0,1.2-0.2,1.6-0.7
	c0.4-0.4,0.7-1,0.7-1.6V17.2c0-0.6-0.3-1.2-0.7-1.6C224.4,15.3,223.8,15,223.2,15L223.2,15z M193.6,22.9H186v9c0,1-0.8,1.8-1.8,1.8
	h-9v7.6h9c1,0,1.8,0.8,1.8,1.8v9h7.6v-9c0-1,0.8-1.8,1.8-1.8h9v-7.6h-9c-1,0-1.8-0.8-1.8-1.8V22.9z"/>
<path class="st1" d="M20.8,0h48.3c1.6,0,3.1,0.7,4.1,1.7l0,0C74.4,2.8,75,4.3,75,5.9V54c0,1.6-0.7,3.1-1.7,4.1l0,0
	c-1.1,1.1-2.5,1.7-4.1,1.7H20.8c-1.6,0-3.1-0.7-4.1-1.7C15.6,57.1,15,55.6,15,54V5.9c0-1.6,0.7-3.1,1.7-4.1C17.7,0.7,19.2,0,20.8,0
	L20.8,0z M30.7,44.7h5.7V30.9h17.2v13.8h5.6V15.2h-5.6v12.4H36.4V15.2h-5.7V44.7L30.7,44.7z M38,48h1.6V34.2h10.8V48h12.1v-36H50.4
	v12.4H39.6V11.9H27.5v36H38L38,48z M69.2,3.2H20.8c-0.7,0-1.4,0.3-1.9,0.8c-0.5,0.5-0.8,1.1-0.8,1.9V54c0,0.7,0.3,1.4,0.8,1.9
	c0.5,0.5,1.1,0.8,1.9,0.8h48.3c0.7,0,1.4-0.3,1.9-0.8h0c0.5-0.5,0.8-1.1,0.8-1.9V5.9c0-0.7-0.3-1.4-0.8-1.9v0
	C70.6,3.5,69.9,3.2,69.2,3.2z"/>
</svg>
