<?xml version="1.0" encoding="utf-8"?>
<!-- Generator: Adobe Illustrator 27.0.0, SVG Export Plug-In . SVG Version: 6.00 Build 0)  -->
<svg version="1.1" id="Capa_1" xmlns="http://www.w3.org/2000/svg" xmlns:xlink="http://www.w3.org/1999/xlink" x="0px" y="0px"
	 width="40px" height="48px" viewBox="0 0 40 48" style="enable-background:new 0 0 40 48;" xml:space="preserve">
<style type="text/css">
	.st0{fill-rule:evenodd;clip-rule:evenodd;}
</style>
<path class="st0" d="M4.1,8l0-0.1c0-0.9,0.4-1.8,1-2.4c0.6-0.6,1.5-1,2.5-1v0H10V3c0-0.6,0.5-1.1,1.1-1.1c0.6,0,1.1,0.5,1.1,1.1v1.4
	h4V3c0-0.6,0.5-1.1,1.1-1.1c0.6,0,1.1,0.5,1.1,1.1v1.4h4V3c0-0.6,0.5-1.1,1.1-1.1c0.6,0,1.1,0.5,1.1,1.1v1.4h4V3
	c0-0.6,0.5-1.1,1.1-1.1c0.6,0,1.1,0.5,1.1,1.1v1.4h1.6c1,0,1.8,0.4,2.5,1c0.6,0.6,1,1.5,1,2.5h0l0,34.5c0,1-0.4,1.9-1,2.5
	c-0.6,0.6-1.5,1-2.5,1H7.6l0,0c-0.9,0-1.8-0.4-2.4-1l-0.1-0.1c-0.6-0.6-1-1.5-1-2.5V8L4.1,8z M24.6,8.3c0,0.6-0.5,1.1-1.1,1.1
	c-0.6,0-1.1-0.5-1.1-1.1V6.6h-4v1.7c0,0.6-0.5,1.1-1.1,1.1c-0.6,0-1.1-0.5-1.1-1.1V6.6h-4v1.7c0,0.6-0.5,1.1-1.1,1.1
	c-0.6,0-1.1-0.5-1.1-1.1V6.6H7.6l0,0C7.2,6.6,6.9,6.8,6.7,7C6.4,7.3,6.3,7.6,6.3,7.9l0,34.5c0,0.4,0.2,0.7,0.4,0.9l0,0
	c0.2,0.2,0.6,0.4,0.9,0.4v0h24.8c0.4,0,0.7-0.2,0.9-0.4c0.2-0.2,0.4-0.6,0.4-0.9l0-34.5h0c0-0.4-0.1-0.7-0.4-0.9
	c-0.2-0.2-0.6-0.4-0.9-0.4h-1.6v1.7c0,0.6-0.5,1.1-1.1,1.1c-0.6,0-1.1-0.5-1.1-1.1V6.6h-4V8.3L24.6,8.3z M11,31.6h10.4
	c0.6,0,1.1-0.5,1.1-1.1c0-0.6-0.5-1.1-1.1-1.1H11c-0.6,0-1.1,0.5-1.1,1.1C9.9,31.1,10.4,31.6,11,31.6L11,31.6z M11,26.3h16.9
	c0.6,0,1.1-0.5,1.1-1.1s-0.5-1.1-1.1-1.1H11c-0.6,0-1.1,0.5-1.1,1.1S10.4,26.3,11,26.3L11,26.3z M11,21.1h16.9
	c0.6,0,1.1-0.5,1.1-1.1c0-0.6-0.5-1.1-1.1-1.1H11c-0.6,0-1.1,0.5-1.1,1.1C9.9,20.6,10.4,21.1,11,21.1z"/>
</svg>
