<?xml version="1.0" encoding="utf-8"?>
<!-- Generator: Adobe Illustrator 26.1.0, SVG Export Plug-In . SVG Version: 6.00 Build 0)  -->
<svg version="1.1" id="Layer_1" xmlns="http://www.w3.org/2000/svg" xmlns:xlink="http://www.w3.org/1999/xlink" x="0px" y="0px"
	 width="93.3px" height="78.7px" viewBox="0 0 93.3 78.7" style="enable-background:new 0 0 93.3 78.7;" xml:space="preserve">
<style type="text/css">
	.st0{fill-rule:evenodd;clip-rule:evenodd;fill:#88CFE0;}
</style>
<path class="st0" d="M46.7,16.4c5.7,0,10.9,2.3,14.7,6.1c3.8,3.8,6.1,9,6.1,14.7c0,3.2-0.7,6.3-2,9c-1.2,2.6-3,4.9-5.1,6.7v4.4
	c0,1.4-0.6,2.7-1.5,3.6c-0.3,0.3-0.7,0.6-1.1,0.8v3.3c0,1.4-0.6,2.6-1.5,3.5c-0.9,0.8-2.2,1.4-3.5,1.4H52v4.3c0,0.9-0.8,1.7-1.7,1.7
	H43c-0.9,0-1.7-0.8-1.7-1.7V70h-0.6c-1.4,0-2.6-0.5-3.5-1.4c-1-0.9-1.5-2.1-1.5-3.5v-3.3c-0.4-0.2-0.7-0.5-1.1-0.8h0
	c-0.9-0.9-1.5-2.2-1.5-3.6V53c-2.1-1.9-3.9-4.1-5.1-6.7c-1.3-2.7-2.1-5.8-2.1-9c0-5.8,2.3-11,6.1-14.7
	C35.7,18.7,40.9,16.4,46.7,16.4L46.7,16.4z M29.1,17.2l-4.4-4.4c-0.7-0.7-1.7-0.7-2.4,0c-0.7,0.7-0.7,1.7,0,2.4l4.4,4.4
	c0.7,0.7,1.7,0.7,2.4,0C29.7,18.9,29.7,17.8,29.1,17.2L29.1,17.2z M66.6,19.6l4.4-4.4c0.7-0.7,0.7-1.7,0-2.4c-0.7-0.7-1.7-0.7-2.4,0
	l-4.4,4.4c-0.7,0.7-0.7,1.7,0,2.4C64.9,20.2,66,20.2,66.6,19.6L66.6,19.6z M20.1,35.6c0.9,0,1.7,0.8,1.7,1.7c0,0.9-0.8,1.7-1.7,1.7
	h-6.6c-0.9,0-1.7-0.8-1.7-1.7c0-0.9,0.8-1.7,1.7-1.7H20.1L20.1,35.6z M73.2,39c-0.9,0-1.7-0.8-1.7-1.7c0-0.9,0.8-1.7,1.7-1.7h6.6
	c0.9,0,1.7,0.8,1.7,1.7c0,0.9-0.8,1.7-1.7,1.7H73.2L73.2,39z M48.3,10.5c0,0.9-0.8,1.7-1.7,1.7c-0.9,0-1.7-0.8-1.7-1.7V4.4
	c0-0.9,0.8-1.7,1.7-1.7c0.9,0,1.7,0.8,1.7,1.7V10.5L48.3,10.5z M50.9,38.9v-1.1c0-0.9,0.8-1.7,1.7-1.7c0.9,0,1.7,0.8,1.7,1.7v2.7
	l0,0.1v18.5h0.8c0.5,0,0.9-0.2,1.2-0.5c0.3-0.3,0.5-0.7,0.5-1.2v-5.1c0-0.5,0.2-1,0.6-1.3c2-1.6,3.7-3.7,4.8-6.1
	c1.1-2.3,1.7-4.8,1.7-7.6c0-4.8-1.9-9.2-5.1-12.3c-3.1-3.2-7.5-5.1-12.3-5.1s-9.1,2-12.3,5.1c-3.1,3.2-5.1,7.5-5.1,12.3
	c0,2.7,0.6,5.3,1.7,7.6c1.1,2.4,2.8,4.4,4.8,6c0.4,0.3,0.7,0.8,0.7,1.4v5.1c0,0.5,0.2,0.9,0.5,1.2l0,0c0.3,0.3,0.7,0.5,1.2,0.5H39
	V40.6v-0.1v-2.8c0-0.9,0.8-1.7,1.7-1.7c0.9,0,1.7,0.8,1.7,1.7v1.1H45v-1.1c0-0.9,0.8-1.7,1.7-1.7c0.9,0,1.7,0.8,1.7,1.7v1.1H50.9
	L50.9,38.9z M48.3,43.4c0,0.9-0.8,1.7-1.7,1.7c-0.9,0-1.7-0.8-1.7-1.7v-1.1h-2.6v16.8h8.6V42.3h-2.6V43.4L48.3,43.4z M48.6,70h-3.9
	v2.6h3.9V70L48.6,70z M54.3,63.1H39v2.1c0,0.4,0.2,0.7,0.5,1c0.3,0.3,0.8,0.5,1.3,0.5H43h7.3h2.2c0.5,0,1-0.2,1.3-0.5
	c0.3-0.3,0.5-0.6,0.5-1V63.1z"/>
</svg>
