<?xml version="1.0" encoding="utf-8"?>
<!-- Generator: Adobe Illustrator 25.4.1, SVG Export Plug-In . SVG Version: 6.00 Build 0)  -->
<svg version="1.1" id="Layer_1" xmlns="http://www.w3.org/2000/svg" xmlns:xlink="http://www.w3.org/1999/xlink" x="0px" y="0px"
	 width="50px" height="36px" viewBox="0 0 50 36" style="enable-background:new 0 0 50 36;" xml:space="preserve">
<style type="text/css">
	.st0{fill-rule:evenodd;clip-rule:evenodd;fill:#FFFFFF;}
</style>
<path class="st0" d="M17.3,22.4l4.8-7.7c0.2-0.3,0.5-0.4,0.8-0.4l6.9,0l2.7-4.4l-2.8-1.8c-0.4-0.3-0.5-0.8-0.3-1.2
	c0.1-0.2,0.2-0.3,0.4-0.3l10-5c0.4-0.2,0.9,0,1.2,0.4c0.1,0.1,0.1,0.3,0.1,0.4h0v11.1c0,0.5-0.4,0.9-0.9,0.9c-0.2,0-0.3-0.1-0.5-0.1
	L37,12.7l-4,6.5c-0.2,0.3-0.5,0.4-0.8,0.4l-6.9,0l-3.5,5.6c-0.2,0.3-0.4,0.6-0.7,0.8c-0.3,0.2-0.6,0.3-1,0.4c-0.4,0.1-0.7,0.1-1.1,0
	c-0.3-0.1-0.7-0.2-1-0.4c-0.6-0.4-0.9-1-1.1-1.6C16.9,23.7,17,23,17.3,22.4L17.3,22.4z M40.2,28.2H15.1V3.1c0-0.5-0.4-0.9-0.9-0.9
	c-0.5,0-0.9,0.4-0.9,0.9v25.1H9.7c-0.5,0-0.9,0.4-0.9,0.9c0,0.5,0.4,0.9,0.9,0.9h3.6v3.6c0,0.5,0.4,0.9,0.9,0.9
	c0.5,0,0.9-0.4,0.9-0.9V30h25.1c0.5,0,0.9-0.4,0.9-0.9C41.1,28.6,40.7,28.2,40.2,28.2L40.2,28.2z M23.3,16l-4.5,7.3
	c-0.1,0.2-0.2,0.4-0.1,0.6c0,0.2,0.2,0.4,0.4,0.6c0.1,0.1,0.2,0.1,0.3,0.1c0.1,0,0.2,0,0.4,0c0.1,0,0.2-0.1,0.3-0.1
	c0.1-0.1,0.2-0.2,0.2-0.3l3.8-6c0.2-0.2,0.4-0.4,0.7-0.4l6.9,0L36,11c0.2-0.4,0.7-0.5,1.1-0.3l2.3,1.3V3.8L32,7.5l2.2,1.4
	c0.4,0.3,0.5,0.8,0.3,1.2L31,15.6c-0.2,0.2-0.4,0.4-0.7,0.4L23.3,16z"/>
</svg>
