<svg xmlns="http://www.w3.org/2000/svg" width="72.931" height="72.804" viewBox="0 0 72.931 72.804">
  <g id="Grupo_3418" data-name="Grupo 3418" transform="translate(-1862 -1211.594)">
    <path id="Trazado_478" data-name="Trazado 478" d="M59.364,71.429A9.126,9.126,0,0,1,50.2,62.265V36.555A1.685,1.685,0,0,1,51.855,34.9H63.946a4.563,4.563,0,0,1,4.582,4.582V62.265A9.126,9.126,0,0,1,59.364,71.429ZM53.382,38.082V62.265a5.982,5.982,0,1,0,11.964,0V39.609a1.412,1.412,0,0,0-1.4-1.4H53.382Z" transform="translate(1866.402 1212.969)" fill="#375169"/>
    <path id="Trazado_479" data-name="Trazado 479" d="M69.667,79.2H17.991A10.756,10.756,0,0,1,7.3,68.512V10.982A4.757,4.757,0,0,1,12.009,6.4H60.5a4.563,4.563,0,0,1,4.582,4.582V68.64a1.655,1.655,0,1,1-3.309,0V10.982a1.413,1.413,0,0,0-1.4-1.4H12.009a1.413,1.413,0,0,0-1.4,1.4V68.64a7.443,7.443,0,0,0,7.51,7.509H69.667A1.685,1.685,0,0,1,71.322,77.8,1.555,1.555,0,0,1,69.667,79.2Z" transform="translate(1854.7 1205.194)" fill="#375169"/>
    <path id="Trazado_482" data-name="Trazado 482" d="M52.457,35.272h-36.4A1.542,1.542,0,0,1,14.4,33.96V17.112A1.542,1.542,0,0,1,16.055,15.8h36.4a1.542,1.542,0,0,1,1.655,1.312V33.96A1.542,1.542,0,0,1,52.457,35.272ZM17.709,32.749h33.22V18.423H17.709Z" transform="translate(1856.637 1201.342)" fill="#375169"/>
  </g>
</svg>
