<?xml version="1.0" encoding="utf-8"?>
<!-- Generator: Adobe Illustrator 27.0.0, SVG Export Plug-In . SVG Version: 6.00 Build 0)  -->
<svg version="1.1" id="Capa_1" xmlns="http://www.w3.org/2000/svg" xmlns:xlink="http://www.w3.org/1999/xlink" x="0px" y="0px"
	 width="40px" height="48px" viewBox="0 0 40 48" style="enable-background:new 0 0 40 48;" xml:space="preserve">
<style type="text/css">
	.st0{fill-rule:evenodd;clip-rule:evenodd;}
</style>
<path class="st0" d="M16.5,24.6l12.8-12.8l0.1-0.1c0.4-0.3,0.8-0.5,1.3-0.5c0.5,0,1,0.2,1.3,0.5l0,0l3.7,3.7
	c0.4,0.4,0.5,0.8,0.5,1.3c0,0.5-0.2,1-0.5,1.3l-1.6,1.6c-5.4,5.4-10.8,10.8-16.3,16.3l0,0c0,0-0.1,0.1-0.1,0.1l-0.1,0.1
	c-0.1,0-0.1,0.1-0.2,0.1l0,0l0,0l0,0c0,0-0.1,0-0.1,0.1c-0.1,0-0.1,0.1-0.2,0.1c-0.1,0-0.1,0-0.2,0.1c-0.1,0-0.1,0-0.2,0
	c0,0-0.1,0-0.1,0c-0.1,0-0.2,0-0.3,0l-0.1,0l-0.2,0c0,0-0.1,0-0.1,0c0,0-0.1,0-0.1,0l0,0c0,0-0.1,0-0.1-0.1c0,0-0.1,0-0.1-0.1
	l-0.2-0.1c-0.1,0-0.1-0.1-0.2-0.1l0,0l-6.3-6.3l-0.1-0.1l-4.4-4.4C4,25,3.8,24.5,3.8,24c0-0.5,0.2-1,0.5-1.3l3.8-3.8
	c0.4-0.4,0.8-0.5,1.3-0.5s1,0.2,1.3,0.5L16.5,24.6L16.5,24.6z M30.6,13.2L17.1,26.6h0c-0.4,0.4-0.9,0.4-1.3,0l-6.4-6.4c0,0,0,0,0,0
	c0,0,0,0,0,0L5.6,24c0,0,0,0,0,0c0,0,0,0,0,0l10.8,10.8c0,0,0,0,0,0l0,0l0,0c5.4-5.4,10.8-10.8,16.3-16.3l1.6-1.6c0,0,0,0,0,0
	c0,0,0,0,0,0l-3.7-3.7L30.6,13.2C30.6,13.2,30.6,13.2,30.6,13.2L30.6,13.2L30.6,13.2z"/>
</svg>
