<?xml version="1.0" encoding="utf-8"?>
<!-- Generator: Adobe Illustrator 25.4.1, SVG Export Plug-In . SVG Version: 6.00 Build 0)  -->
<svg version="1.1" id="Layer_1" xmlns="http://www.w3.org/2000/svg" xmlns:xlink="http://www.w3.org/1999/xlink" x="0px" y="0px"
	 width="90px" height="59.9px" viewBox="0 0 90 59.9" style="enable-background:new 0 0 90 59.9;" xml:space="preserve">
<style type="text/css">
	.st0{fill-rule:evenodd;clip-rule:evenodd;fill:#10487A;}
	.st1{fill-rule:evenodd;clip-rule:evenodd;fill:#00335C;}
</style>
<path id="Path_6436" class="st0" d="M166.4-53.1h-10.3l-5,14.8h20.2L166.4-53.1L166.4-53.1z M191.5-15.8h-10.3l-5,14.8h20.2
	L191.5-15.8z M188-19.7h4.5c0.8,0,1.5,0.4,2,1c0.2,0.3,0.4,0.6,0.5,1c0.5,1.4,4.8,13.9,5.6,16.7h3.1c1.1,0,2,0.8,2,1.9s-0.8,2-1.9,2
	h-0.1h-84.8c-1.1,0-1.9-0.9-1.9-2c0-1,0.9-1.9,1.9-1.9h3.1l5.6-16.6c0.1-0.4,0.3-0.8,0.5-1.1c0.5-0.7,1.2-1,2-1h4.5l5.6-16.6
	c0.1-0.4,0.3-0.8,0.5-1.1c0.5-0.6,1.2-1,2-1h4.5l5.6-16.6c0.1-0.4,0.3-0.8,0.5-1.1c0.5-0.7,1.2-1,2-1h12.2c0.8,0,1.5,0.4,2,1l0,0
	c0.2,0.3,0.4,0.6,0.5,1c0.5,1.4,4.8,13.9,5.6,16.7h4.4c0.8,0,1.5,0.4,2,1c0.2,0.3,0.4,0.7,0.5,1.1L188-19.7L188-19.7z M173.8-5.9
	l-3.3-9.9h6.7L173.8-5.9L173.8-5.9z M148.7-5.9l3.3-9.8h-6.6C146.2-13.4,147.6-9.3,148.7-5.9L148.7-5.9z M161.9-15.8h-5.8l-5,14.8
	h20.2l-5-14.8H161.9z M136.8-15.8H131L126-1h20.2l-5-14.8H136.8L136.8-15.8z M161.2-24.6l3.3-9.8h-6.6
	C158.7-32.1,160.1-28,161.2-24.6L161.2-24.6z M178.9-34.5h-10.3l-5,14.8h20.2L178.9-34.5z M149.4-34.5h-5.8l-5,14.8h20.2l-5-14.8
	H149.4z"/>
<path id="Path_6439" class="st0" d="M80.3-38.3c0,1.1-0.9,1.9-1.9,1.9H16.6c-1.1,0-1.9-0.9-1.9-1.9l0,0v-3h-1.6
	c-0.2,0-0.4,0-0.6,0.1c-0.2,0.1-0.4,0.3-0.5,0.4c-0.2,0.2-0.3,0.5-0.4,0.7l0,0c-0.1,0.3-0.1,0.6-0.1,0.9l1.1,16.9
	c0,0.5,0.2,1,0.6,1.4c0.3,0.3,0.6,0.5,1,0.5h65.6c0.2,0,0.5-0.1,0.7-0.2c0.3-0.2,0.5-0.5,0.7-0.8l11.4-20H80.3V-38.3L80.3-38.3z
	 M66.5-50v-6h-16v6H66.5L66.5-50z M46.7-50v-7.9c0-1.1,0.9-1.9,1.9-1.9l0,0h19.8c1.1,0,1.9,0.9,1.9,1.9v7.9h8c1.1,0,1.9,0.9,1.9,1.9
	l0,0v3h15.6c1.1,0,1.9,0.9,1.9,1.9c0,0.3-0.1,0.7-0.2,0.9l-13,22.8c-0.5,0.9-1.1,1.6-2,2.1c-0.8,0.5-1.8,0.8-2.8,0.8H14.2
	c-1.4,0-2.8-0.6-3.8-1.7c-1-1-1.6-2.4-1.6-3.8L7.7-38.9c0-0.8,0-1.5,0.3-2.3c0.2-0.7,0.6-1.4,1.1-2s1.1-1.1,1.8-1.4
	c0.7-0.3,1.5-0.5,2.2-0.5h1.6v-8.5c0-1.1,0.9-1.9,1.9-1.9l0,0h8.5v-11c0-1.1,0.9-1.9,1.9-1.9h11.7c1.1,0,1.9,0.9,1.9,1.9V-50H46.7z
	 M60.4-46.2h16v6h-16V-46.2z M40.6-46.2h16v6h-16V-46.2L40.6-46.2z M25.1-51.7v11.5h-6.6v-11.5H25.1z M29-40.3v-24.4h7.8v24.4
	L29-40.3z"/>
<path class="st0" d="M-43,47.1c2.6,0,5.1-0.5,7.4-1.5c2.4-1,4.5-2.4,6.3-4.2c1.8-1.8,3.2-3.9,4.2-6.3c0.9-2.3,1.5-4.8,1.5-7.4
	c0-2.6-0.5-5.1-1.5-7.4c-1-2.4-2.4-4.5-4.2-6.3c-1.8-1.8-3.9-3.2-6.3-4.2c-2.3-0.9-4.8-1.5-7.4-1.5c-2.6,0-5.1,0.5-7.4,1.5
	c-2.4,1-4.5,2.4-6.3,4.2c-1.8,1.8-3.2,3.9-4.2,6.3c-0.9,2.3-1.5,4.8-1.5,7.4c0,2.6,0.5,5.1,1.5,7.4c1,2.4,2.4,4.5,4.2,6.3
	c1.8,1.8,3.9,3.2,6.3,4.2C-48.1,46.6-45.6,47.1-43,47.1L-43,47.1z M-34.5,48.3c2.7-1.1,5.2-2.8,7.2-4.8c2-2,3.7-4.5,4.8-7.2
	c1.1-2.6,1.7-5.5,1.7-8.5c0-3-0.6-5.9-1.7-8.5c-1.1-2.7-2.8-5.2-4.8-7.2c-2-2-4.5-3.7-7.2-4.8C-37.1,6.1-40,5.5-43,5.5
	c-3,0-5.9,0.6-8.5,1.7c-2.7,1.1-5.2,2.8-7.2,4.8c-2,2-3.7,4.5-4.8,7.2c-1.1,2.6-1.7,5.5-1.7,8.5c0,3,0.6,5.9,1.7,8.5
	c1.1,2.7,2.8,5.2,4.8,7.2c2,2,4.5,3.7,7.2,4.8C-48.9,49.4-46,50-43,50C-40,50-37.1,49.4-34.5,48.3L-34.5,48.3z M-43,1.9
	c-14.3,0-25.8,11.6-25.8,25.8c0,7.1,2.9,13.6,7.6,18.3c4.7,4.7,11.1,7.6,18.3,7.6c7.1,0,13.6-2.9,18.3-7.6
	c4.7-4.7,7.6-11.1,7.6-18.3c0-7.1-2.9-13.6-7.6-18.3S-35.9,1.9-43,1.9L-43,1.9z M-71.8,27.7c0,7.9,3.2,15.1,8.4,20.3
	c5.2,5.2,12.4,8.4,20.3,8.4s15.1-3.2,20.3-8.4c5.2-5.2,8.4-12.4,8.4-20.3c0-7.9-3.2-15.1-8.4-20.3C-27.9,2.2-35.1-1-43-1
	C-58.9-1-71.8,11.9-71.8,27.7L-71.8,27.7z"/>
<g>
	<text transform="matrix(1 0 0 1 -70.9507 -13.416)" style="font-family:'Montserrat-Bold'; font-size:12px;">G</text>
</g>
<path class="st0" d="M-37.3,27.4h4.8v9.1c-1,0.8-2.3,1.4-3.6,1.9c-1.4,0.5-2.7,0.8-4.2,0.9v3.5h-3.2v-3.6c-2-0.3-3.8-0.9-5.4-1.9
	c-1.6-1-2.8-2.4-3.7-4s-1.3-3.5-1.3-5.5s0.4-3.8,1.3-5.5c0.9-1.6,2.1-3,3.7-4c1.6-1,3.4-1.7,5.4-2v-3.6h3.2v3.5
	c1.7,0.1,3.3,0.5,4.6,1.2c1.4,0.7,2.6,1.5,3.5,2.7l-3.3,3.1c-1.4-1.5-3-2.3-4.8-2.5v14.2c1-0.1,2.1-0.4,3-0.9V27.4z M-47.2,32.2
	c0.9,1.2,2.2,2.1,3.7,2.5V20.9c-1.6,0.4-2.8,1.3-3.7,2.5c-0.9,1.2-1.4,2.7-1.4,4.4C-48.6,29.5-48.1,31-47.2,32.2z"/>
<path id="Path_6438" class="st1" d="M36.2,14c-11.4,0-20.7,9.3-20.7,20.7s9.3,20.7,20.7,20.7s20.7-9.3,20.7-20.7
	c0-5.5-2.2-10.8-6-14.7S41.7,14,36.2,14z M29.6,11.9V3c0-0.8,0.6-1.4,1.4-1.4h42.2c0.8,0,1.4,0.6,1.4,1.4v11.7l0,0v35.1
	c0,0.8-0.6,1.4-1.4,1.4l0,0H53.1l-0.2,0.2c-9.3,9.2-24.2,9.2-33.4,0c-9.2-9.3-9.2-24.2,0-33.4C22.3,15.2,25.8,13.1,29.6,11.9
	L29.6,11.9z M55.5,48.3c1.8-2.6,3.1-5.6,3.8-8.7h12.5v8.7H55.5z M59.7,36.5h12.1v-8.7H58.7c0.6,2.3,1,4.5,1,6.9
	C59.8,35.4,59.8,36,59.7,36.5L59.7,36.5z M57.6,24.9c-1.5-3.5-3.9-6.5-6.9-8.7h21v8.7H57.6z M46.1,13.2h25.7V4.5H32.5v6.9
	c1.2-0.2,2.5-0.3,3.7-0.3C39.6,11.1,43,11.8,46.1,13.2L46.1,13.2z M41,34.3h5.2v9.8c-1.1,0.9-2.5,1.5-3.9,2.1
	c-1.5,0.5-2.9,0.9-4.5,1v3.8h-3.5V47c-2.2-0.3-4.1-1-5.8-2.1c-1.7-1.1-3-2.6-4-4.3c-1-1.7-1.4-3.8-1.4-5.9c0-2.2,0.4-4.1,1.4-5.9
	c1-1.7,2.3-3.2,4-4.3c1.7-1.1,3.7-1.8,5.8-2.2v-3.9h3.5v3.8c1.8,0.1,3.6,0.5,5,1.3c1.5,0.8,2.8,1.6,3.8,2.9L43,29.7
	c-1.5-1.6-3.2-2.5-5.2-2.7v15.3c1.1-0.1,2.3-0.4,3.2-1V34.3z M30.3,39.5c1,1.3,2.4,2.3,4,2.7V27.3c-1.7,0.4-3,1.4-4,2.7
	s-1.5,2.9-1.5,4.8C28.8,36.5,29.3,38.2,30.3,39.5z"/>
</svg>
