<?xml version="1.0" encoding="utf-8"?>
<!-- Generator: Adobe Illustrator 25.4.1, SVG Export Plug-In . SVG Version: 6.00 Build 0)  -->
<svg version="1.1" id="Layer_1" xmlns="http://www.w3.org/2000/svg" xmlns:xlink="http://www.w3.org/1999/xlink" x="0px" y="0px"
	 width="90px" height="59.9px" viewBox="0 0 90 59.9" style="enable-background:new 0 0 90 59.9;" xml:space="preserve">
<style type="text/css">
	.st0{fill-rule:evenodd;clip-rule:evenodd;fill:#10487A;}
</style>
<path id="Path_6436" class="st0" d="M166.4-53.1h-10.3l-5,14.8h20.2L166.4-53.1L166.4-53.1z M191.5-15.8h-10.3l-5,14.8h20.2
	L191.5-15.8z M188-19.7h4.5c0.8,0,1.5,0.4,2,1c0.2,0.3,0.4,0.6,0.5,1c0.5,1.4,4.8,13.9,5.6,16.7h3.1c1.1,0,2,0.8,2,1.9
	c0,1.1-0.8,2-1.9,2c0,0-0.1,0-0.1,0h-84.8c-1.1,0-1.9-0.9-1.9-2c0-1,0.9-1.9,1.9-1.9h3.1l5.6-16.6c0.1-0.4,0.3-0.8,0.5-1.1
	c0.5-0.7,1.2-1,2-1h4.5l5.6-16.6c0.1-0.4,0.3-0.8,0.5-1.1c0.5-0.6,1.2-1,2-1h4.5l5.6-16.6c0.1-0.4,0.3-0.8,0.5-1.1
	c0.5-0.7,1.2-1,2-1h12.2c0.8,0,1.5,0.4,2,1v0c0.2,0.3,0.4,0.6,0.5,1c0.5,1.4,4.8,13.9,5.6,16.7h4.4c0.8,0,1.5,0.4,2,1
	c0.2,0.3,0.4,0.7,0.5,1.1L188-19.7L188-19.7z M173.8-5.9l-3.3-9.9h6.7L173.8-5.9L173.8-5.9z M148.7-5.9l3.3-9.8h-6.6
	C146.2-13.4,147.6-9.3,148.7-5.9L148.7-5.9z M161.9-15.8h-5.8l-5,14.8h20.2l-5-14.8H161.9z M136.8-15.8H131L126-1h20.2l-5-14.8
	H136.8L136.8-15.8z M161.2-24.6l3.3-9.8h-6.6C158.7-32.1,160.1-28,161.2-24.6L161.2-24.6z M178.9-34.5h-10.3l-5,14.8h20.2
	L178.9-34.5z M149.4-34.5h-5.8l-5,14.8h20.2l-5-14.8H149.4z"/>
<path id="Path_6439" class="st0" d="M72.5,33.8c0,1.1-0.9,1.9-1.9,1.9H8.9c-1.1,0-1.9-0.9-1.9-1.9c0,0,0,0,0,0v-3H5.4
	c-0.2,0-0.4,0-0.6,0.1c-0.2,0.1-0.4,0.3-0.5,0.4c-0.2,0.2-0.3,0.5-0.4,0.7l0,0c-0.1,0.3-0.1,0.6-0.1,0.9l1.1,16.9
	c0,0.5,0.2,1,0.6,1.4c0.3,0.3,0.6,0.5,1,0.5h65.6c0.2,0,0.5-0.1,0.7-0.2c0.3-0.2,0.5-0.5,0.7-0.8l11.4-20H72.5V33.8L72.5,33.8z
	 M58.8,22.1v-6h-16v6L58.8,22.1L58.8,22.1z M39,22.1v-7.9c0-1.1,0.9-1.9,1.9-1.9c0,0,0,0,0,0h19.8c1.1,0,1.9,0.9,1.9,1.9v7.9h8
	c1.1,0,1.9,0.9,1.9,1.9c0,0,0,0,0,0v3h15.6c1.1,0,1.9,0.9,1.9,1.9c0,0.3-0.1,0.7-0.2,0.9l-13,22.8c-0.5,0.9-1.1,1.6-2,2.1
	c-0.8,0.5-1.8,0.8-2.8,0.8H6.5C5,55.6,3.7,55,2.7,54c-1-1-1.6-2.4-1.6-3.8l-1.1-16.9c0-0.8,0-1.5,0.3-2.3c0.2-0.7,0.6-1.4,1.1-2
	c0.5-0.6,1.1-1.1,1.8-1.4C3.8,27.2,4.6,27,5.4,27H7v-8.5c0-1.1,0.9-1.9,1.9-1.9c0,0,0,0,0,0h8.5v-11c0-1.1,0.9-1.9,1.9-1.9H31
	c1.1,0,1.9,0.9,1.9,1.9v16.5L39,22.1z M52.7,26h16v6h-16V26z M32.9,26h16v6h-16L32.9,26L32.9,26z M17.4,20.4v11.5h-6.6V20.4H17.4z
	 M21.2,31.9V7.5h7.8v24.4L21.2,31.9z"/>
</svg>
