<?xml version="1.0" encoding="utf-8"?>
<!-- Generator: Adobe Illustrator 25.4.1, SVG Export Plug-In . SVG Version: 6.00 Build 0)  -->
<svg version="1.1" id="Layer_1" xmlns="http://www.w3.org/2000/svg" xmlns:xlink="http://www.w3.org/1999/xlink" x="0px" y="0px"
	 width="90px" height="78.7px" viewBox="0 0 90 78.7" style="enable-background:new 0 0 90 78.7;" xml:space="preserve">
<style type="text/css">
	.st0{fill-rule:evenodd;clip-rule:evenodd;fill:#9A1C1F;***REMOVED***
</style>
<path class="st0" d="M6.2,75.5c-1.1,0-2-0.9-2-2c0-1.1,0.9-2,2-2h4V38.9H9.9c-1.1,0-2-0.9-2-2v-6H6.2c-1.1,0-2-0.9-2-2v-5.1
	c0-0.7,0.4-1.4,1.1-1.8L44.1,3.4c0.5-0.3,1.2-0.3,1.7,0L84.5,22c0.7,0.3,1.2,1,1.2,1.8V29c0,1.1-0.9,2-2,2h-1.7v6c0,1.1-0.9,2-2,2
	h-0.4v32.7h4c1.1,0,2,0.9,2,2c0,1.1-0.9,2-2,2H6.2L6.2,75.5z M27.6,38.9v32.7h8.8V38.9h-0.4c-1.1,0-2-0.9-2-2v-6h-4.1v6
	c0,1.1-0.9,2-2,2H27.6L27.6,38.9z M26,30.9H11.8v4H26V30.9L26,30.9z M23.6,38.9h-9.4v32.7h9.4V38.9L23.6,38.9z M53.7,38.9v32.7h8.8
	V38.9H62c-1.1,0-2-0.9-2-2v-6H56v6c0,1.1-0.9,2-2,2H53.7L53.7,38.9z M52.1,30.9H37.9v4h14.2V30.9L52.1,30.9z M49.7,38.9h-9.4v32.7
	h9.4V38.9L49.7,38.9z M75.8,38.9h-9.4v32.7h9.4V38.9L75.8,38.9z M64,30.9v4h14.2v-4H64L64,30.9z M8.2,27h1.7H28h8h18.1h8h18.1h1.7
	v-1.9L45,7.3L8.2,25.1V27z"/>
</svg>
