<?xml version="1.0" encoding="utf-8"?>
<!-- Generator: Adobe Illustrator 26.0.3, SVG Export Plug-In . SVG Version: 6.00 Build 0)  -->
<svg version="1.1" id="Capa_1" xmlns="http://www.w3.org/2000/svg" xmlns:xlink="http://www.w3.org/1999/xlink" x="0px" y="0px"
	 width="90px" height="78.7px" viewBox="0 0 90 78.7" style="enable-background:new 0 0 90 78.7;" xml:space="preserve">
<style type="text/css">
	.st0{fill-rule:evenodd;clip-rule:evenodd;fill:#9A1C1F;}
	.st1{fill:none;}
</style>
<g id="Layer_1-2">
	<path id="Path_6415" class="st0" d="M141.5,21.8h-5.6v3.3h5.6V21.8z M132.1,19.9l-6.6-5.4c-0.8-0.7-0.9-1.9-0.3-2.7l0,0
		c0.4-0.4,0.9-0.7,1.5-0.7h24c1,0.1,1.8,0.9,1.9,1.9c0,0.6-0.3,1.2-0.8,1.6l-6.5,5.3v6.8c8.3,6.3,14.6,14.8,18.2,24.6
		c2,5.1,2.7,10.6,2.1,16.1c-0.6,5.2-3.2,9.9-7.3,13.2c-4.2,3.3-10.3,5.4-18.7,5.6h-1.8c-8.4-0.2-14.5-2.3-18.7-5.6
		c-4.1-3.2-6.7-8-7.3-13.2c-0.6-5.5,0.1-11,2.1-16.1c3.6-9.8,9.9-18.3,18.2-24.6V19.9z M141.6,18l3.8-3.1H132l3.8,3.1H141.6z
		 M141.9,28.9h-6.4c-8.2,5.9-14.5,14.1-18,23.6c-1.8,4.5-2.4,9.4-1.9,14.3c0.5,4.2,2.6,8.1,5.9,10.7c3.6,2.8,9,4.6,16.4,4.8h1.6
		c7.5-0.2,12.8-2,16.4-4.8c3.3-2.6,5.4-6.5,5.9-10.7c0.5-4.9-0.1-9.8-1.9-14.3C156.5,43,150.2,34.7,141.9,28.9z M143.5,57.2h4.8v9.1
		c-1.1,0.8-2.3,1.5-3.6,1.9c-1.3,0.5-2.7,0.8-4.1,0.9v3.5h-3.2V69c-1.9-0.2-3.8-0.9-5.4-1.9c-1.5-1-2.8-2.4-3.7-4
		c-1.8-3.5-1.8-7.5,0-11c0.9-1.6,2.1-3,3.7-4c1.6-1.1,3.5-1.7,5.4-2v-3.6h3.2v3.5c1.6,0.1,3.2,0.5,4.6,1.2c1.4,0.6,2.6,1.5,3.6,2.7
		l-3.3,3.1c-1.3-1.4-3-2.3-4.8-2.5v14.3c1-0.1,2.1-0.4,3-0.9L143.5,57.2z M133.6,61.9c0.9,1.2,2.2,2.1,3.7,2.5V50.6
		c-1.5,0.4-2.8,1.2-3.7,2.5C131.7,55.8,131.7,59.3,133.6,61.9z"/>
	<rect x="93.7" y="9.3" class="st1" width="90" height="78.7"/>
</g>
<path class="st0" d="M45,16.7c5.7,0,10.8,2.3,14.6,6c3.7,3.7,6,8.9,6,14.6c0,3.2-0.7,6.2-2,8.9c-1.2,2.6-3,4.8-5.1,6.7v4.3
	c0,1.4-0.6,2.7-1.5,3.6c-0.3,0.3-0.7,0.6-1.1,0.8v3.3c0,1.3-0.6,2.6-1.5,3.4c-0.9,0.8-2.2,1.4-3.5,1.4h-0.6v4.2
	c0,0.9-0.8,1.7-1.7,1.7h-7.3c-0.9,0-1.7-0.8-1.7-1.7v-4.2h-0.6c-1.4,0-2.6-0.5-3.5-1.4c-0.9-0.9-1.5-2.1-1.5-3.4v-3.3
	c-0.4-0.2-0.7-0.5-1.1-0.8h0c-0.9-0.9-1.5-2.2-1.5-3.6v-4.3c-2.1-1.8-3.9-4.1-5.1-6.7c-1.3-2.7-2-5.7-2-8.9c0-5.7,2.3-10.8,6-14.6
	C34.2,19,39.3,16.7,45,16.7L45,16.7z M27.5,17.4l-4.4-4.4c-0.7-0.7-1.7-0.7-2.4,0c-0.7,0.7-0.7,1.7,0,2.4l4.4,4.4
	c0.7,0.7,1.7,0.7,2.4,0C28.2,19.1,28.2,18.1,27.5,17.4L27.5,17.4z M64.9,19.8l4.4-4.4c0.7-0.7,0.7-1.7,0-2.4c-0.7-0.7-1.7-0.7-2.4,0
	l-4.4,4.4c-0.7,0.7-0.7,1.7,0,2.4C63.1,20.5,64.2,20.5,64.9,19.8L64.9,19.8z M18.6,35.6c0.9,0,1.7,0.7,1.7,1.7
	c0,0.9-0.7,1.7-1.7,1.7h-6.5c-0.9,0-1.7-0.8-1.7-1.7c0-0.9,0.8-1.7,1.7-1.7H18.6L18.6,35.6z M71.4,39c-0.9,0-1.7-0.8-1.7-1.7
	c0-0.9,0.8-1.7,1.7-1.7h6.5c0.9,0,1.7,0.7,1.7,1.7c0,0.9-0.8,1.7-1.7,1.7H71.4L71.4,39z M46.7,10.9c0,0.9-0.8,1.7-1.7,1.7
	c-0.9,0-1.7-0.7-1.7-1.7v-6c0-0.9,0.7-1.7,1.7-1.7c0.9,0,1.7,0.8,1.7,1.7V10.9L46.7,10.9z M49.3,38.9v-1.1c0-0.9,0.8-1.7,1.7-1.7
	c0.9,0,1.7,0.8,1.7,1.7v2.7l0,0.1v18.3h0.8c0.5,0,0.9-0.2,1.2-0.5c0.3-0.3,0.5-0.7,0.5-1.2v-5.1c0-0.5,0.2-1,0.6-1.3
	c2-1.6,3.7-3.7,4.8-6c1.1-2.3,1.7-4.8,1.7-7.5c0-4.8-1.9-9.1-5.1-12.2C54.1,22,49.8,20,45,20s-9.1,1.9-12.2,5.1
	c-3.1,3.1-5.1,7.4-5.1,12.2c0,2.7,0.6,5.2,1.7,7.5c1.1,2.3,2.7,4.4,4.7,6c0.4,0.3,0.7,0.8,0.7,1.4v5.1c0,0.5,0.2,0.9,0.5,1.2l0,0
	c0.3,0.3,0.7,0.5,1.2,0.5h0.8V40.6v-0.1v-2.7c0-0.9,0.8-1.7,1.7-1.7c0.9,0,1.7,0.8,1.7,1.7v1.1h2.6v-1.1c0-0.9,0.7-1.7,1.7-1.7
	c0.9,0,1.7,0.8,1.7,1.7v1.1H49.3L49.3,38.9z M46.7,43.4c0,0.9-0.8,1.7-1.7,1.7c-0.9,0-1.7-0.8-1.7-1.7v-1.1h-2.6v16.6h8.5V42.3h-2.6
	V43.4L46.7,43.4z M47,69.6H43v2.6H47V69.6L47,69.6z M52.6,62.8H37.4v2c0,0.4,0.2,0.7,0.4,1c0.3,0.3,0.8,0.5,1.3,0.5h2.2h7.3h2.2
	c0.5,0,0.9-0.2,1.3-0.5c0.3-0.3,0.4-0.6,0.4-1V62.8z"/>
</svg>
