<?xml version="1.0" encoding="utf-8"?>
<!-- Generator: Adobe Illustrator 26.0.3, SVG Export Plug-In . SVG Version: 6.00 Build 0)  -->
<svg version="1.1" id="Capa_1" xmlns="http://www.w3.org/2000/svg" xmlns:xlink="http://www.w3.org/1999/xlink" x="0px" y="0px"
	 width="90px" height="78.7px" viewBox="0 0 90 78.7" style="enable-background:new 0 0 90 78.7;" xml:space="preserve">
<style type="text/css">
	.st0{fill-rule:evenodd;clip-rule:evenodd;fill:#9A1C1F;}
</style>
<path class="st0" d="M54.7,12.3l2.6,1.1c0,0,0.1,0,0.1,0c0,0,0,0,0.1,0l5.6-2.9c0.7-0.4,1.5-0.5,2.3-0.4c0.8,0.1,1.5,0.5,2,1h0
	l5.8,5.8c0.6,0.6,0.9,1.3,1,2c0.1,0.8,0,1.5-0.4,2.3L71,26.8c0,0,0,0.1,0,0.1c0,0,0,0.1,0,0.1l1.1,2.7c0,0,0,0.1,0,0.1
	c0,0,0,0,0.1,0l6,1.9c0.8,0.2,1.4,0.7,1.9,1.3l0,0c0.5,0.6,0.7,1.4,0.7,2.2v8.2c0,0.8-0.3,1.6-0.7,2.2v0c-0.4,0.6-1.1,1.1-1.9,1.3
	l-6,1.9c0,0-0.1,0-0.1,0c0,0,0,0,0,0.1L71,51.7c0,0,0,0.1,0,0.1c0,0,0,0,0,0.1l2.9,5.6c0.4,0.7,0.5,1.5,0.4,2.3
	c-0.1,0.8-0.5,1.5-1,2l-5.8,5.8c-0.6,0.6-1.3,0.9-2,1c-0.8,0.1-1.5,0-2.3-0.4l-5.6-2.9c0,0-0.1,0-0.1,0c0,0-0.1,0-0.1,0l-2.7,1.1
	c0,0-0.1,0-0.1,0c0,0,0,0,0,0.1l-1.9,6c-0.2,0.8-0.7,1.4-1.3,1.9c-0.6,0.5-1.4,0.7-2.2,0.7h-8.2c-0.8,0-1.6-0.3-2.2-0.7
	c-0.6-0.5-1.1-1.1-1.3-1.9l-1.9-6c0,0,0-0.1,0-0.1c0,0,0,0-0.1,0l-2.7-1.1c0,0-0.1,0-0.1,0c0,0,0,0-0.1,0l-5.6,2.9
	c-0.7,0.4-1.5,0.5-2.3,0.4c-0.8-0.1-1.5-0.5-2-1l-5.8-5.8l-0.1-0.1c-0.5-0.5-0.8-1.2-0.9-1.9c-0.1-0.8,0-1.5,0.4-2.3l2.9-5.6
	c0,0,0-0.1,0-0.1c0,0,0-0.1,0-0.1L17.9,49c0,0,0-0.1,0-0.1c0,0,0,0-0.1,0l-6-1.9c-0.8-0.2-1.4-0.7-1.9-1.3l-0.1-0.1
	c-0.4-0.6-0.6-1.3-0.6-2v-8.2c0-0.8,0.3-1.6,0.7-2.2v0c0.4-0.6,1.1-1.1,1.9-1.3l6-1.9c0,0,0.1,0,0.1,0c0,0,0,0,0-0.1L19,27
	c0,0,0-0.1,0-0.1c0,0,0,0,0-0.1l-2.9-5.6c-0.4-0.7-0.5-1.5-0.4-2.3c0.1-0.8,0.5-1.5,1-2l0,0l5.8-5.8c0.6-0.6,1.3-0.9,2-1
	c0.8-0.1,1.5,0,2.3,0.4l5.6,2.9c0,0,0.1,0,0.1,0c0,0,0.1,0,0.1,0l2.7-1.1l0,0c0,0,0,0,0-0.1c0.7-1.9,1.3-4,1.9-6
	c0.2-0.8,0.7-1.4,1.3-1.9c0.6-0.5,1.4-0.7,2.2-0.7h8.2c0.8,0,1.6,0.3,2.2,0.7c0.6,0.5,1.1,1.1,1.3,1.9l1.9,6c0,0,0,0.1,0,0.1
	C54.6,12.2,54.6,12.2,54.7,12.3L54.7,12.3L54.7,12.3z M45,55.5c4.5,0,8.5-1.8,11.4-4.7c2.9-2.9,4.7-7,4.7-11.4s-1.8-8.5-4.7-11.4
	c-2.9-2.9-7-4.7-11.4-4.7s-8.5,1.8-11.4,4.7c-2.9,2.9-4.7,7-4.7,11.4s1.8,8.5,4.7,11.4C36.5,53.7,40.5,55.5,45,55.5L45,55.5z
	 M58.9,53.3c3.6-3.6,5.8-8.5,5.8-13.9c0-5.4-2.2-10.3-5.8-13.9c-3.6-3.6-8.5-5.8-13.9-5.8s-10.3,2.2-13.9,5.8
	c-3.6,3.6-5.8,8.5-5.8,13.9c0,5.4,2.2,10.3,5.8,13.9C34.7,56.8,39.6,59,45,59S55.3,56.8,58.9,53.3L58.9,53.3z M56,16.6l-2.7-1.1
	c-0.5-0.2-0.9-0.5-1.3-0.9c-0.4-0.4-0.6-0.9-0.8-1.4l-1.9-6c0-0.1,0-0.1-0.1-0.1s-0.1,0-0.1,0h-8.2c-0.1,0-0.1,0-0.1,0
	c0,0-0.1,0.1-0.1,0.1l-1.9,6c-0.2,0.5-0.4,1-0.8,1.4c-0.3,0.4-0.7,0.6-1.2,0.9l-0.1,0.1L34,16.6c-0.5,0.2-1,0.3-1.6,0.3
	c-0.5,0-1.1-0.2-1.5-0.4l-5.6-2.9c0,0-0.1,0-0.1,0c0,0-0.1,0-0.1,0.1l-5.8,5.8h0c0,0-0.1,0.1-0.1,0.1c0,0,0,0.1,0,0.1l2.9,5.6
	c0.3,0.5,0.4,1,0.4,1.5c0,0.5-0.1,1.1-0.3,1.6L21.1,31c-0.2,0.5-0.5,1-0.9,1.3c-0.4,0.4-0.9,0.6-1.4,0.8l-6,1.9c0,0-0.1,0-0.1,0.1
	c0,0,0,0.1,0,0.1v8.2c0,0,0,0.1,0,0.1l0,0c0,0,0.1,0.1,0.1,0.1l6,1.9c0.5,0.2,1,0.4,1.4,0.8c0.4,0.4,0.7,0.8,0.9,1.3l1.1,2.7
	c0.2,0.5,0.3,1,0.3,1.6c0,0.5-0.2,1.1-0.4,1.5l-2.9,5.6c0,0,0,0.1,0,0.1c0,0,0,0,0,0.1l5.9,5.9c0,0,0.1,0.1,0.1,0.1c0,0,0.1,0,0.1,0
	l5.6-2.9c0.5-0.3,1-0.4,1.5-0.4c0.5,0,1.1,0.1,1.6,0.3l2.7,1.1c0.5,0.2,0.9,0.5,1.3,0.9c0.4,0.4,0.6,0.9,0.8,1.4l1.9,6
	c0,0.1,0,0.1,0.1,0.1c0,0,0.1,0,0.1,0h8.2c0.1,0,0.1,0,0.1,0c0,0,0.1-0.1,0.1-0.1l1.9-6c0.2-0.5,0.4-1,0.8-1.4
	c0.4-0.4,0.8-0.7,1.3-0.9l2.7-1.1c0.5-0.2,1-0.3,1.6-0.3c0.5,0,1.1,0.2,1.5,0.4l5.6,2.9c0,0,0.1,0,0.1,0c0,0,0.1,0,0.1-0.1l5.8-5.8
	c0,0,0.1-0.1,0.1-0.1c0,0,0-0.1,0-0.1l-2.9-5.6c-0.3-0.5-0.4-1-0.4-1.5c0-0.5,0.1-1.1,0.3-1.6l1.1-2.7c0.2-0.5,0.5-1,0.9-1.3
	c0.4-0.4,0.9-0.6,1.4-0.8l6-1.9c0,0,0.1,0,0.1-0.1c0,0,0-0.1,0-0.1v-8.2c0-0.1,0-0.1,0-0.1v0c0,0-0.1-0.1-0.1-0.1l-6-1.9
	c-0.5-0.2-1-0.4-1.4-0.8c-0.4-0.4-0.7-0.8-0.9-1.3l-1.1-2.7c-0.2-0.5-0.3-1-0.3-1.6c0-0.5,0.2-1.1,0.4-1.5l2.9-5.6c0,0,0-0.1,0-0.1
	c0,0,0-0.1-0.1-0.1l-5.8-5.8l0,0c0,0-0.1-0.1-0.1-0.1c0,0-0.1,0-0.1,0l-5.6,2.9c-0.5,0.3-1,0.4-1.5,0.4C57,16.9,56.5,16.8,56,16.6
	L56,16.6z M45,30.6c-2.4,0-4.6,1-6.2,2.6v0c-1.6,1.6-2.6,3.8-2.6,6.2c0,2.4,1,4.6,2.6,6.2c1.6,1.6,3.8,2.6,6.2,2.6
	c2.4,0,4.5-0.9,6.1-2.5l0.1-0.1c1.6-1.6,2.6-3.8,2.6-6.2c0-2.4-1-4.6-2.6-6.2C49.6,31.6,47.4,30.6,45,30.6L45,30.6z M48.7,35.6
	c-0.9-0.9-2.3-1.5-3.7-1.5c-1.4,0-2.8,0.6-3.7,1.5l0,0c-0.9,0.9-1.5,2.3-1.5,3.7c0,1.4,0.6,2.8,1.5,3.7c0.9,0.9,2.3,1.5,3.7,1.5
	c1.4,0,2.7-0.6,3.6-1.5l0.1-0.1c0.9-0.9,1.5-2.3,1.5-3.7C50.3,37.9,49.7,36.6,48.7,35.6z"/>
</svg>
