<?xml version="1.0" encoding="utf-8"?>
<!-- Generator: Adobe Illustrator 16.0.0, SVG Export Plug-In . SVG Version: 6.00 Build 0)  -->
<!DOCTYPE svg PUBLIC "-//W3C//DTD SVG 1.1//EN" "http://www.w3.org/Graphics/SVG/1.1/DTD/svg11.dtd">
<svg version="1.1" id="Capa_1" xmlns="http://www.w3.org/2000/svg" xmlns:xlink="http://www.w3.org/1999/xlink" x="0px" y="0px"
	 width="22px" height="22px" viewBox="0 0 22 22" enable-background="new 0 0 22 22" xml:space="preserve">
<title>icon-search</title>
<desc>Created with Sketch.</desc>
<g id="Symbols">
	<g id="icon-search">
		<path fill="#1B1464" d="M16.233,9.552c0-1.84-0.652-3.413-1.962-4.721c-1.306-1.308-2.88-1.961-4.72-1.961
			S6.139,3.523,4.831,4.831S2.87,7.712,2.87,9.552s0.653,3.414,1.961,4.72c1.308,1.31,2.881,1.962,4.721,1.962
			s3.414-0.652,4.72-1.962C15.581,12.966,16.233,11.392,16.233,9.552z M20.414,18.966c0,0.39-0.145,0.73-0.431,1.018
			c-0.287,0.286-0.628,0.431-1.018,0.431c-0.406,0-0.746-0.145-1.019-0.431l-3.882-3.87c-1.35,0.937-2.855,1.404-4.514,1.404
			c-1.079,0-2.11-0.21-3.095-0.629c-0.984-0.418-1.833-0.983-2.546-1.697c-0.713-0.712-1.278-1.562-1.697-2.545
			c-0.419-0.984-0.628-2.017-0.628-3.095c0-1.079,0.209-2.11,0.628-3.095s0.984-1.833,1.697-2.546s1.562-1.278,2.546-1.697
			s2.016-0.628,3.095-0.628c1.078,0,2.11,0.209,3.095,0.628c0.983,0.419,1.833,0.984,2.545,1.697
			c0.714,0.713,1.279,1.562,1.697,2.546c0.419,0.984,0.629,2.016,0.629,3.095c0,1.658-0.468,3.164-1.404,4.514l3.882,3.882
			C20.273,18.226,20.414,18.565,20.414,18.966z"/>
	</g>
</g>
</svg>
