<svg xmlns="http://www.w3.org/2000/svg" width="58.05" height="52.32" viewBox="0 0 58.05 52.32"><defs><style>.cls-1{fill:#231f20;}</style></defs><g id="Layer_2" data-name="Layer 2"><g id="Layer_1-2" data-name="Layer 1"><g id="Layer_2-2" data-name="Layer 2"><g id="Layer_1-2-2" data-name="Layer 1-2"><path class="cls-1" d="M50.91,31.83l-9.76,6.82a4.54,4.54,0,0,0-4.54-3.93H35.45A46.36,46.36,0,0,1,20.9,31.83a9.72,9.72,0,0,0-10.4,2.93H1.14A1.14,1.14,0,0,0,0,35.9V46.16a1.14,1.14,0,0,0,1.14,1.13A47.18,47.18,0,0,1,13.82,49.7a53.33,53.33,0,0,0,14.76,2.59,26.06,26.06,0,0,0,12.35-2.47A92.65,92.65,0,0,0,56.59,38.9a4.55,4.55,0,0,0-5.68-7.07m4.23,5.37c-13.65,10.91-17.87,13-26.58,13a51.86,51.86,0,0,1-14.14-2.61A53.14,53.14,0,0,0,2.27,45V37h8.78a1.14,1.14,0,0,0,.91-.46A7.4,7.4,0,0,1,20.19,34,48.81,48.81,0,0,0,35.49,37h1.16a2.27,2.27,0,1,1,0,4.54H22.74a1.14,1.14,0,1,0,0,2.28H36.56a4.58,4.58,0,0,0,3.53-1.69l12.2-8.59a2.28,2.28,0,0,1,2.85,3.55"/><path class="cls-1" d="M35.4,7.16a2.07,2.07,0,0,1,.4,2.9,1.9,1.9,0,0,1-.4.4,1.14,1.14,0,1,0,1.37,1.82h0a4.35,4.35,0,0,0,.85-6.08,4.62,4.62,0,0,0-.85-.86,2.07,2.07,0,0,1-.4-2.9,1.85,1.85,0,0,1,.4-.39A1.14,1.14,0,0,0,37,.45,1.13,1.13,0,0,0,35.4.23a4.34,4.34,0,0,0-.85,6.08,4.28,4.28,0,0,0,.85.85"/><path class="cls-1" d="M42.25,7.16a2.07,2.07,0,0,1,.39,2.9,1.85,1.85,0,0,1-.39.4A1.13,1.13,0,0,0,42,12.05a1.14,1.14,0,0,0,1.59.23h0a4.37,4.37,0,0,0,0-6.94,2.07,2.07,0,0,1-.4-2.9,2.11,2.11,0,0,1,.4-.39,1.16,1.16,0,0,0,.23-1.6A1.13,1.13,0,0,0,42.25.23a4.32,4.32,0,0,0,0,6.93"/><path class="cls-1" d="M28.58,7.16a2.07,2.07,0,0,1,.4,2.9,2.16,2.16,0,0,1-.4.4,1.14,1.14,0,0,0,1.36,1.82h0a4.34,4.34,0,0,0,0-6.94,2.07,2.07,0,0,1-.39-2.9,1.8,1.8,0,0,1,.39-.39A1.14,1.14,0,1,0,28.58.23a4.34,4.34,0,0,0-.85,6.08,4.28,4.28,0,0,0,.85.85"/><path class="cls-1" d="M28,27.4a2.54,2.54,0,0,1,1.25,2.27,1.14,1.14,0,0,0,1.14,1.14H44a1.14,1.14,0,0,0,1.14-1.14,2.54,2.54,0,0,1,1.25-2.27A11.38,11.38,0,0,0,52,17.64V15.92a1.14,1.14,0,0,0-1.14-1.14h-8.5a1.14,1.14,0,1,0,0,2.27h7.39v.57a9.11,9.11,0,0,1-4.55,7.8,4.88,4.88,0,0,0-2.27,3H31.4a4.88,4.88,0,0,0-2.27-3,9.11,9.11,0,0,1-4.55-7.8v-.54H32a1.14,1.14,0,0,0,0-2.28H23.56a1.14,1.14,0,0,0-1.14,1.14v1.7A11.36,11.36,0,0,0,28,27.4"/></g></g></g></g></svg>