<svg xmlns="http://www.w3.org/2000/svg" width="59.24" height="49.14" viewBox="0 0 59.24 49.14"><defs><style>.cls-1{fill:#fff;}</style></defs><g id="Layer_2" data-name="Layer 2"><g id="Layer_1-2" data-name="Layer 1"><path class="cls-1" d="M59.15,48.05,48.07,31.6l-.28-.42a.5.5,0,0,0-.44-.23H43.5c.32-1.68.66-3.39.93-5.07.2-1.37.29-2.72-.5-3.44s-1.68-.65-3.54-.18a1.82,1.82,0,0,1-1.23,0c-.16-.11-.28-.41-.36-.91a15,15,0,0,0-.47-1.92c-.1-.35-.2-.69-.28-1-1.15-4.71-1.66-4.81-6.7-4.41a6.66,6.66,0,0,1-4.09-.73c-.36-.23-.33-.49,0-1.32a3.85,3.85,0,0,0,.28-1.23,13.34,13.34,0,0,0-2.2-7.82C24.1,1.34,20.92.27,16.81,0c-3.1-.17-7.12.17-9.14,1.73L7.46,2c-1.94,2.26-2.51,5-3,7.55a25.62,25.62,0,0,1-1.17,4.33c-.61,1.52.56,2.19,1.33,2.63a2.36,2.36,0,0,1,1.09.88,12.31,12.31,0,0,0,8.68,6.43,30.24,30.24,0,0,1,5.57,2.55,26.13,26.13,0,0,0,6.64,2.86,1.43,1.43,0,0,1,.92.69c0,.12,0,.26-.23.41a4.69,4.69,0,0,0-.63.63H12.46a.51.51,0,0,0-.44.22L8.5,36.23l-1,1.44-.11.15-1,1.48-6.25,9a.5.5,0,0,0,0,.55.53.53,0,0,0,.47.3L34.83,49a4.51,4.51,0,0,0-.09-.53,4.51,4.51,0,0,1,.09.53h.81l15-.06,8.08,0a.56.56,0,0,0,.48-.28.07.07,0,0,0,0-.05A.53.53,0,0,0,59.15,48.05Zm-15-16c-.06.27-.12.69-.15.81L43.76,34a3.69,3.69,0,0,1-.11.45,4.69,4.69,0,0,0-.84,0A3.89,3.89,0,0,0,42.9,34l.23-1.12c0-.15,0-.29.08-.44s.06-.24.08-.37Zm-3.45,8.23a2.6,2.6,0,0,0,1.38.1,2.47,2.47,0,0,1,2.22.5,1.9,1.9,0,0,1,.16,1.93s0,.07,0,.12c-1.55-.21-3.89-.25-5.12-.28A18.13,18.13,0,0,1,34.18,42a4.55,4.55,0,0,1-1.92-1.37h5.61l.08-.42A3.25,3.25,0,0,1,39,38.41a3.43,3.43,0,0,1,1-.64,5.15,5.15,0,0,0,.61-.36,5,5,0,0,0,1.84-2.16,3.6,3.6,0,0,1,.9-.1,5.26,5.26,0,0,1-1.88,2.26,2.42,2.42,0,0,0-1.18,2.26A.8.8,0,0,0,40.69,40.25ZM28.52,29.65a2.41,2.41,0,0,0-1.73-1.48,24.86,24.86,0,0,1-6.37-2.75,29.7,29.7,0,0,0-5.82-2.65,11.19,11.19,0,0,1-8-5.86A3.3,3.3,0,0,0,5.1,15.55c-.91-.5-1.1-.69-.87-1.27A27.18,27.18,0,0,0,5.47,9.75c.53-2.58,1-5,2.79-7l.12-.14C9.79,1.49,13.15.91,16.76,1.12s6.7,1.17,7.66,2.42a12.1,12.1,0,0,1,2,7.18,3,3,0,0,1-.23.91c-.24.73-.63,1.83.51,2.58a7.77,7.77,0,0,0,4.77.88c4.58-.36,4.57-.36,5.54,3.6.08.37.19.72.3,1.08a15.66,15.66,0,0,1,.43,1.77,2.27,2.27,0,0,0,.81,1.65,1.85,1.85,0,0,0,1,.27,4.69,4.69,0,0,0,1.08-.15c1.38-.36,2.22-.38,2.54-.08s.38,1.1.16,2.48c-.28,1.73-.62,3.49-1,5.24-.06.23-.1.48-.14.72a3.59,3.59,0,0,0-.08.35l-.12.59L42,33l-.14.73a3.91,3.91,0,0,1-1.27,2.38,4.44,4.44,0,0,1-.95.65h0A4.51,4.51,0,0,0,37,39.53H28.36a3.81,3.81,0,0,0-2.84-.69,4.4,4.4,0,0,1-1.24-.05c-.59-.18-.74-.27-.75-.22s0-.16.34-.49a10.44,10.44,0,0,0,1.88-3.37A11.54,11.54,0,0,1,27.12,32a4.82,4.82,0,0,1,.82-.88c.07-.07.14-.13.19-.19A1.4,1.4,0,0,0,28.52,29.65ZM25.83,32a5.7,5.7,0,0,0-.3.54l-.27-.16L24.57,32ZM9.7,36.39l.66-1L12.74,32h10a19.11,19.11,0,0,1,2,1c.16.1.32.18.48.27-.15.33-.28.67-.42,1-.22.55-.44,1.09-.7,1.59a23.67,23.67,0,0,0-6.21.6,4.21,4.21,0,0,1-.58.09,1.11,1.11,0,0,0-.32-.44c-1.89-1.49-4.67-.38-6.89.53L9.22,37l.33-.39ZM8.56,38.13c-.37.17-.73.35-1.09.54.45-.24.91-.47,1.37-.68s1-.35,1.51-.57c2-.83,4.57-1.85,6.09-.64a.81.81,0,0,1,.18.35,1.76,1.76,0,0,0,.31.61,3.15,3.15,0,0,0,1.22.86,1.9,1.9,0,0,0,.88,0l.26,0a1.7,1.7,0,0,1,.86.39.67.67,0,0,1,0,.27,1.18,1.18,0,0,0,.21.72,2.81,2.81,0,0,0,1.31.92,2.91,2.91,0,0,0,1.21,0,1.87,1.87,0,0,0,.55-.18l0,0c.1,0,.23-.09.23-.12a.46.46,0,0,1,.09.2,1,1,0,0,1,0,.42,1.1,1.1,0,0,1-.2.31,1.3,1.3,0,0,0-.35.69,1.77,1.77,0,0,0,0,1.26.93.93,0,0,0,0,.1,2.87,2.87,0,0,0,1.23.88A2.63,2.63,0,0,0,27,44,3,3,0,0,1,29,43.49c.77.19,1.24,1,1.73,1.76A5.9,5.9,0,0,0,32,47a1.93,1.93,0,0,0,1.32.35,3.27,3.27,0,0,1,.86.17,1.13,1.13,0,0,1,.31.4l-32.32,0Zm42.86,9.7h-2.1l-12.75.06H35.4a2.38,2.38,0,0,0-.78-1.1,3.68,3.68,0,0,0-1.24-.28,1.35,1.35,0,0,1-.83-.16,5.55,5.55,0,0,1-1.16-1.52c-.56-.92-1.13-1.87-2.24-2.14a3.57,3.57,0,0,0-2.51.63c-.67.35-1.24.66-1.77.41a2,2,0,0,1-.86-.6,1,1,0,0,1,0-.66.77.77,0,0,0,0-.15.12.12,0,0,1,.05-.08.85.85,0,0,1,.14-.19,1.53,1.53,0,0,0,.36-.68A1.41,1.41,0,0,0,24.17,40c-.35-.25-.74-.06-1,0a1.09,1.09,0,0,1-.37.13,2.13,2.13,0,0,1-.66,0h0l-.19,0a2,2,0,0,1-.88-.62.61.61,0,0,1,0-.27,1,1,0,0,0-.28-.81,2.53,2.53,0,0,0-1.36-.63l-.41,0a1.44,1.44,0,0,1-.51,0,2.24,2.24,0,0,1-.72-.49,2.87,2.87,0,0,0,1-.24,22.23,22.23,0,0,1,4.92-.45,6.92,6.92,0,0,1-.55.69,1.64,1.64,0,0,0-.59,1.45,1.26,1.26,0,0,0,.82.77,3.31,3.31,0,0,0,.67.24,3,3,0,0,0,.52.09,7.63,7.63,0,0,0,1.07,0,2.59,2.59,0,0,1,2.18.51l.15.18h3.28a6,6,0,0,0,2.72,2.11,18.2,18.2,0,0,0,5.4.69c1.2,0,3.55.07,5,.27a.79.79,0,0,0,.21.44c.42.41,1.27.38,2.1.35a3.89,3.89,0,0,1,2.42.37,5,5,0,0,1,1.26,1.4,3.27,3.27,0,0,0,1.37,1.36,4.84,4.84,0,0,0,.61.22Zm2.46-.07a15.46,15.46,0,0,1-2.74-2.11,4.85,4.85,0,0,0-2.88-2.28,4.18,4.18,0,0,0-2,0,.53.53,0,0,1-.63-.6c.06-.38.13-.83.17-1.21.09-.86-.5-1.37-1.7-2a4.18,4.18,0,0,0-1.26-.48.34.34,0,0,1-.23-.53,12.37,12.37,0,0,1,1.13-1.34C45.18,35.64,45.36,32,45.36,32h1.79L57.64,47.76Z"/></g></g></svg>