<svg xmlns="http://www.w3.org/2000/svg" width="44.13" height="43.89" viewBox="0 0 44.13 43.89"><defs><style>.cls-1{fill:#231f20;}</style></defs><g id="Layer_2" data-name="Layer 2"><g id="Layer_1-2" data-name="Layer 1"><g id="Layer_2-2" data-name="Layer 2"><g id="Layer_1-2-2" data-name="Layer 1-2"><path class="cls-1" d="M42.1.68A1.81,1.81,0,0,0,40.89,1,1.94,1.94,0,0,0,38.22.35a2,2,0,0,0-.39.31A2,2,0,0,0,35,.64l0,0h0a1.86,1.86,0,0,0-3.12.65H18.6a.51.51,0,0,0-.5.53v.23H15.93A7.37,7.37,0,0,1,12,1,8.05,8.05,0,0,0,7.57,0H2.74a1.85,1.85,0,0,0-2,1.65,1.82,1.82,0,0,0,.44,1.41A2,2,0,0,0,.77,6.25a2,2,0,0,0,0,2.81h0a1.87,1.87,0,0,0-.22,2.62,1.78,1.78,0,0,0,.72.52V25.49a.57.57,0,0,0,.61.54h.19v2A7.42,7.42,0,0,1,1,32,8,8,0,0,0,0,36.43v4.83a1.94,1.94,0,0,0,3.08,1.6,2,2,0,0,0,2.65.78,2.05,2.05,0,0,0,.49-.39,2,2,0,0,0,2.81,0v0h0a1.86,1.86,0,0,0,2.63.11,1.92,1.92,0,0,0,.49-.76h13.3a.52.52,0,0,0,.51-.53v-.25h2.11A7.42,7.42,0,0,1,32,42.94a8.09,8.09,0,0,0,4.45.93h4.83a1.86,1.86,0,0,0,1.66-3,1.94,1.94,0,0,0,.77-2.64,2.07,2.07,0,0,0-.38-.5,2,2,0,0,0,0-2.81h0a1.86,1.86,0,0,0,.47-2.58,1.8,1.8,0,0,0-1-.74V18.42a.57.57,0,0,0-.56-.56H42v-2a7.41,7.41,0,0,1,1.11-3.89,8,8,0,0,0,.93-4.47V2.63A2,2,0,0,0,42.1.68ZM22.48,2.35h9.29v9.29H22.48Zm-3.38,0h2.33v9.29H19.1ZM1.88,11.17H1.64a.81.81,0,0,1-.43-.7.78.78,0,0,1,.67-.77H4.67a.52.52,0,0,0,.54-.5h0a.52.52,0,0,0-.52-.52H2.14a.93.93,0,0,1,0-1.86H4.78a.54.54,0,0,0,.54-.53.52.52,0,0,0-.5-.54H2.09a.93.93,0,0,1,0-1.86H5.6a.54.54,0,0,0,0-1.08H2.74A.93.93,0,0,1,2.74,1H7.57a7.29,7.29,0,0,1,3.9.93,8.48,8.48,0,0,0,4.46,1.29H18v7.65H16.39a4.23,4.23,0,0,0-3.71,2.32V11.67a.51.51,0,0,0-.49-.5Zm.5,10.35V12.23h9.29v9.29Zm9.29,1.08V25H2.38V22.6Zm.13,8.63a.51.51,0,0,0-.48.52h0V42.21A.8.8,0,0,1,9.76,42V39.22a.54.54,0,0,0-.54-.54h0a.52.52,0,0,0-.54.5v0h0v2.66a.93.93,0,0,1-1.86,0h0V39.22a.54.54,0,0,0-.53-.54h0a.56.56,0,0,0-.54.56v2.67a.93.93,0,1,1-1.86,0V38.33a.54.54,0,0,0-1.08,0h0v2.93a.93.93,0,0,1-1.86,0V36.43a7.31,7.31,0,0,1,.93-3.88,8.45,8.45,0,0,0,1.29-4.46V26h7.65v1.56a4.27,4.27,0,0,0,2.12,3.61Zm9.85,10.35H12.36V32.29h9.29Zm3.38,0H22.67V32.29H25Zm.58-10.35H14.76a2.83,2.83,0,0,0-1-.81,3.14,3.14,0,0,1-1.66-1.86,3.18,3.18,0,0,1-.16-1V26h.27a.54.54,0,0,0,.52-.55h0V14.89a2.6,2.6,0,0,0,.91-1.14,3.16,3.16,0,0,1,2.81-1.85H18v.27a.5.5,0,0,0,.49.52H29.36a2.61,2.61,0,0,0,1,.82,3.16,3.16,0,0,1,1.65,1.86,3.19,3.19,0,0,1,.17,1v1.52h-.28a.54.54,0,0,0-.52.56h0V29.08a2.71,2.71,0,0,0-.91,1.13,3.16,3.16,0,0,1-2.81,1.86H26v-.28a.51.51,0,0,0-.42-.57h0Zm16.71,1.53h.21a.81.81,0,0,1,.43.7.77.77,0,0,1-.73.8h-2.8a.52.52,0,0,0-.54.5h0a.52.52,0,0,0,.52.52h2.65a.93.93,0,1,1,0,1.86H39.3a.54.54,0,0,0,0,1.08H42A.89.89,0,0,1,42,40H38.4a.54.54,0,0,0,0,1.08h2.94a.93.93,0,1,1,0,1.86H36.51a7.14,7.14,0,0,1-3.88-.77,8.56,8.56,0,0,0-4.46-1.28H26v-7.8h1.64a4.23,4.23,0,0,0,3.71-2.32v1.45a.51.51,0,0,0,.48.52H42.21Zm-.59-10.44v9.29H32.44V22.32Zm-9.29-1.08V18.82h9.29v2.42ZM43,7.46a7.24,7.24,0,0,1-.76,3.88,8.48,8.48,0,0,0-1.34,4.48v2H33.28V16.28a4.28,4.28,0,0,0-2.12-3.6h1.19a.51.51,0,0,0,.48-.52h0V1.88a.28.28,0,0,0,0-.13A.8.8,0,0,1,34.39,2V4.67a.54.54,0,0,0,.54.54h0a.52.52,0,0,0,.54-.5v0h0V2a.93.93,0,1,1,1.86,0h0V4.69a.54.54,0,0,0,.54.54h0a.55.55,0,0,0,.53-.56V2a.93.93,0,0,1,1.86,0V5.6a.54.54,0,1,0,1.08,0v-3a.93.93,0,1,1,1.86,0Z"/></g></g></g></g></svg>