<svg xmlns="http://www.w3.org/2000/svg" xmlns:xlink="http://www.w3.org/1999/xlink" width="398.32" height="378.64" viewBox="0 0 398.32 378.64"><defs><style>.cls-1{isolation:isolate;}.cls-2{fill:#002b6a;}.cls-3{fill:#e2282f;}.cls-16,.cls-4{fill:#fff;}.cls-5{fill:#1e57a4;}.cls-6{fill:#b1dee8;}.cls-7{fill:#9ac7dc;}.cls-22,.cls-7{mix-blend-mode:multiply;}.cls-8{fill:#2b9fbb;}.cls-9{fill:url(#NovŽ_pol_ko_pÞechodu_3);}.cls-10{fill:url(#NovŽ_pol_ko_pÞechodu_3-2);}.cls-11{fill:url(#NovŽ_pol_ko_pÞechodu_3-3);}.cls-12{fill:url(#NovŽ_pol_ko_pÞechodu_3-4);}.cls-13{fill:url(#NovŽ_pol_ko_pÞechodu_3-5);}.cls-14{fill:url(#NovŽ_pol_ko_pÞechodu_3-6);}.cls-15{fill:url(#linear-gradient);}.cls-16{opacity:0.83;}.cls-17{fill:url(#NovŽ_pol_ko_pÞechodu_3-7);}.cls-18{fill:url(#NovŽ_pol_ko_pÞechodu_3-8);}.cls-19{fill:#e9f6f8;}.cls-20{fill:#e1f2f7;}.cls-21{fill:#fcfcf6;}.cls-22{opacity:0.77;}.cls-23{fill:url(#linear-gradient-2);}.cls-24{fill:url(#linear-gradient-3);}.cls-25{fill:url(#NovŽ_pol_ko_pÞechodu_3-9);}.cls-26{fill:#d9eef3;}.cls-27{fill:#edf5f2;}.cls-28{fill:#b4dee6;}.cls-29{fill:url(#NovŽ_pol_ko_pÞechodu_3-10);}.cls-30{fill:#c8e7ec;}.cls-31{fill:#174572;}.cls-32{fill:url(#NovŽ_pol_ko_pÞechodu_3-11);}.cls-33{fill:#113c5f;}.cls-34{fill:url(#linear-gradient-4);}.cls-35{fill:url(#linear-gradient-5);}.cls-36{fill:url(#linear-gradient-6);}.cls-37{fill:url(#linear-gradient-7);}.cls-38{fill:url(#linear-gradient-8);}.cls-39{fill:url(#NovŽ_pol_ko_pÞechodu_3-12);}.cls-40{fill:url(#NovŽ_pol_ko_pÞechodu_3-13);}</style><linearGradient id="NovŽ_pol_ko_pÞechodu_3" x1="216.29" y1="-543.17" x2="225.09" y2="-612.99" gradientTransform="translate(131.29 709.48) rotate(-7.2)" gradientUnits="userSpaceOnUse"><stop offset="0" stop-color="#56b1ce"/><stop offset="1" stop-color="#e9f6f8"/></linearGradient><linearGradient id="NovŽ_pol_ko_pÞechodu_3-2" x1="195.04" y1="-556.24" x2="202.57" y2="-615.92" gradientTransform="translate(137.18 720.48) rotate(-7.31)" xlink:href="#NovŽ_pol_ko_pÞechodu_3"/><linearGradient id="NovŽ_pol_ko_pÞechodu_3-3" x1="230.86" y1="-551.64" x2="238.38" y2="-611.32" gradientTransform="translate(137.18 720.48) rotate(-7.31)" xlink:href="#NovŽ_pol_ko_pÞechodu_3"/><linearGradient id="NovŽ_pol_ko_pÞechodu_3-4" x1="-130.01" y1="140.17" x2="-130.01" y2="21.61" gradientTransform="translate(407.94 45.23)" xlink:href="#NovŽ_pol_ko_pÞechodu_3"/><linearGradient id="NovŽ_pol_ko_pÞechodu_3-5" x1="530.55" y1="194.82" x2="530.55" y2="147.98" gradientTransform="translate(-237.18)" xlink:href="#NovŽ_pol_ko_pÞechodu_3"/><linearGradient id="NovŽ_pol_ko_pÞechodu_3-6" x1="558.15" y1="195.15" x2="558.15" y2="146.63" gradientTransform="translate(-309.18)" xlink:href="#NovŽ_pol_ko_pÞechodu_3"/><linearGradient id="linear-gradient" x1="10103.98" y1="193.29" x2="10174.92" y2="193.29" gradientTransform="matrix(-1, 0, 0, 1, 10406.91, 0)" gradientUnits="userSpaceOnUse"><stop offset="0" stop-color="#d3e2e7"/><stop offset="1" stop-color="#fbfffb"/></linearGradient><linearGradient id="NovŽ_pol_ko_pÞechodu_3-7" x1="10178.13" y1="69.36" x2="10178.13" y2="142.43" gradientTransform="matrix(-1, 0, 0, 1, 10406.91, 0)" xlink:href="#NovŽ_pol_ko_pÞechodu_3"/><linearGradient id="NovŽ_pol_ko_pÞechodu_3-8" x1="2909.15" y1="-7052.96" x2="2909.15" y2="-7107.32" gradientTransform="translate(7388.63 3018.28) rotate(-90)" xlink:href="#NovŽ_pol_ko_pÞechodu_3"/><linearGradient id="linear-gradient-2" x1="254.04" y1="151.65" x2="254.04" y2="140.83" gradientUnits="userSpaceOnUse"><stop offset="0" stop-color="#fff"/><stop offset="1" stop-color="#bed9e6"/></linearGradient><linearGradient id="linear-gradient-3" x1="268.03" y1="151.65" x2="268.03" y2="140.83" xlink:href="#linear-gradient-2"/><linearGradient id="NovŽ_pol_ko_pÞechodu_3-9" x1="271.07" y1="-3688.89" x2="265.4" y2="-3692.01" gradientTransform="translate(2315.79 3142.18) rotate(-37.49)" xlink:href="#NovŽ_pol_ko_pÞechodu_3"/><linearGradient id="NovŽ_pol_ko_pÞechodu_3-10" x1="11477.27" y1="330.14" x2="11463.07" y2="349.43" gradientTransform="matrix(-1, 0, 0, 1, 11829.91, 0)" xlink:href="#NovŽ_pol_ko_pÞechodu_3"/><linearGradient id="NovŽ_pol_ko_pÞechodu_3-11" x1="-24.8" y1="304.04" x2="-22.13" y2="300.88" gradientTransform="translate(370.41)" xlink:href="#NovŽ_pol_ko_pÞechodu_3"/><linearGradient id="linear-gradient-4" x1="159.92" y1="301.98" x2="159.92" y2="262.54" gradientUnits="userSpaceOnUse"><stop offset="0" stop-color="#56b9ce"/><stop offset="1" stop-color="#fff"/></linearGradient><linearGradient id="linear-gradient-5" x1="172.81" y1="302.61" x2="172.81" y2="266.95" xlink:href="#linear-gradient-4"/><linearGradient id="linear-gradient-6" x1="185.71" y1="301.98" x2="185.71" y2="262.54" xlink:href="#linear-gradient-4"/><linearGradient id="linear-gradient-7" x1="198.6" y1="301.98" x2="198.6" y2="262.54" xlink:href="#linear-gradient-4"/><linearGradient id="linear-gradient-8" x1="211.49" y1="301.76" x2="211.49" y2="261.06" xlink:href="#linear-gradient-4"/><linearGradient id="NovŽ_pol_ko_pÞechodu_3-12" x1="-4258.42" y1="370.38" x2="-4264.79" y2="366.87" gradientTransform="translate(4193.02 -812.05) rotate(-9.79)" xlink:href="#NovŽ_pol_ko_pÞechodu_3"/><linearGradient id="NovŽ_pol_ko_pÞechodu_3-13" x1="406.09" y1="79.67" x2="400.79" y2="80.42" gradientTransform="translate(-258.7 108.2) rotate(3.99)" xlink:href="#NovŽ_pol_ko_pÞechodu_3"/></defs><g class="cls-1"><g id="Layer_2" data-name="Layer 2"><g id="Layer_1-2" data-name="Layer 1"><path class="cls-2" d="M87.79,154.57l-.87-.24,1.33-4.77.87.25-1.33,4.76Zm2-7.3L89,147,90.36,142l.87.24-1.41,5.06Zm2.11-7.59-.87-.25,1.41-5.06.87.24-1.41,5.07Zm2.12-7.6-.88-.24,1.41-5.07.87.25-1.4,5.06Zm2.11-7.6-.87-.24,1.4-5.06.87.24-1.4,5.06Zm50.77-5.23-1.44-1.53.66-.62.55.59,1.4-2.83.81.4-2,4Zm-48.66-2.36-.87-.24,1.4-5.07.88.24-1.41,5.07Zm45.42-1.08-3.6-3.83.66-.62,3.6,3.83-.66.62Zm6.39-2.9-.81-.4,2.34-4.71.81.4-2.34,4.71Zm-11.79-2.84-3.6-3.83.65-.62,3.61,3.83-.66.62Zm-37.91-.78-.87-.24,1.41-5.07.87.25-1.41,5.06Zm53.21-3.44-.81-.4,2.33-4.71.82.4-2.34,4.71Zm-20.71-1.53-3.6-3.83.66-.62,3.6,3.83-.66.62Zm-30.39-2.63-.87-.24L103,96.39l.87.24-1.41,5.06Zm54.6-2.9-.81-.41,2.34-4.7.81.4-2.34,4.71Zm-29.61-.21-3.6-3.83.66-.62,3.6,3.83-.66.62ZM104.6,94.1l-.87-.24,1.41-5.07L106,89,104.6,94.1Zm17.48-1.26L118.48,89l.66-.62,3.6,3.83-.66.62Zm38.52-1.12-.81-.4,2.34-4.71.81.41-2.34,4.7Zm-43.92-4.63-3.6-3.82.66-.62,3.6,3.82-.66.62Zm-10-.59-.88-.24,1.41-5.06.87.24-1.4,5.06Zm57.39-1.84-.81-.4,2.34-4.71.81.4-2.34,4.71Zm-52.83-3.31-2.42-2.57,0,.13-.87-.25.46-1.67,3.51,3.74-.65.62Zm56.34-3.75-.81-.4,2.33-4.71.81.4-2.33,4.71Zm36.7,0-5-1.48.25-.87,5.05,1.49-.26.86Zm2.42-.83-.85-.31,1.79-4.94.85.31-1.79,4.94Zm-10-1.39-5-1.49L192,73l5,1.48-.25.87Zm-7.57-2.23-5-1.48.26-.87,5,1.48-.26.87Zm-7.56-2.23-5-1.48.25-.87,5,1.49-.25.86Zm-10.51-.35-.81-.4,1.53-3.07,2.48.73-.25.87-1.76-.52-1.19,2.39Zm38.31-1.21-.85-.31,1.79-4.94.86.3-1.8,5Zm2.69-7.42-.85-.3,1.8-4.94.85.3-1.8,4.94Zm2.7-7.41-.85-.3,1.79-4.94.85.3-1.79,4.94Zm31.05-3.1-4.8-2.14.37-.82,4.8,2.14-.37.82Zm2.73-.11-.56-.72,4.16-3.21.56.72-4.16,3.21Zm-9.93-3.1-4.8-2.14.36-.82L239,47.37l-.37.82Zm-21.16-1.1-.85-.3,1.79-4.94.85.3-1.79,4.94Zm37.33-.62-.55-.71,4.16-3.21.55.71-4.16,3.21ZM231.47,45l-4.81-2.13L227,42l4.8,2.14-.36.82Zm-7.21-3.2-4.59-2.05.09-.21-.41-.14.25-.68,5,2.25-.37.83Zm36.82-.12-.55-.72,4.16-3.21.55.72-4.16,3.21Zm6.24-4.82-.55-.71,4.16-3.22.56.72-4.17,3.21ZM273.57,32l-.55-.72,4.16-3.21.55.72L273.57,32Zm6.24-4.82-.55-.72,4.16-3.21L284,24l-4.16,3.21Zm6.24-4.81-.55-.72,4.16-3.21.56.72-4.17,3.21Zm6.25-4.82-.55-.72,4.16-3.21.55.72-4.16,3.21Zm6.24-4.82-.55-.71,4.16-3.21.55.71-4.16,3.21Z"/><path class="cls-2" d="M222.6,38.85a2.78,2.78,0,1,0-2.21,3.25A2.77,2.77,0,0,0,222.6,38.85Z"/><path class="cls-2" d="M208.67,77a2.78,2.78,0,1,0-2.21,3.25A2.78,2.78,0,0,0,208.67,77Z"/><path class="cls-2" d="M174.75,67.15a2.78,2.78,0,1,0-2.21,3.25A2.78,2.78,0,0,0,174.75,67.15Z"/><path class="cls-2" d="M149.45,117.89a2.78,2.78,0,1,0-2.2,3.25A2.77,2.77,0,0,0,149.45,117.89Z"/><path class="cls-2" d="M111.51,77.65a2.78,2.78,0,1,0-2.21,3.25A2.79,2.79,0,0,0,111.51,77.65Z"/><path class="cls-2" d="M250.1,51.08a2.78,2.78,0,1,0-2.21,3.26A2.79,2.79,0,0,0,250.1,51.08Z"/><path class="cls-2" d="M312.87,7.42A7.31,7.31,0,1,1,305.67,0,7.31,7.31,0,0,1,312.87,7.42Z"/><path class="cls-3" d="M308.25,7.38a2.73,2.73,0,1,1-2.69-2.76A2.73,2.73,0,0,1,308.25,7.38Z"/><path class="cls-4" d="M372.57,102.14a28.42,28.42,0,1,1-28.65-28.2A28.42,28.42,0,0,1,372.57,102.14Z"/><path class="cls-4" d="M368.14,102.17A24,24,0,1,1,344,78.37,24,24,0,0,1,368.14,102.17Z"/><path class="cls-2" d="M344.14,129.05a26.69,26.69,0,0,1-.2-53.37h.21a26.69,26.69,0,0,1,.21,53.37Zm0-48H344a21.3,21.3,0,0,0,.16,42.59h.18a21.3,21.3,0,0,0-.17-42.59Z"/><path class="cls-4" d="M357.94,102.25A13.79,13.79,0,1,1,344,88.57,13.79,13.79,0,0,1,357.94,102.25Z"/><path class="cls-5" d="M344.15,118.85a16.53,16.53,0,0,1-16.48-16.36A16.47,16.47,0,0,1,344,85.88h.13a16.49,16.49,0,0,1,.13,33Zm0-27.58h-.09a11.1,11.1,0,0,0,.09,22.19h.09a11.1,11.1,0,0,0-.09-22.19Z"/><path class="cls-3" d="M350,102.32a5.87,5.87,0,1,1-5.92-5.83A5.86,5.86,0,0,1,350,102.32Z"/><path class="cls-6" d="M343.86,101.5l7.8-8.11,1,1-7.8,8.1C344.1,103.31,343,102.45,343.86,101.5Z"/><path class="cls-6" d="M346.82,96.79l5-5.09,2.63,2.55-5,5.17s-1.62.56-2.39-.21S346.82,96.79,346.82,96.79Z"/><path class="cls-2" d="M368.07,78.36s2.94-3.31,3.53-4.13a.88.88,0,0,0-1.28-1.15,22.51,22.51,0,0,0-3.48,4.31Z"/><path class="cls-5" d="M351.74,91.72c.71-.67,18.28-16.26,18.51-16.52s.82-.09.35.39-15.63,18-16.2,18.68C353.18,95.07,350.88,93,351.74,91.72Z"/><path class="cls-2" d="M370.41,75.8s2.44.53,3.39,1.72c1.23,1.55.63,7.46-5.74,9.21a20,20,0,0,1-8.06,0Z"/><path class="cls-5" d="M370.13,75.49s-.54-2.43-1.74-3.38c-1.55-1.22-7.46-.59-9.18,5.79a20,20,0,0,0,0,8.06Z"/><path class="cls-5" d="M123.7,265.15l-96,.12-.14.15s3.86,13,2.89,25.67-9.12,13.57-14.58,10.69C10.61,299,0,300.14,0,313.13v.62c0,13.16,11.1,13.59,15.94,11.31,5.53-2.6,13.59-1.93,14.6,10.66s-2.8,25.67-2.8,25.67l.14.22s13,3.83,25.65,2.8,13.27-9.05,10.68-14.58c-2.29-4.85-1.85-15.93,11.31-15.94h.62c13,0,14.16,10.61,11.36,15.92s-1.92,13.59,10.69,14.56,25.65-2.86,25.65-2.86l.12-.22s3.84-13,2.8-25.65-9.05-13.27-14.59-10.67c-4.85,2.27-15.92,1.85-15.93-11.31V313c0-13,10.6-14.16,15.9-11.35,5.45,2.89,13.59,1.9,14.57-10.71s-2.87-25.65-2.87-25.65Z"/><path class="cls-7" d="M35.1,377.18c0,.81,11,1.46,24.56,1.46s24.57-.65,24.57-1.46-11-1.46-24.57-1.46S35.1,376.37,35.1,377.18Z"/><rect class="cls-8" x="83.65" y="152.79" width="238.91" height="162.95"/><polygon class="cls-5" points="237.65 353.56 171.28 353.56 178.82 326.07 230.11 326.07 237.65 353.56"/><rect class="cls-2" x="146.38" y="355.44" width="115.99" height="4.62"/><path class="cls-2" d="M324.65,326.71H84.28A10.31,10.31,0,0,1,74,316.42V156.84a10.32,10.32,0,0,1,10.32-10.3H324.65A10.32,10.32,0,0,1,335,156.84V316.42A10.31,10.31,0,0,1,324.65,326.71Zm-233-18H317.33V164.59H91.6Z"/><path class="cls-2" d="M205.94,155.79a1.54,1.54,0,1,1-1.54-1.54A1.55,1.55,0,0,1,205.94,155.79Z"/><polygon class="cls-4" points="220.33 213.23 212.72 205.62 205.11 213.23 210.07 213.23 215.37 213.23 220.33 213.23"/><circle class="cls-4" cx="212.79" cy="218.25" r="2.81"/><path class="cls-4" d="M212.79,223.41a2.82,2.82,0,1,1-2.81,2.81A2.81,2.81,0,0,1,212.79,223.41Z"/><path class="cls-4" d="M212.79,231.52a2.82,2.82,0,1,1-2.81,2.82A2.82,2.82,0,0,1,212.79,231.52Z"/><path class="cls-9" d="M269.45,96.22c0,12.86-.08,56.78-.08,56.78l16.76,0s.08-60.15.09-67C278.34,80.74,269.46,87,269.45,96.22Z"/><path class="cls-10" d="M251.39,100c0,12.86,0,56.78,0,56.78h16.76s0-60.15-.05-67C260.25,84.5,251.38,90.82,251.39,100Z"/><path class="cls-11" d="M287.5,100c0,12.86,0,56.78,0,56.78H304.3s-.05-60.15-.05-67C296.36,84.5,287.49,90.82,287.5,100Z"/><path class="cls-12" d="M303.93,163.1c-3.26,3.88-12.76,20.77-16.55,20.77h-44.5c-3.79,0,1.53-17,1.53-20.77V150a6.87,6.87,0,0,1,6.87-6.86h56.2a6.87,6.87,0,0,1,6.87,6.86Z"/><path class="cls-13" d="M294.48,185.5H268a50.8,50.8,0,0,1-2.24-14.38c0-16.72,39.68-28.21,39.68-28.21s-.08-8.58-.26-13.26c-.16-4.35-5.08-7.69-8.42-7.69h-1.93c-11,0-10.28-15-10.28-15h15.55c7.77,0,21,9.2,21,22.49v9.08c0,13.11-1,14.94-7.11,22.49C305.29,171.57,294.48,185.5,294.48,185.5Z"/><path class="cls-14" d="M241.12,185.62s-14.55-15.77-14.55-24.26-.11-39.65,0-48.49c7.75-2.58,18.7,7.21,18.7,14.62v25.68S256,153.09,264.33,165c7.65,11,7.1,20.63,7.1,20.63Z"/><rect class="cls-2" x="228.12" y="201.62" width="74.84" height="107.01"/><path class="cls-15" d="M232,192.77v9h70.94v-17H232.18S232,188.07,232,192.77Z"/><path class="cls-16" d="M238.57,209.74a5.05,5.05,0,1,0,5.05,5A5,5,0,0,0,238.57,209.74Z"/><path class="cls-17" d="M226.56,129.13V114.91a8.94,8.94,0,0,1,3.06.94c1.24.71,1.44,2.42,1.37,4.61v6.41a2.39,2.39,0,0,1-2.36,2.26Z"/><path class="cls-18" d="M297.41,106.91H286.12a8.88,8.88,0,0,0,.94,3.06c.71,1.25,2.42,1.44,4.61,1.38h3.48a2.4,2.4,0,0,0,2.26-2.36Z"/><path class="cls-19" d="M298.56,25.9s.41-.79.33-1.12a11.8,11.8,0,0,0-.78-1.87c-.33-1.2-.46-1.51-.62-2,.3-.07.63,0,.82.53a1.5,1.5,0,0,0,.72.91s0-.61,0-.81c0-.86-.1-2.31.16-2.34.49-.05.42,2.34.63,2.37s.4-2.44.75-2.38-.05,2.46.17,2.52.75-1.95,1.21-1.75c.26.13-.45,1.7-.65,2.3a12.08,12.08,0,0,1-.15,1.28,7.63,7.63,0,0,1-.84,1.92l-.37,1Z"/><path class="cls-20" d="M283.17,52.13c9.09-9.14,15.38-26.8,15.38-26.8l2.12.84a121.38,121.38,0,0,1-12.91,34c-2.45-4.95-3.66-4.28-4.29-3.28C283,56.19,279.66,55.66,283.17,52.13Z"/><rect class="cls-2" x="231.35" y="82.47" width="13.75" height="18.65" rx="2.22" transform="translate(-15.46 63.17) rotate(-14.64)"/><path class="cls-2" d="M243.11,92.17l-.72-2.75a1.55,1.55,0,0,1,1.11-1.88l1.5-.4a1.55,1.55,0,0,1,1.89,1.11l.72,2.75a1.54,1.54,0,0,1-1.11,1.88l-1.5.4A1.56,1.56,0,0,1,243.11,92.17Zm3.09-3.74a.83.83,0,0,0-1-.6l-1.51.4a.83.83,0,0,0-.6,1L243.8,92a.84.84,0,0,0,1,.6l1.5-.4a.82.82,0,0,0,.6-1Z"/><path class="cls-19" d="M248.66,87s.24.89.28,1.19c.08.53-.87,2.15-1,3.56,0,.13-.47-.16-.39-.57a4.07,4.07,0,0,0,0-1.12l-.82.6.11.38-.56.09a.33.33,0,0,1-.42-.27.29.29,0,0,0-.13-.26.53.53,0,0,1-.21-.49.83.83,0,0,0-.14-.35c-.13-.23-.05-.35-.05-.35a8,8,0,0,1,.88-.92c.55-.44,1.48-1,1.48-1l.41-.63Z"/><polygon class="cls-4" points="237.31 91.89 235.83 82.77 236.39 82.63 237.84 91.75 241.1 100.68 240.54 100.83 237.31 91.89"/><path class="cls-21" d="M238.28,93l-.79.21a1.15,1.15,0,0,1-1.4-.84h0a1.19,1.19,0,0,1,.82-1.43l.79-.21Z"/><path class="cls-2" d="M259.52,142.08l-.06,1.61,1.43,0,0-.59,1.46.65h1.9s.22-.36-.11-.43c-.09,0-1.27-.43-1.27-.43l-.41-.39Z"/><path class="cls-2" d="M274.82,142.24l.06,1.45,1.43,0,0-.59,1.56.58h1.86s.22-.36-.11-.43c-.1,0-1.59-.5-1.59-.5l-.61-.48Z"/><path class="cls-4" d="M281.42,86.91S288.56,77,289.07,66c.4-8.46-6.13-13.3-6.13-13.3Z"/><path class="cls-4" d="M283.59,90.34s1.21-8.8,3.18-19.44c1.62-8.72-3.92-18.43-3.92-18.43l-4.77.08S270,59.61,267.81,68A78.78,78.78,0,0,0,266,79.07l-.15,11Z"/><path class="cls-20" d="M280.27,90.61s-.59-5.46,1.53-8.6c2.31-3.41,2.51-10.39,2.51-10.39a48.38,48.38,0,0,1-2.74,9.95,27.64,27.64,0,0,0-2,9Z"/><path class="cls-4" d="M265.91,87.52c.08-7.37-2.06-21.72-.69-28.79a4.17,4.17,0,0,1,1.91-1.58c6.65-2.48,9.84-3.62,9.84-3.62s5.57,12.9-.76,22.29S267.61,86.84,265.91,87.52Z"/><path class="cls-20" d="M281.9,76.43s-1.85,4.25-3.41,7.09-1.9,4.13-2.73,4.1a17.06,17.06,0,0,0-5.56.75,31.72,31.72,0,0,1,1.35-4.63,6.4,6.4,0,0,1,1.61-1.83L276,79.43Z"/><path class="cls-3" d="M282.76,54.33s.44.26.6,1.31a3.15,3.15,0,0,1-.25,1.31,18.12,18.12,0,0,1,2.41,9.9c-.55,8.54-9.65,18.46-9.65,18.46l-4.42.62.68-4.66s9.51-6.76,11-15c1-5.7-.8-9.12-.8-9.12a3.13,3.13,0,0,1-1.29-.93A5.4,5.4,0,0,0,282.76,54.33Z"/><path class="cls-2" d="M277.5,142a11.35,11.35,0,0,1-3.53.53c-.28-10.19-2.84-18-.09-26a136.2,136.2,0,0,0-4-26.34l13.67.18Z"/><path class="cls-4" d="M247.73,87.13l1.41,1.07s16.33-17.75,20.33-22.27-4.22-7.25-4.22-7.25Z"/><path class="cls-2" d="M278.43,90.23l-16,52.1s-2.35-.11-3.19-.17c.55-9.55,1.13-21.34,4.17-25.94,1.5-14.35,1.16-18.59,2.44-26.2C272.3,90.29,278.43,90.23,278.43,90.23Z"/><g class="cls-22"><path class="cls-23" d="M243.81,154.84s3,.19,7.48,0a30.55,30.55,0,0,1,9.94-10.42h-.45l1.2-.24,1.85-.19c.39,0,.44-.21.44-.21l-2-.05-2,.31.58-.33-1.39,0-1.28.81h-.32C253.41,146.15,247.59,149.48,243.81,154.84Z"/><path class="cls-24" d="M263.31,157.58a45.92,45.92,0,0,1,12.84-13,2.38,2.38,0,0,0-.31-.06l1.66-.33,1.83-.32c.39,0,.44-.2.44-.2h-1.86l-2.06.37.45-.39-1.41,0-1,.69c-.29,0-.5,0-.84,0-5.84,2.48-10.64,4.79-16.74,12.46C256.29,156.84,258.6,157.86,263.31,157.58Z"/></g><path class="cls-20" d="M277.35,52.79l-.4.75a8.57,8.57,0,0,0,3.76,2.61A4,4,0,0,0,282.58,54,7.51,7.51,0,0,1,277.35,52.79Z"/><path class="cls-25" d="M277.33,52.81a3.87,3.87,0,0,0-.1-1.79,8.51,8.51,0,0,1,.59-3,16.75,16.75,0,0,1,2.87,1.63,2.61,2.61,0,0,0,2.61.3A23.89,23.89,0,0,0,285.67,48a20.89,20.89,0,0,0-3.1,5.76C281,54.55,277.33,52.81,277.33,52.81Z"/><path class="cls-19" d="M285.48,48.22c-.65.53-1.75,1.55-2.44,2a1.6,1.6,0,0,1-1.88-.14L279.41,49a2.63,2.63,0,0,1-1,0,.8.8,0,0,1-.41-1.28c.72-1.23-2.24-3.08-2.24-3.08L276.84,43l1.8-.36,5.23,1.74a.29.29,0,0,1-.05.43c-.23.25-.57.66-.57.66s2.34,2.07,2.43,2.2S285.74,48,285.48,48.22Z"/><path class="cls-2" d="M281.39,44.3c.17.19.14.26-.06.42a3.41,3.41,0,0,1-.81.55A8,8,0,0,1,281,44.1C281.13,43.87,281.22,44.1,281.39,44.3Z"/><path class="cls-2" d="M273.84,47.22c.1-3.22,3.15-6.14,4.29-5.49a1.15,1.15,0,0,1,.51.94c-1.24.84-2.34,1.74-1.41,2.24.26.19,3.56,1.9,2.7,2.75-.48-.19-1.72-.6-2.11.35-.22.55,1,1.15-.6,3.06C275.86,49.62,273.83,48.61,273.84,47.22Z"/><path class="cls-7" d="M322.58,375.09c0,.75,9.41,1.35,21,1.35s21-.6,21-1.35-9.41-1.35-21-1.35S322.58,374.34,322.58,375.09Z"/><path class="cls-26" d="M357.77,358.12a15.45,15.45,0,0,0-.89-5.05h25.91s1.82,1,1.82,5.38-1.82,5-1.82,5H356.88A18.27,18.27,0,0,0,357.77,358.12Z"/><polygon class="cls-4" points="357.64 356.15 384.68 356.15 384.68 356.43 357.67 356.43 357.64 356.15"/><polygon class="cls-4" points="357.71 356.89 384.68 356.89 384.68 357.16 357.73 357.16 357.71 356.89"/><polygon class="cls-4" points="357.67 359.83 384.47 359.83 384.47 360.1 357.63 360.1 357.67 359.83"/><path class="cls-3" d="M356.43,353.74h23c.07,0,1.62.21,1.62,4.51s-1.38,4.52-1.37,4.52H356.47a.52.52,0,0,0-.46.57.53.53,0,0,0,.46.58h39.14s1.93,0,1.93-5.65-1.89-5.69-1.89-5.69H356.43a.59.59,0,0,0,0,1.15Z"/><path class="cls-4" d="M383.35,363.92s2.06-.45,2.06-5.62-2.06-5.72-2.06-5.72h3.7s2.06.55,2.06,5.72-2.06,5.62-2.06,5.62Z"/><path class="cls-27" d="M395.63,364.35c-3.6-.12-32.52,0-32.52,0s-2.16.95-2.16,5.36,2.16,5,2.16,5h32.52S394.13,368.66,395.63,364.35Z"/><polygon class="cls-4" points="395.13 366.53 362.33 366.53 362.33 366.94 395.08 366.94 395.13 366.53"/><polygon class="cls-4" points="395.01 367.6 362.33 367.6 362.33 368 394.98 368 395.01 367.6"/><polygon class="cls-4" points="395.19 372.36 362.52 372.36 362.52 371.95 395.17 371.95 395.19 372.36"/><path class="cls-2" d="M396.35,365H375.58c-.08,0-1.92.2-1.92,4.5s1.64,4.49,1.62,4.49H396a.58.58,0,0,1,0,1.15H356.87s-2,0-2-5.63,2-5.66,2-5.66h39.53a.56.56,0,0,1,.55.57A.57.57,0,0,1,396.35,365Z"/><path class="cls-2" d="M367.69,375.16s-2.27-.46-2.27-5.59,2.27-5.69,2.27-5.69H363.6s-2.27.55-2.27,5.69,2.27,5.59,2.27,5.59Z"/><path class="cls-2" d="M373.17,375.16s-2.27-.46-2.27-5.59,2.27-5.69,2.27-5.69h-4.09s-2.27.55-2.27,5.69,2.27,5.59,2.27,5.59Z"/><path class="cls-27" d="M357.52,341.78H390s2.16,1,2.16,5.36-2.16,5-2.16,5H357.52A20.87,20.87,0,0,0,357.52,341.78Z"/><polygon class="cls-28" points="393.8 350.29 357.91 350.29 357.97 349.89 393.8 349.89 393.8 350.29"/><polygon class="cls-28" points="393.79 349.22 358.04 349.22 358.08 348.82 393.79 348.82 393.79 349.22"/><polygon class="cls-28" points="393.61 344.2 357.99 344.2 357.97 343.8 393.61 343.8 393.61 344.2"/><path class="cls-5" d="M396.28,352.58H390.2l-.14,0h-32.9a.58.58,0,0,1,0-1.15H390s1.62-.23,1.62-4.5-1.84-4.49-1.92-4.5H356.8a.57.57,0,0,1,0-1.14h33a1.21,1.21,0,0,1,.33.05h6.23s2-.05,2,5.61S396.28,352.58,396.28,352.58Z"/><polygon class="cls-19" points="329.51 322.94 347.54 320.24 346.69 324.27 329.66 324.19 329.51 322.94"/><path class="cls-19" d="M335.79,320.23a3.05,3.05,0,0,1-1.06.27c-.35,0-3.47.77-3.47.77s0-.89.64-1a2.63,2.63,0,0,0,1-.49l-3-1.65a10.67,10.67,0,0,1-1.44.6c-.24,0-.4-.2-.33-.24.62-.35,2-1.19,2-1.19s1.05-.72,1.38-.55.76.4.76.4l3.35,1.79Z"/><path class="cls-19" d="M330.49,323.79a.35.35,0,0,1-.05.25c-.18.3-1.75.34-2.58-.09a14.77,14.77,0,0,1-1.64-1.2l-1.75,0s-1.13.47-1.36.52-.42-.17-.35-.21a10.37,10.37,0,0,1,2.12-1.08c.16-.12,1-1.08,1.39-1s1.8,1,2.62,1.34l1.45.66.18.19Z"/><path class="cls-29" d="M374.19,331.86c.8,6.15-16.76,6.46-24.15,8,5.12,1.73,10.32,19.12,15.77,29a2.4,2.4,0,0,1,.43.68l-.6,1-.1,2.59-.69.4-.62.09,0-3.91L353.5,355.08c-4.43-6-8.34-11.35-8.72-11.89-.85-1.23-2-3.37,0-6.87.64-1.11,4.53-5.82,4.53-5.82S373.66,327.78,374.19,331.86Z"/><path class="cls-5" d="M355.5,302.69s-2.87,18-3.11,19.31a3,3,0,0,1-.43,1.13c-5.46-1.57-2.9,1.18-4.59,1.19-4.39,0-8.26,0-8.26,0l-.65-2.86,9.21-1.29s.33-4.79.9-11.8C349.19,300.77,355.5,302.69,355.5,302.69Z"/><path class="cls-30" d="M373.4,324.08s-15.47-.63-20.39-8.82c-5.14-8.54-1.64-14.53-1.64-14.53Z"/><path class="cls-5" d="M373.69,328.68c-2.29-4.44-12.72-10.57-18.59-13.11-4.6-2-4.12-14-4.12-14a3.74,3.74,0,0,0,.81-.07c2.7,2.7,14.8,5.3,19.19,6.54,8.75,8,19.24,17.14,19.24,17.14S377.4,330.33,373.69,328.68Z"/><path class="cls-5" d="M389.08,324.06s-17.94-16-23.12-20.72A18,18,0,0,0,355.2,299c-1.07,0-2.63-.15-3.17,3.06.79,6,.7,8.73,19.87,20.66C376.16,325.5,389.08,324.06,389.08,324.06Z"/><path class="cls-19" d="M338.7,374.19l2.25-3.46-1-35h0c-.29-6,6.32-6.89,6.32-6.89l42.53-3.14s10.88,18.7-14.3,15.91c-6.27-.69-11.25-3.27-27.65-5.17,2.28,6.73-3.83,32.13-4,34.57-.38.54-3,3.8-3,3.8Z"/><path class="cls-2" d="M338.76,374.15a2.63,2.63,0,0,1-1.69,1.06c-.28,0-.15.39-.15.39h2.61c.65,0,1.09-1.88,2-2.56a6.47,6.47,0,0,1,.23,2.52h.63a6.41,6.41,0,0,1,.61-3.13,1.14,1.14,0,0,0-.14-1.45,14.93,14.93,0,0,0-1.56,1.7C340,374.15,339.28,374.26,338.76,374.15Z"/><path class="cls-2" d="M390.22,325.17c5.58,4.78-1.62,15.48,5.22,22.43-6.36,2-33.6-2.3-43.45-10.14-4.15-3.31-4.31-8.81-4.31-8.81S384.09,325.31,390.22,325.17Z"/><path class="cls-19" d="M352.14,310.85c1,1.72,2,1.42,2,1.42a26,26,0,0,1-1.84-10.3c-.13.11-1.29.19-1.65.58C350.6,306.26,351.23,309.3,352.14,310.85Z"/><path class="cls-19" d="M352.86,323.81l-19.66-5.75.16,1.66s10,4.46,15.23,6.59S352.86,323.81,352.86,323.81Z"/><path class="cls-5" d="M343,320.86l9.9,2.9s1.49-8,3.14-17c.75-4.12,5-4.53,5-4.53s5.71,2.47,3.28,7.81c-.37.87-5.93,14.19-6.35,15.21-.34.84-1.46,5.17-6.2,2.81-1.95-1-6.23-2.94-9.71-4.49Z"/><path class="cls-31" d="M318.83,327.66h19.95a.73.73,0,0,0,0-1.46H318.83a.73.73,0,0,0,0,1.46Z"/><path class="cls-2" d="M319.68,375.59H321V332.45a4.14,4.14,0,0,1,4.14-4.14h5.66a4.15,4.15,0,0,1,4.14,4.14v43.14h1.36V332.45a5.51,5.51,0,0,0-5.5-5.5h-5.66a5.5,5.5,0,0,0-5.5,5.5Z"/><path class="cls-6" d="M338.88,324.29v.27a1.32,1.32,0,0,1-1.25,1.39H319.92a1.32,1.32,0,0,1-1.25-1.39v-.27Z"/><path class="cls-6" d="M318.64,324.19l-.15.08c-.47.32-.7.22-1-.37l-9-15.84c-.34-.59-.37-1,.09-1.27l.14-.08Z"/><path class="cls-2" d="M364.24,373.55a2.59,2.59,0,0,1-.75,1.84c-.2.2.11.41.11.41l2.11-1.54c.53-.38-.22-2.16.09-3.22a6.4,6.4,0,0,1,1.66,1.91l.51-.37a6.36,6.36,0,0,1-1.33-2.89,1.15,1.15,0,0,0-1-1.09,15.41,15.41,0,0,0-.27,2.29C365.28,372.8,364.73,373.33,364.24,373.55Z"/><path class="cls-2" d="M345.43,306.08c2.41-.51,5.5-4.29,6.27-5,.46-3.26-4.34-11.33-4.34-11.33s-7.74-1.74-8.13,2.55c-.18,1.9,1.33,10.35.39,13.6A8.94,8.94,0,0,0,345.43,306.08Z"/><path class="cls-32" d="M353.42,298.89c-1.62-.61-1.42-2.28-1.5-2.84l-5.07-2.89a6.88,6.88,0,0,0,.75,5.29c.46.83-.35,2-1,2.58a25.83,25.83,0,0,0-1.95,2c3.07-1.29,4.92.53,7.78,2.36C352.21,303.26,352.46,300.28,353.42,298.89Z"/><path class="cls-19" d="M345,302.88a5.35,5.35,0,0,0,2.55-2.41c.59-1.41-.39-4.1-.39-4.1a2.19,2.19,0,0,0,.11-1.86c-.45-.79-.49-1.27-2-.9-2.25.55-2-2.93-2-2.93l-1.86-.19a1.35,1.35,0,0,0-.93,1.09,9.66,9.66,0,0,0,.55,5.28c0,1.62-.09,2.84-.09,2.84a.44.44,0,0,0,.53.1.69.69,0,0,1,.58.05,1.58,1.58,0,0,1,.06.83.75.75,0,0,0,.62.33.55.55,0,0,0,.07.5c.89.26.64,1.58,1.35,1.71C344.37,303.27,344.52,303.17,345,302.88Z"/><path class="cls-33" d="M341.81,297.25c.05.09.1.17.43,0a4.36,4.36,0,0,0,1-.71c.07-.06-.57.14-1.64.14-.3,0-.06.09.07.18A.8.8,0,0,0,341.81,297.25Z"/><path class="cls-2" d="M343.58,288.29c-4.21,1-3.26,4.27-3.26,4.27s2.7-.41,3.12,1.25c.61,2.36,1.58,5.18,4.06,6.31,1.35.61,1.91,1.49,8.18-1.15a3.55,3.55,0,0,1-1.86-1.19C353,294.8,351.1,286.45,343.58,288.29Z"/><rect class="cls-34" x="156" y="297.92" width="7.83" height="10.67"/><rect class="cls-35" x="168.9" y="286.17" width="7.83" height="22.42"/><rect class="cls-36" x="181.79" y="277.34" width="7.83" height="31.25"/><rect class="cls-37" x="194.68" y="283.8" width="7.83" height="24.79"/><rect class="cls-38" x="207.57" y="259.6" width="7.83" height="48.99"/><path class="cls-19" d="M85,290.11a2.38,2.38,0,0,0,1.21-.29c.34-.19,3-2.74,3-2.74a.91.91,0,0,1-.2,1.25c-.55.52-.45.75-.45.75s0,.08,1.37,0a4.77,4.77,0,0,1,2.24-.06c.12,0,.37.32.19.49a.49.49,0,0,1,.26.46c0,.18-1,.41-1.66.77.47,0,1.42-.39,1.38.07a13.05,13.05,0,0,1-1.66.53,13.62,13.62,0,0,1-2.1.58,10.6,10.6,0,0,1-2.06-.05l-1.66,0S84.94,291,85,290.11Z"/><path class="cls-30" d="M55.33,279.5c7.43,3,8.25,4.66,14.06,6.91S85.25,290,85.25,290l0,2.49s-10.38,1-17.68-.75c-3.92-1-16.3-4.41-16.3-4.41a31.69,31.69,0,0,1-5.72-7.26C47.29,279.53,51.08,277.77,55.33,279.5Z"/><polygon class="cls-2" points="78.82 377.53 83.02 377.53 121.34 274.57 117.14 274.57 78.82 377.53"/><polygon class="cls-2" points="55.95 377.53 60.15 377.53 98.47 274.57 94.26 274.57 55.95 377.53"/><polygon class="cls-2" points="62.68 366.55 83.11 366.55 83.73 364.89 63.3 364.89 62.68 366.55"/><polygon class="cls-2" points="67.64 353.24 88.16 353.24 88.78 351.58 68.26 351.58 67.64 353.24"/><polygon class="cls-2" points="72.35 340.6 92.74 340.6 93.36 338.94 72.97 338.94 72.35 340.6"/><polygon class="cls-2" points="77.3 327.29 97.64 327.29 98.26 325.63 77.92 325.63 77.3 327.29"/><polygon class="cls-2" points="82.2 314.15 102.57 314.15 103.19 312.48 82.82 312.48 82.2 314.15"/><polygon class="cls-2" points="87.15 300.84 107.46 300.88 108.08 299.22 87.77 299.18 87.15 300.84"/><polygon class="cls-2" points="91.86 288.19 112.2 288.19 112.82 286.53 92.48 286.53 91.86 288.19"/><path class="cls-2" d="M36.72,375.41l-.12,2,1.73,0,0-.71,2.41.78H43s.27-.43-.13-.52l-2.25-.64-1.93-1.27Z"/><path class="cls-2" d="M51.84,375.6l-.12,2,1.73.05,0-.71,2.41.78h2.24s.27-.44-.13-.52l-2.25-.64-2-1.27Z"/><path class="cls-30" d="M60.22,319.5S61,308,62.25,296c1-9.84-8-20.33-8-20.33l-3.41.94s-8.25,6.75-9.63,16.25c-.84,5.82.23,18.24.23,18.24l-.13,9.78Z"/><path class="cls-4" d="M40.71,319.69a50.18,50.18,0,0,0-.37-17.76c-1.64-8.54-2.67-17.55,2.39-20.54,4.16-2.45,7.39-4.17,7.39-4.17l.43-.57.25,0s5.45,2.4,5.74,2.64c.53.43-1,8.47-4.87,8.73-6,0-7,1.94-8,3.87-1.67,3.28,6.59,9.45,7.67,10.53,1.71,1.71,2.64,9.38,2,17.67C49,322.37,40.71,319.69,40.71,319.69Z"/><path class="cls-3" d="M56.68,279.84a1.79,1.79,0,0,1,1,1.51,2.28,2.28,0,0,1-.15,1.28A23.1,23.1,0,0,1,60.4,293c.42,9.54,0,18.51,0,18.51L56.7,315.1,54.84,311a127.82,127.82,0,0,0,2.87-18.32c.48-6.44-1.13-9.77-1.13-9.77a4.51,4.51,0,0,0-1.12-1.34A3.15,3.15,0,0,0,56.68,279.84Z"/><path class="cls-2" d="M51.62,376.18a41.74,41.74,0,0,0,4.31,0c.54-15.62.9-21,2-31.43A143.17,143.17,0,0,0,60.39,317l-14.83.2a129.94,129.94,0,0,1,4.89,27.77S47.34,350,51.62,376.18Z"/><path class="cls-2" d="M36.09,376.19c2.45-.08,4.51,0,4.87-.06,2.53-10.85,4-17.35,7.36-31.31A76.21,76.21,0,0,0,55,317.05s-6.61.12-14.06,0c-1.89,6.72,1.56,4.57-.87,25.66C40.06,342.72,36.87,348.11,36.09,376.19Z"/><path class="cls-30" d="M50.39,276.89l-.3.35,4.09,4.7a4.49,4.49,0,0,0,2.23-2.33A9.62,9.62,0,0,1,50.39,276.89Z"/><path class="cls-39" d="M50.7,276.8s.34-.79-.27-3.28,2.19-2.73,2.19-2.73,2.25,1.11,2.79,2.37,1.15,2.62,1.72,2.49a7.81,7.81,0,0,1,2.76.06s-2.91,1.22-3.33,3.57C53.66,279.47,50.7,276.8,50.7,276.8Z"/><path class="cls-19" d="M59.75,275.74c-1.11.14-1.47.17-2.52.29-1.39.17-1.88-1.61-1.88-1.61L55,273.36a2.43,2.43,0,0,1-1.8-.9c-.17-.2-.78-1.47.23-2,1.5-.77-.33-4.37-.33-4.37l2.1-.84,2,.8A10.21,10.21,0,0,1,59,268.73c.7,1,1.67,2.38,1.67,2.38s.07.33-.33.4a1.89,1.89,0,0,0-.68.23s.44,2,.69,3.37A.62.62,0,0,1,59.75,275.74Z"/><path class="cls-2" d="M58.67,269.64c0,.09,0,.17-.32.26a4.07,4.07,0,0,1-1.11.07c-.08,0,.49-.26,1.27-.91.22-.19.1,0,.05.16A.88.88,0,0,1,58.67,269.64Z"/><path class="cls-2" d="M54.72,271.16c-.54-.81-.95-1.12-1.64-.4s.28,2.55-2.51,3.45c-.78-2.64-1.33-4.91-1-6.36.92-2.78,7-4.44,7.7-3.06a1.41,1.41,0,0,1-.08,1.27c-1.78,0-3.46.23-2.83,1.33C54.46,267.66,56.31,270.64,54.72,271.16Z"/><path class="cls-19" d="M77.35,307.84a1.35,1.35,0,0,0,.61.07c.38,0,4.13-1.14,4.13-1.14s.35.61-.54.88a2.8,2.8,0,0,0-1,.49s0,.07,1.23.61a4.81,4.81,0,0,1,2,.55c.09.07.18.45-.05.52a.5.5,0,0,1,0,.54,4.79,4.79,0,0,1-1.84.33c.42.22,1.44.3,1.21.69a14.69,14.69,0,0,1-1.73-.27,14.72,14.72,0,0,1-2.14-.43,10,10,0,0,1-1.81-1l-.7-.35S77,308.73,77.35,307.84Z"/><path class="cls-4" d="M51.81,285.3c3.76,7.08,7.31,10.19,12.1,14.16s13.91,8.43,13.91,8.43L77,310.25s-13-3.93-19.65-7.45a89.44,89.44,0,0,1-12-7.9c-3.21-2.51-8.59-8.84-1.74-13.16C45.15,281.28,49.75,281.43,51.81,285.3Z"/><path class="cls-19" d="M154.46,218.78l3.93-6.79h0a2.62,2.62,0,0,1,1.23-.38,9.36,9.36,0,0,0,2.61-.24,7.27,7.27,0,0,0,1.57-2.22c-.26-.3-.71.08-1.09.4-.64.46-.18-.25-.18-.25s1.15-.91,1.49-1.24c-.19-.27-.36-.24-.6-.17a7.53,7.53,0,0,0-1.26.83c-.86.28-1.15.43-2.22.71-.1-.16-.21-.29-.05-1,.12-.58.62-1.1.08-1.35a15.07,15.07,0,0,1-1.75,2.25,3.92,3.92,0,0,0-.83,1.44L151,218.62Z"/><path class="cls-20" d="M156.27,215.89s-6.77,11.62-10.4,11.6-10.87.18-10.87.18l.46-3.63s7.34-.94,9.63-1.78,9.15-8.2,9.15-8.2Z"/><path class="cls-5" d="M148.59,115,141,91.43a24.73,24.73,0,1,0,31.3,30.38Z"/><path class="cls-4" d="M174.21,109.15a1.52,1.52,0,0,0,0-.21A24.73,24.73,0,0,0,145.8,88.48a23.42,23.42,0,0,0-3.28.79l7.2,23.48Z"/><path class="cls-3" d="M151.16,114l.05.15,23.62,7.27a24.58,24.58,0,0,0,.85-10.9Z"/><path class="cls-4" d="M151.8,252.88a35.28,35.28,0,0,0,.14-7.93,33.68,33.68,0,0,0-2.88-11.42c.65-1.08,1.21-2.65.37-3.87-1.41-2-8.48-4-8.48-4s-7.65-8.2-9.92-2c-1.37,3.52,10.51,20.84,10.51,20.84s-4,2.75-3.77,7.1C147.68,254.09,151.8,252.88,151.8,252.88Z"/><path class="cls-19" d="M144.34,305.33c.45-7.91.87-18.29,2.23-25,.15-1.28,1.42-10.52,2.71-16.72.43-2.09,1.67-9.7,1.67-9.7s-11.22,3.14-10.65,6.8a73.71,73.71,0,0,1,.43,18.93c-3.63,3.76,1.16,16,1.69,24.3-1.89,2.2.83,1.19,1.91,3.77l1.63,0Z"/><path class="cls-19" d="M105.92,274.58l2.85-.46L130,283.78h0c3.61,1.73,7.56-4.85,7.56-4.85l12.54-19.57s-6.65-13.61-11.45,2.58c-1.2,4-4.94,8.21-7.91,16.47-4-4.92-15.89-3.8-21.63-5.6-.43.1-3.15.92-3.15.92Z"/><path class="cls-33" d="M106,274.57a1.83,1.83,0,0,0-1.13.8.16.16,0,0,1-.29-.12c.07-.16.46-1.37.59-1.67s1.5-.08,2.17-.45a2.53,2.53,0,0,0-1.49-.59l.22-.65a5.41,5.41,0,0,0,2.22.31c.64-.14,1,.69,1,.69s-.23.4-1.41.52A2.14,2.14,0,0,0,106,274.57Z"/><path class="cls-2" d="M151.81,252.86c-3,16.55-4.11,20.53-4.35,28.17-5.76.83-5.67-4.28-9.7-2.88s-6.27-2.32-6.78-3.82c5.92-6.21,8.24-15.85,8.24-15.85s-1.84-4.11-1.42-6.94C141.61,250.79,151.81,252.86,151.81,252.86Z"/><path class="cls-2" d="M145.83,307.47a2.51,2.51,0,0,0,1.55,1,.19.19,0,1,1,0,.37c-.23,0-2,0-2.4,0-.61,0-.81-1.67-1.61-2.28a6.55,6.55,0,0,0-.44,2.22l-.51,0a6.82,6.82,0,0,0-.7-2.89c-.47-.68.36-1.52.36-1.52s.65.14,1.36,1.43A3,3,0,0,0,145.83,307.47Z"/><path class="cls-40" d="M132.57,221.29c.71-1.27-.28-6.43-.46-6.92l2.72-4.48a6.42,6.42,0,0,1,1.71,4.58c0,.86,1.05,1.15,1.84,1.34a8.24,8.24,0,0,0,2.52,0c-1.67.58-2.7,1.4-2.92,2.31s-.48,3.28-.76,4.5A7.13,7.13,0,0,0,132.57,221.29Z"/><path class="cls-2" d="M134.18,206.82s1.61-2,4.2.58c2.41,2.43-.2,5.48-.35,5.63C136.74,210.8,134.18,206.82,134.18,206.82Z"/><path class="cls-19" d="M140.31,215.92a16.06,16.06,0,0,1-2.21.24c-1.92.09-2.82-2.18-2.82-2.18s-1.23-.33-1.49-1-.55-1,.51-1.79c1.58-1.16-.78-2.9-.78-2.9l.71-1.26a2,2,0,0,1,1.16.11,6.29,6.29,0,0,1,3.27,3.23c.93.66,1.91,1.26,1.91,1.26a.39.39,0,0,1-.19.44.6.6,0,0,0-.29.4,1.11,1.11,0,0,0,.54.5.64.64,0,0,1-.16.57.68.68,0,0,1,.39.31c-.31.64.6,1.2.27,1.8C141,215.79,140.8,215.84,140.31,215.92Z"/><path class="cls-2" d="M138.31,210.91c0,.08.07.23-.23.32a2.94,2.94,0,0,1-.86.11c-.08,0,.24-.27.88-.91.18-.18.09,0,.07.15A.6.6,0,0,1,138.31,210.91Z"/><path class="cls-2" d="M128.47,210.22c1.15-3.8,5.86-4.87,6.92-3.35.15.3,1.2,2.33.76,3.52-.3.78-1,.74-1.1,1.4-.13.93,1.79,1.34,1,2.71-1.38,2.56.07,4,1.12,4.83-2.14,1.92-6.15,3.87-7.71,2.44S127.15,214.6,128.47,210.22Z"/><path class="cls-30" d="M149.79,231.75c0,.35.1,3.09-4.1,2.51-5.59-.76-10.77-4.31-10.38-5.53S147.93,232.39,149.79,231.75Z"/><path class="cls-4" d="M375.19,39.91a6.31,6.31,0,0,0-10.79-3.49,8.33,8.33,0,0,0-7.69-5.14,8.15,8.15,0,0,0-3.49.78,11.42,11.42,0,0,0-21.83,3.77,8.3,8.3,0,0,0-13.6,4.08Z"/><path class="cls-5" d="M204,185.24l0-.43a.49.49,0,0,0-.39-.43l-1.56-.52a.57.57,0,0,1-.45-.48l-.05-.51c0-.23-.5-2.84-.56-3.06l-.13-.51a.58.58,0,0,1,.25-.61l1.26-1a.48.48,0,0,0,.2-.54l-.13-.41c-.07-.19-1.1-2.71-1.19-2.89l-.19-.38a.48.48,0,0,0-.53-.24l-1.6.14a.58.58,0,0,1-.61-.26l-.27-.46c-.11-.2-1.59-2.38-1.73-2.56l-.34-.43a.57.57,0,0,1,0-.66l.69-1.41a.5.5,0,0,0,0-.59s-2.39-2.34-2.55-2.48l-.32-.26a.5.5,0,0,0-.58,0l-1.36.75a.57.57,0,0,1-.66,0l-3.58-2.23a.57.57,0,0,1-.29-.59l.05-1.55a.48.48,0,0,0-.26-.52s-3.15-1.17-3.35-1.23l-.39-.11a.48.48,0,0,0-.53.23l-.92,1.23a.57.57,0,0,1-.6.28s-3.75-.55-4-.57H177a.55.55,0,0,1-.49-.42l-.58-1.44a.48.48,0,0,0-.45-.37l-3.95.29a.49.49,0,0,0-.39.43l-.35,1.5a.56.56,0,0,1-.43.5l-4.12,1.2a.56.56,0,0,1-.63-.18l-1.11-1.08a.47.47,0,0,0-.56-.15s-.16.06-.34.15-2.65,1.41-2.82,1.52-.57.55-.5.74l.3,1.54a.58.58,0,0,1-.19.63l-3.28,2.79a.58.58,0,0,1-.65.09L155,167.1a.5.5,0,0,0-.57.08c-.13.15-2.1,2.65-2.21,2.82s-.29.73-.14.88l.92,1.3a.58.58,0,0,1,.08.65l-1.85,3.89a.58.58,0,0,1-.56.35l-1.63.1a.46.46,0,0,0-.48.3c-.06.19-.83,3.28-.87,3.48s0,.78.23.85l1.42.83a.56.56,0,0,1,.34.57l-.05.63c0,.23-.08,2.8-.07,3l0,.63a.59.59,0,0,1-.38.55l-1.5.76a.48.48,0,0,0-.31.48c0,.19.57,3.33.62,3.53s.35.69.56.68l1.69.18a.58.58,0,0,1,.54.37l.2.59c.08.21,1.08,2.6,1.18,2.8l.27.54a.56.56,0,0,1-.11.65l-1.08,1.33a.47.47,0,0,0-.1.56c.1.17,1.89,2.81,2,3s.6.49.78.39l1.65-.53a.58.58,0,0,1,.65.12l.4.43c.16.17,2.06,2,2.23,2.1l.44.37a.57.57,0,0,1,.16.64l-.45,1.67a.48.48,0,0,0,.14.56c.16.12,2.87,1.8,3,1.89s.76.21.89,0l1.31-1.19a.57.57,0,0,1,.64-.15l.51.22c.21.09,2.69,1,2.91,1l.53.15a.55.55,0,0,1,.4.51l.27,1.76a.47.47,0,0,0,.36.45c.2,0,3.48.48,3.63.49l.29,0a.52.52,0,0,0,.47-.36l.71-1.62a.58.58,0,0,1,.53-.4h.52c.23,0,2.87-.22,3.1-.25l.51-.08a.56.56,0,0,1,.58.31l1,1.49a.5.5,0,0,0,.52.27l.37-.09c.2,0,2.87-.84,3.06-.91l.36-.14a.49.49,0,0,0,.29-.51v-1.77a.56.56,0,0,1,.31-.58l.46-.21c.21-.1,2.54-1.37,2.74-1.49l.42-.27a.57.57,0,0,1,.66.05l1.45.95a.5.5,0,0,0,.59,0l.31-.24c.17-.13,2.25-1.92,2.4-2.06l.29-.29a.5.5,0,0,0,.06-.58l-.7-1.58a.56.56,0,0,1,.06-.65l.33-.37c.15-.18,2.18-2.89,2.18-2.89a.56.56,0,0,1,.62-.23l1.68.26a.48.48,0,0,0,.55-.21l.2-.36c.1-.18,1.27-2.64,1.35-2.84l.15-.38a.47.47,0,0,0-.18-.56l-1.25-1.13a.59.59,0,0,1-.22-.63l.15-.47c.07-.22.7-2.81.74-3l.08-.49a.59.59,0,0,1,.48-.46l1.62-.44a.48.48,0,0,0,.41-.41l0-.42C203.94,188.16,204,185.45,204,185.24ZM174.28,207.6a21.54,21.54,0,1,1,22.83-20.17A21.54,21.54,0,0,1,174.28,207.6Z"/><path class="cls-4" d="M181.22,185.64h5.55v10.64a15.27,15.27,0,0,1-4.22,2.23,18.5,18.5,0,0,1-4.85,1v4.12H174v-4.19a14.59,14.59,0,0,1-6.27-2.27,12.65,12.65,0,0,1-4.29-4.7,14.19,14.19,0,0,1,0-12.86,12.86,12.86,0,0,1,4.29-4.72,14.47,14.47,0,0,1,6.27-2.28v-4.2h3.75v4.09a15.33,15.33,0,0,1,5.42,1.36,12.67,12.67,0,0,1,4.14,3.13l-3.9,3.6a9,9,0,0,0-5.66-2.89v16.64a9.61,9.61,0,0,0,3.52-1.05Zm-11.61,5.56a7.82,7.82,0,0,0,4.34,2.91V178a7.88,7.88,0,0,0-4.34,2.88,9.07,9.07,0,0,0,0,10.32Z"/><path class="cls-19" d="M174.29,212.71c-.31-.24-.67.23-1,.63-.53.58-.23-.21-.23-.21s1.21-.89,1.51-1.17c.1-.33-.49-.27-.71-.15-1.88,1-1.92,1.18-3.29,1.9-.13-.14-.28,0-.29-.88s-.29-1.31-.5-1.27a10.51,10.51,0,0,1-.93,2.51,3.86,3.86,0,0,0-.49,1.57l-6,5,1.27,2,6-6h0a2.65,2.65,0,0,1,1.11-.64,9.11,9.11,0,0,0,2.5-.81A7.14,7.14,0,0,0,174.29,212.71Z"/><path class="cls-4" d="M142.1,224.25a20.18,20.18,0,0,0,16-1.37l4.68-2.68,1.31,2.1s-2.93,2.85-3.74,3.5a20.48,20.48,0,0,1-9.18,4.36s-17.7,2-19.21-3.74C131.1,223,133.14,221,142.1,224.25Z"/></g></g></g></svg>