<svg xmlns="http://www.w3.org/2000/svg" width="476.34" height="439.24" viewBox="0 0 476.34 439.24"><defs><style>.cls-1{fill:#00608c;opacity:0.5;}</style></defs><g id="Layer_2" data-name="Layer 2"><g id="_Layer_" data-name="&lt;Layer&gt;"><path class="cls-1" d="M108.64,394.28a2.21,2.21,0,0,1-1.74.85,2.17,2.17,0,0,1-1.34-.45,217,217,0,0,1-17-14.55,2.19,2.19,0,0,1,3-3.18,210.52,210.52,0,0,0,16.65,14.26A2.2,2.2,0,0,1,108.64,394.28Zm87.1,36.51a213.28,213.28,0,0,1-23.45-6,2.19,2.19,0,0,0-1.33,4.17,216.55,216.55,0,0,0,23.94,6.16,2,2,0,0,0,.42,0,2.19,2.19,0,0,0,.42-4.34Zm48.21,4a210.52,210.52,0,0,1-24.22-.62,2.19,2.19,0,1,0-.35,4.37c6,.49,12,.74,17.91.74,2.24,0,4.53,0,6.79-.11a2.19,2.19,0,0,0-.13-4.38Zm-94.26-18.67a212.18,212.18,0,0,1-21.45-11.23A2.19,2.19,0,1,0,126,408.6a213,213,0,0,0,21.9,11.47,2.22,2.22,0,0,0,.9.2,2.19,2.19,0,0,0,.91-4.19ZM444,178.71a2.18,2.18,0,0,0,2.13,1.73,1.88,1.88,0,0,0,.47-.05,2.19,2.19,0,0,0,1.68-2.6,215,215,0,0,0-6.6-23.82,2.19,2.19,0,1,0-4.15,1.41A211.16,211.16,0,0,1,444,178.71Zm-26.47-70a2.19,2.19,0,0,0-.7,3,213.57,213.57,0,0,1,11.6,21.26,2.19,2.19,0,0,0,2,1.25,2.08,2.08,0,0,0,.94-.21,2.19,2.19,0,0,0,1-2.92,216,216,0,0,0-11.84-21.69A2.19,2.19,0,0,0,417.53,108.67Zm-296-63.16a2.17,2.17,0,0,0,1.19-.35,211.15,211.15,0,0,1,21.08-11.92,2.19,2.19,0,0,0-1.94-3.93,217.14,217.14,0,0,0-21.52,12.17,2.19,2.19,0,0,0,1.19,4ZM83.68,76.44a2.19,2.19,0,0,0,1.58-.66c3.36-3.46,6.9-6.86,10.51-10.1,2.39-2.14,4.85-4.25,7.33-6.28A2.19,2.19,0,1,0,100.32,56c-2.53,2.07-5,4.23-7.47,6.41-3.69,3.3-7.3,6.77-10.74,10.31a2.18,2.18,0,0,0,0,3.09A2.13,2.13,0,0,0,83.68,76.44Zm392,329.93a2.19,2.19,0,1,1-3,3.17l-.06-.06-5.7-5.42a32.75,32.75,0,0,1-2.75,7.33,2.19,2.19,0,1,1-3.88-2,28.26,28.26,0,0,0,3-9.84h0a28.55,28.55,0,0,0-8.57-23.89l-23.5-22.36-.1,26.69a14.54,14.54,0,0,1-14.56,14.45h-.05l-6.6,0,8,7.46a1.45,1.45,0,0,1,.17.19l.4.38a24.4,24.4,0,0,1,2.05-1.66c4.13-3.17,8.28-4.73,12.35-4.61a14.85,14.85,0,0,1,10.12,4.4,1,1,0,0,1,.08.11l.13.18.11.19.09.19.06.2a1.94,1.94,0,0,1,.05.2l0,.22a1.33,1.33,0,0,1,0,.2,1.48,1.48,0,0,1,0,.21l0,.21-.06.2a1.18,1.18,0,0,1-.07.2l-.09.19-.11.19a1.15,1.15,0,0,1-.14.17,1,1,0,0,1-.08.11l-.07.06-.06.06-.11.08a.83.83,0,0,1-.18.13,1.18,1.18,0,0,1-.19.11l-.18.08-.22.07-.19,0-.22,0h-.41l-.21,0-.19-.05-.21-.08-.18-.09-.2-.11-.16-.13-.12-.09a9.85,9.85,0,0,0-1.44-1.14h.09a10.48,10.48,0,0,0-5.82-1.93c-4-.09-8.29,2.12-12.68,6.52l0,0a2.37,2.37,0,0,1-.68.45l-.06,0a2.13,2.13,0,0,1-.75.15h0a2.15,2.15,0,0,1-.8-.16h0a2,2,0,0,1-.72-.47h0L415,405.15h0l-.13-.1-16.19-15.16a3.9,3.9,0,0,0-2.8-1.05,3.89,3.89,0,0,0-3.78,4,3.86,3.86,0,0,0,1.23,2.72l16.8,15.84h0l5.51,5.24a28.48,28.48,0,0,0,22.5,7.61l-.3-.29h2.64l.16,0a1.86,1.86,0,0,1,.34.07l.14,0a2.64,2.64,0,0,1,.38.18l.06,0a2,2,0,0,1,.35.28l7.3,7.15.09.08,1.1,1a2.19,2.19,0,0,1-3,3.18l-6.65-6.32-1.15-1.23a32.7,32.7,0,0,1-9.93-.19,2,2,0,0,1-.48-.08,32.7,32.7,0,0,1-16.56-8.41l-5.54-5.27-16.6-15.66-.06-.05-.07-.06,0,0c-.08-.08-.14-.16-.22-.23l-.3-.31a8.21,8.21,0,0,1-1.57-2.63,1.67,1.67,0,0,1-.08-.2c0-.05,0-.11-.05-.17-.1-.31-.17-.63-.24-.95l-24.66-.09h0l-27.94-.1a8,8,0,0,1-2.31,5L311.8,420.45a32.26,32.26,0,0,1-26.11,9.4l-1,1.13-6.37,6.49a2.19,2.19,0,1,1-3.13-3.07h0l6.3-6.4,1.67-1.91a2.16,2.16,0,0,1,1.94-.72,27.88,27.88,0,0,0,23.58-8L329.81,396a3.79,3.79,0,0,0,0-5.36,3.75,3.75,0,0,0-2.67-1.1h0a3.75,3.75,0,0,0-2.67,1.1l-14.78,14.89-1.55,1.58a2.19,2.19,0,1,1-3.13-3.07l1-1a2.2,2.2,0,0,1,.19-.3L312,397l24.65-25.1a3.79,3.79,0,0,0-5.18-5.52l-20.61,21a2.2,2.2,0,0,1-3.14-3.07l20.39-20.83.34-.32,4.1-4.18a3.79,3.79,0,1,0-5.4-5.31L302.21,379.1a2.19,2.19,0,1,1-3.13-3.07l21.07-21.52a3.75,3.75,0,0,0,1.08-2.69,3.7,3.7,0,0,0-1.12-2.67,3.8,3.8,0,0,0-5.36.05l-26,26.51a2.19,2.19,0,1,1-3.13-3.07l20-20.41a3.78,3.78,0,1,0-5.39-5.31l-31.08,31.64a27.53,27.53,0,0,0-7.62,23.38,2.18,2.18,0,0,1-.53,1.76l-1.88,2.13-6.4,6.51h0a2.19,2.19,0,1,1-3.12-3.07l6.32-6.43,1.14-1.3a31.86,31.86,0,0,1,6.62-23.39,32.5,32.5,0,0,1,2.34-2.66l29.63-30.16.07-19.21h0l.08-22.38-26-24.73a32.89,32.89,0,0,1-10-26.38l-7.91-7.53a2.19,2.19,0,1,1,3-3.17l.07.06,5.7,5.42a32.24,32.24,0,0,1,2.74-7.33,2.19,2.19,0,0,1,3.89,2,28.46,28.46,0,0,0,5.53,33.73l23,21.87.09-24.74a14.56,14.56,0,0,1,14.56-14.51h3.92l.4-1,4.72,1.33-9.83-9.21c-.06-.06-.11-.13-.16-.19l-.4-.38c-.64.57-1.3,1.1-2,1.59-4,3.1-8,4.69-12,4.69h-.41a14.91,14.91,0,0,1-10.12-4.4,1,1,0,0,1-.08-.11l-.13-.18a1.14,1.14,0,0,1-.1-.19,1.11,1.11,0,0,1-.09-.19,1.59,1.59,0,0,1-.07-.2,1.77,1.77,0,0,1,0-.2.83.83,0,0,1,0-.22,1.27,1.27,0,0,1,0-.2,1.49,1.49,0,0,1,0-.21.76.76,0,0,1,0-.21,1.46,1.46,0,0,1,0-.2,1.18,1.18,0,0,1,.07-.2,1.14,1.14,0,0,1,.1-.19,1.18,1.18,0,0,1,.11-.19l.13-.17.09-.11.07-.06,0-.06.1-.08.2-.14.16-.09.22-.1.18-.06.22-.05.2,0h.42l.21,0,.21.06.19.06.2.11a1,1,0,0,1,.17.1,1.33,1.33,0,0,1,.19.14l.1.08a9.85,9.85,0,0,0,1.44,1.14h-.08a10.36,10.36,0,0,0,5.81,1.92c4.08.11,8.29-2.11,12.69-6.51l.15-.12.17-.14.21-.12.16-.08a1.21,1.21,0,0,1,.25-.08l.16-.05a1.33,1.33,0,0,1,.28,0l.14,0h0a2.2,2.2,0,0,1,1.56.64h0l1.88,1.87v0l.13.1,16.18,15.16a3.92,3.92,0,1,0,5.35-5.72l-16.67-15.71h0l-.07-.07-.06-.05h0l-5.51-5.25a28.49,28.49,0,0,0-22.5-7.61l.3.29h-2.8a2,2,0,0,1-.35-.07l-.14,0a2.53,2.53,0,0,1-.37-.18l-.07,0a2.33,2.33,0,0,1-.35-.27l-7.34-7.18h0l0,0-1.1-1a2.19,2.19,0,1,1,3-3.18l6.64,6.32,1.16,1.22a33,33,0,0,1,9.88.19,3,3,0,0,1,.52.09,32.77,32.77,0,0,1,16.56,8.41l5.49,5.23h0l16.65,15.7.06,0,0,0,.05.05a8.24,8.24,0,0,1,2.61,5.89l24,.08.15,0,.15,0h0l25.38.09a8.53,8.53,0,0,1-.16-1.61,8.15,8.15,0,0,1,2.37-5.76h0L412.85,230a32.2,32.2,0,0,1,26.1-9.4l1-1.13,6.37-6.5a2.19,2.19,0,0,1,3.13,3.07h0l-6.3,6.41-1.67,1.91a2.19,2.19,0,0,1-1.94.72,27.84,27.84,0,0,0-23.57,8l-21.14,21.35a3.79,3.79,0,0,0,5.35,5.37l9.36-9.36,4-4.1,2.94-3a2.19,2.19,0,1,1,3.13,3.07l-.87.88a2,2,0,0,1-.32.44l-5.8,5.8L388,278.61a3.8,3.8,0,0,0,.05,5.35,3.86,3.86,0,0,0,2.69,1.08,3.79,3.79,0,0,0,2.44-.91l20.61-21a2.19,2.19,0,0,1,3.14,3.06L396.56,287l-.34.33-4.1,4.18a3.79,3.79,0,1,0,5.4,5.31l24.91-25.43a2.2,2.2,0,0,1,3.14,3.07L404.49,296a3.79,3.79,0,1,0,5.4,5.31l26-26.51a2.19,2.19,0,0,1,3.13,3.06l-20,20.42a3.81,3.81,0,0,0,0,5.36,3.8,3.8,0,0,0,5.36-.05l31.08-31.64a27.55,27.55,0,0,0,7.61-23.38,2.21,2.21,0,0,1,.53-1.76l1.88-2.13,6.4-6.51h0A2.19,2.19,0,1,1,475,241.2l-6.31,6.43-1.15,1.3a31.85,31.85,0,0,1-9,26.05l-27.42,27.91a2.16,2.16,0,0,1,.2.91L431.3,327h0l-.07,20.24,26.5,25.22a32.88,32.88,0,0,1,10,26.38Zm-48.92-26.43.19-50.76-16.06-.06v3.15a14.87,14.87,0,0,1-2.91,8.78,14.13,14.13,0,0,1-9.45,6.06,13.43,13.43,0,0,1-2.18.17,14.28,14.28,0,0,1-9.32-3.46,14.53,14.53,0,0,1-5.05-11.05l0-3.75L365.64,329,365.57,347a2.2,2.2,0,0,1-.64,1.55,2.23,2.23,0,0,1-1.55.63l-5.93,0h0a10.06,10.06,0,0,0-7.62,3.51,9.79,9.79,0,0,0-2.29,8,10.26,10.26,0,0,0,10.24,8.42l5.55,0a2.2,2.2,0,0,1,2.19,2.2l-.07,18.51,22.79.08a8.27,8.27,0,0,1,7.52-5.47,8.17,8.17,0,0,1,5.94,2.23l3.53,3.3,11.31,0h0A10.16,10.16,0,0,0,426.73,379.94Zm-97.35,5.54a8,8,0,0,1,5.05,4.25l26.55.1.06-16.06h-3.22a14.89,14.89,0,0,1-13.46-8.59,13.71,13.71,0,0,1-1.19-3.82,14.41,14.41,0,0,1,14.25-16.56h3.72l.06-16.25L343,328.48a2.17,2.17,0,0,1-2.18-2.19l0-5.93a10.06,10.06,0,0,0-3.5-7.64,9.88,9.88,0,0,0-8.06-2.31,10.31,10.31,0,0,0-8.44,10.25l0,5.55a2.2,2.2,0,0,1-2.2,2.19l-18.56-.07L300.05,342a8.14,8.14,0,0,1,10.66,5.11l.92-.93a8.15,8.15,0,0,1,13.65,3.4,8.07,8.07,0,0,1,4.47-1.37,8.35,8.35,0,0,1,5.8,2.33,8.21,8.21,0,0,1,.69,10.89,8.08,8.08,0,0,1,3.4,2,8.18,8.18,0,0,1,.1,11.55ZM303.31,265.8a10.11,10.11,0,0,0-3,7.19l-.19,51,16.06.06V320.9a15.07,15.07,0,0,1,5.49-11.56,14,14,0,0,1,7-3.26,14.42,14.42,0,0,1,16.6,14.3v3.73l16.14.06.07-18.09a2.2,2.2,0,0,1,.64-1.55,2.64,2.64,0,0,1,.58-.41,2.26,2.26,0,0,1,1.28-.41l5.77,0h0a9.91,9.91,0,0,0,7.49-3.46,10.11,10.11,0,0,0,2-3.75,10,10,0,0,0,.23-4.19,10.28,10.28,0,0,0-10.24-8.47l-5.55,0a2.23,2.23,0,0,1-1.55-.65,2.2,2.2,0,0,1-.64-1.55l.07-18.62-22.93-.08c-.07.13-.17.25-.25.38a9,9,0,0,1-1.13,1.58,8.32,8.32,0,0,1-11.73.39l-2.57-2.4-12.48-.05h0A10.09,10.09,0,0,0,303.31,265.8Zm91.95-.82a8,8,0,0,1-3.27-1.85L366.3,263l-.06,16.14h3.21a14.47,14.47,0,0,1,11.12,23.94,14.29,14.29,0,0,1-10.81,5h-3.62l-.06,16.48,18.09.06a2.2,2.2,0,0,1,2.18,2.2l0,6a10.12,10.12,0,0,0,3.52,7.71,9.75,9.75,0,0,0,8,2.28,10.31,10.31,0,0,0,8.4-10.29l0-5.58a2.18,2.18,0,0,1,.65-1.54,2.37,2.37,0,0,1,1.55-.64l18.48.07.06-17.74a8.13,8.13,0,0,1-13.06-3.66l-.92.94a8.18,8.18,0,0,1-11.55.1,8.09,8.09,0,0,1-2.1-3.5,8.17,8.17,0,0,1-11-11.85,8.08,8.08,0,0,1-3.4-2,8.18,8.18,0,0,1-.1-11.55ZM50.8,120.26V102.84A2.19,2.19,0,0,1,53,100.65H66.54a2.19,2.19,0,0,1,2.19,2.19v17.42a2.19,2.19,0,0,1-2.19,2.19H53A2.19,2.19,0,0,1,50.8,120.26Zm4.38-2.19h9.17V105H55.18Zm-38.25,2.19V102.84a2.19,2.19,0,0,1,2.19-2.19H32.67a2.19,2.19,0,0,1,2.19,2.19v17.42a2.19,2.19,0,0,1-2.19,2.19H19.12A2.19,2.19,0,0,1,16.93,120.26Zm4.38-2.19h9.17V105H21.31Zm-4.38,34.55V135.2A2.19,2.19,0,0,1,19.12,133H32.67a2.19,2.19,0,0,1,2.19,2.19v17.42a2.19,2.19,0,0,1-2.19,2.19H19.12A2.19,2.19,0,0,1,16.93,152.62Zm4.38-2.19h9.17v-13H21.31Zm-4.38,32.06V165.07a2.19,2.19,0,0,1,2.19-2.19H32.67a2.19,2.19,0,0,1,2.19,2.19v17.42a2.19,2.19,0,0,1-2.19,2.19H19.12A2.19,2.19,0,0,1,16.93,182.49Zm4.38-2.19h9.17v-13H21.31Zm-4.38,31.52V194.4a2.19,2.19,0,0,1,2.19-2.19H32.67a2.19,2.19,0,0,1,2.19,2.19v17.42A2.19,2.19,0,0,1,32.67,214H19.12A2.19,2.19,0,0,1,16.93,211.82Zm4.38-2.19h9.17v-13H21.31ZM97,183.56V166.14A2.19,2.19,0,0,1,99.21,164h13.54a2.19,2.19,0,0,1,2.19,2.19v17.42a2.19,2.19,0,0,1-2.19,2.19H99.21A2.19,2.19,0,0,1,97,183.56Zm4.38-2.19h9.16v-13H101.4Zm-38.25,2.19V166.14A2.19,2.19,0,0,1,65.34,164H78.89a2.19,2.19,0,0,1,2.19,2.19v17.42a2.19,2.19,0,0,1-2.19,2.19H65.34A2.19,2.19,0,0,1,63.15,183.56Zm4.38-2.19H76.7v-13H67.53ZM97,215.92V198.49a2.19,2.19,0,0,1,2.19-2.19h13.54a2.19,2.19,0,0,1,2.19,2.19v17.43a2.19,2.19,0,0,1-2.19,2.19H99.21A2.19,2.19,0,0,1,97,215.92Zm4.38-2.19h9.16v-13H101.4Zm-20.32,2.19a2.19,2.19,0,0,1-2.19,2.19H65.34a2.19,2.19,0,0,1-2.19-2.19V198.49a2.19,2.19,0,0,1,2.19-2.19H78.89a2.19,2.19,0,0,1,2.19,2.19ZM76.7,200.68H67.53v13H76.7ZM190.16,365.49H2.19a2.19,2.19,0,1,1,0-4.38H26.58V348.36h-12A14.6,14.6,0,0,1,0,333.8,15.07,15.07,0,0,1,2.19,326a14.71,14.71,0,0,1,7.3-6.15V311A14.56,14.56,0,0,1,24,296.4h9.49A14.56,14.56,0,0,1,48.05,311v8.89a15,15,0,0,1,9.5,13.95A14.56,14.56,0,0,1,43,348.36H31v12.75H62.91a5.76,5.76,0,0,1-.25-1.61v-7.63a6,6,0,0,1,6-6h1.6v-74l-5.7,1.48a2.08,2.08,0,0,1-.55.07,2.19,2.19,0,0,1-.55-4.31l7.87-2.05a2.12,2.12,0,0,1,.6-.25l7.92-2,57.47-14.91a2.2,2.2,0,0,1,1.1,4.25l-6.81,1.76v11.48l4.11,1.43,50.66,17.43.71.25a2.26,2.26,0,0,1,.73.44l5.76,2a2.19,2.19,0,0,1-.72,4.26,2.31,2.31,0,0,1-.72-.12l-3.57-1.25v54h1.6a6,6,0,0,1,6,6v7.63a5.76,5.76,0,0,1-.25,1.61h23.19V348.25a25,25,0,1,1,4.38,0v12.86h21.76a2.19,2.19,0,0,1,0,4.38Zm10.53-42.16a20.66,20.66,0,0,0,18.4,20.53v-8.2l-8.85-8.88a2.19,2.19,0,1,1,3.1-3.09l5.75,5.76V315.72a2.19,2.19,0,1,1,4.38,0v13.73l5.76-5.76a2.19,2.19,0,1,1,3.1,3.09l-8.86,8.88v8.2a20.65,20.65,0,1,0-22.78-20.53ZM31,344H43A10.18,10.18,0,0,0,53.16,333.8a10.58,10.58,0,0,0-7.8-10.2,2.2,2.2,0,0,1-1.69-2.13V311a10.17,10.17,0,0,0-10.15-10.18H24A10.17,10.17,0,0,0,13.88,311v10.51a2.2,2.2,0,0,1-1.69,2.13,10.59,10.59,0,0,0-7.81,10.2A10.18,10.18,0,0,0,14.53,344h12v-8.32l-8.85-8.88a2.19,2.19,0,1,1,3.1-3.09l5.75,5.76V315.72a2.19,2.19,0,1,1,4.38,0v13.73l5.76-5.76a2.19,2.19,0,1,1,3.1,3.09L31,335.66Zm159.2,17.13a1.62,1.62,0,0,0,1.61-1.61v-7.63a1.62,1.62,0,0,0-1.61-1.61H68.65A1.62,1.62,0,0,0,67,351.87v7.63a1.62,1.62,0,0,0,1.61,1.61Zm-81.93-41.3H93.62v26.07h14.61Zm76,26.07V290.35L134.32,273l-2.72-.94v73.81ZM74.63,270.72v75.16H89.24V317.62a2.19,2.19,0,0,1,2.19-2.19h19a2.19,2.19,0,0,1,2.19,2.19v28.26h14.6V257.69L81,269.07Zm27.24.93a14.55,14.55,0,0,1,14.54,14.54v12.4a2.19,2.19,0,0,1-2.2,2.19H89.53a2.19,2.19,0,0,1-2.19-2.19v-12.4A14.55,14.55,0,0,1,101.87,271.65ZM91.72,286.19V296.4H112V286.19a10.15,10.15,0,1,0-20.3,0Zm79.75,18.11V329a2.19,2.19,0,0,1-2.19,2.19H146.49A2.19,2.19,0,0,1,144.3,329V304.3a2.19,2.19,0,0,1,2.19-2.19h22.79A2.19,2.19,0,0,1,171.47,304.3Zm-4.38,2.19H148.68v20.36h18.41ZM2.19,293.17h0A2.2,2.2,0,0,1,0,291V87.91a2.19,2.19,0,0,1,2.19-2.19H83.47a2.19,2.19,0,0,1,2.19,2.19V149h44a2.19,2.19,0,0,1,2.19,2.19v90h37.4a2.19,2.19,0,0,1,2.19,2.19,2.31,2.31,0,0,1-.15.79,2.19,2.19,0,0,1-2,1.4H4.38V291A2.2,2.2,0,0,1,2.19,293.17ZM81.28,90.1H4.38V241.2H30.14V223.76a2.19,2.19,0,0,1,2.19-2.19H46.21V151.2a2.19,2.19,0,0,1,2.2-2.19H50.8V135.26A2.19,2.19,0,0,1,53,133.07H66.54a2.19,2.19,0,0,1,2.19,2.19V149H81.28Zm46.22,63.29H50.6V241.2H76.35V223.76a2.19,2.19,0,0,1,2.19-2.19h21a2.19,2.19,0,0,1,2.19,2.19V241.2H127.5ZM64.35,137.45H55.18V149h9.17Zm33,88.5H80.73V241.2H97.36Zm-51.15,0H34.52V241.2H46.21Zm11.34,42.19v11.42a2.2,2.2,0,0,1-2.2,2.19h-38a2.2,2.2,0,0,1-2.19-2.19V268.14A2.19,2.19,0,0,1,17.38,266h38A2.19,2.19,0,0,1,57.55,268.14Zm-4.39,2.19H19.57v7H53.16ZM162.34,90.13a10.59,10.59,0,0,1,2-6.26.25.25,0,0,1,0-.07,10.64,10.64,0,0,1-1.87-16.92,10.63,10.63,0,0,1-3.36-7.75,10.74,10.74,0,0,1,5.72-9.44,10.58,10.58,0,0,1-1-4.51,10.8,10.8,0,0,1,10.84-10.71h.17v-.13a10.79,10.79,0,0,1,10.84-10.72,11.07,11.07,0,0,1,3.58.6,10.83,10.83,0,0,1,10.57-8.35A11,11,0,0,1,207,18.51a3.15,3.15,0,0,1,.24-.3,10,10,0,0,1,.68-.74,7.56,7.56,0,0,1,.77-.69,6.92,6.92,0,0,1,.69-.52l.17-.12a7.94,7.94,0,0,1,.89-.52,7.66,7.66,0,0,1,.86-.43l.22-.09c.28-.11.58-.21.87-.3a7.82,7.82,0,0,1,.9-.23l.07,0a7.87,7.87,0,0,1,1-.15,9.8,9.8,0,0,1,2.42,0,5.42,5.42,0,0,1,.9.13,8.13,8.13,0,0,1,1.14.29,6.9,6.9,0,0,1,.83.29l.22.08c.31.14.58.28.86.43s.59.33.88.52l.18.12a8.17,8.17,0,0,1,.68.52,7.17,7.17,0,0,1,.72.64,8.7,8.7,0,0,1,.68.74,3.05,3.05,0,0,1,.29.36,10.88,10.88,0,0,1,17.7,5.7,11.07,11.07,0,0,1,3.58-.6,10.9,10.9,0,0,1,6.35,2.14A26.2,26.2,0,0,1,278,0H321a2.19,2.19,0,0,1,2.19,2.19A16.35,16.35,0,0,1,322.08,8c6.53,3.1,10.62,9.94,10.62,18.1V47.23a14.25,14.25,0,0,1,.13,17.45l2.56,0a33.12,33.12,0,0,1,66.1.15h15.8a8.16,8.16,0,0,1,8.17,7.13,7.95,7.95,0,0,1-7.89,8.74h-7.73a13.83,13.83,0,0,1-11.28,17,27.62,27.62,0,0,1-15.38,23.64v11.7c23.8,2.14,42.74,23.07,42.74,47.68A10.29,10.29,0,0,1,415.65,191H169.09a10.29,10.29,0,0,1-10.27-10.27c0-24.65,18.85-45.58,42.43-47.69v-3.63a14,14,0,0,1-5.06-9.2,25.74,25.74,0,0,1-7.42-8.32,26.25,26.25,0,0,1-6.16,1.33,10.79,10.79,0,0,1-10.83-10.71,10.28,10.28,0,0,1,.14-1.76A10.78,10.78,0,0,1,162.34,90.13Zm1.24-31a6.33,6.33,0,0,0,3.76,5.75,2.19,2.19,0,0,1,0,4,6.29,6.29,0,0,0,1.48,12,2.19,2.19,0,0,1,.79,4,6.31,6.31,0,0,0-2.9,5.29,6.4,6.4,0,0,0,6.46,6.33,7,7,0,0,0,1.39-.14,2.19,2.19,0,0,1,2.36,3.22,6,6,0,0,0-.77,3,6.4,6.4,0,0,0,6.45,6.33,22.2,22.2,0,0,0,4.35-1,25.65,25.65,0,0,1-1.46-8.53V98.21a14,14,0,0,1,0-27.63V69.42a25.9,25.9,0,0,1,18.33-24.65,2.23,2.23,0,0,1,1.94.34,2.19,2.19,0,0,1,.88,1.76v.88c0,3.92,3.68,7.1,8.2,7.1h2.63c4.51,0,8.19-3.18,8.19-7.1v-.83a2.19,2.19,0,0,1,2.84-2.09,25.6,25.6,0,0,1,18.15,24.59v1.12a14,14,0,0,1,0,27.7v1.12a25.68,25.68,0,0,1-1.49,8.61,15.17,15.17,0,0,0,3.48.89,6.4,6.4,0,0,0,6.45-6.33,6,6,0,0,0-.77-3,2.19,2.19,0,0,1,2.36-3.22,7,7,0,0,0,1.39.14,6.4,6.4,0,0,0,6.46-6.33l.27-6.65A28.4,28.4,0,0,1,261,70.17,14.4,14.4,0,0,1,249,56a14.23,14.23,0,0,1,2.84-8.52V32.64A7.1,7.1,0,0,0,245.5,28a6.41,6.41,0,0,0-4.19,1.53,2.19,2.19,0,0,1-2.52.22,2.16,2.16,0,0,1-1-2.29,4.72,4.72,0,0,0,.07-.87,6.48,6.48,0,0,0-12.07-3.13,2.21,2.21,0,0,1-2.14,1.09A2.17,2.17,0,0,1,221.75,23a3.42,3.42,0,0,0-.27-.64l-.07-.15a4.54,4.54,0,0,0-.47-.79c-.12-.18-.22-.3-.32-.43s-.26-.3-.4-.44a4.13,4.13,0,0,0-.41-.37l-.15-.12a3.81,3.81,0,0,0-.32-.24l-.13-.09a4.8,4.8,0,0,0-.43-.24l-.14-.08-.41-.21-.1,0c-.17-.07-.36-.13-.54-.19l-.49-.13-.37-.08-.27,0-.18,0a4.72,4.72,0,0,0-1.3,0l-.18,0-.37,0-.27.06-.43.11-.6.21-.1,0a3.91,3.91,0,0,0-.41.2l-.15.08a4.62,4.62,0,0,0-.48.28l-.07.05a2.26,2.26,0,0,0-.31.23l-.17.14c-.13.1-.24.21-.36.32s-.32.35-.46.5l-.26.35a.44.44,0,0,1-.08.11,4.77,4.77,0,0,0-.45.78,4.35,4.35,0,0,0-.31.73,2.19,2.19,0,0,1-4,.45,6.48,6.48,0,0,0-12.07,3.13,5.57,5.57,0,0,0,.07.87A2.19,2.19,0,0,1,190,29.53a6.47,6.47,0,0,0-10.65,4.81,6.14,6.14,0,0,0,.36,2.07,2.19,2.19,0,0,1-2.78,2.8,6.46,6.46,0,0,0-8.58,6,6.27,6.27,0,0,0,1.58,4.16,2.19,2.19,0,0,1-1.2,3.6A6.38,6.38,0,0,0,163.58,59.13ZM278,4.38A21.84,21.84,0,0,0,256.2,26.19V43.62A14,14,0,0,1,261,41.91V40.67A26.38,26.38,0,0,1,287.3,14.32h10l.4,0h8.95a12.16,12.16,0,0,0,11.95-10ZM331.37,56a10,10,0,0,0-9.95-10,2.19,2.19,0,0,1-2.19-2.19V40.67a22,22,0,0,0-22-22h-10a22,22,0,0,0-22,22V43.9a2.18,2.18,0,0,1-2.16,2.19,9.95,9.95,0,0,0,0,19.89,2.19,2.19,0,0,1,2.16,2.19v1a24.24,24.24,0,0,0,24.21,24.21H295a24.24,24.24,0,0,0,24.21-24.21v-1A2.19,2.19,0,0,1,321.42,66,10,10,0,0,0,331.37,56Zm6.16,13-10.25.1a14.42,14.42,0,0,1-3.69,1.09,28.52,28.52,0,0,1-.91,6.09h94.89a3.55,3.55,0,0,0,2.63-1.18,3.47,3.47,0,0,0,.9-2.74,3.74,3.74,0,0,0-3.81-3.19H399.36A2.19,2.19,0,0,1,397.17,67v-.17a28.74,28.74,0,0,0-57.47,0A2.19,2.19,0,0,1,337.53,69Zm67.71,11.66H331.63A9.37,9.37,0,0,0,331,84a9.53,9.53,0,0,0,9.36,9.48,2.19,2.19,0,0,1,2.16,2.19v1a23.23,23.23,0,0,0,23.21,23.21H371a23.23,23.23,0,0,0,23.2-23.21v-.94a2.19,2.19,0,0,1,2.2-2.19,9.43,9.43,0,0,0,8.85-12.84Zm16.3,100.07c0-22.34-17.13-41.33-38.58-43.31a14.73,14.73,0,0,1-29,0c-1.72.17-3.65.45-5.4.78A49.66,49.66,0,0,1,352,156.58v30.06h49.58V173a2.19,2.19,0,1,1,4.38,0v13.65h9.66A5.9,5.9,0,0,0,421.54,180.75Zm-90.23-32.24v38.13h16.34V156.58a45.35,45.35,0,0,0-4-18.6,2.37,2.37,0,0,1-.36-.73.17.17,0,0,0,0-.07c-6.63-14.06-20.14-24.29-35.89-25.71a15.24,15.24,0,0,1-7.87,11,11.26,11.26,0,0,1,4.29,8.84v34.36a11.3,11.3,0,1,1-22.59,0V131.28a11.28,11.28,0,0,1,4.17-8.75,15.27,15.27,0,0,1-8.05-11c-22.17,2-40,21.78-40,45.1v30.06h16.33V148.51a2.2,2.2,0,0,1,4.39,0v38.13h68.83V148.51a2.19,2.19,0,0,1,4.38,0Zm-71.83-46a10.79,10.79,0,0,1-10.83,10.71,18.63,18.63,0,0,1-5.3-1.27,25.7,25.7,0,0,1-7.19,8.12,14.09,14.09,0,0,1-5.08,9.34v3.49H239c7.62-14.22,21.79-24.39,38.16-25.81V94.88A28.69,28.69,0,0,1,269,89l-.05,1.27a10.75,10.75,0,0,1-9.58,10.55A10.28,10.28,0,0,1,259.48,102.53Zm48.13-7.73v12.3c16.5,1.45,30.75,11.62,38.41,25.83h7.67V121.44A27.66,27.66,0,0,1,339,103.61a27,27,0,0,1-.89-5.92A13.93,13.93,0,0,1,326.61,84a13.79,13.79,0,0,1,.42-3.35h-5.86A28.56,28.56,0,0,1,307.61,94.8Zm-8.19,36.48a6.91,6.91,0,0,0-13.82,0v34.36a6.91,6.91,0,0,0,13.82,0Zm3.81-34.74A28.21,28.21,0,0,1,295,97.75h-5.48a28.47,28.47,0,0,1-8-1.16V109a10.87,10.87,0,0,0,21.73,0Zm-93.08,31.69h12a9.69,9.69,0,0,0,9.68-9.68V96.71a5.23,5.23,0,0,0-5.23-5.23H205.87a5.42,5.42,0,0,0-5.41,5.41v21.66A9.7,9.7,0,0,0,210.15,128.23ZM196.08,114.4V96.89a9.8,9.8,0,0,1,9.79-9.79h20.76a9.62,9.62,0,0,1,9.61,9.61v17.52a21.34,21.34,0,0,0,6-14.87V96.22A2.19,2.19,0,0,1,244.47,94a9.64,9.64,0,1,0,0-19.28,2.19,2.19,0,0,1-2.19-2.19V69.42A21.21,21.21,0,0,0,229.81,50c-1.15,5.26-6.24,9.23-12.33,9.23h-2.63c-6.12,0-11.23-4-12.35-9.29a21.5,21.5,0,0,0-12.62,19.48v3.15a2.19,2.19,0,0,1-2.16,2.19,9.63,9.63,0,0,0,0,19.26,2.2,2.2,0,0,1,2.16,2.19v3.15A21.32,21.32,0,0,0,196.08,114.4Zm9.55,17.46v2.89a10.55,10.55,0,0,0,10.53,10.53c5.93,0,10.53-4.79,10.53-8.9v-4.52a14,14,0,0,1-4.51.75h-12A14.09,14.09,0,0,1,205.63,131.86ZM163.2,180.73a5.9,5.9,0,0,0,5.89,5.91h9.66V173a2.19,2.19,0,1,1,4.38,0v13.66H233V156.58a49.94,49.94,0,0,1,3.48-18.31,43.9,43.9,0,0,0-5.47-.89c-.64,6.54-7.42,12.28-14.85,12.28a14.93,14.93,0,0,1-14.66-12.23C180.25,139.36,163.2,158.37,163.2,180.73ZM378.8,123.1a27.27,27.27,0,0,1-7.81,1.14h-5.27a27.2,27.2,0,0,1-7.65-1.1V135a10.37,10.37,0,1,0,20.73,0Zm-50.48-97c0-6.61-3.15-11.91-8.32-14.24a16.6,16.6,0,0,1-9.13,6.27,26.35,26.35,0,0,1,12.74,22.52v1.2a14.37,14.37,0,0,1,4.71,1.61Z"/></g></g></svg>