<svg xmlns="http://www.w3.org/2000/svg" width="435.2" height="441.85" viewBox="0 0 435.2 441.85"><defs><style>.cls-1{fill:#00608c;opacity:0.5;}</style></defs><g id="Layer_2" data-name="Layer 2"><g id="_Layer_" data-name="&lt;Layer&gt;"><path class="cls-1" d="M63.22,366.56a2.21,2.21,0,0,1-1.59,3.76,2.19,2.19,0,0,1-1.59-.67,213.49,213.49,0,0,1-16-18.59,2.22,2.22,0,1,1,3.52-2.7A212.65,212.65,0,0,0,63.22,366.56Zm-58.85-175a2,2,0,0,0,.34,0,2.23,2.23,0,0,0,2.19-1.88,210.07,210.07,0,0,1,5-23.52A2.21,2.21,0,0,0,7.64,165a212.15,212.15,0,0,0-5.12,24A2.21,2.21,0,0,0,4.37,191.52Zm3.89,69.94a2.22,2.22,0,1,0-4.35.85A211.94,211.94,0,0,0,10,286.09a2.22,2.22,0,0,0,4.23-1.34A208.12,208.12,0,0,1,8.26,261.46Zm14.58,45.72a2.22,2.22,0,0,0-4,1.83,213,213,0,0,0,11.38,21.75,2.21,2.21,0,0,0,1.91,1.08,2.17,2.17,0,0,0,1.14-.32,2.21,2.21,0,0,0,.76-3A209.31,209.31,0,0,1,22.84,307.18ZM5,237.65c-.4-5.25-.6-10.58-.6-15.86,0-2.71,0-5.47.15-8.18a2.22,2.22,0,0,0-4.43-.18C.05,216.21,0,219,0,221.79c0,5.39.21,10.84.62,16.2a2.21,2.21,0,0,0,2.21,2H3A2.22,2.22,0,0,0,5,237.65Zm386.75,94.76a2.22,2.22,0,0,0-3.06.68,206.38,206.38,0,0,1-14,19.52,2.22,2.22,0,0,0,3.45,2.8,215.33,215.33,0,0,0,14.34-19.94A2.22,2.22,0,0,0,391.79,332.41Zm20.63-43.92a2.21,2.21,0,0,0-2.82,1.37,206.83,206.83,0,0,1-9.18,22.22,2.22,2.22,0,0,0,4,1.93,212.83,212.83,0,0,0,9.37-22.7A2.21,2.21,0,0,0,412.42,288.49ZM358.5,370.38a211,211,0,0,1-18.13,15.8,2.21,2.21,0,0,0-.39,3.11,2.18,2.18,0,0,0,1.75.86,2.23,2.23,0,0,0,1.36-.46,213.46,213.46,0,0,0,18.51-16.14,2.22,2.22,0,0,0-3.1-3.17ZM422.4,241a2.23,2.23,0,0,0-2.44,2,210,210,0,0,1-3.83,23.74,2.22,2.22,0,0,0,1.69,2.64,2,2,0,0,0,.48.05,2.21,2.21,0,0,0,2.16-1.74,215.85,215.85,0,0,0,3.92-24.24A2.21,2.21,0,0,0,422.4,241ZM219.47,13.32c4.89.16,9.85.5,14.74,1,3.07.32,6.17.71,9.21,1.16l.33,0a2.22,2.22,0,0,0,.32-4.41c-3.11-.46-6.27-.86-9.41-1.18-5-.52-10-.87-15-1a2.22,2.22,0,1,0-.14,4.43Zm-48.28,4a2.09,2.09,0,0,0,.43,0,205.12,205.12,0,0,1,23.81-3.36,2.23,2.23,0,0,0,2-2.4,2.2,2.2,0,0,0-2.39-2,211.76,211.76,0,0,0-24.32,3.43,2.22,2.22,0,0,0,.44,4.39ZM322.76,132.13A42,42,0,0,1,353.07,145a9.23,9.23,0,0,1,0,12.8,8.77,8.77,0,0,1-12.62,0,24.57,24.57,0,0,0-35.38,0,8.77,8.77,0,0,1-12.62,0,9.23,9.23,0,0,1,0-12.8A42,42,0,0,1,322.76,132.13Zm27.13,16a37.68,37.68,0,0,0-54.26,0,4.76,4.76,0,0,0,0,6.61,4.44,4.44,0,0,0,6.27,0,29,29,0,0,1,41.72,0,4.45,4.45,0,0,0,6.27,0A4.76,4.76,0,0,0,349.89,148.1Zm-38.71,36.68a12.81,12.81,0,0,1-.08-1.39,11.91,11.91,0,1,1,.08,1.39Zm11.58,6.09a7.48,7.48,0,1,0-7.23-7.48A7.36,7.36,0,0,0,322.76,190.87ZM269.4,43.47c0-6.91,5.75-21,7.51-25.22C284.62,0,287.06,0,288.24,0S292,0,299.63,18.25c1.75,4.16,7.45,18.27,7.45,25.22a21.51,21.51,0,0,1-1.44,7.74,139.35,139.35,0,0,1,14.46-1c.54-1.31,1-2.44,1.37-3.31,3.46-8.19,7.07-15.82,10.15-21.5,5.14-9.44,7-10.23,8.59-10.23s3.56.79,8.72,10.23C352,31,355.61,38.66,359.07,46.89c1.82,4.33,6.05,14.72,9.24,25,.07.21.14.43.2.64a125.84,125.84,0,0,1,44.11,29.53,4.45,4.45,0,0,0,6.27,0,4.77,4.77,0,0,0,0-6.62A135,135,0,0,0,374,64.81a2,2,0,0,1-.43-.25,2.21,2.21,0,0,1,2.14-3.84,139.4,139.4,0,0,1,46.33,31.67,9.25,9.25,0,0,1,0,12.8,8.78,8.78,0,0,1-12.63,0A121.71,121.71,0,0,0,370.07,78a57.92,57.92,0,0,1,2.25,13.52,36.67,36.67,0,0,1-2.74,14,91.44,91.44,0,0,1,17.27,13.92,9.22,9.22,0,0,1,0,12.79,8.77,8.77,0,0,1-12.62,0A73.64,73.64,0,0,0,358.53,120a30.35,30.35,0,0,1-18.32,6.21c-15.39,0-28.28-11.74-31.38-27.36-.07-.33-.13-.67-.19-1a84.47,84.47,0,0,0-46.79,24.73,4.76,4.76,0,0,0,0,6.61,4.44,4.44,0,0,0,6.27,0,76.77,76.77,0,0,1,34.44-20.52,2.2,2.2,0,0,1,1.54.14,2.21,2.21,0,0,1-.36,4.14,72.36,72.36,0,0,0-32.45,19.33,8.77,8.77,0,0,1-12.62,0,9.22,9.22,0,0,1,0-12.79,88.79,88.79,0,0,1,49.48-26c0-.61,0-1.23,0-1.85,0-5.75,2.32-14.47,5.09-22.83a120.76,120.76,0,0,0-77.12,36.48,8.78,8.78,0,0,1-12.63,0,9.25,9.25,0,0,1,0-12.8A138.54,138.54,0,0,1,275.6,58.44,20.87,20.87,0,0,1,269.4,43.47Zm33.24,0c0-8.54-10.43-32.52-14.38-38.21-3.95,5.77-14.42,29.82-14.42,38.21,0,8.71,6.46,15.8,14.4,15.8S302.64,52.18,302.64,43.47ZM340.24,20c-5.69,6.2-27.7,55.19-27.7,71.57,0,16.65,12.42,30.19,27.67,30.19s27.67-13.54,27.67-30.19S345.92,26,340.24,20Zm43.43,102.56a87.93,87.93,0,0,0-16-13,34.72,34.72,0,0,1-5.58,7.36,78.11,78.11,0,0,1,15.35,12.25,4.33,4.33,0,0,0,6.26,0A4.76,4.76,0,0,0,383.67,122.53ZM303,56.05a19.07,19.07,0,0,1-7.55,6.12A17.5,17.5,0,0,1,280,61.62a134,134,0,0,0-53.32,33.86,4.79,4.79,0,0,0,0,6.62,4.45,4.45,0,0,0,6.27,0,125.32,125.32,0,0,1,75.57-37.39c2.09-.24,4.18-.43,6.29-.56,1.21-3.42,2.44-6.66,3.54-9.48A134.93,134.93,0,0,0,303,56.05ZM433,227.39H416.32c-1.77-21.15-28.85-38.87-68.51-44.48l-1.65-.23a2.22,2.22,0,0,0-2.48,1.91,1.34,1.34,0,0,0,0,.28,2.21,2.21,0,0,0,1.92,2.21l1.6.22a136.81,136.81,0,0,1,31.57,8.14A64.26,64.26,0,0,1,364,202.35a2.22,2.22,0,0,0,.71,4.32,2.15,2.15,0,0,0,.7-.12,62.74,62.74,0,0,0,18.1-9.06c16.61,7.67,27.14,18.34,28.34,29.9H233.66c1.22-11.47,11.87-22.15,28.43-29.84,12.51,9.47,35.52,15.32,60.67,15.32a148.78,148.78,0,0,0,30-2.93,2.22,2.22,0,1,0-.9-4.34,144.22,144.22,0,0,1-29.07,2.83c-22.88,0-43.77-4.9-55.92-12.94A137.51,137.51,0,0,1,301,186.94a2.2,2.2,0,0,0,1.93-2.19,2.62,2.62,0,0,0,0-.28,2.22,2.22,0,0,0-2.48-1.93,138.44,138.44,0,0,0-39.05,10.39.75.75,0,0,0-.13.06c-18.91,8.49-30.87,20.79-32.05,34.4H212.54a2.22,2.22,0,1,0,0,4.43H433a2.22,2.22,0,1,0,0-4.43ZM91.51,299.57a16,16,0,0,1-16-16c0-4.57,3.11-13.4,5.77-19.56,6.18-14.33,9-14.33,10.19-14.33s4,0,10.2,14.33c2.66,6.16,5.76,15,5.76,19.56A16,16,0,0,1,91.51,299.57Zm11.52-16c0-6.9-8.25-25.61-11.51-29.1C88.36,258,80,276.88,80,283.61a11.53,11.53,0,0,0,23,0Zm9.58-59.52c4.82,0,11,18.69,11,22.6a11.06,11.06,0,0,1-22.11,0C101.55,242.78,107.78,224.09,112.61,224.09Zm6.62,22.6c0-3.78-4.37-14.07-6.62-17.42-2.25,3.36-6.63,13.66-6.63,17.42a6.63,6.63,0,0,0,13.25,0Zm212.08,67.24V418.55a23.32,23.32,0,0,1-23.3,23.3H167.8a2.22,2.22,0,1,1,0-4.43H308a18.89,18.89,0,0,0,18.86-18.87V316.15H195.51a2.22,2.22,0,1,1,0-4.43H326.87V293.94A18.89,18.89,0,0,0,308,275.07h-17.9v14.45a7.06,7.06,0,0,1-7.05,7.06h-4.82a7.07,7.07,0,0,1-7.06-7.06V275.07h-17v14.45a7.07,7.07,0,0,1-7.06,7.06h-4.82a7.06,7.06,0,0,1-7-7.06V275.07H218.16v14.45a7.06,7.06,0,0,1-7,7.06h-4.82a7.06,7.06,0,0,1-7-7.06V275.07H187q2.09,9.54,3.52,20.46a18.28,18.28,0,0,1-18.12,20.62H156.73V379.5a62.21,62.21,0,0,1,11.07-18.14c.93-1.06,1.89-2.12,2.93-3.16,21.81-21.81,53.42-22.29,54.76-22.3a2.14,2.14,0,0,1,1.58.65,2.19,2.19,0,0,1,.65,1.58c0,1.34-.49,32.95-22.3,54.76a64,64,0,0,1-37.62,18.16,67.88,67.88,0,0,1-8.27.53c-1.09,0-2,0-2.8-.07v28.13a2.22,2.22,0,0,1-4.44,0V411.51c-.78,0-1.71.07-2.8.07-9.37,0-29.37-2.18-45.89-18.69-21.81-21.81-22.29-53.42-22.3-54.76a2.23,2.23,0,0,1,.65-1.58,2.14,2.14,0,0,1,1.59-.65c1.33,0,32.94.49,54.75,22.3a62.36,62.36,0,0,1,14,21.3V316.15h-8.55c0,.43.06.84.06,1.22a19.56,19.56,0,1,1-39.12,0c0-5.67,3.89-16.72,7.23-24.45,7.66-17.73,11.17-17.73,12.33-17.73.75,0,2.51,0,5.75,4.88a82.47,82.47,0,0,1,6.59,12.85,117.31,117.31,0,0,1,6.44,18.8h29.39a13.85,13.85,0,0,0,13.72-15.62c-5.24-40.42-17.85-67.57-31.39-67.57-10,0-19.82,15.24-26.35,40.76a2.22,2.22,0,0,1-4.3-1.09c7.17-28,18.34-44.11,30.65-44.11,12.77,0,24.24,17.63,31.25,46.55h13.25V256.19a7.06,7.06,0,0,1,7-7.06h4.82a7.06,7.06,0,0,1,7,7.06v14.45h17.05V256.19a7.06,7.06,0,0,1,7-7.06h4.82a7.07,7.07,0,0,1,7.06,7.06v14.45h17V256.19a7.07,7.07,0,0,1,7.06-7.06h4.82a7.06,7.06,0,0,1,7.05,7.06v14.45H308a23.32,23.32,0,0,1,23.3,23.3v20ZM173.87,361.34c-12.88,12.87-16.34,28.35-17.14,38.06v7.65c6.53.3,28.36-.11,45.55-17.3s20.33-41.68,20.89-49.3C215.55,341,191.07,344.14,173.87,361.34Zm-21.75,45.72a62.71,62.71,0,0,1,.13-8.13c-.87-9.73-4.42-24.92-17.09-37.59C118,344.14,93.48,341,85.86,340.45c.56,7.63,3.68,32.11,20.88,49.3S145.38,407.36,152.12,407.06ZM285.68,289.52V256.19a2.62,2.62,0,0,0-2.62-2.62h-4.82a2.62,2.62,0,0,0-2.62,2.62v33.33a2.62,2.62,0,0,0,2.62,2.62h4.82A2.62,2.62,0,0,0,285.68,289.52Zm-36,0V256.19a2.62,2.62,0,0,0-2.62-2.62h-4.82a2.61,2.61,0,0,0-2.61,2.62v33.33a2.61,2.61,0,0,0,2.61,2.62h4.82A2.62,2.62,0,0,0,249.7,289.52Zm-36,0V256.19a2.62,2.62,0,0,0-2.62-2.62h-4.82a2.62,2.62,0,0,0-2.62,2.62v33.33a2.62,2.62,0,0,0,2.62,2.62h4.82A2.62,2.62,0,0,0,213.73,289.52Zm-74.37,27.85c0-9.29-11.31-34.29-15.12-37.54-3.81,3.27-15.13,28.28-15.13,37.54a15.13,15.13,0,1,0,30.25,0Zm127.38,44.78V336.93a8.19,8.19,0,0,1,8.18-8.17h25.21a8.18,8.18,0,0,1,8.17,8.17v25.22a8.17,8.17,0,0,1-8.17,8.17H274.92A8.18,8.18,0,0,1,266.74,362.15Zm4.44,0a3.75,3.75,0,0,0,3.74,3.74h25.21a3.75,3.75,0,0,0,3.74-3.74V336.93a3.74,3.74,0,0,0-3.74-3.73H274.92a3.74,3.74,0,0,0-3.74,3.73Zm-4.44,54.49V391.42a8.19,8.19,0,0,1,8.18-8.17h25.21a8.18,8.18,0,0,1,8.17,8.17v25.22a8.18,8.18,0,0,1-8.17,8.17H274.92A8.19,8.19,0,0,1,266.74,416.64Zm4.44,0a3.74,3.74,0,0,0,3.74,3.73h25.21a3.74,3.74,0,0,0,3.74-3.73V391.42a3.74,3.74,0,0,0-3.74-3.73H274.92a3.74,3.74,0,0,0-3.74,3.73Zm-40.81-46.32H245a8.18,8.18,0,0,0,8.18-8.17V336.93a8.19,8.19,0,0,0-8.18-8.17H233.91a2.22,2.22,0,0,0-.21,4.42l.21,0H245a3.74,3.74,0,0,1,3.74,3.73v25.22a3.75,3.75,0,0,1-3.74,3.74H230.37a2.22,2.22,0,1,0,0,4.43Zm-10.55,54.49H245a8.19,8.19,0,0,0,8.18-8.17V391.42a8.18,8.18,0,0,0-8.18-8.17H221.41a2.21,2.21,0,0,0-2.22,2.22,2.19,2.19,0,0,0,1,1.87,2.23,2.23,0,0,0,1.18.34H245a3.75,3.75,0,0,1,3.74,3.74v25.22a3.74,3.74,0,0,1-3.74,3.73H219.82a3.74,3.74,0,0,1-3.74-3.73V397.45a2.21,2.21,0,0,0-1-1.87,2.15,2.15,0,0,0-1.18-.35,2.21,2.21,0,0,0-2.21,2.22v19.19A8.18,8.18,0,0,0,219.82,424.81ZM81.3,186.9,71.35,197a9.1,9.1,0,0,1-12.87.13L39.54,178.6a9.11,9.11,0,0,1-.12-12.87l9.95-10.15a1.47,1.47,0,0,0,.21-1.73,77.48,77.48,0,0,1-5.13-12,1.53,1.53,0,0,0-1.4-1.05l-14.21.14a9.14,9.14,0,0,1-9.19-9l-.26-26.52a9.1,9.1,0,0,1,9-9.19L42.61,96A1.49,1.49,0,0,0,44,95a77.2,77.2,0,0,1,4.89-12.14,1.47,1.47,0,0,0-.24-1.73l-10.15-10a9.1,9.1,0,0,1-.13-12.87L56.93,39.32a9.12,9.12,0,0,1,12.87-.13L80,49.15a1.49,1.49,0,0,0,1.73.21,77,77,0,0,1,12-5.14,1.45,1.45,0,0,0,1-1.39l-.14-14.21a9.1,9.1,0,0,1,9-9.19l11.45-.11,4.43-.05,10.64-.1h.09a9.11,9.11,0,0,1,9.1,9l.14,14.21a1.47,1.47,0,0,0,1.08,1.37,76.86,76.86,0,0,1,12.14,4.9,1.47,1.47,0,0,0,1.73-.25l10-10.14a9.1,9.1,0,0,1,12.87-.13l18.93,18.57a9.1,9.1,0,0,1,.13,12.87l-10,10.15a1.45,1.45,0,0,0-.21,1.73,77.48,77.48,0,0,1,5.13,12.05,1.48,1.48,0,0,0,1.39,1l14.21-.14a9.1,9.1,0,0,1,9.19,9l.26,26.52a9.11,9.11,0,0,1-9,9.19l-14.21.14a1.48,1.48,0,0,0-1.37,1.08,77.25,77.25,0,0,1-4.9,12.14,1.47,1.47,0,0,0,.25,1.73l10.15,10a9.11,9.11,0,0,1,.12,12.87L178.82,196a9.09,9.09,0,0,1-12.87.12l-10.14-10a1.49,1.49,0,0,0-1.74-.21,76.18,76.18,0,0,1-12,5.14,1.45,1.45,0,0,0-1,1.39l.13,14.21a9.11,9.11,0,0,1-9,9.19l-26.52.26h-.09a9.11,9.11,0,0,1-9.1-9l-.14-14.21a1.44,1.44,0,0,0-1.07-1.37A77,77,0,0,1,83,186.65,1.48,1.48,0,0,0,81.3,186.9Zm-16.4,8.44a4.66,4.66,0,0,0,3.28-1.4l10-10.15A5.8,5.8,0,0,1,82.31,182a6,6,0,0,1,2.72.65,71.73,71.73,0,0,0,11.45,4.61,5.92,5.92,0,0,1,4.21,5.58l.14,14.21a4.65,4.65,0,0,0,4.71,4.62l26.52-.26a4.68,4.68,0,0,0,4.62-4.72l-.14-14.21a5.9,5.9,0,0,1,4.1-5.65A73.14,73.14,0,0,0,152,182a5.88,5.88,0,0,1,6.92,1L169.06,193a4.51,4.51,0,0,0,3.31,1.33,4.63,4.63,0,0,0,3.29-1.4L194.23,174a4.67,4.67,0,0,0-.07-6.6L184,157.4a5.9,5.9,0,0,1-1.09-6.9,73.65,73.65,0,0,0,4.61-11.45,5.89,5.89,0,0,1,5.57-4.21l14.21-.14a4.67,4.67,0,0,0,4.62-4.71l-.26-26.52a4.62,4.62,0,0,0-1.4-3.28A4.52,4.52,0,0,0,207,98.85L192.75,99a5.9,5.9,0,0,1-5.65-4.1,73.19,73.19,0,0,0-4.84-11.35,5.9,5.9,0,0,1,1-6.92l9.95-10.15a4.65,4.65,0,0,0-.06-6.59L174.17,41.31a4.66,4.66,0,0,0-6.6.06l-9.95,10.15a5.91,5.91,0,0,1-6.9,1.1A72.61,72.61,0,0,0,139.28,48a5.87,5.87,0,0,1-4.21-5.57l-.14-14.21a4.68,4.68,0,0,0-4.67-4.62l-26.56.26a4.66,4.66,0,0,0-4.62,4.72l.14,14.21a5.92,5.92,0,0,1-4.1,5.65,72.84,72.84,0,0,0-11.36,4.83,5.88,5.88,0,0,1-6.92-1l-10.14-10a4.67,4.67,0,0,0-6.6.07L41.53,61.36a4.68,4.68,0,0,0,.06,6.6l10.15,10a5.88,5.88,0,0,1,1.1,6.9,71.73,71.73,0,0,0-4.61,11.45,5.91,5.91,0,0,1-5.57,4.21l-14.21.13a4.66,4.66,0,0,0-4.62,4.72l.26,26.52a4.6,4.6,0,0,0,4.71,4.62L43,136.32a5.83,5.83,0,0,1,5.65,4.1,72.24,72.24,0,0,0,4.84,11.35,5.91,5.91,0,0,1-1,6.92l-10,10.15a4.66,4.66,0,0,0,.07,6.59L61.59,194A4.54,4.54,0,0,0,64.9,195.34Zm-7.54-77.69c0-.56,0-1.13,0-1.69a2.23,2.23,0,0,1,.59-1.44,60,60,0,1,1,59.91,63.26h-.53A60.12,60.12,0,0,1,57.36,117.65Zm5.23-5.39,23.91-11.6a2.22,2.22,0,0,1,3.18,2v11.15H104a2.22,2.22,0,0,1,2.22,2.22v37.66h12.11V80.88a2.21,2.21,0,0,1,2.21-2.22h22.22A2.21,2.21,0,0,1,145,80.88V96.72l17.6,15a2.2,2.2,0,0,1,.77,1.68v4.61h10.06c0-.14,0-.28,0-.42a55.54,55.54,0,0,0-110.84-5.39Zm54.76,61.09a55.48,55.48,0,0,0,55.34-50.86h-9.33V136a2.22,2.22,0,1,1-4.43,0v-21.5L145,102.56v53.35a2.22,2.22,0,1,1-4.43,0V83.1H122.77v72.81a2.22,2.22,0,0,1-2.22,2.22H104a2.22,2.22,0,0,1-2.22-2.22V118.25H89.68V146.6a2.22,2.22,0,0,1-4.43,0V106.2L61.79,117.57v.08A55.69,55.69,0,0,0,117.35,173.35Z"/></g></g></svg>