<svg xmlns="http://www.w3.org/2000/svg" xmlns:xlink="http://www.w3.org/1999/xlink" width="1370.1" height="952" viewBox="0 0 1370.1 952"><defs><style>.cls-1{fill:none;}.cls-2{isolation:isolate;}.cls-3{clip-path:url(#clip-path);}.cls-4{fill:#95cbe7;}.cls-5{fill:#395388;}.cls-6{fill:#fff;}.cls-7{fill:#f2bf89;}.cls-8{fill:url(#_Ì_Ý_èƒOƒ_ƒf_ƒVƒ_ƒ_16);}.cls-9{fill:url(#_Ì_Ý_èƒOƒ_ƒf_ƒVƒ_ƒ_15);}.cls-10{fill:url(#_Ì_Ý_èƒOƒ_ƒf_ƒVƒ_ƒ_15-2);}.cls-11{fill:url(#_Ì_Ý_èƒOƒ_ƒf_ƒVƒ_ƒ_15-3);}.cls-12{fill:#fad2a7;}.cls-13{fill:#efefef;}.cls-14{fill:#004471;}.cls-15{mix-blend-mode:multiply;opacity:0.2;}</style><clipPath id="clip-path" transform="translate(75.34 4)"><rect class="cls-1" width="1242" height="945"/></clipPath><linearGradient id="_Ì_Ý_èƒOƒ_ƒf_ƒVƒ_ƒ_16" x1="375.86" y1="270.25" x2="463.03" y2="376.31" gradientUnits="userSpaceOnUse"><stop offset="0" stop-color="#c7181c"/><stop offset="1" stop-color="#e60012"/></linearGradient><linearGradient id="_Ì_Ý_èƒOƒ_ƒf_ƒVƒ_ƒ_15" x1="348.25" y1="257" x2="157.75" y2="395.85" gradientUnits="userSpaceOnUse"><stop offset="0" stop-color="#e60012"/><stop offset="1" stop-color="#c7181c"/></linearGradient><linearGradient id="_Ì_Ý_èƒOƒ_ƒf_ƒVƒ_ƒ_15-2" x1="315.44" y1="520.78" x2="539.58" y2="520.78" xlink:href="#_Ì_Ý_èƒOƒ_ƒf_ƒVƒ_ƒ_15"/><linearGradient id="_Ì_Ý_èƒOƒ_ƒf_ƒVƒ_ƒ_15-3" x1="209.89" y1="513.69" x2="412.26" y2="513.69" xlink:href="#_Ì_Ý_èƒOƒ_ƒf_ƒVƒ_ƒ_15"/></defs><g class="cls-2"><g id="Layer_2" data-name="Layer 2"><g id="Layer_2-2" data-name="Layer 2"><g class="cls-3"><rect class="cls-4" x="17.34" y="0.43" width="1352.76" height="951.57"/><polygon class="cls-5" points="444.49 174.12 663.49 442.54 854.41 445.91 964.47 40.48 672.47 9.03 471.44 21.38 444.49 174.12"/><path class="cls-6" d="M917.12,389a14.29,14.29,0,0,1-2-14.55,13.37,13.37,0,0,1,11.14-8.34A17.78,17.78,0,0,1,928,366a22.07,22.07,0,0,1,5.84.83,23.75,23.75,0,0,0,5.84.61c6.21,0,15.77-1.73,26-10a47.72,47.72,0,0,0-60-74.19c-16.58,13.42-15.89,28.55-15.85,29.19a21.79,21.79,0,0,1-.59,6.69,13.78,13.78,0,0,1-13.57,10.3,13.94,13.94,0,0,1-11-5.27L800.9,245.36l77.87-63a17,17,0,0,0,5.72-18.15,16.63,16.63,0,0,0-14-12.18,25.53,25.53,0,0,0-3.19-.2c-.53,0-1.07,0-1.62.05h-.33c-2.44,0-15.15-.71-26.6-14.85a45,45,0,1,1,70-56.64c6.54,8.07,8.61,15.64,9.2,20.57a26.31,26.31,0,0,1-.29,8.86,26.07,26.07,0,0,0-.86,4.73,16.48,16.48,0,0,0,4.3,12.67A17.55,17.55,0,0,0,934,132.84,17,17,0,0,0,944.71,129l78.13-63.23,64,79.12a17,17,0,0,0,13.07,6.29,15.46,15.46,0,0,0,8.89-2.76c5.28-3.66,8.05-10.13,7.6-17.75a25.42,25.42,0,0,1,1.56-8.73c1.6-4.7,5.21-11.67,13.29-18.2a45,45,0,0,1,56.64,70c-9.63,7.78-18.54,9.42-24.32,9.42a21.38,21.38,0,0,1-5.12-.52,24.55,24.55,0,0,0-6.56-.93,17.69,17.69,0,0,0-12.39,4.66c-6.08,5.72-6.58,15.47-1.13,22.21l64,79.13L1124,351.22a14,14,0,0,1-8.91,3.17c-6.16,0-13.15-4.29-14-12.26a20.88,20.88,0,0,1,.73-7.74c.17-.62,4-15.27-9.41-31.85a47.72,47.72,0,1,0-74.19,60c12.22,15.1,26,15.86,28.69,15.86h.5c.49,0,1,0,1.46,0a20,20,0,0,1,6.26.94,13.45,13.45,0,0,1,9.15,10.55,14.29,14.29,0,0,1-5,13.73L980.5,467.3Z" transform="translate(75.34 4)"/><path class="cls-4" d="M873.69,65a43.52,43.52,0,0,1,34,16.2c5.05,6.24,8,12.88,8.89,19.75a25.15,25.15,0,0,1-.23,8.48,26.27,26.27,0,0,0-.9,5,17.81,17.81,0,0,0,4.65,13.69A18.89,18.89,0,0,0,934,134.19a18.27,18.27,0,0,0,11.6-4.16l77.09-62.38,63.19,78.08a18.36,18.36,0,0,0,14.12,6.79,16.88,16.88,0,0,0,9.66-3c5.67-3.93,8.65-10.84,8.17-18.93a24.8,24.8,0,0,1,1.54-8.36c2.27-6.53,6.58-12.4,12.81-17.45a43.67,43.67,0,1,1,54.95,67.9c-9.32,7.54-17.91,9.12-23.47,9.12a20.82,20.82,0,0,1-4.76-.47,26,26,0,0,0-6.92-1,19,19,0,0,0-13.31,5c-6.6,6.2-7.15,16.76-1.25,24l63.18,78.08-77.45,62.67A12.68,12.68,0,0,1,1115,353a13.1,13.1,0,0,1-8.38-3,11.87,11.87,0,0,1-4.26-8,19.5,19.5,0,0,1,.69-7.24c.18-.65,4.19-15.95-9.66-33.06a49.07,49.07,0,0,0-76.29,61.73c12.6,15.57,27,16.36,29.74,16.36h.58c.46,0,.93,0,1.38,0a18.93,18.93,0,0,1,5.85.87,12.16,12.16,0,0,1,8.24,9.51,12.8,12.8,0,0,1-4.56,12.45L980.7,465.41l-62.53-77.28A13,13,0,0,1,916.32,375a12.07,12.07,0,0,1,10-7.52,15.44,15.44,0,0,1,1.67-.08,20.59,20.59,0,0,1,5.48.78,25,25,0,0,0,6.2.66c6.43,0,16.32-1.79,26.86-10.32a49.07,49.07,0,1,0-61.73-76.29c-17.11,13.85-16.38,29.65-16.35,30.32a20,20,0,0,1-.55,6.27,12.45,12.45,0,0,1-12.26,9.29,12.62,12.62,0,0,1-10-4.76l-62.91-77.74,76.83-62.17a18.4,18.4,0,0,0,6.16-9.21,18.9,18.9,0,0,0,0-10.36,18,18,0,0,0-15.16-13.15,26.47,26.47,0,0,0-3.36-.21c-.56,0-1.13,0-1.68,0h-.27c-2.33,0-14.49-.7-25.55-14.36A43.66,43.66,0,0,1,873.69,65m0-2.69a46.37,46.37,0,0,0-36,75.54c11.85,14.63,25.15,15.35,27.65,15.35h.41c.52,0,1,0,1.54,0a22.51,22.51,0,0,1,3,.19c13.67,1.76,18.35,19.28,7.64,28L799,245.16,863.6,325a15.39,15.39,0,0,0,12.07,5.77,15.12,15.12,0,0,0,14.87-11.32,22.85,22.85,0,0,0,.64-7.1s-.89-14.93,15.35-28.06a46.37,46.37,0,1,1,58.33,72.09c-10.1,8.18-19.51,9.73-25.16,9.73a22.47,22.47,0,0,1-5.48-.57,23.18,23.18,0,0,0-6.2-.88c-.66,0-1.3,0-1.93.09-12,1.2-17.63,15.68-10,25.09L980.3,469.2l79.77-64.55c9.39-7.6,6.94-22.87-4.55-26.61a21.38,21.38,0,0,0-6.68-1c-.51,0-1,0-1.54,0h-.42c-2.49,0-15.79-.71-27.64-15.35a46.37,46.37,0,1,1,72.09-58.34c13.14,16.23,9.16,30.64,9.16,30.64a22.11,22.11,0,0,0-.77,8.24A15.17,15.17,0,0,0,1115,355.74a15.44,15.44,0,0,0,9.76-3.47l79.54-64.37-64.88-80.18c-4.9-6.05-4.67-15,1-20.38a16.38,16.38,0,0,1,11.46-4.29,23.59,23.59,0,0,1,6.2.88,22.47,22.47,0,0,0,5.48.57c5.65,0,15.06-1.55,25.17-9.73a46.37,46.37,0,0,0-58.34-72.09c-16.23,13.13-15.35,28.06-15.35,28.06.44,7.45-2.31,13.3-7,16.57a14.16,14.16,0,0,1-8.12,2.51,15.6,15.6,0,0,1-12-5.78L1023,63.86l-79.18,64.08a15.65,15.65,0,0,1-9.91,3.55c-8.57,0-16.64-7-15.83-16.85a24.09,24.09,0,0,1,.81-4.48s4-14.41-9.16-30.64a46.26,46.26,0,0,0-36.08-17.2Z" transform="translate(75.34 4)"/><path class="cls-6" d="M905.12,651.08a44.86,44.86,0,0,1-35-16.7c-6.54-8.08-8.61-15.65-9.2-20.57a25.73,25.73,0,0,1,.29-8.87c1.69-6.12,1-12-1.81-16.48A17.89,17.89,0,0,0,847,580.59a11.82,11.82,0,0,0-2-.17,12.55,12.55,0,0,0-7.85,2.84l-80.93,65.55-65.9-81.44a9.58,9.58,0,0,1-2.1-7.72c1.44-7.82,7.22-12.68,15.09-12.68a21.76,21.76,0,0,1,5.85.84,24.22,24.22,0,0,0,5.83.61c6.22,0,15.78-1.74,26-10a47.72,47.72,0,1,0-60-74.19c-16.58,13.41-15.88,28.54-15.84,29.18.32,5.45-1.19,10.24-4.26,13.5a14.89,14.89,0,0,1-11.14,4.52h-.55a9.59,9.59,0,0,1-7.12-3.66l-65.47-80.92,81.23-65.73a9.82,9.82,0,0,1,6.14-2.23,8.62,8.62,0,0,1,1.53.13,15,15,0,0,1,10.5,6.67c2.43,3.85,3,8.93,1.48,14.3-.17.61-4,15.27,9.41,31.85a47.72,47.72,0,0,0,74.19-60c-12.21-15.09-26-15.86-28.69-15.86h-.5c-.49,0-1,.05-1.46.05-5.17,0-9.5-1.65-12.5-4.77a15.11,15.11,0,0,1-4.05-11.36,9.61,9.61,0,0,1,3.66-7.07l81-65.58,34,42,0,0,31.61,39.07a12.32,12.32,0,0,0,9.06,4.66h.81a17.68,17.68,0,0,0,13.1-5.37c3.58-3.8,5.35-9.31,5-15.5a25.69,25.69,0,0,1,1.56-8.73c1.61-4.7,5.21-11.67,13.29-18.2a45,45,0,1,1,56.64,70c-9.63,7.79-18.54,9.43-24.32,9.43a22,22,0,0,1-5.12-.52,24.55,24.55,0,0,0-6.56-.93c-9.2,0-16.18,5.91-17.78,15.06a12.3,12.3,0,0,0,2.66,9.83l65.71,81.12L897,534.9A12.33,12.33,0,0,0,892.3,544a18,18,0,0,0,4.78,13.38c3.48,3.61,8.61,5.6,14.46,5.6.54,0,1.08,0,1.62,0h.34c2.43,0,15.15.72,26.59,14.86a45,45,0,0,1-35,73.34Z" transform="translate(75.34 4)"/><path class="cls-4" d="M798.43,249.09,830.75,289l0,0,1.7,2.09,30.76,38a13.72,13.72,0,0,0,10.06,5.16h.86a19.07,19.07,0,0,0,14.08-5.79c3.84-4.08,5.74-9.94,5.35-16.5a25,25,0,0,1,1.55-8.36c2.26-6.54,6.57-12.41,12.81-17.46a43.67,43.67,0,0,1,54.94,67.9c-9.32,7.54-17.91,9.13-23.47,9.13a20.93,20.93,0,0,1-4.76-.47,26,26,0,0,0-6.92-1c-9.89,0-17.39,6.35-19.11,16.17a13.68,13.68,0,0,0,3,10.92L976.36,469l-80.25,64.87a13.66,13.66,0,0,0-5.16,10,19.37,19.37,0,0,0,5.16,14.37c3.73,3.88,9.21,6,15.43,6,.56,0,1.14,0,1.69,0h.27c2.33,0,14.49.69,25.55,14.35a43.67,43.67,0,1,1-67.9,54.95c-5-6.24-8-12.88-8.89-19.74a24.87,24.87,0,0,1,.23-8.49c1.79-6.49,1.09-12.73-2-17.56a19.24,19.24,0,0,0-13.27-8.48,12.41,12.41,0,0,0-2.2-.19,13.93,13.93,0,0,0-8.7,3.14l-79.88,64.7-65.05-80.39a8.19,8.19,0,0,1-1.82-6.63c1.31-7.13,6.58-11.57,13.76-11.57a20.69,20.69,0,0,1,5.49.79,25.49,25.49,0,0,0,6.19.66c6.44,0,16.32-1.79,26.87-10.33a49.07,49.07,0,1,0-61.74-76.28c-17.11,13.84-16.38,29.65-16.34,30.31.3,5.07-1.08,9.51-3.89,12.49a13.55,13.55,0,0,1-10.16,4.1h-.51a8.27,8.27,0,0,1-6.11-3.16L578.54,427l80.17-64.88a8.5,8.5,0,0,1,5.3-1.93,7.06,7.06,0,0,1,1.3.11,13.72,13.72,0,0,1,9.59,6.06c2.23,3.53,2.7,8.22,1.32,13.22-.18.64-4.19,15.94,9.66,33a49.07,49.07,0,0,0,76.29-61.73c-12.6-15.57-27-16.35-29.74-16.35h-.58c-.46,0-.93,0-1.38,0-4.8,0-8.79-1.51-11.53-4.35a13.85,13.85,0,0,1-3.67-10.38,8.28,8.28,0,0,1,3.16-6.07l80-64.73m.4-3.8-82.09,66.43a11,11,0,0,0-4.16,8.07c-.37,10.2,6.8,17.53,17.89,17.53.51,0,1,0,1.54-.05h.42c2.49,0,15.79.72,27.64,15.36A46.37,46.37,0,1,1,688,411c-13.14-16.23-9.16-30.64-9.16-30.64,3.19-11.56-2.54-20.8-13-22.66a10.57,10.57,0,0,0-1.77-.15,11.14,11.14,0,0,0-7,2.54l-82.28,66.57,66.33,82a11,11,0,0,0,8.12,4.16h.59c10.27,0,17.43-7.75,16.74-19.44,0,0-.88-14.92,15.35-28.06a46.37,46.37,0,0,1,58.34,72.1c-10.11,8.18-19.51,9.72-25.17,9.72a22.8,22.8,0,0,1-5.47-.56,23.22,23.22,0,0,0-6.21-.89c-8.5,0-14.86,5.33-16.41,13.78a10.91,10.91,0,0,0,2.37,8.81l66.75,82.5,82-66.4a11.15,11.15,0,0,1,7-2.54,10.22,10.22,0,0,1,1.74.15c10.55,1.83,16.3,11.09,13.1,22.66,0,0-4,14.41,9.16,30.65a46.37,46.37,0,0,0,72.09-58.34C929.3,562.25,916,561.53,913.5,561.53h-.41c-.53,0-1,.05-1.55.05-11.11,0-18.28-7.36-17.89-17.59a11,11,0,0,1,4.16-8l82.35-66.57L913.6,387.21a11,11,0,0,1-2.38-8.75c1.5-8.55,7.9-13.94,16.45-13.94a23.19,23.19,0,0,1,6.21.88,22.8,22.8,0,0,0,5.47.56c5.65,0,15.06-1.54,25.17-9.72a46.37,46.37,0,1,0-58.34-72.09C890,297.28,890.83,312.2,890.83,312.2c.69,11.69-6.47,19.45-16.74,19.45h-.76a11,11,0,0,1-8.06-4.16l-30.77-38,0,0-35.71-44.14Z" transform="translate(75.34 4)"/><path class="cls-6" d="M1087.2,876.12a44.86,44.86,0,0,1-35-16.71c-6.53-8.07-8.61-15.64-9.19-20.57a25.68,25.68,0,0,1,.29-8.86c1.68-6.12,1-12-1.82-16.48a17.94,17.94,0,0,0-12.35-7.88,11.93,11.93,0,0,0-2-.16,12.51,12.51,0,0,0-7.84,2.83l-80.93,65.56L872.44,792.4a9.56,9.56,0,0,1-2.09-7.72c1.43-7.81,7.21-12.67,15.09-12.67a22.07,22.07,0,0,1,5.84.83,23.41,23.41,0,0,0,5.84.62c6.21,0,15.77-1.74,26-10a47.72,47.72,0,0,0-60-74.19c-16.58,13.42-15.89,28.55-15.85,29.19.32,5.45-1.19,10.24-4.26,13.49a14.81,14.81,0,0,1-11.13,4.52h-.56a9.54,9.54,0,0,1-7.11-3.66l-65.48-80.91,81.23-65.73a9.86,9.86,0,0,1,6.14-2.24,8.73,8.73,0,0,1,1.54.14,15,15,0,0,1,10.49,6.66c2.44,3.86,3,8.93,1.48,14.3-.17.62-4,15.27,9.41,31.85a47.72,47.72,0,0,0,74.19-60C931,561.71,917.15,561,914.5,561H914c-.49,0-1,0-1.46,0-5.18,0-9.5-1.64-12.51-4.76a15.15,15.15,0,0,1-4-11.36,9.61,9.61,0,0,1,3.66-7.07l81-65.58,34,42,0,0,31.61,39.07a12.31,12.31,0,0,0,9.07,4.65l.8,0a17.71,17.71,0,0,0,13.1-5.37c3.59-3.8,5.36-9.31,5-15.51a26,26,0,0,1,1.57-8.73c1.6-4.69,5.21-11.66,13.28-18.2a45,45,0,0,1,63.32,6.68,45,45,0,0,1-6.68,63.32c-9.62,7.79-18.53,9.42-24.32,9.42a21.34,21.34,0,0,1-5.11-.52,25,25,0,0,0-6.57-.92c-9.19,0-16.17,5.91-17.78,15a12.36,12.36,0,0,0,2.67,9.84l65.7,81.11L1079,759.94a12.3,12.3,0,0,0-4.65,9,18,18,0,0,0,4.77,13.38c3.48,3.62,8.62,5.61,14.47,5.61.53,0,1.08,0,1.62-.05h.34c2.43,0,15.15.71,26.59,14.85a45,45,0,0,1-35,73.35Z" transform="translate(75.34 4)"/><path class="cls-4" d="M980.5,474.12l32.33,40,0,0,1.69,2.1,30.77,38a13.62,13.62,0,0,0,10.06,5.16l.85,0a19.09,19.09,0,0,0,14.09-5.79c3.84-4.08,5.74-9.94,5.35-16.51a24.8,24.8,0,0,1,1.54-8.36c2.26-6.53,6.57-12.4,12.81-17.45a43.67,43.67,0,1,1,55,67.9c-9.32,7.54-17.91,9.12-23.48,9.12a20,20,0,0,1-4.75-.47,26.43,26.43,0,0,0-6.93-1c-9.88,0-17.38,6.34-19.1,16.17a13.64,13.64,0,0,0,2.94,10.92L1158.44,694l-80.25,64.88a13.66,13.66,0,0,0-5.16,10,19.34,19.34,0,0,0,5.15,14.37c3.74,3.88,9.22,6,15.44,6,.56,0,1.13,0,1.69-.05h.27c2.32,0,14.48.7,25.54,14.36a43.67,43.67,0,1,1-67.9,54.94c-5-6.23-8-12.88-8.89-19.74a24.65,24.65,0,0,1,.24-8.48c1.79-6.49,1.09-12.73-2-17.57a19.24,19.24,0,0,0-13.26-8.47,12.6,12.6,0,0,0-2.21-.19,13.89,13.89,0,0,0-8.69,3.13L938.55,872l-65.06-80.4a8.24,8.24,0,0,1-1.82-6.62c1.31-7.14,6.59-11.57,13.77-11.57a20.65,20.65,0,0,1,5.48.78,24.92,24.92,0,0,0,6.19.66c6.44,0,16.33-1.79,26.87-10.32a49.07,49.07,0,1,0-61.73-76.29c-17.11,13.85-16.39,29.65-16.35,30.32.3,5.07-1.08,9.51-3.89,12.49a13.51,13.51,0,0,1-10.15,4.09h-.52a8.17,8.17,0,0,1-6.1-3.16l-64.63-79.86,80.18-64.88a8.46,8.46,0,0,1,5.29-1.94,7.17,7.17,0,0,1,1.31.12,13.69,13.69,0,0,1,9.58,6c2.23,3.53,2.7,8.23,1.32,13.22-.18.65-4.18,16,9.66,33.06A49.07,49.07,0,0,0,944.24,576c-12.6-15.57-27-16.36-29.74-16.36h-.57c-.47,0-.93,0-1.38,0-4.8,0-8.79-1.51-11.54-4.36a13.8,13.8,0,0,1-3.66-10.37,8.26,8.26,0,0,1,3.16-6.08l80-64.73m.4-3.79-82.09,66.43a11,11,0,0,0-4.16,8.07c-.36,10.2,6.81,17.52,17.9,17.52.5,0,1,0,1.54,0h.41c2.5,0,15.8.72,27.64,15.35A46.37,46.37,0,1,1,870.05,636c-13.13-16.23-9.16-30.64-9.16-30.64,3.19-11.55-2.53-20.8-13-22.65a10.49,10.49,0,0,0-1.77-.15,11.13,11.13,0,0,0-7,2.53l-82.27,66.58,66.32,82a11,11,0,0,0,8.12,4.16h.6c10.26,0,17.43-7.76,16.74-19.44,0,0-.89-14.93,15.34-28.06a46.37,46.37,0,1,1,58.34,72.09c-10.11,8.18-19.51,9.73-25.17,9.73a22.43,22.43,0,0,1-5.47-.57,23.59,23.59,0,0,0-6.2-.88c-8.5,0-14.87,5.32-16.42,13.78a11,11,0,0,0,2.37,8.81l66.76,82.49,82-66.4a11.23,11.23,0,0,1,7-2.54,10.43,10.43,0,0,1,1.75.15c10.54,1.83,16.29,11.09,13.1,22.67,0,0-4,14.41,9.15,30.64a46.37,46.37,0,1,0,72.1-58.34c-11.85-14.63-25.15-15.35-27.64-15.35h-.42c-.52,0-1,0-1.54,0-11.12,0-18.29-7.36-17.9-17.59a11,11,0,0,1,4.16-8l82.35-66.57-66.55-82.16a11,11,0,0,1-2.39-8.75c1.5-8.56,7.9-14,16.45-14a23.6,23.6,0,0,1,6.21.88,22.43,22.43,0,0,0,5.47.57c5.66,0,15.06-1.54,25.17-9.72a46.37,46.37,0,0,0-58.34-72.1c-16.23,13.14-15.34,28.06-15.34,28.06.69,11.69-6.48,19.45-16.75,19.45h-.75a11,11,0,0,1-8.07-4.16l-30.76-38,0,0L980.9,470.33Z" transform="translate(75.34 4)"/><path class="cls-6" d="M328.77,118.08a12.3,12.3,0,0,0-9-4.76q-.55,0-1.11,0a17.69,17.69,0,0,0-13,5.28c-3.58,3.76-5.4,9.22-5.1,15.38a25.81,25.81,0,0,1-1.67,8.71c-1.66,4.68-5.35,11.61-13.5,18a45,45,0,0,1-63.24-7.42A45.09,45.09,0,0,1,229.62,90c9.56-7.55,18.37-9.13,24.07-9.13a22.05,22.05,0,0,1,5.47.58,24.52,24.52,0,0,0,6.81,1c9.08,0,16-5.84,17.71-14.89a12.32,12.32,0,0,0-2.56-9.85L233.37-2.65H597.24l20.14,25.5L535.7,87.36a9.84,9.84,0,0,1-6.06,2.17h0a9.49,9.49,0,0,1-1.69-.16,15,15,0,0,1-10.31-6.81c-2.36-3.87-2.82-8.94-1.28-14.27.18-.61,4.19-15.22-9-32a47.72,47.72,0,0,0-74.9,59.16c12.18,15.41,26,16.19,28.66,16.19h.34c.39,0,.79,0,1.18,0,5.24,0,9.61,1.66,12.64,4.82a15,15,0,0,1,4,11.37,9.52,9.52,0,0,1-3.74,7.06l-82.22,64.94Z" transform="translate(75.34 4)"/><path class="cls-4" d="M596.59-1.3l13.59,17.21,5.3,6.72-6.71,5.3L534.86,86.3a8.5,8.5,0,0,1-5.22,1.88,7.62,7.62,0,0,1-1.43-.14,13.67,13.67,0,0,1-9.41-6.18c-2.17-3.55-2.58-8.23-1.14-13.2.18-.64,4.37-15.89-9.27-33.16a48.58,48.58,0,0,0-17.47-13.93,49.59,49.59,0,0,0-21.07-4.73,49.07,49.07,0,0,0-38.48,79.48c12.57,15.91,27,16.71,29.72,16.71h.4l1.12,0c4.86,0,8.9,1.52,11.66,4.4a13.77,13.77,0,0,1,3.63,10.38,8.23,8.23,0,0,1-3.24,6.07L393.51,198l-63.68-80.71a13.68,13.68,0,0,0-10-5.27c-.39,0-.79,0-1.18,0a19,19,0,0,0-13.95,5.7c-3.84,4-5.78,9.84-5.47,16.36a24.66,24.66,0,0,1-1.64,8.34c-2.34,6.51-6.72,12.33-13,17.31A43.68,43.68,0,0,1,230.45,91.1c9.26-7.31,17.75-8.85,23.24-8.85a21.11,21.11,0,0,1,5.09.53A25.77,25.77,0,0,0,266,83.84c9.76,0,17.23-6.27,19-16a13.65,13.65,0,0,0-2.82-10.93l-46-58.22H596.59m1.3-2.7H230.58l49.49,62.59a11,11,0,0,1,2.28,8.77c-1.57,8.48-7.94,13.79-16.38,13.79a23.13,23.13,0,0,1-6.44-1,23.18,23.18,0,0,0-5.84-.63c-5.69,0-14.92,1.54-24.91,9.42a46.37,46.37,0,1,0,57.48,72.78c16.39-12.94,15.68-27.87,15.68-27.87-.55-11.6,6.59-19.25,16.73-19.25l1,0a11,11,0,0,1,8,4.26l65.35,82.82L476.34,136a11,11,0,0,0,4.25-8.07c.42-10.21-6.77-17.59-18-17.59-.41,0-.83,0-1.24,0h-.28c-2.08,0-15.68-.59-27.6-15.68a46.37,46.37,0,0,1,72.78-57.48c12.94,16.38,8.79,30.75,8.79,30.75-3.3,11.46,2.24,20.74,12.64,22.77a9.74,9.74,0,0,0,1.94.19,11.18,11.18,0,0,0,6.89-2.46l73.91-58.37,8.83-7-7-8.83L597.89-4Z" transform="translate(75.34 4)"/><polygon class="cls-6" points="676.03 1.35 723.32 1.35 694.74 24.48 676.03 1.35"/><path class="cls-4" d="M644.17-1.3,619.6,18.58,603.52-1.3h40.65M651.8-4H597.86L619.2,22.37,651.8-4Z" transform="translate(75.34 4)"/><path class="cls-6" d="M736.88,166.25a14.32,14.32,0,0,1-2-14.55A13.39,13.39,0,0,1,746,143.35a17.78,17.78,0,0,1,1.8-.09,21.81,21.81,0,0,1,5.85.84,24.22,24.22,0,0,0,5.83.61c6.22,0,15.78-1.74,26-10a47.72,47.72,0,1,0-60-74.19c-16.58,13.41-15.89,28.55-15.85,29.18a21.73,21.73,0,0,1-.59,6.69,13.79,13.79,0,0,1-13.57,10.31,13.94,13.94,0,0,1-11-5.27L620.66,22.62,651.89-2.65h315.6L1022.21,65l-78.5,63.52a14,14,0,0,1-8.91,3.17h0c-6.15,0-13.15-4.3-14-12.26a20.94,20.94,0,0,1,.73-7.75c.17-.61,4-15.27-9.41-31.84a47.72,47.72,0,1,0-74.19,60c12.22,15.09,26,15.86,28.69,15.86h.5c.49,0,1-.05,1.46-.05a20.28,20.28,0,0,1,6.26.94A13.48,13.48,0,0,1,884,167.13a14.3,14.3,0,0,1-5,13.74l-78.72,63.7Z" transform="translate(75.34 4)"/><path class="cls-4" d="M966.84-1.3l53.47,66.07-77.45,62.67a12.68,12.68,0,0,1-8.06,2.87,13.12,13.12,0,0,1-8.38-3,11.91,11.91,0,0,1-4.26-8,19.55,19.55,0,0,1,.69-7.25c.18-.64,4.19-15.94-9.66-33.05a49.07,49.07,0,0,0-76.29,61.73c12.6,15.57,27,16.36,29.74,16.36a5,5,0,0,0,.58,0c.46,0,.93,0,1.38,0a18.93,18.93,0,0,1,5.85.88,12.13,12.13,0,0,1,8.24,9.51,12.77,12.77,0,0,1-4.56,12.44l-77.67,62.85L737.93,165.4a13,13,0,0,1-1.85-13.18,12.06,12.06,0,0,1,10-7.53c.55-.05,1.11-.08,1.67-.08a20.74,20.74,0,0,1,5.49.79,25.31,25.31,0,0,0,6.19.66c6.43,0,16.32-1.79,26.86-10.32a49.07,49.07,0,1,0-61.73-76.29C707.48,73.3,708.21,89.1,708.25,89.76a20.24,20.24,0,0,1-.56,6.27,12.46,12.46,0,0,1-12.26,9.3,12.6,12.6,0,0,1-10-4.77l-62.9-77.74L652.37-1.3H966.84M968.13-4H651.42L618.76,22.42l64.61,79.84A15.37,15.37,0,0,0,695.43,108,15.12,15.12,0,0,0,710.3,96.71a22.89,22.89,0,0,0,.64-7.11s-.88-14.92,15.35-28a46.37,46.37,0,0,1,58.34,72.09c-10.11,8.18-19.52,9.72-25.17,9.72a22.85,22.85,0,0,1-5.48-.56,23.18,23.18,0,0,0-6.2-.88c-.66,0-1.3,0-1.93.09-12,1.2-17.63,15.68-10,25.08l64.23,79.38,79.77-64.55c9.39-7.61,6.95-22.88-4.55-26.62a21.67,21.67,0,0,0-6.68-1c-.51,0-1,0-1.54.05h-.42c-2.49,0-15.79-.72-27.64-15.36a46.37,46.37,0,1,1,72.09-58.34c13.14,16.23,9.16,30.65,9.16,30.65a22.3,22.3,0,0,0-.77,8.24A15.17,15.17,0,0,0,934.8,133a15.44,15.44,0,0,0,9.76-3.47l79.54-64.37L968.13-4Z" transform="translate(75.34 4)"/><path class="cls-6" d="M1173.16,65.92a44.88,44.88,0,0,1-35-16.7c-6.53-8.08-8.61-15.65-9.19-20.58a25.68,25.68,0,0,1,.29-8.86c1.69-6.12,1-12-1.81-16.48a16.85,16.85,0,0,0-6.57-5.95h90.66a45,45,0,0,1-38.35,68.57ZM970.66-2.65h135.6a12.13,12.13,0,0,0-1,.75l-80.93,65.55Z" transform="translate(75.34 4)"/><path class="cls-4" d="M1210.75-1.3a43.68,43.68,0,0,1-10.15,56.15,43.68,43.68,0,0,1-61.42-6.48c-5-6.24-8-12.88-8.89-19.74a24.69,24.69,0,0,1,.24-8.49c1.79-6.49,1.09-12.73-2-17.56a17.45,17.45,0,0,0-3.33-3.88h85.53m-108.4,0-77.84,63.05-51-63h128.87M1212.25-4H967.83l56.28,69.55,82-66.41a11.19,11.19,0,0,1,7-2.53,10.34,10.34,0,0,1,1.75.15c10.54,1.82,16.29,11.09,13.1,22.66,0,0-4,14.41,9.15,30.64A46.37,46.37,0,0,0,1212.25-4Z" transform="translate(75.34 4)"/><path class="cls-6" d="M1139.07,205.38a9.6,9.6,0,0,1-2.1-7.72c1.44-7.81,7.22-12.67,15.09-12.67a22.14,22.14,0,0,1,5.85.83,23.13,23.13,0,0,0,5.83.61c6.22,0,15.78-1.73,26-10a47.72,47.72,0,0,0-60-74.19c-16.58,13.42-15.88,28.55-15.84,29.19.32,5.45-1.19,10.24-4.26,13.49a14.84,14.84,0,0,1-11.14,4.52h-.55a9.57,9.57,0,0,1-7.11-3.66l-65.48-80.91L1106.57-.89a10,10,0,0,1,3.23-1.76h6A14.68,14.68,0,0,1,1125,4.12c2.23,3.84,2.65,8.63,1.21,13.85-.17.62-4,15.27,9.41,31.85a47.53,47.53,0,0,0,37.12,17.7h0a47.73,47.73,0,0,0,42.09-70.17h78.3v221.1a12.71,12.71,0,0,0-7.24,2.82L1205,286.83Z" transform="translate(75.34 4)"/><path class="cls-4" d="M1291.8-1.3V217.24a14.13,14.13,0,0,0-6.75,3l-79.87,64.71-65.06-80.4a8.2,8.2,0,0,1-1.82-6.62c1.31-7.14,6.58-11.57,13.76-11.57a20.66,20.66,0,0,1,5.49.78,24.92,24.92,0,0,0,6.19.66c6.44,0,16.32-1.79,26.87-10.32a49.07,49.07,0,1,0-61.73-76.29c-17.12,13.85-16.39,29.65-16.35,30.32.3,5.07-1.08,9.51-3.89,12.49a13.53,13.53,0,0,1-10.16,4.09H1098a8.17,8.17,0,0,1-6.1-3.16L1027.24,65,1107.42.16A8.69,8.69,0,0,1,1110-1.3h5.58a13.28,13.28,0,0,1,8.24,6.1c2.05,3.52,2.42,8,1.08,12.81-.18.65-4.19,16,9.66,33.06A49.07,49.07,0,0,0,1217-1.3h74.77m2.69-2.7h-82a46.37,46.37,0,0,1-10.63,59.85A46.35,46.35,0,0,1,1136.68,49c-13.14-16.23-9.16-30.64-9.16-30.64,3-11-2-19.9-11.57-22.33h-6.36a11.67,11.67,0,0,0-3.87,2.06l-82.28,66.58,66.33,82a10.94,10.94,0,0,0,8.12,4.16h.59c10.27,0,17.44-7.76,16.74-19.44,0,0-.88-14.93,15.35-28.06a46.37,46.37,0,1,1,58.34,72.09c-10.11,8.18-19.51,9.73-25.17,9.73a22.43,22.43,0,0,1-5.47-.57,23.19,23.19,0,0,0-6.21-.88c-8.49,0-14.86,5.32-16.41,13.78a10.93,10.93,0,0,0,2.37,8.81l66.76,82.49,82-66.4a11.2,11.2,0,0,1,7-2.53l.74,0V-4Z" transform="translate(75.34 4)"/><path class="cls-6" d="M1279.15,372.6h-.55a9.58,9.58,0,0,1-7.12-3.66L1206,288l81.22-65.73a9.92,9.92,0,0,1,5.91-2.24V363.64c-2.4,5.7-7.48,9-14,9Z" transform="translate(75.34 4)"/><path class="cls-4" d="M1291.8,221.56v141.8c-2.23,5-6.81,7.89-12.65,7.89h-.52a8.25,8.25,0,0,1-6.1-3.16l-64.63-79.86,80.18-64.89a8.77,8.77,0,0,1,3.72-1.77m1.58-2.86a11.18,11.18,0,0,0-7,2.54l-82.28,66.58,66.33,82a10.93,10.93,0,0,0,8.12,4.16h.59c7.17,0,12.82-3.79,15.34-10V218.76a10.32,10.32,0,0,0-1.11-.06Z" transform="translate(75.34 4)"/><path class="cls-6" d="M1098.65,613.32a14.34,14.34,0,0,1-2-14.55,13.41,13.41,0,0,1,11.15-8.35,17.58,17.58,0,0,1,1.79-.09,21.76,21.76,0,0,1,5.85.84,24.22,24.22,0,0,0,5.83.61c6.22,0,15.78-1.74,26-10a47.72,47.72,0,1,0-60-74.19c-16.58,13.41-15.88,28.54-15.84,29.18a21.42,21.42,0,0,1-.6,6.69,13.78,13.78,0,0,1-13.56,10.31,13.93,13.93,0,0,1-11-5.27l-63.76-78.79,77.87-63a17,17,0,0,0,5.72-18.16,16.62,16.62,0,0,0-14-12.17,23.71,23.71,0,0,0-3.18-.2c-.53,0-1.08,0-1.62,0h-.34c-2.43,0-15.15-.72-26.59-14.86a45,45,0,0,1,70-56.64c6.53,8.08,8.6,15.65,9.19,20.57a25.73,25.73,0,0,1-.29,8.87,25.06,25.06,0,0,0-.85,4.73,16.48,16.48,0,0,0,4.3,12.67,17.57,17.57,0,0,0,12.88,5.64,17,17,0,0,0,10.75-3.86l78.14-63.23,64,79.13a17,17,0,0,0,13.08,6.29,15.75,15.75,0,0,0,11.65-5.18v208a13.51,13.51,0,0,1-10.55-11.84,21,21,0,0,1,.74-7.75c.17-.61,4-15.27-9.41-31.84a47.72,47.72,0,1,0-74.19,60c12.21,15.09,26,15.86,28.69,15.86h.49c.49,0,1,0,1.46,0a20.39,20.39,0,0,1,6.27.94,13.48,13.48,0,0,1,9.15,10.55,14.29,14.29,0,0,1-5,13.74L1162,691.64Z" transform="translate(75.34 4)"/><path class="cls-4" d="M1055.23,289.35a43.52,43.52,0,0,1,34,16.2c5,6.24,8,12.88,8.89,19.74a24.72,24.72,0,0,1-.24,8.49,27.79,27.79,0,0,0-.9,5,17.81,17.81,0,0,0,4.66,13.69,18.92,18.92,0,0,0,13.87,6.08,18.27,18.27,0,0,0,11.6-4.16L1204.18,292l63.18,78.08a18.37,18.37,0,0,0,14.13,6.79,16.85,16.85,0,0,0,9.65-3l.66-.48v203.1a12.94,12.94,0,0,1-4.24-2.68,12,12,0,0,1-3.63-7.47,19.57,19.57,0,0,1,.7-7.25c.17-.64,4.18-15.94-9.66-33.05a49.07,49.07,0,1,0-76.29,61.73c12.6,15.57,27,16.36,29.74,16.36a4.88,4.88,0,0,0,.57,0c.47,0,.93,0,1.38,0a18.88,18.88,0,0,1,5.85.88,12.13,12.13,0,0,1,8.24,9.51,12.79,12.79,0,0,1-4.55,12.44l-77.68,62.85-62.53-77.27a13,13,0,0,1-1.84-13.18,12.06,12.06,0,0,1,10-7.53c.54,0,1.1-.08,1.66-.08a20.69,20.69,0,0,1,5.49.79,25.49,25.49,0,0,0,6.19.66c6.44,0,16.32-1.79,26.87-10.32a49.07,49.07,0,1,0-61.74-76.29c-17.11,13.85-16.38,29.65-16.34,30.31a20.25,20.25,0,0,1-.55,6.27,12.46,12.46,0,0,1-12.26,9.3,12.59,12.59,0,0,1-10-4.77l-62.91-77.74,76.82-62.16a18.4,18.4,0,0,0,6.17-9.22,18.8,18.8,0,0,0,0-10.36A18,18,0,0,0,1052.16,375a26.2,26.2,0,0,0-3.35-.21c-.56,0-1.13,0-1.69.05h-.27c-2.32,0-14.49-.69-25.54-14.35a43.66,43.66,0,0,1,33.92-71.15m0-2.7a46.38,46.38,0,0,0-36,75.54c11.84,14.64,25.14,15.36,27.64,15.36h.42c.52,0,1-.05,1.54-.05a24.44,24.44,0,0,1,3,.19c13.66,1.77,18.34,19.29,7.63,27.95l-78.91,63.86,64.6,79.84a15.37,15.37,0,0,0,12.07,5.77,15.13,15.13,0,0,0,14.87-11.32,22.6,22.6,0,0,0,.63-7.11s-.88-14.92,15.35-28a46.37,46.37,0,1,1,58.34,72.09c-10.11,8.18-19.51,9.72-25.17,9.72a22.8,22.8,0,0,1-5.47-.56,23.19,23.19,0,0,0-6.21-.88c-.65,0-1.3,0-1.93.09-12,1.2-17.62,15.68-10,25.08l64.23,79.38L1241.6,629c9.4-7.61,7-22.88-4.54-26.62a21.78,21.78,0,0,0-6.69-1c-.5,0-1,0-1.54,0h-.41c-2.5,0-15.8-.72-27.64-15.36a46.37,46.37,0,1,1,72.09-58.34C1286,544,1282,558.37,1282,558.37a22.11,22.11,0,0,0-.78,8.24,15.08,15.08,0,0,0,13.24,13.33V366.07a15.43,15.43,0,0,1-4.89,5.57,14.14,14.14,0,0,1-8.11,2.52,15.58,15.58,0,0,1-12-5.79l-64.88-80.18-79.19,64.08a15.58,15.58,0,0,1-9.9,3.56c-8.58,0-16.64-7-15.84-16.85a24.63,24.63,0,0,1,.81-4.48s4-14.42-9.16-30.65a46.28,46.28,0,0,0-36.07-17.2Z" transform="translate(75.34 4)"/><path class="cls-7" d="M128.69,720.52c20-24,36.66-32.64,45.11-47.13,4.22-7.23,28.45-77.69,35.49-84.74,4.65-4.65,9.63-7,21.71-7.73,0,0,75.4-35,89-27.11,11.92,7,8.82,38.78-6,66.76l11.92,35-4.72,31.52c-9.69,2.7-29.38,1.11-40.36.06-6.92-.66-11.14.58-23.94,4.53-3,4.87-19.24,27.21-22.55,31.79-21,28.93-17.88,23.42-31,35.7C181.25,780,110,742.94,128.69,720.52Z" transform="translate(75.34 4)"/><path class="cls-8" d="M539.58,440.64l-66.34-81.9a11,11,0,0,1-2.38-8.74c1.82-10.53,11.08-16.27,22.64-13.08,0,0,14.4,4,30.62-9.15a46.33,46.33,0,1,0-58.29-72c-16.21,13.12-15.33,28-15.33,28,.71,12-6.84,19.83-17.52,19.42a11,11,0,0,1-8.05-4.15l-66.49-82.26L336.92,419.26Z" transform="translate(75.34 4)"/><path class="cls-9" d="M358.44,216.78l0,0-82.08,66.5a11,11,0,0,1-8.75,2.38c-10.51-1.84-16.23-11.09-13-22.64,0,0,4-14.4-9.14-30.61a46.33,46.33,0,0,0-72,58.28c13.12,16.22,28,15.34,28,15.34,12-.71,19.81,6.82,19.42,17.48a11,11,0,0,1-4.16,8.06l-82.11,66.37h0l202.37,21.34Z" transform="translate(75.34 4)"/><path class="cls-10" d="M459.07,505.92l80.51-65.28h0L336.92,419.26l-21.48,202.2.27.33,83.66-67.56a11,11,0,0,1,8.73-2.38c10.54,1.83,16.28,11.08,13.09,22.64,0,0-4,14.4,9.15,30.62a46.33,46.33,0,1,0,72-58.29c-13.12-16.21-28-15.33-28-15.33-12,.71-19.83-6.84-19.41-17.52A11,11,0,0,1,459.07,505.92Z" transform="translate(75.34 4)"/><polygon class="cls-11" points="209.89 401.92 390.78 625.46 412.26 423.26 209.89 401.92"/><path class="cls-12" d="M186.48,692.42s30.05-45.09,43.25-59.28c-3.22,12.51-6.55,29.35-1.51,39.62,3.32,6.78,14.21,19,28.67,19-5.46,8.82-22.24,31.55-25.78,36.47-6.45,9-9,3.71-9,3.71Z" transform="translate(75.34 4)"/><path class="cls-12" d="M277.39,668.51c.65-4.1,6.33-7,10.63-7.78,11.11-1.94,21.53.75,30.93,1.46,14.17,1.06,19.9,2.39,18.69,13.4-1.42,12.87-13.47,12.8-23.41,10.95-9.54-1.77-22.51-4-31.07-8.64C278,675.09,276.81,672.24,277.39,668.51Z" transform="translate(75.34 4)"/><path class="cls-12" d="M305.27,580c16.36-4.1,59.88-13.49,63.58-13.52,24.6-.23,27.69,29.13,3.34,34.24-13.47,2.83-49.83,5.47-62.87,6.27C288,608.3,286.83,584.62,305.27,580Z" transform="translate(75.34 4)"/><path class="cls-12" d="M296.75,607.72c6.23-1.57,55.82-5.91,69.47-6,24.09-.22,23.68,28.16-.35,32.15-12.31,2-20.1,1.32-32.57,1.14l.14.1c-12.71,1-24.86-.5-31.39-2.18C286.33,628.84,279.6,612,296.75,607.72Z" transform="translate(75.34 4)"/><path class="cls-12" d="M286.78,634.9c5.74-2.39,50.28-1,63.37.74,23.1,3.06,20.22,28-3.33,28.53-12.07.29-20.79.74-32.71-1.13l.12.12c-12.3-.78-22-1.71-28.06-4.21C271.66,652.94,273.5,640.42,286.78,634.9Z" transform="translate(75.34 4)"/><path class="cls-12" d="M213.6,571.12c14.37-13.47,42.83-31.54,45.85-32.69,13.46-5.12,71.76-8,75.67-7.9,6.66.1,2.18,23.4-26.06,28.72-9.36,1.76-21.95,6.33-30.36,9.31,0,0-22.12,9.84-21.9,21.35s1.07,19.12-.07,31.06c-1.26,13.13-13.75,44.85-33.49,49s-36,33.1-36,33.1-12.58-24.9-14.91-28.21C183.12,647.66,199.7,584.15,213.6,571.12Z" transform="translate(75.34 4)"/><rect class="cls-13" x="138.24" y="689.71" width="116.72" height="38.41" transform="translate(-19.13 1388.56) rotate(-141.19)"/><polygon class="cls-14" points="177.4 952 324.86 773.83 216.91 687.01 0 952 177.4 952"/><polygon class="cls-15" points="261.99 723.36 216.91 687.01 109.16 818.61 261.99 723.36"/><path class="cls-6" d="M1239.05,779.06a13.94,13.94,0,0,1-11-5.27L1164.27,695l77.87-63a17.05,17.05,0,0,0,5.72-18.16,16.63,16.63,0,0,0-14-12.18,25.49,25.49,0,0,0-3.18-.2c-.54,0-1.08,0-1.62,0h-.34c-2.43,0-15.15-.72-26.59-14.86a45,45,0,1,1,70-56.64c6.54,8.08,8.61,15.64,9.2,20.57a25.76,25.76,0,0,1-.29,8.87,25.1,25.1,0,0,0-.85,4.72c-.79,9.59,6.06,16.17,13.26,17.86V722.58a47.52,47.52,0,0,0-24.36,10.29c-16.58,13.42-15.88,28.55-15.85,29.19a21.43,21.43,0,0,1-.59,6.69,13.79,13.79,0,0,1-13.56,10.31Z" transform="translate(75.34 4)"/><path class="cls-4" d="M1237.07,514.66a43.49,43.49,0,0,1,34,16.2c5,6.24,8,12.88,8.89,19.74a24.83,24.83,0,0,1-.23,8.48,27.23,27.23,0,0,0-.9,5,17.86,17.86,0,0,0,4.17,13.15,18.84,18.84,0,0,0,9.09,5.87V721.4a48.82,48.82,0,0,0-23.86,10.43c-17.11,13.84-16.38,29.64-16.34,30.31a20.24,20.24,0,0,1-.56,6.27,12.44,12.44,0,0,1-12.25,9.3,12.63,12.63,0,0,1-10-4.77l-62.9-77.74L1243,633a18.51,18.51,0,0,0,6.17-9.22,18.8,18.8,0,0,0,0-10.36A18,18,0,0,0,1234,600.32a26.18,26.18,0,0,0-3.35-.22c-.56,0-1.13,0-1.69,0h-.27c-2.33,0-14.49-.69-25.55-14.36a43.64,43.64,0,0,1,33.93-71.14m0-2.7a46.37,46.37,0,0,0-36,75.54c11.84,14.64,25.14,15.36,27.64,15.36h.42c.52,0,1-.05,1.54-.05a24.44,24.44,0,0,1,3,.19c13.66,1.77,18.34,19.28,7.63,28l-78.92,63.86L1227,774.64a15.36,15.36,0,0,0,12.07,5.76,15.13,15.13,0,0,0,14.87-11.31,23.23,23.23,0,0,0,.63-7.11s-.88-14.92,15.35-28.06a46.12,46.12,0,0,1,24.86-10.12V580.93a15.58,15.58,0,0,1-13.27-16.65,24.09,24.09,0,0,1,.81-4.48s4-14.41-9.16-30.64a46.28,46.28,0,0,0-36.07-17.2Z" transform="translate(75.34 4)"/><path class="cls-6" d="M1280.49,838.62a14.32,14.32,0,0,1-2-14.54,13.39,13.39,0,0,1,11.14-8.35,17.19,17.19,0,0,1,1.77-.09,20.42,20.42,0,0,1,2.05.11v38.84Z" transform="translate(75.34 4)"/><path class="cls-4" d="M1291.36,817l.7,0v33.77l-10.52-13a13,13,0,0,1-1.85-13.17,12.08,12.08,0,0,1,10-7.53c.53-.05,1.08-.08,1.63-.08m0-2.69c-.64,0-1.28,0-1.9.09-12,1.19-17.63,15.68-10,25.08l15.32,18.93V814.57a21,21,0,0,0-3.4-.27Z" transform="translate(75.34 4)"/><path class="cls-6" d="M1122.68,946.65a47.72,47.72,0,0,0-77.51-32.37c-16.58,13.41-15.88,28.55-15.85,29.18a22.6,22.6,0,0,1,0,3.19H997.24L940.79,876.9,1022,811.17a9.82,9.82,0,0,1,6.15-2.24,8.7,8.7,0,0,1,1.53.13,15,15,0,0,1,10.5,6.67c2.43,3.85,3,8.93,1.48,14.3-.17.61-4,15.27,9.41,31.85a47.72,47.72,0,0,0,74.19-60c-12.22-15.09-26-15.85-28.69-15.85h-.5c-.49,0-1,0-1.46,0-5.17,0-9.5-1.65-12.51-4.76a15.18,15.18,0,0,1-4-11.37,9.63,9.63,0,0,1,3.66-7.07l81-65.58,34,42,0,0,31.61,39.06a12.32,12.32,0,0,0,9.06,4.66h.81a17.72,17.72,0,0,0,13.1-5.36c3.58-3.81,5.35-9.31,5-15.51,0-.14-.6-14.43,14.85-26.93a44.86,44.86,0,0,1,22.23-9.62V813.3c-.53,0-1.07-.06-1.59-.06-9.2,0-16.18,5.91-17.78,15.06a12.29,12.29,0,0,0,2.66,9.83l16.71,20.63v87.89Z" transform="translate(75.34 4)"/><path class="cls-4" d="M1162.58,699.16l32.32,39.94,0,0,1.7,2.09,30.76,38a13.63,13.63,0,0,0,10.06,5.16h.86a19,19,0,0,0,14.08-5.79c3.84-4.07,5.74-9.94,5.35-16.5a24.8,24.8,0,0,1,1.54-8.36c2.27-6.53,6.58-12.41,12.81-17.45a43.52,43.52,0,0,1,20-9.1V811.9h-.24c-9.89,0-17.39,6.35-19.11,16.18a13.62,13.62,0,0,0,3,10.91l16.4,20.26V945.3H1123.88a49,49,0,0,0-79.56-32.07c-17.11,13.85-16.38,29.65-16.34,30.31s0,1.18,0,1.76H997.88l-55.19-68.2,80.17-64.88a8.51,8.51,0,0,1,5.3-1.94,8.05,8.05,0,0,1,1.3.11,13.72,13.72,0,0,1,9.59,6.06c2.23,3.53,2.7,8.22,1.32,13.22-.18.64-4.19,15.94,9.66,33.06A49.07,49.07,0,0,0,1126.32,801c-12.6-15.56-27-16.35-29.74-16.35H1096c-.46,0-.93,0-1.38,0-4.8,0-8.79-1.5-11.54-4.35a13.84,13.84,0,0,1-3.66-10.38,8.28,8.28,0,0,1,3.16-6.07l80-64.73m.4-3.8-82.1,66.43a11,11,0,0,0-4.15,8.08c-.37,10.19,6.8,17.52,17.89,17.52.51,0,1,0,1.54,0h.42c2.49,0,15.79.72,27.64,15.36a46.37,46.37,0,0,1-72.1,58.34C1039,844.8,1043,830.39,1043,830.39c3.18-11.55-2.54-20.8-13-22.65a9.63,9.63,0,0,0-1.77-.16,11.18,11.18,0,0,0-7,2.54L938.89,876.7l57.7,71.3h33.92a23.37,23.37,0,0,0,.16-4.62s-.88-14.92,15.35-28A46.37,46.37,0,0,1,1121.44,948h173.32V858.28l-17-21a11,11,0,0,1-2.38-8.76c1.5-8.55,7.9-13.94,16.45-13.94a21.3,21.3,0,0,1,2.94.21V724.14a46.14,46.14,0,0,0-24.43,10.08c-16.23,13.13-15.35,28.06-15.35,28.06.69,11.68-6.47,19.45-16.74,19.45l-.76,0a10.94,10.94,0,0,1-8.06-4.16l-30.77-38,0,0L1163,695.36Z" transform="translate(75.34 4)"/><path class="cls-6" d="M205.53,436.06a18.82,18.82,0,0,1-6.23-2.92l2.75-6.1a18.7,18.7,0,0,0,5.35,2.65,20,20,0,0,0,6.2,1,9.83,9.83,0,0,0,5.1-1,3.09,3.09,0,0,0,1.65-2.72,2.61,2.61,0,0,0-1-2.08,7.39,7.39,0,0,0-2.5-1.32c-1-.33-2.39-.7-4.13-1.1a56.82,56.82,0,0,1-6.55-1.9,10.55,10.55,0,0,1-4.37-3.05,8.23,8.23,0,0,1-1.83-5.6,9.77,9.77,0,0,1,1.65-5.53,11.11,11.11,0,0,1,5-3.92,20.2,20.2,0,0,1,8.12-1.45,27,27,0,0,1,6.55.8,19.18,19.18,0,0,1,5.6,2.3l-2.5,6.15a19.52,19.52,0,0,0-9.7-2.75,9.11,9.11,0,0,0-5,1.1,3.34,3.34,0,0,0-1.63,2.9,2.83,2.83,0,0,0,1.88,2.67,29,29,0,0,0,5.72,1.73,56.82,56.82,0,0,1,6.55,1.9,10.82,10.82,0,0,1,4.38,3,8.09,8.09,0,0,1,1.82,5.55,9.59,9.59,0,0,1-1.67,5.47,11.28,11.28,0,0,1-5,3.93,20.42,20.42,0,0,1-8.15,1.45A28.62,28.62,0,0,1,205.53,436.06Z" transform="translate(75.34 4)"/><path class="cls-6" d="M241.08,434.84a17.45,17.45,0,0,1-6.85-6.48,18.58,18.58,0,0,1,0-18.55,17.43,17.43,0,0,1,6.85-6.47,21.65,21.65,0,0,1,19.62,0,17.5,17.5,0,0,1,9.35,15.75,17.5,17.5,0,0,1-2.5,9.27,17.73,17.73,0,0,1-6.85,6.48,21.65,21.65,0,0,1-19.62,0Zm15.42-6a10.2,10.2,0,0,0,3.93-4,12.56,12.56,0,0,0,0-11.6,10.23,10.23,0,0,0-3.93-4,11.75,11.75,0,0,0-11.2,0,10.2,10.2,0,0,0-3.92,4,12.48,12.48,0,0,0,0,11.6,10.18,10.18,0,0,0,3.92,4,11.68,11.68,0,0,0,11.2,0Z" transform="translate(75.34 4)"/><path class="cls-6" d="M276.15,401.59h8.1V430H301.8v6.6H276.15Z" transform="translate(75.34 4)"/><path class="cls-6" d="M309.78,433q-4.18-4.16-4.18-11.85v-19.6h8.1v19.3q0,9.41,7.8,9.4a7.29,7.29,0,0,0,5.8-2.28c1.33-1.51,2-3.89,2-7.12v-19.3h8v19.6q0,7.69-4.17,11.85t-11.68,4.15Q314,437.19,309.78,433Z" transform="translate(75.34 4)"/><path class="cls-6" d="M352.38,434.86a17.31,17.31,0,0,1-6.8-6.45,18.77,18.77,0,0,1,0-18.65,17.31,17.31,0,0,1,6.8-6.45,21.72,21.72,0,0,1,17.95-.72,16.52,16.52,0,0,1,6.17,4.6l-5.2,4.8a11.2,11.2,0,0,0-8.8-4.1,11.67,11.67,0,0,0-5.8,1.42,10.13,10.13,0,0,0-4,4,12.48,12.48,0,0,0,0,11.6,10.11,10.11,0,0,0,4,4,11.68,11.68,0,0,0,5.8,1.43,11.12,11.12,0,0,0,8.8-4.15l5.2,4.8a16.28,16.28,0,0,1-6.2,4.65,20.54,20.54,0,0,1-8.25,1.6A20.07,20.07,0,0,1,352.38,434.86Z" transform="translate(75.34 4)"/><path class="cls-6" d="M382,401.59h8.1v35H382Z" transform="translate(75.34 4)"/><path class="cls-6" d="M405.48,434.84a17.55,17.55,0,0,1-6.86-6.48,18.65,18.65,0,0,1,0-18.55,17.53,17.53,0,0,1,6.86-6.47,21.65,21.65,0,0,1,19.62,0,17.5,17.5,0,0,1,9.35,15.75,17.5,17.5,0,0,1-2.5,9.27,17.73,17.73,0,0,1-6.85,6.48,21.65,21.65,0,0,1-19.62,0Zm15.42-6a10.27,10.27,0,0,0,3.93-4,12.56,12.56,0,0,0,0-11.6,10.3,10.3,0,0,0-3.93-4,11.75,11.75,0,0,0-11.2,0,10.2,10.2,0,0,0-3.92,4,12.48,12.48,0,0,0,0,11.6,10.18,10.18,0,0,0,3.92,4,11.68,11.68,0,0,0,11.2,0Zm-3.4-37.32h8.4l-9,7.2h-6.1Z" transform="translate(75.34 4)"/><path class="cls-6" d="M472.65,401.59v35H466l-17.45-21.25v21.25h-8v-35h6.7l17.4,21.25V401.59Z" transform="translate(75.34 4)"/><path class="cls-6" d="M561.81,117.58a9.3,9.3,0,0,1-3.39,10.09,9.8,9.8,0,0,1-5.15,2.23,9.5,9.5,0,0,1-5.42-1.08,15.78,15.78,0,0,1-5-4.3l-3.56-4.41-6,4.86-4.08-5.07,21.94-17.66,7.64,9.49A15.73,15.73,0,0,1,561.81,117.58Zm-11.29,6a4.41,4.41,0,0,0,3.76-1.07,4.47,4.47,0,0,0,1.88-3.47,6.89,6.89,0,0,0-1.81-4.28L551,110.65l-7.62,6.13,3.33,4.13A6.87,6.87,0,0,0,550.52,123.6Z" transform="translate(75.34 4)"/><path class="cls-6" d="M558.59,156.5l2.71-9.15-.2-.25-3.56-4.42-6.11,4.92-4.09-5.08,21.94-17.65,7.64,9.49a15.68,15.68,0,0,1,3.11,5.85,9.66,9.66,0,0,1-.1,5.52,9.83,9.83,0,0,1-3.3,4.57,9.2,9.2,0,0,1-10.56,1.06L563,162Zm15.78-14.82a6.81,6.81,0,0,0-1.81-4.27l-3.33-4.14-7.65,6.16,3.33,4.13a6.81,6.81,0,0,0,3.8,2.68,4.51,4.51,0,0,0,3.78-1.08A4.46,4.46,0,0,0,574.37,141.68Z" transform="translate(75.34 4)"/><path class="cls-6" d="M570.57,169.14a13.94,13.94,0,0,1,.61-7.56,15,15,0,0,1,11.62-9.36,14.07,14.07,0,0,1,7.52,1,17.41,17.41,0,0,1,9.9,12.3,14.08,14.08,0,0,1-5.16,13.81,14.09,14.09,0,0,1-14.59,2.08,17.49,17.49,0,0,1-9.9-12.3Zm11.53,6.66a8.3,8.3,0,0,0,4.47.45,10,10,0,0,0,7.27-5.85,8.17,8.17,0,0,0,.51-4.47,9.41,9.41,0,0,0-5.65-7,8.28,8.28,0,0,0-4.47-.45,10.07,10.07,0,0,0-7.27,5.85,8.16,8.16,0,0,0-.51,4.47,9.46,9.46,0,0,0,5.65,7Z" transform="translate(75.34 4)"/><path class="cls-6" d="M611.93,203.48a7,7,0,0,1-2.58,3.83,6.51,6.51,0,0,1-6.24,1.33q-3.35-1-6.81-5.29L587.17,192l21.94-17.66,8.63,10.72c2.15,2.67,3.29,5.14,3.42,7.39a6.26,6.26,0,0,1-2.44,5.51,6.81,6.81,0,0,1-7.17,1A7.48,7.48,0,0,1,611.93,203.48Zm-2.58-21-5.17,4.17,4.06,5a6.45,6.45,0,0,0,3,2.32,2.81,2.81,0,0,0,2.73-.59,2.76,2.76,0,0,0,1.14-2.52,6.62,6.62,0,0,0-1.65-3.37Zm-6.43,19.93a2.9,2.9,0,0,0,2.85-.63q2.73-2.19-.52-6.23l-4.77-5.93L595.06,194l4.76,5.92A7.26,7.26,0,0,0,602.92,202.4Z" transform="translate(75.34 4)"/><path class="cls-6" d="M628.41,198.33l4.08,5.07-17.8,14.33,8.86,11-4.14,3.33L606.47,216Z" transform="translate(75.34 4)"/><path class="cls-6" d="M639.45,248.62l-4.07,3.28-13.67-17,21.93-17.65L657,233.83l-4.08,3.28-9.28-11.53-4.76,3.83,8.2,10.19-4,3.18-8.2-10.19-5.08,4.09Z" transform="translate(75.34 4)"/><path class="cls-6" d="M654.7,275.91l13.14-10.63-16,2.27L650,265.26l5.39-14.92-12.88,10.37-3.84-4.77,21.94-17.65,3.38,4.19-7,19.19,20.14-2.89,3.35,4.17-21.89,17.72Z" transform="translate(75.34 4)"/><path class="cls-6" d="M679.05,296.54l-8.2-10.19-6.26,1.84L660.4,283l29.81-7.88,4,5-14,27.47-4.29-5.33Zm2.57-4.71,5.6-10.23L676,284.88Z" transform="translate(75.34 4)"/></g></g></g></g></svg>