<?xml version="1.0" encoding="utf-8"?>
<!-- Generator: Adobe Illustrator 24.2.0, SVG Export Plug-In . SVG Version: 6.00 Build 0)  -->
<svg version="1.1" id="Layer_1" xmlns="http://www.w3.org/2000/svg" xmlns:xlink="http://www.w3.org/1999/xlink" x="0px" y="0px"
	 width="31.7px" height="28.3px" viewBox="0 0 31.7 28.3" style="enable-background:new 0 0 31.7 28.3;" xml:space="preserve">
<style type="text/css">
	.st0{fill:#48789E;}
	.st1{fill:#C1272D;}
</style>
<g id="Group_292" transform="translate(0 -27)">
	<g id="Group_285" transform="translate(0 27)">
		<g id="Group_284">
			<path id="Path_386" class="st0" d="M27.3,0h-23C1.9,0,0,1.9,0,4.3v14.8c0,2.4,1.9,4.3,4.3,4.3h6.3c0.3,0,0.6-0.3,0.6-0.6
				s-0.3-0.6-0.6-0.6H4.3c-1.7,0-3.1-1.4-3.1-3.1V4.3c0-1.7,1.4-3.1,3.1-3.1h23c1.7,0,3.1,1.4,3.1,3.1v14.8c0,1.7-1.4,3.1-3.1,3.1
				h-4.5c-0.3,0-0.6,0.3-0.6,0.6l0,0v3.3l-3.8-3.8c-0.1-0.1-0.3-0.2-0.4-0.2h-1.5c-0.3,0-0.6,0.3-0.6,0.6s0.3,0.6,0.6,0.6h1.2
				l4.6,4.6c0.2,0.2,0.6,0.2,0.9,0c0.1-0.1,0.2-0.3,0.2-0.4v-4.2h3.9c2.4,0,4.3-1.9,4.3-4.3V4.3C31.6,1.9,29.7,0,27.3,0z"/>
		</g>
	</g>
	<g id="Group_287" transform="translate(12.686 49.256)">
		<g id="Group_286">
			<path id="Path_387" class="st0" d="M1.1,0.2C0.9,0,0.5,0,0.2,0.2C0,0.4,0,0.8,0.2,1.1c0.2,0.2,0.6,0.2,0.9,0
				C1.2,1,1.3,0.8,1.3,0.7C1.2,0.5,1.2,0.3,1.1,0.2z"/>
		</g>
	</g>
	<g id="Group_289" transform="translate(3.302 31.946)">
		<g id="Group_288">
			<path id="Path_388" class="st1" d="M24.7,0.1c-0.2-0.1-0.4-0.1-0.6,0l-6,3.3V3.1c0-1.6-1.3-2.9-2.9-2.9H2.9C1.3,0.3,0,1.5,0,3.1
				v7.4c0,1.6,1.3,2.9,2.9,2.9h12.3c1.6,0,2.9-1.3,2.9-2.9v-0.3l6,3.3c0.3,0.2,0.7,0.1,0.8-0.2c0-0.1,0.1-0.2,0.1-0.3V0.6
				C25,0.4,24.9,0.2,24.7,0.1z M15.4,4.8v5c0,0.7-0.6,1.3-1.3,1.3H4c-0.7,0-1.3-0.6-1.3-1.3V9.7l-0.1-1V3.8c0-0.7,0.6-1.3,1.3-1.3
				H14c0.7,0,1.3,0.6,1.3,1.3L15.4,4.8z M23,10.9l-4.6-2.5V5.2L23,2.7V10.9z"/>
		</g>
	</g>
	<g id="Group_291" transform="translate(10.731 41.096)">
		<g id="Group_290">
			<path id="Path_389" class="st1" d="M5.7-5.6L5.7-5.6c-0.4,0-0.8,0.4-0.8,0.8c0,0.6,0.4,0.8,0.8,0.8c0.6,0,0.8-0.3,0.8-0.8
				C6.6-5.2,6.3-5.6,5.7-5.6z"/>
		</g>
	</g>
</g>
</svg>
