<?xml version="1.0" encoding="utf-8"?>
<!-- Generator: Adobe Illustrator 25.4.1, SVG Export Plug-In . SVG Version: 6.00 Build 0)  -->
<svg version="1.1" id="Layer_1" xmlns="http://www.w3.org/2000/svg" xmlns:xlink="http://www.w3.org/1999/xlink" x="0px" y="0px"
	 viewBox="0 0 420 66" style="enable-background:new 0 0 420 66;" xml:space="preserve">
<style type="text/css">
	.st0{fill:#FFFFFF;}
</style>
<g>
	<g id="Group_171_00000026865610423587498420000005097906435796931747_" transform="translate(-16281 -779)">
		<path id="Path_306_00000037683499950082749410000017140381052472650904_" class="st0" d="M16377,804.3v-12.1l-6.1,10h-1.6l-6-9.8
			v12h-3.2V786h2.8l7.2,12.1l7-12.1h2.8v18.3L16377,804.3L16377,804.3z"/>
		<path id="Path_307_00000101825812575962477450000009358441958315962047_" class="st0" d="M16394.8,791.7c1.1,1.1,1.8,2.8,1.6,4.5
			v8.2h-3v-1.7c-0.4,0.7-1,1.1-1.7,1.3c-0.8,0.3-1.7,0.6-2.7,0.6c-1,0-1.9-0.2-2.7-0.6c-0.7-0.3-1.4-0.8-1.8-1.5s-0.7-1.4-0.7-2.1
			c-0.1-1.1,0.4-2.3,1.3-2.9c0.9-0.8,2.5-1.1,4.4-1.1h3.6v-0.2c0.1-0.8-0.2-1.6-0.9-2.2c-0.7-0.6-1.6-0.8-2.6-0.8
			c-0.7,0-1.6,0.1-2.3,0.3c-0.7,0.2-1.3,0.6-1.9,1l-1.2-2.4c0.8-0.6,1.7-1,2.7-1.2c1.1-0.2,2.1-0.4,3.2-0.4
			C16392.2,790.3,16393.7,790.7,16394.8,791.7z M16391.8,801.6c0.7-0.3,1.1-1,1.3-1.6v-1.6h-3.3c-1.9,0-2.8,0.7-2.8,1.9
			c0,0.6,0.2,1.1,0.7,1.3c0.6,0.4,1.2,0.6,2,0.6C16390.4,802.1,16391.2,802,16391.8,801.6z"/>
		<path id="Path_308_00000141436250595205629710000010936927418083643805_" class="st0" d="M16411.9,791.1c1.1,0.6,1.9,1.5,2.5,2.5
			c0.7,1.1,1,2.5,0.9,3.8c0,1.3-0.3,2.6-0.9,3.8c-0.6,1.1-1.5,1.9-2.5,2.5c-1.1,0.7-2.4,0.9-3.7,0.9c-1.7,0.1-3.4-0.7-4.5-1.9v6.7
			h-3.2v-19h3v1.8c0.5-0.7,1.1-1.1,2-1.5c0.8-0.3,1.7-0.6,2.7-0.6C16409.6,790.2,16410.8,790.5,16411.9,791.1z M16411,800.5
			c0.8-0.8,1.2-2,1.1-3.1c0.1-1.1-0.3-2.3-1.1-3.1c-0.8-0.8-1.9-1.2-2.9-1.1c-0.7,0-1.5,0.2-2.1,0.6c-0.7,0.4-1.1,0.9-1.5,1.6
			c-0.3,0.7-0.5,1.5-0.6,2.3c0,0.8,0.2,1.6,0.6,2.3c0.3,0.7,0.8,1.2,1.5,1.6c0.7,0.4,1.4,0.6,2.1,0.6
			C16409.1,801.7,16410.1,801.2,16411,800.5z"/>
		<path id="Path_309_00000072243555968654160470000002830730350463020216_" class="st0" d="M16428.4,791.7c1.1,1.1,1.8,2.8,1.6,4.5
			v8.2h-3v-1.7c-0.4,0.7-1,1.1-1.7,1.3c-0.8,0.3-1.7,0.6-2.7,0.6s-1.9-0.2-2.7-0.6c-0.7-0.3-1.4-0.8-1.8-1.5
			c-0.4-0.7-0.7-1.4-0.7-2.1c-0.1-1.1,0.4-2.3,1.3-2.9c0.9-0.8,2.5-1.1,4.4-1.1h3.6v-0.2c0.1-0.8-0.2-1.6-0.9-2.2
			c-0.7-0.6-1.6-0.8-2.6-0.8c-0.7,0-1.6,0.1-2.3,0.3c-0.7,0.2-1.3,0.6-1.9,1l-1.2-2.5c0.8-0.6,1.7-1,2.7-1.2
			c1.1-0.2,2.1-0.4,3.2-0.4C16425.5,790.2,16427.1,790.6,16428.4,791.7z M16425.4,801.6c0.7-0.3,1.1-1,1.3-1.6v-1.6h-3.3
			c-1.9,0-2.8,0.7-2.8,1.9c0,0.6,0.2,1.1,0.7,1.3C16422.5,802.1,16424.1,802.2,16425.4,801.6L16425.4,801.6z"/>
		<path id="Path_310_00000021841855050546438670000003340115792700172454_" class="st0" d="M16434.2,786h4.2v18.3h-4.2V786z"/>
		<path id="Path_311_00000170976449751455527590000003330399531097559207_" class="st0" d="M16455.2,791.6c1.1,1,1.6,2.6,1.6,4.6v8
			h-4.1v-7.5c0.1-0.9-0.2-1.8-0.8-2.5c-0.6-0.6-1.3-0.9-2.1-0.9c-0.9,0-1.8,0.3-2.5,0.9c-0.7,0.7-1,1.8-0.9,2.8v7h-4.2v-13.7h3.8
			v1.6c0.6-0.7,1.2-1.1,2-1.3c0.8-0.3,1.7-0.6,2.7-0.6C16452.4,790,16454,790.5,16455.2,791.6z"/>
		<path id="Path_312_00000165214147395102313740000018097027429924778377_" class="st0" d="M16474.2,790.3l-5.9,14h-4.2l-5.9-14h4.2
			l3.8,9.6l4-9.6H16474.2z"/>
		<path id="Path_313_00000050634061250422446200000003970825229251881104_" class="st0" d="M16489.1,798.4h-10.6
			c0.2,0.8,0.7,1.6,1.3,2c0.7,0.6,1.7,0.8,2.7,0.8c0.7,0,1.3-0.1,2-0.3c0.6-0.2,1.1-0.6,1.6-1l2.1,2.3c-1.2,1.6-3.2,2.3-5.8,2.3
			c-1.5,0.1-2.9-0.2-4.2-0.9c-1.1-0.6-2.1-1.5-2.8-2.6c-0.7-1.1-1.1-2.5-1-3.8c0-1.3,0.3-2.6,0.9-3.8c0.7-1.1,1.6-2,2.7-2.6
			c1.1-0.7,2.5-1,3.8-0.9c2.6-0.2,5.1,1.2,6.4,3.4c0.7,1.1,1,2.5,0.9,3.8C16489.1,797.6,16489,798,16489.1,798.4z M16479.5,793.9
			c-0.7,0.5-1.1,1.3-1.1,2.1h6.9c-0.1-0.8-0.5-1.6-1.1-2.1c-0.7-0.6-1.5-0.8-2.3-0.8C16481.1,793.1,16480.2,793.4,16479.5,793.9
			L16479.5,793.9z"/>
		<path id="Path_314_00000101067360644441911520000004397621939206874789_" class="st0" d="M16497.7,790.6c0.9-0.3,1.9-0.6,2.8-0.6
			v3.8c-0.4,0-0.8-0.1-0.9-0.1c-1-0.1-2,0.2-2.7,0.9c-0.7,0.8-1.1,1.8-1,2.9v6.6h-4.1v-13.9h3.8v1.9
			C16496.1,791.5,16496.9,790.9,16497.7,790.6z"/>
		<path id="Path_315_00000170965020537466335790000006212443783875171248_" class="st0" d="M16504.2,804c-0.9-0.2-1.8-0.6-2.7-1.1
			l1.3-2.9c0.7,0.4,1.5,0.7,2.3,0.9c0.9,0.2,1.8,0.3,2.7,0.3c1.7,0,2.6-0.4,2.6-1.2c0-0.4-0.3-0.7-0.7-0.9c-0.7-0.2-1.4-0.3-2.1-0.4
			c-1-0.1-1.9-0.3-2.8-0.7c-0.7-0.2-1.4-0.7-2-1.1c-0.7-0.7-1-1.6-0.9-2.5c0-0.9,0.2-1.7,0.8-2.5c0.6-0.7,1.3-1.3,2.2-1.6
			c1.1-0.4,2.3-0.6,3.5-0.7c1,0,2,0.1,2.9,0.3c0.9,0.2,1.7,0.5,2.5,0.9l-1.3,2.9c-1.2-0.7-2.6-1.1-4-1c-0.7-0.1-1.3,0.1-2,0.3
			c-0.3,0.2-0.7,0.6-0.7,0.9c0,0.4,0.3,0.8,0.7,0.9c0.7,0.2,1.5,0.4,2.2,0.6c1,0.2,1.9,0.3,2.8,0.7c0.7,0.2,1.4,0.7,1.9,1.1
			c0.6,0.7,0.8,1.6,0.8,2.5c0,0.8-0.2,1.6-0.8,2.3c-0.7,0.7-1.4,1.2-2.3,1.6c-1.1,0.4-2.4,0.6-3.6,0.7
			C16506.5,804.5,16505.4,804.3,16504.2,804z"/>
		<path id="Path_316_00000006686325984970554830000000364622127728368788_" class="st0" d="M16517.1,787.6c-0.4-0.4-0.7-1.1-0.7-1.6
			c0-0.7,0.2-1.2,0.7-1.6c0.5-0.5,1.1-0.7,1.8-0.7c0.7-0.1,1.3,0.2,1.8,0.7c0.5,0.3,0.7,1,0.7,1.6c0,0.7-0.2,1.2-0.7,1.7
			s-1.1,0.7-1.8,0.7C16518.2,788.4,16517.6,788.1,16517.1,787.6z M16516.8,790.3h4.1v14h-4.1V790.3z"/>
		<path id="Path_317_00000155136307044892709610000017506587685104925353_" class="st0" d="M16527.4,803.5c-1.1-0.6-2-1.5-2.7-2.6
			c-0.7-1.1-1.1-2.5-1-3.8c0-1.3,0.3-2.6,1-3.8c0.7-1.1,1.6-2,2.7-2.6c1.2-0.7,2.6-1,4-0.9c1.4,0,2.7,0.3,3.9,0.9
			c1.1,0.6,2,1.5,2.7,2.6c0.7,1.1,1.1,2.5,1,3.8c0,1.3-0.3,2.6-1,3.8c-0.7,1.1-1.6,2-2.7,2.6c-1.2,0.7-2.5,1-3.9,0.9
			C16530,804.5,16528.6,804.2,16527.4,803.5z M16533.9,800.1c0.7-0.7,1.1-1.8,1-2.8c0.1-1.1-0.3-2-1-2.8c-1.5-1.4-3.7-1.4-5.2,0
			c-0.7,0.7-1.1,1.8-1,2.8c-0.1,1.1,0.3,2,1,2.8c0.7,0.7,1.6,1.1,2.6,1C16532.2,801.2,16533.2,800.8,16533.9,800.1z"/>
		<path id="Path_318_00000083795345886643349090000005609702903078712220_" class="st0" d="M16554.5,791.6c1.1,1,1.6,2.6,1.6,4.6v8
			h-4.2v-7.5c0.1-0.9-0.2-1.8-0.8-2.5c-0.6-0.6-1.3-0.9-2.1-0.9c-0.9,0-1.8,0.3-2.5,0.9c-0.7,0.7-1,1.8-0.9,2.8v7h-4.1v-13.7h3.8
			v1.6c0.6-0.7,1.2-1.1,2-1.3c0.8-0.3,1.7-0.6,2.7-0.6C16551.7,789.9,16553.3,790.5,16554.5,791.6z"/>
		<path id="Path_319_00000139285564510959650250000014966678533143512707_" class="st0" d="M16573.6,798.4h-10.6
			c0.2,0.8,0.7,1.6,1.3,2c0.7,0.6,1.7,0.8,2.7,0.8c0.7,0,1.3-0.1,2-0.3c0.6-0.2,1.1-0.6,1.6-1l2.1,2.3c-1.2,1.6-3.2,2.3-5.8,2.3
			c-1.5,0.1-2.9-0.2-4.2-0.9c-1.1-0.6-2.1-1.5-2.8-2.6c-0.7-1.1-1-2.5-0.9-3.8c0-1.3,0.3-2.6,0.9-3.8c0.7-1.1,1.6-2,2.7-2.6
			c1.1-0.7,2.5-1,3.8-0.9c2.6-0.2,5.1,1.2,6.4,3.4c0.7,1.1,1,2.5,0.9,3.8C16573.7,797.6,16573.6,798,16573.6,798.4z M16564.1,793.9
			c-0.7,0.5-1.1,1.3-1.1,2.1h6.9c-0.1-0.8-0.5-1.6-1.1-2.1c-0.7-0.6-1.5-0.8-2.3-0.8C16565.7,793,16564.8,793.4,16564.1,793.9z"/>
		<path id="Path_320_00000109021668925307561900000007373064709968620160_" class="st0" d="M16577.7,804c-0.9-0.2-1.8-0.6-2.7-1.1
			l1.3-2.9c0.7,0.4,1.5,0.7,2.3,0.9c0.9,0.2,1.8,0.3,2.7,0.3c1.7,0,2.6-0.4,2.6-1.2c0-0.4-0.3-0.7-0.7-0.9c-0.7-0.2-1.4-0.3-2.1-0.4
			c-1-0.1-1.9-0.3-2.8-0.7c-0.7-0.2-1.4-0.7-2-1.1c-0.7-0.7-1-1.6-0.9-2.5c0-0.9,0.2-1.7,0.8-2.5s1.3-1.3,2.2-1.6
			c1.1-0.4,2.3-0.6,3.5-0.7c1,0,2,0.1,2.9,0.3c0.9,0.2,1.7,0.5,2.5,0.9l-1.3,2.9c-1.2-0.7-2.6-1.1-4-1c-0.7-0.1-1.3,0.1-2,0.3
			c-0.4,0.2-0.7,0.6-0.7,0.9c0,0.4,0.3,0.8,0.7,0.9c0.7,0.2,1.5,0.4,2.2,0.6c1,0.2,1.9,0.3,2.8,0.7c0.7,0.2,1.4,0.7,1.9,1.1
			c0.6,0.7,0.9,1.6,0.8,2.5c0,0.8-0.2,1.6-0.8,2.3c-0.7,0.7-1.4,1.2-2.3,1.6c-1.1,0.4-2.4,0.6-3.6,0.7
			C16580,804.5,16578.8,804.3,16577.7,804z"/>
	</g>
	<g id="Group_307_00000003819079057038651720000007069284124008986506_" transform="translate(-0.469)">
		<g id="Group_175_00000178191670486412273910000005146743703882250127_" transform="translate(-16284.531 -744.845)">
			<path id="Path_321_00000059306971291254398850000001856236849541317551_" class="st0" d="M16613.4,764.1h-5.3v5.2h-3.2v-5.2h-5.3
				v-3h5.3v-5.2h3.2v5.2h5.3V764.1z"/>
		</g>
		<path id="Path_394_00000183234097983797910960000013119787429742219913_" class="st0" d="M19.1,33.4c1.8,0,3.5,0.3,5.2,1
			c1.3,0.6,2.5,1.5,3.4,2.8c0.8,1.3,1.2,2.8,1.2,4.3c0,1.5-0.3,3-1.2,4.3c-0.8,1.2-2,2.2-3.4,2.8c-1.7,0.7-3.4,1-5.2,1h-4.5v6.2H9.4
			V33.4H19.1z M18.8,45.3c1.2,0.1,2.5-0.2,3.5-1c0.9-0.7,1.3-1.8,1.2-2.9c0.1-1.1-0.3-2.2-1.2-2.9c-1-0.8-2.3-1.1-3.5-1h-4.2v7.7
			H18.8z M38.9,38.2c2.2-0.1,4.4,0.6,6.2,1.9c1.5,1.5,2.3,3.6,2.1,5.7v9.8h-4.6v-2.1c-1.2,1.8-3.2,2.6-5.2,2.4
			c-1.2,0-2.3-0.2-3.4-0.7c-0.9-0.4-1.7-1-2.2-1.9c-0.6-0.8-0.8-1.8-0.8-2.6c0-1.4,0.7-2.9,1.8-3.7c1.7-1,3.6-1.5,5.6-1.3h4
			c0.1-1-0.3-1.9-1-2.5c-0.9-0.7-1.9-1-3-0.9c-0.9,0-1.9,0.1-2.6,0.4c-0.8,0.2-1.5,0.7-2.2,1.2l-1.8-3.5c1-0.7,2.2-1.2,3.4-1.5
			C36.2,38.4,37.5,38.2,38.9,38.2L38.9,38.2z M38.5,52.5c0.8,0,1.5-0.2,2.3-0.6c0.7-0.4,1.1-1,1.4-1.8v-1.8h-3.4
			c-2.1,0-3.1,0.7-3.1,2c0,0.6,0.2,1.2,0.8,1.5C37.1,52.4,37.8,52.6,38.5,52.5L38.5,52.5z M56.4,40.8c0.7-0.9,1.4-1.5,2.4-1.9
			c1.1-0.4,2.3-0.7,3.5-0.7v4.6c-0.6,0-0.9-0.1-1.1-0.1c-1.2-0.1-2.4,0.3-3.3,1.2c-0.9,1-1.3,2.3-1.2,3.6v8.2h-5V38.6h4.7L56.4,40.8
			z M72.1,38.2c2.2-0.1,4.4,0.6,6.2,1.9c1.5,1.5,2.3,3.6,2.1,5.7v9.8h-4.6v-2.1c-1.2,1.8-3.2,2.6-5.2,2.4c-1.2,0-2.3-0.2-3.4-0.7
			c-0.9-0.4-1.7-1-2.2-1.9c-0.6-0.8-0.8-1.8-0.8-2.6c-0.1-1.4,0.7-2.9,1.8-3.7c1.7-1,3.6-1.5,5.6-1.3h4c0.1-1-0.3-1.9-1-2.5
			c-0.9-0.7-1.9-1-3-0.9c-0.9,0-1.9,0.1-2.6,0.4c-0.8,0.2-1.5,0.7-2.2,1.2L65,40.5c1-0.7,2.2-1.2,3.4-1.5
			C69.4,38.4,70.7,38.2,72.1,38.2z M71.7,52.5c0.8,0,1.5-0.2,2.3-0.6c0.7-0.4,1.1-1,1.4-1.8v-1.8H72c-2.1,0-3.1,0.7-3.1,2
			c0,0.6,0.2,1.2,0.8,1.5C70.2,52.4,71,52.6,71.7,52.5L71.7,52.5z M102.7,38.6v14.3c0.2,2.5-0.7,5.2-2.4,7c-2,1.7-4.6,2.5-7.2,2.3
			c-1.5,0-3.2-0.2-4.7-0.7c-1.3-0.3-2.6-0.9-3.7-1.8l2-3.5c0.8,0.7,1.8,1.1,2.8,1.4c1.1,0.3,2.2,0.6,3.3,0.6
			c1.3,0.1,2.8-0.3,3.9-1.2c0.9-1,1.3-2.2,1.2-3.5v-0.8c-1.4,1.4-3.4,2.2-5.4,2.1c-1.5,0-3-0.3-4.3-1c-1.3-0.7-2.3-1.7-3.1-2.9
			c-0.8-1.3-1.2-2.9-1.1-4.3c0-1.5,0.3-3,1.1-4.3c0.8-1.2,1.9-2.2,3.1-2.9c1.3-0.7,2.9-1.1,4.3-1c2.2-0.1,4.3,0.8,5.6,2.4v-2.2h4.7
			V38.6z M93.3,50.8c1.2,0,2.3-0.3,3.2-1.2c0.9-0.8,1.3-1.9,1.2-3.1c0-1.1-0.4-2.3-1.2-3.1c-0.9-0.8-2.1-1.2-3.2-1.2
			c-1.2,0-2.3,0.3-3.3,1.2c-0.9,0.8-1.3,1.9-1.3,3.1c0,1.1,0.4,2.3,1.3,3.1C91,50.3,92.2,50.8,93.3,50.8L93.3,50.8z M124.7,38.6
			v17.2h-4.7v-2.1c-0.7,0.8-1.4,1.3-2.3,1.7c-1,0.4-2,0.6-3,0.6c-2,0.1-4-0.6-5.4-2c-1.4-1.5-2.1-3.6-2-5.7v-9.7h5v8.9
			c0,2.8,1.2,4.2,3.5,4.2c1.1,0,2.1-0.3,2.9-1.2c0.8-1,1.2-2.2,1.1-3.4v-8.5h5V38.6z M136.1,38.2c2.2-0.1,4.4,0.6,6.2,1.9
			c1.5,1.5,2.3,3.6,2.1,5.7v9.8h-4.6v-2.1c-1.2,1.8-3.2,2.6-5.2,2.4c-1.2,0-2.3-0.2-3.4-0.7c-0.9-0.4-1.7-1-2.2-1.9
			c-0.6-0.8-0.8-1.8-0.8-2.6c-0.1-1.4,0.7-2.9,1.8-3.7c1.7-1,3.6-1.5,5.6-1.3h4c0.1-1-0.3-1.9-1-2.5c-0.9-0.7-1.9-1-3-0.9
			c-0.9,0-1.9,0.1-2.6,0.4c-0.8,0.2-1.5,0.7-2.2,1.2l-1.8-3.5c1-0.7,2.2-1.2,3.4-1.5C133.5,38.4,134.8,38.2,136.1,38.2L136.1,38.2z
			 M135.8,52.5c0.8,0,1.5-0.2,2.3-0.6c0.7-0.4,1.1-1,1.4-1.8v-1.8h-3.4c-2.1,0-3.1,0.7-3.1,2c0,0.6,0.2,1.2,0.8,1.5
			C134.4,52.4,135,52.6,135.8,52.5L135.8,52.5z M165.6,38.6l-7.7,18.2c-0.6,1.7-1.5,3.1-2.9,4.2c-1.2,0.9-2.8,1.2-4.2,1.2
			c-0.9,0-1.8-0.1-2.6-0.4c-0.8-0.2-1.5-0.7-2.1-1.1l1.8-3.5c0.4,0.3,0.9,0.7,1.3,0.8c0.4,0.2,1,0.3,1.4,0.3c0.6,0,1.2-0.1,1.7-0.4
			c0.6-0.4,0.9-1,1.1-1.7l0.1-0.2l-7.4-17.3h5.2l4.8,11.7l4.8-11.7L165.6,38.6z M193.5,47.1c0,0.1,0,0.6-0.1,1.3h-13
			c0.2,1,0.8,1.9,1.7,2.5c1,0.7,2.1,1,3.3,0.9c0.8,0,1.7-0.1,2.4-0.4c0.8-0.3,1.4-0.7,2-1.2l2.6,2.9c-1.9,2-4.4,3-7,2.8
			c-1.8,0-3.5-0.3-5.2-1.1c-1.4-0.7-2.6-1.8-3.4-3.1c-0.8-1.4-1.2-3-1.2-4.5c0-1.5,0.4-3.2,1.2-4.5c0.8-1.3,1.9-2.4,3.3-3.2
			c2.9-1.5,6.3-1.5,9.3,0c1.3,0.7,2.4,1.8,3.2,3.1C193.1,43.8,193.5,45.5,193.5,47.1L193.5,47.1z M184.6,42c-1,0-2,0.3-2.9,1
			c-0.8,0.7-1.3,1.7-1.4,2.6h8.5c-0.1-1-0.7-2-1.4-2.6C186.6,42.3,185.6,42,184.6,42L184.6,42z M207.2,38.2c1.9-0.1,3.7,0.6,5.2,1.9
			c1.4,1.5,2.1,3.6,2,5.6v9.8h-5v-9c0.1-1.1-0.2-2.2-0.9-3.1c-0.7-0.7-1.7-1.1-2.5-1c-1.1,0-2.2,0.3-3,1.2c-0.8,1-1.2,2.2-1.1,3.4
			v8.5h-5v-17h4.7v2c0.7-0.8,1.5-1.3,2.4-1.7C205.1,38.4,206.1,38.2,207.2,38.2L207.2,38.2z M242.4,55.6l-4.3-6.2h-4.7v6.3h-5.2
			V33.4h9.7c1.8,0,3.5,0.3,5.2,1c1.3,0.6,2.5,1.5,3.4,2.8c0.8,1.3,1.2,2.8,1.2,4.3c0,1.5-0.3,3-1.2,4.3c-0.9,1.2-2,2.2-3.4,2.8
			l5,7.2L242.4,55.6z M242.3,41.4c0.1-1.1-0.3-2.2-1.2-2.9c-1-0.8-2.3-1.1-3.5-1h-4.2v7.8h4.2c1.2,0.1,2.5-0.2,3.5-1
			C242,43.6,242.4,42.5,242.3,41.4L242.3,41.4z M268.1,47.1c0,0.1,0,0.6-0.1,1.3h-13c0.2,1,0.8,1.9,1.7,2.5c1,0.7,2.1,1,3.3,0.9
			c0.8,0,1.7-0.1,2.4-0.4c0.8-0.3,1.4-0.7,2-1.2l2.6,2.9c-1.9,2-4.4,3-7,2.8c-1.8,0-3.5-0.3-5.2-1.1c-1.4-0.7-2.6-1.8-3.4-3.1
			c-0.8-1.3-1.2-3-1.2-4.5c0-1.5,0.4-3.2,1.2-4.5c0.8-1.3,1.9-2.4,3.3-3.2c2.9-1.5,6.3-1.5,9.3,0c1.3,0.7,2.4,1.8,3.2,3.1
			C267.7,43.8,268.1,45.5,268.1,47.1L268.1,47.1z M259.1,42c-1,0-2,0.3-2.9,1c-0.8,0.7-1.3,1.7-1.4,2.6h8.5c-0.1-1-0.7-2-1.4-2.6
			C261.2,42.3,260.1,42,259.1,42L259.1,42z M277.2,56c-1.4,0-2.9-0.2-4.2-0.6c-1.1-0.2-2.2-0.7-3.3-1.3l1.7-3.5
			c0.9,0.6,1.8,0.9,2.8,1.2c1,0.3,2.1,0.4,3.2,0.4c2.1,0,3.2-0.6,3.2-1.5c0-0.6-0.3-1-0.9-1.1c-0.9-0.2-1.8-0.4-2.6-0.6
			c-1.2-0.1-2.3-0.4-3.5-0.8c-0.9-0.2-1.8-0.8-2.4-1.4c-0.7-0.9-1.1-1.9-1-3c0-1,0.3-2.1,1-2.9c0.7-0.9,1.7-1.5,2.8-2
			c1.3-0.4,2.8-0.8,4.3-0.7c1.2,0,2.4,0.1,3.6,0.4c1,0.2,2.1,0.6,3,1.1l-1.7,3.5c-1.5-0.9-3.2-1.3-5-1.3c-0.8,0-1.7,0.1-2.4,0.4
			c-0.4,0.2-0.8,0.7-0.8,1.1c0,0.6,0.3,1,0.9,1.1c0.9,0.3,1.8,0.4,2.8,0.7c1.2,0.2,2.3,0.4,3.4,0.8c0.9,0.2,1.7,0.8,2.3,1.4
			c0.7,0.8,1.1,1.9,1,3c0,1-0.3,2-1,2.9c-0.8,0.9-1.7,1.5-2.8,2C280.1,55.7,278.6,56,277.2,56L277.2,56z M305.5,38.6v17.2h-4.7v-2.1
			c-0.7,0.8-1.4,1.3-2.3,1.7c-1,0.4-2,0.6-3,0.6c-2,0.1-4-0.6-5.4-2c-1.4-1.5-2.1-3.6-2-5.7v-9.7h5v8.9c0,2.8,1.2,4.2,3.5,4.2
			c1.1,0,2.1-0.3,2.9-1.2c0.8-1,1.2-2.2,1.1-3.4v-8.5h5V38.6z M310.1,32.1h5v23.7h-5V32.1z M332.1,54.9c-0.6,0.4-1.1,0.7-1.8,0.8
			c-0.8,0.2-1.5,0.2-2.2,0.2c-1.8,0.1-3.4-0.4-4.7-1.5c-1.2-1.2-1.8-2.9-1.7-4.6v-7h-2.6v-3.9h2.6v-4.2h5v4.2h4.3v3.9h-4.3v6.9
			c0,0.7,0.1,1.2,0.6,1.7s1,0.7,1.5,0.6c0.8,0,1.4-0.2,2-0.7L332.1,54.9z M341.9,38.2c2.2-0.1,4.4,0.6,6.2,1.9
			c1.5,1.5,2.3,3.6,2.1,5.7v9.8h-4.6v-2.1c-1.2,1.8-3.2,2.6-5.2,2.4c-1.2,0-2.3-0.2-3.4-0.7c-0.9-0.4-1.7-1-2.2-1.9
			c-0.6-0.8-0.8-1.8-0.8-2.6c-0.1-1.4,0.7-2.9,1.8-3.7c1.7-1,3.6-1.5,5.6-1.3h4c0.1-1-0.3-1.9-1-2.5c-0.9-0.7-1.9-1-3-0.9
			c-0.9,0-1.9,0.1-2.6,0.4c-0.8,0.2-1.5,0.7-2.2,1.2l-1.8-3.4c1-0.7,2.2-1.2,3.4-1.5C339.1,38.4,340.4,38.2,341.9,38.2L341.9,38.2z
			 M341.4,52.5c0.8,0,1.5-0.2,2.3-0.6c0.7-0.4,1.1-1,1.4-1.8v-1.8h-3.4c-2.1,0-3.1,0.7-3.1,2c0,0.6,0.2,1.2,0.8,1.5
			C340,52.4,340.7,52.6,341.4,52.5L341.4,52.5z M372.3,32.1v23.7h-4.7v-2.1c-1.3,1.5-3.3,2.3-5.4,2.2c-1.5,0-3.1-0.3-4.4-1.1
			c-1.3-0.7-2.3-1.8-3.1-3.1c-0.8-1.4-1.1-3.1-1.1-4.6c0-1.7,0.3-3.2,1.1-4.6c0.7-1.3,1.8-2.4,3.1-3.1c1.3-0.8,2.9-1.1,4.4-1.1
			c2-0.1,3.9,0.7,5.2,2.1v-8.4L372.3,32.1z M363,51.9c1.2,0,2.3-0.4,3.1-1.3c0.9-1,1.3-2.2,1.2-3.4c0.1-1.3-0.3-2.5-1.2-3.4
			c-1.8-1.8-4.5-1.8-6.3,0c-0.9,1-1.3,2.2-1.2,3.4c-0.1,1.3,0.3,2.5,1.2,3.4C360.6,51.4,361.8,51.9,363,51.9z M384.9,56
			c-1.7,0-3.3-0.3-4.8-1.1c-1.4-0.7-2.5-1.8-3.4-3.1c-0.8-1.4-1.2-3-1.2-4.5c0-1.7,0.4-3.2,1.2-4.5c0.8-1.3,2-2.4,3.4-3.1
			c3.1-1.5,6.6-1.5,9.7,0c1.4,0.8,2.5,1.8,3.3,3.1c0.8,1.4,1.2,3,1.2,4.5c0,1.7-0.4,3.2-1.2,4.5c-0.8,1.3-2,2.4-3.3,3.1
			C388.3,55.5,386.7,56,384.9,56L384.9,56z M384.9,51.9c1.2,0,2.3-0.4,3.1-1.3c0.9-1,1.3-2.2,1.2-3.4c0.1-1.3-0.3-2.5-1.2-3.4
			c-0.8-0.9-2-1.3-3.1-1.3c-1.2,0-2.3,0.4-3.2,1.3c-0.9,1-1.3,2.2-1.2,3.4c-0.1,1.3,0.3,2.5,1.2,3.4
			C382.6,51.4,383.8,51.9,384.9,51.9z M403.4,56c-1.4,0-2.9-0.2-4.2-0.6c-1.1-0.2-2.2-0.7-3.3-1.3l1.7-3.5c0.9,0.6,1.8,0.9,2.8,1.2
			c1,0.3,2.1,0.4,3.2,0.4c2.1,0,3.2-0.6,3.2-1.5c0-0.6-0.3-1-0.9-1.1c-0.9-0.2-1.8-0.4-2.6-0.6c-1.2-0.1-2.3-0.4-3.5-0.8
			c-0.9-0.2-1.8-0.8-2.4-1.4c-0.7-0.9-1.1-1.9-1-3c0-1,0.3-2.1,1-2.9c0.7-0.9,1.7-1.5,2.8-2c1.3-0.4,2.8-0.8,4.3-0.7
			c1.2,0,2.4,0.1,3.6,0.4c1,0.2,2.1,0.6,3,1.1l-1.7,3.5c-1.5-0.9-3.2-1.3-5-1.3c-0.8,0-1.7,0.1-2.4,0.4c-0.4,0.2-0.8,0.7-0.8,1.1
			c0,0.6,0.3,1,0.9,1.1c0.9,0.3,1.8,0.4,2.8,0.7c1.2,0.2,2.3,0.4,3.4,0.8c0.9,0.2,1.7,0.8,2.3,1.4c0.7,0.8,1.1,1.9,1,3
			c0,1-0.3,2-1,2.9c-0.8,0.9-1.7,1.5-2.8,2C406.4,55.7,405,56,403.4,56L403.4,56z"/>
	</g>
</g>
</svg>
