<svg xmlns="http://www.w3.org/2000/svg" xmlns:xlink="http://www.w3.org/1999/xlink" width="787.07" height="323" viewBox="0 0 787.07 323"><defs><style>.cls-1,.cls-14,.cls-15,.cls-16,.cls-17,.cls-18,.cls-19,.cls-20,.cls-21,.cls-22,.cls-23,.cls-24,.cls-25,.cls-26,.cls-27,.cls-28,.cls-29,.cls-30,.cls-31,.cls-32,.cls-7,.cls-8,.cls-9{fill:#fff;}.cls-2{fill:url(#linear-gradient);}.cls-3{fill:#003853;}.cls-4{fill:#144665;}.cls-5{fill:#35b0c1;}.cls-6{fill:#97d4e1;}.cls-7{opacity:0.55;}.cls-8{opacity:0.51;}.cls-9{opacity:0.53;}.cls-10{opacity:0.54;}.cls-11{fill:#29abe2;}.cls-12{opacity:0.39;}.cls-13{opacity:0.36;}.cls-14{opacity:0.05;}.cls-15{opacity:0.1;}.cls-16{opacity:0.15;}.cls-17{opacity:0.2;}.cls-18{opacity:0.25;}.cls-19{opacity:0.3;}.cls-20{opacity:0.35;}.cls-21{opacity:0.4;}.cls-22{opacity:0.45;}.cls-23{opacity:0.5;}.cls-24{opacity:0.6;}.cls-25{opacity:0.65;}.cls-26{opacity:0.7;}.cls-27{opacity:0.75;}.cls-28{opacity:0.8;}.cls-29{opacity:0.85;}.cls-30{opacity:0.9;}.cls-31{opacity:0.95;}.cls-32{opacity:0.38;}.cls-33{fill:#fcce5b;}.cls-34{opacity:0.47;}.cls-35{fill:#0071bc;}.cls-36{fill:#1a6388;}.cls-37{fill:#b1dee8;}.cls-38{fill:#17476f;}.cls-39{fill:#fbca69;}.cls-40{fill:#f0c0a7;}.cls-41{fill:#d2e8f2;}.cls-42{fill:#d3ecf1;}.cls-43{fill:#e1b39d;}.cls-44{fill:#9ed7e3;}.cls-45{fill:#305d81;}.cls-46{fill:#e8ac4c;}.cls-47{fill:#2ea5ba;}.cls-48{fill:#0f3b5f;}.cls-49{fill:#aedeeb;}.cls-50{fill:#6ba1c4;}.cls-51{fill:#177e9d;}</style><linearGradient id="linear-gradient" x1="-47.3" y1="685.01" x2="466.89" y2="70.03" gradientUnits="userSpaceOnUse"><stop offset="0" stop-color="#29abe2"/><stop offset="0.13" stop-color="#56bde9"/><stop offset="0.3" stop-color="#8dd2f1"/><stop offset="0.47" stop-color="#b8e2f7"/><stop offset="0.61" stop-color="#d6eefb"/><stop offset="0.73" stop-color="#e9f5fe"/><stop offset="0.82" stop-color="#f0f8ff"/></linearGradient></defs><g id="Layer_2" data-name="Layer 2"><g id="Layer_1-2" data-name="Layer 1"><rect class="cls-1" width="787.07" height="322.85"/><path class="cls-2" d="M787.07,0H0V322.88l787.07-7.36Z"/><path class="cls-3" d="M226.59,293.44s36.68,4.7,50.5,8.9c5.05,1.53,10.32,2.57,12.07,12.08a60.14,60.14,0,0,1,.56,8.43H211.19c-40.6,0-21.91-35.15-21.91-35.15Z"/><path class="cls-4" d="M267.55,322.85c1.06-7.92-2.37-15.73-11.49-18.48-5.05-1.52-39.49-12.18-39.49-12.18L183,292.08s-11.36,30.77,21.8,30.77h62.76Z"/><rect class="cls-5" x="594.46" y="199.49" width="6.26" height="6.16"/><rect class="cls-5" x="583.8" y="199.49" width="6.27" height="6.16"/><rect class="cls-5" x="562.49" y="199.49" width="6.27" height="6.16"/><rect class="cls-5" x="594.46" y="189.02" width="6.26" height="6.16"/><rect class="cls-5" x="583.8" y="189.02" width="6.27" height="6.16"/><rect class="cls-5" x="562.49" y="189.02" width="6.27" height="6.16"/><rect class="cls-5" x="583.8" y="178.55" width="6.27" height="6.16"/><rect class="cls-5" x="573.15" y="178.55" width="6.26" height="6.16"/><rect class="cls-5" x="562.49" y="178.55" width="6.27" height="6.16"/><rect class="cls-5" x="594.46" y="168.08" width="6.26" height="6.16"/><rect class="cls-5" x="573.15" y="168.08" width="6.26" height="6.16"/><rect class="cls-5" x="583.8" y="157.61" width="6.27" height="6.16"/><rect class="cls-5" x="562.49" y="157.61" width="6.27" height="6.16"/><rect class="cls-5" x="594.46" y="147.14" width="6.26" height="6.15"/><rect class="cls-5" x="583.8" y="147.14" width="6.27" height="6.15"/><rect class="cls-5" x="573.15" y="147.14" width="6.26" height="6.15"/><rect class="cls-5" x="562.49" y="147.14" width="6.27" height="6.15"/><rect class="cls-5" x="594.46" y="136.68" width="6.26" height="6.15"/><rect class="cls-5" x="583.8" y="136.68" width="6.27" height="6.15"/><rect class="cls-5" x="573.15" y="136.68" width="6.26" height="6.15"/><rect class="cls-5" x="583.8" y="126.21" width="6.27" height="6.15"/><rect class="cls-5" x="573.15" y="126.21" width="6.26" height="6.15"/><rect class="cls-5" x="562.49" y="126.21" width="6.27" height="6.15"/><rect class="cls-5" x="594.46" y="115.74" width="6.26" height="6.15"/><rect class="cls-5" x="573.15" y="115.74" width="6.26" height="6.15"/><rect class="cls-5" x="562.49" y="115.74" width="6.27" height="6.15"/><rect class="cls-5" x="594.46" y="105.27" width="6.26" height="6.16"/><rect class="cls-5" x="583.8" y="105.27" width="6.27" height="6.16"/><rect class="cls-5" x="573.15" y="105.27" width="6.26" height="6.16"/><rect class="cls-5" x="583.8" y="94.8" width="6.27" height="6.16"/><rect class="cls-5" x="573.15" y="84.33" width="6.26" height="6.16"/><rect class="cls-5" x="583.8" y="73.86" width="6.27" height="6.16"/><rect class="cls-5" x="348.73" y="93.73" width="4.69" height="4.61"/><rect class="cls-5" x="340.75" y="93.73" width="4.7" height="4.61"/><rect class="cls-5" x="324.78" y="93.73" width="4.69" height="4.61"/><rect class="cls-5" x="348.73" y="85.89" width="4.69" height="4.61"/><rect class="cls-5" x="340.75" y="85.89" width="4.7" height="4.61"/><rect class="cls-5" x="332.77" y="85.89" width="4.69" height="4.61"/><rect class="cls-5" x="348.73" y="78.04" width="4.69" height="4.61"/><rect class="cls-5" x="340.75" y="78.04" width="4.7" height="4.61"/><rect class="cls-5" x="332.77" y="78.04" width="4.69" height="4.61"/><rect class="cls-5" x="324.78" y="78.04" width="4.69" height="4.61"/><rect class="cls-5" x="348.73" y="70.2" width="4.69" height="4.61"/><rect class="cls-5" x="332.77" y="70.2" width="4.69" height="4.61"/><rect class="cls-5" x="348.73" y="62.35" width="4.69" height="4.61"/><rect class="cls-5" x="340.75" y="62.35" width="4.7" height="4.61"/><rect class="cls-5" x="332.77" y="62.35" width="4.69" height="4.61"/><rect class="cls-5" x="324.78" y="62.35" width="4.69" height="4.61"/><rect class="cls-5" x="340.75" y="54.51" width="4.7" height="4.61"/><rect class="cls-5" x="332.77" y="54.51" width="4.69" height="4.61"/><rect class="cls-5" x="348.73" y="46.67" width="4.69" height="4.61"/><rect class="cls-5" x="340.75" y="46.67" width="4.7" height="4.61"/><rect class="cls-5" x="332.77" y="46.67" width="4.69" height="4.61"/><rect class="cls-5" x="324.78" y="46.67" width="4.69" height="4.61"/><rect class="cls-5" x="348.73" y="38.83" width="4.69" height="4.61"/><rect class="cls-5" x="340.75" y="38.83" width="4.7" height="4.61"/><rect class="cls-5" x="324.78" y="38.83" width="4.69" height="4.61"/><rect class="cls-5" x="340.75" y="30.98" width="4.7" height="4.61"/><rect class="cls-5" x="332.77" y="30.98" width="4.69" height="4.61"/><rect class="cls-5" x="340.75" y="23.14" width="4.7" height="4.61"/><rect class="cls-5" x="332.77" y="23.14" width="4.69" height="4.61"/><rect class="cls-5" x="324.78" y="23.14" width="4.69" height="4.61"/><rect class="cls-5" x="270.26" y="192.39" width="5.69" height="4.49"/><rect class="cls-5" x="260.59" y="192.39" width="5.69" height="4.49"/><rect class="cls-5" x="250.91" y="192.39" width="5.69" height="4.49"/><rect class="cls-5" x="260.59" y="184.75" width="5.69" height="4.49"/><rect class="cls-5" x="250.91" y="184.75" width="5.69" height="4.49"/><rect class="cls-5" x="241.24" y="184.75" width="5.69" height="4.49"/><rect class="cls-5" x="270.26" y="177.11" width="5.69" height="4.49"/><rect class="cls-5" x="250.91" y="177.11" width="5.69" height="4.49"/><rect class="cls-5" x="241.24" y="177.11" width="5.69" height="4.49"/><rect class="cls-5" x="739.21" y="213.18" width="4.57" height="5.59"/><rect class="cls-5" x="739.21" y="203.68" width="4.57" height="5.59"/><rect class="cls-5" x="739.21" y="194.17" width="4.57" height="5.59"/><rect class="cls-5" x="731.43" y="203.68" width="4.57" height="5.59"/><rect class="cls-5" x="731.43" y="194.17" width="4.57" height="5.59"/><rect class="cls-5" x="731.43" y="184.66" width="4.57" height="5.59"/><rect class="cls-5" x="723.65" y="213.18" width="4.57" height="5.59"/><rect class="cls-5" x="723.65" y="194.17" width="4.57" height="5.59"/><rect class="cls-5" x="723.65" y="184.66" width="4.57" height="5.59"/><path class="cls-6" d="M220.71,240.88h-3.4v-3.35h3.4v3.35Zm0-11.75h-3.41v-3.34h3.41v3.35Zm0-11.75h-3.41V214h3.4v3.34Zm0-11.74h-3.4v-3.35h3.4v3.35Zm0-11.75h-3.41v-3.34h3.41v3.35Zm0-11.75h-3.41v-3.34h3.4v3.34Zm0-11.75h-3.4V167h3.4v3.34Zm0-11.74h-3.4v-3.35h3.41v3.35Z"/><polygon class="cls-6" points="224.32 149.58 213.93 149.58 219.12 144.48 224.32 149.58"/><polygon class="cls-7" points="247.16 202.39 255.58 210.66 247.16 218.93 247.16 213.53 237.82 213.53 237.82 207.78 247.16 207.78 247.16 202.39"/><rect class="cls-1" x="714.36" y="94.49" width="5.41" height="0.66"/><rect class="cls-1" x="704.89" y="94.49" width="5.41" height="0.66"/><rect class="cls-1" x="695.42" y="94.49" width="5.41" height="0.66"/><rect class="cls-1" x="685.95" y="94.49" width="5.41" height="0.66"/><polygon class="cls-1" points="685.91 89.14 685.91 100.42 680.17 94.78 685.91 89.14"/><path class="cls-1" d="M721.45,96.82a2,2,0,1,0-2.06-2A2,2,0,0,0,721.45,96.82Z"/><path class="cls-8" d="M173.27,257.06h0l0-11.62,5.05,5a1.45,1.45,0,0,0,2,0,1.39,1.39,0,0,0,0-2l-8.46-8.32-8.47,8.32a1.38,1.38,0,0,0,0,2,1.43,1.43,0,0,0,2,0l5-4.92,0,11.59a1.43,1.43,0,0,0,2.85,0Z"/><path class="cls-9" d="M753.12,253.67h0l0-11.63,5,5a1.44,1.44,0,0,0,2,0,1.38,1.38,0,0,0,0-2l-8.46-8.32L743.22,245a1.4,1.4,0,0,0,0,2,1.44,1.44,0,0,0,2,0l5-4.92v11.59a1.43,1.43,0,0,0,2.86,0Z"/><path class="cls-8" d="M775.87,172.64h0l-11.83,0,5.05,5a1.39,1.39,0,0,1,0,2,1.44,1.44,0,0,1-2,0l-8.47-8.32,8.47-8.32a1.42,1.42,0,0,1,1-.41,1.45,1.45,0,0,1,1,.41,1.38,1.38,0,0,1,0,2l-5,4.92,11.79,0a1.4,1.4,0,1,1,0,2.8Z"/><g class="cls-10"><polygon class="cls-11" points="541.46 66.54 541.39 66.54 537.07 66.54 544.38 75.02 537 83.44 541.39 83.44 548.77 75.01 541.46 66.54"/><polygon class="cls-11" points="551.14 66.54 551.07 66.55 546.75 66.55 554.06 75.01 546.67 83.44 551.07 83.44 558.45 75.01 551.14 66.54"/></g><polygon class="cls-1" points="502.36 181.69 495.56 175.03 502.35 168.35 502.35 172.7 502.35 177.34 502.36 181.69"/><path class="cls-1" d="M504.32,175.09a2.51,2.51,0,1,0,2.51-2.47A2.5,2.5,0,0,0,504.32,175.09Z"/><path class="cls-1" d="M511.43,175.09a2.51,2.51,0,1,0,2.51-2.47A2.49,2.49,0,0,0,511.43,175.09Z"/><path class="cls-1" d="M518.67,175.09a2.51,2.51,0,1,0,2.51-2.47A2.48,2.48,0,0,0,518.67,175.09Z"/><g class="cls-12"><rect class="cls-1" x="383.61" y="227.81" width="5.05" height="5.67"/><rect class="cls-1" x="392.26" y="224.36" width="5.05" height="9.12"/><rect class="cls-1" x="400.91" y="218.56" width="5.06" height="14.92"/><path class="cls-1" d="M406.24,208.3h-7.43l2.55,2.51-.27.27c-3.89,4-8.27,8.06-17.5,10l.07,3.28c11.14-2.18,15.73-6.89,19.77-11l.23-.23,2.58,2.54Z"/></g><g class="cls-13"><path class="cls-1" d="M78.71,180.05a14.06,14.06,0,0,0-.09-2.59l-3-.5c-.08-.38-.17-.76-.29-1.14s-.25-.75-.4-1.11l2.26-2.07a14.5,14.5,0,0,0-1.37-2.2l-2.91,1.06a11.89,11.89,0,0,0-1.73-1.6L72,167a15,15,0,0,0-2.31-1.23l-2,2.35a11.44,11.44,0,0,0-2.33-.54l-.69-3a15.45,15.45,0,0,0-2.63.08l-.51,3a9.33,9.33,0,0,0-1.16.28,10,10,0,0,0-1.13.39l-2.11-2.22A14.48,14.48,0,0,0,55,167.48L56,170.33A12,12,0,0,0,54.41,172l-3-.89a15.19,15.19,0,0,0-1.25,2.27l2.39,1.94a11,11,0,0,0-.55,2.28l-3,.68a13.94,13.94,0,0,0,.08,2.58l3,.51c.07.38.17.76.28,1.14a10.51,10.51,0,0,0,.41,1.11l-2.27,2.07a15.07,15.07,0,0,0,1.38,2.2l2.9-1.07a11.5,11.5,0,0,0,1.74,1.61l-.91,2.91A15.54,15.54,0,0,0,58,192.6l2-2.34a11.5,11.5,0,0,0,2.32.54l.69,3a15.45,15.45,0,0,0,2.63-.08l.51-3c.39-.07.78-.17,1.17-.28a10.58,10.58,0,0,0,1.12-.39l2.11,2.22a15.31,15.31,0,0,0,2.24-1.35L71.68,188a12.62,12.62,0,0,0,1.64-1.71l3,.89A14.34,14.34,0,0,0,77.52,185L75.13,183a11.87,11.87,0,0,0,.56-2.28Zm-14.44,2.27a3.22,3.22,0,0,1-3.6-2.73,3.22,3.22,0,1,1,3.6,2.73Z"/></g><rect class="cls-14" x="152.95" y="102.04" width="2.96" height="3.02" transform="translate(50.08 257.43) rotate(-89.7)"/><rect class="cls-15" x="160.5" y="102.08" width="2.96" height="3.02" transform="translate(57.52 265) rotate(-89.69)"/><rect class="cls-16" x="168.04" y="102.12" width="2.96" height="3.02" transform="translate(65 272.59) rotate(-89.7)"/><rect class="cls-17" x="175.58" y="102.16" width="2.96" height="3.02" transform="translate(72.55 280.23) rotate(-89.73)"/><rect class="cls-18" x="183.12" y="102.2" width="2.96" height="3.02" transform="translate(79.96 287.78) rotate(-89.71)"/><rect class="cls-19" x="190.66" y="102.24" width="2.96" height="3.02" transform="translate(87.41 295.35) rotate(-89.71)"/><rect class="cls-20" x="198.2" y="102.28" width="2.96" height="3.01" transform="translate(94.81 302.9) rotate(-89.69)"/><rect class="cls-21" x="205.74" y="102.32" width="2.96" height="3.01" transform="translate(102.21 310.45) rotate(-89.67)"/><rect class="cls-22" x="213.28" y="102.36" width="2.96" height="3.02" transform="matrix(0.01, -1, 1, 0.01, 109.76, 318.08)"/><rect class="cls-23" x="220.82" y="102.4" width="2.96" height="3.02" transform="translate(117.11 325.6) rotate(-89.67)"/><rect class="cls-7" x="228.36" y="102.44" width="2.96" height="3.02" transform="matrix(0.01, -1, 1, 0.01, 124.65, 333.22)"/><rect class="cls-24" x="235.9" y="102.48" width="2.96" height="3.02" transform="translate(132.08 340.79) rotate(-89.68)"/><rect class="cls-25" x="243.44" y="102.52" width="2.96" height="3.02" transform="translate(139.53 348.37) rotate(-89.68)"/><rect class="cls-26" x="250.98" y="102.56" width="2.96" height="3.02" transform="translate(147.07 355.98) rotate(-89.7)"/><rect class="cls-27" x="258.52" y="102.6" width="2.96" height="3.02" transform="translate(154.6 363.59) rotate(-89.71)"/><rect class="cls-28" x="266.06" y="102.64" width="2.96" height="3.02" transform="translate(161.85 371.08) rotate(-89.67)"/><rect class="cls-29" x="273.6" y="102.68" width="2.96" height="3.02" transform="matrix(0.01, -1, 1, 0.01, 169.49, 378.74)"/><rect class="cls-30" x="281.15" y="102.72" width="2.96" height="3.02" transform="translate(176.68 386.22) rotate(-89.65)"/><rect class="cls-31" x="288.68" y="102.76" width="2.96" height="3.01" transform="translate(184.58 393.96) rotate(-89.74)"/><rect class="cls-1" x="296.23" y="102.8" width="2.96" height="3.02" transform="translate(191.76 401.44) rotate(-89.69)"/><rect class="cls-1" x="303.77" y="102.84" width="2.96" height="3.02" transform="translate(199.2 409.01) rotate(-89.68)"/><rect class="cls-1" x="311.31" y="102.88" width="2.97" height="3.02" transform="translate(206.86 416.66) rotate(-89.72)"/><rect class="cls-14" x="152.96" y="84.9" width="2.96" height="3.02" transform="translate(67.11 240.32) rotate(-89.66)"/><rect class="cls-15" x="160.5" y="84.94" width="2.96" height="3.02" transform="translate(74.74 248) rotate(-89.72)"/><rect class="cls-16" x="168.04" y="84.98" width="2.96" height="3.02" transform="translate(82.1 255.53) rotate(-89.69)"/><rect class="cls-17" x="175.58" y="85.02" width="2.96" height="3.02" transform="translate(89.61 263.13) rotate(-89.7)"/><rect class="cls-18" x="183.12" y="85.06" width="2.96" height="3.02" transform="translate(97.14 270.75) rotate(-89.72)"/><rect class="cls-19" x="190.66" y="85.1" width="2.96" height="3.02" transform="translate(104.42 278.24) rotate(-89.67)"/><rect class="cls-20" x="198.2" y="85.14" width="2.96" height="3.01" transform="translate(112.06 285.91) rotate(-89.72)"/><rect class="cls-21" x="205.74" y="85.18" width="2.96" height="3.02" transform="translate(119.61 293.52) rotate(-89.74)"/><rect class="cls-22" x="213.28" y="85.22" width="2.96" height="3.02" transform="translate(127.18 301.15) rotate(-89.77)"/><rect class="cls-23" x="220.82" y="85.26" width="2.96" height="3.02" transform="translate(134.44 308.64) rotate(-89.72)"/><rect class="cls-7" x="228.36" y="85.3" width="2.96" height="3.02" transform="translate(141.69 316.14) rotate(-89.66)"/><rect class="cls-24" x="235.9" y="85.34" width="2.96" height="3.02" transform="translate(149.23 323.75) rotate(-89.69)"/><rect class="cls-25" x="243.44" y="85.38" width="2.96" height="3.02" transform="translate(156.62 331.31) rotate(-89.67)"/><rect class="cls-26" x="250.98" y="85.42" width="2.96" height="3.02" transform="translate(164.26 338.95) rotate(-89.71)"/><rect class="cls-27" x="258.52" y="85.46" width="2.96" height="3.02" transform="translate(171.49 346.46) rotate(-89.66)"/><rect class="cls-28" x="266.06" y="85.5" width="2.96" height="3.02" transform="translate(178.97 354.04) rotate(-89.66)"/><rect class="cls-29" x="273.6" y="85.54" width="2.96" height="3.02" transform="translate(186.42 361.62) rotate(-89.66)"/><rect class="cls-30" x="281.15" y="85.58" width="2.96" height="3.02" transform="translate(193.96 369.23) rotate(-89.68)"/><rect class="cls-31" x="288.69" y="85.63" width="2.96" height="3.02" transform="translate(201.46 376.82) rotate(-89.69)"/><rect class="cls-1" x="296.23" y="85.67" width="2.96" height="3.02" transform="translate(209.03 384.44) rotate(-89.71)"/><rect class="cls-1" x="303.77" y="85.71" width="2.96" height="3.02" transform="translate(216.29 391.96) rotate(-89.67)"/><rect class="cls-1" x="311.31" y="85.75" width="2.96" height="3.02" transform="translate(223.86 399.57) rotate(-89.69)"/><rect class="cls-14" x="160.52" y="93.63" width="2.96" height="3.02" transform="translate(65.93 256.59) rotate(-89.67)"/><rect class="cls-15" x="168.07" y="93.67" width="2.96" height="3.02" transform="translate(73.47 264.21) rotate(-89.69)"/><rect class="cls-16" x="175.61" y="93.71" width="2.96" height="3.02" transform="translate(80.95 271.81) rotate(-89.7)"/><rect class="cls-17" x="183.15" y="93.75" width="2.96" height="3.02" transform="translate(88.43 279.4) rotate(-89.71)"/><rect class="cls-18" x="190.69" y="93.79" width="2.96" height="3.02" transform="translate(95.91 286.99) rotate(-89.71)"/><rect class="cls-19" x="198.23" y="93.83" width="2.96" height="3.02" transform="translate(103.16 294.46) rotate(-89.65)"/><rect class="cls-20" x="205.77" y="93.87" width="2.96" height="3.02" transform="translate(110.78 302.12) rotate(-89.7)"/><rect class="cls-21" x="213.31" y="93.91" width="2.96" height="3.02" transform="translate(118.41 309.78) rotate(-89.74)"/><rect class="cls-22" x="220.85" y="93.95" width="2.96" height="3.02" transform="matrix(0, -1, 1, 0, 125.96, 317.4)"/><rect class="cls-23" x="228.39" y="93.99" width="2.96" height="3.02" transform="translate(132.94 324.77) rotate(-89.64)"/><rect class="cls-7" x="235.93" y="94.03" width="2.96" height="3.01" transform="translate(140.67 332.47) rotate(-89.71)"/><rect class="cls-24" x="243.47" y="94.07" width="2.96" height="3.02" transform="translate(148.08 340.03) rotate(-89.7)"/><rect class="cls-25" x="251.01" y="94.11" width="2.96" height="3.02" transform="translate(155.5 347.59) rotate(-89.69)"/><rect class="cls-26" x="258.55" y="94.15" width="2.96" height="3.02" transform="translate(162.97 355.18) rotate(-89.69)"/><rect class="cls-27" x="266.09" y="94.19" width="2.96" height="3.02" transform="translate(170.62 362.82) rotate(-89.73)"/><rect class="cls-28" x="273.63" y="94.23" width="2.96" height="3.02" transform="translate(177.92 370.35) rotate(-89.7)"/><rect class="cls-29" x="281.17" y="94.28" width="2.96" height="3.02" transform="translate(185.4 377.94) rotate(-89.7)"/><rect class="cls-30" x="288.71" y="94.31" width="2.96" height="3.02" transform="translate(192.65 385.45) rotate(-89.66)"/><rect class="cls-31" x="296.25" y="94.36" width="2.96" height="3.02" transform="translate(200.22 393.06) rotate(-89.68)"/><rect class="cls-1" x="303.8" y="94.4" width="2.96" height="3.02" transform="translate(207.85 400.7) rotate(-89.71)"/><rect class="cls-1" x="311.34" y="94.44" width="2.96" height="3.01" transform="translate(215.39 408.3) rotate(-89.73)"/><rect class="cls-1" x="318.88" y="94.48" width="2.96" height="3.02" transform="translate(222.69 415.83) rotate(-89.7)"/><polygon class="cls-32" points="43.99 245.88 0 245.88 0 252.08 46.6 252.08 85.69 213.62 89.58 217.44 89.58 205.35 77.28 205.35 81.23 209.24 43.99 245.88"/><polygon class="cls-33" points="441.8 182.75 425.75 182.75 425.75 188.95 444.41 188.95 466.32 167.37 470.21 171.19 470.21 159.1 457.91 159.1 461.87 162.99 441.8 182.75"/><path class="cls-8" d="M299.44,175.34h0v-41l5,5a1.44,1.44,0,0,0,2,0,1.39,1.39,0,0,0,0-2L298,129l-8.47,8.31a1.39,1.39,0,0,0-.42,1,1.37,1.37,0,0,0,.42,1,1.43,1.43,0,0,0,2,0l5-4.91,0,41a1.43,1.43,0,0,0,2.85,0Z"/><path class="cls-6" d="M711.52,225.77h-3.41v-3.35h3.41v3.35Zm0-11.75h-3.41v-3.34h3.4V214Zm0-11.75h-3.4v-3.35h3.4v3.34Zm0-11.74h-3.41v-3.35h3.41v3.35Zm0-11.75h-3.41v-3.34h3.4v3.35Zm0-11.75h-3.4v-3.34h3.4V167Zm0-11.75h-3.41v-3.35h3.41v3.34Zm0-11.74H708.3v-3.35h3.4v3.35Z"/><polygon class="cls-6" points="715.12 134.47 704.74 134.47 709.93 129.37 715.12 134.47"/><g class="cls-34"><path class="cls-1" d="M318.09,225.5c-.13-1.65,3.07-3.05,2.45-4.55s-3.8-.92-4.72-2.15.33-3.93-1.08-5-3.49,1.25-5,1.34-2.61-3.52-4.1-3.18-1.36,3.38-3,4.21-4.1-1.17-5.2.15.95,3.35.43,5.13-3.82,1.76-3.86,3.4,3.3,1.93,3.66,3.66-2,3.33-.71,5,3.6-.3,5.18.49.9,3.93,2.77,4.31,2.39-2.64,4.27-2.9,2.88,2.42,5,1.55.44-3.44,1.36-4.91,4.24-.33,4.83-1.94S318.21,227.15,318.09,225.5Zm-12,6.84a7,7,0,0,1-5.52-8.23,7.09,7.09,0,0,1,8.37-5.43,7,7,0,0,1,5.52,8.23A7.09,7.09,0,0,1,306.1,232.34Z"/><path class="cls-1" d="M297.49,240.24c-.11-1.53,2.85-2.82,2.27-4.2s-3.52-.85-4.37-2,.31-3.64-1-4.66-3.23,1.15-4.66,1.24-2.41-3.26-3.79-2.94-1.26,3.13-2.78,3.89-3.79-1.08-4.81.15.87,3.09.39,4.74-3.53,1.63-3.57,3.14,3.06,1.79,3.39,3.39-1.84,3.08-.66,4.66,3.33-.27,4.79.45.83,3.64,2.56,4,2.21-2.44,3.95-2.68,2.67,2.24,4.59,1.44.42-3.18,1.26-4.54,3.93-.32,4.47-1.81S297.61,241.77,297.49,240.24Zm-11.09,6.33a6.45,6.45,0,0,1-5.11-7.61,6.56,6.56,0,0,1,7.75-5,6.45,6.45,0,0,1,5.11,7.61A6.57,6.57,0,0,1,286.4,246.57Z"/></g><path class="cls-33" d="M440.65,234.31h0c-2.56,0-4.71-.05-6.58-.11a1.24,1.24,0,1,1,.08-2.48c1.84.05,4,.09,6.52.1a1.25,1.25,0,1,1,0,2.49Zm6.55,0a1.25,1.25,0,1,1,0-2.49l5.89,0h.66a1.25,1.25,0,1,1,0,2.49h-.66l-5.89,0Zm13.1-.09a1.25,1.25,0,1,1,0-2.49h2.39a7.86,7.86,0,0,0,3.45-.77,1.27,1.27,0,0,1,1.7.56,1.24,1.24,0,0,1-.57,1.67,10.45,10.45,0,0,1-4.58,1H460.3Zm-32.7-.59a1.19,1.19,0,0,1-.37-.06,11.14,11.14,0,0,1-5.76-4.27,1.23,1.23,0,0,1,.28-1.74,1.27,1.27,0,0,1,1.77.28,8.7,8.7,0,0,0,4.45,3.35,1.24,1.24,0,0,1,.84,1.56,1.27,1.27,0,0,1-1.21.88Zm43.77-4.72a1.26,1.26,0,0,1-.67-.19,1.23,1.23,0,0,1-.39-1.72,23.65,23.65,0,0,0,2.54-5.57,1.28,1.28,0,0,1,1.59-.81,1.25,1.25,0,0,1,.83,1.57,26.19,26.19,0,0,1-2.83,6.15,1.27,1.27,0,0,1-1.07.57ZM419.65,224a1.28,1.28,0,0,1-1.21-.86,41.58,41.58,0,0,1-1.53-6.47,1.25,1.25,0,0,1,1.06-1.42,1.27,1.27,0,0,1,1.45,1,37.91,37.91,0,0,0,1.43,6.09A1.23,1.23,0,0,1,420,224a1.07,1.07,0,0,1-.39.07Zm55.88-7.26h-.19a1.26,1.26,0,0,1-1.06-1.42c.09-.55.16-1.09.22-1.61.09-.77.14-3.62.15-4.65a1.26,1.26,0,0,1,1.27-1.23h0a1.26,1.26,0,0,1,1.26,1.26c0,.39-.05,3.87-.17,4.91-.07.55-.15,1.12-.24,1.7a1.25,1.25,0,0,1-1.25,1.05Zm-58-5.44a1.26,1.26,0,0,1-1.27-1.19c0-.88,0-1.52,0-1.83v-.17a1.26,1.26,0,0,1,1.27-1.23h0a1.25,1.25,0,0,1,1.24,1.27v.13c0,.29,0,.89,0,1.72a1.25,1.25,0,0,1-1.21,1.3Z"/><path class="cls-35" d="M448,42.44a5.3,5.3,0,0,1-1.33,3.68,4.27,4.27,0,0,1-4.4,1.35,3.12,3.12,0,0,0-3,1.84l-.12.24a3.24,3.24,0,0,0,1.56,3.17c1,.7,2.18,1.58,2.21,3.19a4.12,4.12,0,0,1-1.11,2.88c-.79.89-2.07,3-1.16,4.27s2.58,1.22,3.72,1a3.59,3.59,0,0,1,3.2.67,4,4,0,0,1,1.38,3c.06,1.18,0,2.64,1.78,3.26,1.44.49,3.08-.73,3.79-1.72a4.14,4.14,0,0,1,2.58-1.83,2.94,2.94,0,0,1,3.05,1.24,3.56,3.56,0,0,0,4.17,1c1.15-.55,1.93-1.79,1.39-3.8a3,3,0,0,1,1-3,4.51,4.51,0,0,1,4-1.24c1.13.14,3.17-.56,3.52-2s-1-3-1.85-3.5a3.49,3.49,0,0,1-1.76-3,4.24,4.24,0,0,1,1.53-3.2,3.08,3.08,0,0,0,.95-3.67A2.84,2.84,0,0,0,470,44.85,3.72,3.72,0,0,1,464.87,41a3.24,3.24,0,0,0-1.68-3.09c-1.54-.71-3.09.66-3.63,1.45a4.4,4.4,0,0,1-2.84,2.08A3.75,3.75,0,0,1,453.39,40a3.07,3.07,0,0,0-3.68-1C447.94,39.8,447.9,41.06,448,42.44Zm4.69,5.21a8.13,8.13,0,0,1,10.91,3.21,7.83,7.83,0,0,1-3.27,10.71,8.12,8.12,0,0,1-10.9-3.21A7.83,7.83,0,0,1,452.71,47.65Z"/><path class="cls-33" d="M416.52,57.59a4.47,4.47,0,0,1-2.18,3.77c-2.64,1.73-4,1.07-4.9.88A4.23,4.23,0,0,0,405,63.72c-.8,1.28-1.39,2.92.86,5.21a5.18,5.18,0,0,1,1.46,4.86c-.24,1.6-1.75,2.65-2.8,3.31a3.87,3.87,0,0,0-2,4.72c.61,2.44,3.33,2.31,4.83,2.7A5.55,5.55,0,0,1,411,86.87a5.74,5.74,0,0,1,.83,4.11c-.18,1.55-.48,3.6,2.06,4.84,1.8.88,3.94-.21,5.08-1.33a5.44,5.44,0,0,1,4.43-1.26c2.82.56,3.69,2.09,3.69,2.09a4.06,4.06,0,0,0,4.7,2.38,4.14,4.14,0,0,0,3-4.54,4.39,4.39,0,0,1,2-4.25,5,5,0,0,1,4.66-.55,4.21,4.21,0,0,0,4.84-1.92c.95-1.77,0-3.66-1.14-4.84s-1.45-3.29-1.13-5.11A4.8,4.8,0,0,1,446.63,73a3.6,3.6,0,0,0,1.82-4.3,3.38,3.38,0,0,0-3.35-2.8c-1.6-.19-3.59-.33-4.88-1.91A6.32,6.32,0,0,1,439,59.14,4.28,4.28,0,0,0,437.09,55c-1.85-1.25-3.94-.11-4.81.81a6.12,6.12,0,0,1-4.26,2.1,5,5,0,0,1-3.93-2.69,3.87,3.87,0,0,0-4.48-2C417.16,53.71,416.67,55.78,416.52,57.59ZM422.07,66a10.42,10.42,0,0,1,13.14,6.37,10.13,10.13,0,0,1-6.48,12.91,10.4,10.4,0,0,1-13.14-6.36A10.14,10.14,0,0,1,422.07,66Z"/><path class="cls-33" d="M469.34,205.78c-1.2,0-2.88,0-5-.07a1.25,1.25,0,1,1,.05-2.49c2.1.05,3.77.07,4.95.07h1.52a1.25,1.25,0,0,1,1.33,1.17,1.24,1.24,0,0,1-1.19,1.31l-.42,0Zm-11.54-.25h0l-6.57-.21a1.25,1.25,0,1,1,.09-2.49l6.55.21a1.25,1.25,0,1,1,0,2.49Zm-13.11-.44h-.05l-5.3-.19-1.26,0a1.25,1.25,0,0,1-1.22-1.29,1.27,1.27,0,0,1,1.31-1.2l1.26,0,5.3.19a1.24,1.24,0,1,1,0,2.48Zm-13.12-.46h-.05c-2.9-.1-4.55-.14-5.18-.14a8,8,0,0,1-1.59-.17,1.25,1.25,0,0,1-1-1.48,1.27,1.27,0,0,1,1.5-1,5.08,5.08,0,0,0,1.07.12c.67,0,2.29,0,5.27.14a1.25,1.25,0,0,1,0,2.49Zm44.52-2.11a1.25,1.25,0,0,1-1.19-1.66,7.8,7.8,0,0,0,.36-2.61c0-.46,0-.91,0-1.33l0-.66c0-.2,0-.49,0-.82l0-.48a1.26,1.26,0,0,1,2.52-.15l0,.47c0,.37.05.66.06.91s0,.4,0,.62c0,.43,0,.92,0,1.44a9.86,9.86,0,0,1-.51,3.44,1.26,1.26,0,0,1-1.19.83Zm-56.48-1.6a1.26,1.26,0,0,1-1-.45,15.17,15.17,0,0,1-3.12-6.22.41.41,0,0,1,0-.16.66.66,0,0,1-.05-.15c-.27-1.18-.47-2.64-.71-4.48-.08-.63-.17-1.29-.27-2a1.27,1.27,0,0,1,2.51-.34q.15,1.06.27,2c.24,1.78.42,3.18.67,4.25a.59.59,0,0,1,0,.13.65.65,0,0,1,0,.13,12.85,12.85,0,0,0,2.62,5.23,1.23,1.23,0,0,1-.16,1.75,1.32,1.32,0,0,1-.81.29Zm56.82-11.22h-.1a1.25,1.25,0,0,1-1.16-1.34,62.82,62.82,0,0,1,.85-6.5,1.26,1.26,0,0,1,2.49.43c-.39,2.2-.67,4.3-.82,6.26a1.26,1.26,0,0,1-1.26,1.15Zm-61.8-7.5a1.26,1.26,0,0,1-1.24-1c-.43-2.11-.93-4.13-1.53-6.16a1.25,1.25,0,0,1,.87-1.54,1.27,1.27,0,0,1,1.57.86c.61,2.09,1.12,4.17,1.57,6.35a1.24,1.24,0,0,1-1,1.46,1.07,1.07,0,0,1-.25,0Zm64-5.17a1.15,1.15,0,0,1-.31,0,1.24,1.24,0,0,1-.92-1.51c.51-2,1.12-4.11,1.79-6.26a1.28,1.28,0,0,1,1.58-.82,1.24,1.24,0,0,1,.84,1.56c-.66,2.1-1.25,4.16-1.75,6.13a1.27,1.27,0,0,1-1.23.94ZM411,169.84a1.27,1.27,0,0,1-1.19-.81c-.74-1.95-1.59-3.91-2.5-5.84a1.24,1.24,0,0,1,.61-1.66,1.28,1.28,0,0,1,1.69.61c.94,2,1.8,4,2.57,6a1.24,1.24,0,0,1-.74,1.61,1.41,1.41,0,0,1-.44.08Zm71.45-5.11a1.25,1.25,0,0,1-1.19-1.66c.72-2,1.5-4,2.34-6.06a1.27,1.27,0,0,1,1.64-.7,1.24,1.24,0,0,1,.71,1.62c-.82,2-1.6,4-2.3,6a1.27,1.27,0,0,1-1.2.82Zm-77-6.55a1.27,1.27,0,0,1-1.1-.65c-1-1.81-2.14-3.64-3.32-5.45a1.23,1.23,0,0,1,.38-1.72,1.28,1.28,0,0,1,1.75.38c1.21,1.85,2.35,3.73,3.4,5.59a1.23,1.23,0,0,1-.49,1.69,1.27,1.27,0,0,1-.62.16Zm82-5.3a1.26,1.26,0,0,1-.59-.15,1.23,1.23,0,0,1-.53-1.68c1-1.81,2.07-3.65,3.36-5.63a1.28,1.28,0,0,1,1.75-.38,1.24,1.24,0,0,1,.39,1.72c-1.25,1.92-2.32,3.7-3.26,5.45a1.26,1.26,0,0,1-1.12.67Zm-89.08-5.54a1.27,1.27,0,0,1-1-.51c-1.22-1.66-2.51-3.32-3.92-5.08a1.22,1.22,0,0,1,.2-1.75,1.29,1.29,0,0,1,1.78.21c1.44,1.78,2.75,3.47,4,5.16a1.23,1.23,0,0,1-.28,1.74,1.25,1.25,0,0,1-.74.23ZM494.51,142a1.27,1.27,0,0,1-.72-.22,1.23,1.23,0,0,1-.31-1.73L495,138c.75-1,1.51-2.1,2.27-3.16a1.28,1.28,0,0,1,1.76-.31,1.23,1.23,0,0,1,.32,1.73l-2.28,3.18-1.5,2.08a1.25,1.25,0,0,1-1,.53Zm-104.16-4.75a1.29,1.29,0,0,1-1-.45l-1.15-1.35c-1.06-1.25-2.07-2.42-3.05-3.6a1.23,1.23,0,0,1,.18-1.75,1.28,1.28,0,0,1,1.78.17c1,1.17,2,2.34,3,3.58l1.16,1.35a1.25,1.25,0,0,1-.16,1.76,1.32,1.32,0,0,1-.82.29Zm111.56-5.86a1.26,1.26,0,0,1-.67-.19,1.23,1.23,0,0,1-.41-1.72c1.22-1.9,2.26-3.69,3.21-5.49a1.28,1.28,0,0,1,1.71-.53,1.24,1.24,0,0,1,.54,1.68c-1,1.85-2.06,3.7-3.31,5.66a1.26,1.26,0,0,1-1.07.59Zm-119.75-4.17a1.28,1.28,0,0,1-1-.52,52.12,52.12,0,0,1-3.58-5.55,1.21,1.21,0,0,1,.5-1.68,1.27,1.27,0,0,1,1.72.49,49.94,49.94,0,0,0,3.42,5.29,1.23,1.23,0,0,1-.29,1.74,1.27,1.27,0,0,1-.74.23ZM507.89,120a1.27,1.27,0,0,1-.47-.09,1.24,1.24,0,0,1-.71-1.62,59.93,59.93,0,0,0,2.08-6,1.27,1.27,0,0,1,1.57-.85,1.25,1.25,0,0,1,.87,1.54c-.62,2.1-1.35,4.19-2.16,6.2a1.28,1.28,0,0,1-1.18.78Zm-131.95-4a1.28,1.28,0,0,1-1.19-.81,46.64,46.64,0,0,1-1.87-6.33,1.24,1.24,0,0,1,1-1.48,1.27,1.27,0,0,1,1.51,1,45.54,45.54,0,0,0,1.78,6,1.23,1.23,0,0,1-.75,1.59,1.11,1.11,0,0,1-.44.08Zm135.58-8.32-.24,0a1.25,1.25,0,0,1-1-1.46c.39-2,.71-4.11.94-6.26a1.27,1.27,0,0,1,1.4-1.1,1.25,1.25,0,0,1,1.12,1.37c-.24,2.21-.57,4.38-1,6.46a1.26,1.26,0,0,1-1.24,1Zm-138.46-4.18a1.26,1.26,0,0,1-1.26-1.11c-.23-2-.38-4.23-.45-6.51a1.27,1.27,0,0,1,2.53-.08c.07,2.22.22,4.34.44,6.32a1.24,1.24,0,0,1-1.12,1.37Zm139.88-8.59h-.05a1.27,1.27,0,0,1-1.22-1.29c.06-1.37.09-2.79.09-4.22,0-.22,0-.43,0-.65,0-.49,0-1,0-1.48A1.26,1.26,0,0,1,513,86a1.25,1.25,0,0,1,1.29,1.21c0,.51,0,1,0,1.54v.66c0,1.46,0,2.91-.08,4.31a1.27,1.27,0,0,1-1.27,1.2ZM372.61,90.61h0a1.26,1.26,0,0,1-1.23-1.27c.06-2.06.17-4.24.33-6.49a1.26,1.26,0,0,1,2.52.18c-.15,2.21-.26,4.36-.32,6.37a1.24,1.24,0,0,1-1.26,1.21Zm140-8.59a1.26,1.26,0,0,1-1.26-1.11c-.23-2.1-.55-4.2-.95-6.26a1.25,1.25,0,0,1,1-1.46,1.26,1.26,0,0,1,1.48,1c.41,2.12.74,4.3,1,6.46A1.25,1.25,0,0,1,512.7,82ZM373.63,77.79h-.19a1.25,1.25,0,0,1-1.07-1.42c.34-2.16.77-4.32,1.3-6.42a1.27,1.27,0,0,1,1.54-.9,1.23,1.23,0,0,1,.92,1.5c-.51,2-.93,4.11-1.25,6.19a1.27,1.27,0,0,1-1.25,1.06ZM510.1,69.4a1.26,1.26,0,0,1-1.22-.91c-.58-2-1.26-4-2-6a1.23,1.23,0,0,1,.74-1.6,1.27,1.27,0,0,1,1.63.72c.78,2,1.48,4.12,2.08,6.22a1.24,1.24,0,0,1-.88,1.53,1.33,1.33,0,0,1-.34.05ZM376.79,65.33a1.25,1.25,0,0,1-1.19-1.66,64.48,64.48,0,0,1,2.53-6.06,1.29,1.29,0,0,1,1.69-.6,1.25,1.25,0,0,1,.61,1.66c-.91,1.89-1.73,3.85-2.45,5.83a1.26,1.26,0,0,1-1.19.83Zm128.69-8a1.27,1.27,0,0,1-1.14-.71c-.93-1.89-1.95-3.77-3-5.57a1.22,1.22,0,0,1,.44-1.7,1.29,1.29,0,0,1,1.74.43c1.13,1.86,2.18,3.8,3.14,5.77a1.23,1.23,0,0,1-.59,1.66,1.33,1.33,0,0,1-.55.12ZM382.36,53.71a1.19,1.19,0,0,1-.65-.18,1.22,1.22,0,0,1-.43-1.7A62.27,62.27,0,0,1,385,46.38a1.28,1.28,0,0,1,1.77-.25,1.23,1.23,0,0,1,.26,1.74,59.71,59.71,0,0,0-3.57,5.24,1.27,1.27,0,0,1-1.09.6Zm116.43-7.39a1.28,1.28,0,0,1-1-.51c-1.26-1.71-2.61-3.37-4-4.94a1.23,1.23,0,0,1,.12-1.76,1.29,1.29,0,0,1,1.79.12c1.45,1.63,2.85,3.35,4.15,5.12a1.24,1.24,0,0,1-.28,1.74,1.3,1.3,0,0,1-.75.23ZM390.16,43.4a1.27,1.27,0,0,1-.85-.32,1.23,1.23,0,0,1-.08-1.76c1.48-1.6,3.06-3.16,4.71-4.63a1.28,1.28,0,0,1,1.79.08,1.23,1.23,0,0,1-.09,1.76c-1.58,1.42-3.11,2.92-4.54,4.46a1.24,1.24,0,0,1-.94.41Zm100-6.74a1.28,1.28,0,0,1-.86-.34c-1.56-1.45-3.2-2.83-4.88-4.11a1.24,1.24,0,0,1-.23-1.75,1.29,1.29,0,0,1,1.78-.22A66,66,0,0,1,491,34.51a1.23,1.23,0,0,1,.06,1.76,1.33,1.33,0,0,1-.93.39Zm-90.34-1.91a1.26,1.26,0,0,1-1-.5,1.23,1.23,0,0,1,.25-1.74c1.76-1.3,3.61-2.55,5.49-3.7a1.28,1.28,0,0,1,1.75.4,1.22,1.22,0,0,1-.41,1.71c-1.82,1.12-3.61,2.32-5.3,3.58a1.29,1.29,0,0,1-.77.25Zm80-6a1.33,1.33,0,0,1-.67-.19,62.39,62.39,0,0,0-5.61-3.07,1.24,1.24,0,0,1-.58-1.67,1.29,1.29,0,0,1,1.7-.57,64.88,64.88,0,0,1,5.83,3.2,1.23,1.23,0,0,1,.4,1.71,1.26,1.26,0,0,1-1.07.59ZM410.94,28a1.27,1.27,0,0,1-1.13-.68,1.23,1.23,0,0,1,.55-1.67c2-1,4-1.89,6.06-2.71a1.27,1.27,0,0,1,1.65.68,1.24,1.24,0,0,1-.7,1.62c-2,.8-4,1.68-5.86,2.63a1.28,1.28,0,0,1-.57.13Zm57.16-4.82a1.41,1.41,0,0,1-.44-.08,59.76,59.76,0,0,0-6.12-1.84,1.25,1.25,0,0,1-.93-1.51,1.28,1.28,0,0,1,1.54-.91,62.57,62.57,0,0,1,6.39,1.93,1.24,1.24,0,0,1,.75,1.59,1.26,1.26,0,0,1-1.19.82Zm-45,0a1.27,1.27,0,0,1-1.21-.87,1.25,1.25,0,0,1,.83-1.56c2.11-.65,4.27-1.22,6.43-1.69a1.26,1.26,0,0,1,1.51.94,1.23,1.23,0,0,1-.95,1.48c-2.1.47-4.19,1-6.23,1.65a1.65,1.65,0,0,1-.38.05Zm12.77-2.82a1.24,1.24,0,0,1-.18-2.48c2.19-.31,4.41-.53,6.62-.66a1.27,1.27,0,0,1,1.34,1.17,1.25,1.25,0,0,1-1.19,1.32c-2.14.12-4.29.34-6.41.63l-.18,0ZM455.42,20h-.18a61.64,61.64,0,0,0-6.38-.51,1.25,1.25,0,1,1,.07-2.49,64.08,64.08,0,0,1,6.65.53,1.25,1.25,0,0,1,1.09,1.4A1.27,1.27,0,0,1,455.42,20Z"/><path class="cls-1" d="M315,205.81a7.36,7.36,0,0,1,1.73-3c1.14-1,19.56-15.46,19.56-15.46s14.83,19.82,16.71,45c.27,6.06-2.77,18.54-7.91,32.43-3.92-.56-17.12,5.81-15-3.92,1.38-6.23-.08-17-1.59-25.58C326.24,222.1,315,205.81,315,205.81Z"/><path class="cls-36" d="M447.1,257.33s-.1-1-1.86-1-11.74,30-11.74,30h18.61Z"/><path class="cls-37" d="M404,257.79c-.27,1.07-7.07,28.59-7.07,28.59H438l7.45-30.08H405.86S404.28,256.73,404,257.79Z"/><polygon class="cls-1" points="403.44 279.44 434.53 279.44 439.11 260.93 408.01 260.93 403.44 279.44"/><path class="cls-36" d="M424.4,264.65a.49.49,0,0,0,.5.64h9a.9.9,0,0,0,.82-.64h0a.5.5,0,0,0-.5-.65h-9a.88.88,0,0,0-.82.65Z"/><polygon class="cls-36" points="427.9 272.23 432.02 272.23 433.01 268.24 428.89 268.24 427.9 272.23"/><polygon class="cls-36" points="426.49 277.95 430.61 277.95 431.59 273.96 427.47 273.96 426.49 277.95"/><polygon class="cls-33" points="421.86 272.23 425.97 272.23 426.96 268.24 422.84 268.24 421.86 272.23"/><polygon class="cls-36" points="420.44 277.95 424.56 277.95 425.55 273.96 421.43 273.96 420.44 277.95"/><polygon class="cls-36" points="415.88 272.23 420 272.23 420.98 268.24 416.86 268.24 415.88 272.23"/><polygon class="cls-36" points="414.46 277.95 418.58 277.95 419.56 273.96 415.45 273.96 414.46 277.95"/><polygon class="cls-36" points="409.83 272.23 413.95 272.23 414.93 268.24 410.81 268.24 409.83 272.23"/><polygon class="cls-3" points="408.41 277.95 412.53 277.95 413.52 273.96 409.4 273.96 408.41 277.95"/><path class="cls-38" d="M437.17,258.94a.77.77,0,0,0,.79-.77v-3.63a.77.77,0,0,0-.79-.77h0a.78.78,0,0,0-.79.77v3.63a.78.78,0,0,0,.79.77Z"/><path class="cls-38" d="M411,258.94a.77.77,0,0,0,.79-.77v-3.63a.77.77,0,0,0-.79-.77h0a.78.78,0,0,0-.79.77v3.63a.78.78,0,0,0,.79.77Z"/><path class="cls-36" d="M501.69,282.88s-8.91-31.36-9.15-32.37a2.48,2.48,0,0,0-2.79-1.77c-1.8.13-32-.06-32.74.09a1.29,1.29,0,0,0-1,1.65c.24.74,9.61,32.91,9.61,32.91Z"/><path class="cls-36" d="M523.65,283l-22-.16-36.1.51s.44,3,2.56,3.18c3.63,0,52.27-.05,53.58,0C523.44,286.64,523.65,283,523.65,283Z"/><polygon class="cls-37" points="489.84 251.09 459.33 250.99 468.81 283.27 498.83 283.19 489.84 251.09"/><path class="cls-1" d="M479.06,269.77l-4.23-9.95c-3.64,1.57-5.28,6.55-3.66,11.77,1.76,5.69,6.73,9.49,11.09,8.49,3.11-.71,5.07-3.69,5.29-7.41Z"/><path class="cls-39" d="M487.27,267.32l0-.09c-1.71-5.71-6.64-9.58-11-8.66a5.86,5.86,0,0,0-1.05.34l4.11,9.93Z"/><path class="cls-4" d="M479.86,269.38l0,.07,8.47,3.07a13.11,13.11,0,0,0-.5-4.61Z"/><path class="cls-40" d="M418.2,176.22l3.05-1.72s1.9-3.89,4-7.37c2-3.28,8.59-3.72,9.4-4,1,1.57-2.51,2.58-4.19,2.91a3.61,3.61,0,0,1,.76,3.4c-.48,1.09-2.8,1.9-3.13.59a1.41,1.41,0,0,0-.83,1.46c0,.74.45.9,2,.1,3.08-1.54,3.73-1,4.34-.39-.54.75-5.62,4-6.9,5.59a2.45,2.45,0,0,1-2.81.94l-4.47,2.87Z"/><path class="cls-41" d="M419.94,175.16C402.42,185.82,392,190,387.19,191.86S382,205.61,392,203s30-22.09,30-22.09A10.63,10.63,0,0,0,419.94,175.16Z"/><path class="cls-42" d="M348.86,191.43c5.94-2.32,20.09,4.26,38.35.47,7.76-1.61,13,9.86,1.66,11.86s-24.71,4.1-30.95,8.14C354.11,207.72,345.92,192.59,348.86,191.43Z"/><path class="cls-3" d="M322.53,322.85c3.45-15.84-.95-35.3.79-42.12s6.62-5,6.62-5,12.78,41.55,11.63,47.14Z"/><path class="cls-4" d="M362.79,322.85c.35-26.47-4.28-54.64-4.28-54.64l-28.42-5.77s-10.56,20.89-5.06,27.49c8.75,10.52,8.1,20.4,9,32.92Z"/><path class="cls-1" d="M333,265.27l29-.4s-.41-29.74,2.9-34.37,3.67-5.84,3.44-10c-1.74-3.56-13-18.09-18.36-27.13s-13.67-6-13.67-6Z"/><path class="cls-4" d="M325.69,294.64c.06-6.06-.27-7.49.6-15.92C327.66,265.49,330,261,330,261s16.58,4.07,31.89,3.85c-.1,11.6-5.07,33.14-5.07,33.14S337.85,295,325.69,294.64Z"/><path class="cls-43" d="M359.46,181.11c-5.69,1.83-9.24,13.89-9.26,16.15-1.91,4-13.9-9.94-13.9-9.94s3.22-3.08,3.59-6.82-1.64-18.33-1.64-18.33S364.67,179.44,359.46,181.11Z"/><path class="cls-40" d="M346.19,167.76s-3.93-3.38-5.56,1.2,6.12,5.62,6.12,5.62,5.14,6.48,9.64,6.76a62.91,62.91,0,0,0,6.55-.26.94.94,0,0,0,.91-.86c0-.45-.26-10.75-.26-10.75s2.63-1,1.15-2c-7.66-5.33-3.79-13-11.66-14.39Z"/><path class="cls-3" d="M348.68,166.37c-4.48,0-3.72-4.65-2.42-9.53,1.05-3.92,5.68-7.8,8.07-8.6s18.86,2.68,4.45,15.17C355.94,165.88,350.66,166.38,348.68,166.37Z"/><path class="cls-44" d="M351.62,260c6.72-1.92,8.06-13.8,8.06-13.8S328,253,328.83,255.09C330.89,260.47,344.91,261.88,351.62,260Z"/><path class="cls-45" d="M378.32,275a2.48,2.48,0,0,1-3.38.8l-19.3-11.62a2.38,2.38,0,0,1-.81-3.32l16.67-26.73a2.47,2.47,0,0,1,3.37-.8L394.17,245a2.4,2.4,0,0,1,.82,3.32Z"/><path class="cls-40" d="M364.72,245.05l-.75,0s4.52,3,13.06,5.21c1.5.39.15,2.06.15,2.06s1.7,1.15.24,1.45-5.91-.35-5.91-.35,3,1.13,3.47,1.27-.13,2.33-4.14,1.17c-1.52-.44-12.14-1.59-13.37-5.87-.47-.08-3.61-.17-3.61-.17l.37-5.75s5.93-1.21,12.18-1.78Z"/><path class="cls-42" d="M356,243.38l-41.83,3.26s9.05-16.07,12.77-24.58-12-16.25-12-16.25-14.44,38.72-14.7,46.13,14.23,8.45,29.22,4.49,25.89-5.84,25.89-5.84Z"/><path class="cls-42" d="M337.32,185.78l-3.71,3.56,9.65,15.18a18.34,18.34,0,0,0,7.75-5.58C343,195,337.32,185.78,337.32,185.78Z"/><path class="cls-3" d="M320.23,177.3c.66.62,3.95,1.2,4.58-.68,1.82-6.4,6.22-19.43,11.08-24.92,7.54-8.53,20.38-5.72,21.37-.52,0,.94,2.54,5.72-.06,8.29a.61.61,0,0,1,.05.12l-.22,0c-1.24,1.08-2.73,1-3.83,1.48-1.12.9-1.53,2.28-2,4.14-.32,1.21-1.92,13-5.95,19.33-3.05,4.77-6.72,6.11-9.6,7.12C323,195.81,315.84,185.07,320.23,177.3Z"/><path class="cls-40" d="M281.65,276.68a12.16,12.16,0,0,0,1.81,2.69c1.59,1.32,8.06,6.49,8.06,6.49s1.58-1.06,0-3c-.83-1-1.8-2.53-1.8-2.53l5.72.67s3.5,3.5,4.06,3.87,2,.15,1.89,0L297,278.71a1.75,1.75,0,0,0-1.25-.88,1.82,1.82,0,0,0-1.37-1.46c-.88-.08-8.52-2.17-8.52-2.17l-4.22-.6Z"/><path class="cls-44" d="M253,204.9s3.73-1.26-.8,22.35c-4.9,25.52-11.76,42.13-11.76,42.13l42,4.22-.65,6.2s-33.49,2.89-48.91,3.91-14.52-10.48-14.52-10.48-8.17-44.62,3.72-55.21S253,204.9,253,204.9Z"/><path class="cls-42" d="M230.39,293.89c.18-1.3,2.64-18.5,19-33.36,11.84-10.74,14.51-44,12.79-48.54-2.42-6.47-8.38-11.65-8.38-11.65L250,202.15a55.56,55.56,0,0,0-27.88,8.56c-22.67,14.85-39.4,81.52-39.4,81.52S219.78,297.07,230.39,293.89Z"/><path class="cls-46" d="M260.67,218.77a21.16,21.16,0,0,1-.15,2.74c-.55,2.05-.73,2.65-.73,2.65a69.22,69.22,0,0,1-1.9,30.22c-2.64,9.16-3.22,36.65-3.22,36.65l-6.92,8.36L239,290.23s3.18-23.79,11.15-36.45c5.28-8.37,7.32-29.63,7.32-29.63a15.1,15.1,0,0,1-2.75-4.42C259.32,219.73,260.67,218.77,260.67,218.77Z"/><path class="cls-40" d="M256.44,284.59l3.17.55s1.5,1.67,2.47,1.78a12.5,12.5,0,0,0,5.63-.66c2.46-.89,8.79-2.95,8.79-2.95s3.4,3,4.05,3.15,1.65-.45,1.5-.62a84.46,84.46,0,0,0-6.8-6.11,5.43,5.43,0,0,0-4.68-.87s-4,.95-6.16,1.53-6.64-1.28-6.64-1.28Z"/><path class="cls-44" d="M217.71,225.63c-6.37,11.56-12.82,34-16,44.51-2.42,8,8.54,14.34,8.54,14.34L230.73,290l4.47-10.91s-.32-2.19-4.18-4.26c1.27-2.78,2.72-24.58,5-44.56C238.19,212.19,225.93,210.73,217.71,225.63Z"/><path class="cls-1" d="M215.9,219.09c-6.37,11.56-16.63,32.73-19.63,43.3-1.38,4.87-.21,13.18,12.2,16.42,13.54,4,48.36,7.69,48.36,7.69l2.15-6.94s-26.23-8.68-43-13.73c1.27-2.78,18.36-22.52,24.06-41.84C245.45,205.69,224.11,204.19,215.9,219.09Z"/><path class="cls-43" d="M253.64,202.2a18.19,18.19,0,0,0,6.6-6.27c6.62-3.27,9.85-1.49,9.85-1.49s1.91,6.43.36,9.76c-1.42,3.06-3.13,7-1.83,7.88,2.68,1.81,6.69,4.81,6.69,4.81s-9.54-3.45-14.83-.92C255.9,210.12,253.64,202.2,253.64,202.2Z"/><path class="cls-40" d="M272.25,220c-1.84-1.85-2.47-3.81-4.3-5.73-2.6-2.72,0-6.27,0-6.27l2.22-3.54s-3.36-4-3.28-5.73c0-.7.9-3,3.81-2,4.32,1.51,8.43-8.75,8.43-8.75l5.54,2.55,2.21,5.41-3.7,16.37a1,1,0,0,1-1.39.09c-.91-.59-1.15-.49-1.15-.49s-6,7.8-6.38,8.15A1.42,1.42,0,0,1,272.25,220Z"/><path class="cls-4" d="M270.81,184.34c8.27-3.4,15.19,6.41,20.28,4.7a5.19,5.19,0,0,1-4.38,7.74c-3.38-3.39-8.11-4.29-9.13-1.09-.27.54-1.05,4.71-3,6.19-.92.82-1.5,1.07-2.29-.33.32-1.59.5-4.48-2.73-5.13-1.89-.37-2.69,3.92-9.65.12C261.33,194.66,264,183.43,270.81,184.34Z"/><path class="cls-4" d="M278.23,215.4a3.46,3.46,0,0,0,2.74-3.5c-1.75-1-3.32.79-4.78,1-4.51-4.5-4.1-8.53-2.1-10.49,3.47-3.42,2.6-8.87,3-9.57-4.25,1.1-4.14,6.93-5.29,9.26a8.72,8.72,0,0,1-3.21,2.9,8.8,8.8,0,0,0-3.65,4.11c-1.55,4.26,3.46,10,7.12,12.29S278.23,215.4,278.23,215.4Z"/><path class="cls-44" d="M253.89,200.23l-4,1.89,1.7,17s8,.34,10.09-1.6C257.42,211.23,253.89,200.23,253.89,200.23Z"/><path class="cls-47" d="M261.68,322.85V300.09c0-3.55,1.28-4.81,4.89-4.81H540.89c3.61,0,4.89,1.26,4.89,4.81v22.76H555V300.09c0-8.55-5.4-13.86-14.1-13.86H266.57c-8.7,0-14.1,5.31-14.1,13.86v22.76Z"/><path class="cls-48" d="M297.17,282.8s8.09-28.45,8.3-29.36a2.25,2.25,0,0,1,2.54-1.6c1.63.11,29-.06,29.69.08a1.17,1.17,0,0,1,.94,1.49c-.21.67-8.71,29.85-8.71,29.85Z"/><path class="cls-48" d="M273.93,283.22l23.25-.43,32.75.47s-.41,2.72-2.32,2.89c-3.3,0-50.74,0-51.93,0C274.12,286.21,273.93,283.22,273.93,283.22Z"/><polygon class="cls-1" points="307.92 253.97 335.59 253.88 326.99 283.15 299.76 283.08 307.92 253.97"/><polygon class="cls-49" points="303.36 274.73 307.66 274.73 306.4 279.11 302.1 279.11 303.36 274.73"/><polygon class="cls-33" points="317.21 270.81 321.51 270.81 319.12 279.11 314.82 279.11 317.21 270.81"/><polygon class="cls-50" points="312.5 265.04 316.8 265.04 312.76 279.11 308.45 279.11 312.5 265.04"/><polygon class="cls-49" points="326.63 261.19 330.93 261.19 325.79 279.11 321.49 279.11 326.63 261.19"/><rect class="cls-3" x="176.34" y="270.74" width="2.53" height="52.26"/><path class="cls-4" d="M172.36,284.89a3.15,3.15,0,0,0,3.17,3.12h4.12c1.75,0,9.76-1.49,9.76-8.94s-8.08-9-9.76-9h-4.12a3.14,3.14,0,0,0-3.17,3.12Z"/><path class="cls-3" d="M138,171s10.59-2,8.13-11.19c-2-7.52-11.1-10.64-20.25-6.46-6,2.73-9.41,7.23-10,11.43-1.94,14.83-9.24,20-6.53,28,2.16,6.39,4.75,6.44,8.63,9.59,5.5,4.46,17.18-.3,19.94-2.58C147,192.45,138,171,138,171Z"/><path class="cls-51" d="M165.29,158.57A10.59,10.59,0,0,0,160,172.74,11,11,0,0,0,174.4,178Z"/><path class="cls-4" d="M189.49,159c3.73,7.6,2,12.55-.49,13.9s-11.8,4.88-13.19,5.57c-1.92.94-5.13,1.87-10.18-6.94-4.42-7.71-2.55-13-.58-14.29s9.58-5.41,11.91-6.42S185.05,150,189.49,159Z"/><path class="cls-4" d="M191.19,185a4,4,0,0,1-1.54,5.49l-1.27.76a4.14,4.14,0,0,1-5.68-1.12l-12.25-19.51a4,4,0,0,1,1.54-5.48l1.27-.77a4.14,4.14,0,0,1,5.67,1.12Z"/><path class="cls-33" d="M202.76,119.45c-11.12,22.36-16.55,25.84-22.11,30.48-7.5,6.25,2.46,21.4,9.15,21.69,7.45.33,13.25-1.29,36.83,3.15Z"/><path class="cls-46" d="M237.52,137.68c6.62,16.4,4.09,32.78-5.64,36.57s-23-6.43-29.61-22.84-4.1-32.77,5.64-36.56S230.9,121.28,237.52,137.68Z"/><path class="cls-1" d="M236,139c5.46,14.93,2.82,29.53-5.88,32.6s-20.19-6.54-25.65-21.47-2.82-29.53,5.89-32.6S230.56,124.1,236,139Z"/><path class="cls-4" d="M202.82,144.37,222,138.66,227,151.15,209.15,160s-1-1.28-3.31-6.34A44.43,44.43,0,0,1,202.82,144.37Z"/><path class="cls-51" d="M229.06,143.18c1.36,3.46.33,7.07-2.3,8.07s-5.86-1-7.22-4.46-.33-7.07,2.3-8.06S227.7,139.72,229.06,143.18Z"/><path class="cls-40" d="M192,181.41a3,3,0,0,0,.16-1.36c-.14-.73-1.36-.89-1.36-.89a3.3,3.3,0,0,0-.18-1.41c-.48-.8-1.84-.75-2.34-.62a39.07,39.07,0,0,0-4.25,1c-.85.36.35,1.67,1.18,1.65-.14.26-.74.5-.17,1.16a2.34,2.34,0,0,0,1.34.82.8.8,0,0,0-.17,1.22c.53.84,4.07.86,4.36.94.51,1.33,1.19,3.28.74,4.47a5.94,5.94,0,0,1-6.93,3.16,12.13,12.13,0,0,0-2.53-5.43c-.12-1.44,1.28-3.67.85-5.54s-1.7-1.77-1.7-1.77a28.4,28.4,0,0,1-1.22,4c-.9,2.4-1.31,4-1.31,4s.5,4.21,2,6.32c-.15,1-8.28,20-8.28,20L180,213s4.92-16.47,5.64-18c7.33-2.42,8.06-10.37,7.91-11.27C193.19,181.46,192,181.41,192,181.41Z"/><path class="cls-3" d="M107,322.85c3.33-16.25-1.92-29.45-.25-36.45s6.39-5.15,6.39-5.15l10.9,41.6Z"/><path class="cls-4" d="M151.53,322.85c-1.91-16.52-7.57-49.3-7.57-49.3L109.8,271.1s-7.72,18.15-1.8,24.34c11,11.56,13.28,26.74,13.38,27.41Z"/><path class="cls-4" d="M131.61,194.08c17.93,5.58,26,22.91,35.27,26.14,2.72-3.05,10.48-21.6,12.18-25.71a21,21,0,0,1,6.69,2.09s-5.93,33.87-13.59,37.47S127,213.12,127,213.12,116.36,189.33,131.61,194.08Z"/><path class="cls-1" d="M118.37,267.6l31-.31s-2.82-27.68.57-32.44,3.76-6,3.54-10.27c-1.79-3.65-13.39-18.56-18.84-27.83s-14-6.21-14-6.21Z"/><path class="cls-4" d="M115.19,297.48c0-6.23-5.71-4.49-4.82-13.14a44,44,0,0,1,8.71-22.18s17.26,4.08,30.43,5.13c-.1,11.9-3.5,31.95-3.5,31.95S127.66,297.87,115.19,297.48Z"/><path class="cls-3" d="M105.52,290.37s11.47,5.27,16.57,4.95c4.15-4.38,4.79-21.3,4.79-21.3Z"/><path class="cls-4" d="M98.79,209.52a7.74,7.74,0,0,1,1.78-3.11c1.17-1,20.08-15.87,20.08-15.87s15.21,20.34,17.14,46.13c.41,9.27-3,22.47-17.18,54.42-6.28,1.16-11,1.06-20.2-.62.64-20.89,14.24-29.86,12.27-50.79C111.4,226.1,98.79,209.52,98.79,209.52Z"/><path class="cls-45" d="M121.85,189.64l-6.49,4.94S128.69,212.92,132,212C130.3,207.13,121.85,189.64,121.85,189.64Z"/><path class="cls-40" d="M116.41,257.84l11.39,2.6s4.35-1.78,8.57-3.09c4-1.23,9.58,3,10.43,3.39-.35,1.95-3.88.3-5.47-.61a3.9,3.9,0,0,1-1.85,3.26c-1.18.53-3.63-.44-2.94-1.72a1.56,1.56,0,0,0-1.73.59c-.51.6-.29,1,1.56,1.51,3.59.92,3.71,1.82,3.77,2.73-1,.22-7.4-.74-9.58-.36a2.61,2.61,0,0,1-2.94-1.22l-15.22-1.76Z"/><path class="cls-4" d="M120.45,258.75l-30-8.44s12.62-16.07,18.24-24.17-8.77-18.6-8.77-18.6-22.9,37.37-24.68,45,9.9,10.25,26.16,12.45c14,1.88,16.66,1.88,16.66,1.88Z"/><path class="cls-43" d="M144.61,185.46c-5.07.57-8.51,10.72-10.3,15.67-2.55,4.05-13.68-12-13.68-12a10.51,10.51,0,0,0,4-6c.86-3.93.23-13.53.23-13.53S150.44,184.81,144.61,185.46Z"/><path class="cls-3" d="M118.86,164.62c5.52-9.64,14.87-12.89,16.28-7.91a24.35,24.35,0,0,1,.26,5.78,17.23,17.23,0,0,1-2.07,6.21c-1.22,2.32-3,3.84-3.62,5.29-2.32,5.08-.57,8.22,0,12.07.39,3.22-2.51,7.42-5.62,8.45-6.14,2-9,.16-11.11-1.84C110.18,187.47,114,173.06,118.86,164.62Z"/><path class="cls-40" d="M131.12,171.62s-3.42-2.29-4.36.77c-1,3.26,4,4.67,4,4.67s5.81,8.41,10.26,8.59a63.17,63.17,0,0,0,6.48-.39.93.93,0,0,0,.88-.87c0-.44-.48-10.63-.48-10.63s2.16-1.17.79-2.3c-7.69-6.33-3.94-12.62-11.53-13.68C139.21,169.38,131.12,171.62,131.12,171.62Z"/><path class="cls-40" d="M548.15,278.71s-1.58,2.89-3.35,6c-1,1.71-2.48,1.35-5,1.48-1.39.08-1.93-.74-9.34.5-1.87-2,5.27-3.18,5.27-3.18s-3.41-.61-6.69-1a46.61,46.61,0,0,0-6,3.23c-1.85,1.09-3,.28-3.18-.2,1.13-1.36,5.63-4.53,6.74-5.49,2.89-2.5,4.5-2.73,7.49-1.68a41.66,41.66,0,0,0,5.91,1.36l3-6.72Z"/><path class="cls-40" d="M481.07,205.61a2.85,2.85,0,0,1-1.45-1.23c-.35-.54,0-1.66,0-1.66s-1.2-.46-1.37-.85a1.81,1.81,0,0,1,.38-1.91c.34-.28,4.05-2.47,5.24-2.3a1.19,1.19,0,0,1,.25,2c.26,0,.74-.26.91.47a2,2,0,0,1-.1,1.35s1.1-.33,1.05.51a4.38,4.38,0,0,1-.35,1.11c2.11-.15,4.6-.17,4.13-2.32-1-.82-2.65-1.8-3.88-2.95-1.54-1.43-.45-2.27-.45-2.27a23.78,23.78,0,0,0,4.34,1.82,24.62,24.62,0,0,1,4.86,2.23,11.35,11.35,0,0,1,2.69,3.06,14.83,14.83,0,0,1,1.29,2.45l5.17,2.19L500.17,212s-4-1.49-5.17-2.13c-4.34-.72-11.48-1.51-12.15-1.71C480.48,207.47,481.07,205.61,481.07,205.61Z"/><path class="cls-41" d="M566.1,167.15s-13.54.67-19.64,17.56c-4.69,13-1.75,23.14-7.42,35.2-4.45-2.42-39-14.26-39-14.26l-3.49,7.83s18.33,12.2,33.35,18.31c12.49,5.07,18.46,2.57,21.19-.82s25.24-40.23,25.24-40.23Z"/><path class="cls-1" d="M623.56,254.32s-6.86-13.71-9.78-23.41c-7.6-33.59-9.9-52.82-22.8-61.42-2.15-1.43-21.44-8.07-21.44-8.07l-2-2.94-5.74,1.19s-11.17,13.39-11.8,14.25c.72,1.53,3.06,5,4.13,6.88-.39,23.22,1.62,33.16,10.7,50,6.13,11.33,7,19.15,11.82,33.18C609.58,273.23,623.56,254.32,623.56,254.32Z"/><path class="cls-41" d="M580.65,242.68c-6.46,9.56-9.37,5-11.82-3.92s14.1-51.22,18.24-46.77C592.58,197.91,591.55,226.54,580.65,242.68Z"/><path class="cls-3" d="M574.78,322.85l1.57-59.73,42.47-1.6s-15.52,36.65-18.25,61.33Z"/><path class="cls-4" d="M623.45,322.85c-1.14-16.58.25-30.45.69-39.14.71-14.21,3-18.76-.82-29.56-13.44,9-38,8.59-38,8.59l12.79,60.11Z"/><path class="cls-4" d="M485.57,204.34l-2-21.47s.76-3.6.9-4.16.45-.36.59,0l1.6,4L488.53,204Z"/><path class="cls-40" d="M484.68,201.67s.73-.49,1.17-.08c1.11,1-.73,2.64-.73,2.64Z"/><path class="cls-40" d="M489.41,197.29l-4-1.73s-1.59.69.25,2.3a22.8,22.8,0,0,0,4.18,2.77Z"/><path class="cls-43" d="M556.58,176a12.73,12.73,0,0,0-2.88-4.6,42.8,42.8,0,0,0-7.73-5c-1.43-.6-5.52-.62-5.52-.62s-.93-21.45,8.81-22.21S563.33,154,563.33,154s-.49,3.05,3.35,5.89C570.2,162.55,556.58,176,556.58,176Z"/><path class="cls-46" d="M556.6,173.21s-1.11,1-1.59,3.93a13.51,13.51,0,0,0,.46,3.38A286.58,286.58,0,0,0,550,215.25c-2.23,26.88-3.44,36.81-3.44,36.81l6.51,9.16,10.06-9.87s-2.7-10.36-6-35.63a121.55,121.55,0,0,1,1-34.91s2.36-2.8,4.15-4.85A41.42,41.42,0,0,0,556.6,173.21Z"/><path class="cls-41" d="M567.53,158.48l3.7,3.56-8.58,14.81a18.46,18.46,0,0,1-7.75-5.58C563,167.27,567.53,158.48,567.53,158.48Z"/><path class="cls-1" d="M565.74,189.38c-5.22,19.52-5.19,26.34-6,31.43C558.1,233,541.24,276,541.24,276l8.63,2.95s17.47-32.15,24.37-43.13c1.27-3.54,12-19.36,16-41C595.1,167.79,573,162.4,565.74,189.38Z"/><path class="cls-40" d="M551.8,148.09s2.42-4.13,5.24-.55-3.07,7.53-3.07,7.53-2.88,8.88-7,9.8a55.2,55.2,0,0,1-8.1,1.08c-.43,0-1.12,0-1.26-.43s-1.09-12-1.09-12-1.7-.14-1.16-1.7c2.13-6.17,2.55-11.1,4.92-12.74,0,0,5.86-7.38,8.69-4.49S551.8,148.09,551.8,148.09Z"/><path class="cls-4" d="M547.72,148.45c-.66,1.26,2.95,3.24,4,.92s3.09-2.42,4.58-.93.39,4.73,1.76,7.1c.89,1.55,5.29,1.41,6,1.51-.55-4,2.71-17.68.21-19.65s-10.13-6.36-17.31-6.34-11.39,2.78-7.27,8.58C556.49,132.74,548.08,147.75,547.72,148.45Z"/><path class="cls-40" d="M616.25,221.88c-.76-.31-4.24.6-5.06.75-.47.08-4.61,1.33-5,1.54s-1.77.42-1.6,1,.67,1,1.8.95a32.2,32.2,0,0,0,4.49-1.13l.88.37a10.32,10.32,0,0,0-1.84.56c-.34.22-6.35,4-6.4,4.38s.94,1.44,1.61,1.24a5.91,5.91,0,0,0,2-1,14.67,14.67,0,0,1-1.29,1.08c-.47.32-.12,1.85.76,1.75s4.12-2.41,4.12-2.41l2.88-.68s-4.69,3.75-4.81,4a.89.89,0,0,0,1,1.25c2-.4,5.28-3.19,5.28-3.19a31.62,31.62,0,0,1,4,.16c1.25,1.89,4.39,2,6,.88,2.12.12,16.07,5.35,26,8.24,5.82-1.76,3-8.08,2.86-9.16-14-2.58-29.68-5.34-29.68-5.34S617,222.19,616.25,221.88Z"/><path class="cls-4" d="M586.81,219.58c-.3-.3-.43-.49-.38-.84a1.18,1.18,0,0,1,.42-.74l1-.79,11.07-6.69c.25-.18.83,0,1.3.51l20.31,20.73c.32.32,2.37,2.35,3,2.85,0,.1.16,2.28.08,2.34l-7.06,9.3-1.35,1.07c-.25.19-.9-.09-1.37-.56Z"/><path class="cls-37" d="M588.2,218.44c-.47-.47-.65-1-.23-1.34l10.79-8.1c.2-.13.78.14,1.25.61l25.3,25.26c.47.47.5,1.19.25,1.38l-9,10c-.25.18-.83-.05-1.29-.52Z"/><path class="cls-51" d="M594.28,211.39c-.74-.87-1.56-1.91-2.69-1.21,0,0-.4.35-.44.37-1.1.77-.26,1.7.74,2.67,0,0,.05.11,0,.14l-1.68,1.24a.67.67,0,0,0-.26,1l.64-.46,1.11.95c.71.72,1.57,1.07,2.17.7l4.62-3.49c.44-.35.36-1-.52-1.88L596.51,210l-2,1.54S594.38,211.51,594.28,211.39Z"/><path class="cls-40" d="M619.06,225.22s-1.15-3.13-3.89-3.73-6.57-1.38-7.6-1.63-.44,3,2.47,3.3a14.4,14.4,0,0,1,6.41,2.61Z"/><path class="cls-4" d="M657.42,187.1c-3.57,1.47-10.25,5.66-12.89,13.58s.69,20,1.49,23.75,2.19,13.8,4.49,14.93,11.75,2.95,12.67-10.18S661,185.63,657.42,187.1Z"/><path class="cls-1" d="M684.82,201.07c1.86,1.28.84,9.34-4.27,17.71-6.11,12.56-11.37,26-8,38.38-9.52,2.57-25.21,14.54-27.29,6.73s-1.84-27.48-4.6-32.52c-2.23-4.06-3.38-5.16-3.46-9.39,1.51-3.71,10-19,14.72-28.45s13.35-7.05,13.35-7.05S676.16,194.93,684.82,201.07Z"/><path class="cls-4" d="M645.15,263.54c11.9-1.8,27.27-6.81,27.27-6.81a28,28,0,0,1,2.12,2.79c4.59,4.36,9.3,12.58,9.87,19.7s-2.94,15.71,1.1,32.88a72.59,72.59,0,0,0,.31,10.75h-40c.15-13.2,1.21-29.55,1.77-42.75C646.58,274.53,645.56,268.37,645.15,263.54Z"/><path class="cls-43" d="M643,181.68c5.45,1.35,9.57,12.4,9.75,14.52,2,3.64,12.33-10.21,12.33-10.21s-3.21-2.67-3.81-6.14.31-17.26.31-17.26S638,180.45,643,181.68Z"/><path class="cls-3" d="M666.44,160s8.5-4.16,10.18,4.73-3,23.19-2.3,25.8,3.71,4.59-3.49,2.54-.35-20.54-1.46-23.62a10.15,10.15,0,0,0-3-4.47Z"/><path class="cls-40" d="M654.53,168.33s3.44-3.42,5.28.77-5.35,5.65-5.35,5.65a28.58,28.58,0,0,1-2.43,3,16.9,16.9,0,0,1-3.92,3.2,6.49,6.49,0,0,1-2.22.78c-2,.27-5.72.15-6.14.18a.88.88,0,0,1-.91-.75c0-.42-.48-10.08-.48-10.08s-2.52-.72-1.21-1.77c6.82-5.48,2.68-12.36,10-14.22Z"/><path class="cls-3" d="M643.73,152.19s-15.07,5.07-.29,15.3S643.73,152.19,643.73,152.19Z"/><path class="cls-3" d="M647.68,169.64s2.81,1.39,5.07,0c1.46-.89,2.88-1.63,4.19.12s-.08,5.59,1,8.21a3.85,3.85,0,0,0,3.16,2.43,29.77,29.77,0,0,0,3.47-1.27c2.1-.9,8.19-16.5,5.92-18.87s-13-9.49-20.32-10.5-8.31,4.42-4.95,10.95S647.68,169.64,647.68,169.64Z"/><path class="cls-4" d="M688.45,203.94s-.79-2.62-2-3.52-21-14.21-21-14.21-13.69,21.3-13.78,46.79c.15,5.79,1.2,11,6.06,21.83,2.81,6.24,14.17,5.12,20.31.45-1.53-5.88-2.15-12.07-1.47-21C677.58,220.85,688.45,203.94,688.45,203.94Z"/><path class="cls-41" d="M664.74,185.73l6.76,4.44s-12.38,18.41-15.76,17.72C657.24,201.13,664.74,185.73,664.74,185.73Z"/><path class="cls-3" d="M655.69,250.28l2.11,4.61a43.92,43.92,0,0,0,9.29,3A14,14,0,0,0,678.46,255Z"/><path class="cls-40" d="M647.26,242.14a117.57,117.57,0,0,0-16.18-5c-.17,3.06,6.16,4.26,6.16,4.26s-14.63,3.83-15.35,4.1-.5,1.84-.5,1.84-1.93.84-.52,1.42,8.18-.25,8.18-.25-5.37,1.57-5.89,1.62.18,1.95,4.44,1.51c1.63-.17,13.23,0,15.28-4.08.48,0,3.67.49,3.67.49Z"/><path class="cls-4" d="M645.68,241.23l42.16,4.1s-8.32-17.28-11.88-26.12,12.3-15.79,12.3-15.79,13.63,40.15,13.67,47.76-14.86,8.24-30.11,3.74-26.38-6.76-26.38-6.76Z"/><path class="cls-45" d="M440.29,148.2a1.4,1.4,0,0,1-1.42,1.38h0a1.4,1.4,0,0,1-1.41-1.38v-6.58a1.4,1.4,0,0,1,1.41-1.39h0a1.4,1.4,0,0,1,1.42,1.39Z"/><path class="cls-45" d="M445.49,148.2a1.4,1.4,0,0,1-1.41,1.38h0a1.4,1.4,0,0,1-1.41-1.38v-6.58a1.4,1.4,0,0,1,1.41-1.39h0a1.4,1.4,0,0,1,1.41,1.39Z"/><path class="cls-45" d="M450.76,148.2a1.4,1.4,0,0,1-1.41,1.38h0a1.4,1.4,0,0,1-1.41-1.38v-6.58a1.4,1.4,0,0,1,1.41-1.39h0a1.4,1.4,0,0,1,1.41,1.39Z"/><path class="cls-45" d="M455.78,148.2a1.4,1.4,0,0,1-1.42,1.38h0A1.4,1.4,0,0,1,453,148.2v-6.58a1.4,1.4,0,0,1,1.41-1.39h0a1.41,1.41,0,0,1,1.42,1.39Z"/><rect class="cls-45" x="435.28" y="150.66" width="22.04" height="3.47"/><polygon class="cls-45" points="454.05 135.92 446.59 132.42 438.67 135.92 435.27 135.92 435.27 139.39 457.32 139.39 457.32 135.92 454.05 135.92"/><path class="cls-11" d="M472.62,87.4h-1.33l-1.12,0h0l.87,6.14a.39.39,0,0,1-.09.33,8.2,8.2,0,0,1-1,.94h0a8.37,8.37,0,0,1-1.06-.93.39.39,0,0,1-.1-.34l.57-6.13h0l-1,0H467A1.61,1.61,0,0,0,465.36,89v8.12a1.61,1.61,0,0,0,1.49,1.59l.71,8.63a1.39,1.39,0,0,0,1.35,1.28h1.78a1.4,1.4,0,0,0,1.35-1.28l.72-8.63a1.6,1.6,0,0,0,1.49-1.58V89A1.61,1.61,0,0,0,472.62,87.4Z"/><path class="cls-11" d="M471.62,85a1.83,1.83,0,1,1-1.82-1.79A1.81,1.81,0,0,1,471.62,85Z"/><path class="cls-11" d="M483.68,87.4h-1.34l-1.11,0h0l.87,6.14a.39.39,0,0,1-.09.33,8.2,8.2,0,0,1-1,.94h0a8.37,8.37,0,0,1-1.06-.93.42.42,0,0,1-.1-.34l.57-6.13h0l-1,0H478A1.61,1.61,0,0,0,476.41,89v8.12a1.6,1.6,0,0,0,1.48,1.59l.72,8.63a1.38,1.38,0,0,0,1.34,1.28h1.78a1.39,1.39,0,0,0,1.35-1.28l.72-8.63a1.59,1.59,0,0,0,1.49-1.58V89A1.61,1.61,0,0,0,483.68,87.4Z"/><path class="cls-11" d="M482.67,85a1.83,1.83,0,1,1-1.82-1.79A1.8,1.8,0,0,1,482.67,85Z"/><path class="cls-11" d="M494.39,87.4h-1.34l-1.11,0h0l.87,6.14a.39.39,0,0,1-.09.33,8.2,8.2,0,0,1-1,.94h0a8.37,8.37,0,0,1-1.06-.93.42.42,0,0,1-.1-.34l.57-6.13h0l-1,0h-1.34A1.61,1.61,0,0,0,487.12,89v8.12a1.6,1.6,0,0,0,1.48,1.59l.72,8.63a1.38,1.38,0,0,0,1.34,1.28h1.78a1.39,1.39,0,0,0,1.35-1.28l.72-8.63A1.59,1.59,0,0,0,496,97.12V89A1.61,1.61,0,0,0,494.39,87.4Z"/><path class="cls-11" d="M493.38,85a1.83,1.83,0,1,1-1.82-1.79A1.81,1.81,0,0,1,493.38,85Z"/><path class="cls-4" d="M414.22,126.23l-9.58,12.07A1.88,1.88,0,0,0,405,141l.76.58a1.93,1.93,0,0,0,2.7-.33L418,129.14Z"/><path class="cls-4" d="M415.73,128.19a11.24,11.24,0,0,1-2-15.94,11.71,11.71,0,0,1,16.22-2,11.23,11.23,0,0,1,2,15.93,11.7,11.7,0,0,1-16.21,2Zm12.43-15.67A8.79,8.79,0,0,0,416,114a8.43,8.43,0,0,0,1.5,12,8.79,8.79,0,0,0,12.17-1.48,8.42,8.42,0,0,0-1.51-12Z"/><path class="cls-45" d="M465.77,123.15a4.5,4.5,0,0,1-5.2,3.63,4.43,4.43,0,0,1-3.69-5.1,4.5,4.5,0,0,1,5.19-3.63A4.45,4.45,0,0,1,465.77,123.15Z"/><polygon class="cls-45" points="423.12 119.96 422.52 118.4 449.63 108.24 461.96 121.86 460.69 122.97 449.14 110.21 423.12 119.96 423.12 119.96"/><path class="cls-45" d="M453.83,110a4.5,4.5,0,0,1-5.19,3.63,4.43,4.43,0,0,1-3.7-5.1,4.5,4.5,0,0,1,5.19-3.63A4.44,4.44,0,0,1,453.83,110Z"/><ellipse class="cls-46" cx="422.82" cy="119.18" rx="4.51" ry="4.43"/></g></g></svg>