<svg xmlns="http://www.w3.org/2000/svg" xmlns:xlink="http://www.w3.org/1999/xlink" width="787" height="324" viewBox="0 0 787 324"><defs><style>.cls-1{isolation:isolate;}.cls-2{fill:url(#linear-gradient);}.cls-3{fill:#fcce5b;}.cls-4{fill:#55b3c5;}.cls-5{fill:#144665;}.cls-6{fill:#95dbe2;}.cls-7{fill:#1a6388;}.cls-8{fill:#e8ac4c;}.cls-10,.cls-9{fill:#fff;}.cls-10{opacity:0.54;}.cls-11{fill:#35b0c1;opacity:0.55;}.cls-12{fill:#305d81;}.cls-13{fill:#e1b39d;}.cls-14,.cls-15{fill:#d2e8f2;}.cls-14,.cls-17{mix-blend-mode:multiply;}.cls-16{fill:#f0c0a7;}.cls-17{fill:#b0dde5;}.cls-18{fill:#ca8b32;}.cls-19{fill:#116793;}.cls-20{fill:#003853;}.cls-21{fill:none;}</style><linearGradient id="linear-gradient" x1="153.01" y1="610.42" x2="419.06" y2="113.78" gradientUnits="userSpaceOnUse"><stop offset="0" stop-color="#29abe2"/><stop offset="0.17" stop-color="#5abee9"/><stop offset="0.38" stop-color="#8fd2f1"/><stop offset="0.57" stop-color="#b9e3f7"/><stop offset="0.75" stop-color="#d7eefb"/><stop offset="0.89" stop-color="#e9f5fe"/><stop offset="1" stop-color="#f0f8ff"/></linearGradient></defs><g class="cls-1"><g id="Layer_2" data-name="Layer 2"><g id="Layer_1-2" data-name="Layer 1"><rect class="cls-2" width="787" height="323"/><path class="cls-3" d="M128.15,118.34l79.91-.54-.71,57.44-75.62,5.34s-8-49.78-9.42-55.41S128.15,118.34,128.15,118.34Z"/><polygon class="cls-3" points="500.2 222.81 366.12 232.97 362.56 113.02 497.15 113.84 500.2 222.81"/><path class="cls-4" d="M594.25,292.52s13.23-211.25,11.94-217.8S601.52,64,590.31,64s-98.35,2-104,2.92-8.66,0-8.77,8.53,3.35,169.89,3.35,172,1.25,3.63,7.12,4.15,76.9-.07,76.9-.07,23.15,39.15,25.29,41.75S594.25,292.52,594.25,292.52Z"/><path class="cls-5" d="M172.63,301.77c0,4.34-4.06,6.15-8.4,6.15l-46.08,1.72c-4.34,0-6.79-3.79-6.79-8.13L101,176.85c0-4.34,3.13-6.41,7.48-6.41L164,172.31c4.35,0,6.15,3.94,6.15,8.28Z"/><path class="cls-3" d="M534.86,197.13c1.81-1.43,2.68-19.2,3.59-28.32.19-1.83,2.68-2.29,3.77-1.45,1.55,1.19,5.57,2.11,8.26.29,4.66-3.15,3.38-10.63.39-12.87-5.7-4.28-8.28,3.54-9.9-2.41-.53-5,3.49-15.63-1.05-16.45s-16.42-1.6-18.33-.47c-5.74,3.41,0,3.58-1.46,10.9-.93,4.73-6.27,5.11-9.57,3.3-3.95-2.17-3.75-6-2.66-9,2.34-6.58-11.07-5.64-19-6-6.79-.26-13.3.09-17,1.58-3,1.22-1.34,8.5-1.65,19.31-.16,5.59-.26,13.14-.27,24.47,0,5.64-.38,10.67.32,13.51s3.67,3.17,8.86,2.53c9.74-1.18,14.71-.2,12.93,6-1.16,4,.36,9.56,5.13,10,6.55.64,11.3-3,9.26-9.05s4.5-8.47,11.59-8.08S533,198.56,534.86,197.13Z"/><path class="cls-6" d="M398.51,237.7a7.36,7.36,0,0,1-7.2,7.52l-173.15,7.94-27.39,22.39c-2.62,2.83-7.33,4-7.33-.12l-6.75-199a7.37,7.37,0,0,1,7.2-7.52L393.07,80.27c4,0,5.7,2.61,5.7,6.76Z"/><rect class="cls-6" x="545.36" y="104.28" width="5.14" height="8.66"/><rect class="cls-6" x="538.2" y="100.52" width="5.14" height="12.42"/><rect class="cls-6" x="530.78" y="90.98" width="5.14" height="21.96"/><path class="cls-5" d="M199,109.05l-5.62,12.73a1.71,1.71,0,0,0,.88,2.26l.79.35a1.72,1.72,0,0,0,2.27-.88l5.62-12.73Z"/><path class="cls-5" d="M200.71,110.44a10.32,10.32,0,1,1,13.61-5.27,10.33,10.33,0,0,1-13.61,5.27ZM208,93.92a7.74,7.74,0,1,0,4,10.2,7.74,7.74,0,0,0-4-10.2Z"/><path class="cls-7" d="M246.53,97.53a4,4,0,1,1-4.33-3.69A4,4,0,0,1,246.53,97.53Z"/><polygon class="cls-7" points="205.29 101.57 204.42 100.33 225.64 85.46 242.94 97.22 242.09 98.48 225.65 87.31 205.29 101.57 205.29 101.57"/><path class="cls-7" d="M229.66,86.06a4,4,0,1,1-4.33-3.69A4,4,0,0,1,229.66,86.06Z"/><path class="cls-3" d="M208.86,100.63a4,4,0,1,1-4.33-3.69A4,4,0,0,1,208.86,100.63Z"/><path class="cls-8" d="M228,114.55v-2.94a3.81,3.81,0,0,1,7.62,0v1.86h1.93v-1.86a5.74,5.74,0,0,0-11.48,0v2.94h-1.3V125H239V114.55Zm5.11,8.51h-2.5l.43-3.12a1.79,1.79,0,0,1-1-1.59,1.82,1.82,0,0,1,3.63,0,1.79,1.79,0,0,1-1,1.6Z"/><path class="cls-9" d="M589.58,96.71c0,8.88-7.44,16.07-16.63,16.07s-16.63-7.19-16.63-16.07a16.64,16.64,0,0,1,33.26,0Z"/><path class="cls-3" d="M573,113c-9.27,0-16.82-7.3-16.82-16.26S563.68,80.44,573,80.44s16.82,7.3,16.82,16.27S582.22,113,573,113Zm0-27.8a11.55,11.55,0,1,0,11.94,11.54A11.76,11.76,0,0,0,573,85.17Z"/><polygon class="cls-5" points="567.73 87.1 566.64 87.73 572.63 97.28 573.73 96.65 567.73 87.1"/><polygon class="cls-5" points="580.04 93.71 579.02 92.05 572.4 95.83 573.41 97.49 580.04 93.71"/><polygon class="cls-3" points="569.03 105.61 568.54 105.4 573.06 95.75 573.66 93.93 574.52 94.31 573.55 95.96 569.03 105.61"/><path class="cls-3" d="M573.86,96.29a1,1,0,0,1-.57,1.3A1,1,0,0,1,572,97a1,1,0,0,1,.58-1.29A1,1,0,0,1,573.86,96.29Z"/><polygon class="cls-3" points="416.17 105.44 410.22 99.49 416.17 93.55 416.17 97.42 416.17 101.56 416.17 105.44"/><path class="cls-3" d="M417.89,99.55a2.2,2.2,0,1,0,2.19-2.2A2.2,2.2,0,0,0,417.89,99.55Z"/><path class="cls-3" d="M424.12,99.55a2.2,2.2,0,1,0,2.19-2.2A2.2,2.2,0,0,0,424.12,99.55Z"/><path class="cls-3" d="M430.45,99.55a2.2,2.2,0,1,0,2.2-2.2A2.2,2.2,0,0,0,430.45,99.55Z"/><polygon class="cls-10" points="506.27 105.37 514.49 97.15 522.71 105.37 517.35 105.37 517.35 114.49 511.63 114.49 511.63 105.37 506.27 105.37"/><polygon class="cls-9" points="167.17 142.86 162.73 138.43 158.29 142.86 161.19 142.86 164.28 142.86 167.17 142.86"/><path class="cls-9" d="M162.77,144.15a1.64,1.64,0,1,1-1.64,1.64A1.65,1.65,0,0,1,162.77,144.15Z"/><path class="cls-9" d="M162.77,148.8a1.64,1.64,0,1,1-1.64,1.64A1.63,1.63,0,0,1,162.77,148.8Z"/><path class="cls-9" d="M162.77,153.53a1.64,1.64,0,1,1-1.64,1.64A1.64,1.64,0,0,1,162.77,153.53Z"/><polygon class="cls-11" points="148.25 222.35 152.95 217.65 148.25 212.96 148.25 215.68 124.63 215.68 124.63 219.7 148.25 219.7 148.25 222.35"/><path class="cls-4" d="M479.45,195.16l-.09-4.14,1.45,0,.08,4.14-1.44,0Zm-.16-7.75-.15-7.22,1.44,0,.15,7.22-1.44,0Zm-.23-10.83-.15-7.22,1.44,0,.15,7.22-1.44,0Zm-.23-10.84-.15-7.22,1.45,0,.15,7.22-1.45,0Zm-.22-10.83-.15-7.22,1.44,0,.15,7.22-1.44,0Zm-.23-10.83-.15-7.22,1.45,0,.15,7.22-1.45,0Z"/><path class="cls-12" d="M466.39,134.61c-.11-1.52,2.77-2.8,2.21-4.18s-3.43-.84-4.26-2,.3-3.61-1-4.62-3.15,1.15-4.55,1.23-2.35-3.23-3.7-2.92-1.22,3.11-2.71,3.87-3.7-1.08-4.69.14.85,3.07.39,4.7-3.45,1.62-3.49,3.13,3,1.77,3.31,3.35-1.8,3.06-.65,4.63,3.25-.27,4.68.45.81,3.61,2.49,4,2.16-2.42,3.86-2.66,2.6,2.22,4.47,1.42.4-3.15,1.23-4.5,3.83-.31,4.36-1.79S466.5,136.13,466.39,134.61Zm-10.81,6.28a6.4,6.4,0,1,1,7.55-5A6.39,6.39,0,0,1,455.58,140.89Z"/><path class="cls-9" d="M447.81,148.15c-.1-1.41,2.57-2.6,2-3.87s-3.17-.78-3.93-1.82.27-3.34-.91-4.28-2.91,1.06-4.2,1.14-2.18-3-3.42-2.7-1.14,2.87-2.51,3.58-3.42-1-4.34.13.79,2.84.36,4.35-3.2,1.5-3.23,2.89,2.76,1.64,3.06,3.11-1.66,2.83-.6,4.28,3-.25,4.33.41.75,3.34,2.31,3.66,2-2.24,3.56-2.45,2.41,2,4.14,1.31.37-2.92,1.14-4.17,3.54-.28,4-1.65S447.91,149.55,447.81,148.15Zm-10,5.81a5.92,5.92,0,1,1,7-4.62A5.92,5.92,0,0,1,437.81,154Z"/><path class="cls-5" d="M258.87,102.92a1.31,1.31,0,0,1-1.41,1.21h0a1.31,1.31,0,0,1-1.21-1.42l.48-6.22a1.33,1.33,0,0,1,1.42-1.21h0a1.31,1.31,0,0,1,1.21,1.42Z"/><path class="cls-5" d="M263.71,103.3a1.31,1.31,0,0,1-1.41,1.21h0a1.33,1.33,0,0,1-1.22-1.42l.49-6.22A1.33,1.33,0,0,1,263,95.66h0a1.32,1.32,0,0,1,1.21,1.42Z"/><path class="cls-5" d="M268.61,103.69a1.32,1.32,0,0,1-1.41,1.21h0a1.33,1.33,0,0,1-1.22-1.42l.49-6.22a1.32,1.32,0,0,1,1.42-1.21h0a1.31,1.31,0,0,1,1.21,1.42Z"/><path class="cls-5" d="M273.27,104.05a1.31,1.31,0,0,1-1.42,1.21h0a1.32,1.32,0,0,1-1.21-1.41l.49-6.22a1.33,1.33,0,0,1,1.42-1.22h0a1.32,1.32,0,0,1,1.21,1.42Z"/><rect class="cls-5" x="262.5" y="97.05" width="3.3" height="20.56" transform="translate(136.44 362.25) rotate(-85.5)"/><polygon class="cls-5" points="272.58 92.31 265.9 88.46 258.29 91.19 255.13 90.94 254.87 94.22 275.36 95.83 275.62 92.55 272.58 92.31"/><path class="cls-12" d="M212.91,145.47l4.71-3.93,1,1.31c1.08,1.29-.09,3-.89,3.66s-2.7,1.52-3.78.23Z"/><path class="cls-9" d="M200.56,140.28a6.57,6.57,0,0,0,5.19,2.6,7.74,7.74,0,0,1,5.25,2.05,1,1,0,0,0,1.26,0l5-4.18a1,1,0,0,0,.24-1.14,9.74,9.74,0,0,1-.88-5.49,7.19,7.19,0,0,0-1.84-5.73,9.27,9.27,0,1,0-14.23,11.88Z"/><path class="cls-12" d="M431,277.45s22.49,7,26.44-1.81-22-6.21-22-6.21Z"/><path class="cls-5" d="M404.85,196.78c5.43,20.48,12.73,31.76,15,36.6s-6,14.13-11.61,5-10.09-38.77-10.09-38.77S400.44,195.5,404.85,196.78Z"/><path class="cls-5" d="M481.69,234.05s2.39-30.88,8.85-15.32,12,31.84,11.74,37.83-6.38,14.29-9,3.76S481.69,234.05,481.69,234.05Z"/><path class="cls-5" d="M481.79,323c-.13-1.56-.45-31.07-4.83-47.47-6.91-25.86-34.5-24.64-40-3.49-4.09,15.86-6.49,45.59-6.49,51h23.61c.05-.85,1-12.57,1.24-14.49S457.92,322.28,458,323Z"/><path class="cls-9" d="M487.75,219.05s-4.85-6.37-8.54-11.53c-1.42-2-1.13-3-3.46-3.89a48.63,48.63,0,0,0-13.49-3.1s-21,17.4-19.2,29.69S437,272,437,272s27.46,5.11,38.47,3.19C478.81,247.14,487.75,219.05,487.75,219.05Z"/><path class="cls-5" d="M483.1,284s-5.24-13.7.5-31.09S494.52,225.64,495,221.2c.12-5.87-16-13.82-16-13.82s-9.72,38.06-6.82,70.41c1,10.56,6.76,7.87,7.87,7.55A18.64,18.64,0,0,0,483.1,284Z"/><path class="cls-5" d="M456.23,202.86l4.58-1s-6.76,9.82-9.4,29.69C449.63,245,439.55,267.73,437,272s-5.58,11.33-5.58,11.33-6.45-5.57-5-9.08,11.53-12.81,12.8-26.7-1.1-19.39-1.74-27.53,6.81-16.74,6.81-16.74Z"/><path class="cls-5" d="M444.56,203.41c-3.24.36-17.82,18.35-27.55,23.37-7.25,3.74-12.09,18.46-.75,15,8.92-2.74,19.88-15,29.75-13.53C447.12,222.45,447.8,203,444.56,203.41Z"/><path class="cls-13" d="M478.93,196.11l-2.12,9.8s-5.4,5-9.59,4.57a21.87,21.87,0,0,1-4.3-7.24l1.43-11.54Z"/><path class="cls-8" d="M467.1,211.29s-3.54,1-4,3.41a6.82,6.82,0,0,0,1.2,2.27,62.8,62.8,0,0,0-8.27,23.12c-2.75,20.12-5.54,33.09-5.54,33.09l6.59,10,6.87-7.3a328.19,328.19,0,0,1-1.61-37.46c.25-13.74,4.06-20.76,4.06-20.76s1.65-1.12,3.41-2.58A11.82,11.82,0,0,1,467.1,211.29Z"/><path class="cls-14" d="M462.27,263.39c-6-1.1-5.27-5.58-5.27-5.58s25,4.93,24.09,6.61S468.27,264.49,462.27,263.39Z"/><path class="cls-15" d="M468.17,211.49s.54,1.53,3.86,3.57c3.3-3.35,7.06-7.71,7.06-7.71s-1.18-2.55-1.86-2.93C475,210,468.17,211.49,468.17,211.49Z"/><path class="cls-12" d="M472.62,245c4.53-6.53,10.25-20.65,10.25-20.65L480,220.55l2.52-2.6-.2-3.49-3.76-4.11S472.32,234.64,472.62,245Z"/><path class="cls-12" d="M450.38,237.06c-1.2-7.86-1.09-22.27-1.09-22.27l4.3-2.17-1.12-3.44,1.71-3.05,5.13-1.66S452.55,224.63,450.38,237.06Z"/><path class="cls-5" d="M467.2,175.93a3.35,3.35,0,0,0,2.85-2.79c7.76-.61,15,2.94,13.28,9,1.06,1.74,1.21,2.87-2.69,12.49-3.41,0-15.3-1.93-17.22-2.21C461.27,181.79,463.67,176.53,467.2,175.93Z"/><path class="cls-16" d="M481.51,183.14c.81,2.56-1.55,5.21-.42,9.13a13,13,0,0,0,1.11-2.54c1.56.68,0,2.75-1.37,5.22-.29,1.8-4.91,8.89-5.92,9.66-.51.3-6.69-.33-7.12-.87-.69-.72-5-8.24-4.59-11.08-1.25-2.25-1.23-5.55-.15-5.71a5.9,5.9,0,0,1,1.49,3c1.87-.88-.45-5.52,4.22-10.39,1.72.95,2.17,1.21,5,2.58C476.89,183.63,480.26,183.69,481.51,183.14Z"/><path class="cls-5" d="M464.35,187l.15,1.11,2.24.12a4,4,0,0,0,.51,2.77,4.17,4.17,0,0,0,2.71,1.69c2,.47,2.59-1.63,3.07-2.63.18-.89,1.58-.61,1.52.23-.23,1.79-.18,3,2.22,3.45a3.27,3.27,0,0,0,2.83-.65c1.15-.87,1.34-3.35,1.34-3.35s-1.91-.61-2.89-.79c-1.38-.24-2.88-.24-3.89-.35a22.22,22.22,0,0,0-3.89-1,15.15,15.15,0,0,0-3.23-.35Zm11,2.72a11.33,11.33,0,0,1,2.73.25,8,8,0,0,1,1.93.54,2.89,2.89,0,0,1-.86,2.16,2.4,2.4,0,0,1-2.21.48C475.35,192.83,475.13,191.82,475.4,189.69Zm-7.76-1.43a17.61,17.61,0,0,1,4.85,1c-.36,2.12-1.45,2.75-2.44,2.6a2.5,2.5,0,0,1-2.41-3.58Z"/><path class="cls-8" d="M368.61,192.36a150.91,150.91,0,0,0,.8,17.41c1,9.69,2.91,15.67,7.13,13.57,3.7-1.84,9.81-4.73,12.41,4.29,2.84,9.85-5.11,11.81-9.24,9.74s-8.27-3.46-8.8,6.27a58.18,58.18,0,0,0,2.3,18.61s0,1.47,3.42.82c11.17-2.12,41.09-1.92,61.83-.42,5.93.42,5.67-1.2,5.67-1.2s.29-10-.07-19.75c-.27-7.06-5.07-11-8.58-9.7-5.56,2.12-11.22,2.7-11.64-5-.54-9.65,7-10.13,12.36-7,4.1,2.42,7.6-3,8.13-12.76a101.17,101.17,0,0,0-1-19.32s-15.33-3.45-25-2.44-11.66,5-9.37,9.15c2.89,5.2,1.79,10.6-5,11.57s-8.48-3.53-8.06-8.43c.4-4.74,1.18-10.7-8.52-9.75A89.86,89.86,0,0,0,368.61,192.36Z"/><path class="cls-16" d="M404.94,197.13c0-1.08-1.39-2.63-1.39-2.63a10.34,10.34,0,0,0-3.53-3.29l-5.3-3.19c-2.4-1.72-6.43-1-8.79-1-1.1.62-.39,2.05,1.78,2,.8.06,1.67,0,2.39.06,1.76.06,4.63,2.73,5.57,4.39.36.62,1.23,1.05-1.16.79s-4,.7-4.19,1.5c.82.36,7,1.38,8.86,2.07a7.47,7.47,0,0,0,3.4.06S404.5,197.74,404.94,197.13Z"/><path class="cls-16" d="M455.9,253.06A95.83,95.83,0,0,0,442,251.31c.32,2.55,5.64,2.6,5.64,2.6s-12.23,5.55-12.78,5.88-.12,1.59-.12,1.59-1.45,1-.21,1.25,7.54-1.63,7.54-1.63-4.11,2.09-4.52,2.21.44,1.58,3.83.58c1.29-.38,10.72-1.94,11.76-5.63.4-.06,3.06-.15,3.06-.15Z"/><path class="cls-5" d="M454,252.5l35.63.45s-4.64-11.73-7.79-19.06,13-13.14,13-13.14,9,32.95,9.19,39.33-12,7.27-24.72,3.86-24.77-5.24-24.77-5.24Z"/><path class="cls-9" d="M398.78,218.94l-1.18.05-1,.07h0l1,5.48a.4.4,0,0,1-.07.3,6.82,6.82,0,0,1-.84.88h0a7.39,7.39,0,0,1-1-.8.36.36,0,0,1-.1-.3l.28-5.53H395l-1.17,0a1.45,1.45,0,0,0-1.38,1.49l.3,7.3a1.43,1.43,0,0,0,1.37,1.37l1,7.73a1.23,1.23,0,0,0,1.23,1.1l1.57-.07a1.21,1.21,0,0,0,1.14-1.19l.33-7.78a1.42,1.42,0,0,0,1.25-1.47l-.29-7.3A1.43,1.43,0,0,0,398.78,218.94Z"/><path class="cls-9" d="M397.8,216.8a1.61,1.61,0,1,1-1.67-1.54A1.61,1.61,0,0,1,397.8,216.8Z"/><path class="cls-9" d="M408.53,218.54l-1.18.05-1,.07h0l1,5.48a.36.36,0,0,1-.07.3,6.2,6.2,0,0,1-.84.88h0a6.78,6.78,0,0,1-1-.8.36.36,0,0,1-.11-.3l.28-5.53h0l-.91,0-1.18,0a1.44,1.44,0,0,0-1.37,1.49l.29,7.3a1.44,1.44,0,0,0,1.38,1.37l.94,7.73a1.23,1.23,0,0,0,1.24,1.1l1.57-.07a1.23,1.23,0,0,0,1.14-1.19l.32-7.78a1.43,1.43,0,0,0,1.26-1.48l-.3-7.3A1.43,1.43,0,0,0,408.53,218.54Z"/><path class="cls-9" d="M407.56,216.4a1.62,1.62,0,1,1-1.68-1.54A1.63,1.63,0,0,1,407.56,216.4Z"/><path class="cls-9" d="M418,218.15l-1.18,0-1,.07h0l1,5.48a.4.4,0,0,1-.07.3,6.82,6.82,0,0,1-.84.88h0a8.3,8.3,0,0,1-1-.81.33.33,0,0,1-.1-.3l.27-5.53h-.92l-1.17.05a1.43,1.43,0,0,0-1.38,1.48l.3,7.3a1.43,1.43,0,0,0,1.37,1.37l.95,7.73a1.22,1.22,0,0,0,1.23,1.1l1.57-.06a1.23,1.23,0,0,0,1.14-1.2l.33-7.78a1.42,1.42,0,0,0,1.25-1.47l-.29-7.3A1.43,1.43,0,0,0,418,218.15Z"/><path class="cls-9" d="M417,216a1.6,1.6,0,0,1-1.54,1.67,1.61,1.61,0,1,1-.13-3.22A1.6,1.6,0,0,1,417,216Z"/><path class="cls-16" d="M309.31,190.62s-3-6.21-5-11.35c2.16-.48,4.24,3.58,4.24,3.58a20.22,20.22,0,0,1-.74-3.3c.14-1.17,1.81-1,1.81-1s1.16-1.3,1.71-.36a6.66,6.66,0,0,1,.57,1.13,1.83,1.83,0,0,0,.08-.65c0-.37,2.28-1.18,2.46,1.86.07,1.16,1.33,5.75-1.36,7.67.06.34-.27,3.11-.27,3.11Z"/><path class="cls-5" d="M265.53,190.6s-6.84-3.37-12.19,4.18c-3.61,5.08-2.45,8.6-3.83,13.48-3.69,13,14.57,11.27,14.57,11.27s11.18-4.76,13.58-13.86c1.72-6.51-1.81-1.8-3.74-5C269,191.9,265.53,190.6,265.53,190.6Z"/><path class="cls-5" d="M309.24,190.43c-.77,17.78-3.5,28.08-4.79,32.5s5.79,10.95,9.39,2.43.59-33.22.59-33.22A9.69,9.69,0,0,0,309.24,190.43Z"/><path class="cls-5" d="M254.49,243.29s-2.07-26.64-7.64-13.22-10.33,27.47-10.12,32.63,5.5,12.33,7.77,3.25S254.49,243.29,254.49,243.29Z"/><path class="cls-5" d="M254.49,323s-3.1-22.72,5.36-44.19,25.06-19.76,33.18-2.75,6.45,32.69,1.5,46.94h-16.3s-.82-13.84-1-15.49S275,323,275,323Z"/><path class="cls-9" d="M249.77,228.21s8.16-9.7,14.08-12,23.4,1.65,23.4,1.65,2.07,11.57.55,22.17S293,276.06,293,276.06s-23.68,4.4-33.18,2.75C257,254.58,249.77,228.21,249.77,228.21Z"/><path class="cls-5" d="M249.91,285.65s5.84-9.66.88-24.67-4.47-24.11-4.91-27.94c2.82-9.9,10.81-12,10.81-12s4.82,50.94,5.92,60S256,288.88,255,288.6A45.55,45.55,0,0,1,249.91,285.65Z"/><path class="cls-5" d="M271.62,215.49s9.93,13,10.12,24.77c.35,20.83,6.87,33.53,9.07,37.25a19.07,19.07,0,0,0,5,5.62s3.61-2.3,2.37-5.33-8.21-10.28-9.31-22.26-.27-15.14.28-22.16-2.89-17.07-2.89-17.07Z"/><path class="cls-5" d="M277.93,216s23.65,3.06,30.64,3.85,9.77,9.67-.46,9.84-19-1.35-26.13,5.66C279.06,231.22,277.93,216,277.93,216Z"/><path class="cls-13" d="M258.89,212.19l1.26,8.32s1.84,11.26,8.86,9.78S270.24,216,270.24,216l-3.78-7.44Z"/><path class="cls-16" d="M268.84,201.24s1.34-.33,1.43,1.59c.1,2.2,0,3.74,0,3.74s-.39,6.06-2.45,8.68c-4.16,1.65-5.22,1.24-5.22,1.24s-4.78-3.3-6.56-6.85c-1.48-.48-3.86-2.69-1.16-4.48-.13-8.54,7.28-3,10-10.75C267.37,195.75,268.84,201.24,268.84,201.24Z"/><path class="cls-17" d="M271.23,268.6c5.18-1,4.55-4.82,4.55-4.82S254.21,268,255,269.48,266.06,269.55,271.23,268.6Z"/><path class="cls-3" d="M349.38,195.2c1.18.87,1.38,16.52,3.72,27.63,1,4.85,5.32-5.94,13.08-1.66,5.34,3,4.77,11.84,1.84,14.73-6.48,6.4-12.47-5.47-14.18,1.11-1.45,4.59,7.15,23.17,2.18,24.3-3.82.87-9.41,1.16-14.13,1.81-9,1.24-13.55,2.18-15.27.43-2.86-2.93,1.38-1.81,0-9.93-.64-3.73-7.93-6.61-12-2.66-3.59,3.49-2.5,6.45-.4,9.77,4.14,6.51-4.05,5.91-12.88,6.22-8,.28-10.06.7-12.94-.11-3.47-1-3.33-2.45-2.65-8.4.62-5.45.17-28.85-1.31-40.24-1.28-9.81-1.44-14-1.15-17.21.1-1.13,5.83-1.87,12.31-1.61,8.63.35,9.22-2.13,5.74-8.38a7.2,7.2,0,0,1,5.57-10.55c7.22-.79,13.38,2.94,11.2,9.65s1.65,7.63,9.48,7.12S348.41,194.48,349.38,195.2Z"/><path class="cls-16" d="M276.72,259.69a82.43,82.43,0,0,1,12-1.51c-.28,2.2-4.87,2.24-4.87,2.24s10.56,4.78,11,5.07.11,1.37.11,1.37,1.25.85.18,1.08-6.51-1.41-6.51-1.41,3.55,1.81,3.91,1.91-.38,1.37-3.31.5c-1.11-.32-9.24-1.67-10.14-4.86-.34-.05-2.64-.12-2.64-.12Z"/><path class="cls-5" d="M278.34,259.2l-33.14,3s6.41-12.72,9.13-19-7.89-12-7.89-12-11.05,29.13-11.24,34.63,10.38,6.27,21.31,3.33,21.37-4.52,21.37-4.52Z"/><path class="cls-16" d="M308.22,180s1.47,3.42,1.79,3.78,1.2-.31,1.2-.31.73.39,1.14.21-.6-4-.6-4,1,2.06,1.56,3.1c.11.19,1.27-.39.87-1.52a8.65,8.65,0,0,1-.45-2.34,14.81,14.81,0,0,0-2.57.54A16.66,16.66,0,0,1,308.22,180Z"/><path class="cls-18" d="M318.19,242.41a2.46,2.46,0,0,1-1.54,3.1l-.84.31a2.45,2.45,0,0,1-3.2-1.31l-4.94-13.06a2.45,2.45,0,0,1,1.54-3.1L310,228a2.44,2.44,0,0,1,3.2,1.31Z"/><path class="cls-12" d="M334.74,226.92a1.16,1.16,0,0,1-.74,1.46l-.4.15a1.16,1.16,0,0,1-1.51-.64l-2.86-7.76a1.15,1.15,0,0,1,.74-1.46l.39-.15a1.17,1.17,0,0,1,1.52.63Z"/><path class="cls-9" d="M324.08,209.51c-7.9,9-15.62,17.07-19,18.39a11.25,11.25,0,0,1-1.13.43l3.52,9.55s.68-.23,1.66-.63c3.16-1.3,14.23.06,25.9,1.94Z"/><path class="cls-5" d="M337.43,239.41a1.06,1.06,0,0,1-.63,1.37l-.12,0a1.06,1.06,0,0,1-1.37-.63l-11.62-31.52a1.07,1.07,0,0,1,.63-1.38l.12,0a1.07,1.07,0,0,1,1.37.63Z"/><path class="cls-5" d="M304,228.33a5.1,5.1,0,0,0,3.53,9.56Z"/><path class="cls-19" d="M302.8,236.32a.43.43,0,0,0,.25-.56.43.43,0,0,0-.56-.26l-1,.39a5,5,0,0,0,.57.72Z"/><path class="cls-19" d="M300.74,234.11l1.09-.4a.44.44,0,0,0,.25-.57.43.43,0,0,0-.56-.25l-.88.33A4.41,4.41,0,0,0,300.74,234.11Z"/><path class="cls-19" d="M302.56,234.45a.43.43,0,0,0-.56-.26l-1.13.43a2.41,2.41,0,0,0,.08.25,3.53,3.53,0,0,0,.25.56l1.11-.42A.43.43,0,0,0,302.56,234.45Z"/><path class="cls-5" d="M214.64,184.08s11.46,4.09.87,12S214.64,184.08,214.64,184.08Z"/><path class="cls-16" d="M239,202.51s.79-.42-.44-1.89l-.1-.12c-.42-.58-1.2-1.54-1.59-1.18s.16,1,.66,1.7c-.08.27-.15.53-.23.77a10.08,10.08,0,0,0-1.72-.35c-.84-.05-.42,1.09.31,1.44-.53-.09-1.94.5-.32,1.3l.16.08a6.73,6.73,0,0,1-3.42,1.18c-.41-.24,0-1.53.23-2.08.87-1.82.76-2.85-.57-3.36-.28.37-1.26,2.82-2.49,5.23-1,2-.68,2.37-.56,2.84.49,1.5,2.83,11.55,2.59,11.87.31.34,3.19-2.39,3.85-1.68a50.51,50.51,0,0,0-2.44-8.22,11.43,11.43,0,0,0,4.68-2.59,4.89,4.89,0,0,0,1.09-3.24C240,203.11,239,202.51,239,202.51Z"/><path class="cls-5" d="M207.74,213.2a68.94,68.94,0,0,1,15.6,10.88c6.93,6.67,6.49,6.39,8.83,7.44s-1.73-14.86-1.73-14.86l5.92-1.95s5.69,20.21,5.33,24.64-5.9,4.06-10.94,2.07-16.37-8.35-16.37-8.35Z"/><path class="cls-9" d="M199.78,265.07l22.89,3.84s-3.76-21.88-1-25.21c2.19-2.67,3.36-4.82,2.7-7.9s-9.22-12.39-13.2-19.28-10.22-4.6-10.22-4.6Z"/><path class="cls-5" d="M191.25,323s-2.44-31.42-.44-41.35a34.91,34.91,0,0,1,9-16.58l22.89,3.84a58.84,58.84,0,0,1-1.24,10.69c.83,16-2.17,43.4-2.17,43.4Z"/><path class="cls-5" d="M185,226l15.94-14.08S212,227,213.42,246.15c.3,6.87.78,9.46-9.54,33.17a33.67,33.67,0,0,1-14.56,0c.35-13.14,8.35-18.83,7.54-28.92S185,226,185,226Z"/><path class="cls-5" d="M197.06,191.45s-6.63-2.11-6.83,4.63,4.85,16.74,4.63,18.75-2.16,3.8,2.81,1.47-2.1-15.17-1.65-17.56a7.54,7.54,0,0,1,1.62-3.63Z"/><path class="cls-13" d="M216.35,200.33s-4.58,17.84-4.59,19.57c-1.43,3.07-10.84-8-10.84-8a7.47,7.47,0,0,0,2.26-4.57c.28-2.85-.81-14.58-.81-14.58Z"/><path class="cls-16" d="M208.62,197.7s-2.35-2.69-3.88.33,3.64,4.43,3.64,4.43,2.89,4.93,5.91,5.53c1.48.29,4.16.37,4.47.41a.65.65,0,0,0,.7-.51c0-.31.81-7.45.81-7.45s1.86-.42,1-1.26c-4.71-4.36-1.39-9.28-6.59-11Z"/><path class="cls-5" d="M212.06,200a3.33,3.33,0,0,1-2.93-1.44c-1.08-1.63-2.85-2.37-3.77-1s.72,4.45,0,6.43c-.62,1.72-1.73,2-1.73,2s-2.75-1-4.31-1.64-5.7-11.72-4.09-13.53,9.28-7.36,14.64-8.27,6.18,3.11,3.87,8A18.74,18.74,0,0,0,212.06,200Z"/><path class="cls-12" d="M201.54,210.66l-4.73,3.67S206.52,227.7,209,227C207.7,223.4,201.54,210.66,201.54,210.66Z"/><path class="cls-20" d="M210.8,263.44l1.25-3.95s-18.57,4-17.76,5.48S210.8,263.44,210.8,263.44Z"/><path class="cls-5" d="M212.51,187.13s10.81,1.79,2.7,10.52S212.51,187.13,212.51,187.13Z"/><path class="cls-4" d="M214.28,303.57c2-1.16,1.61-7.37,4.86-16.93,1.43-4.17,4.79,6.09,12.07,3.07,7.91-3.29,6-11.2,3.76-14.08-5-6.34-12.8,3.24-13.61-2.76-.78-4.21,9.17-25.27,7.36-26.56-3.69-2.62-7.73-3.43-12.47-5-7.92-2.55-11.59-1.89-13.56-1-4.42,2.06.15,4.7-2.21,11.64-1.79,5.28-9,6.35-12.7,1.87-2.83-3.4-3.2-4.57-1.75-7.41,3.14-6.1-2.24-7.3-9.88-9.12-6.49-1.55-9-1.72-13.13-1.51-3.21.16-3.15,2.69-3.91,13.28-.31,4.43-1.38,17.64-4.3,27.43-2.48,8.35-3.45,12.95-3.71,15.81-.16,1.73,7.17,2.64,10.33,2.85,9.74.65,11.14,2.43,8.61,8.25-1.65,3.78-1.21,9.54,3.37,10.61,6.29,1.47,12.54-1.85,11.33-8s5.2-8.55,12-7.25S212.33,304.72,214.28,303.57Z"/><path class="cls-9" d="M183.27,266.15l-4.19,1.53,1.54,3.82,6.65,17.12,16.39-6.28-8.1-20.9Zm.89,6.24,7.26-2.78L192,271l-7.26,2.79Zm1.25,3.28,2.27-.87.55,1.43-2.27.87Zm7.07,2.75-5.24,2-.55-1.44,5.24-2Zm3.48-1.33-2.27.87-.55-1.44,2.27-.87Zm-1.28-3.33-5.24,2-.55-1.44,5.24-2Zm2.73-1-1.44.55-.55-1.44,1.44-.55Zm-1.26-3.28-3.12,1.2-.55-1.44,3.12-1.2Z"/><path class="cls-16" d="M205.09,256.23s14.35-2.28,20-2.46c-.29,2.25-5,2.3-5,2.3a21.47,21.47,0,0,0,5.19,2.65,10.31,10.31,0,0,1,.43-1,7.86,7.86,0,0,1,2,1.92c.38.42,1,1.52-.62,1.65.49.22,1.14,1.19,0,1.42a5.5,5.5,0,0,1-2.8-.63,11,11,0,0,0,1.44.72c.37.11.72,2.31-1.07,1.72-1.13-.37-8.58-1.39-9.5-4.65-.35-.06-10.43.78-10.43.78Z"/><path class="cls-5" d="M210.62,255.24l-26.38,2.26s6.58-13.05,9.37-19.53c1.32-3.08-.47-10.77-2.8-12.92-2.59-2.38-5.83.95-5.83.95s-10.8,29.48-11,35.13,10.65,6.43,21.86,3.42,14.3-3.82,14.3-3.82Z"/><path class="cls-20" d="M548.3,323c-1.18-13.81-3.52-24.57.86-44.1,15.34,1.4,25.47-2,25.47-2s-6.45,40.19-4.29,46.06Z"/><path class="cls-5" d="M566.88,323c-5-17.47-9.6-38.38-10.55-43.55,18.09-.84,23.26-5,26.5-5.7,4.45,8.42,1.45,31.67,3.77,49.25Z"/><path class="cls-16" d="M509.88,236.65s-6.29-2.72-12.31-4.85c-1.74,2.21,4.46,5,4.46,5s-4.48-1.26-5.09-1.11-.93,1.8-.93,1.8-1.44,1.39-.34,2a8.25,8.25,0,0,0,1.33.61,2.06,2.06,0,0,1-.75.12c-.43,0-1.26,2.69,2.26,2.76,1.34,0,6.69,1.29,8.79-1.9.39.06,3.57-.45,3.57-.45Z"/><path class="cls-5" d="M555.91,218s-11.35,20.64-13.68,25.34c-9-1.87-18.5-1.74-30.89-3.47-.17,5.26.59,7.23.59,7.23s25.61,8,32.37,7.44,22.3-26.09,22.3-26.09Z"/><path class="cls-15" d="M575.36,205.18l-2.63-3.12L556,208.84l.61,3.82s-13,13.29-10.93,32.39,3.6,34.08,3.6,34.08l28.36,4.75Z"/><path class="cls-8" d="M557.88,211.35a3.36,3.36,0,0,0-2,2.63,4.27,4.27,0,0,0,.07,2.4,43.22,43.22,0,0,0-7.18,18.85c-2.41,17.63-5.16,34.81-5.16,34.81l4.83,5.42,5.13-6.12s-.07-16.9.25-34.34c.21-12,3.77-17.95,3.77-17.95s1.23-1.22,2.77-2.5A11.77,11.77,0,0,1,557.88,211.35Z"/><path class="cls-5" d="M574.46,204.09s16,5.79,17,16.28-9,32.46-8.58,54.9a45.17,45.17,0,0,1,8.4,25.83c-12.59,3.35-17.21-4.21-23.09-12s-10.39-43.5-9.09-47C568.05,217.7,574.46,204.09,574.46,204.09Z"/><path class="cls-13" d="M552.59,200.25c2.79-.22,6,5.63,7.52,10.64a41.75,41.75,0,0,1,12.29-7.6,22,22,0,0,1-1.56-6.67S557.59,171.56,552.59,200.25Z"/><path class="cls-16" d="M561.89,187.09s1.86-3.22,4-.43-2.35,5.88-2.35,5.88-2.22,6.94-5.35,7.66A40.37,40.37,0,0,1,552,201c-.32,0-.86,0-1-.33s-.58-9-.58-9-1.31-.11-.89-1.33a75.55,75.55,0,0,0,2.68-9.95s5.33-6.16,7.51-3.9S561.89,187.09,561.89,187.09Z"/><path class="cls-5" d="M558.53,188.09s2.62,2.58,3.4.7,2.36-1.92,3.56-.74.13,4.71,1.25,6.59c.73,1.23,3.63,2,4.19,2.07,0-3.21,3.35-14.58,0-17-2.06-1.46-7.41-6.35-13.08-6.23s-9.06,2.41-5.71,7C565.82,176.42,558.53,188.09,558.53,188.09Z"/><path class="cls-9" d="M558.86,210.94s2.95,1.78,5.86,3.57a135.31,135.31,0,0,1,9.58-10.41s-1.28-1.9-1.55-2.24C571.65,202.23,558.86,210.94,558.86,210.94Z"/><path class="cls-12" d="M561.14,236.47c5.23-4.83,13-16.05,13-16.05l-1.8-3.93,2.71-1.78.5-3.09-2.48-4.32S562.91,227.32,561.14,236.47Z"/><path class="cls-6" d="M504.92,219.2c2-1.39,9.42,2.64,20.19,3.76,4.7.49-3.78-7.4,2.43-13.12,6.76-6.24,13.63-.86,15.41,2.65,3.91,7.75-8.91,11-3.43,14.5,3.75,2.65,27.88,1.71,27.62,5a159.74,159.74,0,0,1-2.24,16c-1.63,8.49-2.4,12.43-4.49,13.47-3.49,1.74-1.72-1.83-9.5-2.94-3.58-.51-8.33,5.27-5.92,10.12,2.12,4.28,5.13,4.16,8.75,3.21,7.12-1.85,4.19,5.42,1.89,13.53-2.07,7.3-2.61,8.65-3.29,10.05-.94,1.94-1.94,2.29-3.82,1.71-5-1.56-31.26-9.1-42.11-10.66-9.24-1.33-13-2.87-15.86-4-1.7-.65-.1-5.87,2-11.68,2.84-7.74.76-9-5.93-7.66a6.88,6.88,0,0,1-8-8.14c1.4-6.79,6.59-11.3,12.05-7.35s7.41.73,9.23-6.53S502.91,220.58,504.92,219.2Z"/><path class="cls-16" d="M498.21,236.41A37.18,37.18,0,0,1,502,238c.43.35-.32,1.1-.32,1.1s.48.84.29,1.31-4.64-.52-4.64-.52,2.42,1,3.64,1.67c.23.12-.4,1.49-1.71,1.07a10.28,10.28,0,0,0-2.73-.42,18.4,18.4,0,0,1,.52-3A14.64,14.64,0,0,1,498.21,236.41Z"/><path class="cls-20" d="M557.57,285.22l1.28,6s15.75-5.44,18.83-7.36,4.35-8.82,4.35-8.82Z"/><path class="cls-5" d="M590.19,214.41c6,9.43,10.41,39.31,10.12,46.54s-34.09,23.65-34.09,23.65-3.55-5.73-4.08-6.49c9-6.91,18.74-18.8,25.94-21-2.81-8.53-5.84-17.5-11.75-28S584.14,205,590.19,214.41Z"/><path class="cls-16" d="M562.76,278.32a6.71,6.71,0,0,1-1,.64,88.18,88.18,0,0,0-11.26-1.26c.32,2.55,5.64,2.6,5.64,2.6s-12.24,5.55-12.78,5.88-.13,1.59-.13,1.59-1.44,1-.21,1.25,7.55-1.63,7.55-1.63-4.11,2.09-4.53,2.21.44,1.58,3.84.58c1.29-.38,10.72-1.95,11.76-5.63.39-.07,3.54-2,3.54-2Z"/><path class="cls-9" d="M528.37,238.28a16,16,0,0,0-8.7,30.81,15.72,15.72,0,0,0,4.36.61,16,16,0,0,0,4.34-31.42Zm9.14,18-4.82-1.36a22.18,22.18,0,0,0,.57-5.42,16,16,0,0,0,3.45-1.07A13.74,13.74,0,0,1,537.51,256.29ZM530,266.06a13.56,13.56,0,0,1-4.87,1.32,19.86,19.86,0,0,0,3.2-3.18A19.15,19.15,0,0,1,530,266.06Zm-12-24.69a13.62,13.62,0,0,1,5.22-1.39,20.19,20.19,0,0,0-3.39,3.29A16.43,16.43,0,0,1,518,241.37Zm10.79-.29a18.11,18.11,0,0,1,2.06,6.44,13.77,13.77,0,0,1-3.79-.32Zm-2.18-.62-1.71,6.06a16.28,16.28,0,0,1-3.29-1.82A17.84,17.84,0,0,1,526.58,240.46Zm-2.33,8.26-1,3.54-5.07-1.44a19.72,19.72,0,0,1,2.06-4.27A18.71,18.71,0,0,0,524.25,248.72Zm-1.62,5.72-1,3.49a15,15,0,0,0-4.66-.26,21.22,21.22,0,0,1,.56-4.66ZM521,260.13l-1.8,6.36a16.88,16.88,0,0,1-2.11-6.54A12.52,12.52,0,0,1,521,260.13Zm.39,7,1.79-6.32a15.16,15.16,0,0,1,3.37,1.93A16.79,16.79,0,0,1,521.41,267.11Zm2.41-8.52,1-3.53,5.09,1.44a20.2,20.2,0,0,1-2,4.35A17.08,17.08,0,0,0,523.82,258.59Zm1.61-5.72,1-3.47a16.13,16.13,0,0,0,3.66.42l.9,0a19.92,19.92,0,0,1-.48,4.51Zm10.23-6.45a15,15,0,0,1-2.56.8,20.72,20.72,0,0,0-1.19-4.77A13.51,13.51,0,0,1,535.66,246.42ZM516,242.55a18.6,18.6,0,0,0,2.44,2.57A22.43,22.43,0,0,0,516,250.2l-4.82-1.36A13.81,13.81,0,0,1,516,242.55ZM510.55,251l4.8,1.36a22.73,22.73,0,0,0-.64,5.68,15.76,15.76,0,0,0-3.24,1.17A13.57,13.57,0,0,1,510.55,251Zm2,10.21a14.56,14.56,0,0,1,2.31-.86,19.65,19.65,0,0,0,1.07,4.41A13.58,13.58,0,0,1,512.56,261.24Zm19.38,3.66a19.42,19.42,0,0,0-2.3-2.57,22.92,22.92,0,0,0,2.45-5.21l4.8,1.35A13.73,13.73,0,0,1,531.94,264.9Z"/><path class="cls-8" d="M141.66,206.77s.19-.26-.4-.48-2.79-1.41-2.79-1.95v-.87s.45-.22.45-.45-.46-.46-.46-.46,0-1,0-1.24.59-.58.94-.69.13-.59.13-.59h-4.41s-.21.48.14.59.93.45.93.69.06,1.24.06,1.24-.46.23-.46.46.44.45.44.45v.87c0,.54-2.2,1.74-2.79,1.95s-.4.48-.4.48-.37.14-.37.27v.8H142V207C142,206.91,141.66,206.77,141.66,206.77Z"/><path class="cls-3" d="M127.77,181.55c8.55-1.31,19.14,0,19.14,0s-.22,19-9.3,19S127.77,182.09,127.77,181.55Z"/><path class="cls-8" d="M143.29,198.83a.64.64,0,0,1-.62-.49c-.56-2.33.86-3.67,3.7-6.34l.44-.41c2.26-2.12,3.7-4.45,3.67-5.94a1.27,1.27,0,0,0-.41-1c-1-.91-3.34.52-4.06,1.09a.64.64,0,0,1-.9-.11c-.22-.27-.4-3.11-.12-3.33a39.87,39.87,0,0,1,6.87.37c.71.1.37.87.19,2.74s-1.81,4.7-4.36,7.1l-.44.41c-2.83,2.66-3.7,3.57-3.33,5.1a.64.64,0,0,1-.48.77Z"/><path class="cls-8" d="M131.44,198.83a.66.66,0,0,0,.63-.49c.56-2.33-.87-3.67-3.71-6.34l-.43-.41c-2.26-2.12-3.7-4.45-3.67-5.94a1.24,1.24,0,0,1,.41-1c1-.91,3.34.52,4.06,1.09a.64.64,0,0,0,.9-.11c.22-.27.4-3.11.12-3.33a39.87,39.87,0,0,0-6.87.37c-.71.1-.38.87-.2,2.74s1.82,4.7,4.37,7.1l.43.41c2.83,2.66,3.71,3.57,3.34,5.1a.64.64,0,0,0,.47.77Z"/><path class="cls-8" d="M146.91,181.55a94.47,94.47,0,0,0-9.44-.58l.22,19.6C146.69,200.45,146.91,181.55,146.91,181.55Z"/><rect class="cls-21" x="197" y="1" width="411" height="323"/></g></g></g></svg>