<svg xmlns="http://www.w3.org/2000/svg" xmlns:xlink="http://www.w3.org/1999/xlink" width="61" height="49" viewBox="0 0 61 49">
  <defs>
    <clipPath id="clip-avatarmap">
      <rect width="61" height="49"/>
    </clipPath>
  </defs>
  <g id="avatarmap" clip-path="url(#clip-avatarmap)">
    <g id="Group_12" data-name="Group 12" transform="translate(4 5)">
      <g id="Group_3" data-name="Group 3" transform="translate(11.635 9.774)">
        <g id="Group_2" data-name="Group 2">
          <path id="Path_16" data-name="Path 16" d="M226,51.868a6.772,6.772,0,0,0,1.21,3.165l.062.031c.341.5.807,1.055,1.055,1.055.093,0,1.893-2.606,1.893-2.606l1.3,1.582,2.389-3.568.5.745.062-2.855-2.42,1.893,1.179-.093-1.707,2.668-1.582-1.862s-1.148,1.707-1.707,2.42a5.452,5.452,0,0,1-1.055-2.637,4.379,4.379,0,0,1,8.75,0c0,2.3-4.282,6.826-4.282,6.826a27.231,27.231,0,0,1-2.265-2.575c-.093.186-.59.621-.683.807,1.489,1.955,2.948,3.661,2.948,3.661s5.492-5.709,5.492-8.688a5.426,5.426,0,0,0-5.554-5.337A5.5,5.5,0,0,0,226,51.868Z" transform="translate(-226 -46.5)" fill="#fff"/>
          <path id="Path_17" data-name="Path 17" d="M234.034,86.883c1.272.341,1.862.962,1.458,1.582s-1.644,1.055-3.165,1.055a4.46,4.46,0,0,1-3.258-.993c-.434-.621.093-1.272,1.334-1.613l-1.024-.683c-1.986.558-2.792,1.551-2.11,2.513s2.7,1.582,5.057,1.582c2.358-.031,4.313-.683,4.933-1.644s-.279-1.955-2.3-2.482Z" transform="translate(-226.711 -73.882)" fill="#fff"/>
        </g>
      </g>
      <path id="Path_18" data-name="Path 18" d="M221.017,47.641H201.78l-9.556,7.26a1.171,1.171,0,0,1-1.613-.217,1.076,1.076,0,0,1-.217-.9l1.148-6.174a3.611,3.611,0,0,1-1.986-1.024l-.062-.062a3.65,3.65,0,0,1-.993-2.513V23.626a3.561,3.561,0,0,1,1.086-2.575h0a3.689,3.689,0,0,1,2.575-1.086h11.759v-1.3a3.65,3.65,0,0,1,.993-2.513l.062-.062A3.689,3.689,0,0,1,207.551,15h28.887a3.561,3.561,0,0,1,2.575,1.086h0a3.689,3.689,0,0,1,1.086,2.575V39.015a3.509,3.509,0,0,1-1.086,2.575h0a3.718,3.718,0,0,1-1.986,1.024l1.148,6.174a1.052,1.052,0,0,1-.217.9,1.143,1.143,0,0,1-1.613.217l-9.556-7.26h-2.11v1.3a3.509,3.509,0,0,1-1.086,2.575l-.062.062a3.394,3.394,0,0,1-2.513,1.055Zm3.692-21.347v5.182m0,2.3v6.578h2.482a1.1,1.1,0,0,1,.776.31l7.416,5.616-.838-4.561a1.138,1.138,0,0,1,.931-1.334c.062,0,.124-.031.217-.031h.807a1.361,1.361,0,0,0,.962-.4h0a1.361,1.361,0,0,0,.4-.962V18.661a1.361,1.361,0,0,0-.4-.962h0a1.361,1.361,0,0,0-.962-.4H207.582a1.361,1.361,0,0,0-.962.4l-.031.031a1.352,1.352,0,0,0-.341.9v1.334h14.8a3.561,3.561,0,0,1,2.575,1.086h0a3.689,3.689,0,0,1,1.086,2.575v.341m-23.3,21.378h19.609a1.3,1.3,0,0,0,.9-.341l.031-.031a1.361,1.361,0,0,0,.4-.962V23.626a1.361,1.361,0,0,0-.4-.962h0a1.361,1.361,0,0,0-.962-.4H192.068a1.361,1.361,0,0,0-.962.4h0a1.361,1.361,0,0,0-.4.962V43.98a1.3,1.3,0,0,0,.341.9l.031.031a1.361,1.361,0,0,0,.962.4h.776a.606.606,0,0,1,.217.031,1.154,1.154,0,0,1,.931,1.334l-.838,4.561,7.416-5.616A1.678,1.678,0,0,1,201.407,45.345Z" transform="translate(-188.5 -15)" fill="#fff" fill-rule="evenodd"/>
    </g>
  </g>
</svg>
