<svg xmlns="http://www.w3.org/2000/svg" xmlns:xlink="http://www.w3.org/1999/xlink" width="420" height="81" viewBox="0 0 420 81"><defs><clipPath id="b"><rect width="420" height="81"/></clipPath></defs><g id="a" clip-path="url(#b)"><path d="M-126.84-24.5-137.375-6.335-148.015-24.5h-2.135V0h2.485V-19.5l9.625,16.38h1.225L-127.19-19.6V0h2.485V-24.5Zm16.03,5.95a11.689,11.689,0,0,0-7.49,2.485l1.12,1.855a9.378,9.378,0,0,1,6.125-2.17c3.43,0,5.215,1.715,5.215,4.865v1.12h-5.845c-5.285,0-7.1,2.38-7.1,5.215,0,3.185,2.555,5.355,6.72,5.355,3.045,0,5.215-1.155,6.335-3.045V0h2.38V-11.41C-103.355-16.17-106.05-18.55-110.81-18.55Zm-.875,16.765c-2.94,0-4.655-1.33-4.655-3.465,0-1.89,1.155-3.29,4.725-3.29h5.775v3.01A5.89,5.89,0,0,1-111.685-1.785Zm24.57-16.765a8.019,8.019,0,0,0-7.1,3.78v-3.64H-96.6V6.79h2.485V-3.465a8.041,8.041,0,0,0,7,3.64c5.25,0,9.17-3.78,9.17-9.38A8.906,8.906,0,0,0-87.115-18.55ZM-87.29-2.03c-3.92,0-6.86-2.87-6.86-7.175,0-4.27,2.94-7.175,6.86-7.175,3.885,0,6.86,2.905,6.86,7.175C-80.43-4.9-83.4-2.03-87.29-2.03Zm20.755-16.52a11.689,11.689,0,0,0-7.49,2.485l1.12,1.855a9.378,9.378,0,0,1,6.125-2.17c3.43,0,5.215,1.715,5.215,4.865v1.12H-67.41c-5.285,0-7.1,2.38-7.1,5.215C-74.515-2-71.96.175-67.795.175-64.75.175-62.58-.98-61.46-2.87V0h2.38V-11.41C-59.08-16.17-61.775-18.55-66.535-18.55ZM-67.41-1.785c-2.94,0-4.655-1.33-4.655-3.465,0-1.89,1.155-3.29,4.725-3.29h5.775v3.01A5.89,5.89,0,0,1-67.41-1.785ZM-52.885,0h5.67V-24.5h-5.67Zm22.54-19.11a8.244,8.244,0,0,0-6.23,2.485V-18.83H-41.79V0h5.46V-9.31c0-3.465,1.89-5.075,4.515-5.075,2.415,0,3.815,1.4,3.815,4.445V0h5.46V-10.78C-22.54-16.52-25.9-19.11-30.345-19.11Zm25.83.28L-9.9-6.02-15.12-18.83h-5.635L-12.845,0H-7.21L.735-18.83ZM20.9-9.345c0-6.055-4.27-9.765-9.8-9.765-5.74,0-10.045,4.06-10.045,9.695,0,5.6,4.235,9.7,10.745,9.7,3.395,0,6.02-1.05,7.77-3.045L16.66-5.915A6.383,6.383,0,0,1,11.935-4.1c-2.87,0-4.865-1.435-5.39-3.78H20.79C20.825-8.33,20.9-8.925,20.9-9.345ZM11.13-14.98a4.474,4.474,0,0,1,4.62,3.92H6.475A4.458,4.458,0,0,1,11.13-14.98Zm18.62-1.365V-18.83H24.535V0H30V-8.89c0-3.605,2-5.25,5.005-5.25.42,0,.77.035,1.225.07v-5.04C33.32-19.11,31.08-18.165,29.75-16.345ZM45.885.28c5.635,0,8.89-2.485,8.89-5.985,0-7.42-11.375-4.305-11.375-7.525,0-.98,1.05-1.75,3.5-1.75a10.813,10.813,0,0,1,5.425,1.4l1.82-3.885A15.484,15.484,0,0,0,46.9-19.11c-5.495,0-8.715,2.52-8.715,6.09,0,7.525,11.375,4.375,11.375,7.455,0,1.05-.945,1.715-3.465,1.715A12.883,12.883,0,0,1,39.55-5.67L37.73-1.75A16.165,16.165,0,0,0,45.885.28Zm14.98-21.735a3.14,3.14,0,0,0,3.4-3.15c0-1.68-1.365-2.94-3.4-2.94a3.121,3.121,0,0,0-3.4,3.045A3.121,3.121,0,0,0,60.865-21.455ZM58.135,0H63.6V-18.83h-5.46Zm19.5.28c5.985,0,10.325-4.025,10.325-9.7S83.615-19.11,77.63-19.11,67.27-15.085,67.27-9.415,71.645.28,77.63.28Zm0-4.48c-2.73,0-4.83-1.96-4.83-5.215s2.1-5.215,4.83-5.215,4.795,1.96,4.795,5.215S80.36-4.2,77.63-4.2Zm25.41-14.91a8.244,8.244,0,0,0-6.23,2.485V-18.83H91.6V0h5.46V-9.31c0-3.465,1.89-5.075,4.515-5.075,2.415,0,3.815,1.4,3.815,4.445V0h5.46V-10.78C110.845-16.52,107.485-19.11,103.04-19.11Zm31.395,9.765c0-6.055-4.27-9.765-9.8-9.765-5.74,0-10.045,4.06-10.045,9.695,0,5.6,4.235,9.7,10.745,9.7,3.395,0,6.02-1.05,7.77-3.045l-2.9-3.15a6.383,6.383,0,0,1-4.725,1.82c-2.87,0-4.865-1.435-5.39-3.78H134.33C134.365-8.33,134.435-8.925,134.435-9.345ZM124.67-14.98a4.475,4.475,0,0,1,4.62,3.92h-9.275A4.458,4.458,0,0,1,124.67-14.98ZM144.41.28c5.635,0,8.89-2.485,8.89-5.985,0-7.42-11.375-4.305-11.375-7.525,0-.98,1.05-1.75,3.5-1.75a10.813,10.813,0,0,1,5.425,1.4l1.82-3.885a15.484,15.484,0,0,0-7.245-1.645c-5.495,0-8.715,2.52-8.715,6.09,0,7.525,11.375,4.375,11.375,7.455,0,1.05-.945,1.715-3.465,1.715a12.883,12.883,0,0,1-6.545-1.82l-1.82,3.92A16.165,16.165,0,0,0,144.41.28Z" transform="translate(261 65)" fill="#003876"/><g transform="translate(3 3)"><g transform="translate(22.036 18.51)"><path d="M226,56.666c0,1.645.94,3.82,2.292,5.994l.118.059c.646.94,1.528,2,2,2,.176,0,3.585-4.936,3.585-4.936l2.468,3,4.525-6.758.94,1.41.118-5.406-4.583,3.585,2.233-.176-3.232,5.054-3-3.526s-2.174,3.232-3.232,4.584a10.327,10.327,0,0,1-2-4.995,8.293,8.293,0,0,1,16.571,0c0,4.348-8.109,12.928-8.109,12.928a51.574,51.574,0,0,1-4.29-4.877c-.176.353-1.116,1.175-1.293,1.528,2.821,3.7,5.582,6.934,5.582,6.934s10.4-10.812,10.4-16.454A10.276,10.276,0,0,0,236.577,46.5,10.415,10.415,0,0,0,226,56.666Z" transform="translate(-226 -46.5)" fill="#003876"/><path d="M240.293,87.493c2.409.646,3.526,1.822,2.762,3s-3.114,2-5.994,2-5.289-.764-6.17-1.88c-.823-1.175.176-2.409,2.527-3.056l-1.939-1.293c-3.761,1.058-5.289,2.938-4,4.76s5.112,3,9.578,3c4.466-.059,8.168-1.293,9.343-3.114s-.529-3.7-4.348-4.7Z" transform="translate(-226.425 -62.871)" fill="#003876"/></g><path d="M250.083,76.819H213.65l-18.1,13.751a2.218,2.218,0,0,1-3.056-.411,2.038,2.038,0,0,1-.411-1.7l2.174-11.694a6.839,6.839,0,0,1-3.761-1.939l-.118-.118a6.914,6.914,0,0,1-1.88-4.76V31.336a6.744,6.744,0,0,1,2.057-4.877h0a6.986,6.986,0,0,1,4.877-2.057h22.271V21.934a6.914,6.914,0,0,1,1.88-4.76l.118-.118A6.986,6.986,0,0,1,224.58,15h54.708a6.745,6.745,0,0,1,4.877,2.057h0a6.986,6.986,0,0,1,2.057,4.877V60.482a6.646,6.646,0,0,1-2.057,4.877h0a7.042,7.042,0,0,1-3.761,1.939l2.174,11.694a1.993,1.993,0,0,1-.411,1.7,2.165,2.165,0,0,1-3.056.411l-18.1-13.751h-4v2.468a6.646,6.646,0,0,1-2.057,4.877l-.117.118a6.428,6.428,0,0,1-4.76,2Zm6.993-40.429V46.2m0,4.348V63.009h4.7a2.087,2.087,0,0,1,1.469.588l14.044,10.636L275.7,65.595a2.155,2.155,0,0,1,1.763-2.527c.118,0,.235-.059.411-.059h1.528a2.578,2.578,0,0,0,1.822-.764h0a2.578,2.578,0,0,0,.764-1.822V21.934a2.578,2.578,0,0,0-.764-1.822h0a2.578,2.578,0,0,0-1.822-.764H224.639a2.578,2.578,0,0,0-1.822.764l-.059.059a2.56,2.56,0,0,0-.646,1.7V24.4h28.03a6.745,6.745,0,0,1,4.877,2.057h0a6.986,6.986,0,0,1,2.057,4.877v.646M212.945,72.47h37.138a2.452,2.452,0,0,0,1.7-.646l.059-.059a2.578,2.578,0,0,0,.764-1.822V31.336a2.578,2.578,0,0,0-.764-1.822h0a2.578,2.578,0,0,0-1.822-.764H195.258a2.578,2.578,0,0,0-1.822.764h0a2.578,2.578,0,0,0-.764,1.822V69.885a2.452,2.452,0,0,0,.646,1.7l.059.059a2.578,2.578,0,0,0,1.822.764h1.469a1.148,1.148,0,0,1,.411.059A2.185,2.185,0,0,1,198.842,75l-1.587,8.638L211.3,73A3.178,3.178,0,0,1,212.945,72.47Z" transform="translate(-188.5 -15)" fill="#003876" fill-rule="evenodd"/></g><path d="M-126.84-24.5-137.375-6.335-148.015-24.5h-2.135V0h2.485V-19.5l9.625,16.38h1.225L-127.19-19.6V0h2.485V-24.5Zm16.03,5.95a11.689,11.689,0,0,0-7.49,2.485l1.12,1.855a9.378,9.378,0,0,1,6.125-2.17c3.43,0,5.215,1.715,5.215,4.865v1.12h-5.845c-5.285,0-7.1,2.38-7.1,5.215,0,3.185,2.555,5.355,6.72,5.355,3.045,0,5.215-1.155,6.335-3.045V0h2.38V-11.41C-103.355-16.17-106.05-18.55-110.81-18.55Zm-.875,16.765c-2.94,0-4.655-1.33-4.655-3.465,0-1.89,1.155-3.29,4.725-3.29h5.775v3.01A5.89,5.89,0,0,1-111.685-1.785Zm24.57-16.765a8.019,8.019,0,0,0-7.1,3.78v-3.64H-96.6V6.79h2.485V-3.465a8.041,8.041,0,0,0,7,3.64c5.25,0,9.17-3.78,9.17-9.38A8.906,8.906,0,0,0-87.115-18.55ZM-87.29-2.03c-3.92,0-6.86-2.87-6.86-7.175,0-4.27,2.94-7.175,6.86-7.175,3.885,0,6.86,2.905,6.86,7.175C-80.43-4.9-83.4-2.03-87.29-2.03Zm20.755-16.52a11.689,11.689,0,0,0-7.49,2.485l1.12,1.855a9.378,9.378,0,0,1,6.125-2.17c3.43,0,5.215,1.715,5.215,4.865v1.12H-67.41c-5.285,0-7.1,2.38-7.1,5.215C-74.515-2-71.96.175-67.795.175-64.75.175-62.58-.98-61.46-2.87V0h2.38V-11.41C-59.08-16.17-61.775-18.55-66.535-18.55ZM-67.41-1.785c-2.94,0-4.655-1.33-4.655-3.465,0-1.89,1.155-3.29,4.725-3.29h5.775v3.01A5.89,5.89,0,0,1-67.41-1.785ZM-52.885,0h5.67V-24.5h-5.67Zm22.54-19.11a8.244,8.244,0,0,0-6.23,2.485V-18.83H-41.79V0h5.46V-9.31c0-3.465,1.89-5.075,4.515-5.075,2.415,0,3.815,1.4,3.815,4.445V0h5.46V-10.78C-22.54-16.52-25.9-19.11-30.345-19.11Zm25.83.28L-9.9-6.02-15.12-18.83h-5.635L-12.845,0H-7.21L.735-18.83ZM20.9-9.345c0-6.055-4.27-9.765-9.8-9.765-5.74,0-10.045,4.06-10.045,9.695,0,5.6,4.235,9.7,10.745,9.7,3.395,0,6.02-1.05,7.77-3.045L16.66-5.915A6.383,6.383,0,0,1,11.935-4.1c-2.87,0-4.865-1.435-5.39-3.78H20.79C20.825-8.33,20.9-8.925,20.9-9.345ZM11.13-14.98a4.474,4.474,0,0,1,4.62,3.92H6.475A4.458,4.458,0,0,1,11.13-14.98Zm18.62-1.365V-18.83H24.535V0H30V-8.89c0-3.605,2-5.25,5.005-5.25.42,0,.77.035,1.225.07v-5.04C33.32-19.11,31.08-18.165,29.75-16.345ZM45.885.28c5.635,0,8.89-2.485,8.89-5.985,0-7.42-11.375-4.305-11.375-7.525,0-.98,1.05-1.75,3.5-1.75a10.813,10.813,0,0,1,5.425,1.4l1.82-3.885A15.484,15.484,0,0,0,46.9-19.11c-5.495,0-8.715,2.52-8.715,6.09,0,7.525,11.375,4.375,11.375,7.455,0,1.05-.945,1.715-3.465,1.715A12.883,12.883,0,0,1,39.55-5.67L37.73-1.75A16.165,16.165,0,0,0,45.885.28Zm14.98-21.735a3.14,3.14,0,0,0,3.4-3.15c0-1.68-1.365-2.94-3.4-2.94a3.121,3.121,0,0,0-3.4,3.045A3.121,3.121,0,0,0,60.865-21.455ZM58.135,0H63.6V-18.83h-5.46Zm19.5.28c5.985,0,10.325-4.025,10.325-9.7S83.615-19.11,77.63-19.11,67.27-15.085,67.27-9.415,71.645.28,77.63.28Zm0-4.48c-2.73,0-4.83-1.96-4.83-5.215s2.1-5.215,4.83-5.215,4.795,1.96,4.795,5.215S80.36-4.2,77.63-4.2Zm25.41-14.91a8.244,8.244,0,0,0-6.23,2.485V-18.83H91.6V0h5.46V-9.31c0-3.465,1.89-5.075,4.515-5.075,2.415,0,3.815,1.4,3.815,4.445V0h5.46V-10.78C110.845-16.52,107.485-19.11,103.04-19.11Zm31.395,9.765c0-6.055-4.27-9.765-9.8-9.765-5.74,0-10.045,4.06-10.045,9.695,0,5.6,4.235,9.7,10.745,9.7,3.395,0,6.02-1.05,7.77-3.045l-2.9-3.15a6.383,6.383,0,0,1-4.725,1.82c-2.87,0-4.865-1.435-5.39-3.78H134.33C134.365-8.33,134.435-8.925,134.435-9.345ZM124.67-14.98a4.475,4.475,0,0,1,4.62,3.92h-9.275A4.458,4.458,0,0,1,124.67-14.98ZM144.41.28c5.635,0,8.89-2.485,8.89-5.985,0-7.42-11.375-4.305-11.375-7.525,0-.98,1.05-1.75,3.5-1.75a10.813,10.813,0,0,1,5.425,1.4l1.82-3.885a15.484,15.484,0,0,0-7.245-1.645c-5.495,0-8.715,2.52-8.715,6.09,0,7.525,11.375,4.375,11.375,7.455,0,1.05-.945,1.715-3.465,1.715a12.883,12.883,0,0,1-6.545-1.82l-1.82,3.92A16.165,16.165,0,0,0,144.41.28Z" transform="translate(261.15 65)" fill="#003876"/><path d="M-49.82.2a7.106,7.106,0,0,0,5.56-2.34l-1.68-1.6a4.867,4.867,0,0,1-3.74,1.66,4.78,4.78,0,0,1-5-4.92,4.78,4.78,0,0,1,5-4.92,4.917,4.917,0,0,1,3.74,1.64l1.68-1.58A7.092,7.092,0,0,0-49.8-14.2,7.135,7.135,0,0,0-57.3-7,7.129,7.129,0,0,0-49.82.2Zm13.88-11A4.761,4.761,0,0,0-39.5-9.44v-5.4H-42V0h2.5V-5.4c0-2.14,1.2-3.22,2.98-3.22,1.6,0,2.54.92,2.54,2.82V0h2.5V-6.12C-31.48-9.34-33.38-10.8-35.94-10.8Zm11.72,0a7.509,7.509,0,0,0-4.52,1.32l.98,1.82a5.287,5.287,0,0,1,3.24-1.06c1.78,0,2.66.86,2.66,2.32v.16h-2.76c-3.24,0-4.44,1.4-4.44,3.18,0,1.86,1.54,3.2,3.98,3.2A3.785,3.785,0,0,0-21.72-1.3V0h2.36V-6.26C-19.36-9.34-21.14-10.8-24.22-10.8Zm-.34,9.12c-1.28,0-2.04-.58-2.04-1.48,0-.78.46-1.42,2.16-1.42h2.58v1.24A2.722,2.722,0,0,1-24.56-1.68Zm14.12-.68a2.248,2.248,0,0,1-1.4.44c-.96,0-1.48-.56-1.48-1.6V-8.6h2.86v-2h-2.86v-2.44h-2.5v2.44h-1.76v2h1.76v5.14c0,2.36,1.34,3.6,3.68,3.6a3.928,3.928,0,0,0,2.4-.72ZM2-5.28A5.208,5.208,0,0,0-3.4-10.8,5.311,5.311,0,0,0-8.92-5.34C-8.92-2.16-6.6.14-3.02.14A5.413,5.413,0,0,0,1.28-1.6L-.06-3.14a3.827,3.827,0,0,1-2.9,1.16A3.232,3.232,0,0,1-6.42-4.54H1.96C1.98-4.78,2-5.08,2-5.28ZM-3.4-8.8A2.907,2.907,0,0,1-.38-6.2H-6.44A2.952,2.952,0,0,1-3.4-8.8Zm11.58-2A7.509,7.509,0,0,0,3.66-9.48l.98,1.82A5.287,5.287,0,0,1,7.88-8.72c1.78,0,2.66.86,2.66,2.32v.16H7.78c-3.24,0-4.44,1.4-4.44,3.18C3.34-1.2,4.88.14,7.32.14A3.785,3.785,0,0,0,10.68-1.3V0h2.36V-6.26C13.04-9.34,11.26-10.8,8.18-10.8ZM7.84-1.68c-1.28,0-2.04-.58-2.04-1.48,0-.78.46-1.42,2.16-1.42h2.58v1.24A2.722,2.722,0,0,1,7.84-1.68ZM26.66.14a4.855,4.855,0,0,0,4.56-2.5L29.3-3.48A3.022,3.022,0,0,1,26.64-2,3.124,3.124,0,0,1,23.4-5.34a3.135,3.135,0,0,1,3.24-3.34A3.022,3.022,0,0,1,29.3-7.2l1.92-1.12a4.806,4.806,0,0,0-4.56-2.48c-3.38,0-5.78,2.26-5.78,5.46A5.42,5.42,0,0,0,26.66.14Zm11.36,0a5.386,5.386,0,0,0,5.7-5.48,5.37,5.37,0,0,0-5.7-5.46,5.376,5.376,0,0,0-5.68,5.46A5.392,5.392,0,0,0,38.02.14Zm0-2.14a3.106,3.106,0,0,1-3.16-3.34,3.106,3.106,0,0,1,3.16-3.34A3.11,3.11,0,0,1,41.2-5.34,3.11,3.11,0,0,1,38.02-2Zm14.16-8.8A4.644,4.644,0,0,0,48.5-9.3v-1.38H46.12V0h2.5V-5.4c0-2.14,1.2-3.22,2.98-3.22,1.6,0,2.54.92,2.54,2.82V0h2.5V-6.12C56.64-9.34,54.74-10.8,52.18-10.8Z" transform="translate(169 34.5)" fill="#003876"/></g></svg>