<svg xmlns="http://www.w3.org/2000/svg" width="41" height="41" viewBox="0 0 41 41">
  <g id="ic-chatbot" transform="translate(-10157 173)">
    <rect id="Rectangle_4014" data-name="Rectangle 4014" width="41" height="41" transform="translate(10157 -173)" fill="#1a4f70"/>
    <g id="Group_4372" data-name="Group 4372" transform="translate(10166 -161)">
      <g id="Group_3" data-name="Group 3" transform="translate(5.186 4.356)">
        <g id="Group_2" data-name="Group 2">
          <path id="Path_16" data-name="Path 16" d="M226,48.892a3.018,3.018,0,0,0,.539,1.411l.028.014c.152.221.36.47.47.47.042,0,.844-1.162.844-1.162l.581.705,1.065-1.59.221.332.028-1.272-1.079.844.525-.041-.761,1.189-.705-.83s-.512.761-.761,1.079a2.43,2.43,0,0,1-.47-1.175,1.952,1.952,0,0,1,3.9,0c0,1.023-1.908,3.042-1.908,3.042a12.137,12.137,0,0,1-1.01-1.148c-.041.083-.263.277-.3.36.664.871,1.314,1.632,1.314,1.632s2.448-2.544,2.448-3.872a2.418,2.418,0,0,0-2.475-2.379A2.451,2.451,0,0,0,226,48.892Z" transform="translate(-226 -46.5)" fill="#fff"/>
          <path id="Path_17" data-name="Path 17" d="M230.152,86.5c.567.152.83.429.65.705a1.774,1.774,0,0,1-1.411.47,1.988,1.988,0,0,1-1.452-.443c-.194-.277.041-.567.595-.719l-.456-.3c-.885.249-1.245.691-.94,1.12a2.967,2.967,0,0,0,2.254.705,2.826,2.826,0,0,0,2.2-.733c.277-.429-.124-.871-1.023-1.106Z" transform="translate(-226.889 -80.71)" fill="#fff"/>
        </g>
      </g>
      <path id="Path_18" data-name="Path 18" d="M202.992,29.548h-8.574l-4.259,3.236a.522.522,0,0,1-.719-.1.48.48,0,0,1-.1-.4l.512-2.752a1.609,1.609,0,0,1-.885-.456l-.028-.028a1.627,1.627,0,0,1-.443-1.12V18.844a1.587,1.587,0,0,1,.484-1.148h0a1.644,1.644,0,0,1,1.148-.484h5.241v-.581a1.627,1.627,0,0,1,.443-1.12l.028-.028A1.644,1.644,0,0,1,196.991,15h12.874a1.587,1.587,0,0,1,1.148.484h0a1.644,1.644,0,0,1,.484,1.148V25.7a1.564,1.564,0,0,1-.484,1.148h0a1.657,1.657,0,0,1-.885.456l.512,2.752a.469.469,0,0,1-.1.4.509.509,0,0,1-.719.1l-4.259-3.236h-.94V27.9a1.564,1.564,0,0,1-.484,1.148l-.028.028a1.513,1.513,0,0,1-1.12.47Zm1.646-9.514v2.309m0,1.023V26.3h1.106a.491.491,0,0,1,.346.138l3.305,2.5-.373-2.033a.507.507,0,0,1,.415-.595c.028,0,.055-.014.1-.014h.36a.607.607,0,0,0,.429-.18h0a.607.607,0,0,0,.18-.429V16.632a.607.607,0,0,0-.18-.429h0a.607.607,0,0,0-.429-.18H197a.607.607,0,0,0-.429.18l-.014.014a.6.6,0,0,0-.152.4v.595h6.6a1.587,1.587,0,0,1,1.148.484h0a1.644,1.644,0,0,1,.484,1.148V19m-10.385,9.528h8.74a.577.577,0,0,0,.4-.152l.014-.014a.607.607,0,0,0,.18-.429V18.844a.607.607,0,0,0-.18-.429h0a.607.607,0,0,0-.429-.18H190.09a.607.607,0,0,0-.429.18h0a.607.607,0,0,0-.18.429v9.072a.577.577,0,0,0,.152.4l.014.014a.607.607,0,0,0,.429.18h.346a.27.27,0,0,1,.1.014.514.514,0,0,1,.415.595l-.373,2.033,3.305-2.5A.748.748,0,0,1,194.253,28.524Z" transform="translate(-188.5 -15)" fill="#fff" fill-rule="evenodd"/>
    </g>
  </g>
</svg>
