<?xml version="1.0" encoding="UTF-8"?>
<svg id="Capa_1" data-name="Capa 1" xmlns="http://www.w3.org/2000/svg" width="75.6mm" height="78.3mm" version="1.1" viewBox="0 0 214.3 221.9">
  <defs>
    <style>
      .cls-1 {
        fill: #e94e1b;
        stroke-width: 0px;
      }
    </style>
  </defs>
  <path class="cls-1" d="M115.6,178.8h-16.8c-1.9,0-3.5-1.6-3.5-3.5v-92.4c0-1.9,1.6-3.5,3.5-3.5h16.8c1.9,0,3.5,1.6,3.5,3.5v92.4c0,1.9-1.6,3.5-3.5,3.5ZM102.3,171.9h9.8v-85.4h-9.8v85.4ZM106.9,70.8c-7.8,0-13.6-5.9-13.6-13.8s6-14,14-14,13.8,5.9,13.8,13.9c.1,3.7-1.2,7.1-3.6,9.7-2.6,2.7-6.3,4.2-10.5,4.2ZM107.2,50c-4.1,0-7,2.9-7,7s2.8,6.8,6.6,6.8,4.2-.7,5.5-2.1c1.2-1.2,1.7-2.8,1.7-4.6,0,0,0,0,0-.1,0-4.3-2.7-7-6.8-7ZM121,57h0,0Z"/>
  <path class="cls-1" d="M107.1,206.5c-52.7,0-95.5-42.9-95.5-95.5S54.5,15.4,107.1,15.4s95.5,42.9,95.5,95.5-42.9,95.5-95.5,95.5ZM107.1,22.4c-48.8,0-88.6,39.7-88.6,88.6s39.7,88.6,88.6,88.6,88.6-39.7,88.6-88.6S156,22.4,107.1,22.4Z"/>
</svg>