<?xml version="1.0" encoding="UTF-8"?>
<svg id="Capa_1" data-name="Capa 1" xmlns="http://www.w3.org/2000/svg" width="75.6mm" height="78.3mm" version="1.1" viewBox="0 0 214.3 221.9">
  <defs>
    <style>
      .cls-1 {
        fill: #e94e1b;
      }

      .cls-1, .cls-2 {
        stroke-width: 0px;
      }

      .cls-2 {
        fill: #2d2e83;
      }
    </style>
  </defs>
  <g>
    <path class="cls-1" d="M496.6,172.8h-16.8c-1.9,0-3.5-1.6-3.5-3.5v-92.4c0-1.9,1.6-3.5,3.5-3.5h16.8c1.9,0,3.5,1.6,3.5,3.5v92.4c0,1.9-1.6,3.5-3.5,3.5ZM483.3,165.9h9.8v-85.4h-9.8v85.4ZM487.9,64.8c-7.8,0-13.6-5.9-13.6-13.8s6-14,14-14,13.8,5.9,13.8,13.9c.1,3.7-1.2,7.1-3.6,9.7-2.6,2.7-6.3,4.2-10.5,4.2ZM488.2,44c-4.1,0-7,2.9-7,7s2.8,6.8,6.6,6.8,4.2-.7,5.5-2.1c1.2-1.2,1.7-2.8,1.7-4.6,0,0,0,0,0-.1,0-4.3-2.7-7-6.8-7ZM502,51h0,0Z"/>
    <path class="cls-1" d="M488.1,200.5c-52.7,0-95.5-42.9-95.5-95.5S435.5,9.4,488.1,9.4s95.5,42.9,95.5,95.5-42.9,95.5-95.5,95.5ZM488.1,16.4c-48.8,0-88.6,39.7-88.6,88.6s39.7,88.6,88.6,88.6,88.6-39.7,88.6-88.6-39.7-88.6-88.6-88.6Z"/>
  </g>
  <g>
    <g>
      <g>
        <path class="cls-2" d="M146,76.9H51.3c-1.5,0-2.7-1.2-2.7-2.7s1.2-2.7,2.7-2.7h94.7c1.5,0,2.7,1.2,2.7,2.7s-1.2,2.7-2.7,2.7Z"/>
        <path class="cls-2" d="M107.2,105.1h-55.9c-1.5,0-2.7-1.2-2.7-2.7s1.2-2.7,2.7-2.7h55.9c1.5,0,2.7,1.2,2.7,2.7s-1.2,2.7-2.7,2.7Z"/>
      </g>
      <path class="cls-2" d="M43.8,173.3c-.3,0-.7,0-1-.2-1-.4-1.7-1.4-1.7-2.5v-34.3c-16.9-12.4-26.6-29.8-26.6-48,0-36.3,37.8-65.8,84.2-65.8s84.2,29.5,84.2,65.8-37.8,65.8-84.2,65.8-20.6-1.5-30.2-4.4l-22.8,22.8c-.5.5-1.2.8-1.9.8ZM46.5,135.1v29l19.3-19.3c.7-.7,1.8-1,2.7-.7,9.6,3.1,19.7,4.6,30.2,4.6,43.4,0,78.8-27.1,78.8-60.4s-35.3-60.4-78.8-60.4S19.9,55,19.9,88.3s9.3,33,25.4,44.4c.8.6,1.2,1.5,1.1,2.4Z"/>
    </g>
    <path class="cls-2" d="M175.5,199.4c-.7,0-1.4-.3-1.9-.8l-18.3-18.3c-7.8,2.3-16,3.5-24.5,3.5-22.8,0-44.2-8.8-57-23.6-1-1.1-.9-2.8.3-3.8,1.1-1,2.8-.9,3.8.3,11.9,13.6,31.7,21.7,53,21.7s16.6-1.3,24.4-3.7c1-.3,2,0,2.7.7l14.9,14.9v-22.4c0-.9.4-1.8,1.1-2.4,13-9.2,20.5-22.2,20.5-35.7s-3.3-17.9-9.5-25.5c-.9-1.2-.8-2.9.4-3.8,1.2-.9,2.9-.8,3.8.4,7,8.6,10.7,18.7,10.7,29,0,14.9-7.9,29.1-21.6,39.3v27.7c0,1.1-.7,2.1-1.7,2.5-.3.1-.7.2-1,.2Z"/>
  </g>
</svg>