<?xml version="1.0" encoding="UTF-8"?>
<svg id="Capa_1" data-name="Capa 1" xmlns="http://www.w3.org/2000/svg" viewBox="0 0 102.64 102.64">
  <defs>
    <style>
      .cls-1 {
        fill: #1c5071;
      }
    </style>
  </defs>
  <g>
    <path class="cls-1" d="M59.31,89.26h-15.97c-.93,0-1.68-.75-1.68-1.68v-49.72c0-.93.75-1.68,1.68-1.68h15.97c.93,0,1.68.75,1.68,1.68v49.72c0,.93-.75,1.68-1.68,1.68ZM45.02,85.9h12.61v-46.37h-12.61v46.37Z"/>
    <path class="cls-1" d="M51.32,32.71c-5.33,0-9.66-4.33-9.66-9.66s4.33-9.66,9.66-9.66,9.66,4.33,9.66,9.66-4.33,9.66-9.66,9.66ZM51.32,16.74c-3.48,0-6.3,2.83-6.3,6.3s2.83,6.3,6.3,6.3,6.3-2.83,6.3-6.3-2.83-6.3-6.3-6.3Z"/>
  </g>
  <path class="cls-1" d="M51.32,102.64C23.02,102.64,0,79.62,0,51.32S23.02,0,51.32,0s51.32,23.02,51.32,51.32-23.02,51.32-51.32,51.32ZM51.32,3.36C24.87,3.36,3.36,24.87,3.36,51.32s21.52,47.96,47.96,47.96,47.97-21.52,47.97-47.96S77.77,3.36,51.32,3.36Z"/>
</svg>