<?xml version="1.0" encoding="UTF-8"?>
<svg id="Capa_1" xmlns="http://www.w3.org/2000/svg" version="1.1" viewBox="0 0 884.5 296.4">
  <!-- Generator: Adobe Illustrator 29.4.0, SVG Export Plug-In . SVG Version: 2.1.0 Build 152)  -->
  <defs>
    <style>
      .st0, .st1 {
        fill: #1a4f70;
      }

      .st1 {
        fill-rule: evenodd;
      }
    </style>
  </defs>
  <path id="Path_48" class="st0" d="M89.4,122.1c0,4.6,2.6,10.6,6.3,16.6h.3c1.8,2.8,4.2,5.7,5.5,5.7s9.9-13.7,9.9-13.7l6.8,8.3,12.5-18.7,2.6,3.9.3-15-12.7,9.9,6.2-.5-8.9,14-8.3-9.8s-6,8.9-8.9,12.7c-3.3-5-5.5-9.9-5.5-13.8,0-12,10.4-22,22.9-22s22.9,9.9,22.9,22-22.5,35.8-22.5,35.8c-4.2-4.2-8.2-8.8-11.9-13.5-.5,1-3.1,3.3-3.6,4.2,7.8,10.2,15.5,19.2,15.5,19.2,0,0,28.8-29.9,28.8-45.5s-13-28-29.1-28c-16.3.2-29.3,12.7-29.3,28.1Z"/>
  <path id="Path_49" class="st0" d="M127.8,162.2c6.7,1.8,9.8,5,7.6,8.3s-8.6,5.5-16.6,5.5-14.6-2.1-17.1-5.2c-2.3-3.3.5-6.7,7-8.5l-5.4-3.6c-10.4,2.9-14.6,8.1-11.1,13.2s14.2,8.3,26.5,8.3,22.6-3.6,25.9-8.6c3.3-5-1.5-10.2-12-13l-4.9,3.6Z"/>
  <path id="Path_50" class="st1" d="M198.8,213.9h-100.9l-50.1,38.1c-2.7,2-6.4,1.5-8.5-1.1-1.1-1.3-1.5-3.1-1.1-4.7l6-32.4c-4-.6-7.6-2.5-10.4-5.4l-.3-.3c-3.4-3.6-5.2-8.3-5.2-13.2v-106.9c0-5.1,2-10,5.7-13.5h0c3.6-3.6,8.4-5.6,13.5-5.7h61.6v-6.8c0-4.9,1.8-9.6,5.2-13.2l.3-.3c3.6-3.6,8.4-5.6,13.5-5.7h151.4c5.1,0,10,2,13.5,5.7h0c3.6,3.6,5.6,8.4,5.7,13.5v106.7c0,5.1-2,10-5.7,13.5h0c-2.8,2.8-6.5,4.7-10.4,5.4l6,32.4c.4,1.7,0,3.4-1.1,4.7-2,2.6-5.7,3.2-8.4,1.2,0,0,0,0,0,0l-50.1-38.1h-11.1v6.8c0,5.1-2,10-5.7,13.5l-.3.3c-3.4,3.6-8.2,5.6-13.2,5.5h0ZM218.2,102v27.2M218.2,141.2v34.5h13c1.5,0,3,.6,4.1,1.6l38.9,29.4-4.4-23.9c-.6-3.2,1.5-6.4,4.7-7,0,0,0,0,.1,0h5.4c1.9,0,3.7-.8,5-2.1h0c1.3-1.3,2.1-3.1,2.1-5V62c0-1.9-.8-3.7-2.1-5h0c-1.3-1.3-3.1-2.1-5-2.1h-151.6c-1.9,0-3.7.8-5,2.1h-.2c-1.1,1.4-1.8,3.1-1.8,4.9v7h77.6c5.1,0,10,2,13.5,5.7h0c3.6,3.6,5.6,8.4,5.7,13.5v1.8M96,201.8h102.8c1.7,0,3.4-.6,4.7-1.8h.2c1.3-1.4,2.1-3.3,2.1-5.2v-106.9c0-1.9-.8-3.7-2.1-5h0c-1.3-1.3-3.1-2.1-5-2.1H47.1c-1.9,0-3.7.8-5,2.1h0c-1.3,1.3-2.1,3.1-2.1,5v106.7c0,1.7.6,3.4,1.8,4.7h.2c1.3,1.5,3.1,2.3,5.1,2.3h5.2c3.3.6,5.5,3.7,4.9,7l-4.4,23.9,38.9-29.4c1.4-.9,2.9-1.4,4.6-1.5v.2Z"/>
  <path id="Path_51" class="st0" d="M385.2,182v-42.1l-20.8,34.8h-7.3l-20.7-33.8v41.3h-15.3v-70.3h13.5l26.4,43.6,25.9-43.6h13.3v70.3h-15.1l.2-.2Z"/>
  <path id="Path_52" class="st0" d="M464,151.3v30.7h-14.6v-6.7c-2.9,4.9-8.5,7.5-16.4,7.5-12.7,0-20.2-7-20.2-16.4s6.7-16.1,23.3-16.1h12.5c0-6.7-4.1-10.6-12.5-10.6s-11.7,2-15.6,5l-5.7-10.9c5.9-4.2,14.6-6.5,23.3-6.5,16.4,0,26,7.6,26,24.1v-.2ZM448.4,164.9v-5.5h-10.7c-7.3,0-9.6,2.8-9.6,6.3s3.3,6.5,8.8,6.5,9.8-2.4,11.5-7.3Z"/>
  <path id="Path_53" class="st0" d="M537,155c0,16.9-11.7,27.8-26.8,27.8s-12.2-2.1-16.3-6.5v25.2h-15.6v-73.5h15v6.2c3.9-4.7,9.8-7,16.9-7,15.1,0,26.8,10.9,26.8,27.8ZM521.1,155c0-9.3-5.9-15-13.8-15s-13.8,5.7-13.8,15,5.9,15,13.8,15,13.8-5.7,13.8-15h0Z"/>
  <path id="Path_54" class="st0" d="M594.3,151.3v30.7h-14.6v-6.7c-2.9,4.9-8.5,7.5-16.4,7.5-12.7,0-20.2-7-20.2-16.4s6.7-16.1,23.3-16.1h12.5c0-6.7-4.1-10.6-12.5-10.6s-11.7,2-15.6,5l-5.7-10.9c5.9-4.2,14.6-6.5,23.3-6.5,16.4,0,26,7.6,26,24.1v-.2ZM578.7,164.9v-5.5h-10.7c-7.3,0-9.6,2.8-9.6,6.3s3.3,6.5,8.8,6.5,9.8-2.4,11.5-7.3Z"/>
  <g>
    <path class="st0" d="M599,147.1c0-19.9,15.3-34.2,35.9-34.2s21,4.2,27.2,11.7l-9.8,9.1c-4.4-5.1-10-7.8-16.6-7.8-12.4,0-21.2,8.7-21.2,21.2s8.8,21.2,21.2,21.2,12.2-2.6,16.6-7.8l9.8,9.1c-6.2,7.7-15.8,11.8-27.3,11.8-20.5,0-35.8-14.3-35.8-34.2Z"/>
    <path class="st0" d="M733.2,114v66.2h-15.3v-27.1h-30.1v27.1h-15.3v-66.2h15.3v26.1h30.1v-26.1h15.3Z"/>
    <path class="st0" d="M792.4,166h-30.7l-5.9,14.2h-15.7l29.5-66.2h15.1l29.6,66.2h-16.1l-5.9-14.2ZM787.6,154.4l-10.5-25.3-10.5,25.3h21Z"/>
    <path class="st0" d="M831.7,126.5h-21.2v-12.5h57.7v12.5h-21.2v53.7h-15.3v-53.7Z"/>
  </g>
</svg>