<?xml version="1.0" encoding="UTF-8"?>
<svg id="Capa_1" data-name="Capa 1" xmlns="http://www.w3.org/2000/svg" viewBox="0 0 109.11 69.65">
  <defs>
    <style>
      .cls-1 {
        fill: #1c5071;
      }
    </style>
  </defs>
  <g>
    <path class="cls-1" d="M94.19,51.37c-.95,0-1.73-.77-1.73-1.73V9.21H9.92v40.44c0,.95-.77,1.73-1.73,1.73s-1.73-.77-1.73-1.73V7.48c0-.95.77-1.73,1.73-1.73h86c.96,0,1.73.77,1.73,1.73v42.16c0,.95-.77,1.73-1.73,1.73Z"/>
    <path class="cls-1" d="M94.31,67.17H8.4c-5.13,0-8.4-7.79-8.4-11.86,0-.95.77-1.73,1.73-1.73h31.25c.96,0,1.73.77,1.73,1.73,0,.4.34.74.74.74h31.82c.4,0,.74-.34.74-.74,0-.95.77-1.73,1.73-1.73h31.25c.95,0,1.73.77,1.73,1.73,0,4.07-3.27,11.86-8.4,11.86ZM3.66,57.04c.67,3.08,2.87,6.68,4.74,6.68h85.9c1.88,0,4.07-3.6,4.74-6.68h-27.96c-.66,1.45-2.13,2.47-3.82,2.47h-31.82c-1.7,0-3.16-1.01-3.82-2.47H3.66Z"/>
  </g>
  <g>
    <path class="cls-1" d="M22.26,50.68c-4,0-7.25-3.25-7.25-7.25s3.25-7.25,7.25-7.25,7.25,3.25,7.25,7.25-3.25,7.25-7.25,7.25ZM22.26,39.63c-2.09,0-3.8,1.7-3.8,3.8s1.7,3.8,3.8,3.8,3.8-1.7,3.8-3.8-1.7-3.8-3.8-3.8Z"/>
    <path class="cls-1" d="M50.17,31.06c-4,0-7.25-3.25-7.25-7.25s3.25-7.25,7.25-7.25,7.25,3.25,7.25,7.25-3.25,7.25-7.25,7.25ZM50.17,20.01c-2.09,0-3.8,1.7-3.8,3.8s1.7,3.8,3.8,3.8,3.8-1.7,3.8-3.8-1.7-3.8-3.8-3.8Z"/>
    <path class="cls-1" d="M78.08,40.83c-4,0-7.25-3.25-7.25-7.25s3.25-7.25,7.25-7.25,7.25,3.25,7.25,7.25-3.25,7.25-7.25,7.25ZM78.08,29.78c-2.09,0-3.8,1.7-3.8,3.8s1.7,3.8,3.8,3.8,3.8-1.7,3.8-3.8-1.7-3.8-3.8-3.8Z"/>
    <path class="cls-1" d="M72.88,33.48c-.19,0-.38-.03-.57-.1l-17.49-6.12c-.9-.32-1.37-1.3-1.06-2.2.31-.9,1.3-1.37,2.2-1.06l17.49,6.12c.9.31,1.37,1.3,1.06,2.2-.25.71-.92,1.16-1.63,1.16Z"/>
    <path class="cls-1" d="M26.78,41.98c-.54,0-1.08-.26-1.42-.73-.55-.78-.36-1.86.42-2.41l18.88-13.27c.78-.55,1.86-.36,2.41.42.55.78.36,1.86-.42,2.41l-18.88,13.27c-.3.21-.65.31-.99.31Z"/>
  </g>
  <g>
    <path class="cls-1" d="M65.34,51.75c-14.27,0-25.88-11.61-25.88-25.88S51.07,0,65.34,0s25.88,11.61,25.88,25.88-11.61,25.88-25.88,25.88ZM65.34,2.46c-12.91,0-23.42,10.51-23.42,23.42s10.51,23.42,23.42,23.42,23.42-10.51,23.42-23.42S78.25,2.46,65.34,2.46Z"/>
    <path class="cls-1" d="M107.89,69.65c-.31,0-.63-.12-.87-.36l-25.12-25.12c-.48-.48-.48-1.26,0-1.74.48-.48,1.26-.48,1.74,0l25.12,25.12c.48.48.48,1.26,0,1.74-.24.24-.55.36-.87.36Z"/>
  </g>
</svg>