<?xml version="1.0" encoding="UTF-8"?>
<svg id="Layer_1" xmlns="http://www.w3.org/2000/svg" version="1.1" xmlns:xlink="http://www.w3.org/1999/xlink" viewBox="0 0 260.1 78.2">
  <!-- Generator: Adobe Illustrator 30.0.0, SVG Export Plug-In . SVG Version: 2.1.1 Build 123)  -->
  <defs>
    <style>
      .st0 {
        fill: none;
      }

      .st1 {
        fill-rule: evenodd;
      }

      .st1, .st2 {
        fill: #003876;
      }

      .st3 {
        clip-path: url(#clippath);
      }
    </style>
    <clipPath id="clippath">
      <rect class="st0" y="15.12" width="260.1" height="50.16"/>
    </clipPath>
  </defs>
  <g class="st3">
    <g id="a">
      <path class="st2" d="M83.08,40.2l-6.52,11.25-6.59-11.25h-1.32v15.17h1.54v-12.08l5.96,10.14h.76l5.96-10.21v12.14h1.54v-15.17h-1.32ZM93.01,43.89c-1.68-.04-3.32.5-4.64,1.54l.69,1.15c1.06-.89,2.41-1.36,3.79-1.34,2.12,0,3.23,1.06,3.23,3.01v.69h-3.62c-3.27,0-4.4,1.47-4.4,3.23,0,1.97,1.58,3.32,4.16,3.32,1.89,0,3.23-.72,3.92-1.89v1.78h1.47v-7.07c0-2.95-1.67-4.42-4.62-4.42ZM92.47,54.27c-1.82,0-2.88-.82-2.88-2.15,0-1.17.72-2.04,2.93-2.04h3.58v1.86c-.57,1.48-2.04,2.41-3.62,2.32ZM107.68,43.89c-1.78-.06-3.46.83-4.4,2.34v-2.25h-1.48v15.61h1.54v-6.35c.95,1.46,2.6,2.31,4.33,2.25,3.25,0,5.68-2.34,5.68-5.81.15-3.04-2.19-5.63-5.23-5.78-.15,0-.3,0-.44,0ZM107.58,54.12c-2.43,0-4.25-1.78-4.25-4.44s1.82-4.44,4.25-4.44,4.25,1.8,4.25,4.44-1.84,4.44-4.25,4.44ZM120.43,43.89c-1.68-.04-3.32.5-4.64,1.54l.69,1.15c1.06-.89,2.41-1.36,3.79-1.34,2.12,0,3.23,1.06,3.23,3.01v.69h-3.62c-3.27,0-4.4,1.47-4.4,3.23,0,1.97,1.58,3.32,4.16,3.32,1.89,0,3.23-.72,3.92-1.89v1.78h1.47v-7.07c0-2.95-1.67-4.42-4.62-4.42ZM119.89,54.27c-1.82,0-2.88-.82-2.88-2.15,0-1.17.72-2.04,2.93-2.04h3.58v1.86c-.57,1.48-2.04,2.41-3.62,2.32ZM128.88,55.38h3.51v-15.17h-3.51v15.17ZM142.84,43.54c-1.45-.06-2.85.5-3.86,1.54v-1.37h-3.23v11.66h3.38v-5.77c0-2.15,1.17-3.14,2.8-3.14,1.5,0,2.36.87,2.36,2.75v6.16h3.38v-6.68c0-3.55-2.08-5.16-4.83-5.16ZM158.84,43.71l-3.33,7.93-3.23-7.93h-3.49l4.9,11.66h3.49l4.92-11.66h-3.25ZM174.57,49.59c0-3.75-2.64-6.05-6.07-6.05s-6.22,2.51-6.22,6,2.62,6.01,6.65,6.01c2.1,0,3.73-.65,4.81-1.89l-1.8-1.95c-.78.76-1.84,1.17-2.93,1.12-1.78,0-3.01-.89-3.34-2.34h8.82c.02-.28.07-.65.07-.91ZM168.52,46.1c1.44-.06,2.68,1,2.86,2.43h-5.74c.17-1.44,1.43-2.5,2.88-2.43ZM180.06,45.25v-1.54h-3.23v11.66h3.38v-5.51c0-2.23,1.24-3.25,3.1-3.25.26,0,.48.02.76.04v-3.12c-1.8,0-3.19.59-4.01,1.71ZM190.05,55.55c3.49,0,5.51-1.54,5.51-3.71,0-4.6-7.04-2.67-7.04-4.66,0-.61.65-1.08,2.17-1.08,1.18-.01,2.34.29,3.36.87l1.13-2.41c-1.39-.7-2.93-1.05-4.49-1.02-3.4,0-5.4,1.56-5.4,3.77,0,4.66,7.04,2.71,7.04,4.62,0,.65-.59,1.06-2.15,1.06-1.43,0-2.83-.4-4.05-1.13l-1.13,2.43c1.54.86,3.29,1.29,5.05,1.26ZM199.32,42.09c1.07.09,2.01-.71,2.1-1.78,0-.06,0-.12,0-.17,0-1.04-.85-1.82-2.11-1.82-1.06-.1-2,.69-2.1,1.75,0,.04,0,.09,0,.13.02,1.07.9,1.91,1.97,1.89.04,0,.09,0,.13,0ZM197.63,55.38h3.38v-11.66h-3.38v11.66ZM209.71,55.55c3.71,0,6.39-2.49,6.39-6.01s-2.69-6-6.4-6-6.42,2.49-6.42,6,2.71,6,6.42,6h0ZM209.71,52.77c-1.69,0-2.99-1.21-2.99-3.23s1.3-3.23,2.99-3.23,2.97,1.21,2.97,3.23-1.28,3.23-2.97,3.23h0ZM225.45,43.54c-1.45-.06-2.85.5-3.86,1.54v-1.37h-3.23v11.66h3.38v-5.77c0-2.15,1.17-3.14,2.8-3.14,1.5,0,2.36.87,2.36,2.75v6.16h3.38v-6.68c0-3.55-2.08-5.16-4.84-5.16h0ZM244.89,49.59c0-3.75-2.64-6.05-6.07-6.05s-6.22,2.51-6.22,6,2.62,6.01,6.65,6.01c2.1,0,3.73-.65,4.81-1.89l-1.8-1.95c-.78.76-1.84,1.17-2.93,1.13-1.78,0-3.01-.89-3.34-2.34h8.82c.02-.28.07-.65.07-.91h0ZM238.84,46.1c1.44-.06,2.68,1,2.86,2.43h-5.74c.17-1.44,1.43-2.5,2.88-2.43ZM251.06,55.55c3.49,0,5.51-1.54,5.51-3.71,0-4.6-7.04-2.67-7.04-4.66,0-.61.65-1.08,2.17-1.08,1.18-.01,2.34.29,3.36.87l1.13-2.41c-1.39-.7-2.93-1.05-4.49-1.02-3.4,0-5.4,1.56-5.4,3.77,0,4.66,7.04,2.71,7.04,4.62,0,.65-.59,1.06-2.15,1.06-1.43,0-2.83-.4-4.05-1.13l-1.13,2.43c1.54.86,3.29,1.29,5.05,1.26Z"/>
      <g>
        <g>
          <path class="st2" d="M15.5,34.74c0,1.02.58,2.37,1.42,3.71l.07.04c.4.58.95,1.24,1.24,1.24.11,0,2.22-3.06,2.22-3.06l1.53,1.86,2.8-4.19.58.87.07-3.35-2.84,2.22,1.38-.11-2,3.13-1.86-2.18s-1.35,2-2,2.84c-.68-.9-1.11-1.97-1.24-3.09.12-2.83,2.52-5.03,5.35-4.91,2.66.11,4.8,2.25,4.91,4.91,0,2.69-5.02,8.01-5.02,8.01-.95-.95-1.84-1.96-2.66-3.02-.11.22-.69.73-.8.95,1.75,2.29,3.46,4.29,3.46,4.29,0,0,6.44-6.7,6.44-10.19-.05-3.51-2.95-6.32-6.46-6.26-.02,0-.03,0-.05,0-3.54-.06-6.47,2.75-6.55,6.3Z"/>
          <path class="st2" d="M24.09,43.69c1.49.4,2.18,1.13,1.71,1.86s-1.93,1.24-3.71,1.24-3.28-.47-3.82-1.16c-.51-.73.11-1.49,1.56-1.89l-1.2-.8c-2.33.66-3.28,1.82-2.48,2.95s3.17,1.86,5.93,1.86c2.77-.04,5.06-.8,5.79-1.93s-.33-2.29-2.69-2.91l-1.09.79Z"/>
        </g>
        <path class="st1" d="M39.99,55.26h-22.56l-11.21,8.52c-.6.44-1.43.33-1.89-.25-.24-.29-.33-.68-.25-1.05l1.35-7.24c-.88-.14-1.7-.56-2.33-1.2l-.07-.07c-.75-.8-1.17-1.85-1.16-2.95v-23.91c0-1.14.46-2.23,1.27-3.02h0c.8-.8,1.89-1.26,3.02-1.27h13.79v-1.53c0-1.1.41-2.15,1.16-2.95l.07-.07c.8-.8,1.89-1.26,3.02-1.27h33.88c1.14,0,2.23.46,3.02,1.27h0c.8.8,1.26,1.89,1.27,3.02v23.87c.01,1.14-.45,2.23-1.27,3.02h0c-.63.63-1.45,1.05-2.33,1.2l1.35,7.24c.08.37-.01.76-.25,1.05-.44.59-1.29.71-1.88.27,0,0-.01,0-.02-.01l-11.21-8.52h-2.48v1.53c.01,1.14-.45,2.23-1.27,3.02l-.07.07c-.77.81-1.84,1.26-2.95,1.24h0ZM44.33,30.23v6.08M44.33,38.99v7.72h2.91c.34,0,.67.13.91.36l8.7,6.59-.98-5.35c-.14-.72.34-1.42,1.06-1.56,0,0,.02,0,.03,0,.07,0,.15-.04.25-.04h.95c.42,0,.83-.17,1.13-.47h0c.3-.3.47-.7.47-1.13v-23.84c0-.42-.17-.83-.47-1.13h0c-.3-.3-.7-.47-1.13-.47H24.24c-.42,0-.83.17-1.13.47l-.04.04c-.26.29-.4.66-.4,1.05v1.57h17.36c1.14,0,2.23.46,3.02,1.27h0c.8.8,1.26,1.89,1.27,3.02v.4M17,52.57h23c.39,0,.77-.14,1.05-.4l.04-.04c.3-.3.47-.7.47-1.13v-23.91c0-.42-.17-.83-.47-1.13h0c-.3-.3-.7-.47-1.13-.47H6.04c-.42,0-.83.17-1.13.47h0c-.3.3-.47.7-.47,1.13v23.87c0,.39.14.77.4,1.05l.04.04c.3.3.7.47,1.13.47h.91c.09,0,.17,0,.25.04.73.13,1.22.83,1.09,1.57l-.98,5.35,8.7-6.59c.3-.2.66-.32,1.02-.33Z"/>
      </g>
      <path class="st2" d="M83.18,40.2l-6.52,11.25-6.59-11.25h-1.32v15.17h1.54v-12.08l5.96,10.14h.76l5.96-10.21v12.14h1.54v-15.17h-1.32ZM93.1,43.89c-1.68-.04-3.32.5-4.64,1.54l.69,1.15c1.06-.89,2.41-1.36,3.79-1.34,2.12,0,3.23,1.06,3.23,3.01v.69h-3.62c-3.27,0-4.4,1.47-4.4,3.23,0,1.97,1.58,3.32,4.16,3.32,1.89,0,3.23-.72,3.92-1.89v1.78h1.47v-7.07c0-2.95-1.67-4.42-4.62-4.42ZM92.56,54.27c-1.82,0-2.88-.82-2.88-2.15,0-1.17.72-2.04,2.93-2.04h3.58v1.86c-.57,1.48-2.04,2.41-3.62,2.32ZM107.78,43.89c-1.78-.06-3.46.83-4.4,2.34v-2.25h-1.48v15.61h1.54v-6.35c.95,1.46,2.6,2.31,4.33,2.25,3.25,0,5.68-2.34,5.68-5.81.15-3.04-2.19-5.63-5.23-5.78-.15,0-.3,0-.44,0ZM107.67,54.12c-2.43,0-4.25-1.78-4.25-4.44s1.82-4.44,4.25-4.44,4.25,1.8,4.25,4.44-1.84,4.44-4.25,4.44ZM120.52,43.89c-1.68-.04-3.32.5-4.64,1.54l.69,1.15c1.06-.89,2.41-1.36,3.79-1.34,2.12,0,3.23,1.06,3.23,3.01v.69h-3.62c-3.27,0-4.4,1.47-4.4,3.23,0,1.97,1.58,3.32,4.16,3.32,1.89,0,3.23-.72,3.92-1.89v1.78h1.47v-7.07c0-2.95-1.67-4.42-4.62-4.42ZM119.98,54.27c-1.82,0-2.88-.82-2.88-2.15,0-1.17.72-2.04,2.93-2.04h3.58v1.86c-.57,1.48-2.04,2.41-3.62,2.32ZM128.97,55.38h3.51v-15.17h-3.51v15.17ZM142.93,43.54c-1.45-.06-2.85.5-3.86,1.54v-1.37h-3.23v11.66h3.38v-5.77c0-2.15,1.17-3.14,2.8-3.14,1.5,0,2.36.87,2.36,2.75v6.16h3.38v-6.68c0-3.55-2.08-5.16-4.83-5.16ZM158.93,43.71l-3.33,7.93-3.23-7.93h-3.49l4.9,11.66h3.49l4.92-11.66h-3.25ZM174.67,49.59c0-3.75-2.64-6.05-6.07-6.05s-6.22,2.51-6.22,6,2.62,6.01,6.65,6.01c2.1,0,3.73-.65,4.81-1.89l-1.8-1.95c-.78.76-1.84,1.17-2.93,1.12-1.78,0-3.01-.89-3.34-2.34h8.82c.02-.28.07-.65.07-.91ZM168.62,46.1c1.44-.06,2.68,1,2.86,2.43h-5.74c.17-1.44,1.43-2.5,2.88-2.43ZM180.15,45.25v-1.54h-3.23v11.66h3.38v-5.51c0-2.23,1.24-3.25,3.1-3.25.26,0,.48.02.76.04v-3.12c-1.8,0-3.19.59-4.01,1.71ZM190.14,55.55c3.49,0,5.51-1.54,5.51-3.71,0-4.6-7.04-2.67-7.04-4.66,0-.61.65-1.08,2.17-1.08,1.18-.01,2.34.29,3.36.87l1.13-2.41c-1.39-.7-2.93-1.05-4.49-1.02-3.4,0-5.4,1.56-5.4,3.77,0,4.66,7.04,2.71,7.04,4.62,0,.65-.59,1.06-2.15,1.06-1.43,0-2.83-.4-4.05-1.13l-1.13,2.43c1.54.86,3.29,1.29,5.05,1.26ZM199.42,42.09c1.07.09,2.01-.71,2.1-1.78,0-.06,0-.12,0-.17,0-1.04-.85-1.82-2.11-1.82-1.06-.1-2,.69-2.1,1.75,0,.04,0,.09,0,.13.02,1.07.9,1.91,1.97,1.89.04,0,.09,0,.13,0ZM197.73,55.38h3.38v-11.66h-3.38v11.66ZM209.8,55.55c3.71,0,6.39-2.49,6.39-6.01s-2.69-6-6.4-6-6.42,2.49-6.42,6,2.71,6,6.42,6h0ZM209.8,52.77c-1.69,0-2.99-1.21-2.99-3.23s1.3-3.23,2.99-3.23,2.97,1.21,2.97,3.23-1.28,3.23-2.97,3.23h0ZM225.54,43.54c-1.45-.06-2.85.5-3.86,1.54v-1.37h-3.23v11.66h3.38v-5.77c0-2.15,1.17-3.14,2.8-3.14,1.5,0,2.36.87,2.36,2.75v6.16h3.38v-6.68c0-3.55-2.08-5.16-4.84-5.16h0ZM244.98,49.59c0-3.75-2.64-6.05-6.07-6.05s-6.22,2.51-6.22,6,2.62,6.01,6.65,6.01c2.1,0,3.73-.65,4.81-1.89l-1.8-1.95c-.78.76-1.84,1.17-2.93,1.13-1.78,0-3.01-.89-3.34-2.34h8.82c.02-.28.07-.65.07-.91h0ZM238.93,46.1c1.44-.06,2.68,1,2.86,2.43h-5.74c.17-1.44,1.43-2.5,2.88-2.43ZM251.15,55.55c3.49,0,5.51-1.54,5.51-3.71,0-4.6-7.04-2.67-7.04-4.66,0-.61.65-1.08,2.17-1.08,1.18-.01,2.34.29,3.36.87l1.13-2.41c-1.39-.7-2.93-1.05-4.49-1.02-3.4,0-5.4,1.56-5.4,3.77,0,4.66,7.04,2.71,7.04,4.62,0,.65-.59,1.06-2.15,1.06-1.43,0-2.83-.4-4.05-1.13l-1.13,2.43c1.54.86,3.29,1.29,5.05,1.26Z"/>
      <path class="st2" d="M73.81,36.61c1.31.05,2.57-.48,3.44-1.45l-1.04-.99c-.58.67-1.43,1.04-2.32,1.03-1.63.08-3.02-1.19-3.09-2.82,0-.08,0-.15,0-.23-.05-1.63,1.23-3,2.87-3.05.08,0,.15,0,.23,0,.88-.01,1.73.36,2.32,1.02l1.04-.98c-.87-.97-2.13-1.5-3.43-1.45-2.44-.12-4.51,1.75-4.64,4.19,0,.09,0,.18,0,.27-.03,2.44,1.93,4.44,4.37,4.46.09,0,.18,0,.27,0ZM82.4,29.8c-.82-.04-1.62.27-2.2.84v-3.34h-1.55v9.19h1.55v-3.34c0-1.33.74-1.99,1.85-1.99.99,0,1.57.57,1.57,1.75v3.59h1.55v-3.79c0-1.99-1.18-2.9-2.76-2.9ZM89.66,29.8c-1-.03-1.98.25-2.8.82l.61,1.13c.58-.43,1.28-.67,2.01-.66,1.1,0,1.65.53,1.65,1.44v.1h-1.71c-2.01,0-2.75.87-2.75,1.97s.95,1.98,2.46,1.98c.8.08,1.59-.26,2.08-.89v.81h1.46v-3.88c0-1.91-1.1-2.81-3.01-2.81ZM89.45,35.45c-.79,0-1.26-.36-1.26-.92,0-.48.28-.88,1.34-.88h1.6v.77c-.28.67-.95,1.08-1.67,1.03ZM98.19,35.03c-.25.19-.56.28-.87.27-.59,0-.92-.35-.92-.99v-3.15h1.77v-1.24h-1.77v-1.51h-1.55v1.51h-1.09v1.24h1.09v3.18c0,1.46.83,2.23,2.28,2.23.53.02,1.05-.14,1.49-.45l-.43-1.1ZM105.9,33.22c.11-1.78-1.25-3.31-3.02-3.41-.11,0-.21,0-.32,0-1.82-.07-3.34,1.34-3.42,3.16,0,.08,0,.15,0,.23,0,1.97,1.44,3.39,3.65,3.39,1,.06,1.98-.34,2.66-1.08l-.83-.95c-.47.48-1.12.75-1.8.72-1.01.09-1.94-.59-2.14-1.59h5.19c.01-.15.02-.33.02-.46ZM102.55,31.04c.95-.04,1.77.66,1.87,1.61h-3.75c.11-.94.93-1.65,1.88-1.61ZM109.72,29.8c-1-.03-1.98.25-2.8.82l.61,1.13c.58-.43,1.28-.67,2.01-.66,1.1,0,1.65.53,1.65,1.44v.1h-1.71c-2.01,0-2.75.87-2.75,1.97,0,1.15.95,1.98,2.46,1.98.8.08,1.59-.26,2.08-.89v.81h1.46v-3.88c0-1.91-1.1-2.81-3.01-2.81ZM109.51,35.45c-.79,0-1.26-.36-1.26-.92,0-.48.28-.88,1.34-.88h1.6v.77c-.28.67-.95,1.08-1.67,1.03ZM121.17,36.57c1.16.07,2.26-.53,2.82-1.55l-1.19-.69c-.34.58-.97.93-1.65.92-1.07.04-1.97-.79-2.01-1.86,0-.07,0-.14,0-.21-.07-1.07.74-1.99,1.81-2.07.07,0,.13,0,.2,0,.67-.01,1.3.34,1.65.92l1.19-.69c-.56-1.02-1.66-1.62-2.82-1.54-2.09,0-3.58,1.4-3.58,3.38-.02,1.85,1.46,3.38,3.31,3.4.09,0,.18,0,.27,0ZM128.2,36.57c1.84.11,3.42-1.3,3.52-3.13,0-.09,0-.17,0-.26.03-1.84-1.43-3.35-3.26-3.39-.09,0-.18,0-.27,0-1.84-.1-3.41,1.3-3.51,3.14,0,.08,0,.16,0,.25-.03,1.84,1.44,3.37,3.28,3.4.08,0,.16,0,.24,0ZM128.2,35.25c-1.06.02-1.94-.82-1.96-1.88,0-.06,0-.12,0-.18-.08-1.06.71-1.98,1.77-2.06.06,0,.12,0,.18,0,1.06-.03,1.95.81,1.97,1.88,0,.06,0,.13,0,.19.08,1.06-.72,1.98-1.78,2.06-.06,0-.13,0-.19,0ZM136.97,29.8c-.86-.05-1.7.29-2.28.93v-.85h-1.47v6.61h1.55v-3.34c0-1.33.74-1.99,1.85-1.99.99,0,1.57.57,1.57,1.75v3.59h1.55v-3.79c0-1.99-1.18-2.9-2.76-2.9Z"/>
    </g>
  </g>
</svg>