<svg xmlns="http://www.w3.org/2000/svg" width="414.806" height="68.67" viewBox="0 0 414.806 68.67">
  <g id="logoPais1" transform="translate(5667.566 1203.073)">
    <g id="Group_29" data-name="Group 29" transform="translate(-5667.566 -1203.073)">
      <path id="Path_48" data-name="Path 48" d="M62.9,61.215c0,3.628,2.073,8.422,5.053,13.216h.259c1.425,2.2,3.369,4.535,4.405,4.535s7.9-10.884,7.9-10.884l5.442,6.608,9.977-14.9,2.073,3.11.259-11.92-10.106,7.9,4.924-.389L85.963,69.637l-6.608-7.774s-4.794,7.126-7.126,10.106c-2.591-4.017-4.405-7.9-4.405-11.013,0-9.588,8.292-17.492,18.269-17.492s18.269,7.9,18.269,17.492-17.88,28.5-17.88,28.5a113.71,113.71,0,0,1-9.458-10.754c-.389.777-2.462,2.591-2.85,3.369,6.219,8.163,12.309,15.289,12.309,15.289s22.933-23.84,22.933-36.279S99.049,38.8,86.222,38.8C73.265,38.93,62.9,48.906,62.9,61.215Z" transform="translate(-62.9 -38.8)" fill="#0b3e68"/>
      <path id="Path_49" data-name="Path 49" d="M93.173,81.35c5.312,1.425,7.774,4.017,6.09,6.608S92.4,92.364,86.047,92.364s-11.661-1.684-13.6-4.146c-1.814-2.591.389-5.312,5.571-6.737l-4.276-2.85c-8.292,2.332-11.661,6.478-8.811,10.495S76.2,95.732,86.047,95.732s18.01-2.85,20.6-6.867S105.482,80.7,97.06,78.5Z" transform="translate(-61.867 -27.062)" fill="#0b3e68"/>
    </g>
    <path id="Path_27770" data-name="Path 27770" d="M14.258,24.424l-3.865-5.54a7.2,7.2,0,0,1-.73.027H5.393v5.513H1.88V5.506H9.663a10.473,10.473,0,0,1,4.284.811,6.229,6.229,0,0,1,2.8,2.324,6.5,6.5,0,0,1,.973,3.594,6.41,6.41,0,0,1-1.04,3.675,6.19,6.19,0,0,1-2.986,2.3l4.351,6.216Zm-.081-12.189a3.391,3.391,0,0,0-1.189-2.784A5.4,5.4,0,0,0,9.5,8.479H5.393v7.54H9.5a5.344,5.344,0,0,0,3.486-.986A3.43,3.43,0,0,0,14.177,12.235Zm20.7,5.054q0,.351-.054,1H23.5a3.925,3.925,0,0,0,1.554,2.527,5.094,5.094,0,0,0,3.121.932,5.26,5.26,0,0,0,3.919-1.567l1.811,2.081a6.1,6.1,0,0,1-2.459,1.757,8.958,8.958,0,0,1-3.351.595,8.919,8.919,0,0,1-4.189-.946,6.812,6.812,0,0,1-2.8-2.635,7.441,7.441,0,0,1-.986-3.824,7.551,7.551,0,0,1,.959-3.8,6.806,6.806,0,0,1,2.662-2.635,7.767,7.767,0,0,1,3.838-.946,7.572,7.572,0,0,1,3.77.932,6.6,6.6,0,0,1,2.594,2.621A7.949,7.949,0,0,1,34.878,17.289Zm-7.3-4.757a3.993,3.993,0,0,0-4.108,3.513h8.189a3.983,3.983,0,0,0-1.324-2.54A4.027,4.027,0,0,0,27.581,12.533Zm18.54-2.7a7.661,7.661,0,0,1,3.77.919A6.626,6.626,0,0,1,52.5,13.343a7.726,7.726,0,0,1,.946,3.865,7.8,7.8,0,0,1-.946,3.878,6.6,6.6,0,0,1-2.608,2.608,7.661,7.661,0,0,1-3.77.919A5.826,5.826,0,0,1,41.5,22.667v7H38.121V9.992h3.216v1.892a5.227,5.227,0,0,1,2.067-1.54A6.981,6.981,0,0,1,46.121,9.83Zm-.378,11.891a4.083,4.083,0,0,0,3.067-1.243,4.5,4.5,0,0,0,1.2-3.27,4.5,4.5,0,0,0-1.2-3.27,4.083,4.083,0,0,0-3.067-1.243,4.345,4.345,0,0,0-2.189.554,4,4,0,0,0-1.54,1.581,4.837,4.837,0,0,0-.568,2.378,4.837,4.837,0,0,0,.568,2.378,4,4,0,0,0,1.54,1.581A4.345,4.345,0,0,0,45.743,21.721ZM70.633,9.992V24.424H67.417V22.586a5.376,5.376,0,0,1-2.027,1.5,6.521,6.521,0,0,1-2.621.527A6.273,6.273,0,0,1,58.215,23a6.344,6.344,0,0,1-1.662-4.77V9.992h3.378v7.783a4.181,4.181,0,0,0,.878,2.905,3.218,3.218,0,0,0,2.5.959,3.786,3.786,0,0,0,2.878-1.122,4.506,4.506,0,0,0,1.068-3.23v-7.3ZM64.958,4.317h3.973l-4.7,3.7H61.309ZM83.065,9.83a7.661,7.661,0,0,1,3.77.919,6.626,6.626,0,0,1,2.608,2.594,7.726,7.726,0,0,1,.946,3.865,7.8,7.8,0,0,1-.946,3.878,6.6,6.6,0,0,1-2.608,2.608,7.661,7.661,0,0,1-3.77.919,6.982,6.982,0,0,1-2.716-.513,5.227,5.227,0,0,1-2.067-1.54v1.865H75.065V4.371h3.378v7.378a5.672,5.672,0,0,1,2.04-1.432A6.686,6.686,0,0,1,83.065,9.83Zm-.378,11.891a4.083,4.083,0,0,0,3.067-1.243,4.5,4.5,0,0,0,1.2-3.27,4.5,4.5,0,0,0-1.2-3.27,4.083,4.083,0,0,0-3.067-1.243,4.345,4.345,0,0,0-2.189.554,4,4,0,0,0-1.54,1.581,4.837,4.837,0,0,0-.568,2.378,4.837,4.837,0,0,0,.568,2.378,4,4,0,0,0,1.54,1.581A4.345,4.345,0,0,0,82.687,21.721ZM93.6,4.371h3.378V24.424H93.6Zm7.81,5.621h3.378V24.424h-3.378Zm1.7-2.378a2.17,2.17,0,0,1-1.54-.581,1.9,1.9,0,0,1-.622-1.446,1.9,1.9,0,0,1,.622-1.446,2.17,2.17,0,0,1,1.54-.581,2.231,2.231,0,0,1,1.54.554,1.786,1.786,0,0,1,.622,1.392,2.038,2.038,0,0,1-.608,1.5A2.1,2.1,0,0,1,103.118,7.614Zm12.729,17a8.461,8.461,0,0,1-4.027-.946,6.946,6.946,0,0,1-2.784-2.635,7.363,7.363,0,0,1-1-3.824,7.292,7.292,0,0,1,1-3.811,7,7,0,0,1,2.77-2.621,8.439,8.439,0,0,1,4.04-.946,7.784,7.784,0,0,1,3.743.865,5.611,5.611,0,0,1,2.419,2.486l-2.594,1.513a4.121,4.121,0,0,0-1.554-1.5,4.535,4.535,0,0,0-5.175.73,4.411,4.411,0,0,0-1.243,3.284,4.438,4.438,0,0,0,1.23,3.284,4.556,4.556,0,0,0,5.189.73,4.121,4.121,0,0,0,1.554-1.5l2.594,1.513a5.848,5.848,0,0,1-2.446,2.5A7.628,7.628,0,0,1,115.847,24.613ZM130.441,9.83a7.037,7.037,0,0,1,4.878,1.527,5.9,5.9,0,0,1,1.689,4.608v8.459h-3.189V22.667a3.93,3.93,0,0,1-1.77,1.446,6.92,6.92,0,0,1-2.77.5,6.787,6.787,0,0,1-2.838-.554,4.385,4.385,0,0,1-1.878-1.54,3.909,3.909,0,0,1-.662-2.23,3.821,3.821,0,0,1,1.446-3.121,7.181,7.181,0,0,1,4.554-1.176h3.73v-.216a2.958,2.958,0,0,0-.905-2.324,3.917,3.917,0,0,0-2.689-.811,7.762,7.762,0,0,0-2.392.378,5.876,5.876,0,0,0-1.986,1.054l-1.324-2.459a8.2,8.2,0,0,1,2.73-1.324A12.145,12.145,0,0,1,130.441,9.83Zm-.459,12.324a4.362,4.362,0,0,0,2.257-.581,3.162,3.162,0,0,0,1.392-1.662V18.235h-3.486q-2.919,0-2.919,1.919a1.722,1.722,0,0,0,.73,1.459A3.345,3.345,0,0,0,129.981,22.154ZM149.116,5.506h8.27a11.867,11.867,0,0,1,5.378,1.176,8.7,8.7,0,0,1,3.648,3.324,9.4,9.4,0,0,1,1.3,4.959,9.4,9.4,0,0,1-1.3,4.959,8.7,8.7,0,0,1-3.648,3.324,11.867,11.867,0,0,1-5.378,1.176h-8.27Zm8.108,15.945a8.029,8.029,0,0,0,3.662-.8,5.7,5.7,0,0,0,2.432-2.27,6.709,6.709,0,0,0,.851-3.419,6.709,6.709,0,0,0-.851-3.419,5.7,5.7,0,0,0-2.432-2.27,8.029,8.029,0,0,0-3.662-.8h-4.594V21.451ZM177.6,24.613a8.188,8.188,0,0,1-3.946-.946,6.9,6.9,0,0,1-2.743-2.635,7.441,7.441,0,0,1-.986-3.824,7.369,7.369,0,0,1,.986-3.811,6.925,6.925,0,0,1,2.743-2.621,8.759,8.759,0,0,1,7.919,0,6.925,6.925,0,0,1,2.743,2.621,7.369,7.369,0,0,1,.986,3.811,7.441,7.441,0,0,1-.986,3.824,6.9,6.9,0,0,1-2.743,2.635A8.245,8.245,0,0,1,177.6,24.613Zm0-2.892a4.127,4.127,0,0,0,3.081-1.243,4.476,4.476,0,0,0,1.216-3.27,4.476,4.476,0,0,0-1.216-3.27,4.127,4.127,0,0,0-3.081-1.243,4.083,4.083,0,0,0-3.067,1.243,4.5,4.5,0,0,0-1.2,3.27,4.5,4.5,0,0,0,1.2,3.27A4.083,4.083,0,0,0,177.6,21.721ZM206.761,9.83a5.871,5.871,0,0,1,4.324,1.581,6.408,6.408,0,0,1,1.595,4.743v8.27H209.3V16.586a4.225,4.225,0,0,0-.838-2.851,3.022,3.022,0,0,0-2.405-.959,3.523,3.523,0,0,0-2.73,1.122,4.576,4.576,0,0,0-1.027,3.2v7.324h-3.378V16.586a4.226,4.226,0,0,0-.838-2.851,3.022,3.022,0,0,0-2.405-.959,3.534,3.534,0,0,0-2.743,1.108,4.606,4.606,0,0,0-1.013,3.216v7.324h-3.378V9.992h3.216V11.83a5.252,5.252,0,0,1,2.027-1.486,6.882,6.882,0,0,1,2.7-.513,6.529,6.529,0,0,1,2.878.608,4.672,4.672,0,0,1,1.986,1.8,6.014,6.014,0,0,1,2.3-1.77A7.46,7.46,0,0,1,206.761,9.83ZM217,9.992h3.378V24.424H217Zm1.7-2.378a2.17,2.17,0,0,1-1.54-.581,1.9,1.9,0,0,1-.622-1.446,1.9,1.9,0,0,1,.622-1.446,2.17,2.17,0,0,1,1.54-.581,2.231,2.231,0,0,1,1.54.554,1.786,1.786,0,0,1,.622,1.392,2.038,2.038,0,0,1-.608,1.5A2.1,2.1,0,0,1,218.707,7.614ZM233,9.83a6.031,6.031,0,0,1,4.378,1.595,6.289,6.289,0,0,1,1.649,4.729v8.27h-3.378V16.586a4.052,4.052,0,0,0-.892-2.851,3.3,3.3,0,0,0-2.54-.959,3.9,3.9,0,0,0-2.946,1.122,4.47,4.47,0,0,0-1.081,3.23v7.3h-3.378V9.992h3.216v1.865a5.281,5.281,0,0,1,2.108-1.513A7.586,7.586,0,0,1,233,9.83Zm10.324.162h3.378V24.424h-3.378Zm1.7-2.378a2.17,2.17,0,0,1-1.54-.581,1.9,1.9,0,0,1-.622-1.446,1.9,1.9,0,0,1,.622-1.446,2.17,2.17,0,0,1,1.54-.581,2.231,2.231,0,0,1,1.54.554,1.786,1.786,0,0,1,.622,1.392,2.038,2.038,0,0,1-.608,1.5A2.1,2.1,0,0,1,245.03,7.614Zm12.729,17a8.461,8.461,0,0,1-4.027-.946,6.946,6.946,0,0,1-2.784-2.635,7.363,7.363,0,0,1-1-3.824,7.292,7.292,0,0,1,1-3.811,7,7,0,0,1,2.77-2.621,8.439,8.439,0,0,1,4.04-.946,7.784,7.784,0,0,1,3.743.865,5.611,5.611,0,0,1,2.419,2.486l-2.594,1.513a4.121,4.121,0,0,0-1.554-1.5,4.535,4.535,0,0,0-5.175.73,4.411,4.411,0,0,0-1.243,3.284,4.438,4.438,0,0,0,1.23,3.284,4.556,4.556,0,0,0,5.189.73,4.121,4.121,0,0,0,1.554-1.5l2.594,1.513a5.848,5.848,0,0,1-2.446,2.5A7.628,7.628,0,0,1,257.759,24.613ZM272.352,9.83a7.037,7.037,0,0,1,4.878,1.527,5.9,5.9,0,0,1,1.689,4.608v8.459h-3.189V22.667a3.93,3.93,0,0,1-1.77,1.446,6.92,6.92,0,0,1-2.77.5,6.787,6.787,0,0,1-2.838-.554,4.385,4.385,0,0,1-1.878-1.54,3.909,3.909,0,0,1-.662-2.23,3.821,3.821,0,0,1,1.446-3.121,7.181,7.181,0,0,1,4.554-1.176h3.73v-.216a2.958,2.958,0,0,0-.905-2.324,3.917,3.917,0,0,0-2.689-.811,7.762,7.762,0,0,0-2.392.378,5.876,5.876,0,0,0-1.986,1.054l-1.324-2.459a8.2,8.2,0,0,1,2.73-1.324A12.145,12.145,0,0,1,272.352,9.83Zm-.459,12.324a4.362,4.362,0,0,0,2.257-.581,3.161,3.161,0,0,0,1.392-1.662V18.235h-3.486q-2.919,0-2.919,1.919a1.722,1.722,0,0,0,.73,1.459A3.345,3.345,0,0,0,271.893,22.154ZM291.433,9.83a6.031,6.031,0,0,1,4.378,1.595,6.289,6.289,0,0,1,1.649,4.729v8.27h-3.378V16.586a4.052,4.052,0,0,0-.892-2.851,3.3,3.3,0,0,0-2.54-.959A3.9,3.9,0,0,0,287.7,13.9a4.471,4.471,0,0,0-1.081,3.23v7.3h-3.378V9.992h3.216v1.865a5.281,5.281,0,0,1,2.108-1.513A7.586,7.586,0,0,1,291.433,9.83Zm15.837,0a7.037,7.037,0,0,1,4.878,1.527,5.9,5.9,0,0,1,1.689,4.608v8.459h-3.189V22.667a3.93,3.93,0,0,1-1.77,1.446,6.92,6.92,0,0,1-2.77.5,6.787,6.787,0,0,1-2.838-.554,4.385,4.385,0,0,1-1.878-1.54,3.909,3.909,0,0,1-.662-2.23,3.821,3.821,0,0,1,1.446-3.121,7.181,7.181,0,0,1,4.554-1.176h3.73v-.216a2.958,2.958,0,0,0-.905-2.324,3.917,3.917,0,0,0-2.689-.811,7.762,7.762,0,0,0-2.392.378,5.876,5.876,0,0,0-1.986,1.054l-1.324-2.459a8.2,8.2,0,0,1,2.73-1.324A12.145,12.145,0,0,1,307.27,9.83Zm-.459,12.324a4.362,4.362,0,0,0,2.257-.581,3.161,3.161,0,0,0,1.392-1.662V18.235h-3.486q-2.919,0-2.919,1.919a1.722,1.722,0,0,0,.73,1.459A3.345,3.345,0,0,0,306.81,22.154Z" transform="translate(-5603 -1164.07)" fill="#0b3e68"/>
    <path id="Path_27769" data-name="Path 27769" d="M32.891,8.759V37.136H30.013v-22.7L18.865,33.528H17.446L6.3,14.556v22.58H3.42V8.759H5.893L18.217,29.8l12.2-21.039ZM48.985,15.65a9.027,9.027,0,0,1,6.405,2.088q2.23,2.088,2.23,6.182V37.136H54.863V33.812a6.6,6.6,0,0,1-2.858,2.594,10,10,0,0,1-4.479.932,8.771,8.771,0,0,1-5.675-1.7,5.5,5.5,0,0,1-2.108-4.5,5.452,5.452,0,0,1,1.966-4.378Q43.675,25.1,47.972,25.1h6.77V23.8a5.464,5.464,0,0,0-1.54-4.2,6.361,6.361,0,0,0-4.5-1.439,11.439,11.439,0,0,0-3.892.669,9.807,9.807,0,0,0-3.2,1.845l-1.3-2.149A11.5,11.5,0,0,1,44.2,16.4,15.151,15.151,0,0,1,48.985,15.65ZM47.972,35.068a7.585,7.585,0,0,0,4.175-1.115,6.657,6.657,0,0,0,2.594-3.223V27.244H48.053q-5.473,0-5.473,3.811A3.487,3.487,0,0,0,44,33.994,6.459,6.459,0,0,0,47.972,35.068ZM76.43,15.65a10.951,10.951,0,0,1,5.432,1.358,9.711,9.711,0,0,1,3.811,3.831,11.376,11.376,0,0,1,1.378,5.635,11.46,11.46,0,0,1-1.378,5.675,9.75,9.75,0,0,1-3.79,3.831,10.919,10.919,0,0,1-5.452,1.358,10.082,10.082,0,0,1-4.682-1.074,8.873,8.873,0,0,1-3.426-3.142V45H65.444V15.812H68.2v4.216a8.866,8.866,0,0,1,3.425-3.243A10.047,10.047,0,0,1,76.43,15.65Zm-.2,19.134a8.078,8.078,0,0,0,4.054-1.034,7.3,7.3,0,0,0,2.858-2.939,8.949,8.949,0,0,0,1.034-4.338,8.832,8.832,0,0,0-1.034-4.317,7.475,7.475,0,0,0-2.858-2.939,8.362,8.362,0,0,0-8.128,0,7.517,7.517,0,0,0-2.838,2.939,8.832,8.832,0,0,0-1.034,4.317,8.949,8.949,0,0,0,1.034,4.338,7.341,7.341,0,0,0,2.838,2.939A8.046,8.046,0,0,0,76.227,34.784ZM100.266,15.65a9.027,9.027,0,0,1,6.405,2.088q2.23,2.088,2.23,6.182V37.136h-2.757V33.812a6.6,6.6,0,0,1-2.858,2.594,10,10,0,0,1-4.479.932,8.771,8.771,0,0,1-5.675-1.7,5.5,5.5,0,0,1-2.108-4.5,5.452,5.452,0,0,1,1.966-4.378Q94.956,25.1,99.253,25.1h6.77V23.8a5.464,5.464,0,0,0-1.54-4.2,6.361,6.361,0,0,0-4.5-1.439,11.439,11.439,0,0,0-3.892.669,9.807,9.807,0,0,0-3.2,1.845l-1.3-2.149A11.5,11.5,0,0,1,95.483,16.4,15.151,15.151,0,0,1,100.266,15.65ZM99.253,35.068a7.585,7.585,0,0,0,4.175-1.115,6.657,6.657,0,0,0,2.594-3.223V27.244H99.334q-5.473,0-5.473,3.811a3.487,3.487,0,0,0,1.419,2.939A6.459,6.459,0,0,0,99.253,35.068ZM116.522,8.759h5.27V37.136h-5.27Zm24.728,6.486a9.046,9.046,0,0,1,6.567,2.392q2.473,2.392,2.473,7.094v12.4h-5.067V25.38a6.078,6.078,0,0,0-1.338-4.277,4.946,4.946,0,0,0-3.811-1.439,5.85,5.85,0,0,0-4.419,1.682,6.706,6.706,0,0,0-1.622,4.844V37.136h-5.067V15.488h4.824v2.8a7.922,7.922,0,0,1,3.162-2.27A11.379,11.379,0,0,1,141.251,15.245Zm35.35.243-9.283,21.648h-5.229L152.8,15.488h5.27L164.8,31.541l6.932-16.053Zm22.9,10.945q0,.527-.081,1.5H182.438a5.887,5.887,0,0,0,2.331,3.79,7.64,7.64,0,0,0,4.682,1.4,7.89,7.89,0,0,0,5.878-2.351l2.716,3.121a9.152,9.152,0,0,1-3.689,2.635A14.618,14.618,0,0,1,183.046,36a10.218,10.218,0,0,1-4.2-3.952,11.162,11.162,0,0,1-1.48-5.736,11.327,11.327,0,0,1,1.439-5.7,10.209,10.209,0,0,1,3.993-3.952,11.651,11.651,0,0,1,5.756-1.419,11.358,11.358,0,0,1,5.655,1.4,9.9,9.9,0,0,1,3.892,3.932A11.924,11.924,0,0,1,199.5,26.434ZM188.559,19.3a5.989,5.989,0,0,0-6.162,5.27H194.68a5.974,5.974,0,0,0-1.986-3.811A6.041,6.041,0,0,0,188.559,19.3Zm20.634-.649q2.189-3.405,7.7-3.405v4.824a6.433,6.433,0,0,0-1.176-.122A6.12,6.12,0,0,0,211.1,21.67a6.871,6.871,0,0,0-1.662,4.966v10.5h-5.067V15.488h4.824Zm18.769,18.769a19.382,19.382,0,0,1-5.148-.689,12.954,12.954,0,0,1-4.013-1.743l1.946-3.851a12.51,12.51,0,0,0,3.507,1.561,14.568,14.568,0,0,0,4.034.588q4.54,0,4.54-2.392a1.6,1.6,0,0,0-1.155-1.581,19.948,19.948,0,0,0-3.709-.851,30.094,30.094,0,0,1-4.358-.932,6.689,6.689,0,0,1-2.919-1.844,5.151,5.151,0,0,1-1.236-3.669,5.767,5.767,0,0,1,2.574-4.925,11.716,11.716,0,0,1,6.952-1.845,20.064,20.064,0,0,1,4.459.507,12.5,12.5,0,0,1,3.648,1.358l-1.946,3.851a12,12,0,0,0-6.2-1.622,6.875,6.875,0,0,0-3.385.669,2,2,0,0,0-1.155,1.763,1.761,1.761,0,0,0,1.236,1.723,19.649,19.649,0,0,0,3.831.953,29.559,29.559,0,0,1,4.257.932,6.662,6.662,0,0,1,2.858,1.784,4.972,4.972,0,0,1,1.2,3.567,5.645,5.645,0,0,1-2.635,4.865A12.424,12.424,0,0,1,227.962,37.419Zm14.188-21.931h5.067V37.136h-5.067Zm2.554-3.567a3.255,3.255,0,0,1-2.311-.872,2.847,2.847,0,0,1-.932-2.169,2.847,2.847,0,0,1,.932-2.169A3.255,3.255,0,0,1,244.7,5.84a3.346,3.346,0,0,1,2.311.831,2.679,2.679,0,0,1,.932,2.088,3.057,3.057,0,0,1-.912,2.25A3.157,3.157,0,0,1,244.7,11.921Zm18.891,25.5A12.282,12.282,0,0,1,257.677,36a10.345,10.345,0,0,1-4.115-3.952,11.162,11.162,0,0,1-1.48-5.736,11.053,11.053,0,0,1,1.48-5.716,10.388,10.388,0,0,1,4.115-3.932,13.139,13.139,0,0,1,11.878,0A10.388,10.388,0,0,1,273.67,20.6a11.053,11.053,0,0,1,1.48,5.716,11.162,11.162,0,0,1-1.48,5.736A10.345,10.345,0,0,1,269.555,36,12.368,12.368,0,0,1,263.6,37.419Zm0-4.338a6.191,6.191,0,0,0,4.621-1.865,6.714,6.714,0,0,0,1.824-4.905,6.714,6.714,0,0,0-1.824-4.905,6.191,6.191,0,0,0-4.621-1.865,6.125,6.125,0,0,0-4.6,1.865,6.757,6.757,0,0,0-1.8,4.905,6.757,6.757,0,0,0,1.8,4.905A6.125,6.125,0,0,0,263.6,33.082Zm28.7-17.837a9.046,9.046,0,0,1,6.567,2.392q2.473,2.392,2.473,7.094v12.4H296.27V25.38a6.078,6.078,0,0,0-1.338-4.277,4.946,4.946,0,0,0-3.811-1.439,5.85,5.85,0,0,0-4.419,1.682,6.706,6.706,0,0,0-1.622,4.844V37.136h-5.067V15.488h4.824v2.8A7.922,7.922,0,0,1,288,16.015,11.379,11.379,0,0,1,292.3,15.245Zm36.039,11.189q0,.527-.081,1.5H311.269a5.887,5.887,0,0,0,2.331,3.79,7.64,7.64,0,0,0,4.682,1.4,7.89,7.89,0,0,0,5.878-2.351l2.716,3.121a9.152,9.152,0,0,1-3.689,2.635A14.618,14.618,0,0,1,311.877,36a10.218,10.218,0,0,1-4.2-3.952,11.162,11.162,0,0,1-1.48-5.736,11.327,11.327,0,0,1,1.439-5.7,10.208,10.208,0,0,1,3.993-3.952,11.651,11.651,0,0,1,5.756-1.419,11.358,11.358,0,0,1,5.655,1.4,9.9,9.9,0,0,1,3.892,3.932A11.923,11.923,0,0,1,328.336,26.434ZM317.39,19.3a5.989,5.989,0,0,0-6.162,5.27h12.283a5.974,5.974,0,0,0-1.986-3.811A6.041,6.041,0,0,0,317.39,19.3Zm22.5,18.121a19.381,19.381,0,0,1-5.148-.689,12.954,12.954,0,0,1-4.013-1.743l1.946-3.851A12.51,12.51,0,0,0,336.18,32.7a14.568,14.568,0,0,0,4.034.588q4.54,0,4.54-2.392a1.6,1.6,0,0,0-1.155-1.581,19.949,19.949,0,0,0-3.709-.851,30.1,30.1,0,0,1-4.358-.932,6.689,6.689,0,0,1-2.919-1.844,5.151,5.151,0,0,1-1.236-3.669,5.767,5.767,0,0,1,2.574-4.925,11.716,11.716,0,0,1,6.952-1.845,20.064,20.064,0,0,1,4.459.507,12.5,12.5,0,0,1,3.648,1.358l-1.946,3.851a12,12,0,0,0-6.2-1.622,6.875,6.875,0,0,0-3.385.669,2,2,0,0,0-1.155,1.763,1.761,1.761,0,0,0,1.236,1.723,19.649,19.649,0,0,0,3.831.953,29.558,29.558,0,0,1,4.257.932,6.662,6.662,0,0,1,2.858,1.784,4.972,4.972,0,0,1,1.2,3.567,5.645,5.645,0,0,1-2.635,4.865A12.424,12.424,0,0,1,339.889,37.419Z" transform="translate(-5602.459 -1205.51)" fill="#0b3e68"/>
  </g>
</svg>
