<svg id="LogoBid" xmlns="http://www.w3.org/2000/svg" width="100.981" height="37.205" viewBox="0 0 100.981 37.205">
  <path id="Path_113" data-name="Path 113" d="M68.232,25.012V20.671h4.859c1.412,0,3.1.362,3.1,2.1v.067c0,1.44-1.16,2.171-3.446,2.171Zm5.924,9.714H68.232V30.177h5.754c2.354,0,3.546.753,3.546,2.24v.069c0,1.487-1.135,2.24-3.377,2.24M79.5,27.081a5.828,5.828,0,0,0,2.72-5.134v-.07a5.876,5.876,0,0,0-1.765-4.368,9.054,9.054,0,0,0-6.57-2.245H62.308l0,24.87H74.156c5.975,0,9.405-2.55,9.405-6.994v-.067c0-2.861-1.26-4.73-4.063-5.992" transform="translate(-15.693 -8.608)" fill="#454343"/>
  <path id="Path_114" data-name="Path 114" d="M108.962,27.7v.069a6.489,6.489,0,0,1-6.889,6.82H98.351V20.81h3.722a6.52,6.52,0,0,1,6.889,6.887m-6.889-12.433H92.29l.006,24.87h9.777a13.6,13.6,0,0,0,9.511-3.589,12.114,12.114,0,0,0,3.681-8.848v-.069c0-7.164-5.548-12.364-13.192-12.364" transform="translate(-14.284 -8.608)" fill="#454343"/>
  <path id="Path_115" data-name="Path 115" d="M87.235,15.225a3.033,3.033,0,0,1,3.032,3.031V40.14H84.206V15.225Z" transform="translate(-14.664 -8.61)" fill="#454343"/>
  <path id="Path_116" data-name="Path 116" d="M47.344,24.512c-.867-.037-1.023.487.28.763,1.841.388.587-.729-.28-.763M44.62,22.467c-2.609-.845-.891,1.243.35,1.38s1.5-.781-.35-1.38m-7.683-1.89c-.76.4.6,2.166,4.084,2.263s-1.008-3.876-4.084-2.263m6.691,25.57c1.094-2.036,3.478-5.006,8.573-10.994C59.822,26.2,37.24,29.206,33.371,22.43c-3.186-5.583,8.672-9.6,15.84-12.7a20.267,20.267,0,0,1-5.583,36.42M39.095,31.716c-3.2,5.175,7.076,5.254,2.323,14.928-.139.024-.278.051-.42.071A20.27,20.27,0,0,1,21.336,15.2c-.517,11.692,20.746,11.679,17.758,16.513" transform="translate(-17.786 -9.727)" fill="#184f70"/>
</svg>
