<?xml version="1.0" encoding="UTF-8"?>
<svg id="Layer_1" xmlns="http://www.w3.org/2000/svg" version="1.1" viewBox="0 0 260.1 78.2">
  <!-- Generator: Adobe Illustrator 30.0.0, SVG Export Plug-In . SVG Version: 2.1.1 Build 123)  -->
  <defs>
    <style>
      .st0 {
        fill: #003876;
      }
    </style>
  </defs>
  <g id="logoMIV">
    <path id="Path_15697" class="st0" d="M8.47,54.86l-2.56-3.7h-2.83v3.7H0v-13.3h5.76c1.05-.02,2.1.18,3.07.59.82.35,1.51.93,2,1.67.48.77.72,1.66.7,2.56.03.9-.22,1.79-.7,2.56-.5.74-1.2,1.31-2.02,1.64l2.98,4.28h-3.31ZM8.42,46.38c.04-.65-.23-1.29-.72-1.72-.61-.44-1.36-.65-2.11-.6h-2.51v4.64h2.51c.75.05,1.5-.16,2.11-.61.49-.43.76-1.06.72-1.71ZM23.77,49.78s-.02.3-.06.8h-7.73c.12.61.48,1.15.99,1.5.57.38,1.25.58,1.94.55.48,0,.96-.07,1.42-.24.43-.17.82-.43,1.15-.75l1.57,1.71c-1.09,1.15-2.64,1.76-4.22,1.65-1.06.02-2.11-.21-3.06-.67-.85-.42-1.56-1.06-2.05-1.87-.49-.82-.74-1.76-.72-2.72-.01-.95.23-1.89.71-2.71.47-.8,1.14-1.45,1.96-1.88.86-.46,1.81-.69,2.78-.68.95-.01,1.88.21,2.72.65.8.42,1.46,1.06,1.91,1.85.48.86.71,1.82.69,2.8h0ZM18.47,46.72c-.61-.02-1.21.18-1.69.57-.47.4-.77.96-.84,1.56h5.03c-.08-.6-.38-1.15-.84-1.55-.47-.39-1.06-.6-1.67-.58h0ZM31.79,44.48c.91-.01,1.8.22,2.59.66.77.43,1.41,1.07,1.83,1.84.46.85.69,1.8.67,2.76.02.96-.21,1.92-.67,2.77-.43.78-1.06,1.42-1.83,1.85-.79.44-1.69.67-2.59.66-1.16.06-2.28-.39-3.08-1.24v4.77h-2.96v-13.91h2.83v1.18c.81-.92,1.99-1.41,3.21-1.33h0ZM31.27,52.58c.71.02,1.39-.26,1.87-.77.51-.56.77-1.31.73-2.06.04-.76-.22-1.5-.73-2.06-.49-.51-1.17-.79-1.87-.77-.7-.02-1.39.26-1.87.77-.51.56-.77,1.3-.73,2.06-.04.76.23,1.5.73,2.06.49.51,1.17.79,1.87.77ZM49.15,44.63v10.22h-2.81v-1.22c-.39.44-.87.79-1.41,1.02-.56.24-1.16.36-1.77.35-1.18.06-2.33-.36-3.19-1.16-.85-.94-1.27-2.18-1.18-3.44v-5.78h2.96v5.34c0,1.65.69,2.47,2.07,2.47.64.03,1.27-.23,1.71-.69.47-.58.7-1.32.65-2.06v-5.05h2.96ZM44.8,40.59h3.19l-3.44,2.74h-2.32l2.56-2.74ZM57.95,44.49c.91-.01,1.8.22,2.59.66.77.43,1.41,1.07,1.83,1.84.46.85.69,1.8.66,2.76.02.96-.21,1.92-.67,2.77-.43.77-1.06,1.41-1.83,1.84-.79.44-1.69.67-2.59.66-1.22.08-2.41-.41-3.21-1.33v1.17h-2.83v-14.1h2.96v4.96c.8-.84,1.92-1.29,3.08-1.23h0ZM57.44,52.58c.71.02,1.39-.26,1.87-.77.51-.56.77-1.31.73-2.06.04-.76-.22-1.5-.73-2.06-.49-.51-1.17-.79-1.87-.77-.7-.02-1.39.26-1.87.77-.51.56-.77,1.3-.73,2.06-.04.76.23,1.5.73,2.06.49.51,1.17.79,1.87.77ZM65.02,40.76h2.96v14.1h-2.96v-14.1ZM70.74,44.63h2.96v10.22h-2.97v-10.22ZM72.22,43.21c-.49.02-.97-.15-1.33-.48-.33-.3-.52-.73-.51-1.18,0-.45.18-.88.51-1.18.36-.33.84-.5,1.33-.48.48-.02.96.14,1.33.46.33.28.52.7.51,1.14.01.46-.17.91-.51,1.23-.36.33-.84.5-1.33.48ZM81.4,55.01c-1.02.02-2.03-.22-2.94-.67-.84-.42-1.55-1.07-2.04-1.87-.49-.82-.75-1.76-.73-2.72-.02-.96.24-1.9.73-2.72.49-.8,1.2-1.45,2.04-1.87.91-.46,1.92-.69,2.94-.68.98-.02,1.96.21,2.82.68.78.43,1.4,1.11,1.76,1.93l-2.3,1.24c-.43-.88-1.33-1.42-2.3-1.41-.72-.02-1.41.25-1.92.76-.53.56-.8,1.31-.76,2.07-.04.77.23,1.51.76,2.07.51.51,1.2.78,1.92.76.98.02,1.88-.53,2.3-1.41l2.3,1.25c-.36.81-.98,1.47-1.76,1.9-.86.47-1.84.71-2.82.68ZM91.81,44.48c1.31-.09,2.61.31,3.65,1.13.91.89,1.37,2.14,1.27,3.41v5.83h-2.77v-1.27c-.69,1.02-1.89,1.57-3.12,1.42-.7.02-1.4-.12-2.04-.4-.54-.23-1-.61-1.32-1.1-.31-.48-.47-1.03-.46-1.6-.03-.88.37-1.72,1.07-2.24.99-.62,2.15-.9,3.32-.81h2.36c.04-.56-.18-1.11-.59-1.5-.51-.38-1.13-.57-1.77-.52-.55,0-1.09.09-1.61.26-.48.15-.94.38-1.34.69l-1.06-2.07c.61-.42,1.29-.73,2-.91.78-.22,1.59-.32,2.41-.32ZM91.58,53.01c.47,0,.94-.11,1.35-.35.39-.23.69-.6.84-1.04v-1.05h-2.03c-1.22,0-1.82.4-1.82,1.2-.01.36.16.69.45.9.36.24.79.36,1.23.33ZM104.99,41.56h6.04c1.32-.03,2.63.26,3.83.83,1.07.51,1.96,1.32,2.58,2.33.63,1.06.95,2.27.92,3.5.03,1.23-.29,2.44-.92,3.5-.62,1.01-1.52,1.81-2.58,2.33-1.19.57-2.51.85-3.83.82h-6.04v-13.3ZM110.88,52.33c1.17.06,2.31-.34,3.18-1.11.81-.79,1.24-1.88,1.19-3.01.06-1.13-.38-2.23-1.19-3.01-.88-.77-2.02-1.17-3.18-1.11h-2.81v8.25h2.81ZM125.34,55.01c-1.01.02-2-.22-2.9-.67-.83-.43-1.52-1.07-2-1.87-.49-.82-.74-1.76-.72-2.72-.02-.96.23-1.9.72-2.72.48-.8,1.17-1.45,2-1.87.9-.46,1.89-.69,2.9-.68,1-.02,2,.21,2.89.68.82.43,1.51,1.08,1.99,1.87.49.82.74,1.76.72,2.72.02.96-.23,1.9-.72,2.72-.48.8-1.17,1.44-1.99,1.87-.89.46-1.88.69-2.89.67ZM125.34,52.58c.71.02,1.39-.26,1.87-.77.51-.56.77-1.31.73-2.06.04-.76-.22-1.5-.73-2.06-.49-.51-1.17-.79-1.87-.77-.71-.02-1.39.26-1.88.77-.51.56-.78,1.3-.74,2.06-.04.76.23,1.5.74,2.06.49.51,1.17.79,1.88.77ZM146.02,44.48c1.13-.06,2.23.35,3.05,1.13.82.93,1.23,2.15,1.13,3.39v5.85h-2.96v-5.4c.05-.64-.13-1.29-.5-1.82-.36-.41-.89-.63-1.43-.6-.62-.03-1.23.22-1.65.67-.44.57-.66,1.28-.61,2v5.14h-2.96v-5.4c0-1.61-.65-2.41-1.94-2.41-.62-.03-1.22.22-1.63.67-.44.57-.66,1.28-.61,2v5.14h-2.97v-10.22h2.83v1.18c.38-.43.86-.77,1.4-.99.58-.23,1.19-.35,1.81-.34.68-.01,1.35.14,1.96.43.57.28,1.06.71,1.4,1.25.42-.53.97-.96,1.59-1.23.66-.3,1.38-.45,2.1-.44ZM152.86,44.63h2.97v10.22h-2.96v-10.22ZM154.34,43.21c-.49.02-.97-.15-1.33-.48-.33-.3-.52-.73-.51-1.18,0-.45.18-.88.51-1.18.36-.33.84-.5,1.33-.48.48-.02.96.14,1.33.46.33.28.52.7.51,1.14.01.46-.17.91-.51,1.23-.36.33-.84.5-1.33.48h0ZM164.79,44.48c1.13-.05,2.24.36,3.07,1.14.84.92,1.26,2.14,1.17,3.38v5.85h-2.96v-5.4c.05-.65-.14-1.3-.53-1.82-.4-.42-.96-.64-1.54-.6-.67-.03-1.32.22-1.79.69-.48.57-.72,1.31-.66,2.06v5.06h-2.96v-10.22h2.83v1.2c.41-.44.91-.78,1.46-1,.61-.24,1.26-.36,1.92-.35h0ZM171.7,44.63h2.96v10.22h-2.96v-10.22ZM173.19,43.21c-.49.02-.97-.15-1.33-.48-.33-.3-.52-.73-.51-1.18,0-.45.18-.88.51-1.18.36-.33.84-.5,1.33-.48.48-.02.96.14,1.33.46.33.28.52.7.51,1.14.01.46-.17.91-.51,1.23-.36.33-.84.5-1.33.48h0ZM182.36,55.01c-1.02.02-2.03-.22-2.94-.68-.84-.42-1.54-1.07-2.03-1.87-.49-.82-.75-1.76-.73-2.72-.02-.96.24-1.9.73-2.72.49-.8,1.19-1.45,2.03-1.87.91-.46,1.92-.69,2.94-.68.98-.02,1.96.21,2.82.68.78.43,1.4,1.11,1.76,1.93l-2.3,1.24c-.43-.88-1.33-1.42-2.3-1.41-.72-.02-1.41.25-1.92.76-.53.56-.8,1.31-.76,2.07-.04.77.24,1.52.76,2.07.51.51,1.2.78,1.92.76.98.02,1.88-.53,2.3-1.41l2.3,1.25c-.36.81-.98,1.47-1.76,1.9-.86.47-1.84.71-2.82.68h0ZM192.77,44.48c1.31-.09,2.61.31,3.65,1.13.91.89,1.37,2.14,1.27,3.41v5.83h-2.77v-1.27c-.69,1.02-1.89,1.57-3.12,1.42-.7.02-1.4-.12-2.04-.4-.54-.23-1-.61-1.32-1.1-.31-.48-.47-1.03-.46-1.6-.03-.88.37-1.72,1.07-2.24.99-.62,2.15-.9,3.31-.81h2.36c.04-.56-.18-1.11-.59-1.49-.51-.38-1.13-.57-1.77-.52-.55,0-1.09.09-1.6.26-.48.15-.94.38-1.34.69l-1.06-2.07c.61-.42,1.29-.73,2-.91.78-.22,1.59-.33,2.41-.33h0ZM192.55,53.01c.47,0,.94-.11,1.35-.35.39-.23.69-.6.84-1.04v-1.05h-2.03c-1.22,0-1.82.4-1.82,1.2-.01.36.16.69.45.9.36.24.79.36,1.23.33h0ZM206.59,44.48c1.13-.05,2.24.36,3.07,1.14.84.92,1.26,2.14,1.17,3.38v5.85h-2.96v-5.4c.05-.65-.14-1.3-.53-1.82-.4-.42-.96-.64-1.54-.6-.67-.03-1.32.22-1.79.69-.48.57-.72,1.31-.66,2.06v5.06h-2.96v-10.22h2.83v1.2c.41-.44.91-.78,1.46-1,.61-.24,1.26-.36,1.92-.35h0ZM217.63,44.48c1.31-.09,2.61.31,3.65,1.13.91.89,1.37,2.14,1.27,3.41v5.83h-2.77v-1.27c-.69,1.02-1.89,1.57-3.12,1.42-.7.02-1.4-.12-2.04-.4-.54-.23-1-.61-1.32-1.1-.31-.48-.47-1.03-.46-1.6-.03-.88.37-1.72,1.07-2.24.99-.62,2.15-.9,3.31-.81h2.36c.04-.56-.18-1.11-.59-1.49-.51-.38-1.13-.57-1.77-.52-.55,0-1.09.09-1.6.26-.48.15-.94.38-1.34.69l-1.06-2.07c.61-.42,1.29-.73,2-.91.78-.22,1.59-.33,2.41-.33h0ZM217.4,53.01c.47,0,.94-.11,1.35-.35.39-.23.69-.6.84-1.04v-1.05h-2.03c-1.22,0-1.82.4-1.82,1.2-.01.36.16.69.45.9.36.24.79.36,1.23.33h0Z"/>
    <path id="Path_15698" class="st0" d="M21.81,10.86v21h-2.13V15.06l-8.25,14.13h-1.05L2.13,15.15v16.71H0V10.86h1.83l9.12,15.57,9.03-15.57h1.83ZM33.72,15.96c1.72-.12,3.42.44,4.74,1.55,1.17,1.22,1.77,2.88,1.65,4.58v9.78h-2.04v-2.46c-.5.84-1.23,1.51-2.12,1.92-1.04.48-2.17.72-3.31.69-1.5.08-2.99-.37-4.2-1.26-1.02-.8-1.6-2.03-1.56-3.33-.04-1.25.5-2.44,1.45-3.24,1.36-.93,2.99-1.37,4.63-1.23h5.01v-.96c.08-1.15-.33-2.28-1.14-3.1-.93-.77-2.12-1.15-3.33-1.07-.98,0-1.96.16-2.88.49-.87.3-1.67.76-2.37,1.37l-.96-1.59c.85-.71,1.83-1.24,2.88-1.57,1.14-.37,2.34-.56,3.54-.56ZM32.97,30.33c1.09.03,2.16-.26,3.09-.83.88-.57,1.55-1.41,1.92-2.39v-2.58h-4.95c-2.7,0-4.05.94-4.05,2.82-.03.85.36,1.67,1.05,2.17.87.58,1.9.86,2.94.8ZM54.03,15.96c1.4-.02,2.79.32,4.02,1,1.19.66,2.17,1.64,2.82,2.84.69,1.28,1.05,2.72,1.02,4.17.03,1.46-.32,2.91-1.02,4.2-.65,1.19-1.62,2.17-2.81,2.83-1.23.68-2.63,1.02-4.03,1-1.2.02-2.39-.26-3.47-.8-1.03-.53-1.91-1.33-2.53-2.31v8.79h-2.13v-21.6h2.04v3.12c.61-1.01,1.49-1.84,2.53-2.4,1.1-.57,2.32-.86,3.56-.84ZM53.88,30.12c1.05.01,2.08-.25,3-.76.9-.51,1.63-1.26,2.12-2.17.52-.99.78-2.09.76-3.21.02-1.11-.24-2.21-.76-3.19-.49-.91-1.22-1.66-2.12-2.18-1.87-1.04-4.14-1.04-6.01,0-.89.52-1.61,1.27-2.1,2.17-.52.98-.79,2.08-.76,3.19-.02,1.12.24,2.22.76,3.21.48.91,1.21,1.66,2.1,2.17.92.52,1.96.78,3.01.77ZM71.67,15.96c1.72-.12,3.42.44,4.74,1.55,1.17,1.22,1.77,2.88,1.65,4.58v9.78h-2.04v-2.46c-.5.84-1.23,1.51-2.11,1.92-1.04.48-2.17.72-3.32.69-1.5.08-2.99-.37-4.2-1.26-1.02-.8-1.6-2.03-1.56-3.33-.04-1.25.5-2.44,1.46-3.24,1.36-.93,2.99-1.37,4.64-1.23h5.01v-.96c.08-1.15-.33-2.28-1.14-3.1-.93-.77-2.12-1.15-3.33-1.07-.98,0-1.96.16-2.88.49-.87.3-1.67.76-2.37,1.37l-.96-1.59c.85-.71,1.83-1.24,2.88-1.57,1.14-.37,2.34-.56,3.54-.56ZM70.92,30.33c1.09.03,2.16-.26,3.09-.83.88-.57,1.55-1.41,1.92-2.39v-2.58h-4.95c-2.7,0-4.05.94-4.05,2.82-.03.85.36,1.67,1.05,2.17.87.58,1.9.86,2.94.8ZM83.37,10.86h4.86v21h-4.86V10.86ZM102.69,15.48c1.79-.08,3.54.57,4.85,1.8,1.32,1.45,1.99,3.38,1.85,5.34v9.24h-4.68v-8.52c.08-1.03-.22-2.04-.84-2.86-.63-.66-1.52-1.01-2.43-.94-1.05-.05-2.08.35-2.82,1.09-.76.91-1.14,2.07-1.05,3.26v7.98h-4.68V15.72h4.47v1.89c.64-.69,1.43-1.23,2.31-1.57.96-.38,1.99-.57,3.03-.56ZM129.33,15.72l-6.81,16.14h-4.83l-6.78-16.14h4.83l4.47,10.98,4.62-10.98h4.5ZM146.61,23.85c0,.06-.03.48-.09,1.26h-12.21c.19.96.75,1.81,1.56,2.37.9.6,1.97.91,3.06.87.76.01,1.52-.11,2.24-.38.68-.27,1.3-.67,1.82-1.18l2.49,2.7c-1.52,1.74-3.74,2.61-6.66,2.61-1.67.03-3.33-.33-4.83-1.07-1.34-.66-2.46-1.68-3.24-2.95-.77-1.3-1.16-2.78-1.14-4.29-.02-1.5.37-2.98,1.12-4.27.74-1.26,1.81-2.28,3.09-2.97,2.72-1.4,5.95-1.42,8.68-.05,1.26.67,2.31,1.68,3.01,2.93.75,1.35,1.13,2.88,1.1,4.42ZM138.24,19.02c-.97-.03-1.92.29-2.67.9-.73.62-1.21,1.5-1.32,2.46h7.95c-.12-.95-.59-1.82-1.32-2.44-.74-.62-1.68-.94-2.64-.92ZM154.2,17.85c.57-.79,1.36-1.4,2.26-1.77,1.04-.42,2.16-.62,3.29-.6v4.32c-.52-.04-.87-.06-1.05-.06-1.16-.07-2.29.34-3.15,1.12-.82.92-1.23,2.14-1.14,3.38v7.62h-4.68V15.72h4.47v2.13ZM168.03,32.1c-1.33,0-2.65-.16-3.93-.5-1.08-.25-2.11-.67-3.06-1.25l1.56-3.36c.81.5,1.69.88,2.61,1.12.97.28,1.98.43,3,.43,1.98,0,2.97-.49,2.97-1.47-.01-.48-.34-.88-.81-.99-.81-.26-1.64-.43-2.49-.51-1.1-.15-2.2-.38-3.27-.69-.85-.26-1.62-.73-2.24-1.38-.67-.78-1.01-1.79-.95-2.82-.01-.98.3-1.93.88-2.72.67-.85,1.56-1.49,2.58-1.85,1.28-.47,2.64-.69,4.01-.66,1.14,0,2.28.13,3.4.38.98.2,1.93.54,2.8,1.03l-1.56,3.33c-1.42-.8-3.02-1.21-4.65-1.2-.77-.05-1.55.1-2.25.42-.44.19-.73.61-.75,1.08,0,.5.33.93.81,1.05.84.27,1.7.46,2.58.57,1.09.17,2.18.41,3.24.7.84.25,1.6.72,2.19,1.36.66.76.99,1.75.93,2.76.01.97-.31,1.91-.9,2.67-.69.84-1.6,1.47-2.62,1.82-1.31.46-2.7.67-4.09.65h0ZM178.53,15.72h4.68v16.14h-4.68V15.72ZM180.87,13.47c-.77.03-1.52-.24-2.1-.75-.53-.47-.82-1.15-.81-1.86-.01-.71.28-1.39.81-1.86.58-.51,1.33-.78,2.1-.75.77-.03,1.52.22,2.1.72.53.45.82,1.11.81,1.8.02.73-.27,1.44-.81,1.93-.57.52-1.33.8-2.1.77h0ZM195.24,32.1c-1.59.03-3.16-.34-4.57-1.07-1.31-.67-2.41-1.7-3.16-2.95-.77-1.3-1.16-2.78-1.14-4.29-.02-1.51.37-2.99,1.14-4.29.76-1.26,1.86-2.28,3.16-2.95,2.88-1.42,6.26-1.42,9.13,0,1.3.68,2.39,1.7,3.15,2.95.77,1.3,1.16,2.78,1.14,4.29.02,1.51-.37,2.99-1.14,4.29-.76,1.26-1.85,2.28-3.15,2.95-1.41.73-2.98,1.09-4.56,1.06ZM195.24,28.26c1.11.04,2.19-.41,2.96-1.22.8-.89,1.22-2.06,1.15-3.25.06-1.19-.36-2.37-1.15-3.26-.77-.81-1.84-1.25-2.96-1.22-1.12-.03-2.2.41-2.97,1.22-.81.89-1.23,2.06-1.17,3.26-.06,1.2.36,2.37,1.17,3.26.77.81,1.85,1.25,2.97,1.21ZM217.02,15.48c1.79-.08,3.54.57,4.85,1.8,1.32,1.45,1.99,3.38,1.85,5.34v9.24h-4.68v-8.52c.08-1.03-.22-2.04-.84-2.86-.63-.66-1.52-1.01-2.43-.94-1.05-.05-2.08.35-2.82,1.09-.76.91-1.14,2.07-1.05,3.26v7.98h-4.68V15.72h4.47v1.89c.64-.69,1.43-1.23,2.31-1.57.96-.38,1.99-.57,3.03-.56ZM243.93,23.85c0,.06-.03.48-.09,1.26h-12.21c.19.96.75,1.81,1.56,2.37.9.6,1.97.91,3.06.87.76.01,1.52-.11,2.24-.38.68-.27,1.3-.67,1.82-1.18l2.49,2.7c-1.52,1.74-3.74,2.61-6.66,2.61-1.67.03-3.33-.33-4.83-1.07-1.34-.66-2.46-1.68-3.24-2.95-.77-1.3-1.16-2.78-1.14-4.29-.02-1.5.37-2.98,1.12-4.27.74-1.26,1.81-2.28,3.09-2.97,2.72-1.4,5.95-1.42,8.68-.05,1.26.67,2.31,1.68,3.01,2.93.75,1.35,1.13,2.88,1.1,4.42ZM235.56,19.02c-.97-.03-1.92.29-2.67.9-.73.62-1.21,1.5-1.32,2.46h7.95c-.12-.95-.59-1.82-1.32-2.44-.74-.62-1.68-.94-2.64-.92h0ZM252.48,32.1c-1.33,0-2.65-.16-3.93-.5-1.08-.25-2.11-.67-3.06-1.25l1.56-3.36c.81.5,1.69.88,2.61,1.12.97.28,1.98.43,3,.43,1.98,0,2.97-.49,2.97-1.47-.01-.48-.35-.88-.81-.99-.81-.26-1.64-.43-2.49-.51-1.1-.15-2.2-.38-3.27-.69-.85-.26-1.62-.73-2.24-1.38-.67-.78-1.01-1.79-.95-2.82-.01-.98.3-1.93.88-2.72.67-.85,1.56-1.49,2.58-1.85,1.28-.47,2.64-.69,4-.66,1.14,0,2.28.13,3.4.38.98.2,1.93.54,2.8,1.03l-1.56,3.33c-1.42-.8-3.02-1.21-4.65-1.2-.77-.05-1.55.1-2.25.42-.44.19-.73.61-.75,1.08,0,.5.33.93.81,1.05.84.27,1.7.46,2.58.57,1.09.17,2.18.41,3.24.7.84.25,1.6.72,2.19,1.36.66.76.99,1.75.93,2.76.01.97-.31,1.91-.9,2.67-.69.84-1.6,1.47-2.62,1.82-1.31.46-2.7.67-4.08.65Z"/>
    <path id="Path_15699" class="st0" d="M7.39,62.86l-3.05,7h-1.28l-3.06-7h1.41l2.33,5.4,2.35-5.4h1.3ZM12.63,67.22c0,.09,0,.21-.02.37h-4.19c.06.37.27.71.57.93.34.24.74.36,1.16.35.54.02,1.07-.19,1.45-.58l.67.77c-.24.29-.56.51-.91.65-.4.15-.82.23-1.24.22-.54.01-1.07-.11-1.55-.35-.43-.22-.79-.56-1.03-.97-.25-.43-.37-.92-.37-1.42,0-.49.12-.98.36-1.4.23-.41.57-.75.99-.98.44-.24.92-.36,1.42-.35.49,0,.97.11,1.39.34.41.23.74.56.96.97.24.44.36.94.35,1.45ZM9.93,65.46c-.37-.01-.73.12-1.02.36-.28.24-.46.58-.51.95h3.03c-.04-.36-.22-.7-.49-.94-.28-.24-.65-.37-1.02-.36ZM15.02,65.3c.44-.6,1.16-.92,1.9-.84v1.19c-.1-.02-.19-.03-.29-.03-.42-.02-.84.13-1.14.42-.29.34-.44.78-.41,1.23v2.59h-1.25v-5.34h1.19v.78ZM19.65,69.93c-.43,0-.86-.06-1.27-.17-.35-.09-.69-.23-.99-.43l.48-.95c.27.17.56.3.86.38.32.1.66.14,1,.14.75,0,1.12-.2,1.12-.59,0-.18-.11-.34-.28-.39-.3-.1-.6-.17-.92-.21-.36-.05-.72-.13-1.08-.23-.28-.09-.52-.24-.72-.45-.21-.25-.32-.58-.3-.9-.01-.49.23-.95.64-1.21.51-.33,1.1-.48,1.7-.46.37,0,.74.04,1.1.12.32.06.62.18.9.34l-.48.95c-.46-.27-.99-.41-1.53-.4-.29-.02-.58.04-.84.16-.17.08-.28.25-.28.43,0,.19.12.37.31.42.31.11.62.19.94.23.36.05.71.13,1.05.23.27.08.51.24.7.44.21.24.32.56.3.88,0,.49-.24.94-.65,1.2-.53.33-1.14.48-1.76.45ZM23.15,64.52h1.25v5.34h-1.25v-5.34ZM23.78,63.64c-.21,0-.42-.07-.57-.22-.15-.14-.23-.33-.23-.53,0-.2.08-.4.23-.53.15-.14.36-.22.57-.22.21,0,.41.06.57.2.15.13.24.32.23.52,0,.21-.08.41-.23.55-.15.15-.36.23-.58.23ZM28.44,69.93c-.51,0-1.01-.11-1.46-.35-.42-.22-.77-.56-1.01-.97-.25-.43-.37-.92-.37-1.42,0-.49.12-.98.36-1.41.24-.41.59-.75,1.01-.97.45-.24.95-.36,1.46-.35.51,0,1.02.11,1.47.35.42.22.77.56,1.01.97.25.43.37.92.36,1.41,0,.5-.12.98-.36,1.41-.24.41-.59.75-1.01.98-.45.24-.96.36-1.47.35ZM28.44,68.86c.43.01.84-.15,1.14-.46.31-.33.47-.76.45-1.21.02-.45-.14-.88-.45-1.21-.3-.31-.71-.47-1.14-.46-.43-.01-.84.15-1.14.46-.3.33-.46.76-.44,1.21-.02.45.14.88.44,1.21.3.31.71.47,1.14.46ZM28.94,62.42h1.47l-1.74,1.37h-1.08l1.35-1.37ZM35.52,64.46c.6-.03,1.18.18,1.62.59.44.47.66,1.11.61,1.75v3.06h-1.25v-2.9c.03-.38-.09-.76-.33-1.05-.25-.25-.59-.38-.94-.36-.41-.02-.8.13-1.09.41-.29.33-.43.76-.4,1.2v2.69h-1.25v-5.34h1.19v.69c.21-.25.48-.44.78-.56.34-.13.7-.2,1.06-.19ZM46.79,68.76v1.1h-5.16v-.87l2.78-2.64c.25-.22.47-.49.63-.78.11-.21.16-.43.17-.66.02-.29-.11-.57-.33-.75-.29-.19-.63-.28-.97-.26-.63-.04-1.24.24-1.64.73l-.91-.7c.29-.38.66-.67,1.1-.86.49-.21,1.02-.31,1.56-.3.65-.03,1.29.16,1.82.54.45.35.7.9.68,1.47,0,.37-.08.74-.24,1.07-.24.43-.55.82-.92,1.14l-1.86,1.77h3.3ZM48.42,69.93c-.22,0-.43-.08-.58-.23-.16-.16-.25-.38-.24-.6,0-.22.08-.44.24-.6.16-.15.37-.24.58-.23.22,0,.43.08.58.23.16.16.24.38.24.6,0,.22-.08.44-.24.6-.15.15-.36.24-.58.23ZM52.88,69.96c-.53,0-1.05-.14-1.5-.43-.46-.31-.82-.74-1.04-1.24-.27-.61-.4-1.27-.38-1.93-.02-.67.11-1.33.38-1.93.22-.5.58-.93,1.04-1.24.45-.29.97-.43,1.5-.43.53,0,1.06.14,1.51.43.46.3.82.73,1.04,1.24.27.61.4,1.27.38,1.94.02.67-.11,1.33-.38,1.93-.22.51-.58.94-1.04,1.24-.45.29-.97.43-1.5.43ZM52.88,68.83c.48.01.92-.22,1.19-.62.33-.56.48-1.2.43-1.85.04-.65-.11-1.29-.44-1.85-.26-.4-.71-.63-1.19-.62-.47-.01-.92.22-1.17.62-.33.56-.48,1.2-.43,1.85-.04.65.11,1.29.44,1.85.26.4.7.63,1.17.62Z"/>
  </g>
</svg>