<svg id="Component_447_1" data-name="Component 447 – 1" xmlns="http://www.w3.org/2000/svg" xmlns:xlink="http://www.w3.org/1999/xlink" width="355.96" height="99.612" viewBox="0 0 355.96 99.612">
  <defs>
    <clipPath id="clip-path">
      <path id="Path_29016" data-name="Path 29016" d="M150.184,28.054a.669.669,0,0,0-.524.268l-6.379,8.262a.65.65,0,0,0-.16.464v3.194h-8.5a.662.662,0,0,0-.459.259l-6.318,8.185c-.248.321-.4-.609-.4-.609V85.922L134.8,85.3,147.4,90.018l4.332,15.82,47.019-2.4,6.1,2.19V33.452a.661.661,0,0,0-.616-.731l-2.111,0H183.249a.657.657,0,0,0-.488.258l-6.388,8.276a.66.66,0,0,0-.156.429v3.465l-8.289-4.026V28.72a.657.657,0,0,0-.666-.666Z" transform="translate(-127.451 -28.054)" fill="none"/>
    </clipPath>
    <clipPath id="clip-path-2">
      <rect id="Rectangle_4570" data-name="Rectangle 4570" width="117.008" height="99.612" fill="none"/>
    </clipPath>
  </defs>
  <path id="Path_29054" data-name="Path 29054" d="M20.46,8.97a1.837,1.837,0,0,1,1.305.525A1.723,1.723,0,0,1,22.32,10.8V28.17A1.772,1.772,0,0,1,20.46,30a1.876,1.876,0,0,1-1.365-.51,1.759,1.759,0,0,1-.525-1.32V16.08l-4.95,7.56a2.559,2.559,0,0,1-.69.585,1.393,1.393,0,0,1-.81.195,1.336,1.336,0,0,1-.78-.195,2.559,2.559,0,0,1-.69-.585L5.7,15.81V28.17a1.848,1.848,0,0,1-.48,1.32A1.65,1.65,0,0,1,3.96,30a1.592,1.592,0,0,1-1.23-.525,1.861,1.861,0,0,1-.48-1.305V10.8a1.737,1.737,0,0,1,.555-1.29A1.846,1.846,0,0,1,4.14,8.97a2,2,0,0,1,.9.225,1.741,1.741,0,0,1,.69.585l6.54,10.05L18.99,9.78a1.824,1.824,0,0,1,.645-.585A1.681,1.681,0,0,1,20.46,8.97ZM41.19,21.99A8.574,8.574,0,0,1,40.11,26.3a7.63,7.63,0,0,1-2.955,2.955,8.657,8.657,0,0,1-8.265,0A7.66,7.66,0,0,1,25.95,26.3a8.574,8.574,0,0,1-1.08-4.305,8.574,8.574,0,0,1,1.08-4.305,7.767,7.767,0,0,1,2.94-2.97,8.55,8.55,0,0,1,8.265,0,7.736,7.736,0,0,1,2.955,2.97A8.574,8.574,0,0,1,41.19,21.99Zm-3.6,0a5.5,5.5,0,0,0-.615-2.625,4.525,4.525,0,0,0-1.65-1.785,4.5,4.5,0,0,0-4.59,0,4.525,4.525,0,0,0-1.65,1.785,5.5,5.5,0,0,0-.615,2.625,5.41,5.41,0,0,0,.615,2.61,4.55,4.55,0,0,0,1.65,1.77,4.5,4.5,0,0,0,4.59,0,4.55,4.55,0,0,0,1.65-1.77A5.41,5.41,0,0,0,37.59,21.99Zm14.43-8.34q3.06,0,4.23,1.815a9.226,9.226,0,0,1,1.17,5.025v7.68a1.8,1.8,0,0,1-.51,1.305,1.847,1.847,0,0,1-2.58,0,1.8,1.8,0,0,1-.51-1.305V20.49a4.322,4.322,0,0,0-.69-2.595,2.742,2.742,0,0,0-2.37-.945,3.658,3.658,0,0,0-2.73,1.005,3.464,3.464,0,0,0-.99,2.535v7.68a1.8,1.8,0,0,1-.51,1.305,1.847,1.847,0,0,1-2.58,0,1.8,1.8,0,0,1-.51-1.305V15.78a1.8,1.8,0,0,1,.51-1.305,1.847,1.847,0,0,1,2.58,0,1.8,1.8,0,0,1,.51,1.305v.51a7.246,7.246,0,0,1,2.115-1.86A5.481,5.481,0,0,1,52.02,13.65ZM63.96,28.17a1.8,1.8,0,0,1-.51,1.305,1.847,1.847,0,0,1-2.58,0,1.8,1.8,0,0,1-.51-1.305V15.78a1.8,1.8,0,0,1,.51-1.305,1.847,1.847,0,0,1,2.58,0,1.8,1.8,0,0,1,.51,1.305ZM62.13,12a2.383,2.383,0,0,1-1.44-.33,1.41,1.41,0,0,1-.42-1.17V9.93a1.36,1.36,0,0,1,.45-1.17,3.372,3.372,0,0,1,2.91,0,1.41,1.41,0,0,1,.42,1.17v.57a1.378,1.378,0,0,1-.435,1.185A2.62,2.62,0,0,1,62.13,12ZM74.64,26.61a1,1,0,0,1,.765.4,1.586,1.586,0,0,1,.345,1.065,1.6,1.6,0,0,1-.885,1.365,3.677,3.677,0,0,1-2,.555,5.816,5.816,0,0,1-3.135-.8q-1.275-.8-1.275-3.375V17.55H67.08a1.64,1.64,0,0,1-1.68-1.68,1.543,1.543,0,0,1,.48-1.155,1.656,1.656,0,0,1,1.2-.465h1.38V12.33a1.794,1.794,0,0,1,1.83-1.83,1.687,1.687,0,0,1,1.26.525,1.8,1.8,0,0,1,.51,1.305v1.92h2.13a1.64,1.64,0,0,1,1.68,1.68,1.543,1.543,0,0,1-.48,1.155,1.656,1.656,0,0,1-1.2.465H72.06v8.13a1.148,1.148,0,0,0,.33.915,1.331,1.331,0,0,0,.9.285,2.574,2.574,0,0,0,.66-.12A1.792,1.792,0,0,1,74.64,26.61Zm19.05-4.62A8.574,8.574,0,0,1,92.61,26.3a7.63,7.63,0,0,1-2.955,2.955,8.657,8.657,0,0,1-8.265,0A7.66,7.66,0,0,1,78.45,26.3a8.574,8.574,0,0,1-1.08-4.305,8.574,8.574,0,0,1,1.08-4.305,7.767,7.767,0,0,1,2.94-2.97,8.55,8.55,0,0,1,8.265,0,7.736,7.736,0,0,1,2.955,2.97A8.574,8.574,0,0,1,93.69,21.99Zm-3.6,0a5.5,5.5,0,0,0-.615-2.625,4.525,4.525,0,0,0-1.65-1.785,4.5,4.5,0,0,0-4.59,0,4.525,4.525,0,0,0-1.65,1.785,5.5,5.5,0,0,0-.615,2.625,5.41,5.41,0,0,0,.615,2.61,4.55,4.55,0,0,0,1.65,1.77,4.5,4.5,0,0,0,4.59,0,4.55,4.55,0,0,0,1.65-1.77A5.41,5.41,0,0,0,90.09,21.99Zm14.19-8.34a2.294,2.294,0,0,1,1.515.51,1.521,1.521,0,0,1,.615,1.2,1.859,1.859,0,0,1-.48,1.4,1.583,1.583,0,0,1-1.14.465,2.993,2.993,0,0,1-1.02-.21q-.09-.03-.4-.12a2.447,2.447,0,0,0-.675-.09,2.666,2.666,0,0,0-1.5.48A3.5,3.5,0,0,0,100,18.735a5.357,5.357,0,0,0-.465,2.325v7.11a1.8,1.8,0,0,1-.51,1.305,1.847,1.847,0,0,1-2.58,0,1.8,1.8,0,0,1-.51-1.305V15.78a1.8,1.8,0,0,1,.51-1.305,1.847,1.847,0,0,1,2.58,0,1.8,1.8,0,0,1,.51,1.305v.39a4.545,4.545,0,0,1,1.98-1.875A6.087,6.087,0,0,1,104.28,13.65ZM128.85,7.8a1.748,1.748,0,0,1,1.29.51,1.786,1.786,0,0,1,.51,1.32V28.17a1.8,1.8,0,0,1-.51,1.305,1.722,1.722,0,0,1-1.29.525,1.7,1.7,0,0,1-1.275-.51,1.887,1.887,0,0,1-.525-1.29,6.5,6.5,0,0,1-4.71,2.1,6.859,6.859,0,0,1-3.75-1.065,7.467,7.467,0,0,1-2.655-2.955,9.221,9.221,0,0,1-.975-4.29,9.433,9.433,0,0,1,.96-4.305,7.376,7.376,0,0,1,2.625-2.97,6.682,6.682,0,0,1,3.675-1.065,6.949,6.949,0,0,1,2.7.525,7.09,7.09,0,0,1,2.13,1.335V9.63a1.8,1.8,0,0,1,.51-1.305A1.722,1.722,0,0,1,128.85,7.8ZM122.79,27a4.006,4.006,0,0,0,3.18-1.425,5.291,5.291,0,0,0,1.23-3.585,5.349,5.349,0,0,0-1.23-3.6,4.2,4.2,0,0,0-6.33,0,5.349,5.349,0,0,0-1.23,3.6,5.332,5.332,0,0,0,1.215,3.585A3.962,3.962,0,0,0,122.79,27Zm25.41-5.4a1.54,1.54,0,0,1-.57,1.17,1.908,1.908,0,0,1-1.26.45h-9.9a4.524,4.524,0,0,0,1.65,2.775A4.613,4.613,0,0,0,141.03,27a6.449,6.449,0,0,0,1.92-.225,5,5,0,0,0,1.1-.48q.405-.255.555-.345a2.289,2.289,0,0,1,1.02-.27,1.473,1.473,0,0,1,1.08.45,1.439,1.439,0,0,1,.45,1.05,1.872,1.872,0,0,1-.84,1.47,7.168,7.168,0,0,1-2.25,1.17,9.3,9.3,0,0,1-7.245-.57,7.329,7.329,0,0,1-2.895-2.9A8.442,8.442,0,0,1,132.9,22.2a9.2,9.2,0,0,1,1.08-4.53,7.668,7.668,0,0,1,2.85-2.985,7.366,7.366,0,0,1,3.78-1.035,7.008,7.008,0,0,1,3.735,1.08,8.073,8.073,0,0,1,2.805,2.91A7.823,7.823,0,0,1,148.2,21.6Zm-7.59-4.65a3.724,3.724,0,0,0-4.11,3.27h7.86v-.21a3.1,3.1,0,0,0-1.23-2.16A3.893,3.893,0,0,0,140.61,16.95ZM6,58.17a1.7,1.7,0,0,1-.57,1.305A1.889,1.889,0,0,1,4.11,60a1.809,1.809,0,0,1-1.335-.525A1.772,1.772,0,0,1,2.25,58.17V40.83a1.746,1.746,0,0,1,.54-1.3A1.9,1.9,0,0,1,4.17,39a1.786,1.786,0,0,1,1.29.525A1.746,1.746,0,0,1,6,40.83ZM18.03,43.65q3.06,0,4.23,1.815a9.226,9.226,0,0,1,1.17,5.025v7.68a1.8,1.8,0,0,1-.51,1.305,1.847,1.847,0,0,1-2.58,0,1.8,1.8,0,0,1-.51-1.305V50.49a4.322,4.322,0,0,0-.69-2.595,2.742,2.742,0,0,0-2.37-.945,3.658,3.658,0,0,0-2.73,1.005,3.464,3.464,0,0,0-.99,2.535v7.68a1.8,1.8,0,0,1-.51,1.305,1.847,1.847,0,0,1-2.58,0,1.8,1.8,0,0,1-.51-1.305V45.78a1.8,1.8,0,0,1,.51-1.305,1.847,1.847,0,0,1,2.58,0,1.8,1.8,0,0,1,.51,1.305v.51a7.246,7.246,0,0,1,2.115-1.86A5.481,5.481,0,0,1,18.03,43.65Zm20.73.33a1.656,1.656,0,0,1,1.2.465,1.543,1.543,0,0,1,.48,1.155,2.325,2.325,0,0,1-.24.9L34.59,58.86a1.866,1.866,0,0,1-.615.81,1.67,1.67,0,0,1-.915.33l-.27.03a1.578,1.578,0,0,1-.945-.315,2.064,2.064,0,0,1-.675-.855L25.59,46.5a2.378,2.378,0,0,1-.21-.96,1.5,1.5,0,0,1,.51-1.1,1.739,1.739,0,0,1,1.26-.5,1.943,1.943,0,0,1,1.05.3,1.851,1.851,0,0,1,.72.84l4.14,9.48,4.11-9.45a1.979,1.979,0,0,1,.66-.87A1.414,1.414,0,0,1,38.76,43.98ZM56.79,51.6a1.54,1.54,0,0,1-.57,1.17,1.909,1.909,0,0,1-1.26.45h-9.9a4.524,4.524,0,0,0,1.65,2.775A4.613,4.613,0,0,0,49.62,57a6.449,6.449,0,0,0,1.92-.225,5,5,0,0,0,1.095-.48q.405-.255.555-.345a2.289,2.289,0,0,1,1.02-.27,1.473,1.473,0,0,1,1.08.45,1.439,1.439,0,0,1,.45,1.05,1.872,1.872,0,0,1-.84,1.47,7.168,7.168,0,0,1-2.25,1.17,9.3,9.3,0,0,1-7.245-.57,7.329,7.329,0,0,1-2.9-2.9A8.442,8.442,0,0,1,41.49,52.2a9.2,9.2,0,0,1,1.08-4.53,7.668,7.668,0,0,1,2.85-2.985A7.366,7.366,0,0,1,49.2,43.65a7.008,7.008,0,0,1,3.735,1.08,8.073,8.073,0,0,1,2.805,2.91A7.823,7.823,0,0,1,56.79,51.6ZM49.2,46.95a3.724,3.724,0,0,0-4.11,3.27h7.86v-.21a3.1,3.1,0,0,0-1.23-2.16A3.893,3.893,0,0,0,49.2,46.95Zm18.18-3.3a2.294,2.294,0,0,1,1.515.51,1.521,1.521,0,0,1,.615,1.2,1.859,1.859,0,0,1-.48,1.4,1.583,1.583,0,0,1-1.14.465,2.993,2.993,0,0,1-1.02-.21q-.09-.03-.4-.12a2.447,2.447,0,0,0-.675-.09,2.666,2.666,0,0,0-1.5.48A3.5,3.5,0,0,0,63.1,48.735a5.357,5.357,0,0,0-.465,2.325v7.11a1.8,1.8,0,0,1-.51,1.305,1.847,1.847,0,0,1-2.58,0,1.8,1.8,0,0,1-.51-1.305V45.78a1.8,1.8,0,0,1,.51-1.305,1.847,1.847,0,0,1,2.58,0,1.8,1.8,0,0,1,.51,1.305v.39a4.545,4.545,0,0,1,1.98-1.875A6.087,6.087,0,0,1,67.38,43.65Zm3,13.86a1.458,1.458,0,0,1-.27-.9,1.706,1.706,0,0,1,1.65-1.59,1.692,1.692,0,0,1,1.2.57,6.327,6.327,0,0,0,1.875,1.38,5.59,5.59,0,0,0,2.355.45q2.34-.09,2.34-1.77a1.434,1.434,0,0,0-.795-1.32,11.22,11.22,0,0,0-2.475-.9,21.453,21.453,0,0,1-2.835-.96,5.016,5.016,0,0,1-1.89-1.455,4.031,4.031,0,0,1-.8-2.625,3.972,3.972,0,0,1,.825-2.505,5.43,5.43,0,0,1,2.16-1.65,6.986,6.986,0,0,1,2.835-.585,8.712,8.712,0,0,1,3.06.57,5.322,5.322,0,0,1,2.4,1.68,1.668,1.668,0,0,1,.39,1.08,1.393,1.393,0,0,1-.57,1.14,1.511,1.511,0,0,1-.96.33,1.462,1.462,0,0,1-1.08-.42,3.81,3.81,0,0,0-1.4-1.05,4.612,4.612,0,0,0-1.935-.39q-2.28,0-2.28,1.65a1.412,1.412,0,0,0,.42,1.065,2.87,2.87,0,0,0,1.065.63q.645.225,1.815.555a19.839,19.839,0,0,1,2.7.93,4.634,4.634,0,0,1,1.83,1.47,4.212,4.212,0,0,1,.75,2.61,4,4,0,0,1-.87,2.565,5.507,5.507,0,0,1-2.235,1.665,7.214,7.214,0,0,1-2.805.57,10.16,10.16,0,0,1-3.69-.66A6.132,6.132,0,0,1,70.38,57.51Zm18.03.66a1.8,1.8,0,0,1-.51,1.305,1.847,1.847,0,0,1-2.58,0,1.8,1.8,0,0,1-.51-1.305V45.78a1.8,1.8,0,0,1,.51-1.305,1.847,1.847,0,0,1,2.58,0,1.8,1.8,0,0,1,.51,1.305ZM86.58,42a2.383,2.383,0,0,1-1.44-.33,1.41,1.41,0,0,1-.42-1.17v-.57a1.36,1.36,0,0,1,.45-1.17,3.372,3.372,0,0,1,2.91,0,1.41,1.41,0,0,1,.42,1.17v.57a1.378,1.378,0,0,1-.435,1.185A2.62,2.62,0,0,1,86.58,42Zm20.19,9.99a8.574,8.574,0,0,1-1.08,4.305,7.63,7.63,0,0,1-2.955,2.955,8.657,8.657,0,0,1-8.265,0,7.66,7.66,0,0,1-2.94-2.955,9.12,9.12,0,0,1,0-8.61,7.767,7.767,0,0,1,2.94-2.97,8.55,8.55,0,0,1,8.265,0,7.736,7.736,0,0,1,2.955,2.97A8.574,8.574,0,0,1,106.77,51.99Zm-3.6,0a5.5,5.5,0,0,0-.615-2.625,4.525,4.525,0,0,0-1.65-1.785,4.5,4.5,0,0,0-4.59,0,4.525,4.525,0,0,0-1.65,1.785,5.5,5.5,0,0,0-.615,2.625,5.41,5.41,0,0,0,.615,2.61,4.55,4.55,0,0,0,1.65,1.77,4.5,4.5,0,0,0,4.59,0,4.55,4.55,0,0,0,1.65-1.77A5.41,5.41,0,0,0,103.17,51.99Zm-4.41-9.06a1.073,1.073,0,0,1-.645-.27.8.8,0,0,1-.315-.72,1.114,1.114,0,0,1,.18-.57l1.74-3.06a2.842,2.842,0,0,1,.72-.87,1.47,1.47,0,0,1,.93-.33,1.614,1.614,0,0,1,1.215.42,1.394,1.394,0,0,1,.375,1.08,2.273,2.273,0,0,1-.57,1.29l-2.28,2.52A1.764,1.764,0,0,1,98.76,42.93Zm18.84.72q3.06,0,4.23,1.815A9.226,9.226,0,0,1,123,50.49v7.68a1.8,1.8,0,0,1-.51,1.305,1.847,1.847,0,0,1-2.58,0,1.8,1.8,0,0,1-.51-1.305V50.49a4.322,4.322,0,0,0-.69-2.595,2.742,2.742,0,0,0-2.37-.945,3.658,3.658,0,0,0-2.73,1.005,3.464,3.464,0,0,0-.99,2.535v7.68a1.8,1.8,0,0,1-.51,1.305,1.847,1.847,0,0,1-2.58,0,1.8,1.8,0,0,1-.51-1.305V45.78a1.8,1.8,0,0,1,.51-1.305,1.847,1.847,0,0,1,2.58,0,1.8,1.8,0,0,1,.51,1.305v.51a7.246,7.246,0,0,1,2.115-1.86A5.481,5.481,0,0,1,117.6,43.65ZM142.77,39a5.182,5.182,0,0,1,2.91.915,6.772,6.772,0,0,1,2.22,2.46,7.17,7.17,0,0,1,0,6.735,6.74,6.74,0,0,1-2.22,2.475,5.182,5.182,0,0,1-2.91.915h-5.22v5.67a1.848,1.848,0,0,1-.48,1.32,1.65,1.65,0,0,1-1.26.51,1.592,1.592,0,0,1-1.23-.525,1.861,1.861,0,0,1-.48-1.305V40.83A1.794,1.794,0,0,1,135.93,39Zm0,10.08a1.72,1.72,0,0,0,1.125-.48,3.538,3.538,0,0,0,.9-1.245,3.906,3.906,0,0,0,0-3.21,3.389,3.389,0,0,0-.9-1.23,1.749,1.749,0,0,0-1.125-.465h-5.22v6.63Zm20.13-5.13a1.722,1.722,0,0,1,1.29.525,1.8,1.8,0,0,1,.51,1.305V53.4a6.953,6.953,0,0,1-1.785,5.07,7.959,7.959,0,0,1-10.155,0,6.988,6.988,0,0,1-1.77-5.07V45.78a1.8,1.8,0,0,1,.51-1.305,1.847,1.847,0,0,1,2.58,0,1.8,1.8,0,0,1,.51,1.305V53.4a3.916,3.916,0,0,0,.81,2.715,3.133,3.133,0,0,0,2.43.885,3.174,3.174,0,0,0,2.46-.885,3.916,3.916,0,0,0,.81-2.715V45.78a1.8,1.8,0,0,1,.51-1.305A1.722,1.722,0,0,1,162.9,43.95Zm-4.89-1.02a1.073,1.073,0,0,1-.645-.27.8.8,0,0,1-.315-.72,1.114,1.114,0,0,1,.18-.57l1.74-3.06a2.842,2.842,0,0,1,.72-.87,1.47,1.47,0,0,1,.93-.33,1.614,1.614,0,0,1,1.215.42,1.394,1.394,0,0,1,.375,1.08,2.273,2.273,0,0,1-.57,1.29l-2.28,2.52A1.764,1.764,0,0,1,158.01,42.93Zm18.15.72a6.859,6.859,0,0,1,3.75,1.065,7.467,7.467,0,0,1,2.655,2.955,9.221,9.221,0,0,1,.975,4.29,9.433,9.433,0,0,1-.96,4.305,7.376,7.376,0,0,1-2.625,2.97A6.682,6.682,0,0,1,176.28,60.3a6.433,6.433,0,0,1-2.715-.585,7.2,7.2,0,0,1-2.115-1.425v.18a1.8,1.8,0,0,1-.51,1.305,1.722,1.722,0,0,1-1.29.525,1.748,1.748,0,0,1-1.29-.51,1.786,1.786,0,0,1-.51-1.32V39.63a1.8,1.8,0,0,1,.51-1.305,1.847,1.847,0,0,1,2.58,0,1.8,1.8,0,0,1,.51,1.305V45.9a6.211,6.211,0,0,1,2.01-1.575A5.748,5.748,0,0,1,176.16,43.65ZM175.71,57a3.956,3.956,0,0,0,3.15-1.44,5.89,5.89,0,0,0,.015-7.185,3.962,3.962,0,0,0-3.165-1.425,4.006,4.006,0,0,0-3.18,1.425,5.291,5.291,0,0,0-1.23,3.585,5.349,5.349,0,0,0,1.23,3.6A3.988,3.988,0,0,0,175.71,57Zm13.98,1.17A1.794,1.794,0,0,1,187.86,60a1.687,1.687,0,0,1-1.26-.525,1.8,1.8,0,0,1-.51-1.305V39.63a1.794,1.794,0,0,1,1.83-1.83,1.687,1.687,0,0,1,1.26.525,1.8,1.8,0,0,1,.51,1.305Zm6.84,0a1.8,1.8,0,0,1-.51,1.305,1.847,1.847,0,0,1-2.58,0,1.8,1.8,0,0,1-.51-1.305V45.78a1.8,1.8,0,0,1,.51-1.305,1.847,1.847,0,0,1,2.58,0,1.8,1.8,0,0,1,.51,1.305ZM194.7,42a2.383,2.383,0,0,1-1.44-.33,1.409,1.409,0,0,1-.42-1.17v-.57a1.36,1.36,0,0,1,.45-1.17,3.372,3.372,0,0,1,2.91,0,1.41,1.41,0,0,1,.42,1.17v.57a1.378,1.378,0,0,1-.435,1.185A2.62,2.62,0,0,1,194.7,42Zm11.76,1.65a9.083,9.083,0,0,1,4.11.795,2.383,2.383,0,0,1,1.56,2.115,1.812,1.812,0,0,1-.39,1.155,1.237,1.237,0,0,1-1.02.495,1.916,1.916,0,0,1-.78-.135,2.8,2.8,0,0,1-.585-.36,4.173,4.173,0,0,0-.555-.375,3.764,3.764,0,0,0-.885-.27,4.936,4.936,0,0,0-.945-.12,4.536,4.536,0,0,0-3.525,1.4,5.192,5.192,0,0,0-1.275,3.645,5.14,5.14,0,0,0,1.29,3.585A4.252,4.252,0,0,0,206.76,57a5.105,5.105,0,0,0,2.19-.36,4.058,4.058,0,0,0,.495-.315,3.406,3.406,0,0,1,.585-.345,1.622,1.622,0,0,1,.66-.12,1.519,1.519,0,0,1,1.185.48,1.761,1.761,0,0,1,.435,1.23,1.737,1.737,0,0,1-.84,1.35,6.542,6.542,0,0,1-2.22,1.005,11.17,11.17,0,0,1-2.94.375,7.6,7.6,0,0,1-4.065-1.08,7.263,7.263,0,0,1-2.715-2.985,9.3,9.3,0,0,1-.96-4.245,9.06,9.06,0,0,1,1-4.32,7.394,7.394,0,0,1,2.805-2.955A7.859,7.859,0,0,1,206.46,43.65Zm20.7,0a1.748,1.748,0,0,1,1.29.51,1.786,1.786,0,0,1,.51,1.32V58.17a1.8,1.8,0,0,1-.51,1.305,1.722,1.722,0,0,1-1.29.525,1.7,1.7,0,0,1-1.275-.51,1.887,1.887,0,0,1-.525-1.29,6.5,6.5,0,0,1-4.71,2.1,6.859,6.859,0,0,1-3.75-1.065,7.467,7.467,0,0,1-2.655-2.955,9.221,9.221,0,0,1-.975-4.29,9.433,9.433,0,0,1,.96-4.305,7.376,7.376,0,0,1,2.625-2.97,6.682,6.682,0,0,1,3.675-1.065,6.949,6.949,0,0,1,2.7.525,7.09,7.09,0,0,1,2.13,1.335v-.03a1.8,1.8,0,0,1,.51-1.305A1.722,1.722,0,0,1,227.16,43.65ZM221.1,57a4.006,4.006,0,0,0,3.18-1.425,5.291,5.291,0,0,0,1.23-3.585,5.349,5.349,0,0,0-1.23-3.6,4.2,4.2,0,0,0-6.33,0,5.89,5.89,0,0,0-.015,7.185A3.962,3.962,0,0,0,221.1,57Z" transform="translate(127 19.612)" fill="#4d4d4d"/>
  <g id="Group_5631" data-name="Group 5631">
    <g id="Group_5634" data-name="Group 5634" transform="translate(24.003 5.283)">
      <g id="Group_5633" data-name="Group 5633" clip-path="url(#clip-path)">
        <rect id="Rectangle_4565" data-name="Rectangle 4565" width="6.756" height="53.859" transform="translate(66.158 20.895)" fill="#ffed00"/>
        <rect id="Rectangle_4566" data-name="Rectangle 4566" width="13.512" height="13.508" transform="translate(59.402 9.152)" fill="#ffed00"/>
        <rect id="Rectangle_4567" data-name="Rectangle 4567" width="5.513" height="49.612" transform="translate(9.93 17.928)" fill="#4fdaad"/>
        <rect id="Rectangle_4568" data-name="Rectangle 4568" width="6.337" height="44.356" transform="translate(50.256 29.555)" fill="#4fdaad"/>
        <rect id="Rectangle_4569" data-name="Rectangle 4569" width="9.705" height="70.598" transform="translate(26.423 5.491)" fill="#ff9a00"/>
        <path id="Path_28989" data-name="Path 28989" d="M146.706,158.075h-17.7a.665.665,0,0,1-.666-.666v-55.68a.671.671,0,0,1,.139-.407l6.406-8.3a.666.666,0,0,1,.527-.259h11.291a.665.665,0,0,1,.666.666v63.979a.665.665,0,0,1-.666.666m-17.032-1.331H146.04V94.1h-10.3l-6.068,7.861Z" transform="translate(-128.175 -80.577)" fill="#1d1d1b"/>
        <path id="Path_28990" data-name="Path 28990" d="M163.023,158.076a.665.665,0,0,1-.666-.666V93.431a.666.666,0,0,1,1.332,0V157.41a.665.665,0,0,1-.666.666" transform="translate(-155.783 -80.578)" fill="#1d1d1b"/>
        <path id="Path_28991" data-name="Path 28991" d="M234.792,105.553H217.72a.666.666,0,1,1,0-1.331h16.406V29.386H218.048l-6.067,7.86v1.293a.666.666,0,0,1-1.331,0v-1.52a.669.669,0,0,1,.139-.407l6.4-8.3a.666.666,0,0,1,.527-.259h17.072a.665.665,0,0,1,.666.666v76.166a.665.665,0,0,1-.666.666" transform="translate(-194.981 -28.055)" fill="#1d1d1b"/>
        <path id="Path_28992" data-name="Path 28992" d="M245.323,105.553a.665.665,0,0,1-.666-.666V28.721a.666.666,0,0,1,1.332,0v76.166a.665.665,0,0,1-.666.666" transform="translate(-222.583 -28.055)" fill="#1d1d1b"/>
        <path id="Path_28993" data-name="Path 28993" d="M356.86,212.133H335.969a.666.666,0,0,1,0-1.331h20.225V160.7H342.979l-6.51,7.366a.666.666,0,0,1-1-.881l6.709-7.591a.668.668,0,0,1,.5-.225H356.86a.665.665,0,0,1,.666.666v51.436a.665.665,0,0,1-.666.666" transform="translate(-296.158 -134.635)" fill="#1d1d1b"/>
        <path id="Path_28994" data-name="Path 28994" d="M371.594,212.133a.665.665,0,0,1-.666-.666V160.031a.666.666,0,1,1,1.332,0v51.436a.665.665,0,0,1-.666.666" transform="translate(-325.073 -134.635)" fill="#1d1d1b"/>
        <path id="Path_28995" data-name="Path 28995" d="M421.059,71.123a.665.665,0,0,1-.666-.666V53.491a.666.666,0,1,1,1.332,0V70.457a.665.665,0,0,1-.666.666" transform="translate(-365.222 -48.16)" fill="#1d1d1b"/>
        <path id="Path_28996" data-name="Path 28996" d="M414.356,125.659H401.509a.666.666,0,1,1,0-1.331h12.182V54.157H393.783l-6.067,7.86v8.438a.666.666,0,0,1-1.331,0V61.79a.669.669,0,0,1,.139-.407l6.4-8.3a.667.667,0,0,1,.527-.259h20.9a.665.665,0,0,1,.666.666v71.5a.665.665,0,0,1-.666.666" transform="translate(-337.619 -48.161)" fill="#1d1d1b"/>
        <path id="Path_28997" data-name="Path 28997" d="M264.882,125.605a.665.665,0,0,1-.666-.666v-70.6a.666.666,0,1,1,1.332,0v70.6a.665.665,0,0,1-.666.666" transform="translate(-238.459 -48.85)" fill="#1d1d1b"/>
        <path id="Path_28998" data-name="Path 28998" d="M316.412,125.605a.665.665,0,0,1-.666-.666v-70.6a.666.666,0,0,1,1.332,0v70.6a.665.665,0,0,1-.666.666" transform="translate(-280.284 -48.85)" fill="#1d1d1b"/>
        <path id="Path_28999" data-name="Path 28999" d="M498.431,74.448h-3.088a.666.666,0,1,1,0-1.331h3.088a.666.666,0,1,1,0,1.331" transform="translate(-425.516 -64.63)" fill="#1d1d1b"/>
        <path id="Path_29000" data-name="Path 29000" d="M498.431,95.227h-3.088a.666.666,0,1,1,0-1.331h3.088a.666.666,0,1,1,0,1.331" transform="translate(-425.516 -81.496)" fill="#1d1d1b"/>
        <path id="Path_29001" data-name="Path 29001" d="M498.431,116.015h-3.088a.666.666,0,1,1,0-1.331h3.088a.666.666,0,1,1,0,1.331" transform="translate(-425.516 -98.369)" fill="#1d1d1b"/>
        <path id="Path_29002" data-name="Path 29002" d="M498.431,136.8h-3.088a.666.666,0,1,1,0-1.331h3.088a.666.666,0,1,1,0,1.331" transform="translate(-425.516 -115.235)" fill="#1d1d1b"/>
        <path id="Path_29003" data-name="Path 29003" d="M498.431,157.582h-3.088a.666.666,0,1,1,0-1.331h3.088a.666.666,0,1,1,0,1.331" transform="translate(-425.516 -132.107)" fill="#1d1d1b"/>
        <path id="Path_29004" data-name="Path 29004" d="M498.431,178.363h-3.088a.666.666,0,1,1,0-1.331h3.088a.666.666,0,1,1,0,1.331" transform="translate(-425.516 -148.975)" fill="#1d1d1b"/>
        <path id="Path_29005" data-name="Path 29005" d="M498.431,199.15h-3.088a.666.666,0,1,1,0-1.331h3.088a.666.666,0,1,1,0,1.331" transform="translate(-425.516 -165.847)" fill="#1d1d1b"/>
        <path id="Path_29006" data-name="Path 29006" d="M498.431,219.931h-3.088a.666.666,0,1,1,0-1.331h3.088a.666.666,0,1,1,0,1.331" transform="translate(-425.516 -182.714)" fill="#1d1d1b"/>
        <path id="Path_29007" data-name="Path 29007" d="M498.431,240.718h-3.088a.666.666,0,1,1,0-1.331h3.088a.666.666,0,1,1,0,1.331" transform="translate(-425.516 -199.586)" fill="#1d1d1b"/>
        <path id="Path_29008" data-name="Path 29008" d="M498.431,261.505h-3.088a.666.666,0,1,1,0-1.331h3.088a.666.666,0,1,1,0,1.331" transform="translate(-425.516 -216.458)" fill="#1d1d1b"/>
        <path id="Path_29009" data-name="Path 29009" d="M498.431,282.286h-3.088a.666.666,0,1,1,0-1.331h3.088a.666.666,0,1,1,0,1.331" transform="translate(-425.516 -233.325)" fill="#1d1d1b"/>
        <path id="Path_29010" data-name="Path 29010" d="M498.431,303.073h-3.088a.666.666,0,1,1,0-1.331h3.088a.666.666,0,1,1,0,1.331" transform="translate(-425.516 -250.197)" fill="#1d1d1b"/>
        <path id="Path_29011" data-name="Path 29011" d="M498.431,323.853h-3.088a.666.666,0,1,1,0-1.331h3.088a.666.666,0,1,1,0,1.331" transform="translate(-425.516 -267.064)" fill="#1d1d1b"/>
        <path id="Path_29012" data-name="Path 29012" d="M498.431,344.64h-3.088a.666.666,0,1,1,0-1.331h3.088a.666.666,0,1,1,0,1.331" transform="translate(-425.516 -283.936)" fill="#1d1d1b"/>
        <path id="Path_29013" data-name="Path 29013" d="M498.431,365.42h-3.088a.666.666,0,1,1,0-1.331h3.088a.666.666,0,1,1,0,1.331" transform="translate(-425.516 -300.802)" fill="#1d1d1b"/>
        <path id="Path_29014" data-name="Path 29014" d="M191.943,144.632a.665.665,0,0,1-.666-.666V120.914a.666.666,0,0,1,1.332,0v23.053a.665.665,0,0,1-.666.666" transform="translate(-179.256 -102.885)" fill="#1d1d1b"/>
        <path id="Path_29015" data-name="Path 29015" d="M408.253,218.2c-.368,0-.666-.445-.666-1V182.716c0-.551.3-1,.666-1s.666.445.666,1v34.491c0,.551-.3,1-.666,1" transform="translate(-354.828 -152.78)" fill="#1d1d1b"/>
      </g>
    </g>
    <g id="Group_5636" data-name="Group 5636">
      <g id="Group_5635" data-name="Group 5635" clip-path="url(#clip-path-2)">
        <path id="Path_29017" data-name="Path 29017" d="M254.534,273.737q-.225.5-.609,1.336t-.815,1.674q-.431.841-.885,1.569a4.057,4.057,0,0,1-.853,1.043,1.7,1.7,0,0,1-.863.645.812.812,0,0,1-.847-.326q-.337-.282-.122-1.334a13.975,13.975,0,0,1,.718-2.318,18.663,18.663,0,0,1,1.187-2.451,7.273,7.273,0,0,1,1.318-1.754,1.035,1.035,0,0,1,.9-.44.968.968,0,0,1,.671.442,2.3,2.3,0,0,1,.329.92,1.668,1.668,0,0,1-.128.994" transform="translate(-202.476 -220.264)" fill="#fff"/>
        <path id="Path_29018" data-name="Path 29018" d="M247.068,277.538a1.586,1.586,0,0,1-1.188-.569,2.145,2.145,0,0,1-.329-2.02,14.809,14.809,0,0,1,.757-2.445,19.508,19.508,0,0,1,1.235-2.55,7.994,7.994,0,0,1,1.441-1.914,1.649,1.649,0,0,1,2.726.123,3.048,3.048,0,0,1,.444,1.219,2.419,2.419,0,0,1-.188,1.425q-.226.5-.609,1.336c-.262.569-.541,1.142-.829,1.7s-.6,1.123-.915,1.624a4.96,4.96,0,0,1-.955,1.178,2.376,2.376,0,0,1-1.206.84,1.493,1.493,0,0,1-.384.051m-.1-1.614.009.011a.523.523,0,0,0,.1.093,1.078,1.078,0,0,0,.451-.378l.056-.072.072-.056a3.287,3.287,0,0,0,.678-.848c.29-.465.577-.974.853-1.514s.548-1.1.8-1.646.456-1,.605-1.329l.008-.017a.927.927,0,0,0,.063-.555,1.564,1.564,0,0,0-.213-.619.219.219,0,0,0-.142-.109.845.845,0,0,0-.243.2l-.051.05a6.6,6.6,0,0,0-1.17,1.571,17.989,17.989,0,0,0-1.139,2.352,13.278,13.278,0,0,0-.681,2.191,2.057,2.057,0,0,0-.06.673" transform="translate(-199.225 -217.019)" fill="#fff"/>
        <path id="Path_29019" data-name="Path 29019" d="M45.821,401.277a1.4,1.4,0,0,0,.444-.063l.381-.127c.127-.042.27-.084.428-.127a2.312,2.312,0,0,1,.587-.063,2.059,2.059,0,0,1,1.4.4.8.8,0,0,1,.222.968,26.943,26.943,0,0,0-1.032,3.206q-.524,1.968-1.127,4.174a16.7,16.7,0,0,1-.512,1.679,31.456,31.456,0,0,1-1.571,4.047,11.944,11.944,0,0,1-1.9,2.936,3.1,3.1,0,0,1-2.317,1.143,2.284,2.284,0,0,1-.778-.143,1.328,1.328,0,0,1-.619-.428.975.975,0,0,1-.175-.73,2.043,2.043,0,0,1,.587-1.048,22.864,22.864,0,0,0,1.809-2.253,12.753,12.753,0,0,0,1.127-1.968c.286-.634.071-.277.23-.933s-.078.4.028-.381a.542.542,0,0,0-.539-.4,3.023,3.023,0,0,0-.889.111q-.476.127-.952.3a2.356,2.356,0,0,1-.762.175,2.3,2.3,0,0,1-1.968-.841,3.3,3.3,0,0,1-.635-2.047,10.233,10.233,0,0,1,.4-2.666,9.65,9.65,0,0,1,1.19-2.7,7.01,7.01,0,0,1,1.952-2.032,3.958,3.958,0,0,1,2.651-.667,4.776,4.776,0,0,1,1.158.27,3.381,3.381,0,0,0,1.19.206M41.6,409.212a1.84,1.84,0,0,0,1.1-.412,3.74,3.74,0,0,0,.936-1.016,6.163,6.163,0,0,0,.651-1.444,4.263,4.263,0,0,0,.206-1.444,1.683,1.683,0,0,0-.381-1.063,1.1,1.1,0,0,0-1.08-.27,5.194,5.194,0,0,0-1.111.809,4.638,4.638,0,0,0-.762.936,5.236,5.236,0,0,0-.6,1.349,3.567,3.567,0,0,0-.143,1.254,1.642,1.642,0,0,0,.349.936,1.03,1.03,0,0,0,.841.365" transform="translate(-30.261 -325.303)" fill="#fff"/>
        <path id="Path_29020" data-name="Path 29020" d="M35.136,415.081a3.608,3.608,0,0,1-1.225-.221A2.629,2.629,0,0,1,32.7,414a2.268,2.268,0,0,1-.444-1.679,3.238,3.238,0,0,1,.916-1.786,21.655,21.655,0,0,0,1.705-2.121,12.267,12.267,0,0,0,.828-1.38q-.142.047-.285.1a3.708,3.708,0,0,1-4.235-1.111,4.6,4.6,0,0,1-.9-2.841,11.6,11.6,0,0,1,.443-3.012,11.017,11.017,0,0,1,1.353-3.064,8.357,8.357,0,0,1,2.317-2.408,5.259,5.259,0,0,1,3.507-.892l.028,0a6.12,6.12,0,0,1,1.477.344,2.054,2.054,0,0,0,.732.124l.045,0,.36-.12c.156-.052.319-.1.506-.15a3.59,3.59,0,0,1,.93-.109,3.312,3.312,0,0,1,2.274.731,2.121,2.121,0,0,1,.574,2.43l-.009.023a25.839,25.839,0,0,0-.977,3.045c-.344,1.294-.724,2.7-1.129,4.182l-.155.569a3.235,3.235,0,0,1-.125.411c-.031.078-.119.344-.247.75a32.9,32.9,0,0,1-1.638,4.217,13.3,13.3,0,0,1-2.122,3.258,4.378,4.378,0,0,1-3.289,1.57m-.121-2.646a.8.8,0,0,0,.121.01,1.759,1.759,0,0,0,1.345-.715,10.69,10.69,0,0,0,1.687-2.614,30.262,30.262,0,0,0,1.5-3.876c.2-.636.264-.808.3-.893l.044-.161.157-.575c.4-1.476.782-2.877,1.125-4.165.3-1.132.6-2.107.9-2.905-.062,0-.134-.008-.218-.008a1.088,1.088,0,0,0-.248.019c-.133.036-.253.071-.353.1l-.38.127a2.709,2.709,0,0,1-.859.131,4.712,4.712,0,0,1-1.651-.289,3.476,3.476,0,0,0-.823-.192,2.655,2.655,0,0,0-1.781.442,5.732,5.732,0,0,0-1.586,1.655,8.385,8.385,0,0,0-1.028,2.333,8.978,8.978,0,0,0-.351,2.321,2,2,0,0,0,.368,1.252c.066.087.237.315.9.318a1.726,1.726,0,0,0,.322-.094c.081-.03.162-.059.244-.086a2.274,2.274,0,0,1-.7-.567,2.937,2.937,0,0,1-.646-1.666,4.9,4.9,0,0,1,.187-1.718,6.575,6.575,0,0,1,.752-1.688,5.943,5.943,0,0,1,.966-1.19,6.538,6.538,0,0,1,1.392-1.017l.193-.106.217-.038a2.362,2.362,0,0,1,2.293.7,2.973,2.973,0,0,1,.709,1.873,5.586,5.586,0,0,1-.263,1.893,7.5,7.5,0,0,1-.79,1.751,5.091,5.091,0,0,1-1.271,1.381q-.108.08-.217.15a1.784,1.784,0,0,1,.711.557l.615.132-.238,1.263a2.036,2.036,0,0,1-.05.205l-.021.087c-.019.077-.027.12-.03.14a2.276,2.276,0,0,1-.279,1.024,14.126,14.126,0,0,1-1.242,2.173,24.274,24.274,0,0,1-1.915,2.388c-.047.052-.086.1-.118.14m2.476-13.086a3.509,3.509,0,0,0-.341.289,3.359,3.359,0,0,0-.547.666,3.991,3.991,0,0,0-.463,1.025,2.287,2.287,0,0,0-.1.79c0,.019,0,.036.005.052a1.148,1.148,0,0,0,.18-.112,2.408,2.408,0,0,0,.607-.661,4.846,4.846,0,0,0,.5-1.126,3.085,3.085,0,0,0,.152-.922m2.674-5.068h0Z" transform="translate(-24.579 -319.62)" fill="#fff"/>
        <path id="Path_29021" data-name="Path 29021" d="M104.963,410.938a2.631,2.631,0,0,1-.667.349q-.476.19-1.016.349t-1.047.27a3.965,3.965,0,0,1-.794.111,1.929,1.929,0,0,1-1.746-.825,4.085,4.085,0,0,1-.6-2.063,9.75,9.75,0,0,1,.27-2.682,14.5,14.5,0,0,1,.889-2.682,9.4,9.4,0,0,1,1.222-2.063,1.794,1.794,0,0,1,1.3-.825q.984,0,1.19.555a2.466,2.466,0,0,1,.016,1.4,12.037,12.037,0,0,1-.587,1.825q-.4.984-.651,1.825a3.339,3.339,0,0,0-.175,1.4q.079.556.873.524a1.327,1.327,0,0,0,.984-.555,7.817,7.817,0,0,0,.921-1.381q.444-.825.873-1.793t.857-1.793a10.281,10.281,0,0,1,.841-1.381,1.121,1.121,0,0,1,.857-.555,1.018,1.018,0,0,1,1.063.809,4.948,4.948,0,0,1,.079,2.016,15.2,15.2,0,0,1-.6,2.6,22.73,22.73,0,0,1-1,2.6,14.9,14.9,0,0,1-1.1,2.015q-.54.81-.857.81a2.321,2.321,0,0,1-.682-.19,1.262,1.262,0,0,1-.714-.667" transform="translate(-80.42 -325.378)" fill="#fff"/>
        <path id="Path_29022" data-name="Path 29022" d="M95.758,407.654a3.2,3.2,0,0,1-2.849-1.423,5.394,5.394,0,0,1-.816-2.717,11.092,11.092,0,0,1,.3-3.046,15.863,15.863,0,0,1,.971-2.926,10.737,10.737,0,0,1,1.4-2.352,3.019,3.019,0,0,1,2.327-1.315,2.307,2.307,0,0,1,2.426,1.414,3.748,3.748,0,0,1,.066,2.148,12.1,12.1,0,0,1-.365,1.265l.112-.249c.3-.668.6-1.3.892-1.867a11.473,11.473,0,0,1,.953-1.56,2.355,2.355,0,0,1,1.916-1.088,2.331,2.331,0,0,1,2.328,1.756,6.168,6.168,0,0,1,.122,2.559,16.6,16.6,0,0,1-.654,2.831,24.094,24.094,0,0,1-1.058,2.754,16.293,16.293,0,0,1-1.2,2.2,2.544,2.544,0,0,1-1.954,1.4,3.252,3.252,0,0,1-1.158-.279,2.678,2.678,0,0,1-.533-.277c-.324.125-.665.241-1.016.344-.384.113-.767.212-1.137.293a5.16,5.16,0,0,1-1.076.141m1.3-11.066a2.124,2.124,0,0,0-.243.26,8.149,8.149,0,0,0-1.045,1.774,13.259,13.259,0,0,0-.807,2.439,8.489,8.489,0,0,0-.238,2.318,2.823,2.823,0,0,0,.389,1.408c.049.075.15.229.643.229a2.741,2.741,0,0,0,.512-.08c.309-.068.631-.151.957-.247s.618-.2.9-.309a2.383,2.383,0,0,0,.329-.152l1.3-1.084.672,1.445.012-.018a13.716,13.716,0,0,0,.994-1.835,21.49,21.49,0,0,0,.941-2.451,13.969,13.969,0,0,0,.552-2.375,5.321,5.321,0,0,0,.05-.843q-.2.327-.414.734c-.271.522-.547,1.1-.821,1.719-.3.672-.606,1.306-.918,1.884a9.144,9.144,0,0,1-1.08,1.614,2.591,2.591,0,0,1-1.955,1.016,1.966,1.966,0,0,1-2.208-1.656,4.564,4.564,0,0,1,.218-1.964c.181-.6.413-1.25.69-1.937a10.812,10.812,0,0,0,.524-1.623,2.538,2.538,0,0,0,.047-.268m1.38,7.655,0,0Z" transform="translate(-74.739 -319.696)" fill="#fff"/>
        <path id="Path_29023" data-name="Path 29023" d="M168.913,403.3a4.159,4.159,0,0,1-.952,2.111,6.985,6.985,0,0,1-1.936,1.682,5.5,5.5,0,0,1-2.27.762,2.36,2.36,0,0,1-1.952-.651,2.254,2.254,0,0,0,.032,1.65,1.359,1.359,0,0,0,.984.7,3.131,3.131,0,0,0,1.587-.19,6.653,6.653,0,0,0,1.841-1.016q.1-.064.349-.254a2.963,2.963,0,0,1,.571-.333,1.078,1.078,0,0,1,.571-.111q.254.032.349.445a2.42,2.42,0,0,1-.46,2.015,4.891,4.891,0,0,1-1.857,1.46,7.833,7.833,0,0,1-2.571.7,5.959,5.959,0,0,1-2.587-.27,3.859,3.859,0,0,1-1.936-1.476,4.2,4.2,0,0,1-.555-2.9,7.182,7.182,0,0,1,.73-2.571,7.032,7.032,0,0,1,1.587-2.095,7.476,7.476,0,0,1,2.254-1.4,7.375,7.375,0,0,1,2.762-.508,7.064,7.064,0,0,1,1.809.19,2.859,2.859,0,0,1,1.079.508,1.436,1.436,0,0,1,.492.73,2.448,2.448,0,0,1,.079.825m-6.6,2.412a3.779,3.779,0,0,0,2.016-.079,2.4,2.4,0,0,0,1.111-.762,1.326,1.326,0,0,0,.3-.873q-.032-.412-.413-.413a2.909,2.909,0,0,0-2,.667,4.333,4.333,0,0,0-1.016,1.46" transform="translate(-128.31 -325.514)" fill="#fff"/>
        <path id="Path_29024" data-name="Path 29024" d="M156.819,407.938a7.038,7.038,0,0,1-2.318-.379,5.167,5.167,0,0,1-2.584-1.965,5.473,5.473,0,0,1-.787-3.8,8.5,8.5,0,0,1,.862-3.025,8.373,8.373,0,0,1,1.883-2.484,8.817,8.817,0,0,1,2.647-1.642,8.717,8.717,0,0,1,3.251-.6,8.27,8.27,0,0,1,2.156.237,4.1,4.1,0,0,1,1.576.766,2.735,2.735,0,0,1,.922,1.4,3.787,3.787,0,0,1,.121,1.27l-.005.054a5.465,5.465,0,0,1-1.232,2.78q-.166.207-.342.4a1.879,1.879,0,0,1,.724,1.161l.008.038a3.746,3.746,0,0,1-.7,3.068,6.21,6.21,0,0,1-2.346,1.858,9.174,9.174,0,0,1-3,.818,8.226,8.226,0,0,1-.835.043m.513-10.772a6.155,6.155,0,0,0-1.689,1.08,5.744,5.744,0,0,0-1.292,1.706,5.9,5.9,0,0,0-.6,2.1,3.006,3.006,0,0,0,.322,2.025,2.55,2.55,0,0,0,1.288.987,4.612,4.612,0,0,0,2.022.2q.227-.023.448-.06a3.583,3.583,0,0,1-.943-.048A2.661,2.661,0,0,1,155,403.811a3.441,3.441,0,0,1-.153-2.627l.034-.129-.109-.02.3-.72.343-1.295.156.15a5.687,5.687,0,0,1,1.16-1.555,3.287,3.287,0,0,1,.594-.449m2.947-.472a1.706,1.706,0,0,1,1.1,1.519,2.311,2.311,0,0,1-.027.568,2.808,2.808,0,0,0,.573-1.289,1.138,1.138,0,0,0-.04-.359s-.02-.023-.063-.059a1.605,1.605,0,0,0-.582-.248,4.642,4.642,0,0,0-.958-.131" transform="translate(-122.631 -319.833)" fill="#fff"/>
        <path id="Path_29025" data-name="Path 29025" d="M78.616,253.727a5.926,5.926,0,0,1-.611,4.154,8.6,8.6,0,0,1-2.868,2.91,14.385,14.385,0,0,1-4.112,1.75,20.538,20.538,0,0,1-4.3.674,46.188,46.188,0,0,1-3.88,8.751q-1.813,2.889-3.627,2.889a1.762,1.762,0,0,1-1.433-.759,4.443,4.443,0,0,1-.844-3.479,1.053,1.053,0,0,1,.8-.949,4.059,4.059,0,0,0,2.53-1.582,11.463,11.463,0,0,0,1.75-3.247,23.9,23.9,0,0,0,1.076-4.154q.379-2.235.59-4.344t.274-3.8q.064-1.686.105-2.488a3.936,3.936,0,0,1-.738.358,5.544,5.544,0,0,1-1.244.337,3.034,3.034,0,0,1-1.244-.042.937.937,0,0,1-.7-.822,1.661,1.661,0,0,1,.274-1.307,3.263,3.263,0,0,1,1.1-.928,5.41,5.41,0,0,1,1.56-.548,8.727,8.727,0,0,1,1.666-.169q1.18,0,2.594.063t2.867.274a17.794,17.794,0,0,1,2.846.654,9.991,9.991,0,0,1,2.53,1.2,7.475,7.475,0,0,1,1.94,1.877,6.687,6.687,0,0,1,1.1,2.72m-10.712-3.5q0,.127.021,1.16t-.021,2.467q-.043,1.434-.232,3.015a15.917,15.917,0,0,1-.57,2.8,11.085,11.085,0,0,0,2.13-.274,10.542,10.542,0,0,0,2.593-.907A6.9,6.9,0,0,0,74,256.805a3.774,3.774,0,0,0,.865-2.657A2.856,2.856,0,0,0,74,251.934a4.891,4.891,0,0,0-1.939-.991,12.49,12.49,0,0,0-2.277-.38,7.374,7.374,0,0,1-1.877-.337" transform="translate(-46.155 -200.431)" fill="#fff"/>
        <path id="Path_29026" data-name="Path 29026" d="M53.537,270.491a3.053,3.053,0,0,1-2.475-1.269,5.759,5.759,0,0,1-1.094-4.552,2.352,2.352,0,0,1,1.835-1.977l.035-.007a2.766,2.766,0,0,0,1.721-1.1,10.208,10.208,0,0,0,1.543-2.876,22.667,22.667,0,0,0,1.015-3.925c.247-1.452.441-2.884.578-4.254s.228-2.623.269-3.713q.01-.267.019-.509-.185.039-.376.068a4.355,4.355,0,0,1-1.779-.069,2.246,2.246,0,0,1-1.659-1.855l0-.026a2.981,2.981,0,0,1,.511-2.3,4.581,4.581,0,0,1,1.529-1.307,6.756,6.756,0,0,1,1.938-.685,10.112,10.112,0,0,1,1.919-.193c.8,0,1.693.022,2.653.065.979.044,1.987.14,3,.286a19.2,19.2,0,0,1,3.057.7,11.35,11.35,0,0,1,2.862,1.361,8.818,8.818,0,0,1,2.28,2.2,8.024,8.024,0,0,1,1.322,3.249l0,.012a7.228,7.228,0,0,1-.775,5.051,9.946,9.946,0,0,1-3.3,3.354,15.768,15.768,0,0,1-4.486,1.912,22.926,22.926,0,0,1-3.681.656,44.273,44.273,0,0,1-3.714,8.193c-1.481,2.359-3.033,3.506-4.744,3.506m-.993-5.257a2.946,2.946,0,0,0,.044,1.184,2.908,2.908,0,0,0,.555,1.185c.2.251.315.251.394.251.7,0,1.591-.807,2.51-2.271a45.24,45.24,0,0,0,3.753-8.488l.3-.842.892-.037a19.314,19.314,0,0,0,4.024-.633,13.138,13.138,0,0,0,3.738-1.588,7.238,7.238,0,0,0,2.438-2.466,4.615,4.615,0,0,0,.449-3.25,5.417,5.417,0,0,0-.871-2.185,6.2,6.2,0,0,0-1.6-1.547,8.723,8.723,0,0,0-2.2-1.042,16.579,16.579,0,0,0-2.636-.605c-.924-.134-1.845-.222-2.737-.262-.632-.028-1.233-.047-1.794-.056l-.1,1.866c-.027.507-.06,1.291-.1,2.468-.043,1.144-.137,2.448-.28,3.877s-.346,2.922-.6,4.433a25.319,25.319,0,0,1-1.136,4.383,12.825,12.825,0,0,1-1.957,3.617,5.4,5.4,0,0,1-3.08,2.01m.037-.139h0Zm3.176-21.3a2.071,2.071,0,0,0,.444-.025,4.257,4.257,0,0,0,.95-.256,4.612,4.612,0,0,0,.47-.211l.95-.71a7.961,7.961,0,0,0-.924.126,4.117,4.117,0,0,0-1.18.412,1.974,1.974,0,0,0-.663.548.228.228,0,0,0-.047.116m5.666,11.515H59.634l.53-1.709a14.7,14.7,0,0,0,.52-2.571c.121-1.008.2-1.983.223-2.9.027-.933.034-1.741.021-2.4q-.022-1.057-.021-1.187v-1.863l1.757.619a6.02,6.02,0,0,0,1.533.266,13.878,13.878,0,0,1,2.519.42,6.222,6.222,0,0,1,2.455,1.259A4.115,4.115,0,0,1,70.5,248.43a5.072,5.072,0,0,1-1.183,3.554,8.254,8.254,0,0,1-2.582,2.006,11.9,11.9,0,0,1-2.917,1.018,12.2,12.2,0,0,1-2.4.3m2.147-9.151c0,.6-.005,1.287-.028,2.051-.03.993-.111,2.047-.241,3.133q-.069.575-.163,1.112l.147-.03a9.258,9.258,0,0,0,2.271-.795,5.555,5.555,0,0,0,1.762-1.367,2.485,2.485,0,0,0,.546-1.763,1.772,1.772,0,0,0-.4-1.241,3.559,3.559,0,0,0-1.425-.723A11.25,11.25,0,0,0,64,246.2c-.15-.011-.295-.024-.435-.038" transform="translate(-40.475 -194.749)" fill="#fff"/>
        <path id="Path_29027" data-name="Path 29027" d="M171.255,300.373a2.415,2.415,0,0,0,1.118-.3,2.759,2.759,0,0,1,1.286-.3q2.531,0,2.53,1.645a4.9,4.9,0,0,1-.316,1.581,20.26,20.26,0,0,1-.78,1.9l-.949,2.024a16.021,16.021,0,0,0-.78,1.961,7.455,7.455,0,0,0-.359,1.076q-.233.822-.464,1.708t-.443,1.6a2.809,2.809,0,0,1-.253.717,2.318,2.318,0,0,1-1.434-.021,3.662,3.662,0,0,1-.949-.569q-.4-.337-.822-.654a1.709,1.709,0,0,0-1.054-.316,1.23,1.23,0,0,0-.633.253q-.379.253-.864.527t-1.033.527a2.691,2.691,0,0,1-1.139.253,3.073,3.073,0,0,1-1.75-.443,2.86,2.86,0,0,1-.97-1.054,3.783,3.783,0,0,1-.4-1.244,8.145,8.145,0,0,1-.084-1.012,14.144,14.144,0,0,1,.443-3.332,12.249,12.249,0,0,1,1.371-3.374,8.518,8.518,0,0,1,2.361-2.594,5.684,5.684,0,0,1,3.415-1.033,4.6,4.6,0,0,1,1.371.232,5.241,5.241,0,0,0,1.581.232m-5.145,9.742a1.712,1.712,0,0,0,1.433-.232,4.473,4.473,0,0,0,1.286-1.244,8.205,8.205,0,0,0,.949-1.771,7.59,7.59,0,0,0,.485-1.813,2.756,2.756,0,0,0-.147-1.434.958.958,0,0,0-.97-.591,2.543,2.543,0,0,0-1.729.865,6.945,6.945,0,0,0-1.434,2.024,5.921,5.921,0,0,0-.59,2.341,2.238,2.238,0,0,0,.717,1.856" transform="translate(-130.445 -243.324)" fill="#fff"/>
        <path id="Path_29028" data-name="Path 29028" d="M165.4,309.73a3,3,0,0,1-1.183-.226,4.99,4.99,0,0,1-1.284-.775c-.249-.209-.507-.414-.764-.607a.3.3,0,0,0-.128-.043L162,308.1c-.279.186-.6.38-.947.578s-.726.39-1.128.576a4.015,4.015,0,0,1-1.693.375,4.364,4.364,0,0,1-2.489-.669,4.172,4.172,0,0,1-1.4-1.542,5.1,5.1,0,0,1-.536-1.674,9.292,9.292,0,0,1-.1-1.186,15.524,15.524,0,0,1,.48-3.644,13.628,13.628,0,0,1,1.519-3.735,9.866,9.866,0,0,1,2.724-2.989,7,7,0,0,1,4.186-1.282,5.931,5.931,0,0,1,1.765.292,3.953,3.953,0,0,0,1.187.171,1.132,1.132,0,0,0,.51-.147,4.079,4.079,0,0,1,1.893-.443,4.716,4.716,0,0,1,2.616.624,2.693,2.693,0,0,1,1.232,2.339,6.129,6.129,0,0,1-.39,2.016,21.659,21.659,0,0,1-.831,2.022l-.949,2.025a14.836,14.836,0,0,0-.717,1.8l-.031.1-.046.092a7.017,7.017,0,0,0-.269.844c-.153.541-.307,1.106-.458,1.684s-.307,1.142-.453,1.64c-.214.726-.454,1.542-1.315,1.652a4.535,4.535,0,0,1-.97.112m-3.079-4.273a2.9,2.9,0,0,1,1.431.557c.3.223.592.458.879.7a2.332,2.332,0,0,0,.571.346c.124-.43.253-.9.384-1.4.155-.594.314-1.177.471-1.733a9.134,9.134,0,0,1,.4-1.2,17.638,17.638,0,0,1,.817-2.039l.948-2.023a18.945,18.945,0,0,0,.729-1.772,3.589,3.589,0,0,0,.243-1.147.383.383,0,0,0-.014-.119s-.243-.207-1.2-.207a1.452,1.452,0,0,0-.681.148,3.722,3.722,0,0,1-1.723.442,6.579,6.579,0,0,1-1.977-.293,3.319,3.319,0,0,0-.975-.171,4.361,4.361,0,0,0-2.644.784,7.251,7.251,0,0,0-2,2.2,11,11,0,0,0-1.224,3.014,12.907,12.907,0,0,0-.405,3.019,6.752,6.752,0,0,0,.073.838,2.473,2.473,0,0,0,.264.81,1.557,1.557,0,0,0,.538.569,1.876,1.876,0,0,0,1.012.217,1.376,1.376,0,0,0,.587-.132c.336-.156.651-.317.936-.478s.557-.327.783-.477q.076-.051.15-.1a2.964,2.964,0,0,1-.636-.115l-.282-.083-.22-.2a3.531,3.531,0,0,1-1.159-2.889,7.258,7.258,0,0,1,.716-2.856,8.3,8.3,0,0,1,1.705-2.4,3.8,3.8,0,0,1,2.65-1.239,2.262,2.262,0,0,1,2.182,1.389,4.056,4.056,0,0,1,.244,2.116,8.95,8.95,0,0,1-.565,2.132,9.559,9.559,0,0,1-1.1,2.055,5.8,5.8,0,0,1-1.668,1.6q-.117.072-.236.134m3.583,1.563-.086.02.042-.01Zm-2.617-8.314a2.051,2.051,0,0,0-.628.451,5.665,5.665,0,0,0-1.163,1.644,4.64,4.64,0,0,0-.465,1.823,1.392,1.392,0,0,0,.058.5c.025-.013.053-.028.083-.047a3.193,3.193,0,0,0,.9-.885,6.909,6.909,0,0,0,.8-1.489,6.326,6.326,0,0,0,.4-1.5,2.134,2.134,0,0,0,.01-.5" transform="translate(-124.764 -237.641)" fill="#fff"/>
        <path id="Path_29029" data-name="Path 29029" d="M233,340.27a2.452,2.452,0,0,1,.148-1.771,3.058,3.058,0,0,1,1.16-1.265,4.107,4.107,0,0,1,1.708-.569,3.362,3.362,0,0,1,1.813.3,3.676,3.676,0,0,1,1.5,1.349,5.4,5.4,0,0,1,.759,2.594,14.221,14.221,0,0,1-.569,4.154,34.2,34.2,0,0,1-1.9,5.293,48,48,0,0,1-2.973,5.588,33.464,33.464,0,0,1-3.774,5.039,20.112,20.112,0,0,1-4.323,3.627,8.739,8.739,0,0,1-4.6,1.392,4.724,4.724,0,0,1-1.771-.253,1.569,1.569,0,0,1-.8-1.223,9.668,9.668,0,0,1-.169-2.72q.084-1.708.4-3.817t.8-4.491q.484-2.382,1.033-4.723t1.1-4.513q.547-2.171.991-3.837t.717-2.72a10.834,10.834,0,0,0,.274-1.18.427.427,0,0,1,.169-.464,2.137,2.137,0,0,1,.928-.127,2.237,2.237,0,0,1,2.066,1.034,5.77,5.77,0,0,1,.717,2.741,19.609,19.609,0,0,1-.253,3.9q-.338,2.193-.864,4.449t-1.118,4.449q-.591,2.193-1.012,3.9a20.834,20.834,0,0,0-.527,2.741q-.106,1.034.358,1.033.674,0,1.708-1.244a27.018,27.018,0,0,0,2.193-3.142q1.159-1.9,2.3-4.2t2-4.449q.864-2.15,1.349-3.816a5.221,5.221,0,0,0,.316-2.34q-.042-.168-.316-.232a3.859,3.859,0,0,0-.612-.084,2.592,2.592,0,0,1-.611-.105.4.4,0,0,1-.316-.295" transform="translate(-177.906 -272.66)" fill="#fff"/>
        <path id="Path_29030" data-name="Path 29030" d="M216.266,361.63a5.889,5.889,0,0,1-2.291-.36,2.783,2.783,0,0,1-1.566-2.135,10.872,10.872,0,0,1-.2-3.086c.058-1.174.2-2.5.414-3.947.213-1.423.487-2.957.813-4.559s.673-3.19,1.041-4.761c.359-1.536.73-3.061,1.1-4.534.351-1.394.686-2.69.995-3.853q.442-1.663.715-2.714c.142-.546.2-.8.225-.912a1.694,1.694,0,0,1,.816-1.531,3.006,3.006,0,0,1,1.6-.314,3.506,3.506,0,0,1,3.191,1.664,7.08,7.08,0,0,1,.909,3.364,20.991,20.991,0,0,1-.267,4.167c-.229,1.488-.527,3.018-.884,4.548s-.737,3.036-1.128,4.492-.727,2.745-1.005,3.873q-.075.3-.14.585c.467-.631.958-1.367,1.467-2.2.752-1.23,1.506-2.608,2.241-4.093s1.4-2.957,1.962-4.356,1-2.631,1.307-3.693a10.135,10.135,0,0,0,.245-1,3.666,3.666,0,0,1-.6-.131,1.714,1.714,0,0,1-1.206-1.248,3.738,3.738,0,0,1,.252-2.667,4.367,4.367,0,0,1,1.649-1.8,5.432,5.432,0,0,1,2.251-.755,4.677,4.677,0,0,1,2.513.409,4.987,4.987,0,0,1,2.04,1.815,6.692,6.692,0,0,1,.977,3.224l0,.034a15.332,15.332,0,0,1-.61,4.553,35.7,35.7,0,0,1-1.97,5.5,49.527,49.527,0,0,1-3.055,5.742,34.922,34.922,0,0,1-3.924,5.237,21.512,21.512,0,0,1-4.608,3.862,10.071,10.071,0,0,1-5.284,1.585m-1.182-2.758a4.131,4.131,0,0,0,1.182.121,7.482,7.482,0,0,0,3.909-1.2,18.883,18.883,0,0,0,4.038-3.392,32.3,32.3,0,0,0,3.625-4.841,46.9,46.9,0,0,0,2.892-5.434,33.061,33.061,0,0,0,1.826-5.087,13.1,13.1,0,0,0,.529-3.737,4.148,4.148,0,0,0-.54-1.946,2.371,2.371,0,0,0-.955-.885,2.042,2.042,0,0,0-1.113-.181,2.778,2.778,0,0,0-1.166.384,1.747,1.747,0,0,0-.667.729.955.955,0,0,0-.093.285,4.909,4.909,0,0,1,.6.1,1.639,1.639,0,0,1,1.3,1.2,6.046,6.046,0,0,1-.329,3.029c-.334,1.146-.8,2.471-1.392,3.94s-1.276,2.991-2.046,4.543-1.562,3-2.354,4.3a28.49,28.49,0,0,1-2.3,3.3,3.944,3.944,0,0,1-2.722,1.72,1.61,1.61,0,0,1-1.211-.533,2.471,2.471,0,0,1-.459-1.952,21.87,21.87,0,0,1,.559-2.923c.283-1.146.625-2.468,1.019-3.928.384-1.427.757-2.91,1.107-4.406.342-1.464.626-2.928.845-4.349a18.4,18.4,0,0,0,.239-3.635,4.54,4.54,0,0,0-.525-2.117c-.082-.134-.231-.377-.84-.4-.046.194-.109.446-.2.783q-.275,1.058-.719,2.728c-.306,1.151-.638,2.437-.986,3.821-.368,1.458-.735,2.969-1.091,4.49-.362,1.546-.707,3.122-1.025,4.686s-.583,3.046-.789,4.424c-.2,1.359-.334,2.6-.388,3.686a8.483,8.483,0,0,0,.131,2.336l.009.04a1.313,1.313,0,0,0,.1.316m12.932-25.251h0" transform="translate(-172.223 -266.978)" fill="#fff"/>
        <path id="Path_29031" data-name="Path 29031" d="M329.026,402.963a5.522,5.522,0,0,1-1.265,2.8A9.284,9.284,0,0,1,325.189,408a7.314,7.314,0,0,1-3.015,1.012,3.135,3.135,0,0,1-2.594-.864,3,3,0,0,0,.042,2.193,1.8,1.8,0,0,0,1.307.928,4.156,4.156,0,0,0,2.109-.253,8.826,8.826,0,0,0,2.446-1.349q.127-.084.464-.337a3.932,3.932,0,0,1,.759-.443,1.436,1.436,0,0,1,.759-.148q.337.043.464.591a3.215,3.215,0,0,1-.612,2.678,6.5,6.5,0,0,1-2.467,1.94,10.4,10.4,0,0,1-3.416.928,7.913,7.913,0,0,1-3.437-.359,5.125,5.125,0,0,1-2.572-1.961,5.576,5.576,0,0,1-.738-3.859,9.536,9.536,0,0,1,.97-3.416,9.333,9.333,0,0,1,2.109-2.783,9.932,9.932,0,0,1,2.994-1.856,9.791,9.791,0,0,1,3.669-.674,9.38,9.38,0,0,1,2.4.253,3.792,3.792,0,0,1,1.434.675,1.907,1.907,0,0,1,.654.97,3.253,3.253,0,0,1,.105,1.1m-8.771,3.205a5.024,5.024,0,0,0,2.678-.105,3.183,3.183,0,0,0,1.476-1.013,1.762,1.762,0,0,0,.4-1.159q-.043-.548-.548-.548a3.862,3.862,0,0,0-2.657.886,5.755,5.755,0,0,0-1.349,1.94" transform="translate(-255.38 -324.642)" fill="#fff"/>
        <path id="Path_29032" data-name="Path 29032" d="M314.825,410.561a8.917,8.917,0,0,1-2.938-.48,6.438,6.438,0,0,1-3.22-2.449,6.857,6.857,0,0,1-.97-4.751,10.878,10.878,0,0,1,1.1-3.87,10.686,10.686,0,0,1,2.4-3.172,11.282,11.282,0,0,1,3.388-2.1,11.145,11.145,0,0,1,4.159-.769,10.561,10.561,0,0,1,2.75.3,5.024,5.024,0,0,1,1.93.933,3.208,3.208,0,0,1,1.083,1.639,4.6,4.6,0,0,1,.147,1.54l-.005.055a6.837,6.837,0,0,1-1.545,3.474,10.974,10.974,0,0,1-.824.919,1.923,1.923,0,0,1,1.248,1.525l.008.038a4.556,4.556,0,0,1-.852,3.73,7.831,7.831,0,0,1-2.956,2.338,11.768,11.768,0,0,1-3.846,1.047,10.446,10.446,0,0,1-1.065.055m3.925-14.956a8.526,8.526,0,0,0-3.179.58,8.655,8.655,0,0,0-2.6,1.61,8.066,8.066,0,0,0-1.813,2.394,8.271,8.271,0,0,0-.837,2.948,4.385,4.385,0,0,0,.5,2.98,3.8,3.8,0,0,0,1.924,1.472,6.631,6.631,0,0,0,2.872.293,9.136,9.136,0,0,0,2.987-.808,5.227,5.227,0,0,0,1.978-1.542,2.027,2.027,0,0,0,.367-.75c-.172.127-.293.215-.382.276a10.141,10.141,0,0,1-2.785,1.523,5.442,5.442,0,0,1-2.785.3,3.112,3.112,0,0,1-2.212-1.583,4.169,4.169,0,0,1-.164-3.17l.165-.625-.073-.013.2-.484.276-1.042.117.113.045-.106a7.091,7.091,0,0,1,1.654-2.381,5.132,5.132,0,0,1,3.535-1.249h.032a1.812,1.812,0,0,1,1.863,1.764,3.041,3.041,0,0,1-.648,2.036,4.465,4.465,0,0,1-2.067,1.468,5.375,5.375,0,0,1-2.3.307,2.04,2.04,0,0,0,.941.1,6.037,6.037,0,0,0,2.475-.837,8.011,8.011,0,0,0,2.209-1.921,4.283,4.283,0,0,0,.982-2.107,1.931,1.931,0,0,0-.066-.629.588.588,0,0,0-.225-.3,2.507,2.507,0,0,0-.936-.415,8.176,8.176,0,0,0-2.057-.206" transform="translate(-249.701 -318.96)" fill="#fff"/>
        <path id="Path_29033" data-name="Path 29033" d="M405.164,370.293a2.414,2.414,0,0,0,1.117-.3,2.761,2.761,0,0,1,1.286-.295q2.53,0,2.53,1.645a4.9,4.9,0,0,1-.316,1.581,20.062,20.062,0,0,1-.78,1.9l-.949,2.024a16.154,16.154,0,0,0-.78,1.961,7.493,7.493,0,0,0-.359,1.076q-.232.823-.464,1.708t-.443,1.6a2.821,2.821,0,0,1-.253.717,2.314,2.314,0,0,1-1.434-.021,3.675,3.675,0,0,1-.949-.569q-.4-.337-.822-.654a1.71,1.71,0,0,0-1.054-.316,1.229,1.229,0,0,0-.633.253q-.38.253-.864.527t-1.033.527a2.691,2.691,0,0,1-1.139.253,3.071,3.071,0,0,1-1.75-.443,2.863,2.863,0,0,1-.97-1.054,3.78,3.78,0,0,1-.4-1.244,8.077,8.077,0,0,1-.084-1.012,14.129,14.129,0,0,1,.443-3.332,12.244,12.244,0,0,1,1.371-3.373,8.532,8.532,0,0,1,2.362-2.594,5.685,5.685,0,0,1,3.416-1.033,4.59,4.59,0,0,1,1.37.232,5.239,5.239,0,0,0,1.582.232m-5.145,9.742a1.713,1.713,0,0,0,1.434-.232,4.473,4.473,0,0,0,1.286-1.244,8.189,8.189,0,0,0,.949-1.771,7.617,7.617,0,0,0,.485-1.814,2.754,2.754,0,0,0-.148-1.433.957.957,0,0,0-.97-.591,2.544,2.544,0,0,0-1.729.865,6.948,6.948,0,0,0-1.434,2.024,5.937,5.937,0,0,0-.59,2.341,2.238,2.238,0,0,0,.717,1.856m8.266-14.929q-.465.3-1.244.78t-1.6.949q-.822.465-1.6.823a4.051,4.051,0,0,1-1.286.4,1.693,1.693,0,0,1-1.076.064.812.812,0,0,1-.527-.738q-.126-.422.633-1.181a13.9,13.9,0,0,1,1.877-1.539,18.681,18.681,0,0,1,2.34-1.392,7.267,7.267,0,0,1,2.066-.738,1.033,1.033,0,0,1,.991.126.968.968,0,0,1,.316.738,2.3,2.3,0,0,1-.232.949,1.666,1.666,0,0,1-.654.759" transform="translate(-320.301 -294.207)" fill="#fff"/>
        <path id="Path_29034" data-name="Path 29034" d="M399.306,379.65a3,3,0,0,1-1.183-.226,4.989,4.989,0,0,1-1.283-.774c-.249-.209-.507-.414-.764-.608a.294.294,0,0,0-.128-.043l-.036.023c-.278.186-.6.38-.946.578s-.729.391-1.129.576a4.015,4.015,0,0,1-1.692.374,4.359,4.359,0,0,1-2.49-.67,4.168,4.168,0,0,1-1.4-1.541,5.107,5.107,0,0,1-.536-1.675,9.246,9.246,0,0,1-.1-1.185,15.506,15.506,0,0,1,.48-3.644,13.607,13.607,0,0,1,1.518-3.735,9.882,9.882,0,0,1,2.724-2.989,6.612,6.612,0,0,1,2.137-1.018,2.31,2.31,0,0,1-.508-1.125,2.729,2.729,0,0,1,.993-2.38,15.259,15.259,0,0,1,2.054-1.688,20.085,20.085,0,0,1,2.5-1.49,8.6,8.6,0,0,1,2.4-.853,2.232,2.232,0,0,1,2.146.456,2.274,2.274,0,0,1,.736,1.7,3.6,3.6,0,0,1-.351,1.5,2.972,2.972,0,0,1-1.157,1.331q-.467.3-1.244.78c-.534.332-1.09.662-1.65.977s-1.147.618-1.7.872l-.076.034a4.171,4.171,0,0,0,.855.085,1.132,1.132,0,0,0,.509-.147,4.081,4.081,0,0,1,1.894-.443,4.714,4.714,0,0,1,2.616.624,2.692,2.692,0,0,1,1.233,2.339,6.128,6.128,0,0,1-.39,2.016,21.4,21.4,0,0,1-.831,2.022l-.949,2.025a14.976,14.976,0,0,0-.717,1.8l-.031.1-.046.091a7.023,7.023,0,0,0-.269.844c-.154.546-.308,1.112-.457,1.684-.159.6-.311,1.155-.454,1.641-.214.726-.454,1.542-1.315,1.651a4.532,4.532,0,0,1-.97.112m-3.079-4.273a2.9,2.9,0,0,1,1.431.556c.3.224.593.459.88.7a2.34,2.34,0,0,0,.571.346c.121-.42.25-.89.384-1.4.153-.587.311-1.171.47-1.732a9.123,9.123,0,0,1,.4-1.2,17.714,17.714,0,0,1,.816-2.039l.948-2.024a18.77,18.77,0,0,0,.729-1.772,3.588,3.588,0,0,0,.243-1.147.381.381,0,0,0-.013-.119s-.244-.207-1.2-.207a1.457,1.457,0,0,0-.682.148,3.718,3.718,0,0,1-1.722.442,6.587,6.587,0,0,1-1.977-.292,3.314,3.314,0,0,0-.975-.172,4.364,4.364,0,0,0-2.645.784,7.265,7.265,0,0,0-2,2.2,10.985,10.985,0,0,0-1.223,3.013,12.891,12.891,0,0,0-.405,3.019,6.679,6.679,0,0,0,.073.837,2.451,2.451,0,0,0,.265.812,1.559,1.559,0,0,0,.538.568,1.873,1.873,0,0,0,1.012.217,1.374,1.374,0,0,0,.587-.132c.334-.154.65-.315.936-.477s.557-.327.783-.477q.076-.05.151-.1a2.965,2.965,0,0,1-.636-.115l-.282-.083-.22-.2a3.533,3.533,0,0,1-1.159-2.889,7.271,7.271,0,0,1,.716-2.856,8.288,8.288,0,0,1,1.706-2.4,3.8,3.8,0,0,1,2.649-1.24,2.262,2.262,0,0,1,2.182,1.39,4.052,4.052,0,0,1,.244,2.115,8.969,8.969,0,0,1-.566,2.131,9.536,9.536,0,0,1-1.1,2.055,5.8,5.8,0,0,1-1.667,1.6q-.118.072-.237.134m3.582,1.563c-.029.006-.057.012-.086.02l.042-.01Zm-2.616-8.315a2.048,2.048,0,0,0-.627.451,5.664,5.664,0,0,0-1.163,1.644,4.594,4.594,0,0,0-.465,1.824,1.384,1.384,0,0,0,.058.5c.025-.013.053-.028.082-.046a3.2,3.2,0,0,0,.9-.886,6.923,6.923,0,0,0,.8-1.488,6.342,6.342,0,0,0,.4-1.5,2.115,2.115,0,0,0,.01-.5m4.786-10.379a7.789,7.789,0,0,0-1.275.523,17.442,17.442,0,0,0-2.174,1.293q-.534.373-.978.739l.052-.024c.486-.223.992-.483,1.5-.772.528-.3,1.051-.607,1.554-.92s.926-.578,1.233-.773l.029-.018a.209.209,0,0,0,.055-.048" transform="translate(-314.619 -288.525)" fill="#fff"/>
        <path id="Path_29035" data-name="Path 29035" d="M480.975,408.59a.854.854,0,0,0-.359-.781,4.572,4.572,0,0,0-1.054-.59q-.654-.274-1.455-.527a12.528,12.528,0,0,1-1.6-.633,2.634,2.634,0,0,1-1.5-1.433,4.915,4.915,0,0,1-.316-1.645,3.3,3.3,0,0,1,.654-2.024,6.8,6.8,0,0,1,1.813-1.771,9.279,9.279,0,0,1,2.467-1.18,7.287,7.287,0,0,1,2.657-.338,5.1,5.1,0,0,1,3.163,1.16,3.714,3.714,0,0,1,1.223,2.214,3.481,3.481,0,0,1-.063.991,2.038,2.038,0,0,1-.443.928,2.235,2.235,0,0,1-.991.633,3.369,3.369,0,0,1-1.666.063q-.253-.042-.359-.38A3.789,3.789,0,0,1,483,402.6a1.761,1.761,0,0,0-.717-1.476,2.3,2.3,0,0,0-1.518-.4,3.111,3.111,0,0,0-1.6.611,2.627,2.627,0,0,0-1.012,1.519c-.028.084.112.183.422.3s.7.267,1.181.464,1,.422,1.581.675a13.637,13.637,0,0,1,1.624.843,6.164,6.164,0,0,1,1.307,1.054,2.559,2.559,0,0,1,.675,1.307,3.291,3.291,0,0,1-.337,2,6.116,6.116,0,0,1-1.539,1.982,8.267,8.267,0,0,1-2.509,1.477,7.586,7.586,0,0,1-3.289.443,7.847,7.847,0,0,1-2.024-.38,5.286,5.286,0,0,1-1.413-.717,3.581,3.581,0,0,1-.886-.907,4.309,4.309,0,0,1-.485-.991,2.359,2.359,0,0,1-.063-1.287,3.943,3.943,0,0,1,.485-1.2,3.356,3.356,0,0,1,.8-.906,1.471,1.471,0,0,1,.886-.359q.633,0,.844,1.1a2.74,2.74,0,0,0,1.054,1.581,2.9,2.9,0,0,0,1.813.654,6.261,6.261,0,0,0,.844-.064,3.71,3.71,0,0,0,.886-.232,2.037,2.037,0,0,0,.7-.443.892.892,0,0,0,.274-.653" transform="translate(-383.377 -322.762)" fill="#fff"/>
        <path id="Path_29036" data-name="Path 29036" d="M472.223,409.056q-.361,0-.733-.026a9.208,9.208,0,0,1-2.369-.451,6.619,6.619,0,0,1-1.762-.9,4.895,4.895,0,0,1-1.2-1.246,5.64,5.64,0,0,1-.631-1.292,3.674,3.674,0,0,1-.1-1.994,5.287,5.287,0,0,1,.648-1.6,4.682,4.682,0,0,1,1.118-1.26,3.061,3.061,0,0,1,1.042-.543,3.261,3.261,0,0,1-.15-.353,6.259,6.259,0,0,1-.393-2.061,4.608,4.608,0,0,1,.886-2.8,8.149,8.149,0,0,1,2.159-2.115,10.638,10.638,0,0,1,2.815-1.348,8.617,8.617,0,0,1,3.134-.4h.021a6.373,6.373,0,0,1,3.959,1.513,5.014,5.014,0,0,1,1.627,2.995l.007.062a4.8,4.8,0,0,1-.083,1.366,3.353,3.353,0,0,1-.728,1.52,3.784,3.784,0,0,1-2.226,1.191q.148.141.285.288a3.87,3.87,0,0,1,1.008,1.975,4.588,4.588,0,0,1-.443,2.794,7.455,7.455,0,0,1-1.863,2.412,9.623,9.623,0,0,1-2.9,1.716,8.641,8.641,0,0,1-3.123.554m-3.7-6.41a2.412,2.412,0,0,0-.2.28,2.6,2.6,0,0,0-.321.8,1.039,1.039,0,0,0,.028.579,3.011,3.011,0,0,0,.337.686,2.3,2.3,0,0,0,.566.568,4.017,4.017,0,0,0,1.063.532,6.6,6.6,0,0,0,1.684.309,6.309,6.309,0,0,0,2.721-.358,7,7,0,0,0,2.113-1.237,4.843,4.843,0,0,0,1.217-1.553,2.037,2.037,0,0,0,.233-1.207,1.265,1.265,0,0,0-.345-.646,4.865,4.865,0,0,0-1.028-.826,12.372,12.372,0,0,0-1.466-.761c-.566-.248-1.088-.472-1.554-.664-.481-.2-.852-.342-1.129-.443-1.444-.523-1.335-1.52-1.246-1.867h0a3.922,3.922,0,0,1,1.515-2.254,4.43,4.43,0,0,1,2.275-.858,3.605,3.605,0,0,1,2.364.629,3.006,3.006,0,0,1,1.279,2.37,1.312,1.312,0,0,0,.422-.058.974.974,0,0,0,.423-.24.723.723,0,0,0,.159-.338,2.216,2.216,0,0,0,.045-.583,2.439,2.439,0,0,0-.816-1.4,3.88,3.88,0,0,0-2.353-.8,6.023,6.023,0,0,0-2.169.281,8.013,8.013,0,0,0-2.12,1.013,5.528,5.528,0,0,0-1.468,1.428,2.014,2.014,0,0,0-.423,1.222v.055a3.636,3.636,0,0,0,.239,1.2,1.524,1.524,0,0,0,.81.68,11.267,11.267,0,0,0,1.445.572c.566.179,1.093.37,1.567.568a5.828,5.828,0,0,1,1.361.771,2.161,2.161,0,0,1,.86,1.875,2.2,2.2,0,0,1-.66,1.527,3.363,3.363,0,0,1-1.138.734,5.063,5.063,0,0,1-1.2.314,7.535,7.535,0,0,1-1.021.076,4.2,4.2,0,0,1-2.622-.931,4.075,4.075,0,0,1-1.454-2.041m2.536-.729a1.5,1.5,0,0,0,.534.686,1.589,1.589,0,0,0,1.006.378,5.012,5.012,0,0,0,.665-.051,2.471,2.471,0,0,0,.347-.072c-.071-.034-.15-.069-.236-.106-.4-.166-.85-.33-1.341-.485-.325-.1-.651-.219-.974-.35m2.692-4.424,0,.011,0,.012.006-.024m.636-.859.187.076c.45.186.945.4,1.479.63q-.023-.13-.039-.26l-.009-.106c-.015-.354-.115-.423-.147-.446a.987.987,0,0,0-.673-.172,1.728,1.728,0,0,0-.8.278m4.339.561v0m-.683-.523h0" transform="translate(-377.695 -317.08)" fill="#fff"/>
        <path id="Path_29037" data-name="Path 29037" d="M554.494,364.747a2.21,2.21,0,0,1,.506-1.455,1.71,1.71,0,0,1,1.392-.612,1.822,1.822,0,0,1,1.455.612,2.158,2.158,0,0,1,.527,1.455,1.8,1.8,0,0,1-.527,1.328,1.965,1.965,0,0,1-1.455.527,1.775,1.775,0,0,1-1.9-1.856m7.507-25.3a2.455,2.455,0,0,1,.843-.717,2.512,2.512,0,0,1,1.265-.337,1.925,1.925,0,0,1,.949.274,1.567,1.567,0,0,1,.7.949,8.649,8.649,0,0,1-.3,1.223q-.3,1.055-.759,2.615t-1.075,3.521q-.612,1.961-1.265,3.985t-1.286,3.922q-.633,1.9-1.118,3.395t-.822,2.425a5.009,5.009,0,0,1-.379.928,2.039,2.039,0,0,1-1.012.232,2.588,2.588,0,0,1-.907-.19,3.69,3.69,0,0,1-.675-.359c-.183-.126-.274-.232-.274-.316a20.2,20.2,0,0,1,.506-2.678q.421-1.749,1.012-3.9t1.286-4.491q.7-2.34,1.349-4.428t1.181-3.711q.527-1.623.78-2.34" transform="translate(-450.064 -274.66)" fill="#fff"/>
        <path id="Path_29038" data-name="Path 29038" d="M550.71,362.239a3.13,3.13,0,0,1-2.344-.933,3.165,3.165,0,0,1-.873-2.24,3.507,3.507,0,0,1,.809-2.3,2.966,2.966,0,0,1,.8-.683,1.451,1.451,0,0,1-.221-.775l.005-.12a21.23,21.23,0,0,1,.538-2.868c.285-1.185.629-2.511,1.023-3.941s.827-2.948,1.293-4.517c.482-1.62.925-3.074,1.355-4.447.438-1.4.836-2.651,1.185-3.724.359-1.105.618-1.881.791-2.372l.055-.155.092-.137a3.692,3.692,0,0,1,1.285-1.13,3.827,3.827,0,0,1,1.92-.511,3.232,3.232,0,0,1,1.6.444,2.862,2.862,0,0,1,1.305,1.7l.061.193v.2a6.086,6.086,0,0,1-.344,1.578c-.2.715-.457,1.6-.765,2.635s-.67,2.221-1.081,3.538c-.4,1.287-.828,2.632-1.269,4-.458,1.418-.88,2.7-1.29,3.934-.416,1.248-.791,2.386-1.114,3.384s-.608,1.839-.838,2.469c-.329.9-.564,1.549-1.194,1.738a3.525,3.525,0,0,1,.514,1.86,3.125,3.125,0,0,1-.913,2.261,3.258,3.258,0,0,1-2.387.913m0-3.922c-.265,0-.329.077-.376.134a.9.9,0,0,0-.2.615.529.529,0,0,0,.139.415c.03.031.117.122.441.122a.742.742,0,0,0,.522-.141.486.486,0,0,0,.141-.4.84.84,0,0,0-.208-.6c-.045-.052-.133-.153-.455-.153m1.219-3.015Zm-.32-.553.053.023a1.282,1.282,0,0,0,.442.088c.031-.082.066-.179.108-.293.218-.6.49-1.4.807-2.38.326-1.005.7-2.151,1.121-3.406.407-1.222.827-2.5,1.282-3.911.438-1.357.862-2.693,1.261-3.972.407-1.306.767-2.485,1.071-3.505s.556-1.892.753-2.594c.09-.319.148-.539.185-.689a.622.622,0,0,0-.265-.083,1.186,1.186,0,0,0-.611.164,1.878,1.878,0,0,0-.33.229c-.163.473-.4,1.175-.694,2.091-.346,1.064-.742,2.309-1.177,3.7-.426,1.36-.866,2.8-1.344,4.41-.461,1.552-.892,3.054-1.278,4.464s-.723,2.7-1,3.86c-.172.715-.3,1.319-.382,1.806" transform="translate(-444.383 -268.978)" fill="#fff"/>
        <path id="Path_29039" data-name="Path 29039" d="M7.069,297.92q.168-.759.59-2.4t.991-3.753q.57-2.108,1.244-4.47t1.328-4.491q.653-2.13,1.244-3.838a19.451,19.451,0,0,1,1.012-2.509q.042-.084.379-.106a2.991,2.991,0,0,1,.759.063,3.265,3.265,0,0,1,.864.316,1.939,1.939,0,0,1,.738.7,11.226,11.226,0,0,1-.337,1.666q-.379,1.624-.991,4.048t-1.35,5.25q-.738,2.826-1.412,5.293t-1.16,4.175a15.456,15.456,0,0,1-.611,1.919,1.606,1.606,0,0,1-1.1.443,1.767,1.767,0,0,1-.928-.274A2.274,2.274,0,0,1,7.427,299a3,3,0,0,1-.358-1.076m7.211-25.387a1.951,1.951,0,0,1,1.16-.844,1.77,1.77,0,0,1,1.413.3,1.79,1.79,0,0,1,.991,1.2,1.885,1.885,0,0,1-.274,1.413,2.19,2.19,0,0,1-1.223.949,1.9,1.9,0,0,1-1.56-.232,1.836,1.836,0,0,1-.822-1.286,2.276,2.276,0,0,1,.316-1.5" transform="translate(-5.738 -220.485)" fill="#fff"/>
        <path id="Path_29040" data-name="Path 29040" d="M3.574,295.859l-.1,0a3.089,3.089,0,0,1-1.57-.468,3.581,3.581,0,0,1-1.386-1.466,4.241,4.241,0,0,1-.5-1.563l-.018-.2.044-.2c.116-.524.313-1.324.6-2.446.271-1.059.6-2.292,1-3.769.385-1.427.806-2.937,1.249-4.489.449-1.573.9-3.092,1.335-4.516s.864-2.743,1.259-3.882a20.5,20.5,0,0,1,1.087-2.683,1.387,1.387,0,0,1,.667-.635,3.057,3.057,0,0,1-.317-1.009,3.572,3.572,0,0,1,.487-2.341l.05-.078a3.28,3.28,0,0,1,1.935-1.378,3.058,3.058,0,0,1,2.4.444,3.053,3.053,0,0,1,1.607,2.075,3.215,3.215,0,0,1-.449,2.371l-.011.017a3.536,3.536,0,0,1-1.42,1.287l.008.012c.432.51.322.98-.1,2.777-.25,1.072-.576,2.4-1,4.07-.4,1.6-.858,3.368-1.353,5.261-.48,1.838-.956,3.623-1.416,5.307-.449,1.642-.841,3.051-1.163,4.187a10.394,10.394,0,0,1-.748,2.235l-.113.189-.168.142a2.91,2.91,0,0,1-1.9.755m-.9-3.586a2.5,2.5,0,0,0,.185.438.96.96,0,0,0,.39.41l.076.047a.5.5,0,0,0,.218.053c.077-.235.207-.657.419-1.4.32-1.128.709-2.529,1.157-4.163.457-1.673.931-3.449,1.408-5.277.492-1.887.946-3.65,1.347-5.24.416-1.652.738-2.969.986-4.026.1-.414.164-.712.21-.925a1.9,1.9,0,0,0-.453-.161H8.612c-.188.443-.4,1.008-.637,1.691-.384,1.11-.8,2.386-1.23,3.794s-.877,2.91-1.321,4.466c-.441,1.541-.857,3.038-1.239,4.452-.4,1.465-.718,2.687-.987,3.736-.233.909-.409,1.617-.523,2.109m7.086-23.747a.542.542,0,0,0,.461.082.866.866,0,0,0,.5-.4.567.567,0,0,0,.094-.447c-.024-.118-.22-.242-.334-.305l-.079-.047c-.242-.156-.349-.131-.389-.121a.611.611,0,0,0-.356.271.942.942,0,0,0-.123.61.489.489,0,0,0,.23.352" transform="translate(0 -214.807)" fill="#fff"/>
        <path id="Path_29041" data-name="Path 29041" d="M45.373,401.253a1.4,1.4,0,0,0,.444-.063l.381-.127q.191-.064.428-.127a2.311,2.311,0,0,1,.587-.063,2.059,2.059,0,0,1,1.4.4.8.8,0,0,1,.222.968,26.977,26.977,0,0,0-1.031,3.206q-.524,1.968-1.127,4.174a16.7,16.7,0,0,1-.512,1.679,31.459,31.459,0,0,1-1.571,4.047,11.945,11.945,0,0,1-1.9,2.936,3.1,3.1,0,0,1-2.317,1.143,2.284,2.284,0,0,1-.778-.143,1.328,1.328,0,0,1-.619-.428.975.975,0,0,1-.175-.73,2.043,2.043,0,0,1,.587-1.047,22.867,22.867,0,0,0,1.809-2.253,9.428,9.428,0,0,0,1.127-1.968,4.272,4.272,0,0,0,.23-.933c.013-.055-.078.4.028-.381a.542.542,0,0,0-.539-.4,3.023,3.023,0,0,0-.889.111q-.476.127-.952.3a2.356,2.356,0,0,1-.762.175,2.3,2.3,0,0,1-1.968-.841,3.3,3.3,0,0,1-.635-2.047,10.233,10.233,0,0,1,.4-2.666,9.65,9.65,0,0,1,1.19-2.7,7.01,7.01,0,0,1,1.952-2.032,3.958,3.958,0,0,1,2.651-.667,4.776,4.776,0,0,1,1.158.27,3.381,3.381,0,0,0,1.19.206m-4.222,7.935a1.84,1.84,0,0,0,1.1-.412,3.74,3.74,0,0,0,.936-1.016,6.163,6.163,0,0,0,.651-1.444,4.262,4.262,0,0,0,.206-1.444,1.683,1.683,0,0,0-.381-1.063,1.1,1.1,0,0,0-1.08-.27,5.2,5.2,0,0,0-1.111.809,4.636,4.636,0,0,0-.762.936,5.235,5.235,0,0,0-.6,1.349,3.567,3.567,0,0,0-.143,1.254,1.641,1.641,0,0,0,.349.936,1.03,1.03,0,0,0,.841.365" transform="translate(-29.898 -325.283)" fill="#5916c3"/>
        <path id="Path_29042" data-name="Path 29042" d="M104.515,410.914a2.631,2.631,0,0,1-.667.349q-.476.19-1.016.349t-1.047.27a3.966,3.966,0,0,1-.794.111,1.929,1.929,0,0,1-1.746-.825,4.085,4.085,0,0,1-.6-2.063,9.75,9.75,0,0,1,.27-2.682,14.5,14.5,0,0,1,.889-2.682,9.394,9.394,0,0,1,1.222-2.063,1.794,1.794,0,0,1,1.3-.825q.984,0,1.19.555a2.466,2.466,0,0,1,.016,1.4,12.039,12.039,0,0,1-.587,1.825q-.4.984-.651,1.825a3.339,3.339,0,0,0-.175,1.4q.079.556.873.524a1.327,1.327,0,0,0,.984-.555,7.817,7.817,0,0,0,.921-1.381q.444-.825.873-1.793t.857-1.793a10.281,10.281,0,0,1,.841-1.381,1.121,1.121,0,0,1,.857-.555,1.018,1.018,0,0,1,1.063.809,4.948,4.948,0,0,1,.079,2.016,15.194,15.194,0,0,1-.6,2.6,22.728,22.728,0,0,1-1,2.6,14.915,14.915,0,0,1-1.095,2.015q-.54.81-.857.81a2.322,2.322,0,0,1-.682-.19,1.262,1.262,0,0,1-.714-.667" transform="translate(-80.057 -325.358)" fill="#5916c3"/>
        <path id="Path_29043" data-name="Path 29043" d="M168.465,403.275a4.159,4.159,0,0,1-.952,2.111,6.985,6.985,0,0,1-1.936,1.682,5.5,5.5,0,0,1-2.27.762,2.359,2.359,0,0,1-1.952-.651,2.254,2.254,0,0,0,.032,1.65,1.359,1.359,0,0,0,.984.7,3.131,3.131,0,0,0,1.587-.19,6.654,6.654,0,0,0,1.841-1.016q.1-.064.349-.254a2.969,2.969,0,0,1,.571-.333,1.077,1.077,0,0,1,.571-.111q.254.032.349.444a2.42,2.42,0,0,1-.46,2.015,4.891,4.891,0,0,1-1.857,1.46,7.833,7.833,0,0,1-2.571.7,5.958,5.958,0,0,1-2.587-.27,3.859,3.859,0,0,1-1.936-1.476,4.2,4.2,0,0,1-.555-2.9,7.182,7.182,0,0,1,.73-2.571,7.032,7.032,0,0,1,1.587-2.095,7.475,7.475,0,0,1,2.254-1.4,7.376,7.376,0,0,1,2.762-.508,7.064,7.064,0,0,1,1.809.19,2.859,2.859,0,0,1,1.079.508,1.436,1.436,0,0,1,.492.73,2.449,2.449,0,0,1,.079.825m-6.6,2.412a3.778,3.778,0,0,0,2.016-.079,2.4,2.4,0,0,0,1.111-.762,1.327,1.327,0,0,0,.3-.873q-.032-.412-.413-.413a2.909,2.909,0,0,0-2,.667,4.332,4.332,0,0,0-1.016,1.46" transform="translate(-127.947 -325.495)" fill="#5916c3"/>
        <path id="Path_29044" data-name="Path 29044" d="M78.169,253.7a5.926,5.926,0,0,1-.611,4.154,8.6,8.6,0,0,1-2.868,2.91,14.385,14.385,0,0,1-4.112,1.75,20.539,20.539,0,0,1-4.3.674,46.189,46.189,0,0,1-3.88,8.751q-1.813,2.889-3.627,2.889a1.761,1.761,0,0,1-1.433-.759,4.444,4.444,0,0,1-.844-3.479,1.053,1.053,0,0,1,.8-.949,4.06,4.06,0,0,0,2.53-1.582,11.472,11.472,0,0,0,1.75-3.247,23.911,23.911,0,0,0,1.075-4.154q.379-2.235.59-4.344t.274-3.8q.064-1.686.106-2.488a3.947,3.947,0,0,1-.738.358,5.542,5.542,0,0,1-1.244.337,3.034,3.034,0,0,1-1.244-.042.937.937,0,0,1-.7-.822,1.661,1.661,0,0,1,.274-1.307,3.261,3.261,0,0,1,1.1-.928,5.411,5.411,0,0,1,1.56-.548,8.726,8.726,0,0,1,1.666-.169q1.18,0,2.594.063t2.867.274a17.791,17.791,0,0,1,2.846.654,9.991,9.991,0,0,1,2.53,1.2,7.478,7.478,0,0,1,1.94,1.877,6.69,6.69,0,0,1,1.1,2.72m-10.712-3.5q0,.127.021,1.16t-.021,2.467q-.043,1.434-.232,3.015a15.919,15.919,0,0,1-.57,2.8,11.082,11.082,0,0,0,2.13-.274,10.542,10.542,0,0,0,2.593-.907,6.9,6.9,0,0,0,2.172-1.687,3.774,3.774,0,0,0,.865-2.657,2.856,2.856,0,0,0-.865-2.214,4.891,4.891,0,0,0-1.939-.991,12.493,12.493,0,0,0-2.277-.38,7.374,7.374,0,0,1-1.877-.337" transform="translate(-45.792 -200.411)" fill="#5916c3"/>
        <path id="Path_29045" data-name="Path 29045" d="M170.807,300.349a2.415,2.415,0,0,0,1.118-.3,2.758,2.758,0,0,1,1.286-.3q2.531,0,2.53,1.645a4.9,4.9,0,0,1-.316,1.581,20.253,20.253,0,0,1-.78,1.9l-.949,2.024a16.023,16.023,0,0,0-.78,1.961,7.454,7.454,0,0,0-.359,1.076q-.233.822-.464,1.708t-.443,1.6a2.811,2.811,0,0,1-.253.717,2.317,2.317,0,0,1-1.434-.021,3.663,3.663,0,0,1-.949-.569q-.4-.337-.822-.654a1.709,1.709,0,0,0-1.054-.316,1.23,1.23,0,0,0-.633.253q-.379.253-.864.527t-1.033.527a2.691,2.691,0,0,1-1.139.253,3.072,3.072,0,0,1-1.75-.443,2.86,2.86,0,0,1-.97-1.054,3.783,3.783,0,0,1-.4-1.244,8.144,8.144,0,0,1-.084-1.012,14.143,14.143,0,0,1,.443-3.332,12.248,12.248,0,0,1,1.371-3.374,8.518,8.518,0,0,1,2.362-2.594,5.684,5.684,0,0,1,3.415-1.033,4.6,4.6,0,0,1,1.371.232,5.242,5.242,0,0,0,1.581.232m-5.145,9.742a1.712,1.712,0,0,0,1.433-.232,4.471,4.471,0,0,0,1.286-1.244,8.206,8.206,0,0,0,.949-1.771,7.589,7.589,0,0,0,.485-1.813,2.756,2.756,0,0,0-.147-1.434.958.958,0,0,0-.97-.591,2.543,2.543,0,0,0-1.729.865,6.946,6.946,0,0,0-1.434,2.024,5.921,5.921,0,0,0-.59,2.341,2.238,2.238,0,0,0,.717,1.856" transform="translate(-130.081 -243.304)" fill="#5916c3"/>
        <path id="Path_29046" data-name="Path 29046" d="M255.659,273.737q-.225.5-.609,1.336t-.815,1.674q-.431.841-.885,1.569a4.057,4.057,0,0,1-.853,1.043,1.7,1.7,0,0,1-.863.645.812.812,0,0,1-.847-.326q-.337-.282-.122-1.334a13.96,13.96,0,0,1,.718-2.318,18.661,18.661,0,0,1,1.187-2.451,7.273,7.273,0,0,1,1.318-1.754,1.035,1.035,0,0,1,.9-.44.968.968,0,0,1,.671.442,2.3,2.3,0,0,1,.329.92,1.668,1.668,0,0,1-.128.994" transform="translate(-203.389 -220.264)" fill="#5916c3"/>
        <path id="Path_29047" data-name="Path 29047" d="M232.549,340.246a2.452,2.452,0,0,1,.148-1.771,3.058,3.058,0,0,1,1.16-1.265,4.107,4.107,0,0,1,1.708-.569,3.362,3.362,0,0,1,1.813.3,3.676,3.676,0,0,1,1.5,1.349,5.4,5.4,0,0,1,.759,2.594,14.221,14.221,0,0,1-.569,4.154,34.2,34.2,0,0,1-1.9,5.293,48,48,0,0,1-2.973,5.588,33.466,33.466,0,0,1-3.774,5.039,20.112,20.112,0,0,1-4.323,3.627,8.739,8.739,0,0,1-4.6,1.392,4.725,4.725,0,0,1-1.771-.253,1.569,1.569,0,0,1-.8-1.223,9.667,9.667,0,0,1-.169-2.72q.084-1.708.4-3.817t.8-4.491q.484-2.382,1.033-4.723t1.1-4.513q.548-2.171.991-3.837t.717-2.72a10.836,10.836,0,0,0,.274-1.18.427.427,0,0,1,.169-.464,2.136,2.136,0,0,1,.928-.127,2.237,2.237,0,0,1,2.066,1.034,5.77,5.77,0,0,1,.717,2.741,19.608,19.608,0,0,1-.253,3.9q-.338,2.193-.864,4.449t-1.118,4.449q-.591,2.193-1.012,3.9a20.833,20.833,0,0,0-.527,2.741q-.106,1.034.358,1.033.674,0,1.708-1.244a27.014,27.014,0,0,0,2.193-3.142q1.159-1.9,2.3-4.2t2-4.449q.864-2.15,1.349-3.816a5.221,5.221,0,0,0,.316-2.34q-.042-.168-.316-.232a3.862,3.862,0,0,0-.612-.084,2.59,2.59,0,0,1-.611-.105.4.4,0,0,1-.316-.295" transform="translate(-177.542 -272.64)" fill="#5916c3"/>
        <path id="Path_29048" data-name="Path 29048" d="M328.578,402.939a5.522,5.522,0,0,1-1.265,2.8,9.283,9.283,0,0,1-2.572,2.235,7.313,7.313,0,0,1-3.015,1.012,3.135,3.135,0,0,1-2.594-.864,2.994,2.994,0,0,0,.042,2.193,1.8,1.8,0,0,0,1.307.928,4.155,4.155,0,0,0,2.109-.253,8.825,8.825,0,0,0,2.446-1.349q.127-.084.464-.337a3.931,3.931,0,0,1,.759-.443,1.435,1.435,0,0,1,.759-.148q.337.043.464.591a3.215,3.215,0,0,1-.611,2.678,6.5,6.5,0,0,1-2.467,1.94,10.4,10.4,0,0,1-3.416.928,7.912,7.912,0,0,1-3.437-.359,5.125,5.125,0,0,1-2.572-1.961,5.576,5.576,0,0,1-.738-3.859,9.536,9.536,0,0,1,.97-3.416,9.333,9.333,0,0,1,2.109-2.783,9.932,9.932,0,0,1,2.994-1.856,9.792,9.792,0,0,1,3.669-.674,9.383,9.383,0,0,1,2.4.253,3.793,3.793,0,0,1,1.434.675,1.907,1.907,0,0,1,.654.97,3.254,3.254,0,0,1,.105,1.1m-8.771,3.205a5.024,5.024,0,0,0,2.678-.105,3.183,3.183,0,0,0,1.476-1.012,1.762,1.762,0,0,0,.4-1.159q-.043-.548-.548-.548a3.862,3.862,0,0,0-2.657.886,5.755,5.755,0,0,0-1.349,1.94" transform="translate(-255.016 -324.622)" fill="#5916c3"/>
        <path id="Path_29049" data-name="Path 29049" d="M404.716,370.27a2.414,2.414,0,0,0,1.117-.3,2.761,2.761,0,0,1,1.286-.295q2.53,0,2.53,1.645a4.9,4.9,0,0,1-.316,1.581,20.047,20.047,0,0,1-.78,1.9l-.949,2.024a16.148,16.148,0,0,0-.78,1.961,7.489,7.489,0,0,0-.359,1.076q-.233.823-.464,1.708t-.443,1.6a2.821,2.821,0,0,1-.253.717,2.315,2.315,0,0,1-1.434-.021,3.675,3.675,0,0,1-.949-.569q-.4-.337-.822-.654a1.71,1.71,0,0,0-1.054-.316,1.228,1.228,0,0,0-.633.253q-.38.253-.864.527t-1.033.527a2.691,2.691,0,0,1-1.139.253,3.071,3.071,0,0,1-1.75-.443,2.863,2.863,0,0,1-.97-1.054,3.78,3.78,0,0,1-.4-1.244,8.071,8.071,0,0,1-.084-1.012,14.129,14.129,0,0,1,.443-3.332,12.243,12.243,0,0,1,1.371-3.373,8.532,8.532,0,0,1,2.362-2.594,5.685,5.685,0,0,1,3.416-1.033,4.59,4.59,0,0,1,1.37.232,5.239,5.239,0,0,0,1.582.232m-5.145,9.742a1.712,1.712,0,0,0,1.434-.232,4.473,4.473,0,0,0,1.286-1.244,8.191,8.191,0,0,0,.949-1.771,7.616,7.616,0,0,0,.485-1.814,2.753,2.753,0,0,0-.148-1.433.957.957,0,0,0-.97-.591,2.544,2.544,0,0,0-1.729.865,6.948,6.948,0,0,0-1.434,2.024,5.936,5.936,0,0,0-.59,2.341,2.238,2.238,0,0,0,.717,1.856m8.266-14.929q-.465.3-1.244.78t-1.6.949q-.822.465-1.6.823a4.051,4.051,0,0,1-1.286.4,1.694,1.694,0,0,1-1.076.064.812.812,0,0,1-.527-.738q-.126-.422.633-1.181a13.9,13.9,0,0,1,1.877-1.539,18.675,18.675,0,0,1,2.34-1.392,7.264,7.264,0,0,1,2.066-.738,1.033,1.033,0,0,1,.991.126.968.968,0,0,1,.316.738,2.3,2.3,0,0,1-.232.949,1.666,1.666,0,0,1-.654.759" transform="translate(-319.937 -294.188)" fill="#5916c3"/>
        <path id="Path_29050" data-name="Path 29050" d="M480.528,408.566a.854.854,0,0,0-.359-.781,4.576,4.576,0,0,0-1.054-.59q-.654-.274-1.455-.527a12.521,12.521,0,0,1-1.6-.633,2.634,2.634,0,0,1-1.5-1.433,4.916,4.916,0,0,1-.316-1.645,3.3,3.3,0,0,1,.654-2.024,6.8,6.8,0,0,1,1.813-1.771,9.278,9.278,0,0,1,2.467-1.18,7.288,7.288,0,0,1,2.657-.338A5.1,5.1,0,0,1,485,398.8a3.714,3.714,0,0,1,1.223,2.214,3.481,3.481,0,0,1-.063.991,2.038,2.038,0,0,1-.443.928,2.235,2.235,0,0,1-.991.633,3.369,3.369,0,0,1-1.666.063c-.169-.028-.289-.154-.359-.38a3.792,3.792,0,0,1-.148-.675,1.761,1.761,0,0,0-.717-1.476,2.3,2.3,0,0,0-1.518-.4,3.111,3.111,0,0,0-1.6.611,2.625,2.625,0,0,0-1.012,1.519c-.028.084.112.183.422.3s.7.267,1.181.464,1,.422,1.581.675a13.637,13.637,0,0,1,1.624.843,6.163,6.163,0,0,1,1.307,1.054,2.559,2.559,0,0,1,.675,1.307,3.291,3.291,0,0,1-.337,2,6.116,6.116,0,0,1-1.539,1.982,8.267,8.267,0,0,1-2.509,1.477,7.586,7.586,0,0,1-3.289.443,7.845,7.845,0,0,1-2.024-.38,5.288,5.288,0,0,1-1.413-.717,3.581,3.581,0,0,1-.886-.907,4.3,4.3,0,0,1-.485-.991,2.361,2.361,0,0,1-.063-1.287,3.948,3.948,0,0,1,.485-1.2,3.356,3.356,0,0,1,.8-.906,1.471,1.471,0,0,1,.886-.359q.633,0,.843,1.1a2.741,2.741,0,0,0,1.054,1.581,2.9,2.9,0,0,0,1.813.654,6.266,6.266,0,0,0,.844-.064,3.708,3.708,0,0,0,.886-.232,2.037,2.037,0,0,0,.7-.443.892.892,0,0,0,.274-.653" transform="translate(-383.014 -322.742)" fill="#5916c3"/>
        <path id="Path_29051" data-name="Path 29051" d="M554.047,364.723a2.21,2.21,0,0,1,.506-1.455,1.71,1.71,0,0,1,1.392-.612,1.822,1.822,0,0,1,1.455.612,2.158,2.158,0,0,1,.527,1.455,1.8,1.8,0,0,1-.527,1.329,1.965,1.965,0,0,1-1.455.527,1.775,1.775,0,0,1-1.9-1.856m7.507-25.3a2.453,2.453,0,0,1,.843-.717,2.512,2.512,0,0,1,1.265-.337,1.925,1.925,0,0,1,.949.274,1.567,1.567,0,0,1,.7.949,8.649,8.649,0,0,1-.3,1.223q-.3,1.055-.759,2.615t-1.075,3.521q-.612,1.961-1.265,3.985t-1.286,3.922q-.633,1.9-1.118,3.395t-.822,2.425a5.009,5.009,0,0,1-.379.928,2.039,2.039,0,0,1-1.012.232,2.588,2.588,0,0,1-.907-.19,3.685,3.685,0,0,1-.675-.359c-.183-.126-.274-.232-.274-.316a20.2,20.2,0,0,1,.506-2.678q.421-1.749,1.012-3.9t1.286-4.491q.7-2.34,1.35-4.428t1.181-3.711q.527-1.623.78-2.34" transform="translate(-449.702 -274.64)" fill="#5916c3"/>
        <path id="Path_29052" data-name="Path 29052" d="M6.622,297.9q.168-.759.59-2.4T8.2,291.74q.57-2.108,1.244-4.47t1.328-4.491q.653-2.129,1.244-3.838a19.454,19.454,0,0,1,1.012-2.509c.028-.056.154-.091.379-.106a2.991,2.991,0,0,1,.759.063,3.265,3.265,0,0,1,.864.316,1.939,1.939,0,0,1,.738.7,11.228,11.228,0,0,1-.337,1.666q-.379,1.624-.991,4.048t-1.35,5.25q-.738,2.826-1.412,5.293t-1.16,4.175a15.458,15.458,0,0,1-.611,1.919,1.606,1.606,0,0,1-1.1.443,1.767,1.767,0,0,1-.928-.274,2.274,2.274,0,0,1-.907-.949,3,3,0,0,1-.358-1.076m7.211-25.387a1.95,1.95,0,0,1,1.16-.844,1.77,1.77,0,0,1,1.413.3,1.79,1.79,0,0,1,.991,1.2,1.885,1.885,0,0,1-.274,1.412,2.19,2.19,0,0,1-1.223.949,1.9,1.9,0,0,1-1.56-.232,1.836,1.836,0,0,1-.822-1.286,2.276,2.276,0,0,1,.316-1.5" transform="translate(-5.375 -220.466)" fill="#5916c3"/>
        <path id="Path_29053" data-name="Path 29053" d="M241.466,0,229.225,5.393l3.06,1.134L213.207,23.721l-15.871-7.709a2.107,2.107,0,0,0-2.2.222L173.384,32.892a2.106,2.106,0,1,0,2.561,3.344l20.719-15.868,15.978,7.761a2.106,2.106,0,0,0,2.33-.33L235.408,9.382l1.378,3.149Z" transform="translate(-140.06)" fill="#614ed8"/>
      </g>
    </g>
  </g>
</svg>
