<?xml version="1.0" encoding="UTF-8"?>
<svg id="Layer_1" xmlns="http://www.w3.org/2000/svg" version="1.1" viewBox="0 0 190.52 96.74">
  <!-- Generator: Adobe Illustrator 30.0.0, SVG Export Plug-In . SVG Version: 2.1.1 Build 123)  -->
  <defs>
    <style>
      .st0 {
        fill: #ed232a;
      }

      .st1 {
        fill: #003876;
      }
    </style>
  </defs>
  <g>
    <path class="st1" d="M1.07,51.09v-.02c0-1.59,1.17-3,2.91-3,.98,0,1.58.28,2.16.77l-.42.5c-.45-.39-.94-.66-1.76-.66-1.28,0-2.2,1.09-2.2,2.38v.02c0,1.38.89,2.41,2.29,2.41.66,0,1.28-.26,1.67-.58v-1.44h-1.76v-.59h2.39v2.31c-.54.48-1.35.89-2.33.89-1.82,0-2.95-1.33-2.95-2.98h0Z"/>
    <path class="st1" d="M8.51,51.09v-.02c0-1.6,1.2-3,2.97-3s2.95,1.38,2.95,2.98c0,1.07,0,1.07,0,.02,0,1.6-1.2,3-2.97,3s-2.95-1.38-2.95-2.98ZM13.74,51.09v-.02c0-1.32-.96-2.39-2.29-2.39s-2.27,1.06-2.27,2.38v.02c0,1.32.96,2.39,2.29,2.39s2.27-1.06,2.27-2.38Z"/>
    <path class="st1" d="M16.75,48.17h2.47c.66,0,1.18.19,1.52.51.24.25.37.56.37.93v.02c0,.75-.46,1.14-.92,1.34.69.21,1.24.6,1.24,1.4v.02c0,.99-.84,1.58-2.1,1.58h-2.58v-5.8ZM19.11,50.76c.79,0,1.33-.36,1.33-1.04v-.02c0-.57-.45-.94-1.28-.94h-1.76v2h1.71ZM19.34,53.38c.88,0,1.43-.39,1.43-1.04v-.02c0-.63-.53-.99-1.54-.99h-1.83v2.05h1.95-.01Z"/>
    <path class="st1" d="M23.73,48.17h.65v5.8h-.65v-5.8Z"/>
    <path class="st1" d="M27.03,48.17h4.19v.6h-3.54v1.98h3.16v.6h-3.16v2.03h3.58v.6h-4.23v-5.8h0Z"/>
    <path class="st1" d="M33.52,48.17h2.49c.71,0,1.28.22,1.65.58.28.28.45.69.45,1.14v.02c0,.96-.66,1.52-1.57,1.69l1.78,2.37h-.8l-1.68-2.25h-1.66v2.25h-.65v-5.8h-.01ZM35.96,51.13c.87,0,1.49-.45,1.49-1.19v-.02c0-.71-.55-1.14-1.48-1.14h-1.79v2.35h1.78Z"/>
    <path class="st1" d="M40.45,48.17h.61l3.65,4.65v-4.65h.64v5.8h-.52l-3.74-4.75v4.75h-.64v-5.8Z"/>
    <path class="st1" d="M47.68,51.09v-.02c0-1.6,1.2-3,2.97-3s2.95,1.38,2.95,2.98c0,1.07,0,1.07,0,.02,0,1.6-1.2,3-2.97,3s-2.95-1.38-2.95-2.98ZM52.92,51.09v-.02c0-1.32-.96-2.39-2.29-2.39s-2.27,1.06-2.27,2.38v.02c0,1.32.96,2.39,2.29,2.39s2.27-1.06,2.27-2.38Z"/>
    <path class="st1" d="M59.35,48.17h2.01c1.82,0,3.08,1.25,3.08,2.88v.02c0,1.63-1.26,2.9-3.08,2.9h-2.01s0-5.8,0-5.8ZM61.37,53.37c1.47,0,2.4-.99,2.4-2.28v-.02c0-1.28-.94-2.29-2.4-2.29h-1.36v4.59h1.36Z"/>
    <path class="st1" d="M66.77,48.17h4.19v.6h-3.54v1.98h3.16v.6h-3.16v2.03h3.58v.6h-4.23v-5.8h0Z"/>
    <path class="st1" d="M76.7,48.17h.65v5.19h3.26v.6h-3.92v-5.8h0Z"/>
    <path class="st1" d="M84.91,48.13h.61l2.64,5.84h-.7l-.68-1.53h-3.16l-.69,1.53h-.67l2.64-5.84h.01ZM86.53,51.85l-1.32-2.96-1.32,2.96h2.64Z"/>
  </g>
  <g>
    <path class="st1" d="M8.93,68.1c-.75.25-1.79.22-2.51-.71l-1.84-2.37c-.51-.67-1.12-.77-1.96-.78v2.32c0,.84.57.98,1.34,1.08.08.01.02.41-.07.41H.26c-.1,0-.17-.39-.07-.41.61-.08.99-.32.99-1.08v-5.33c0-.79-.42-1.02-.99-1.17-.1-.02-.04-.42.07-.41.47.06.99.07,1.38.07.89,0,1.71-.07,2.28-.07,1.81,0,3.01.74,3.01,2.21,0,1.39-1.12,2.07-2.13,2.13v.06c.48,0,.83.2,1.35.86l1.78,2.24c.37.47.73.6.99.6.1,0,.07.32,0,.35h0ZM5.42,62.2c0-1.28-.81-1.91-1.88-1.91-.71,0-.93.29-.93.96v2.46h.35c1.78,0,2.46-.31,2.46-1.51Z"/>
    <path class="st1" d="M10.86,67.65c.69-.18,1.23-.29,1.23-1.17v-5.31c0-.77-.49-.97-1-1.1-.1-.02-.04-.42.06-.41.87.1,2.38.07,3.11.07,1.09,0,1.88-.05,2.86-.07.29,0,.29.19.23.47l-.29,1.14c-.04.17-.33.17-.38,0-.18-.59-.54-.92-2.03-.92-.84,0-1.11.22-1.11.84v1.95c0,.31.16.37.4.37h.26c.97,0,1.81-.1,2.3-.54.12-.11.38-.08.28.16l-.68,1.51c-.1.22-.28.19-.41.01-.28-.38-.89-.54-1.58-.54h-.17c-.24,0-.4.06-.4.37v2.01c0,.68.29.93,1.28.93,1.81,0,2.52-.83,2.81-1.28.08-.13.41-.07.41.13,0,.61-.51,1.82-1.27,1.82-.67-.04-1.33-.07-2.33-.07-1.1,0-2.4-.04-3.49.07-.12.01-.17-.41-.07-.43h-.02Z"/>
    <path class="st1" d="M22.79,64.85v1.72c0,.84.57.98,1.34,1.08.08.01.02.41-.07.41h-3.62c-.1,0-.17-.39-.07-.41.61-.08.99-.32.99-1.08v-5.33c0-.79-.42-1.02-.99-1.17-.1-.02-.04-.42.07-.41.47.06.99.07,1.38.07.89,0,1.63-.07,2.24-.07,1.85,0,3.38.68,3.38,2.56,0,2.13-2,3.03-4.64,2.63h-.01ZM22.79,61.24v3.03c2.03.29,3.1-.2,3.1-1.77,0-1.42-.91-2.21-2.14-2.21-.75,0-.96.26-.96.96h0Z"/>
    <path class="st1" d="M30.81,64.92v-3.75c0-.75-.38-1-.97-1.08-.1,0-.02-.41.07-.41h3.26c.1,0,.17.39.07.41-.48.06-.96.24-.96,1.08v3.81c0,1.67.97,2.45,2.24,2.45s2.34-.78,2.34-2.45v-3.81c0-.78-.44-.99-1.03-1.08-.08,0-.02-.41.07-.41h2.69c.08,0,.16.39.06.41-.48.06-.96.24-.96,1.08v3.74c0,2.2-1.42,3.34-3.32,3.34-1.69,0-3.58-.9-3.58-3.32h.02ZM34.33,56.71c.22-.31,1.22.61.93.83l-1.57,1.18c-.16.12-.57-.26-.45-.43l1.09-1.58Z"/>
    <path class="st1" d="M48.25,65.64c0,1.48-1.35,2.44-3.35,2.44-.57,0-1.24-.07-2.13-.07-.75,0-1.33.01-1.88.07-.11.01-.17-.41-.07-.43.69-.18,1.23-.29,1.23-1.17v-5.31c0-.77-.49-.97-1-1.1-.1-.02-.04-.42.06-.41.49.06,1.06.07,1.45.07.96,0,1.66-.07,2.19-.07,1.54,0,2.81.65,2.82,1.96,0,.97-.67,1.64-1.51,1.81v.07c1.11,0,2.19.8,2.19,2.14ZM43.49,61.17v2.13h1.23c.86,0,1.36-.43,1.36-1.35,0-1.14-.77-1.66-1.75-1.66-.63,0-.85.22-.85.88h0ZM46.71,65.9c0-1.32-.87-2.01-1.99-2.01h-1.23v2.58c0,.66.33.98,1.38.98s1.84-.31,1.84-1.55Z"/>
    <path class="st1" d="M50.54,67.65c.69-.18,1.23-.29,1.23-1.17v-5.31c0-.84-.49-1-1-1.08-.1,0-.02-.41.06-.41h3.3c.08,0,.14.39.06.41-.5.06-.98.24-.98,1.08v5.31c0,.68.29.93,1.28.93,1.81,0,2.52-.83,2.81-1.28.08-.13.41-.07.41.13,0,.61-.51,1.82-1.27,1.82-.67-.04-1.33-.07-2.33-.07-1.1,0-2.4-.04-3.49.07-.12.01-.17-.41-.07-.43h-.01Z"/>
    <path class="st1" d="M59.81,67.65c.61-.08.99-.32.99-1.08v-5.41c0-.75-.38-.99-.99-1.08-.1,0-.02-.41.07-.41h3.28c.1,0,.17.39.07.41-.51.07-.99.24-.99,1.08v5.41c0,.84.48,1,.99,1.08.1.01.02.41-.07.41h-3.28c-.1,0-.17-.39-.07-.41Z"/>
    <path class="st1" d="M65.76,64.02c0-2.07,1.27-4.53,4.62-4.53,1.39,0,2.58.43,2.44.85l-.16.47c-.43,1.28-.9-.36-3.03-.36-1.71,0-2.55,1.11-2.55,2.83,0,2.69,2.04,3.81,3.68,3.81.22,0,1.3-.17,1.93-.56.1-.06.35.22.28.32-.51.75-2.12,1.39-2.49,1.39-2.01,0-4.72-1.17-4.72-4.22Z"/>
    <path class="st1" d="M83.89,68.05h-3.16c-.15,0-.17-.38-.04-.41.44-.08.92-.24.48-1.27l-.13-.3c-.12-.29-.32-.31-.68-.31h-2.44c-.36,0-.56.02-.68.31l-.12.3c-.42,1.03.04,1.18.61,1.27.15.02.12.41-.04.41h-2.58c-.14,0-.18-.38-.04-.41.49-.08.78-.25,1.22-1.27l2.02-4.64c.47-1.05.61-1.54.61-2,0-.07.84-.26.87-.18l2.92,6.8c.43,1.02.72,1.21,1.2,1.28.17.02.12.41-.02.41h0ZM80.55,64.91l-1.4-3.35-1.41,3.35c-.07.17.11.19.28.19h2.26c.17,0,.35-.02.28-.19h0Z"/>
    <path class="st1" d="M89.68,67.65c.69-.18,1.23-.29,1.23-1.17v-5.31c0-.77-.49-.97-1-1.1-.1-.02-.04-.42.06-.41.49.06.99.07,1.49.07.93,0,1.77-.07,2.38-.07,2.89,0,4.46,1.72,4.46,4.03s-1.57,4.39-4.47,4.39c-.57,0-1.32-.07-2.2-.07-.74,0-1.33.01-1.88.07-.12.01-.17-.41-.07-.43ZM96.87,64.37c0-2.28-1.24-4.08-3.4-4.08-.85,0-1.12.26-1.12.87v5.31c0,.65.44.97,1.6.97,1.95,0,2.92-1.05,2.92-3.07Z"/>
    <path class="st1" d="M100.9,63.92c0-2.42,1.72-4.42,4.34-4.42s4.32,1.83,4.32,4.32-1.71,4.44-4.34,4.44c-2.49,0-4.32-1.84-4.32-4.33h0ZM108.14,64.48c0-2.42-1.64-4.17-3.36-4.17-1.05,0-2.44.69-2.44,2.94,0,2.44,1.64,4.19,3.35,4.19,1.05,0,2.45-.69,2.45-2.95h0Z"/>
    <path class="st1" d="M122.58,68.05h-3.12c-.08,0-.14-.39-.07-.41.5-.08.87-.32.84-1.08l-.23-4.02-1.94,3.95c-.25.51-.44,1.04-.48,1.23-.02.14-.28.22-.47.22-.18,0-.3-.07-.37-.22l-2.76-5.24-.18,4.08c-.04.84.45,1.03.84,1.08.1.01.02.41-.06.41h-2.48c-.1,0-.17-.39-.07-.41.51-.06.94-.24.99-1.08l.38-6.86c.01-.2.47-.22.59,0l3.47,6.48,3.22-6.48c.11-.22.59-.2.6,0l.38,6.86c.05.84.48,1.02.98,1.08.1.01.02.41-.06.41h0Z"/>
    <path class="st1" d="M125.03,67.65c.61-.08.99-.32.99-1.08v-5.41c0-.75-.38-.99-.99-1.08-.1,0-.02-.41.07-.41h3.28c.1,0,.17.39.07.41-.51.07-.99.24-.99,1.08v5.41c0,.84.48,1,.99,1.08.1.01.02.41-.07.41h-3.28c-.1,0-.17-.39-.07-.41Z"/>
    <path class="st1" d="M138.28,67.95l-5.69-5.96v4.54c0,.81.48.94,1.16,1.11.1.02.05.41-.07.41h-2.83c-.1,0-.17-.37-.06-.41.5-.17.98-.26.98-1.11v-4.64c0-.85-.13-1.26-.44-1.67-.11-.14-.22-.24-.22-.28,0-.11.07-.26.24-.26h.88c.12,0,.2,0,.29.11l5.57,5.9v-4.5c0-.85-.54-.94-1.16-1.1-.1-.02-.05-.41.07-.41h2.83c.1,0,.16.38.06.41-.53.16-.98.25-.98,1.1v4.65c0,.79.02,1.66.14,2.1.05.18-.14.23-.33.23-.2,0-.31-.08-.44-.23h0Z"/>
    <path class="st1" d="M142.3,67.65c.61-.08.99-.32.99-1.08v-5.41c0-.75-.38-.99-.99-1.08-.1,0-.02-.41.07-.41h3.28c.1,0,.17.39.07.41-.51.07-.99.24-.99,1.08v5.41c0,.84.48,1,.99,1.08.1.01.02.41-.07.41h-3.28c-.1,0-.17-.39-.07-.41Z"/>
    <path class="st1" d="M148.24,64.02c0-2.07,1.27-4.53,4.62-4.53,1.39,0,2.58.43,2.44.85l-.16.47c-.43,1.28-.9-.36-3.03-.36-1.71,0-2.55,1.11-2.55,2.83,0,2.69,2.05,3.81,3.68,3.81.22,0,1.3-.17,1.93-.56.1-.06.35.22.28.32-.51.75-2.12,1.39-2.49,1.39-2.01,0-4.72-1.17-4.72-4.22h0Z"/>
    <path class="st1" d="M166.37,68.05h-3.16c-.16,0-.17-.38-.04-.41.44-.08.92-.24.48-1.27l-.13-.3c-.12-.29-.32-.31-.68-.31h-2.44c-.36,0-.56.02-.68.31l-.12.3c-.42,1.03.04,1.18.61,1.27.16.02.12.41-.04.41h-2.58c-.14,0-.18-.38-.04-.41.49-.08.78-.25,1.22-1.27l2.02-4.64c.47-1.05.61-1.54.61-2,0-.07.84-.26.87-.18l2.92,6.8c.43,1.02.72,1.21,1.2,1.28.17.02.12.41-.02.41h0ZM163.04,64.91l-1.4-3.35-1.41,3.35c-.07.17.11.19.28.19h2.26c.17,0,.35-.02.28-.19h0Z"/>
    <path class="st1" d="M176.11,67.95l-5.69-5.96v4.54c0,.81.48.94,1.16,1.11.1.02.05.41-.07.41h-2.83c-.1,0-.17-.37-.06-.41.5-.17.98-.26.98-1.11v-4.64c0-.85-.13-1.26-.44-1.67-.11-.14-.22-.24-.22-.28,0-.11.07-.26.24-.26h.88c.12,0,.2,0,.29.11l5.57,5.9v-4.5c0-.85-.54-.94-1.16-1.1-.1-.02-.05-.41.07-.41h2.83c.1,0,.16.38.06.41-.53.16-.98.25-.98,1.1v4.65c0,.79.02,1.66.14,2.1.05.18-.14.23-.33.23-.2,0-.31-.08-.44-.23h0Z"/>
    <path class="st1" d="M188.46,68.05h-3.16c-.16,0-.17-.38-.04-.41.44-.08.92-.24.48-1.27l-.13-.3c-.12-.29-.32-.31-.68-.31h-2.44c-.36,0-.56.02-.68.31l-.12.3c-.42,1.03.04,1.18.61,1.27.16.02.12.41-.04.41h-2.58c-.14,0-.18-.38-.04-.41.49-.08.78-.25,1.22-1.27l2.02-4.64c.47-1.05.61-1.54.61-2,0-.07.84-.26.87-.18l2.92,6.8c.43,1.02.72,1.21,1.2,1.28.17.02.12.41-.02.41h0ZM185.12,64.91l-1.4-3.35-1.41,3.35c-.07.17.11.19.28.19h2.26c.17,0,.35-.02.28-.19h0Z"/>
  </g>
  <rect class="st0" x="1.17" y="75.18" width="43.23" height="2.05"/>
  <g>
    <path class="st0" d="M10.09,94.79s.05.04.05.13-.01.17-.04.26c-.03.08-.06.12-.1.12h-3.93s-.06-.05-.09-.13c-.03-.08-.04-.17-.04-.26s.02-.13.05-.13c.36-.04.63-.16.81-.35.17-.19.26-.47.26-.85v-2.11c-.04-.15-.24-.23-.58-.23h-2.84c-.35,0-.55.08-.6.23v2.11c0,.29.06.52.17.7.11.17.24.29.38.35.14.06.32.1.54.14.03,0,.05.04.05.13s-.01.17-.04.26c-.03.08-.06.12-.09.12H.13s-.06-.05-.09-.13c-.03-.08-.04-.17-.04-.26s.02-.14.05-.14c.37-.04.64-.15.81-.33s.26-.46.26-.85v-5.83c0-.39-.08-.67-.26-.85-.17-.18-.44-.3-.81-.34-.03,0-.05-.05-.05-.14s0-.17.04-.26c.03-.08.06-.13.09-.13h3.93s.06.04.09.12.04.17.04.26-.02.14-.05.14c-.22.03-.4.08-.54.13-.14.06-.26.17-.37.35-.11.17-.16.41-.16.7v2.27c.04.15.24.22.6.22h2.84c.34,0,.53-.08.58-.22v-2.27c0-.38-.09-.66-.26-.85-.17-.19-.44-.3-.81-.35-.03,0-.05-.05-.05-.14s.01-.17.04-.26c.03-.08.06-.13.09-.13h3.93s.06.04.09.12.04.17.04.26-.02.14-.05.14c-.22.03-.4.08-.54.13-.14.06-.26.17-.37.35-.11.17-.16.41-.16.7v5.83c0,.29.06.52.17.7.11.17.24.29.38.35s.32.1.54.13l-.02.08h-.02Z"/>
    <path class="st0" d="M20.48,94.74c.08.02.12.11.11.27-.01.16-.06.24-.13.24h-3.81c-.08,0-.13-.08-.14-.24,0-.16.03-.25.1-.27.15-.03.27-.06.36-.1s.18-.1.26-.19c.08-.09.12-.23.11-.4s-.08-.39-.19-.66l-.07-.12c-.06-.17-.13-.28-.21-.32s-.22-.07-.41-.07h-2.58c-.21,0-.36.02-.44.06s-.16.15-.23.32l-.04.12c-.11.25-.17.46-.17.64s.03.32.12.41c.09.09.19.15.3.19.11.04.25.07.43.1.08.02.12.11.11.27-.01.16-.06.24-.15.24h-2.97c-.07,0-.11-.08-.12-.24-.01-.16.02-.25.09-.27.29-.05.53-.16.71-.33s.38-.51.6-1.02l2.23-5.18c.44-1,.67-1.71.68-2.12,0-.04.15-.1.46-.17.31-.06.47-.08.49-.03l3.22,7.5c.22.51.42.85.61,1.02s.42.28.7.33v.02h-.03ZM16.21,92.04c.06,0,.11,0,.15-.02.04-.01.08-.03.11-.06s.03-.08,0-.13l-1.32-3.19-1.33,3.19c-.03.08-.03.14.03.17.05.03.13.04.24.04h2.13-.01Z"/>
    <path class="st0" d="M25.73,95.46c-.59,0-1.17-.09-1.74-.26-.57-.17-1.12-.44-1.64-.79-.52-.35-.95-.83-1.27-1.45-.32-.62-.48-1.33-.48-2.12,0-.6.1-1.18.28-1.75.19-.57.47-1.1.85-1.6.38-.5.91-.91,1.6-1.22s1.49-.46,2.4-.46c.5,0,.98.04,1.42.13s.79.21,1.02.36.32.3.27.44l-.2.57c-.12.33-.22.53-.33.62-.1.08-.24.08-.41,0s-.36-.2-.56-.34-.49-.28-.88-.41c-.39-.13-.81-.19-1.25-.19-.88,0-1.53.26-1.93.79-.41.52-.61,1.24-.61,2.14,0,.71.12,1.35.37,1.89.25.55.58.97.98,1.27.4.3.81.53,1.24.68.42.15.86.22,1.29.22.2,0,.55-.05,1.06-.15s.86-.21,1.06-.35c.05-.03.14.01.24.14.11.13.15.22.12.28-.25.38-.72.73-1.4,1.05s-1.17.48-1.46.48l-.03.03h-.01Z"/>
    <path class="st0" d="M29.62,95.25s-.06-.04-.09-.13-.04-.17-.04-.26.02-.14.05-.14c.37-.04.64-.15.81-.33s.26-.46.26-.85v-5.83c0-.39-.08-.67-.26-.85-.17-.18-.44-.3-.81-.34-.03,0-.05-.05-.05-.14s.01-.17.04-.26c.03-.08.06-.13.09-.13h3.93s.06.04.09.12.04.17.04.26-.02.14-.05.14c-.22.03-.4.08-.54.13-.14.06-.26.17-.37.35-.11.17-.16.41-.16.7v5.83c0,.29.06.52.17.7.11.17.24.29.38.35s.32.1.54.13c.03,0,.05.04.05.14s0,.17-.04.26c-.03.08-.06.12-.09.12h-3.93v.03h-.02Z"/>
    <path class="st0" d="M34.35,95.28c-.06,0-.1-.08-.12-.27-.03-.19,0-.29.04-.31.26-.07.44-.12.55-.16.1-.04.23-.1.39-.19.15-.09.26-.21.32-.36s.08-.34.08-.58v-5.76c0-.24-.06-.45-.17-.62s-.24-.28-.37-.35c-.13-.06-.31-.13-.54-.19-.03,0-.05-.05-.05-.13s0-.17.03-.24c.02-.08.04-.12.07-.12.22.03.52.06.9.07s.72.02,1.02.02h1.62c.48,0,1.09-.01,1.84-.04s1.2-.04,1.35-.04.24.04.28.14c.04.1.04.22,0,.39l-.3,1.27c-.02.1-.09.14-.21.14s-.2-.05-.23-.15c-.08-.24-.18-.43-.32-.56s-.35-.23-.64-.3c-.3-.07-.71-.11-1.24-.11-.41,0-.69.06-.86.2-.17.13-.25.35-.25.66v2.09c0,.16.04.27.11.33s.18.08.33.08h.34c1.14,0,1.93-.17,2.38-.53.08-.07.17-.09.26-.06.1.03.12.12.06.24l-.72,1.66c-.06.12-.13.19-.22.19s-.17-.05-.25-.16c-.27-.41-.8-.62-1.58-.62h-.25c-.15,0-.26.03-.33.08s-.1.17-.1.33v2.09c0,.39.09.66.27.82.18.16.52.24,1.02.24.77,0,1.4-.15,1.92-.46.52-.31.88-.62,1.1-.95.03-.06.12-.06.27-.02s.23.12.23.21c0,.36-.15.79-.44,1.28-.3.5-.64.74-1.03.73-1.2-.05-2.03-.08-2.51-.08-2.16,0-3.5.03-4.02.08v.03h-.03Z"/>
    <path class="st0" d="M51.92,95.38c-.2,0-.38-.08-.54-.24l-6.18-6.14v4.49c0,.22.03.4.08.54s.15.26.32.35c.16.09.3.15.42.19s.32.09.6.16c.05,0,.06.1.04.26-.02.17-.06.25-.13.25h-3.4s-.09-.08-.11-.24c-.02-.16,0-.25.06-.27.04-.03.13-.06.27-.12.13-.05.24-.1.3-.13.06-.04.14-.1.23-.17s.15-.19.19-.33c.04-.14.06-.31.06-.5v-4.93c0-.17,0-.33-.02-.48,0-.15-.03-.27-.04-.36,0-.09-.04-.19-.08-.3s-.06-.19-.08-.23-.05-.11-.1-.21-.08-.17-.09-.19c-.04-.07-.09-.14-.14-.21-.05-.06-.09-.12-.12-.15s-.04-.05-.04-.06c0-.22.1-.33.32-.33h1.06c.14,0,.24.04.31.12l6.04,6.05v-4.43c0-.21-.03-.39-.08-.53-.05-.14-.15-.26-.29-.34-.14-.08-.26-.14-.37-.17-.1-.03-.27-.08-.51-.15-.07-.02-.12-.03-.16-.04-.05,0-.06-.1-.04-.26s.06-.25.12-.25h3.41s.08.08.1.25c.02.17,0,.26-.04.26-.02,0-.08.03-.18.06-.1.04-.17.06-.19.06s-.08.03-.16.06c-.08.03-.13.06-.16.08-.03.02-.06.05-.12.1s-.1.1-.12.14-.04.1-.08.17-.05.15-.06.23c0,.08,0,.18,0,.29v4.96c0,1.17.05,1.98.16,2.43.02.08,0,.14-.08.17-.07.03-.19.05-.35.05v.03h-.02Z"/>
    <path class="st0" d="M53.95,95.24c-.06,0-.1-.08-.12-.27s0-.29.04-.31c.26-.07.44-.12.55-.16.1-.04.23-.1.39-.19.15-.09.26-.21.32-.36s.08-.34.08-.58v-5.76c0-.36-.1-.62-.28-.79-.19-.16-.45-.29-.79-.38-.03,0-.05-.05-.05-.13s0-.17.03-.24.04-.12.07-.12c.43.05,1.04.08,1.82.08.44,0,.97-.01,1.58-.04.62-.03,1.02-.04,1.19-.04,1.5,0,2.7.41,3.59,1.24.89.83,1.33,1.89,1.33,3.19,0,.84-.19,1.62-.55,2.34s-.93,1.33-1.7,1.8c-.77.48-1.66.72-2.69.72-.17,0-.53-.01-1.1-.04s-1.06-.04-1.47-.04c-1.01,0-1.75.03-2.23.08h0ZM59.05,94.47c.95,0,1.64-.26,2.06-.77.42-.52.64-1.31.64-2.37,0-1.35-.32-2.45-.95-3.3-.63-.86-1.48-1.29-2.53-1.29-.41,0-.7.07-.87.21s-.26.37-.26.67v5.76c0,.72.63,1.08,1.9,1.08h0,0Z"/>
    <path class="st0" d="M73.82,94.74c.08.02.12.11.11.27-.01.16-.06.24-.13.24h-3.81c-.08,0-.13-.08-.14-.24,0-.16.03-.25.1-.27.15-.03.27-.06.36-.1.09-.04.18-.1.26-.19.08-.09.12-.23.11-.4s-.08-.39-.19-.66l-.07-.12c-.06-.17-.13-.28-.21-.32s-.22-.07-.41-.07h-2.58c-.21,0-.36.02-.44.06s-.16.15-.23.32l-.04.12c-.11.25-.17.46-.17.64s.03.32.12.41.19.15.3.19.25.07.43.1c.08.02.12.11.11.27-.01.16-.06.24-.15.24h-2.97c-.07,0-.11-.08-.12-.24-.01-.16.02-.25.09-.27.29-.05.53-.16.71-.33s.38-.51.6-1.02l2.23-5.18c.44-1,.67-1.71.68-2.12,0-.04.15-.1.46-.17.31-.06.47-.08.49-.03l3.22,7.5c.22.51.42.85.61,1.02s.42.28.7.33v.02h-.03ZM69.55,92.04c.06,0,.11,0,.15-.02.04-.01.08-.03.11-.06s.03-.08,0-.13l-1.32-3.19-1.33,3.19c-.03.08-.03.14.03.17.05.03.13.04.24.04h2.13,0Z"/>
    <path class="st0" d="M85.83,86.01c.07,0,.12.08.13.24.01.16-.01.25-.08.27-.51.07-1.02.51-1.55,1.33l-2.03,3.17v2.52c0,.42.1.71.31.86s.54.26,1,.32c.03,0,.04.04.04.14s-.01.17-.03.26-.04.12-.08.12h-4.43s-.06-.04-.08-.13c-.03-.08-.04-.17-.04-.26s.01-.14.04-.14c.48-.07.82-.19,1.02-.35.2-.16.3-.44.3-.85v-2.43l-2.16-3.25c-.31-.46-.57-.79-.79-.99-.21-.21-.46-.33-.73-.36-.08-.02-.12-.11-.11-.27.01-.16.06-.24.15-.24h3.81c.08,0,.13.08.14.24,0,.16-.03.25-.1.27-.3.04-.48.17-.53.39-.05.21.05.53.3.95l1.53,2.29,1.49-2.29c.24-.41.31-.72.21-.93s-.33-.35-.68-.41c-.1-.02-.13-.11-.12-.27.01-.16.06-.24.14-.24h2.94v.03h0Z"/>
    <path class="st0" d="M88.75,95.28c-.06,0-.1-.08-.12-.27-.03-.19-.01-.29.04-.31.26-.07.44-.12.55-.16.1-.04.23-.1.39-.19.15-.09.26-.21.32-.36s.08-.34.08-.58v-5.76c0-.24-.06-.45-.17-.62s-.24-.28-.37-.35c-.13-.06-.31-.13-.54-.19-.03,0-.05-.05-.05-.13s.01-.17.03-.24c.02-.08.04-.12.07-.12.22.03.52.06.9.07.38.01.72.02,1.02.02h1.62c.48,0,1.09-.01,1.84-.04s1.2-.04,1.35-.04.24.04.28.14.04.22,0,.39l-.3,1.27c-.02.1-.09.14-.21.14s-.2-.05-.23-.15c-.08-.24-.18-.43-.32-.56s-.35-.23-.64-.3c-.3-.07-.71-.11-1.24-.11-.41,0-.69.06-.86.2-.17.13-.25.35-.25.66v2.09c0,.16.04.27.11.33s.18.08.33.08h.34c1.14,0,1.93-.17,2.38-.53.08-.07.17-.09.26-.06.1.03.12.12.06.24l-.72,1.66c-.06.12-.13.19-.22.19s-.17-.05-.25-.16c-.27-.41-.8-.62-1.58-.62h-.25c-.15,0-.26.03-.33.08s-.1.17-.1.33v2.09c0,.39.09.66.27.82.18.16.52.24,1.02.24.77,0,1.4-.15,1.92-.46s.88-.62,1.1-.95c.03-.06.12-.06.27-.02s.23.12.23.21c0,.36-.15.79-.44,1.28-.3.5-.64.74-1.03.73-1.2-.05-2.03-.08-2.51-.08-2.16,0-3.5.03-4.02.08v.03h-.03Z"/>
    <path class="st0" d="M102.69,95.46c-.59,0-1.17-.09-1.74-.26-.57-.17-1.12-.44-1.64-.79s-.95-.83-1.27-1.45c-.32-.62-.48-1.33-.48-2.12,0-.6.1-1.18.28-1.75.19-.57.47-1.1.85-1.6s.91-.91,1.6-1.22c.69-.31,1.49-.46,2.4-.46.5,0,.98.04,1.42.13s.79.21,1.02.36c.23.15.32.3.27.44l-.2.57c-.12.33-.22.53-.33.62-.1.08-.24.08-.41,0-.17-.08-.36-.2-.56-.34s-.49-.28-.88-.41c-.39-.13-.81-.19-1.25-.19-.88,0-1.53.26-1.93.79-.41.52-.61,1.24-.61,2.14,0,.71.12,1.35.37,1.89.25.55.58.97.98,1.27.4.3.81.53,1.24.68.42.15.86.22,1.29.22.2,0,.55-.05,1.06-.15s.86-.21,1.06-.35c.05-.03.14.01.24.14.11.13.15.22.12.28-.25.38-.72.73-1.4,1.05s-1.17.48-1.46.48l-.03.03h0Z"/>
    <path class="st0" d="M111.45,95.45c-1.37,0-2.51-.45-3.43-1.35s-1.37-2.04-1.37-3.41.45-2.53,1.35-3.48,2.06-1.42,3.48-1.42,2.53.44,3.44,1.33,1.37,2.02,1.37,3.4-.45,2.54-1.35,3.49-2.05,1.42-3.48,1.42v.02h-.01ZM111.99,94.41c.62,0,1.17-.24,1.64-.73.47-.49.71-1.26.71-2.31,0-1.25-.35-2.32-1.06-3.2-.7-.88-1.5-1.33-2.4-1.33-.62,0-1.16.24-1.63.73s-.7,1.26-.7,2.3c0,1.26.35,2.33,1.06,3.21.7.88,1.5,1.33,2.39,1.33h-.02,0Z"/>
    <path class="st0" d="M126.05,95.38c-.2,0-.38-.08-.54-.24l-6.18-6.14v4.49c0,.22.03.4.08.54s.15.26.32.35c.16.09.3.15.42.19.12.04.32.09.6.16.05,0,.06.1.04.26-.02.17-.06.25-.13.25h-3.4c-.05,0-.09-.08-.11-.24-.02-.16,0-.25.06-.27.04-.03.13-.06.27-.12.13-.05.24-.1.3-.13.06-.04.14-.1.23-.17s.15-.19.19-.33.06-.31.06-.5v-4.93c0-.17,0-.33-.02-.48-.01-.15-.03-.27-.04-.36-.01-.09-.04-.19-.08-.3s-.06-.19-.08-.23c-.02-.04-.05-.11-.1-.21s-.08-.17-.09-.19c-.04-.07-.09-.14-.14-.21-.05-.06-.09-.12-.12-.15-.03-.03-.04-.05-.04-.06,0-.22.1-.33.32-.33h1.06c.14,0,.24.04.31.12l6.04,6.05v-4.43c0-.21-.03-.39-.08-.53s-.15-.26-.29-.34c-.14-.08-.26-.14-.37-.17-.1-.03-.27-.08-.51-.15-.07-.02-.12-.03-.16-.04-.05,0-.06-.1-.04-.26s.06-.25.12-.25h3.41s.08.08.1.25,0,.26-.04.26c-.02,0-.08.03-.18.06-.1.04-.17.06-.19.06s-.08.03-.16.06-.13.06-.16.08c-.03.02-.06.05-.12.1s-.1.1-.12.14-.04.1-.08.17-.05.15-.06.23c0,.08-.01.18-.01.29v4.96c0,1.17.05,1.98.16,2.43.02.08,0,.14-.08.17-.07.03-.19.05-.35.05v.03h-.02Z"/>
    <path class="st0" d="M133.14,95.45c-1.37,0-2.51-.45-3.43-1.35s-1.37-2.04-1.37-3.41.45-2.53,1.35-3.48,2.06-1.42,3.48-1.42,2.53.44,3.44,1.33,1.37,2.02,1.37,3.4-.45,2.54-1.35,3.49-2.05,1.42-3.48,1.42v.02h-.01ZM133.68,94.41c.62,0,1.17-.24,1.64-.73.47-.49.71-1.26.71-2.31,0-1.25-.35-2.32-1.06-3.2-.7-.88-1.5-1.33-2.4-1.33-.62,0-1.16.24-1.63.73s-.7,1.26-.7,2.3c0,1.26.35,2.33,1.06,3.21.7.88,1.5,1.33,2.39,1.33h-.02,0Z"/>
    <path class="st0" d="M150.83,94.71c.05,0,.06.1.04.26s-.05.25-.1.25h-3.84s-.08-.08-.1-.25,0-.26.02-.26c.69-.12,1.02-.52.99-1.18l-.25-3.89-1.86,3.81c-.3.61-.49,1.09-.57,1.42-.03.16-.24.24-.63.24-.24,0-.4-.08-.48-.24l-2.92-5.49-.17,4.14c-.03.69.3,1.08.97,1.18.05,0,.06.1.04.26-.02.17-.05.25-.1.25h-2.92s-.06-.04-.09-.13c-.03-.08-.04-.17-.04-.26s.02-.13.05-.13c.33-.03.58-.13.76-.3.18-.17.28-.46.31-.88l.46-7.48c0-.13.12-.21.33-.21s.37.06.46.21l3.79,6.95,3.48-6.95c.07-.14.23-.21.46-.21s.35.06.36.2l.46,7.49c.03.42.13.72.32.88s.43.27.74.3h0l.03.02Z"/>
    <path class="st0" d="M151.72,95.26s-.06-.04-.09-.13c-.03-.08-.04-.17-.04-.26s.02-.13.05-.13c.37-.04.64-.15.81-.34.17-.18.26-.46.26-.85v-5.83c0-.39-.08-.67-.26-.85s-.44-.3-.81-.34c-.03,0-.05-.04-.05-.13s0-.17.04-.26c.03-.08.06-.13.09-.13h3.93s.06.04.09.12.04.17.04.26-.02.13-.05.13c-.22.03-.4.08-.54.14s-.26.17-.37.35c-.11.17-.16.41-.16.7v5.83c0,.29.06.52.17.7.11.17.24.29.38.35s.32.1.54.14c.03,0,.05.04.05.13s0,.17-.04.26c-.03.08-.06.12-.09.12h-3.93v.03h-.02ZM153.73,82.66c.07-.11.22-.1.45.04s.42.31.58.53c.15.22.19.36.09.43l-1.69,1.27c-.08.07-.21.01-.39-.17s-.24-.32-.18-.4l1.14-1.7Z"/>
    <path class="st0" d="M166.13,94.74c.08.02.12.11.11.27,0,.16-.06.24-.14.24h-3.81c-.08,0-.13-.08-.14-.24,0-.16.03-.25.1-.27.15-.03.27-.06.36-.1s.18-.1.26-.19c.08-.09.12-.23.11-.4s-.08-.39-.19-.66l-.07-.12c-.06-.17-.13-.28-.21-.32s-.22-.07-.41-.07h-2.58c-.21,0-.36.02-.44.06s-.16.15-.23.32l-.04.12c-.11.25-.17.46-.17.64s.03.32.12.41c.09.09.19.15.3.19s.25.07.43.1c.08.02.12.11.11.27,0,.16-.06.24-.15.24h-2.97c-.07,0-.11-.08-.12-.24,0-.16.02-.25.09-.27.29-.05.53-.16.71-.33.18-.17.38-.51.6-1.02l2.23-5.18c.44-1,.67-1.71.68-2.12,0-.04.15-.1.46-.17.31-.06.47-.08.49-.03l3.22,7.5c.22.51.42.85.61,1.02s.42.28.7.33v.02h-.02ZM161.86,92.04c.06,0,.11,0,.15-.02.04-.01.08-.03.11-.06s.03-.08,0-.13l-1.32-3.19-1.33,3.19c-.03.08-.03.14.03.17.05.03.13.04.24.04h2.13,0Z"/>
  </g>
  <path class="st1" d="M44.1,40.22H1.11c-.13,0-.24.11-.24.24v1.02c0,.13.11.24.24.24h42.99c.13,0,.24-.11.24-.24v-1.02c0-.13-.11-.24-.24-.24ZM23.52,39.68c.13,0,.24-.11.24-.24v-1.83c0-.13-.11-.24-.24-.24h-1.83c-.13,0-.24.11-.24.24v1.83c0,.13.11.24.24.24h1.83ZM32.5,39.68c.13,0,.24-.11.24-.24v-1.83c0-.13-.11-.24-.24-.24h-1.83c-.13,0-.24.11-.24.24v1.83c0,.13.11.24.24.24h1.83ZM14.55,39.68c.13,0,.24-.11.24-.24v-1.83c0-.13-.11-.24-.24-.24h-1.83c-.13,0-.24.11-.24.24v1.83c0,.13.11.24.24.24h1.83ZM38.07,39.68c-.13,0-.24-.11-.24-.24v-1.83c0-.13.11-.24.24-.24h1.83c.13,0,.24.11.24.24v1.83c0,.13-.11.24-.24.24h-1.83ZM7.15,39.68c.13,0,.24-.11.24-.24v-1.83c0-.13-.11-.24-.24-.24h-1.83c-.13,0-.24.11-.24.24v1.83c0,.13.11.24.24.24h1.83ZM44.34,36.14v.36c0,.07-.06.13-.13.13H1.01c-.07,0-.13-.06-.13-.13v-.36c0-.07.06-.13.13-.13h4.04v-.64c0-.13.11-.24.24-.24h1.86c.13,0,.24.11.24.24v.64h5.09v-.64c0-.13.11-.24.24-.24h1.86c.13,0,.24.11.24.24v.64h6.58v-.64c0-.13.11-.24.24-.24h1.86c.13,0,.24.11.24.24v.64h6.69v-.64c0-.13.11-.24.24-.24h1.8c.13,0,.24.11.24.24v.64h5.09v-.64c0-.13.11-.24.24-.24h1.8c.13,0,.24.11.24.24v.64h4.1c.07,0,.13.06.13.13h.03ZM21.56,34.5V15.59s-.78.7-1.11,1.06c-.57.61-1.11,1.29-1.61,2.04-.82,1.22-1.54,2.6-2.15,4.13s-1.12,3.27-1.47,5.08c-.35,1.82-.55,3.75-.59,5.75v.86h6.93ZM30.58,34.5v-.86c-.03-2-.24-3.93-.59-5.75s-.85-3.52-1.47-5.08c-.6-1.52-1.33-2.91-2.15-4.13-.5-.75-1.04-1.43-1.61-2.04-.33-.35-1.11-1.06-1.11-1.06v18.91h6.93ZM17.09,17.63c.73-1.15,1.54-2.01,1.82-2.29.06-.06.14-.14.14-.14,0,0-.14.06-.19.09-1.71.77-3.3,1.88-4.72,3.28-1.22,1.2-2.32,2.61-3.27,4.19-.19.32-1.58,2.91-1.87,3.63-.78,1.93-1.23,3.85-1.49,5.5-.09.55-.31,2.62-.31,2.62h5.42s.1-3.24.21-4.32c.24-2.28.68-4.36,1.3-6.27.75-2.31,1.75-4.38,2.96-6.28h0ZM31.09,23.9c.62,1.92,1.06,4,1.3,6.27.11,1.09.21,4.32.21,4.32h5.42s-.22-2.07-.31-2.62c-.26-1.65-.71-3.57-1.49-5.5-.29-.72-1.68-3.32-1.87-3.63-.95-1.58-2.05-2.99-3.27-4.19-1.42-1.4-3.01-2.51-4.72-3.28-.05-.02-.19-.09-.19-.09,0,0,.08.08.14.14.27.28,1.08,1.14,1.82,2.29,1.21,1.9,2.21,3.97,2.96,6.28h0ZM5.18,34.5s.2-2.21.59-4.16c.33-1.67.86-3.12.92-3.3.33-.94.71-2,1.29-3.14,1.05-2.06,2.11-3.98,4.03-6.01.59-.62,1.24-1.28,2.01-1.91.33-.28,1.22-.93,1.64-1.21.1-.06.4-.24.4-.24,0,0-.33.14-.42.18-.61.26-1.21.55-1.8.86-1.28.69-2.49,1.5-3.61,2.42-1.91,1.57-3.55,3.44-4.85,5.55-1.69,2.74-2.81,5.87-3.18,9.22-.06.52-.13,1.75-.13,1.75h3.11ZM43.14,34.5s-.07-1.23-.13-1.75c-.38-3.35-1.49-6.48-3.18-9.22-1.3-2.11-2.95-3.99-4.85-5.55-1.12-.92-2.32-1.73-3.61-2.42-.58-.31-1.18-.6-1.8-.86-.09-.04-.42-.18-.42-.18,0,0,.31.17.4.24.43.28,1.31.93,1.64,1.21.77.64,1.42,1.3,2.01,1.91,1.92,2.03,2.98,3.95,4.03,6.01.58,1.14.95,2.2,1.29,3.14.06.18.59,1.64.92,3.3.39,1.95.59,4.16.59,4.16h3.11ZM18.56,13.89h8.09c.07,0,.13-.06.13-.13v-.31c0-.07-.06-.13-.13-.13h-8.09c-.07,0-.13.06-.13.13v.31c0,.07.06.13.13.13ZM18.56,7.79h8.09c.07,0,.13-.06.13-.13v-.31c0-.07-.06-.13-.13-.13h-8.09c-.07,0-.13.06-.13.13v.31c0,.07.06.13.13.13ZM25.05,8.13c.13,0,.24.11.24.24v4.2c0,.13-.11.24-.24.24h-.79c-.13,0-.24-.11-.24-.24v-4.2c0-.13.11-.24.24-.24h.79ZM22.21,8.13c-.13,0-.24.11-.24.24v4.2c0,.13.11.24.24.24h.79c.13,0,.24-.11.24-.24v-4.2c0-.13-.11-.24-.24-.24h-.79ZM20.16,8.13c-.13,0-.24.11-.24.24v4.2c0,.13.11.24.24.24h.79c.13,0,.24-.11.24-.24v-4.2c0-.13-.11-.24-.24-.24h-.79ZM25.72,6.45c-.17-1.62-1.47-2.88-3.06-2.91v-.53h.85v-.41s-.01-.03-.03-.03h-.13s-.03,0-.03.03v.31h-.67v-1.21h.02s.04-.02.04-.04v-.33s-.02-.04-.04-.04h-.15s-.04.02-.04.04v.33s.02.04.04.04h.02v1.21h-.68v-.31s-.01-.03-.03-.03h-.13s-.03,0-.03.03v.41h.86v.53c-1.59.03-2.89,1.3-3.06,2.92-.01.11-.02.35-.02.35h6.26s0-.25-.02-.36h.03Z"/>
</svg>