<svg xmlns="http://www.w3.org/2000/svg" xmlns:xlink="http://www.w3.org/1999/xlink" width="565" height="184" viewBox="0 0 565 184">
  <defs>
    <clipPath id="clip-logolanding">
      <rect width="565" height="184"/>
    </clipPath>
  </defs>
  <g id="logolanding" clip-path="url(#clip-logolanding)">
    <g id="Group_1" data-name="Group 1" transform="translate(-427.5 -340)">
      <path id="Path_48" data-name="Path 48" d="M62.9,56.95c0,2.938,1.679,6.819,4.092,10.7h.21c1.154,1.784,2.728,3.672,3.567,3.672s6.4-8.813,6.4-8.813l4.406,5.351L89.653,55.8l1.679,2.518.21-9.652-8.183,6.4,3.987-.315-5.77,9.023-5.351-6.295s-3.882,5.77-5.77,8.183c-2.1-3.252-3.567-6.4-3.567-8.918,0-7.764,6.714-14.163,14.793-14.163s14.793,6.4,14.793,14.163S81.994,79.821,81.994,79.821a92.071,92.071,0,0,1-7.659-8.708c-.315.629-1.993,2.1-2.308,2.728,5.036,6.609,9.967,12.38,9.967,12.38s18.57-19.3,18.57-29.376S92.171,38.8,81.784,38.8C71.293,38.9,62.9,46.983,62.9,56.95Z" transform="translate(429.942 358.248)" fill="#1a4f70"/>
      <path id="Path_49" data-name="Path 49" d="M87.609,80.808c4.3,1.154,6.295,3.252,4.931,5.351s-5.56,3.567-10.7,3.567S72.4,88.362,70.823,86.368c-1.469-2.1.315-4.3,4.511-5.455L71.872,78.6c-6.714,1.888-9.442,5.246-7.134,8.5s9.127,5.351,17.1,5.351,14.583-2.308,16.681-5.56-.944-6.61-7.764-8.393Z" transform="translate(429.993 360.198)" fill="#1a4f70"/>
      <path id="Path_50" data-name="Path 50" d="M135.349,117.669H70.3L37.99,142.218a3.96,3.96,0,0,1-5.455-.734,3.639,3.639,0,0,1-.734-3.042l3.882-20.878a12.211,12.211,0,0,1-6.714-3.462l-.21-.21a12.343,12.343,0,0,1-3.357-8.5V36.466a12.041,12.041,0,0,1,3.672-8.708h0a12.473,12.473,0,0,1,8.708-3.672H77.542V19.68a12.343,12.343,0,0,1,3.357-8.5l.21-.21A12.473,12.473,0,0,1,89.817,7.3h97.674a12.041,12.041,0,0,1,8.708,3.672h0a12.473,12.473,0,0,1,3.672,8.708V88.5a11.866,11.866,0,0,1-3.672,8.708h0a12.573,12.573,0,0,1-6.714,3.462l3.882,20.878a3.558,3.558,0,0,1-.734,3.042,3.865,3.865,0,0,1-5.455.734l-32.313-24.55h-7.134v4.406a11.866,11.866,0,0,1-3.672,8.708l-.21.21a11.477,11.477,0,0,1-8.5,3.567Zm12.485-72.18v17.52m0,7.764V93.014h8.393a3.726,3.726,0,0,1,2.623,1.049l25.074,18.989L181.091,97.63a3.847,3.847,0,0,1,3.147-4.511H187.7a4.6,4.6,0,0,0,3.252-1.364h0a4.6,4.6,0,0,0,1.364-3.252V19.68a4.6,4.6,0,0,0-1.364-3.252h0a4.6,4.6,0,0,0-3.252-1.364H89.922a4.6,4.6,0,0,0-3.252,1.364h-.1a5.06,5.06,0,0,0-1.154,3.147v4.511h50.044a12.041,12.041,0,0,1,8.708,3.672h0a12.473,12.473,0,0,1,3.672,8.708V37.62m-78.79,72.285h66.305a4.378,4.378,0,0,0,3.042-1.154h.1a5.053,5.053,0,0,0,1.364-3.357V36.466a4.6,4.6,0,0,0-1.364-3.252h0a4.6,4.6,0,0,0-3.252-1.364H37.465a4.6,4.6,0,0,0-3.252,1.364h0a4.6,4.6,0,0,0-1.364,3.252v68.823A4.378,4.378,0,0,0,34,108.331h.1A4.3,4.3,0,0,0,37.36,109.8h3.357a3.9,3.9,0,0,1,3.147,4.511l-2.833,15.422,25.074-18.989a5.675,5.675,0,0,1,2.938-.944Z" transform="translate(428.1 356.7)" fill="#1a4f70" fill-rule="evenodd"/>
      <path id="Path_51" data-name="Path 51" d="M246.736,95.018V67.845L233.307,90.3h-4.721L215.262,68.475V95.123H205.4V49.8h8.708l17,28.117L247.785,49.8h8.6V95.123h-9.757Z" transform="translate(436.944 358.788)" fill="#1a4f70"/>
      <path id="Path_52" data-name="Path 52" d="M294.748,74.722V94.551h-9.442v-4.3c-1.889,3.147-5.456,4.826-10.6,4.826-8.183,0-13.009-4.511-13.009-10.6s4.3-10.386,15-10.386h8.078c0-4.3-2.623-6.819-8.078-6.819s-7.554,1.259-10.072,3.252L262.959,63.5c3.777-2.728,9.442-4.2,15-4.2,10.6,0,16.786,4.931,16.786,15.527Zm-10.072,8.813V79.968h-6.924c-4.721,0-6.19,1.784-6.19,4.092s2.1,4.2,5.665,4.2S283.522,86.682,284.676,83.535Z" transform="translate(439.71 359.255)" fill="#1a4f70"/>
      <path id="Path_53" data-name="Path 53" d="M339.874,77.14c0,10.911-7.554,17.94-17.311,17.94s-7.868-1.364-10.491-4.2v16.262H302V59.725h9.652v3.987c2.518-3.042,6.295-4.511,10.911-4.511C332.32,59.2,339.874,66.229,339.874,77.14Zm-10.281,0c0-5.98-3.777-9.652-8.918-9.652s-8.918,3.672-8.918,9.652,3.777,9.652,8.918,9.652S329.592,83.12,329.592,77.14Z" transform="translate(441.689 359.25)" fill="#1a4f70"/>
      <path id="Path_54" data-name="Path 54" d="M374.848,74.722V94.551h-9.442v-4.3c-1.888,3.147-5.456,4.826-10.6,4.826-8.183,0-13.009-4.511-13.009-10.6s4.3-10.386,15-10.386h8.078c0-4.3-2.623-6.819-8.078-6.819s-7.554,1.259-10.072,3.252L343.059,63.5c3.777-2.728,9.442-4.2,15-4.2,10.6,0,16.786,4.931,16.786,15.527Zm-10.072,8.813V79.968h-6.924c-4.721,0-6.19,1.784-6.19,4.092s2.1,4.2,5.665,4.2S363.622,86.682,364.776,83.535Z" transform="translate(443.645 359.255)" fill="#1a4f70"/>
      <path id="Path_55" data-name="Path 55" d="M424.246,82.643c0,7.868-6.19,12.38-18.15,12.38H382.7V49.7h22.137c11.331,0,17.206,4.721,17.206,11.75s-2.308,8.078-5.98,9.967a11.142,11.142,0,0,1,8.288,11.226ZM393.087,57.568v10.7h10.386c5.141,0,7.868-1.784,7.868-5.351s-2.832-5.351-7.868-5.351H393.087Zm20.563,24.025c0-3.777-2.938-5.665-8.393-5.665H392.982V87.154h12.275C410.712,87.154,413.649,85.475,413.649,81.594Z" transform="translate(445.655 358.783)" fill="#1a4f70"/>
      <path id="Path_56" data-name="Path 56" d="M427.2,72.4c0-13.429,10.491-23.4,24.76-23.4s24.759,9.862,24.759,23.4-10.6,23.4-24.759,23.4S427.2,85.825,427.2,72.4Zm38.923,0c0-8.6-6.085-14.478-14.163-14.478S437.8,63.793,437.8,72.4s6.085,14.478,14.163,14.478S466.123,81,466.123,72.4Z" transform="translate(447.841 358.749)" fill="#1a4f70"/>
      <path id="Path_57" data-name="Path 57" d="M490.978,58.3H476.5V49.8h39.552v8.5H501.574V95.122H491.083V58.3Z" transform="translate(450.263 358.788)" fill="#1a4f70"/>
    </g>
  </g>
</svg>
