<?xml version="1.0" encoding="utf-8"?>
<!-- Generator: Adobe Illustrator 28.0.0, SVG Export Plug-In . SVG Version: 6.00 Build 0)  -->
<svg version="1.1" id="Capa_1" xmlns="http://www.w3.org/2000/svg" xmlns:xlink="http://www.w3.org/1999/xlink" x="0px" y="0px"
	 width="543.3px" height="256.3px" viewBox="0 0 543.3 256.3" style="enable-background:new 0 0 543.3 256.3;" xml:space="preserve"
	>
<style type="text/css">
	.st0{fill:#221E20;}
	.st1{fill:#EB6325;}
	.st2{fill-rule:evenodd;clip-rule:evenodd;fill:#EB6325;}
</style>
<g>
	<g>
		<path class="st0" d="M54.1,185.4v-27.2l-13.4,22.4h-3.4l-13.4-22v26.8h-7.3v-41h6.3L39,171.6l15.9-27.2h6.3v41H54.1z"/>
		<path class="st0" d="M94.1,157.1c2.5,2.3,3.6,5.6,3.6,10v18.3h-6.9v-3.8c-1,1.3-2.1,2.5-3.8,3.1c-1.7,0.8-3.6,1.1-5.9,1.1
			s-4.4-0.4-6.1-1.1c-1.7-0.8-3.1-1.9-4-3.3c-1-1.3-1.3-3.1-1.3-4.8c0-2.9,1-5,3.1-6.7s5.4-2.5,9.8-2.5h8V167c0-2.1-0.6-3.8-1.9-5
			c-1.3-1.1-3.3-1.7-5.7-1.7c-1.7,0-3.4,0.2-5.2,0.8c-1.7,0.6-3.1,1.3-4.2,2.3l-2.9-5.4c1.7-1.3,3.6-2.1,5.9-2.9
			c2.3-0.6,4.8-1,7.3-1C88.2,153.8,91.6,154.8,94.1,157.1z M87.4,179.1c1.3-0.8,2.5-2.1,3.1-3.6v-3.6H83c-4.2,0-6.3,1.3-6.3,4.2
			c0,1.3,0.6,2.3,1.5,3.1c1,0.8,2.5,1.1,4.4,1.1C84.3,180.4,86.1,180,87.4,179.1z"/>
		<path class="st0" d="M132.6,155.7c2.5,1.3,4.2,3.3,5.6,5.6c1.3,2.5,2.1,5.2,2.1,8.4c0,3.1-0.8,5.9-2.1,8.4s-3.3,4.4-5.6,5.6
			c-2.5,1.3-5.2,1.9-8.2,1.9c-4.2,0-7.5-1.3-10-4.2v15.1h-7.3v-42.3h6.9v4c1.1-1.5,2.7-2.7,4.4-3.3c1.7-0.8,3.6-1.1,5.9-1.1
			C127.4,153.8,130.1,154.4,132.6,155.7z M130.3,176.8c1.7-1.7,2.7-4.2,2.7-7.1s-1-5.4-2.7-7.1c-1.7-1.7-4-2.7-6.7-2.7
			c-1.7,0-3.3,0.4-4.8,1.1s-2.5,1.9-3.3,3.4s-1.1,3.3-1.1,5.2c0,1.9,0.4,3.6,1.1,5.2c0.8,1.5,1.9,2.7,3.3,3.4
			c1.4,0.7,3.1,1.1,4.8,1.1C126.3,179.5,128.6,178.5,130.3,176.8z"/>
		<path class="st0" d="M169.3,157.1c2.5,2.3,3.6,5.6,3.6,10v18.3H166v-3.8c-1,1.3-2.1,2.5-3.8,3.1c-1.7,0.8-3.6,1.1-5.9,1.1
			c-2.3,0-4.4-0.4-6.1-1.1c-1.7-0.8-3.1-1.9-4-3.3s-1.3-3.1-1.3-4.8c0-2.9,1-5,3.1-6.7s5.4-2.5,9.8-2.5h8V167c0-2.1-0.6-3.8-1.9-5
			c-1.3-1.1-3.3-1.7-5.7-1.7c-1.7,0-3.4,0.2-5.2,0.8c-1.7,0.6-3.1,1.3-4.2,2.3l-2.9-5.4c1.7-1.3,3.6-2.1,5.9-2.9
			c2.3-0.6,4.8-1,7.3-1C163.2,153.8,166.8,154.8,169.3,157.1z M162.6,179.1c1.3-0.8,2.5-2.1,3.1-3.6v-3.6h-7.5
			c-4.2,0-6.3,1.3-6.3,4.2c0,1.3,0.6,2.3,1.5,3.1c1,0.8,2.5,1.1,4.4,1.1C159.6,180.4,161.1,180,162.6,179.1z"/>
		<path class="st0" d="M182.4,144.4h9.4v41h-9.4L182.4,144.4L182.4,144.4z"/>
		<path class="st0" d="M229.4,156.9c2.5,2.3,3.6,5.7,3.6,10.3v18h-9.2v-16.6c0-2.5-0.6-4.4-1.7-5.6c-1.1-1.1-2.7-1.9-4.8-1.9
			c-2.3,0-4.2,0.8-5.6,2.1c-1.3,1.3-2.1,3.4-2.1,6.3V185h-9.2v-31.2h8.6v3.6c1.1-1.3,2.7-2.3,4.6-3.1c1.7-0.8,3.8-1.1,5.9-1.1
			C223.9,153.4,227,154.6,229.4,156.9z"/>
		<path class="st0" d="M271.9,153.8l-13.2,31.4h-9.4l-13.2-31.4h9.4l8.6,21.4l9-21.4H271.9z"/>
		<path class="st0" d="M305.4,172.2h-23.7c0.4,1.9,1.5,3.4,3.1,4.6c1.5,1.1,3.6,1.7,5.9,1.7c1.7,0,3.1-0.2,4.4-0.8
			c1.3-0.6,2.5-1.3,3.4-2.3l4.8,5.2c-2.9,3.4-7.3,5.2-13,5.2c-3.6,0-6.7-0.8-9.4-2.1c-2.7-1.3-4.8-3.3-6.3-5.7
			c-1.5-2.5-2.3-5.2-2.3-8.4c0-3.1,0.8-5.9,2.1-8.4c1.5-2.5,3.4-4.4,5.9-5.7s5.4-2.1,8.6-2.1c3.1,0,5.9,0.6,8.4,1.9
			c2.5,1.3,4.4,3.3,5.9,5.7c1.3,2.5,2.1,5.4,2.1,8.6C305.4,169.9,305.4,170.7,305.4,172.2z M284,162c-1.3,1.1-2.3,2.7-2.5,4.8H297
			c-0.4-1.9-1.1-3.6-2.5-4.8c-1.3-1.1-3.1-1.7-5.2-1.7C287.1,160.3,285.3,160.9,284,162z"/>
		<path class="st0" d="M324.8,154.6c1.9-0.8,4-1.1,6.3-1.1v8.4c-1,0-1.7-0.2-2.1-0.2c-2.7,0-4.6,0.8-6.1,2.1
			c-1.5,1.5-2.3,3.6-2.3,6.5v14.9h-9.2v-31.4h8.6v4.2C321.3,156.5,322.9,155.3,324.8,154.6z"/>
		<path class="st0" d="M339.5,184.8c-2.5-0.6-4.4-1.5-5.9-2.5l3.1-6.5c1.3,1,3.1,1.5,5.2,2.1c2.1,0.6,4,0.8,5.9,0.8
			c3.8,0,5.7-1,5.7-2.9c0-1-0.6-1.5-1.5-1.9c-1-0.4-2.7-0.8-4.8-1c-2.5-0.4-4.8-0.8-6.3-1.3c-1.7-0.6-3.1-1.3-4.4-2.7
			c-1.3-1.4-1.9-3.1-1.9-5.6c0-1.9,0.6-3.8,1.7-5.4c1.1-1.5,2.9-2.7,5-3.6c2.1-0.8,4.8-1.3,7.8-1.3c2.3,0,4.4,0.2,6.7,0.8
			c2.3,0.6,4,1.1,5.6,2.1l-3.1,6.5c-2.7-1.5-5.7-2.3-9-2.3c-1.9,0-3.4,0.2-4.4,0.8c-1,0.6-1.5,1.3-1.5,2.1c0,1,0.6,1.7,1.5,2.1
			c1,0.4,2.7,0.8,5,1.1c2.5,0.4,4.6,1,6.3,1.3c1.7,0.6,3.1,1.3,4.2,2.7c1.1,1.3,1.7,3.1,1.7,5.4c0,1.9-0.6,3.6-1.7,5.2
			c-1.1,1.5-2.9,2.7-5.2,3.4c-2.3,0.8-5,1.3-8,1.3C344.7,185.8,342,185.4,339.5,184.8z"/>
		<path class="st0" d="M368.2,148.1c-1-1-1.5-2.1-1.5-3.6s0.6-2.7,1.5-3.6c1-1,2.5-1.5,4-1.5c1.7,0,3.1,0.4,4,1.3
			c1.1,1,1.5,2.1,1.5,3.4c0,1.5-0.6,2.7-1.5,3.8c-1,1-2.5,1.5-4,1.5C370.5,149.4,369.2,149,368.2,148.1z M367.7,153.8h9.2v31.4h-9.2
			V153.8z"/>
		<path class="st0" d="M391.4,183.7c-2.7-1.3-4.6-3.3-6.1-5.7c-1.5-2.5-2.3-5.2-2.3-8.4c0-3.1,0.8-5.9,2.3-8.4s3.4-4.4,6.1-5.7
			c2.7-1.3,5.6-2.1,9-2.1c3.3,0,6.3,0.8,8.8,2.1c2.7,1.3,4.6,3.3,6.1,5.7c1.5,2.5,2.3,5.2,2.3,8.4c0,3.1-0.8,5.9-2.3,8.4
			s-3.4,4.4-6.1,5.7s-5.6,2.1-8.8,2.1C397,185.8,394.1,185,391.4,183.7z M406,176c1.5-1.5,2.3-3.6,2.3-6.3s-0.8-4.8-2.3-6.3
			s-3.4-2.3-5.7-2.3c-2.3,0-4.2,0.8-5.7,2.3s-2.3,3.6-2.3,6.3s0.8,4.8,2.3,6.3s3.4,2.3,5.7,2.3C402.7,178.3,404.6,177.6,406,176z"/>
		<path class="st0" d="M452.1,156.9c2.5,2.3,3.6,5.7,3.6,10.3v18h-9.2v-16.6c0-2.5-0.6-4.4-1.7-5.6c-1.1-1.1-2.7-1.9-4.8-1.9
			c-2.3,0-4.2,0.8-5.6,2.1s-2.1,3.4-2.1,6.3V185h-9.2v-31.2h8.6v3.6c1.1-1.3,2.7-2.3,4.6-3.1c1.7-0.8,3.8-1.1,5.9-1.1
			C446.5,153.4,449.8,154.6,452.1,156.9z"/>
		<path class="st0" d="M495,172.2h-23.7c0.4,1.9,1.5,3.4,3.1,4.6c1.5,1.1,3.6,1.7,5.9,1.7c1.7,0,3.1-0.2,4.4-0.8
			c1.3-0.6,2.5-1.3,3.4-2.3l4.8,5.2c-2.9,3.4-7.3,5.2-13,5.2c-3.6,0-6.7-0.8-9.4-2.1s-4.8-3.3-6.3-5.7c-1.5-2.5-2.1-5.2-2.1-8.4
			c0-3.1,0.8-5.9,2.1-8.4c1.5-2.5,3.4-4.4,5.9-5.7s5.4-2.1,8.6-2.1c3.1,0,5.9,0.6,8.4,1.9c2.5,1.3,4.4,3.3,5.9,5.7
			c1.3,2.5,2.1,5.4,2.1,8.6C495.2,169.9,495.2,170.7,495,172.2z M473.7,162c-1.3,1.1-2.3,2.7-2.5,4.8h15.5c-0.4-1.9-1.1-3.6-2.5-4.8
			c-1.3-1.1-3.1-1.7-5.2-1.7C476.8,160.3,475.1,160.9,473.7,162z"/>
		<path class="st0" d="M504.2,184.8c-2.5-0.6-4.4-1.5-5.9-2.5l3.1-6.5c1.3,1,3.1,1.5,5.2,2.1c2.1,0.6,4,0.8,5.9,0.8
			c3.8,0,5.7-1,5.7-2.9c0-1-0.6-1.5-1.5-1.9c-1-0.4-2.7-0.8-4.8-1c-2.5-0.4-4.8-0.8-6.3-1.3c-1.7-0.6-3.1-1.3-4.4-2.7
			c-1.3-1.4-1.9-3.1-1.9-5.6c0-1.9,0.6-3.8,1.7-5.4c1.1-1.5,2.9-2.7,5-3.6c2.1-0.8,4.8-1.3,7.8-1.3c2.3,0,4.4,0.2,6.7,0.8
			c2.3,0.6,4,1.1,5.6,2.1l-3.1,6.5c-2.7-1.5-5.7-2.3-9-2.3c-1.9,0-3.4,0.2-4.4,0.8c-1,0.6-1.5,1.3-1.5,2.1c0,1,0.6,1.7,1.5,2.1
			c1,0.4,2.7,0.8,5,1.1c2.5,0.4,4.6,1,6.3,1.3c1.7,0.6,3.1,1.3,4.2,2.7c1.1,1.3,1.7,3.1,1.7,5.4c0,1.9-0.6,3.6-1.7,5.2
			c-1.1,1.5-2.9,2.7-5.2,3.4c-2.3,0.8-5,1.3-8,1.3C509.1,185.8,506.7,185.4,504.2,184.8z"/>
	</g>
	<g>
		<g>
			<g>
				<path class="st1" d="M226,63.8c0,2.8,1.6,6.5,3.9,10.2l0.2,0.1c1.1,1.6,2.6,3.4,3.4,3.4c0.3,0,6.1-8.4,6.1-8.4l4.2,5.1l7.7-11.5
					l1.6,2.4l0.2-9.2l-7.8,6.1l3.8-0.3l-5.5,8.6l-5.1-6c0,0-3.7,5.5-5.5,7.8c-2-3.1-3.4-6.1-3.4-8.5c0-7.4,6.4-13.5,14.1-13.5
					c7.8,0,14.1,6.1,14.1,13.5s-13.8,22-13.8,22s-3.5-3.4-7.3-8.3c-0.3,0.6-1.9,2-2.2,2.6c4.8,6.3,9.5,11.8,9.5,11.8
					s17.7-18.4,17.7-28s-8-17.2-17.9-17.2C234,46.6,226,54.3,226,63.8z"/>
				<path class="st1" d="M249.6,88.4c4.1,1.1,6,3.1,4.7,5.1c-1.3,2-5.3,3.4-10.2,3.4s-9-1.3-10.5-3.2c-1.4-2,0.3-4.1,4.3-5.2
					l-3.3-2.2c-6.4,1.8-9,5-6.8,8.1c2.2,3.1,8.7,5.1,16.3,5.1c7.6-0.1,13.9-2.2,15.9-5.3c2-3.1-0.9-6.3-7.4-8L249.6,88.4z"/>
			</g>
		</g>
		<path class="st2" d="M293.3,120.2h-62l-30.8,23.4c-1.6,1.2-4,0.9-5.2-0.7c-0.7-0.9-0.9-1.9-0.7-2.9l3.7-19.9
			c-2.5-0.4-4.7-1.6-6.4-3.3l-0.2-0.2c-2-2.1-3.2-5-3.2-8.1V42.8c0-3.2,1.3-6.2,3.5-8.3l0,0c2.1-2.1,5.1-3.5,8.3-3.5h37.9v-4.2
			c0-3.1,1.2-6,3.2-8.1l0.2-0.2c2.1-2.1,5.1-3.5,8.3-3.5h93.1c3.2,0,6.2,1.3,8.3,3.5l0,0c2.1,2.1,3.5,5.1,3.5,8.3v65.6
			c0,3.3-1.3,6.2-3.5,8.3l0,0c-1.7,1.7-4,2.9-6.4,3.3l3.7,19.9c0.2,1,0,2.1-0.7,2.9c-1.2,1.6-3.6,2-5.2,0.7l-30.8-23.4h-6.8v4.2
			c0,3.3-1.3,6.2-3.5,8.3l-0.2,0.2C299.3,119,296.5,120.2,293.3,120.2L293.3,120.2z M305.2,51.4v16.7 M305.2,75.5v21.2h8
			c1,0,1.9,0.4,2.5,1l23.9,18.1l-2.7-14.7c-0.4-2,1-4,3-4.3c0.2,0,0.4-0.1,0.7-0.1v0h2.6c1.2,0,2.3-0.5,3.1-1.3v0
			c0.8-0.8,1.3-1.9,1.3-3.1V26.8c0-1.2-0.5-2.3-1.3-3.1l0,0c-0.8-0.8-1.9-1.3-3.1-1.3H250c-1.2,0-2.3,0.5-3.1,1.3l-0.1,0.1
			c-0.7,0.8-1.1,1.8-1.1,2.9V31h47.7c3.2,0,6.2,1.3,8.3,3.5l0,0c2.1,2.1,3.5,5.1,3.5,8.3v1.1 M230.1,112.8h63.2
			c1.1,0,2.2-0.4,2.9-1.1l0.1-0.1c0.8-0.8,1.3-1.9,1.3-3.1v-7.9V42.8c0-1.2-0.5-2.3-1.3-3.1l0,0c-0.8-0.8-1.9-1.3-3.1-1.3h-51.5
			h-41.7c-1.2,0-2.3,0.5-3.1,1.3h0c-0.8,0.8-1.3,1.9-1.3,3.1v65.6c0,1.1,0.4,2.2,1.1,2.9l0.1,0.1c0.8,0.8,1.9,1.3,3.1,1.3h2.5v0
			c0.2,0,0.4,0,0.7,0.1c2,0.4,3.4,2.3,3,4.3l-2.7,14.7l23.9-18.1C228.3,113.1,229.2,112.8,230.1,112.8z"/>
	</g>
	<g>
		<path class="st1" d="M274.1,211.9c0-10.1,7.7-17.3,18.1-17.3c5.8,0,10.6,2.1,13.8,5.9l-5,4.6c-2.2-2.6-5.1-3.9-8.4-3.9
			c-6.3,0-10.7,4.4-10.7,10.7c0,6.3,4.4,10.7,10.7,10.7c3.3,0,6.2-1.3,8.4-4l5,4.6c-3.2,3.9-8,6-13.8,6
			C281.9,229.2,274.1,222,274.1,211.9z"/>
		<path class="st1" d="M341.9,195.2v33.4h-7.7v-13.7H319v13.7h-7.7v-33.4h7.7v13.2h15.2v-13.2H341.9z"/>
		<path class="st1" d="M371.8,221.5h-15.5l-3,7.2h-7.9l14.9-33.4h7.6l14.9,33.4h-8.1L371.8,221.5z M369.4,215.6l-5.3-12.8l-5.3,12.8
			H369.4z"/>
		<path class="st1" d="M391.7,201.5H381v-6.3h29.1v6.3h-10.7v27.1h-7.7V201.5z"/>
		<path class="st1" d="M444.9,219.5c0,5.8-4.6,9.1-13.4,9.1h-17.3v-33.4h16.3c8.4,0,12.7,3.5,12.7,8.7c0,3.3-1.7,5.9-4.4,7.4
			C442.5,212.4,444.9,215.3,444.9,219.5z M422,201v7.9h7.7c3.8,0,5.8-1.3,5.8-4c0-2.6-2.1-3.9-5.8-3.9H422z M437.1,218.7
			c0-2.8-2.1-4.2-6.2-4.2h-9v8.3h9C435,222.8,437.1,221.6,437.1,218.7z"/>
		<path class="st1" d="M448.7,211.9c0-9.9,7.7-17.3,18.3-17.3c10.5,0,18.3,7.3,18.3,17.3c0,10-7.8,17.3-18.3,17.3
			C456.4,229.2,448.7,221.8,448.7,211.9z M477.5,211.9c0-6.4-4.5-10.7-10.5-10.7c-6,0-10.5,4.3-10.5,10.7c0,6.4,4.5,10.7,10.5,10.7
			C473,222.6,477.5,218.3,477.5,211.9z"/>
		<path class="st1" d="M497.6,201.5h-10.7v-6.3H516v6.3h-10.7v27.1h-7.7V201.5z"/>
	</g>
</g>
</svg>
