<svg id="LogoMapabot" xmlns="http://www.w3.org/2000/svg" width="156.5" height="41.409" viewBox="0 0 156.5 41.409">
  <path id="Path_48" data-name="Path 48" d="M62.9,44.339A6.988,6.988,0,0,0,64.149,47.6h.064c.352.544.832,1.121,1.089,1.121a17.787,17.787,0,0,0,1.953-2.689L68.6,47.669l2.465-3.682.512.768.064-2.946-2.5,1.953,1.217-.1L68.6,46.42,66.966,44.5S65.782,46.26,65.205,47a5.626,5.626,0,0,1-1.089-2.721,4.519,4.519,0,0,1,9.029,0c0,2.369-4.418,7.044-4.418,7.044a28.1,28.1,0,0,1-2.337-2.657c-.1.192-.608.64-.7.832,1.537,2.017,3.042,3.778,3.042,3.778s5.667-5.891,5.667-8.965A5.6,5.6,0,0,0,68.663,38.8,5.674,5.674,0,0,0,62.9,44.339Z" transform="translate(-50.894 -28.715)" fill="#1a4f70"/>
  <path id="Path_49" data-name="Path 49" d="M71.157,79.2c1.313.352,1.921.993,1.5,1.633s-1.7,1.089-3.266,1.089A4.6,4.6,0,0,1,66.034,80.9c-.448-.64.1-1.313,1.377-1.665l-1.057-.7c-2.049.576-2.882,1.6-2.177,2.593s2.785,1.633,5.219,1.633,4.45-.7,5.091-1.7S74.2,79.044,72.118,78.5Z" transform="translate(-51.595 -55.704)" fill="#1a4f70"/>
  <path id="Path_50" data-name="Path 50" d="M58.954,40.982H39.1l-9.861,7.492a1.209,1.209,0,0,1-1.665-.224,1.11,1.11,0,0,1-.224-.928l1.185-6.371a3.726,3.726,0,0,1-2.049-1.057l-.064-.064A3.767,3.767,0,0,1,25.4,37.236V16.2a3.675,3.675,0,0,1,1.121-2.657h0a3.806,3.806,0,0,1,2.657-1.121H41.313V11.078a3.767,3.767,0,0,1,1.025-2.593l.064-.064A3.807,3.807,0,0,1,45.059,7.3H74.867a3.675,3.675,0,0,1,2.657,1.121h0a3.806,3.806,0,0,1,1.121,2.657v21a3.621,3.621,0,0,1-1.121,2.657h0A3.837,3.837,0,0,1,75.475,35.8l1.185,6.371a1.086,1.086,0,0,1-.224.928,1.179,1.179,0,0,1-1.665.224l-9.861-7.492H62.732v1.345a3.621,3.621,0,0,1-1.121,2.657l-.064.064a3.5,3.5,0,0,1-2.593,1.089Zm3.81-22.028V24.3m0,2.369v6.788h2.561a1.137,1.137,0,0,1,.8.32l7.652,5.8-.864-4.707a1.174,1.174,0,0,1,.961-1.377h1.057a1.4,1.4,0,0,0,.993-.416h0a1.4,1.4,0,0,0,.416-.993v-21a1.4,1.4,0,0,0-.416-.993h0a1.4,1.4,0,0,0-.993-.416H45.091a1.4,1.4,0,0,0-.993.416h-.032a1.544,1.544,0,0,0-.352.961v1.377H58.986a3.675,3.675,0,0,1,2.657,1.121h0A3.806,3.806,0,0,1,62.764,16.2v.352M38.719,38.613H58.954a1.336,1.336,0,0,0,.928-.352h.032a1.542,1.542,0,0,0,.416-1.025V16.2a1.4,1.4,0,0,0-.416-.993h0a1.4,1.4,0,0,0-.993-.416H29.082a1.4,1.4,0,0,0-.993.416h0a1.4,1.4,0,0,0-.416.993v21a1.336,1.336,0,0,0,.352.929h.032a1.313,1.313,0,0,0,.993.448h1.025a1.19,1.19,0,0,1,.961,1.377l-.864,4.707,7.652-5.8a1.732,1.732,0,0,1,.9-.288Z" transform="translate(-25.4 -7.3)" fill="#1a4f70" fill-rule="evenodd"/>
  <path id="Path_51" data-name="Path 51" d="M218.015,63.6V55.307l-4.1,6.852h-1.441L208.41,55.5v8.132H205.4V49.8h2.657l5.187,8.581,5.091-8.581h2.625V63.631h-2.978Z" transform="translate(-147.769 -36.193)" fill="#1a4f70"/>
  <path id="Path_52" data-name="Path 52" d="M271.785,64.007v6.051H268.9V68.745a3.483,3.483,0,0,1-3.234,1.473c-2.5,0-3.97-1.377-3.97-3.234s1.313-3.17,4.578-3.17h2.465c0-1.313-.8-2.081-2.465-2.081a4.141,4.141,0,0,0-3.074.993l-1.121-2.145a8.106,8.106,0,0,1,4.578-1.281c3.234,0,5.123,1.5,5.123,4.739ZM268.712,66.7V65.607H266.6c-1.441,0-1.889.544-1.889,1.249s.64,1.281,1.729,1.281A2.228,2.228,0,0,0,268.712,66.7Z" transform="translate(-186.044 -42.651)" fill="#1a4f70"/>
  <path id="Path_53" data-name="Path 53" d="M313.558,64.675a5.163,5.163,0,0,1-5.283,5.475c-2.978,0-2.4-.416-3.2-1.281v4.963H302V59.36h2.946v1.217a4.123,4.123,0,0,1,3.33-1.377A5.163,5.163,0,0,1,313.558,64.675Zm-3.138,0a2.73,2.73,0,1,0-2.721,2.946A2.687,2.687,0,0,0,310.421,64.675Z" transform="translate(-213.441 -42.583)" fill="#1a4f70"/>
  <path id="Path_54" data-name="Path 54" d="M351.885,64.007v6.051H349V68.745a3.483,3.483,0,0,1-3.234,1.473c-2.5,0-3.97-1.377-3.97-3.234s1.313-3.17,4.578-3.17h2.465c0-1.313-.8-2.081-2.465-2.081a4.141,4.141,0,0,0-3.074.993l-1.121-2.145a8.106,8.106,0,0,1,4.578-1.281c3.234,0,5.123,1.5,5.123,4.739ZM348.812,66.7V65.607H346.7c-1.441,0-1.889.544-1.889,1.249s.64,1.281,1.729,1.281A2.227,2.227,0,0,0,348.812,66.7Z" transform="translate(-240.498 -42.651)" fill="#1a4f70"/>
  <path id="Path_55" data-name="Path 55" d="M395.379,59.753c0,2.4-1.889,3.778-5.539,3.778H382.7V49.7h6.756c3.458,0,5.251,1.441,5.251,3.586s-.7,2.465-1.825,3.042a3.4,3.4,0,0,1,2.529,3.426ZM385.87,52.1v3.266h3.17c1.569,0,2.4-.544,2.4-1.633s-.864-1.633-2.4-1.633h-3.17Zm6.275,7.332c0-1.153-.9-1.729-2.561-1.729h-3.746V61.13h3.746C391.249,61.13,392.145,60.618,392.145,59.433Z" transform="translate(-268.303 -36.125)" fill="#1a4f70"/>
  <path id="Path_56" data-name="Path 56" d="M427.2,56.14c0-4.1,3.2-7.14,7.556-7.14s7.556,3.01,7.556,7.14-3.234,7.14-7.556,7.14S427.2,60.238,427.2,56.14Zm11.878,0a4.323,4.323,0,1,0-4.322,4.418A4.213,4.213,0,0,0,439.078,56.14Z" transform="translate(-298.555 -35.649)" fill="#1a4f70"/>
  <path id="Path_57" data-name="Path 57" d="M480.918,52.393H476.5V49.8h12.07v2.593h-4.418V63.631h-3.2V52.393Z" transform="translate(-332.071 -36.193)" fill="#1a4f70"/>
</svg>
