<?xml version="1.0" encoding="UTF-8"?>
<svg id="Capa_1" xmlns="http://www.w3.org/2000/svg" version="1.1" xmlns:xlink="http://www.w3.org/1999/xlink" viewBox="0 0 473.35 239.52">
  <!-- Generator: Adobe Illustrator 29.3.1, SVG Export Plug-In . SVG Version: 2.1.0 Build 151)  -->
  <defs>
    <style>
      .st0 {
        fill: #da8e9d;
      }

      .st1 {
        fill: #f2f6f7;
      }

      .st2 {
        opacity: .2;
      }

      .st2, .st3 {
        fill: #d97e99;
      }

      .st4 {
        fill: url(#Nueva_muestra_de_degradado_4);
        opacity: .5;
      }

      .st5 {
        fill: #eebcc5;
      }

      .st6 {
        fill: #e794a8;
      }

      .st7 {
        fill: #efc360;
      }

      .st8 {
        fill-rule: evenodd;
      }

      .st8, .st9 {
        fill: #1c5071;
      }

      .st10 {
        fill: #3f3577;
      }

      .st11 {
        font-family: Raleway-Bold, Raleway;
        font-size: 11px;
        font-weight: 700;
      }

      .st11, .st12 {
        fill: #5d5e5f;
      }

      .st13 {
        fill: url(#Degradado_sin_nombre_2);
      }

      .st14 {
        fill: #3e3578;
      }

      .st15 {
        fill: none;
        stroke: #425aa5;
        stroke-miterlimit: 10;
      }

      .st16 {
        fill: url(#Nueva_muestra_de_degradado_7);
      }

      .st17 {
        fill: #9d92c7;
      }

      .st12 {
        font-family: Raleway, Raleway;
        font-size: 19.74px;
      }

      .st18 {
        fill: #2e2d57;
      }

      .st19 {
        fill: #d9ad55;
      }

      .st20 {
        fill: #bdb5da;
      }
    </style>
    <linearGradient id="Nueva_muestra_de_degradado_4" data-name="Nueva muestra de degradado 4" x1="475.35" y1="45.55" x2="481.44" y2="45.55" gradientTransform="translate(920.14) rotate(-180) scale(1 -1)" gradientUnits="userSpaceOnUse">
      <stop offset="0" stop-color="#d47898" stop-opacity="0"/>
      <stop offset=".9" stop-color="#bd557c"/>
    </linearGradient>
    <linearGradient id="Nueva_muestra_de_degradado_7" data-name="Nueva muestra de degradado 7" x1="431.47" y1="178.51" x2="420.76" y2="173.02" gradientUnits="userSpaceOnUse">
      <stop offset="0" stop-color="#47529f" stop-opacity="0"/>
      <stop offset=".98" stop-color="#35509e" stop-opacity=".5"/>
    </linearGradient>
    <linearGradient id="Degradado_sin_nombre_2" data-name="Degradado sin nombre 2" x1="333.49" y1="199.53" x2="313.5" y2="200" gradientUnits="userSpaceOnUse">
      <stop offset="0" stop-color="#47529f" stop-opacity="0"/>
      <stop offset="1" stop-color="#44519f" stop-opacity=".5"/>
    </linearGradient>
  </defs>
  <path class="st1" d="M393.2,84.12c-.5-1.39-1.82-2.38-3.38-2.38-.71,0-1.37.21-1.93.56-.71-1.89-2.53-3.24-4.67-3.24-1.97,0-3.67,1.15-4.48,2.81-.3-.08-.62-.13-.95-.13-1.56,0-2.88.99-3.38,2.38h18.79Z"/>
  <g>
    <path class="st20" d="M441.06,61.73h-96.58c-2.55,0-4.61,2.07-4.61,4.61v137.38c0,2.55,2.07,4.61,4.61,4.61h96.58c2.55,0,4.61-2.07,4.61-4.61V66.35c0-2.55-2.07-4.61-4.61-4.61Z"/>
    <rect class="st1" x="348.46" y="69.93" width="88.62" height="130.72"/>
    <rect class="st1" x="348.46" y="67.26" width="88.62" height="130.72"/>
    <path class="st10" d="M362.16,67.26c.06,3.65,3.03,6.77,6.88,6.77h47.44c3.85,0,6.83-3.12,6.88-6.77h-61.21Z"/>
    <path class="st17" d="M421.9,58.48c-.51-2.19-2.46-3.74-4.7-3.74h-15.82c0-4.75-3.85-8.61-8.61-8.61s-8.61,3.85-8.61,8.61h-15.82c-2.25,0-4.2,1.55-4.7,3.74l-1.29,5.6c-1,4.32,2.28,8.44,6.71,8.44h47.44c4.43,0,7.71-4.12,6.71-8.44l-1.29-5.6ZM393.58,58.8c-2.92.55-5.43-1.96-4.87-4.87.31-1.63,1.62-2.94,3.25-3.25,2.91-.55,5.42,1.96,4.87,4.87-.31,1.63-1.62,2.94-3.25,3.25Z"/>
    <g>
      <path class="st17" d="M377.06,102.56h-21.88v-21.88h21.88v21.88ZM356.95,100.78h18.33v-18.33h-18.33v18.33h0Z"/>
      <g>
        <rect class="st17" x="382.27" y="83" width="24.35" height="3.81"/>
        <rect class="st17" x="382.27" y="91.13" width="48.7" height="3.81"/>
        <rect class="st17" x="382.27" y="98.7" width="48.7" height="3.81"/>
      </g>
      <polygon class="st6" points="379.04 78.72 366.64 91.3 362.97 88.06 360.14 91.26 366.84 97.18 382.08 81.72 379.04 78.72"/>
    </g>
    <g>
      <path class="st17" d="M377.06,131.61h-21.88v-21.89h21.88v21.89ZM356.95,129.83h18.33v-18.33h-18.33v18.33h0Z"/>
      <g>
        <rect class="st17" x="382.27" y="112.04" width="24.35" height="3.81"/>
        <rect class="st17" x="382.27" y="120.17" width="48.7" height="3.81"/>
        <rect class="st17" x="382.27" y="127.75" width="48.7" height="3.81"/>
      </g>
      <polygon class="st6" points="379.04 107.76 370.51 116.46 373.24 119.64 382.08 110.77 379.04 107.76"/>
    </g>
    <g>
      <path class="st17" d="M377.06,160.65h-21.88v-21.89h21.88v21.89ZM356.95,158.87h18.33v-18.33h-18.33v18.33h0Z"/>
      <g>
        <rect class="st17" x="382.27" y="141.09" width="24.35" height="3.81"/>
        <rect class="st17" x="382.27" y="149.22" width="48.7" height="3.81"/>
        <rect class="st17" x="382.27" y="156.79" width="48.7" height="3.81"/>
      </g>
      <polygon class="st6" points="379.04 136.81 366.64 149.39 362.97 146.15 360.14 149.36 366.84 155.27 382.08 139.81 379.04 136.81"/>
    </g>
    <g>
      <path class="st17" d="M377.06,190.2h-21.88v-21.88h21.88v21.88ZM356.95,188.42h18.33v-18.33h-18.33v18.33h0Z"/>
      <g>
        <rect class="st17" x="382.27" y="170.64" width="24.35" height="3.81"/>
        <rect class="st17" x="382.27" y="178.77" width="48.7" height="3.81"/>
        <rect class="st17" x="382.27" y="186.34" width="48.7" height="3.81"/>
      </g>
      <polygon class="st6" points="379.04 166.36 366.64 178.94 362.97 175.7 360.14 178.91 366.84 184.82 382.08 169.36 379.04 166.36"/>
    </g>
  </g>
  <g>
    <path class="st3" d="M372.6,121.32l-4.22-2.47c-.17-.1-.28-.28-.28-.48,0-.2.09-.38.26-.49l3.44-2.24c.18-.12.41-.12.6-.01l2.64,1.54c.27.16.36.51.2.78l-1.85,3.17c-.16.27-.51.36-.78.2Z"/>
    <path class="st6" d="M369.83,116.92l-1.48.96c-.17.11-.26.29-.26.49,0,.2.11.38.28.48l4.22,2.47c.27.16.62.07.78-.2l.93-1.58-4.48-2.62Z"/>
    <path class="st1" d="M423.24,156.62l-44.19-25.85c-1.43-.84-2.47-2.25-2.72-3.89-.2-1.36-1.01-2.54-2.19-3.24l-2.16-1.26c-.27-.16-.36-.51-.2-.78l3.09-5.28c.16-.27.51-.36.78-.2l2.18,1.28c1.18.69,2.59.76,3.88.31,1.57-.54,3.29-.38,4.72.46l44.19,25.85c3.28,1.92,4.39,6.14,2.47,9.42l-.42.71c-1.92,3.28-6.14,4.39-9.42,2.47Z"/>
    <path class="st6" d="M385.72,118.36l-6.85,11.71c-.14.24-.07.56.18.71,0,0,0,0,0,0l47.04,27.52c1.71,1,3.9.42,4.9-1.28l3.75-6.42c1-1.71.42-3.9-1.28-4.9l-47.04-27.52s0,0,0,0c-.24-.14-.56-.05-.7.19Z"/>
    <path class="st2" d="M433.47,145.69l-47.04-27.52s0,0,0,0c0,0,0,0,0,0-1.43-.84-3.15-1-4.72-.46-1.29.45-2.7.37-3.88-.31l-2.18-1.28c-.27-.16-.62-.07-.78.2l-1.58,2.7c12.17,7.29,42.97,25.59,59.29,35.28l.29-.5.21-.36h0l1.67-2.85c1-1.71.42-3.9-1.28-4.9Z"/>
  </g>
  <g>
    <path class="st18" d="M437.03,84.08l-.02,2.82s.36,1.8.64,3.72c.28,1.92.5,3.96.21,4.44-.57.95-1.71,0-1.9-.95s-.47-6.83-.47-6.83l-.19-3.8,1.73.6Z"/>
    <path class="st18" d="M439.92,83.71l-.43,2.53s-.85,6.93-.38,7.97c.47,1.04,1.99.57,1.9-.85-.09-1.42.28-6.45.28-6.45l.85-3.04-2.22-.15Z"/>
    <g>
      <path class="st10" d="M438.74,52.85l-.21,3.12,8.04,3.88c1.45.78,2.15,2.48,1.67,4.06l-5.57,20.68-2.76-.88,2.45-19.03c.17-1.17-.63-2.26-1.8-2.44l-2.86-.45-3.05-3.11,3.52,3.16c.85.77,1.27,1.9,1.12,3.04l-2.26,19.2-2.51.63-1.12-18.9c-.08-1.2-.89-2.23-2.03-2.59l-4.95-1.57c-.79-.48-1.28-1.33-1.3-2.25l.21-6.65,13.41.1Z"/>
      <path class="st7" d="M424.82,59.83l1.33-25.83s5.49-.33,7.13-.33c.89,0,2.41.42,3.61.81,1.13.36,2.07.33,2.61,1.38l9.01,17.27-5.53.53-1.84-2.11.94-1.42-3.36-7.94.66,14.41-14.54,3.23Z"/>
      <path class="st4" d="M438.82,39.04l5.97,10.79-1.86,2.18s-.76.15-1.47-.08l-.33-.38.94-1.42-3.36-7.94.12-3.15Z"/>
      <path class="st1" d="M433.52,41.48c-1.82,0-5.14-4.74-5.14-6.55,0-.37.06-.72.17-1.05,1.69-.09,3.81-.19,4.73-.19.4,0,.93.09,1.5.22.11.32.17.67.17,1.03,0,1.82.39,6.55-1.43,6.55Z"/>
      <polygon class="st19" points="425.5 38.46 424.82 59.98 433.71 57.85 425.5 38.46"/>
      <path class="st5" d="M433.83,31.02c-.15.31-1.23,4.55-1.23,4.55,0,0-.39.69-1.31.62-.92-.08-1.31-1.39-1.31-1.39l1.62-5.32,2.23,1.54Z"/>
      <path class="st5" d="M428.13,28.41c0,2.92,3.1,6.15,6.02,6.15s4.55-3.23,4.55-6.15-2.37-5.28-5.28-5.28-5.28,2.37-5.28,5.28Z"/>
      <circle class="st5" cx="433.52" cy="28.83" r="5.95" transform="translate(5.05 100.86) rotate(-13.35)"/>
      <path class="st10" d="M437.44,32.07c-.12.21-.1.44.04.52.14.08.35-.02.47-.22.12-.21.1-.44-.04-.52-.14-.08-.35.02-.47.22Z"/>
      <path class="st10" d="M434.44,32.39c-.13.23-.11.48.05.57.16.09.39-.02.52-.25.13-.23.11-.48-.04-.57-.16-.09-.39.02-.52.25Z"/>
    </g>
    <path class="st5" d="M432.4,57.35c.23-.08,2.18-1.02,3.57-1.02s3.08,1.46,3.08,1.46c0,0,.23.77-.69.62-.92-.15.13.58.13.58,0,0-.05.03-1.13.19-1.08.15-5.28-.07-5.28-.07l.33-1.75Z"/>
    <path class="st7" d="M426.15,34.01l-.74,17,6.99,6.32-.33,1.77-9.84-5.25c-.95-.51-1.49-1.56-1.34-2.62l1.79-13.01c.15-1.62,1.13-3.05,2.59-3.77l.88-.43Z"/>
    <g>
      <path class="st1" d="M431.69,60.56h17.8v-1.3h-17.8c-.36,0-.65.29-.65.65h0c0,.36.29.65.65.65Z"/>
      <path class="st1" d="M436.57,60.56h17.16c.76,0,1.42-.51,1.62-1.24l3.03-11.41c.28-1.06-.52-2.1-1.62-2.1h-14.99c-.76,0-1.42.51-1.62,1.24l-3.59,13.52Z"/>
      <path class="st10" d="M446.68,54.19c-.19.74.28,1.35,1.05,1.35s1.54-.6,1.73-1.35c.19-.74-.28-1.35-1.05-1.35s-1.54.6-1.73,1.35Z"/>
    </g>
    <path class="st10" d="M433.52,22.88c3.05,0,5.57,2.3,5.91,5.26-1.03.76-2.38,1.1-3.65.88-1.5-.26-2.84-1.29-3.48-2.67.05.66.09,1.33-.02,1.98-.11.65-.39,1.3-.9,1.72-.04-.46-.08-.94-.32-1.34-.24-.4-.74-.67-1.18-.51-.31.12-.51.44-.55.77s.04.66.16.97c.19.49.47.94.83,1.32-.7.11-1.44.19-2.15.13-.37-.78-.59-1.65-.59-2.57,0-3.29,2.66-5.95,5.95-5.95Z"/>
    <path class="st5" d="M428.42,29.82c0,1,.81,1.8,1.8,1.8s1.8-.81,1.8-1.8-.81-1.8-1.8-1.8-1.8.81-1.8,1.8Z"/>
    <polygon class="st5" points="439.92 83.71 439.59 85.6 441.48 86.19 442.01 84.33 439.92 83.71"/>
    <polygon class="st5" points="437.02 86.19 435.46 86.49 435.36 84.5 437.03 84.08 437.02 86.19"/>
    <path class="st10" d="M426.39,20.76c0,2.12,1.72,3.84,3.84,3.84s3.84-1.72,3.84-3.84-1.72-3.84-3.84-3.84-3.84,1.72-3.84,3.84Z"/>
  </g>
  <g>
    <polygon class="st1" points="457.11 191.15 460.08 192.31 459.31 194.25 455.69 193.22 457.11 191.15"/>
    <polygon class="st1" points="431.76 211.58 432.48 214.08 430.42 214.52 428.65 211.43 431.76 211.58"/>
    <circle class="st5" cx="420.53" cy="144.21" r="6.1"/>
    <path class="st5" d="M416.99,146.88l1.95,5.9s3.89,1.29,3.89,1.09-1.81-6.71-1.81-6.71l-4.03-.27Z"/>
    <path class="st5" d="M399.59,134.73c0,.92-.75,1.66-1.66,1.66s-1.66-.75-1.66-1.66.75-1.66,1.66-1.66,1.66.75,1.66,1.66Z"/>
    <circle class="st5" cx="426.06" cy="152.23" r="1.66"/>
    <path class="st10" d="M397.37,137.27s5.15,9.41,7.38,12.02c2.24,2.61,8.01,5.78,8.01,5.78l1.19,13.57,14.53-.56-1.15-8.38s5.22,3.54,7.83,3.17c2.61-.37,5.44-2.8,1.15-5.78-4.29-2.98-8.38-4.66-8.38-4.66l-1.49,1.12s-8.38-3.35-10.25-3.54c-1.86-.19-15.09-14.16-15.09-14.16l-3.73,1.43Z"/>
    <path class="st7" d="M413.95,168.64s3.81,15.42,6.14,22.66c2.33,7.24,6.47,20.95,6.47,20.95l5.21-.66-9.06-36.52,16.48,16.97,16.55,3.62,1.37-4.5-15.26-5.17-13.37-17.9-14.53.56Z"/>
    <polygon class="st16" points="422.7 175.05 427.75 173.74 426.37 178.75 422.7 175.05"/>
    <path class="st10" d="M429.48,138.87c0,1.67-1.36,3.03-3.03,3.03s-3.03-1.36-3.03-3.03,1.36-3.03,3.03-3.03,3.03,1.36,3.03,3.03Z"/>
    <path class="st10" d="M426.63,144.21c0-3.37-2.73-6.1-6.1-6.1-1.69,0-3.22.69-4.32,1.8.09,3.13,2.3,6.61,4,8.78.42.54.89,1.07,1.42,1.51,2.85-.51,5.01-3,5.01-6Z"/>
    <path class="st5" d="M421.25,145.34c0,1.29-1.05,2.34-2.34,2.34s-2.34-1.05-2.34-2.34,1.05-2.34,2.34-2.34,2.34,1.05,2.34,2.34Z"/>
    <polygon class="st10" points="432.48 214.08 430.42 214.52 429.53 216.29 426.88 216.88 426.88 217.92 433.81 217.62 432.48 214.08"/>
    <path class="st10" d="M459.31,194.25l.78-1.94,2.38.75.17,6.55-1.03.06s-1.06-3.36-1.17-3.44c-.11-.08-1.12-1.98-1.12-1.98Z"/>
    <path class="st15" d="M415.83,170.61s.27,2.33,2.88,4.93"/>
    <line class="st15" x1="426.15" y1="208.64" x2="430.58" y2="208.2"/>
    <line class="st15" x1="453.17" y1="190.54" x2="452.34" y2="194.05"/>
  </g>
  <g>
    <path class="st17" d="M332.59,177.49h8.59c2.26,0,4.09,1.83,4.09,4.09v14.79h-16.78v-14.79c0-2.26,1.83-4.09,4.09-4.09Z" transform="translate(-1.41 2.57) rotate(-.44)"/>
    <path class="st5" d="M336.7,181.1h0c-1.13,0-2.05-.9-2.06-2.03l-.05-6.21c0-.15.12-.28.27-.28l3.54-.03c.15,0,.28.12.28.27l.05,6.21c0,1.13-.9,2.05-2.03,2.06Z"/>
    <path class="st10" d="M343.8,171.43c0-.07,0-.14,0-.21,0-.62-.08-1.21-.22-1.79v-.79c0-3.89-3.19-7.08-7.08-7.08h0c-3.89,0-7.08,3.19-7.08,7.08v2.78h14.38Z"/>
    <path class="st5" d="M343.04,169.46v-.68c0-3.59-2.94-6.53-6.53-6.53h0c-3.59,0-6.53,2.94-6.53,6.53v2.68c0,.18.02.35.06.52.43,3.25,3.21,5.76,6.57,5.76,3.66,0,6.63-2.97,6.63-6.63,0-.57-.07-1.12-.21-1.65Z"/>
    <circle class="st10" cx="334" cy="172.27" r=".5"/>
    <path class="st10" d="M339.27,172.27c0,.28-.22.5-.5.5s-.5-.22-.5-.5.22-.5.5-.5.5.22.5.5Z"/>
    <path class="st5" d="M331.86,172.04c0,1.02-.83,1.85-1.85,1.85s-1.85-.83-1.85-1.85.83-1.85,1.85-1.85,1.85.83,1.85,1.85Z"/>
    <path class="st5" d="M344.88,172.04c0,1.02-.83,1.85-1.85,1.85s-1.85-.83-1.85-1.85.83-1.85,1.85-1.85,1.85.83,1.85,1.85Z"/>
    <path class="st0" d="M329.97,170.82c-.62.05-1.11.58-1.11,1.21s.49,1.16,1.11,1.21v-2.43Z"/>
    <path class="st0" d="M342.91,170.82c.62.05,1.11.58,1.11,1.21s-.49,1.16-1.11,1.21v-2.43Z"/>
    <path class="st10" d="M341.1,169.46c.18.56.43,1.2,1,1.36.45.12.91-.11,1.29-.38.21-.14.43-.33.47-.58.03-.21-.07-.42-.17-.6-.39-.73-.79-1.46-1.34-2.07-.49-.55-1.36-1.44-1.88-.5-.35.64.44,2.13.64,2.77Z"/>
    <path class="st10" d="M341.78,165.28c-1.44-1.07-3.23-1.71-5.15-1.71l.08-1.17c-1.92,0-3.77,1.8-5.21,2.87,1.26,1.43,3.1,2.78,5.15,2.78s3.88-1.34,5.14-2.76Z"/>
    <path class="st17" d="M318.68,191.74c-.25-.37-.32-.82-.21-1.25.95-3.78,8.29-11.45,8.59-11.82.45-.56,2.75-1.06,2.75-1.06l.27,6.1-6.69,5.96c-.4.47-.48,1.14-.21,1.69l6.31,9.69-1.88,1.45-8.92-10.75Z"/>
    <path class="st17" d="M355.54,192.09c.19-.34.27-.74.2-1.13-.74-3.69-8.91-11.91-9.21-12.28-.45-.56-2.75-1.06-2.75-1.06l-.27,6.1,7.37,6.34c.35.47.43,1.09.22,1.63l-7.36,9.8,2.24.8,9.56-10.19Z"/>
    <path class="st10" d="M331.98,169.46c-.18.56-.43,1.2-1,1.36-.45.12-.91-.11-1.29-.38-.21-.14-.43-.33-.47-.58-.03-.21.07-.42.17-.6.39-.73.79-1.46,1.34-2.07.49-.55,1.36-1.44,1.88-.5.35.64-.44,2.13-.64,2.77Z"/>
    <path class="st5" d="M329.74,202.45c0,1.17-.95,2.13-2.13,2.13s-2.13-.95-2.13-2.13.95-2.13,2.13-2.13,2.13.95,2.13,2.13Z"/>
    <path class="st10" d="M332.62,201.89c-6.24-.79-12.53-1.16-18.82-1.11-1.51.01-3.36.26-3.94,1.66-.64,1.53.78,3.11,2.17,4.02,6.61,4.35,15.01,4.55,22.92,4.62.37-1.39.67-2.77.81-4.2-.51-.63,2.27-2.38,1.77-3.01-.74-.93-5.06-.8-4.91-1.98Z"/>
    <path class="st10" d="M338.15,201.89c6.24-.79,12.53-1.16,18.82-1.11,1.51.01,3.36.26,3.94,1.66.64,1.53-.78,3.11-2.17,4.02-6.61,4.35-15.01,4.55-22.92,4.62-.37-1.39-.67-2.77-.81-4.2.51-.63.96-1.24,1.47-1.87.74-.93,1.83-1.93,1.68-3.12Z"/>
    <path class="st5" d="M348.28,202.84c.07-1.17-.82-2.18-1.99-2.25-1.17-.07-2.18.82-2.25,1.99-.07,1.17.82,2.18,1.99,2.25,1.17.07,2.18-.82,2.25-1.99Z"/>
    <path class="st10" d="M333.23,208.74l3.78.12s5.71,4.65,5.65,6.16-2.6.49-3.68-.52c-1.08-1.02-3.37-3.04-3.37-3.04l-2.61-1.02.24-1.71Z"/>
    <path class="st10" d="M338.85,208.93l-3.77-.31s-6.2,3.97-6.31,5.47c-.11,1.5,2.53.79,3.72-.1,1.19-.88,3.7-2.63,3.7-2.63l2.71-.71-.04-1.73Z"/>
    <g>
      <path class="st1" d="M327.36,204.96h19.3c.73,0,1.37-.5,1.53-1.22l1.63-6.98c.24-1.35-.8-2.59-2.17-2.58l-22.1.17c-1.37.01-2.4,1.27-2.14,2.61l2.47,6.94c.22.63.82,1.05,1.48,1.05Z"/>
      <path class="st13" d="M339.17,194.25l-13.62.1c-1.37.01-2.4,1.27-2.14,2.61l2.47,6.94c.22.63.82,1.05,1.48,1.05h3.46l8.34-10.71Z"/>
      <path class="st14" d="M338.33,200.47c0,.99-.87,1.79-1.94,1.79s-1.94-.8-1.94-1.79.87-1.79,1.94-1.79,1.94.8,1.94,1.79Z"/>
    </g>
    <path class="st10" d="M337.9,165.08c.22.05.44.1.64.2.46.22.82.61,1.17.97.91.93,1.93,1.75,2.95,2.57.07.06.15.12.24.11.05,0,.1-.03.15-.06.35-.26.29-.79.2-1.22-.27-1.18-.57-2.43-1.39-3.32-.3-.32-.65-.58-1-.84-.72-.54-1.47-1.08-2.32-1.36-.41-.13-.84-.2-1.27-.25-.65-.08-1.32-.13-1.96.01-.27.06-.53.16-.79.25-.86.32-1.72.68-2.45,1.24-1.59,1.23-2.33,3.35-2.25,5.36.01.28.12.63.4.63.14,0,.26-.11.35-.21.79-.84,1.15-1.9,2.02-2.66.91-.8,2.05-1.32,3.25-1.49.69-.1,1.39-.08,2.07.06Z"/>
    <rect class="st10" x="338.84" y="184.63" width="4.59" height=".51"/>
  </g>
  <text class="st12" transform="translate(108.78 100.65)"><tspan x="0" y="0">TERMS OF USE FOR</tspan></text>
  <text class="st11" transform="translate(188.38 142.33)"><tspan x="0" y="0">As of March 25, 2025 </tspan></text>
  <g>
    <path id="Path_48" class="st9" d="M29.51,108.63c0,1.55.89,3.6,2.16,5.65h.11c.61.94,1.44,1.94,1.88,1.94s3.38-4.66,3.38-4.66l2.33,2.83,4.27-6.37.89,1.33.11-5.1-4.32,3.38,2.11-.17-3.05,4.77-2.83-3.33s-2.05,3.05-3.05,4.32c-1.11-1.72-1.88-3.38-1.88-4.71,0-4.1,3.55-7.48,7.82-7.48s7.82,3.38,7.82,7.48-7.65,12.19-7.65,12.19c-1.44-1.45-2.8-2.98-4.05-4.6-.17.33-1.05,1.11-1.22,1.44,2.66,3.49,5.27,6.54,5.27,6.54,0,0,9.81-10.2,9.81-15.52s-4.43-9.53-9.92-9.53c-5.54.05-9.98,4.32-9.98,9.59Z"/>
    <path id="Path_49" class="st9" d="M42.59,122.26c2.27.61,3.33,1.72,2.61,2.83s-2.94,1.88-5.65,1.88-4.99-.72-5.82-1.77c-.78-1.11.17-2.27,2.38-2.88l-1.83-1.22c-3.55,1-4.99,2.77-3.77,4.49s4.82,2.83,9.04,2.83,7.71-1.22,8.81-2.94c1.11-1.72-.5-3.49-4.1-4.43l-1.66,1.22Z"/>
    <path id="Path_50" class="st8" d="M66.81,139.89h-34.37l-17.07,12.97c-.91.67-2.18.5-2.88-.39-.36-.45-.51-1.04-.39-1.61l2.05-11.03c-1.35-.22-2.59-.86-3.55-1.83l-.11-.11c-1.14-1.22-1.78-2.82-1.77-4.49v-36.42c0-1.73.69-3.4,1.94-4.6h0c1.22-1.23,2.87-1.92,4.6-1.94h21.01v-2.33c0-1.67.63-3.28,1.77-4.49l.11-.11c1.22-1.22,2.87-1.92,4.6-1.94h51.61c1.73,0,3.4.69,4.6,1.94h0c1.23,1.22,1.92,2.87,1.94,4.6v36.36c.02,1.74-.68,3.4-1.94,4.6h0c-.97.96-2.21,1.6-3.55,1.83l2.05,11.03c.13.57-.02,1.16-.39,1.61-.68.9-1.96,1.08-2.86.41,0,0-.02-.01-.02-.02l-17.07-12.97h-3.77v2.33c.02,1.74-.68,3.4-1.94,4.6l-.11.11c-1.17,1.23-2.8,1.91-4.49,1.88h0ZM73.41,101.75v9.26M73.41,115.11v11.75h4.43c.52,0,1.01.19,1.39.55l13.25,10.03-1.5-8.15c-.21-1.1.52-2.17,1.62-2.38.01,0,.03,0,.04,0h1.83c.65,0,1.26-.26,1.72-.72h0c.46-.45.72-1.07.72-1.72v-36.37c0-.65-.26-1.26-.72-1.72h0c-.45-.46-1.07-.72-1.72-.72h-51.67c-.65,0-1.26.26-1.72.72h-.05c-.39.47-.6,1.06-.61,1.66v2.38h26.44c1.73,0,3.4.69,4.6,1.94h0c1.23,1.22,1.92,2.87,1.94,4.6v.61M31.78,135.79h35.04c.59.01,1.17-.21,1.61-.61h.05c.45-.48.71-1.11.72-1.77v-36.42c0-.65-.26-1.26-.72-1.72h0c-.45-.46-1.07-.72-1.72-.72H15.09c-.65,0-1.26.26-1.72.72h0c-.46.45-.72,1.07-.72,1.72v36.37c-.01.59.21,1.17.61,1.61h.05c.43.5,1.06.78,1.72.78h1.77c1.12.2,1.86,1.27,1.66,2.38l-1.5,8.15,13.25-10.03c.46-.31,1-.48,1.55-.5v.06Z"/>
    <path id="Path_51" class="st9" d="M130.34,129.03v-14.36l-7.1,11.87h-2.49l-7.04-11.53v14.08h-5.21v-23.95h4.6l8.98,14.86,8.81-14.86h4.54v23.95h-5.16l.06-.06Z"/>
    <path id="Path_52" class="st9" d="M157.18,118.55v10.48h-4.99v-2.27c-1,1.66-2.88,2.55-5.6,2.55-4.32,0-6.87-2.38-6.87-5.6s2.27-5.49,7.93-5.49h4.27c0-2.27-1.39-3.6-4.27-3.6s-3.99.67-5.32,1.72l-1.94-3.71c2-1.44,4.99-2.22,7.93-2.22,5.6,0,8.87,2.61,8.87,8.2v-.06ZM151.85,123.2v-1.88h-3.66c-2.49,0-3.27.94-3.27,2.16s1.11,2.22,2.99,2.22,3.33-.83,3.94-2.5Z"/>
    <path id="Path_53" class="st9" d="M182.07,119.82c0,5.77-3.99,9.48-9.15,9.48s-4.16-.72-5.54-2.22v8.59h-5.32v-25.06h5.1v2.11c1.33-1.61,3.33-2.38,5.77-2.38,5.16,0,9.15,3.71,9.15,9.48ZM176.63,119.82c0-3.16-2-5.1-4.71-5.1s-4.71,1.94-4.71,5.1,2,5.1,4.71,5.1,4.71-1.94,4.71-5.1h0Z"/>
    <path id="Path_54" class="st9" d="M201.58,118.55v10.48h-4.99v-2.27c-1,1.66-2.88,2.55-5.6,2.55-4.32,0-6.87-2.38-6.87-5.6s2.27-5.49,7.93-5.49h4.27c0-2.27-1.39-3.6-4.27-3.6s-3.99.67-5.32,1.72l-1.94-3.71c2-1.44,4.99-2.22,7.93-2.22,5.6,0,8.87,2.61,8.87,8.2v-.06ZM196.26,123.2v-1.88h-3.66c-2.49,0-3.27.94-3.27,2.16s1.11,2.22,2.99,2.22,3.33-.83,3.94-2.5Z"/>
    <g>
      <path class="st9" d="M203.21,117.13c0-6.8,5.22-11.66,12.24-11.66,3.9,0,7.15,1.42,9.28,3.99l-3.35,3.09c-1.51-1.74-3.42-2.64-5.67-2.64-4.22,0-7.22,2.96-7.22,7.22s3,7.22,7.22,7.22c2.26,0,4.16-.9,5.67-2.67l3.35,3.09c-2.13,2.61-5.38,4.03-9.31,4.03-6.99,0-12.21-4.86-12.21-11.66Z"/>
      <path class="st9" d="M248.92,105.86v22.55h-5.22v-9.25h-10.24v9.25h-5.22v-22.55h5.22v8.89h10.24v-8.89h5.22Z"/>
      <path class="st9" d="M269.12,123.58h-10.47l-2,4.83h-5.35l10.05-22.55h5.15l10.08,22.55h-5.48l-2-4.83ZM267.48,119.61l-3.58-8.63-3.58,8.63h7.15Z"/>
      <path class="st9" d="M282.49,110.11h-7.22v-4.25h19.65v4.25h-7.22v18.3h-5.22v-18.3Z"/>
    </g>
  </g>
</svg>