<svg xmlns="http://www.w3.org/2000/svg" width="275.893" height="104.184" viewBox="0 0 275.893 104.184">
  <g id="logo-bid" transform="translate(0.003)">
    <path id="Path_29178" data-name="Path 29178" d="M143.79,44.59V32.47h13.29c3.87,0,8.48,1.02,8.48,5.87v.19c0,4.02-3.17,6.06-9.43,6.06H143.79Zm16.2,27.12H143.78V59.01h15.74c6.44,0,9.7,2.1,9.7,6.25v.19c0,4.15-3.1,6.25-9.23,6.25M174.6,50.36a16.365,16.365,0,0,0,7.44-14.34v-.2a16.614,16.614,0,0,0-4.83-12.2c-4.02-4.1-10.23-6.27-17.97-6.27H127.58V86.8h32.41c16.34,0,25.72-7.12,25.72-19.53v-.19c0-7.98-3.45-13.21-11.11-16.73" fill="#323232"/>
    <path id="Path_29179" data-name="Path 29179" d="M258.64,52.09v.19c0,11.39-7.57,19.05-18.84,19.05H229.62V32.85H239.8c11.27,0,18.84,7.73,18.84,19.24M239.8,17.36H213.04l.02,69.46H239.8c10.18,0,19.42-3.56,26.02-10.03a34.205,34.205,0,0,0,10.07-24.7v-.2c0-20.01-15.18-34.53-36.08-34.53" fill="#323232"/>
    <path id="Path_29180" data-name="Path 29180" d="M198.18,17.3a8.387,8.387,0,0,1,8.3,8.47V86.89H189.9V17.3h8.29Z" fill="#323232"/>
    <path id="Path_29181" data-name="Path 29181" d="M81.06,41.4c-2.38-.1-2.81,1.37.77,2.14,5.05,1.09,1.61-2.04-.77-2.14m-7.47-5.73c-7.15-2.36-2.45,3.48.96,3.87s4.11-2.19-.96-3.87M52.53,30.38c-2.09,1.12,1.65,6.06,11.19,6.33s-2.76-10.85-11.19-6.33m18.34,71.6c3-5.7,9.54-14.02,23.51-30.78,20.9-25.07-41.03-16.65-51.64-35.63C34,19.94,66.53,8.7,86.18,0a56.745,56.745,0,0,1,24.44,39.18c4.08,28.49-13.33,55.13-39.75,62.79M58.44,61.57c-8.77,14.5,19.4,14.72,6.37,41.81-.38.07-.76.14-1.15.2C33.28,108.11,5.04,86.65.59,55.62A57.524,57.524,0,0,1,9.73,15.33c-1.42,32.73,56.9,32.7,48.7,46.23" fill="#323232"/>
  </g>
</svg>
