<svg xmlns="http://www.w3.org/2000/svg" xmlns:xlink="http://www.w3.org/1999/xlink" width="46.734" height="38.547" viewBox="0 0 46.734 38.547">
  <defs>
    <clipPath id="clip-path">
      <rect id="Rectangle_3998" data-name="Rectangle 3998" width="46.735" height="38.547" fill="#07807b"/>
    </clipPath>
  </defs>
  <g id="ic-process-3" transform="translate(0 0)">
    <g id="Group_4492" data-name="Group 4492" transform="translate(0 0)" clip-path="url(#clip-path)">
      <path id="Path_27595" data-name="Path 27595" d="M8.8,32.913a.771.771,0,0,1-.364-.091L.419,28.6a.784.784,0,0,1-.087-1.335l10.353-7.285a.784.784,0,0,1,.9,1.283L2.283,27.814l6.879,3.621A.784.784,0,0,1,8.8,32.913" transform="translate(0 -7.395)" fill="#07807b"/>
      <path id="Path_27596" data-name="Path 27596" d="M42.7,37.47H13.557a.784.784,0,0,1-.672-1.188l2.3-3.832a.784.784,0,0,1,1.345.807L14.942,35.9H41.313l-1.587-2.644a.784.784,0,1,1,1.345-.807l2.3,3.832A.784.784,0,0,1,42.7,37.47" transform="translate(-4.76 -11.952)" fill="#07807b"/>
      <path id="Path_27597" data-name="Path 27597" d="M58.62,32.913a.784.784,0,0,1-.366-1.478l6.879-3.621-9.305-6.547a.784.784,0,1,1,.9-1.283l10.353,7.285A.784.784,0,0,1,67,28.6l-8.013,4.217a.771.771,0,0,1-.364.091" transform="translate(-20.682 -7.395)" fill="#07807b"/>
      <path id="Path_27598" data-name="Path 27598" d="M41.644,52.849H14.613a1.841,1.841,0,0,1-1.839-1.839V39.159a.784.784,0,1,1,1.568,0v11.85a.271.271,0,0,0,.27.271H41.644a.271.271,0,0,0,.271-.271V39.159a.784.784,0,1,1,1.568,0v11.85a1.842,1.842,0,0,1-1.839,1.839" transform="translate(-4.761 -14.302)" fill="#07807b"/>
      <path id="Path_27599" data-name="Path 27599" d="M25.487,9.62H22.224a.784.784,0,0,1,0-1.568H25.2V5.1a.784.784,0,0,1,1.568,0V8.338A1.283,1.283,0,0,1,25.487,9.62" transform="translate(-7.99 -1.61)" fill="#07807b"/>
      <path id="Path_27600" data-name="Path 27600" d="M43.059,16.489h-6a.784.784,0,1,1,0-1.568h6a.784.784,0,1,1,0,1.568" transform="translate(-13.517 -5.561)" fill="#07807b"/>
      <path id="Path_27601" data-name="Path 27601" d="M30.673,16.489H26.942a.784.784,0,0,1,0-1.568h3.731a.784.784,0,1,1,0,1.568" transform="translate(-9.749 -5.561)" fill="#07807b"/>
      <path id="Path_27602" data-name="Path 27602" d="M45.592,20.89H43.853a.784.784,0,1,1,0-1.568h1.739a.784.784,0,0,1,0,1.568" transform="translate(-16.051 -7.201)" fill="#07807b"/>
      <path id="Path_27603" data-name="Path 27603" d="M35.09,20.89H26.942a.784.784,0,0,1,0-1.568H35.09a.784.784,0,0,1,0,1.568" transform="translate(-9.749 -7.201)" fill="#07807b"/>
      <path id="Path_27604" data-name="Path 27604" d="M34.809,34.091H26.942a.784.784,0,0,1,0-1.568h7.867a.784.784,0,0,1,0,1.568" transform="translate(-9.749 -12.121)" fill="#07807b"/>
      <path id="Path_27605" data-name="Path 27605" d="M42.056,29.691H34.365a.784.784,0,0,1,0-1.568h7.691a.784.784,0,0,1,0,1.568" transform="translate(-12.515 -10.481)" fill="#07807b"/>
      <path id="Path_27606" data-name="Path 27606" d="M29.138,29.691h-2.2a.784.784,0,0,1,0-1.568h2.2a.784.784,0,0,1,0,1.568" transform="translate(-9.749 -10.481)" fill="#07807b"/>
      <path id="Path_27607" data-name="Path 27607" d="M39.289,25.291H26.941a.784.784,0,1,1,0-1.568H39.289a.784.784,0,1,1,0,1.568" transform="translate(-9.748 -8.841)" fill="#07807b"/>
      <path id="Path_27608" data-name="Path 27608" d="M40.6,27.116a.784.784,0,0,1-.784-.784V6.243a.389.389,0,0,0-.388-.388H26.045a.392.392,0,0,0-.275.114L22.7,9.034a.384.384,0,0,0-.114.275V26.331a.784.784,0,0,1-1.568,0V9.309A1.943,1.943,0,0,1,21.6,7.925l3.066-3.066a1.971,1.971,0,0,1,1.383-.573h13.38a1.959,1.959,0,0,1,1.957,1.957V26.331a.784.784,0,0,1-.784.784" transform="translate(-7.835 -1.597)" fill="#07807b"/>
      <path id="Path_27609" data-name="Path 27609" d="M21.964,4.147a.784.784,0,0,1-.555-1.339L23.42.8A2.706,2.706,0,0,1,25.347,0H39.483a.784.784,0,1,1,0,1.568H25.347a1.148,1.148,0,0,0-.817.339L22.519,3.918a.782.782,0,0,1-.555.23" transform="translate(-7.893 0)" fill="#07807b"/>
      <path id="Path_27610" data-name="Path 27610" d="M38.62,51.5H27.4a1.528,1.528,0,0,1-1.526-1.527v-4.75A1.528,1.528,0,0,1,27.4,43.692H38.62a1.528,1.528,0,0,1,1.527,1.526v4.75A1.529,1.529,0,0,1,38.62,51.5m-.041-6.277L27.4,45.26l.043,4.708,11.139-.041Z" transform="translate(-9.642 -16.283)" fill="#07807b"/>
      <path id="Path_27611" data-name="Path 27611" d="M38.169,50.188H31.34a.784.784,0,1,1,0-1.568h6.829a.784.784,0,0,1,0,1.568" transform="translate(-11.388 -18.12)" fill="#07807b"/>
    </g>
  </g>
</svg>
