<svg id="ic-process-1" xmlns="http://www.w3.org/2000/svg" xmlns:xlink="http://www.w3.org/1999/xlink" width="34.367" height="46.834" viewBox="0 0 34.367 46.834">
  <defs>
    <clipPath id="clip-path">
      <rect id="Rectangle_3996" data-name="Rectangle 3996" width="34.366" height="46.834" fill="#07807b"/>
    </clipPath>
  </defs>
  <g id="Group_4488" data-name="Group 4488" clip-path="url(#clip-path)">
    <path id="Path_27560" data-name="Path 27560" d="M39.251,22.585c-.025,0-.05,0-.075,0a.785.785,0,0,1-.708-.856c.075-.8.114-1.616.114-2.423,0-4.707-1.264-9.086-3.467-12.017a.786.786,0,0,1,1.256-.945c2.4,3.2,3.783,7.921,3.783,12.961,0,.856-.041,1.721-.121,2.571a.785.785,0,0,1-.781.712" transform="translate(-12.981 -2.238)" fill="#07807b"/>
    <path id="Path_27561" data-name="Path 27561" d="M12.682,24.4a.786.786,0,0,1-.768-.619,21.193,21.193,0,0,1-.469-4.48c0-5.04,1.379-9.765,3.782-12.961a.786.786,0,0,1,1.256.944c-2.2,2.93-3.466,7.311-3.466,12.017a19.576,19.576,0,0,0,.434,4.146.786.786,0,0,1-.6.935.806.806,0,0,1-.167.018" transform="translate(-4.25 -2.238)" fill="#07807b"/>
    <path id="Path_27562" data-name="Path 27562" d="M26.869,21.519a.786.786,0,0,1-.786-.786V4.513a.786.786,0,1,1,1.572,0v16.22a.786.786,0,0,1-.786.786" transform="translate(-9.686 -1.384)" fill="#07807b"/>
    <path id="Path_27563" data-name="Path 27563" d="M32.573,27.466H4.7a.786.786,0,0,1,0-1.572h27.87a.786.786,0,0,1,0,1.572" transform="translate(-1.455 -9.616)" fill="#07807b"/>
    <path id="Path_27564" data-name="Path 27564" d="M31.169,12.827H10.154a.786.786,0,1,1,0-1.572H31.169a.786.786,0,1,1,0,1.572" transform="translate(-3.479 -4.18)" fill="#07807b"/>
    <path id="Path_27565" data-name="Path 27565" d="M1.736,23.484A.785.785,0,0,1,1,22.963a17.182,17.182,0,1,1,32.617-.734.786.786,0,0,1-1.5-.461,15.611,15.611,0,1,0-29.634.666.786.786,0,0,1-.74,1.05" fill="#07807b"/>
    <path id="Path_27566" data-name="Path 27566" d="M15.961,38.853H12.746a.786.786,0,0,1,0-1.572h2.92V34.39a.786.786,0,0,1,1.572,0v3.187a1.278,1.278,0,0,1-1.277,1.276" transform="translate(-4.441 -12.479)" fill="#07807b"/>
    <path id="Path_27567" data-name="Path 27567" d="M33.244,45.6H27.329a.786.786,0,0,1,0-1.572h5.916a.786.786,0,0,1,0,1.572" transform="translate(-9.857 -16.35)" fill="#07807b"/>
    <path id="Path_27568" data-name="Path 27568" d="M21.061,45.6H17.385a.786.786,0,1,1,0-1.572h3.676a.786.786,0,0,1,0,1.572" transform="translate(-6.164 -16.35)" fill="#07807b"/>
    <path id="Path_27569" data-name="Path 27569" d="M35.727,49.928H34.013a.786.786,0,1,1,0-1.572h1.714a.786.786,0,1,1,0,1.572" transform="translate(-12.339 -17.957)" fill="#07807b"/>
    <path id="Path_27570" data-name="Path 27570" d="M25.413,49.928H17.385a.786.786,0,1,1,0-1.572h8.028a.786.786,0,1,1,0,1.572" transform="translate(-6.164 -17.957)" fill="#07807b"/>
    <path id="Path_27571" data-name="Path 27571" d="M25.136,62.909H17.384a.786.786,0,1,1,0-1.572h7.752a.786.786,0,1,1,0,1.572" transform="translate(-6.164 -22.778)" fill="#07807b"/>
    <path id="Path_27572" data-name="Path 27572" d="M32.263,58.582H24.685a.786.786,0,0,1,0-1.572h7.578a.786.786,0,0,1,0,1.572" transform="translate(-8.875 -21.171)" fill="#07807b"/>
    <path id="Path_27573" data-name="Path 27573" d="M19.548,58.582H17.384a.786.786,0,1,1,0-1.572h2.164a.786.786,0,0,1,0,1.572" transform="translate(-6.164 -21.171)" fill="#07807b"/>
    <path id="Path_27574" data-name="Path 27574" d="M29.552,54.256H17.385a.786.786,0,1,1,0-1.572H29.552a.786.786,0,0,1,0,1.572" transform="translate(-6.164 -19.564)" fill="#07807b"/>
    <path id="Path_27575" data-name="Path 27575" d="M29.7,59.3H13.49a1.944,1.944,0,0,1-1.941-1.941V38.534a1.929,1.929,0,0,1,.569-1.372l3.021-3.021a1.93,1.93,0,0,1,1.372-.568H29.7a1.943,1.943,0,0,1,1.941,1.941V57.36A1.943,1.943,0,0,1,29.7,59.3M16.512,35.144a.374.374,0,0,0-.262.108l-3.021,3.021a.365.365,0,0,0-.109.261V57.36a.37.37,0,0,0,.37.37H29.7a.37.37,0,0,0,.369-.37V35.513a.37.37,0,0,0-.369-.369Z" transform="translate(-4.289 -12.467)" fill="#07807b"/>
    <path id="Path_27576" data-name="Path 27576" d="M49.545,58.24H46.219a.786.786,0,1,1,0-1.572h3.326a.121.121,0,0,0,.121-.121V39.391a.121.121,0,0,0-.121-.121H46.219a.786.786,0,0,1,0-1.572h3.326a1.7,1.7,0,0,1,1.692,1.693V56.547a1.7,1.7,0,0,1-1.692,1.693" transform="translate(-16.872 -13.999)" fill="#07807b"/>
    <path id="Path_27577" data-name="Path 27577" d="M5.47,58.24H2.078A1.7,1.7,0,0,1,.385,56.547V41.763a1.68,1.68,0,0,1,.5-1.2l2.373-2.373a1.682,1.682,0,0,1,1.2-.5H5.788a.786.786,0,1,1,0,1.572H4.45a.12.12,0,0,0-.085.035L1.992,41.677a.122.122,0,0,0-.035.086V56.547a.121.121,0,0,0,.121.121H5.47a.786.786,0,1,1,0,1.572" transform="translate(-0.143 -13.999)" fill="#07807b"/>
  </g>
</svg>
