<?xml version="1.0" encoding="utf-8"?>
<!-- Generator: Adobe Illustrator 24.0.1, SVG Export Plug-In . SVG Version: 6.00 Build 0)  -->
<!DOCTYPE svg PUBLIC "-//W3C//DTD SVG 1.1//EN" "http://www.w3.org/Graphics/SVG/1.1/DTD/svg11.dtd" [
	<!ENTITY ns_extend "http://ns.adobe.com/Extensibility/1.0/">
	<!ENTITY ns_ai "http://ns.adobe.com/AdobeIllustrator/10.0/">
	<!ENTITY ns_graphs "http://ns.adobe.com/Graphs/1.0/">
	<!ENTITY ns_vars "http://ns.adobe.com/Variables/1.0/">
	<!ENTITY ns_imrep "http://ns.adobe.com/ImageReplacement/1.0/">
	<!ENTITY ns_sfw "http://ns.adobe.com/SaveForWeb/1.0/">
	<!ENTITY ns_custom "http://ns.adobe.com/GenericCustomNamespace/1.0/">
	<!ENTITY ns_adobe_xpath "http://ns.adobe.com/XPath/1.0/">
]>
<svg version="1.1" id="Capa_1" xmlns:x="&ns_extend;" xmlns:i="&ns_ai;" xmlns:graph="&ns_graphs;"
	 xmlns="http://www.w3.org/2000/svg" xmlns:xlink="http://www.w3.org/1999/xlink" x="0px" y="0px" width="47.3px" height="38px"
	 viewBox="0 0 47.3 38" style="enable-background:new 0 0 47.3 38;" xml:space="preserve">
<style type="text/css">
	.st0{fill:#FFFFFF;***REMOVED***
</style>
<metadata>
	<sfw  xmlns="&ns_sfw;">
		<slices></slices>
		<sliceSourceBounds  bottomLeftOrigin="true" height="27.8" width="37.5" x="5.1" y="4.9"></sliceSourceBounds>
	</sfw>
</metadata>
<g>
	<path class="st0" d="M40.5,5.3H7.1C6,5.3,5.1,6.2,5.1,7.4v23.7c0,1.1,0.9,2.1,2.1,2.1h33.3c1.1,0,2.1-0.9,2.1-2.1V7.4
		C42.6,6.2,41.6,5.3,40.5,5.3z M6.6,31.1V7.4c0-0.3,0.3-0.6,0.6-0.6h15.6v24.8H7.1C6.8,31.6,6.6,31.4,6.6,31.1z M24.5,31.6v-8.7h7.6
		v8.7H24.5z M41,31.1c0,0.3-0.3,0.6-0.6,0.6h-7.1v-4.4H41V31.1z M41,26.3h-7.7v-3.4H41V26.3z M41,21.5H24.5v-5H41V21.5z M41,15H24.5
		V6.8h16C40.8,6.8,41,7,41,7.4V15z"/>
	<g>
		<path class="st0" d="M12.2,24.6c-0.4-0.4-0.6-1-0.6-1.7s0.2-1.3,0.6-1.7c0.4-0.4,0.9-0.6,1.5-0.6c0.6,0,1.1,0.2,1.5,0.6
			c0.4,0.4,0.6,1,0.6,1.7s-0.2,1.3-0.6,1.7c-0.4,0.4-0.9,0.6-1.5,0.6C13.1,25.3,12.6,25,12.2,24.6z M14.4,23.9
			c0.2-0.2,0.2-0.6,0.2-1s-0.1-0.8-0.2-1c-0.2-0.2-0.4-0.3-0.6-0.3c-0.3,0-0.5,0.1-0.6,0.3c-0.2,0.2-0.2,0.6-0.2,1s0.1,0.8,0.2,1
			c0.2,0.2,0.4,0.3,0.6,0.3C14,24.3,14.2,24.2,14.4,23.9z M18.8,20.7h1.4l-5.7,8.4H13L18.8,20.7z M18.4,28.9
			c-0.3-0.2-0.6-0.5-0.7-0.8c-0.2-0.4-0.3-0.8-0.3-1.2c0-0.5,0.1-0.9,0.3-1.2c0.2-0.4,0.4-0.6,0.7-0.8c0.3-0.2,0.7-0.3,1.1-0.3
			c0.6,0,1.1,0.2,1.5,0.6c0.4,0.4,0.6,1,0.6,1.7c0,0.7-0.2,1.3-0.6,1.7c-0.4,0.4-0.9,0.6-1.5,0.6C19.1,29.2,18.7,29.1,18.4,28.9z
			 M20.1,27.9c0.2-0.2,0.2-0.6,0.2-1c0-0.4-0.1-0.8-0.2-1c-0.2-0.2-0.4-0.3-0.6-0.3c-0.3,0-0.5,0.1-0.6,0.3c-0.2,0.2-0.2,0.6-0.2,1
			c0,0.4,0.1,0.8,0.2,1c0.2,0.2,0.4,0.3,0.6,0.3C19.7,28.2,19.9,28.1,20.1,27.9z"/>
	</g>
</g>
</svg>
