<?xml version="1.0" encoding="utf-8"?>
<!-- Generator: Adobe Illustrator 24.0.1, SVG Export Plug-In . SVG Version: 6.00 Build 0)  -->
<!DOCTYPE svg PUBLIC "-//W3C//DTD SVG 1.1//EN" "http://www.w3.org/Graphics/SVG/1.1/DTD/svg11.dtd" [
	<!ENTITY ns_extend "http://ns.adobe.com/Extensibility/1.0/">
	<!ENTITY ns_ai "http://ns.adobe.com/AdobeIllustrator/10.0/">
	<!ENTITY ns_graphs "http://ns.adobe.com/Graphs/1.0/">
	<!ENTITY ns_vars "http://ns.adobe.com/Variables/1.0/">
	<!ENTITY ns_imrep "http://ns.adobe.com/ImageReplacement/1.0/">
	<!ENTITY ns_sfw "http://ns.adobe.com/SaveForWeb/1.0/">
	<!ENTITY ns_custom "http://ns.adobe.com/GenericCustomNamespace/1.0/">
	<!ENTITY ns_adobe_xpath "http://ns.adobe.com/XPath/1.0/">
]>
<svg version="1.1" id="Capa_1" xmlns:x="&ns_extend;" xmlns:i="&ns_ai;" xmlns:graph="&ns_graphs;"
	 xmlns="http://www.w3.org/2000/svg" xmlns:xlink="http://www.w3.org/1999/xlink" x="0px" y="0px" width="47.3px" height="38px"
	 viewBox="0 0 47.3 38" style="enable-background:new 0 0 47.3 38;" xml:space="preserve">
<style type="text/css">
	.st0{fill:#FFFFFF;***REMOVED***
</style>
<metadata>
	<sfw  xmlns="&ns_sfw;">
		<slices></slices>
		<sliceSourceBounds  bottomLeftOrigin="true" height="27.6" width="37.1" x="5.1" y="5.2"></sliceSourceBounds>
	</sfw>
</metadata>
<g>
	<g>
		<g>
			<g>
				<g>
					<path class="st0" d="M40.2,32.8h-33c-1.1,0-2.1-0.9-2.1-2.1V7.3c0-1.1,0.9-2.1,2.1-2.1h33c1.1,0,2.1,0.9,2.1,2.1v23.5
						C42.2,31.9,41.3,32.8,40.2,32.8z M7.1,6.7c-0.3,0-0.6,0.3-0.6,0.6v23.5c0,0.3,0.3,0.6,0.6,0.6h33c0.3,0,0.6-0.3,0.6-0.6V7.3
						c0-0.3-0.3-0.6-0.6-0.6H7.1z"/>
				</g>
			</g>
		</g>
		<g>
			<g>
				<rect x="12.4" y="25.1" class="st0" width="21.8" height="2.6"/>
			</g>
			<g>
				<polygon class="st0" points="30,25.1 28.7,22.9 31.3,22.9 				"/>
			</g>
			<g>
				<path class="st0" d="M35.1,12.1H22.2c-0.5,0-0.8-0.4-0.8-0.8v-0.1c0-0.5,0.4-0.8,0.8-0.8h12.9c0.5,0,0.8,0.4,0.8,0.8v0.1
					C35.9,11.8,35.6,12.1,35.1,12.1z"/>
			</g>
			<g>
				<path class="st0" d="M35.1,15.6H22.2c-0.5,0-0.8-0.4-0.8-0.8v-0.1c0-0.5,0.4-0.8,0.8-0.8h12.9c0.5,0,0.8,0.4,0.8,0.8v0.1
					C35.9,15.2,35.6,15.6,35.1,15.6z"/>
			</g>
			<g>
				<path class="st0" d="M35.1,18.8H22.2c-0.5,0-0.8-0.4-0.8-0.8v-0.1c0-0.5,0.4-0.8,0.8-0.8h12.9c0.5,0,0.8,0.4,0.8,0.8v0.1
					C35.9,18.4,35.6,18.8,35.1,18.8z"/>
			</g>
			<g>
				<path class="st0" d="M19.1,19h-7.2c-0.4,0-0.8-0.3-0.8-0.8v-7.3c0-0.4,0.3-0.8,0.8-0.8h7.2c0.4,0,0.8,0.3,0.8,0.8v7.3
					C19.9,18.7,19.6,19,19.1,19z M11.9,10.6c-0.2,0-0.3,0.1-0.3,0.3v7.3c0,0.2,0.1,0.3,0.3,0.3h7.2c0.2,0,0.3-0.1,0.3-0.3v-7.3
					c0-0.2-0.1-0.3-0.3-0.3H11.9z"/>
			</g>
			<g>
				<g>
					<path class="st0" d="M35.2,29.2h-23c-0.6,0-1.1-0.4-1.1-0.9v-5.8c0-0.5,0.5-0.9,1.1-0.9h23c0.6,0,1.1,0.4,1.1,0.9v5.8
						C36.2,28.8,35.7,29.2,35.2,29.2z M12.1,22.1c-0.3,0-0.5,0.2-0.5,0.4v5.8c0,0.2,0.2,0.4,0.5,0.4h23c0.3,0,0.5-0.2,0.5-0.4v-5.8
						c0-0.2-0.2-0.4-0.5-0.4H12.1z"/>
				</g>
			</g>
		</g>
	</g>
	<g>
		<g>
			<path class="st0" d="M16.6,17.2h-2v-0.2c0.1,0,0.1,0,0.2,0s0.1,0,0.1,0c0.1,0,0.1-0.1,0.1-0.1c0,0,0-0.1,0-0.2v-1.9
				c0-0.1,0-0.1-0.1-0.2c0-0.1-0.1-0.1-0.1-0.1c0,0-0.1-0.1-0.2-0.1c-0.1,0-0.1,0-0.2,0V14l1.6-0.1l0,0v2.6c0,0.1,0,0.1,0,0.2
				c0,0.1,0.1,0.1,0.1,0.1c0,0,0.1,0,0.1,0.1c0.1,0,0.1,0,0.2,0V17.2z M16.1,12.8c0,0.2-0.1,0.3-0.2,0.4c-0.1,0.1-0.3,0.2-0.4,0.2
				c-0.2,0-0.3-0.1-0.4-0.2c-0.1-0.1-0.2-0.3-0.2-0.4s0.1-0.3,0.2-0.4c0.1-0.1,0.3-0.2,0.4-0.2s0.3,0.1,0.4,0.2
				C16,12.5,16.1,12.6,16.1,12.8z"/>
		</g>
	</g>
</g>
</svg>
