<?xml version="1.0" encoding="utf-8"?>
<!-- Generator: Adobe Illustrator 24.0.1, SVG Export Plug-In . SVG Version: 6.00 Build 0)  -->
<!DOCTYPE svg PUBLIC "-//W3C//DTD SVG 1.1//EN" "http://www.w3.org/Graphics/SVG/1.1/DTD/svg11.dtd" [
	<!ENTITY ns_extend "http://ns.adobe.com/Extensibility/1.0/">
	<!ENTITY ns_ai "http://ns.adobe.com/AdobeIllustrator/10.0/">
	<!ENTITY ns_graphs "http://ns.adobe.com/Graphs/1.0/">
	<!ENTITY ns_vars "http://ns.adobe.com/Variables/1.0/">
	<!ENTITY ns_imrep "http://ns.adobe.com/ImageReplacement/1.0/">
	<!ENTITY ns_sfw "http://ns.adobe.com/SaveForWeb/1.0/">
	<!ENTITY ns_custom "http://ns.adobe.com/GenericCustomNamespace/1.0/">
	<!ENTITY ns_adobe_xpath "http://ns.adobe.com/XPath/1.0/">
]>
<svg version="1.1" id="Layer_1" xmlns:x="&ns_extend;" xmlns:i="&ns_ai;" xmlns:graph="&ns_graphs;"
	 xmlns="http://www.w3.org/2000/svg" xmlns:xlink="http://www.w3.org/1999/xlink" x="0px" y="0px" width="18px" height="19.4px"
	 viewBox="0 0 18 19.4" style="enable-background:new 0 0 18 19.4;" xml:space="preserve">
<style type="text/css">
	.st0{fill:#FFFFFF;***REMOVED***
</style>
<metadata>
	<sfw  xmlns="&ns_sfw;">
		<slices></slices>
		<sliceSourceBounds  bottomLeftOrigin="true" height="17.4" width="14.5" x="1.9" y="0.6"></sliceSourceBounds>
	</sfw>
</metadata>
<g>
	<g>
		<g>
			<path class="st0" d="M16.3,5.3L16.3,5.3L16.3,5.3L16.3,5.3C16.3,5.2,16.3,5.2,16.3,5.3L16.3,5.3c0-0.1,0-0.1,0-0.2l0,0
				c0,0,0,0,0-0.1l0,0l0,0l0,0l-3.6-3.6l0,0l0,0l0,0c0,0,0,0-0.1,0l0,0c0,0,0,0-0.1,0l0,0c0,0,0,0-0.1,0l0,0c0,0,0,0-0.1,0l0,0l0,0
				h-9C2.5,1.4,1.9,2,1.9,2.8v14.6c0,0.8,0.6,1.4,1.4,1.4H15c0.8,0,1.4-0.6,1.4-1.4L16.3,5.3C16.3,5.4,16.3,5.3,16.3,5.3z M12.6,2.9
				l2,2h-1.5c-0.3,0-0.5-0.2-0.5-0.5V2.9z M14.8,17.8H3.2c-0.3,0-0.5-0.2-0.5-0.5V2.7c0-0.3,0.2-0.5,0.5-0.5h8.5v2.2
				c0,0.8,0.6,1.4,1.4,1.4h2.2v11.4C15.3,17.6,15.1,17.8,14.8,17.8z"/>
		</g>
		<path class="st0" d="M14.1,11.5H4.4c-0.1,0-0.2-0.1-0.2-0.3S4.3,11,4.4,11h9.7c0.1,0,0.2,0.1,0.2,0.3S14.3,11.5,14.1,11.5z"/>
		<g>
			<g>
				<path class="st0" d="M14.1,13.7H6c-0.2,0-0.3-0.1-0.3-0.3S5.9,13,6,13h8c0.2,0,0.3,0.1,0.3,0.3C14.4,13.5,14.3,13.7,14.1,13.7z"
					/>
			</g>
			<g>
				<path class="st0" d="M14.1,15H6c-0.2,0-0.3-0.1-0.3-0.3s0.1-0.3,0.3-0.3h8c0.2,0,0.3,0.1,0.3,0.3C14.4,14.9,14.3,15,14.1,15z"/>
			</g>
			<g>
				<path class="st0" d="M14.1,16.3H6c-0.2,0-0.3-0.1-0.3-0.3s0.1-0.3,0.3-0.3h8c0.2,0,0.3,0.1,0.3,0.3
					C14.4,16.2,14.3,16.3,14.1,16.3z"/>
			</g>
			<circle class="st0" cx="4.6" cy="13.2" r="0.3"/>
			<circle class="st0" cx="4.6" cy="14.7" r="0.3"/>
			<circle class="st0" cx="4.6" cy="16" r="0.3"/>
		</g>
		<path class="st0" d="M7,9.8c1.7,0,3-1.3,3-3s-1.3-3-3-3C6.8,3.8,6.6,4,6.6,4.2v1.9h-2c-0.2,0-0.4,0.2-0.4,0.4
			C3.8,8.4,5.3,9.8,7,9.8z M7,7.3c0.2,0,0.4-0.2,0.4-0.4V5c0.8,0.2,1.5,1,1.5,1.9c0,1-0.9,1.9-1.9,1.9c-0.8,0-1.7-0.6-1.9-1.5H7z"/>
	</g>
</g>
</svg>
