<?xml version="1.0" encoding="utf-8"?>
<!-- Generator: Adobe Illustrator 24.0.1, SVG Export Plug-In . SVG Version: 6.00 Build 0)  -->
<!DOCTYPE svg PUBLIC "-//W3C//DTD SVG 1.1//EN" "http://www.w3.org/Graphics/SVG/1.1/DTD/svg11.dtd" [
	<!ENTITY ns_extend "http://ns.adobe.com/Extensibility/1.0/">
	<!ENTITY ns_ai "http://ns.adobe.com/AdobeIllustrator/10.0/">
	<!ENTITY ns_graphs "http://ns.adobe.com/Graphs/1.0/">
	<!ENTITY ns_vars "http://ns.adobe.com/Variables/1.0/">
	<!ENTITY ns_imrep "http://ns.adobe.com/ImageReplacement/1.0/">
	<!ENTITY ns_sfw "http://ns.adobe.com/SaveForWeb/1.0/">
	<!ENTITY ns_custom "http://ns.adobe.com/GenericCustomNamespace/1.0/">
	<!ENTITY ns_adobe_xpath "http://ns.adobe.com/XPath/1.0/">
]>
<svg version="1.1" id="Capa_1" xmlns:x="&ns_extend;" xmlns:i="&ns_ai;" xmlns:graph="&ns_graphs;"
	 xmlns="http://www.w3.org/2000/svg" xmlns:xlink="http://www.w3.org/1999/xlink" x="0px" y="0px" width="47.3px" height="38px"
	 viewBox="0 0 47.3 38" style="enable-background:new 0 0 47.3 38;" xml:space="preserve">
<style type="text/css">
	.st0{fill:#FFFFFF;***REMOVED***
</style>
<metadata>
	<sfw  xmlns="&ns_sfw;">
		<slices></slices>
		<sliceSourceBounds  bottomLeftOrigin="true" height="30" width="33.2" x="8.1" y="4"></sliceSourceBounds>
	</sfw>
</metadata>
<g>
	<path class="st0" d="M33.8,8.7C31,5.7,27.1,4,23,4c-3.8,0-7.4,1.4-10.1,4c-3,2.8-4.8,6.8-4.8,10.9c0,4.2,1.8,8.3,5,11.1
		c2.7,2.4,6.2,3.8,9.9,3.8c1.5,0,3-0.2,4.4-0.7c-0.5-0.3-1-0.7-1.4-1.1h0c-0.1-0.1-0.2-0.2-0.3-0.3c-0.3,0.1-0.6,0.1-0.9,0.1
		c0.2-0.2,0.4-0.4,0.5-0.5c-0.3-0.3-0.5-0.6-0.7-0.9c-0.2,0.3-0.5,0.5-0.7,0.8v-2c-1.1-2.3-1.1-5.1,0-7.4v-2.3h1.5c0,0,0,0,0,0
		c0.4-0.4,0.8-0.8,1.2-1.1h-2.8v-4.9c1.2,0,2.4-0.1,3.5-0.4c0.4,1.4,0.6,2.8,0.7,4.4c0.4-0.2,0.8-0.3,1.1-0.5
		c-0.1-1.5-0.4-2.9-0.7-4.2c1.8-0.5,3.3-1.3,4.5-2.4c1.7,2,2.8,4.5,3.1,7.2c0.6,0.3,1.3,0.8,1.8,1.3C37.8,15,36.4,11.5,33.8,8.7z
		 M21.4,5.8C20,7.2,18.8,9.1,18,11.2c-1.5-0.6-2.7-1.4-3.6-2.3C16.4,7.2,18.8,6.1,21.4,5.8z M13.6,9.7c1,1.1,2.4,2,4.1,2.6
		c-0.5,1.8-0.9,3.8-0.9,6H9.8C10,15.1,11.3,12,13.6,9.7z M9.8,19.5h6.9c0,2.3,0.4,4.5,1,6.4c-1.5,0.6-2.9,1.4-3.9,2.4
		C11.4,26,10,22.8,9.8,19.5z M14.7,29.1c0.9-0.9,2.1-1.6,3.4-2.1c0.8,2,1.8,3.6,3.1,4.9C18.8,31.6,16.6,30.6,14.7,29.1z M22.6,31.6
		c-1.4-1.2-2.6-2.9-3.4-4.9c1.1-0.3,2.2-0.5,3.4-0.6V31.6z M22.6,24.9c-1.3,0.1-2.6,0.3-3.8,0.6c-0.6-1.8-0.9-3.9-1-6.1h4.7V24.9z
		 M22.6,18.3h-4.7c0.1-2,0.4-3.9,0.9-5.6c1.2,0.4,2.5,0.6,3.9,0.7V18.3z M22.6,12.2c-1.2-0.1-2.4-0.3-3.5-0.6c0.8-2.2,2-4,3.5-5.3
		V12.2z M23.8,12.3V6.8c1.3,1.3,2.4,3.1,3.2,5.1C25.9,12.1,24.9,12.2,23.8,12.3z M28.1,11.6c-0.8-2.3-2-4.3-3.6-5.8
		c2.9,0.3,5.6,1.6,7.7,3.7C31.1,10.4,29.7,11.2,28.1,11.6z"/>
	<path class="st0" d="M40.8,32.3l-3.2-2.9c2.1-3,1.6-7.3-1.5-9.7c-2.8-2.2-6.9-1.9-9.4,0.6C23.9,23.3,24,28,27,30.7h0
		c2.7,2.4,6.7,2.4,9.4,0.1l3.3,2.9c0.2,0.2,0.4,0.3,0.7,0.3c0.5,0,0.9-0.4,0.9-0.9C41.2,32.8,41.1,32.5,40.8,32.3z M35.7,28.9
		c-2,2.2-5.3,2.3-7.4,0.4h0c-2.2-2-2.3-5.3-0.4-7.4c2-2.2,5.3-2.3,7.4-0.4C37.5,23.4,37.6,26.8,35.7,28.9z"/>
</g>
</svg>
