<?xml version="1.0" encoding="UTF-8"?>
<svg width="48px" height="41px" viewBox="0 0 48 41" version="1.1" xmlns="http://www.w3.org/2000/svg" xmlns:xlink="http://www.w3.org/1999/xlink">
    <!-- Generator: Sketch 45 (43475) - http://www.bohemiancoding.com/sketch -->
    <title>icon-splash-paper</title>
    <desc>Created with Sketch.</desc>
    <defs>
        <path d="M35.6813933,30.9262371 L3.72590278,30.9262371 C3.34277642,30.9262371 3.03219115,31.2240037 3.03219115,31.5913175 C3.03219115,31.9586312 3.34277642,32.2563979 3.72590278,32.2563979 L35.6813933,32.2563979 C36.0645196,32.2563979 36.3751049,31.9586312 36.3751049,31.5913175 C36.3751049,31.2240037 36.0645196,30.9262371 35.6813933,30.9262371 Z" id="path-1"></path>
        <filter x="-21.0%" y="-375.9%" width="142.0%" height="1152.5%" filterUnits="objectBoundingBox" id="filter-2">
            <feOffset dx="0" dy="2" in="SourceAlpha" result="shadowOffsetOuter1"></feOffset>
            <feGaussianBlur stdDeviation="2" in="shadowOffsetOuter1" result="shadowBlurOuter1"></feGaussianBlur>
            <feColorMatrix values="0 0 0 0 0   0 0 0 0 0   0 0 0 0 0  0 0 0 0.5 0" type="matrix" in="shadowBlurOuter1"></feColorMatrix>
        </filter>
        <path d="M38.7023955,1.36234204 C39.0855219,1.36234204 39.3961071,1.06457542 39.3961071,0.697261676 C39.3961071,0.329947932 39.0855219,0.0321813081 38.7023955,0.0321813081 L6.70214944,0.0321813081 C6.31902309,0.0321813081 6.00843781,0.329947932 6.00843781,0.697261676 L6.00843781,5.86772518 C6.00843781,6.23503893 6.31902309,6.53280555 6.70214944,6.53280555 C7.08527579,6.53280555 7.39586107,6.23503893 7.39586107,5.86772518 L7.39586107,1.36234204 L38.7023955,1.36234204 Z" id="path-3"></path>
        <filter x="-21.0%" y="-76.9%" width="141.9%" height="315.4%" filterUnits="objectBoundingBox" id="filter-4">
            <feOffset dx="0" dy="2" in="SourceAlpha" result="shadowOffsetOuter1"></feOffset>
            <feGaussianBlur stdDeviation="2" in="shadowOffsetOuter1" result="shadowBlurOuter1"></feGaussianBlur>
            <feColorMatrix values="0 0 0 0 0   0 0 0 0 0   0 0 0 0 0  0 0 0 0.5 0" type="matrix" in="shadowBlurOuter1"></feColorMatrix>
        </filter>
        <path d="M1.3986121,28.32084 C1.39860845,28.3328432 1.39964053,28.3665389 1.40307309,28.4185632 C1.40919012,28.5112738 1.42037933,28.6160768 1.43790066,28.729601 C1.48773554,29.0524913 1.57712967,29.3740447 1.71294581,29.667114 C2.0763721,30.4513291 2.68490246,30.8886494 3.70352498,30.8886494 C4.7221475,30.8886494 5.33067787,30.4513291 5.69410416,29.667114 C5.8299203,29.3740447 5.91931443,29.0524913 5.96914931,28.729601 C5.98667063,28.6160768 5.99785985,28.5112738 6.00397688,28.4185632 C6.00740943,28.3665389 6.00844152,28.3328432 6.00843787,28.3208442 L6.00843781,6.55425976 L1.39861215,6.55425976 L1.3986121,28.32084 Z M7.38863261,28.5025369 C7.38015236,28.6310649 7.36503859,28.772627 7.34162863,28.9243049 C7.27462193,29.3584548 7.15359022,29.7938095 6.96201554,30.2071967 C6.38898708,31.4436995 5.31042195,32.2188101 3.70352498,32.2188101 C2.09662801,32.2188101 1.01806289,31.4436995 0.445034422,30.2071967 C0.253459745,29.7938095 0.132428034,29.3584548 0.0654213397,28.9243049 C0.0420113799,28.772627 0.0268976064,28.6310649 0.018417353,28.5025369 C0.0153560097,28.4561388 0.0133553189,28.4141918 0.0122182122,28.3770674 C0.0114638202,28.3524379 0.0111888972,5.88917939 0.0111888972,5.88917939 C0.0111888972,5.52186564 0.321774172,5.22409902 0.704900526,5.22409902 L6.70214944,5.22409902 C7.08527579,5.22409902 7.39586107,5.52186564 7.39586107,5.88917939 L7.39586107,28.320581 C7.39369465,28.4141918 7.39169396,28.4561388 7.38863261,28.5025369 Z" id="path-5"></path>
        <filter x="-94.8%" y="-18.5%" width="289.6%" height="151.9%" filterUnits="objectBoundingBox" id="filter-6">
            <feOffset dx="0" dy="2" in="SourceAlpha" result="shadowOffsetOuter1"></feOffset>
            <feGaussianBlur stdDeviation="2" in="shadowOffsetOuter1" result="shadowBlurOuter1"></feGaussianBlur>
            <feColorMatrix values="0 0 0 0 0   0 0 0 0 0   0 0 0 0 0  0 0 0 0.5 0" type="matrix" in="shadowBlurOuter1"></feColorMatrix>
        </filter>
        <path d="M38.0086839,0.718715882 L38.0086839,28.320581 C38.0086854,28.3326425 38.0076495,28.3664216 38.0042084,28.4186728 C37.9980679,28.5119118 37.986844,28.6173423 37.9692729,28.7315709 C37.9192698,29.0566389 37.8295986,29.3804063 37.693365,29.6755166 C37.3292636,30.4642358 36.7204137,30.9037102 35.7026074,30.9037102 C35.3194811,30.9037102 35.0088958,31.2014768 35.0088958,31.5687906 C35.0088958,31.9361043 35.3194811,32.2338709 35.7026074,32.2338709 C37.3103206,32.2338709 38.3890025,31.4552668 38.9620832,30.213855 C39.1537124,29.7987462 39.274794,29.3615687 39.3418505,28.9256372 C39.3652654,28.7734181 39.3803855,28.6313891 39.3888744,28.5024907 C39.3919354,28.4560106 39.3939368,28.4140138 39.3950758,28.3768747 C39.3958292,28.3523053 39.3961071,0.718715882 39.3961071,0.718715882 C39.3961071,0.351402137 39.0855219,0.0536355136 38.7023955,0.0536355136 C38.3192692,0.0536355136 38.0086839,0.351402137 38.0086839,0.718715882 Z" id="path-7"></path>
        <filter x="-159.6%" y="-15.5%" width="419.1%" height="143.5%" filterUnits="objectBoundingBox" id="filter-8">
            <feOffset dx="0" dy="2" in="SourceAlpha" result="shadowOffsetOuter1"></feOffset>
            <feGaussianBlur stdDeviation="2" in="shadowOffsetOuter1" result="shadowBlurOuter1"></feGaussianBlur>
            <feColorMatrix values="0 0 0 0 0   0 0 0 0 0   0 0 0 0 0  0 0 0 0.5 0" type="matrix" in="shadowBlurOuter1"></feColorMatrix>
        </filter>
        <path d="M11.0805439,6.13195518 L34.3719342,6.13195518 C34.7550606,6.13195518 35.0656459,5.83418855 35.0656459,5.46687481 C35.0656459,5.09956106 34.7550606,4.80179444 34.3719342,4.80179444 L11.0805439,4.80179444 C10.6974176,4.80179444 10.3868323,5.09956106 10.3868323,5.46687481 C10.3868323,5.83418855 10.6974176,6.13195518 11.0805439,6.13195518 Z" id="path-9"></path>
        <filter x="-28.4%" y="-375.9%" width="156.7%" height="1152.5%" filterUnits="objectBoundingBox" id="filter-10">
            <feOffset dx="0" dy="2" in="SourceAlpha" result="shadowOffsetOuter1"></feOffset>
            <feGaussianBlur stdDeviation="2" in="shadowOffsetOuter1" result="shadowBlurOuter1"></feGaussianBlur>
            <feColorMatrix values="0 0 0 0 0   0 0 0 0 0   0 0 0 0 0  0 0 0 0.5 0" type="matrix" in="shadowBlurOuter1"></feColorMatrix>
        </filter>
        <path d="M24.9612661,19.1954209 L34.3719342,19.1954209 C34.7550606,19.1954209 35.0656459,18.8976542 35.0656459,18.5303405 C35.0656459,18.1630267 34.7550606,17.8652601 34.3719342,17.8652601 L24.9612661,17.8652601 C24.5781397,17.8652601 24.2675544,18.1630267 24.2675544,18.5303405 C24.2675544,18.8976542 24.5781397,19.1954209 24.9612661,19.1954209 Z" id="path-11"></path>
        <filter x="-64.8%" y="-375.9%" width="229.7%" height="1152.5%" filterUnits="objectBoundingBox" id="filter-12">
            <feOffset dx="0" dy="2" in="SourceAlpha" result="shadowOffsetOuter1"></feOffset>
            <feGaussianBlur stdDeviation="2" in="shadowOffsetOuter1" result="shadowBlurOuter1"></feGaussianBlur>
            <feColorMatrix values="0 0 0 0 0   0 0 0 0 0   0 0 0 0 0  0 0 0 0.5 0" type="matrix" in="shadowBlurOuter1"></feColorMatrix>
        </filter>
        <path d="M11.0805439,19.1954209 L20.4912121,19.1954209 C20.8743385,19.1954209 21.1849237,18.8976542 21.1849237,18.5303405 C21.1849237,18.1630267 20.8743385,17.8652601 20.4912121,17.8652601 L11.0805439,17.8652601 C10.6974176,17.8652601 10.3868323,18.1630267 10.3868323,18.5303405 C10.3868323,18.8976542 10.6974176,19.1954209 11.0805439,19.1954209 Z" id="path-13"></path>
        <filter x="-64.8%" y="-375.9%" width="229.7%" height="1152.5%" filterUnits="objectBoundingBox" id="filter-14">
            <feOffset dx="0" dy="2" in="SourceAlpha" result="shadowOffsetOuter1"></feOffset>
            <feGaussianBlur stdDeviation="2" in="shadowOffsetOuter1" result="shadowBlurOuter1"></feGaussianBlur>
            <feColorMatrix values="0 0 0 0 0   0 0 0 0 0   0 0 0 0 0  0 0 0 0.5 0" type="matrix" in="shadowBlurOuter1"></feColorMatrix>
        </filter>
        <path d="M24.9612661,23.2085158 L34.3719342,23.2085158 C34.7550606,23.2085158 35.0656459,22.9107492 35.0656459,22.5434354 C35.0656459,22.1761217 34.7550606,21.8783551 34.3719342,21.8783551 L24.9612661,21.8783551 C24.5781397,21.8783551 24.2675544,22.1761217 24.2675544,22.5434354 C24.2675544,22.9107492 24.5781397,23.2085158 24.9612661,23.2085158 Z" id="path-15"></path>
        <filter x="-64.8%" y="-375.9%" width="229.7%" height="1152.5%" filterUnits="objectBoundingBox" id="filter-16">
            <feOffset dx="0" dy="2" in="SourceAlpha" result="shadowOffsetOuter1"></feOffset>
            <feGaussianBlur stdDeviation="2" in="shadowOffsetOuter1" result="shadowBlurOuter1"></feGaussianBlur>
            <feColorMatrix values="0 0 0 0 0   0 0 0 0 0   0 0 0 0 0  0 0 0 0.5 0" type="matrix" in="shadowBlurOuter1"></feColorMatrix>
        </filter>
        <path d="M11.0805439,23.2085158 L20.4912121,23.2085158 C20.8743385,23.2085158 21.1849237,22.9107492 21.1849237,22.5434354 C21.1849237,22.1761217 20.8743385,21.8783551 20.4912121,21.8783551 L11.0805439,21.8783551 C10.6974176,21.8783551 10.3868323,22.1761217 10.3868323,22.5434354 C10.3868323,22.9107492 10.6974176,23.2085158 11.0805439,23.2085158 Z" id="path-17"></path>
        <filter x="-64.8%" y="-375.9%" width="229.7%" height="1152.5%" filterUnits="objectBoundingBox" id="filter-18">
            <feOffset dx="0" dy="2" in="SourceAlpha" result="shadowOffsetOuter1"></feOffset>
            <feGaussianBlur stdDeviation="2" in="shadowOffsetOuter1" result="shadowBlurOuter1"></feGaussianBlur>
            <feColorMatrix values="0 0 0 0 0   0 0 0 0 0   0 0 0 0 0  0 0 0 0.5 0" type="matrix" in="shadowBlurOuter1"></feColorMatrix>
        </filter>
        <path d="M24.9612661,27.221482 L34.3719342,27.221482 C34.7550606,27.221482 35.0656459,26.9237154 35.0656459,26.5564017 C35.0656459,26.1890879 34.7550606,25.8913213 34.3719342,25.8913213 L24.9612661,25.8913213 C24.5781397,25.8913213 24.2675544,26.1890879 24.2675544,26.5564017 C24.2675544,26.9237154 24.5781397,27.221482 24.9612661,27.221482 Z" id="path-19"></path>
        <filter x="-64.8%" y="-375.9%" width="229.7%" height="1152.5%" filterUnits="objectBoundingBox" id="filter-20">
            <feOffset dx="0" dy="2" in="SourceAlpha" result="shadowOffsetOuter1"></feOffset>
            <feGaussianBlur stdDeviation="2" in="shadowOffsetOuter1" result="shadowBlurOuter1"></feGaussianBlur>
            <feColorMatrix values="0 0 0 0 0   0 0 0 0 0   0 0 0 0 0  0 0 0 0.5 0" type="matrix" in="shadowBlurOuter1"></feColorMatrix>
        </filter>
        <path d="M11.0805439,27.221482 L20.4912121,27.221482 C20.8743385,27.221482 21.1849237,26.9237154 21.1849237,26.5564017 C21.1849237,26.1890879 20.8743385,25.8913213 20.4912121,25.8913213 L11.0805439,25.8913213 C10.6974176,25.8913213 10.3868323,26.1890879 10.3868323,26.5564017 C10.3868323,26.9237154 10.6974176,27.221482 11.0805439,27.221482 Z" id="path-21"></path>
        <filter x="-64.8%" y="-375.9%" width="229.7%" height="1152.5%" filterUnits="objectBoundingBox" id="filter-22">
            <feOffset dx="0" dy="2" in="SourceAlpha" result="shadowOffsetOuter1"></feOffset>
            <feGaussianBlur stdDeviation="2" in="shadowOffsetOuter1" result="shadowBlurOuter1"></feGaussianBlur>
            <feColorMatrix values="0 0 0 0 0   0 0 0 0 0   0 0 0 0 0  0 0 0 0.5 0" type="matrix" in="shadowBlurOuter1"></feColorMatrix>
        </filter>
        <path d="M11.7742556,13.852251 L33.6782226,13.852251 L33.6782226,10.3329461 L11.7742556,10.3329461 L11.7742556,13.852251 Z M11.0805439,9.00278531 L34.3719342,9.00278531 C34.7550606,9.00278531 35.0656459,9.30055194 35.0656459,9.66786568 L35.0656459,14.5173314 C35.0656459,14.8846451 34.7550606,15.1824117 34.3719342,15.1824117 L11.0805439,15.1824117 C10.6974176,15.1824117 10.3868323,14.8846451 10.3868323,14.5173314 L10.3868323,9.66786568 C10.3868323,9.30055194 10.6974176,9.00278531 11.0805439,9.00278531 Z" id="path-23"></path>
        <filter x="-28.4%" y="-80.9%" width="156.7%" height="326.6%" filterUnits="objectBoundingBox" id="filter-24">
            <feOffset dx="0" dy="2" in="SourceAlpha" result="shadowOffsetOuter1"></feOffset>
            <feGaussianBlur stdDeviation="2" in="shadowOffsetOuter1" result="shadowBlurOuter1"></feGaussianBlur>
            <feColorMatrix values="0 0 0 0 0   0 0 0 0 0   0 0 0 0 0  0 0 0 0.5 0" type="matrix" in="shadowBlurOuter1"></feColorMatrix>
        </filter>
    </defs>
    <g id="Pages" stroke="none" stroke-width="1" fill="none" fill-rule="evenodd">
        <g id="Paraguay---Location-Profile" transform="translate(-610.000000, -614.000000)" fill-rule="nonzero">
            <g id="splash">
                <g id="subnav" transform="translate(392.000000, 614.000000)">
                    <g id="ejecucion" transform="translate(174.000000, 2.000000)">
                        <g id="icon-splash-paper" transform="translate(48.000000, 0.000000)">
                            <g id="Shape">
                                <use fill="black" fill-opacity="1" filter="url(#filter-2)" xlink:href="#path-1"></use>
                                <use fill="#FFFFFF" fill-rule="evenodd" xlink:href="#path-1"></use>
                            </g>
                            <g id="Shape">
                                <use fill="black" fill-opacity="1" filter="url(#filter-4)" xlink:href="#path-3"></use>
                                <use fill="#FFFFFF" fill-rule="evenodd" xlink:href="#path-3"></use>
                            </g>
                            <g id="Shape">
                                <use fill="black" fill-opacity="1" filter="url(#filter-6)" xlink:href="#path-5"></use>
                                <use fill="#FFFFFF" fill-rule="evenodd" xlink:href="#path-5"></use>
                            </g>
                            <g id="Shape">
                                <use fill="black" fill-opacity="1" filter="url(#filter-8)" xlink:href="#path-7"></use>
                                <use fill="#FFFFFF" fill-rule="evenodd" xlink:href="#path-7"></use>
                            </g>
                            <g id="Shape">
                                <use fill="black" fill-opacity="1" filter="url(#filter-10)" xlink:href="#path-9"></use>
                                <use fill="#FFFFFF" fill-rule="evenodd" xlink:href="#path-9"></use>
                            </g>
                            <g id="Shape">
                                <use fill="black" fill-opacity="1" filter="url(#filter-12)" xlink:href="#path-11"></use>
                                <use fill="#FFFFFF" fill-rule="evenodd" xlink:href="#path-11"></use>
                            </g>
                            <g id="Shape">
                                <use fill="black" fill-opacity="1" filter="url(#filter-14)" xlink:href="#path-13"></use>
                                <use fill="#FFFFFF" fill-rule="evenodd" xlink:href="#path-13"></use>
                            </g>
                            <g id="Shape">
                                <use fill="black" fill-opacity="1" filter="url(#filter-16)" xlink:href="#path-15"></use>
                                <use fill="#FFFFFF" fill-rule="evenodd" xlink:href="#path-15"></use>
                            </g>
                            <g id="Shape">
                                <use fill="black" fill-opacity="1" filter="url(#filter-18)" xlink:href="#path-17"></use>
                                <use fill="#FFFFFF" fill-rule="evenodd" xlink:href="#path-17"></use>
                            </g>
                            <g id="Shape">
                                <use fill="black" fill-opacity="1" filter="url(#filter-20)" xlink:href="#path-19"></use>
                                <use fill="#FFFFFF" fill-rule="evenodd" xlink:href="#path-19"></use>
                            </g>
                            <g id="Shape">
                                <use fill="black" fill-opacity="1" filter="url(#filter-22)" xlink:href="#path-21"></use>
                                <use fill="#FFFFFF" fill-rule="evenodd" xlink:href="#path-21"></use>
                            </g>
                            <g id="Rectangle-path">
                                <use fill="black" fill-opacity="1" filter="url(#filter-24)" xlink:href="#path-23"></use>
                                <use fill="#FFFFFF" fill-rule="evenodd" xlink:href="#path-23"></use>
                            </g>
                        </g>
                    </g>
                </g>
            </g>
        </g>
    </g>
</svg>