<svg xmlns="http://www.w3.org/2000/svg" width="190.523" height="78.201" viewBox="0 0 190.523 78.201">
  <g id="logoGobierno" transform="translate(24.223 10.379)">
    <g id="c" transform="translate(-24.223 -10.379)">
      <g id="Group_3536" data-name="Group 3536" transform="translate(0 0)">
        <g id="Group_3534" data-name="Group 3534">
          <g id="Group_3533" data-name="Group 3533">
            <path id="Path_3517" data-name="Path 3517" d="M33.449,33.535l1.3-6.77-3.561-8.36-3.98-4.151a2.677,2.677,0,0,1-.229-.19c6.38,2.771,11.15,10.293,11.95,19.405v.048l-5.494.019Zm-2.028.01-7-.029V14.435s.057.048.086.076c4.113,3.542,6.913,10.607,6.913,18.748v.3m7.494-.029-5.456.019s-.01-.647-.029-1.009a27.112,27.112,0,0,0-.19-3.352,28.424,28.424,0,0,0-4.3-12.683A14.68,14.68,0,0,0,27,14.092l-.029-.038s.533.324.828.514c.438.276.866.562,1.276.857a26.212,26.212,0,0,1,3.371,2.9c.067.067.3.3.552.59s.524.609.733.847A23.173,23.173,0,0,1,36.1,23.185a18.728,18.728,0,0,1,1.028,2.171A26.353,26.353,0,0,1,38.9,33.278l.019.248m-.019-.248Zm2.723-.7L38.924,21.671l-5.656-6.046s-1.676-1.19-2.628-1.838a7.8,7.8,0,0,0-.667-.409.047.047,0,0,1,.029.01A22.608,22.608,0,0,1,44.113,33.507v.019l-2.495-.943Zm-.647.952s-.2-2.209-.59-4.18a23.934,23.934,0,0,0-.933-3.333,24.254,24.254,0,0,0-1.3-3.18,23.829,23.829,0,0,0-4.075-6.075,21.009,21.009,0,0,0-2.028-1.933c-.514-.428-.971-.762-1.3-1,.19.114.448.267.752.438.571.333,1.257.733,1.99,1.228.333.219.628.457.971.714.076.057,1.114.857,2.123,1.819a25.087,25.087,0,0,1,2.2,2.409,24.826,24.826,0,0,1,2.752,4.294,24.062,24.062,0,0,1,1.961,5.484c.286,1.266.5,3.3.5,3.3H40.962Zm-2.066,0-5.456.019s-.01-.647-.029-1.009a27.113,27.113,0,0,0-.19-3.352,28.424,28.424,0,0,0-4.3-12.683A14.68,14.68,0,0,0,26.993,14.1l-.029-.038s.533.324.828.514c.438.276.866.562,1.276.857a26.212,26.212,0,0,1,3.371,2.9c.067.067.3.3.552.59s.524.609.733.847a23.173,23.173,0,0,1,2.361,3.418,18.727,18.727,0,0,1,1.028,2.171,26.353,26.353,0,0,1,1.771,7.922l.019.248m-.019-.248ZM19.49,14.254l-3.98,4.161-3.561,8.37,1.3,6.77L7.76,33.535v-.048c.8-9.112,5.57-16.644,11.95-19.415a2.677,2.677,0,0,1-.229.19m-4.2,19.31v-.3c0-8.141,2.809-15.216,6.913-18.748.029-.029.086-.076.086-.076v19.1l-7,.029ZM7.8,33.3ZM19.709,14.092A14.609,14.609,0,0,0,17.776,16.5a28.506,28.506,0,0,0-4.3,12.683,27.053,27.053,0,0,0-.19,3.352c-.01.362-.029,1.009-.029,1.009L7.8,33.526s.019-.219.019-.248h0A26.11,26.11,0,0,1,9.6,25.347a19.5,19.5,0,0,1,1.028-2.171,22.47,22.47,0,0,1,2.361-3.418c.2-.238.476-.571.733-.847s.486-.514.552-.59a26.8,26.8,0,0,1,3.371-2.9c.409-.3.838-.571,1.276-.857.3-.19.828-.514.828-.514l-.029.038Zm-3.637-.314c-.952.647-2.628,1.838-2.628,1.838L7.788,21.662,4.913,33.535H2.6v-.029A22.611,22.611,0,0,1,16.71,13.378h.029a4.811,4.811,0,0,0-.667.4m-3.437,2.98a23.829,23.829,0,0,0-4.075,6.075,25.648,25.648,0,0,0-1.3,3.18,24.258,24.258,0,0,0-.933,3.342c-.4,1.971-.59,4.18-.59,4.18H2.7s.219-2.038.5-3.3A24.287,24.287,0,0,1,5.17,24.737a24.615,24.615,0,0,1,4.951-6.7c1.019-.962,2.047-1.762,2.123-1.819.343-.257.647-.5.971-.714.733-.5,1.419-.9,1.99-1.228.3-.181.562-.324.752-.438-.333.229-.79.571-1.3,1a23.613,23.613,0,0,0-2.028,1.933M7.8,33.288Zm11.912-19.2A14.609,14.609,0,0,0,17.776,16.5a28.506,28.506,0,0,0-4.3,12.683,27.053,27.053,0,0,0-.19,3.352c-.01.362-.029,1.009-.029,1.009L7.8,33.526s.019-.219.019-.248h0A26.11,26.11,0,0,1,9.6,25.347a19.5,19.5,0,0,1,1.028-2.171,22.47,22.47,0,0,1,2.361-3.418c.2-.238.476-.571.733-.847s.486-.514.552-.59a26.8,26.8,0,0,1,3.371-2.9c.409-.3.838-.571,1.276-.857.3-.19.828-.514.828-.514l-.029.038ZM27.422,6.56H19.243a.13.13,0,0,1-.133-.133V6.113a.13.13,0,0,1,.133-.133h8.179a.13.13,0,0,1,.133.133v.314a.13.13,0,0,1-.133.133m0,6.17H19.243a.13.13,0,0,1-.133-.133v-.314a.13.13,0,0,1,.133-.133h8.179a.13.13,0,0,1,.133.133V12.6a.13.13,0,0,1-.133.133M45.189,35.725H1.513a.13.13,0,0,1-.133-.133v-.371a.13.13,0,0,1,.133-.133H45.189a.13.13,0,0,1,.133.133v.371a.13.13,0,0,1-.133.133M22.575,1.666h-.124s-.029-.01-.029-.029V1.324s.01-.029.029-.029h.124s.029.01.029.029v.314s-.01.029-.029.029m1.657,0h-.124s-.029-.01-.029-.029V1.324s.01-.029.029-.029h.124s.029.01.029.029v.314s-.01.029-.029.029m-1.809-.038h1.838v.1H22.423Zm1-1.219H23.27S23.232.39,23.232.371V.038S23.251,0,23.27,0h.152s.038.019.038.038V.371s-.019.038-.038.038m-.124,0h.114V2.552H23.3V.409Zm-3.1,5.151V5.542a3.163,3.163,0,1,1,6.322-.01v.029H20.185Zm7.132.962H19.385a.252.252,0,0,1-.248-.248V6.208a.252.252,0,0,1,.248-.248h7.941a.252.252,0,0,1,.248.248v.067a.246.246,0,0,1-.248.248m0,6.2H19.385a.252.252,0,0,1-.248-.248v-.067a.252.252,0,0,1,.248-.248h7.941a.252.252,0,0,1,.248.248v.067a.246.246,0,0,1-.248.248m-3.571-1.076h-.8a.246.246,0,0,1-.248-.248V7.151a.246.246,0,0,1,.248-.248h.8A.252.252,0,0,1,24,7.151V11.4a.246.246,0,0,1-.248.248m2.066,0h-.8a.246.246,0,0,1-.248-.248V7.151a.246.246,0,0,1,.248-.248h.8a.246.246,0,0,1,.248.248V11.4a.252.252,0,0,1-.248.248m-4.151,0h-.8a.246.246,0,0,1-.248-.248V7.151a.252.252,0,0,1,.248-.248h.8a.252.252,0,0,1,.248.248V11.4a.246.246,0,0,1-.248.248m9.588,23.709v-.962a.211.211,0,0,1,.209-.209H33.4a.211.211,0,0,1,.209.209v.9l-2.342.067Zm2.095,3.437H31.507a.246.246,0,0,1-.248-.248V36.7a.252.252,0,0,1,.248-.248h1.847a.252.252,0,0,1,.248.248v1.847a.252.252,0,0,1-.248.248m5.389-3.437v-.962a.211.211,0,0,1,.209-.209h1.933a.211.211,0,0,1,.209.209v.9l-2.342.067Zm2.095,3.437H38.991a.246.246,0,0,1-.248-.248V36.7a.246.246,0,0,1,.248-.248h1.847a.252.252,0,0,1,.248.248v1.847a.252.252,0,0,1-.248.248M13.12,35.278v-.9a.211.211,0,0,1,.209-.209h1.933a.211.211,0,0,1,.209.209v.971l-2.342-.067Zm2.095,3.513H13.368a.246.246,0,0,1-.248-.248V36.7a.246.246,0,0,1,.248-.248h1.847a.252.252,0,0,1,.248.248v1.847a.246.246,0,0,1-.248.248M5.636,35.278v-.9a.211.211,0,0,1,.209-.209H7.779a.211.211,0,0,1,.209.209v.971l-2.342-.067Zm2.095,3.513H5.884a.246.246,0,0,1-.248-.248V36.7a.246.246,0,0,1,.248-.248H7.731a.252.252,0,0,1,.248.248v1.847a.252.252,0,0,1-.248.248m14.454-3.513v-.9a.211.211,0,0,1,.209-.209h1.933a.211.211,0,0,1,.209.209v.971l-2.342-.067Zm2.095,3.513H22.432a.246.246,0,0,1-.248-.248V36.7a.252.252,0,0,1,.248-.248H24.28a.252.252,0,0,1,.248.248v1.847a.252.252,0,0,1-.248.248m20.8-3.075H1.628a.252.252,0,0,1-.248-.248v-.143a.252.252,0,0,1,.248-.248H45.084a.252.252,0,0,1,.248.248v.143a.252.252,0,0,1-.248.248m0,5.142H1.628a.252.252,0,0,1-.248-.248V39.582a.246.246,0,0,1,.248-.248H45.084a.252.252,0,0,1,.248.248V40.61a.252.252,0,0,1-.248.248" transform="translate(-1.38)" fill="#203c73"/>
            <g id="Group_3531" data-name="Group 3531" transform="translate(0 47.285)">
              <path id="Path_3518" data-name="Path 3518" d="M1.38,52.707v-.019A2.938,2.938,0,0,1,4.322,49.66a3.1,3.1,0,0,1,2.19.781l-.428.5A2.5,2.5,0,0,0,4.3,50.269a2.29,2.29,0,0,0-2.228,2.4v.019A2.265,2.265,0,0,0,4.4,55.125a2.756,2.756,0,0,0,1.695-.59V53.078H4.313v-.59H6.731v2.333a3.541,3.541,0,0,1-2.352.9A2.879,2.879,0,0,1,1.4,52.7" transform="translate(-1.38 -49.66)" fill="#203c73"/>
              <path id="Path_3519" data-name="Path 3519" d="M9.28,52.707v-.019a2.99,2.99,0,1,1,5.98-.01V52.7a2.99,2.99,0,1,1-5.98.01m5.294,0v-.019a2.329,2.329,0,0,0-2.314-2.419,2.3,2.3,0,0,0-2.295,2.4v.019a2.329,2.329,0,0,0,2.314,2.418,2.3,2.3,0,0,0,2.295-2.4" transform="translate(-1.758 -49.66)" fill="#203c73"/>
              <path id="Path_3520" data-name="Path 3520" d="M18.03,49.77h2.495a2.129,2.129,0,0,1,1.533.524,1.278,1.278,0,0,1,.381.933v.019a1.4,1.4,0,0,1-.933,1.352c.7.209,1.257.609,1.257,1.419v.019c0,1.009-.847,1.6-2.123,1.6h-2.6V49.77Zm2.39,2.609c.8,0,1.352-.362,1.352-1.047v-.019c0-.581-.457-.952-1.295-.952H18.7v2.019h1.733Zm.238,2.657c.886,0,1.438-.39,1.438-1.047v-.019c0-.638-.533-1.009-1.562-1.009H18.687v2.066h1.971Z" transform="translate(-2.176 -49.665)" fill="#203c73"/>
              <rect id="Rectangle_1480" data-name="Rectangle 1480" width="0.657" height="5.865" transform="translate(22.909 0.105)" fill="#203c73"/>
              <path id="Path_3521" data-name="Path 3521" d="M28.94,49.77h4.237v.6H29.607v2.009H32.8v.6h-3.19v2.047h3.609v.609H28.94Z" transform="translate(-2.698 -49.665)" fill="#203c73"/>
              <path id="Path_3522" data-name="Path 3522" d="M35.83,49.77h2.523a2.3,2.3,0,0,1,1.666.59,1.611,1.611,0,0,1,.448,1.152v.019a1.706,1.706,0,0,1-1.59,1.7l1.8,2.39h-.809l-1.7-2.276H36.487v2.276H35.82V49.76Zm2.466,2.99c.876,0,1.5-.457,1.5-1.209v-.019c0-.724-.552-1.152-1.5-1.152H36.487v2.38h1.8Z" transform="translate(-3.027 -49.665)" fill="#203c73"/>
              <path id="Path_3523" data-name="Path 3523" d="M43.19,49.77h.628L47.5,54.464V49.77h.647v5.865h-.524l-3.79-4.808v4.808H43.19Z" transform="translate(-3.38 -49.665)" fill="#203c73"/>
              <path id="Path_3524" data-name="Path 3524" d="M50.87,52.707v-.019a2.99,2.99,0,1,1,5.98-.01V52.7a2.99,2.99,0,1,1-5.98.01m5.294,0v-.019a2.329,2.329,0,0,0-2.314-2.419,2.3,2.3,0,0,0-2.295,2.4v.019a2.329,2.329,0,0,0,2.314,2.418,2.3,2.3,0,0,0,2.295-2.4" transform="translate(-3.747 -49.66)" fill="#203c73"/>
              <path id="Path_3525" data-name="Path 3525" d="M63.26,49.77H65.3a2.924,2.924,0,0,1,3.114,2.914V52.7A2.939,2.939,0,0,1,65.3,55.635H63.26V49.77ZM65.3,55.016a2.269,2.269,0,0,0,2.428-2.3v-.019A2.284,2.284,0,0,0,65.3,50.37H63.927v4.637H65.3Z" transform="translate(-4.34 -49.665)" fill="#203c73"/>
              <path id="Path_3526" data-name="Path 3526" d="M71.14,49.77h4.237v.6H71.807v2.009H75v.6h-3.19v2.047h3.609v.609H71.14Z" transform="translate(-4.717 -49.665)" fill="#203c73"/>
              <path id="Path_3527" data-name="Path 3527" d="M81.67,49.77h.667v5.246h3.294v.619H81.67Z" transform="translate(-5.221 -49.665)" fill="#203c73"/>
              <path id="Path_3528" data-name="Path 3528" d="M90.266,49.73h.619l2.666,5.9h-.714l-.686-1.552h-3.19l-.7,1.552H87.59ZM91.9,53.491,90.57,50.5l-1.343,2.99H91.9Z" transform="translate(-5.504 -49.663)" fill="#203c73"/>
            </g>
            <g id="Group_3532" data-name="Group 3532" transform="translate(0 55.942)">
              <path id="Path_3529" data-name="Path 3529" d="M10.264,70.5a2.22,2.22,0,0,1-2.542-.714L5.855,67.4a2.212,2.212,0,0,0-1.981-.79v2.342c0,.847.581.99,1.352,1.085.086.01.029.409-.076.409H1.5c-.1,0-.171-.4-.076-.409.619-.086,1-.324,1-1.085V63.56c0-.8-.419-1.028-1-1.181-.1-.029-.038-.428.076-.409a12.323,12.323,0,0,0,1.39.076c.9,0,1.723-.076,2.314-.076,1.828,0,3.047.752,3.047,2.238A2.158,2.158,0,0,1,6.1,66.359v.057c.486,0,.838.209,1.362.866l1.8,2.257a1.31,1.31,0,0,0,1,.609c.1,0,.076.324,0,.352m-3.542-5.97A1.77,1.77,0,0,0,4.827,62.6c-.714,0-.943.286-.943.971v2.495h.352c1.8,0,2.495-.314,2.495-1.523" transform="translate(-1.38 -58.907)" fill="#203c73"/>
              <path id="Path_3530" data-name="Path 3530" d="M12.756,70.044c.7-.181,1.247-.3,1.247-1.181v-5.37c0-.771-.5-.981-1.019-1.114-.1-.029-.038-.428.057-.409.886.1,2.409.076,3.142.076,1.1,0,1.895-.048,2.885-.076.286,0,.286.19.229.476L19,63.6a.212.212,0,0,1-.39,0c-.181-.59-.543-.933-2.057-.933-.847,0-1.124.219-1.124.847v1.971c0,.314.162.371.4.371H16.1a3.531,3.531,0,0,0,2.323-.543c.124-.1.39-.086.276.162L18.012,67c-.1.219-.276.19-.409.01a1.944,1.944,0,0,0-1.6-.543h-.171c-.238,0-.4.057-.4.371v2.028c0,.686.3.943,1.295.943a3.041,3.041,0,0,0,2.837-1.295c.086-.133.409-.076.409.133,0,.619-.524,1.838-1.285,1.838-.676-.038-1.343-.076-2.361-.076-1.114,0-2.428-.038-3.533.076-.124.01-.171-.409-.076-.438" transform="translate(-1.919 -58.907)" fill="#203c73"/>
              <path id="Path_3531" data-name="Path 3531" d="M25.314,67.207v1.742c0,.847.581.99,1.352,1.085.086.01.029.409-.076.409H22.924c-.1,0-.171-.4-.076-.409.619-.086,1-.324,1-1.085V63.56c0-.8-.419-1.028-1-1.181-.1-.029-.038-.428.076-.409a12.206,12.206,0,0,0,1.39.076c.9,0,1.647-.076,2.257-.076,1.876,0,3.418.686,3.418,2.59,0,2.152-2.019,3.056-4.694,2.657m0-3.647v3.056c2.057.286,3.133-.209,3.133-1.79A2.06,2.06,0,0,0,26.266,62.6c-.762,0-.971.267-.971.971" transform="translate(-2.404 -58.907)" fill="#203c73"/>
              <path id="Path_3532" data-name="Path 3532" d="M33.9,67.129v-3.8a.957.957,0,0,0-.981-1.085c-.1-.01-.029-.409.076-.409h3.3c.1,0,.171.4.076.409A.953.953,0,0,0,35.4,63.33v3.856a2.178,2.178,0,0,0,2.266,2.476,2.257,2.257,0,0,0,2.371-2.476V63.33c0-.79-.448-1-1.038-1.085-.086-.01-.029-.409.076-.409H41.8c.086,0,.152.4.057.409a.953.953,0,0,0-.971,1.085v3.78a3.122,3.122,0,0,1-3.361,3.371c-1.7,0-3.609-.9-3.609-3.361m3.552-8.3c.219-.314,1.228.619.943.838l-1.581,1.2c-.162.124-.581-.267-.457-.438l1.1-1.6Z" transform="translate(-2.886 -58.753)" fill="#203c73"/>
              <path id="Path_3533" data-name="Path 3533" d="M52.081,68.006c0,1.495-1.362,2.466-3.38,2.466-.581,0-1.257-.076-2.152-.076a15.89,15.89,0,0,0-1.895.076c-.1.01-.171-.409-.076-.438.7-.181,1.247-.3,1.247-1.181v-5.37c0-.771-.5-.981-1.019-1.114-.1-.029-.038-.419.057-.409a13.89,13.89,0,0,0,1.466.076c.971,0,1.676-.076,2.209-.076,1.562,0,2.837.657,2.856,1.981a1.824,1.824,0,0,1-1.523,1.828v.076a2.144,2.144,0,0,1,2.209,2.161m-4.808-4.523v2.152H48.52A1.23,1.23,0,0,0,49.9,64.264a1.583,1.583,0,0,0-1.762-1.676c-.638,0-.857.219-.857.9m3.247,4.789a1.888,1.888,0,0,0-2.009-2.028H47.272v2.609c0,.667.343.99,1.39.99s1.857-.314,1.857-1.571" transform="translate(-3.444 -58.906)" fill="#203c73"/>
              <path id="Path_3534" data-name="Path 3534" d="M54.887,70.046c.7-.181,1.247-.3,1.247-1.181v-5.37c0-.847-.5-1.019-1.019-1.085-.1-.01-.029-.409.057-.409H58.5c.086,0,.143.4.057.409a.957.957,0,0,0-.99,1.085v5.37c0,.686.286.943,1.295.943a3.074,3.074,0,0,0,2.847-1.295c.086-.133.409-.076.409.133,0,.619-.524,1.838-1.285,1.838-.676-.038-1.343-.076-2.361-.076-1.114,0-2.428-.038-3.533.076-.124.01-.171-.409-.076-.438" transform="translate(-3.936 -58.908)" fill="#203c73"/>
              <path id="Path_3535" data-name="Path 3535" d="M64.738,70.046c.619-.086,1-.324,1-1.085V63.495c0-.762-.39-1-1-1.085-.1-.01-.029-.409.076-.409h3.314c.1,0,.171.4.076.409-.524.076-1,.238-1,1.085V68.96c0,.847.486,1.019,1,1.085.1.01.019.409-.076.409H64.814c-.1,0-.171-.4-.076-.409" transform="translate(-4.408 -58.908)" fill="#203c73"/>
              <path id="Path_3536" data-name="Path 3536" d="M71.05,66.37a4.384,4.384,0,0,1,4.666-4.58c1.4,0,2.609.438,2.466.857l-.152.467c-.438,1.295-.9-.362-3.056-.362-1.733,0-2.571,1.124-2.571,2.866a3.657,3.657,0,0,0,3.723,3.856,4.971,4.971,0,0,0,1.942-.571c.1-.057.352.219.276.324a4.7,4.7,0,0,1-2.514,1.4c-2.028,0-4.77-1.181-4.77-4.266" transform="translate(-4.712 -58.898)" fill="#203c73"/>
              <path id="Path_3537" data-name="Path 3537" d="M89.848,70.447h-3.19c-.162,0-.171-.39-.038-.409.448-.086.933-.238.486-1.285l-.133-.3c-.124-.286-.324-.314-.686-.314H83.821c-.362,0-.571.029-.686.314l-.124.3c-.419,1.038.038,1.2.619,1.285.162.019.124.409-.038.409H80.984c-.143,0-.181-.39-.038-.409.5-.086.79-.257,1.228-1.285l2.047-4.694a5.078,5.078,0,0,0,.619-2.019,1.669,1.669,0,0,1,.886-.181l2.952,6.875c.438,1.028.724,1.219,1.209,1.295.171.019.124.409-.029.409m-3.371-3.18-1.419-3.38-1.428,3.38c-.076.171.1.19.276.19H86.2c.171,0,.352-.029.276-.19" transform="translate(-5.181 -58.9)" fill="#203c73"/>
              <path id="Path_3538" data-name="Path 3538" d="M96.447,70.044c.7-.181,1.247-.3,1.247-1.181v-5.37c0-.771-.5-.981-1.019-1.114-.1-.029-.038-.428.057-.409a13.212,13.212,0,0,0,1.514.076c.943,0,1.79-.076,2.409-.076,2.923,0,4.513,1.742,4.513,4.075a4.283,4.283,0,0,1-4.523,4.437c-.581,0-1.333-.076-2.228-.076a15.979,15.979,0,0,0-1.895.076c-.124.01-.171-.409-.076-.438m7.265-3.314c0-2.314-1.257-4.123-3.437-4.123-.857,0-1.133.267-1.133.886v5.37c0,.657.448.981,1.619.981,1.971,0,2.952-1.066,2.952-3.1" transform="translate(-5.925 -58.907)" fill="#203c73"/>
              <path id="Path_3539" data-name="Path 3539" d="M108.37,66.255a4.316,4.316,0,0,1,4.389-4.475,4.158,4.158,0,0,1,4.361,4.361,4.376,4.376,0,1,1-8.75.1m7.313.571c0-2.447-1.657-4.218-3.4-4.218-1.066,0-2.466.7-2.466,2.971,0,2.466,1.657,4.228,3.39,4.228,1.066,0,2.476-.7,2.476-2.99" transform="translate(-6.497 -58.898)" fill="#203c73"/>
              <path id="Path_3540" data-name="Path 3540" d="M130.842,70.448H127.69c-.086,0-.143-.4-.076-.409a.9.9,0,0,0,.847-1.085l-.229-4.066-1.961,3.99a6.6,6.6,0,0,0-.486,1.247c-.029.143-.276.219-.476.219a.376.376,0,0,1-.371-.219l-2.79-5.294-.181,4.123c-.038.847.457,1.038.847,1.085.1.01.029.409-.057.409h-2.5c-.1,0-.171-.4-.076-.409.524-.057.952-.238,1-1.085l.39-6.941c.01-.2.467-.219.59,0l3.5,6.551,3.247-6.551c.1-.219.59-.2.609,0l.39,6.941c.048.847.486,1.028.99,1.085.1.01.029.409-.057.409" transform="translate(-7.06 -58.901)" fill="#203c73"/>
              <path id="Path_3541" data-name="Path 3541" d="M133.988,70.046c.619-.086,1-.324,1-1.085V63.495c0-.762-.39-1-1-1.085-.1-.01-.029-.409.076-.409h3.314c.1,0,.171.4.076.409-.524.076-1,.238-1,1.085V68.96c0,.847.486,1.019,1,1.085.1.01.019.409-.076.409h-3.314c-.1,0-.171-.4-.076-.409" transform="translate(-7.721 -58.908)" fill="#203c73"/>
              <path id="Path_3542" data-name="Path 3542" d="M147.676,70.34l-5.751-6.018v4.589c0,.819.486.952,1.171,1.124.1.019.048.409-.076.409h-2.866c-.1,0-.171-.371-.057-.409.5-.171.99-.267.99-1.124V64.217a2.509,2.509,0,0,0-.447-1.695c-.1-.143-.219-.238-.219-.276a.26.26,0,0,1,.248-.267h.9a.311.311,0,0,1,.286.1l5.637,5.961V63.493c0-.857-.543-.952-1.171-1.114-.1-.019-.048-.409.076-.409h2.866c.1,0,.162.39.057.409-.533.152-.99.257-.99,1.114v4.7a10.835,10.835,0,0,0,.143,2.123c.048.181-.143.229-.343.229a.55.55,0,0,1-.448-.229" transform="translate(-8.012 -58.907)" fill="#203c73"/>
              <path id="Path_3543" data-name="Path 3543" d="M152.318,70.046c.619-.086,1-.324,1-1.085V63.495c0-.762-.39-1-1-1.085-.1-.01-.029-.409.076-.409h3.314c.1,0,.171.4.076.409-.524.076-1,.238-1,1.085V68.96c0,.847.486,1.019,1,1.085.1.01.029.409-.076.409h-3.314c-.1,0-.171-.4-.076-.409" transform="translate(-8.597 -58.908)" fill="#203c73"/>
              <path id="Path_3544" data-name="Path 3544" d="M158.63,66.37a4.384,4.384,0,0,1,4.666-4.58c1.4,0,2.609.438,2.466.857l-.162.467c-.438,1.295-.9-.362-3.056-.362-1.733,0-2.58,1.124-2.58,2.866a3.657,3.657,0,0,0,3.723,3.856,4.971,4.971,0,0,0,1.942-.571c.1-.057.352.219.276.324a4.668,4.668,0,0,1-2.514,1.4c-2.028,0-4.77-1.181-4.77-4.266" transform="translate(-8.901 -58.898)" fill="#203c73"/>
              <path id="Path_3545" data-name="Path 3545" d="M177.428,70.447h-3.19c-.162,0-.171-.39-.038-.409.448-.086.933-.238.486-1.285l-.133-.3c-.124-.286-.324-.314-.686-.314H171.4c-.362,0-.571.029-.686.314l-.124.3c-.419,1.038.038,1.2.619,1.285.162.019.124.409-.038.409h-2.609c-.143,0-.181-.39-.038-.409.5-.086.79-.257,1.228-1.285l2.038-4.694a5.079,5.079,0,0,0,.619-2.019,1.669,1.669,0,0,1,.885-.181l2.952,6.875c.438,1.028.724,1.219,1.209,1.295.171.019.124.409-.029.409m-3.371-3.18-1.419-3.38-1.428,3.38c-.076.171.1.19.276.19h2.285c.171,0,.352-.029.276-.19" transform="translate(-9.371 -58.9)" fill="#203c73"/>
              <path id="Path_3546" data-name="Path 3546" d="M187.836,70.34l-5.751-6.018v4.589c0,.819.486.952,1.171,1.124.1.019.048.409-.076.409h-2.866c-.1,0-.171-.371-.057-.409.5-.171.99-.267.99-1.124V64.217a2.509,2.509,0,0,0-.448-1.695c-.1-.143-.219-.238-.219-.276a.259.259,0,0,1,.238-.267h.9a.311.311,0,0,1,.286.1l5.637,5.961V63.493c0-.857-.543-.952-1.171-1.114-.1-.019-.048-.409.076-.409h2.866c.1,0,.152.39.057.409-.533.152-.99.257-.99,1.114v4.7a10.834,10.834,0,0,0,.143,2.123c.048.181-.143.229-.343.229a.55.55,0,0,1-.448-.229" transform="translate(-9.933 -58.907)" fill="#203c73"/>
              <path id="Path_3547" data-name="Path 3547" d="M200.878,70.447h-3.19c-.162,0-.171-.39-.038-.409.448-.086.933-.238.486-1.285l-.133-.3c-.124-.286-.324-.314-.686-.314h-2.466c-.362,0-.571.029-.686.314l-.124.3c-.419,1.038.038,1.2.619,1.285.162.019.124.409-.038.409h-2.609c-.143,0-.181-.39-.038-.409.5-.086.781-.257,1.228-1.285l2.038-4.694a5.079,5.079,0,0,0,.619-2.019,1.669,1.669,0,0,1,.885-.181l2.952,6.875c.438,1.028.724,1.219,1.209,1.295.171.019.124.409-.029.409m-3.371-3.18-1.419-3.38-1.428,3.38c-.076.171.1.19.276.19h2.285c.171,0,.352-.029.276-.19" transform="translate(-10.492 -58.9)" fill="#203c73"/>
            </g>
          </g>
          <path id="Path_3548" data-name="Path 3548" d="M52.026,82.009H1.38v-2.4H52.026" transform="translate(-1.38 -3.808)" fill="#ec252c"/>
        </g>
      </g>
    </g>
  </g>
</svg>
