<?xml version="1.0" encoding="utf-8"?>
<!-- Generator: Adobe Illustrator 24.2.1, SVG Export Plug-In . SVG Version: 6.00 Build 0)  -->
<svg version="1.1" id="Layer_1" xmlns="http://www.w3.org/2000/svg" xmlns:xlink="http://www.w3.org/1999/xlink" x="0px" y="0px"
	 width="747px" height="225px" viewBox="0 0 747 225" style="enable-background:new 0 0 747 225;" xml:space="preserve">
<style type="text/css">
	.st0{fill:#48789E;***REMOVED***
	.st1{fill:#FFFFFF;***REMOVED***
	.st2{fill:#F6921E;***REMOVED***
	.st3{fill:#231F20;***REMOVED***
</style>
<g>
	<path d="M81.2,112.5V76l-18,30.1h-4.6l-18-29.6v36h-9.8v-55h8.5L60.9,94l21.3-36.5h8.5v55H81.2z"/>
	<path d="M135,74.4c3.3,3.1,4.9,7.5,4.9,13.4v24.7h-9.3v-5.1c-1.3,1.8-2.8,3.3-5.1,4.1c-2.3,1-4.9,1.5-8,1.5c-3.1,0-5.9-0.5-8.2-1.5
		c-2.3-1-4.1-2.6-5.4-4.4c-1.3-1.8-1.8-4.1-1.8-6.4c0-3.9,1.3-6.7,4.1-9c2.8-2.3,7.2-3.3,13.1-3.3h10.8v-0.5c0-2.8-0.8-5.1-2.6-6.7
		c-1.8-1.5-4.4-2.3-7.7-2.3c-2.3,0-4.6,0.3-6.9,1c-2.3,0.8-4.1,1.8-5.7,3.1l-3.9-7.2c2.3-1.8,4.9-2.8,8-3.9c3.1-0.8,6.4-1.3,9.8-1.3
		C127,70.1,131.6,71.3,135,74.4z M126,104c1.8-1,3.3-2.8,4.1-4.9v-4.9h-10c-5.7,0-8.5,1.8-8.5,5.7c0,1.8,0.8,3.1,2.1,4.1
		c1.3,1,3.3,1.5,5.9,1.5C121.8,105.8,124.2,105.3,126,104z"/>
	<path d="M186.7,72.6c3.3,1.8,5.7,4.4,7.5,7.5c1.8,3.3,2.8,6.9,2.8,11.3c0,4.1-1,8-2.8,11.3c-1.8,3.3-4.4,5.9-7.5,7.5
		c-3.3,1.8-6.9,2.6-11.1,2.6c-5.7,0-10-1.8-13.4-5.7v20.3h-9.8V70.6h9.3V76c1.5-2.1,3.6-3.6,5.9-4.4c2.3-1,4.9-1.5,8-1.5
		C179.7,70.1,183.3,70.8,186.7,72.6z M183.6,100.9c2.3-2.3,3.6-5.7,3.6-9.5c0-3.9-1.3-7.2-3.6-9.5c-2.3-2.3-5.4-3.6-9-3.6
		c-2.3,0-4.4,0.5-6.4,1.5c-2.1,1-3.3,2.6-4.4,4.6c-1,2.1-1.5,4.4-1.5,6.9c0,2.6,0.5,4.9,1.5,6.9c1,2.1,2.6,3.6,4.4,4.6
		s4.1,1.5,6.4,1.5C178.2,104.5,181.3,103.2,183.6,100.9z"/>
	<path d="M236,74.4c3.3,3.1,4.9,7.5,4.9,13.4v24.7h-9.3v-5.1c-1.3,1.8-2.8,3.3-5.1,4.1c-2.3,1-4.9,1.5-8,1.5s-5.9-0.5-8.2-1.5
		c-2.3-1-4.1-2.6-5.4-4.4c-1.3-1.8-1.8-4.1-1.8-6.4c0-3.9,1.3-6.7,4.1-9c2.8-2.3,7.2-3.3,13.1-3.3h10.8v-0.5c0-2.8-0.8-5.1-2.6-6.7
		c-1.8-1.5-4.4-2.3-7.7-2.3c-2.3,0-4.6,0.3-6.9,1c-2.3,0.8-4.1,1.8-5.7,3.1l-3.9-7.2c2.3-1.8,4.9-2.8,8-3.9c3.1-0.8,6.4-1.3,9.8-1.3
		C227.8,70.1,232.7,71.3,236,74.4z M227,104c1.8-1,3.3-2.8,4.1-4.9v-4.9h-10c-5.7,0-8.5,1.8-8.5,5.7c0,1.8,0.8,3.1,2.1,4.1
		c1.3,1,3.3,1.5,5.9,1.5C222.9,105.8,225,105.3,227,104z"/>
	<path d="M253.5,57.5h12.6v55h-12.6V57.5z"/>
	<path d="M316.8,74.2c3.3,3.1,4.9,7.7,4.9,13.9v24.2h-12.3V89.9c0-3.3-0.8-5.9-2.3-7.5c-1.5-1.5-3.6-2.6-6.4-2.6
		c-3.1,0-5.7,1-7.5,2.8c-1.8,1.8-2.8,4.6-2.8,8.5V112H278V70.1h11.6v4.9c1.5-1.8,3.6-3.1,6.2-4.1c2.3-1,5.1-1.5,8-1.5
		C309.3,69.5,313.4,71.1,316.8,74.2z"/>
	<path d="M373.9,70.1l-17.7,42.2h-12.6l-17.7-42.2h12.6L350,98.9l12.1-28.8L373.9,70.1z"/>
	<path d="M418.9,94.8H387c0.5,2.6,2.1,4.6,4.1,6.2c2.1,1.5,4.9,2.3,8,2.3c2.3,0,4.1-0.3,5.9-1c1.8-0.8,3.3-1.8,4.6-3.1l6.4,6.9
		c-3.9,4.6-9.8,6.9-17.5,6.9c-4.9,0-9-1-12.6-2.8c-3.6-1.8-6.4-4.4-8.5-7.7s-3.1-6.9-3.1-11.3c0-4.1,1-8,2.8-11.3
		c2.1-3.3,4.6-5.9,8-7.7c3.3-1.8,7.2-2.8,11.6-2.8c4.1,0,8,0.8,11.3,2.6s5.9,4.4,8,7.7c1.8,3.3,2.8,7.2,2.8,11.6
		C418.9,91.7,418.9,92.7,418.9,94.8z M390.1,81.1c-1.8,1.5-3.1,3.6-3.3,6.4h20.8c-0.5-2.6-1.5-4.9-3.3-6.4c-1.8-1.5-4.1-2.3-6.9-2.3
		C394.2,78.8,391.9,79.6,390.1,81.1z"/>
	<path d="M444.9,71.1c2.6-1,5.4-1.5,8.5-1.5v11.3c-1.3,0-2.3-0.3-2.8-0.3c-3.6,0-6.2,1-8.2,2.8c-2.1,2.1-3.1,4.9-3.1,8.7v20.1h-12.3
		V70.1h11.6v5.7C440.2,73.7,442.3,72.1,444.9,71.1z"/>
	<path d="M464.7,111.7c-3.3-0.8-5.9-2.1-8-3.3l4.1-8.7c1.8,1.3,4.1,2.1,6.9,2.8c2.8,0.8,5.4,1,8,1c5.1,0,7.7-1.3,7.7-3.9
		c0-1.3-0.8-2.1-2.1-2.6s-3.6-1-6.4-1.3c-3.3-0.5-6.4-1-8.5-1.8c-2.3-0.8-4.1-1.8-5.9-3.6c-1.8-1.8-2.6-4.1-2.6-7.5
		c0-2.6,0.8-5.1,2.3-7.2c1.5-2.1,3.9-3.6,6.7-4.9c2.8-1,6.4-1.8,10.5-1.8c3.1,0,5.9,0.3,9,1c3.1,0.8,5.4,1.5,7.5,2.8l-4.1,8.7
		c-3.6-2.1-7.7-3.1-12.1-3.1c-2.6,0-4.6,0.3-5.9,1c-1.3,0.8-2.1,1.8-2.1,2.8c0,1.3,0.8,2.3,2.1,2.8c1.3,0.5,3.6,1,6.7,1.5
		c3.3,0.5,6.2,1.3,8.5,1.8c2.3,0.8,4.1,1.8,5.7,3.6c1.5,1.8,2.3,4.1,2.3,7.2c0,2.6-0.8,4.9-2.3,6.9s-3.9,3.6-6.9,4.6
		c-3.1,1-6.7,1.8-10.8,1.8C471.6,113,468,112.5,464.7,111.7z"/>
	<path d="M503.3,62.3c-1.3-1.3-2.1-2.8-2.1-4.9c0-2.1,0.8-3.6,2.1-4.9c1.3-1.3,3.3-2.1,5.4-2.1c2.3,0,4.1,0.5,5.4,1.8
		c1.5,1.3,2.1,2.8,2.1,4.6c0,2.1-0.8,3.6-2.1,5.1c-1.3,1.3-3.3,2.1-5.4,2.1C506.3,64.1,504.5,63.6,503.3,62.3z M502.5,70.1h12.3
		v42.2h-12.3V70.1z"/>
	<path d="M534.4,110.2c-3.6-1.8-6.2-4.4-8.2-7.7c-2.1-3.3-3.1-6.9-3.1-11.3c0-4.1,1-8,3.1-11.3c2.1-3.3,4.6-5.9,8.2-7.7
		c3.6-1.8,7.5-2.8,12.1-2.8c4.4,0,8.5,1,11.8,2.8c3.6,1.8,6.2,4.4,8.2,7.7s3.1,6.9,3.1,11.3c0,4.1-1,8-3.1,11.3s-4.6,5.9-8.2,7.7
		s-7.5,2.8-11.8,2.8C541.8,113,538,112,534.4,110.2z M553.9,99.9c2.1-2.1,3.1-4.9,3.1-8.5s-1-6.4-3.1-8.5c-2.1-2.1-4.6-3.1-7.7-3.1
		s-5.7,1-7.7,3.1c-2.1,2.1-3.1,4.9-3.1,8.5s1,6.4,3.1,8.5c2.1,2.1,4.6,3.1,7.7,3.1C549.5,103,552.1,102,553.9,99.9z"/>
	<path d="M615.9,74.2c3.3,3.1,4.9,7.7,4.9,13.9v24.2h-12.3V89.9c0-3.3-0.8-5.9-2.3-7.5c-1.5-1.5-3.6-2.6-6.4-2.6
		c-3.1,0-5.7,1-7.5,2.8c-1.8,1.8-2.8,4.6-2.8,8.5V112h-12.3V70.1h11.6v4.9c1.5-1.8,3.6-3.1,6.2-4.1c2.3-1,5.1-1.5,8-1.5
		C608.4,69.5,612.8,71.1,615.9,74.2z"/>
	<path d="M673.5,94.8h-31.9c0.5,2.6,2.1,4.6,4.1,6.2c2.1,1.5,4.9,2.3,8,2.3c2.3,0,4.1-0.3,5.9-1c1.8-0.8,3.3-1.8,4.6-3.1l6.4,6.9
		c-3.9,4.6-9.8,6.9-17.5,6.9c-4.9,0-9-1-12.6-2.8c-3.6-1.8-6.4-4.4-8.5-7.7c-2.1-3.3-2.8-6.9-2.8-11.3c0-4.1,1-8,2.8-11.3
		c2.1-3.3,4.6-5.9,8-7.7c3.3-1.8,7.2-2.8,11.6-2.8c4.1,0,8,0.8,11.3,2.6s5.9,4.4,8,7.7c1.8,3.3,2.8,7.2,2.8,11.6
		C673.8,91.7,673.8,92.7,673.5,94.8z M645,81.1c-1.8,1.5-3.1,3.6-3.3,6.4h20.8c-0.5-2.6-1.5-4.9-3.3-6.4c-1.8-1.5-4.1-2.3-6.9-2.3
		C649.1,78.8,646.8,79.6,645,81.1z"/>
	<path d="M685.9,111.7c-3.3-0.8-5.9-2.1-8-3.3l4.1-8.7c1.8,1.3,4.1,2.1,6.9,2.8s5.4,1,8,1c5.1,0,7.7-1.3,7.7-3.9
		c0-1.3-0.8-2.1-2.1-2.6s-3.6-1-6.4-1.3c-3.3-0.5-6.4-1-8.5-1.8c-2.3-0.8-4.1-1.8-5.9-3.6c-1.8-1.8-2.6-4.1-2.6-7.5
		c0-2.6,0.8-5.1,2.3-7.2c1.5-2.1,3.9-3.6,6.7-4.9c2.8-1,6.4-1.8,10.5-1.8c3.1,0,5.9,0.3,9,1c3.1,0.8,5.4,1.5,7.5,2.8l-4.1,8.7
		c-3.6-2.1-7.7-3.1-12.1-3.1c-2.6,0-4.6,0.3-5.9,1c-1.3,0.8-2.1,1.8-2.1,2.8c0,1.3,0.8,2.3,2.1,2.8c1.3,0.5,3.6,1,6.7,1.5
		c3.3,0.5,6.2,1.3,8.5,1.8c2.3,0.8,4.1,1.8,5.7,3.6c1.5,1.8,2.3,4.1,2.3,7.2c0,2.6-0.8,4.9-2.3,6.9c-1.5,2.1-3.9,3.6-6.9,4.6
		c-3.1,1-6.7,1.8-10.8,1.8C692.5,113,689.2,112.5,685.9,111.7z"/>
</g>
<g>
	<g>
		<path class="st0" d="M153.2,159.7H139v14h-8.6v-14h-14.2v-8h14.2v-14h8.6v14h14.2V159.7z"/>
		<g>
			<g>
				<path class="st0" d="M395.2,171.8c-2.8-1.5-5-3.7-6.7-6.4c-1.6-2.7-2.4-5.8-2.4-9.2c0-3.4,0.8-6.5,2.4-9.2
					c1.6-2.7,3.9-4.8,6.7-6.4c2.8-1.5,6-2.3,9.5-2.3c2.8,0,5.4,0.5,7.8,1.5c2.4,1,4.3,2.4,6,4.3l-4.2,3.9c-2.5-2.7-5.6-4.1-9.3-4.1
					c-2.4,0-4.5,0.5-6.4,1.6c-1.9,1-3.4,2.5-4.4,4.3c-1.1,1.9-1.6,4-1.6,6.3c0,2.4,0.5,4.5,1.6,6.3c1.1,1.9,2.5,3.3,4.4,4.3
					c1.9,1,4,1.6,6.4,1.6c3.7,0,6.8-1.4,9.3-4.1l4.2,4c-1.6,1.9-3.6,3.3-6,4.3c-2.4,1-5,1.5-7.8,1.5
					C401.2,174.1,398,173.3,395.2,171.8z"/>
				<path class="st0" d="M430.7,171.8c-2.8-1.5-5.1-3.7-6.7-6.4c-1.6-2.7-2.4-5.8-2.4-9.2c0-3.4,0.8-6.4,2.4-9.2
					c1.6-2.7,3.9-4.9,6.7-6.4c2.8-1.5,6-2.3,9.6-2.3c3.5,0,6.7,0.8,9.6,2.3c2.8,1.5,5.1,3.7,6.7,6.4c1.6,2.7,2.4,5.8,2.4,9.2
					c0,3.4-0.8,6.5-2.4,9.2c-1.6,2.7-3.9,4.8-6.7,6.4c-2.9,1.5-6,2.3-9.6,2.3C436.7,174.1,433.5,173.3,430.7,171.8z M446.5,166.9
					c1.9-1,3.3-2.5,4.4-4.4c1.1-1.9,1.6-4,1.6-6.3s-0.5-4.4-1.6-6.3c-1.1-1.9-2.5-3.3-4.4-4.4c-1.9-1-3.9-1.6-6.3-1.6
					s-4.4,0.5-6.3,1.6c-1.9,1-3.3,2.5-4.4,4.4c-1.1,1.9-1.6,4-1.6,6.3s0.5,4.4,1.6,6.3c1.1,1.9,2.5,3.3,4.4,4.4
					c1.9,1,3.9,1.6,6.3,1.6S444.7,167.9,446.5,166.9z"/>
				<path class="st0" d="M496.5,138.8l-15.2,34.8H475l-15.2-34.8h7l11.6,26.8l11.7-26.8H496.5z"/>
				<path class="st0" d="M500.2,138.8h6.5v34.8h-6.5V138.8z"/>
				<path class="st0" d="M516.1,138.8h15.2c3.7,0,7,0.7,9.9,2.2c2.9,1.4,5.1,3.5,6.7,6.1c1.6,2.6,2.4,5.7,2.4,9.1
					c0,3.4-0.8,6.5-2.4,9.1c-1.6,2.6-3.8,4.7-6.7,6.1c-2.9,1.4-6.2,2.2-9.9,2.2h-15.2V138.8z M531,168.2c2.5,0,4.8-0.5,6.7-1.5
					c1.9-1,3.4-2.4,4.5-4.2c1-1.8,1.6-3.9,1.6-6.3c0-2.4-0.5-4.5-1.6-6.3c-1-1.8-2.5-3.2-4.5-4.2c-1.9-1-4.2-1.5-6.7-1.5h-8.4v23.9
					H531z"/>
				<path class="st0" d="M555.4,157.2h13.7v5.2h-13.7V157.2z"/>
				<path class="st0" d="M585,138.8v34.8h-6.5v-29.4h-7.4v-5.4H585z"/>
				<path class="st0" d="M614.8,142.8c2.6,3,3.9,7.3,3.9,12.8c0,3.9-0.7,7.2-2.1,10c-1.4,2.8-3.4,4.9-6,6.3
					c-2.6,1.4-5.5,2.2-8.9,2.2c-1.8,0-3.5-0.2-5-0.6c-1.6-0.4-2.9-0.9-4.1-1.7l2.4-4.9c1.7,1.1,3.9,1.7,6.6,1.7c3.3,0,6-1,7.8-3.1
					s2.8-5,2.8-8.9v0c-1,1.2-2.3,2.1-3.9,2.7c-1.6,0.6-3.4,0.9-5.4,0.9c-2.3,0-4.3-0.4-6.2-1.3c-1.8-0.9-3.2-2.1-4.3-3.8
					c-1-1.6-1.5-3.5-1.5-5.6c0-2.3,0.6-4.2,1.7-5.9s2.7-3,4.6-4c1.9-0.9,4.1-1.4,6.5-1.4C608.4,138.3,612.1,139.8,614.8,142.8z
					 M609.3,153.5c1.3-1.1,2-2.5,2-4.3c0-1.7-0.6-3.1-1.9-4.2c-1.3-1.1-3-1.7-5.3-1.7c-2,0-3.7,0.5-4.9,1.6
					c-1.3,1.1-1.9,2.5-1.9,4.3c0,1.8,0.6,3.3,1.9,4.3c1.3,1.1,2.9,1.6,5.1,1.6C606.3,155.2,607.9,154.7,609.3,153.5z"/>
			</g>
			<g>
				<path class="st0" d="M205.9,174.1l-0.1-24.1l-12,20h-3l-12-19.7v23.8h-6.4v-36.4h5.6l14.5,24.1l14.2-24.1h5.6l0.1,36.4H205.9z"
					/>
				<path class="st0" d="M226.4,172.7c-2.3-1.2-4-2.9-5.3-5.1c-1.3-2.2-1.9-4.6-1.9-7.4s0.6-5.2,1.9-7.3c1.3-2.1,3-3.8,5.3-5
					c2.3-1.2,4.8-1.8,7.6-1.8c2.8,0,5.4,0.6,7.6,1.8c2.3,1.2,4,2.9,5.3,5c1.3,2.1,1.9,4.6,1.9,7.3s-0.6,5.2-1.9,7.4
					c-1.3,2.2-3,3.9-5.3,5.1c-2.3,1.2-4.8,1.8-7.6,1.8C231.1,174.5,228.6,173.9,226.4,172.7z M239.9,166.5c1.6-1.6,2.3-3.7,2.3-6.3
					c0-2.6-0.8-4.7-2.3-6.3s-3.5-2.4-5.9-2.4s-4.4,0.8-5.9,2.4c-1.5,1.6-2.3,3.7-2.3,6.3c0,2.6,0.8,4.7,2.3,6.3
					c1.5,1.6,3.5,2.4,5.9,2.4S238.3,168.1,239.9,166.5z M236.6,135.4h7.6l-9,7.1h-5.6L236.6,135.4z"/>
				<path class="st0" d="M282.2,135.5v38.6H276v-3.6c-1.1,1.3-2.4,2.3-4,3c-1.6,0.7-3.3,1-5.2,1c-2.7,0-5.1-0.6-7.2-1.8
					c-2.1-1.2-3.8-2.9-5-5c-1.2-2.2-1.8-4.7-1.8-7.5c0-2.8,0.6-5.3,1.8-7.4c1.2-2.1,2.9-3.8,5-5s4.5-1.8,7.2-1.8
					c1.8,0,3.5,0.3,5,0.9c1.5,0.6,2.8,1.6,3.9,2.8v-14.2H282.2z M271.8,167.9c1.2-0.7,2.2-1.7,3-3s1.1-2.8,1.1-4.6s-0.4-3.3-1.1-4.6
					s-1.7-2.3-3-3c-1.2-0.7-2.7-1.1-4.2-1.1s-3,0.4-4.2,1.1c-1.2,0.7-2.2,1.7-3,3s-1.1,2.8-1.1,4.6s0.4,3.3,1.1,4.6s1.7,2.3,3,3
					s2.7,1.1,4.2,1.1S270.5,168.6,271.8,167.9z"/>
				<path class="st0" d="M317.6,146.4v27.8h-6.2v-3.5c-1,1.2-2.3,2.2-3.9,2.9c-1.6,0.7-3.2,1-5,1c-3.7,0-6.6-1-8.8-3.1
					c-2.1-2.1-3.2-5.1-3.2-9.2v-15.9h6.5v15c0,2.5,0.6,4.4,1.7,5.6c1.1,1.2,2.7,1.8,4.8,1.8c2.3,0,4.2-0.7,5.5-2.2
					c1.4-1.4,2.1-3.5,2.1-6.2v-14H317.6z"/>
				<path class="st0" d="M326.2,135.5h6.5v38.6h-6.5V135.5z"/>
				<path class="st0" d="M346.1,172.7c-2.3-1.2-4-2.9-5.3-5.1c-1.3-2.2-1.9-4.6-1.9-7.4s0.6-5.2,1.9-7.3s3-3.8,5.3-5
					c2.3-1.2,4.8-1.8,7.6-1.8c2.8,0,5.4,0.6,7.6,1.8c2.3,1.2,4,2.9,5.3,5c1.3,2.1,1.9,4.6,1.9,7.3s-0.6,5.2-1.9,7.4
					c-1.3,2.2-3,3.9-5.3,5.1c-2.3,1.2-4.8,1.8-7.6,1.8C350.9,174.5,348.3,173.9,346.1,172.7z M359.6,166.5c1.6-1.6,2.3-3.7,2.3-6.3
					c0-2.6-0.8-4.7-2.3-6.3c-1.6-1.6-3.5-2.4-5.9-2.4c-2.4,0-4.4,0.8-5.9,2.4c-1.5,1.6-2.3,3.7-2.3,6.3c0,2.6,0.8,4.7,2.3,6.3
					c1.5,1.6,3.5,2.4,5.9,2.4C356.1,168.9,358,168.1,359.6,166.5z"/>
			</g>
		</g>
	</g>
</g>
</svg>
