<?xml version="1.0" encoding="UTF-8"?>
<svg id="Layer_1" data-name="Layer 1" xmlns="http://www.w3.org/2000/svg" version="1.1" viewBox="0 0 320.9 61.7">
  <defs>
    <style>
      .cls-1 {
        fill: #f16322;
  ***REMOVED***

      .cls-1, .cls-2 {
        stroke-width: 0px;
  ***REMOVED***

      .cls-2 {
        fill: #003876;
  ***REMOVED***
    </style>
  </defs>
  <g id="logoMIV">
    <path id="Path_15698" data-name="Path 15698" class="cls-2" d="M78.8,20.3v21h-2.1v-16.8l-8.2,14.1h-1.1l-8.2-14v16.7h-2.1v-21h1.8l9.1,15.6,9-15.6h1.8ZM90.7,25.4c1.7-.1,3.4.4,4.7,1.5,1.2,1.2,1.8,2.9,1.7,4.6v9.8h-2v-2.5c-.5.8-1.2,1.5-2.1,1.9-1,.5-2.2.7-3.3.7-1.5,0-3-.4-4.2-1.3-1-.8-1.6-2-1.6-3.3,0-1.2.5-2.4,1.5-3.2,1.4-.9,3-1.4,4.6-1.2h5v-1c0-1.2-.3-2.3-1.1-3.1-.9-.8-2.1-1.2-3.3-1.1-1,0-2,.2-2.9.5-.9.3-1.7.8-2.4,1.4l-1-1.6c.8-.7,1.8-1.2,2.9-1.6,1.1-.4,2.3-.6,3.5-.6ZM90,39.8c1.1,0,2.2-.3,3.1-.8.9-.6,1.5-1.4,1.9-2.4v-2.6h-5c-2.7,0-4,.9-4,2.8,0,.9.4,1.7,1,2.2.9.6,1.9.9,2.9.8ZM111,25.4c1.4,0,2.8.3,4,1,1.2.7,2.2,1.6,2.8,2.8.7,1.3,1,2.7,1,4.2,0,1.5-.3,2.9-1,4.2-.7,1.2-1.6,2.2-2.8,2.8-1.2.7-2.6,1-4,1-1.2,0-2.4-.3-3.5-.8-1-.5-1.9-1.3-2.5-2.3v8.8h-2.1v-21.6h2v3.1c.6-1,1.5-1.8,2.5-2.4,1.1-.6,2.3-.9,3.6-.8ZM110.9,39.6c1,0,2.1-.3,3-.8.9-.5,1.6-1.3,2.1-2.2.5-1,.8-2.1.8-3.2,0-1.1-.2-2.2-.8-3.2-.5-.9-1.2-1.7-2.1-2.2-1.9-1-4.1-1-6,0-.9.5-1.6,1.3-2.1,2.2-.5,1-.8,2.1-.8,3.2,0,1.1.2,2.2.8,3.2.5.9,1.2,1.7,2.1,2.2.9.5,2,.8,3,.8ZM128.7,25.4c1.7-.1,3.4.4,4.7,1.5,1.2,1.2,1.8,2.9,1.7,4.6v9.8h-2v-2.5c-.5.8-1.2,1.5-2.1,1.9-1,.5-2.2.7-3.3.7-1.5,0-3-.4-4.2-1.3-1-.8-1.6-2-1.6-3.3,0-1.2.5-2.4,1.5-3.2,1.4-.9,3-1.4,4.6-1.2h5v-1c0-1.2-.3-2.3-1.1-3.1-.9-.8-2.1-1.2-3.3-1.1-1,0-2,.2-2.9.5-.9.3-1.7.8-2.4,1.4l-1-1.6c.8-.7,1.8-1.2,2.9-1.6,1.1-.4,2.3-.6,3.5-.6ZM127.9,39.8c1.1,0,2.2-.3,3.1-.8.9-.6,1.5-1.4,1.9-2.4v-2.6h-4.9c-2.7,0-4.1.9-4.1,2.8,0,.9.4,1.7,1.1,2.2.9.6,1.9.9,2.9.8ZM140.4,20.3h4.9v21h-4.9v-21ZM159.7,24.9c1.8,0,3.5.6,4.8,1.8,1.3,1.5,2,3.4,1.8,5.3v9.2h-4.7v-8.5c0-1-.2-2-.8-2.9-.6-.7-1.5-1-2.4-.9-1.1,0-2.1.3-2.8,1.1-.8.9-1.1,2.1-1.1,3.3v8h-4.7v-16.1h4.5v1.9c.6-.7,1.4-1.2,2.3-1.6,1-.4,2-.6,3-.6ZM186.3,25.2l-6.8,16.1h-4.8l-6.8-16.1h4.8l4.5,11,4.6-11h4.5ZM203.6,33.3c0,0,0,.5,0,1.3h-12.2c.2,1,.8,1.8,1.6,2.4.9.6,2,.9,3.1.9.8,0,1.5-.1,2.2-.4.7-.3,1.3-.7,1.8-1.2l2.5,2.7c-1.5,1.7-3.7,2.6-6.7,2.6-1.7,0-3.3-.3-4.8-1.1-1.3-.7-2.5-1.7-3.2-3-.8-1.3-1.2-2.8-1.1-4.3,0-1.5.4-3,1.1-4.3.7-1.3,1.8-2.3,3.1-3,2.7-1.4,5.9-1.4,8.7,0,1.3.7,2.3,1.7,3,2.9.8,1.4,1.1,2.9,1.1,4.4ZM195.2,28.5c-1,0-1.9.3-2.7.9-.7.6-1.2,1.5-1.3,2.5h7.9c-.1-1-.6-1.8-1.3-2.4-.7-.6-1.7-.9-2.6-.9ZM211.2,27.3c.6-.8,1.4-1.4,2.3-1.8,1-.4,2.2-.6,3.3-.6v4.3c-.5,0-.9,0-1.1,0-1.2,0-2.3.3-3.2,1.1-.8.9-1.2,2.1-1.1,3.4v7.6h-4.7v-16.1h4.5v2.1ZM225,41.6c-1.3,0-2.6-.2-3.9-.5-1.1-.2-2.1-.7-3.1-1.2l1.6-3.4c.8.5,1.7.9,2.6,1.1,1,.3,2,.4,3,.4,2,0,3-.5,3-1.5,0-.5-.3-.9-.8-1-.8-.3-1.6-.4-2.5-.5-1.1-.2-2.2-.4-3.3-.7-.9-.3-1.6-.7-2.2-1.4-.7-.8-1-1.8-.9-2.8,0-1,.3-1.9.9-2.7.7-.8,1.6-1.5,2.6-1.8,1.3-.5,2.6-.7,4-.7,1.1,0,2.3.1,3.4.4,1,.2,1.9.5,2.8,1l-1.6,3.3c-1.4-.8-3-1.2-4.6-1.2-.8,0-1.5,0-2.2.4-.4.2-.7.6-.8,1.1,0,.5.3.9.8,1,.8.3,1.7.5,2.6.6,1.1.2,2.2.4,3.2.7.8.2,1.6.7,2.2,1.4.7.8,1,1.8.9,2.8,0,1-.3,1.9-.9,2.7-.7.8-1.6,1.5-2.6,1.8-1.3.5-2.7.7-4.1.6h0ZM235.5,25.2h4.7v16.1h-4.7v-16.1ZM237.9,22.9c-.8,0-1.5-.2-2.1-.8-.5-.5-.8-1.2-.8-1.9,0-.7.3-1.4.8-1.9.6-.5,1.3-.8,2.1-.8.8,0,1.5.2,2.1.7.5.4.8,1.1.8,1.8,0,.7-.3,1.4-.8,1.9-.6.5-1.3.8-2.1.8h0ZM252.2,41.6c-1.6,0-3.2-.3-4.6-1.1-1.3-.7-2.4-1.7-3.2-3-.8-1.3-1.2-2.8-1.1-4.3,0-1.5.4-3,1.1-4.3.8-1.3,1.9-2.3,3.2-3,2.9-1.4,6.3-1.4,9.1,0,1.3.7,2.4,1.7,3.1,3,.8,1.3,1.2,2.8,1.1,4.3,0,1.5-.4,3-1.1,4.3-.8,1.3-1.8,2.3-3.1,3-1.4.7-3,1.1-4.6,1.1ZM252.2,37.7c1.1,0,2.2-.4,3-1.2.8-.9,1.2-2.1,1.2-3.3,0-1.2-.4-2.4-1.2-3.3-.8-.8-1.8-1.3-3-1.2-1.1,0-2.2.4-3,1.2-.8.9-1.2,2.1-1.2,3.3,0,1.2.4,2.4,1.2,3.3.8.8,1.9,1.2,3,1.2ZM274,24.9c1.8,0,3.5.6,4.8,1.8,1.3,1.5,2,3.4,1.8,5.3v9.2h-4.7v-8.5c0-1-.2-2-.8-2.9-.6-.7-1.5-1-2.4-.9-1.1,0-2.1.3-2.8,1.1-.8.9-1.1,2.1-1.1,3.3v8h-4.7v-16.1h4.5v1.9c.6-.7,1.4-1.2,2.3-1.6,1-.4,2-.6,3-.6ZM300.9,33.3c0,0,0,.5,0,1.3h-12.2c.2,1,.8,1.8,1.6,2.4.9.6,2,.9,3.1.9.8,0,1.5-.1,2.2-.4.7-.3,1.3-.7,1.8-1.2l2.5,2.7c-1.5,1.7-3.7,2.6-6.7,2.6-1.7,0-3.3-.3-4.8-1.1-1.3-.7-2.5-1.7-3.2-3-.8-1.3-1.2-2.8-1.1-4.3,0-1.5.4-3,1.1-4.3.7-1.3,1.8-2.3,3.1-3,2.7-1.4,5.9-1.4,8.7,0,1.3.7,2.3,1.7,3,2.9.8,1.4,1.1,2.9,1.1,4.4ZM292.6,28.5c-1,0-1.9.3-2.7.9-.7.6-1.2,1.5-1.3,2.5h7.9c-.1-1-.6-1.8-1.3-2.4-.7-.6-1.7-.9-2.6-.9h0ZM309.5,41.6c-1.3,0-2.6-.2-3.9-.5-1.1-.2-2.1-.7-3.1-1.2l1.6-3.4c.8.5,1.7.9,2.6,1.1,1,.3,2,.4,3,.4,2,0,3-.5,3-1.5,0-.5-.3-.9-.8-1-.8-.3-1.6-.4-2.5-.5-1.1-.2-2.2-.4-3.3-.7-.9-.3-1.6-.7-2.2-1.4-.7-.8-1-1.8-.9-2.8,0-1,.3-1.9.9-2.7.7-.8,1.6-1.5,2.6-1.8,1.3-.5,2.6-.7,4-.7,1.1,0,2.3.1,3.4.4,1,.2,1.9.5,2.8,1l-1.6,3.3c-1.4-.8-3-1.2-4.6-1.2-.8,0-1.5,0-2.2.4-.4.2-.7.6-.8,1.1,0,.5.3.9.8,1,.8.3,1.7.5,2.6.6,1.1.2,2.2.4,3.2.7.8.2,1.6.7,2.2,1.4.7.8,1,1.8.9,2.8,0,1-.3,1.9-.9,2.7-.7.8-1.6,1.5-2.6,1.8-1.3.5-2.7.7-4.1.6Z"/>
    <g>
      <path class="cls-1" d="M13.3,24.1c0,2.4,1.4,5.5,3.3,8.6h.1c.9,1.4,2.2,2.9,2.9,2.9s5.1-7,5.1-7l3.5,4.2,6.5-9.6,1.3,2,.2-7.7-6.5,5.1,3.2-.2-4.7,7.2-4.2-5s-3.1,4.6-4.6,6.6c-1.7-2.6-2.9-5.2-2.9-7.2,0-6.3,5.3-11.3,11.8-11.3s11.8,5.1,11.8,11.3-11.6,18.4-11.6,18.4c0,0-2.9-2.8-6.1-6.9-.3.5-1.6,1.7-1.9,2.2,4.1,5.3,8,9.9,8,9.9,0,0,14.8-15.5,14.8-23.5s-6.7-14.5-15-14.5-15,6.5-15,14.5Z"/>
      <path class="cls-1" d="M33,44.7c3.5.9,5,2.6,4,4.3-1.1,1.7-4.5,2.8-8.6,2.8-4.1,0-7.5-1-8.8-2.7s.2-3.4,3.6-4.4l-2.8-1.8c-5.3,1.5-7.6,4.2-5.7,6.8,1.9,2.6,7.3,4.3,13.6,4.2,6.4,0,11.7-1.8,13.3-4.4,1.7-2.6-.8-5.3-6.2-6.7l-2.6,1.8Z"/>
    </g>
  </g>
</svg>