<svg xmlns="http://www.w3.org/2000/svg" width="70" height="70" viewBox="0 0 70 70">
  <path id="sector-ic4" d="M166.387,327.071h19.721V307.34a1.984,1.984,0,0,1,1.989-1.979h22.612a1.976,1.976,0,0,1,1.98,1.979v19.73h19.73a1.977,1.977,0,0,1,1.979,1.979v22.621a1.976,1.976,0,0,1-1.979,1.98h-19.73v19.721a1.984,1.984,0,0,1-1.98,1.989H188.1a1.992,1.992,0,0,1-1.989-1.989V353.651H166.387a1.984,1.984,0,0,1-1.989-1.98V329.05a1.984,1.984,0,0,1,1.989-1.979Zm21.71,3.968h-19.73v18.644H188.1a1.978,1.978,0,0,1,1.979,1.989v19.721H208.72V351.672a1.986,1.986,0,0,1,1.989-1.989H230.43V331.039H210.709a1.992,1.992,0,0,1-1.989-1.989V309.329H190.076V329.05A1.984,1.984,0,0,1,188.1,331.039Z" transform="translate(-164.398 -305.361)" fill="#fff" fill-rule="evenodd"/>
</svg>
