<svg xmlns="http://www.w3.org/2000/svg" width="52.084" height="37.638" viewBox="0 0 52.084 37.638">
  <path id="sector-ic1" d="M415.087,219.685l5.418-1.336a.989.989,0,0,1,.163-.044l.892-.217-21.31-7.611-21.3,7.611,6.472,1.6c.237-1.41,2.031-2.563,4.806-3.3a45.7,45.7,0,0,1,20.058,0c2.775.739,4.57,1.893,4.806,3.3ZM400.25,234.2a38.7,38.7,0,0,0,9.489-1.04c2.006-.537,3.249-1.1,3.249-1.577s-1.242-1.04-3.249-1.578a43.991,43.991,0,0,0-18.973,0c-2.006.537-3.248,1.1-3.248,1.578s1.242,1.04,3.248,1.577a38.685,38.685,0,0,0,9.484,1.04Zm10.031,1.011a45.7,45.7,0,0,1-20.058,0c-2.958-.789-4.8-2.046-4.831-3.589l0-.039h0v-9.721l-10.3-2.549a1.061,1.061,0,0,1-.168-2.046l24.978-8.922a1.078,1.078,0,0,1,.715,0l24.977,8.922a1.061,1.061,0,0,1-.1,2.031l-3.574.882v8.627a3.126,3.126,0,0,1,1.065.69l0,.01a3,3,0,0,1-.868,4.861,3.1,3.1,0,0,1,.858.6l.01.005a3.032,3.032,0,0,1,.882,2.129v6.408a2.4,2.4,0,0,1-.71,1.7h0a2.4,2.4,0,0,1-1.7.71h-1.213a2.4,2.4,0,0,1-1.706-.71h0a2.417,2.417,0,0,1-.7-1.7v-6.408a3,3,0,0,1,.882-2.125l.005,0a3,3,0,0,1,.858-.606,3.015,3.015,0,0,1-.863-4.865l.005-.005a3.052,3.052,0,0,1,1.065-.69v-8.1l-4.668,1.153.005,9.721-.005.049c-.039,1.538-1.878,2.79-4.831,3.579Zm-22.764-6.241v-8.962c0-.473,1.242-1.045,3.248-1.577a43.784,43.784,0,0,1,18.973,0c2.006.532,3.249,1.1,3.249,1.577v8.962a13.389,13.389,0,0,0-2.706-1.016,45.7,45.7,0,0,0-20.058,0,13.388,13.388,0,0,0-2.706,1.016Zm33.658,1.834a1.05,1.05,0,0,1-.33.049,1.031,1.031,0,0,1-.33-.049.873.873,0,0,0-.3.192l-.005,0a.894.894,0,1,0,1.528.631.878.878,0,0,0-.261-.631v0a.871.871,0,0,0-.3-.192Zm-1.223,6.3v6.408a.3.3,0,0,0,.079.2l.005,0a.271.271,0,0,0,.2.084h1.213a.3.3,0,0,0,.2-.079.3.3,0,0,0,.084-.2v-6.408a.887.887,0,0,0-.261-.631h0a.9.9,0,0,0-1.262,0h-.005A.9.9,0,0,0,419.953,237.106Z" transform="translate(-374.209 -208.287)" fill="#fff" fill-rule="evenodd"/>
</svg>
