<svg xmlns="http://www.w3.org/2000/svg" width="63.712" height="57.111" viewBox="0 0 63.712 57.111">
  <path id="sector-ic10" d="M168.654,277.3a2.152,2.152,0,0,0,1.542-.642l.063-.055a2.168,2.168,0,0,0,.572-1.48,2.2,2.2,0,0,0-.634-1.55v.008a2.177,2.177,0,0,0-3.719,1.543,2.179,2.179,0,0,0,2.177,2.177Zm-41.843,23.506a2.179,2.179,0,0,0,2.177-2.177,2.176,2.176,0,0,0-3.711-1.543,2.181,2.181,0,0,0,1.535,3.719Zm3.931,1.746a5.546,5.546,0,0,0,1.629-3.923,5.625,5.625,0,0,0-.6-2.506l3.195-2.874v17.242H120.985a2.246,2.246,0,0,1-2.232-2.232V262.369a2.232,2.232,0,0,1,2.232-2.231h13.984v28.579l-5.559,5a5.489,5.489,0,0,0-2.6-.65,5.555,5.555,0,1,0,3.931,9.482Zm16.811-20.984a2.182,2.182,0,0,0,1.542-3.719,2.174,2.174,0,0,0-3.085,0l-.063.063a2.2,2.2,0,0,0,.016,2.975l.047.047v-.008a2.166,2.166,0,0,0,1.543.642Zm3.931,1.746a5.528,5.528,0,0,0,1.605-3.461l3.022-.572v31.21H138.344v-20.28l6.585-5.927a5.557,5.557,0,0,0,6.554-.971Zm-8.9-1.449-4.236,3.813V260.138H156.11v15.715l-3.774.712a5.556,5.556,0,0,0-8.715-1.1l-.094.11A5.522,5.522,0,0,0,142,279.391a5.585,5.585,0,0,0,.579,2.474Zm36.5-2.169V308.26a5.615,5.615,0,0,1-5.614,5.606H120.985a5.628,5.628,0,0,1-5.614-5.606V262.369a5.641,5.641,0,0,1,5.614-5.614h52.484a5.628,5.628,0,0,1,5.614,5.614V279.7Zm-5.724,30.8-.11-.008H159.493V278.647l4.314-.814a5.349,5.349,0,0,0,.924,1.214,5.548,5.548,0,0,0,7.853,0l.094-.1a5.532,5.532,0,0,0-.094-7.744v-.008a5.548,5.548,0,0,0-7.853,0,5.5,5.5,0,0,0-1.6,3.335l-3.641.689v-15.08h13.976a2.246,2.246,0,0,1,2.239,2.231V308.26a2.246,2.246,0,0,1-2.239,2.232Z" transform="translate(-115.371 -256.755)" fill="#fff" fill-rule="evenodd"/>
</svg>
