<svg xmlns="http://www.w3.org/2000/svg" xmlns:xlink="http://www.w3.org/1999/xlink" width="115" height="95" viewBox="0 0 115 95">
  <defs>
    <clipPath id="clip-path">
      <rect id="Rectangle_5122" data-name="Rectangle 5122" width="88.803" height="87.333" fill="#e32138"/>
    </clipPath>
    <clipPath id="clip-icn-ApoyoS">
      <rect width="115" height="95"/>
    </clipPath>
  </defs>
  <g id="icn-ApoyoS" clip-path="url(#clip-icn-ApoyoS)">
    <rect width="115" height="95" fill="#fff"/>
    <g id="Group_6148" data-name="Group 6148" transform="translate(13 4)">
      <g id="Group_6147" data-name="Group 6147" transform="translate(0 0)" clip-path="url(#clip-path)">
        <path id="Path_29831" data-name="Path 29831" d="M16.73,23.546c-4.1,0-7.443-2.84-7.443-6.333a1.632,1.632,0,0,1,3.265,0c0,1.665,1.913,3.069,4.179,3.069s4.179-1.4,4.179-3.069S19,14.144,16.73,14.144c-4.1,0-7.443-2.834-7.443-6.327S12.63,1.484,16.73,1.484s7.443,2.847,7.443,6.333a1.632,1.632,0,1,1-3.265,0c0-1.665-1.913-3.069-4.179-3.069s-4.179,1.4-4.179,3.069,1.913,3.069,4.179,3.069c4.1,0,7.443,2.84,7.443,6.327s-3.343,6.333-7.443,6.333" transform="translate(51.349 8.203)" fill="#e32138"/>
        <path id="Path_29832" data-name="Path 29832" d="M11.809,7.3a1.633,1.633,0,0,1-1.632-1.632V2.655a1.632,1.632,0,0,1,3.265,0v3.01A1.633,1.633,0,0,1,11.809,7.3" transform="translate(56.27 5.654)" fill="#e32138"/>
        <path id="Path_29833" data-name="Path 29833" d="M11.809,10.637a1.633,1.633,0,0,1-1.632-1.632V6a1.632,1.632,0,0,1,3.265,0v3.01a1.633,1.633,0,0,1-1.632,1.632" transform="translate(56.27 24.121)" fill="#e32138"/>
        <path id="Path_29834" data-name="Path 29834" d="M27.976,41.447A20.723,20.723,0,1,1,48.7,20.723,20.748,20.748,0,0,1,27.976,41.447m0-38.182A17.459,17.459,0,1,0,45.435,20.723,17.474,17.474,0,0,0,27.976,3.265" transform="translate(40.103 -0.003)" fill="#e32138"/>
        <path id="Path_29835" data-name="Path 29835" d="M40.683,47.164H2.931a1.632,1.632,0,0,1,0-3.265H40.683c11.263,0,16.218-2.657,18.882-4.087l.542-.287c1.43-.764,9.121-9.252,16.094-17.413-1.1-.934-2.938-2.142-4.694-1.632-2.168.633-3.16,1.41-5.817,3.48-1.528,1.188-3.611,2.821-6.692,5-6.882,4.877-17.962,3.219-23.335,1.032-3.134-1.28-4.877-2.8-5.191-4.531-.757-4.146,2.553-5.373,6.052-6.673,1.293-.483,2.755-1.025,4.342-1.769,3.362-1.58,3.062-5.524,2.644-7.58A84.279,84.279,0,0,0,29.3,12.756,52.044,52.044,0,0,0,10.061,24.92a1.636,1.636,0,0,1-1.156.477H2.931a1.632,1.632,0,1,1,0-3.265H8.239A55.412,55.412,0,0,1,28.205,9.681a92.487,92.487,0,0,1,16.31-3.689,1.647,1.647,0,0,1,1.737,1.084c1.143,3.278,1.769,10.185-4,12.9-1.7.8-3.232,1.365-4.59,1.867-3.931,1.463-4.2,1.8-3.976,3.036.065.222.986,1.345,4.2,2.461C43.8,29.4,52.3,29.7,57.116,26.3c3.01-2.135,5.067-3.741,6.562-4.91,2.762-2.155,4.146-3.232,6.914-4.035,4.838-1.4,8.919,3.408,9.089,3.611a1.638,1.638,0,0,1-.013,2.1c-2.527,2.971-15.259,17.883-18.046,19.346l-.516.274c-2.905,1.567-8.338,4.479-20.423,4.479" transform="translate(7.182 33.076)" fill="#e32138"/>
        <path id="Path_29836" data-name="Path 29836" d="M10.114,46.241H1.626a1.632,1.632,0,0,1,0-3.265H8.481V10.7H1.626a1.632,1.632,0,0,1,0-3.265h8.488a1.633,1.633,0,0,1,1.632,1.632V44.609a1.633,1.633,0,0,1-1.632,1.632" transform="translate(0 41.09)" fill="#e32138"/>
      </g>
    </g>
  </g>
</svg>
