<svg xmlns="http://www.w3.org/2000/svg" xmlns:xlink="http://www.w3.org/1999/xlink" width="51" height="53" viewBox="0 0 51 53">
  <defs>
    <clipPath id="clip-path">
      <rect id="Rectangle_5101" data-name="Rectangle 5101" width="45.726" height="45.021" fill="#e32138"/>
    </clipPath>
    <clipPath id="clip-icn_social">
      <rect width="51" height="53"/>
    </clipPath>
  </defs>
  <g id="icn_social" clip-path="url(#clip-icn_social)">
    <rect width="51" height="53" fill="#fff"/>
    <g id="Group_6119" data-name="Group 6119" transform="translate(3 4)">
      <g id="Group_6118" data-name="Group 6118" transform="translate(0 0)" clip-path="url(#clip-path)">
        <path id="Path_29761" data-name="Path 29761" d="M6.262,21.421a4.665,4.665,0,0,1-4.66-4.66V13.135a4.66,4.66,0,0,1,9.32,0v3.626a4.665,4.665,0,0,1-4.66,4.66m0-11.727a3.445,3.445,0,0,0-3.441,3.441v3.626a3.441,3.441,0,1,0,6.882,0V13.135A3.445,3.445,0,0,0,6.262,9.694" transform="translate(2.305 12.192)" fill="#e32138"/>
        <path id="Path_29762" data-name="Path 29762" d="M13.561,25.3H3.36A3.364,3.364,0,0,1,0,21.937V18.194a3.028,3.028,0,0,1,1.4-2.268,7.522,7.522,0,0,1,2.631-1.3L7.2,13.734a.609.609,0,1,1,.329,1.173l-3.163.888a6.3,6.3,0,0,0-2.207,1.09c-.6.476-.936.939-.936,1.31v3.743A2.144,2.144,0,0,0,3.36,24.078h10.2A2.144,2.144,0,0,0,15.7,21.937V18.194c0-.371-.332-.834-.936-1.31a6.32,6.32,0,0,0-2.207-1.09l-3.073-.861a.611.611,0,1,1,.332-1.175l3.07.863a7.522,7.522,0,0,1,2.631,1.3,3.028,3.028,0,0,1,1.4,2.268v3.743a3.364,3.364,0,0,1-3.36,3.36" transform="translate(0 19.724)" fill="#e32138"/>
        <path id="Path_29763" data-name="Path 29763" d="M3.378,15.542a.61.61,0,0,1-.61-.61V13.894a.61.61,0,0,1,1.219,0v1.039a.61.61,0,0,1-.61.61" transform="translate(3.982 19.111)" fill="#e32138"/>
        <path id="Path_29764" data-name="Path 29764" d="M4.318,15.569a.61.61,0,0,1-.61-.61V13.894a.61.61,0,0,1,1.219,0v1.066a.61.61,0,0,1-.61.61" transform="translate(5.334 19.111)" fill="#e32138"/>
        <path id="Path_29765" data-name="Path 29765" d="M5.231,18.948c-1.646,0-2.987-1.734-2.987-3.863a4.886,4.886,0,0,1,.051-.71.609.609,0,1,1,1.2.173,3.861,3.861,0,0,0-.037.536c0,1.434.81,2.643,1.768,2.643S7,16.52,7,15.086a3.857,3.857,0,0,0-.039-.536.61.61,0,1,1,1.207-.173,4.886,4.886,0,0,1,.049.71c0,2.129-1.339,3.863-2.987,3.863" transform="translate(3.228 19.928)" fill="#e32138"/>
        <path id="Path_29766" data-name="Path 29766" d="M7.752,12.293a2.988,2.988,0,0,1-1.268-.276,3.319,3.319,0,0,1-1.046-.81,1.252,1.252,0,0,0-.61-.449c-.529-.122-1.3.329-2.17,1.271a.609.609,0,0,1-.895-.827C2.994,9.871,4.087,9.337,5.1,9.569a2.35,2.35,0,0,1,1.222.8,2.164,2.164,0,0,0,.673.544c.5.229,1.278.368,2.941-.583a.609.609,0,0,1,.6,1.058,5.759,5.759,0,0,1-2.787.907" transform="translate(2.305 13.691)" fill="#e32138"/>
        <path id="Path_29767" data-name="Path 29767" d="M18.074,21.421a4.665,4.665,0,0,1-4.66-4.66V13.135a4.66,4.66,0,0,1,9.32,0v3.626a4.665,4.665,0,0,1-4.66,4.66m0-11.727a3.445,3.445,0,0,0-3.441,3.441v3.626a3.441,3.441,0,1,0,6.882,0V13.135a3.445,3.445,0,0,0-3.441-3.441" transform="translate(19.297 12.192)" fill="#e32138"/>
        <path id="Path_29768" data-name="Path 29768" d="M25.373,25.3h-10.2a3.364,3.364,0,0,1-3.36-3.36V18.194a3.028,3.028,0,0,1,1.4-2.268,7.522,7.522,0,0,1,2.631-1.3l3.163-.888a.609.609,0,1,1,.329,1.173l-3.163.888a6.3,6.3,0,0,0-2.207,1.09c-.6.476-.936.939-.936,1.31v3.743a2.144,2.144,0,0,0,2.141,2.141h10.2a2.144,2.144,0,0,0,2.141-2.141V18.194c0-.371-.332-.834-.936-1.31a6.3,6.3,0,0,0-2.207-1.09L21.3,14.934a.611.611,0,1,1,.332-1.175l3.07.863a7.522,7.522,0,0,1,2.631,1.3,3.028,3.028,0,0,1,1.4,2.268v3.743a3.364,3.364,0,0,1-3.36,3.36" transform="translate(16.993 19.724)" fill="#e32138"/>
        <path id="Path_29769" data-name="Path 29769" d="M15.19,15.542a.61.61,0,0,1-.61-.61V13.894a.61.61,0,0,1,1.219,0v1.039a.61.61,0,0,1-.61.61" transform="translate(20.975 19.111)" fill="#e32138"/>
        <path id="Path_29770" data-name="Path 29770" d="M16.13,15.569a.61.61,0,0,1-.61-.61V13.894a.61.61,0,1,1,1.219,0v1.066a.61.61,0,0,1-.61.61" transform="translate(22.327 19.111)" fill="#e32138"/>
        <path id="Path_29771" data-name="Path 29771" d="M17.043,18.948c-1.648,0-2.987-1.734-2.987-3.863a4.886,4.886,0,0,1,.051-.71.609.609,0,1,1,1.2.173,3.913,3.913,0,0,0-.037.536c0,1.434.81,2.643,1.768,2.643s1.77-1.21,1.77-2.643a3.858,3.858,0,0,0-.039-.536.61.61,0,0,1,1.207-.176,5.263,5.263,0,0,1,.049.712c0,2.129-1.339,3.863-2.987,3.863" transform="translate(20.221 19.928)" fill="#e32138"/>
        <path id="Path_29772" data-name="Path 29772" d="M19.565,12.293a2.988,2.988,0,0,1-1.268-.276,3.319,3.319,0,0,1-1.046-.81,1.246,1.246,0,0,0-.612-.449c-.527-.122-1.3.332-2.168,1.271a.609.609,0,1,1-.895-.827c1.231-1.331,2.319-1.866,3.336-1.634a2.361,2.361,0,0,1,1.222.8,2.164,2.164,0,0,0,.673.544c.5.229,1.278.368,2.941-.583a.609.609,0,1,1,.6,1.058,5.759,5.759,0,0,1-2.787.907" transform="translate(19.296 13.691)" fill="#e32138"/>
        <path id="Path_29773" data-name="Path 29773" d="M19.052,3.851H6.638a.61.61,0,0,1,0-1.219H19.052a.61.61,0,1,1,0,1.219" transform="translate(8.672 3.787)" fill="#e32138"/>
        <path id="Path_29774" data-name="Path 29774" d="M13.966,5.368H6.638a.61.61,0,0,1,0-1.219h7.328a.61.61,0,0,1,0,1.219" transform="translate(8.672 5.969)" fill="#e32138"/>
        <path id="Path_29775" data-name="Path 29775" d="M8.287,20.272a.608.608,0,0,1-.61-.61V15.3A8.116,8.116,0,0,1,4.195,8.879C4.195,3.982,9.26,0,15.483,0S26.771,3.982,26.771,8.879s-5.065,8.876-11.288,8.876a14.038,14.038,0,0,1-3.887-.539L8.719,20.094a.609.609,0,0,1-.432.178m7.2-19.053c-5.553,0-10.069,3.436-10.069,7.66A7,7,0,0,0,8.641,14.49a.61.61,0,0,1,.256.5v3.2l2.1-2.1a.615.615,0,0,1,.615-.149,12.743,12.743,0,0,0,3.875.593c5.553,0,10.069-3.436,10.069-7.66s-4.516-7.66-10.069-7.66" transform="translate(6.035 0)" fill="#e32138"/>
        <path id="Path_29776" data-name="Path 29776" d="M21.017,17.718a.609.609,0,0,1-.432-.178l-2.295-2.3a11.539,11.539,0,0,1-3.131.427,10.2,10.2,0,0,1-7.667-3.177.608.608,0,1,1,.917-.8,8.985,8.985,0,0,0,6.75,2.758,10.305,10.305,0,0,0,3.119-.476.614.614,0,0,1,.617.149l1.512,1.514V13.3a.613.613,0,0,1,.258-.5,5.591,5.591,0,0,0,2.578-4.475,5.054,5.054,0,0,0-1.188-3.187A.61.61,0,1,1,23,4.374a6.263,6.263,0,0,1,1.458,3.955,6.7,6.7,0,0,1-2.836,5.28v3.5a.608.608,0,0,1-.61.61" transform="translate(10.562 5.969)" fill="#e32138"/>
      </g>
    </g>
  </g>
</svg>
