<svg xmlns="http://www.w3.org/2000/svg" xmlns:xlink="http://www.w3.org/1999/xlink" width="33" height="33" viewBox="0 0 33 33">
  <defs>
    <clipPath id="clip-path">
      <rect id="Rectangle_5060" data-name="Rectangle 5060" width="33" height="33" fill="#e32138"/>
    </clipPath>
    <clipPath id="clip-icn-salud">
      <rect width="33" height="33"/>
    </clipPath>
  </defs>
  <g id="icn-salud" clip-path="url(#clip-icn-salud)">
    <rect width="33" height="33" fill="#fff"/>
    <g id="Group_6090" data-name="Group 6090" transform="translate(0 0)">
      <g id="Group_6089" data-name="Group 6089" transform="translate(0 0)" clip-path="url(#clip-path)">
        <path id="Path_29719" data-name="Path 29719" d="M16.5,33A16.5,16.5,0,1,1,33,16.5,16.518,16.518,0,0,1,16.5,33m0-31.674A15.175,15.175,0,1,0,31.674,16.5,15.192,15.192,0,0,0,16.5,1.324" transform="translate(0 0.001)" fill="#e32138"/>
        <path id="Path_29720" data-name="Path 29720" d="M15.265,25.519h-3.1A2.526,2.526,0,0,1,9.643,23V17.778H4.425A2.526,2.526,0,0,1,1.9,15.254v-3.1A2.526,2.526,0,0,1,4.425,9.632H9.643V4.414A2.526,2.526,0,0,1,12.167,1.89h3.1a2.526,2.526,0,0,1,2.524,2.524V9.632h5.218a2.526,2.526,0,0,1,2.524,2.524v3.1a2.526,2.526,0,0,1-2.524,2.524H17.789V23a2.526,2.526,0,0,1-2.524,2.524M4.425,10.955a1.2,1.2,0,0,0-1.2,1.2v3.1a1.2,1.2,0,0,0,1.2,1.2H10.3a.662.662,0,0,1,.663.663V23a1.2,1.2,0,0,0,1.2,1.2h3.1a1.2,1.2,0,0,0,1.2-1.2V17.117a.662.662,0,0,1,.663-.663h5.878a1.2,1.2,0,0,0,1.2-1.2v-3.1a1.2,1.2,0,0,0-1.2-1.2H17.128a.662.662,0,0,1-.663-.663V4.414a1.2,1.2,0,0,0-1.2-1.2h-3.1a1.2,1.2,0,0,0-1.2,1.2v5.878a.662.662,0,0,1-.663.663Z" transform="translate(2.784 2.769)" fill="#e32138"/>
      </g>
    </g>
  </g>
</svg>
