<svg xmlns="http://www.w3.org/2000/svg" xmlns:xlink="http://www.w3.org/1999/xlink" width="51" height="53" viewBox="0 0 51 53">
  <defs>
    <clipPath id="clip-path">
      <rect id="Rectangle_5097" data-name="Rectangle 5097" width="48.343" height="21.611" fill="#e32138"/>
    </clipPath>
    <clipPath id="clip-icn_movilidad">
      <rect width="51" height="53"/>
    </clipPath>
  </defs>
  <g id="icn_movilidad" clip-path="url(#clip-icn_movilidad)">
    <rect width="51" height="53" fill="#fff"/>
    <g id="Group_6111" data-name="Group 6111" transform="translate(1 16)">
      <g id="Group_6110" data-name="Group 6110" transform="translate(0 0)" clip-path="url(#clip-path)">
        <path id="Path_29738" data-name="Path 29738" d="M6.24,13.256a4.495,4.495,0,1,1,4.493-4.493A4.5,4.5,0,0,1,6.24,13.256m0-7.51A3.016,3.016,0,1,0,9.257,8.763,3.02,3.02,0,0,0,6.24,5.746" transform="translate(3.421 8.354)" fill="#e32138"/>
        <path id="Path_29739" data-name="Path 29739" d="M14.951,13.256a4.495,4.495,0,1,1,4.493-4.493,4.5,4.5,0,0,1-4.493,4.493m0-7.51a3.016,3.016,0,1,0,3.017,3.017,3.02,3.02,0,0,0-3.017-3.017" transform="translate(20.477 8.354)" fill="#e32138"/>
        <path id="Path_29740" data-name="Path 29740" d="M47.012,17.855h-7.83a.74.74,0,0,1,0-1.479h7.182l.485-3.591a2.181,2.181,0,0,0-2.162-2.464H40.223a3.516,3.516,0,0,1-3.372-2.485L35.7,4.1a3.714,3.714,0,0,0-3.561-2.618H18.13A3.719,3.719,0,0,0,15.539,2.52L7.664,10.113a.735.735,0,0,1-.512.207H3.511a2.034,2.034,0,0,0-2.032,2.032v4.023H5.9a.74.74,0,0,1,0,1.479H.74a.74.74,0,0,1-.74-.74V12.353A3.517,3.517,0,0,1,3.511,8.842H6.854l7.658-7.386A5.191,5.191,0,0,1,18.13,0H32.136a5.186,5.186,0,0,1,4.972,3.659L38.262,7.4a2.067,2.067,0,0,0,1.961,1.444h4.464a3.661,3.661,0,0,1,3.627,4.138l-.568,4.233a.74.74,0,0,1-.734.642" transform="translate(0 -0.001)" fill="#e32138"/>
        <path id="Path_29741" data-name="Path 29741" d="M23.284,7.015H5.025a.74.74,0,0,1,0-1.479h18.26a.74.74,0,0,1,0,1.479" transform="translate(8.39 10.839)" fill="#e32138"/>
        <path id="Path_29742" data-name="Path 29742" d="M17.316,8.021H4.345a.737.737,0,0,1-.5-1.281l6.227-5.706a.726.726,0,0,1,.5-.2h6.747a.737.737,0,0,1,.737.74V7.285a.735.735,0,0,1-.737.737M6.244,6.545H16.577V2.315H10.856Z" transform="translate(7.061 1.642)" fill="#e32138"/>
        <path id="Path_29743" data-name="Path 29743" d="M18.1,8.021H9.587a.735.735,0,0,1-.737-.737V1.579a.737.737,0,0,1,.737-.74h5.029a3.128,3.128,0,0,1,2.875,1.89l.03.08,1.287,4.263a.737.737,0,0,1-.707.95M10.326,6.545h6.78l-.985-3.266a1.656,1.656,0,0,0-1.506-.964H10.326Z" transform="translate(17.329 1.642)" fill="#e32138"/>
        <path id="Path_29744" data-name="Path 29744" d="M19.225,8.247H16.808a2.365,2.365,0,0,1-2.319-2.813l.361-1.849A.738.738,0,0,1,16.3,3.87l-.361,1.846a.9.9,0,0,0,.186.734.885.885,0,0,0,.683.319h2.417a.74.74,0,0,1,0,1.479" transform="translate(28.287 5.853)" fill="#e32138"/>
      </g>
    </g>
  </g>
</svg>
