<svg xmlns="http://www.w3.org/2000/svg" xmlns:xlink="http://www.w3.org/1999/xlink" width="115" height="95" viewBox="0 0 115 95">
  <defs>
    <clipPath id="clip-path">
      <rect id="Rectangle_5121" data-name="Rectangle 5121" width="110.912" height="91.65" fill="#e32138"/>
    </clipPath>
    <clipPath id="clip-icn-Agro">
      <rect width="115" height="95"/>
    </clipPath>
  </defs>
  <g id="icn-Agro" clip-path="url(#clip-icn-Agro)">
    <rect width="115" height="95" fill="#fff"/>
    <g id="Group_6143" data-name="Group 6143" transform="translate(2 2)">
      <g id="Group_6142" data-name="Group 6142" transform="translate(0 0)" clip-path="url(#clip-path)">
        <path id="Path_29819" data-name="Path 29819" d="M5.783,31.876a1.834,1.834,0,0,1-1.766-1.335A21.464,21.464,0,1,1,45.683,20.335a1.838,1.838,0,1,1-3.6.739A17.786,17.786,0,1,0,7.556,29.535a1.848,1.848,0,0,1-1.266,2.273,1.878,1.878,0,0,1-.507.068" transform="translate(18.716 18.719)" fill="#e32138"/>
        <path id="Path_29820" data-name="Path 29820" d="M7.909,15.162a1.842,1.842,0,0,1-1.841-1.841V1.841a1.841,1.841,0,0,1,3.683,0V13.321a1.842,1.842,0,0,1-1.841,1.841" transform="translate(35.468 0.003)" fill="#e32138"/>
        <path id="Path_29821" data-name="Path 29821" d="M10.618,14.434a1.84,1.84,0,0,1-1.595-.917L3.28,3.571A1.839,1.839,0,0,1,6.463,1.73l5.743,9.946a1.838,1.838,0,0,1-1.588,2.759" transform="translate(17.735 4.755)" fill="#e32138"/>
        <path id="Path_29822" data-name="Path 29822" d="M12.6,12.455a1.845,1.845,0,0,1-.917-.246L1.732,6.466A1.839,1.839,0,1,1,3.574,3.283l9.939,5.743a1.836,1.836,0,0,1-.917,3.429" transform="translate(4.75 17.735)" fill="#e32138"/>
        <path id="Path_29823" data-name="Path 29823" d="M13.321,9.745H1.834a1.838,1.838,0,0,1,0-3.676H13.321a1.838,1.838,0,1,1,0,3.676" transform="translate(0 35.477)" fill="#e32138"/>
        <path id="Path_29824" data-name="Path 29824" d="M11.712,12.455a1.836,1.836,0,0,1-.917-3.429l9.939-5.743a1.839,1.839,0,0,1,1.841,3.183l-9.946,5.743a1.845,1.845,0,0,1-.917.246" transform="translate(57.698 17.735)" fill="#e32138"/>
        <path id="Path_29825" data-name="Path 29825" d="M10.1,14.434a1.838,1.838,0,0,1-1.588-2.759L14.257,1.73A1.839,1.839,0,0,1,17.44,3.571L11.7,13.517a1.84,1.84,0,0,1-1.595.917" transform="translate(48.301 4.755)" fill="#e32138"/>
        <path id="Path_29826" data-name="Path 29826" d="M3.814,26.783a1.838,1.838,0,0,1-1.328-3.108c1.006-1.047,25.382-25.491,95.3-15a1.837,1.837,0,0,1-.541,3.635C29.449,2.14,5.368,25.982,5.135,26.228a1.845,1.845,0,0,1-1.321.554" transform="translate(11.553 35.456)" fill="#e32138"/>
        <path id="Path_29827" data-name="Path 29827" d="M3.814,48.017A1.838,1.838,0,0,1,2.4,45c.322-.383,32.679-38.045,95.12-38.045a1.841,1.841,0,0,1,0,3.683c-60.751,0-91.992,36.355-92.3,36.724a1.839,1.839,0,0,1-1.41.657" transform="translate(11.547 40.644)" fill="#e32138"/>
        <path id="Path_29828" data-name="Path 29828" d="M8.839,46.327a1.857,1.857,0,0,1-1.143-.4A1.832,1.832,0,0,1,7.4,43.349C35.542,7.8,66.831,7.734,68.173,7.755a1.841,1.841,0,0,1-.021,3.683h-.021c-.63,0-31.029.322-57.848,34.192a1.841,1.841,0,0,1-1.444.7" transform="translate(40.918 45.325)" fill="#e32138"/>
        <path id="Path_29829" data-name="Path 29829" d="M33.554,35.045A1.842,1.842,0,0,1,31.712,33.2c0-8.823-14.635-17.435-20.275-20.008a1.839,1.839,0,1,1,1.526-3.347c.917.418,22.432,10.364,22.432,23.356a1.842,1.842,0,0,1-1.841,1.841" transform="translate(60.567 56.608)" fill="#e32138"/>
        <path id="Path_29830" data-name="Path 29830" d="M39.392,25.375a1.842,1.842,0,0,1-1.841-1.841c0-7.181-17.749-10.494-23.965-11.089a1.836,1.836,0,1,1,.349-3.655c2.793.267,27.3,2.95,27.3,14.744a1.842,1.842,0,0,1-1.841,1.841" transform="translate(69.679 51.321)" fill="#e32138"/>
      </g>
    </g>
  </g>
</svg>
