<svg xmlns="http://www.w3.org/2000/svg" xmlns:xlink="http://www.w3.org/1999/xlink" width="38" height="42" viewBox="0 0 38 42">
  <defs>
    <clipPath id="clip-path">
      <rect id="Rectangle_5059" data-name="Rectangle 5059" width="34.444" height="35.884" fill="#e32138"/>
    </clipPath>
    <clipPath id="clip-icn-infra">
      <rect width="38" height="42"/>
    </clipPath>
  </defs>
  <g id="icn-infra" clip-path="url(#clip-icn-infra)">
    <rect width="38" height="42" fill="#fff"/>
    <g id="Group_6092" data-name="Group 6092" transform="translate(2 3)">
      <g id="Group_6087" data-name="Group 6087" transform="translate(0 0)" clip-path="url(#clip-path)">
        <path id="Path_29711" data-name="Path 29711" d="M7.12,33.427a6.462,6.462,0,0,1-2.759-.617.465.465,0,0,1-.131-.751l3.7-3.7a.86.86,0,0,0,0-1.209L6.813,26.03a.876.876,0,0,0-1.207,0L1.941,29.693a.464.464,0,0,1-.755-.142,6.449,6.449,0,0,1,1.351-7.2A6.527,6.527,0,0,1,8.516,20.6L19.367,9.749a6.488,6.488,0,0,1,9.1-7.259.466.466,0,0,1,.131.753l-3.7,3.7a.857.857,0,0,0,0,1.207l1.119,1.119a.857.857,0,0,0,1.209,0L30.891,5.61a.465.465,0,0,1,.755.14,6.5,6.5,0,0,1,.013,5.2.467.467,0,1,1-.856-.372,5.564,5.564,0,0,0,.23-3.79L27.887,9.931a1.79,1.79,0,0,1-2.529,0L24.241,8.813a1.787,1.787,0,0,1,0-2.527l3.2-3.2a5.558,5.558,0,0,0-7.111,6.695.464.464,0,0,1-.121.449L8.99,21.445a.467.467,0,0,1-.449.121A5.579,5.579,0,0,0,3.2,23.009a5.519,5.519,0,0,0-1.4,5.508L4.946,25.37a1.786,1.786,0,0,1,2.527,0l1.119,1.118a1.794,1.794,0,0,1,0,2.529l-3.2,3.2A5.558,5.558,0,0,0,12.5,25.523a.461.461,0,0,1,.121-.447L23.841,13.857a.463.463,0,0,1,.449-.121,5.7,5.7,0,0,0,.77.144.467.467,0,0,1-.107.927,6.209,6.209,0,0,1-.637-.107L13.467,25.551A6.488,6.488,0,0,1,7.12,33.427" transform="translate(0.547 1.629)" fill="#e32138"/>
        <path id="Path_29712" data-name="Path 29712" d="M3.366,22.764a3.1,3.1,0,0,1-.336-.021A2.979,2.979,0,0,1,.957,20.994a7.507,7.507,0,0,1-.43-6.354,35.691,35.691,0,0,1,1.787-3.183,9.308,9.308,0,0,0,.544-.94c-.026-.065-.082-.172-.121-.247A1.438,1.438,0,0,1,2.56,8.861c.191-.342,3.293-3.871,4.067-3.934.1-.009.278-.013.493-.019A7.46,7.46,0,0,0,9.085,4.7c.346-.348.671-.9.591-1.194-.264-.963,2.082-2.981,2.1-3,.421-.346.863-.637,1.252-.445.054.028,5.095,4.207,4.859,5.147a11.594,11.594,0,0,1-2.964,3.046.673.673,0,0,1-.54.084,1,1,0,0,0-.731.164A1.8,1.8,0,0,0,13.08,9.94a9.071,9.071,0,0,0,.015,1.721L15.9,14.393a.466.466,0,1,1-.65.667l-2.772-2.7-.009,0c-.25-.157-.421-.426-.325-2.467a2.589,2.589,0,0,1,.992-2.17,1.948,1.948,0,0,1,1.381-.312,15.234,15.234,0,0,0,2.4-2.346,39.563,39.563,0,0,0-4.205-4.1,7.62,7.62,0,0,0-2.127,2.346,2.6,2.6,0,0,1-.86,2.058c-.353.353-1.148.434-2.587.469-.159,0-.293.006-.387.011A25.354,25.354,0,0,0,3.375,9.315c-.047.082.1.355.185.516a1.92,1.92,0,0,1,.234.591c.047.34-.166.688-.686,1.527a33.8,33.8,0,0,0-1.744,3.1,6.613,6.613,0,0,0,.409,5.495c.417.759.912,1.222,1.359,1.271.361.039.456-.015.456-.017a3.343,3.343,0,0,0-.088-.858,7.143,7.143,0,0,1-.1-2.424A4.3,4.3,0,0,1,5.3,15.367a5.53,5.53,0,0,1,4.115-.374.482.482,0,0,1,.194.121l2.643,2.717a.466.466,0,1,1-.667.65L9.025,15.855a4.52,4.52,0,0,0-3.244.308A3.415,3.415,0,0,0,4.326,18.67a6.294,6.294,0,0,0,.093,2.118c.114.678.213,1.265-.161,1.661a1.193,1.193,0,0,1-.893.316M14.68,7.452h0" transform="translate(0 -0.001)" fill="#e32138"/>
        <path id="Path_29713" data-name="Path 29713" d="M17.064,21.167a.461.461,0,0,1-.335-.142L9.506,13.6a.467.467,0,1,1,.667-.652L17.4,20.374a.467.467,0,0,1-.335.792" transform="translate(8.144 11.126)" fill="#e32138"/>
        <path id="Path_29714" data-name="Path 29714" d="M13.5,13.37a.457.457,0,0,1-.325-.133L11.5,11.615a.467.467,0,0,1,.65-.669l1.669,1.624a.466.466,0,0,1-.325.8" transform="translate(9.871 9.397)" fill="#e32138"/>
        <path id="Path_29715" data-name="Path 29715" d="M16.877,13.434A2.909,2.909,0,0,1,14.272,10.3a2.909,2.909,0,0,1,2.605-3.132A2.91,2.91,0,0,1,19.483,10.3a2.91,2.91,0,0,1-2.605,3.132m0-5.332A1.994,1.994,0,0,0,15.2,10.3a1.994,1.994,0,0,0,1.673,2.2,1.994,1.994,0,0,0,1.673-2.2,1.994,1.994,0,0,0-1.673-2.2" transform="translate(12.401 6.229)" fill="#e32138"/>
        <path id="Path_29716" data-name="Path 29716" d="M20.644,19.814a.467.467,0,0,1-.172-.9A2.879,2.879,0,0,0,22.3,16.22V14.656a2.9,2.9,0,0,0-2.895-2.895H16.729a2.9,2.9,0,0,0-2.895,2.895V16.22a2.882,2.882,0,0,0,1.83,2.693.466.466,0,1,1-.344.867A3.808,3.808,0,0,1,12.9,16.22V14.656a3.833,3.833,0,0,1,3.828-3.828h2.678a3.833,3.833,0,0,1,3.828,3.828V16.22a3.808,3.808,0,0,1-2.418,3.56.462.462,0,0,1-.172.034" transform="translate(11.21 9.409)" fill="#e32138"/>
        <path id="Path_29717" data-name="Path 29717" d="M15.883,22.216a.467.467,0,0,1-.467-.467V15.6a.466.466,0,1,1,.933,0v6.145a.466.466,0,0,1-.465.467" transform="translate(13.396 13.152)" fill="#e32138"/>
        <path id="Path_29718" data-name="Path 29718" d="M15.883,25.155a2.659,2.659,0,0,1-1.641-.628.471.471,0,0,1-.163-.353V12.814a.467.467,0,0,1,.934,0V23.938a1.285,1.285,0,0,0,1.7-.1.483.483,0,0,1,.66,0,1.29,1.29,0,0,0,1.7.1V12.814a.466.466,0,1,1,.933,0V24.174a.471.471,0,0,1-.163.353,2.311,2.311,0,0,1-2.8.254,1.986,1.986,0,0,1-1.162.374" transform="translate(12.234 10.729)" fill="#e32138"/>
      </g>
    </g>
  </g>
</svg>
