<svg xmlns="http://www.w3.org/2000/svg" xmlns:xlink="http://www.w3.org/1999/xlink" width="38" height="42" viewBox="0 0 38 42">
  <defs>
    <clipPath id="clip-path">
      <rect id="Rectangle_5058" data-name="Rectangle 5058" width="35.852" height="40.021" fill="#e32138"/>
    </clipPath>
    <clipPath id="clip-icn-educacion">
      <rect width="38" height="42"/>
    </clipPath>
  </defs>
  <g id="icn-educacion" clip-path="url(#clip-icn-educacion)">
    <rect width="38" height="42" fill="#fff"/>
    <g id="Group_6091" data-name="Group 6091" transform="translate(1 1)">
      <g id="Group_6084" data-name="Group 6084" transform="translate(0 0)" clip-path="url(#clip-path)">
        <path id="Path_29695" data-name="Path 29695" d="M7.538,24.8a3.45,3.45,0,0,1-1.264-.236A4.407,4.407,0,0,1,3.95,21.93a.648.648,0,1,1,1.241-.376,3.13,3.13,0,0,0,1.566,1.81,3.1,3.1,0,0,0,2.526-.35V4.3a1.4,1.4,0,1,0-2.8,0,1.344,1.344,0,0,0,.057.395A.649.649,0,0,1,5.3,5.057,2.756,2.756,0,0,1,5.191,4.3a2.694,2.694,0,1,1,5.387,0V23.4a.65.65,0,0,1-.322.563,5.512,5.512,0,0,1-2.718.841" transform="translate(6.261 2.561)" fill="#e32138"/>
        <path id="Path_29696" data-name="Path 29696" d="M6.189,8.411a3.036,3.036,0,1,1,1.1-5.865.649.649,0,0,1-.47,1.21,1.705,1.705,0,0,0-.633-.119,1.739,1.739,0,0,0,0,3.479.648.648,0,1,1,0,1.3" transform="translate(5.035 3.733)" fill="#e32138"/>
        <path id="Path_29697" data-name="Path 29697" d="M5.393,9.518A3.294,3.294,0,0,1,2.309,6.433a2.843,2.843,0,0,1,2.84-2.84.648.648,0,1,1,0,1.3A1.547,1.547,0,0,0,3.6,6.433,2,2,0,0,0,5.393,8.222a.648.648,0,1,1,0,1.3" transform="translate(3.686 5.736)" fill="#e32138"/>
        <path id="Path_29698" data-name="Path 29698" d="M5.6,11.062a5.678,5.678,0,0,1-.67-.039A3.252,3.252,0,0,1,2.083,7.744a2.9,2.9,0,0,1,1.68-2.622A.648.648,0,1,1,4.305,6.3a1.6,1.6,0,0,0-.924,1.446c0,.893.735,1.984,1.594,1.984a.5.5,0,0,1,.086.005,2.646,2.646,0,0,0,1.617-.205.649.649,0,0,1,.919.916,2.891,2.891,0,0,1-2,.618" transform="translate(3.325 8.081)" fill="#e32138"/>
        <path id="Path_29699" data-name="Path 29699" d="M4.63,12.09A.674.674,0,0,1,4.305,12,3.7,3.7,0,0,1,2.332,9.572a3.539,3.539,0,0,1,.631-2.635.648.648,0,0,1,1.031.784A2.258,2.258,0,0,0,3.6,9.328a2.493,2.493,0,0,0,1.35,1.553.648.648,0,0,1-.325,1.21" transform="translate(3.632 10.667)" fill="#e32138"/>
        <path id="Path_29700" data-name="Path 29700" d="M6.793,14.224a.645.645,0,0,1-.14-.016,4.487,4.487,0,0,1-3.445-2.357A4.7,4.7,0,0,1,3.6,7.985a.648.648,0,0,1,1.119.654,3.468,3.468,0,0,0-.325,2.7,3.327,3.327,0,0,0,2.537,1.6.648.648,0,0,1-.14,1.28" transform="translate(4.674 12.238)" fill="#e32138"/>
        <path id="Path_29701" data-name="Path 29701" d="M4.667,10.729a.654.654,0,0,1-.628-.48A3.405,3.405,0,0,1,4.42,7.232a4.125,4.125,0,0,1,2.9-1.4.648.648,0,0,1,.055,1.3,2.829,2.829,0,0,0-1.911.883A2.214,2.214,0,0,0,5.29,9.914a.644.644,0,0,1-.457.794.746.746,0,0,1-.166.021" transform="translate(6.167 9.302)" fill="#e32138"/>
        <path id="Path_29702" data-name="Path 29702" d="M5.4,6.575a.648.648,0,0,1-.325-1.21c2.672-1.542,4,.091,4.05.161a.648.648,0,0,1-1.013.81c-.08-.091-.768-.787-2.389.153a.674.674,0,0,1-.325.086" transform="translate(7.581 7.511)" fill="#e32138"/>
        <path id="Path_29703" data-name="Path 29703" d="M6.857,10.318A2.367,2.367,0,0,1,4.642,9.1.648.648,0,0,1,5.777,8.47c.657,1.181,2.817.088,2.838.078A.649.649,0,0,1,9.209,9.7a5.416,5.416,0,0,1-2.352.618" transform="translate(7.28 12.987)" fill="#e32138"/>
        <path id="Path_29704" data-name="Path 29704" d="M6.518,5.272a2.017,2.017,0,0,1-.685-.109,1.393,1.393,0,0,1-.82-.745A.649.649,0,0,1,6.194,3.88c.01.023.018.042.078.065A3.183,3.183,0,0,0,8,3.566a.648.648,0,0,1,.569,1.166,5.273,5.273,0,0,1-2.048.54" transform="translate(7.909 5.587)" fill="#e32138"/>
        <path id="Path_29705" data-name="Path 29705" d="M6.779,8.546A2.8,2.8,0,0,1,5.372,8.2a.649.649,0,0,1,.649-1.124A2.532,2.532,0,0,0,7.89,7.038a.648.648,0,1,1,.485,1.2,4.6,4.6,0,0,1-1.6.306" transform="translate(8.059 11.158)" fill="#e32138"/>
        <path id="Path_29706" data-name="Path 29706" d="M7.791,25.223H6.9a.648.648,0,1,1,0-1.3h.3l.19-2.155a.641.641,0,0,1,.5-.574,7.992,7.992,0,0,0,2.775-1.244.651.651,0,0,1,.789.034l1.737,1.459,1.228-1.231-1.508-1.8a.644.644,0,0,1-.052-.761,7.963,7.963,0,0,0,1.083-2.7.648.648,0,0,1,.579-.517l2.378-.208V12.494l-2.378-.208a.651.651,0,0,1-.579-.519,7.95,7.95,0,0,0-1.083-2.7.648.648,0,0,1,.052-.763l1.508-1.8L13.183,5.279,11.446,6.735a.643.643,0,0,1-.789.034A7.986,7.986,0,0,0,7.882,5.528a.647.647,0,0,1-.5-.576L7.2,2.8H6.83a.648.648,0,1,1,0-1.3h.961a.651.651,0,0,1,.646.589l.2,2.293a9.1,9.1,0,0,1,2.347,1.046L12.8,3.9a.648.648,0,0,1,.875.039l2.069,2.069a.648.648,0,0,1,.039.875l-1.6,1.9a9.212,9.212,0,0,1,.906,2.248l2.5.218a.648.648,0,0,1,.592.646v2.926a.648.648,0,0,1-.592.646l-2.5.218a9.17,9.17,0,0,1-.906,2.248l1.6,1.9a.647.647,0,0,1-.039.875l-2.069,2.072a.647.647,0,0,1-.875.036L10.984,21.3a9.281,9.281,0,0,1-2.347,1.046l-.2,2.29a.651.651,0,0,1-.646.592" transform="translate(9.867 2.402)" fill="#e32138"/>
        <path id="Path_29707" data-name="Path 29707" d="M7.1,15.538a.648.648,0,0,1-.13-1.283A4.67,4.67,0,0,0,6.9,5.094a.648.648,0,1,1,.239-1.275,5.966,5.966,0,0,1,.1,11.707.733.733,0,0,1-.13.013" transform="translate(10.161 6.082)" fill="#e32138"/>
        <path id="Path_29708" data-name="Path 29708" d="M4.438,39.014a.642.642,0,0,1-.288-.068.649.649,0,0,1-.293-.867,11.94,11.94,0,0,0,.249-7.952,44.907,44.907,0,0,0-1.913-5.2C.6,21.107-.784,17.808.515,12.148A15.518,15.518,0,0,1,17.525.117c6.491.8,15.118,3.209,15.118,14.825a9.219,9.219,0,0,0,1.856,5.53l.574.758a3.2,3.2,0,0,1,.743,2.368,2.291,2.291,0,0,1-1.257,1.6,1.359,1.359,0,0,0-.724,1.309,1.552,1.552,0,0,1-1.542,1.711H29.707a.649.649,0,1,1,0-1.3h2.586a.248.248,0,0,0,.187-.083.244.244,0,0,0,.065-.195,2.66,2.66,0,0,1,1.389-2.578,1.059,1.059,0,0,0,.608-.7,1.952,1.952,0,0,0-.48-1.329l-.595-.784a10.52,10.52,0,0,1-2.119-6.314c0-10.471-7.472-12.735-13.981-13.54A14.219,14.219,0,0,0,1.779,12.436c-1.2,5.257.036,8.23,1.61,11.992a46.523,46.523,0,0,1,1.963,5.341,13.013,13.013,0,0,1-.332,8.887.652.652,0,0,1-.582.358" transform="translate(0 0.001)" fill="#e32138"/>
        <path id="Path_29709" data-name="Path 29709" d="M16.666,17.732c-.53,0-1.189-.042-2.01-.1-.859-.06-1.836-.127-2.744-.127-2.981,0-4.328-4.956-4.471-5.52A.649.649,0,0,1,8.7,11.667c.3,1.181,1.54,4.546,3.214,4.546.953,0,1.952.068,2.833.127a12.326,12.326,0,0,0,2.69.031,2.583,2.583,0,0,0,.509-1.916,5.877,5.877,0,0,1,1.334-3.035.648.648,0,1,1,1.007.815,4.787,4.787,0,0,0-1.044,2.22,3.763,3.763,0,0,1-.924,2.864,2.265,2.265,0,0,1-1.651.413" transform="translate(11.846 17.846)" fill="#e32138"/>
        <path id="Path_29710" data-name="Path 29710" d="M8.564,18.181a.648.648,0,0,1-.649-.649A12.418,12.418,0,0,1,9.172,14.04a.649.649,0,0,1,1.161.582,11.9,11.9,0,0,0-1.119,2.91.651.651,0,0,1-.649.649" transform="translate(12.634 21.842)" fill="#e32138"/>
      </g>
    </g>
  </g>
</svg>
