<svg xmlns="http://www.w3.org/2000/svg" xmlns:xlink="http://www.w3.org/1999/xlink" width="97" height="95" viewBox="0 0 97 95">
  <defs>
    <clipPath id="clip-path">
      <rect id="Rectangle_5120" data-name="Rectangle 5120" width="92.615" height="91.649" fill="#e32138"/>
    </clipPath>
    <clipPath id="clip-icn-Dinero">
      <rect width="97" height="95"/>
    </clipPath>
  </defs>
  <g id="icn-Dinero" clip-path="url(#clip-icn-Dinero)">
    <rect width="97" height="95" fill="#fff"/>
    <g id="Group_6141" data-name="Group 6141" transform="translate(2 2)">
      <g id="Group_6140" data-name="Group 6140" transform="translate(0 0)" clip-path="url(#clip-path)">
        <path id="Path_29810" data-name="Path 29810" d="M29.342,64.759A29.342,29.342,0,1,1,58.683,35.418,29.378,29.378,0,0,1,29.342,64.759m0-55.976A26.637,26.637,0,1,0,55.976,35.418,26.663,26.663,0,0,0,29.342,8.783" transform="translate(0 26.891)" fill="#e32138"/>
        <path id="Path_29811" data-name="Path 29811" d="M15.045,33.595H10.509a6.771,6.771,0,0,1-6.766-6.766,1.351,1.351,0,0,1,2.7,0,4.067,4.067,0,0,0,4.064,4.058h4.536a4.058,4.058,0,0,0,0-8.117H10.509a6.766,6.766,0,1,1,0-13.531h4.536A6.771,6.771,0,0,1,21.81,16,1.354,1.354,0,0,1,19.1,16a4.063,4.063,0,0,0-4.058-4.058H10.509a4.058,4.058,0,1,0,0,8.117h4.536a6.766,6.766,0,1,1,0,13.531" transform="translate(16.565 40.889)" fill="#e32138"/>
        <path id="Path_29812" data-name="Path 29812" d="M6.51,16.027a1.351,1.351,0,0,1-1.351-1.351V9.668a1.351,1.351,0,0,1,2.7,0v5.008A1.351,1.351,0,0,1,6.51,16.027" transform="translate(22.832 36.809)" fill="#e32138"/>
        <path id="Path_29813" data-name="Path 29813" d="M6.51,20.94a1.348,1.348,0,0,1-1.351-1.351V14.581a1.351,1.351,0,1,1,2.7,0v5.008A1.348,1.348,0,0,1,6.51,20.94" transform="translate(22.832 58.552)" fill="#e32138"/>
        <path id="Path_29814" data-name="Path 29814" d="M68.433,12.473a1.348,1.348,0,0,1-1.351-1.351c0-3.977-12.663-8.421-29.608-8.421S7.866,7.146,7.866,11.123a1.354,1.354,0,0,1-2.707,0C5.159,3.9,21.81,0,37.474,0s32.31,3.9,32.31,11.123a1.348,1.348,0,0,1-1.351,1.351" transform="translate(22.832 0.001)" fill="#e32138"/>
        <path id="Path_29815" data-name="Path 29815" d="M22.877,16.93a91.521,91.521,0,0,1-13.26-.922,1.352,1.352,0,1,1,.4-2.675,88.959,88.959,0,0,0,12.859.89c16.939,0,29.6-4.444,29.6-8.415a1.354,1.354,0,0,1,2.707,0c0,7.227-16.646,11.123-32.31,11.123" transform="translate(37.429 19.726)" fill="#e32138"/>
        <path id="Path_29816" data-name="Path 29816" d="M12.221,19.586a1.354,1.354,0,1,1,0-2.707c16.939,0,29.6-4.444,29.6-8.415a1.354,1.354,0,0,1,2.707,0c0,7.221-16.646,11.123-32.31,11.123" transform="translate(48.084 31.48)" fill="#e32138"/>
        <path id="Path_29817" data-name="Path 29817" d="M12.457,22.237a1.354,1.354,0,0,1-.016-2.707c16.689-.217,28.316-4.606,28.316-8.4a1.354,1.354,0,1,1,2.707,0c0,7.026-15.588,10.911-30.991,11.112Z" transform="translate(49.151 43.235)" fill="#e32138"/>
        <path id="Path_29818" data-name="Path 29818" d="M37.474,71.922a1.354,1.354,0,1,1,0-2.707c16.939,0,29.6-4.444,29.6-8.415V7.829c-5.339,4.216-17.753,6.446-29.6,6.446S13.205,12.045,7.866,7.829V19.266a1.354,1.354,0,1,1-2.707,0V3.152a1.354,1.354,0,0,1,2.707,0c0,3.972,12.658,8.415,29.608,8.415s29.6-4.444,29.6-8.415a1.354,1.354,0,0,1,2.707,0V60.8c0,7.221-16.646,11.123-32.31,11.123" transform="translate(22.832 7.972)" fill="#e32138"/>
      </g>
    </g>
  </g>
</svg>
