<svg xmlns="http://www.w3.org/2000/svg" xmlns:xlink="http://www.w3.org/1999/xlink" width="87" height="95" viewBox="0 0 87 95">
  <defs>
    <clipPath id="clip-path">
      <rect id="Rectangle_5119" data-name="Rectangle 5119" width="79.472" height="91.65" fill="#e32138"/>
    </clipPath>
    <clipPath id="clip-icn-seguridadD">
      <rect width="87" height="95"/>
    </clipPath>
  </defs>
  <g id="icn-seguridadD" clip-path="url(#clip-icn-seguridadD)">
    <rect width="87" height="95" fill="#fff"/>
    <g id="Group_1" data-name="Group 1" transform="translate(4 2)">
      <g id="Group_6138" data-name="Group 6138" transform="translate(0 0)" clip-path="url(#clip-path)">
        <path id="Path_29806" data-name="Path 29806" d="M37.826,46.791H14.139A11.14,11.14,0,0,1,3.013,35.665V17.516A11.14,11.14,0,0,1,14.139,6.39H37.826A11.14,11.14,0,0,1,48.952,17.516v18.15A11.14,11.14,0,0,1,37.826,46.791M14.139,9.173A8.353,8.353,0,0,0,5.8,17.516v18.15a8.349,8.349,0,0,0,8.343,8.343H37.826a8.349,8.349,0,0,0,8.343-8.343V17.516a8.353,8.353,0,0,0-8.343-8.343Z" transform="translate(13.756 29.177)" fill="#e32138"/>
        <path id="Path_29807" data-name="Path 29807" d="M35.19,25.481A1.392,1.392,0,0,1,33.8,24.09v-5.1a13.391,13.391,0,1,0-26.782,0v5.1a1.391,1.391,0,0,1-2.783,0v-5.1a16.174,16.174,0,1,1,32.348,0v5.1a1.392,1.392,0,0,1-1.391,1.391" transform="translate(19.331 12.868)" fill="#e32138"/>
        <path id="Path_29808" data-name="Path 29808" d="M12.934,27.663a3.886,3.886,0,0,1-3.879-3.879V21.24a7,7,0,0,1-3.184-5.9,7.063,7.063,0,1,1,10.948,5.9v2.544a3.887,3.887,0,0,1-3.885,3.879m0-16.6a4.279,4.279,0,0,0-1.876,8.126,1.4,1.4,0,0,1,.779,1.247v3.351a1.1,1.1,0,0,0,2.2,0V20.433a1.387,1.387,0,0,1,.779-1.247,4.281,4.281,0,0,0-1.881-8.126" transform="translate(26.805 37.797)" fill="#e32138"/>
        <path id="Path_29809" data-name="Path 29809" d="M39.735,91.65a1.476,1.476,0,0,1-.412-.061C18.975,85.227,1.894,70.84,1.176,70.233A1.4,1.4,0,0,1,.7,69.409,78.879,78.879,0,0,1,2.879,37.757,57.018,57.018,0,0,0,2.89,7.887a1.4,1.4,0,0,1,.2-1.247,1.385,1.385,0,0,1,1.124-.573c30.233,0,33.951-4.714,34.19-5.076a1.392,1.392,0,0,1,2.666,0c.234.362,3.957,5.076,34.19,5.076a1.387,1.387,0,0,1,1.319,1.82A57.12,57.12,0,0,0,76.6,37.757a78.818,78.818,0,0,1,2.171,31.652,1.363,1.363,0,0,1-.468.824c-.718.607-17.8,14.994-38.147,21.355a1.515,1.515,0,0,1-.417.061M3.375,68.441C6.041,70.623,21.78,83.073,39.735,88.8c17.972-5.733,33.7-18.177,36.366-20.359a78.031,78.031,0,0,0-2.182-29.927,59.764,59.764,0,0,1-.49-29.671C50.449,8.7,42.473,5.8,39.735,3.6,37,5.8,29.027,8.7,6.041,8.844a59.675,59.675,0,0,1-.484,29.671A77.921,77.921,0,0,0,3.375,68.441M38.36,1.18v0Zm2.749,0v0Zm-2.749,0Zm2.749,0Z" transform="translate(-0.002 0.002)" fill="#e32138"/>
      </g>
    </g>
  </g>
</svg>
