<svg xmlns="http://www.w3.org/2000/svg" xmlns:xlink="http://www.w3.org/1999/xlink" width="51" height="53" viewBox="0 0 51 53">
  <defs>
    <clipPath id="clip-path">
      <rect id="Rectangle_5098" data-name="Rectangle 5098" width="39.25" height="39" fill="#e32138"/>
    </clipPath>
    <clipPath id="clip-icn_educacion">
      <rect width="51" height="53"/>
    </clipPath>
  </defs>
  <g id="icn_educacion" clip-path="url(#clip-icn_educacion)">
    <rect width="51" height="53" fill="#fff"/>
    <g id="Group_6113" data-name="Group 6113" transform="translate(6 6.999)">
      <g id="Group_6112" data-name="Group 6112" transform="translate(0 0.001)" clip-path="url(#clip-path)">
        <path id="Path_29745" data-name="Path 29745" d="M19.625,31.372a.823.823,0,0,1-.823-.823.655.655,0,0,0-.184-.513c-.51-.5-1.892-.48-2.418-.47l-2.451,0H.823A.82.82,0,0,1,0,28.75V2.893a.82.82,0,0,1,.823-.819h14A5.635,5.635,0,0,1,20.448,7.7V30.549a.823.823,0,0,1-.823.823M16.549,27.92a6.388,6.388,0,0,1,2.254.339V7.7a3.988,3.988,0,0,0-3.984-3.988H1.642V27.927l14.532,0c.112,0,.237,0,.375,0" transform="translate(0 4.748)" fill="#e32138"/>
        <path id="Path_29746" data-name="Path 29746" d="M6.538,31.372a.822.822,0,0,1-.823-.819,2.32,2.32,0,0,1,.678-1.688c1-.98,2.757-.951,3.6-.941l2.425,0H24.521V2.893a.821.821,0,0,1,1.642,0V28.75a.82.82,0,0,1-.823.819H9.962c-.526-.01-1.908-.033-2.418.467a.664.664,0,0,0-.184.517.822.822,0,0,1-.823.819" transform="translate(13.088 4.748)" fill="#e32138"/>
        <path id="Path_29747" data-name="Path 29747" d="M38.428,16.259H.823A.822.822,0,0,1,0,15.44V10.755a.821.821,0,1,1,1.642,0v3.862H37.605V10.755a.823.823,0,0,1,1.645,0V15.44a.822.822,0,0,1-.823.819" transform="translate(0 22.743)" fill="#e32138"/>
        <path id="Path_29748" data-name="Path 29748" d="M6.538,35.957a.708.708,0,0,1-.141-.013.82.82,0,0,1-.681-.809V9.479a.808.808,0,0,1,.049-.28C8.975.368,20.543.01,21.037,0a.839.839,0,0,1,.589.234.822.822,0,0,1,.25.586V26.287a.821.821,0,0,1-.823.823c-10.706,0-13.624,7.959-13.742,8.3a.821.821,0,0,1-.773.549m.819-26.33V32.009c1.921-2.665,5.81-6.268,12.874-6.527V1.7c-2.593.257-10.452,1.55-12.874,7.926" transform="translate(13.088 -0.002)" fill="#e32138"/>
      </g>
    </g>
  </g>
</svg>
