<?xml version="1.0" encoding="utf-8"?>
<!-- Generator: Adobe Illustrator 26.0.3, SVG Export Plug-In . SVG Version: 6.00 Build 0)  -->
<svg version="1.1" id="Capa_1" xmlns="http://www.w3.org/2000/svg" xmlns:xlink="http://www.w3.org/1999/xlink" x="0px" y="0px"
	 width="90px" height="78.7px" viewBox="0 0 90 78.7" style="enable-background:new 0 0 90 78.7;" xml:space="preserve">
<style type="text/css">
	.st0{fill-rule:evenodd;clip-rule:evenodd;fill:#9A1C1F;}
</style>
<path class="st0" d="M-64.3,12.3l2.6,1.1c0,0,0.1,0,0.1,0c0,0,0,0,0.1,0l5.6-2.9c0.7-0.4,1.5-0.5,2.3-0.4c0.8,0.1,1.5,0.5,2,1h0
	l5.8,5.8c0.6,0.6,0.9,1.3,1,2c0.1,0.8,0,1.5-0.4,2.3l-2.9,5.6c0,0,0,0.1,0,0.1c0,0,0,0.1,0,0.1l1.1,2.7c0,0,0,0.1,0,0.1
	c0,0,0,0,0.1,0l6,1.9c0.8,0.2,1.4,0.7,1.9,1.3l0,0c0.5,0.6,0.7,1.4,0.7,2.2v8.2c0,0.8-0.3,1.6-0.7,2.2v0c-0.4,0.6-1.1,1.1-1.9,1.3
	l-6,1.9c0,0-0.1,0-0.1,0c0,0,0,0,0,0.1l-1.1,2.7c0,0,0,0.1,0,0.1c0,0,0,0,0,0.1l2.9,5.6c0.4,0.7,0.5,1.5,0.4,2.3
	c-0.1,0.8-0.5,1.5-1,2l-5.8,5.8c-0.6,0.6-1.3,0.9-2,1c-0.8,0.1-1.5,0-2.3-0.4l-5.6-2.9c0,0-0.1,0-0.1,0c0,0-0.1,0-0.1,0l-2.7,1.1
	c0,0-0.1,0-0.1,0c0,0,0,0,0,0.1l-1.9,6c-0.2,0.8-0.7,1.4-1.3,1.9c-0.6,0.5-1.4,0.7-2.2,0.7h-8.2c-0.8,0-1.6-0.3-2.2-0.7
	c-0.6-0.5-1.1-1.1-1.3-1.9l-1.9-6c0,0,0-0.1,0-0.1c0,0,0,0-0.1,0l-2.7-1.1c0,0-0.1,0-0.1,0c0,0,0,0-0.1,0l-5.6,2.9
	c-0.7,0.4-1.5,0.5-2.3,0.4c-0.8-0.1-1.5-0.5-2-1l-5.8-5.8l-0.1-0.1c-0.5-0.5-0.8-1.2-0.9-1.9c-0.1-0.8,0-1.5,0.4-2.3l2.9-5.6
	c0,0,0-0.1,0-0.1c0,0,0-0.1,0-0.1l-1.1-2.7c0,0,0-0.1,0-0.1c0,0,0,0-0.1,0l-6-1.9c-0.8-0.2-1.4-0.7-1.9-1.3l-0.1-0.1
	c-0.4-0.6-0.6-1.3-0.6-2v-8.2c0-0.8,0.3-1.6,0.7-2.2v0c0.4-0.6,1.1-1.1,1.9-1.3l6-1.9c0,0,0.1,0,0.1,0c0,0,0,0,0-0.1l1.1-2.7
	c0,0,0-0.1,0-0.1c0,0,0,0,0-0.1l-2.9-5.6c-0.4-0.7-0.5-1.5-0.4-2.3c0.1-0.8,0.5-1.5,1-2l0,0l5.8-5.8c0.6-0.6,1.3-0.9,2-1
	c0.8-0.1,1.5,0,2.3,0.4l5.6,2.9c0,0,0.1,0,0.1,0c0,0,0.1,0,0.1,0l2.7-1.1l0,0c0,0,0,0,0-0.1c0.7-1.9,1.3-4,1.9-6
	c0.2-0.8,0.7-1.4,1.3-1.9c0.6-0.5,1.4-0.7,2.2-0.7h8.2c0.8,0,1.6,0.3,2.2,0.7c0.6,0.5,1.1,1.1,1.3,1.9l1.9,6c0,0,0,0.1,0,0.1
	C-64.5,12.2-64.4,12.2-64.3,12.3L-64.3,12.3L-64.3,12.3z M-74,55.5c4.5,0,8.5-1.8,11.4-4.7c2.9-2.9,4.7-7,4.7-11.4
	s-1.8-8.5-4.7-11.4c-2.9-2.9-7-4.7-11.4-4.7s-8.5,1.8-11.4,4.7c-2.9,2.9-4.7,7-4.7,11.4s1.8,8.5,4.7,11.4
	C-82.6,53.7-78.5,55.5-74,55.5L-74,55.5z M-60.1,53.3c3.6-3.6,5.8-8.5,5.8-13.9c0-5.4-2.2-10.3-5.8-13.9c-3.6-3.6-8.5-5.8-13.9-5.8
	s-10.3,2.2-13.9,5.8c-3.6,3.6-5.8,8.5-5.8,13.9c0,5.4,2.2,10.3,5.8,13.9c3.6,3.6,8.5,5.8,13.9,5.8S-63.7,56.8-60.1,53.3L-60.1,53.3z
	 M-63,16.6l-2.7-1.1c-0.5-0.2-0.9-0.5-1.3-0.9c-0.4-0.4-0.6-0.9-0.8-1.4l-1.9-6c0-0.1,0-0.1-0.1-0.1s-0.1,0-0.1,0h-8.2
	c-0.1,0-0.1,0-0.1,0c0,0-0.1,0.1-0.1,0.1l-1.9,6c-0.2,0.5-0.4,1-0.8,1.4c-0.3,0.4-0.7,0.6-1.2,0.9l-0.1,0.1l-2.7,1.1
	c-0.5,0.2-1,0.3-1.6,0.3c-0.5,0-1.1-0.2-1.5-0.4l-5.6-2.9c0,0-0.1,0-0.1,0c0,0-0.1,0-0.1,0.1l-5.8,5.8h0c0,0-0.1,0.1-0.1,0.1
	c0,0,0,0.1,0,0.1l2.9,5.6c0.3,0.5,0.4,1,0.4,1.5c0,0.5-0.1,1.1-0.3,1.6l-1.1,2.7c-0.2,0.5-0.5,1-0.9,1.3c-0.4,0.4-0.9,0.6-1.4,0.8
	l-6,1.9c0,0-0.1,0-0.1,0.1c0,0,0,0.1,0,0.1v8.2c0,0,0,0.1,0,0.1l0,0c0,0,0.1,0.1,0.1,0.1l6,1.9c0.5,0.2,1,0.4,1.4,0.8
	c0.4,0.4,0.7,0.8,0.9,1.3l1.1,2.7c0.2,0.5,0.3,1,0.3,1.6c0,0.5-0.2,1.1-0.4,1.5l-2.9,5.6c0,0,0,0.1,0,0.1c0,0,0,0,0,0.1l5.9,5.9
	c0,0,0.1,0.1,0.1,0.1c0,0,0.1,0,0.1,0l5.6-2.9c0.5-0.3,1-0.4,1.5-0.4c0.5,0,1.1,0.1,1.6,0.3l2.7,1.1c0.5,0.2,0.9,0.5,1.3,0.9
	c0.4,0.4,0.6,0.9,0.8,1.4l1.9,6c0,0.1,0,0.1,0.1,0.1c0,0,0.1,0,0.1,0h8.2c0.1,0,0.1,0,0.1,0c0,0,0.1-0.1,0.1-0.1l1.9-6
	c0.2-0.5,0.4-1,0.8-1.4c0.4-0.4,0.8-0.7,1.3-0.9l2.7-1.1c0.5-0.2,1-0.3,1.6-0.3c0.5,0,1.1,0.2,1.5,0.4l5.6,2.9c0,0,0.1,0,0.1,0
	c0,0,0.1,0,0.1-0.1l5.8-5.8c0,0,0.1-0.1,0.1-0.1c0,0,0-0.1,0-0.1l-2.9-5.6c-0.3-0.5-0.4-1-0.4-1.5c0-0.5,0.1-1.1,0.3-1.6l1.1-2.7
	c0.2-0.5,0.5-1,0.9-1.3c0.4-0.4,0.9-0.6,1.4-0.8l6-1.9c0,0,0.1,0,0.1-0.1c0,0,0-0.1,0-0.1v-8.2c0-0.1,0-0.1,0-0.1v0
	c0,0-0.1-0.1-0.1-0.1l-6-1.9c-0.5-0.2-1-0.4-1.4-0.8c-0.4-0.4-0.7-0.8-0.9-1.3l-1.1-2.7c-0.2-0.5-0.3-1-0.3-1.6
	c0-0.5,0.2-1.1,0.4-1.5l2.9-5.6c0,0,0-0.1,0-0.1c0,0,0-0.1-0.1-0.1l-5.8-5.8l0,0c0,0-0.1-0.1-0.1-0.1c0,0-0.1,0-0.1,0l-5.6,2.9
	c-0.5,0.3-1,0.4-1.5,0.4C-62,16.9-62.5,16.8-63,16.6L-63,16.6z M-74,30.6c-2.4,0-4.6,1-6.2,2.6v0c-1.6,1.6-2.6,3.8-2.6,6.2
	c0,2.4,1,4.6,2.6,6.2c1.6,1.6,3.8,2.6,6.2,2.6c2.4,0,4.5-0.9,6.1-2.5l0.1-0.1c1.6-1.6,2.6-3.8,2.6-6.2c0-2.4-1-4.6-2.6-6.2
	C-69.4,31.6-71.6,30.6-74,30.6L-74,30.6z M-70.3,35.6c-0.9-0.9-2.3-1.5-3.7-1.5c-1.4,0-2.8,0.6-3.7,1.5l0,0
	c-0.9,0.9-1.5,2.3-1.5,3.7c0,1.4,0.6,2.8,1.5,3.7c0.9,0.9,2.3,1.5,3.7,1.5c1.4,0,2.7-0.6,3.6-1.5l0.1-0.1c0.9-0.9,1.5-2.3,1.5-3.7
	C-68.8,37.9-69.4,36.6-70.3,35.6z"/>
<path class="st0" d="M29,20.7l10.7,10.8l3.9-3.9L32.9,16.7L29,20.7L29,20.7z M57.4,62.3l4-4l-11-11.2l-4,4L57.4,62.3L57.4,62.3z
	 M63.8,55.9l-11-11.2l3.9-3.9L67.8,52L63.8,55.9L63.8,55.9z M70.2,54.4l3.8,3.8c0.3,0.3,0.4,0.6,0.4,0.9c0,0.3-0.1,0.7-0.4,0.9
	c-2.8,2.8-5.8,5.7-8.6,8.6c-0.2,0.2-0.6,0.3-0.9,0.3c-0.3,0-0.7-0.1-0.9-0.4l-0.1-0.1l-3.7-3.8l5.3-5.3l0,0L70.2,54.4L70.2,54.4z
	 M37.2,33.9l-4,4L22.6,27.1l4-4L37.2,33.9L37.2,33.9z M34.5,41.6l12.7-12.7l0,0l0.1-0.1l4.2-4.2c0.5-0.4,0.7-1.1,0.6-1.7
	c-0.3-1.8-0.1-3.6,0.4-5.3c0.5-1.7,1.5-3.2,2.8-4.6h0c1.6-1.6,3.6-2.7,5.7-3.1c1.2-0.3,2.5-0.3,3.7-0.2l-4.7,4.7
	c-0.5,0.5-0.6,1.3-0.4,1.9l1.7,5.7c0.2,0.6,0.6,1,1.2,1.2l5.8,1.8c0.6,0.2,1.3,0,1.7-0.4l0,0l4.7-4.7c0.1,1.2,0.1,2.5-0.2,3.7
	c-0.4,2.1-1.5,4.1-3.1,5.7l-0.1,0.1c-1.3,1.3-2.8,2.2-4.5,2.7c-1.6,0.5-3.3,0.7-5,0.5c-0.7-0.4-1.6-0.2-2.1,0.3L38.5,54.1
	c-0.5,0.4-0.7,1.1-0.6,1.7c0.3,1.8,0.1,3.6-0.4,5.3c-0.5,1.7-1.5,3.2-2.8,4.6h0c-1.6,1.6-3.6,2.7-5.7,3.1c-1.2,0.3-2.5,0.3-3.7,0.2
	l4.7-4.7c0.5-0.5,0.6-1.3,0.4-1.9l-1.7-5.7c-0.2-0.6-0.6-1-1.2-1.2l-5.8-1.8c-0.6-0.2-1.3,0-1.7,0.4l0,0l-4.7,4.7
	c-0.1-1.2-0.1-2.5,0.2-3.7c0.4-2.1,1.5-4.1,3.1-5.7l0.1-0.1c1.3-1.3,2.8-2.2,4.5-2.7c1.6-0.5,3.3-0.7,5-0.5c0.7,0.4,1.6,0.2,2.1-0.3
	L34.5,41.6L34.5,41.6L34.5,41.6L34.5,41.6z M30.8,40.4l-11.9-12c-0.2-0.2-0.3-0.4-0.4-0.6l-6-16.9c-0.2-0.6-0.2-1.2-0.1-1.8l0-0.1
	c0.2-0.5,0.4-1,0.8-1.4c0.4-0.4,1-0.7,1.5-0.9c0.6-0.1,1.2-0.1,1.8,0.1l16.9,6c0.3,0.1,0.5,0.3,0.7,0.5l11.8,12l2.5-2.5
	c-0.2-2,0-4.1,0.6-6.1c0.7-2.2,1.9-4.2,3.6-6l0,0c2.1-2.1,4.7-3.5,7.4-4c2.8-0.6,5.8-0.4,8.5,0.7c0.9,0.3,1.4,1.4,1,2.3
	c-0.1,0.2-0.2,0.4-0.4,0.6l-6.2,6.2l1.2,3.9l3.9,1.2l6.2-6.2c0.7-0.7,1.8-0.7,2.5,0c0.2,0.2,0.3,0.4,0.4,0.7c1,2.7,1.2,5.6,0.6,8.4
	c-0.6,2.7-1.9,5.3-4,7.4l-0.1,0.1c-1.7,1.7-3.7,2.9-5.9,3.6c-2.1,0.7-4.2,0.9-6.4,0.6l-2.5,2.5c5.8,5.8,11.5,11.6,17.3,17.4
	c0.9,0.9,1.4,2.2,1.4,3.4c0,1.2-0.5,2.5-1.4,3.4c-2.8,2.8-5.8,6-8.7,8.7c-0.9,0.8-2.1,1.3-3.3,1.3c-1.2,0-2.5-0.5-3.4-1.4L61,71
	L43.9,53.7l-2.4,2.4c0.2,2,0,4.1-0.6,6.1c-0.7,2.2-1.9,4.2-3.6,6l0,0c-2.1,2.1-4.7,3.5-7.4,4c-2.8,0.6-5.8,0.4-8.5-0.7
	c-0.9-0.3-1.4-1.4-1-2.3c0.1-0.2,0.2-0.4,0.4-0.6l6.2-6.2l-1.2-3.9l-3.9-1.2l-6.2,6.2c-0.7,0.7-1.8,0.7-2.5,0
	c-0.2-0.2-0.3-0.4-0.4-0.7c-1-2.7-1.2-5.6-0.6-8.4c0.6-2.7,1.9-5.3,4-7.4l0.1-0.1c1.7-1.7,3.7-2.9,5.9-3.6c2.1-0.7,4.2-0.9,6.4-0.6
	L30.8,40.4L30.8,40.4z M17.6,14.8l3-3L16,10.1L17.6,14.8L17.6,14.8z M24.2,13l5.7,2l-9,9l-2-5.7L24.2,13z"/>
</svg>
