<?xml version="1.0" encoding="utf-8"?>
<!-- Generator: Adobe Illustrator 25.4.1, SVG Export Plug-In . SVG Version: 6.00 Build 0)  -->
<svg version="1.1" id="Layer_1" xmlns="http://www.w3.org/2000/svg" xmlns:xlink="http://www.w3.org/1999/xlink" x="0px" y="0px"
	 width="90px" height="59.9px" viewBox="0 0 90 59.9" style="enable-background:new 0 0 90 59.9;" xml:space="preserve">
<style type="text/css">
	.st0{fill-rule:evenodd;clip-rule:evenodd;fill:#10487A;}
</style>
<path id="Path_6436" class="st0" d="M49.4,3.9H39.2l-5,14.8h20.2L49.4,3.9L49.4,3.9z M74.6,41.2H64.3l-5,14.8h20.2L74.6,41.2z
	 M71.1,37.4h4.5c0.8,0,1.5,0.4,2,1c0.2,0.3,0.4,0.6,0.5,1c0.5,1.4,4.8,13.9,5.6,16.7h3.1c1.1,0,2,0.8,2,1.9c0,1.1-0.8,2-1.9,2
	c0,0-0.1,0-0.1,0H1.9c-1.1,0-1.9-0.9-1.9-2c0-1,0.9-1.9,1.9-1.9H5l5.6-16.6c0.1-0.4,0.3-0.8,0.5-1.1c0.5-0.7,1.2-1,2-1h4.5l5.6-16.6
	c0.1-0.4,0.3-0.8,0.5-1.1c0.5-0.6,1.2-1,2-1h4.5l5.6-16.6C35.8,1.7,36,1.4,36.2,1c0.5-0.7,1.2-1,2-1h12.2c0.8,0,1.5,0.4,2,1v0
	c0.2,0.3,0.4,0.6,0.5,1c0.5,1.4,4.8,13.9,5.6,16.7H63c0.8,0,1.5,0.4,2,1c0.2,0.3,0.4,0.7,0.5,1.1L71.1,37.4L71.1,37.4z M56.9,51.2
	l-3.3-9.9h6.7L56.9,51.2L56.9,51.2z M31.8,51.1l3.3-9.8h-6.6C29.3,43.6,30.7,47.7,31.8,51.1L31.8,51.1z M45,41.2h-5.8l-5,14.8h20.2
	l-5-14.8H45z M19.9,41.2h-5.8L9.1,56h20.2l-5-14.8H19.9L19.9,41.2z M44.3,32.4l3.3-9.8H41C41.8,25,43.2,29,44.3,32.4L44.3,32.4z
	 M62,22.6H51.7l-5,14.8H67L62,22.6z M32.4,22.6h-5.8l-5,14.8h20.2l-5-14.8H32.4z"/>
</svg>
