<?xml version="1.0" encoding="utf-8"?>
<!-- Generator: Adobe Illustrator 25.4.1, SVG Export Plug-In . SVG Version: 6.00 Build 0)  -->
<svg version="1.1" id="Layer_1" xmlns="http://www.w3.org/2000/svg" xmlns:xlink="http://www.w3.org/1999/xlink" x="0px" y="0px"
	 width="50px" height="36px" viewBox="0 0 50 36" style="enable-background:new 0 0 50 36;" xml:space="preserve">
<style type="text/css">
	.st0{fill-rule:evenodd;clip-rule:evenodd;fill:#FFFFFF;}
</style>
<path class="st0" d="M22.7,7.9v20.2h4.5V7.9H22.7L22.7,7.9z M37.1,11.6c-0.5,0-0.9-0.4-0.9-0.9c0-0.5,0.4-0.9,0.9-0.9h2.2
	c0.5,0,0.9,0.4,0.9,0.9c0,0.5-0.4,0.9-0.9,0.9H37.1L37.1,11.6z M39.3,24.4c0.5,0,0.9,0.4,0.9,0.9c0,0.5-0.4,0.9-0.9,0.9h-2.2
	c-0.5,0-0.9-0.4-0.9-0.9c0-0.5,0.4-0.9,0.9-0.9H39.3L39.3,24.4z M10.7,11.6c-0.5,0-0.9-0.4-0.9-0.9c0-0.5,0.4-0.9,0.9-0.9h2.2
	c0.5,0,0.9,0.4,0.9,0.9c0,0.5-0.4,0.9-0.9,0.9H10.7L10.7,11.6z M12.9,24.4c0.5,0,0.9,0.4,0.9,0.9c0,0.5-0.4,0.9-0.9,0.9h-2.2
	c-0.5,0-0.9-0.4-0.9-0.9c0-0.5,0.4-0.9,0.9-0.9H12.9L12.9,24.4z M29.1,10.9c1.2,0.7,2.2,1.6,2.9,2.8c0.8,1.3,1.3,2.8,1.3,4.4
	s-0.5,3.1-1.3,4.3c-0.7,1.1-1.7,2.1-2.9,2.8v3h14c0,0,0,0,0,0c0,0,0,0,0-0.1V8c0,0,0,0,0-0.1c0,0,0,0,0,0h-14V10.9L29.1,10.9z
	 M29.1,22.9v-9.9c0.5,0.4,1,1,1.3,1.5c0.6,1,1,2.1,1,3.4c0,1.3-0.4,2.4-1,3.4C30.1,22,29.6,22.5,29.1,22.9L29.1,22.9z M20.9,25.1
	c-1.2-0.7-2.2-1.6-2.9-2.8c-0.8-1.3-1.3-2.8-1.3-4.3s0.5-3.1,1.3-4.4c0.7-1.1,1.7-2.1,2.9-2.8v-3h-14c0,0,0,0,0,0c0,0,0,0,0,0.1v20
	c0,0,0,0,0,0.1c0,0,0,0,0,0h14V25.1L20.9,25.1z M20.9,13.1v9.9c-0.5-0.4-1-1-1.3-1.5c-0.6-1-1-2.1-1-3.4c0-1.3,0.4-2.4,1-3.4
	C19.9,14,20.4,13.5,20.9,13.1L20.9,13.1z M6.9,6.1h14.9h6.3h14.9c0.5,0,1,0.2,1.3,0.6C44.7,7,44.9,7.5,44.9,8v20
	c0,0.5-0.2,1-0.5,1.3c-0.3,0.3-0.8,0.6-1.3,0.6H6.9c-0.5,0-1-0.2-1.3-0.6C5.3,29,5.1,28.5,5.1,28V8c0-0.5,0.2-1,0.5-1.3
	C5.9,6.3,6.4,6.1,6.9,6.1L6.9,6.1z M38.2,16.2c0.5,0,0.9,0.2,1.3,0.5l0,0c0.3,0.3,0.5,0.8,0.5,1.3c0,0.5-0.2,0.9-0.5,1.3l-0.1,0.1
	c-0.3,0.3-0.7,0.5-1.2,0.5c-0.5,0-0.9-0.2-1.3-0.5c-0.3-0.3-0.5-0.8-0.5-1.3c0-0.5,0.2-0.9,0.5-1.3v0C37.3,16.4,37.7,16.2,38.2,16.2
	L38.2,16.2z M11.8,16.2c0.5,0,0.9,0.2,1.3,0.5l0.1,0.1c0.3,0.3,0.5,0.7,0.5,1.2c0,0.5-0.2,0.9-0.5,1.3l0,0c-0.3,0.3-0.8,0.5-1.3,0.5
	c-0.5,0-0.9-0.2-1.3-0.5C10.2,19,10,18.5,10,18c0-0.5,0.2-0.9,0.5-1.3l0.1-0.1C10.9,16.4,11.3,16.2,11.8,16.2z"/>
</svg>
