<?xml version="1.0" encoding="utf-8"?>
<!-- Generator: Adobe Illustrator 25.4.1, SVG Export Plug-In . SVG Version: 6.00 Build 0)  -->
<svg version="1.1" id="Layer_1" xmlns="http://www.w3.org/2000/svg" xmlns:xlink="http://www.w3.org/1999/xlink" x="0px" y="0px"
	 width="90px" height="59.9px" viewBox="0 0 90 59.9" style="enable-background:new 0 0 90 59.9;" xml:space="preserve">
<style type="text/css">
	.st0{fill-rule:evenodd;clip-rule:evenodd;fill:#10487A;}
</style>
<path class="st0" d="M39.1,18.6c0.6-0.6,1.5-0.6,2,0c0.6,0.6,0.6,1.5,0,2L20.4,41.3c-0.6,0.6-1.5,0.6-2,0c-0.6-0.6-0.6-1.5,0-2
	L39.1,18.6L39.1,18.6z M36.3,38.9c0.3,0,0.6-0.1,0.9-0.2c0.3-0.1,0.5-0.3,0.8-0.5l0,0c0.2-0.2,0.4-0.5,0.5-0.8
	c0.1-0.3,0.2-0.6,0.2-0.9c0-0.3-0.1-0.6-0.2-0.9c-0.1-0.3-0.3-0.5-0.5-0.8c-0.2-0.2-0.5-0.4-0.8-0.5c-0.3-0.1-0.6-0.2-0.9-0.2
	c-0.3,0-0.6,0.1-0.9,0.2c-0.3,0.1-0.5,0.3-0.8,0.5c-0.2,0.2-0.4,0.5-0.5,0.8C34,35.9,34,36.2,34,36.5c0,0.3,0.1,0.6,0.2,0.9
	c0.1,0.3,0.3,0.5,0.5,0.8c0.2,0.2,0.5,0.4,0.8,0.5C35.7,38.8,36,38.9,36.3,38.9L36.3,38.9z M38.3,41.3c0.6-0.3,1.2-0.6,1.7-1.1l0,0
	c0.5-0.5,0.9-1.1,1.1-1.7c0.3-0.6,0.4-1.3,0.4-2c0-0.7-0.1-1.4-0.4-2c-0.3-0.6-0.7-1.2-1.1-1.7c-0.5-0.5-1-0.9-1.7-1.1
	c-0.6-0.3-1.3-0.4-2-0.4c-0.7,0-1.4,0.1-2,0.4c-0.6,0.3-1.2,0.6-1.7,1.1l0,0c-0.5,0.5-0.9,1-1.1,1.7c-0.3,0.6-0.4,1.3-0.4,2
	c0,0.7,0.1,1.4,0.4,2c0.3,0.6,0.7,1.2,1.1,1.7c0.5,0.5,1,0.9,1.7,1.1c0.6,0.3,1.3,0.4,2,0.4C37,41.7,37.7,41.6,38.3,41.3L38.3,41.3z
	 M23.2,25.7c0.3,0,0.6-0.1,0.9-0.2c0.3-0.1,0.5-0.3,0.8-0.5l0,0c0.2-0.2,0.4-0.5,0.5-0.8c0.1-0.3,0.2-0.6,0.2-0.9
	c0-0.3-0.1-0.6-0.2-0.9c-0.1-0.3-0.3-0.5-0.5-0.8l-0.1-0.1c-0.2-0.2-0.4-0.3-0.7-0.5c-0.3-0.1-0.6-0.2-0.9-0.2
	c-0.3,0-0.6,0.1-0.9,0.2c-0.3,0.1-0.5,0.3-0.8,0.5c-0.2,0.2-0.4,0.5-0.5,0.8c-0.1,0.3-0.2,0.6-0.2,0.9c0,0.3,0.1,0.6,0.2,0.9
	c0.1,0.3,0.3,0.5,0.5,0.8c0.2,0.2,0.5,0.4,0.8,0.5C22.5,25.6,22.8,25.7,23.2,25.7L23.2,25.7z M25.1,28.2c0.6-0.3,1.2-0.6,1.7-1.1h0
	c0.5-0.5,0.9-1,1.1-1.7c0.3-0.6,0.4-1.3,0.4-2c0-0.7-0.1-1.4-0.4-2c-0.3-0.6-0.7-1.2-1.1-1.7l-0.1-0.1c-0.5-0.4-1-0.8-1.6-1
	c-0.6-0.3-1.3-0.4-2-0.4c-0.7,0-1.4,0.1-2,0.4c-0.6,0.3-1.2,0.6-1.7,1.1l0,0c-0.5,0.5-0.9,1-1.1,1.7c-0.3,0.6-0.4,1.3-0.4,2
	c0,0.7,0.1,1.4,0.4,2c0.3,0.6,0.6,1.2,1.1,1.7l0,0c0.5,0.5,1,0.9,1.7,1.1c0.6,0.3,1.3,0.4,2,0.4C23.8,28.6,24.5,28.4,25.1,28.2
	L25.1,28.2z M29.7,49c2.6,0,5.1-0.5,7.3-1.4c2.3-1,4.4-2.4,6.2-4.1c1.8-1.8,3.2-3.9,4.1-6.2c0.9-2.2,1.4-4.7,1.4-7.3
	c0-2.6-0.5-5.1-1.4-7.3c-1-2.3-2.4-4.4-4.1-6.2c-1.8-1.8-3.9-3.2-6.2-4.1c-2.2-0.9-4.7-1.4-7.3-1.4s-5.1,0.5-7.3,1.4
	c-2.3,1-4.4,2.4-6.2,4.1c-1.8,1.8-3.2,3.9-4.1,6.2c-0.9,2.2-1.4,4.7-1.4,7.3c0,2.6,0.5,5.1,1.4,7.3c1,2.3,2.4,4.4,4.1,6.2
	c1.8,1.8,3.9,3.2,6.2,4.1C24.7,48.5,27.2,49,29.7,49L29.7,49z M38.1,50.2c2.7-1.1,5.1-2.7,7.1-4.8c2-2,3.6-4.4,4.8-7.1
	c1.1-2.6,1.7-5.4,1.7-8.4c0-3-0.6-5.8-1.7-8.4c-1.1-2.7-2.7-5.1-4.8-7.1c-2-2-4.4-3.6-7.1-4.8C35.5,8.6,32.7,8,29.7,8
	c-3,0-5.8,0.6-8.4,1.7c-2.7,1.1-5.1,2.7-7.1,4.8c-2,2-3.6,4.4-4.8,7.1c-1.1,2.6-1.7,5.4-1.7,8.4c0,3,0.6,5.8,1.7,8.4
	c1.1,2.7,2.7,5.1,4.8,7.1c2,2,4.4,3.6,7.1,4.8c2.6,1.1,5.4,1.7,8.4,1.7C32.7,51.9,35.5,51.3,38.1,50.2L38.1,50.2z M29.7,4.5
	C15.7,4.5,4.3,15.9,4.3,29.9c0,7,2.9,13.4,7.5,18c4.6,4.6,11,7.5,18,7.5c7,0,13.4-2.9,18-7.5c4.6-4.6,7.5-11,7.5-18
	c0-7-2.9-13.4-7.5-18S36.8,4.5,29.7,4.5L29.7,4.5z M1.4,29.9c0,7.8,3.2,14.9,8.3,20c5.1,5.1,12.2,8.3,20,8.3c7.8,0,14.9-3.2,20-8.3
	c5.1-5.1,8.3-12.2,8.3-20c0-7.8-3.2-14.9-8.3-20c-5.1-5.1-12.2-8.3-20-8.3C14.1,1.6,1.4,14.3,1.4,29.9z"/>
</svg>
