<?xml version="1.0" encoding="utf-8"?>
<!-- Generator: Adobe Illustrator 25.4.1, SVG Export Plug-In . SVG Version: 6.00 Build 0)  -->
<svg version="1.1" id="Layer_1" xmlns="http://www.w3.org/2000/svg" xmlns:xlink="http://www.w3.org/1999/xlink" x="0px" y="0px"
	 width="90px" height="59.9px" viewBox="0 0 90 59.9" style="enable-background:new 0 0 90 59.9;" xml:space="preserve">
<style type="text/css">
	.st0{fill-rule:evenodd;clip-rule:evenodd;fill:#10487A;}
</style>
<path id="Path_6436" class="st0" d="M166.4-53.1h-10.3l-5,14.8h20.2L166.4-53.1L166.4-53.1z M191.5-15.8h-10.3l-5,14.8h20.2
	L191.5-15.8z M188-19.7h4.5c0.8,0,1.5,0.4,2,1c0.2,0.3,0.4,0.6,0.5,1c0.5,1.4,4.8,13.9,5.6,16.7h3.1c1.1,0,2,0.8,2,1.9
	c0,1.1-0.8,2-1.9,2c0,0-0.1,0-0.1,0h-84.8c-1.1,0-1.9-0.9-1.9-2c0-1,0.9-1.9,1.9-1.9h3.1l5.6-16.6c0.1-0.4,0.3-0.8,0.5-1.1
	c0.5-0.7,1.2-1,2-1h4.5l5.6-16.6c0.1-0.4,0.3-0.8,0.5-1.1c0.5-0.6,1.2-1,2-1h4.5l5.6-16.6c0.1-0.4,0.3-0.8,0.5-1.1
	c0.5-0.7,1.2-1,2-1h12.2c0.8,0,1.5,0.4,2,1v0c0.2,0.3,0.4,0.6,0.5,1c0.5,1.4,4.8,13.9,5.6,16.7h4.4c0.8,0,1.5,0.4,2,1
	c0.2,0.3,0.4,0.7,0.5,1.1L188-19.7L188-19.7z M173.8-5.9l-3.3-9.9h6.7L173.8-5.9L173.8-5.9z M148.7-5.9l3.3-9.8h-6.6
	C146.2-13.4,147.6-9.3,148.7-5.9L148.7-5.9z M161.9-15.8h-5.8l-5,14.8h20.2l-5-14.8H161.9z M136.8-15.8H131L126-1h20.2l-5-14.8
	H136.8L136.8-15.8z M161.2-24.6l3.3-9.8h-6.6C158.7-32.1,160.1-28,161.2-24.6L161.2-24.6z M178.9-34.5h-10.3l-5,14.8h20.2
	L178.9-34.5z M149.4-34.5h-5.8l-5,14.8h20.2l-5-14.8H149.4z"/>
<path id="Path_6439" class="st0" d="M80.3-38.3c0,1.1-0.9,1.9-1.9,1.9H16.6c-1.1,0-1.9-0.9-1.9-1.9c0,0,0,0,0,0v-3h-1.6
	c-0.2,0-0.4,0-0.6,0.1c-0.2,0.1-0.4,0.3-0.5,0.4c-0.2,0.2-0.3,0.5-0.4,0.7l0,0c-0.1,0.3-0.1,0.6-0.1,0.9l1.1,16.9
	c0,0.5,0.2,1,0.6,1.4c0.3,0.3,0.6,0.5,1,0.5h65.6c0.2,0,0.5-0.1,0.7-0.2c0.3-0.2,0.5-0.5,0.7-0.8l11.4-20H80.3V-38.3L80.3-38.3z
	 M66.5-50v-6h-16v6L66.5-50L66.5-50z M46.7-50v-7.9c0-1.1,0.9-1.9,1.9-1.9c0,0,0,0,0,0h19.8c1.1,0,1.9,0.9,1.9,1.9v7.9h8
	c1.1,0,1.9,0.9,1.9,1.9c0,0,0,0,0,0v3h15.6c1.1,0,1.9,0.9,1.9,1.9c0,0.3-0.1,0.7-0.2,0.9l-13,22.8c-0.5,0.9-1.1,1.6-2,2.1
	c-0.8,0.5-1.8,0.8-2.8,0.8H14.2c-1.4,0-2.8-0.6-3.8-1.7c-1-1-1.6-2.4-1.6-3.8L7.7-38.9c0-0.8,0-1.5,0.3-2.3c0.2-0.7,0.6-1.4,1.1-2
	c0.5-0.6,1.1-1.1,1.8-1.4c0.7-0.3,1.5-0.5,2.2-0.5h1.6v-8.5c0-1.1,0.9-1.9,1.9-1.9c0,0,0,0,0,0h8.5v-11c0-1.1,0.9-1.9,1.9-1.9h11.7
	c1.1,0,1.9,0.9,1.9,1.9V-50L46.7-50z M60.4-46.2h16v6h-16V-46.2z M40.6-46.2h16v6h-16L40.6-46.2L40.6-46.2z M25.1-51.7v11.5h-6.6
	v-11.5H25.1z M29-40.3v-24.4h7.8v24.4L29-40.3z"/>
<path id="Path_6440" class="st0" d="M18.8,26.4c0.9,0,1.8,0.4,2.5,1.1l0.1,0.1c0.6,0.7,0.9,1.5,0.9,2.4c0,0.9-0.4,1.8-1.1,2.5l0,0
	c-1.4,1.4-3.7,1.4-5.1,0c-0.7-0.7-1-1.6-1-2.5c0-0.9,0.4-1.9,1.1-2.5l0.1-0.1C17.1,26.7,18,26.4,18.8,26.4L18.8,26.4z M45,20.6
	c3.8,0,6.8,3.1,6.8,6.8c0,1.7-0.6,3.3-1.8,4.6c0.7,0.4,1.3,0.9,1.9,1.5c1.3,1.3,2.2,3,2.6,4.8c4.4-5,4.1-12.5-0.6-17.2v0
	C49,16.1,41,16.1,36.1,21c0,0,0,0,0,0c-1.2,1.2-2.1,2.6-2.7,4.1c-1.3,3.1-1.3,6.6,0,9.7c0.5,1.3,1.3,2.4,2.2,3.5
	c0.4-1.8,1.3-3.5,2.6-4.8h0c0.6-0.6,1.2-1.1,1.9-1.5c-2.5-2.8-2.4-7,0.4-9.6C41.7,21.3,43.3,20.6,45,20.6L45,20.6z M47.3,25.1
	c1.3,1.3,1.3,3.3,0,4.5c-0.6,0.6-1.4,0.9-2.3,0.9l0,0c-0.9,0-1.7-0.3-2.3-0.9c-1.3-1.3-1.3-3.3,0-4.6c0,0,0,0,0,0
	C44,23.9,46,23.9,47.3,25.1L47.3,25.1z M38.9,40.3c0-1.6,0.6-3.2,1.8-4.3h0c1.2-1.2,2.7-1.8,4.3-1.8l0,0c3.4,0,6.1,2.8,6.1,6.1
	c0,0.2,0,0.4,0.1,0.6c-0.5,0.3-0.9,0.5-1.4,0.7c-3.1,1.3-6.6,1.3-9.7,0c-0.5-0.2-1-0.4-1.4-0.7C38.8,40.7,38.9,40.5,38.9,40.3
	L38.9,40.3z M51.2,15c2,0.8,3.7,2,5.2,3.5v0c6.3,6.3,6.3,16.5,0,22.8c-4.6,4.6-11.6,6-17.6,3.5c-1.9-0.8-3.7-2-5.1-3.4l-0.1-0.1
	c-6.3-6.3-6.3-16.5,0-22.8c0,0,0,0,0,0l0,0C38.2,13.9,45.1,12.5,51.2,15L51.2,15z M69,17.4c-1,0-1.8-0.8-1.8-1.8
	c0-1,0.8-1.8,1.8-1.8c0,0,0,0,0,0h4.4c1,0,1.8,0.8,1.8,1.8c0,1-0.8,1.8-1.8,1.8c0,0,0,0,0,0H69z M73.4,42.6c1,0,1.8,0.8,1.8,1.8
	c0,1-0.8,1.8-1.8,1.8c0,0,0,0,0,0H69c-1,0-1.8-0.8-1.8-1.8c0-1,0.8-1.8,1.8-1.8c0,0,0,0,0,0H73.4z M16.6,17.4c-1,0-1.8-0.8-1.8-1.8
	c0-1,0.8-1.8,1.8-1.8c0,0,0,0,0,0H21c1,0,1.8,0.8,1.8,1.8c0,1-0.8,1.8-1.8,1.8H16.6z M21,42.6c1,0,1.8,0.8,1.8,1.8
	c0,1-0.8,1.8-1.8,1.8h-4.4c-1,0-1.8-0.8-1.8-1.8c0-1,0.8-1.8,1.8-1.8c0,0,0,0,0,0H21z M9.2,6.4c-1,0-1.9,0.4-2.6,1.1
	c-0.7,0.7-1.1,1.6-1.1,2.6v39.7c0,1,0.4,1.9,1.1,2.6c0.7,0.7,1.6,1.1,2.6,1.1h71.5c1,0,1.9-0.4,2.6-1.1c0.7-0.7,1.1-1.6,1.1-2.6
	V10.1c0-1-0.4-1.9-1.1-2.6c-0.7-0.7-1.6-1.1-2.6-1.1L9.2,6.4z M80.8,10H9.2l-0.1,0c0,0-0.1,0.1,0,0.1v39.7c0,0,0,0.1,0,0.1l0.1,0
	h71.5l0.1,0c0,0,0-0.1,0-0.1V10.1C80.9,10.1,80.9,10,80.8,10L80.8,10z M71.2,26.4c0.9,0,1.8,0.4,2.5,1.1h0c1.4,1.4,1.4,3.6,0,5
	l-0.1,0.1c-1.5,1.3-3.7,1.2-5-0.3c-1.3-1.4-1.2-3.6,0.1-4.9l0,0C69.3,26.8,70.2,26.4,71.2,26.4L71.2,26.4z"/>
</svg>
