<?xml version="1.0" encoding="utf-8"?>
<!-- Generator: Adobe Illustrator 25.4.1, SVG Export Plug-In . SVG Version: 6.00 Build 0)  -->
<svg version="1.1" id="Layer_1" xmlns="http://www.w3.org/2000/svg" xmlns:xlink="http://www.w3.org/1999/xlink" x="0px" y="0px"
	 width="93.3px" height="78.7px" viewBox="0 0 93.3 78.7" style="enable-background:new 0 0 93.3 78.7;" xml:space="preserve">
<style type="text/css">
	.st0{fill-rule:evenodd;clip-rule:evenodd;fill:#9A1C1F;}
</style>
<path class="st0" d="M20.6,61l6-6.3l-5.2-13.5l-3.7-2.4c-0.6-0.4-0.9-1.2-0.8-1.9l1.3-10.1c0.1-0.8,0.7-1.4,1.4-1.6l14.9-3.6
	l0.7-9.8c0.1-0.9,0.8-1.7,1.7-1.8l4.8-0.5c1-0.1,1.8,0.5,2,1.5l0.6,2.4l3-1.1l0.6-6.8c-0.4,0-0.8,0-1.3,0c-2.3,0-4.5,0.2-6.6,0.6
	c-2.2,0.4-4.3,1.1-6.3,1.9c-2.1,0.9-4,1.9-5.9,3.1c-1.8,1.2-3.6,2.7-5.2,4.2l0,0c-1.6,1.6-3,3.3-4.2,5.1c-1.2,1.8-2.3,3.8-3.1,5.8
	l0,0c-0.8,2-1.5,4.1-1.9,6.3c-0.4,2.1-0.6,4.4-0.6,6.6s0.2,4.5,0.6,6.6c0.4,2.2,1.1,4.3,1.9,6.3l0,0.1c0.8,2,1.9,4,3.1,5.8
	C19.1,59.1,19.8,60.1,20.6,61L20.6,61z M51.7,5.8c0.5,0.1,1.1,0.2,1.6,0.3c2.2,0.4,4.3,1.1,6.2,1.9l0.1,0c2.1,0.9,4,1.9,5.9,3.1
	c1.4,1,2.8,2.1,4.1,3.2L61.8,14c-0.2,0-0.3,0-0.5,0c-1,0.2-1.7,1.2-1.5,2.2l0.8,4.3l-4.8,4.9c-0.3,0.3-0.5,0.8-0.5,1.3L55,31.2
	l-4.9,6c-0.2,0.3-0.4,0.6-0.5,1c-0.1,1,0.6,2,1.7,2.1l6.8,0.7c0.7,0.1,1.5-0.2,1.9-0.9l1.3-2.2l2.6,2.1c0.2,0.2,0.5,0.4,0.8,0.4
	l4.3,1l-9,2.7l-0.2,0.1l-8.8,2.9l0,0c-0.5,0.2-0.9,0.5-1.1,1.1l-3.8,9l0,0.1c-0.4,1,0,2.1,1,2.5L60,65.7l-0.1,4.8l-0.3,0.1
	c-2,0.8-4.1,1.5-6.3,1.9c-2.1,0.4-4.4,0.6-6.6,0.6c-2.3,0-4.5-0.2-6.6-0.6c-2.2-0.4-4.3-1.1-6.2-1.9l-0.1,0c-2.1-0.9-4-1.9-5.9-3.1
	c-1.7-1.1-3.3-2.4-4.7-3.8l7-7.3c0.5-0.6,0.7-1.4,0.4-2.1l-5.8-15.1c-0.1-0.4-0.4-0.7-0.7-0.9l-3.2-2.1l1-7.6l15-3.7
	c0.8-0.2,1.4-0.9,1.4-1.7l0.7-9.6l1.6-0.2l0.8,2.9c0.3,1,1.3,1.6,2.3,1.3c0.1,0,0.2-0.1,0.3-0.1l6-2.2c0.7-0.3,1.2-0.9,1.2-1.6h0
	L51.7,5.8L51.7,5.8z M63.7,68.6c0.6-0.3,1.2-0.7,1.7-1.1c1.8-1.2,3.6-2.7,5.1-4.2l0,0c1.6-1.6,3-3.3,4.2-5.1
	c1.2-1.8,2.3-3.8,3.1-5.8c0.8-2,1.5-4.1,1.9-6.3c0.4-2.1,0.6-4.4,0.6-6.6s-0.2-4.5-0.6-6.6c-0.4-2.2-1.1-4.3-1.9-6.3
	c-0.9-2.1-1.9-4-3.1-5.9c-0.5-0.8-1-1.5-1.6-2.2l-9.4-0.5l0.5,2.9c0.1,0.6-0.1,1.2-0.5,1.6l-4.9,5L58.7,32c0,0.4-0.2,0.8-0.4,1.1
	L55.2,37l2.3,0.2l1.8-2.9c0.1-0.1,0.1-0.2,0.2-0.3c0.7-0.8,1.9-0.9,2.7-0.3l4,3.3l5.9,1.4c0.9,0.2,1.5,1.1,1.5,2l-0.2,2.7l0,0
	c-0.1,0.7-0.6,1.4-1.3,1.7L61.2,48l-8.1,2.7l-2.8,6.6l12.4,5.4l0,0c0.7,0.3,1.1,1,1.1,1.7L63.7,68.6L63.7,68.6z M67.6,8
	c2.1,1.4,4,3,5.7,4.7l0,0c1.7,1.7,3.3,3.7,4.7,5.7c1.4,2,2.5,4.2,3.5,6.5v0c0.9,2.3,1.7,4.6,2.1,7c0.5,2.4,0.7,4.8,0.7,7.4
	s-0.2,5-0.7,7.4c-0.5,2.4-1.2,4.8-2.1,7c-0.9,2.3-2.1,4.5-3.5,6.5c-1.4,2.1-2.9,4-4.7,5.7l0,0c-1.7,1.7-3.7,3.3-5.7,4.7
	c-2,1.4-4.2,2.5-6.5,3.5h0c-2.3,0.9-4.6,1.7-7,2.1c-2.4,0.5-4.8,0.7-7.4,0.7c-2.5,0-5-0.2-7.4-0.7c-2.4-0.5-4.7-1.2-7-2.1l-0.1,0
	c-2.3-0.9-4.5-2.1-6.5-3.5c-2.1-1.4-4-3-5.7-4.7c-1.7-1.7-3.3-3.7-4.7-5.7c-1.3-2-2.5-4.2-3.4-6.4l0-0.1c-0.9-2.3-1.7-4.6-2.1-7.1
	C9.2,44.3,9,41.9,9,39.4s0.2-5,0.7-7.4c0.5-2.4,1.2-4.8,2.1-7.1c0.9-2.3,2.1-4.5,3.5-6.5c1.4-2.1,3-4,4.7-5.7h0
	c1.7-1.7,3.7-3.3,5.7-4.7c2-1.4,4.2-2.5,6.5-3.5h0c2.3-0.9,4.6-1.7,7-2.1c2.4-0.5,4.8-0.7,7.3-0.7c2.5,0,5,0.2,7.4,0.7
	c2.4,0.5,4.7,1.2,7,2.1l0.1,0C63.3,5.5,65.5,6.7,67.6,8z"/>
</svg>
