<svg xmlns="http://www.w3.org/2000/svg" width="90" height="78.7" viewBox="0 0 90 78.7"><defs><style>.cls-1{fill:#9a1c1f;fill-rule:evenodd;***REMOVED***.cls-2{fill:none;***REMOVED***</style></defs><g id="Layer_2" data-name="Layer 2"><g id="Layer_1-2" data-name="Layer 1"><path id="Path_6415" data-name="Path 6415" class="cls-1" d="M47.8,12.5H42.2v3.3h5.6V12.5Zm-9.4-1.9L31.8,5.2a2,2,0,0,1-.3-2.7h0A2.13,2.13,0,0,1,33,1.8H57a2,2,0,0,1,1.9,1.9,2.09,2.09,0,0,1-.8,1.6l-6.5,5.3v6.8A54.36,54.36,0,0,1,69.8,42a33.91,33.91,0,0,1,2.1,16.1,19.79,19.79,0,0,1-7.3,13.2c-4.2,3.3-10.3,5.4-18.7,5.6H44.1c-8.4-.2-14.5-2.3-18.7-5.6a19.57,19.57,0,0,1-7.3-13.2A34.07,34.07,0,0,1,20.2,42,54.36,54.36,0,0,1,38.4,17.4V10.6Zm9.5-1.9,3.8-3.1H38.3l3.8,3.1Zm.3,10.9H41.8a50.07,50.07,0,0,0-18,23.6,30.51,30.51,0,0,0-1.9,14.3,16,16,0,0,0,5.9,10.7c3.6,2.8,9,4.6,16.4,4.8h1.6c7.5-.2,12.8-2,16.4-4.8a16,16,0,0,0,5.9-10.7,30.17,30.17,0,0,0-1.9-14.3,50.07,50.07,0,0,0-18-23.6Zm1.55,28.3H54.5V57a13.17,13.17,0,0,1-3.61,1.9,15.79,15.79,0,0,1-4.15.89v3.53H43.53v-3.6a12.43,12.43,0,0,1-5.38-1.94,10.93,10.93,0,0,1-3.67-4,12.12,12.12,0,0,1,0-11,11.06,11.06,0,0,1,3.67-4.05,12.44,12.44,0,0,1,5.38-1.95v-3.6h3.21v3.5a13,13,0,0,1,4.63,1.17,10.68,10.68,0,0,1,3.55,2.68L51.58,43.6a7.66,7.66,0,0,0-4.84-2.47V55.38a8.51,8.51,0,0,0,3-.9Zm-9.94,4.77a6.67,6.67,0,0,0,3.72,2.48V41.36a6.7,6.7,0,0,0-3.72,2.47,7.77,7.77,0,0,0,0,8.84Z"/><rect class="cls-2" width="90" height="78.7"/></g></g></svg>