<?xml version="1.0" encoding="utf-8"?>
<!-- Generator: Adobe Illustrator 25.4.1, SVG Export Plug-In . SVG Version: 6.00 Build 0)  -->
<svg version="1.1" id="Layer_1" xmlns="http://www.w3.org/2000/svg" xmlns:xlink="http://www.w3.org/1999/xlink" x="0px" y="0px"
	 viewBox="0 0 90 59.9" style="enable-background:new 0 0 90 59.9;" xml:space="preserve">
<style type="text/css">
	.st0{fill-rule:evenodd;clip-rule:evenodd;fill:#10487A;}
</style>
<path class="st0" d="M21.1,24h4.5l3.5-8.9c0.3-0.8,1.2-1.2,2-0.9c0.5,0.2,0.8,0.6,0.9,1.1L36,30.9l3.9-11c0.3-0.8,1.1-1.2,1.9-0.9
	c0.5,0.2,0.8,0.5,0.9,1l1.4,4h10.8V9.1H21.1V24L21.1,24z M54.9,27v3.6c-1.4-0.5-2.9-0.6-4.4-0.4c-1.6,0.2-3.1,0.7-4.4,1.6
	c-2.6,1.7-4.5,4.8-4.5,8.9c0,0.8,0.1,1.5,0.3,2.2H21.1V27h5.6c0.7,0,1.2-0.4,1.4-1l2.2-5.5l4,16c0.2,0.8,1,1.3,1.8,1.1
	c0.5-0.1,0.9-0.5,1.1-1L41.3,25l0.3,0.9c0.2,0.6,0.8,1,1.4,1H54.9L54.9,27z M55.6,34.3c0,0-0.1-0.1-0.1-0.1
	c-0.4-0.3-0.9-0.5-1.4-0.7c-1-0.4-2.2-0.5-3.3-0.4c-1.1,0.1-2.2,0.5-3.1,1.1c-1.8,1.2-3.2,3.4-3.2,6.4c0,1,0.3,1.9,0.7,2.9
	c0.1,0.1,0.1,0.2,0.2,0.3c2.1,4,7.6,7.8,11.9,10.8c0.9,0.6,1.7,1.2,2.5,1.8c0.8-0.6,1.6-1.2,2.5-1.8c5.5-3.8,12.8-9,12.8-14
	c0-3-1.3-5.2-3.2-6.4c-0.9-0.6-2-1-3.1-1.1c-1.1-0.1-2.2,0-3.3,0.4c-2,0.7-3.7,2.5-4.3,5.3c-0.2,0.8-1,1.3-1.8,1.1
	c-0.6-0.1-1-0.6-1.1-1.2C57.9,36.7,56.9,35.2,55.6,34.3L55.6,34.3z M43.1,45.9c0.7,1.1,1.5,2.1,2.4,3.2l-28.7,0v0
	c-0.6,0-1.1-0.2-1.5-0.6c-0.4-0.4-0.6-0.9-0.6-1.5V5.2c0-0.6,0.2-1.1,0.6-1.5c0.4-0.4,0.9-0.6,1.5-0.6h41.8c0.6,0,1.1,0.2,1.5,0.6
	c0.4,0.4,0.6,0.9,0.6,1.5v28c-0.3,0.4-0.7,0.8-0.9,1.3c-0.6-0.9-1.3-1.7-2-2.3v-6.8V7.6c0-0.8-0.7-1.5-1.5-1.5H19.5
	C18.7,6,18,6.7,18,7.6v17.9v18.9c0,0.8,0.7,1.5,1.5,1.5H43.1L43.1,45.9z M48.8,52.1l-31.9,0v0c-1.4,0-2.7-0.6-3.7-1.5
	c-0.9-0.9-1.5-2.2-1.5-3.7V5.2c0-1.4,0.6-2.7,1.5-3.7C14.2,0.6,15.5,0,16.9,0h41.8c1.4,0,2.7,0.6,3.7,1.5c0.9,0.9,1.5,2.2,1.5,3.7
	V31c0.3-0.1,0.5-0.2,0.8-0.3c1.5-0.6,3.1-0.7,4.7-0.6c1.6,0.2,3.1,0.7,4.4,1.6c2.6,1.7,4.5,4.8,4.5,8.9c0,6.6-8.1,12.3-14.1,16.5
	c-1.2,0.9-2.4,1.7-3.3,2.4c-0.5,0.4-1.3,0.4-1.8,0c-0.9-0.7-2.1-1.5-3.3-2.4C53.5,55.6,51,53.9,48.8,52.1z"/>
</svg>
