<?xml version="1.0" encoding="utf-8"?>
<!-- Generator: Adobe Illustrator 25.4.1, SVG Export Plug-In . SVG Version: 6.00 Build 0)  -->
<svg version="1.1" id="Layer_1" xmlns="http://www.w3.org/2000/svg" xmlns:xlink="http://www.w3.org/1999/xlink" x="0px" y="0px"
	 width="90px" height="59.9px" viewBox="0 0 90 59.9" style="enable-background:new 0 0 90 59.9;" xml:space="preserve">
<style type="text/css">
	.st0{fill-rule:evenodd;clip-rule:evenodd;fill:#9A1218;}
</style>
<path id="Path_6439" class="st0" d="M46.7,57.2c0,1-0.7,1.7-1.7,1.8c-1,0-1.7-0.7-1.8-1.7c0,0,0,0,0-0.1v-3.1H14.2
	c-0.9,0-1.7-0.8-1.7-1.7c0,0,0,0,0,0V10.7h-1c-1,0-1.7-0.8-1.7-1.7V2.7c0-1,0.8-1.7,1.7-1.7h67.1c1,0,1.7,0.8,1.7,1.7V9
	c0,1-0.8,1.7-1.7,1.7h-1v41.7c0,1-0.8,1.7-1.7,1.7c0,0,0,0,0,0H46.7V57.2L46.7,57.2z M15.9,10.7v39.9h58.2V10.7L15.9,10.7z
	 M76.8,7.3V4.4H13.2v2.9H76.8L76.8,7.3z M66.8,16.6L48.7,32.6l-8.9-7.8c-0.7-0.6-1.6-0.6-2.3,0l-17,14.9c-0.7,0.6-0.8,1.7-0.1,2.4
	c0.6,0.7,1.7,0.8,2.4,0.2l15.9-13.9l8.9,7.8c0.6,0.6,1.6,0.6,2.3,0l19.3-16.9c0.7-0.6,0.8-1.7,0.1-2.4C68.6,16.1,67.5,16,66.8,16.6
	L66.8,16.6z"/>
</svg>
