<?xml version="1.0" encoding="utf-8"?>
<!-- Generator: Adobe Illustrator 25.4.1, SVG Export Plug-In . SVG Version: 6.00 Build 0)  -->
<svg version="1.1" id="Layer_1" xmlns="http://www.w3.org/2000/svg" xmlns:xlink="http://www.w3.org/1999/xlink" x="0px" y="0px"
	 width="93.3px" height="78.7px" viewBox="0 0 93.3 78.7" style="enable-background:new 0 0 93.3 78.7;" xml:space="preserve">
<style type="text/css">
	.st0{fill-rule:evenodd;clip-rule:evenodd;fill:#10487A;***REMOVED***
	.st1{fill-rule:evenodd;clip-rule:evenodd;fill:#9A1C1F;***REMOVED***
</style>
<path id="Path_6436" class="st0" d="M168.1-43.2h-10.3l-5,14.8h20.2L168.1-43.2L168.1-43.2z M193.2-5.9H183l-5,14.8h20.2L193.2-5.9z
	 M189.7-9.7h4.5c0.8,0,1.5,0.4,2,1c0.2,0.3,0.4,0.6,0.5,1c0.5,1.4,4.8,13.9,5.6,16.7h3.1c1.1,0,2,0.8,2,1.9c0,1.1-0.8,2-1.9,2
	c0,0-0.1,0-0.1,0h-84.8c-1.1,0-1.9-0.9-1.9-2c0-1,0.9-1.9,1.9-1.9h3.1l5.6-16.6c0.1-0.4,0.3-0.8,0.5-1.1c0.5-0.7,1.2-1,2-1h4.5
	l5.6-16.6c0.1-0.4,0.3-0.8,0.5-1.1c0.5-0.6,1.2-1,2-1h4.5l5.6-16.6c0.1-0.4,0.3-0.8,0.5-1.1c0.5-0.7,1.2-1,2-1h12.2
	c0.8,0,1.5,0.4,2,1v0c0.2,0.3,0.4,0.6,0.5,1c0.5,1.4,4.8,13.9,5.6,16.7h4.4c0.8,0,1.5,0.4,2,1c0.2,0.3,0.4,0.7,0.5,1.1L189.7-9.7
	L189.7-9.7z M175.6,4.1l-3.3-9.9h6.7L175.6,4.1L175.6,4.1z M150.5,4l3.3-9.8h-6.6C148-3.5,149.3,0.6,150.5,4L150.5,4z M163.7-5.9
	h-5.8l-5,14.8h20.2l-5-14.8H163.7z M138.6-5.9h-5.8l-5,14.8H148l-5-14.8H138.6L138.6-5.9z M163-14.7l3.3-9.8h-6.6
	C160.5-22.1,161.9-18.1,163-14.7L163-14.7z M180.7-24.5h-10.3l-5,14.8h20.2L180.7-24.5z M151.1-24.5h-5.8l-5,14.8h20.2l-5-14.8
	H151.1z"/>
<path id="Path_6439" class="st0" d="M82-28.4c0,1.1-0.9,1.9-1.9,1.9H18.4c-1.1,0-1.9-0.9-1.9-1.9c0,0,0,0,0,0v-3h-1.6
	c-0.2,0-0.4,0-0.6,0.1c-0.2,0.1-0.4,0.3-0.5,0.4c-0.2,0.2-0.3,0.5-0.4,0.7l0,0c-0.1,0.3-0.1,0.6-0.1,0.9l1.1,16.9
	c0,0.5,0.2,1,0.6,1.4c0.3,0.3,0.6,0.5,1,0.5h65.6c0.2,0,0.5-0.1,0.7-0.2c0.3-0.2,0.5-0.5,0.7-0.8l11.4-20H82V-28.4L82-28.4z
	 M68.3-40.1v-6h-16v6L68.3-40.1L68.3-40.1z M48.5-40.1V-48c0-1.1,0.9-1.9,1.9-1.9c0,0,0,0,0,0h19.8c1.1,0,1.9,0.9,1.9,1.9v7.9h8
	c1.1,0,1.9,0.9,1.9,1.9c0,0,0,0,0,0v3h15.6c1.1,0,1.9,0.9,1.9,1.9c0,0.3-0.1,0.7-0.2,0.9l-13,22.8c-0.5,0.9-1.1,1.6-2,2.1
	c-0.8,0.5-1.8,0.8-2.8,0.8H16c-1.4,0-2.8-0.6-3.8-1.7c-1-1-1.6-2.4-1.6-3.8L9.4-29c0-0.8,0-1.5,0.3-2.3c0.2-0.7,0.6-1.4,1.1-2
	c0.5-0.6,1.1-1.1,1.8-1.4c0.7-0.3,1.5-0.5,2.2-0.5h1.6v-8.5c0-1.1,0.9-1.9,1.9-1.9c0,0,0,0,0,0h8.5v-11c0-1.1,0.9-1.9,1.9-1.9h11.7
	c1.1,0,1.9,0.9,1.9,1.9v16.5L48.5-40.1z M62.2-36.3h16v6h-16V-36.3z M42.4-36.3h16v6h-16L42.4-36.3L42.4-36.3z M26.9-41.8v11.5h-6.6
	v-11.5H26.9z M30.7-30.3v-24.4h7.8v24.4L30.7-30.3z"/>
<path id="Path_6440" class="st0" d="M163.8,70.9c0.9,0,1.8,0.4,2.5,1.1l0.1,0.1c0.6,0.7,0.9,1.5,0.9,2.4c0,0.9-0.4,1.8-1.1,2.5l0,0
	c-1.4,1.4-3.7,1.4-5.1,0c-0.7-0.7-1-1.6-1-2.5c0-0.9,0.4-1.9,1.1-2.5l0.1-0.1C162,71.2,162.9,70.9,163.8,70.9L163.8,70.9z
	 M189.9,65.2c3.8,0,6.8,3.1,6.8,6.8c0,1.7-0.6,3.3-1.8,4.6c0.7,0.4,1.3,0.9,1.9,1.5c1.3,1.3,2.2,3,2.6,4.8c4.4-5,4.1-12.5-0.6-17.2
	v0c-4.9-4.9-12.9-4.9-17.8,0c0,0,0,0,0,0c-1.2,1.2-2.1,2.6-2.7,4.1c-1.3,3.1-1.3,6.6,0,9.7c0.5,1.3,1.3,2.4,2.2,3.5
	c0.4-1.8,1.3-3.5,2.6-4.8h0c0.6-0.6,1.2-1.1,1.9-1.5c-2.5-2.8-2.4-7,0.4-9.6C186.6,65.8,188.2,65.2,189.9,65.2L189.9,65.2z
	 M192.2,69.7c1.3,1.3,1.3,3.3,0,4.5c-0.6,0.6-1.4,0.9-2.3,0.9l0,0c-0.9,0-1.7-0.3-2.3-0.9c-1.3-1.3-1.3-3.3,0-4.6c0,0,0,0,0,0
	C188.9,68.4,190.9,68.4,192.2,69.7L192.2,69.7z M183.8,84.9c0-1.6,0.6-3.2,1.8-4.3h0c1.2-1.2,2.7-1.8,4.3-1.8l0,0
	c3.4,0,6.1,2.8,6.1,6.1c0,0.2,0,0.4,0.1,0.6c-0.5,0.3-0.9,0.5-1.4,0.7c-3.1,1.3-6.6,1.3-9.7,0c-0.5-0.2-1-0.4-1.4-0.7
	C183.7,85.3,183.8,85.1,183.8,84.9L183.8,84.9z M196.1,59.6c2,0.8,3.7,2,5.2,3.5v0c6.3,6.3,6.3,16.5,0,22.8
	c-4.6,4.6-11.6,6-17.6,3.5c-1.9-0.8-3.7-2-5.1-3.4l-0.1-0.1c-6.3-6.3-6.3-16.5,0-22.8c0,0,0,0,0,0l0,0
	C183.1,58.5,190.1,57.1,196.1,59.6L196.1,59.6z M213.9,61.9c-1,0-1.8-0.8-1.8-1.8c0-1,0.8-1.8,1.8-1.8c0,0,0,0,0,0h4.4
	c1,0,1.8,0.8,1.8,1.8c0,1-0.8,1.8-1.8,1.8c0,0,0,0,0,0H213.9z M218.3,87.1c1,0,1.8,0.8,1.8,1.8c0,1-0.8,1.8-1.8,1.8c0,0,0,0,0,0
	h-4.4c-1,0-1.8-0.8-1.8-1.8c0-1,0.8-1.8,1.8-1.8c0,0,0,0,0,0H218.3z M161.5,61.9c-1,0-1.8-0.8-1.8-1.8c0-1,0.8-1.8,1.8-1.8
	c0,0,0,0,0,0h4.4c1,0,1.8,0.8,1.8,1.8c0,1-0.8,1.8-1.8,1.8H161.5z M165.9,87.1c1,0,1.8,0.8,1.8,1.8c0,1-0.8,1.8-1.8,1.8h-4.4
	c-1,0-1.8-0.8-1.8-1.8c0-1,0.8-1.8,1.8-1.8c0,0,0,0,0,0H165.9z M154.1,50.9c-1,0-1.9,0.4-2.6,1.1c-0.7,0.7-1.1,1.6-1.1,2.6v39.7
	c0,1,0.4,1.9,1.1,2.6c0.7,0.7,1.6,1.1,2.6,1.1h71.5c1,0,1.9-0.4,2.6-1.1c0.7-0.7,1.1-1.6,1.1-2.6V54.7c0-1-0.4-1.9-1.1-2.6
	c-0.7-0.7-1.6-1.1-2.6-1.1L154.1,50.9z M225.7,54.5h-71.5l-0.1,0c0,0-0.1,0.1,0,0.1v39.7c0,0,0,0.1,0,0.1l0.1,0h71.5l0.1,0
	c0,0,0-0.1,0-0.1V54.7C225.8,54.6,225.8,54.6,225.7,54.5L225.7,54.5z M216.1,70.9c0.9,0,1.8,0.4,2.5,1.1h0c1.4,1.4,1.4,3.6,0,5
	l-0.1,0.1c-1.5,1.3-3.7,1.2-5-0.3c-1.3-1.4-1.2-3.6,0.1-4.9l0,0C214.2,71.3,215.1,70.9,216.1,70.9L216.1,70.9z"/>
<path id="Path_6415" class="st1" d="M-48.1,21.1h-5.6v3.3h5.6L-48.1,21.1L-48.1,21.1z M-57.5,19.2l-6.6-5.4
	c-0.8-0.7-0.9-1.8-0.3-2.7c0,0,0,0,0,0c0.4-0.4,0.9-0.7,1.5-0.7h24.1c1,0,1.9,0.9,1.9,1.9c0,0.6-0.3,1.2-0.8,1.6l-6.5,5.3V26
	c8.3,6.3,14.6,14.8,18.2,24.6c2,5.1,2.7,10.6,2.1,16.1c-0.6,5.2-3.2,9.9-7.3,13.2c-4.2,3.3-10.3,5.4-18.7,5.6l-0.9,0l-0.9,0
	c-8.4-0.2-14.5-2.3-18.7-5.6c-4.1-3.2-6.7-8-7.3-13.2c-0.6-5.4,0.1-11,2.1-16.1c3.6-9.8,9.9-18.3,18.2-24.6L-57.5,19.2L-57.5,19.2z
	 M-48,17.3l3.8-3.1h-13.4l3.8,3.1H-48z M-47.7,28.2h-6.4c-8.3,5.9-14.5,14.1-18,23.6c-1.8,4.6-2.4,9.5-1.9,14.3
	c0.5,4.2,2.6,8.1,5.9,10.7c3.6,2.8,9,4.6,16.4,4.8h1.6c7.5-0.2,12.8-2,16.4-4.8c3.3-2.6,5.4-6.5,5.9-10.7c0.5-4.9-0.1-9.8-1.9-14.3
	C-33.1,42.3-39.4,34-47.7,28.2L-47.7,28.2z M-52.8,40.7v2.7h-3.1c-1.1,0-2.1,0.4-2.8,1.2v0c-0.7,0.8-1.2,1.8-1.2,2.8v5.8
	c0,1.1,0.4,2.1,1.2,2.8l0,0c0.8,0.8,1.8,1.2,2.8,1.2h3.1v6.2H-58c-1,0-1.9,0.9-1.9,1.9c0,1,0.9,1.9,1.9,1.9l0,0h5.3v2.7
	c0,1.1,0.9,1.9,1.9,1.9c1.1,0,1.9-0.9,1.9-1.9v-2.7h3.1c1.1,0,2.1-0.4,2.8-1.2h0c0.8-0.8,1.2-1.8,1.2-2.8v-5.8c0-2.2-1.8-4-4-4
	c0,0,0,0,0,0H-49v-6.2h4.1c1,0,1.9-0.9,1.9-1.9c0-1-0.9-1.9-1.9-1.9H-49v-2.7c0-1.1-0.9-1.9-1.9-1.9S-52.8,39.6-52.8,40.7
	L-52.8,40.7z M-49,57.2v6.2h3.1c0.1,0,0.1,0,0.1-0.1l0,0c0,0,0.1-0.1,0.1-0.1v-5.8c0-0.1-0.1-0.2-0.2-0.2c0,0,0,0,0,0L-49,57.2z
	 M-52.8,53.4v-6.2h-3.1c-0.1,0-0.1,0-0.2,0.1l0,0c0,0-0.1,0.1-0.1,0.1v5.8c0,0.1,0.1,0.2,0.2,0.2c0,0,0,0,0,0L-52.8,53.4z"/>
<path id="Path_6417" class="st1" d="M11.4,120.9c-13.6,0-24.7,11.1-24.7,24.7c0,13.6,11.1,24.7,24.7,24.7s24.7-11.1,24.7-24.7
	c0-6.5-2.6-12.8-7.2-17.5C24.2,123.5,18,120.9,11.4,120.9z M3.6,118.5v-10.7c0-1,0.8-1.7,1.7-1.7h50.3c1,0,1.7,0.8,1.7,1.7v13.9l0,0
	v41.8c0,1-0.8,1.7-1.7,1.7l0,0h-24l-0.2,0.2c-11,11-28.8,11-39.8,0c-11-11-11-28.8,0-39.8C-5.1,122.3-1,119.8,3.6,118.5L3.6,118.5z
	 M34.4,161.7c2.2-3.1,3.8-6.7,4.5-10.5h14.9v10.5H34.4z M39.5,147.8h14.4v-10.5H38.3c0.8,2.7,1.2,5.4,1.2,8.2
	C39.5,146.3,39.5,147.1,39.5,147.8L39.5,147.8z M37,133.9c-1.9-4.1-4.7-7.7-8.2-10.5h25v10.5H37z M23.2,120h30.6v-10.5H7v8.2
	c1.5-0.2,2.9-0.3,4.4-0.3C15.5,117.4,19.5,118.3,23.2,120L23.2,120z M9.7,128.8c0-1,0.8-1.7,1.7-1.7s1.7,0.8,1.7,1.7v1.7h6.1
	c1,0,1.7,0.8,1.7,1.7c0,1-0.8,1.7-1.7,1.7h-6.1v9.8h3.4c1.6,0,3.1,0.6,4.2,1.7l0.1,0.1c1.2,1.1,1.8,2.7,1.8,4.3v4.4
	c0,1.6-0.7,3.2-1.8,4.3v0c-1.2,1.2-2.7,1.8-4.3,1.8h-3.4v1.7c0,1-0.8,1.7-1.7,1.7s-1.7-0.8-1.7-1.7l0,0v-1.7H1.9
	c-1,0-1.7-0.8-1.7-1.7c0-1,0.8-1.7,1.7-1.7h7.8v-9.8H6.3c-3.4,0-6.2-2.8-6.2-6.2v-4.4c0-3.4,2.7-6.2,6.1-6.2c0,0,0,0,0,0h3.3
	L9.7,128.8L9.7,128.8z M13.1,147.3h3.4c0.7,0,1.3,0.3,1.8,0.7l0.1,0.1c0.5,0.5,0.8,1.2,0.8,1.9v4.4c0,1.5-1.2,2.7-2.7,2.7
	c0,0,0,0,0,0h-3.4L13.1,147.3L13.1,147.3z M9.7,143.8H6.3c-1.5,0-2.7-1.2-2.7-2.7v-4.4c0-1.5,1.2-2.7,2.7-2.7h3.3V143.8z"/>
<path id="Path_6419" class="st1" d="M51.9,12.8H41.4l-5.1,15.1H57L51.9,12.8L51.9,12.8z M77.5,50.9H67L62,66h20.6L77.5,50.9
	L77.5,50.9z M74,46.9h4.6c0.8,0,1.6,0.4,2,1c0.2,0.3,0.4,0.6,0.5,1c0.5,1.4,4.9,14.1,5.7,17h3.1c1.1,0,2,0.9,2,2s-0.9,2-2,2H3.4
	c-1.1,0-2-0.9-2-2s0.9-2,2-2h3.2l5.7-16.9c0.1-0.4,0.3-0.8,0.6-1.1c0.5-0.7,1.2-1.1,2-1h4.6L25,30c0.1-0.4,0.3-0.8,0.6-1.1
	c0.5-0.7,1.2-1.1,2-1h4.6l5.7-16.9c0.1-0.4,0.3-0.8,0.6-1.1c0.5-0.7,1.2-1.1,2-1.1h12.4c0.8,0,1.6,0.4,2,1v0c0.2,0.3,0.4,0.6,0.5,1
	c0.5,1.4,4.9,14.1,5.7,17h4.5c0.8,0,1.6,0.4,2,1.1c0.2,0.3,0.4,0.7,0.6,1.1L74,46.9L74,46.9z M59.5,61l-3.4-10.1h6.8L59.5,61
	L59.5,61z M33.9,60.9l3.4-10h-6.8C31.3,53.3,32.7,57.5,33.9,60.9L33.9,60.9z M47.4,50.9h-6L36.3,66H57l-5.1-15.1H47.4L47.4,50.9z
	 M21.7,50.9h-6L10.7,66h20.6l-5.1-15.1H21.7L21.7,50.9z M46.7,41.9l3.4-10h-6.8C44.1,34.3,45.5,38.4,46.7,41.9L46.7,41.9z
	 M64.7,31.8H54.2l-5.1,15.1h20.6L64.7,31.8L64.7,31.8z M34.5,31.8h-6l-5.1,15.1h20.6l-5.1-15.1H34.5L34.5,31.8z"/>
</svg>
