<?xml version="1.0" encoding="utf-8"?>
<!-- Generator: Adobe Illustrator 25.4.1, SVG Export Plug-In . SVG Version: 6.00 Build 0)  -->
<svg version="1.1" id="Layer_1" xmlns="http://www.w3.org/2000/svg" xmlns:xlink="http://www.w3.org/1999/xlink" x="0px" y="0px"
	 width="90px" height="59.9px" viewBox="0 0 90 59.9" style="enable-background:new 0 0 90 59.9;" xml:space="preserve">
<style type="text/css">
	.st0{fill-rule:evenodd;clip-rule:evenodd;fill:#10487A;}
</style>
<path class="st0" d="M17,47.7L17,47.7L17,47.7L17,47.7c0,1.9,0.7,3.6,1.9,4.8l0.1,0.1c1.2,1.1,2.8,1.9,4.6,1.9
	c1.8,0,3.5-0.7,4.7-1.9l0,0c1.2-1.2,1.9-2.9,1.9-4.7l0,0v0v0v0v0c0-1.8-0.8-3.4-1.9-4.6c-1.2-1.2-2.9-1.9-4.7-1.9
	c-1.8,0-3.5,0.7-4.7,1.9v0C17.8,44.2,17.1,45.9,17,47.7L17,47.7z M29,8.9c-0.9-0.5-1.2-1.7-0.7-2.5c0.5-0.9,1.7-1.2,2.5-0.7l0.9,0.5
	c0.9,0.5,1.2,1.7,0.7,2.5s-1.7,1.2-2.5,0.7L29,8.9L29,8.9z M41.7,5.7c0.9-0.5,2-0.2,2.5,0.7c0.5,0.9,0.2,2-0.7,2.5l-0.8,0.5
	c-0.9,0.5-2,0.2-2.5-0.7c-0.5-0.9-0.2-2,0.7-2.5L41.7,5.7L41.7,5.7z M34.4,3.6c0-1,0.8-1.9,1.9-1.9s1.9,0.8,1.9,1.9v1
	c0,1-0.8,1.9-1.9,1.9s-1.9-0.8-1.9-1.9V3.6L34.4,3.6z M14.2,34.5H7.1V32l6-0.5h23.2h31.5c0.1,0,0.2,0,0.2,0c0.3,0.1,0.6,0.1,0.9,0.1
	l13.7,0.9c0.1,0,0.1,0,0.1,0.1c0,0,0.1,0.1,0.1,0.2v1.8h-2.8c-1,0-1.9,0.8-1.9,1.9c0,1,0.8,1.9,1.9,1.9h4.1v7.3c0,0.1,0,0.1-0.1,0.2
	c0,0-0.1,0.1-0.2,0.1h-2.2c-0.4-2.1-1.4-3.9-2.9-5.4c-1.9-1.9-4.5-3-7.3-3c-2.9,0-5.5,1.2-7.3,3c-1.4,1.4-2.5,3.3-2.9,5.4H33.9
	c-0.4-2.1-1.4-3.9-2.9-5.4l0,0c-1.9-1.9-4.5-3-7.3-3c-2.9,0-5.4,1.2-7.3,3l0,0c-1.4,1.4-2.5,3.3-2.9,5.4H8.1c-0.6,0-1.2-0.3-1.6-0.7
	c-0.4-0.4-0.7-1-0.7-1.6v-5.3h8.5c1,0,1.9-0.8,1.9-1.9C16.1,35.3,15.3,34.5,14.2,34.5L14.2,34.5z M61,34.5H33.1
	c-1,0-1.9,0.8-1.9,1.9c0,1,0.8,1.9,1.9,1.9H61c1,0,1.9-0.8,1.9-1.9C62.8,35.3,62,34.5,61,34.5L61,34.5z M71.6,44c-1,0-2,0.4-2.7,1.1
	c-0.7,0.7-1.1,1.6-1.1,2.6c0,1,0.4,2,1.1,2.6c0.7,0.7,1.6,1.1,2.7,1.1c1,0,2-0.4,2.6-1.1c0.7-0.7,1.1-1.6,1.1-2.6c0-1-0.4-2-1.1-2.6
	l0,0C73.6,44.4,72.6,44,71.6,44L71.6,44z M71.6,47.7L71.6,47.7C71.6,47.8,71.6,47.8,71.6,47.7L71.6,47.7z M23.7,44
	c1,0,2,0.4,2.7,1.1l0.1,0.1c0.6,0.7,1,1.5,1,2.5c0,1-0.4,2-1.1,2.6c-0.7,0.7-1.6,1.1-2.7,1.1c-1,0-2-0.4-2.6-1.1
	c-0.7-0.7-1.1-1.6-1.1-2.6c0-1,0.4-2,1.1-2.6l0,0C21.7,44.4,22.7,44,23.7,44L23.7,44z M23.7,47.8C23.7,47.8,23.7,47.8,23.7,47.8
	L23.7,47.8L23.7,47.8L23.7,47.8z M34.4,11c0-1,0.8-1.9,1.9-1.9s1.9,0.8,1.9,1.9v1.5h13.5c1,0,1.8,0.2,2.6,0.6c0.8,0.4,1.4,0.9,2,1.6
	l11.1,12.2c0.3,0.3,0.6,0.5,0.9,0.7c0.3,0.1,0.6,0.2,0.9,0.3l13.7,0.9c1,0.1,2,0.5,2.6,1.3c0.7,0.7,1.1,1.7,1.1,2.7v1.9
	c0.8,0.2,1.3,0.9,1.3,1.8v9.2c0,1.1-0.4,2.1-1.2,2.8c-0.7,0.7-1.7,1.2-2.8,1.2h-2.2c-0.4,2.1-1.4,4.1-2.9,5.6c-1.9,1.9-4.5,3-7.3,3
	c-2.8,0-5.4-1.1-7.2-2.9l-0.1-0.1c-1.5-1.5-2.5-3.4-2.9-5.6H33.9c-0.4,2.1-1.4,4.1-2.9,5.5l0,0c-1.9,1.9-4.5,3-7.3,3
	c-2.8,0-5.4-1.1-7.2-2.9l-0.1-0.1c-1.5-1.5-2.5-3.4-2.9-5.6H8.1c-1.7,0-3.2-0.7-4.3-1.8c-1.1-1.1-1.8-2.6-1.8-4.3v-7.1l0,0v0v0v0
	l0,0l0,0v0l0,0l0,0l0,0v0l0,0l0,0l0,0l0,0l0,0l0,0l0,0l0,0v0l0,0v0l0,0l0,0l0,0l0,0l0,0l0,0l0,0l0,0l0,0l0,0l0,0l0,0l0,0l0,0l0,0
	l0,0l0,0l0,0l0,0l0,0l0,0l0,0l0,0l0,0l0,0l0,0l0,0l0,0l0,0l0,0l0,0l0,0l0,0l0,0l0,0l0,0l0,0l0,0l0,0l0,0l0,0l0,0l0,0l0,0l0,0l0,0
	l0,0l0,0l0,0l0,0l0,0l0,0l0,0l0,0l0,0l0,0l0,0l0,0l0,0l0,0l0,0l0,0l0,0l0,0l0,0l0,0l0,0l0,0l0,0h0l0,0l0,0l0,0l0,0l0,0l0,0l0,0l0,0
	l0,0l0,0h0l0,0l0,0l0,0l0,0l0,0l0,0l0,0l0,0h0l0,0l0,0l0,0v-4.3c0-1,0.8-1.9,1.9-1.9l6.4-0.6L14.7,17c0.4-1.3,1.1-2.5,2.2-3.3
	c1-0.8,2.3-1.3,3.7-1.3h13.8V11L34.4,11z M38.2,16.2v11.5h25l-9.6-10.6c-0.3-0.3-0.6-0.6-0.9-0.7c-0.3-0.1-0.6-0.2-1-0.2H38.2
	L38.2,16.2z M34.4,27.7V16.2H20.6c-0.5,0-1,0.2-1.4,0.5c-0.4,0.3-0.7,0.8-0.9,1.4l-2.7,9.7H34.4L34.4,27.7z M78.2,47.7L78.2,47.7
	L78.2,47.7L78.2,47.7L78.2,47.7c0-1.9-0.8-3.5-1.9-4.6c-1.2-1.2-2.9-1.9-4.7-1.9c-1.8,0-3.5,0.7-4.7,1.9c-1.2,1.2-1.9,2.8-1.9,4.6v0
	l0,0v0c0,1.8,0.7,3.5,1.9,4.7l0.1,0.1c1.2,1.1,2.8,1.9,4.6,1.9c1.8,0,3.5-0.7,4.7-1.9C77.5,51.3,78.2,49.6,78.2,47.7L78.2,47.7z"/>
</svg>
