<?xml version="1.0" encoding="utf-8"?>
<!-- Generator: Adobe Illustrator 25.4.1, SVG Export Plug-In . SVG Version: 6.00 Build 0)  -->
<svg version="1.1" id="Layer_1" xmlns="http://www.w3.org/2000/svg" xmlns:xlink="http://www.w3.org/1999/xlink" x="0px" y="0px"
	 width="90px" height="59.9px" viewBox="0 0 90 59.9" style="enable-background:new 0 0 90 59.9;" xml:space="preserve">
<style type="text/css">
	.st0{fill-rule:evenodd;clip-rule:evenodd;fill:#10487A;}
</style>
<path class="st0" d="M36.8,11.4v37.2h8.3V11.4H36.8L36.8,11.4z M63.3,18.2c-0.9,0-1.7-0.7-1.7-1.7c0-0.9,0.7-1.7,1.7-1.7h4.1
	c0.9,0,1.7,0.7,1.7,1.7c0,0.9-0.7,1.7-1.7,1.7H63.3L63.3,18.2z M67.4,41.7c0.9,0,1.7,0.7,1.7,1.7c0,0.9-0.7,1.7-1.7,1.7h-4.1
	c-0.9,0-1.7-0.7-1.7-1.7c0-0.9,0.7-1.7,1.7-1.7H67.4L67.4,41.7z M14.6,18.2c-0.9,0-1.7-0.7-1.7-1.7c0-0.9,0.7-1.7,1.7-1.7h4.1
	c0.9,0,1.7,0.7,1.7,1.7c0,0.9-0.7,1.7-1.7,1.7H14.6L14.6,18.2z M18.7,41.7c0.9,0,1.7,0.7,1.7,1.7c0,0.9-0.7,1.7-1.7,1.7h-4.1
	c-0.9,0-1.7-0.7-1.7-1.7c0-0.9,0.7-1.7,1.7-1.7H18.7L18.7,41.7z M48.5,16.9c2.2,1.2,4,3,5.3,5.1c1.5,2.3,2.3,5.1,2.3,8
	s-0.8,5.7-2.3,8c-1.3,2.1-3.1,3.8-5.3,5.1v5.5h25.8h0.1v-0.1v-37v-0.1c0,0,0,0-0.1,0H48.5V16.9L48.5,16.9z M48.5,39V20.9
	c1,0.8,1.8,1.8,2.5,2.8c1.1,1.8,1.8,3.9,1.8,6.2s-0.7,4.4-1.8,6.2C50.3,37.3,49.5,38.2,48.5,39L48.5,39z M33.5,43
	c-2.1-1.2-4-3-5.3-5.1c-1.5-2.3-2.3-5.1-2.3-8s0.8-5.7,2.3-8c1.3-2.1,3.1-3.8,5.3-5.1v-5.5H7.7H7.6v0.1v36.9v0.1c0,0,0,0,0.1,0h25.8
	V43L33.5,43z M33.5,20.9V39c-1-0.8-1.8-1.8-2.5-2.8c-1.1-1.8-1.8-3.9-1.8-6.2s0.7-4.4,1.8-6.2C31.7,22.6,32.5,21.7,33.5,20.9
	L33.5,20.9z M7.7,8h27.5h11.7h27.5c0.9,0,1.8,0.4,2.4,1s1,1.5,1,2.4v36.9c0,0.9-0.4,1.8-1,2.4c-0.6,0.6-1.5,1-2.4,1H7.7
	c-0.9,0-1.8-0.4-2.4-1s-1-1.5-1-2.4V11.5c0-0.9,0.4-1.8,1-2.4C5.9,8.4,6.8,8,7.7,8L7.7,8z M65.3,26.6c0.9,0,1.7,0.4,2.3,1l0,0
	c0.6,0.6,1,1.4,1,2.3s-0.4,1.7-1,2.3l-0.1,0.1c-0.6,0.5-1.4,0.9-2.2,0.9c-0.9,0-1.7-0.4-2.3-1c-0.6-0.6-1-1.4-1-2.3s0.4-1.7,1-2.3
	l0,0C63.6,27,64.4,26.6,65.3,26.6L65.3,26.6z M16.7,26.6c0.9,0,1.7,0.4,2.3,1l0.1,0.1c0.5,0.6,0.9,1.4,0.9,2.2c0,0.9-0.4,1.7-1,2.3
	l0,0c-0.6,0.6-1.4,1-2.3,1s-1.7-0.4-2.3-1c-0.6-0.6-1-1.4-1-2.3s0.4-1.7,1-2.3l0.1-0.1C15,27,15.8,26.6,16.7,26.6z"/>
</svg>
