<?xml version="1.0" encoding="utf-8"?>
<!-- Generator: Adobe Illustrator 25.4.1, SVG Export Plug-In . SVG Version: 6.00 Build 0)  -->
<svg version="1.1" id="Layer_1" xmlns="http://www.w3.org/2000/svg" xmlns:xlink="http://www.w3.org/1999/xlink" x="0px" y="0px"
	 width="50px" height="36px" viewBox="0 0 50 36" style="enable-background:new 0 0 50 36;" xml:space="preserve">
<style type="text/css">
	.st0{fill-rule:evenodd;clip-rule:evenodd;fill:#2E3192;}
	.st1{fill-rule:evenodd;clip-rule:evenodd;fill:#FFFFFF;}
</style>
<path class="st0" d="M71.6,6c-2.4,0-4.5,1-6.1,2.5c-1.6,1.6-2.5,3.7-2.5,6.1c0,2.4,1,4.5,2.5,6.1c1.6,1.6,3.7,2.5,6.1,2.5
	c2.4,0,4.5-1,6.1-2.5c1.6-1.6,2.5-3.7,2.5-6.1c0-2.4-1-4.5-2.5-6.1C76.1,6.9,74,6,71.6,6L71.6,6z M71,16c-0.2,0.2-0.5,0.2-0.7,0
	c-0.2-0.2-0.2-0.5,0-0.7l0.6-0.6l-2.7-2c-0.2-0.2-0.3-0.5-0.1-0.7c0.2-0.2,0.5-0.3,0.7-0.1l2.2,1.6l0-0.3c0-0.3,0.1-0.5,0.4-0.5
	c0.3,0,0.5,0.1,0.5,0.4l0.1,0.6l3.1-3.1c0.2-0.2,0.5-0.2,0.7,0c0.2,0.2,0.2,0.5,0,0.7l-3.4,3.4c0.2,0.2,0.2,0.4,0.1,0.6
	c-0.1,0.1-0.1,0.1-0.2,0.2l0.6,4.3c0,0.3-0.1,0.5-0.4,0.5c-0.3,0-0.5-0.1-0.5-0.4l-0.6-4.2L71,16L71,16z M76.2,10
	c0.3,0.3,0.6,0.6,0.8,1c0.2,0.3,0.4,0.7,0.6,1.1l0,0c0.2,0.4,0.3,0.8,0.4,1.2c0.1,0.4,0.1,0.8,0.1,1.3c0,0.4,0,0.9-0.1,1.3
	c-0.1,0.4-0.2,0.8-0.4,1.2l0,0c-0.2,0.4-0.4,0.8-0.6,1.1c-0.2,0.4-0.5,0.7-0.8,1c-0.3,0.3-0.6,0.6-1,0.8c-0.4,0.2-0.7,0.4-1.1,0.6
	c-0.4,0.2-0.8,0.3-1.2,0.4c-0.4,0.1-0.8,0.1-1.3,0.1c-0.4,0-0.9,0-1.3-0.1c-0.4-0.1-0.8-0.2-1.2-0.4l0,0c-0.4-0.2-0.8-0.4-1.1-0.6
	c-0.3-0.2-0.7-0.5-1-0.8l0,0c-0.3-0.3-0.6-0.6-0.8-1c-0.2-0.4-0.4-0.7-0.6-1.1c-0.2-0.4-0.3-0.8-0.4-1.2c-0.1-0.4-0.1-0.8-0.1-1.3
	c0-0.4,0-0.9,0.1-1.3c0.1-0.4,0.2-0.8,0.4-1.2l0,0c0.2-0.4,0.4-0.8,0.6-1.1c0.2-0.4,0.5-0.7,0.8-1l0,0c0.3-0.3,0.6-0.6,1-0.8
	c0.3-0.2,0.7-0.4,1.1-0.6c0.4-0.2,0.8-0.3,1.2-0.4c0.4-0.1,0.8-0.1,1.3-0.1c0.4,0,0.9,0,1.3,0.1c0.4,0.1,0.8,0.2,1.2,0.4l0,0
	c0.4,0.2,0.8,0.4,1.1,0.6C75.5,9.4,75.9,9.7,76.2,10L76.2,10z M75.7,8.4c0.4,0.3,0.8,0.6,1.1,0.9c0.3,0.3,0.7,0.7,0.9,1.1
	c0.3,0.4,0.5,0.8,0.7,1.3l0,0c0.2,0.4,0.3,0.9,0.4,1.4c0.1,0.5,0.1,1,0.1,1.5c0,0.5,0,1-0.1,1.5c-0.1,0.5-0.2,1-0.4,1.4
	c-0.2,0.5-0.4,0.9-0.7,1.3c-0.3,0.4-0.6,0.8-0.9,1.1c-0.3,0.3-0.7,0.7-1.1,0.9c-0.4,0.3-0.8,0.5-1.3,0.7h0c-0.4,0.2-0.9,0.3-1.4,0.4
	c-0.5,0.1-1,0.1-1.5,0.1c-0.5,0-1,0-1.5-0.1c-0.5-0.1-1-0.2-1.4-0.4c-0.5-0.2-0.9-0.4-1.3-0.7c-0.4-0.3-0.8-0.6-1.1-0.9l0,0
	c-0.3-0.3-0.7-0.7-0.9-1.1c-0.3-0.4-0.5-0.8-0.7-1.3c-0.2-0.4-0.3-0.9-0.4-1.4c-0.1-0.5-0.1-1-0.1-1.5c0-0.5,0-1,0.1-1.5
	c0.1-0.5,0.2-1,0.4-1.4c0.2-0.5,0.4-0.9,0.7-1.3c0.3-0.4,0.6-0.8,0.9-1.1l0,0C66.6,9,67,8.7,67.4,8.4c0.4-0.3,0.8-0.5,1.3-0.7h0
	c0.4-0.2,0.9-0.3,1.4-0.4c0.5-0.1,1-0.1,1.5-0.1c0.5,0,1,0,1.5,0.1c0.5,0.1,0.9,0.2,1.4,0.4l0,0C74.9,7.9,75.3,8.1,75.7,8.4
	L75.7,8.4z M64.8,7.8C66.5,6.1,68.9,5,71.6,5c2.7,0,5.1,1.1,6.8,2.8c1.7,1.7,2.8,4.1,2.8,6.8c0,2.7-1.1,5.1-2.8,6.8
	c-1.7,1.7-4.1,2.8-6.8,2.8c-2.7,0-5.1-1.1-6.8-2.8C63,19.7,62,17.3,62,14.6C62,12,63,9.6,64.8,7.8z"/>
<path class="st1" d="M21.9,21.7c-0.1,0-0.2-0.1-0.3-0.1c-0.3-0.1-0.6-0.3-0.8-0.5c-1.4-1-2.2-2.4-2.5-3.9c-0.3-1.5,0.1-3.1,1-4.5
	c0.9-1.2,2.1-2,3.4-2.4c1.4-0.3,2.8-0.2,4.1,0.4l0.1,0.1c0.1,0.1,0.3,0.2,0.4,0.3c0.3,0.2,0.3,0.6,0.1,0.9l-1.8,2.5l10.7,0L32.8,4.5
	l-1.7,2.4c-0.2,0.3-0.7,0.4-1,0.2c-2.5-1.6-5.3-2.1-8-1.6c-2.7,0.5-5.2,2-6.9,4.5c-1.7,2.4-2.3,5.4-1.8,8.2c0.5,2.8,2,5.3,4.5,7.1
	c0.7,0.5,1.4,0.9,2.1,1.2c0.4,0.2,0.8,0.3,1.2,0.4c-0.1-0.5-0.1-1-0.1-1.5c0-1.1,0.2-2.2,0.6-3.2C21.8,21.9,21.8,21.8,21.9,21.7
	L21.9,21.7z M29.1,26.8c-0.3,0.3-0.7,0.3-1,0c-0.3-0.3-0.3-0.7,0-1l0.5-0.5l-3-2.2c-0.3-0.2-0.4-0.7-0.1-1c0.2-0.3,0.7-0.4,1-0.1
	l2.3,1.7c0-0.3,0.3-0.7,0.6-0.7c0.4-0.1,0.7,0.2,0.8,0.6l0,0.2l3-3c0.3-0.3,0.7-0.3,1,0c0.3,0.3,0.3,0.7,0,1l-3.4,3.4l0,0
	c0.3,0.2,0.4,0.7,0.1,1c-0.1,0.1-0.2,0.2-0.4,0.3l0.6,4.2c0.1,0.4-0.2,0.7-0.6,0.8c-0.4,0.1-0.7-0.2-0.8-0.6L29.1,26.8L29.1,26.8
	L29.1,26.8z M22.8,27.2c-0.2-0.6-0.3-1.3-0.3-2c0-1,0.2-1.9,0.5-2.7c0.4-0.9,0.9-1.6,1.5-2.3c0.7-0.7,1.4-1.2,2.3-1.5
	c0.8-0.3,1.7-0.5,2.7-0.5c1,0,1.9,0.2,2.7,0.5c0.9,0.4,1.6,0.9,2.3,1.5c0.7,0.7,1.2,1.4,1.5,2.3c0.3,0.8,0.5,1.7,0.5,2.7
	c0,1-0.2,1.9-0.5,2.7c-0.4,0.9-0.9,1.6-1.5,2.3c-0.7,0.7-1.4,1.2-2.3,1.5c-0.8,0.3-1.7,0.5-2.7,0.5c-1,0-1.9-0.2-2.7-0.5
	c-0.9-0.4-1.6-0.9-2.3-1.5c-0.7-0.7-1.2-1.4-1.5-2.3c0-0.1-0.1-0.2-0.1-0.3C23,27.5,22.9,27.4,22.8,27.2L22.8,27.2z M21.7,28.3
	c-0.7-0.2-1.5-0.4-2.2-0.7c-0.8-0.3-1.7-0.8-2.4-1.3c-2.8-2-4.5-4.9-5-8c-0.5-3.1,0.1-6.5,2.1-9.2c1.9-2.8,4.8-4.5,7.8-5
	c2.8-0.5,5.9-0.1,8.5,1.5l2-2.9c0.1-0.1,0.2-0.2,0.4-0.3c0.4-0.1,0.8,0.1,0.9,0.4L38.1,15l0,0c0,0.1,0,0.2,0,0.2
	c0,0.4-0.3,0.7-0.7,0.7c-2.2,0-4.4,0-6.5,0c-2.2,0-4.3,0-6.5,0c-0.2,0-0.3,0-0.5-0.1c-0.3-0.2-0.4-0.7-0.2-1l2.1-3
	c-0.9-0.4-1.9-0.4-2.8-0.2c-1,0.3-2,0.9-2.6,1.8l0,0c-0.7,1-1,2.3-0.8,3.4c0.2,1.2,0.8,2.2,1.9,3l0,0c0.2,0.1,0.4,0.3,0.6,0.4
	c0.1,0.1,0.3,0.1,0.4,0.2c0.3-0.4,0.6-0.9,1-1.2c0.8-0.8,1.7-1.4,2.8-1.8c1-0.4,2.1-0.6,3.2-0.6c1.1,0,2.2,0.2,3.2,0.6
	c1,0.4,2,1.1,2.8,1.8c0.8,0.8,1.4,1.7,1.8,2.8c0.4,1,0.6,2.1,0.6,3.2c0,1.1-0.2,2.2-0.6,3.2c-0.4,1-1.1,2-1.8,2.8
	c-0.8,0.8-1.7,1.4-2.8,1.8c-1,0.4-2.1,0.6-3.2,0.6c-1.1,0-2.2-0.2-3.2-0.6c-1-0.4-2-1.1-2.8-1.8c-0.8-0.8-1.4-1.7-1.8-2.8
	C21.7,28.4,21.7,28.3,21.7,28.3z"/>
</svg>
