<?xml version="1.0" encoding="utf-8"?>
<!-- Generator: Adobe Illustrator 25.4.1, SVG Export Plug-In . SVG Version: 6.00 Build 0)  -->
<svg version="1.1" id="Layer_1" xmlns="http://www.w3.org/2000/svg" xmlns:xlink="http://www.w3.org/1999/xlink" x="0px" y="0px"
	 width="90px" height="59.9px" viewBox="0 0 90 59.9" style="enable-background:new 0 0 90 59.9;" xml:space="preserve">
<style type="text/css">
	.st0{fill-rule:evenodd;clip-rule:evenodd;fill:#00335C;***REMOVED***
</style>
<path id="Path_6436" class="st0" d="M17.6,55.5c-0.8-0.1-1.3-0.7-1.3-1.5c0.1-0.7,0.6-1.2,1.3-1.3h2.8V29.6h-0.3
	c-0.8,0-1.4-0.6-1.4-1.4c0,0,0,0,0,0V24h-1.2c-0.8,0-1.4-0.6-1.4-1.4c0,0,0,0,0,0V19c0-0.5,0.3-1,0.8-1.3L44.4,4.5
	c0.4-0.2,0.8-0.2,1.2,0l27.3,13.1c0.5,0.2,0.9,0.7,0.9,1.3v3.6c0,0.8-0.6,1.4-1.4,1.4h-1.2v4.2c0,0.8-0.6,1.4-1.4,1.4c0,0,0,0,0,0
	h-0.3v23.1h2.8c0.8,0.1,1.3,0.7,1.3,1.5c-0.1,0.7-0.6,1.2-1.3,1.3L17.6,55.5z M32.7,29.6v23.1h6.2V29.6h-0.3c-0.8,0-1.4-0.6-1.4-1.4
	v0V24h-2.9v4.2c0,0.8-0.6,1.4-1.4,1.4H32.7z M31.6,24h-10v2.8h10L31.6,24L31.6,24z M29.9,29.6h-6.7v23.1h6.7V29.6z M51.1,29.6v23.1
	h6.2V29.6H57c-0.8,0-1.4-0.6-1.4-1.4v0V24h-2.9v4.2c0,0.8-0.6,1.4-1.4,1.4c0,0,0,0,0,0H51.1z M50,24H40v2.8h10L50,24L50,24z
	 M48.3,29.6h-6.6v23.1h6.6L48.3,29.6L48.3,29.6z M66.7,29.6h-6.6v23.1h6.6L66.7,29.6L66.7,29.6z M58.4,24v2.8h10V24H58.4z M19,21.2
	H71v-1.4L45,7.3L19,19.9L19,21.2z"/>
</svg>
