<?xml version="1.0" encoding="utf-8"?>
<!-- Generator: Adobe Illustrator 25.4.1, SVG Export Plug-In . SVG Version: 6.00 Build 0)  -->
<svg version="1.1" id="Layer_1" xmlns="http://www.w3.org/2000/svg" xmlns:xlink="http://www.w3.org/1999/xlink" x="0px" y="0px"
	 viewBox="0 0 90 59.9" style="enable-background:new 0 0 90 59.9;" xml:space="preserve">
<style type="text/css">
	.st0{fill-rule:evenodd;clip-rule:evenodd;fill:#10487A;}
</style>
<path class="st0" d="M29.4,5.1H16.1c-0.1,0-0.1,0-0.1,0.1l0,0c0,0,0,0.1,0,0.1v50.9c0,0.1,0,0.1,0.1,0.1c0,0,0.1,0.1,0.1,0.1h13.3
	c0.1,0,0.1,0,0.1-0.1l0,0c0,0,0.1-0.1,0.1-0.1V5.3c0-0.1,0-0.1-0.1-0.1C29.5,5.1,29.5,5.1,29.4,5.1L29.4,5.1z M65.3,12.5
	c1-0.1,1.8,0.5,2,1.5c0.1,1-0.5,1.8-1.5,2l-7.6,1c-1,0.1-1.8-0.5-2-1.5c-0.1-1,0.5-1.8,1.5-2L65.3,12.5L65.3,12.5z M65.4,41.9
	c-0.6,0.1-1.1,0.4-1.4,0.8c-0.3,0.4-0.5,1-0.4,1.6c0.1,0.6,0.4,1.1,0.8,1.4c0.4,0.3,1,0.5,1.6,0.4c0.6-0.1,1.1-0.4,1.4-0.8
	c0.3-0.4,0.5-1,0.4-1.6c-0.1-0.6-0.4-1.1-0.8-1.4C66.6,42,66,41.9,65.4,41.9L65.4,41.9z M61.3,40.6c0.9-1.1,2.2-2,3.7-2.2
	c1.5-0.2,3,0.2,4.1,1.1c1.1,0.9,2,2.2,2.2,3.7c0.2,1.5-0.2,3-1.1,4.1c-0.9,1.1-2.2,2-3.7,2.2c-1.5,0.2-3-0.2-4.1-1.1
	c-1.1-0.9-2-2.2-2.2-3.7C60,43.2,60.4,41.8,61.3,40.6L61.3,40.6z M66.9,3.5L53.8,5.3c0,0-0.1,0-0.1,0.1l0,0c0,0-0.1,0.1,0,0.2
	c1.9,16.7,5.3,33.8,6.9,50.4c0,0,0,0.1,0.1,0.1l0,0c0,0,0.1,0.1,0.2,0l13.2-1.8c0.1,0,0.1,0,0.1-0.1l0,0c0,0,0.1-0.1,0-0.2
	c-1.9-16.7-5.3-33.8-6.9-50.4c0-0.1,0-0.1-0.1-0.1l0,0C67,3.5,67,3.5,66.9,3.5L66.9,3.5L66.9,3.5z M53.4,1.8l12.9-1.8
	c0.1,0,0.2,0,0.3,0c0.9-0.1,1.9,0.2,2.6,0.7v0c0.7,0.5,1.2,1.3,1.4,2.3c0,0.1,0,0.2,0,0.3l6.9,50.2c0,0.1,0,0.2,0,0.3
	c0.1,0.9-0.2,1.9-0.7,2.6h0c-0.5,0.7-1.3,1.2-2.3,1.4c-0.1,0-0.2,0-0.3,0l-12.9,1.8c-0.1,0-0.2,0-0.3,0c-0.9,0.1-1.9-0.2-2.6-0.7v0
	c-0.7-0.5-1.2-1.3-1.4-2.3c0-0.1,0-0.2-0.1-0.3l-6.7-49v48.8c0,1-0.4,2-1.1,2.6h0c-0.7,0.7-1.6,1.1-2.6,1.1H33.3
	c-0.7,0-1.4-0.2-2-0.6c-0.6,0.4-1.2,0.6-2,0.6H16.1c-1,0-1.9-0.4-2.6-1.1l0,0c-0.7-0.7-1.1-1.6-1.1-2.6V5.3c0-1,0.4-1.8,1-2.5
	l0.1-0.1c0.7-0.7,1.6-1.1,2.6-1.1h13.3c0.7,0,1.4,0.2,2,0.6c0.6-0.4,1.2-0.6,2-0.6h13.3c1,0,2,0.4,2.6,1.1c0.5,0.5,0.9,1.1,1,1.9
	c0.1-0.5,0.3-0.9,0.6-1.2h0c0.5-0.7,1.3-1.2,2.3-1.4C53.2,1.8,53.3,1.8,53.4,1.8L53.4,1.8z M39.9,43c-0.6,0-1.1,0.2-1.5,0.6l0,0
	c-0.4,0.4-0.6,0.9-0.6,1.5c0,0.6,0.2,1.1,0.6,1.5c0.4,0.4,0.9,0.6,1.5,0.6c0.6,0,1.1-0.2,1.5-0.6l0.1-0.1c0.3-0.4,0.5-0.9,0.5-1.4
	c0-0.6-0.2-1.1-0.6-1.5C41,43.2,40.5,43,39.9,43L39.9,43z M35.9,41.1L35.9,41.1c-1,1-1.6,2.4-1.6,4c0,1.5,0.6,2.9,1.6,4l0,0
	c1,1,2.4,1.6,4,1.6c1.5,0,3-0.6,4-1.6l0.1-0.1c1-1,1.5-2.4,1.5-3.9c0-1.5-0.6-3-1.6-4c-1-1-2.4-1.6-4-1.6
	C38.3,39.4,36.9,40.1,35.9,41.1L35.9,41.1z M43.7,13.8H36c-1,0-1.8,0.8-1.8,1.8c0,1,0.8,1.8,1.8,1.8h7.7c1,0,1.8-0.8,1.8-1.8
	C45.5,14.6,44.7,13.8,43.7,13.8L43.7,13.8z M46.6,5.1H33.3c-0.1,0-0.1,0-0.1,0.1l0,0c0,0,0,0.1,0,0.1v0v0v50.9c0,0.1,0,0.1,0.1,0.1
	c0,0,0.1,0.1,0.1,0.1h13.3c0.1,0,0.1,0,0.1-0.1l0,0c0,0,0.1-0.1,0.1-0.1V5.3c0-0.1,0-0.1-0.1-0.1C46.7,5.1,46.7,5.1,46.6,5.1
	L46.6,5.1z M22.7,43c0.6,0,1.1,0.2,1.5,0.6l0,0c0.4,0.4,0.6,0.9,0.6,1.5c0,0.6-0.2,1-0.5,1.4l-0.1,0.1c-0.4,0.4-0.9,0.6-1.5,0.6
	c-0.6,0-1-0.2-1.4-0.5l-0.1-0.1c-0.4-0.4-0.6-0.9-0.6-1.5c0-0.6,0.2-1.1,0.6-1.5l0,0C21.6,43.2,22.1,43,22.7,43L22.7,43z M18.7,41.1
	c1-1,2.4-1.6,4-1.6c1.5,0,3,0.6,4,1.6v0c1,1,1.6,2.4,1.6,4c0,1.5-0.6,2.8-1.5,3.9L26.7,49c-1,1-2.4,1.6-4,1.6
	c-1.5,0-2.8-0.6-3.9-1.5L18.7,49c-1-1-1.6-2.4-1.6-4C17.1,43.5,17.7,42.1,18.7,41.1L18.7,41.1L18.7,41.1z M26.5,13.8
	c1,0,1.8,0.8,1.8,1.8c0,1-0.8,1.8-1.8,1.8h-7.7c-1,0-1.8-0.8-1.8-1.8c0-1,0.8-1.8,1.8-1.8H26.5z"/>
</svg>
