<?xml version="1.0" encoding="utf-8"?>
<!-- Generator: Adobe Illustrator 25.4.1, SVG Export Plug-In . SVG Version: 6.00 Build 0)  -->
<svg version="1.1" id="Layer_1" xmlns="http://www.w3.org/2000/svg" xmlns:xlink="http://www.w3.org/1999/xlink" x="0px" y="0px"
	 width="93.3px" height="78.7px" viewBox="0 0 93.3 78.7" style="enable-background:new 0 0 93.3 78.7;" xml:space="preserve">
<style type="text/css">
	.st0{fill-rule:evenodd;clip-rule:evenodd;fill:#9A1C1F;}
</style>
<path class="st0" d="M54.7,71.2V25.8v0c0-0.1,0-0.1-0.1-0.2h0c0,0-0.1-0.1-0.2-0.1H38.9c-0.1,0-0.1,0-0.2,0.1l0,0
	c0,0-0.1,0.1-0.1,0.2v18l0,0.1v27.3H54.7L54.7,71.2z M8.6,75.3c-1.2,0-2.1-0.9-2.1-2.1c0-1.2,0.9-2.1,2.1-2.1h5.7V43.8
	c0-1.1,0.4-2.2,1.2-3l0.1-0.2c0.8-0.8,1.9-1.3,3.1-1.3h15.6c0.1,0,0.2,0,0.2,0V25.8c0-1.2,0.5-2.3,1.3-3.1h0
	c0.8-0.8,1.9-1.3,3.1-1.3h15.6c0.1,0,0.2,0,0.2,0V7.8c0-1.2,0.5-2.3,1.3-3.1c0.8-0.8,1.9-1.3,3.1-1.3h15.6c1.2,0,2.3,0.5,3.1,1.3
	c0.8,0.8,1.3,1.9,1.3,3.1v63.4h5.7c1.2,0,2.1,0.9,2.1,2.1c0,1.2-0.9,2.1-2.1,2.1h-28H36.5H8.6L8.6,75.3z M74.9,71.2V7.8
	c0-0.1,0-0.1-0.1-0.2c0,0-0.1-0.1-0.2-0.1H59.1c-0.1,0-0.1,0-0.2,0.1c0,0-0.1,0.1-0.1,0.2v18v45.3H74.9L74.9,71.2z M34.5,43.8
	c0-0.1,0-0.1-0.1-0.1l0,0c0,0-0.1,0-0.1,0H18.7c-0.1,0-0.1,0-0.2,0.1l0,0c0,0,0,0.1,0,0.1v27.3h16V43.8L34.5,43.8z"/>
</svg>
